<?xml version="1.0" encoding="utf-8"?>
<!-- Generator: Adobe Illustrator 16.0.0, SVG Export Plug-In . SVG Version: 6.00 Build 0)  -->
<!DOCTYPE svg PUBLIC "-//W3C//DTD SVG 1.1//EN" "http://www.w3.org/Graphics/SVG/1.1/DTD/svg11.dtd">
<svg version="1.1" id="Layer_1" xmlns="http://www.w3.org/2000/svg" xmlns:xlink="http://www.w3.org/1999/xlink" x="0px" y="0px"
	 width="595.28px" height="841.89px" viewBox="0 0 595.28 841.89" enable-background="new 0 0 595.28 841.89" xml:space="preserve">
<linearGradient id="SVGID_1_" gradientUnits="userSpaceOnUse" x1="0" y1="418.2363" x2="592.2227" y2="418.2363">
	<stop  offset="0.0056" style="stop-color:#ECC562"/>
	<stop  offset="1" style="stop-color:#C3922E"/>
</linearGradient>
<path fill="url(#SVGID_1_)" d="M542.39,418.244l21.897-12.643l27.936-48.39l-35.853-62.119h-46.956l23.475-40.668l-35.857-62.115
	h-55.895l-21.893,12.643v-25.271l-27.936-48.395h-71.707l-23.485,40.664l-23.476-40.664h-71.716l-27.945,48.395v25.271
	l-21.884-12.643H95.207l-35.844,62.095l23.495,40.688H35.868L0,357.211l27.949,48.39l21.889,12.643l-21.889,12.627L0,479.275
	l35.868,62.095h46.976l-23.491,40.68l35.854,62.129h55.889l21.884-12.653v25.279l27.945,48.381h71.716l23.476-40.648l23.48,40.648
	h71.712l27.954-48.381v-25.279l21.874,12.653h55.895l35.857-62.129l-23.475-40.68h46.956l35.853-62.095l-27.936-48.404
	L542.39,418.244z M543.987,316.529l23.495,40.683l-18.893,32.694l-27.637,15.952l-56.625-32.683l32.703-56.645H543.987z
	 M249.761,541.37h13.359l11.565,6.679l-15.808,9.119L249.761,541.37z M268.869,519.945h-31.485l-15.736-27.271l-27.242-15.721
	v-31.462l-15.731-27.248l15.736-27.262V359.51l27.256-15.725l15.731-27.257h31.471l27.248-15.726l27.242,15.726h31.476l15.74,27.257
	l27.248,15.725v31.471l15.735,27.262v0.005l-15.721,27.242v31.471l-27.263,15.745l-15.721,27.238h-31.495l-27.242,15.734
	L268.869,519.945z M225.016,295.092h-30.605l0.009-53.018l45.888,26.512L225.016,295.092z M194.411,316.529h18.228l-6.667,11.55
	l-11.56,6.682V316.529z M172.979,347.133l-26.511,15.308l-26.502-45.912h53.013V347.133z M172.979,451.235v13.344l-15.789-9.112
	l9.102-15.792L172.979,451.235z M172.979,385.233l-6.682,11.561l-9.107-15.803l15.789-9.098V385.233z M153.925,418.244
	L153.925,418.244l-15.288,26.497L92.71,418.244l45.927-26.516L153.925,418.244z M172.979,489.334v30.611h-53.027l26.497-45.934
	L172.979,489.334z M212.638,519.945h-18.232v-18.247l11.559,6.682L212.638,519.945z M249.761,295.092l9.116-15.783l15.808,9.111
	l-11.565,6.672H249.761z M435.051,455.467l-15.773,9.122v-13.354l6.652-11.546L435.051,455.467z M425.93,396.812l-6.686-11.58
	v-13.34l15.807,9.122L425.93,396.812z M419.244,347.133v-30.604h53.041l-26.517,45.912L419.244,347.133z M397.822,295.092h-30.615
	l-15.288-26.506l45.903-26.512V295.092z M397.822,316.529v18.232l-11.551-6.658l-6.682-11.574H397.822z M342.456,295.092h-13.339
	l-11.561-6.672l15.789-9.111L342.456,295.092z M329.117,541.37h13.354l-9.125,15.809l-15.789-9.13L329.117,541.37z M367.227,541.37
	h30.61l-0.015,53.041l-45.903-26.521L367.227,541.37z M397.837,519.945h-18.233l6.668-11.565l11.565-6.663V519.945z
	 M419.277,489.334l26.491-15.322l26.517,45.934h-53.008V489.334z M438.312,418.249l15.308-26.512l45.902,26.506L453.62,444.74
	L438.312,418.249z M419.244,229.702l27.636-15.947h37.773l23.49,40.669l-23.486,40.668h-65.413V229.702z M331.975,152.713h46.956
	l18.892,32.712v31.909l-56.626,32.678l-32.702-56.63L331.975,152.713z M322.627,260.75l-26.511,15.302L269.6,260.75l26.517-45.922
	L322.627,260.75z M194.42,185.425l18.873-32.712h46.975l23.471,40.669l-32.693,56.63l-56.626-32.678V185.425z M84.108,254.404
	l23.471-40.649h37.773l27.627,15.947v65.39h-65.381L84.108,254.404z M43.632,389.905L24.75,357.211l23.491-40.683h46.98
	l32.683,56.629l-56.63,32.699L43.632,389.905z M48.241,519.945l-23.491-40.67l18.882-32.712l27.628-15.957l56.635,32.703
	l-32.688,56.636H48.241z M145.362,622.728h-37.783l-23.48-40.678l23.48-40.68h65.4v65.416L145.362,622.728z M225.016,541.37
	l15.292,26.521l-45.897,26.521l-0.004-53.041H225.016z M260.268,683.773h-46.975l-18.882-32.717v-31.903l56.635-32.684l32.693,56.64
	L260.268,683.773z M269.6,575.736l26.517-15.302l26.511,15.302l-26.511,45.933L269.6,575.736z M397.822,651.057l-18.882,32.717
	h-46.98l-23.466-40.669l32.702-56.635l56.626,32.684V651.057z M508.144,582.05l-23.49,40.678H446.88l-27.617-15.941l0.015-65.416
	h65.376L508.144,582.05z M543.987,519.945h-46.956l-32.703-56.636l56.625-32.698l27.637,15.952l18.893,32.712L543.987,519.945z"/>
</svg>
