<?xml version="1.0" encoding="utf-8"?>
<!-- Generator: Adobe Illustrator 16.0.0, SVG Export Plug-In . SVG Version: 6.00 Build 0)  -->
<!DOCTYPE svg PUBLIC "-//W3C//DTD SVG 1.1//EN" "http://www.w3.org/Graphics/SVG/1.1/DTD/svg11.dtd">
<svg version="1.1" id="Layer_1" xmlns="http://www.w3.org/2000/svg" xmlns:xlink="http://www.w3.org/1999/xlink" x="0px" y="0px"
	 width="595.28px" height="841.89px" viewBox="0 0 595.28 841.89" enable-background="new 0 0 595.28 841.89" xml:space="preserve">
<linearGradient id="SVGID_1_" gradientUnits="userSpaceOnUse" x1="4.882812e-04" y1="426.5996" x2="594.9316" y2="426.5996">
	<stop  offset="0.0056" style="stop-color:#ECC562"/>
	<stop  offset="1" style="stop-color:#C3922E"/>
</linearGradient>
<path fill="url(#SVGID_1_)" d="M592.31,431.089l-4.56,1.716c-0.319,0.116-30.119,10.909-59.366-5.396
	c29.257-16.304,59.047-5.506,59.366-5.387l4.56,1.724l1.5-4.637c0.187-0.601,4.749-15.292-5.976-36.028
	c-6.646-12.803-20.062-28.889-24.418-33.932c0.612-5.799,5.422-25.623,4.934-39.453c-0.453-13.347-0.887-30.253-4.57-36.606l0,0
	c-0.021-0.02-0.04-0.05-0.049-0.079c-0.011-0.025-0.041-0.05-0.056-0.08l0,0c-3.679-6.367-20.353-15.065-30.816-21.387
	c-13.002-7.865-31.274-14.298-35.335-16.09c-2.231-6.283-9.529-25.912-17.344-38.04c-12.651-19.61-27.646-22.95-28.278-23.089
	l-4.779-0.996l-0.771,4.809c-0.052,0.314-5.517,31.593-34.221,48.873c1.248-32.623,24.847-52.392,25.076-52.591l3.782-3.082
	l-3.255-3.64c-0.439-0.487-10.828-11.778-34.152-12.894c-14.422-0.702-35.057,2.833-41.618,4.042
	c-4.7-3.424-18.275-19.47-31.633-27.142c-10.563-6.088-26.604-14.432-33.947-14.432l0,0c-0.039,0-0.079,0-0.109,0s-0.06,0-0.095,0
	c-7.343,0-22.87,7.029-33.958,14.387c-11.53,7.662-26.942,23.687-31.647,27.137c-6.557-1.229-27.207-4.79-41.634-4.107
	c-23.299,1.085-33.703,12.396-34.142,12.869l-3.266,3.625l3.774,3.096c0.243,0.184,23.08,19.375,24.976,51.053
	c-26.47-17.539-31.597-46.926-31.651-47.229l-0.767-4.81l-4.774,1.001c-0.623,0.125-15.617,3.465-28.288,23.07
	c-7.831,12.137-15.104,31.762-17.349,38.054c-5.337,2.34-26.003,6.054-39.359,13.746c-10.549,6.098-25.813,15.811-29.487,22.163
	c-0.02,0.01-0.035,0.055-0.065,0.09c-0.005,0.015-0.015,0.05-0.04,0.084l0.011-0.02c-3.699,6.358-5.392,23.309-4.585,36.591
	c0.855,13.83,6.989,35.201,7.601,40.996c-4.355,5.067-17.772,21.128-24.414,33.947c-10.729,20.729-6.183,35.391-5.989,36.014
	l1.503,4.639l4.565-1.707c0.299-0.129,30.094-10.914,59.357,5.386c-29.263,16.288-59.058,5.501-59.373,5.377l-4.555-1.692
	l-1.499,4.609c-0.199,0.626-4.754,15.294,5.984,36.022c6.631,12.825,20.053,28.895,24.389,33.953
	c-0.602,5.804-7.662,25.6-7.606,40.996c0.059,12.188,0.9,30.253,4.574,36.601c0.025,0.029,0.045,0.069,0.06,0.08
	c0.01,0.044,0.025,0.074,0.045,0.099v-0.014c3.689,6.356,17.543,16.259,29.491,22.157c12.411,6.134,34.012,11.417,39.339,13.774
	c2.24,6.274,9.519,25.925,17.345,38.035c12.664,19.61,27.644,22.951,28.282,23.07l4.774,1.02l0.766-4.817
	c0.041-0.31,5.168-29.626,31.568-47.175c-1.333,32.532-24.837,52.257-25.091,52.445l-3.778,3.088l3.266,3.618
	c0.418,0.483,10.833,11.795,34.147,12.914c14.412,0.697,35.052-2.848,41.613-4.062c4.699,3.431,19.431,17.544,31.632,24.056
	c11.774,6.313,26.614,14.422,33.948,14.422l0,0c0.049,0,0.079,0,0.114,0c0.01,0,0.06,0,0.085,0c7.347,0,23.253-10.052,33.968-15.93
	c13.307-7.303,28.057-19.863,31.65-22.467c6.552,1.199,27.183,4.768,41.594,4.092c23.329-1.11,33.739-12.392,34.172-12.869
	l3.271-3.635l-3.773-3.071c-0.26-0.209-24.674-20.729-25.087-54.389c28.894,17.26,34.371,48.688,34.405,48.993l0.788,4.834
	l4.768-1.002c0.629-0.134,15.633-3.479,28.307-23.084c7.816-12.127,15.101-31.758,17.335-38.044
	c5.337-2.351,24.912-8.03,36.686-15.313c11.342-7.034,25.803-15.797,29.486-22.153h0.011c0.01-0.025,0.02-0.051,0.055-0.086
	c0.01-0.029,0.024-0.058,0.034-0.084l0,0c3.698-6.353,2.957-25.155,3.251-37.368c0.368-15.189-3.121-34.245-3.599-38.656
	c4.355-5.053,17.771-21.134,24.423-33.953c10.733-20.729,6.177-35.4,5.99-36.007L592.31,431.089z M454.266,185.089
	c4.393,2.211,11.48,7.084,18.115,17.364c8.613,13.333,16.952,37.731,17.027,37.979l0.682,2.002l1.966,0.787
	c0.189,0.075,21.802,6.268,35.576,14.124c11.026,6.288,24.612,14.407,28.052,20.321c3.431,5.939,3.396,22.015,3.703,34.476
	c0.371,14.835-5.4,37.676-5.424,37.874l-0.265,2.106l1.379,1.594c0.185,0.188,17.186,19.539,24.504,33.644
	c5.61,10.872,6.328,19.44,6.043,24.344c-11.236-2.869-38.209-7.01-64.813,9.399c-0.348,0.204-0.711,0.448-1.075,0.667
	c-8.522-6.258-18.415-15.239-28.506-24.787c1.818-1.229,3.645-2.385,5.433-3.416c20.217-11.744,40.808-8.148,41.001-8.114
	l6.485,1.225l-1.03-6.527c-0.078-0.477-2.015-12.097-10.304-21.217c-3.156-3.49-6.706-6.337-9.017-8.045
	c0.867-5.983,7.613-24.917,9.301-34.883c1.487-8.812,3.329-20.536,0.442-25.529l0,0c-0.025-0.031-0.039-0.06-0.05-0.085
	c-0.01-0.025-0.03-0.064-0.061-0.089l0,0c-2.872-4.988-15.591-9.673-22.366-12.271c-11.846-4.541-29.272-7.01-34.92-9.229
	c-0.332-2.854-1.044-7.354-2.508-11.834c-3.813-11.719-12.93-19.142-13.317-19.455l-5.147-4.127l-2.155,6.228
	c-0.075,0.194-7.159,19.853-27.382,31.597c-1.962,1.115-4.053,2.226-6.232,3.286c-3.181-13.596-5.943-26.684-6.948-37.064
	c0.491-0.234,0.975-0.503,1.457-0.737C441.357,221.739,451.145,196.286,454.266,185.089z M514.249,502.378
	c0.03,0.179,7.683,21.243,9.838,34.325c0.985,5.975,4.037,18.405,1.459,22.825c-2.544,4.432-13.611,8.062-20.531,10.087
	c-10.724,3.138-34.499,8.474-34.674,8.522l-2.887,1.065l-0.176,3.067c0,0.06-0.373,6.438-2.334,12.516
	c-1.413,4.335-3.844,7.995-5.989,10.619c-4.097-7.798-12.818-20.836-28.566-29.977c-2.652-1.542-5.525-2.996-8.552-4.415
	c0.333-1.327,0.652-2.663,0.972-4.002c4.599-18.977,9.368-38.611,10.772-53.338c0.19-2.016,0.305-4.002,0.407-5.96
	c2.117-1.328,4.237-2.732,6.344-4.247c12.058-8.592,26.663-22.545,40.782-36.041c1.105-1.07,2.24-2.132,3.346-3.212
	c2.559,1.797,5.072,3.409,7.562,4.854c15.761,9.125,31.403,10.196,40.199,9.871c-1.209,3.167-3.174,7.08-6.227,10.47
	c-4.306,4.735-9.653,8.234-9.693,8.264l-2.585,1.674L514.249,502.378z M181.409,577.605c10.36-4.416,22.551-8.269,35.106-11.743
	c3.316,12.5,6.153,24.921,7.682,36.122c-13.078,3.973-25.648,8.064-35.57,12.416C187.288,603.582,184.51,590.749,181.409,577.605z
	 M78.661,497.862c-0.055-0.035-5.412-3.525-9.718-8.253c-3.066-3.381-5.022-7.305-6.237-10.465c8.801,0.313,24.443-0.776,40.2-9.906
	c2.534-1.47,5.083-3.122,7.677-4.935c1.071,1.015,2.141,2.052,3.221,3.062c14.124,13.517,28.714,27.481,40.772,36.058
	c1.175,0.847,2.37,1.658,3.54,2.43c0.08,2.519,0.233,5.073,0.483,7.667c1.383,14.74,6.119,34.375,10.703,53.357
	c0.448,1.828,0.892,3.645,1.319,5.478c-2.081,1.039-4.102,2.105-6.009,3.204c-15.755,9.141-24.448,22.194-28.545,29.989
	c-2.141-2.623-4.565-6.271-5.974-10.618c-1.992-6.083-2.37-12.445-2.37-12.51l-0.165-3.073l-2.897-1.045
	c-0.169-0.05-23.931-5.376-34.659-8.518c-6.949-2.016-18.006-5.63-20.555-10.061c-2.584-4.411,0.458-16.857,1.443-22.826
	c2.141-13.077,9.777-34.146,9.808-34.336l0.528-3.032L78.661,497.862z M80.647,352.37c-0.03-0.189-7.218-23.452-9.832-34.325
	c-1.693-7.024-4.038-18.419-1.479-22.835c2.56-4.431,14.865-7.965,20.546-10.085c12.416-4.636,34.489-8.479,34.673-8.538
	l2.878-1.046l0.169-3.062c0.01-0.06,0.389-6.437,2.345-12.531c1.418-4.34,3.854-7.989,5.994-10.613
	c4.092,7.796,12.799,20.839,28.565,29.974c2.047,1.18,4.236,2.331,6.522,3.445c-0.527,2.186-1.056,4.356-1.573,6.537
	c-4.615,18.993-9.369,38.618-10.763,53.348c-0.184,2.077-0.314,4.122-0.414,6.134c-1.239,0.816-2.458,1.647-3.688,2.524
	c-12.057,8.582-26.659,22.552-40.777,36.043c-1.11,1.061-2.24,2.13-3.351,3.201c-2.564-1.793-5.098-3.416-7.582-4.864
	c-15.757-9.121-31.403-10.21-40.21-9.877c1.219-3.161,3.175-7.083,6.237-10.464c4.296-4.73,9.639-8.239,9.698-8.28l2.563-1.662
	L80.647,352.37z M188.986,240.468c9.886,4.316,22.407,8.398,35.4,12.356c-1.404,11.187-4.221,23.653-7.517,36.262
	c-12.521-3.466-24.672-7.258-35.032-11.624C184.969,264.18,187.731,251.256,188.986,240.468z M403.581,241.528
	c1.311,10.793,4.067,23.623,7.184,36.78c-10.554,4.266-22.75,7.99-35.215,11.39c-3.282-12.5-6.109-24.911-7.573-36.074
	C380.855,249.752,393.411,245.745,403.581,241.528z M516.245,356.917c0.056,0.024,5.388,3.529,9.695,8.269
	c3.069,3.385,5.037,7.288,6.263,10.458c-8.799-0.318-24.47,0.773-40.217,9.898c-2.509,1.473-5.047,3.116-7.641,4.918
	c-1.07-1.03-2.141-2.06-3.217-3.082c-14.123-13.491-28.725-27.445-40.769-36.048c-2.125-1.513-4.25-2.932-6.372-4.255
	c-0.094-1.424-0.188-2.853-0.327-4.311c-1.38-14.727-6.124-34.366-10.709-53.343c-0.453-1.892-0.921-3.804-1.37-5.695
	c3.077-1.429,6.005-2.932,8.699-4.51c15.741-9.13,24.452-22.179,28.534-29.98c2.14,2.619,4.576,6.272,5.988,10.62
	c1.973,6.092,2.361,12.455,2.361,12.515l0.175,3.071l2.887,1.037c0.175,0.055,22.248,3.893,34.674,8.507
	c5.67,2.117,17.991,5.646,20.54,10.067c2.59,4.411,0.259,15.816-1.448,22.836c-2.594,10.881-9.763,34.156-9.797,34.33l-0.537,3.042
	L516.245,356.917z M449.766,420.718c-4.291-4.366-8.518-8.767-12.62-13.048c-3.092-3.215-6.139-6.377-9.115-9.439
	c-0.429-0.443-0.871-0.881-1.31-1.314c3.984-10.947,6.975-23.92,7.428-38.587c0.269,0.184,0.547,0.349,0.826,0.547
	c11.496,8.205,25.862,21.945,39.732,35.217c0.713,0.662,1.403,1.329,2.105,2.007C467.876,403.19,458.728,411.792,449.766,420.718z
	 M389.369,515.19c1.995-11.513,2.15-22.805,0.989-32.96c9.43-3.992,19.222-9.713,28.302-17.174
	c3.625,10.642,6.198,23.208,6.165,37.302C412.584,509.27,400.385,513.142,389.369,515.19z M369.405,553.749
	c-5.839-1.529-11.654-2.967-17.329-4.392c-3.137-0.791-6.233-1.568-9.291-2.345c5.596-8.004,9.42-15.407,11.874-20.952
	c5.741,0.592,13.512,0.94,22.567,0.232c-0.966,3.37-1.945,6.792-2.942,10.262C372.666,542.159,371.013,547.929,369.405,553.749z
	 M348.784,515.874l-0.024-0.056c0,0,0,0.024,0,0.035h-0.039l0.029,0.046c-1.728,4.704-6.412,15.976-15.632,28.441
	c-10.973-3.555-20.426-8.588-28.128-14.025c7.278-6.486,12.715-13.292,15.751-19.454c4.672-9.498,7.367-19.437,8.937-27.954
	c8.159,2.874,18.12,5.462,28.705,6.104c6.423,0.403,14.374-0.751,22.955-3.464c0.896,9.3,0.617,19.873-1.682,31.059
	C365.014,518.14,353.559,516.676,348.784,515.874z M297.453,576.191c-12.322-7.033-21.979-15.603-29.436-24.114
	c11.136-4.019,21.133-9.554,29.492-15.701c8.338,6.128,18.32,11.659,29.436,15.637C319.478,560.555,309.789,569.147,297.453,576.191
	z M217.975,536.555c-1.026-3.57-2.016-7.073-3.002-10.516c10.216,1.012,18.967,0.643,25.26,0
	c2.474,5.581,6.322,13.019,11.928,21.035c-3.042,0.786-6.118,1.559-9.265,2.345c-6.467,1.613-13.148,3.295-19.833,5.053
	C221.389,548.408,219.663,542.402,217.975,536.555z M246.162,515.884l0.04-0.049c-0.02,0-0.04,0-0.05,0.008
	c0-0.013,0-0.028-0.004-0.052l-0.03,0.062c-5.073,0.877-17.648,2.45-33.589,0.429c-2.29-11.399-2.508-22.168-1.538-31.548
	c9.583,3.306,18.504,4.75,25.578,4.322c10.574-0.668,20.526-3.262,28.705-6.143c1.569,8.516,4.271,18.449,8.956,27.947
	c3.037,6.162,8.489,12.973,15.787,19.459c-7.721,5.447-17.196,10.495-28.192,14.069
	C252.574,531.904,247.879,520.604,246.162,515.884z M203.069,340.054c-2.141,11.749-2.359,23.289-1.205,33.674
	c-9.454,4.291-19.152,10.324-28.078,18.056c-3.718-10.768-6.387-23.504-6.347-37.81C179.657,346.62,191.918,342.396,203.069,340.054
	z M223.431,300.462c6.531,1.717,13.053,3.35,19.391,4.933c3.156,0.776,6.257,1.563,9.339,2.35
	c-5.6,7.984-9.438,15.393-11.908,20.954c-6.193-0.638-14.796-0.996-24.837-0.035c0.826-2.947,1.692-5.924,2.559-8.952
	C219.771,313.441,221.639,306.983,223.431,300.462z M246.147,338.91l0.015,0.029c0,0,0.016-0.014,0.016-0.024
	c0.024,0,0.035,0,0.035,0l-0.01-0.036c1.703-4.724,6.382-15.994,15.617-28.461c10.967,3.546,20.406,8.593,28.117,14.03
	c-7.293,6.496-12.739,13.302-15.786,19.464c-4.665,9.514-7.363,19.446-8.921,27.964c-8.174-2.868-18.136-5.46-28.7-6.114
	c-7.089-0.442-16.065,1.02-25.678,4.367c-0.856-9.489-0.483-20.306,2.005-31.713C228.652,336.449,241.099,338.038,246.147,338.91z
	 M297.493,278.582c12.312,7.02,21.965,15.582,29.441,24.115c-11.149,4.002-21.152,9.539-29.506,15.697
	c-8.344-6.139-18.335-11.655-29.432-15.657C275.469,294.2,285.147,285.611,297.493,278.582z M374.284,319.712
	c0.862,2.958,1.692,5.866,2.505,8.742c-8.854-0.666-16.47-0.323-22.089,0.259c-2.479-5.576-6.319-12.998-11.924-21.023
	c3.031-0.767,6.094-1.539,9.221-2.315c5.545-1.398,11.254-2.832,17.005-4.322C370.734,307.367,372.532,313.625,374.284,319.712z
	 M348.76,338.884l-0.01,0.049c0,0,0.01-0.009,0.029-0.009c0,0,0.005,0.024,0.021,0.029l0.016-0.029
	c4.733-0.827,16.041-2.265,30.53-0.792c2.461,11.156,2.888,21.731,2.128,31.063c-8.648-2.732-16.678-3.897-23.145-3.504
	c-10.58,0.658-20.546,3.251-28.69,6.133c-1.568-8.503-4.268-18.429-8.971-27.953c-3.022-6.148-8.464-12.939-15.753-19.43
	c7.728-5.452,17.187-10.504,28.199-14.065C342.362,322.875,347.043,334.155,348.76,338.884z M424.89,352.466
	c0.223,14.153-2.201,26.788-5.735,37.557c-9.185-7.606-19.098-13.426-28.651-17.479c1.041-10.225,0.727-21.511-1.408-33.016
	C400.181,341.588,412.519,345.476,424.89,352.466z M398.384,428.221l-0.015,0.01h0.045c3.212,3.844,10.569,13.508,16.722,27.675
	c-8.657,7.572-17.787,13.062-26.31,16.848c-1.963-9.321-5.073-17.257-8.797-22.853c-5.885-8.82-13.124-16.148-19.71-21.779
	c6.586-5.606,13.825-12.933,19.71-21.745c3.897-5.895,7.135-14.348,9.081-24.295c8.631,3.863,17.852,9.459,26.594,17.201
	c-6.268,14.835-13.985,24.942-17.29,28.889l-0.045,0.015C398.369,428.186,398.384,428.201,398.384,428.221z M297.493,524.461
	c-7.522-6.48-12.61-12.963-14.93-17.687c-6.546-13.258-9.165-27.51-9.997-36.621l0.065-0.12c-8.319,3.829-21.91,8.832-36.655,9.749
	c-5.401,0.342-13.845-0.927-23.533-4.438c1.842-9.035,4.739-16.124,7.508-20.297c8.214-12.311,19.222-21.72,26.688-26.995h0.14
	c-7.481-5.278-18.614-14.528-26.828-26.834c-2.893-4.371-5.939-11.963-7.787-21.662c9.777-3.563,18.316-4.862,23.772-4.529
	c14.755,0.911,28.55,6.142,36.849,9.952l0.075-0.035c0.797-9.111,3.102-23.677,9.628-36.949c2.33-4.72,7.417-11.206,14.94-17.704
	c7.503,6.482,12.58,12.948,14.92,17.684c6.531,13.256,8.837,27.804,9.658,36.938l0.075,0.03c8.294-3.828,22.093-9.055,36.838-9.992
	c4.994-0.305,12.582,0.746,21.353,3.674c-1.832,10.131-4.978,18.081-7.979,22.591c-8.186,12.306-19.615,21.612-27.098,26.883v0.064
	c7.482,5.277,18.912,14.571,27.098,26.882c2.863,4.288,5.839,11.7,7.688,21.135c-8.613,2.847-16.081,3.883-21.015,3.574
	c-14.756-0.901-28.437-5.711-36.734-9.524l-0.065-0.108c-0.817,9.104-3.231,23.397-9.758,36.65
	C310.068,511.518,304.996,517.98,297.493,524.461z M193.859,428.102c0.011-0.01,0.021-0.015,0.026-0.035h-0.05
	c-3.161-3.769-10.35-13.228-16.418-27.058c8.428-7.855,17.434-13.635,25.982-17.728c1.951,9.43,5.083,17.43,8.841,23.095
	c5.875,8.812,13.118,16.139,19.704,21.745c-6.586,5.631-13.829,12.959-19.704,21.779c-3.59,5.383-6.591,12.92-8.562,21.791
	c-8.499-4.043-17.45-9.746-25.874-17.479c5.995-13.317,12.944-22.387,16.031-26.092l0.075-0.006
	C193.879,428.11,193.87,428.11,193.859,428.102z M182.076,428.092c-3.346,4.595-7.473,11.018-11.36,19.051
	c-2.066-2.145-4.157-4.302-6.263-6.495c-4.152-4.342-8.448-8.772-12.77-13.213c4.321-4.436,8.597-8.877,12.764-13.202
	c1.962-2.067,3.919-4.099,5.845-6.09C174.305,416.596,178.616,423.322,182.076,428.092z M174.13,463.333
	c8.881,7.646,18.514,13.587,27.903,17.832c-1.279,10.276-1.209,21.74,0.767,33.465c-11.117-2.351-23.299-6.597-35.441-13.895
	C167.524,486.537,170.332,473.946,174.13,463.333z M410.193,428.221c3.723-5.138,8.454-12.551,12.704-21.943
	c2.489,2.557,4.994,5.156,7.548,7.815c4.167,4.341,8.447,8.796,12.794,13.226c-4.347,4.456-8.618,8.912-12.79,13.244
	c-2.748,2.862-5.451,5.674-8.099,8.418C418.243,440.144,413.753,433.13,410.193,428.221z M413.932,291.601
	c4.286,17.762,8.706,36.087,10.265,49.941c-13.143-6.651-26.002-10.206-37.436-11.947c-1.136-4.053-2.336-8.225-3.571-12.457
	c-1.716-6.019-3.494-12.237-5.227-18.475c12.243-3.345,24.294-7.004,34.957-11.235C413.26,288.817,413.594,290.217,413.932,291.601z
	 M366.567,292.093c-5.665,1.474-11.325,2.898-16.831,4.271c-4.332,1.096-8.593,2.156-12.719,3.206
	c-0.105,0.035-0.221,0.055-0.325,0.1c-7.372-8.985-17.021-18.201-29.451-26.076c12.829-5.745,31.388-11.251,49.364-16.589
	c0.777-0.228,1.568-0.458,2.37-0.696C360.549,267.564,363.362,279.806,366.567,292.093z M353.983,248.115
	c-18.745,5.555-38.11,11.281-51.558,17.478c-1.697,0.772-3.319,1.588-4.933,2.415c-1.617-0.832-3.266-1.643-4.953-2.419
	c-13.446-6.198-32.798-11.938-51.531-17.484c-2.21-0.657-4.416-1.319-6.641-1.987c0.189-2.484,0.289-4.917,0.289-7.248
	c0-18.216-6.915-32.29-11.609-39.737c3.351-0.528,7.731-0.802,12.182,0.149c6.262,1.343,11.963,4.21,12.023,4.256l2.728,1.384
	l2.359-1.975c0.144-0.12,16.677-18.012,24.777-25.714c5.228-4.988,13.905-12.744,19.007-12.72
	c5.114-0.024,14.353,8.861,19.033,12.72c10.224,8.414,24.622,25.594,24.761,25.714l2.345,1.975l2.744-1.384
	c0.059-0.045,5.77-2.913,12.012-4.256c4.476-0.951,8.852-0.677,12.192-0.149c-4.695,7.447-11.614,21.521-11.614,39.737
	c0,2.583,0.124,5.291,0.344,8.07C356.61,247.329,355.296,247.731,353.983,248.115z M238.375,257.001
	c17.982,5.332,36.536,10.833,49.34,16.593c-12.441,7.885-22.104,17.12-29.497,26.115c-0.144-0.029-0.289-0.084-0.438-0.119
	c-4.127-1.065-8.399-2.116-12.715-3.211c-6.287-1.553-12.749-3.171-19.247-4.879c3.242-12.381,6.04-24.682,7.567-35.978
	C235.056,256.015,236.713,256.503,238.375,257.001z M214.465,298.048c-1.777,6.457-3.625,12.868-5.412,19.091
	c-1.234,4.277-2.449,8.502-3.604,12.61c-0.024,0.089-0.044,0.179-0.065,0.273c-11.54,2.037-24.363,5.919-37.402,12.944
	c1.409-14.024,6.008-33.067,10.484-51.481c0.399-1.618,0.792-3.261,1.191-4.894C190.155,290.913,202.183,294.657,214.465,298.048z
	 M120.23,394.044c13.208-12.619,26.829-25.639,38.024-33.936c0.667,14.814,3.908,27.842,8.089,38.745
	c-2.818,2.932-5.68,5.905-8.607,8.952c-4.103,4.265-8.314,8.667-12.581,13.038c-9.006-8.959-18.196-17.583-27.162-24.678
	C118.746,395.459,119.483,394.746,120.23,394.044z M138.62,427.439c-9.125,9.095-18.39,17.803-27.292,24.757
	c-9.787-9.265-19.479-18.15-28.182-24.847c8.662-6.651,18.325-15.482,28.063-24.718C120.145,409.601,129.46,418.314,138.62,427.439z
	 M145.156,434.025c4.276,4.385,8.508,8.767,12.616,13.039c3.017,3.16,5.999,6.252,8.92,9.274
	c-4.216,10.738-7.597,23.605-8.438,38.299c-11.201-8.31-24.827-21.329-38.029-33.968c-0.722-0.667-1.409-1.343-2.105-2.006
	C127.045,451.568,136.19,442.977,145.156,434.025z M178.323,564.702c-4.511-18.675-9.156-37.975-10.485-52.054
	c-0.03-0.32-0.044-0.667-0.08-0.99c12.959,7,25.713,10.916,37.198,12.973c0.164,0.632,0.314,1.265,0.493,1.887
	c1.156,4.107,2.37,8.313,3.604,12.602c1.673,5.803,3.39,11.767,5.053,17.777c-12.321,3.434-24.364,7.207-34.883,11.573
	C178.925,567.21,178.63,565.957,178.323,564.702z M225.477,563.428c6.631-1.732,13.252-3.386,19.685-5.014
	c4.331-1.086,8.586-2.151,12.729-3.2c0.12-0.03,0.239-0.08,0.364-0.105c7.368,8.971,17.011,18.181,29.432,26.057
	c-12.824,5.755-31.378,11.261-49.365,16.588c-1.713,0.502-3.41,1.006-5.127,1.515C231.57,587.976,228.728,575.719,225.477,563.428z
	 M240.965,606.654c18.712-5.55,38.099-11.291,51.531-17.474c1.702-0.787,3.335-1.599,4.942-2.42c1.624,0.821,3.256,1.633,4.959,2.42
	c13.432,6.183,32.797,11.924,51.521,17.482c1.378,0.408,2.753,0.808,4.126,1.229c-0.281,3.291-0.447,6.462-0.447,9.496
	c0,18.216,6.919,32.289,11.614,39.741c-3.341,0.538-7.717,0.812-12.192-0.154c-6.242-1.335-11.953-4.213-12.012-4.233l-2.744-1.389
	l-2.345,1.963c-0.139,0.114-14.537,17.31-24.761,25.717c-4.681,3.863-13.919,12.746-19.033,12.725
	c-5.103,0.021-13.78-7.735-19.007-12.725c-8.1-7.701-24.633-25.603-24.777-25.717l-2.359-1.963l-2.728,1.389
	c-0.06,0.021-5.761,2.898-12.023,4.233c-4.451,0.966-8.832,0.692-12.182,0.154c4.695-7.452,11.609-21.525,11.609-39.741
	c0-2.805-0.14-5.736-0.378-8.748C236.494,607.969,238.729,607.315,240.965,606.654z M356.556,597.769
	c-17.971-5.338-36.521-10.849-49.34-16.604c12.441-7.891,22.109-17.115,29.501-26.126c0.14,0.035,0.279,0.079,0.403,0.125
	c4.128,1.035,8.381,2.11,12.721,3.185c5.596,1.399,11.351,2.849,17.13,4.342c-3.256,12.271-6.112,24.533-7.796,35.845
	C358.292,598.286,357.417,598.021,356.556,597.769z M375.942,565.07c12.415,3.395,24.572,7.089,35.062,11.346
	c-3.12,13.111-5.959,25.967-7.398,36.874c-10.146-4.217-22.61-8.204-35.435-12.067C369.739,589.986,372.627,577.57,375.942,565.07z
	 M378.381,556.114c1.594-5.739,3.221-11.44,4.809-16.995c1.235-4.288,2.47-8.494,3.615-12.602c0.124-0.462,0.249-0.926,0.373-1.384
	c11.361-1.777,24.096-5.337,37.119-11.938c-1.399,14.02-6.024,33.135-10.495,51.64c-0.213,0.815-0.403,1.638-0.611,2.464
	C402.575,563.104,390.573,559.449,378.381,556.114z M474.707,460.714c-13.883,13.269-28.262,26.992-39.753,35.197
	c-0.318,0.224-0.621,0.434-0.94,0.651c-0.612-14.602-3.732-27.469-7.78-38.313c0.612-0.602,1.229-1.199,1.816-1.806
	c2.978-3.077,6.004-6.237,9.106-9.459c4.097-4.277,8.344-8.688,12.615-13.063c9.01,8.956,18.185,17.574,27.146,24.678
	C476.186,459.301,475.438,460.007,474.707,460.714z M456.302,427.318c9.13-9.109,18.405-17.801,27.302-24.756
	c9.782,9.274,19.475,18.156,28.201,24.847c-8.676,6.656-18.345,15.499-28.077,24.717
	C474.787,445.178,465.462,436.449,456.302,427.318z M189.394,163.976c15.871-0.762,41.142,4.267,41.4,4.311l2.081,0.429l1.682-1.305
	c0.145-0.124,17.897-18.216,30.054-26.764c10.769-7.586,24.818-14.063,31.663-14.068c6.845,0.005,22.302,8.165,31.662,14.099
	c12.386,7.856,29.876,26.674,30.054,26.788l1.664,1.299l2.076-0.397c0.253-0.055,25.533-5.063,41.404-4.296
	c12.227,0.598,19.988,4.296,24.095,6.984c-8.12,8.29-25.236,29.512-24.423,60.716c-9.719,4.282-22.453,8.414-35.755,12.431
	c-0.094-1.817-0.179-3.61-0.179-5.332c0-23.374,13.437-39.388,13.575-39.548l4.311-5.003l-6.152-2.365
	c-0.474-0.184-11.484-4.341-23.518-1.757c-4.62,0.996-8.857,2.629-11.5,3.75c-4.749-3.745-15.622-17.575-25.51-25.54
	c-5.649-4.555-16.09-13.197-21.849-13.188v-0.01c-0.03,0-0.064,0.01-0.105,0.01c-0.024,0-0.059-0.01-0.084-0.01v0.01
	c-5.759-0.01-14.98,7.488-21.875,13.188c-7.776,6.452-20.734,21.794-25.494,25.54c-2.644-1.121-6.89-2.754-11.505-3.75
	c-12.033-2.583-23.04,1.574-23.503,1.757l-6.158,2.365l4.312,5.003c0.119,0.16,13.561,16.174,13.561,39.548
	c0,1.463-0.045,2.977-0.129,4.505c-13.491-4.122-26.236-8.374-35.576-12.779c0.409-30.627-16.354-51.476-24.384-59.675
	C169.401,168.237,177.167,164.554,189.394,163.976z M9.308,411.638c-0.269-4.909,0.438-13.481,6.058-24.335
	c7.303-14.113,24.339-33.469,24.508-33.663l1.395-1.588l-0.29-2.095c-0.029-0.201-6.79-24.643-8.089-39.435
	c-1.156-13.126,0.269-28.525,3.714-34.455c3.45-5.914,18.24-15.204,28.058-20.326c13.023-6.786,38.069-12.481,38.258-12.565
	l1.952-0.791l0.697-2.007c0.083-0.245,8.433-24.628,17.05-37.959c6.636-10.281,13.725-15.15,18.106-17.365
	c3.062,11.052,12.67,36.033,39.358,51.053c-0.866,10.345-3.624,23.572-6.855,37.392c-1.403-0.731-2.772-1.474-4.087-2.22
	c-20.231-11.729-27.335-31.378-27.395-31.563l-2.172-6.237l-5.132,4.132c-0.398,0.313-9.514,7.756-13.322,19.474
	c-1.438,4.471-2.17,8.967-2.514,11.83c-5.61,2.229-23.054,4.704-34.888,9.25c-6.771,2.623-19.491,7.308-22.368,12.296
	c-0.009,0.035-0.025,0.069-0.04,0.095c-0.02,0.02-0.044,0.044-0.05,0.08c-2.897,4.988-1.036,16.727,0.458,25.519
	c1.682,9.971,8.443,28.895,9.314,34.883c-2.315,1.717-5.86,4.571-9.021,8.065c-8.269,9.11-10.181,20.73-10.265,21.218l-1.026,6.527
	l6.478-1.236c0.208-0.024,20.77-3.639,41.021,8.09c1.767,1.021,3.56,2.151,5.367,3.366c-10.037,9.494-19.899,18.42-28.392,24.662
	c-0.369-0.229-0.732-0.482-1.071-0.702C47.517,404.629,20.543,408.775,9.308,411.638z M140.671,669.654
	c-4.381-2.194-11.475-7.062-18.112-17.34c-8.622-13.356-16.965-37.73-17.041-37.979l-0.682-2.018l-1.966-0.79
	c-0.184-0.069-24.752-6.348-38.248-12.551c-11.953-5.525-24.613-14.408-28.052-20.332c-3.426-5.935-4.133-23.398-3.695-34.459
	c0.568-14.661,8.065-39.24,8.085-39.429l0.294-2.121l-1.404-1.577c-0.179-0.195-17.191-19.555-24.484-33.669
	c-5.645-10.869-6.337-19.441-6.058-24.329c11.226,2.872,38.208,7.01,64.803-9.385c0.354-0.224,0.717-0.458,1.085-0.691
	c8.517,6.258,18.424,15.249,28.521,24.782c-1.837,1.244-3.669,2.409-5.466,3.44c-20.222,11.741-40.817,8.159-41.016,8.124
	l-6.487-1.216l1.045,6.508c0.079,0.497,2.001,12.102,10.275,21.223c3.171,3.479,6.706,6.337,9.035,8.05
	c-0.871,5.988-7.373,22.347-9.314,34.889c-1.085,7.183-3.331,20.534-0.429,25.514c0.01,0.034,0.03,0.069,0.046,0.095
	c0.024,0.015,0.039,0.059,0.043,0.088h0.016c2.877,4.975,13.984,9.191,22.373,12.278c9.483,3.484,29.283,6.994,34.888,9.224
	c0.353,2.863,1.071,7.348,2.524,11.839c3.818,11.7,12.938,19.138,13.332,19.449l5.142,4.149l2.161-6.254
	c0.064-0.179,7.149-19.849,27.401-31.578c1.13-0.666,2.31-1.308,3.534-1.956c3.201,13.631,5.964,26.744,6.975,37.145
	C153.287,633.811,143.728,658.653,140.671,669.654z M426.97,685.382c-4.098,2.691-11.885,6.376-24.104,6.964
	c-15.861,0.753-41.147-4.282-41.404-4.33l-2.071-0.408l-1.674,1.288c-0.157,0.125-16.359,15.718-30.063,23.678
	c-10.978,6.377-24.817,14.059-31.663,14.059c-6.859,0-20.734-8.1-31.677-14.084c-13.008-7.135-29.875-23.592-30.034-23.706
	l-1.672-1.311l-2.081,0.414c-0.25,0.061-25.529,5.047-41.4,4.276c-12.222-0.582-19.993-4.276-24.09-6.97
	c8.13-8.284,25.246-29.525,24.414-60.785c0-0.07-0.005-0.165-0.005-0.244c9.354-4.431,22.144-8.688,35.719-12.845
	c0.126,2.058,0.214,4.072,0.214,6.011c0,23.396-13.441,39.406-13.561,39.547l-4.312,5.004l6.158,2.379
	c0.463,0.179,11.471,4.335,23.503,1.752c4.615-0.98,8.861-2.619,11.505-3.764c4.759,3.738,17.718,19.092,25.494,25.545
	c6.895,5.703,16.116,13.217,21.875,13.196c0.025,0,0.06,0,0.084,0c0.041,0,0.075,0,0.105,0c5.759,0.021,16.2-8.637,21.849-13.196
	c9.888-7.956,20.761-21.807,25.51-25.545c2.643,1.145,6.88,2.783,11.5,3.764c12.033,2.583,23.044-1.573,23.518-1.752l6.152-2.379
	l-4.311-5.004c-0.139-0.141-13.575-16.15-13.575-39.547c0-2.166,0.108-4.447,0.288-6.766c13.192,3.996,25.868,8.104,35.52,12.354
	c-0.029,0.544-0.055,1.086-0.073,1.603C401.761,655.835,418.85,677.088,426.97,685.382z M579.565,467.475
	c-7.303,14.088-24.314,33.459-24.492,33.647l-1.409,1.589l0.287,2.097c0.025,0.188,5.393,22.034,5.423,37.875
	c0.005,12.72-0.295,28.525-3.709,34.449c-3.446,5.921-17.414,13.89-28.083,20.343c-12.689,7.676-35.371,14.033-35.561,14.107
	l-1.971,0.802l-0.688,2.008c-0.069,0.232-8.423,24.603-17.046,37.968c-6.642,10.285-13.735,15.145-18.115,17.34
	c-3.093-11.171-12.895-36.65-40.352-51.585c-0.447-0.265-0.936-0.498-1.408-0.746c1.186-10.546,4.007-23.633,7.189-37.13
	c2.149,1.042,4.201,2.121,6.103,3.242c20.242,11.699,27.356,31.363,27.421,31.531l2.166,6.263l5.143-4.15
	c0.378-0.309,9.52-7.752,13.298-19.465c1.468-4.472,2.175-8.967,2.523-11.834c5.609-2.231,25.399-5.756,34.893-9.251
	c8.375-3.092,19.485-7.317,22.369-12.291c0.009-0.03,0.033-0.065,0.049-0.094c0.025-0.035,0.041-0.05,0.05-0.086
	c2.898-4.979,0.651-18.339-0.453-25.518c-1.937-12.53-8.463-28.885-9.33-34.874c2.315-1.728,5.864-4.581,9.017-8.06
	c8.278-9.131,10.187-20.736,10.271-21.232l1.035-6.512l-6.487,1.213c-0.199,0.037-20.785,3.637-41.024-8.079
	c-1.734-1.03-3.53-2.155-5.334-3.349c10.051-9.5,19.909-18.427,28.396-24.654c0.364,0.229,0.728,0.47,1.075,0.672
	c26.604,16.424,53.577,12.287,64.813,9.409C585.909,448.035,585.186,456.599,579.565,467.475z"/>
</svg>
