<?xml version="1.0" encoding="utf-8"?>
<!-- Generator: Adobe Illustrator 16.0.0, SVG Export Plug-In . SVG Version: 6.00 Build 0)  -->
<!DOCTYPE svg PUBLIC "-//W3C//DTD SVG 1.1//EN" "http://www.w3.org/Graphics/SVG/1.1/DTD/svg11.dtd">
<svg version="1.1" id="Layer_1" xmlns="http://www.w3.org/2000/svg" xmlns:xlink="http://www.w3.org/1999/xlink" x="0px" y="0px"
	 width="595.28px" height="841.89px" viewBox="0 0 595.28 841.89" enable-background="new 0 0 595.28 841.89" xml:space="preserve">
<linearGradient id="SVGID_1_" gradientUnits="userSpaceOnUse" x1="315.2314" y1="374.3711" x2="512.9535" y2="237.0643">
	<stop  offset="0.0056" style="stop-color:#ECC562"/>
	<stop  offset="1" style="stop-color:#C3922E"/>
</linearGradient>
<path fill="url(#SVGID_1_)" d="M581.972,378.07c-6.141,0.288-4.685,7.895-12.879,5.564c-8.215-2.342-15.802-9.657-23.409-21.958
	c-7.628-12.296-15.833-20.47-15.833-20.47s9.389-9.389-1.749-18.75c-9.432-7.953-26.04-6.717-26.04-6.717s3.919-3.05,6.172-7.026
	c2.432-4.344,2.232-9.248,2.18-9.939l-0.021-0.073c-0.325-0.367-3.668-4.092-8.604-5.486c-4.391-1.216-9.284-0.618-9.284-0.618
	s12.596-10.872,13.654-23.157c1.247-14.508-12.02-14.508-12.02-14.508s0-11.579-3.321-25.667c-0.733-3.097-1.226-5.962-1.582-8.734
	c3.897-0.367,7.995-0.561,12.427-0.215c18.442,1.467,32.809,16.394,34.255,26.93c1.467,10.531-2.348,14.346-7.88,16.676
	c-5.585,2.353-9.965,0.881-9.965,0.881s6.717,12.291,16.65,11.406c0.807-0.068,1.373-0.314,2.106-0.45
	c-1.216,8.058-0.975,17.42,4.662,23.87c11.694,13.465,14.901,19.606,16.661,28.984c1.75,9.363-2.064,21.078-2.064,21.078
	s14.377-6.45,16.085-18.448c1.383-9.294-1.436-15.221-2.326-15.502c-0.88-0.304,6.465-13.759,2.326-24.316
	c-1.258-3.285-4.778-7.602-8.99-12.003c2.263,0.859,4.715,1.384,7.282,1.19c11.086-0.891,20.465-11.998,20.465-11.998
	s-11.118,5.554-23.116-4.972c-11.987-10.537-16.115-31.625-36.874-44.199c-5.658-3.421-12.333-4.836-18.243-5.344
	c24.311-5.8,43.622-12.254,53.954-28.899c9.054-14.634,10.793-24.909,14.639-33.076c4.674-9.95,11.401-10.233,11.401-10.233
	s-24.259-5.276-37.462,13.167c-9.587,13.403-7.324,33.652-29.843,44.786c-17.938,8.833-27.191,10.814-36.664,13.916
	c-0.188-6.591,0.713-12.181,3.123-16.546c4.159-7.466,8.487-1.042,13.035-5.176c4.243-3.882,3.51-14.329,3.395-15.676l-0.084-0.094
	c-1.341-0.126-11.81-0.876-15.676,3.39c-4.129,4.547,2.274,8.886-5.176,13.025c-4.37,2.447-9.977,3.363-16.599,3.159
	c3.154-9.488,5.104-18.746,13.958-36.676c11.128-22.55,31.372-20.292,44.796-29.885c18.41-13.156,13.171-37.439,13.171-37.439
	s-0.314,6.727-10.269,11.411c-8.143,3.84-18.432,5.559-33.061,14.638c-16.66,10.327-23.115,29.618-28.899,53.918
	c-0.514-5.858-1.938-12.56-5.344-18.218c-12.585-20.769-33.648-24.881-44.169-36.879c-10.562-11.987-4.987-23.105-4.987-23.105
	s-11.149,9.357-12.029,20.486c-0.179,2.552,0.335,5.003,1.205,7.283c-4.391-4.239-8.729-7.77-12.009-9.054
	c-10.552-4.087-24.027,3.238-24.3,2.353c-0.293-0.88-6.234-3.709-15.498-2.353c-12.019,1.771-18.474,16.105-18.474,16.105
	s11.726-3.814,21.104-2.054c9.347,1.761,15.477,4.972,28.962,16.687c6.435,5.606,15.812,5.863,23.86,4.658
	c-0.137,0.729-0.398,1.289-0.461,2.07c-0.87,9.959,11.411,16.698,11.411,16.698s-1.467-4.407,0.891-9.971
	c2.337-5.559,6.142-9.357,16.682-7.896c10.543,1.461,25.475,15.802,26.952,34.25c0.356,4.442,0.115,8.561-0.23,12.459
	c-2.756-0.383-5.648-0.865-8.739-1.598c-14.074-3.306-25.663-3.306-25.663-3.306s0-13.255-14.471-12.019
	c-12.323,1.058-23.169,13.659-23.169,13.659s0.598-4.894-0.649-9.31c-1.372-4.925-5.103-8.273-5.459-8.582l-0.073-0.022
	c-0.713-0.051-5.606-0.245-9.913,2.196c-4.023,2.242-7.062,6.146-7.062,6.146s1.258-16.604-6.706-26.05
	c-9.378-11.123-18.746-1.766-18.746-1.766s-8.184-8.178-20.496-15.802c-12.281-7.602-19.585-15.209-21.963-23.409
	c-2.316-8.194,5.271-6.727,5.595-12.883c0.283-5.742-7.681-12.595-8.697-13.465h-0.125c-1.038,0.87-8.97,7.723-8.697,13.465
	c0.324,6.156,7.933,4.689,5.563,12.883c-2.336,8.2-9.65,15.807-21.952,23.409c-12.291,7.624-20.476,15.802-20.476,15.802
	s-9.347-9.357-18.735,1.766c-7.964,9.446-6.738,26.05-6.738,26.05s-3.028-3.903-7.03-6.146c-4.349-2.441-9.358-2.316-10.081-2.285
	l0,0c-0.356,0.324-3.992,3.767-5.396,8.692c-1.236,4.417-0.608,9.31-0.608,9.31s-10.887-12.601-23.168-13.659
	c-14.513-1.237-14.513,12.019-14.513,12.019s-11.61,0-25.662,3.306c-3.133,0.733-6.015,1.221-8.792,1.619
	c-0.377-3.914-0.587-8.032-0.22-12.479c1.457-18.448,16.399-32.789,26.919-34.25c10.51-1.461,14.324,2.337,16.682,7.896
	c2.336,5.564,0.88,9.971,0.88,9.971s12.292-6.739,11.391-16.698c-0.032-0.781-0.304-1.341-0.451-2.07
	c8.058,1.205,17.416,0.949,23.87-4.658c13.476-11.715,19.637-14.926,28.995-16.687c9.347-1.76,21.062,2.054,21.062,2.054
	s-6.413-14.334-18.411-16.105c-9.305-1.357-15.256,1.472-15.529,2.353c-0.304,0.886-13.78-6.439-24.321-2.353
	c-3.28,1.284-7.607,4.804-11.977,9.017c0.838-2.258,1.383-4.7,1.173-7.246c-0.891-11.128-11.998-20.486-11.998-20.486
	s5.533,11.118-4.977,23.105c-10.562,11.998-31.614,16.111-44.199,36.879c-3.437,5.658-4.862,12.359-5.333,18.218
	c-5.826-24.3-12.26-43.592-28.911-53.918c-14.628-9.08-24.908-10.798-33.071-14.638C53,98.563,52.707,91.836,52.707,91.836
	s-5.26,24.284,13.151,37.439c13.423,9.593,33.668,7.335,44.817,29.885c8.844,17.93,10.803,27.188,13.926,36.676
	c-6.581,0.199-12.145-0.729-16.514-3.159c-7.429-4.139-1.016-8.478-5.166-13.025c-3.835-4.266-14.324-3.516-15.666-3.39
	l-0.073,0.094c-0.146,1.347-0.891,11.794,3.364,15.676c4.547,4.134,8.896-2.29,13.035,5.176c2.441,4.375,3.364,9.981,3.144,16.583
	c-9.483-3.133-18.777-5.087-36.759-13.952c-22.519-11.134-20.234-31.383-29.833-44.786c-13.161-18.442-37.45-13.167-37.45-13.167
	s6.706,0.283,11.411,10.233c3.814,8.167,5.554,18.442,14.597,33.076c10.353,16.645,29.623,23.1,53.934,28.899
	c-5.869,0.508-12.543,1.923-18.202,5.344c-20.779,12.574-24.876,33.662-36.885,44.199C15.55,274.164,4.412,268.61,4.412,268.61
	s9.378,11.107,20.506,11.998c2.536,0.188,4.957-0.325,7.241-1.179c-4.212,4.391-7.744,8.708-9.001,11.993
	c-4.118,10.557,3.217,24.013,2.347,24.316c-0.891,0.282-3.709,6.208-2.347,15.502c1.76,11.998,16.084,18.448,16.084,18.448
	s-3.814-11.715-2.054-21.078c1.76-9.378,4.988-15.519,16.692-28.984c5.606-6.45,5.847-15.812,4.642-23.87
	c0.744,0.136,1.31,0.382,2.096,0.45c9.924,0.885,16.672-11.406,16.672-11.406s-4.38,1.472-9.955-0.881
	c-5.564-2.331-9.357-6.145-7.912-16.676c1.509-10.536,15.833-25.463,34.245-26.93c4.506-0.351,8.624-0.146,12.574,0.225
	c-0.398,2.767-0.912,5.627-1.614,8.724c-3.311,14.083-3.311,25.667-3.311,25.667s-13.224,0-12.029,14.508
	c1.09,12.286,13.674,23.157,13.674,23.157s-4.883-0.598-9.305,0.618c-4.935,1.394-8.288,5.119-8.571,5.486l-0.042,0.021
	c-0.031,0.691-0.241,5.638,2.211,9.992c2.253,3.976,6.151,7.026,6.151,7.026s-16.609-1.236-26.071,6.717
	c-11.128,9.361-1.761,18.75-1.761,18.75s-8.205,8.174-15.791,20.47c-7.607,12.302-15.215,19.616-23.409,21.958
	c-8.215,2.331-6.727-5.277-12.878-5.564C7.765,377.797,0.901,385.725,0,386.772v0.115c0.901,1.037,7.765,8.954,13.497,8.698
	c6.151-0.31,4.663-7.906,12.878-5.576c8.194,2.348,15.802,9.662,23.409,21.954c7.586,12.296,15.791,20.49,15.791,20.49
	s-9.368,9.374,1.761,18.73c9.462,7.958,26.071,6.722,26.071,6.722s-3.898,3.05-6.151,7.037c-2.452,4.349-2.336,9.221-2.263,9.903
	l0.021,0.052l0.073,0.052c0.283,0.351,3.636,4.088,8.571,5.464c4.422,1.247,9.305,0.625,9.305,0.625s-12.584,10.881-13.674,23.184
	c-1.195,14.487,12.029,14.487,12.029,14.487s0,11.584,3.311,25.65c0.681,2.93,1.142,5.603,1.499,8.222
	c-3.888,0.361-8.006,0.57-12.459,0.208c-18.412-1.467-32.736-16.382-34.245-26.914c-1.446-10.53,2.347-14.345,7.912-16.676
	c5.575-2.343,9.955-0.896,9.955-0.896s-6.748-12.281-16.672-11.411c-0.786,0.066-1.352,0.314-2.085,0.443
	c1.195-8.047,0.954-17.414-4.652-23.854c-11.705-13.46-14.932-19.611-16.692-28.982c-1.76-9.363,2.054-21.062,2.054-21.062
	s-14.324,6.438-16.084,18.426c-1.362,9.294,1.457,15.236,2.347,15.519c0.87,0.3-6.465,13.753-2.347,24.289
	c1.257,3.302,4.768,7.614,8.98,12.01c-2.263-0.854-4.684-1.374-7.22-1.18c-11.128,0.885-20.506,12.01-20.506,12.01
	s11.139-5.565,23.126,4.976c12.008,10.532,16.105,31.61,36.885,44.178c5.658,3.438,12.333,4.857,18.202,5.346
	c-24.311,5.81-43.581,12.254-53.934,28.916c-9.043,14.627-10.783,24.907-14.597,33.053c-4.705,9.971-11.411,10.255-11.411,10.255
	s24.289,5.26,37.45-13.167c9.599-13.407,7.314-33.662,29.833-44.774c17.971-8.872,27.245-10.84,36.738-13.959
	c0.272,6.85-0.618,12.622-3.123,17.117c-4.139,7.445-8.488,1.027-13.035,5.178c-4.254,3.855-3.51,14.308-3.364,15.665l0.073,0.084
	c1.341,0.109,11.831,0.881,15.666-3.38c4.15-4.558-2.263-8.901,5.166-13.041c4.349-2.394,9.839-3.326,16.315-3.164
	c-2.997,9.321-5.05,18.583-13.727,36.167c-11.149,22.534-31.394,20.281-44.817,29.853C47.447,657,52.707,681.274,52.707,681.274
	s0.293-6.719,10.248-11.423c8.163-3.825,18.443-5.537,33.071-14.633c16.651-10.311,23.084-29.603,28.911-53.907
	c0.472,5.863,1.896,12.563,5.333,18.211c12.585,20.77,33.636,24.877,44.199,36.874c10.51,12.004,4.977,23.126,4.977,23.126
	s11.107-9.367,11.998-20.485c0.21-2.557-0.335-4.999-1.173-7.261c4.37,4.222,8.697,7.737,11.977,9.013
	c10.541,4.09,24.017-3.219,24.321-2.344c0.272,0.892,6.224,3.72,15.529,2.344c11.998-1.752,18.411-16.086,18.411-16.086
	s-11.715,3.804-21.062,2.049c-9.357-1.771-15.519-4.988-28.995-16.692c-6.455-5.596-15.812-5.863-23.87-4.652
	c0.146-0.729,0.419-1.29,0.451-2.07c0.901-9.948-11.391-16.696-11.391-16.696s1.457,4.385-0.88,9.964
	c-2.358,5.559-6.172,9.352-16.682,7.9c-10.521-1.461-25.463-15.812-26.919-34.238c-0.335-4.26-0.178-8.21,0.147-11.96
	c2.787,0.37,5.721,0.879,8.865,1.617c14.052,3.296,25.662,3.296,25.662,3.296s0,13.266,14.513,12.019
	c12.281-1.054,23.168-13.658,23.168-13.658s-0.628,4.898,0.608,9.32c1.404,4.93,5.145,8.269,5.47,8.572l0.073,0.041
	c0.702,0.043,5.586,0.226,9.935-2.199c4.002-2.271,7.03-6.158,7.03-6.158s-1.226,16.615,6.738,26.045
	c9.389,11.124,18.735,1.766,18.735,1.766s8.185,8.189,20.476,15.792c12.302,7.629,19.616,15.23,21.952,23.419
	c2.369,8.2-5.239,6.744-5.563,12.885c-0.272,5.746,7.659,12.6,8.697,13.475l0.042,0.043c1.068-0.877,9.063-7.771,8.78-13.518
	c-0.324-6.141-7.911-4.685-5.595-12.885c2.378-8.188,9.682-15.79,21.963-23.419c12.312-7.603,20.496-15.792,20.496-15.792
	s9.368,9.358,18.746-1.766c7.964-9.43,6.706-26.045,6.706-26.045s3.039,3.888,7.062,6.158c4.307,2.425,9.347,2.221,10.038,2.199
	h0.074c0.335-0.323,3.961-3.684,5.333-8.613c1.247-4.422,0.649-9.32,0.649-9.32s10.846,12.604,23.169,13.658
	c14.471,1.247,14.471-12.019,14.471-12.019s11.589,0,25.663-3.296c3.112-0.728,6.015-1.229,8.802-1.613
	c0.325,3.768,0.492,7.702,0.168,11.956c-1.478,18.427-16.409,32.777-26.952,34.238c-10.54,1.451-14.345-2.342-16.682-7.9
	c-2.357-5.579-0.891-9.964-0.891-9.964s-12.281,6.748-11.411,16.696c0.062,0.78,0.324,1.342,0.461,2.07
	c-8.048-1.211-17.426-0.948-23.86,4.652c-13.485,11.704-19.615,14.922-28.962,16.692c-9.379,1.755-21.104-2.049-21.104-2.049
	s6.455,14.334,18.474,16.086c9.264,1.376,15.205-1.452,15.498-2.344c0.272-0.875,13.748,6.434,24.3,2.344
	c3.28-1.284,7.618-4.816,12.02-9.045c-0.859,2.279-1.395,4.732-1.216,7.293c0.88,11.118,12.029,20.485,12.029,20.485
	s-5.575-11.122,4.987-23.126c10.521-11.997,31.584-16.104,44.169-36.874c3.405-5.647,4.83-12.348,5.344-18.211
	c5.784,24.305,12.239,43.597,28.899,53.907c14.629,9.096,24.918,10.808,33.061,14.633c9.954,4.704,10.269,11.423,10.269,11.423
	s5.239-24.274-13.171-37.463c-13.424-9.571-33.668-7.318-44.796-29.853c-8.688-17.584-10.73-26.846-13.77-36.156
	c6.56-0.179,12.071,0.743,16.41,3.153c7.45,4.14,1.047,8.483,5.176,13.041c3.866,4.261,14.335,3.489,15.718,3.38l0.042-0.084
	c0.115-1.347,0.849-11.81-3.395-15.665c-4.517-4.15-8.876,2.268-13.035-5.178c-2.463-4.479-3.375-10.249-3.103-17.085
	c9.473,3.102,18.726,5.083,36.644,13.927c22.519,11.112,20.256,31.367,29.843,44.774c13.203,18.427,37.462,13.167,37.462,13.167
	s-6.728-0.284-11.401-10.255c-3.846-8.146-5.585-18.426-14.639-33.053c-10.332-16.662-29.644-23.106-53.954-28.916
	c5.91-0.488,12.585-1.908,18.243-5.346c20.759-12.567,24.887-33.646,36.874-44.178c11.998-10.541,23.116-4.976,23.116-4.976
	s-9.379-11.125-20.465-12.01c-2.567-0.198-5.009,0.325-7.272,1.18c4.202-4.392,7.723-8.708,8.98-12.01
	c4.139-10.536-3.206-23.989-2.326-24.289c0.891-0.282,3.709-6.225,2.326-15.519c-1.708-11.988-16.085-18.426-16.085-18.426
	s3.814,11.699,2.064,21.062c-1.76,9.371-4.967,15.522-16.661,28.982c-5.637,6.439-5.878,15.807-4.662,23.854
	c-0.733-0.129-1.3-0.377-2.106-0.443c-9.934-0.87-16.65,11.411-16.65,11.411s4.38-1.447,9.965,0.896
	c5.532,2.331,9.347,6.146,7.88,16.676c-1.446,10.532-15.812,25.447-34.255,26.914c-4.39,0.358-8.477,0.164-12.354-0.204
	c0.397-2.619,0.817-5.296,1.509-8.226c3.321-14.066,3.321-25.65,3.321-25.65s13.267,0,12.02-14.487
	c-1.059-12.303-13.654-23.184-13.654-23.184s4.894,0.622,9.284-0.625c4.936-1.376,8.278-5.113,8.604-5.464l0.021-0.067
	c0.053-0.691,0.252-5.596-2.18-9.939c-2.253-3.987-6.172-7.037-6.172-7.037s16.608,1.236,26.04-6.722
	c11.138-9.356,1.749-18.73,1.749-18.73s8.205-8.193,15.833-20.49c7.607-12.292,15.194-19.606,23.409-21.954
	c8.194-2.331,6.738,5.266,12.879,5.576c5.742,0.256,12.595-7.661,13.496-8.698v-0.115
	C594.566,385.725,587.714,377.797,581.972,378.07z M523.428,329.486c3.824,8.771-7.011,7.021-14.933,1.461
	c-8.791-6.177-18.138-8.194-18.138-8.194S519.247,319.793,523.428,329.486z M502.638,301.922v0.057c0,0,3.28,10.29-9.923,13.156
	c-6.654,1.458-18.117-1.368-18.411-1.456c0.168-0.272,6.267-10.358,11.967-14.037C497.661,292.323,502.638,301.922,502.638,301.922z
	 M483.515,551.937c-6.706-1.975-12.47-4.052-17.289-6.046c-1.269-2.453-2.767-4.59-4.569-5.664
	c-4.296-2.568-8.089-1.961-10.007-1.332c4.411-5.516,4.097-13.58-1.037-18.682c-2.894-2.934-6.832-4.287-10.669-4.078
	c1.949-0.728,3.764-1.833,5.304-3.373c5.731-5.727,5.731-14.99,0-20.7c-5.743-5.701-14.954-5.701-20.686,0
	c-3.521,3.5-4.61,8.313-3.814,12.852c-0.922-0.958-1.688-1.887-2.043-2.651c-1.551-3.259-3.207-7.863-4.349-13.968
	c-1.143-6.276-2.128-12.124-3.332-21.517c13.255-2.081,23.168-6.294,35.932-1.458c21.303,8.068,28.774,25.415,32.902,43.665
	C484.248,528.348,483.483,541.901,483.515,551.937z M321.557,510.319c-6.476-5.092-12.197-10.808-14.491-17.194
	c-5.261-14.654,0-21.084,3.51-26.647c3.5-5.559,5.449-12.065,2.924-17.851c-1.98-4.532-5.554-6.146-5.554-6.146
	s2.63-6.455-1.781-12.878c-2.966-4.381-7.649-5.873-8.194-6.016c-0.556,0.143-5.711,1.635-8.677,6.016
	c-4.411,6.423-1.76,12.878-1.76,12.878s-3.595,1.613-5.564,6.146c-2.525,5.785-0.607,12.292,2.913,17.851
	c3.521,5.563,8.781,11.993,3.521,26.647c-2.305,6.387-7.984,12.097-14.491,17.19c-1.781-2.469-3.584-5.204-4.265-6.382
	c-6.12-11.045-7.346-26.894-7.472-31.305v-0.032c-3.217,3.035-15.246,13.401-27.401,16.882c-1.299,0.377-4.517,1.036-7.513,1.519
	c-0.996-8.185-0.975-16.272,1.907-22.408c6.643-14.078,14.921-14.911,21.324-16.353c6.402-1.445,12.386-4.693,14.67-10.562
	c1.823-4.594,0.44-8.267,0.44-8.267s6.434-2.688,7.869-10.347c0.995-5.226-1.478-9.71-1.75-10.201l-0.021-0.043
	c-0.503-0.267-4.988-2.718-10.206-1.723c-7.671,1.441-10.363,7.859-10.363,7.859s-3.657-1.4-8.258,0.418
	c-5.878,2.296-9.095,8.284-10.562,14.687c-1.436,6.423-2.285,14.696-16.357,21.323c-6.12,2.876-14.209,2.912-22.394,1.913
	c0.472-3.003,1.142-6.214,1.499-7.509c3.479-12.149,13.853-24.211,16.881-27.423v-0.015c-4.422-0.121-20.255-1.327-31.341-7.461
	c-1.153-0.65-3.877-2.451-6.36-4.243c5.092-6.498,10.814-12.187,17.206-14.476c14.628-5.272,21.052,0,26.626,3.504
	c5.565,3.504,12.083,5.449,17.846,2.934c4.527-1.979,6.182-5.57,6.182-5.57s6.435,2.636,12.857-1.76
	c4.369-2.98,5.826-7.874,5.973-8.43v-0.058c-0.146-0.545-1.604-5.438-5.973-8.43c-6.423-4.38-12.857-1.749-12.857-1.749
	s-1.655-3.589-6.182-5.554c-5.763-2.521-12.281-0.598-17.846,2.923c-5.574,3.516-11.998,8.781-26.626,3.516
	c-6.392-2.311-12.113-7.995-17.206-14.498c2.483-1.787,5.208-3.588,6.36-4.239c11.065-6.15,26.919-7.34,31.341-7.471l0,0
	c-3.028-3.217-13.402-15.268-16.881-27.429c-0.356-1.298-1.027-4.51-1.499-7.501c8.184-1.006,16.273-0.975,22.394,1.917
	c14.072,6.624,14.921,14.896,16.357,21.314c1.467,6.408,4.684,12.391,10.562,14.697c4.601,1.802,8.258,0.398,8.258,0.398
	s2.692,6.417,10.363,7.879c5.218,0.985,9.703-1.441,10.206-1.712l0.021-0.058c0.314-0.498,2.745-4.982,1.75-10.206
	c-1.436-7.649-7.869-10.358-7.869-10.358s1.383-3.663-0.419-8.268c-2.306-5.852-8.278-9.102-14.691-10.552
	c-6.402-1.441-14.681-2.27-21.324-16.347c-2.882-6.146-2.903-14.209-1.907-22.409c2.997,0.482,6.214,1.132,7.513,1.503
	c12.155,3.474,24.278,13.816,27.485,16.876c0.136-4.438,1.268-20.266,7.388-31.326c0.681-1.185,2.483-3.92,4.265-6.376
	c6.507,5.093,12.187,10.824,14.491,17.201c5.261,14.633,0,21.067-3.521,26.643c-3.521,5.563-5.438,12.061-2.944,17.849
	c2.001,4.539,5.596,6.146,5.596,6.146s-2.651,6.439,1.76,12.873c2.966,4.396,7.87,5.832,8.415,5.989h0.052
	c0.556-0.157,5.438-1.593,8.404-5.989c4.411-6.434,1.781-12.873,1.781-12.873s3.573-1.608,5.554-6.146
	c2.525-5.788,0.576-12.286-2.924-17.849c-3.51-5.576-8.771-12.009-3.51-26.643c2.294-6.382,8.016-12.108,14.491-17.211
	c1.813,2.463,3.584,5.203,4.213,6.387c6.172,11.06,7.45,26.888,7.565,31.326h0.062c3.207-3.05,15.142-13.402,27.308-16.876
	c1.268-0.372,4.495-1.026,7.502-1.503c0.996,8.2,0.954,16.263-1.938,22.409c-6.611,14.077-14.879,14.906-21.292,16.347
	c-6.434,1.45-12.406,4.7-14.691,10.552c-1.823,4.605-0.439,8.268-0.439,8.268s-6.424,2.708-7.849,10.358
	c-0.995,5.203,1.425,9.625,1.697,10.118l0.031,0.026c0.493,0.278,5.03,2.818,10.238,1.833c7.67-1.461,10.342-7.879,10.342-7.879
	s3.668,1.403,8.268-0.398c5.89-2.306,9.106-8.289,10.542-14.697c1.498-6.417,2.295-14.69,16.389-21.314
	c6.14-2.891,14.198-2.922,22.402-1.917c-0.492,2.992-1.142,6.203-1.498,7.501c-3.479,12.161-13.884,24.38-16.934,27.586h-0.021
	c4.4,0.13,20.339,1.179,31.394,7.313c1.174,0.65,3.888,2.447,6.371,4.228c-5.104,6.508-10.824,12.197-17.195,14.508
	c-14.628,5.265-21.072,0-26.647-3.516c-5.543-3.521-12.061-5.444-17.845-2.923c-4.537,1.964-6.151,5.554-6.151,5.554
	s-6.434-2.631-12.867,1.749c-4.37,2.992-5.847,8.059-5.962,8.598c0.115,0.55,1.592,5.339,5.962,8.32
	c6.434,4.396,12.867,1.76,12.867,1.76s1.614,3.59,6.151,5.57c5.784,2.516,12.302,0.571,17.845-2.934
	c5.575-3.504,12.02-8.776,26.647-3.504c6.371,2.29,12.092,7.989,17.195,14.48c-2.483,1.788-5.197,3.588-6.371,4.239
	c-11.055,6.134-26.92,7.34-31.331,7.461l-0.021,0.015c3.08,3.212,13.434,15.273,16.912,27.423c0.356,1.295,1.006,4.506,1.498,7.509
	c-8.204,0.999-16.263,0.963-22.402-1.913c-14.094-6.627-14.891-14.9-16.389-21.323c-1.436-6.407-4.652-12.391-10.542-14.687
	c-4.6-1.818-8.268-0.418-8.268-0.418s-2.672-6.418-10.342-7.859c-5.208-0.995-9.714,1.441-10.206,1.723l-0.032,0.043
	c-0.304,0.491-2.724,4.982-1.729,10.201c1.425,7.654,7.849,10.347,7.849,10.347s-1.384,3.662,0.439,8.267
	c2.285,5.869,8.258,9.117,14.691,10.562c6.413,1.441,14.681,2.274,21.292,16.353c2.893,6.136,2.935,14.224,1.938,22.408
	c-3.007-0.482-6.234-1.142-7.502-1.519c-12.166-3.48-24.227-13.816-27.423-16.866h-0.031c-0.115,4.428-1.31,20.276-7.481,31.321
	C325.141,505.111,323.37,507.852,321.557,510.319z M297.718,550.957c-0.513-4.03-2.116-7.578-3.248-9.992
	c-2.871-6.166-8.771-14.864-14.303-22.34c0.691-0.599,1.394-1.138,2.074-1.803c12.857-12.303,15.215-26.79,15.477-28.653
	c0.272,1.863,2.651,16.351,15.487,28.653c0.682,0.676,1.404,1.215,2.086,1.833c-5.522,7.461-11.443,16.144-14.314,22.31
	C299.866,543.379,298.273,546.927,297.718,550.957z M292.772,442.481c1.101-3.982,4.82-4.583,4.945-4.604
	c0.147,0.021,3.877,0.622,4.978,4.604c0.933,3.442-1.802,6.146-1.802,6.146s6.476,0.284,6.476,8.492
	c0,8.347-9.326,20.466-9.651,20.848c-0.304-0.382-9.619-12.501-9.619-20.848c0-8.208,6.434-8.492,6.434-8.492
	S291.851,445.924,292.772,442.481z M174.709,504.877c0.797-4.527-0.293-9.322-3.783-12.815c-5.742-5.701-15.016-5.701-20.706,0
	c-5.742,5.71-5.742,14.974,0,20.7c1.53,1.54,3.343,2.646,5.302,3.373c-3.846-0.209-7.786,1.145-10.709,4.078
	c-5.082,5.098-5.417,13.155-1.017,18.667c0,0-0.021,0-0.042,0.011c-1.928-0.629-5.679-1.221-9.976,1.336
	c-1.771,1.074-3.238,3.196-4.506,5.621c-4.862,1.997-10.615,4.086-17.352,6.057c0.062-10.021-0.692-23.565,3.678-42.92
	c4.128-18.25,11.579-35.597,32.871-43.665c12.815-4.836,22.718-0.623,35.963,1.458c-1.216,9.393-2.19,15.24-3.343,21.517
	c-1.132,6.104-2.798,10.709-4.359,13.968C176.355,503.022,175.642,503.938,174.709,504.877z M111.912,221.2
	c6.591,1.944,12.229,3.977,17.028,5.926c1.331,2.719,2.913,5.124,4.841,6.287c4.317,2.583,8.11,1.959,10.018,1.325
	c-4.422,5.522-4.065,13.58,1.017,18.689c2.923,2.939,6.863,4.275,10.709,4.092c-1.959,0.702-3.772,1.818-5.302,3.373
	c-5.7,5.722-5.742,14.969,0,20.68c5.69,5.715,14.963,5.715,20.706,0c3.49-3.484,4.58-8.278,3.783-12.799
	c0.933,0.937,1.646,1.854,2.022,2.614c1.562,3.27,3.228,7.875,4.359,13.969c1.152,6.281,2.127,12.112,3.343,21.522
	c-13.245,2.085-23.147,6.293-35.963,1.458c-21.292-8.075-28.743-25.422-32.871-43.666C111.125,244.945,111.996,231.28,111.912,221.2
	z M226.034,315.171c-1.457-1.141-13.392-9.707-31.185-9.326c-0.933,0.033-1.813,0.142-2.756,0.194
	c-1.362-9.168-3.343-19.516-5.659-25.908c-0.891-2.515-2.284-6.15-4.747-9.363c3.217,2.463,6.842,3.862,9.368,4.768
	c6.371,2.332,16.713,4.286,25.861,5.658c-0.053,0.928-0.157,1.792-0.168,2.761C216.362,301.743,224.934,313.663,226.034,315.171z
	 M165.038,321.978c5.365-0.958,12.836-2.93,20.685-4.411c0.367,2.981,0.681,5.647,0.786,6.444
	c1.718,12.013,9.944,20.459,10.615,21.135c-0.964,0.027-12.752,0.178-22.466,7.445c-0.628,0.488-2.745,2.154-5.103,4.008
	c-4.516-6.612-8.383-13.287-11.474-17.746c-6.758-9.692-17.122-16.583-18.725-17.629
	C141.22,321.638,153.428,324.095,165.038,321.978z M167.731,371.338c12.312,12.851,26.804,15.219,28.659,15.486
	c-1.855,0.247-16.347,2.641-28.659,15.481c-0.67,0.698-1.184,1.385-1.802,2.081c-7.45-5.505-16.158-11.432-22.309-14.313
	c-2.473-1.137-5.994-2.725-10.049-3.249c4.055-0.54,7.576-2.122,10.049-3.259c6.151-2.875,14.859-8.802,22.309-14.308
	C166.547,369.949,167.061,370.636,167.731,371.338z M169.554,417.04c2.358,1.859,4.475,3.52,5.103,3.998
	c9.714,7.276,21.544,7.444,22.466,7.455c-0.671,0.688-8.896,9.128-10.615,21.146c-0.105,0.797-0.419,3.468-0.786,6.444
	c-7.848-1.488-15.32-3.47-20.685-4.433c-11.61-2.085-23.818,0.373-25.683,0.775c1.604-1.042,11.967-7.933,18.725-17.625
	C161.171,430.336,165.038,423.657,169.554,417.04z M186.435,493.523c2.316-6.414,4.296-16.757,5.659-25.919
	c0.943,0.058,1.823,0.168,2.756,0.193c17.792,0.377,29.728-8.185,31.185-9.315c-1.1,1.504-9.672,13.428-9.285,31.221
	c0.011,0.958,0.115,1.817,0.168,2.739c-9.148,1.374-19.49,3.339-25.861,5.665c-2.525,0.917-6.151,2.3-9.368,4.783
	C184.151,499.662,185.544,496.022,186.435,493.523z M254.819,443.341c-5.899,5.899-21.073,7.87-21.555,7.927
	c0.094-0.472,2.033-15.633,7.953-21.554c5.773-5.794,10.541-1.441,10.541-1.441s0-3.84,3.144-5.596
	c3.49-1.997,6.486,0.089,6.728,0.252c0.168,0.241,2.222,3.233,0.22,6.748c-1.749,3.106-5.553,3.106-5.553,3.106
	S260.635,437.547,254.819,443.341z M206.596,386.824c0.367-0.304,12.511-9.645,20.81-9.63c8.216,0,8.509,6.44,8.509,6.44
	s2.725-2.709,6.182-1.771c3.951,1.121,4.548,4.804,4.579,4.961c-0.031,0.153-0.628,3.851-4.579,4.952
	c-3.458,0.938-6.182-1.766-6.182-1.766s-0.293,6.45-8.509,6.45C219.107,396.46,206.963,387.124,206.596,386.824z M261.85,343.967
	c2.033,3.521-0.052,6.539-0.22,6.764c-0.241,0.157-3.237,2.222-6.728,0.236c-3.144-1.755-3.144-5.59-3.144-5.59
	s-4.768,4.343-10.541-1.441c-5.92-5.925-7.859-21.078-7.953-21.559c0.482,0.051,15.655,2.022,21.586,7.942
	c5.784,5.773,1.446,10.552,1.446,10.552S260.132,340.871,261.85,343.967z M297.718,222.693c0.556,4.023,2.148,7.571,3.259,9.996
	c2.871,6.177,8.792,14.853,14.314,22.314c-0.682,0.618-1.404,1.152-2.086,1.818c-12.836,12.312-15.215,26.805-15.487,28.654
	c-0.262-1.849-2.619-16.341-15.477-28.654c-0.681-0.666-1.383-1.2-2.074-1.807c5.532-7.461,11.432-16.147,14.303-22.325
	C295.602,230.264,297.205,226.717,297.718,222.693z M302.695,331.167c-1.101,3.977-4.83,4.569-4.978,4.595
	c-0.125-0.026-3.845-0.618-4.945-4.595c-0.922-3.433,1.76-6.146,1.76-6.146s-6.434-0.298-6.434-8.487
	c0-8.355,9.315-20.475,9.619-20.868c0.325,0.393,9.651,12.512,9.651,20.868c0,8.189-6.476,8.487-6.476,8.487
	S303.628,327.735,302.695,331.167z M403.332,306.039c-0.923-0.052-1.771-0.161-2.725-0.194c-17.782-0.381-29.728,8.185-31.216,9.326
	c1.132-1.509,9.692-13.428,9.315-31.216c-0.031-0.969-0.126-1.833-0.21-2.75c9.18-1.383,19.521-3.332,25.914-5.669
	c2.525-0.906,6.15-2.305,9.367-4.768c-2.462,3.212-3.855,6.848-4.768,9.363C406.695,286.523,404.704,296.871,403.332,306.039z
	 M340.597,330.319c5.92-5.92,21.093-7.891,21.575-7.942c-0.053,0.481-2.001,15.634-7.942,21.559
	c-5.784,5.784-10.542,1.441-10.542,1.441s0,3.835-3.122,5.59c-3.479,1.986-6.497-0.079-6.717-0.236
	c-0.189-0.236-2.264-3.243-0.272-6.764c1.76-3.096,5.605-3.096,5.605-3.096S334.822,336.092,340.597,330.319z M388.86,386.824
	c-0.377,0.299-12.469,9.636-20.831,9.636c-8.173,0-8.487-6.45-8.487-6.45s-2.714,2.704-6.162,1.766
	c-3.961-1.101-4.547-4.799-4.6-4.952c0.053-0.157,0.639-3.84,4.6-4.961c3.448-0.938,6.162,1.771,6.162,1.771s0.314-6.44,8.487-6.44
	C376.392,377.179,388.483,386.521,388.86,386.824z M333.576,429.677c-1.991-3.515,0.083-6.513,0.272-6.748
	c0.22-0.183,3.237-2.238,6.717-0.252c3.122,1.756,3.122,5.596,3.122,5.596s4.758-4.353,10.542,1.441
	c5.941,5.899,7.89,21.077,7.942,21.554c-0.492-0.057-15.655-2.027-21.575-7.927c-5.774-5.794-1.415-10.558-1.415-10.558
	S335.336,432.783,333.576,429.677z M369.392,458.482c1.488,1.131,13.434,9.692,31.216,9.315c0.953-0.025,1.802-0.136,2.725-0.189
	c1.383,9.165,3.363,19.501,5.679,25.915c0.912,2.499,2.306,6.139,4.768,9.361c-3.217-2.488-6.842-3.86-9.367-4.777
	c-6.393-2.326-16.734-4.291-25.914-5.669c0.084-0.918,0.179-1.777,0.21-2.735C379.084,471.91,370.523,459.986,369.392,458.482z
	 M430.389,451.65c-5.335,0.963-12.785,2.944-20.665,4.433c-0.346-2.977-0.671-5.653-0.796-6.444
	c-1.719-12.014-9.924-20.459-10.573-21.146c0.953-0.011,12.721-0.179,22.403-7.455c0.639-0.478,2.776-2.139,5.145-3.998
	c4.486,6.617,8.363,13.296,11.476,17.761c6.748,9.692,17.122,16.583,18.746,17.625C454.206,452.023,441.988,449.565,430.389,451.65z
	 M427.757,402.306c-12.333-12.841-26.835-15.235-28.68-15.481c1.845-0.267,16.347-2.635,28.68-15.486
	c0.65-0.698,1.185-1.378,1.792-2.07c7.441,5.501,16.117,11.422,22.32,14.297c2.41,1.137,5.952,2.719,9.997,3.259
	c-4.045,0.524-7.587,2.112-9.997,3.249c-6.203,2.881-14.879,8.801-22.32,14.309C428.941,403.684,428.407,402.999,427.757,402.306z
	 M425.902,356.599c-2.368-1.854-4.506-3.521-5.145-4.008c-9.683-7.267-21.45-7.418-22.403-7.445
	c0.649-0.675,8.854-9.122,10.573-21.135c0.125-0.797,0.45-3.463,0.796-6.444c7.88,1.481,15.33,3.453,20.665,4.411
	c11.6,2.117,23.817-0.34,25.735-0.754c-1.624,1.046-11.998,7.937-18.746,17.629C434.266,343.312,430.389,349.987,425.902,356.599z
	 M446.955,308.335c-12.764,4.835-22.677,0.627-35.932-1.463c1.204-9.405,2.189-15.236,3.332-21.517
	c1.142-6.093,2.798-10.699,4.349-13.969c0.355-0.77,1.121-1.687,2.043-2.65c-0.796,4.547,0.294,9.331,3.814,12.836
	c5.731,5.715,14.942,5.715,20.686,0c5.731-5.711,5.731-14.958,0-20.68c-1.54-1.555-3.354-2.671-5.304-3.373
	c3.837,0.183,7.775-1.153,10.669-4.092c5.134-5.103,5.448-13.167,1.037-18.689c1.918,0.634,5.711,1.258,10.007-1.325
	c1.96-1.173,3.573-3.605,4.914-6.339c4.769-1.949,10.396-3.972,16.986-5.905c-0.095,10.085,0.765,23.755-3.699,43.501
	C475.729,282.913,468.258,300.26,446.955,308.335z M497.859,267.782c3.867,9.802-18.631,28.125-18.631,28.125
	s5.219-8.042,7.042-18.61C487.905,267.782,494.329,258.86,497.859,267.782z M486.596,197.958c-0.263,1.011-2.243,8.796-2.851,17.572
	c-0.859,0.32-1.677,0.618-2.536,0.975c-4.432,1.85-8.76,3.893-12.647,5.837c1.53-4.344,2.348-8.304,2.421-8.745l-0.042-0.026
	c-0.44,0.088-4.422,0.906-8.76,2.441c1.928-3.872,3.992-8.226,5.815-12.669c0.377-0.859,0.67-1.687,0.995-2.536
	C477.783,200.195,485.59,198.231,486.596,197.958z M463.322,201.023c-1.928,6.591-3.961,12.234-5.91,17.001
	c-2.715,1.336-5.113,2.939-6.297,4.873c-2.547,4.296-1.93,8.068-1.32,9.997c-5.503-4.427-13.571-4.082-18.674,1.032
	c-2.935,2.929-4.286,6.837-4.076,10.672c-0.713-1.938-1.823-3.756-3.374-5.291c-5.732-5.722-15.006-5.722-20.706,0
	c-5.711,5.711-5.711,14.974,0,20.695c3.489,3.494,8.31,4.583,12.847,3.793c-0.964,0.911-1.865,1.682-2.661,2.043
	c-3.259,1.551-7.859,3.228-13.969,4.354c-6.255,1.152-12.112,2.122-21.512,3.332c-2.064-13.24-6.309-23.152-1.457-35.92
	c8.068-21.34,25.453-28.8,43.686-32.908C439.566,200.227,453.242,201.107,463.322,201.023z M416.786,186.688
	c8.896,3.521,0,9.934-9.535,11.589c-10.562,1.839-18.621,7.031-18.621,7.031S406.968,182.801,416.786,186.688z M369.402,191.844
	c2.871-13.224,13.171-9.938,13.171-9.938l0.084,0.016c0,0,9.578,4.972,2.242,16.357c-3.667,5.706-13.747,11.804-14.041,11.982
	C370.807,209.94,367.967,198.477,369.402,191.844z M362.57,254.144c0.953,5.354,2.944,12.821,4.411,20.68
	c-2.986,0.356-5.658,0.681-6.465,0.796c-11.978,1.708-20.444,9.939-21.104,10.584c-0.042-0.933-0.209-12.716-7.461-22.43
	c-0.492-0.629-2.158-2.761-4.002-5.124c6.611-4.506,13.276-8.394,17.761-11.495c9.692-6.716,16.588-17.09,17.604-18.709
	C362.926,230.321,360.475,242.524,362.57,254.144z M355.047,161.115c9.703,4.203,6.758,33.071,6.758,33.071
	s-2.032-9.357-8.204-18.159C348.036,168.152,346.286,157.317,355.047,161.115z M255.322,171.652
	c11.987-19.019,23.409-28.099,30.45-35.706c6.57-7.12,11.391-15.21,11.945-16.216c0.598,1.006,5.376,9.096,11.978,16.216
	c7.021,7.607,18.442,16.687,30.419,35.706c9.986,15.817,16.996,33.375,7.649,54.148c-5.616,12.464-15.634,16.483-26.469,24.363
	c-5.784-7.487-9.231-12.307-12.836-17.557c-3.511-5.098-5.627-9.541-6.822-12.957c-0.272-0.801-0.377-1.986-0.419-3.306
	c2.63,3.757,6.812,6.371,11.757,6.371c8.09,0,14.67-6.539,14.67-14.612c0-8.095-6.58-14.638-14.67-14.638
	c-2.2,0-4.243,0.492-6.099,1.362c2.851-2.572,4.643-6.287,4.643-10.432c0-7.251-5.47-13.166-12.47-13.947
	c1.792-0.917,4.904-3.148,6.109-8.011c1.718-6.827-6.905-19.831-7.398-20.549h-0.052c-0.503,0.718-9.106,13.722-7.419,20.549
	c1.215,4.863,4.317,7.094,6.13,8.011c-7.031,0.781-12.48,6.696-12.48,13.947c0,4.145,1.792,7.859,4.663,10.432
	c-1.875-0.87-3.93-1.362-6.141-1.362c-8.068,0-14.638,6.543-14.638,14.638c0,8.074,6.569,14.612,14.638,14.612
	c4.968,0,9.127-2.614,11.757-6.386c-0.021,1.32-0.136,2.515-0.419,3.321c-1.205,3.416-3.279,7.859-6.79,12.957
	c-3.625,5.25-7.052,10.065-12.867,17.552c-10.835-7.875-20.821-11.893-26.448-24.357
	C238.357,205.026,245.336,187.469,255.322,171.652z M240.379,161.115c8.812-3.798,7.042,7.037,1.467,14.912
	c-6.172,8.802-8.184,18.159-8.184,18.159S230.708,165.318,240.379,161.115z M249.758,247.155c4.475,3.102,11.139,6.985,17.74,11.491
	c-1.845,2.367-3.5,4.5-3.981,5.128c-7.252,9.714-7.451,21.498-7.461,22.43c-0.66-0.645-9.127-8.876-21.146-10.584
	c-0.786-0.115-3.448-0.435-6.444-0.796c1.478-7.865,3.468-15.33,4.412-20.68c2.116-11.62-0.356-23.807-0.765-25.698
	C233.17,230.07,240.065,240.438,249.758,247.155z M212.82,181.921l0.063-0.016c0,0,10.3-3.285,13.151,9.938
	c1.466,6.633-1.352,18.097-1.446,18.417c-0.272-0.178-10.385-6.276-14.052-11.982C203.222,186.893,212.82,181.921,212.82,181.921z
	 M178.65,186.688c9.829-3.888,28.187,18.621,28.187,18.621s-8.058-5.192-18.641-7.031
	C178.65,196.622,169.795,190.209,178.65,186.688z M175.569,204.696c18.264,4.108,35.596,11.568,43.664,32.908
	c4.832,12.769,0.629,22.681-1.456,35.92c-9.411-1.21-15.237-2.18-21.524-3.332c-6.098-1.132-10.677-2.803-13.957-4.354
	c-0.786-0.361-1.698-1.116-2.641-2.043c4.537,0.791,9.347-0.299,12.857-3.793c5.701-5.722,5.701-14.984,0-20.695
	c-5.742-5.722-14.995-5.722-20.716,0c-1.572,1.535-2.662,3.353-3.385,5.291c0.209-3.835-1.121-7.743-4.066-10.672
	c-5.124-5.113-13.171-5.459-18.683-1.032c0.629-1.928,1.226-5.7-1.331-9.997c-1.184-1.97-3.667-3.589-6.413-4.925
	c-1.949-4.773-3.982-10.4-5.899-16.954C142.101,201.112,155.827,200.201,175.569,204.696z M108.862,197.958
	c1.038,0.272,8.75,2.211,17.479,2.834c0.335,0.849,0.628,1.682,0.995,2.551c1.834,4.433,3.877,8.771,5.816,12.627
	c-4.275-1.488-8.205-2.279-8.603-2.374l-0.063,0.037c0.115,0.43,0.912,4.427,2.431,8.771c-3.909-1.954-8.278-4.034-12.752-5.899
	c-0.849-0.356-1.645-0.634-2.462-0.943C111.084,206.771,109.156,198.97,108.862,197.958z M97.577,267.782
	c3.521-8.922,9.944-0.021,11.621,9.515c1.833,10.568,7.031,18.61,7.031,18.61S93.689,277.584,97.577,267.782z M92.809,301.979
	l0.021-0.057c0,0,4.978-9.599,16.368-2.28c5.711,3.679,11.788,13.765,11.987,14.037c-0.356,0.088-11.799,2.913-18.432,1.456
	C89.519,312.269,92.809,301.979,92.809,301.979z M72.009,329.486c4.202-9.693,33.092-6.733,33.092-6.733s-9.389,2.017-18.149,8.194
	C79.041,336.507,68.215,338.257,72.009,329.486z M46.86,398.801c-7.115-6.601-15.247-11.4-16.21-11.977
	c0.964-0.582,9.095-5.386,16.21-11.982c7.597-7.015,16.692-18.432,35.69-30.419c15.802-9.976,33.364-16.987,54.143-7.624
	c12.47,5.616,16.493,15.603,24.384,26.438c-7.513,5.795-12.312,9.242-17.594,12.857c-5.082,3.521-9.514,5.59-12.92,6.801
	c-0.807,0.282-1.991,0.403-3.311,0.424c3.772-2.641,6.371-6.817,6.371-11.762c0-8.084-6.518-14.633-14.628-14.633
	c-8.089,0-14.628,6.549-14.628,14.633c0,2.189,0.492,4.265,1.352,6.13c-2.557-2.856-6.287-4.668-10.426-4.668
	c-7.199,0-13.171,5.47-13.958,12.49c-0.901-1.807-3.112-4.914-8.005-6.125c-6.812-1.713-19.826,6.921-20.56,7.403v0.058
	c0.733,0.498,13.748,9.117,20.56,7.403c4.894-1.205,7.104-4.316,8.005-6.119c0.786,7.032,6.759,12.496,13.958,12.496
	c4.139,0,7.87-1.803,10.426-4.674c-0.859,1.859-1.352,3.939-1.352,6.141c0,8.079,6.539,14.627,14.628,14.627
	c8.11,0,14.628-6.548,14.628-14.627c0-4.973-2.599-9.133-6.381-11.772c1.31,0.015,2.515,0.125,3.322,0.424
	c3.406,1.209,7.838,3.279,12.92,6.81c5.281,3.599,10.081,7.041,17.594,12.852c-7.891,10.83-11.935,20.817-24.384,26.438
	c-20.779,9.367-38.341,2.356-54.143-7.618C63.553,417.234,54.457,405.823,46.86,398.801z M72.009,444.148
	c-3.793-8.771,7.032-7.011,14.943-1.451c8.76,6.166,18.149,8.199,18.149,8.199S76.21,453.846,72.009,444.148z M92.83,471.733
	l-0.021-0.073c0,0-3.29-10.285,9.944-13.167c6.633-1.437,18.076,1.383,18.432,1.467c-0.199,0.271-6.276,10.369-11.987,14.041
	C97.808,481.32,92.83,471.733,92.83,471.733z M97.577,505.876c-3.888-9.817,18.652-28.145,18.652-28.145s-5.198,8.058-7.031,18.627
	C107.521,505.876,101.098,514.773,97.577,505.876z M108.862,575.681c0.293-1.031,2.295-9.132,2.871-18.133
	c0.817-0.314,1.604-0.604,2.431-0.943c4.579-1.906,9.054-4.03,13.004-6.031c-1.666,4.604-2.567,8.99-2.683,9.442l0.063,0.026
	c0.398-0.084,4.149-0.838,8.299-2.274c-1.844,3.72-3.783,7.805-5.512,12.003c-0.44,1.058-0.828,2.06-1.184,3.076
	C117.476,573.49,109.889,575.425,108.862,575.681z M131.957,572.62c0.011-0.114,0.011-0.252,0.021-0.362
	c1.844-6.343,3.783-11.766,5.68-16.434c2.86-1.374,5.449-3.035,6.675-5.072c2.557-4.312,1.959-8.079,1.331-10.003
	c5.512,4.411,13.559,4.089,18.683-1.017c2.945-2.955,4.275-6.851,4.066-10.688c0.723,1.938,1.813,3.757,3.385,5.304
	c5.721,5.716,14.974,5.716,20.716,0c5.701-5.713,5.701-14.974,0-20.69c-3.51-3.518-8.32-4.597-12.857-3.814
	c0.943-0.918,1.865-1.672,2.641-2.033c3.28-1.562,7.859-3.227,13.957-4.349c6.287-1.163,12.113-2.133,21.513-3.332
	c2.096,13.229,6.298,23.141,1.467,35.927c-8.068,21.318-25.4,28.779-43.664,32.896C155.754,573.449,142.038,572.536,131.957,572.62z
	 M178.65,586.961c-8.854-3.521,0-9.938,9.546-11.59c10.583-1.833,18.641-7.037,18.641-7.037S188.479,590.833,178.65,586.961z
	 M226.034,581.8c-2.851,13.214-13.151,9.944-13.151,9.944l-0.063-0.025c0,0-9.598-4.967-2.284-16.348
	c3.667-5.717,13.78-11.814,14.052-11.982C224.683,563.71,227.5,575.157,226.034,581.8z M232.877,519.495
	c-0.943-5.351-2.934-12.815-4.412-20.675c2.997-0.357,5.658-0.677,6.444-0.802c12.019-1.719,20.486-9.929,21.146-10.568
	c0.01,0.906,0.209,12.701,7.461,22.424c0.481,0.64,2.137,2.757,3.981,5.119c-6.602,4.502-13.266,8.394-17.74,11.491
	c-9.693,6.737-16.588,17.096-17.646,18.709C232.521,543.306,234.993,531.119,232.877,519.495z M240.379,612.529
	c-9.672-4.191-6.717-33.081-6.717-33.081s2.012,9.378,8.184,18.148C247.421,605.497,249.191,616.322,240.379,612.529z
	 M340.114,601.986c-11.977,19.019-23.398,28.104-30.419,35.711c-6.602,7.142-11.38,15.231-11.978,16.212
	c-0.555-0.98-5.375-9.07-11.945-16.212c-7.041-7.607-18.463-16.692-30.45-35.711c-9.986-15.812-16.965-33.347-7.629-54.142
	c5.627-12.45,15.645-16.488,26.448-24.362c5.815,7.479,9.242,12.311,12.867,17.56c3.511,5.116,5.585,9.549,6.79,12.937
	c0.283,0.818,0.398,2.022,0.419,3.343c-2.63-3.778-6.789-6.407-11.757-6.407c-8.068,0-14.638,6.561-14.638,14.633
	c0,8.079,6.569,14.645,14.638,14.645c2.211,0,4.266-0.509,6.141-1.372c-2.871,2.567-4.663,6.28-4.663,10.441
	c0,7.225,5.449,13.167,12.48,13.936c-1.812,0.918-4.915,3.145-6.13,8.013c-1.688,6.825,7.031,19.944,7.523,20.689l0.042-0.021
	c0.481-0.724,9.021-13.843,7.304-20.668c-1.205-4.868-4.317-7.095-6.109-8.013c7-0.769,12.47-6.711,12.47-13.936
	c0-4.161-1.792-7.874-4.643-10.441c1.855,0.863,3.898,1.372,6.099,1.372c8.09,0,14.67-6.565,14.67-14.645
	c0-8.072-6.58-14.633-14.67-14.633c-4.936,0-9.095,2.614-11.715,6.371c0-1.311,0.115-2.499,0.398-3.307
	c1.174-3.388,3.29-7.82,6.801-12.937c3.604-5.249,7.052-10.084,12.836-17.566c10.835,7.881,20.853,11.915,26.469,24.369
	C357.11,568.64,350.101,586.175,340.114,601.986z M355.047,612.529c-8.761,3.793-7.011-7.032-1.446-14.933
	c6.172-8.771,8.204-18.148,8.204-18.148S364.75,608.338,355.047,612.529z M345.71,526.484c-4.475-3.108-11.139-6.989-17.761-11.502
	c1.844-2.352,3.51-4.474,4.002-5.108c7.252-9.723,7.419-21.518,7.461-22.424c0.671,0.64,9.127,8.85,21.104,10.568
	c0.807,0.125,3.489,0.444,6.465,0.802c-1.467,7.859-3.458,15.324-4.411,20.675c-2.096,11.624,0.355,23.811,0.743,25.698
	C362.298,543.58,355.402,533.222,345.71,526.484z M382.657,591.719l-0.084,0.025c0,0-10.3,3.27-13.171-9.944
	c-1.436-6.643,1.404-18.09,1.456-18.411c0.294,0.168,10.395,6.283,14.041,11.982C392.235,586.752,382.657,591.719,382.657,591.719z
	 M416.786,586.961c-9.818,3.872-28.156-18.627-28.156-18.627s8.059,5.204,18.621,7.037
	C416.786,577.022,425.683,583.439,416.786,586.961z M419.898,568.952c-18.232-4.116-35.617-11.577-43.686-32.896
	c-4.852-12.786-0.607-22.698,1.457-35.927c9.409,1.199,15.257,2.169,21.512,3.332c6.109,1.122,10.71,2.787,13.969,4.349
	c0.796,0.361,1.697,1.126,2.65,2.033c-4.547-0.791-9.347,0.297-12.836,3.814c-5.711,5.717-5.711,14.978,0,20.69
	c5.7,5.716,14.974,5.716,20.706,0c1.551-1.547,2.661-3.365,3.374-5.304c-0.21,3.837,1.142,7.732,4.076,10.688
	c5.103,5.105,13.171,5.428,18.674,1.017c-0.609,1.924-1.227,5.69,1.32,10.003c1.226,2.008,3.74,3.657,6.56,5.015
	c1.896,4.674,3.835,10.127,5.711,16.491c0.01,0.11,0.01,0.248,0.042,0.362C453.305,572.543,439.65,573.438,419.898,568.952z
	 M486.596,575.681c-1.006-0.256-8.708-2.205-17.395-2.841c-0.388-1.01-0.744-2.012-1.205-3.069
	c-1.719-4.202-3.668-8.306-5.512-12.015c4.254,1.467,8.058,2.26,8.456,2.344c-0.062-0.445-0.964-4.853-2.651-9.468
	c3.95,1.979,8.383,4.074,12.92,5.973c0.85,0.361,1.656,0.65,2.505,0.965C484.27,566.57,486.333,574.649,486.596,575.681z
	 M497.859,505.876c-3.53,8.897-9.954,0-11.589-9.518c-1.823-10.569-7.042-18.627-7.042-18.627S501.727,496.059,497.859,505.876z
	 M502.638,471.66v0.073c0,0-4.977,9.587-16.367,2.268c-5.7-3.672-11.799-13.77-11.967-14.041c0.314-0.084,11.757-2.903,18.411-1.467
	C505.918,461.375,502.638,471.66,502.638,471.66z M523.428,444.148c-4.181,9.697-33.07,6.748-33.07,6.748s9.347-2.033,18.138-8.199
	C516.417,437.138,527.252,435.378,523.428,444.148z M548.587,398.801c-7.618,7.021-16.661,18.433-35.68,30.425
	c-15.844,9.975-33.374,16.985-54.143,7.618c-12.459-5.621-16.515-15.613-24.364-26.454c7.492-5.796,12.293-9.238,17.541-12.837
	c5.115-3.531,9.558-5.601,12.953-6.81c0.807-0.299,2.001-0.409,3.343-0.424c-3.772,2.64-6.403,6.799-6.403,11.772
	c0,8.079,6.539,14.627,14.607,14.627c8.09,0,14.649-6.548,14.649-14.627c0-2.201-0.472-4.282-1.362-6.141
	c2.536,2.871,6.287,4.674,10.416,4.674c7.262,0,13.192-5.464,13.957-12.496c0.922,1.803,3.154,4.914,8.017,6.119
	c6.821,1.714,19.814-6.905,20.569-7.403l0.01-0.058c-0.733-0.481-13.758-9.116-20.579-7.403c-4.862,1.21-7.095,4.317-8.017,6.125
	c-0.765-7.021-6.695-12.49-13.957-12.49c-4.129,0-7.88,1.812-10.416,4.668c0.891-1.865,1.362-3.94,1.362-6.13
	c0-8.084-6.56-14.633-14.649-14.633c-8.068,0-14.607,6.549-14.607,14.633c0,4.945,2.62,9.122,6.371,11.762
	c-1.32-0.021-2.504-0.142-3.311-0.424c-3.396-1.21-7.838-3.28-12.953-6.801c-5.248-3.615-10.049-7.062-17.541-12.852
	c7.85-10.84,11.895-20.827,24.364-26.443c20.769-9.363,38.299-2.352,54.143,7.624c19.019,11.987,28.062,23.404,35.68,30.419
	c7.156,6.596,15.235,11.4,16.231,11.982C563.822,387.401,555.743,392.2,548.587,398.801z"/>
</svg>
