<?xml version="1.0" encoding="utf-8"?>
<!-- Generator: Adobe Illustrator 16.0.0, SVG Export Plug-In . SVG Version: 6.00 Build 0)  -->
<!DOCTYPE svg PUBLIC "-//W3C//DTD SVG 1.1//EN" "http://www.w3.org/Graphics/SVG/1.1/DTD/svg11.dtd">
<svg version="1.1" id="Layer_1" xmlns="http://www.w3.org/2000/svg" xmlns:xlink="http://www.w3.org/1999/xlink" x="0px" y="0px"
	 width="595.28px" height="841.89px" viewBox="0 0 595.28 841.89" enable-background="new 0 0 595.28 841.89" xml:space="preserve">
<linearGradient id="SVGID_1_" gradientUnits="userSpaceOnUse" x1="0" y1="396.4893" x2="594.9043" y2="396.4893">
	<stop  offset="0.0056" style="stop-color:#ECC562"/>
	<stop  offset="1" style="stop-color:#C3922E"/>
</linearGradient>
<path fill="url(#SVGID_1_)" d="M594.904,374.28c0-82.135-59.822-152.118-140.234-165.503
	c-25.99-62.252-87.353-103.617-154.818-103.617c-11.84,0-23.769,1.254-35.421,3.767c-43.845,9.456-81.429,35.392-105.751,73.041
	c-5.224,8.067-9.796,16.782-13.677,25.995C61.867,219.274,0,289.574,0,374.28c0,44.536,18.11,87.601,49.908,119.101
	c-1.343,8.963-1.946,18.082-1.847,27.172c0.395,68.121,41.237,128.813,104.131,154.646c48.011,19.695,103.469,15.755,147.896-9.97
	c6.695,3.916,13.312,7.214,20.017,9.97c20.401,8.373,41.859,12.62,63.732,12.62c68.433,0,129.44-40.893,155.411-104.195
	c12.275-29.892,15.613-62.301,9.697-94.108C578.62,458.184,594.904,417.488,594.904,374.28z M455.264,255.332
	c36.526,8.685,66.754,33.792,82.465,67.05c-12.907-1.748-34.819-1.017-46.837,20.363c-15.188,27.155,0.632,50.213,8.226,71.332
	c-15.029-16.467-33.742-30.036-55.754-39.045c-6.429-2.647-13.044-4.687-19.69-6.449c2.627-3.396,5.175-6.858,7.545-10.502
	C451.136,327.276,459.44,291.296,455.264,255.332z M338.689,466.364l-39.885-23.487l-39.855,22.771l8.542-44.828l-29.861-32.745
	l39.125-2.844l24.194-41.267l18.495,39.134l41.287,7.124l-28.47,32.015L338.689,466.364z M239.111,460.375
	c-2.331,5.683-4.246,11.455-5.856,17.236c-18.921,11.998-41.307,19.063-65.303,19.063c-21.409,0-41.524-5.579-59.032-15.296
	c0.642-13.949,6.063-28.672,16.372-43.405c20.54-22.806,48.96-37.47,80.402-40.092c16.057,12.131,34.384,21.319,54.125,26.593
	C251.514,435.312,244.444,447.301,239.111,460.375z M315.829,323.336c17.528-38.103,54.124-65.353,97.465-70.23
	c3.782,9.346,6.134,20.055,6.567,32.227c0.791,22.702-11.139,44.975-21.783,60.157c-4.76,6.443-9.945,12.492-15.751,17.83
	c-20.293,0.212-39.845,4.3-57.856,11.677c0-0.243,0.039-0.479,0.039-0.716C324.51,356.427,321.359,339.333,315.829,323.336z
	 M394.059,397.891c12.451,1.062,24.657,3.927,36.34,8.735c28.735,11.806,50.41,33.382,63.13,59.304
	c-7.229,10.937-18.466,19.783-33.357,26.044c-10.586,3.008-21.686,4.701-33.219,4.701c-21.409,0-41.555-5.579-59.131-15.296
	c-5.066-20.728-14.31-40.23-27.176-57.338C360.207,418.767,378.278,409.88,394.059,397.891z M310.398,128.814
	c55.724,3.911,105.631,39.88,125.727,95.249c0,0-33.396-58.095-95.697-48.876c-20.648,3.037-36.774,2.908-43.489-10.408
	C287.222,145.721,304.088,128.355,310.398,128.814z M196.935,206.693c17.726-27.462,45.109-46.363,77.064-53.235
	c0.583-0.119,1.185-0.158,1.778-0.277c-5.224,11.489-11.86,34.345,6.725,52.46c27.048,26.312,60.128,6.937,84.697,10.68
	c7.555,1.141,14.25,3.496,20.254,6.744c-37.11,9.698-68.977,32.488-90,63.393c-24.283-35.703-62.992-60.736-107.637-67.017
	C191.929,215.102,194.259,210.821,196.935,206.693z M178.687,255.618c6.34-0.587,13.025-0.523,20.115,0.469
	c35.708,9.347,65.115,34.3,80.283,67.249c-5.273,15.266-8.295,31.555-8.532,48.52c-17.558-6.537-35.865-10.022-54.539-10.022
	c-0.099,0-0.247,0.009-0.346,0.009c-17.538-16.57-30.296-38.28-35.599-63.007C176.949,284.389,176.662,269.818,178.687,255.618z
	 M30.346,327.582c17.804-52.924,65.165-92.207,123.801-97.766c0,0-64.602,17.755-71.385,80.367
	c-2.222,20.777-6.409,36.305-20.975,39.504C40.892,354.264,28.331,333.586,30.346,327.582z M45.562,374.28
	c0-4.241,0.277-8.423,0.691-12.575c10.339,8.062,28.924,17.833,49.612,6.152c32.863-18.57,23.551-55.749,34.048-78.304
	c3.526-7.554,8.058-13.869,13.459-18.955c-0.237,11.766,0.761,23.616,3.279,35.407c4.917,22.796,14.783,43.588,28.292,61.363
	c-44.082,11.894-81.202,42.645-100.941,85.27C56.277,431.397,45.562,404.078,45.562,374.28z M159.934,613.297
	c-2.054,21.271-25.605,26.88-30.721,23.118c-44.852-33.186-67.742-90.336-54.983-147.848c0,0-2.973,66.938,54.568,92.603
	C147.857,589.687,161.356,598.426,159.934,613.297z M215.915,640.845c-15.948,0-31.57-3.082-46.472-9.204
	c-2.251-0.948-4.443-1.98-6.665-3.052c11.248-6.65,27.551-20.608,23.966-44.481c-5.559-36.798-42.57-41.78-60.217-59.002
	c13.203,3.653,27.057,5.731,41.425,5.731c21.073,0,41.149-4.246,59.506-11.81c-0.158,40.472,15.474,79.606,43.331,108.86
	C254.121,636.228,235.467,640.845,215.915,640.845z M289.681,597.681c-22.574-27.379-32.696-63.817-26.168-99.683
	c13.114-10.116,24.598-22.188,33.94-35.881c10.615,15.612,24.035,29.117,39.46,40.009c0.771,5.269,1.353,10.576,1.402,15.973
	c0.06,15.623-2.824,31.49-9.134,46.817c-6.528,15.928-16.225,29.803-28.025,41.276C297.245,603.769,293.443,600.979,289.681,597.681
	z M466.164,640.143c-46.026,31.575-107.488,34.488-157.672,3.664c0,0,62.291,24.667,105.335-21.311
	c14.261-15.231,26.969-25.122,40.518-18.916C473.817,612.478,471.409,636.559,466.164,640.143z M497.133,566.332
	c-5.777,14.033-13.934,26.524-23.828,37.15c-2.488-11.83-10.912-35.921-37.881-38.941c-37.524-4.208-51.734,31.377-73.439,43.508
	c-7.336,4.123-14.803,6.566-22.219,7.511c8.424-10.941,15.583-23.028,21.024-36.251c7.841-19.138,11.494-38.952,11.632-58.474
	c17.025,6.354,35.343,10.002,54.53,10.002c28.756,0,55.615-7.92,78.781-21.473C507.362,528.186,504.786,547.675,497.133,566.332z
	 M525.227,480.82c0,0,40.28-50.268,10.2-102.812c-10.003-17.41-15.513-31.867-5.953-42.581c13.646-15.361,35.095-6.35,36.94-0.533
	C582.412,386.096,565.951,443.147,525.227,480.82z"/>
</svg>
