<?xml version="1.0" encoding="utf-8"?>
<!-- Generator: Adobe Illustrator 16.0.0, SVG Export Plug-In . SVG Version: 6.00 Build 0)  -->
<!DOCTYPE svg PUBLIC "-//W3C//DTD SVG 1.1//EN" "http://www.w3.org/Graphics/SVG/1.1/DTD/svg11.dtd">
<svg version="1.1" id="Layer_1" xmlns="http://www.w3.org/2000/svg" xmlns:xlink="http://www.w3.org/1999/xlink" x="0px" y="0px"
	 width="595.28px" height="841.89px" viewBox="0 0 595.28 841.89" enable-background="new 0 0 595.28 841.89" xml:space="preserve">
<linearGradient id="SVGID_1_" gradientUnits="userSpaceOnUse" x1="0.4126" y1="448.459" x2="595.2803" y2="448.459">
	<stop  offset="0.0056" style="stop-color:#ECC562"/>
	<stop  offset="1" style="stop-color:#C3922E"/>
</linearGradient>
<path fill="url(#SVGID_1_)" d="M595.28,513.472h-34.095l-8.831-8.831l6.615-6.616l-6.608-6.606l8.829-8.83h18.666v-18.688
	l8.802-8.803l6.622,6.608v-26.478l-6.622,6.612l-8.819-8.823V414.33h-18.672l-8.82-8.819l6.623-6.622l-6.623-6.625l8.82-8.817
	h34.113v-9.378h-37.994l-11.567,11.571l-11.569-11.571h-75.997l-11.566,11.572l-11.567-11.572H359.02l-11.57,11.571l-11.568-11.571
	h-75.994l-11.584,11.589l-11.6-11.589h-75.994l-11.566,11.571l-11.569-11.571H61.583l-11.581,11.579L38.42,374.069H0.413v9.378
	h34.126l8.829,8.832l-6.609,6.61l6.609,6.609l-8.832,8.832H15.862v18.691l-8.811,8.806l-6.631-6.628l-0.007,0.003v26.514
	l0.007,0.002l6.631-6.632l8.811,8.813v18.688h18.673l8.832,8.833l-6.609,6.604l6.609,6.616l-8.829,8.831H0.413v9.376H38.42
	l11.582-11.58l11.581,11.58h75.991l11.576-11.58l11.575,11.58h76.003l11.581-11.58l11.578,11.58h75.994l11.568-11.567l11.57,11.567
	h75.999l11.567-11.57l11.566,11.57h75.997l11.579-11.58l11.578,11.58h37.974V513.472z M0.42,448.463l-0.004-0.002l0.004-0.002
	l0.003,0.002L0.42,448.463z M453.209,392.264l8.825-8.817h68.236l8.814,8.817l-6.622,6.625l6.622,6.622l-8.814,8.819h-18.674v18.691
	l-8.811,8.806l-6.633-6.628l-6.633,6.628l-8.807-8.811V414.33h-18.675l-8.83-8.819l6.62-6.622L453.209,392.264z M496.153,448.461
	v0.002l-0.005-0.002l0.005-0.002V448.461z M354.082,392.264l8.824-8.817h68.224l8.825,8.817l-6.623,6.625l6.623,6.622l-8.825,8.819
	h-18.669v18.691l-8.812,8.806l-6.63-6.628l-6.636,6.628l-8.81-8.811V414.33h-18.667l-8.824-8.819l6.622-6.622L354.082,392.264z
	 M397.019,448.461v0.002l-0.005-0.002l0.005-0.002V448.461z M254.922,392.288l8.846-8.84h68.233l8.819,8.817l-6.621,6.625
	l6.621,6.622l-8.819,8.819h-18.673v18.691l-8.805,8.806l-6.64-6.628l-6.632,6.628l-8.806-8.811V414.33H263.77l-8.848-8.839
	l6.602-6.602L254.922,392.288z M297.89,448.461l-0.006,0.002v-0.002v-0.002L297.89,448.461z M155.776,392.264l8.816-8.817h68.229
	l8.846,8.84l-6.6,6.602l6.6,6.602l-8.846,8.839h-18.674v18.691l-8.801,8.8l-6.623-6.622l-6.635,6.641l-8.824-8.823V414.33h-18.673
	l-8.816-8.819l6.619-6.622L155.776,392.264z M56.632,392.279l8.829-8.832h68.233l8.817,8.817l-6.618,6.625l6.618,6.622l-8.82,8.819
	h-18.672v18.691l-8.81,8.806l-6.63-6.628l-6.63,6.628l-8.814-8.811V414.33H65.461l-8.829-8.832l6.605-6.609L56.632,392.279z
	 M99.58,448.461v0.002l-0.005-0.002l0.005-0.002V448.461z M38.42,473.21H25.238v-13.194l-11.556-11.555l11.556-11.563v-13.192H38.42
	l11.582-11.581l11.581,11.581h13.173v13.192l11.563,11.563l-11.563,11.555v13.194H61.583l-11.581,11.586L38.42,473.21z
	 M142.519,504.641l-8.824,8.831H65.461l-8.829-8.837l6.605-6.61l-6.605-6.604l8.829-8.833h18.675v-18.688l8.814-8.806l6.63,6.624
	l6.63-6.632l8.81,8.813v18.688h18.672l8.827,8.83l-6.607,6.606L142.519,504.641z M137.574,473.21h-13.177v-13.194l-11.554-11.555
	l11.554-11.563v-13.192h13.177l11.569-11.559l11.57,11.559h13.177v13.192l11.573,11.57l-11.553,11.548v13.194h-13.186
	l-11.575,11.577L137.574,473.21z M241.675,504.641l-8.831,8.831h-68.232l-8.83-8.831l6.613-6.616l-6.613-6.606l8.831-8.83h18.669
	v-18.688l8.806-8.803l6.618,6.621l6.64-6.64l8.827,8.821v18.688h18.671l8.831,8.833l-6.607,6.604L241.675,504.641z M236.725,473.21
	h-13.176v-13.194l-11.569-11.559l11.544-11.56v-13.192h13.18l11.6-11.593l11.584,11.593h13.179v13.192l11.558,11.563l-11.558,11.555
	v13.194h-13.179l-11.578,11.586L236.725,473.21z M340.82,504.655l-8.819,8.816h-68.233l-8.838-8.837l6.62-6.61l-6.62-6.604
	l8.84-8.833h18.676v-18.688l8.806-8.806l6.632,6.624l6.64-6.632l8.805,8.813v18.688h18.673l8.819,8.821l-6.621,6.615L340.82,504.655
	z M335.881,473.21h-13.18v-13.194l-11.559-11.555l11.559-11.563v-13.192h13.18l11.568-11.559l11.57,11.559H372.2v13.192
	l11.552,11.563L372.2,460.016v13.194H359.02l-11.57,11.563L335.881,473.21z M439.955,504.652l-8.825,8.819h-68.224l-8.824-8.816
	l6.622-6.631l-6.622-6.615l8.824-8.821h18.667v-18.688l8.81-8.806l6.636,6.624l6.63-6.632l8.812,8.813v18.688h18.669l8.825,8.821
	l-6.623,6.615L439.955,504.652z M435.011,473.21h-13.178v-13.194l-11.558-11.555l11.558-11.563v-13.192h13.178l11.575-11.564
	l11.572,11.564h13.173v13.192l11.561,11.563l-11.561,11.555v13.194h-13.173l-11.572,11.569L435.011,473.21z M539.1,504.641
	l-8.829,8.831h-68.236l-8.825-8.819l6.62-6.628l-6.62-6.615l8.83-8.821h18.675v-18.688l8.807-8.806l6.633,6.624l6.633-6.632
	l8.811,8.813v18.688h18.674l8.829,8.83l-6.612,6.606L539.1,504.641z M534.149,473.21h-13.184v-13.194l-11.548-11.555l11.548-11.563
	v-13.192h13.184l11.569-11.559l11.567,11.559h13.182v13.192l11.563,11.57l-11.547,11.548v13.194h-13.176l-11.58,11.577
	L534.149,473.21z"/>
</svg>
