  0
SECTION
  2
HEADER
  9
$ACADVER
  1
AC1018
  9
$ACADMAINTVER
 70
     0
  9
$DWGCODEPAGE
  3
ANSI_932
  9
$INSBASE
 10
0.0
 20
0.0
 30
0.0
  9
$EXTMIN
 10
1.000000000000000E+20
 20
1.000000000000000E+20
 30
1.000000000000000E+20
  9
$EXTMAX
 10
-1.000000000000000E+20
 20
-1.000000000000000E+20
 30
-1.000000000000000E+20
  9
$LIMMIN
 10
0.0
 20
0.0
  9
$LIMMAX
 10
12.0
 20
9.0
  9
$ORTHOMODE
 70
     0
  9
$REGENMODE
 70
     1
  9
$FILLMODE
 70
     1
  9
$QTEXTMODE
 70
     0
  9
$MIRRTEXT
 70
     1
  9
$LTSCALE
 40
1.0
  9
$ATTMODE
 70
     1
  9
$TEXTSIZE
 40
0.2
  9
$TRACEWID
 40
0.05
  9
$TEXTSTYLE
  7
Standard
  9
$CLAYER
  8
0
  9
$CELTYPE
  6
ByLayer
  9
$CECOLOR
 62
   256
  9
$CELTSCALE
 40
1.0
  9
$DISPSILH
 70
     0
  9
$DIMSCALE
 40
1.0
  9
$DIMASZ
 40
0.18
  9
$DIMEXO
 40
0.0625
  9
$DIMDLI
 40
0.38
  9
$DIMRND
 40
0.0
  9
$DIMDLE
 40
0.0
  9
$DIMEXE
 40
0.18
  9
$DIMTP
 40
0.0
  9
$DIMTM
 40
0.0
  9
$DIMTXT
 40
0.18
  9
$DIMCEN
 40
0.09
  9
$DIMTSZ
 40
0.0
  9
$DIMTOL
 70
     0
  9
$DIMLIM
 70
     0
  9
$DIMTIH
 70
     1
  9
$DIMTOH
 70
     1
  9
$DIMSE1
 70
     0
  9
$DIMSE2
 70
     0
  9
$DIMTAD
 70
     0
  9
$DIMZIN
 70
     0
  9
$DIMBLK
  1

  9
$DIMASO
 70
     1
  9
$DIMSHO
 70
     1
  9
$DIMPOST
  1

  9
$DIMAPOST
  1

  9
$DIMALT
 70
     0
  9
$DIMALTD
 70
     2
  9
$DIMALTF
 40
25.4
  9
$DIMLFAC
 40
1.0
  9
$DIMTOFL
 70
     0
  9
$DIMTVP
 40
0.0
  9
$DIMTIX
 70
     0
  9
$DIMSOXD
 70
     0
  9
$DIMSAH
 70
     0
  9
$DIMBLK1
  1

  9
$DIMBLK2
  1

  9
$DIMSTYLE
  2
Standard
  9
$DIMCLRD
 70
     0
  9
$DIMCLRE
 70
     0
  9
$DIMCLRT
 70
     0
  9
$DIMTFAC
 40
1.0
  9
$DIMGAP
 40
0.09
  9
$DIMJUST
 70
     0
  9
$DIMSD1
 70
     0
  9
$DIMSD2
 70
     0
  9
$DIMTOLJ
 70
     1
  9
$DIMTZIN
 70
     0
  9
$DIMALTZ
 70
     0
  9
$DIMALTTZ
 70
     0
  9
$DIMUPT
 70
     0
  9
$DIMDEC
 70
     4
  9
$DIMTDEC
 70
     4
  9
$DIMALTU
 70
     2
  9
$DIMALTTD
 70
     2
  9
$DIMTXSTY
  7
Standard
  9
$DIMAUNIT
 70
     0
  9
$DIMADEC
 70
     0
  9
$DIMALTRND
 40
0.0
  9
$DIMAZIN
 70
     0
  9
$DIMDSEP
 70
    46
  9
$DIMATFIT
 70
     3
  9
$DIMFRAC
 70
     0
  9
$DIMLDRBLK
  1

  9
$DIMLUNIT
 70
     2
  9
$DIMLWD
 70
    -2
  9
$DIMLWE
 70
    -2
  9
$DIMTMOVE
 70
     0
  9
$LUNITS
 70
     2
  9
$LUPREC
 70
     4
  9
$SKETCHINC
 40
0.1
  9
$FILLETRAD
 40
0.5
  9
$AUNITS
 70
     0
  9
$AUPREC
 70
     0
  9
$MENU
  1
.
  9
$ELEVATION
 40
0.0
  9
$PELEVATION
 40
0.0
  9
$THICKNESS
 40
0.0
  9
$LIMCHECK
 70
     0
  9
$CHAMFERA
 40
0.5
  9
$CHAMFERB
 40
0.5
  9
$CHAMFERC
 40
1.0
  9
$CHAMFERD
 40
0.0
  9
$SKPOLY
 70
     0
  9
$TDCREATE
 40
2460559.681944444
  9
$TDUCREATE
 40
2460559.598611111
  9
$TDUPDATE
 40
2460559.681944456
  9
$TDUUPDATE
 40
2460559.598611122
  9
$TDINDWG
 40
0.0000000116
  9
$TDUSRTIMER
 40
0.0000000116
  9
$USRTIMER
 70
     1
  9
$ANGBASE
 50
0.0
  9
$ANGDIR
 70
     0
  9
$PDMODE
 70
     0
  9
$PDSIZE
 40
0.0
  9
$PLINEWID
 40
0.0
  9
$SPLFRAME
 70
     0
  9
$SPLINETYPE
 70
     6
  9
$SPLINESEGS
 70
     8
  9
$HANDSEED
  5
6F
  9
$SURFTAB1
 70
     6
  9
$SURFTAB2
 70
     6
  9
$SURFTYPE
 70
     6
  9
$SURFU
 70
     6
  9
$SURFV
 70
     6
  9
$UCSBASE
  2

  9
$UCSNAME
  2

  9
$UCSORG
 10
0.0
 20
0.0
 30
0.0
  9
$UCSXDIR
 10
1.0
 20
0.0
 30
0.0
  9
$UCSYDIR
 10
0.0
 20
1.0
 30
0.0
  9
$UCSORTHOREF
  2

  9
$UCSORTHOVIEW
 70
     0
  9
$UCSORGTOP
 10
0.0
 20
0.0
 30
0.0
  9
$UCSORGBOTTOM
 10
0.0
 20
0.0
 30
0.0
  9
$UCSORGLEFT
 10
0.0
 20
0.0
 30
0.0
  9
$UCSORGRIGHT
 10
0.0
 20
0.0
 30
0.0
  9
$UCSORGFRONT
 10
0.0
 20
0.0
 30
0.0
  9
$UCSORGBACK
 10
0.0
 20
0.0
 30
0.0
  9
$PUCSBASE
  2

  9
$PUCSNAME
  2

  9
$PUCSORG
 10
0.0
 20
0.0
 30
0.0
  9
$PUCSXDIR
 10
1.0
 20
0.0
 30
0.0
  9
$PUCSYDIR
 10
0.0
 20
1.0
 30
0.0
  9
$PUCSORTHOREF
  2

  9
$PUCSORTHOVIEW
 70
     0
  9
$PUCSORGTOP
 10
0.0
 20
0.0
 30
0.0
  9
$PUCSORGBOTTOM
 10
0.0
 20
0.0
 30
0.0
  9
$PUCSORGLEFT
 10
0.0
 20
0.0
 30
0.0
  9
$PUCSORGRIGHT
 10
0.0
 20
0.0
 30
0.0
  9
$PUCSORGFRONT
 10
0.0
 20
0.0
 30
0.0
  9
$PUCSORGBACK
 10
0.0
 20
0.0
 30
0.0
  9
$USERI1
 70
     0
  9
$USERI2
 70
     0
  9
$USERI3
 70
     0
  9
$USERI4
 70
     0
  9
$USERI5
 70
     0
  9
$USERR1
 40
0.0
  9
$USERR2
 40
0.0
  9
$USERR3
 40
0.0
  9
$USERR4
 40
0.0
  9
$USERR5
 40
0.0
  9
$WORLDVIEW
 70
     1
  9
$SHADEDGE
 70
     3
  9
$SHADEDIF
 70
    70
  9
$TILEMODE
 70
     1
  9
$MAXACTVP
 70
    64
  9
$PINSBASE
 10
0.0
 20
0.0
 30
0.0
  9
$PLIMCHECK
 70
     0
  9
$PEXTMIN
 10
1.000000000000000E+20
 20
1.000000000000000E+20
 30
1.000000000000000E+20
  9
$PEXTMAX
 10
-1.000000000000000E+20
 20
-1.000000000000000E+20
 30
-1.000000000000000E+20
  9
$PLIMMIN
 10
0.0
 20
0.0
  9
$PLIMMAX
 10
12.0
 20
9.0
  9
$UNITMODE
 70
     0
  9
$VISRETAIN
 70
     1
  9
$PLINEGEN
 70
     0
  9
$PSLTSCALE
 70
     1
  9
$TREEDEPTH
 70
  3020
  9
$CMLSTYLE
  2
Standard
  9
$CMLJUST
 70
     0
  9
$CMLSCALE
 40
1.0
  9
$PROXYGRAPHICS
 70
     1
  9
$MEASUREMENT
 70
     0
  9
$CELWEIGHT
370
    -1
  9
$ENDCAPS
280
     0
  9
$JOINSTYLE
280
     0
  9
$LWDISPLAY
290
     1
  9
$INSUNITS
 70
     1
  9
$HYPERLINKBASE
  1

  9
$STYLESHEET
  1

  9
$XEDIT
290
     1
  9
$CEPSNTYPE
380
     0
  9
$PSTYLEMODE
290
     1
  9
$FINGERPRINTGUID
  2
{94036F8C-6FE1-A5C1-BAEA-D9C2DA2C5D23}
  9
$VERSIONGUID
  2
{FAEB1C32-E019-11D5-929B-00C0DF256EC4}
  9
$EXTNAMES
290
     1
  9
$PSVPSCALE
 40
0.0
  9
$OLESTARTUP
290
     0
  9
$SORTENTS
280
   127
  9
$INDEXCTL
280
     0
  9
$HIDETEXT
280
     1
  9
$XCLIPFRAME
290
     0
  9
$HALOGAP
280
     0
  9
$OBSCOLOR
 70
   257
  9
$OBSLTYPE
280
     0
  9
$INTERSECTIONDISPLAY
280
     0
  9
$INTERSECTIONCOLOR
 70
   257
  9
$DIMASSOC
280
     2
  9
$PROJECTNAME
  1

  0
ENDSEC
  0
SECTION
  2
CLASSES
  0
CLASS
  1
ACDBDICTIONARYWDFLT
  2
AcDbDictionaryWithDefault
  3
ObjectDBX Classes
 90
        0
 91
        3
280
     0
281
     0
  0
CLASS
  1
VISUALSTYLE
  2
AcDbVisualStyle
  3
ObjectDBX Classes
 90
     4095
 91
        3
280
     0
281
     0
  0
ENDSEC
  0
SECTION
  2
TABLES
  0
TABLE
  2
VPORT
  5
8
330
0
100
AcDbSymbolTable
 70
     1
  0
VPORT
  5
29
330
8
100
AcDbSymbolTableRecord
100
AcDbViewportTableRecord
  2
*Active
 70
     0
 10
0.0
 20
0.0
 11
1.0
 21
1.0
 12
0.0
 22
0.0
 13
0.0
 23
0.0
 14
0.5
 24
0.5
 15
0.5
 25
0.5
 16
0.0
 26
0.0
 36
1.0
 17
4.133890787760416
 27
-5.846455891927083
 37
0.0
 40
11.69291178385417
 41
0.7070763662937378
 42
50.0
 43
0.0
 44
0.0
 50
0.0
 51
0.0
 71
     0
 72
   100
 73
     1
 74
     3
 75
     0
 76
     0
 77
     0
 78
     0
281
     0
 65
     1
110
0.0
120
0.0
130
0.0
111
1.0
121
0.0
131
0.0
112
0.0
122
1.0
132
0.0
 79
     0
146
0.0
  0
ENDTAB
  0
TABLE
  2
LTYPE
  5
5
330
0
100
AcDbSymbolTable
 70
     1
  0
LTYPE
  5
14
330
5
100
AcDbSymbolTableRecord
100
AcDbLinetypeTableRecord
  2
ByBlock
 70
     0
  3

 72
    65
 73
     0
 40
0.0
  0
LTYPE
  5
15
330
5
100
AcDbSymbolTableRecord
100
AcDbLinetypeTableRecord
  2
ByLayer
 70
     0
  3

 72
    65
 73
     0
 40
0.0
  0
LTYPE
  5
16
330
5
100
AcDbSymbolTableRecord
100
AcDbLinetypeTableRecord
  2
Continuous
 70
     0
  3
Solid line
 72
    65
 73
     0
 40
0.0
  0
ENDTAB
  0
TABLE
  2
LAYER
  5
2
330
0
100
AcDbSymbolTable
 70
     2
  0
LAYER
  5
10
330
2
100
AcDbSymbolTableRecord
100
AcDbLayerTableRecord
  2
0
 70
     0
 62
     7
  6
Continuous
370
    -3
390
F
  0
LAYER
  5
3B
330
2
100
AcDbSymbolTableRecord
100
AcDbLayerTableRecord
  2
Layer 1
 70
     0
 62
     7
  6
Continuous
370
    -3
390
F
  0
ENDTAB
  0
TABLE
  2
STYLE
  5
3
330
0
100
AcDbSymbolTable
 70
     1
  0
STYLE
  5
11
330
3
100
AcDbSymbolTableRecord
100
AcDbTextStyleTableRecord
  2
Standard
 70
     0
 40
0.0
 41
1.0
 50
0.0
 71
     0
 42
0.2
  3
txt
  4

  0
ENDTAB
  0
TABLE
  2
VIEW
  5
6
330
0
100
AcDbSymbolTable
 70
     0
  0
ENDTAB
  0
TABLE
  2
UCS
  5
7
330
0
100
AcDbSymbolTable
 70
     0
  0
ENDTAB
  0
TABLE
  2
APPID
  5
9
330
0
100
AcDbSymbolTable
 70
     1
  0
APPID
  5
12
330
9
100
AcDbSymbolTableRecord
100
AcDbRegAppTableRecord
  2
ACAD
 70
     0
  0
ENDTAB
  0
TABLE
  2
DIMSTYLE
  5
A
330
0
100
AcDbSymbolTable
 70
     1
100
AcDbDimStyleTable
  0
DIMSTYLE
105
27
330
A
100
AcDbSymbolTableRecord
100
AcDbDimStyleTableRecord
  2
Standard
 70
     0
340
11
  0
ENDTAB
  0
TABLE
  2
BLOCK_RECORD
  5
1
330
0
100
AcDbSymbolTable
 70
     1
  0
BLOCK_RECORD
  5
1F
330
1
100
AcDbSymbolTableRecord
100
AcDbBlockTableRecord
  2
*Model_Space
340
22
  0
BLOCK_RECORD
  5
1B
330
1
100
AcDbSymbolTableRecord
100
AcDbBlockTableRecord
  2
*Paper_Space
340
1E
  0
BLOCK_RECORD
  5
23
330
1
100
AcDbSymbolTableRecord
100
AcDbBlockTableRecord
  2
*Paper_Space0
340
26
  0
ENDTAB
  0
ENDSEC
  0
SECTION
  2
BLOCKS
  0
BLOCK
  5
20
330
1F
100
AcDbEntity
  8
0
100
AcDbBlockBegin
  2
*Model_Space
 70
     0
 71
     0
 10
0.0
 20
0.0
 30
0.0
  3
*Model_Space
  1

  0
ENDBLK
  5
21
330
1F
100
AcDbEntity
  8
0
100
AcDbBlockEnd
  0
BLOCK
  5
1C
330
1B
100
AcDbEntity
 67
     1
  8
0
100
AcDbBlockBegin
  2
*Paper_Space
 70
     0
 71
     0
 10
0.0
 20
0.0
 30
0.0
  3
*Paper_Space
  1

  0
ENDBLK
  5
1D
330
1B
100
AcDbEntity
 67
     1
  8
0
100
AcDbBlockEnd
  0
BLOCK
  5
24
330
23
100
AcDbEntity
  8
0
100
AcDbBlockBegin
  2
*Paper_Space0
 70
     0
 71
     0
 10
0.0
 20
0.0
 30
0.0
  3
*Paper_Space0
  1

  0
ENDBLK
  5
25
330
23
100
AcDbEntity
  8
0
100
AcDbBlockEnd
  0
ENDSEC
  0
SECTION
  2
ENTITIES
  0
SPLINE
  5
3C
330
1F
100
AcDbEntity
  8
Layer 1
370
     0
100
AcDbSpline
210
0.0
220
0.0
230
1.0
 70
    11
 71
     3
 72
   317
 73
   313
 74
     0
 42
0.0000000001
 43
0.0000000001
 40
0.0
 40
0.0
 40
0.0
 40
0.0
 40
1.0
 40
1.0
 40
1.0
 40
2.0
 40
2.0
 40
2.0
 40
3.0
 40
3.0
 40
3.0
 40
4.0
 40
4.0
 40
4.0
 40
5.0
 40
5.0
 40
5.0
 40
6.0
 40
6.0
 40
6.0
 40
7.0
 40
7.0
 40
7.0
 40
8.0
 40
8.0
 40
8.0
 40
9.0
 40
9.0
 40
9.0
 40
10.0
 40
10.0
 40
10.0
 40
11.0
 40
11.0
 40
11.0
 40
12.0
 40
12.0
 40
12.0
 40
13.0
 40
13.0
 40
13.0
 40
14.0
 40
14.0
 40
14.0
 40
15.0
 40
15.0
 40
15.0
 40
16.0
 40
16.0
 40
16.0
 40
17.0
 40
17.0
 40
17.0
 40
18.0
 40
18.0
 40
18.0
 40
19.0
 40
19.0
 40
19.0
 40
20.0
 40
20.0
 40
20.0
 40
21.0
 40
21.0
 40
21.0
 40
22.0
 40
22.0
 40
22.0
 40
23.0
 40
23.0
 40
23.0
 40
24.0
 40
24.0
 40
24.0
 40
25.0
 40
25.0
 40
25.0
 40
26.0
 40
26.0
 40
26.0
 40
27.0
 40
27.0
 40
27.0
 40
28.0
 40
28.0
 40
28.0
 40
29.0
 40
29.0
 40
29.0
 40
30.0
 40
30.0
 40
30.0
 40
31.0
 40
31.0
 40
31.0
 40
32.0
 40
32.0
 40
32.0
 40
33.0
 40
33.0
 40
33.0
 40
34.0
 40
34.0
 40
34.0
 40
35.0
 40
35.0
 40
35.0
 40
36.0
 40
36.0
 40
36.0
 40
37.0
 40
37.0
 40
37.0
 40
38.0
 40
38.0
 40
38.0
 40
39.0
 40
39.0
 40
39.0
 40
40.0
 40
40.0
 40
40.0
 40
41.0
 40
41.0
 40
41.0
 40
42.0
 40
42.0
 40
42.0
 40
43.0
 40
43.0
 40
43.0
 40
44.0
 40
44.0
 40
44.0
 40
45.0
 40
45.0
 40
45.0
 40
46.0
 40
46.0
 40
46.0
 40
47.0
 40
47.0
 40
47.0
 40
48.0
 40
48.0
 40
48.0
 40
49.0
 40
49.0
 40
49.0
 40
50.0
 40
50.0
 40
50.0
 40
51.0
 40
51.0
 40
51.0
 40
52.0
 40
52.0
 40
52.0
 40
53.0
 40
53.0
 40
53.0
 40
54.0
 40
54.0
 40
54.0
 40
55.0
 40
55.0
 40
55.0
 40
56.0
 40
56.0
 40
56.0
 40
57.0
 40
57.0
 40
57.0
 40
58.0
 40
58.0
 40
58.0
 40
59.0
 40
59.0
 40
59.0
 40
60.0
 40
60.0
 40
60.0
 40
61.0
 40
61.0
 40
61.0
 40
62.0
 40
62.0
 40
62.0
 40
63.0
 40
63.0
 40
63.0
 40
64.0
 40
64.0
 40
64.0
 40
65.0
 40
65.0
 40
65.0
 40
66.0
 40
66.0
 40
66.0
 40
67.0
 40
67.0
 40
67.0
 40
68.0
 40
68.0
 40
68.0
 40
69.0
 40
69.0
 40
69.0
 40
70.0
 40
70.0
 40
70.0
 40
71.0
 40
71.0
 40
71.0
 40
72.0
 40
72.0
 40
72.0
 40
73.0
 40
73.0
 40
73.0
 40
74.0
 40
74.0
 40
74.0
 40
75.0
 40
75.0
 40
75.0
 40
76.0
 40
76.0
 40
76.0
 40
77.0
 40
77.0
 40
77.0
 40
78.0
 40
78.0
 40
78.0
 40
79.0
 40
79.0
 40
79.0
 40
80.0
 40
80.0
 40
80.0
 40
81.0
 40
81.0
 40
81.0
 40
82.0
 40
82.0
 40
82.0
 40
83.0
 40
83.0
 40
83.0
 40
84.0
 40
84.0
 40
84.0
 40
85.0
 40
85.0
 40
85.0
 40
86.0
 40
86.0
 40
86.0
 40
87.0
 40
87.0
 40
87.0
 40
88.0
 40
88.0
 40
88.0
 40
89.0
 40
89.0
 40
89.0
 40
90.0
 40
90.0
 40
90.0
 40
91.0
 40
91.0
 40
91.0
 40
92.0
 40
92.0
 40
92.0
 40
93.0
 40
93.0
 40
93.0
 40
94.0
 40
94.0
 40
94.0
 40
95.0
 40
95.0
 40
95.0
 40
96.0
 40
96.0
 40
96.0
 40
97.0
 40
97.0
 40
97.0
 40
98.0
 40
98.0
 40
98.0
 40
99.0
 40
99.0
 40
99.0
 40
100.0
 40
100.0
 40
100.0
 40
101.0
 40
101.0
 40
101.0
 40
102.0
 40
102.0
 40
102.0
 40
103.0
 40
103.0
 40
103.0
 40
104.0
 40
104.0
 40
104.0
 40
104.0
 10
8.226521809895832
 20
-5.987345377604166
 30
0.0
 10
8.226521809895832
 20
-5.987345377604166
 30
0.0
 10
8.163194444444445
 20
-6.011176215277778
 30
0.0
 10
8.163194444444445
 20
-6.011176215277778
 30
0.0
 10
8.158759223090277
 20
-6.012790256076388
 30
0.0
 10
7.744873046875
 20
-6.162692599826388
 30
0.0
 10
7.338663736979166
 20
-5.936238606770833
 30
0.0
 10
7.745008680555555
 20
-5.709791395399305
 30
0.0
 10
8.158759223090277
 20
-5.859768337673611
 30
0.0
 10
8.163194444444445
 20
-5.861423068576388
 30
0.0
 10
8.163194444444445
 20
-5.861423068576388
 30
0.0
 10
8.226521809895832
 20
-5.885362413194444
 30
0.0
 10
8.226521809895832
 20
-5.885362413194444
 30
0.0
 10
8.226521809895832
 20
-5.885362413194444
 30
0.0
 10
8.247355143229166
 20
-5.820963541666666
 30
0.0
 10
8.247355143229166
 20
-5.820963541666666
 30
0.0
 10
8.249945746527777
 20
-5.812615288628472
 30
0.0
 10
8.313313802083332
 20
-5.608567979600694
 30
0.0
 10
8.164360894097221
 20
-5.320576985677083
 30
0.0
 10
8.072062174479166
 20
-5.14276123046875
 30
0.0
 10
7.885715060763888
 20
-4.919338650173611
 30
0.0
 10
7.825222439236111
 20
-4.84930419921875
 30
0.0
 10
7.833726671006944
 20
-4.768758138020833
 30
0.0
 10
7.900526258680555
 20
-4.493428548177083
 30
0.0
 10
7.893744574652778
 20
-4.301344129774305
 30
0.0
 10
7.887451171875
 20
-4.115973578559028
 30
0.0
 10
7.881429036458333
 20
-3.881157769097222
 30
0.0
 10
7.830268012152778
 20
-3.792928059895833
 30
0.0
 10
7.830268012152778
 20
-3.792928059895833
 30
0.0
 10
7.830268012152778
 20
-3.792928059895833
 30
0.0
 10
7.830268012152778
 20
-3.792928059895833
 30
0.0
 10
7.829983181423611
 20
-3.792650010850694
 30
0.0
 10
7.8297119140625
 20
-3.792236328125
 30
0.0
 10
7.82958984375
 20
-3.791829427083333
 30
0.0
 10
7.829440646701388
 20
-3.791476779513889
 30
0.0
 10
7.829020182291666
 20
-3.791130913628472
 30
0.0
 10
7.828816731770833
 20
-3.790724012586805
 30
0.0
 10
7.828816731770833
 20
-3.790724012586805
 30
0.0
 10
7.828816731770833
 20
-3.790724012586805
 30
0.0
 10
7.828816731770833
 20
-3.790724012586805
 30
0.0
 10
7.777723524305555
 20
-3.702290852864583
 30
0.0
 10
7.546142578125
 20
-3.58148193359375
 30
0.0
 10
7.400811089409721
 20
-3.493679470486111
 30
0.0
 10
7.220228407118055
 20
-3.384440104166667
 30
0.0
 10
6.966444227430555
 20
-3.295098198784722
 30
0.0
 10
6.910047743055555
 20
-3.270209418402778
 30
0.0
 10
6.879055447048611
 20
-3.182942708333333
 30
0.0
 10
6.777696397569444
 20
-2.910319010416667
 30
0.0
 10
6.669162326388888
 20
-2.74188232421875
 30
0.0
 10
6.493448893229166
 20
-2.469516330295139
 30
0.0
 10
6.285196940104166
 20
-2.423129611545139
 30
0.0
 10
6.276407877604166
 20
-2.421196831597222
 30
0.0
 10
6.276407877604166
 20
-2.421196831597222
 30
0.0
 10
6.210028754340278
 20
-2.407362196180555
 30
0.0
 10
6.210028754340278
 20
-2.407362196180555
 30
0.0
 10
6.210028754340278
 20
-2.407362196180555
 30
0.0
 10
6.199313693576388
 20
-2.474148220486111
 30
0.0
 10
6.199313693576388
 20
-2.474148220486111
 30
0.0
 10
6.198594835069444
 20
-2.478515625
 30
0.0
 10
6.122694227430555
 20
-2.912943522135417
 30
0.0
 10
5.724026150173611
 20
-3.152940538194444
 30
0.0
 10
5.741360134548611
 20
-2.699849446614583
 30
0.0
 10
6.069118923611111
 20
-2.425272623697917
 30
0.0
 10
6.072306315104166
 20
-2.422505696614583
 30
0.0
 10
6.072306315104166
 20
-2.422505696614583
 30
0.0
 10
6.124837239583333
 20
-2.379706488715278
 30
0.0
 10
6.124837239583333
 20
-2.379706488715278
 30
0.0
 10
6.124837239583333
 20
-2.379706488715278
 30
0.0
 10
6.079630533854166
 20
-2.329155815972222
 30
0.0
 10
6.079630533854166
 20
-2.329155815972222
 30
0.0
 10
6.073527018229166
 20
-2.3223876953125
 30
0.0
 10
5.929239908854166
 20
-2.165568033854167
 30
0.0
 10
5.605292426215278
 20
-2.150078667534722
 30
0.0
 10
5.404988606770833
 20
-2.140333387586805
 30
0.0
 10
5.118394639756944
 20
-2.189432779947917
 30
0.0
 10
5.027262369791666
 20
-2.206224229600694
 30
0.0
 10
4.961981879340278
 20
-2.158664279513889
 30
0.0
 10
4.7734375
 20
-1.935811360677083
 30
0.0
 10
4.587917751736111
 20
-1.829250759548611
 30
0.0
 10
4.441202799479166
 20
-1.744696723090278
 30
0.0
 10
4.218410915798611
 20
-1.628811306423611
 30
0.0
 10
4.116427951388888
 20
-1.628811306423611
 30
0.0
 10
4.116427951388888
 20
-1.628811306423611
 30
0.0
 10
4.116427951388888
 20
-1.628811306423611
 30
0.0
 10
4.116427951388888
 20
-1.628811306423611
 30
0.0
 10
4.115885416666666
 20
-1.628811306423611
 30
0.0
 10
4.115329318576388
 20
-1.628811306423611
 30
0.0
 10
4.114915635850695
 20
-1.628811306423611
 30
0.0
 10
4.114501953125
 20
-1.628811306423611
 30
0.0
 10
4.114081488715278
 20
-1.628811306423611
 30
0.0
 10
4.113599989149305
 20
-1.628811306423611
 30
0.0
 10
4.011617024739583
 20
-1.628811306423611
 30
0.0
 10
3.79595947265625
 20
-1.7264404296875
 30
0.0
 10
3.6419677734375
 20
-1.828633626302083
 30
0.0
 10
3.481831868489583
 20
-1.935051812065972
 30
0.0
 10
3.267768012152778
 20
-2.157619900173611
 30
0.0
 10
3.202426486545139
 20
-2.205539279513889
 30
0.0
 10
3.111362033420139
 20
-2.188462999131944
 30
0.0
 10
2.824551052517361
 20
-2.139010959201389
 30
0.0
 10
2.624179416232639
 20
-2.148491753472222
 30
0.0
 10
2.300584581163194
 20
-2.163560655381944
 30
0.0
 10
2.156080457899305
 20
-2.320665147569444
 30
0.0
 10
2.149990505642361
 20
-2.327229817708333
 30
0.0
 10
2.149990505642361
 20
-2.327229817708333
 30
0.0
 10
2.104627821180555
 20
-2.377570258246528
 30
0.0
 10
2.104627821180555
 20
-2.377570258246528
 30
0.0
 10
2.104627821180555
 20
-2.377570258246528
 30
0.0
 10
2.157050238715278
 20
-2.420572916666667
 30
0.0
 10
2.157050238715278
 20
-2.420572916666667
 30
0.0
 10
2.160427517361111
 20
-2.423129611545139
 30
0.0
 10
2.47760009765625
 20
-2.689676920572917
 30
0.0
 10
2.503933376736111
 20
-3.129638671875
 30
0.0
 10
2.136298285590278
 20
-2.886040581597222
 30
0.0
 10
2.065083821614583
 20
-2.477884928385417
 30
0.0
 10
2.0643310546875
 20
-2.473673502604167
 30
0.0
 10
2.0643310546875
 20
-2.473673502604167
 30
0.0
 10
2.053677029079861
 20
-2.406873914930555
 30
0.0
 10
2.053677029079861
 20
-2.406873914930555
 30
0.0
 10
2.053677029079861
 20
-2.406873914930555
 30
0.0
 10
1.987372504340278
 20
-2.4207763671875
 30
0.0
 10
1.987372504340278
 20
-2.4207763671875
 30
0.0
 10
1.978725857204861
 20
-2.422505696614583
 30
0.0
 10
1.770473904079861
 20
-2.468899197048611
 30
0.0
 10
1.594489203559028
 20
-2.741190592447917
 30
0.0
 10
1.485731336805556
 20
-2.909762912326389
 30
0.0
 10
1.384711371527778
 20
-3.182332356770833
 30
0.0
 10
1.353535970052083
 20
-3.269721137152778
 30
0.0
 10
1.279412163628472
 20
-3.302218967013889
 30
0.0
 10
0.9923841688368055
 20
-3.353800455729167
 30
0.0
 10
0.806884765625
 20
-3.46063232421875
 30
0.0
 10
0.6603732638888888
 20
-3.545328776041667
 30
0.0
 10
0.4483642578125
 20
-3.680230034722222
 30
0.0
 10
0.3973456488715277
 20
-3.768452962239583
 30
0.0
 10
0.3970743815104166
 20
-3.768595377604167
 30
0.0
 10
0.3968641493055555
 20
-3.769219292534722
 30
0.0
 10
0.3964436848958333
 20
-3.769700792100694
 30
0.0
 10
0.3963758680555555
 20
-3.769904242621528
 30
0.0
 10
0.396240234375
 20
-3.770392523871528
 30
0.0
 10
0.3958875868055555
 20
-3.7708740234375
 30
0.0
 10
0.3958875868055555
 20
-3.7708740234375
 30
0.0
 10
0.3960367838541666
 20
-3.770595974392361
 30
0.0
 10
0.3960367838541666
 20
-3.770595974392361
 30
0.0
 10
0.3446587456597222
 20
-3.858900282118055
 30
0.0
 10
0.3211466471354166
 20
-4.094333224826388
 30
0.0
 10
0.3323567708333333
 20
-4.27880859375
 30
0.0
 10
0.34423828125
 20
-4.47088623046875
 30
0.0
 10
0.4294297960069444
 20
-4.767713758680555
 30
0.0
 10
0.43792724609375
 20
-4.848198784722222
 30
0.0
 10
0.3774346245659722
 20
-4.9185791015625
 30
0.0
 10
0.1910942925347222
 20
-5.141649034288194
 30
0.0
 10
0.0988498263888889
 20
-5.319688585069444
 30
0.0
 10
-0.0501573350694444
 20
-5.607598198784722
 30
0.0
 10
0.0129733615451389
 20
-5.811225043402778
 30
0.0
 10
0.0156724717881944
 20
-5.819878472222222
 30
0.0
 10
0.0156724717881944
 20
-5.819878472222222
 30
0.0
 10
0.0365532769097222
 20
-5.884304470486111
 30
0.0
 10
0.0365532769097222
 20
-5.884304470486111
 30
0.0
 10
0.0365532769097222
 20
-5.884304470486111
 30
0.0
 10
0.0999552408854167
 20
-5.860602484809028
 30
0.0
 10
0.0999552408854167
 20
-5.860602484809028
 30
0.0
 10
0.1041124131944444
 20
-5.858805338541666
 30
0.0
 10
0.5179307725694444
 20
-5.709025065104166
 30
0.0
 10
0.9243638780381944
 20
-5.935411241319444
 30
0.0
 10
0.5179307725694444
 20
-6.161634657118055
 30
0.0
 10
0.1041124131944444
 20
-6.011813693576388
 30
0.0
 10
0.0997450086805556
 20
-6.010091145833333
 30
0.0
 10
0.0997450086805556
 20
-6.010091145833333
 30
0.0
 10
0.0364854600694444
 20
-5.986585828993055
 30
0.0
 10
0.0364854600694444
 20
-5.986585828993055
 30
0.0
 10
0.0364854600694444
 20
-5.986585828993055
 30
0.0
 10
0.0156724717881944
 20
-6.050604926215278
 30
0.0
 10
0.0156724717881944
 20
-6.050604926215278
 30
0.0
 10
0.0129055447048611
 20
-6.059299045138888
 30
0.0
 10
-0.0503607855902778
 20
-6.263020833333333
 30
0.0
 10
0.0987820095486111
 20
-6.550916883680555
 30
0.0
 10
0.1908772786458333
 20
-6.729044596354166
 30
0.0
 10
0.3772922092013889
 20
-6.952229817708333
 30
0.0
 10
0.4375135633680555
 20
-7.022488064236111
 30
0.0
 10
0.4291517469618055
 20
-7.103095160590278
 30
0.0
 10
0.3311021592881944
 20
-7.378038194444444
 30
0.0
 10
0.3318752712673611
 20
-7.591878255208333
 30
0.0
 10
0.3326958550347222
 20
-7.761149088541666
 30
0.0
 10
0.3443806966145833
 20
-8.01205783420139
 30
0.0
 10
0.3954060872395833
 20
-8.1002197265625
 30
0.0
 10
0.395751953125
 20
-8.100626627604166
 30
0.0
 10
0.3960367838541666
 20
-8.101182725694445
 30
0.0
 10
0.396240234375
 20
-8.101331922743055
 30
0.0
 10
0.3963758680555555
 20
-8.101942274305555
 30
0.0
 10
0.3965861002604166
 20
-8.102362738715277
 30
0.0
 10
0.3968641493055555
 20
-8.102701822916666
 30
0.0
 10
0.3968641493055555
 20
-8.102701822916666
 30
0.0
 10
0.3968641493055555
 20
-8.10251193576389
 30
0.0
 10
0.3968641493055555
 20
-8.10251193576389
 30
0.0
 10
0.4480997721354166
 20
-8.1907958984375
 30
0.0
 10
0.6405232747395833
 20
-8.328328450520832
 30
0.0
 10
0.8064643012152777
 20
-8.41025119357639
 30
0.0
 10
0.9788343641493055
 20
-8.495442708333332
 30
0.0
 10
1.278856065538194
 20
-8.56882052951389
 30
0.0
 10
1.352837456597222
 20
-8.6015625
 30
0.0
 10
1.383951822916667
 20
-8.688707139756945
 30
0.0
 10
1.485039605034722
 20
-8.961629231770832
 30
0.0
 10
1.593736436631944
 20
-9.129828559027777
 30
0.0
 10
1.769626193576389
 20
-9.402194552951388
 30
0.0
 10
1.977681477864583
 20
-9.448594835069445
 30
0.0
 10
1.986538357204861
 20
-9.450249565972221
 30
0.0
 10
1.986538357204861
 20
-9.450249565972221
 30
0.0
 10
2.052842881944444
 20
-9.464409722222221
 30
0.0
 10
2.052842881944444
 20
-9.464409722222221
 30
0.0
 10
2.052842881944444
 20
-9.464409722222221
 30
0.0
 10
2.063483344184028
 20
-9.397501627604166
 30
0.0
 10
2.063483344184028
 20
-9.397501627604166
 30
0.0
 10
2.064046223958333
 20
-9.393202039930555
 30
0.0
 10
2.135267469618055
 20
-8.986029730902777
 30
0.0
 10
2.501932779947917
 20
-8.742296006944445
 30
0.0
 10
2.483412000868055
 20
-9.194132486979166
 30
0.0
 10
2.156975640190972
 20
-9.468085394965277
 30
0.0
 10
2.153449164496528
 20
-9.470703125
 30
0.0
 10
2.153449164496528
 20
-9.470703125
 30
0.0
 10
2.100972493489583
 20
-9.513590494791666
 30
0.0
 10
2.100972493489583
 20
-9.513590494791666
 30
0.0
 10
2.100972493489583
 20
-9.513590494791666
 30
0.0
 10
2.146328396267361
 20
-9.5638427734375
 30
0.0
 10
2.146328396267361
 20
-9.5638427734375
 30
0.0
 10
2.152140299479167
 20
-9.570556640625
 30
0.0
 10
2.296786838107639
 20
-9.7276611328125
 30
0.0
 10
2.620591905381944
 20
-9.743204752604166
 30
0.0
 10
2.820760091145833
 20
-9.752888997395832
 30
0.0
 10
3.107421875
 20
-9.703653971354166
 30
0.0
 10
3.198554144965278
 20
-9.686781141493055
 30
0.0
 10
3.263821072048611
 20
-9.734429253472221
 30
0.0
 10
3.468424479166667
 20
-9.93044704861111
 30
0.0
 10
3.637885199652778
 20
-10.02088758680556
 30
0.0
 10
3.801411946614583
 20
-10.10857476128472
 30
0.0
 10
4.007527669270833
 20
-10.22119140625
 30
0.0
 10
4.109388563368055
 20
-10.22119140625
 30
0.0
 10
4.109388563368055
 20
-10.22119140625
 30
0.0
 10
4.109388563368055
 20
-10.22119140625
 30
0.0
 10
4.109388563368055
 20
-10.22119140625
 30
0.0
 10
4.110066731770833
 20
-10.22119140625
 30
0.0
 10
4.110480414496528
 20
-10.22119140625
 30
0.0
 10
4.110968695746528
 20
-10.22119140625
 30
0.0
 10
4.111111111111111
 20
-10.22119140625
 30
0.0
 10
4.111802842881945
 20
-10.22119140625
 30
0.0
 10
4.112155490451388
 20
-10.22119140625
 30
0.0
 10
4.214192708333333
 20
-10.22119140625
 30
0.0
 10
4.435112847222222
 20
-10.08158365885417
 30
0.0
 10
4.583930121527778
 20
-9.999945746527777
 30
0.0
 10
4.768744574652778
 20
-9.898518880208332
 30
0.0
 10
4.973605685763888
 20
-9.724066840277777
 30
0.0
 10
5.023518880208333
 20
-9.687906901041666
 30
0.0
 10
5.114515516493055
 20
-9.704562717013888
 30
0.0
 10
5.401055230034722
 20
-9.754123263888888
 30
0.0
 10
5.601209852430555
 20
-9.744737413194445
 30
0.0
 10
5.925225151909722
 20
-9.729315863715277
 30
0.0
 10
6.069810655381944
 20
-9.5726318359375
 30
0.0
 10
6.075819227430555
 20
-9.565999348958332
 30
0.0
 10
6.075819227430555
 20
-9.565999348958332
 30
0.0
 10
6.121256510416666
 20
-9.515516493055555
 30
0.0
 10
6.121256510416666
 20
-9.515516493055555
 30
0.0
 10
6.121256510416666
 20
-9.515516493055555
 30
0.0
 10
6.06884765625
 20
-9.472859700520832
 30
0.0
 10
6.06884765625
 20
-9.472859700520832
 30
0.0
 10
6.065239800347222
 20
-9.469957139756945
 30
0.0
 10
5.726155598958333
 20
-9.184950086805555
 30
0.0
 10
5.720418294270833
 20
-8.717461480034721
 30
0.0
 10
6.121717664930555
 20
-8.95718044704861
 30
0.0
 10
6.197794596354166
 20
-9.3936767578125
 30
0.0
 10
6.198269314236111
 20
-9.397922092013888
 30
0.0
 10
6.198269314236111
 20
-9.397922092013888
 30
0.0
 10
6.209214952256944
 20
-9.465060763888888
 30
0.0
 10
6.209214952256944
 20
-9.465060763888888
 30
0.0
 10
6.209214952256944
 20
-9.465060763888888
 30
0.0
 10
6.275431315104166
 20
-9.451144748263888
 30
0.0
 10
6.275431315104166
 20
-9.451144748263888
 30
0.0
 10
6.284166124131944
 20
-9.449286566840277
 30
0.0
 10
6.4925537109375
 20
-9.402818467881945
 30
0.0
 10
6.6685791015625
 20
-9.130533854166666
 30
0.0
 10
6.777140299479166
 20
-8.962103949652777
 30
0.0
 10
6.878309461805555
 20
-8.689453125
 30
0.0
 10
6.909342447916666
 20
-8.60214572482639
 30
0.0
 10
6.983466254340278
 20
-8.569498697916666
 30
0.0
 10
7.255343967013888
 20
-8.490614149305555
 30
0.0
 10
7.418863932291666
 20
-8.389458550347221
 30
0.0
 10
7.576388888888888
 20
-8.291761610243055
 30
0.0
 10
7.777235243055555
 20
-8.170057508680555
 30
0.0
 10
7.828396267361111
 20
-8.081773546006945
 30
0.0
 10
7.828396267361111
 20
-8.081773546006945
 30
0.0
 10
7.828545464409721
 20
-8.081773546006945
 30
0.0
 10
7.828545464409721
 20
-8.081773546006945
 30
0.0
 10
7.828681098090278
 20
-8.0814208984375
 30
0.0
 10
7.828816731770833
 20
-8.081068250868055
 30
0.0
 10
7.829305013020833
 20
-8.080579969618055
 30
0.0
 10
7.829440646701388
 20
-8.08017306857639
 30
0.0
 10
7.829644097222221
 20
-8.079779730902777
 30
0.0
 10
7.829779730902778
 20
-8.079413519965277
 30
0.0
 10
7.829779730902778
 20
-8.079413519965277
 30
0.0
 10
7.829779730902778
 20
-8.079413519965277
 30
0.0
 10
7.829779730902778
 20
-8.079413519965277
 30
0.0
 10
7.881144205729166
 20
-7.991183810763888
 30
0.0
 10
7.870849609375
 20
-7.730034722222221
 30
0.0
 10
7.874932183159721
 20
-7.560411241319444
 30
0.0
 10
7.880045572916666
 20
-7.349446614583333
 30
0.0
 10
7.831583658854166
 20
-7.084784613715278
 30
0.0
 10
7.824951171875
 20
-7.023518880208333
 30
0.0
 10
7.885443793402778
 20
-6.953342013888888
 30
0.0
 10
8.07177734375
 20
-6.729994032118055
 30
0.0
 10
8.16415744357639
 20
-6.551947699652778
 30
0.0
 10
8.313232421875
 20
-6.264051649305555
 30
0.0
 10
8.249945746527777
 20
-6.060275607638888
 30
0.0
 10
8.247355143229166
 20
-6.051852756076388
 30
0.0
 10
8.247355143229166
 20
-6.051852756076388
 30
0.0
 10
8.226521809895832
 20
-5.987345377604166
 30
0.0
 10
8.226521809895832
 20
-5.987345377604166
 30
0.0
  0
SPLINE
  5
3D
330
1F
100
AcDbEntity
  8
Layer 1
370
     0
100
AcDbSpline
210
0.0
220
0.0
230
1.0
 70
    11
 71
     3
 72
   119
 73
   115
 74
     0
 42
0.0000000001
 43
0.0000000001
 40
0.0
 40
0.0
 40
0.0
 40
0.0
 40
1.0
 40
1.0
 40
1.0
 40
2.0
 40
2.0
 40
2.0
 40
3.0
 40
3.0
 40
3.0
 40
4.0
 40
4.0
 40
4.0
 40
5.0
 40
5.0
 40
5.0
 40
6.0
 40
6.0
 40
6.0
 40
7.0
 40
7.0
 40
7.0
 40
8.0
 40
8.0
 40
8.0
 40
9.0
 40
9.0
 40
9.0
 40
10.0
 40
10.0
 40
10.0
 40
11.0
 40
11.0
 40
11.0
 40
12.0
 40
12.0
 40
12.0
 40
13.0
 40
13.0
 40
13.0
 40
14.0
 40
14.0
 40
14.0
 40
15.0
 40
15.0
 40
15.0
 40
16.0
 40
16.0
 40
16.0
 40
17.0
 40
17.0
 40
17.0
 40
18.0
 40
18.0
 40
18.0
 40
19.0
 40
19.0
 40
19.0
 40
20.0
 40
20.0
 40
20.0
 40
21.0
 40
21.0
 40
21.0
 40
22.0
 40
22.0
 40
22.0
 40
23.0
 40
23.0
 40
23.0
 40
24.0
 40
24.0
 40
24.0
 40
25.0
 40
25.0
 40
25.0
 40
26.0
 40
26.0
 40
26.0
 40
27.0
 40
27.0
 40
27.0
 40
28.0
 40
28.0
 40
28.0
 40
29.0
 40
29.0
 40
29.0
 40
30.0
 40
30.0
 40
30.0
 40
31.0
 40
31.0
 40
31.0
 40
32.0
 40
32.0
 40
32.0
 40
33.0
 40
33.0
 40
33.0
 40
34.0
 40
34.0
 40
34.0
 40
35.0
 40
35.0
 40
35.0
 40
36.0
 40
36.0
 40
36.0
 40
37.0
 40
37.0
 40
37.0
 40
38.0
 40
38.0
 40
38.0
 40
38.0
 10
6.309244791666666
 20
-2.5706787109375
 30
0.0
 10
6.370252821180555
 20
-2.601386176215278
 30
0.0
 10
6.468695746527778
 20
-2.669074164496528
 30
0.0
 10
6.560845269097221
 20
-2.811848958333333
 30
0.0
 10
6.680474175347221
 20
-2.997029622395833
 30
0.0
 10
6.796291775173611
 20
-3.335896809895833
 30
0.0
 10
6.797336154513888
 20
-3.339341905381944
 30
0.0
 10
6.797336154513888
 20
-3.339341905381944
 30
0.0
 10
6.806803385416666
 20
-3.367146809895833
 30
0.0
 10
6.806803385416666
 20
-3.367146809895833
 30
0.0
 10
6.806803385416666
 20
-3.367146809895833
 30
0.0
 10
6.8341064453125
 20
-3.378072102864583
 30
0.0
 10
6.8341064453125
 20
-3.378072102864583
 30
0.0
 10
6.836737738715278
 20
-3.379116482204861
 30
0.0
 10
7.136908637152778
 20
-3.465128580729167
 30
0.0
 10
7.328219943576388
 20
-3.574232313368055
 30
0.0
 10
7.481363932291666
 20
-3.661566840277778
 30
0.0
 10
7.670057508680555
 20
-3.774325900607639
 30
0.0
 10
7.717827690972221
 20
-3.856472439236111
 30
0.0
 10
7.765475802951388
 20
-3.938958062065972
 30
0.0
 10
7.764987521701388
 20
-4.1622314453125
 30
0.0
 10
7.769259982638888
 20
-4.335300021701388
 30
0.0
 10
7.7744140625
 20
-4.541347927517361
 30
0.0
 10
7.694254557291666
 20
-4.858574761284722
 30
0.0
 10
7.693929036458333
 20
-4.861328125
 30
0.0
 10
7.693929036458333
 20
-4.861328125
 30
0.0
 10
7.690253363715278
 20
-4.890577528211805
 30
0.0
 10
7.690253363715278
 20
-4.890577528211805
 30
0.0
 10
7.690253363715278
 20
-4.890577528211805
 30
0.0
 10
7.709404839409721
 20
-4.9127197265625
 30
0.0
 10
7.709404839409721
 20
-4.9127197265625
 30
0.0
 10
7.711968315972221
 20
-4.915337456597222
 30
0.0
 10
7.948092990451388
 20
-5.184095594618055
 30
0.0
 10
8.049736870659721
 20
-5.379991319444444
 30
0.0
 10
8.12765842013889
 20
-5.530992296006944
 30
0.0
 10
8.137627495659721
 20
-5.649997287326388
 30
0.0
 10
8.1336669921875
 20
-5.718098958333333
 30
0.0
 10
7.977606879340278
 20
-5.678256564670138
 30
0.0
 10
7.602986653645833
 20
-5.620741102430555
 30
0.0
 10
7.233479817708333
 20
-5.848639594184028
 30
0.0
 10
7.228651258680555
 20
-5.851474338107638
 30
0.0
 10
7.223605685763888
 20
-5.8548583984375
 30
0.0
 10
7.218546549479166
 20
-5.857903374565972
 30
0.0
 10
7.100179036458333
 20
-5.770989312065972
 30
0.0
 10
6.962782118055555
 20
-5.646253797743055
 30
0.0
 10
6.8226318359375
 20
-5.513637966579861
 30
0.0
 10
6.847886827256944
 20
-5.496561686197916
 30
0.0
 10
6.873250325520833
 20
-5.480509440104166
 30
0.0
 10
6.898084852430555
 20
-5.466193305121528
 30
0.0
 10
7.178873697916666
 20
-5.303087022569444
 30
0.0
 10
7.464857313368055
 20
-5.35302734375
 30
0.0
 10
7.467542860243055
 20
-5.353502061631944
 30
0.0
 10
7.467542860243055
 20
-5.353502061631944
 30
0.0
 10
7.5576171875
 20
-5.370510525173611
 30
0.0
 10
7.5576171875
 20
-5.370510525173611
 30
0.0
 10
7.5576171875
 20
-5.370510525173611
 30
0.0
 10
7.543307834201388
 20
-5.279852973090278
 30
0.0
 10
7.543307834201388
 20
-5.279852973090278
 30
0.0
 10
7.542222764756944
 20
-5.273234049479166
 30
0.0
 10
7.515326605902778
 20
-5.111843532986111
 30
0.0
 10
7.400200737847221
 20
-4.985175238715278
 30
0.0
 10
7.356363932291666
 20
-4.936699761284722
 30
0.0
 10
7.307061089409721
 20
-4.89715576171875
 30
0.0
 10
7.274970160590278
 20
-4.873433430989583
 30
0.0
 10
7.287014431423611
 20
-4.790330674913194
 30
0.0
 10
7.380710177951388
 20
-4.527370876736111
 30
0.0
 10
7.404147677951388
 20
-4.388949924045138
 30
0.0
 10
7.4248046875
 20
-4.266567654079861
 30
0.0
 10
7.450385199652778
 20
-4.103725857204861
 30
0.0
 10
7.410291883680555
 20
-4.034383138020833
 30
0.0
 10
7.410291883680555
 20
-4.034383138020833
 30
0.0
 10
7.410291883680555
 20
-4.034383138020833
 30
0.0
 10
7.410291883680555
 20
-4.034383138020833
 30
0.0
 10
7.409939236111111
 20
-4.033955891927083
 30
0.0
 10
7.409749348958333
 20
-4.033555772569445
 30
0.0
 10
7.409600151909721
 20
-4.033196343315972
 30
0.0
 10
7.409464518229166
 20
-4.032850477430555
 30
0.0
 10
7.4091796875
 20
-4.032307942708333
 30
0.0
 10
7.408759223090278
 20
-4.031962076822916
 30
0.0
 10
7.408759223090278
 20
-4.031962076822916
 30
0.0
 10
7.408759223090278
 20
-4.031962076822916
 30
0.0
 10
7.408759223090278
 20
-4.031962076822916
 30
0.0
 10
7.368869357638888
 20
-3.962680392795139
 30
0.0
 10
7.192220052083333
 20
-3.897616916232639
 30
0.0
 10
7.098117404513888
 20
-3.861524793836805
 30
0.0
 10
6.93359375
 20
-3.7984619140625
 30
0.0
 10
6.691555447048611
 20
-3.76416015625
 30
0.0
 10
6.613118489583333
 20
-3.73333740234375
 30
0.0
 10
6.608506944444444
 20
-3.693705240885417
 30
0.0
 10
6.598619249131944
 20
-3.631198459201389
 30
0.0
 10
6.578287760416666
 20
-3.568976508246528
 30
0.0
 10
6.525322808159721
 20
-3.406216091579861
 30
0.0
 10
6.398708767361111
 20
-3.303120930989583
 30
0.0
 10
6.393324110243055
 20
-3.29876708984375
 30
0.0
 10
6.393324110243055
 20
-3.29876708984375
 30
0.0
 10
6.321831597222221
 20
-3.241441514756944
 30
0.0
 10
6.321831597222221
 20
-3.241441514756944
 30
0.0
 10
6.321831597222221
 20
-3.241441514756944
 30
0.0
 10
6.291897243923611
 20
-3.32794189453125
 30
0.0
 10
6.291897243923611
 20
-3.32794189453125
 30
0.0
 10
6.290852864583333
 20
-3.330634223090278
 30
0.0
 10
6.192464192708333
 20
-3.603678385416667
 30
0.0
 10
5.911593967013888
 20
-3.766791449652778
 30
0.0
 10
5.884345160590278
 20
-3.782280815972222
 30
0.0
 10
5.855305989583333
 20
-3.797702365451389
 30
0.0
 10
5.825032552083333
 20
-3.812432183159722
 30
0.0
 10
5.780856662326388
 20
-3.62359619140625
 30
0.0
 10
5.742485894097222
 20
-3.441819932725694
 30
0.0
 10
5.728529188368055
 20
-3.297654893663194
 30
0.0
 10
5.7353515625
 20
-3.294399685329861
 30
0.0
 10
5.7420654296875
 20
-3.290669759114583
 30
0.0
 10
5.748765733506944
 20
-3.287421332465278
 30
0.0
 10
6.129964192708333
 20
-3.0797119140625
 30
0.0
 10
6.265896267361111
 20
-2.726189507378472
 30
0.0
 10
6.309244791666666
 20
-2.5706787109375
 30
0.0
  0
SPLINE
  5
3E
330
1F
100
AcDbEntity
  8
Layer 1
370
     0
100
AcDbSpline
210
0.0
220
0.0
230
1.0
 70
    11
 71
     3
 72
    71
 73
    67
 74
     0
 42
0.0000000001
 43
0.0000000001
 40
0.0
 40
0.0
 40
0.0
 40
0.0
 40
1.0
 40
1.0
 40
1.0
 40
2.0
 40
2.0
 40
2.0
 40
3.0
 40
3.0
 40
3.0
 40
4.0
 40
4.0
 40
4.0
 40
5.0
 40
5.0
 40
5.0
 40
6.0
 40
6.0
 40
6.0
 40
7.0
 40
7.0
 40
7.0
 40
8.0
 40
8.0
 40
8.0
 40
9.0
 40
9.0
 40
9.0
 40
10.0
 40
10.0
 40
10.0
 40
11.0
 40
11.0
 40
11.0
 40
12.0
 40
12.0
 40
12.0
 40
13.0
 40
13.0
 40
13.0
 40
14.0
 40
14.0
 40
14.0
 40
15.0
 40
15.0
 40
15.0
 40
16.0
 40
16.0
 40
16.0
 40
17.0
 40
17.0
 40
17.0
 40
18.0
 40
18.0
 40
18.0
 40
19.0
 40
19.0
 40
19.0
 40
20.0
 40
20.0
 40
20.0
 40
21.0
 40
21.0
 40
21.0
 40
22.0
 40
22.0
 40
22.0
 40
22.0
 10
7.142347547743055
 20
-6.977471245659721
 30
0.0
 10
7.142768012152778
 20
-6.979953342013888
 30
0.0
 10
7.249050564236111
 20
-7.272515190972221
 30
0.0
 10
7.278984917534721
 20
-7.454210069444444
 30
0.0
 10
7.292670355902778
 20
-7.537190755208333
 30
0.0
 10
7.335055881076388
 20
-7.7098388671875
 30
0.0
 10
7.299248589409721
 20
-7.771226671006944
 30
0.0
 10
7.263916015625
 20
-7.832777235243055
 30
0.0
 10
7.110202365451388
 20
-7.883192274305555
 30
0.0
 10
7.014092339409721
 20
-7.911322699652778
 30
0.0
 10
6.865152994791666
 20
-7.954901801215278
 30
0.0
 10
6.534939236111111
 20
-8.029012044270832
 30
0.0
 10
6.532511393229166
 20
-8.02969021267361
 30
0.0
 10
6.532511393229166
 20
-8.02969021267361
 30
0.0
 10
6.492418077256944
 20
-8.044487847222221
 30
0.0
 10
6.492418077256944
 20
-8.044487847222221
 30
0.0
 10
6.492418077256944
 20
-8.044487847222221
 30
0.0
 10
6.489976671006944
 20
-8.087090386284721
 30
0.0
 10
6.489976671006944
 20
-8.087090386284721
 30
0.0
 10
6.489976671006944
 20
-8.08791775173611
 30
0.0
 10
6.484795464409721
 20
-8.176500108506945
 30
0.0
 10
6.457560221354166
 20
-8.260918511284721
 30
0.0
 10
6.437934027777778
 20
-8.321126302083332
 30
0.0
 10
6.4041748046875
 20
-8.371961805555555
 30
0.0
 10
6.374376085069444
 20
-8.408406575520832
 30
0.0
 10
6.317477756076388
 20
-8.300103081597221
 30
0.0
 10
6.196343315972222
 20
-8.1190185546875
 30
0.0
 10
5.977620442708333
 20
-7.9920654296875
 30
0.0
 10
5.940782335069444
 20
-7.970648871527778
 30
0.0
 10
5.90087890625
 20
-7.950453016493055
 30
0.0
 10
5.858846028645833
 20
-7.930745442708333
 30
0.0
 10
5.863471137152778
 20
-7.912312825520833
 30
0.0
 10
5.867906358506944
 20
-7.893758138020833
 30
0.0
 10
5.872341579861111
 20
-7.875162760416666
 30
0.0
 10
5.936211480034722
 20
-7.611599392361111
 30
0.0
 10
6.002454969618055
 20
-7.338894314236111
 30
0.0
 10
6.021959092881944
 20
-7.134358723958333
 30
0.0
 10
6.024603949652778
 20
-7.106363932291666
 30
0.0
 10
6.026190863715278
 20
-7.078776041666666
 30
0.0
 10
6.027615017361111
 20
-7.051581488715278
 30
0.0
 10
6.057020399305555
 20
-7.033135308159721
 30
0.0
 10
6.086466471354166
 20
-7.013631184895833
 30
0.0
 10
6.11572265625
 20
-6.992594401041666
 30
0.0
 10
6.283189561631944
 20
-6.873263888888888
 30
0.0
 10
6.486043294270833
 20
-6.679470486111111
 30
0.0
 10
6.682142469618055
 20
-6.492024739583333
 30
0.0
 10
6.697496202256944
 20
-6.477159288194444
 30
0.0
 10
6.7132568359375
 20
-6.462415907118055
 30
0.0
 10
6.728610568576388
 20
-6.447414822048611
 30
0.0
 10
6.764146592881944
 20
-6.472371419270833
 30
0.0
 10
6.799058702256944
 20
-6.494764539930555
 30
0.0
 10
6.833631727430555
 20
-6.514838324652778
 30
0.0
 10
7.052530924479166
 20
-6.641574435763888
 30
0.0
 10
7.269788953993055
 20
-6.656453450520833
 30
0.0
 10
7.391954210069444
 20
-6.651936848958333
 30
0.0
 10
7.375162760416666
 20
-6.6959228515625
 30
0.0
 10
7.347873263888888
 20
-6.750271267361111
 30
0.0
 10
7.305474175347221
 20
-6.797349717881944
 30
0.0
 10
7.245673285590278
 20
-6.863118489583333
 30
0.0
 10
7.171400282118055
 20
-6.911716037326388
 30
0.0
 10
7.170844184027778
 20
-6.912122938368055
 30
0.0
 10
7.170844184027778
 20
-6.912122938368055
 30
0.0
 10
7.134941948784721
 20
-6.935370551215278
 30
0.0
 10
7.134941948784721
 20
-6.935370551215278
 30
0.0
 10
7.134941948784721
 20
-6.935370551215278
 30
0.0
 10
7.142347547743055
 20
-6.977471245659721
 30
0.0
 10
7.142347547743055
 20
-6.977471245659721
 30
0.0
  0
SPLINE
  5
3F
330
1F
100
AcDbEntity
  8
Layer 1
370
     0
100
AcDbSpline
210
0.0
220
0.0
230
1.0
 70
    11
 71
     3
 72
    17
 73
    13
 74
     0
 42
0.0000000001
 43
0.0000000001
 40
0.0
 40
0.0
 40
0.0
 40
0.0
 40
1.0
 40
1.0
 40
1.0
 40
2.0
 40
2.0
 40
2.0
 40
3.0
 40
3.0
 40
3.0
 40
4.0
 40
4.0
 40
4.0
 40
4.0
 10
2.519571940104167
 20
-8.022298177083332
 30
0.0
 10
2.663458930121528
 20
-7.960964626736111
 30
0.0
 10
2.832784016927083
 20
-7.907457139756944
 30
0.0
 10
3.007161458333333
 20
-7.859198676215278
 30
0.0
 10
3.053215874565972
 20
-8.03280978732639
 30
0.0
 10
3.092624240451389
 20
-8.205322265625
 30
0.0
 10
3.113850911458333
 20
-8.360894097222221
 30
0.0
 10
2.932210286458333
 20
-8.416069878472221
 30
0.0
 10
2.75762939453125
 20
-8.472900390625
 30
0.0
 10
2.619818793402778
 20
-8.533338758680555
 30
0.0
 10
2.601223415798611
 20
-8.38308376736111
 30
0.0
 10
2.562642415364583
 20
-8.204847547743055
 30
0.0
 10
2.519571940104167
 20
-8.022298177083332
 30
0.0
  0
SPLINE
  5
40
330
1F
100
AcDbEntity
  8
Layer 1
370
     0
100
AcDbSpline
210
0.0
220
0.0
230
1.0
 70
    11
 71
     3
 72
    71
 73
    67
 74
     0
 42
0.0000000001
 43
0.0000000001
 40
0.0
 40
0.0
 40
0.0
 40
0.0
 40
1.0
 40
1.0
 40
1.0
 40
2.0
 40
2.0
 40
2.0
 40
3.0
 40
3.0
 40
3.0
 40
4.0
 40
4.0
 40
4.0
 40
5.0
 40
5.0
 40
5.0
 40
6.0
 40
6.0
 40
6.0
 40
7.0
 40
7.0
 40
7.0
 40
8.0
 40
8.0
 40
8.0
 40
9.0
 40
9.0
 40
9.0
 40
10.0
 40
10.0
 40
10.0
 40
11.0
 40
11.0
 40
11.0
 40
12.0
 40
12.0
 40
12.0
 40
13.0
 40
13.0
 40
13.0
 40
14.0
 40
14.0
 40
14.0
 40
15.0
 40
15.0
 40
15.0
 40
16.0
 40
16.0
 40
16.0
 40
17.0
 40
17.0
 40
17.0
 40
18.0
 40
18.0
 40
18.0
 40
19.0
 40
19.0
 40
19.0
 40
20.0
 40
20.0
 40
20.0
 40
21.0
 40
21.0
 40
21.0
 40
22.0
 40
22.0
 40
22.0
 40
22.0
 10
1.092515733506944
 20
-6.914754231770833
 30
0.0
 10
1.091756184895833
 20
-6.914265950520833
 30
0.0
 10
1.017354329427083
 20
-6.865790473090278
 30
0.0
 10
0.9575398763020833
 20
-6.800130208333333
 30
0.0
 10
0.9149509006076388
 20
-6.753173828125
 30
0.0
 10
0.887783474392361
 20
-6.698676215277778
 30
0.0
 10
0.87091064453125
 20
-6.65478515625
 30
0.0
 10
0.9931504991319444
 20
-6.659138997395833
 30
0.0
 10
1.210401746961806
 20
-6.644002278645833
 30
0.0
 10
1.429239908854167
 20
-6.517198350694444
 30
0.0
 10
1.464436848958333
 20
-6.496785481770833
 30
0.0
 10
1.499837239583333
 20
-6.473836263020833
 30
0.0
 10
1.535861545138889
 20
-6.448662651909721
 30
0.0
 10
1.550733778211806
 20
-6.462754991319444
 30
0.0
 10
1.565592447916667
 20
-6.477159288194444
 30
0.0
 10
1.580600314670139
 20
-6.491183810763888
 30
0.0
 10
1.776760525173611
 20
-6.678914388020833
 30
0.0
 10
1.979410807291667
 20
-6.872870551215278
 30
0.0
 10
2.146877712673611
 20
-6.991984049479166
 30
0.0
 10
2.163194444444444
 20
-7.003743489583333
 30
0.0
 10
2.179789225260417
 20
-7.0150146484375
 30
0.0
 10
2.196044921875
 20
-7.025729709201388
 30
0.0
 10
2.197150336371528
 20
-7.060709635416666
 30
0.0
 10
2.199286566840278
 20
-7.09619140625
 30
0.0
 10
2.202752007378472
 20
-7.132215711805555
 30
0.0
 10
2.221964518229167
 20
-7.336941189236111
 30
0.0
 10
2.287733289930555
 20
-7.609646267361111
 30
0.0
 10
2.351406521267361
 20
-7.873291015625
 30
0.0
 10
2.357632107204861
 20
-7.898681640625
 30
0.0
 10
2.363789876302083
 20
-7.923909505208333
 30
0.0
 10
2.369730631510417
 20
-7.949367947048611
 30
0.0
 10
2.340827094184028
 20
-7.963799370659721
 30
0.0
 10
2.312764485677083
 20
-7.978610568576388
 30
0.0
 10
2.286268446180555
 20
-7.993869357638888
 30
0.0
 10
2.06744384765625
 20
-8.12082248263889
 30
0.0
 10
1.946709526909722
 20
-8.3021240234375
 30
0.0
 10
1.889811197916667
 20
-8.410386827256945
 30
0.0
 10
1.860073513454861
 20
-8.373955620659721
 30
0.0
 10
1.826402452256944
 20
-8.323282877604166
 30
0.0
 10
1.806837293836805
 20
-8.26291232638889
 30
0.0
 10
1.7791748046875
 20
-8.178426106770832
 30
0.0
 10
1.77392578125
 20
-8.09006076388889
 30
0.0
 10
1.77392578125
 20
-8.089165581597221
 30
0.0
 10
1.77392578125
 20
-8.089165581597221
 30
0.0
 10
1.771640353732639
 20
-8.04648166232639
 30
0.0
 10
1.771640353732639
 20
-8.04648166232639
 30
0.0
 10
1.771640353732639
 20
-8.04648166232639
 30
0.0
 10
1.731397840711805
 20
-8.031968858506945
 30
0.0
 10
1.731397840711805
 20
-8.031968858506945
 30
0.0
 10
1.729051378038194
 20
-8.03127712673611
 30
0.0
 10
1.399020724826389
 20
-7.957302517361111
 30
0.0
 10
1.250020345052083
 20
-7.913669162326388
 30
0.0
 10
1.15350341796875
 20
-7.885674370659721
 30
0.0
 10
0.9999321831597222
 20
-7.835476345486111
 30
0.0
 10
0.9645317925347222
 20
-7.773939344618055
 30
0.0
 10
0.9286363389756944
 20
-7.712673611111111
 30
0.0
 10
0.97088623046875
 20
-7.539808485243055
 30
0.0
 10
0.9845784505208333
 20
-7.4569091796875
 30
0.0
 10
1.014316134982639
 20
-7.275282118055555
 30
0.0
 10
1.120374891493056
 20
-6.982652452256944
 30
0.0
 10
1.120795355902778
 20
-6.980021158854166
 30
0.0
 10
1.120795355902778
 20
-6.980021158854166
 30
0.0
 10
1.128126356336806
 20
-6.937906901041666
 30
0.0
 10
1.128126356336806
 20
-6.937906901041666
 30
0.0
 10
1.128126356336806
 20
-6.937906901041666
 30
0.0
 10
1.092515733506944
 20
-6.914754231770833
 30
0.0
 10
1.092515733506944
 20
-6.914754231770833
 30
0.0
  0
SPLINE
  5
41
330
1F
100
AcDbEntity
  8
Layer 1
370
     0
100
AcDbSpline
210
0.0
220
0.0
230
1.0
 70
    11
 71
     3
 72
    71
 73
    67
 74
     0
 42
0.0000000001
 43
0.0000000001
 40
0.0
 40
0.0
 40
0.0
 40
0.0
 40
1.0
 40
1.0
 40
1.0
 40
2.0
 40
2.0
 40
2.0
 40
3.0
 40
3.0
 40
3.0
 40
4.0
 40
4.0
 40
4.0
 40
5.0
 40
5.0
 40
5.0
 40
6.0
 40
6.0
 40
6.0
 40
7.0
 40
7.0
 40
7.0
 40
8.0
 40
8.0
 40
8.0
 40
9.0
 40
9.0
 40
9.0
 40
10.0
 40
10.0
 40
10.0
 40
11.0
 40
11.0
 40
11.0
 40
12.0
 40
12.0
 40
12.0
 40
13.0
 40
13.0
 40
13.0
 40
14.0
 40
14.0
 40
14.0
 40
15.0
 40
15.0
 40
15.0
 40
16.0
 40
16.0
 40
16.0
 40
17.0
 40
17.0
 40
17.0
 40
18.0
 40
18.0
 40
18.0
 40
19.0
 40
19.0
 40
19.0
 40
20.0
 40
20.0
 40
20.0
 40
21.0
 40
21.0
 40
21.0
 40
22.0
 40
22.0
 40
22.0
 40
22.0
 10
1.120096842447917
 20
-4.894029405381944
 30
0.0
 10
1.119683159722222
 20
-4.891404893663194
 30
0.0
 10
1.019843207465278
 20
-4.568305121527778
 30
0.0
 10
0.983547634548611
 20
-4.417290581597222
 30
0.0
 10
0.9600287543402777
 20
-4.319736056857638
 30
0.0
 10
0.9274698893229166
 20
-4.161465115017361
 30
0.0
 10
0.9629991319444444
 20
-4.100131564670138
 30
0.0
 10
0.9985487196180555
 20
-4.038594563802083
 30
0.0
 10
1.169460720486111
 20
-3.989501953125
 30
0.0
 10
1.248365614149306
 20
-3.960055881076389
 30
0.0
 10
1.420803493923611
 20
-3.895670572916667
 30
0.0
 10
1.727383083767361
 20
-3.842298719618055
 30
0.0
 10
1.729939778645833
 20
-3.841471354166667
 30
0.0
 10
1.729939778645833
 20
-3.841471354166667
 30
0.0
 10
1.769911024305555
 20
-3.826944986979167
 30
0.0
 10
1.769911024305555
 20
-3.826944986979167
 30
0.0
 10
1.769911024305555
 20
-3.826944986979167
 30
0.0
 10
1.772257486979167
 20
-3.784423828125
 30
0.0
 10
1.772257486979167
 20
-3.784423828125
 30
0.0
 10
1.77239990234375
 20
-3.783596462673611
 30
0.0
 10
1.777662489149305
 20
-3.695027669270833
 30
0.0
 10
1.804829915364583
 20
-3.610385470920139
 30
0.0
 10
1.824530707465278
 20
-3.550103081597222
 30
0.0
 10
1.858350965711805
 20
-3.499423556857639
 30
0.0
 10
1.888081868489583
 20
-3.462978786892361
 30
0.0
 10
1.944912380642361
 20
-3.571261935763889
 30
0.0
 10
2.065843370225694
 20
-3.752407497829861
 30
0.0
 10
2.284817165798611
 20
-3.879286024305555
 30
0.0
 10
2.313245985243055
 20
-3.895670572916667
 30
0.0
 10
2.343655056423611
 20
-3.911655002170139
 30
0.0
 10
2.375400119357639
 20
-3.927130805121528
 30
0.0
 10
2.368075900607639
 20
-3.957492404513889
 30
0.0
 10
2.360738118489583
 20
-3.987636990017361
 30
0.0
 10
2.353549533420139
 20
-4.017923990885416
 30
0.0
 10
2.289455837673611
 20
-4.281711154513888
 30
0.0
 10
2.223429361979167
 20
-4.554280598958333
 30
0.0
 10
2.204060872395833
 20
-4.758863661024305
 30
0.0
 10
2.201504177517361
 20
-4.787706163194444
 30
0.0
 10
2.199700249565972
 20
-4.816107855902778
 30
0.0
 10
2.198316786024305
 20
-4.84405517578125
 30
0.0
 10
2.181111653645833
 20
-4.855387369791666
 30
0.0
 10
2.164171006944444
 20
-4.866929796006944
 30
0.0
 10
2.147087944878472
 20
-4.879109700520833
 30
0.0
 10
1.979627821180555
 20
-4.998304578993055
 30
0.0
 10
1.776828342013889
 20
-5.192328559027778
 30
0.0
 10
1.580735948350694
 20
-5.379706488715278
 30
0.0
 10
1.565321180555555
 20
-5.394443088107638
 30
0.0
 10
1.549628363715278
 20
-5.409294976128472
 30
0.0
 10
1.534200032552083
 20
-5.424167209201388
 30
0.0
 10
1.498589409722222
 20
-5.399264865451388
 30
0.0
 10
1.463399251302083
 20
-5.376729329427083
 30
0.0
 10
1.428900824652778
 20
-5.356614854600694
 30
0.0
 10
1.210055881076389
 20
-5.229932996961805
 30
0.0
 10
0.9927435980902777
 20
-5.214803059895833
 30
0.0
 10
0.8704291449652777
 20
-5.219428168402778
 30
0.0
 10
0.8873630099826388
 20
-5.175530327690972
 30
0.0
 10
0.9145304361979166
 20
-5.121046278211805
 30
0.0
 10
0.957058376736111
 20
-5.0740966796875
 30
0.0
 10
1.016730414496528
 20
-5.008402506510416
 30
0.0
 10
1.090928819444444
 20
-4.959662543402778
 30
0.0
 10
1.091756184895833
 20
-4.959092881944444
 30
0.0
 10
1.091756184895833
 20
-4.959092881944444
 30
0.0
 10
1.127353244357639
 20
-4.936008029513888
 30
0.0
 10
1.127353244357639
 20
-4.936008029513888
 30
0.0
 10
1.127353244357639
 20
-4.936008029513888
 30
0.0
 10
1.120096842447917
 20
-4.894029405381944
 30
0.0
 10
1.120096842447917
 20
-4.894029405381944
 30
0.0
  0
SPLINE
  5
42
330
1F
100
AcDbEntity
  8
Layer 1
370
     0
100
AcDbSpline
210
0.0
220
0.0
230
1.0
 70
    11
 71
     3
 72
    17
 73
    13
 74
     0
 42
0.0000000001
 43
0.0000000001
 40
0.0
 40
0.0
 40
0.0
 40
0.0
 40
1.0
 40
1.0
 40
1.0
 40
2.0
 40
2.0
 40
2.0
 40
3.0
 40
3.0
 40
3.0
 40
4.0
 40
4.0
 40
4.0
 40
4.0
 10
2.624803331163194
 20
-3.339836968315972
 30
0.0
 10
2.762112087673611
 20
-3.399787055121528
 30
0.0
 10
2.936014811197917
 20
-3.456475151909722
 30
0.0
 10
3.116475423177083
 20
-3.511447482638889
 30
0.0
 10
3.096978081597222
 20
-3.666815863715278
 30
0.0
 10
3.057854546440972
 20
-3.839959038628472
 30
0.0
 10
3.012071397569444
 20
-4.015089246961805
 30
0.0
 10
2.838175455729167
 20
-3.966952853732639
 30
0.0
 10
2.669406467013889
 20
-3.914279513888889
 30
0.0
 10
2.525519476996528
 20
-3.853644476996528
 30
0.0
 10
2.569010416666667
 20
-3.669162326388889
 30
0.0
 10
2.607381184895833
 20
-3.489664713541667
 30
0.0
 10
2.624803331163194
 20
-3.339836968315972
 30
0.0
  0
SPLINE
  5
43
330
1F
100
AcDbEntity
  8
Layer 1
370
     0
100
AcDbSpline
210
0.0
220
0.0
230
1.0
 70
    11
 71
     3
 72
    17
 73
    13
 74
     0
 42
0.0000000001
 43
0.0000000001
 40
0.0
 40
0.0
 40
0.0
 40
0.0
 40
1.0
 40
1.0
 40
1.0
 40
2.0
 40
2.0
 40
2.0
 40
3.0
 40
3.0
 40
3.0
 40
4.0
 40
4.0
 40
4.0
 40
4.0
 10
5.605292426215278
 20
-3.354560004340278
 30
0.0
 10
5.623494466145833
 20
-3.504462348090278
 30
0.0
 10
5.661783854166666
 20
-3.682651095920139
 30
0.0
 10
5.705064561631944
 20
-3.865397135416667
 30
0.0
 10
5.558485243055555
 20
-3.924648708767361
 30
0.0
 10
5.389092339409722
 20
-3.976372612847222
 30
0.0
 10
5.215969509548611
 20
-4.023593478732638
 30
0.0
 10
5.170383029513888
 20
-3.8499755859375
 30
0.0
 10
5.131117078993055
 20
-3.677605523003472
 30
0.0
 10
5.110785590277778
 20
-3.522569444444444
 30
0.0
 10
5.289659288194444
 20
-3.468783908420139
 30
0.0
 10
5.464043511284722
 20
-3.413119845920139
 30
0.0
 10
5.605292426215278
 20
-3.354560004340278
 30
0.0
  0
SPLINE
  5
44
330
1F
100
AcDbEntity
  8
Layer 1
370
     0
100
AcDbSpline
210
0.0
220
0.0
230
1.0
 70
    11
 71
     3
 72
    71
 73
    67
 74
     0
 42
0.0000000001
 43
0.0000000001
 40
0.0
 40
0.0
 40
0.0
 40
0.0
 40
1.0
 40
1.0
 40
1.0
 40
2.0
 40
2.0
 40
2.0
 40
3.0
 40
3.0
 40
3.0
 40
4.0
 40
4.0
 40
4.0
 40
5.0
 40
5.0
 40
5.0
 40
6.0
 40
6.0
 40
6.0
 40
7.0
 40
7.0
 40
7.0
 40
8.0
 40
8.0
 40
8.0
 40
9.0
 40
9.0
 40
9.0
 40
10.0
 40
10.0
 40
10.0
 40
11.0
 40
11.0
 40
11.0
 40
12.0
 40
12.0
 40
12.0
 40
13.0
 40
13.0
 40
13.0
 40
14.0
 40
14.0
 40
14.0
 40
15.0
 40
15.0
 40
15.0
 40
16.0
 40
16.0
 40
16.0
 40
17.0
 40
17.0
 40
17.0
 40
18.0
 40
18.0
 40
18.0
 40
19.0
 40
19.0
 40
19.0
 40
20.0
 40
20.0
 40
20.0
 40
21.0
 40
21.0
 40
21.0
 40
22.0
 40
22.0
 40
22.0
 40
22.0
 10
7.170071072048611
 20
-4.957173665364583
 30
0.0
 10
7.170844184027778
 20
-4.957512749565972
 30
0.0
 10
7.244900173611111
 20
-5.006184895833333
 30
0.0
 10
7.304728190104166
 20
-5.072021484375
 30
0.0
 10
7.347357855902778
 20
-5.119032118055555
 30
0.0
 10
7.374688042534721
 20
-5.173238118489583
 30
0.0
 10
7.391710069444444
 20
-5.217271592881944
 30
0.0
 10
7.269504123263888
 20
-5.212856716579861
 30
0.0
 10
7.051852756076388
 20
-5.228013780381944
 30
0.0
 10
6.833143446180555
 20
-5.354749891493055
 30
0.0
 10
6.798299153645833
 20
-5.375210232204861
 30
0.0
 10
6.763047960069444
 20
-5.398030598958333
 30
0.0
 10
6.727023654513888
 20
-5.423055013020833
 30
0.0
 10
6.712158203125
 20
-5.408745659722222
 30
0.0
 10
6.697292751736111
 20
-5.394443088107638
 30
0.0
 10
6.682345920138888
 20
-5.3802490234375
 30
0.0
 10
6.486192491319444
 20
-5.19287109375
 30
0.0
 10
6.283393012152778
 20
-4.999064127604166
 30
0.0
 10
6.116115993923611
 20
-4.879584418402778
 30
0.0
 10
6.086602105034722
 20
-4.858574761284722
 30
0.0
 10
6.057088216145833
 20
-4.838860405815972
 30
0.0
 10
6.027615017361111
 20
-4.820482042100694
 30
0.0
 10
6.026312934027778
 20
-4.800706651475694
 30
0.0
 10
6.024997287326388
 20
-4.780863444010416
 30
0.0
 10
6.0230712890625
 20
-4.760606553819444
 30
0.0
 10
6.00390625
 20
-4.556070963541666
 30
0.0
 10
5.938015407986111
 20
-4.283298068576388
 30
0.0
 10
5.874335394965278
 20
-4.019727918836805
 30
0.0
 10
5.8680419921875
 20
-3.993448893229167
 30
0.0
 10
5.861545138888888
 20
-3.966898600260417
 30
0.0
 10
5.855305989583333
 20
-3.940626356336805
 30
0.0
 10
5.898044162326388
 20
-3.9207763671875
 30
0.0
 10
5.938707139756944
 20
-3.89990234375
 30
0.0
 10
5.976128472222222
 20
-3.877983940972222
 30
0.0
 10
6.194756401909722
 20
-3.751173231336805
 30
0.0
 10
6.315741644965278
 20
-3.569939507378472
 30
0.0
 10
6.3724365234375
 20
-3.461595323350694
 30
0.0
 10
6.402153862847221
 20
-3.497965494791667
 30
0.0
 10
6.435994466145833
 20
-3.5487060546875
 30
0.0
 10
6.455607096354166
 20
-3.609090169270833
 30
0.0
 10
6.483005099826388
 20
-3.693705240885417
 30
0.0
 10
6.4884033203125
 20
-3.782070583767361
 30
0.0
 10
6.4884033203125
 20
-3.782911512586805
 30
0.0
 10
6.4884033203125
 20
-3.782911512586805
 30
0.0
 10
6.490831163194444
 20
-3.8255615234375
 30
0.0
 10
6.490831163194444
 20
-3.8255615234375
 30
0.0
 10
6.490831163194444
 20
-3.8255615234375
 30
0.0
 10
6.530924479166666
 20
-3.839959038628472
 30
0.0
 10
6.530924479166666
 20
-3.839959038628472
 30
0.0
 10
6.533352322048611
 20
-3.840718587239583
 30
0.0
 10
6.839925130208333
 20
-3.894022623697917
 30
0.0
 10
7.012505425347221
 20
-3.958109537760417
 30
0.0
 10
7.091254340277778
 20
-3.987508138020833
 30
0.0
 10
7.262383355034721
 20
-4.036519368489583
 30
0.0
 10
7.297783745659721
 20
-4.097927517361111
 30
0.0
 10
7.333753797743055
 20
-4.159186469184028
 30
0.0
 10
7.301378038194444
 20
-4.317593044704861
 30
0.0
 10
7.277669270833333
 20
-4.415093315972222
 30
0.0
 10
7.241644965277778
 20
-4.56622314453125
 30
0.0
 10
7.142076280381944
 20
-4.889485677083333
 30
0.0
 10
7.1416015625
 20
-4.891899956597222
 30
0.0
 10
7.1416015625
 20
-4.891899956597222
 30
0.0
 10
7.134141710069444
 20
-4.93414306640625
 30
0.0
 10
7.134141710069444
 20
-4.93414306640625
 30
0.0
 10
7.134141710069444
 20
-4.93414306640625
 30
0.0
 10
7.170071072048611
 20
-4.957173665364583
 30
0.0
 10
7.170071072048611
 20
-4.957173665364583
 30
0.0
  0
SPLINE
  5
45
330
1F
100
AcDbEntity
  8
Layer 1
370
     0
100
AcDbSpline
210
0.0
220
0.0
230
1.0
 70
    11
 71
     3
 72
    29
 73
    25
 74
     0
 42
0.0000000001
 43
0.0000000001
 40
0.0
 40
0.0
 40
0.0
 40
0.0
 40
1.0
 40
1.0
 40
1.0
 40
2.0
 40
2.0
 40
2.0
 40
3.0
 40
3.0
 40
3.0
 40
4.0
 40
4.0
 40
4.0
 40
5.0
 40
5.0
 40
5.0
 40
6.0
 40
6.0
 40
6.0
 40
7.0
 40
7.0
 40
7.0
 40
8.0
 40
8.0
 40
8.0
 40
8.0
 10
6.246744791666666
 20
-5.843309190538194
 30
0.0
 10
6.187147352430555
 20
-5.782674153645833
 30
0.0
 10
6.128445095486111
 20
-5.721544053819444
 30
0.0
 10
6.071465386284722
 20
-5.662089029947916
 30
0.0
 10
6.028523763020833
 20
-5.617431640625
 30
0.0
 10
5.9862060546875
 20
-5.573520236545138
 30
0.0
 10
5.944864908854166
 20
-5.530992296006944
 30
0.0
 10
5.938910590277778
 20
-5.52484130859375
 30
0.0
 10
5.932766384548611
 20
-5.518751356336805
 30
0.0
 10
5.926676432291666
 20
-5.512736002604166
 30
0.0
 10
5.982014973958333
 20
-5.360690646701388
 30
0.0
 10
6.023546006944444
 20
-5.180508083767361
 30
0.0
 10
6.029839409722222
 20
-4.976806640625
 30
0.0
 10
6.0335693359375
 20
-4.979356553819444
 30
0.0
 10
6.037434895833333
 20
-4.981648763020833
 30
0.0
 10
6.041314019097222
 20
-4.984402126736111
 30
0.0
 10
6.200981987847222
 20
-5.098361545138888
 30
0.0
 10
6.4005126953125
 20
-5.289198133680555
 30
0.0
 10
6.593153211805555
 20
-5.473531087239583
 30
0.0
 10
6.603054470486111
 20
-5.48272705078125
 30
0.0
 10
6.612643771701388
 20
-5.491990831163194
 30
0.0
 10
6.622395833333333
 20
-5.50140380859375
 30
0.0
 10
6.498277452256944
 20
-5.599867078993055
 30
0.0
 10
6.3712158203125
 20
-5.719333224826388
 30
0.0
 10
6.246744791666666
 20
-5.843309190538194
 30
0.0
  0
SPLINE
  5
46
330
1F
100
AcDbEntity
  8
Layer 1
370
     0
100
AcDbSpline
210
0.0
220
0.0
230
1.0
 70
    11
 71
     3
 72
    17
 73
    13
 74
     0
 42
0.0000000001
 43
0.0000000001
 40
0.0
 40
0.0
 40
0.0
 40
0.0
 40
1.0
 40
1.0
 40
1.0
 40
2.0
 40
2.0
 40
2.0
 40
3.0
 40
3.0
 40
3.0
 40
4.0
 40
4.0
 40
4.0
 40
4.0
 10
5.407904730902778
 20
-7.155422634548611
 30
0.0
 10
5.435614691840278
 20
-6.995524088541666
 30
0.0
 10
5.437771267361111
 20
-6.838690863715278
 30
0.0
 10
5.421644422743055
 20
-6.697645399305555
 30
0.0
 10
5.5526123046875
 20
-6.642198350694444
 30
0.0
 10
5.688612196180555
 20
-6.562744140625
 30
0.0
 10
5.814724392361111
 20
-6.459120008680555
 30
0.0
 10
5.865071614583333
 20
-6.606920030381944
 30
0.0
 10
5.900811089409722
 20
-6.781453450520833
 30
0.0
 10
5.900349934895833
 20
-6.977199978298611
 30
0.0
 10
5.730333116319444
 20
-7.073187934027778
 30
0.0
 10
5.560899522569444
 20
-7.126966688368055
 30
0.0
 10
5.407904730902778
 20
-7.155422634548611
 30
0.0
  0
SPLINE
  5
47
330
1F
100
AcDbEntity
  8
Layer 1
370
     0
100
AcDbSpline
210
0.0
220
0.0
230
1.0
 70
    11
 71
     3
 72
    23
 73
    19
 74
     0
 42
0.0000000001
 43
0.0000000001
 40
0.0
 40
0.0
 40
0.0
 40
0.0
 40
1.0
 40
1.0
 40
1.0
 40
2.0
 40
2.0
 40
2.0
 40
3.0
 40
3.0
 40
3.0
 40
4.0
 40
4.0
 40
4.0
 40
5.0
 40
5.0
 40
5.0
 40
6.0
 40
6.0
 40
6.0
 40
6.0
 10
5.130628797743055
 20
-7.690958658854166
 30
0.0
 10
5.049533420138888
 20
-7.669718424479166
 30
0.0
 10
4.968763563368055
 20
-7.649753146701388
 30
0.0
 10
4.889946831597222
 20
-7.629964192708333
 30
0.0
 10
4.846381293402778
 20
-7.618977864583333
 30
0.0
 10
4.803371853298611
 20
-7.608181423611111
 30
0.0
 10
4.760904947916666
 20
-7.597398546006944
 30
0.0
 10
4.838623046875
 20
-7.486233181423611
 30
0.0
 10
4.891737196180555
 20
-7.383409288194444
 30
0.0
 10
4.925821940104166
 20
-7.306396484375
 30
0.0
 10
5.005560980902778
 20
-7.314615885416666
 30
0.0
 10
5.113484700520833
 20
-7.3194580078125
 30
0.0
 10
5.2392578125
 20
-7.309624565972221
 30
0.0
 10
5.225843641493055
 20
-7.356431749131944
 30
0.0
 10
5.212239583333333
 20
-7.403957790798611
 30
0.0
 10
5.198391384548611
 20
-7.4521484375
 30
0.0
 10
5.175916883680555
 20
-7.529988606770833
 30
0.0
 10
5.1529541015625
 20
-7.610120985243055
 30
0.0
 10
5.130628797743055
 20
-7.690958658854166
 30
0.0
  0
SPLINE
  5
48
330
1F
100
AcDbEntity
  8
Layer 1
370
     0
100
AcDbSpline
210
0.0
220
0.0
230
1.0
 70
    11
 71
     3
 72
    41
 73
    37
 74
     0
 42
0.0000000001
 43
0.0000000001
 40
0.0
 40
0.0
 40
0.0
 40
0.0
 40
1.0
 40
1.0
 40
1.0
 40
2.0
 40
2.0
 40
2.0
 40
3.0
 40
3.0
 40
3.0
 40
4.0
 40
4.0
 40
4.0
 40
5.0
 40
5.0
 40
5.0
 40
6.0
 40
6.0
 40
6.0
 40
7.0
 40
7.0
 40
7.0
 40
8.0
 40
8.0
 40
8.0
 40
9.0
 40
9.0
 40
9.0
 40
10.0
 40
10.0
 40
10.0
 40
11.0
 40
11.0
 40
11.0
 40
12.0
 40
12.0
 40
12.0
 40
12.0
 10
4.844224717881944
 20
-7.1649169921875
 30
0.0
 10
4.844224717881944
 20
-7.1649169921875
 30
0.0
 10
4.843885633680555
 20
-7.164143880208333
 30
0.0
 10
4.843885633680555
 20
-7.164143880208333
 30
0.0
 10
4.843885633680555
 20
-7.164143880208333
 30
0.0
 10
4.843885633680555
 20
-7.164482964409721
 30
0.0
 10
4.843885633680555
 20
-7.164632161458333
 30
0.0
 10
4.843885633680555
 20
-7.164632161458333
 30
0.0
 10
4.843343098958333
 20
-7.164632161458333
 30
0.0
 10
4.843343098958333
 20
-7.164632161458333
 30
0.0
 10
4.843343098958333
 20
-7.164632161458333
 30
0.0
 10
4.84375
 20
-7.165269639756944
 30
0.0
 10
4.84375
 20
-7.165269639756944
 30
0.0
 10
4.819756401909722
 20
-7.230604383680555
 30
0.0
 10
4.754692925347222
 20
-7.387152777777778
 30
0.0
 10
4.626641167534722
 20
-7.560289171006944
 30
0.0
 10
4.4742431640625
 20
-7.510918511284721
 30
0.0
 10
4.342949761284722
 20
-7.441012912326388
 30
0.0
 10
4.235975477430555
 20
-7.365492078993055
 30
0.0
 10
4.337063259548611
 20
-7.275404188368055
 30
0.0
 10
4.412570529513888
 20
-7.180881076388888
 30
0.0
 10
4.454739040798611
 20
-7.095296223958333
 30
0.0
 10
4.519626193576388
 20
-6.96337890625
 30
0.0
 10
4.557061089409722
 20
-6.825344509548611
 30
0.0
 10
4.578857421875
 20
-6.707044813368055
 30
0.0
 10
4.692179361979166
 20
-6.746961805555555
 30
0.0
 10
4.830525716145833
 20
-6.782904730902778
 30
0.0
 10
4.9775390625
 20
-6.791815863715278
 30
0.0
 10
5.066745334201388
 20
-6.797417534722221
 30
0.0
 10
5.177178276909722
 20
-6.781385633680555
 30
0.0
 10
5.296359592013888
 20
-6.743706597222221
 30
0.0
 10
5.308797200520833
 20
-6.872870551215278
 30
0.0
 10
5.304931640625
 20
-7.019721137152778
 30
0.0
 10
5.273003472222222
 20
-7.175075954861111
 30
0.0
 10
5.069634331597222
 20
-7.196384006076388
 30
0.0
 10
4.910536024305555
 20
-7.176052517361111
 30
0.0
 10
4.844224717881944
 20
-7.1649169921875
 30
0.0
  0
SPLINE
  5
49
330
1F
100
AcDbEntity
  8
Layer 1
370
     0
100
AcDbSpline
210
0.0
220
0.0
230
1.0
 70
    11
 71
     3
 72
    17
 73
    13
 74
     0
 42
0.0000000001
 43
0.0000000001
 40
0.0
 40
0.0
 40
0.0
 40
0.0
 40
1.0
 40
1.0
 40
1.0
 40
2.0
 40
2.0
 40
2.0
 40
3.0
 40
3.0
 40
3.0
 40
4.0
 40
4.0
 40
4.0
 40
4.0
 10
4.131293402777778
 20
-8.00265842013889
 30
0.0
 10
3.960157606336805
 20
-7.904975043402778
 30
0.0
 10
3.826029459635417
 20
-7.785956488715278
 30
0.0
 10
3.722459581163194
 20
-7.667738172743055
 30
0.0
 10
3.877129448784722
 20
-7.611924913194444
 30
0.0
 10
4.015970865885416
 20
-7.535047743055555
 30
0.0
 10
4.132066514756945
 20
-7.449666341145833
 30
0.0
 10
4.247870551215278
 20
-7.534776475694444
 30
0.0
 10
4.386515299479166
 20
-7.611599392361111
 30
0.0
 10
4.5408935546875
 20
-7.666842990451388
 30
0.0
 10
4.437188042534722
 20
-7.785481770833333
 30
0.0
 10
4.302625868055555
 20
-7.904825846354166
 30
0.0
 10
4.131293402777778
 20
-8.00265842013889
 30
0.0
  0
SPLINE
  5
4A
330
1F
100
AcDbEntity
  8
Layer 1
370
     0
100
AcDbSpline
210
0.0
220
0.0
230
1.0
 70
    11
 71
     3
 72
    23
 73
    19
 74
     0
 42
0.0000000001
 43
0.0000000001
 40
0.0
 40
0.0
 40
0.0
 40
0.0
 40
1.0
 40
1.0
 40
1.0
 40
2.0
 40
2.0
 40
2.0
 40
3.0
 40
3.0
 40
3.0
 40
4.0
 40
4.0
 40
4.0
 40
5.0
 40
5.0
 40
5.0
 40
6.0
 40
6.0
 40
6.0
 40
6.0
 10
3.027425130208333
 20
-7.4521484375
 30
0.0
 10
3.013176812065972
 20
-7.402560763888888
 30
0.0
 10
2.999423556857639
 20
-7.353908962673611
 30
0.0
 10
2.985731336805555
 20
-7.306098090277778
 30
0.0
 10
3.127617730034722
 20
-7.320149739583333
 30
0.0
 10
3.249165852864583
 20
-7.315022786458333
 30
0.0
 10
3.336561414930555
 20
-7.306098090277778
 30
0.0
 10
3.370924207899305
 20
-7.383612738715278
 30
0.0
 10
3.424370659722222
 20
-7.486911349826388
 30
0.0
 10
3.502231174045139
 20
-7.598253038194444
 30
0.0
 10
3.459981282552083
 20
-7.609171549479166
 30
0.0
 10
3.417263454861111
 20
-7.619900173611111
 30
0.0
 10
3.373555501302083
 20
-7.630818684895833
 30
0.0
 10
3.283732096354167
 20
-7.653225368923611
 30
0.0
 10
3.190945095486111
 20
-7.676581488715278
 30
0.0
 10
3.098090277777778
 20
-7.700995551215278
 30
0.0
 10
3.074849446614583
 20
-7.616780598958333
 30
0.0
 10
3.050869411892361
 20
-7.533365885416666
 30
0.0
 10
3.027425130208333
 20
-7.4521484375
 30
0.0
  0
SPLINE
  5
4B
330
1F
100
AcDbEntity
  8
Layer 1
370
     0
100
AcDbSpline
210
0.0
220
0.0
230
1.0
 70
    11
 71
     3
 72
    41
 73
    37
 74
     0
 42
0.0000000001
 43
0.0000000001
 40
0.0
 40
0.0
 40
0.0
 40
0.0
 40
1.0
 40
1.0
 40
1.0
 40
2.0
 40
2.0
 40
2.0
 40
3.0
 40
3.0
 40
3.0
 40
4.0
 40
4.0
 40
4.0
 40
5.0
 40
5.0
 40
5.0
 40
6.0
 40
6.0
 40
6.0
 40
7.0
 40
7.0
 40
7.0
 40
8.0
 40
8.0
 40
8.0
 40
9.0
 40
9.0
 40
9.0
 40
10.0
 40
10.0
 40
10.0
 40
11.0
 40
11.0
 40
11.0
 40
12.0
 40
12.0
 40
12.0
 40
12.0
 10
3.418911404079861
 20
-7.165052625868055
 30
0.0
 10
3.418911404079861
 20
-7.165052625868055
 30
0.0
 10
3.419467502170139
 20
-7.164374457465278
 30
0.0
 10
3.419467502170139
 20
-7.164374457465278
 30
0.0
 10
3.419196234809028
 20
-7.164374457465278
 30
0.0
 10
3.418911404079861
 20
-7.164374457465278
 30
0.0
 10
3.418768988715278
 20
-7.164482964409721
 30
0.0
 10
3.418768988715278
 20
-7.164306640625
 30
0.0
 10
3.418768988715278
 20
-7.164089626736111
 30
0.0
 10
3.418707953559028
 20
-7.163764105902778
 30
0.0
 10
3.418707953559028
 20
-7.163764105902778
 30
0.0
 10
3.418294270833333
 20
-7.164632161458333
 30
0.0
 10
3.418294270833333
 20
-7.164632161458333
 30
0.0
 10
3.347832573784722
 20
-7.176812065972221
 30
0.0
 10
3.173177083333333
 20
-7.198662651909721
 30
0.0
 10
2.951775444878472
 20
-7.170586480034721
 30
0.0
 10
2.919969346788194
 20
-7.012261284722221
 30
0.0
 10
2.916937934027778
 20
-6.862698025173611
 30
0.0
 10
2.930419921875
 20
-6.732421875
 30
0.0
 10
3.063510470920139
 20
-6.778333875868055
 30
0.0
 10
3.187418619791667
 20
-6.798394097222221
 30
0.0
 10
3.285671657986111
 20
-6.792453342013888
 30
0.0
 10
3.432535807291667
 20
-6.783175998263888
 30
0.0
 10
3.570753309461805
 20
-6.747151692708333
 30
0.0
 10
3.684353298611111
 20
-6.707139756944444
 30
0.0
 10
3.706142849392361
 20
-6.825412326388888
 30
0.0
 10
3.743679470486111
 20
-6.96337890625
 30
0.0
 10
3.808742947048611
 20
-7.095296223958333
 30
0.0
 10
3.850918240017361
 20
-7.180881076388888
 30
0.0
 10
3.926642523871528
 20
-7.275472005208333
 30
0.0
 10
4.028001573350695
 20
-7.365559895833333
 30
0.0
 10
3.920762803819444
 20
-7.441216362847221
 30
0.0
 10
3.789171006944444
 20
-7.511325412326388
 30
0.0
 10
3.636440700954861
 20
-7.560967339409721
 30
0.0
 10
3.507968478732639
 20
-7.387559678819444
 30
0.0
 10
3.442769368489583
 20
-7.230604383680555
 30
0.0
 10
3.418911404079861
 20
-7.165052625868055
 30
0.0
  0
SPLINE
  5
4C
330
1F
100
AcDbEntity
  8
Layer 1
370
     0
100
AcDbSpline
210
0.0
220
0.0
230
1.0
 70
    11
 71
     3
 72
    17
 73
    13
 74
     0
 42
0.0000000001
 43
0.0000000001
 40
0.0
 40
0.0
 40
0.0
 40
0.0
 40
1.0
 40
1.0
 40
1.0
 40
2.0
 40
2.0
 40
2.0
 40
3.0
 40
3.0
 40
3.0
 40
4.0
 40
4.0
 40
4.0
 40
4.0
 10
2.820407443576389
 20
-4.722974989149305
 30
0.0
 10
2.790676540798611
 20
-4.886155870225694
 30
0.0
 10
2.787638346354167
 20
-5.046434190538194
 30
0.0
 10
2.803677029079861
 20
-5.190673828125
 30
0.0
 10
2.672370062934028
 20
-5.250271267361111
 30
0.0
 10
2.537679036458333
 20
-5.334058973524305
 30
0.0
 10
2.413703070746528
 20
-5.441453721788194
 30
0.0
 10
2.362060546875
 20
-5.291897243923611
 30
0.0
 10
2.324998643663194
 20
-5.115010579427083
 30
0.0
 10
2.325547960069444
 20
-4.916314019097222
 30
0.0
 10
2.495232476128472
 20
-4.814168294270833
 30
0.0
 10
2.66552734375
 20
-4.7554931640625
 30
0.0
 10
2.820407443576389
 20
-4.722974989149305
 30
0.0
  0
SPLINE
  5
4D
330
1F
100
AcDbEntity
  8
Layer 1
370
     0
100
AcDbSpline
210
0.0
220
0.0
230
1.0
 70
    11
 71
     3
 72
    23
 73
    19
 74
     0
 42
0.0000000001
 43
0.0000000001
 40
0.0
 40
0.0
 40
0.0
 40
0.0
 40
1.0
 40
1.0
 40
1.0
 40
2.0
 40
2.0
 40
2.0
 40
3.0
 40
3.0
 40
3.0
 40
4.0
 40
4.0
 40
4.0
 40
5.0
 40
5.0
 40
5.0
 40
6.0
 40
6.0
 40
6.0
 40
6.0
 10
3.10321044921875
 20
-4.173088921440972
 30
0.0
 10
3.193915473090278
 20
-4.196933322482638
 30
0.0
 10
3.284498426649305
 20
-4.219611273871528
 30
0.0
 10
3.372524685329861
 20
-4.241604275173611
 30
0.0
 10
3.416361490885417
 20
-4.252387152777778
 30
0.0
 10
3.459431966145833
 20
-4.263312445746528
 30
0.0
 10
3.502231174045139
 20
-4.274244520399305
 30
0.0
 10
3.424452039930555
 20
-4.3851318359375
 30
0.0
 10
3.371141221788194
 20
-4.488030327690972
 30
0.0
 10
3.336839463975694
 20
-4.565266927083333
 30
0.0
 10
3.250827365451389
 20
-4.556410047743055
 30
0.0
 10
3.131340874565972
 20
-4.551432291666666
 30
0.0
 10
2.99188232421875
 20
-4.564778645833333
 30
0.0
 10
3.00335693359375
 20
-4.523844401041666
 30
0.0
 10
3.015387641059028
 20
-4.482496473524305
 30
0.0
 10
3.027425130208333
 20
-4.440450032552083
 30
0.0
 10
3.052381727430555
 20
-4.353346082899305
 30
0.0
 10
3.078314887152778
 20
-4.263658311631945
 30
0.0
 10
3.10321044921875
 20
-4.173088921440972
 30
0.0
  0
SPLINE
  5
4E
330
1F
100
AcDbEntity
  8
Layer 1
370
     0
100
AcDbSpline
210
0.0
220
0.0
230
1.0
 70
    11
 71
     3
 72
    41
 73
    37
 74
     0
 42
0.0000000001
 43
0.0000000001
 40
0.0
 40
0.0
 40
0.0
 40
0.0
 40
1.0
 40
1.0
 40
1.0
 40
2.0
 40
2.0
 40
2.0
 40
3.0
 40
3.0
 40
3.0
 40
4.0
 40
4.0
 40
4.0
 40
5.0
 40
5.0
 40
5.0
 40
6.0
 40
6.0
 40
6.0
 40
7.0
 40
7.0
 40
7.0
 40
8.0
 40
8.0
 40
8.0
 40
9.0
 40
9.0
 40
9.0
 40
10.0
 40
10.0
 40
10.0
 40
11.0
 40
11.0
 40
11.0
 40
12.0
 40
12.0
 40
12.0
 40
12.0
 10
3.418707953559028
 20
-4.707078721788194
 30
0.0
 10
3.418707953559028
 20
-4.707078721788194
 30
0.0
 10
3.418911404079861
 20
-4.707485622829861
 30
0.0
 10
3.418911404079861
 20
-4.707485622829861
 30
0.0
 10
3.418911404079861
 20
-4.707485622829861
 30
0.0
 10
3.41912841796875
 20
-4.707288953993055
 30
0.0
 10
3.41912841796875
 20
-4.7071533203125
 30
0.0
 10
3.419467502170139
 20
-4.7071533203125
 30
0.0
 10
3.419609917534722
 20
-4.7071533203125
 30
0.0
 10
3.419609917534722
 20
-4.7071533203125
 30
0.0
 10
3.419609917534722
 20
-4.7071533203125
 30
0.0
 10
3.419467502170139
 20
-4.706651475694444
 30
0.0
 10
3.419467502170139
 20
-4.706651475694444
 30
0.0
 10
3.443115234375
 20
-4.641045464409722
 30
0.0
 10
3.508104112413194
 20
-4.484510633680555
 30
0.0
 10
3.636372884114583
 20
-4.311360677083333
 30
0.0
 10
3.788689507378472
 20
-4.360609266493055
 30
0.0
 10
3.919793023003472
 20
-4.430711534288195
 30
0.0
 10
4.026889377170138
 20
-4.5062255859375
 30
0.0
 10
3.92559814453125
 20
-4.596449110243055
 30
0.0
 10
3.849955240885417
 20
-4.690972222222222
 30
0.0
 10
3.807637532552083
 20
-4.776557074652778
 30
0.0
 10
3.742852105034722
 20
-4.908698187934028
 30
0.0
 10
3.705376519097222
 20
-5.046637641059028
 30
0.0
 10
3.683729383680555
 20
-5.164944118923611
 30
0.0
 10
3.570203993055555
 20
-5.125108506944444
 30
0.0
 10
3.431844075520833
 20
-5.089104546440972
 30
0.0
 10
3.285122341579861
 20
-5.080030653211805
 30
0.0
 10
3.186665852864583
 20
-5.073886447482638
 30
0.0
 10
3.061998155381944
 20
-5.094197591145833
 30
0.0
 10
2.928487141927083
 20
-5.140679253472222
 30
0.0
 10
2.916592068142361
 20
-5.008890787760416
 30
0.0
 10
2.921773274739583
 20
-4.858656141493055
 30
0.0
 10
2.956339518229167
 20
-4.700222439236111
 30
0.0
 10
3.175726996527778
 20
-4.672905815972222
 30
0.0
 10
3.348592122395833
 20
-4.694973415798611
 30
0.0
 10
3.418707953559028
 20
-4.707078721788194
 30
0.0
  0
SPLINE
  5
4F
330
1F
100
AcDbEntity
  8
Layer 1
370
     0
100
AcDbSpline
210
0.0
220
0.0
230
1.0
 70
    11
 71
     3
 72
    17
 73
    13
 74
     0
 42
0.0000000001
 43
0.0000000001
 40
0.0
 40
0.0
 40
0.0
 40
0.0
 40
1.0
 40
1.0
 40
1.0
 40
2.0
 40
2.0
 40
2.0
 40
3.0
 40
3.0
 40
3.0
 40
4.0
 40
4.0
 40
4.0
 40
4.0
 10
4.131849500868055
 20
-3.869194878472222
 30
0.0
 10
4.302842881944445
 20
-3.966695149739583
 30
0.0
 10
4.436916775173611
 20
-4.085611979166666
 30
0.0
 10
4.540757921006944
 20
-4.204128689236111
 30
0.0
 10
4.385904947916666
 20
-4.259718153211805
 30
0.0
 10
4.246975368923611
 20
-4.33660888671875
 30
0.0
 10
4.130954318576388
 20
-4.422146267361111
 30
0.0
 10
4.015068901909722
 20
-4.336886935763888
 30
0.0
 10
3.876302083333333
 20
-4.260267469618055
 30
0.0
 10
3.722181532118055
 20
-4.204684787326388
 30
0.0
 10
3.825961642795139
 20
-4.086107042100695
 30
0.0
 10
3.960374620225694
 20
-3.966824001736111
 30
0.0
 10
4.131849500868055
 20
-3.869194878472222
 30
0.0
  0
SPLINE
  5
50
330
1F
100
AcDbEntity
  8
Layer 1
370
     0
100
AcDbSpline
210
0.0
220
0.0
230
1.0
 70
    11
 71
     3
 72
    23
 73
    19
 74
     0
 42
0.0000000001
 43
0.0000000001
 40
0.0
 40
0.0
 40
0.0
 40
0.0
 40
1.0
 40
1.0
 40
1.0
 40
2.0
 40
2.0
 40
2.0
 40
3.0
 40
3.0
 40
3.0
 40
4.0
 40
4.0
 40
4.0
 40
5.0
 40
5.0
 40
5.0
 40
6.0
 40
6.0
 40
6.0
 40
6.0
 10
5.198391384548611
 20
-4.440450032552083
 30
0.0
 10
5.210367838541666
 20
-4.481533474392361
 30
0.0
 10
5.221896701388888
 20
-4.521925184461805
 30
0.0
 10
5.233181423611111
 20
-4.561869303385416
 30
0.0
 10
5.110215928819444
 20
-4.552619086371528
 30
0.0
 10
5.004435221354166
 20
-4.557379828559028
 30
0.0
 10
4.9263916015625
 20
-4.565470377604166
 30
0.0
 10
4.891954210069444
 20
-4.488030327690972
 30
0.0
 10
4.838623046875
 20
-4.384941948784722
 30
0.0
 10
4.760782877604166
 20
-4.273484971788195
 30
0.0
 10
4.802883572048611
 20
-4.262837727864583
 30
0.0
 10
4.845418294270833
 20
-4.252109103732638
 30
0.0
 10
4.888848198784722
 20
-4.241326226128472
 30
0.0
 10
4.965861002604166
 20
-4.221903483072916
 30
0.0
 10
5.045152452256944
 20
-4.201992458767361
 30
0.0
 10
5.125027126736111
 20
-4.181301540798611
 30
0.0
 10
5.149088541666666
 20
-4.268988715277778
 30
0.0
 10
5.174058702256944
 20
-4.355902777777778
 30
0.0
 10
5.198391384548611
 20
-4.440450032552083
 30
0.0
  0
SPLINE
  5
51
330
1F
100
AcDbEntity
  8
Layer 1
370
     0
100
AcDbSpline
210
0.0
220
0.0
230
1.0
 70
    11
 71
     3
 72
    41
 73
    37
 74
     0
 42
0.0000000001
 43
0.0000000001
 40
0.0
 40
0.0
 40
0.0
 40
0.0
 40
1.0
 40
1.0
 40
1.0
 40
2.0
 40
2.0
 40
2.0
 40
3.0
 40
3.0
 40
3.0
 40
4.0
 40
4.0
 40
4.0
 40
5.0
 40
5.0
 40
5.0
 40
6.0
 40
6.0
 40
6.0
 40
7.0
 40
7.0
 40
7.0
 40
8.0
 40
8.0
 40
8.0
 40
9.0
 40
9.0
 40
9.0
 40
10.0
 40
10.0
 40
10.0
 40
11.0
 40
11.0
 40
11.0
 40
12.0
 40
12.0
 40
12.0
 40
12.0
 10
4.843885633680555
 20
-4.70672607421875
 30
0.0
 10
4.843885633680555
 20
-4.70672607421875
 30
0.0
 10
4.84375
 20
-4.707411024305555
 30
0.0
 10
4.84375
 20
-4.707411024305555
 30
0.0
 10
4.84375
 20
-4.707411024305555
 30
0.0
 10
4.843885633680555
 20
-4.707288953993055
 30
0.0
 10
4.844156901041666
 20
-4.707288953993055
 30
0.0
 10
4.844156901041666
 20
-4.707288953993055
 30
0.0
 10
4.844224717881944
 20
-4.707628038194444
 30
0.0
 10
4.844441731770833
 20
-4.707695855034722
 30
0.0
 10
4.844441731770833
 20
-4.707695855034722
 30
0.0
 10
4.844658745659722
 20
-4.707288953993055
 30
0.0
 10
4.844658745659722
 20
-4.707288953993055
 30
0.0
 10
4.910400390625
 20
-4.69580078125
 30
0.0
 10
5.067450629340278
 20
-4.675828721788194
 30
0.0
 10
5.268690321180555
 20
-4.696295844184028
 30
0.0
 10
5.302870008680555
 20
-4.851243760850694
 30
0.0
 10
5.308797200520833
 20
-4.998114691840278
 30
0.0
 10
5.298244900173611
 20
-5.127733018663194
 30
0.0
 10
5.178127712673611
 20
-5.08978271484375
 30
0.0
 10
5.066609700520833
 20
-5.0736083984375
 30
0.0
 10
4.976793077256944
 20
-5.079067654079861
 30
0.0
 10
4.829847547743055
 20
-5.088202582465278
 30
0.0
 10
4.691433376736111
 20
-5.124220106336805
 30
0.0
 10
4.578314887152778
 20
-5.164252387152778
 30
0.0
 10
4.556532118055555
 20
-5.046149359809028
 30
0.0
 10
4.51904296875
 20
-4.908291286892361
 30
0.0
 10
4.453721788194444
 20
-4.776014539930555
 30
0.0
 10
4.4117431640625
 20
-4.690619574652778
 30
0.0
 10
4.336168077256945
 20
-4.596299913194444
 30
0.0
 10
4.234931098090278
 20
-4.506150987413194
 30
0.0
 10
4.342258029513888
 20
-4.430426703559028
 30
0.0
 10
4.4736328125
 20
-4.360256618923611
 30
0.0
 10
4.6265869140625
 20
-4.310804578993055
 30
0.0
 10
4.755032009548611
 20
-4.484368218315972
 30
0.0
 10
4.820041232638888
 20
-4.641045464409722
 30
0.0
 10
4.843885633680555
 20
-4.70672607421875
 30
0.0
  0
SPLINE
  5
52
330
1F
100
AcDbEntity
  8
Layer 1
370
     0
100
AcDbSpline
210
0.0
220
0.0
230
1.0
 70
    11
 71
     3
 72
    17
 73
    13
 74
     0
 42
0.0000000001
 43
0.0000000001
 40
0.0
 40
0.0
 40
0.0
 40
0.0
 40
1.0
 40
1.0
 40
1.0
 40
2.0
 40
2.0
 40
2.0
 40
3.0
 40
3.0
 40
3.0
 40
4.0
 40
4.0
 40
4.0
 40
4.0
 10
5.9012451171875
 20
-4.895358615451388
 30
0.0
 10
5.904337565104166
 20
-5.091932508680555
 30
0.0
 10
5.870673285590278
 20
-5.267415364583333
 30
0.0
 10
5.821587456597222
 20
-5.416978624131944
 30
0.0
 10
5.694023980034722
 20
-5.311333550347222
 30
0.0
 10
5.556342230902778
 20
-5.230502658420138
 30
0.0
 10
5.423651801215278
 20
-5.174207899305555
 30
0.0
 10
5.4381103515625
 20
-5.032192654079861
 30
0.0
 10
5.433742947048611
 20
-4.875447591145833
 30
0.0
 10
5.404093424479166
 20
-4.715657552083333
 30
0.0
 10
5.558064778645833
 20
-4.744276258680555
 30
0.0
 10
5.729424370659722
 20
-4.798272026909722
 30
0.0
 10
5.9012451171875
 20
-4.895358615451388
 30
0.0
  0
SPLINE
  5
53
330
1F
100
AcDbEntity
  8
Layer 1
370
     0
100
AcDbSpline
210
0.0
220
0.0
230
1.0
 70
    11
 71
     3
 72
    41
 73
    37
 74
     0
 42
0.0000000001
 43
0.0000000001
 40
0.0
 40
0.0
 40
0.0
 40
0.0
 40
1.0
 40
1.0
 40
1.0
 40
2.0
 40
2.0
 40
2.0
 40
3.0
 40
3.0
 40
3.0
 40
4.0
 40
4.0
 40
4.0
 40
5.0
 40
5.0
 40
5.0
 40
6.0
 40
6.0
 40
6.0
 40
7.0
 40
7.0
 40
7.0
 40
8.0
 40
8.0
 40
8.0
 40
9.0
 40
9.0
 40
9.0
 40
10.0
 40
10.0
 40
10.0
 40
11.0
 40
11.0
 40
11.0
 40
12.0
 40
12.0
 40
12.0
 40
12.0
 10
5.533108181423611
 20
-5.947509765625
 30
0.0
 10
5.533108181423611
 20
-5.947509765625
 30
0.0
 10
5.532904730902778
 20
-5.947645399305555
 30
0.0
 10
5.532904730902778
 20
-5.947645399305555
 30
0.0
 10
5.532904730902778
 20
-5.947645399305555
 30
0.0
 10
5.533528645833333
 20
-5.947645399305555
 30
0.0
 10
5.533528645833333
 20
-5.947645399305555
 30
0.0
 10
5.578138563368055
 20
-6.001030815972222
 30
0.0
 10
5.680324978298611
 20
-6.13525390625
 30
0.0
 10
5.765774197048611
 20
-6.332017686631944
 30
0.0
 10
5.645534939236111
 20
-6.437188042534721
 30
0.0
 10
5.518731011284722
 20
-6.513441297743055
 30
0.0
 10
5.400363498263888
 20
-6.566012912326388
 30
0.0
 10
5.373101128472222
 20
-6.436550564236111
 30
0.0
 10
5.329901801215278
 20
-6.326334635416666
 30
0.0
 10
5.278184678819444
 20
-6.248616536458333
 30
0.0
 10
5.196451822916666
 20
-6.126112196180555
 30
0.0
 10
5.095906575520833
 20
-6.024332682291666
 30
0.0
 10
5.004435221354166
 20
-5.946126302083333
 30
0.0
 10
5.095906575520833
 20
-5.868259006076388
 30
0.0
 10
5.196451822916666
 20
-5.766499837239583
 30
0.0
 10
5.278184678819444
 20
-5.644110785590278
 30
0.0
 10
5.332316080729166
 20
-5.562242296006944
 30
0.0
 10
5.377278645833333
 20
-5.444837782118055
 30
0.0
 10
5.404310438368055
 20
-5.306681315104166
 30
0.0
 10
5.524183485243055
 20
-5.360337999131944
 30
0.0
 10
5.652248806423611
 20
-5.438062879774305
 30
0.0
 10
5.773668077256944
 20
-5.545579698350694
 30
0.0
 10
5.686618381076388
 20
-5.751620822482638
 30
0.0
 10
5.579427083333333
 20
-5.891994900173611
 30
0.0
 10
5.533528645833333
 20
-5.946818033854166
 30
0.0
 10
5.533528645833333
 20
-5.946818033854166
 30
0.0
 10
5.532904730902778
 20
-5.947021484375
 30
0.0
 10
5.532904730902778
 20
-5.947021484375
 30
0.0
 10
5.532904730902778
 20
-5.947021484375
 30
0.0
 10
5.533108181423611
 20
-5.947238498263888
 30
0.0
 10
5.533108181423611
 20
-5.947509765625
 30
0.0
  0
SPLINE
  5
54
330
1F
100
AcDbEntity
  8
Layer 1
370
     0
100
AcDbSpline
210
0.0
220
0.0
230
1.0
 70
    11
 71
     3
 72
    95
 73
    91
 74
     0
 42
0.0000000001
 43
0.0000000001
 40
0.0
 40
0.0
 40
0.0
 40
0.0
 40
1.0
 40
1.0
 40
1.0
 40
2.0
 40
2.0
 40
2.0
 40
3.0
 40
3.0
 40
3.0
 40
4.0
 40
4.0
 40
4.0
 40
5.0
 40
5.0
 40
5.0
 40
6.0
 40
6.0
 40
6.0
 40
7.0
 40
7.0
 40
7.0
 40
8.0
 40
8.0
 40
8.0
 40
9.0
 40
9.0
 40
9.0
 40
10.0
 40
10.0
 40
10.0
 40
11.0
 40
11.0
 40
11.0
 40
12.0
 40
12.0
 40
12.0
 40
13.0
 40
13.0
 40
13.0
 40
14.0
 40
14.0
 40
14.0
 40
15.0
 40
15.0
 40
15.0
 40
16.0
 40
16.0
 40
16.0
 40
17.0
 40
17.0
 40
17.0
 40
18.0
 40
18.0
 40
18.0
 40
19.0
 40
19.0
 40
19.0
 40
20.0
 40
20.0
 40
20.0
 40
21.0
 40
21.0
 40
21.0
 40
22.0
 40
22.0
 40
22.0
 40
23.0
 40
23.0
 40
23.0
 40
24.0
 40
24.0
 40
24.0
 40
25.0
 40
25.0
 40
25.0
 40
26.0
 40
26.0
 40
26.0
 40
27.0
 40
27.0
 40
27.0
 40
28.0
 40
28.0
 40
28.0
 40
29.0
 40
29.0
 40
29.0
 40
30.0
 40
30.0
 40
30.0
 40
30.0
 10
4.131849500868055
 20
-7.2841796875
 30
0.0
 10
4.027377658420138
 20
-7.194173177083333
 30
0.0
 10
3.956712510850694
 20
-7.104139539930555
 30
0.0
 10
3.924485948350694
 20
-7.038533528645833
 30
0.0
 10
3.833563910590278
 20
-6.854397243923611
 30
0.0
 10
3.797193739149305
 20
-6.656453450520833
 30
0.0
 10
3.78564453125
 20
-6.5299072265625
 30
0.0
 10
3.78564453125
 20
-6.5299072265625
 30
0.0
 10
3.786546495225694
 20
-6.528238932291666
 30
0.0
 10
3.786546495225694
 20
-6.528238932291666
 30
0.0
 10
3.671006944444444
 20
-6.5814208984375
 30
0.0
 10
3.482245551215278
 20
-6.650906032986111
 30
0.0
 10
3.277445475260417
 20
-6.663642035590278
 30
0.0
 10
3.202426486545139
 20
-6.668389214409721
 30
0.0
 10
3.085150824652778
 20
-6.650770399305555
 30
0.0
 10
2.950602213541667
 20
-6.602010091145833
 30
0.0
 10
2.976189507378472
 20
-6.476521809895833
 30
0.0
 10
3.016425238715278
 20
-6.378065321180555
 30
0.0
 10
3.054877387152778
 20
-6.320109049479166
 30
0.0
 10
3.168958875868055
 20
-6.149129231770833
 30
0.0
 10
3.321845160590278
 20
-6.018446180555555
 30
0.0
 10
3.425543891059028
 20
-5.945176866319444
 30
0.0
 10
3.425543891059028
 20
-5.945176866319444
 30
0.0
 10
3.427483452690972
 20
-5.945176866319444
 30
0.0
 10
3.427483452690972
 20
-5.945176866319444
 30
0.0
 10
3.323574490017361
 20
-5.871866861979166
 30
0.0
 10
3.168958875868055
 20
-5.743394639756944
 30
0.0
 10
3.054877387152778
 20
-5.572475857204861
 30
0.0
 10
3.014695909288194
 20
-5.511773003472222
 30
0.0
 10
2.972391764322917
 20
-5.406317816840278
 30
0.0
 10
2.946723090277778
 20
-5.271620008680555
 30
0.0
 10
3.08251953125
 20
-5.222134060329861
 30
0.0
 10
3.20111083984375
 20
-5.204087999131944
 30
0.0
 10
3.276896158854167
 20
-5.208713107638888
 30
0.0
 10
3.481831868489583
 20
-5.221367730034722
 30
0.0
 10
3.673428005642361
 20
-5.294019911024305
 30
0.0
 10
3.788689507378472
 20
-5.346930609809028
 30
0.0
 10
3.788689507378472
 20
-5.346930609809028
 30
0.0
 10
3.78973388671875
 20
-5.346449110243055
 30
0.0
 10
3.78973388671875
 20
-5.346449110243055
 30
0.0
 10
3.800801595052083
 20
-5.219902886284722
 30
0.0
 10
3.832811143663194
 20
-5.017605251736111
 30
0.0
 10
3.923455132378472
 20
-4.833272298177083
 30
0.0
 10
3.955810546875
 20
-4.767713758680555
 30
0.0
 10
4.026475694444445
 20
-4.677632649739583
 30
0.0
 10
4.130954318576388
 20
-4.587388780381944
 30
0.0
 10
4.235161675347222
 20
-4.677415635850694
 30
0.0
 10
4.305677625868055
 20
-4.767225477430555
 30
0.0
 10
4.338175455729166
 20
-4.832994249131944
 30
0.0
 10
4.428887261284722
 20
-5.017103407118055
 30
0.0
 10
4.460910373263888
 20
-5.219156901041666
 30
0.0
 10
4.472317165798611
 20
-5.346028645833333
 30
0.0
 10
4.472317165798611
 20
-5.346028645833333
 30
0.0
 10
4.473361545138888
 20
-5.346449110243055
 30
0.0
 10
4.473361545138888
 20
-5.346449110243055
 30
0.0
 10
4.588555230034722
 20
-5.293287489149305
 30
0.0
 10
4.780205620659722
 20
-5.220682779947916
 30
0.0
 10
4.984998914930555
 20
-5.207675509982638
 30
0.0
 10
5.054361979166666
 20
-5.203436957465278
 30
0.0
 10
5.159749348958333
 20
-5.218037923177083
 30
0.0
 10
5.281561957465278
 20
-5.258707682291666
 30
0.0
 10
5.256117078993055
 20
-5.3994140625
 30
0.0
 10
5.212429470486111
 20
-5.50982666015625
 30
0.0
 10
5.170735677083333
 20
-5.572475857204861
 30
0.0
 10
5.057047526041666
 20
-5.743394639756944
 30
0.0
 10
4.898301866319444
 20
-5.872639973958333
 30
0.0
 10
4.794379340277778
 20
-5.945855034722222
 30
0.0
 10
4.794379340277778
 20
-5.945855034722222
 30
0.0
 10
4.794379340277778
 20
-5.946750217013888
 30
0.0
 10
4.794379340277778
 20
-5.946750217013888
 30
0.0
 10
4.898301866319444
 20
-6.020046657986111
 30
0.0
 10
5.057047526041666
 20
-6.149129231770833
 30
0.0
 10
5.170735677083333
 20
-6.320109049479166
 30
0.0
 10
5.210503472222222
 20
-6.379665798611111
 30
0.0
 10
5.2518310546875
 20
-6.482611762152778
 30
0.0
 10
5.277506510416666
 20
-6.6136474609375
 30
0.0
 10
5.157877604166666
 20
-6.653184678819444
 30
0.0
 10
5.054158528645833
 20
-6.667575412326388
 30
0.0
 10
4.985636393229166
 20
-6.663289388020833
 30
0.0
 10
4.780693901909722
 20
-6.650770399305555
 30
0.0
 10
4.590684678819444
 20
-6.583970811631944
 30
0.0
 10
4.475436740451388
 20
-6.531005859375
 30
0.0
 10
4.475436740451388
 20
-6.531005859375
 30
0.0
 10
4.474527994791666
 20
-6.529500325520833
 30
0.0
 10
4.474527994791666
 20
-6.529500325520833
 30
0.0
 10
4.463175455729166
 20
-6.655951605902778
 30
0.0
 10
4.429646809895833
 20
-6.854465060763888
 30
0.0
 10
4.339002821180555
 20
-7.038533528645833
 30
0.0
 10
4.306504991319445
 20
-7.104410807291666
 30
0.0
 10
4.236056857638888
 20
-7.194173177083333
 30
0.0
 10
4.131849500868055
 20
-7.2841796875
 30
0.0
  0
SPLINE
  5
55
330
1F
100
AcDbEntity
  8
Layer 1
370
     0
100
AcDbSpline
210
0.0
220
0.0
230
1.0
 70
    11
 71
     3
 72
    41
 73
    37
 74
     0
 42
0.0000000001
 43
0.0000000001
 40
0.0
 40
0.0
 40
0.0
 40
0.0
 40
1.0
 40
1.0
 40
1.0
 40
2.0
 40
2.0
 40
2.0
 40
3.0
 40
3.0
 40
3.0
 40
4.0
 40
4.0
 40
4.0
 40
5.0
 40
5.0
 40
5.0
 40
6.0
 40
6.0
 40
6.0
 40
7.0
 40
7.0
 40
7.0
 40
8.0
 40
8.0
 40
8.0
 40
9.0
 40
9.0
 40
9.0
 40
10.0
 40
10.0
 40
10.0
 40
11.0
 40
11.0
 40
11.0
 40
12.0
 40
12.0
 40
12.0
 40
12.0
 10
2.692484537760417
 20
-5.945855034722222
 30
0.0
 10
2.692633734809028
 20
-5.945719401041666
 30
0.0
 10
2.692769368489583
 20
-5.945651584201388
 30
0.0
 10
2.692843967013889
 20
-5.945366753472222
 30
0.0
 10
2.692843967013889
 20
-5.945366753472222
 30
0.0
 10
2.692145453559028
 20
-5.945366753472222
 30
0.0
 10
2.692145453559028
 20
-5.945366753472222
 30
0.0
 10
2.648247612847222
 20
-5.893025716145833
 30
0.0
 10
2.54840087890625
 20
-5.761650933159722
 30
0.0
 10
2.464111328125
 20
-5.569566514756944
 30
0.0
 10
2.581169976128472
 20
-5.460462782118055
 30
0.0
 10
2.706251356336805
 20
-5.380194769965278
 30
0.0
 10
2.824971516927083
 20
-5.323350694444444
 30
0.0
 10
2.852071126302083
 20
-5.454318576388888
 30
0.0
 10
2.895562065972222
 20
-5.5654296875
 30
0.0
 10
2.947767469618055
 20
-5.644110785590278
 30
0.0
 10
3.029364691840278
 20
-5.766499837239583
 30
0.0
 10
3.129957411024305
 20
-5.868259006076388
 30
0.0
 10
3.221435546875
 20
-5.946126302083333
 30
0.0
 10
3.129957411024305
 20
-6.024332682291666
 30
0.0
 10
3.029364691840278
 20
-6.126112196180555
 30
0.0
 10
2.947767469618055
 20
-6.248616536458333
 30
0.0
 10
2.897908528645833
 20
-6.323377821180555
 30
0.0
 10
2.856221516927083
 20
-6.428059895833333
 30
0.0
 10
2.828850640190972
 20
-6.55126953125
 30
0.0
 10
2.7108154296875
 20
-6.4951171875
 30
0.0
 10
2.586493598090278
 20
-6.415907118055555
 30
0.0
 10
2.469495985243055
 20
-6.308512369791666
 30
0.0
 10
2.552761501736111
 20
-6.123548719618055
 30
0.0
 10
2.649278428819444
 20
-5.997585720486111
 30
0.0
 10
2.692145453559028
 20
-5.946126302083333
 30
0.0
 10
2.692145453559028
 20
-5.946126302083333
 30
0.0
 10
2.693183051215278
 20
-5.946044921875
 30
0.0
 10
2.693183051215278
 20
-5.946044921875
 30
0.0
 10
2.692769368489583
 20
-5.945977105034722
 30
0.0
 10
2.692633734809028
 20
-5.945977105034722
 30
0.0
 10
2.692484537760417
 20
-5.945855034722222
 30
0.0
  0
SPLINE
  5
56
330
1F
100
AcDbEntity
  8
Layer 1
370
     0
100
AcDbSpline
210
0.0
220
0.0
230
1.0
 70
    11
 71
     3
 72
    23
 73
    19
 74
     0
 42
0.0000000001
 43
0.0000000001
 40
0.0
 40
0.0
 40
0.0
 40
0.0
 40
1.0
 40
1.0
 40
1.0
 40
2.0
 40
2.0
 40
2.0
 40
3.0
 40
3.0
 40
3.0
 40
4.0
 40
4.0
 40
4.0
 40
5.0
 40
5.0
 40
5.0
 40
6.0
 40
6.0
 40
6.0
 40
6.0
 10
2.528828938802083
 20
-5.945719401041666
 30
0.0
 10
2.48236083984375
 20
-6.009535047743055
 30
0.0
 10
2.425042046440972
 20
-6.098741319444444
 30
0.0
 10
2.371046278211805
 20
-6.210313585069444
 30
0.0
 10
2.34234619140625
 20
-6.180528428819444
 30
0.0
 10
2.313307020399305
 20
-6.150566948784722
 30
0.0
 10
2.284064398871528
 20
-6.120103624131944
 30
0.0
 10
2.226392957899305
 20
-6.059800889756944
 30
0.0
 10
2.166727701822917
 20
-5.998263888888888
 30
0.0
 10
2.106709798177083
 20
-5.936591254340278
 30
0.0
 10
2.166727701822917
 20
-5.874986436631944
 30
0.0
 10
2.226114908854167
 20
-5.813300238715278
 30
0.0
 10
2.283983018663194
 20
-5.75323486328125
 30
0.0
 10
2.311231825086805
 20
-5.724521213107638
 30
0.0
 10
2.338412814670139
 20
-5.696302625868055
 30
0.0
 10
2.365166558159722
 20
-5.668653700086805
 30
0.0
 10
2.4208984375
 20
-5.786058213975694
 30
0.0
 10
2.480780707465278
 20
-5.879475911458333
 30
0.0
 10
2.528828938802083
 20
-5.945719401041666
 30
0.0
  0
SPLINE
  5
57
330
1F
100
AcDbEntity
  8
Layer 1
370
     0
100
AcDbSpline
210
0.0
220
0.0
230
1.0
 70
    11
 71
     3
 72
    17
 73
    13
 74
     0
 42
0.0000000001
 43
0.0000000001
 40
0.0
 40
0.0
 40
0.0
 40
0.0
 40
1.0
 40
1.0
 40
1.0
 40
2.0
 40
2.0
 40
2.0
 40
3.0
 40
3.0
 40
3.0
 40
4.0
 40
4.0
 40
4.0
 40
4.0
 10
2.418477376302083
 20
-6.4351806640625
 30
0.0
 10
2.541829427083333
 20
-6.5413818359375
 30
0.0
 10
2.675618489583333
 20
-6.623887803819444
 30
0.0
 10
2.806023491753472
 20
-6.682847764756944
 30
0.0
 10
2.788255479600694
 20
-6.825575086805555
 30
0.0
 10
2.789225260416667
 20
-6.984795464409721
 30
0.0
 10
2.816677517361111
 20
-7.147637261284721
 30
0.0
 10
2.662278917100694
 20
-7.114990234375
 30
0.0
 10
2.493075900607639
 20
-7.056016710069444
 30
0.0
 10
2.324442545572917
 20
-6.954657660590278
 30
0.0
 10
2.326727973090278
 20
-6.757459852430555
 30
0.0
 10
2.36572265625
 20
-6.582587348090278
 30
0.0
 10
2.418477376302083
 20
-6.4351806640625
 30
0.0
  0
SPLINE
  5
58
330
1F
100
AcDbEntity
  8
Layer 1
370
     0
100
AcDbSpline
210
0.0
220
0.0
230
1.0
 70
    11
 71
     3
 72
    23
 73
    19
 74
     0
 42
0.0000000001
 43
0.0000000001
 40
0.0
 40
0.0
 40
0.0
 40
0.0
 40
1.0
 40
1.0
 40
1.0
 40
2.0
 40
2.0
 40
2.0
 40
3.0
 40
3.0
 40
3.0
 40
4.0
 40
4.0
 40
4.0
 40
5.0
 40
5.0
 40
5.0
 40
6.0
 40
6.0
 40
6.0
 40
6.0
 10
5.697129991319444
 20
-5.947509765625
 30
0.0
 10
5.748833550347222
 20
-5.876152886284722
 30
0.0
 10
5.814548068576388
 20
-5.773193359375
 30
0.0
 10
5.873575846354166
 20
-5.642740885416666
 30
0.0
 10
5.908148871527778
 20
-5.678256564670138
 30
0.0
 10
5.942938910590278
 20
-5.714348687065972
 30
0.0
 10
5.978407118055555
 20
-5.751288519965278
 30
0.0
 10
6.036282009548611
 20
-5.811577690972222
 30
0.0
 10
6.095730251736111
 20
-5.873453776041666
 30
0.0
 10
6.156100802951388
 20
-5.934977213541666
 30
0.0
 10
6.095730251736111
 20
-5.996866861979166
 30
0.0
 10
6.036404079861111
 20
-6.058756510416666
 30
0.0
 10
5.978461371527778
 20
-6.118923611111111
 30
0.0
 10
5.940294053819444
 20
-6.158677842881944
 30
0.0
 10
5.902750651041666
 20
-6.197726779513888
 30
0.0
 10
5.865980360243055
 20
-6.23583984375
 30
0.0
 10
5.808932834201388
 20
-6.113104926215278
 30
0.0
 10
5.746568467881944
 20
-6.015692816840278
 30
0.0
 10
5.697129991319444
 20
-5.947509765625
 30
0.0
  0
SPLINE
  5
59
330
1F
100
AcDbEntity
  8
Layer 1
370
     0
100
AcDbSpline
210
0.0
220
0.0
230
1.0
 70
    11
 71
     3
 72
    23
 73
    19
 74
     0
 42
0.0000000001
 43
0.0000000001
 40
0.0
 40
0.0
 40
0.0
 40
0.0
 40
1.0
 40
1.0
 40
1.0
 40
2.0
 40
2.0
 40
2.0
 40
3.0
 40
3.0
 40
3.0
 40
4.0
 40
4.0
 40
4.0
 40
5.0
 40
5.0
 40
5.0
 40
6.0
 40
6.0
 40
6.0
 40
6.0
 10
5.749050564236111
 20
-4.050014919704861
 30
0.0
 10
5.808580186631944
 20
-4.296705457899305
 30
0.0
 10
5.869967990451388
 20
-4.551222059461805
 30
0.0
 10
5.891615125868055
 20
-4.743645562065972
 30
0.0
 10
5.709079318576388
 20
-4.651272243923611
 30
0.0
 10
5.530476888020833
 20
-4.601901584201388
 30
0.0
 10
5.371676974826388
 20
-4.577718098958333
 30
0.0
 10
5.355902777777778
 20
-4.521430121527778
 30
0.0
 10
5.3392333984375
 20
-4.463480631510416
 30
0.0
 10
5.322075737847222
 20
-4.404710557725695
 30
0.0
 10
5.298244900173611
 20
-4.321112738715278
 30
0.0
 10
5.273546006944444
 20
-4.234754774305555
 30
0.0
 10
5.249484592013888
 20
-4.148118760850695
 30
0.0
 10
5.419528537326388
 20
-4.101657443576388
 30
0.0
 10
5.586900499131944
 20
-4.05084228515625
 30
0.0
 10
5.734998914930555
 20
-3.992072211371528
 30
0.0
 10
5.739718967013888
 20
-4.011345757378472
 30
0.0
 10
5.744357638888888
 20
-4.030788845486111
 30
0.0
 10
5.749050564236111
 20
-4.050014919704861
 30
0.0
  0
SPLINE
  5
5A
330
1F
100
AcDbEntity
  8
Layer 1
370
     0
100
AcDbSpline
210
0.0
220
0.0
230
1.0
 70
    11
 71
     3
 72
    26
 73
    22
 74
     0
 42
0.0000000001
 43
0.0000000001
 40
0.0
 40
0.0
 40
0.0
 40
0.0
 40
1.0
 40
1.0
 40
1.0
 40
2.0
 40
2.0
 40
2.0
 40
3.0
 40
3.0
 40
3.0
 40
4.0
 40
4.0
 40
4.0
 40
5.0
 40
5.0
 40
5.0
 40
6.0
 40
6.0
 40
6.0
 40
7.0
 40
7.0
 40
7.0
 40
7.0
 10
5.091213650173611
 20
-4.056850857204861
 30
0.0
 10
5.012532552083333
 20
-4.077317979600695
 30
0.0
 10
4.933919270833333
 20
-4.097100151909722
 30
0.0
 10
4.857449001736111
 20
-4.116177029079861
 30
0.0
 10
4.797281901041666
 20
-4.131395128038195
 30
0.0
 10
4.738104926215278
 20
-4.1461181640625
 30
0.0
 10
4.680799696180555
 20
-4.160698784722222
 30
0.0
 10
4.679334852430555
 20
-4.161187065972222
 30
0.0
 10
4.677734375
 20
-4.161465115017361
 30
0.0
 10
4.676283094618055
 20
-4.162089029947916
 30
0.0
 10
4.573893229166666
 20
-4.03729248046875
 30
0.0
 10
4.439887152777778
 20
-3.909294976128472
 30
0.0
 10
4.267239040798611
 20
-3.799919976128472
 30
0.0
 10
4.445421006944444
 20
-3.720126681857639
 30
0.0
 10
4.703179253472222
 20
-3.643649631076389
 30
0.0
 10
4.952853732638888
 20
-3.56951904296875
 30
0.0
 10
4.963650173611111
 20
-3.566351996527778
 30
0.0
 10
4.974636501736111
 20
-3.563157823350694
 30
0.0
 10
4.985772026909722
 20
-3.559848361545139
 30
0.0
 10
5.007622612847222
 20
-3.716172960069444
 30
0.0
 10
5.046698676215278
 20
-3.886196560329861
 30
0.0
 10
5.091213650173611
 20
-4.056850857204861
 30
0.0
  0
SPLINE
  5
5B
330
1F
100
AcDbEntity
  8
Layer 1
370
     0
100
AcDbSpline
210
0.0
220
0.0
230
1.0
 70
    11
 71
     3
 72
    71
 73
    67
 74
     0
 42
0.0000000001
 43
0.0000000001
 40
0.0
 40
0.0
 40
0.0
 40
0.0
 40
1.0
 40
1.0
 40
1.0
 40
2.0
 40
2.0
 40
2.0
 40
3.0
 40
3.0
 40
3.0
 40
4.0
 40
4.0
 40
4.0
 40
5.0
 40
5.0
 40
5.0
 40
6.0
 40
6.0
 40
6.0
 40
7.0
 40
7.0
 40
7.0
 40
8.0
 40
8.0
 40
8.0
 40
9.0
 40
9.0
 40
9.0
 40
10.0
 40
10.0
 40
10.0
 40
11.0
 40
11.0
 40
11.0
 40
12.0
 40
12.0
 40
12.0
 40
13.0
 40
13.0
 40
13.0
 40
14.0
 40
14.0
 40
14.0
 40
15.0
 40
15.0
 40
15.0
 40
16.0
 40
16.0
 40
16.0
 40
17.0
 40
17.0
 40
17.0
 40
18.0
 40
18.0
 40
18.0
 40
19.0
 40
19.0
 40
19.0
 40
20.0
 40
20.0
 40
20.0
 40
21.0
 40
21.0
 40
21.0
 40
22.0
 40
22.0
 40
22.0
 40
22.0
 10
4.916436089409722
 20
-3.446044921875
 30
0.0
 10
4.656087239583333
 20
-3.523200141059028
 30
0.0
 10
4.387125651041666
 20
-3.60272216796875
 30
0.0
 10
4.200358072916666
 20
-3.688795301649305
 30
0.0
 10
4.176784939236111
 20
-3.69952392578125
 30
0.0
 10
4.154256184895833
 20
-3.710849338107639
 30
0.0
 10
4.131849500868055
 20
-3.722337510850694
 30
0.0
 10
4.109388563368055
 20
-3.710788302951389
 30
0.0
 10
4.08648681640625
 20
-3.69952392578125
 30
0.0
 10
4.063056098090278
 20
-3.688741048177083
 30
0.0
 10
3.876302083333333
 20
-3.602654351128472
 30
0.0
 10
3.607530381944444
 20
-3.522928873697917
 30
0.0
 10
3.34735107421875
 20
-3.445902506510417
 30
0.0
 10
3.316650390625
 20
-3.436774359809028
 30
0.0
 10
3.286017523871528
 20
-3.427578396267361
 30
0.0
 10
3.255113389756944
 20
-3.418307834201389
 30
0.0
 10
3.257737901475694
 20
-3.383809407552083
 30
0.0
 10
3.259121365017361
 20
-3.350009494357639
 30
0.0
 10
3.259121365017361
 20
-3.317640516493055
 30
0.0
 10
3.259121365017361
 20
-3.064643012152778
 30
0.0
 10
3.1630859375
 20
-2.869174533420139
 30
0.0
 10
3.097880045572917
 20
-2.765740288628472
 30
0.0
 10
3.144415961371528
 20
-2.758409288194444
 30
0.0
 10
3.205254448784722
 20
-2.754604763454861
 30
0.0
 10
3.267076280381944
 20
-2.767815483940972
 30
0.0
 10
3.354051378038194
 20
-2.786471896701389
 30
0.0
 10
3.4332275390625
 20
-2.8262939453125
 30
0.0
 10
3.434061686197917
 20
-2.826924641927083
 30
0.0
 10
3.434061686197917
 20
-2.826924641927083
 30
0.0
 10
3.471950954861111
 20
-2.846143934461805
 30
0.0
 10
3.471950954861111
 20
-2.846143934461805
 30
0.0
 10
3.471950954861111
 20
-2.846143934461805
 30
0.0
 10
3.504720052083333
 20
-2.818712022569444
 30
0.0
 10
3.504720052083333
 20
-2.818712022569444
 30
0.0
 10
3.506720648871528
 20
-2.817043728298611
 30
0.0
 10
3.736348470052083
 20
-2.56854248046875
 30
0.0
 10
3.848843044704861
 20
-2.461568196614583
 30
0.0
 10
3.92144775390625
 20
-2.392286512586805
 30
0.0
 10
4.041965060763888
 20
-2.284566243489583
 30
0.0
 10
4.112833658854166
 20
-2.284905327690972
 30
0.0
 10
4.183865017361111
 20
-2.284566243489583
 30
0.0
 10
4.312174479166666
 20
-2.407979329427083
 30
0.0
 10
4.377183702256945
 20
-2.461568196614583
 30
0.0
 10
4.519178602430555
 20
-2.578423394097222
 30
0.0
 10
4.719156901041666
 20
-2.817043728298611
 30
0.0
 10
4.721082899305555
 20
-2.818712022569444
 30
0.0
 10
4.721082899305555
 20
-2.818712022569444
 30
0.0
 10
4.753648546006944
 20
-2.846143934461805
 30
0.0
 10
4.753648546006944
 20
-2.846143934461805
 30
0.0
 10
4.753648546006944
 20
-2.846143934461805
 30
0.0
 10
4.791761610243055
 20
-2.826924641927083
 30
0.0
 10
4.791761610243055
 20
-2.826924641927083
 30
0.0
 10
4.792575412326388
 20
-2.8262939453125
 30
0.0
 10
4.871893988715278
 20
-2.786471896701389
 30
0.0
 10
4.958591037326388
 20
-2.767815483940972
 30
0.0
 10
5.020751953125
 20
-2.754604763454861
 30
0.0
 10
5.081529405381944
 20
-2.758409288194444
 30
0.0
 10
5.1279296875
 20
-2.765740288628472
 30
0.0
 10
5.062717013888888
 20
-2.869174533420139
 30
0.0
 10
4.966620551215278
 20
-3.064643012152778
 30
0.0
 10
4.966620551215278
 20
-3.317640516493055
 30
0.0
 10
4.966620551215278
 20
-3.353522406684028
 30
0.0
 10
4.968343098958333
 20
-3.391126844618055
 30
0.0
 10
4.971394856770833
 20
-3.429721408420139
 30
0.0
 10
4.952921549479166
 20
-3.43511962890625
 30
0.0
 10
4.934665256076388
 20
-3.440714518229167
 30
0.0
 10
4.916436089409722
 20
-3.446044921875
 30
0.0
  0
SPLINE
  5
5C
330
1F
100
AcDbEntity
  8
Layer 1
370
     0
100
AcDbSpline
210
0.0
220
0.0
230
1.0
 70
    11
 71
     3
 72
    26
 73
    22
 74
     0
 42
0.0000000001
 43
0.0000000001
 40
0.0
 40
0.0
 40
0.0
 40
0.0
 40
1.0
 40
1.0
 40
1.0
 40
2.0
 40
2.0
 40
2.0
 40
3.0
 40
3.0
 40
3.0
 40
4.0
 40
4.0
 40
4.0
 40
5.0
 40
5.0
 40
5.0
 40
6.0
 40
6.0
 40
6.0
 40
7.0
 40
7.0
 40
7.0
 40
7.0
 10
3.310770670572917
 20
-3.5694580078125
 30
0.0
 10
3.560519748263889
 20
-3.643513997395833
 30
0.0
 10
3.818216959635417
 20
-3.71990966796875
 30
0.0
 10
3.996053059895833
 20
-3.799919976128472
 30
0.0
 10
3.823262532552083
 20
-3.909437391493055
 30
0.0
 10
3.689053005642361
 20
-4.037692599826388
 30
0.0
 10
3.586378309461805
 20
-4.162631564670138
 30
0.0
 10
3.584377712673611
 20
-4.1622314453125
 30
0.0
 10
3.582363552517361
 20
-4.161465115017361
 30
0.0
 10
3.580301920572917
 20
-4.160983615451388
 30
0.0
 10
3.522976345486111
 20
-4.146185980902778
 30
0.0
 10
3.463643391927083
 20
-4.131598578559028
 30
0.0
 10
3.403700086805555
 20
-4.116380479600695
 30
0.0
 10
3.316379123263889
 20
-4.094807942708333
 30
0.0
 10
3.226630316840278
 20
-4.072340223524305
 30
0.0
 10
3.136386447482639
 20
-4.048617892795138
 30
0.0
 10
3.181410047743055
 20
-3.876661512586805
 30
0.0
 10
3.220269097222222
 20
-3.705810546875
 30
0.0
 10
3.241488986545139
 20
-3.548923068576389
 30
0.0
 10
3.264662000868055
 20
-3.555765787760417
 30
0.0
 10
3.287679036458333
 20
-3.562540690104167
 30
0.0
 10
3.310770670572917
 20
-3.5694580078125
 30
0.0
  0
SPLINE
  5
5D
330
1F
100
AcDbEntity
  8
Layer 1
370
     0
100
AcDbSpline
210
0.0
220
0.0
230
1.0
 70
    11
 71
     3
 72
    26
 73
    22
 74
     0
 42
0.0000000001
 43
0.0000000001
 40
0.0
 40
0.0
 40
0.0
 40
0.0
 40
1.0
 40
1.0
 40
1.0
 40
2.0
 40
2.0
 40
2.0
 40
3.0
 40
3.0
 40
3.0
 40
4.0
 40
4.0
 40
4.0
 40
5.0
 40
5.0
 40
5.0
 40
6.0
 40
6.0
 40
6.0
 40
7.0
 40
7.0
 40
7.0
 40
7.0
 10
2.978678385416667
 20
-4.139553493923611
 30
0.0
 10
2.953993055555555
 20
-4.229234483506945
 30
0.0
 10
2.928337944878472
 20
-4.318277994791666
 30
0.0
 10
2.903516981336805
 20
-4.404710557725695
 30
0.0
 10
2.886372884114583
 20
-4.464111328125
 30
0.0
 10
2.8695068359375
 20
-4.522800021701388
 30
0.0
 10
2.85345458984375
 20
-4.579854329427083
 30
0.0
 10
2.853115505642361
 20
-4.581088595920138
 30
0.0
 10
2.852837456597222
 20
-4.582343207465278
 30
0.0
 10
2.852552625868055
 20
-4.583652072482638
 30
0.0
 10
2.692281087239583
 20
-4.6119384765625
 30
0.0
 10
2.514173719618055
 20
-4.665859646267361
 30
0.0
 10
2.333082411024305
 20
-4.763434516059028
 30
0.0
 10
2.352647569444444
 20
-4.568657769097222
 30
0.0
 10
2.416531032986111
 20
-4.304172092013888
 30
0.0
 10
2.478691948784722
 20
-4.048414442274305
 30
0.0
 10
2.484232584635417
 20
-4.02593994140625
 30
0.0
 10
2.489691840277778
 20
-4.003126356336805
 30
0.0
 10
2.495232476128472
 20
-3.980448404947917
 30
0.0
 10
2.641045464409722
 20
-4.040459526909722
 30
0.0
 10
2.808091905381944
 20
-4.092461480034722
 30
0.0
 10
2.978678385416667
 20
-4.139553493923611
 30
0.0
  0
SPLINE
  5
5E
330
1F
100
AcDbEntity
  8
Layer 1
370
     0
100
AcDbSpline
210
0.0
220
0.0
230
1.0
 70
    11
 71
     3
 72
    23
 73
    19
 74
     0
 42
0.0000000001
 43
0.0000000001
 40
0.0
 40
0.0
 40
0.0
 40
0.0
 40
1.0
 40
1.0
 40
1.0
 40
2.0
 40
2.0
 40
2.0
 40
3.0
 40
3.0
 40
3.0
 40
4.0
 40
4.0
 40
4.0
 40
5.0
 40
5.0
 40
5.0
 40
6.0
 40
6.0
 40
6.0
 40
6.0
 10
1.66986083984375
 20
-5.472832573784722
 30
0.0
 10
1.853305392795139
 20
-5.297566731770833
 30
0.0
 10
2.04248046875
 20
-5.116739908854166
 30
0.0
 10
2.197977701822917
 20
-5.001498752170138
 30
0.0
 10
2.207248263888889
 20
-5.207255045572916
 30
0.0
 10
2.252251519097222
 20
-5.388197157118055
 30
0.0
 10
2.310329861111111
 20
-5.539625379774305
 30
0.0
 10
2.271192762586805
 20
-5.580349392361111
 30
0.0
 10
2.231438530815972
 20
-5.62164306640625
 30
0.0
 10
2.190789116753472
 20
-5.663953993055555
 30
0.0
 10
2.133809407552083
 20
-5.723192003038194
 30
0.0
 10
2.0753173828125
 20
-5.784335666232638
 30
0.0
 10
2.016059027777778
 20
-5.84503173828125
 30
0.0
 10
1.890970865885417
 20
-5.720594618055555
 30
0.0
 10
1.763339572482639
 20
-5.600830078125
 30
0.0
 10
1.638807508680555
 20
-5.502285427517361
 30
0.0
 10
1.649251302083333
 20
-5.49249267578125
 30
0.0
 10
1.659491644965278
 20
-5.482584635416666
 30
0.0
 10
1.66986083984375
 20
-5.472832573784722
 30
0.0
  0
SPLINE
  5
5F
330
1F
100
AcDbEntity
  8
Layer 1
370
     0
100
AcDbSpline
210
0.0
220
0.0
230
1.0
 70
    11
 71
     3
 72
    17
 73
    13
 74
     0
 42
0.0000000001
 43
0.0000000001
 40
0.0
 40
0.0
 40
0.0
 40
0.0
 40
1.0
 40
1.0
 40
1.0
 40
2.0
 40
2.0
 40
2.0
 40
3.0
 40
3.0
 40
3.0
 40
4.0
 40
4.0
 40
4.0
 40
4.0
 10
1.925279405381944
 20
-5.936659071180555
 30
0.0
 10
1.798536512586805
 20
-6.062974717881944
 30
0.0
 10
1.66986083984375
 20
-6.183919270833333
 30
0.0
 10
1.546230740017361
 20
-6.280504014756944
 30
0.0
 10
1.410298665364583
 20
-6.151828342013888
 30
0.0
 10
1.275682237413194
 20
-6.028415256076388
 30
0.0
 10
1.154812282986111
 20
-5.935411241319444
 30
0.0
 10
1.275119357638889
 20
-5.843031141493055
 30
0.0
 10
1.409322102864583
 20
-5.720377604166666
 30
0.0
 10
1.544576009114583
 20
-5.592108832465278
 30
0.0
 10
1.668680826822917
 20
-5.68890380859375
 30
0.0
 10
1.798055013020833
 20
-5.809916178385416
 30
0.0
 10
1.925279405381944
 20
-5.936659071180555
 30
0.0
  0
SPLINE
  5
60
330
1F
100
AcDbEntity
  8
Layer 1
370
     0
100
AcDbSpline
210
0.0
220
0.0
230
1.0
 70
    11
 71
     3
 72
    23
 73
    19
 74
     0
 42
0.0000000001
 43
0.0000000001
 40
0.0
 40
0.0
 40
0.0
 40
0.0
 40
1.0
 40
1.0
 40
1.0
 40
2.0
 40
2.0
 40
2.0
 40
3.0
 40
3.0
 40
3.0
 40
4.0
 40
4.0
 40
4.0
 40
5.0
 40
5.0
 40
5.0
 40
6.0
 40
6.0
 40
6.0
 40
6.0
 10
2.016059027777778
 20
-6.028130425347222
 30
0.0
 10
2.075453016493055
 20
-6.089029947916666
 30
0.0
 10
2.134229871961805
 20
-6.149888780381944
 30
0.0
 10
2.191277398003472
 20
-6.209228515625
 30
0.0
 10
2.233181423611111
 20
-6.253119574652778
 30
0.0
 10
2.274590386284722
 20
-6.296061197916666
 30
0.0
 10
2.315171983506944
 20
-6.338039822048611
 30
0.0
 10
2.256612141927083
 20
-6.4871826171875
 30
0.0
 10
2.20965576171875
 20
-6.6658935546875
 30
0.0
 10
2.197977701822917
 20
-6.869967990451388
 30
0.0
 10
2.042405870225694
 20
-6.754557291666666
 30
0.0
 10
1.853162977430555
 20
-6.57373046875
 30
0.0
 10
1.669793023003472
 20
-6.398193359375
 30
0.0
 10
1.659762912326389
 20
-6.388929578993055
 30
0.0
 10
1.650221082899305
 20
-6.379543728298611
 30
0.0
 10
1.640550401475694
 20
-6.370334201388888
 30
0.0
 10
1.764519585503472
 20
-6.271782769097221
 30
0.0
 10
1.891533745659722
 20
-6.152452256944444
 30
0.0
 10
2.016059027777778
 20
-6.028130425347222
 30
0.0
  0
SPLINE
  5
61
330
1F
100
AcDbEntity
  8
Layer 1
370
     0
100
AcDbSpline
210
0.0
220
0.0
230
1.0
 70
    11
 71
     3
 72
    29
 73
    25
 74
     0
 42
0.0000000001
 43
0.0000000001
 40
0.0
 40
0.0
 40
0.0
 40
0.0
 40
1.0
 40
1.0
 40
1.0
 40
2.0
 40
2.0
 40
2.0
 40
3.0
 40
3.0
 40
3.0
 40
4.0
 40
4.0
 40
4.0
 40
5.0
 40
5.0
 40
5.0
 40
6.0
 40
6.0
 40
6.0
 40
7.0
 40
7.0
 40
7.0
 40
8.0
 40
8.0
 40
8.0
 40
8.0
 10
2.476704915364583
 20
-7.843085394965278
 30
0.0
 10
2.414048936631944
 20
-7.583713107638888
 30
0.0
 10
2.349534776475694
 20
-7.315660264756944
 30
0.0
 10
2.331081814236111
 20
-7.1201171875
 30
0.0
 10
2.330661349826389
 20
-7.115668402777778
 30
0.0
 10
2.330464680989583
 20
-7.110853407118055
 30
0.0
 10
2.329969618055555
 20
-7.106363932291666
 30
0.0
 10
2.509955512152778
 20
-7.203586154513888
 30
0.0
 10
2.687099880642361
 20
-7.257975260416666
 30
0.0
 10
2.846611870659722
 20
-7.286539713541666
 30
0.0
 10
2.848890516493055
 20
-7.295315212673611
 30
0.0
 10
2.850972493489583
 20
-7.304104275173611
 30
0.0
 10
2.85345458984375
 20
-7.312744140625
 30
0.0
 10
2.8695068359375
 20
-7.369791666666666
 30
0.0
 10
2.886372884114583
 20
-7.428209092881944
 30
0.0
 10
2.903516981336805
 20
-7.487765842013888
 30
0.0
 10
2.926751030815972
 20
-7.568359375
 30
0.0
 10
2.950602213541667
 20
-7.651190863715278
 30
0.0
 10
2.973700629340278
 20
-7.734673394097221
 30
0.0
 10
2.802571614583333
 20
-7.782362196180555
 30
0.0
 10
2.635308159722222
 20
-7.834771050347221
 30
0.0
 10
2.489210340711805
 20
-7.895412868923611
 30
0.0
 10
2.485066731770833
 20
-7.877916124131944
 30
0.0
 10
2.480977376302083
 20
-7.860514322916666
 30
0.0
 10
2.476704915364583
 20
-7.843085394965278
 30
0.0
  0
SPLINE
  5
62
330
1F
100
AcDbEntity
  8
Layer 1
370
     0
100
AcDbSpline
210
0.0
220
0.0
230
1.0
 70
    11
 71
     3
 72
    26
 73
    22
 74
     0
 42
0.0000000001
 43
0.0000000001
 40
0.0
 40
0.0
 40
0.0
 40
0.0
 40
1.0
 40
1.0
 40
1.0
 40
2.0
 40
2.0
 40
2.0
 40
3.0
 40
3.0
 40
3.0
 40
4.0
 40
4.0
 40
4.0
 40
5.0
 40
5.0
 40
5.0
 40
6.0
 40
6.0
 40
6.0
 40
7.0
 40
7.0
 40
7.0
 40
7.0
 10
3.131625705295139
 20
-7.825385199652778
 30
0.0
 10
3.223720974392361
 20
-7.801323784722221
 30
0.0
 10
3.315680609809028
 20
-7.778361002604166
 30
0.0
 10
3.405022515190972
 20
-7.755750868055555
 30
0.0
 10
3.465176052517361
 20
-7.740668402777778
 30
0.0
 10
3.524278428819444
 20
-7.725870768229166
 30
0.0
 10
3.581814236111111
 20
-7.7113037109375
 30
0.0
 10
3.583475748697917
 20
-7.710883246527778
 30
0.0
 10
3.585130479600694
 20
-7.710191514756944
 30
0.0
 10
3.586866590711805
 20
-7.7098388671875
 30
0.0
 10
3.689195421006944
 20
-7.834431966145833
 30
0.0
 10
3.823126898871528
 20
-7.962348090277778
 30
0.0
 10
3.995639377170139
 20
-8.071736653645832
 30
0.0
 10
3.817532009548611
 20
-8.151665581597221
 30
0.0
 10
3.559828016493055
 20
-8.228135850694445
 30
0.0
 10
3.310011121961805
 20
-8.3021240234375
 30
0.0
 10
3.286220974392361
 20
-8.309095594618055
 30
0.0
 10
3.262647840711805
 20
-8.316094292534721
 30
0.0
 10
3.238796657986111
 20
-8.323160807291666
 30
0.0
 10
3.216254340277778
 20
-8.166327582465277
 30
0.0
 10
3.176771375868055
 20
-7.99609375
 30
0.0
 10
3.131625705295139
 20
-7.825385199652778
 30
0.0
  0
SPLINE
  5
63
330
1F
100
AcDbEntity
  8
Layer 1
370
     0
100
AcDbSpline
210
0.0
220
0.0
230
1.0
 70
    11
 71
     3
 72
    71
 73
    67
 74
     0
 42
0.0000000001
 43
0.0000000001
 40
0.0
 40
0.0
 40
0.0
 40
0.0
 40
1.0
 40
1.0
 40
1.0
 40
2.0
 40
2.0
 40
2.0
 40
3.0
 40
3.0
 40
3.0
 40
4.0
 40
4.0
 40
4.0
 40
5.0
 40
5.0
 40
5.0
 40
6.0
 40
6.0
 40
6.0
 40
7.0
 40
7.0
 40
7.0
 40
8.0
 40
8.0
 40
8.0
 40
9.0
 40
9.0
 40
9.0
 40
10.0
 40
10.0
 40
10.0
 40
11.0
 40
11.0
 40
11.0
 40
12.0
 40
12.0
 40
12.0
 40
13.0
 40
13.0
 40
13.0
 40
14.0
 40
14.0
 40
14.0
 40
15.0
 40
15.0
 40
15.0
 40
16.0
 40
16.0
 40
16.0
 40
17.0
 40
17.0
 40
17.0
 40
18.0
 40
18.0
 40
18.0
 40
19.0
 40
19.0
 40
19.0
 40
20.0
 40
20.0
 40
20.0
 40
21.0
 40
21.0
 40
21.0
 40
22.0
 40
22.0
 40
22.0
 40
22.0
 10
3.346733940972222
 20
-8.42575412326389
 30
0.0
 10
3.60662841796875
 20
-8.348673502604166
 30
0.0
 10
3.875881618923611
 20
-8.268934461805555
 30
0.0
 10
4.06243896484375
 20
-8.183064778645832
 30
0.0
 10
4.086079915364583
 20
-8.172132703993055
 30
0.0
 10
4.108757866753472
 20
-8.16086154513889
 30
0.0
 10
4.131083170572916
 20
-8.149454752604166
 30
0.0
 10
4.153632269965278
 20
-8.16086154513889
 30
0.0
 10
4.176310221354166
 20
-8.172132703993055
 30
0.0
 10
4.199964735243055
 20
-8.183064778645832
 30
0.0
 10
4.386515299479166
 20
-8.268934461805555
 30
0.0
 10
4.655476888020833
 20
-8.348673502604166
 30
0.0
 10
4.91552734375
 20
-8.42587619357639
 30
0.0
 10
4.934665256076388
 20
-8.43154568142361
 30
0.0
 10
4.953762478298611
 20
-8.437093098958332
 30
0.0
 10
4.972832573784722
 20
-8.442952473958332
 30
0.0
 10
4.968926323784722
 20
-8.488661024305555
 30
0.0
 10
4.966620551215278
 20
-8.532701280381945
 30
0.0
 10
4.966620551215278
 20
-8.574842664930555
 30
0.0
 10
4.966620551215278
 20
-8.827840169270832
 30
0.0
 10
5.062717013888888
 20
-9.023301866319445
 30
0.0
 10
5.1279296875
 20
-9.126803927951388
 30
0.0
 10
5.081529405381944
 20
-9.13427734375
 30
0.0
 10
5.020751953125
 20
-9.138075086805555
 30
0.0
 10
4.958591037326388
 20
-9.12466091579861
 30
0.0
 10
4.871893988715278
 20
-9.106119791666666
 30
0.0
 10
4.792575412326388
 20
-9.066148546006945
 30
0.0
 10
4.791761610243055
 20
-9.065863715277777
 30
0.0
 10
4.791761610243055
 20
-9.065863715277777
 30
0.0
 10
4.753648546006944
 20
-9.046576605902777
 30
0.0
 10
4.753648546006944
 20
-9.046576605902777
 30
0.0
 10
4.753648546006944
 20
-9.046576605902777
 30
0.0
 10
4.721082899305555
 20
-9.073838975694445
 30
0.0
 10
4.721082899305555
 20
-9.073838975694445
 30
0.0
 10
4.719156901041666
 20
-9.075425889756945
 30
0.0
 10
4.519178602430555
 20
-9.314249674479166
 30
0.0
 10
4.377183702256945
 20
-9.431016710069445
 30
0.0
 10
4.312174479166666
 20
-9.484673394097221
 30
0.0
 10
4.183865017361111
 20
-9.608045789930555
 30
0.0
 10
4.112833658854166
 20
-9.607747395833332
 30
0.0
 10
4.041965060763888
 20
-9.608045789930555
 30
0.0
 10
3.92144775390625
 20
-9.500311957465277
 30
0.0
 10
3.848843044704861
 20
-9.431016710069445
 30
0.0
 10
3.736348470052083
 20
-9.324055989583332
 30
0.0
 10
3.506720648871528
 20
-9.075425889756945
 30
0.0
 10
3.504720052083333
 20
-9.073838975694445
 30
0.0
 10
3.504720052083333
 20
-9.073838975694445
 30
0.0
 10
3.471950954861111
 20
-9.046576605902777
 30
0.0
 10
3.471950954861111
 20
-9.046576605902777
 30
0.0
 10
3.471950954861111
 20
-9.046576605902777
 30
0.0
 10
3.434061686197917
 20
-9.065863715277777
 30
0.0
 10
3.434061686197917
 20
-9.065863715277777
 30
0.0
 10
3.4332275390625
 20
-9.066148546006945
 30
0.0
 10
3.354051378038194
 20
-9.106119791666666
 30
0.0
 10
3.267076280381944
 20
-9.12466091579861
 30
0.0
 10
3.205254448784722
 20
-9.138075086805555
 30
0.0
 10
3.144415961371528
 20
-9.13427734375
 30
0.0
 10
3.097880045572917
 20
-9.126803927951388
 30
0.0
 10
3.1630859375
 20
-9.023301866319445
 30
0.0
 10
3.259121365017361
 20
-8.827840169270832
 30
0.0
 10
3.259121365017361
 20
-8.574842664930555
 30
0.0
 10
3.259121365017361
 20
-8.535888671875
 30
0.0
 10
3.257175021701389
 20
-8.495171440972221
 30
0.0
 10
3.253865559895833
 20
-8.45334201388889
 30
0.0
 10
3.284634060329861
 20
-8.444010416666666
 30
0.0
 10
3.315680609809028
 20
-8.4349365234375
 30
0.0
 10
3.346733940972222
 20
-8.42575412326389
 30
0.0
  0
SPLINE
  5
64
330
1F
100
AcDbEntity
  8
Layer 1
370
     0
100
AcDbSpline
210
0.0
220
0.0
230
1.0
 70
    11
 71
     3
 72
    26
 73
    22
 74
     0
 42
0.0000000001
 43
0.0000000001
 40
0.0
 40
0.0
 40
0.0
 40
0.0
 40
1.0
 40
1.0
 40
1.0
 40
2.0
 40
2.0
 40
2.0
 40
3.0
 40
3.0
 40
3.0
 40
4.0
 40
4.0
 40
4.0
 40
5.0
 40
5.0
 40
5.0
 40
6.0
 40
6.0
 40
6.0
 40
7.0
 40
7.0
 40
7.0
 40
7.0
 10
4.952162000868055
 20
-8.30234103732639
 30
0.0
 10
4.702568901909722
 20
-8.228203667534721
 30
0.0
 10
4.444932725694444
 20
-8.151665581597221
 30
0.0
 10
4.266886393229166
 20
-8.071736653645832
 30
0.0
 10
4.439683702256945
 20
-7.962144639756944
 30
0.0
 10
4.573961046006944
 20
-7.834025065104166
 30
0.0
 10
4.676622178819444
 20
-7.708875868055555
 30
0.0
 10
4.678561740451388
 20
-7.709364149305555
 30
0.0
 10
4.680501302083333
 20
-7.709974500868055
 30
0.0
 10
4.682223849826388
 20
-7.710611979166666
 30
0.0
 10
4.739556206597222
 20
-7.724989149305555
 30
0.0
 10
4.798624674479166
 20
-7.739922417534721
 30
0.0
 10
4.858900282118055
 20
-7.754842122395833
 30
0.0
 10
4.936618381076388
 20
-7.774278428819444
 30
0.0
 10
5.016547309027778
 20
-7.794406467013888
 30
0.0
 10
5.096815321180555
 20
-7.815144856770833
 30
0.0
 10
5.051595052083333
 20
-7.985582139756944
 30
0.0
 10
5.011922200520833
 20
-8.1558837890625
 30
0.0
 10
4.988538953993055
 20
-8.31298828125
 30
0.0
 10
4.976277669270833
 20
-8.309529622395832
 30
0.0
 10
4.964124891493055
 20
-8.305853949652777
 30
0.0
 10
4.952162000868055
 20
-8.30234103732639
 30
0.0
  0
SPLINE
  5
65
330
1F
100
AcDbEntity
  8
Layer 1
370
     0
100
AcDbSpline
210
0.0
220
0.0
230
1.0
 70
    11
 71
     3
 72
    17
 73
    13
 74
     0
 42
0.0000000001
 43
0.0000000001
 40
0.0
 40
0.0
 40
0.0
 40
0.0
 40
1.0
 40
1.0
 40
1.0
 40
2.0
 40
2.0
 40
2.0
 40
3.0
 40
3.0
 40
3.0
 40
4.0
 40
4.0
 40
4.0
 40
4.0
 10
5.221421983506944
 20
-7.848198784722221
 30
0.0
 10
5.393853081597222
 20
-7.895345052083333
 30
0.0
 10
5.562703450520833
 20
-7.9466552734375
 30
0.0
 10
5.708387586805555
 20
-8.005777994791666
 30
0.0
 10
5.665052625868055
 20
-8.187879774305555
 30
0.0
 10
5.625623914930555
 20
-8.36642795138889
 30
0.0
 10
5.605631510416666
 20
-8.51791720920139
 30
0.0
 10
5.4647216796875
 20
-8.4593505859375
 30
0.0
 10
5.291598849826388
 20
-8.403971354166666
 30
0.0
 10
5.113484700520833
 20
-8.35031467013889
 30
0.0
 10
5.135267469618055
 20
-8.194254557291666
 30
0.0
 10
5.175374348958333
 20
-8.021809895833332
 30
0.0
 10
5.221421983506944
 20
-7.848198784722221
 30
0.0
  0
SPLINE
  5
66
330
1F
100
AcDbEntity
  8
Layer 1
370
     0
100
AcDbSpline
210
0.0
220
0.0
230
1.0
 70
    11
 71
     3
 72
    26
 73
    22
 74
     0
 42
0.0000000001
 43
0.0000000001
 40
0.0
 40
0.0
 40
0.0
 40
0.0
 40
1.0
 40
1.0
 40
1.0
 40
2.0
 40
2.0
 40
2.0
 40
3.0
 40
3.0
 40
3.0
 40
4.0
 40
4.0
 40
4.0
 40
5.0
 40
5.0
 40
5.0
 40
6.0
 40
6.0
 40
6.0
 40
7.0
 40
7.0
 40
7.0
 40
7.0
 10
5.255289713541666
 20
-7.723809136284721
 30
0.0
 10
5.277425130208333
 20
-7.644097222222221
 30
0.0
 10
5.300021701388888
 20
-7.564914279513888
 30
0.0
 10
5.322075737847222
 20
-7.487765842013888
 30
0.0
 10
5.3392333984375
 20
-7.428209092881944
 30
0.0
 10
5.356377495659722
 20
-7.369791666666666
 30
0.0
 10
5.372287326388888
 20
-7.312744140625
 30
0.0
 10
5.374009874131944
 20
-7.306328667534721
 30
0.0
 10
5.375745985243055
 20
-7.299886067708333
 30
0.0
 10
5.377468532986111
 20
-7.293524848090278
 30
0.0
 10
5.535264756944444
 20
-7.268839518229166
 30
0.0
 10
5.712131076388888
 20
-7.219401041666666
 30
0.0
 10
5.893012152777778
 20
-7.127726236979166
 30
0.0
 10
5.873575846354166
 20
-7.322441948784721
 30
0.0
 10
5.809339735243055
 20
-7.587931315104166
 30
0.0
 10
5.747246636284722
 20
-7.844943576388888
 30
0.0
 10
5.744289822048611
 20
-7.856268988715278
 30
0.0
 10
5.741644965277778
 20
-7.867689344618055
 30
0.0
 10
5.738755967881944
 20
-7.879163953993055
 30
0.0
 10
5.591322157118055
 20
-7.820882161458333
 30
0.0
 10
5.424628363715278
 20
-7.770128038194444
 30
0.0
 10
5.255289713541666
 20
-7.723809136284721
 30
0.0
  0
SPLINE
  5
67
330
1F
100
AcDbEntity
  8
Layer 1
370
     0
100
AcDbSpline
210
0.0
220
0.0
230
1.0
 70
    11
 71
     3
 72
    29
 73
    25
 74
     0
 42
0.0000000001
 43
0.0000000001
 40
0.0
 40
0.0
 40
0.0
 40
0.0
 40
1.0
 40
1.0
 40
1.0
 40
2.0
 40
2.0
 40
2.0
 40
3.0
 40
3.0
 40
3.0
 40
4.0
 40
4.0
 40
4.0
 40
5.0
 40
5.0
 40
5.0
 40
6.0
 40
6.0
 40
6.0
 40
7.0
 40
7.0
 40
7.0
 40
8.0
 40
8.0
 40
8.0
 40
8.0
 10
6.593153211805555
 20
-6.3988037109375
 30
0.0
 10
6.400336371527778
 20
-6.583089192708333
 30
0.0
 10
6.200629340277778
 20
-6.773695203993055
 30
0.0
 10
6.041029188368055
 20
-6.887654622395833
 30
0.0
 10
6.036607530381944
 20
-6.890760633680555
 30
0.0
 10
6.032402886284722
 20
-6.8936767578125
 30
0.0
 10
6.027967664930555
 20
-6.896701388888888
 30
0.0
 10
6.019463433159722
 20
-6.693901909722221
 30
0.0
 10
5.976128472222222
 20
-6.515190972222221
 30
0.0
 10
5.919908311631944
 20
-6.364569769965278
 30
0.0
 10
5.928412543402778
 20
-6.356214735243055
 30
0.0
 10
5.936984592013888
 20
-6.347913953993055
 30
0.0
 10
5.945136176215278
 20
-6.339491102430555
 30
0.0
 10
5.986490885416666
 20
-6.2967529296875
 30
0.0
 10
6.028523763020833
 20
-6.252861870659721
 30
0.0
 10
6.071614583333333
 20
-6.208116319444444
 30
0.0
 10
6.128512912326388
 20
-6.148708767361111
 30
0.0
 10
6.1875
 20
-6.087456597222222
 30
0.0
 10
6.246826171875
 20
-6.026679144965278
 30
0.0
 10
6.371961805555555
 20
-6.151068793402778
 30
0.0
 10
6.4993896484375
 20
-6.270765516493055
 30
0.0
 10
6.623860677083333
 20
-6.369425455729166
 30
0.0
 10
6.613688151041666
 20
-6.379177517361111
 30
0.0
 10
6.603312174479166
 20
-6.388983832465278
 30
0.0
 10
6.593153211805555
 20
-6.3988037109375
 30
0.0
  0
SPLINE
  5
68
330
1F
100
AcDbEntity
  8
Layer 1
370
     0
100
AcDbSpline
210
0.0
220
0.0
230
1.0
 70
    11
 71
     3
 72
    17
 73
    13
 74
     0
 42
0.0000000001
 43
0.0000000001
 40
0.0
 40
0.0
 40
0.0
 40
0.0
 40
1.0
 40
1.0
 40
1.0
 40
2.0
 40
2.0
 40
2.0
 40
3.0
 40
3.0
 40
3.0
 40
4.0
 40
4.0
 40
4.0
 40
4.0
 10
6.3375244140625
 20
-5.934977213541666
 30
0.0
 10
6.464328342013888
 20
-5.808458116319444
 30
0.0
 10
6.593153211805555
 20
-5.687744140625
 30
0.0
 10
6.716715494791666
 20
-5.591145833333333
 30
0.0
 10
6.852579752604166
 20
-5.719957139756944
 30
0.0
 10
6.987196180555555
 20
-5.843309190538194
 30
0.0
 10
7.1083984375
 20
-5.936238606770833
 30
0.0
 10
6.987901475694444
 20
-6.0286865234375
 30
0.0
 10
6.853610568576388
 20
-6.151502821180555
 30
0.0
 10
6.718438042534721
 20
-6.279527452256944
 30
0.0
 10
6.594265407986111
 20
-6.183024088541666
 30
0.0
 10
6.464748806423611
 20
-6.061794704861111
 30
0.0
 10
6.3375244140625
 20
-5.934977213541666
 30
0.0
  0
SPLINE
  5
69
330
1F
100
AcDbEntity
  8
Layer 1
370
     0
100
AcDbSpline
210
0.0
220
0.0
230
1.0
 70
    11
 71
     3
 72
   113
 73
   109
 74
     0
 42
0.0000000001
 43
0.0000000001
 40
0.0
 40
0.0
 40
0.0
 40
0.0
 40
1.0
 40
1.0
 40
1.0
 40
2.0
 40
2.0
 40
2.0
 40
3.0
 40
3.0
 40
3.0
 40
4.0
 40
4.0
 40
4.0
 40
5.0
 40
5.0
 40
5.0
 40
6.0
 40
6.0
 40
6.0
 40
7.0
 40
7.0
 40
7.0
 40
8.0
 40
8.0
 40
8.0
 40
9.0
 40
9.0
 40
9.0
 40
10.0
 40
10.0
 40
10.0
 40
11.0
 40
11.0
 40
11.0
 40
12.0
 40
12.0
 40
12.0
 40
13.0
 40
13.0
 40
13.0
 40
14.0
 40
14.0
 40
14.0
 40
15.0
 40
15.0
 40
15.0
 40
16.0
 40
16.0
 40
16.0
 40
17.0
 40
17.0
 40
17.0
 40
18.0
 40
18.0
 40
18.0
 40
19.0
 40
19.0
 40
19.0
 40
20.0
 40
20.0
 40
20.0
 40
21.0
 40
21.0
 40
21.0
 40
22.0
 40
22.0
 40
22.0
 40
23.0
 40
23.0
 40
23.0
 40
24.0
 40
24.0
 40
24.0
 40
25.0
 40
25.0
 40
25.0
 40
26.0
 40
26.0
 40
26.0
 40
27.0
 40
27.0
 40
27.0
 40
28.0
 40
28.0
 40
28.0
 40
29.0
 40
29.0
 40
29.0
 40
30.0
 40
30.0
 40
30.0
 40
31.0
 40
31.0
 40
31.0
 40
32.0
 40
32.0
 40
32.0
 40
33.0
 40
33.0
 40
33.0
 40
34.0
 40
34.0
 40
34.0
 40
35.0
 40
35.0
 40
35.0
 40
36.0
 40
36.0
 40
36.0
 40
36.0
 10
2.630466037326389
 20
-2.277445475260417
 30
0.0
 10
2.850897894965278
 20
-2.266859266493055
 30
0.0
 10
3.201883951822917
 20
-2.336703830295139
 30
0.0
 10
3.205471462673611
 20
-2.337320963541667
 30
0.0
 10
3.205471462673611
 20
-2.337320963541667
 30
0.0
 10
3.234375
 20
-2.343275282118055
 30
0.0
 10
3.234375
 20
-2.343275282118055
 30
0.0
 10
3.234375
 20
-2.343275282118055
 30
0.0
 10
3.257737901475694
 20
-2.325154622395833
 30
0.0
 10
3.257737901475694
 20
-2.325154622395833
 30
0.0
 10
3.259752061631944
 20
-2.323432074652778
 30
0.0
 10
3.506313747829861
 20
-2.072150336371528
 30
0.0
 10
3.675150553385417
 20
-1.95343017578125
 30
0.0
 10
3.824720594618055
 20
-1.848069932725694
 30
0.0
 10
4.019849989149305
 20
-1.758104112413194
 30
0.0
 10
4.114915635850695
 20
-1.758036295572917
 30
0.0
 10
4.209988064236111
 20
-1.758104112413194
 30
0.0
 10
4.424669053819445
 20
-1.871432834201389
 30
0.0
 10
4.554660373263888
 20
-1.953857421875
 30
0.0
 10
4.7266845703125
 20
-2.062967936197917
 30
0.0
 10
4.9696044921875
 20
-2.324327256944444
 30
0.0
 10
4.972073025173611
 20
-2.325914171006944
 30
0.0
 10
4.972073025173611
 20
-2.325914171006944
 30
0.0
 10
4.995185004340278
 20
-2.343953450520833
 30
0.0
 10
4.995185004340278
 20
-2.343953450520833
 30
0.0
 10
4.995185004340278
 20
-2.343953450520833
 30
0.0
 10
5.024020724826388
 20
-2.338433159722222
 30
0.0
 10
5.024020724826388
 20
-2.338433159722222
 30
0.0
 10
5.027533637152778
 20
-2.337666829427083
 30
0.0
 10
5.378648546006944
 20
-2.268113878038194
 30
0.0
 10
5.599080403645833
 20
-2.278761121961805
 30
0.0
 10
5.768893771701388
 20
-2.287061903211805
 30
0.0
 10
5.876695421006944
 20
-2.338433159722222
 30
0.0
 10
5.933729383680555
 20
-2.375766330295139
 30
0.0
 10
5.820949978298611
 20
-2.490898980034722
 30
0.0
 10
5.583224826388888
 20
-2.785651312934028
 30
0.0
 10
5.594523111979166
 20
-3.219041612413194
 30
0.0
 10
5.459540473090278
 20
-3.278510199652778
 30
0.0
 10
5.282674153645833
 20
-3.335896809895833
 30
0.0
 10
5.097927517361111
 20
-3.391696506076389
 30
0.0
 10
5.096625434027778
 20
-3.366461859809028
 30
0.0
 10
5.095445421006944
 20
-3.341559516059028
 30
0.0
 10
5.095445421006944
 20
-3.317640516493055
 30
0.0
 10
5.095445421006944
 20
-2.993008083767361
 30
0.0
 10
5.282063802083333
 20
-2.770582411024305
 30
0.0
 10
5.283989800347222
 20
-2.768364800347222
 30
0.0
 10
5.283989800347222
 20
-2.768364800347222
 30
0.0
 10
5.343858506944444
 20
-2.698872884114583
 30
0.0
 10
5.343858506944444
 20
-2.698872884114583
 30
0.0
 10
5.343858506944444
 20
-2.698872884114583
 30
0.0
 10
5.258409288194444
 20
-2.666029188368055
 30
0.0
 10
5.258409288194444
 20
-2.666029188368055
 30
0.0
 10
5.2518310546875
 20
-2.663479275173611
 30
0.0
 10
5.098904079861111
 20
-2.605740017361111
 30
0.0
 10
4.931776258680555
 20
-2.641621907552083
 30
0.0
 10
4.867607964409722
 20
-2.655449761284722
 30
0.0
 10
4.808756510416666
 20
-2.678134494357639
 30
0.0
 10
4.772054036458333
 20
-2.693698459201389
 30
0.0
 10
4.706095377604166
 20
-2.641682942708333
 30
0.0
 10
4.555080837673611
 20
-2.449605305989583
 30
0.0
 10
4.417751736111111
 20
-2.338982476128472
 30
0.0
 10
4.339287651909722
 20
-2.275722927517361
 30
0.0
 10
4.194281684027778
 20
-2.155687120225694
 30
0.0
 10
4.114291720920138
 20
-2.15582275390625
 30
0.0
 10
4.114291720920138
 20
-2.15582275390625
 30
0.0
 10
4.114291720920138
 20
-2.155687120225694
 30
0.0
 10
4.114291720920138
 20
-2.155687120225694
 30
0.0
 10
4.113878038194445
 20
-2.155687120225694
 30
0.0
 10
4.113396538628472
 20
-2.15582275390625
 30
0.0
 10
4.112833658854166
 20
-2.15582275390625
 30
0.0
 10
4.112494574652778
 20
-2.15582275390625
 30
0.0
 10
4.112013075086805
 20
-2.155687120225694
 30
0.0
 10
4.111660427517361
 20
-2.155687120225694
 30
0.0
 10
4.111660427517361
 20
-2.155687120225694
 30
0.0
 10
4.111660427517361
 20
-2.15582275390625
 30
0.0
 10
4.111660427517361
 20
-2.15582275390625
 30
0.0
 10
4.031670464409722
 20
-2.155687120225694
 30
0.0
 10
3.903605143229167
 20
-2.259819878472222
 30
0.0
 10
3.807840983072917
 20
-2.338982476128472
 30
0.0
 10
3.699842664930555
 20
-2.4285888671875
 30
0.0
 10
3.519863552517361
 20
-2.641682942708333
 30
0.0
 10
3.453762478298611
 20
-2.693698459201389
 30
0.0
 10
3.417046440972222
 20
-2.678134494357639
 30
0.0
 10
3.358072916666667
 20
-2.655449761284722
 30
0.0
 10
3.293972439236111
 20
-2.641621907552083
 30
0.0
 10
3.126851399739583
 20
-2.605740017361111
 30
0.0
 10
2.973971896701389
 20
-2.663479275173611
 30
0.0
 10
2.967536078559028
 20
-2.666029188368055
 30
0.0
 10
2.967536078559028
 20
-2.666029188368055
 30
0.0
 10
2.882012261284722
 20
-2.698872884114583
 30
0.0
 10
2.882012261284722
 20
-2.698872884114583
 30
0.0
 10
2.882012261284722
 20
-2.698872884114583
 30
0.0
 10
2.94189453125
 20
-2.768364800347222
 30
0.0
 10
2.94189453125
 20
-2.768364800347222
 30
0.0
 10
2.943549262152778
 20
-2.770582411024305
 30
0.0
 10
3.130235460069444
 20
-2.993008083767361
 30
0.0
 10
3.130235460069444
 20
-3.317640516493055
 30
0.0
 10
3.130235460069444
 20
-3.337958441840278
 30
0.0
 10
3.129611545138889
 20
-3.358981662326389
 30
0.0
 10
3.128445095486111
 20
-3.380215115017361
 30
0.0
 10
2.941067165798611
 20
-3.322970920138889
 30
0.0
 10
2.764058430989583
 20
-3.263916015625
 30
0.0
 10
2.63433837890625
 20
-3.202724880642361
 30
0.0
 10
2.640021430121528
 20
-2.77734375
 30
0.0
 10
2.407199435763889
 20
-2.487779405381944
 30
0.0
 10
2.295674641927083
 20
-2.3739013671875
 30
0.0
 10
2.352789984809028
 20
-2.336629231770833
 30
0.0
 10
2.460652669270833
 20
-2.285468207465278
 30
0.0
 10
2.630466037326389
 20
-2.277445475260417
 30
0.0
  0
SPLINE
  5
6A
330
1F
100
AcDbEntity
  8
Layer 1
370
     0
100
AcDbSpline
210
0.0
220
0.0
230
1.0
 70
    11
 71
     3
 72
   110
 73
   106
 74
     0
 42
0.0000000001
 43
0.0000000001
 40
0.0
 40
0.0
 40
0.0
 40
0.0
 40
1.0
 40
1.0
 40
1.0
 40
2.0
 40
2.0
 40
2.0
 40
3.0
 40
3.0
 40
3.0
 40
4.0
 40
4.0
 40
4.0
 40
5.0
 40
5.0
 40
5.0
 40
6.0
 40
6.0
 40
6.0
 40
7.0
 40
7.0
 40
7.0
 40
8.0
 40
8.0
 40
8.0
 40
9.0
 40
9.0
 40
9.0
 40
10.0
 40
10.0
 40
10.0
 40
11.0
 40
11.0
 40
11.0
 40
12.0
 40
12.0
 40
12.0
 40
13.0
 40
13.0
 40
13.0
 40
14.0
 40
14.0
 40
14.0
 40
15.0
 40
15.0
 40
15.0
 40
16.0
 40
16.0
 40
16.0
 40
17.0
 40
17.0
 40
17.0
 40
18.0
 40
18.0
 40
18.0
 40
19.0
 40
19.0
 40
19.0
 40
20.0
 40
20.0
 40
20.0
 40
21.0
 40
21.0
 40
21.0
 40
22.0
 40
22.0
 40
22.0
 40
23.0
 40
23.0
 40
23.0
 40
24.0
 40
24.0
 40
24.0
 40
25.0
 40
25.0
 40
25.0
 40
26.0
 40
26.0
 40
26.0
 40
27.0
 40
27.0
 40
27.0
 40
28.0
 40
28.0
 40
28.0
 40
29.0
 40
29.0
 40
29.0
 40
30.0
 40
30.0
 40
30.0
 40
31.0
 40
31.0
 40
31.0
 40
32.0
 40
32.0
 40
32.0
 40
33.0
 40
33.0
 40
33.0
 40
34.0
 40
34.0
 40
34.0
 40
35.0
 40
35.0
 40
35.0
 40
35.0
 10
0.1292792426215278
 20
-5.717196994357638
 30
0.0
 10
0.1255425347222222
 20
-5.649013943142361
 30
0.0
 10
0.1353624131944444
 20
-5.529954698350694
 30
0.0
 10
0.2134195963541667
 20
-5.37921142578125
 30
0.0
 10
0.3148532443576389
 20
-5.183193630642361
 30
0.0
 10
0.5514662000868056
 20
-4.91436767578125
 30
0.0
 10
0.5538126627604166
 20
-4.911675347222222
 30
0.0
 10
0.5538126627604166
 20
-4.911675347222222
 30
0.0
 10
0.57318115234375
 20
-4.889614529079861
 30
0.0
 10
0.57318115234375
 20
-4.889614529079861
 30
0.0
 10
0.57318115234375
 20
-4.889614529079861
 30
0.0
 10
0.5691596137152778
 20
-4.860521104600694
 30
0.0
 10
0.5691596137152778
 20
-4.860521104600694
 30
0.0
 10
0.568752712673611
 20
-4.857733832465278
 30
0.0
 10
0.4748602973090277
 20
-4.518256293402778
 30
0.0
 10
0.4568142361111111
 20
-4.312811957465278
 30
0.0
 10
0.4407619900173611
 20
-4.130499945746528
 30
0.0
 10
0.4605441623263888
 20
-3.9166259765625
 30
0.0
 10
0.5083957248263888
 20
-3.834275987413194
 30
0.0
 10
0.5563083224826388
 20
-3.752143012152778
 30
0.0
 10
0.7617323133680555
 20
-3.62310791015625
 30
0.0
 10
0.8980848524305555
 20
-3.551968044704861
 30
0.0
 10
1.078959147135417
 20
-3.457722981770833
 30
0.0
 10
1.42681884765625
 20
-3.378621419270833
 30
0.0
 10
1.429443359375
 20
-3.377448187934028
 30
0.0
 10
1.429443359375
 20
-3.377448187934028
 30
0.0
 10
1.456556532118056
 20
-3.366461859809028
 30
0.0
 10
1.456556532118056
 20
-3.366461859809028
 30
0.0
 10
1.456556532118056
 20
-3.366461859809028
 30
0.0
 10
1.466240776909722
 20
-3.338589138454861
 30
0.0
 10
1.466240776909722
 20
-3.338589138454861
 30
0.0
 10
1.467400444878472
 20
-3.335191514756944
 30
0.0
 10
1.583367241753472
 20
-2.996527777777778
 30
0.0
 10
1.703050401475694
 20
-2.811374240451389
 30
0.0
 10
1.795220269097222
 20
-2.668585883246528
 30
0.0
 10
1.8936767578125
 20
-2.600958930121528
 30
0.0
 10
1.954522026909722
 20
-2.5701904296875
 30
0.0
 10
1.997049967447917
 20
-2.72369384765625
 30
0.0
 10
2.1304931640625
 20
-3.070651584201389
 30
0.0
 10
2.501166449652778
 20
-3.279262966579861
 30
0.0
 10
2.489142523871528
 20
-3.422939724392361
 30
0.0
 10
2.450839572482639
 20
-3.606648763020833
 30
0.0
 10
2.405958387586805
 20
-3.798597547743055
 30
0.0
 10
2.386467827690972
 20
-3.788438585069444
 30
0.0
 10
2.367451985677083
 20
-3.778130425347222
 30
0.0
 10
2.349188910590278
 20
-3.767768012152778
 30
0.0
 10
2.068203396267361
 20
-3.6048583984375
 30
0.0
 10
1.969529893663194
 20
-3.331963433159722
 30
0.0
 10
1.968709309895833
 20
-3.329386393229167
 30
0.0
 10
1.968709309895833
 20
-3.329386393229167
 30
0.0
 10
1.938544379340278
 20
-3.242757161458333
 30
0.0
 10
1.938544379340278
 20
-3.242757161458333
 30
0.0
 10
1.938544379340278
 20
-3.242757161458333
 30
0.0
 10
1.867268880208333
 20
-3.300150553385417
 30
0.0
 10
1.867268880208333
 20
-3.300150553385417
 30
0.0
 10
1.861735026041667
 20
-3.30450439453125
 30
0.0
 10
1.735134548611111
 20
-3.407870822482639
 30
0.0
 10
1.682237413194444
 20
-3.570624457465278
 30
0.0
 10
1.662258572048611
 20
-3.632724338107639
 30
0.0
 10
1.652092827690972
 20
-3.695163302951389
 30
0.0
 10
1.647318522135417
 20
-3.734931098090278
 30
0.0
 10
1.56939697265625
 20
-3.765889485677083
 30
0.0
 10
1.327121310763889
 20
-3.800259060329861
 30
0.0
 10
1.162767198350694
 20
-3.863396538628472
 30
0.0
 10
1.068732367621528
 20
-3.899820963541667
 30
0.0
 10
0.8920627170138888
 20
-3.964898003472222
 30
0.0
 10
0.8520982530381944
 20
-4.034172905815972
 30
0.0
 10
0.8519694010416666
 20
-4.034654405381945
 30
0.0
 10
0.8517523871527777
 20
-4.035135904947916
 30
0.0
 10
0.8515489366319444
 20
-4.035488552517361
 30
0.0
 10
0.8512708875868055
 20
-4.035759819878472
 30
0.0
 10
0.8509318033854166
 20
-4.036105685763888
 30
0.0
 10
0.850857204861111
 20
-4.036593967013888
 30
0.0
 10
0.8106146918402777
 20
-4.105875651041666
 30
0.0
 10
0.8364732530381944
 20
-4.268914116753472
 30
0.0
 10
0.8572252061631944
 20
-4.391025119357638
 30
0.0
 10
0.8805881076388888
 20
-4.529513888888888
 30
0.0
 10
0.9744873046875
 20
-4.792338053385416
 30
0.0
 10
0.9865858289930555
 20
-4.875508626302083
 30
0.0
 10
0.954433865017361
 20
-4.899359809027778
 30
0.0
 10
0.9051988389756944
 20
-4.938991970486111
 30
0.0
 10
0.861294216579861
 20
-4.987521701388888
 30
0.0
 10
0.7464531792534722
 20
-5.114047580295138
 30
0.0
 10
0.7198961046006944
 20
-5.275438096788194
 30
0.0
 10
0.7187228732638888
 20
-5.282219780815972
 30
0.0
 10
0.7187228732638888
 20
-5.282219780815972
 30
0.0
 10
0.7044745551215278
 20
-5.372870551215278
 30
0.0
 10
0.7044745551215278
 20
-5.372870551215278
 30
0.0
 10
0.7044745551215278
 20
-5.372870551215278
 30
0.0
 10
0.7944403754340277
 20
-5.355699327256944
 30
0.0
 10
0.7944403754340277
 20
-5.355699327256944
 30
0.0
 10
0.7973361545138888
 20
-5.355367024739583
 30
0.0
 10
1.082906087239583
 20
-5.305162217881944
 30
0.0
 10
1.364176432291667
 20
-5.468065049913194
 30
0.0
 10
1.388719346788194
 20
-5.482252332899305
 30
0.0
 10
1.413614908854167
 20
-5.497938368055555
 30
0.0
 10
1.438720703125
 20
-5.514811197916666
 30
0.0
 10
1.299323187934028
 20
-5.64666748046875
 30
0.0
 10
1.162346733940972
 20
-5.770643446180555
 30
0.0
 10
1.044392903645833
 20
-5.857340494791666
 30
0.0
 10
1.039272732204861
 20
-5.854166666666666
 30
0.0
 10
1.034227159288194
 20
-5.850640190972222
 30
0.0
 10
1.029513888888889
 20
-5.84759521484375
 30
0.0
 10
0.6599527994791666
 20
-5.619845920138888
 30
0.0
 10
0.2853257921006944
 20
-5.677435980902778
 30
0.0
 10
0.1292792426215278
 20
-5.717196994357638
 30
0.0
  0
SPLINE
  5
6B
330
1F
100
AcDbEntity
  8
Layer 1
370
     0
100
AcDbSpline
210
0.0
220
0.0
230
1.0
 70
    11
 71
     3
 72
   113
 73
   109
 74
     0
 42
0.0000000001
 43
0.0000000001
 40
0.0
 40
0.0
 40
0.0
 40
0.0
 40
1.0
 40
1.0
 40
1.0
 40
2.0
 40
2.0
 40
2.0
 40
3.0
 40
3.0
 40
3.0
 40
4.0
 40
4.0
 40
4.0
 40
5.0
 40
5.0
 40
5.0
 40
6.0
 40
6.0
 40
6.0
 40
7.0
 40
7.0
 40
7.0
 40
8.0
 40
8.0
 40
8.0
 40
9.0
 40
9.0
 40
9.0
 40
10.0
 40
10.0
 40
10.0
 40
11.0
 40
11.0
 40
11.0
 40
12.0
 40
12.0
 40
12.0
 40
13.0
 40
13.0
 40
13.0
 40
14.0
 40
14.0
 40
14.0
 40
15.0
 40
15.0
 40
15.0
 40
16.0
 40
16.0
 40
16.0
 40
17.0
 40
17.0
 40
17.0
 40
18.0
 40
18.0
 40
18.0
 40
19.0
 40
19.0
 40
19.0
 40
20.0
 40
20.0
 40
20.0
 40
21.0
 40
21.0
 40
21.0
 40
22.0
 40
22.0
 40
22.0
 40
23.0
 40
23.0
 40
23.0
 40
24.0
 40
24.0
 40
24.0
 40
25.0
 40
25.0
 40
25.0
 40
26.0
 40
26.0
 40
26.0
 40
27.0
 40
27.0
 40
27.0
 40
28.0
 40
28.0
 40
28.0
 40
29.0
 40
29.0
 40
29.0
 40
30.0
 40
30.0
 40
30.0
 40
31.0
 40
31.0
 40
31.0
 40
32.0
 40
32.0
 40
32.0
 40
33.0
 40
33.0
 40
33.0
 40
34.0
 40
34.0
 40
34.0
 40
35.0
 40
35.0
 40
35.0
 40
36.0
 40
36.0
 40
36.0
 40
36.0
 10
1.953762478298611
 20
-9.300754123263888
 30
0.0
 10
1.892917209201389
 20
-9.270277235243055
 30
0.0
 10
1.794392903645833
 20
-9.20266384548611
 30
0.0
 10
1.70220947265625
 20
-9.059922960069445
 30
0.0
 10
1.582465277777778
 20
-8.87441677517361
 30
0.0
 10
1.466579861111111
 20
-8.535888671875
 30
0.0
 10
1.465535481770833
 20
-8.53244357638889
 30
0.0
 10
1.465535481770833
 20
-8.53244357638889
 30
0.0
 10
1.456061469184028
 20
-8.50442165798611
 30
0.0
 10
1.456061469184028
 20
-8.50442165798611
 30
0.0
 10
1.456061469184028
 20
-8.50442165798611
 30
0.0
 10
1.428751627604167
 20
-8.493448893229166
 30
0.0
 10
1.428751627604167
 20
-8.493448893229166
 30
0.0
 10
1.426194932725694
 20
-8.492485894097221
 30
0.0
 10
1.084974500868056
 20
-8.405287000868055
 30
0.0
 10
0.8975287543402777
 20
-8.319132486979166
 30
0.0
 10
0.7315199110243055
 20
-8.242390950520832
 30
0.0
 10
0.5556776258680555
 20
-8.1190185546875
 30
0.0
 10
0.5079142252604166
 20
-8.0367431640625
 30
0.0
 10
0.4603339301215277
 20
-7.954318576388888
 30
0.0
 10
0.4505072699652777
 20
-7.711764865451388
 30
0.0
 10
0.4565972222222222
 20
-7.558146158854166
 30
0.0
 10
0.4644843207465277
 20
-7.354519314236111
 30
0.0
 10
0.5686102973090278
 20
-7.013142903645833
 30
0.0
 10
0.5688883463541666
 20
-7.010525173611111
 30
0.0
 10
0.5688883463541666
 20
-7.010525173611111
 30
0.0
 10
0.5729709201388888
 20
-6.981065538194444
 30
0.0
 10
0.5729709201388888
 20
-6.981065538194444
 30
0.0
 10
0.5729709201388888
 20
-6.981065538194444
 30
0.0
 10
0.5534735785590278
 20
-6.959160698784721
 30
0.0
 10
0.5534735785590278
 20
-6.959160698784721
 30
0.0
 10
0.5509847005208333
 20
-6.956448025173611
 30
0.0
 10
0.3147108289930555
 20
-6.687567816840278
 30
0.0
 10
0.2134195963541667
 20
-6.491536458333333
 30
0.0
 10
0.1350165473090278
 20
-6.340576171875
 30
0.0
 10
0.1254069010416667
 20
-6.221516927083333
 30
0.0
 10
0.1292792426215278
 20
-6.153632269965278
 30
0.0
 10
0.2851969401041666
 20
-6.193522135416666
 30
0.0
 10
0.6599527994791666
 20
-6.250990125868055
 30
0.0
 10
1.029317220052083
 20
-6.023288302951388
 30
0.0
 10
1.034227159288194
 20
-6.020182291666666
 30
0.0
 10
1.039272732204861
 20
-6.016927083333333
 30
0.0
 10
1.044392903645833
 20
-6.013685438368055
 30
0.0
 10
1.162685818142361
 20
-6.100599500868055
 30
0.0
 10
1.300286187065972
 20
-6.225477430555555
 30
0.0
 10
1.440511067708333
 20
-6.357883029513888
 30
0.0
 10
1.414998372395833
 20
-6.375162760416666
 30
0.0
 10
1.389553493923611
 20
-6.391343858506944
 30
0.0
 10
1.364590115017361
 20
-6.405666775173611
 30
0.0
 10
1.083733452690972
 20
-6.568739149305555
 30
0.0
 10
0.7976820203993055
 20
-6.518988715277778
 30
0.0
 10
0.794921875
 20
-6.518500434027778
 30
0.0
 10
0.794921875
 20
-6.518500434027778
 30
0.0
 10
0.7048272026909722
 20
-6.501614040798611
 30
0.0
 10
0.7048272026909722
 20
-6.501614040798611
 30
0.0
 10
0.7048272026909722
 20
-6.501614040798611
 30
0.0
 10
0.7193467881944444
 20
-6.592000325520833
 30
0.0
 10
0.7193467881944444
 20
-6.592000325520833
 30
0.0
 10
0.7204454210069444
 20
-6.598904079861111
 30
0.0
 10
0.7471381293402778
 20
-6.760077582465278
 30
0.0
 10
0.862060546875
 20
-6.886759440104166
 30
0.0
 10
0.9061008029513888
 20
-6.935085720486111
 30
0.0
 10
0.9551934136284722
 20
-6.974772135416666
 30
0.0
 10
0.987548828125
 20
-6.998562282986111
 30
0.0
 10
0.9754503038194444
 20
-7.081732855902778
 30
0.0
 10
0.8851453993055555
 20
-7.308932834201388
 30
0.0
 10
0.8581882052951388
 20
-7.483127170138888
 30
0.0
 10
0.8431125217013888
 20
-7.5828857421875
 30
0.0
 10
0.8119303385416666
 20
-7.768324110243055
 30
0.0
 10
0.85223388671875
 20
-7.837483723958333
 30
0.0
 10
0.8523763020833333
 20
-7.837958441840278
 30
0.0
 10
0.8526543511284722
 20
-7.838446723090278
 30
0.0
 10
0.852871365017361
 20
-7.838799370659721
 30
0.0
 10
0.85321044921875
 20
-7.839002821180555
 30
0.0
 10
0.8534071180555555
 20
-7.839613172743055
 30
0.0
 10
0.8534749348958333
 20
-7.840020073784721
 30
0.0
 10
0.8534749348958333
 20
-7.840020073784721
 30
0.0
 10
0.8536919487847222
 20
-7.840020073784721
 30
0.0
 10
0.8536919487847222
 20
-7.840020073784721
 30
0.0
 10
0.8936564127604166
 20
-7.909111870659721
 30
0.0
 10
1.047919379340278
 20
-7.967678493923611
 30
0.0
 10
1.164421929253472
 20
-8.010552300347221
 30
0.0
 10
1.296135796440972
 20
-8.058946397569445
 30
0.0
 10
1.571126302083333
 20
-8.10769314236111
 30
0.0
 10
1.648980034722222
 20
-8.138658311631945
 30
0.0
 10
1.653883192274305
 20
-8.178426106770832
 30
0.0
 10
1.663852267795139
 20
-8.240709092881945
 30
0.0
 10
1.684041341145833
 20
-8.303087022569445
 30
0.0
 10
1.737067328559028
 20
-8.465589735243055
 30
0.0
 10
1.863742404513889
 20
-8.568888346354166
 30
0.0
 10
1.869208441840278
 20
-8.57321506076389
 30
0.0
 10
1.869208441840278
 20
-8.57321506076389
 30
0.0
 10
1.940626356336805
 20
-8.630845811631945
 30
0.0
 10
1.940626356336805
 20
-8.630845811631945
 30
0.0
 10
1.940626356336805
 20
-8.630845811631945
 30
0.0
 10
1.970635308159722
 20
-8.543986002604166
 30
0.0
 10
1.970635308159722
 20
-8.543986002604166
 30
0.0
 10
1.971530490451389
 20
-8.54150390625
 30
0.0
 10
2.069925944010417
 20
-8.268310546875
 30
0.0
 10
2.351203070746528
 20
-8.105400933159721
 30
0.0
 10
2.366895887586805
 20
-8.096150716145832
 30
0.0
 10
2.383287217881944
 20
-8.087239583333332
 30
0.0
 10
2.400288899739583
 20
-8.078233506944445
 30
0.0
 10
2.444749620225694
 20
-8.26755099826389
 30
0.0
 10
2.483120388454861
 20
-8.44967990451389
 30
0.0
 10
2.497158474392361
 20
-8.594129774305555
 30
0.0
 10
2.128980848524305
 20
-8.802924262152777
 30
0.0
 10
1.996222601996528
 20
-9.147962782118055
 30
0.0
 10
1.953762478298611
 20
-9.300754123263888
 30
0.0
  0
SPLINE
  5
6C
330
1F
100
AcDbEntity
  8
Layer 1
370
     0
100
AcDbSpline
210
0.0
220
0.0
230
1.0
 70
    11
 71
     3
 72
   113
 73
   109
 74
     0
 42
0.0000000001
 43
0.0000000001
 40
0.0
 40
0.0
 40
0.0
 40
0.0
 40
1.0
 40
1.0
 40
1.0
 40
2.0
 40
2.0
 40
2.0
 40
3.0
 40
3.0
 40
3.0
 40
4.0
 40
4.0
 40
4.0
 40
5.0
 40
5.0
 40
5.0
 40
6.0
 40
6.0
 40
6.0
 40
7.0
 40
7.0
 40
7.0
 40
8.0
 40
8.0
 40
8.0
 40
9.0
 40
9.0
 40
9.0
 40
10.0
 40
10.0
 40
10.0
 40
11.0
 40
11.0
 40
11.0
 40
12.0
 40
12.0
 40
12.0
 40
13.0
 40
13.0
 40
13.0
 40
14.0
 40
14.0
 40
14.0
 40
15.0
 40
15.0
 40
15.0
 40
16.0
 40
16.0
 40
16.0
 40
17.0
 40
17.0
 40
17.0
 40
18.0
 40
18.0
 40
18.0
 40
19.0
 40
19.0
 40
19.0
 40
20.0
 40
20.0
 40
20.0
 40
21.0
 40
21.0
 40
21.0
 40
22.0
 40
22.0
 40
22.0
 40
23.0
 40
23.0
 40
23.0
 40
24.0
 40
24.0
 40
24.0
 40
25.0
 40
25.0
 40
25.0
 40
26.0
 40
26.0
 40
26.0
 40
27.0
 40
27.0
 40
27.0
 40
28.0
 40
28.0
 40
28.0
 40
29.0
 40
29.0
 40
29.0
 40
30.0
 40
30.0
 40
30.0
 40
31.0
 40
31.0
 40
31.0
 40
32.0
 40
32.0
 40
32.0
 40
33.0
 40
33.0
 40
33.0
 40
34.0
 40
34.0
 40
34.0
 40
35.0
 40
35.0
 40
35.0
 40
36.0
 40
36.0
 40
36.0
 40
36.0
 10
5.930135091145833
 20
-9.51919216579861
 30
0.0
 10
5.873223198784722
 20
-9.556572808159721
 30
0.0
 10
5.765068901909722
 20
-9.607747395833332
 30
0.0
 10
5.595350477430555
 20
-9.615912543402777
 30
0.0
 10
5.375054253472222
 20
-9.62636990017361
 30
0.0
 10
5.023857964409722
 20
-9.556437174479166
 30
0.0
 10
5.020290798611111
 20
-9.555772569444445
 30
0.0
 10
5.020290798611111
 20
-9.555772569444445
 30
0.0
 10
4.991522894965278
 20
-9.550103081597221
 30
0.0
 10
4.991522894965278
 20
-9.550103081597221
 30
0.0
 10
4.991522894965278
 20
-9.550103081597221
 30
0.0
 10
4.968275282118055
 20
-9.5679931640625
 30
0.0
 10
4.968275282118055
 20
-9.5679931640625
 30
0.0
 10
4.966091579861111
 20
-9.56972927517361
 30
0.0
 10
4.741061740451388
 20
-9.786295572916666
 30
0.0
 10
4.550726996527778
 20
-9.8968505859375
 30
0.0
 10
4.398261176215278
 20
-9.985419379340277
 30
0.0
 10
4.206041124131945
 20
-10.09210883246528
 30
0.0
 10
4.110968695746528
 20
-10.09210883246528
 30
0.0
 10
4.015699598524305
 20
-10.09210883246528
 30
0.0
 10
3.822998046875
 20
-9.9796142578125
 30
0.0
 10
3.671006944444444
 20
-9.896497938368055
 30
0.0
 10
3.490336100260417
 20
-9.797403971354166
 30
0.0
 10
3.256083170572917
 20
-9.568834092881945
 30
0.0
 10
3.253865559895833
 20
-9.567247178819445
 30
0.0
 10
3.253865559895833
 20
-9.567247178819445
 30
0.0
 10
3.230638292100694
 20
-9.549045138888888
 30
0.0
 10
3.230638292100694
 20
-9.549045138888888
 30
0.0
 10
3.230638292100694
 20
-9.549045138888888
 30
0.0
 10
3.201741536458333
 20
-9.554796006944445
 30
0.0
 10
3.201741536458333
 20
-9.554796006944445
 30
0.0
 10
3.198276095920139
 20
-9.555636935763888
 30
0.0
 10
2.84716796875
 20
-9.624891493055555
 30
0.0
 10
2.626736111111111
 20
-9.614189995659721
 30
0.0
 10
2.456990559895833
 20
-9.60610622829861
 30
0.0
 10
2.34906005859375
 20
-9.554796006944445
 30
0.0
 10
2.292148166232639
 20
-9.517388237847221
 30
0.0
 10
2.405069986979167
 20
-9.402330186631945
 30
0.0
 10
2.642781575520833
 20
-9.107313368055555
 30
0.0
 10
2.631232367621528
 20
-8.673149956597221
 30
0.0
 10
2.631232367621528
 20
-8.672173394097221
 30
0.0
 10
2.631157769097222
 20
-8.670857747395832
 30
0.0
 10
2.631157769097222
 20
-8.669759114583332
 30
0.0
 10
2.761081271701389
 20
-8.608222113715277
 30
0.0
 10
2.938713921440972
 20
-8.54909939236111
 30
0.0
 10
3.12725830078125
 20
-8.49136013454861
 30
0.0
 10
3.129007975260417
 20
-8.519938151041666
 30
0.0
 10
3.130235460069444
 20
-8.547919379340277
 30
0.0
 10
3.130235460069444
 20
-8.574842664930555
 30
0.0
 10
3.130235460069444
 20
-8.899793836805555
 30
0.0
 10
2.943549262152778
 20
-9.122151692708332
 30
0.0
 10
2.94189453125
 20
-9.124104817708332
 30
0.0
 10
2.94189453125
 20
-9.124104817708332
 30
0.0
 10
2.882012261284722
 20
-9.193603515625
 30
0.0
 10
2.882012261284722
 20
-9.193603515625
 30
0.0
 10
2.882012261284722
 20
-9.193603515625
 30
0.0
 10
2.967536078559028
 20
-9.226643880208332
 30
0.0
 10
2.967536078559028
 20
-9.226643880208332
 30
0.0
 10
2.973971896701389
 20
-9.2291259765625
 30
0.0
 10
3.126851399739583
 20
-9.286851671006945
 30
0.0
 10
3.293972439236111
 20
-9.2509765625
 30
0.0
 10
3.358072916666667
 20
-9.237358940972221
 30
0.0
 10
3.417046440972222
 20
-9.214599609375
 30
0.0
 10
3.453762478298611
 20
-9.198703342013888
 30
0.0
 10
3.519863552517361
 20
-9.250623914930555
 30
0.0
 10
3.699842664930555
 20
-9.4638671875
 30
0.0
 10
3.807840983072917
 20
-9.55349392361111
 30
0.0
 10
3.903605143229167
 20
-9.632703993055555
 30
0.0
 10
4.031670464409722
 20
-9.737060546875
 30
0.0
 10
4.111660427517361
 20
-9.736775716145832
 30
0.0
 10
4.112013075086805
 20
-9.736775716145832
 30
0.0
 10
4.112494574652778
 20
-9.736775716145832
 30
0.0
 10
4.112833658854166
 20
-9.736775716145832
 30
0.0
 10
4.113396538628472
 20
-9.736775716145832
 30
0.0
 10
4.113878038194445
 20
-9.736775716145832
 30
0.0
 10
4.114291720920138
 20
-9.736775716145832
 30
0.0
 10
4.194281684027778
 20
-9.737060546875
 30
0.0
 10
4.339287651909722
 20
-9.6168212890625
 30
0.0
 10
4.417751736111111
 20
-9.55349392361111
 30
0.0
 10
4.555080837673611
 20
-9.4429931640625
 30
0.0
 10
4.706095377604166
 20
-9.250623914930555
 30
0.0
 10
4.772054036458333
 20
-9.198703342013888
 30
0.0
 10
4.808756510416666
 20
-9.214599609375
 30
0.0
 10
4.867607964409722
 20
-9.237358940972221
 30
0.0
 10
4.931776258680555
 20
-9.2509765625
 30
0.0
 10
5.098904079861111
 20
-9.286851671006945
 30
0.0
 10
5.2518310546875
 20
-9.2291259765625
 30
0.0
 10
5.258409288194444
 20
-9.226643880208332
 30
0.0
 10
5.258409288194444
 20
-9.226643880208332
 30
0.0
 10
5.343858506944444
 20
-9.193603515625
 30
0.0
 10
5.343858506944444
 20
-9.193603515625
 30
0.0
 10
5.343858506944444
 20
-9.193603515625
 30
0.0
 10
5.283989800347222
 20
-9.124104817708332
 30
0.0
 10
5.283989800347222
 20
-9.124104817708332
 30
0.0
 10
5.282063802083333
 20
-9.122151692708332
 30
0.0
 10
5.095445421006944
 20
-8.899793836805555
 30
0.0
 10
5.095445421006944
 20
-8.574842664930555
 30
0.0
 10
5.095445421006944
 20
-8.544759114583332
 30
0.0
 10
5.096950954861111
 20
-8.513075086805555
 30
0.0
 10
5.099446614583333
 20
-8.480875651041666
 30
0.0
 10
5.282674153645833
 20
-8.536376953125
 30
0.0
 10
5.458726671006944
 20
-8.593424479166666
 30
0.0
 10
5.5927734375
 20
-8.6524658203125
 30
0.0
 10
5.592366536458333
 20
-8.660020616319445
 30
0.0
 10
5.592013888888888
 20
-8.667548285590277
 30
0.0
 10
5.591756184895833
 20
-8.674723307291666
 30
0.0
 10
5.580010308159722
 20
-9.108818901909721
 30
0.0
 10
5.817355685763888
 20
-9.403998480902777
 30
0.0
 10
5.930135091145833
 20
-9.51919216579861
 30
0.0
  0
SPLINE
  5
6D
330
1F
100
AcDbEntity
  8
Layer 1
370
     0
100
AcDbSpline
210
0.0
220
0.0
230
1.0
 70
    11
 71
     3
 72
   113
 73
   109
 74
     0
 42
0.0000000001
 43
0.0000000001
 40
0.0
 40
0.0
 40
0.0
 40
0.0
 40
1.0
 40
1.0
 40
1.0
 40
2.0
 40
2.0
 40
2.0
 40
3.0
 40
3.0
 40
3.0
 40
4.0
 40
4.0
 40
4.0
 40
5.0
 40
5.0
 40
5.0
 40
6.0
 40
6.0
 40
6.0
 40
7.0
 40
7.0
 40
7.0
 40
8.0
 40
8.0
 40
8.0
 40
9.0
 40
9.0
 40
9.0
 40
10.0
 40
10.0
 40
10.0
 40
11.0
 40
11.0
 40
11.0
 40
12.0
 40
12.0
 40
12.0
 40
13.0
 40
13.0
 40
13.0
 40
14.0
 40
14.0
 40
14.0
 40
15.0
 40
15.0
 40
15.0
 40
16.0
 40
16.0
 40
16.0
 40
17.0
 40
17.0
 40
17.0
 40
18.0
 40
18.0
 40
18.0
 40
19.0
 40
19.0
 40
19.0
 40
20.0
 40
20.0
 40
20.0
 40
21.0
 40
21.0
 40
21.0
 40
22.0
 40
22.0
 40
22.0
 40
23.0
 40
23.0
 40
23.0
 40
24.0
 40
24.0
 40
24.0
 40
25.0
 40
25.0
 40
25.0
 40
26.0
 40
26.0
 40
26.0
 40
27.0
 40
27.0
 40
27.0
 40
28.0
 40
28.0
 40
28.0
 40
29.0
 40
29.0
 40
29.0
 40
30.0
 40
30.0
 40
30.0
 40
31.0
 40
31.0
 40
31.0
 40
32.0
 40
32.0
 40
32.0
 40
33.0
 40
33.0
 40
33.0
 40
34.0
 40
34.0
 40
34.0
 40
35.0
 40
35.0
 40
35.0
 40
36.0
 40
36.0
 40
36.0
 40
36.0
 10
8.049519856770832
 20
-6.492702907986111
 30
0.0
 10
7.948092990451388
 20
-6.688368055555555
 30
0.0
 10
7.711819118923611
 20
-6.957411024305555
 30
0.0
 10
7.7093505859375
 20
-6.960028754340278
 30
0.0
 10
7.7093505859375
 20
-6.960028754340278
 30
0.0
 10
7.689778645833333
 20
-6.982096354166666
 30
0.0
 10
7.689778645833333
 20
-6.982096354166666
 30
0.0
 10
7.689778645833333
 20
-6.982096354166666
 30
0.0
 10
7.693766276041666
 20
-7.011216905381944
 30
0.0
 10
7.693766276041666
 20
-7.011216905381944
 30
0.0
 10
7.694118923611111
 20
-7.013834635416666
 30
0.0
 10
7.768663194444444
 20
-7.317247178819444
 30
0.0
 10
7.769083658854166
 20
-7.537258572048611
 30
0.0
 10
7.769151475694444
 20
-7.713921440972221
 30
0.0
 10
7.764987521701388
 20
-7.933444552951388
 30
0.0
 10
7.717569986979166
 20
-8.01571994357639
 30
0.0
 10
7.669704861111111
 20
-8.097954644097221
 30
0.0
 10
7.4757080078125
 20
-8.208631727430555
 30
0.0
 10
7.327528211805555
 20
-8.298258463541666
 30
0.0
 10
7.151285807291666
 20
-8.404866536458332
 30
0.0
 10
6.836263020833333
 20
-8.4931640625
 30
0.0
 10
6.833631727430555
 20
-8.494194878472221
 30
0.0
 10
6.833631727430555
 20
-8.494194878472221
 30
0.0
 10
6.806260850694444
 20
-8.505330403645832
 30
0.0
 10
6.806260850694444
 20
-8.505330403645832
 30
0.0
 10
6.806260850694444
 20
-8.505330403645832
 30
0.0
 10
6.796712239583333
 20
-8.533216688368055
 30
0.0
 10
6.796712239583333
 20
-8.533216688368055
 30
0.0
 10
6.795749240451388
 20
-8.536444769965277
 30
0.0
 10
6.679728190104166
 20
-8.874918619791666
 30
0.0
 10
6.559963650173611
 20
-9.060546875
 30
0.0
 10
6.467719184027778
 20
-9.20339626736111
 30
0.0
 10
6.369194878472221
 20
-9.270887586805555
 30
0.0
 10
6.308363172743055
 20
-9.301378038194445
 30
0.0
 10
6.265407986111111
 20
-9.146226671006945
 30
0.0
 10
6.1292724609375
 20
-8.792344835069445
 30
0.0
 10
5.7479248046875
 20
-8.584920247395832
 30
0.0
 10
5.741712782118055
 20
-8.581244574652777
 30
0.0
 10
5.734931098090278
 20
-8.5780029296875
 30
0.0
 10
5.728366427951388
 20
-8.57455783420139
 30
0.0
 10
5.744832356770833
 20
-8.428087022569445
 30
0.0
 10
5.784016927083333
 20
-8.246324327256945
 30
0.0
 10
5.828219943576388
 20
-8.05886501736111
 30
0.0
 10
5.858072916666666
 20
-8.07333713107639
 30
0.0
 10
5.886569552951388
 20
-8.088324652777777
 30
0.0
 10
5.912977430555555
 20
-8.103895399305555
 30
0.0
 10
6.194118923611111
 20
-8.26638454861111
 30
0.0
 10
6.292928059895833
 20
-8.539496527777777
 30
0.0
 10
6.2938232421875
 20
-8.541829427083332
 30
0.0
 10
6.2938232421875
 20
-8.541829427083332
 30
0.0
 10
6.323906792534721
 20
-8.62881130642361
 30
0.0
 10
6.323906792534721
 20
-8.62881130642361
 30
0.0
 10
6.323906792534721
 20
-8.62881130642361
 30
0.0
 10
6.395331488715278
 20
-8.5711669921875
 30
0.0
 10
6.395331488715278
 20
-8.5711669921875
 30
0.0
 10
6.400580512152778
 20
-8.566880967881945
 30
0.0
 10
6.527547200520833
 20
-8.4635009765625
 30
0.0
 10
6.580023871527778
 20
-8.300821940104166
 30
0.0
 10
6.600409613715278
 20
-8.238715277777777
 30
0.0
 10
6.6102294921875
 20
-8.176283094618055
 30
0.0
 10
6.615071614583333
 20
-8.136461046006945
 30
0.0
 10
6.692979600694444
 20
-8.10546875
 30
0.0
 10
6.967841254340278
 20
-8.0565185546875
 30
0.0
 10
7.099690755208333
 20
-8.007975260416666
 30
0.0
 10
7.216010199652778
 20
-7.965033637152778
 30
0.0
 10
7.370320638020833
 20
-7.906344943576388
 30
0.0
 10
7.410373263888888
 20
-7.837266710069444
 30
0.0
 10
7.410495334201388
 20
-7.836846245659721
 30
0.0
 10
7.410834418402778
 20
-7.836357964409721
 30
0.0
 10
7.411051432291666
 20
-7.835964626736111
 30
0.0
 10
7.411404079861111
 20
-7.835476345486111
 30
0.0
 10
7.41162109375
 20
-7.835272894965278
 30
0.0
 10
7.4117431640625
 20
-7.834771050347221
 30
0.0
 10
7.451999240451388
 20
-7.765625
 30
0.0
 10
7.420789930555555
 20
-7.580064561631944
 30
0.0
 10
7.405449761284721
 20
-7.480360243055555
 30
0.0
 10
7.378553602430555
 20
-7.306328667534721
 30
0.0
 10
7.287909613715278
 20
-7.079182942708333
 30
0.0
 10
7.275865342881944
 20
-6.995998806423611
 30
0.0
 10
7.308024088541666
 20
-6.972005208333333
 30
0.0
 10
7.357313368055555
 20
-6.932373046875
 30
0.0
 10
7.401095920138888
 20
-6.884060329861111
 30
0.0
 10
7.516072591145833
 20
-6.757242838541666
 30
0.0
 10
7.542575412326388
 20
-6.596055772569444
 30
0.0
 10
7.543741861979166
 20
-6.589165581597221
 30
0.0
 10
7.543741861979166
 20
-6.589165581597221
 30
0.0
 10
7.558119032118055
 20
-6.498725043402778
 30
0.0
 10
7.558119032118055
 20
-6.498725043402778
 30
0.0
 10
7.558119032118055
 20
-6.498725043402778
 30
0.0
 10
7.468017578125
 20
-6.515570746527778
 30
0.0
 10
7.468017578125
 20
-6.515570746527778
 30
0.0
 10
7.465250651041666
 20
-6.516086154513888
 30
0.0
 10
7.179334852430555
 20
-6.566080729166666
 30
0.0
 10
6.898234049479166
 20
-6.403361002604166
 30
0.0
 10
6.8741455078125
 20
-6.389051649305555
 30
0.0
 10
6.849202473958333
 20
-6.373426649305555
 30
0.0
 10
6.824150933159721
 20
-6.356852213541666
 30
0.0
 10
6.9637451171875
 20
-6.224907769097221
 30
0.0
 10
7.100667317708333
 20
-6.100925021701388
 30
0.0
 10
7.218546549479166
 20
-6.014431423611111
 30
0.0
 10
7.223605685763888
 20
-6.017605251736111
 30
0.0
 10
7.228651258680555
 20
-6.020955403645833
 30
0.0
 10
7.233479817708333
 20
-6.023763020833333
 30
0.0
 10
7.602986653645833
 20
-6.251871744791666
 30
0.0
 10
7.977606879340278
 20
-6.194417317708333
 30
0.0
 10
8.1336669921875
 20
-6.154446072048611
 30
0.0
 10
8.137627495659721
 20
-6.222710503472221
 30
0.0
 10
8.127577039930555
 20
-6.341647677951388
 30
0.0
 10
8.049519856770832
 20
-6.492702907986111
 30
0.0
  0
ENDSEC
  0
SECTION
  2
OBJECTS
  0
DICTIONARY
  5
C
330
0
100
AcDbDictionary
281
     1
  3
ACAD_GROUP
350
D
  3
ACAD_LAYOUT
350
1A
  3
ACAD_MLINESTYLE
350
17
  3
ACAD_PLOTSETTINGS
350
19
  3
ACAD_PLOTSTYLENAME
350
E
  3
ACAD_TABLESTYLE
350
6E
  3
ACAD_VISUALSTYLE
350
2A
  0
DICTIONARY
  5
D
102
{ACAD_REACTORS
330
C
102
}
330
C
100
AcDbDictionary
281
     1
  0
DICTIONARY
  5
1A
102
{ACAD_REACTORS
330
C
102
}
330
C
100
AcDbDictionary
281
     1
  3
Layout1
350
1E
  3
Layout2
350
26
  3
Model
350
22
  0
DICTIONARY
  5
17
102
{ACAD_REACTORS
330
C
102
}
330
C
100
AcDbDictionary
281
     1
  3
Standard
350
18
  0
DICTIONARY
  5
19
102
{ACAD_REACTORS
330
C
102
}
330
C
100
AcDbDictionary
281
     1
  0
ACDBDICTIONARYWDFLT
  5
E
102
{ACAD_REACTORS
330
C
102
}
330
C
100
AcDbDictionary
281
     1
  3
Normal
350
F
100
AcDbDictionaryWithDefault
340
F
  0
DICTIONARY
  5
6E
102
{ACAD_REACTORS
330
C
102
}
330
C
100
AcDbDictionary
281
     1
  0
DICTIONARY
  5
2A
102
{ACAD_REACTORS
330
C
102
}
330
C
100
AcDbDictionary
281
     1
  3
2dWireframe
350
2F
  3
3D Hidden
350
31
  3
3dWireframe
350
30
  3
Basic
350
32
  3
Brighten
350
36
  3
ColorChange
350
3A
  3
Conceptual
350
34
  3
Dim
350
35
  3
Facepattern
350
39
  3
Flat
350
2B
  3
FlatWithEdges
350
2C
  3
Gouraud
350
2D
  3
GouraudWithEdges
350
2E
  3
Linepattern
350
38
  3
Realistic
350
33
  3
Thicken
350
37
  0
LAYOUT
  5
1E
102
{ACAD_REACTORS
330
1A
102
}
330
1A
100
AcDbPlotSettings
  1

  2
none_device
  4

  6

 40
0.0
 41
0.0
 42
0.0
 43
0.0
 44
0.0
 45
0.0
 46
0.0
 47
0.0
 48
0.0
 49
0.0
140
0.0
141
0.0
142
1.0
143
1.0
 70
   688
 72
     0
 73
     0
 74
     5
  7

 75
    16
 76
     0
 77
     2
 78
   300
147
1.0
148
0.0
149
0.0
100
AcDbLayout
  1
Layout1
 70
     1
 71
     1
 10
0.0
 20
0.0
 11
12.0
 21
9.0
 12
0.0
 22
0.0
 32
0.0
 14
1.000000000000000E+20
 24
1.000000000000000E+20
 34
1.000000000000000E+20
 15
-1.000000000000000E+20
 25
-1.000000000000000E+20
 35
-1.000000000000000E+20
146
0.0
 13
0.0
 23
0.0
 33
0.0
 16
1.0
 26
0.0
 36
0.0
 17
0.0
 27
1.0
 37
0.0
 76
     0
330
1B
  0
LAYOUT
  5
26
102
{ACAD_REACTORS
330
1A
102
}
330
1A
100
AcDbPlotSettings
  1

  2
none_device
  4

  6

 40
0.0
 41
0.0
 42
0.0
 43
0.0
 44
0.0
 45
0.0
 46
0.0
 47
0.0
 48
0.0
 49
0.0
140
0.0
141
0.0
142
1.0
143
1.0
 70
   688
 72
     0
 73
     0
 74
     5
  7

 75
    16
 76
     0
 77
     2
 78
   300
147
1.0
148
0.0
149
0.0
100
AcDbLayout
  1
Layout2
 70
     1
 71
     2
 10
0.0
 20
0.0
 11
0.0
 21
0.0
 12
0.0
 22
0.0
 32
0.0
 14
0.0
 24
0.0
 34
0.0
 15
0.0
 25
0.0
 35
0.0
146
0.0
 13
0.0
 23
0.0
 33
0.0
 16
1.0
 26
0.0
 36
0.0
 17
0.0
 27
1.0
 37
0.0
 76
     0
330
23
  0
LAYOUT
  5
22
102
{ACAD_REACTORS
330
1A
102
}
330
1A
100
AcDbPlotSettings
  1

  2
none_device
  4

  6

 40
0.0
 41
0.0
 42
0.0
 43
0.0
 44
0.0
 45
0.0
 46
0.0
 47
0.0
 48
0.0
 49
0.0
140
0.0
141
0.0
142
1.0
143
1.0
 70
  1712
 72
     0
 73
     0
 74
     0
  7

 75
     0
 76
     0
 77
     2
 78
   300
147
1.0
148
0.0
149
0.0
100
AcDbLayout
  1
Model
 70
     1
 71
     0
 10
0.0
 20
0.0
 11
12.0
 21
9.0
 12
0.0
 22
0.0
 32
0.0
 14
1.000000000000000E+20
 24
1.000000000000000E+20
 34
1.000000000000000E+20
 15
-1.000000000000000E+20
 25
-1.000000000000000E+20
 35
-1.000000000000000E+20
146
0.0
 13
0.0
 23
0.0
 33
0.0
 16
1.0
 26
0.0
 36
0.0
 17
0.0
 27
1.0
 37
0.0
 76
     0
330
1F
331
29
  0
MLINESTYLE
  5
18
102
{ACAD_REACTORS
330
17
102
}
330
17
100
AcDbMlineStyle
  2
Standard
 70
     0
  3

 62
   256
 51
90.0
 52
90.0
 71
     2
 49
0.5
 62
   256
  6
BYLAYER
 49
-0.5
 62
   256
  6
BYLAYER
  0
ACDBPLACEHOLDER
  5
F
102
{ACAD_REACTORS
330
E
102
}
330
E
  0
VISUALSTYLE
  5
2F
102
{ACAD_REACTORS
330
2A
102
}
330
2A
100
AcDbVisualStyle
  2
2dWireframe
 70
     4
 71
     0
 72
     2
 73
     0
 90
        0
 40
-0.6
 41
-30.0
 62
     5
 63
     7
421
 16777215
 74
     1
 91
        4
 64
     7
 65
   257
 75
     1
175
     1
 42
1.0
 92
        0
 66
   257
 43
1.0
 76
     1
 77
     6
 78
     2
 67
     7
 79
     5
170
     0
171
     0
290
     0
174
     0
 93
        1
 44
0.0
173
     0
291
     0
 45
0.0
1001
ACAD
1000
AcDbSavedByObjectVersion
1070
     0
  0
VISUALSTYLE
  5
31
102
{ACAD_REACTORS
330
2A
102
}
330
2A
100
AcDbVisualStyle
  2
3D Hidden
 70
     6
 71
     1
 72
     2
 73
     2
 90
        0
 40
-0.6
 41
-30.0
 62
     5
 63
     7
421
 16777215
 74
     2
 91
        2
 64
     7
 65
   257
 75
     2
175
     1
 42
40.0
 92
        0
 66
   257
 43
1.0
 76
     1
 77
     6
 78
     2
 67
     7
 79
     3
170
     0
171
     0
290
     0
174
     0
 93
        1
 44
0.0
173
     0
291
     0
 45
0.0
1001
ACAD
1000
AcDbSavedByObjectVersion
1070
     0
  0
VISUALSTYLE
  5
30
102
{ACAD_REACTORS
330
2A
102
}
330
2A
100
AcDbVisualStyle
  2
3dWireframe
 70
     5
 71
     0
 72
     2
 73
     0
 90
        0
 40
-0.6
 41
-30.0
 62
     5
 63
     7
421
 16777215
 74
     1
 91
        4
 64
     7
 65
   257
 75
     1
175
     1
 42
1.0
 92
        0
 66
   257
 43
1.0
 76
     1
 77
     6
 78
     2
 67
     7
 79
     5
170
     0
171
     0
290
     0
174
     0
 93
        1
 44
0.0
173
     0
291
     0
 45
0.0
1001
ACAD
1000
AcDbSavedByObjectVersion
1070
     0
  0
VISUALSTYLE
  5
32
102
{ACAD_REACTORS
330
2A
102
}
330
2A
100
AcDbVisualStyle
  2
Basic
 70
     7
 71
     1
 72
     0
 73
     1
 90
        0
 40
-0.6
 41
-30.0
 62
     5
 63
     7
421
 16777215
 74
     0
 91
        4
 64
     7
 65
   257
 75
     1
175
     1
 42
1.0
 92
        8
 66
     7
 43
1.0
 76
     1
 77
     6
 78
     2
 67
     7
 79
     5
170
     0
171
     0
290
     0
174
     0
 93
        1
 44
0.0
173
     0
291
     1
 45
0.0
1001
ACAD
1000
AcDbSavedByObjectVersion
1070
     0
  0
VISUALSTYLE
  5
36
102
{ACAD_REACTORS
330
2A
102
}
330
2A
100
AcDbVisualStyle
  2
Brighten
 70
    12
 71
     2
 72
     2
 73
     0
 90
        0
 40
-0.6
 41
-30.0
 62
     5
 63
     7
421
 16777215
 74
     1
 91
        4
 64
     7
 65
   257
 75
     1
175
     1
 42
1.0
 92
        8
 66
     7
 43
1.0
 76
     1
 77
     6
 78
     2
 67
     7
 79
     5
170
     0
171
     0
290
     0
174
     0
 93
        1
 44
50.0
173
     0
291
     1
 45
0.0
1001
ACAD
1000
AcDbSavedByObjectVersion
1070
     0
  0
VISUALSTYLE
  5
3A
102
{ACAD_REACTORS
330
2A
102
}
330
2A
100
AcDbVisualStyle
  2
ColorChange
 70
    16
 71
     2
 72
     2
 73
     3
 90
        0
 40
-0.6
 41
-30.0
 62
     5
 63
     8
421
  8421504
 74
     1
 91
        4
 64
     7
 65
   257
 75
     1
175
     1
 42
1.0
 92
        8
 66
     8
424
  8421504
 43
1.0
 76
     1
 77
     6
 78
     2
 67
     7
 79
     5
170
     0
171
     0
290
     0
174
     0
 93
        1
 44
0.0
173
     0
291
     1
 45
0.0
1001
ACAD
1000
AcDbSavedByObjectVersion
1070
     0
  0
VISUALSTYLE
  5
34
102
{ACAD_REACTORS
330
2A
102
}
330
2A
100
AcDbVisualStyle
  2
Conceptual
 70
     9
 71
     3
 72
     2
 73
     0
 90
        0
 40
-0.6
 41
-30.0
 62
     5
 63
     7
421
 16777215
 74
     2
 91
        2
 64
     7
 65
   257
 75
     1
175
     1
 42
40.0
 92
        8
 66
     7
 43
1.0
 76
     1
 77
     6
 78
     2
 67
     7
 79
     3
170
     0
171
     0
290
     0
174
     0
 93
        1
 44
0.0
173
     0
291
     0
 45
0.0
1001
ACAD
1000
AcDbSavedByObjectVersion
1070
     0
  0
VISUALSTYLE
  5
35
102
{ACAD_REACTORS
330
2A
102
}
330
2A
100
AcDbVisualStyle
  2
Dim
 70
    11
 71
     2
 72
     2
 73
     0
 90
        0
 40
-0.6
 41
-30.0
 62
     5
 63
     7
421
 16777215
 74
     1
 91
        4
 64
     7
 65
   257
 75
     1
175
     1
 42
1.0
 92
        8
 66
     7
 43
1.0
 76
     1
 77
     6
 78
     2
 67
     7
 79
     5
170
     0
171
     0
290
     0
174
     0
 93
        1
 44
-50.0
173
     0
291
     1
 45
0.0
1001
ACAD
1000
AcDbSavedByObjectVersion
1070
     0
  0
VISUALSTYLE
  5
39
102
{ACAD_REACTORS
330
2A
102
}
330
2A
100
AcDbVisualStyle
  2
Facepattern
 70
    15
 71
     2
 72
     2
 73
     0
 90
        0
 40
-0.6
 41
-30.0
 62
     5
 63
     7
421
 16777215
 74
     1
 91
        4
 64
     7
 65
   257
 75
     1
175
     1
 42
1.0
 92
        8
 66
     7
 43
1.0
 76
     1
 77
     6
 78
     2
 67
     7
 79
     5
170
     0
171
     0
290
     0
174
     0
 93
        1
 44
0.0
173
     0
291
     1
 45
0.0
1001
ACAD
1000
AcDbSavedByObjectVersion
1070
     0
  0
VISUALSTYLE
  5
2B
102
{ACAD_REACTORS
330
2A
102
}
330
2A
100
AcDbVisualStyle
  2
Flat
 70
     0
 71
     2
 72
     1
 73
     1
 90
        2
 40
-0.6
 41
30.0
 62
     5
 63
     7
421
 16777215
 74
     0
 91
        4
 64
     7
 65
   257
 75
     1
175
     1
 42
1.0
 92
        8
 66
     7
 43
1.0
 76
     1
 77
     6
 78
     2
 67
     7
 79
     5
170
     0
171
     0
290
     0
174
     0
 93
       13
 44
0.0
173
     0
291
     1
 45
0.0
1001
ACAD
1000
AcDbSavedByObjectVersion
1070
     0
  0
VISUALSTYLE
  5
2C
102
{ACAD_REACTORS
330
2A
102
}
330
2A
100
AcDbVisualStyle
  2
FlatWithEdges
 70
     1
 71
     2
 72
     1
 73
     1
 90
        2
 40
-0.6
 41
30.0
 62
     5
 63
     7
421
 16777215
 74
     1
 91
        4
 64
     7
 65
   257
 75
     1
175
     1
 42
1.0
 92
        0
 66
   257
 43
1.0
 76
     1
 77
     6
 78
     2
 67
     7
 79
     5
170
     0
171
     0
290
     0
174
     0
 93
       13
 44
0.0
173
     0
291
     1
 45
0.0
1001
ACAD
1000
AcDbSavedByObjectVersion
1070
     0
  0
VISUALSTYLE
  5
2D
102
{ACAD_REACTORS
330
2A
102
}
330
2A
100
AcDbVisualStyle
  2
Gouraud
 70
     2
 71
     2
 72
     2
 73
     1
 90
        2
 40
-0.6
 41
30.0
 62
     5
 63
     7
421
 16777215
 74
     0
 91
        4
 64
     7
 65
   257
 75
     1
175
     1
 42
1.0
 92
        0
 66
     7
 43
1.0
 76
     1
 77
     6
 78
     2
 67
     7
 79
     5
170
     0
171
     0
290
     0
174
     0
 93
       13
 44
0.0
173
     0
291
     1
 45
0.0
1001
ACAD
1000
AcDbSavedByObjectVersion
1070
     0
  0
VISUALSTYLE
  5
2E
102
{ACAD_REACTORS
330
2A
102
}
330
2A
100
AcDbVisualStyle
  2
GouraudWithEdges
 70
     3
 71
     2
 72
     2
 73
     1
 90
        2
 40
-0.6
 41
30.0
 62
     5
 63
     7
421
 16777215
 74
     1
 91
        4
 64
     7
 65
   257
 75
     1
175
     1
 42
1.0
 92
        0
 66
   257
 43
1.0
 76
     1
 77
     6
 78
     2
 67
     7
 79
     5
170
     0
171
     0
290
     0
174
     0
 93
       13
 44
0.0
173
     0
291
     1
 45
0.0
1001
ACAD
1000
AcDbSavedByObjectVersion
1070
     0
  0
VISUALSTYLE
  5
38
102
{ACAD_REACTORS
330
2A
102
}
330
2A
100
AcDbVisualStyle
  2
Linepattern
 70
    14
 71
     2
 72
     2
 73
     0
 90
        0
 40
-0.6
 41
-30.0
 62
     5
 63
     7
421
 16777215
 74
     1
 91
        4
 64
     7
 65
   257
 75
     7
175
     7
 42
1.0
 92
        8
 66
     7
 43
1.0
 76
     1
 77
     6
 78
     2
 67
     7
 79
     5
170
     0
171
     0
290
     0
174
     0
 93
        1
 44
0.0
173
     0
291
     1
 45
0.0
1001
ACAD
1000
AcDbSavedByObjectVersion
1070
     0
  0
VISUALSTYLE
  5
33
102
{ACAD_REACTORS
330
2A
102
}
330
2A
100
AcDbVisualStyle
  2
Realistic
 70
     8
 71
     2
 72
     2
 73
     0
 90
        0
 40
-0.6
 41
-30.0
 62
     5
 63
     7
421
 16777215
 74
     1
 91
        0
 64
     7
 65
   257
 75
     1
175
     1
 42
1.0
 92
        8
 66
     8
424
  7895160
 43
1.0
 76
     1
 77
     6
 78
     2
 67
     7
 79
     5
170
     0
171
     0
290
     0
174
     0
 93
       13
 44
0.0
173
     0
291
     0
 45
0.0
1001
ACAD
1000
AcDbSavedByObjectVersion
1070
     0
  0
VISUALSTYLE
  5
37
102
{ACAD_REACTORS
330
2A
102
}
330
2A
100
AcDbVisualStyle
  2
Thicken
 70
    13
 71
     2
 72
     2
 73
     0
 90
        0
 40
-0.6
 41
-30.0
 62
     5
 63
     7
421
 16777215
 74
     1
 91
        4
 64
     7
 65
   257
 75
     1
175
     1
 42
1.0
 92
       12
 66
     7
 43
1.0
 76
     1
 77
     6
 78
     2
 67
     7
 79
     5
170
     0
171
     0
290
     0
174
     0
 93
        1
 44
0.0
173
     0
291
     1
 45
0.0
1001
ACAD
1000
AcDbSavedByObjectVersion
1070
     0
  0
ENDSEC
  0
EOF
