  0
SECTION
  2
HEADER
  9
$ACADVER
  1
AC1018
  9
$ACADMAINTVER
 70
     0
  9
$DWGCODEPAGE
  3
ANSI_932
  9
$INSBASE
 10
0.0
 20
0.0
 30
0.0
  9
$EXTMIN
 10
1.000000000000000E+20
 20
1.000000000000000E+20
 30
1.000000000000000E+20
  9
$EXTMAX
 10
-1.000000000000000E+20
 20
-1.000000000000000E+20
 30
-1.000000000000000E+20
  9
$LIMMIN
 10
0.0
 20
0.0
  9
$LIMMAX
 10
12.0
 20
9.0
  9
$ORTHOMODE
 70
     0
  9
$REGENMODE
 70
     1
  9
$FILLMODE
 70
     1
  9
$QTEXTMODE
 70
     0
  9
$MIRRTEXT
 70
     1
  9
$LTSCALE
 40
1.0
  9
$ATTMODE
 70
     1
  9
$TEXTSIZE
 40
0.2
  9
$TRACEWID
 40
0.05
  9
$TEXTSTYLE
  7
Standard
  9
$CLAYER
  8
0
  9
$CELTYPE
  6
ByLayer
  9
$CECOLOR
 62
   256
  9
$CELTSCALE
 40
1.0
  9
$DISPSILH
 70
     0
  9
$DIMSCALE
 40
1.0
  9
$DIMASZ
 40
0.18
  9
$DIMEXO
 40
0.0625
  9
$DIMDLI
 40
0.38
  9
$DIMRND
 40
0.0
  9
$DIMDLE
 40
0.0
  9
$DIMEXE
 40
0.18
  9
$DIMTP
 40
0.0
  9
$DIMTM
 40
0.0
  9
$DIMTXT
 40
0.18
  9
$DIMCEN
 40
0.09
  9
$DIMTSZ
 40
0.0
  9
$DIMTOL
 70
     0
  9
$DIMLIM
 70
     0
  9
$DIMTIH
 70
     1
  9
$DIMTOH
 70
     1
  9
$DIMSE1
 70
     0
  9
$DIMSE2
 70
     0
  9
$DIMTAD
 70
     0
  9
$DIMZIN
 70
     0
  9
$DIMBLK
  1

  9
$DIMASO
 70
     1
  9
$DIMSHO
 70
     1
  9
$DIMPOST
  1

  9
$DIMAPOST
  1

  9
$DIMALT
 70
     0
  9
$DIMALTD
 70
     2
  9
$DIMALTF
 40
25.4
  9
$DIMLFAC
 40
1.0
  9
$DIMTOFL
 70
     0
  9
$DIMTVP
 40
0.0
  9
$DIMTIX
 70
     0
  9
$DIMSOXD
 70
     0
  9
$DIMSAH
 70
     0
  9
$DIMBLK1
  1

  9
$DIMBLK2
  1

  9
$DIMSTYLE
  2
Standard
  9
$DIMCLRD
 70
     0
  9
$DIMCLRE
 70
     0
  9
$DIMCLRT
 70
     0
  9
$DIMTFAC
 40
1.0
  9
$DIMGAP
 40
0.09
  9
$DIMJUST
 70
     0
  9
$DIMSD1
 70
     0
  9
$DIMSD2
 70
     0
  9
$DIMTOLJ
 70
     1
  9
$DIMTZIN
 70
     0
  9
$DIMALTZ
 70
     0
  9
$DIMALTTZ
 70
     0
  9
$DIMUPT
 70
     0
  9
$DIMDEC
 70
     4
  9
$DIMTDEC
 70
     4
  9
$DIMALTU
 70
     2
  9
$DIMALTTD
 70
     2
  9
$DIMTXSTY
  7
Standard
  9
$DIMAUNIT
 70
     0
  9
$DIMADEC
 70
     0
  9
$DIMALTRND
 40
0.0
  9
$DIMAZIN
 70
     0
  9
$DIMDSEP
 70
    46
  9
$DIMATFIT
 70
     3
  9
$DIMFRAC
 70
     0
  9
$DIMLDRBLK
  1

  9
$DIMLUNIT
 70
     2
  9
$DIMLWD
 70
    -2
  9
$DIMLWE
 70
    -2
  9
$DIMTMOVE
 70
     0
  9
$LUNITS
 70
     2
  9
$LUPREC
 70
     4
  9
$SKETCHINC
 40
0.1
  9
$FILLETRAD
 40
0.5
  9
$AUNITS
 70
     0
  9
$AUPREC
 70
     0
  9
$MENU
  1
.
  9
$ELEVATION
 40
0.0
  9
$PELEVATION
 40
0.0
  9
$THICKNESS
 40
0.0
  9
$LIMCHECK
 70
     0
  9
$CHAMFERA
 40
0.5
  9
$CHAMFERB
 40
0.5
  9
$CHAMFERC
 40
1.0
  9
$CHAMFERD
 40
0.0
  9
$SKPOLY
 70
     0
  9
$TDCREATE
 40
2460559.681168981
  9
$TDUCREATE
 40
2460559.597835648
  9
$TDUPDATE
 40
2460559.681168993
  9
$TDUUPDATE
 40
2460559.59783566
  9
$TDINDWG
 40
0.0000000116
  9
$TDUSRTIMER
 40
0.0000000116
  9
$USRTIMER
 70
     1
  9
$ANGBASE
 50
0.0
  9
$ANGDIR
 70
     0
  9
$PDMODE
 70
     0
  9
$PDSIZE
 40
0.0
  9
$PLINEWID
 40
0.0
  9
$SPLFRAME
 70
     0
  9
$SPLINETYPE
 70
     6
  9
$SPLINESEGS
 70
     8
  9
$HANDSEED
  5
1F6
  9
$SURFTAB1
 70
     6
  9
$SURFTAB2
 70
     6
  9
$SURFTYPE
 70
     6
  9
$SURFU
 70
     6
  9
$SURFV
 70
     6
  9
$UCSBASE
  2

  9
$UCSNAME
  2

  9
$UCSORG
 10
0.0
 20
0.0
 30
0.0
  9
$UCSXDIR
 10
1.0
 20
0.0
 30
0.0
  9
$UCSYDIR
 10
0.0
 20
1.0
 30
0.0
  9
$UCSORTHOREF
  2

  9
$UCSORTHOVIEW
 70
     0
  9
$UCSORGTOP
 10
0.0
 20
0.0
 30
0.0
  9
$UCSORGBOTTOM
 10
0.0
 20
0.0
 30
0.0
  9
$UCSORGLEFT
 10
0.0
 20
0.0
 30
0.0
  9
$UCSORGRIGHT
 10
0.0
 20
0.0
 30
0.0
  9
$UCSORGFRONT
 10
0.0
 20
0.0
 30
0.0
  9
$UCSORGBACK
 10
0.0
 20
0.0
 30
0.0
  9
$PUCSBASE
  2

  9
$PUCSNAME
  2

  9
$PUCSORG
 10
0.0
 20
0.0
 30
0.0
  9
$PUCSXDIR
 10
1.0
 20
0.0
 30
0.0
  9
$PUCSYDIR
 10
0.0
 20
1.0
 30
0.0
  9
$PUCSORTHOREF
  2

  9
$PUCSORTHOVIEW
 70
     0
  9
$PUCSORGTOP
 10
0.0
 20
0.0
 30
0.0
  9
$PUCSORGBOTTOM
 10
0.0
 20
0.0
 30
0.0
  9
$PUCSORGLEFT
 10
0.0
 20
0.0
 30
0.0
  9
$PUCSORGRIGHT
 10
0.0
 20
0.0
 30
0.0
  9
$PUCSORGFRONT
 10
0.0
 20
0.0
 30
0.0
  9
$PUCSORGBACK
 10
0.0
 20
0.0
 30
0.0
  9
$USERI1
 70
     0
  9
$USERI2
 70
     0
  9
$USERI3
 70
     0
  9
$USERI4
 70
     0
  9
$USERI5
 70
     0
  9
$USERR1
 40
0.0
  9
$USERR2
 40
0.0
  9
$USERR3
 40
0.0
  9
$USERR4
 40
0.0
  9
$USERR5
 40
0.0
  9
$WORLDVIEW
 70
     1
  9
$SHADEDGE
 70
     3
  9
$SHADEDIF
 70
    70
  9
$TILEMODE
 70
     1
  9
$MAXACTVP
 70
    64
  9
$PINSBASE
 10
0.0
 20
0.0
 30
0.0
  9
$PLIMCHECK
 70
     0
  9
$PEXTMIN
 10
1.000000000000000E+20
 20
1.000000000000000E+20
 30
1.000000000000000E+20
  9
$PEXTMAX
 10
-1.000000000000000E+20
 20
-1.000000000000000E+20
 30
-1.000000000000000E+20
  9
$PLIMMIN
 10
0.0
 20
0.0
  9
$PLIMMAX
 10
12.0
 20
9.0
  9
$UNITMODE
 70
     0
  9
$VISRETAIN
 70
     1
  9
$PLINEGEN
 70
     0
  9
$PSLTSCALE
 70
     1
  9
$TREEDEPTH
 70
  3020
  9
$CMLSTYLE
  2
Standard
  9
$CMLJUST
 70
     0
  9
$CMLSCALE
 40
1.0
  9
$PROXYGRAPHICS
 70
     1
  9
$MEASUREMENT
 70
     0
  9
$CELWEIGHT
370
    -1
  9
$ENDCAPS
280
     0
  9
$JOINSTYLE
280
     0
  9
$LWDISPLAY
290
     1
  9
$INSUNITS
 70
     1
  9
$HYPERLINKBASE
  1

  9
$STYLESHEET
  1

  9
$XEDIT
290
     1
  9
$CEPSNTYPE
380
     0
  9
$PSTYLEMODE
290
     1
  9
$FINGERPRINTGUID
  2
{1F30170F-C484-3B89-32BD-AA9425B1222E}
  9
$VERSIONGUID
  2
{FAEB1C32-E019-11D5-929B-00C0DF256EC4}
  9
$EXTNAMES
290
     1
  9
$PSVPSCALE
 40
0.0
  9
$OLESTARTUP
290
     0
  9
$SORTENTS
280
   127
  9
$INDEXCTL
280
     0
  9
$HIDETEXT
280
     1
  9
$XCLIPFRAME
290
     0
  9
$HALOGAP
280
     0
  9
$OBSCOLOR
 70
   257
  9
$OBSLTYPE
280
     0
  9
$INTERSECTIONDISPLAY
280
     0
  9
$INTERSECTIONCOLOR
 70
   257
  9
$DIMASSOC
280
     2
  9
$PROJECTNAME
  1

  0
ENDSEC
  0
SECTION
  2
CLASSES
  0
CLASS
  1
ACDBDICTIONARYWDFLT
  2
AcDbDictionaryWithDefault
  3
ObjectDBX Classes
 90
        0
 91
        3
280
     0
281
     0
  0
CLASS
  1
VISUALSTYLE
  2
AcDbVisualStyle
  3
ObjectDBX Classes
 90
     4095
 91
        3
280
     0
281
     0
  0
ENDSEC
  0
SECTION
  2
TABLES
  0
TABLE
  2
VPORT
  5
8
330
0
100
AcDbSymbolTable
 70
     1
  0
VPORT
  5
29
330
8
100
AcDbSymbolTableRecord
100
AcDbViewportTableRecord
  2
*Active
 70
     0
 10
0.0
 20
0.0
 11
1.0
 21
1.0
 12
0.0
 22
0.0
 13
0.0
 23
0.0
 14
0.5
 24
0.5
 15
0.5
 25
0.5
 16
0.0
 26
0.0
 36
1.0
 17
4.133890787760416
 27
-5.846455891927083
 37
0.0
 40
11.69291178385417
 41
0.7070763662937378
 42
50.0
 43
0.0
 44
0.0
 50
0.0
 51
0.0
 71
     0
 72
   100
 73
     1
 74
     3
 75
     0
 76
     0
 77
     0
 78
     0
281
     0
 65
     1
110
0.0
120
0.0
130
0.0
111
1.0
121
0.0
131
0.0
112
0.0
122
1.0
132
0.0
 79
     0
146
0.0
  0
ENDTAB
  0
TABLE
  2
LTYPE
  5
5
330
0
100
AcDbSymbolTable
 70
     1
  0
LTYPE
  5
14
330
5
100
AcDbSymbolTableRecord
100
AcDbLinetypeTableRecord
  2
ByBlock
 70
     0
  3

 72
    65
 73
     0
 40
0.0
  0
LTYPE
  5
15
330
5
100
AcDbSymbolTableRecord
100
AcDbLinetypeTableRecord
  2
ByLayer
 70
     0
  3

 72
    65
 73
     0
 40
0.0
  0
LTYPE
  5
16
330
5
100
AcDbSymbolTableRecord
100
AcDbLinetypeTableRecord
  2
Continuous
 70
     0
  3
Solid line
 72
    65
 73
     0
 40
0.0
  0
ENDTAB
  0
TABLE
  2
LAYER
  5
2
330
0
100
AcDbSymbolTable
 70
     2
  0
LAYER
  5
10
330
2
100
AcDbSymbolTableRecord
100
AcDbLayerTableRecord
  2
0
 70
     0
 62
     7
  6
Continuous
370
    -3
390
F
  0
LAYER
  5
3B
330
2
100
AcDbSymbolTableRecord
100
AcDbLayerTableRecord
  2
Layer 1
 70
     0
 62
     7
  6
Continuous
370
    -3
390
F
  0
ENDTAB
  0
TABLE
  2
STYLE
  5
3
330
0
100
AcDbSymbolTable
 70
     1
  0
STYLE
  5
11
330
3
100
AcDbSymbolTableRecord
100
AcDbTextStyleTableRecord
  2
Standard
 70
     0
 40
0.0
 41
1.0
 50
0.0
 71
     0
 42
0.2
  3
txt
  4

  0
ENDTAB
  0
TABLE
  2
VIEW
  5
6
330
0
100
AcDbSymbolTable
 70
     0
  0
ENDTAB
  0
TABLE
  2
UCS
  5
7
330
0
100
AcDbSymbolTable
 70
     0
  0
ENDTAB
  0
TABLE
  2
APPID
  5
9
330
0
100
AcDbSymbolTable
 70
     1
  0
APPID
  5
12
330
9
100
AcDbSymbolTableRecord
100
AcDbRegAppTableRecord
  2
ACAD
 70
     0
  0
ENDTAB
  0
TABLE
  2
DIMSTYLE
  5
A
330
0
100
AcDbSymbolTable
 70
     1
100
AcDbDimStyleTable
  0
DIMSTYLE
105
27
330
A
100
AcDbSymbolTableRecord
100
AcDbDimStyleTableRecord
  2
Standard
 70
     0
340
11
  0
ENDTAB
  0
TABLE
  2
BLOCK_RECORD
  5
1
330
0
100
AcDbSymbolTable
 70
     1
  0
BLOCK_RECORD
  5
1F
330
1
100
AcDbSymbolTableRecord
100
AcDbBlockTableRecord
  2
*Model_Space
340
22
  0
BLOCK_RECORD
  5
1B
330
1
100
AcDbSymbolTableRecord
100
AcDbBlockTableRecord
  2
*Paper_Space
340
1E
  0
BLOCK_RECORD
  5
23
330
1
100
AcDbSymbolTableRecord
100
AcDbBlockTableRecord
  2
*Paper_Space0
340
26
  0
ENDTAB
  0
ENDSEC
  0
SECTION
  2
BLOCKS
  0
BLOCK
  5
20
330
1F
100
AcDbEntity
  8
0
100
AcDbBlockBegin
  2
*Model_Space
 70
     0
 71
     0
 10
0.0
 20
0.0
 30
0.0
  3
*Model_Space
  1

  0
ENDBLK
  5
21
330
1F
100
AcDbEntity
  8
0
100
AcDbBlockEnd
  0
BLOCK
  5
1C
330
1B
100
AcDbEntity
 67
     1
  8
0
100
AcDbBlockBegin
  2
*Paper_Space
 70
     0
 71
     0
 10
0.0
 20
0.0
 30
0.0
  3
*Paper_Space
  1

  0
ENDBLK
  5
1D
330
1B
100
AcDbEntity
 67
     1
  8
0
100
AcDbBlockEnd
  0
BLOCK
  5
24
330
23
100
AcDbEntity
  8
0
100
AcDbBlockBegin
  2
*Paper_Space0
 70
     0
 71
     0
 10
0.0
 20
0.0
 30
0.0
  3
*Paper_Space0
  1

  0
ENDBLK
  5
25
330
23
100
AcDbEntity
  8
0
100
AcDbBlockEnd
  0
ENDSEC
  0
SECTION
  2
ENTITIES
  0
POLYLINE
  5
3C
330
1F
100
AcDbEntity
  8
Layer 1
370
     0
100
AcDb2dPolyline
 66
     1
 10
0.0
 20
0.0
 30
0.0
  0
VERTEX
  5
3D
330
3C
100
AcDbEntity
  8
Layer 1
370
     0
100
AcDbVertex
100
AcDb2dVertex
 10
8.25442165798611
 20
-6.453776041666666
 30
0.0
  0
VERTEX
  5
3E
330
3C
100
AcDbEntity
  8
Layer 1
370
     0
100
AcDbVertex
100
AcDb2dVertex
 10
7.628363715277778
 20
-6.093275282118055
 30
0.0
  0
VERTEX
  5
3F
330
3C
100
AcDbEntity
  8
Layer 1
370
     0
100
AcDbVertex
100
AcDb2dVertex
 10
8.2515869140625
 20
-5.736463758680555
 30
0.0
  0
VERTEX
  5
40
330
3C
100
AcDbEntity
  8
Layer 1
370
     0
100
AcDbVertex
100
AcDb2dVertex
 10
8.258612738715277
 20
-3.718621148003472
 30
0.0
  0
VERTEX
  5
41
330
3C
100
AcDbEntity
  8
Layer 1
370
     0
100
AcDbVertex
100
AcDb2dVertex
 10
6.515909830729166
 20
-2.7034912109375
 30
0.0
  0
VERTEX
  5
42
330
3C
100
AcDbEntity
  8
Layer 1
370
     0
100
AcDbVertex
100
AcDb2dVertex
 10
5.8759765625
 20
-3.069675021701389
 30
0.0
  0
VERTEX
  5
43
330
3C
100
AcDbEntity
  8
Layer 1
370
     0
100
AcDbVertex
100
AcDb2dVertex
 10
5.87548828125
 20
-2.346686469184028
 30
0.0
  0
VERTEX
  5
44
330
3C
100
AcDbEntity
  8
Layer 1
370
     0
100
AcDbVertex
100
AcDb2dVertex
 10
4.127760145399305
 20
-1.339084201388889
 30
0.0
  0
VERTEX
  5
45
330
3C
100
AcDbEntity
  8
Layer 1
370
     0
100
AcDbVertex
100
AcDb2dVertex
 10
2.380716959635417
 20
-2.349717881944444
 30
0.0
  0
VERTEX
  5
46
330
3C
100
AcDbEntity
  8
Layer 1
370
     0
100
AcDbVertex
100
AcDb2dVertex
 10
2.381598578559028
 20
-3.067159016927083
 30
0.0
  0
VERTEX
  5
47
330
3C
100
AcDbEntity
  8
Layer 1
370
     0
100
AcDbVertex
100
AcDb2dVertex
 10
1.749925401475694
 20
-2.703335232204861
 30
0.0
  0
VERTEX
  5
48
330
3C
100
AcDbEntity
  8
Layer 1
370
     0
100
AcDbVertex
100
AcDb2dVertex
 10
0.0036892361111111
 20
-3.713812934027778
 30
0.0
  0
VERTEX
  5
49
330
3C
100
AcDbEntity
  8
Layer 1
370
     0
100
AcDbVertex
100
AcDb2dVertex
 10
0.0060560438368056
 20
-5.731886121961805
 30
0.0
  0
VERTEX
  5
4A
330
3C
100
AcDbEntity
  8
Layer 1
370
     0
100
AcDbVertex
100
AcDb2dVertex
 10
0.6321885850694444
 20
-6.092393663194444
 30
0.0
  0
VERTEX
  5
4B
330
3C
100
AcDbEntity
  8
Layer 1
370
     0
100
AcDbVertex
100
AcDb2dVertex
 10
0.0085652669270833
 20
-6.449110243055555
 30
0.0
  0
VERTEX
  5
4C
330
3C
100
AcDbEntity
  8
Layer 1
370
     0
100
AcDbVertex
100
AcDb2dVertex
 10
0.0
 20
-8.467108832465277
 30
0.0
  0
VERTEX
  5
4D
330
3C
100
AcDbEntity
  8
Layer 1
370
     0
100
AcDbVertex
100
AcDb2dVertex
 10
1.744622124565972
 20
-9.482259114583332
 30
0.0
  0
VERTEX
  5
4E
330
3C
100
AcDbEntity
  8
Layer 1
370
     0
100
AcDbVertex
100
AcDb2dVertex
 10
2.382039388020833
 20
-9.11733669704861
 30
0.0
  0
VERTEX
  5
4F
330
3C
100
AcDbEntity
  8
Layer 1
370
     0
100
AcDbVertex
100
AcDb2dVertex
 10
2.38262939453125
 20
-9.85403103298611
 30
0.0
  0
VERTEX
  5
50
330
3C
100
AcDbEntity
  8
Layer 1
370
     0
100
AcDbVertex
100
AcDb2dVertex
 10
4.130642361111111
 20
-10.86214192708333
 30
0.0
  0
VERTEX
  5
51
330
3C
100
AcDbEntity
  8
Layer 1
370
     0
100
AcDbVertex
100
AcDb2dVertex
 10
5.8773193359375
 20
-9.851291232638888
 30
0.0
  0
VERTEX
  5
52
330
3C
100
AcDbEntity
  8
Layer 1
370
     0
100
AcDbVertex
100
AcDb2dVertex
 10
5.876736111111111
 20
-9.117255316840277
 30
0.0
  0
VERTEX
  5
53
330
3C
100
AcDbEntity
  8
Layer 1
370
     0
100
AcDbVertex
100
AcDb2dVertex
 10
6.510538736979166
 20
-9.482259114583332
 30
0.0
  0
VERTEX
  5
54
330
3C
100
AcDbEntity
  8
Layer 1
370
     0
100
AcDbVertex
100
AcDb2dVertex
 10
8.25656467013889
 20
-8.47177463107639
 30
0.0
  0
VERTEX
  5
55
330
3C
100
AcDbEntity
  8
Layer 1
370
     0
100
AcDbVertex
100
AcDb2dVertex
 10
8.25442165798611
 20
-6.453776041666666
 30
0.0
  0
SEQEND
  5
56
330
3C
100
AcDbEntity
  8
Layer 1
370
     0
  0
POLYLINE
  5
57
330
1F
100
AcDbEntity
  8
Layer 1
370
     0
100
AcDb2dPolyline
 66
     1
 10
0.0
 20
0.0
 30
0.0
  0
VERTEX
  5
58
330
57
100
AcDbEntity
  8
Layer 1
370
     0
100
AcDbVertex
100
AcDb2dVertex
 10
8.024970160590277
 20
-6.586819118923611
 30
0.0
  0
VERTEX
  5
59
330
57
100
AcDbEntity
  8
Layer 1
370
     0
100
AcDbVertex
100
AcDb2dVertex
 10
8.025824652777777
 20
-7.3331298828125
 30
0.0
  0
VERTEX
  5
5A
330
57
100
AcDbEntity
  8
Layer 1
370
     0
100
AcDbVertex
100
AcDb2dVertex
 10
7.383246527777778
 20
-6.962673611111111
 30
0.0
  0
VERTEX
  5
5B
330
57
100
AcDbEntity
  8
Layer 1
370
     0
100
AcDbVertex
100
AcDb2dVertex
 10
7.382676866319444
 20
-6.234144422743055
 30
0.0
  0
VERTEX
  5
5C
330
57
100
AcDbEntity
  8
Layer 1
370
     0
100
AcDbVertex
100
AcDb2dVertex
 10
7.397447374131944
 20
-6.225341796875
 30
0.0
  0
VERTEX
  5
5D
330
57
100
AcDbEntity
  8
Layer 1
370
     0
100
AcDbVertex
100
AcDb2dVertex
 10
8.024970160590277
 20
-6.586819118923611
 30
0.0
  0
SEQEND
  5
5E
330
57
100
AcDbEntity
  8
Layer 1
370
     0
  0
POLYLINE
  5
5F
330
1F
100
AcDbEntity
  8
Layer 1
370
     0
100
AcDb2dPolyline
 66
     1
 10
0.0
 20
0.0
 30
0.0
  0
VERTEX
  5
60
330
5F
100
AcDbEntity
  8
Layer 1
370
     0
100
AcDbVertex
100
AcDb2dVertex
 10
5.228095160590278
 20
-7.460177951388888
 30
0.0
  0
VERTEX
  5
61
330
5F
100
AcDbEntity
  8
Layer 1
370
     0
100
AcDbVertex
100
AcDb2dVertex
 10
4.990505642361111
 20
-7.323594835069444
 30
0.0
  0
VERTEX
  5
62
330
5F
100
AcDbEntity
  8
Layer 1
370
     0
100
AcDbVertex
100
AcDb2dVertex
 10
4.989773220486111
 20
-6.590196397569444
 30
0.0
  0
VERTEX
  5
63
330
5F
100
AcDbEntity
  8
Layer 1
370
     0
100
AcDbVertex
100
AcDb2dVertex
 10
5.619737413194444
 20
-6.225653754340278
 30
0.0
  0
VERTEX
  5
64
330
5F
100
AcDbEntity
  8
Layer 1
370
     0
100
AcDbVertex
100
AcDb2dVertex
 10
5.859822591145833
 20
-6.365627712673611
 30
0.0
  0
VERTEX
  5
65
330
5F
100
AcDbEntity
  8
Layer 1
370
     0
100
AcDbVertex
100
AcDb2dVertex
 10
5.754557291666666
 20
-6.547892252604166
 30
0.0
  0
VERTEX
  5
66
330
5F
100
AcDbEntity
  8
Layer 1
370
     0
100
AcDbVertex
100
AcDb2dVertex
 10
6.266465928819444
 20
-7.325520833333333
 30
0.0
  0
VERTEX
  5
67
330
5F
100
AcDbEntity
  8
Layer 1
370
     0
100
AcDbVertex
100
AcDb2dVertex
 10
5.336968315972222
 20
-7.271402994791666
 30
0.0
  0
VERTEX
  5
68
330
5F
100
AcDbEntity
  8
Layer 1
370
     0
100
AcDbVertex
100
AcDb2dVertex
 10
5.228095160590278
 20
-7.460177951388888
 30
0.0
  0
SEQEND
  5
69
330
5F
100
AcDbEntity
  8
Layer 1
370
     0
  0
POLYLINE
  5
6A
330
1F
100
AcDbEntity
  8
Layer 1
370
     0
100
AcDb2dPolyline
 66
     1
 10
0.0
 20
0.0
 30
0.0
  0
VERTEX
  5
6B
330
6A
100
AcDbEntity
  8
Layer 1
370
     0
100
AcDbVertex
100
AcDb2dVertex
 10
5.645955403645833
 20
-7.966349283854166
 30
0.0
  0
VERTEX
  5
6C
330
6A
100
AcDbEntity
  8
Layer 1
370
     0
100
AcDbVertex
100
AcDb2dVertex
 10
5.646389431423611
 20
-8.687920464409721
 30
0.0
  0
VERTEX
  5
6D
330
6A
100
AcDbEntity
  8
Layer 1
370
     0
100
AcDbVertex
100
AcDb2dVertex
 10
5.619086371527778
 20
-8.703653971354166
 30
0.0
  0
VERTEX
  5
6E
330
6A
100
AcDbEntity
  8
Layer 1
370
     0
100
AcDbVertex
100
AcDb2dVertex
 10
4.991685655381944
 20
-8.342420789930555
 30
0.0
  0
VERTEX
  5
6F
330
6A
100
AcDbEntity
  8
Layer 1
370
     0
100
AcDbVertex
100
AcDb2dVertex
 10
4.990885416666666
 20
-7.588948567708333
 30
0.0
  0
VERTEX
  5
70
330
6A
100
AcDbEntity
  8
Layer 1
370
     0
100
AcDbVertex
100
AcDb2dVertex
 10
5.645955403645833
 20
-7.966349283854166
 30
0.0
  0
SEQEND
  5
71
330
6A
100
AcDbEntity
  8
Layer 1
370
     0
  0
POLYLINE
  5
72
330
1F
100
AcDbEntity
  8
Layer 1
370
     0
100
AcDb2dPolyline
 66
     1
 10
0.0
 20
0.0
 30
0.0
  0
VERTEX
  5
73
330
72
100
AcDbEntity
  8
Layer 1
370
     0
100
AcDbVertex
100
AcDb2dVertex
 10
3.054165310329861
 20
-4.754109700520833
 30
0.0
  0
VERTEX
  5
74
330
72
100
AcDbEntity
  8
Layer 1
370
     0
100
AcDbVertex
100
AcDb2dVertex
 10
3.270033094618055
 20
-4.878662109375
 30
0.0
  0
VERTEX
  5
75
330
72
100
AcDbEntity
  8
Layer 1
370
     0
100
AcDbVertex
100
AcDb2dVertex
 10
3.270846896701389
 20
-5.59552001953125
 30
0.0
  0
VERTEX
  5
76
330
72
100
AcDbEntity
  8
Layer 1
370
     0
100
AcDbVertex
100
AcDb2dVertex
 10
2.640950520833333
 20
-5.960096571180555
 30
0.0
  0
VERTEX
  5
77
330
72
100
AcDbEntity
  8
Layer 1
370
     0
100
AcDbVertex
100
AcDb2dVertex
 10
2.429212782118055
 20
-5.837015787760416
 30
0.0
  0
VERTEX
  5
78
330
72
100
AcDbEntity
  8
Layer 1
370
     0
100
AcDbVertex
100
AcDb2dVertex
 10
2.514336480034722
 20
-5.689663357204861
 30
0.0
  0
VERTEX
  5
79
330
72
100
AcDbEntity
  8
Layer 1
370
     0
100
AcDbVertex
100
AcDb2dVertex
 10
1.953843858506944
 20
-4.838046603732638
 30
0.0
  0
VERTEX
  5
7A
330
72
100
AcDbEntity
  8
Layer 1
370
     0
100
AcDbVertex
100
AcDb2dVertex
 10
2.97161865234375
 20
-4.897121853298611
 30
0.0
  0
VERTEX
  5
7B
330
72
100
AcDbEntity
  8
Layer 1
370
     0
100
AcDbVertex
100
AcDb2dVertex
 10
3.054165310329861
 20
-4.754109700520833
 30
0.0
  0
SEQEND
  5
7C
330
72
100
AcDbEntity
  8
Layer 1
370
     0
  0
POLYLINE
  5
7D
330
1F
100
AcDbEntity
  8
Layer 1
370
     0
100
AcDb2dPolyline
 66
     1
 10
0.0
 20
0.0
 30
0.0
  0
VERTEX
  5
7E
330
7D
100
AcDbEntity
  8
Layer 1
370
     0
100
AcDbVertex
100
AcDb2dVertex
 10
2.612230088975694
 20
-4.234517415364583
 30
0.0
  0
VERTEX
  5
7F
330
7D
100
AcDbEntity
  8
Layer 1
370
     0
100
AcDbVertex
100
AcDb2dVertex
 10
2.611707899305555
 20
-3.49920654296875
 30
0.0
  0
VERTEX
  5
80
330
7D
100
AcDbEntity
  8
Layer 1
370
     0
100
AcDbVertex
100
AcDb2dVertex
 10
2.641696506076389
 20
-3.48199462890625
 30
0.0
  0
VERTEX
  5
81
330
7D
100
AcDbEntity
  8
Layer 1
370
     0
100
AcDbVertex
100
AcDb2dVertex
 10
3.268778483072917
 20
-3.843315972222222
 30
0.0
  0
VERTEX
  5
82
330
7D
100
AcDbEntity
  8
Layer 1
370
     0
100
AcDbVertex
100
AcDb2dVertex
 10
3.269666883680555
 20
-4.613335503472222
 30
0.0
  0
VERTEX
  5
83
330
7D
100
AcDbEntity
  8
Layer 1
370
     0
100
AcDbVertex
100
AcDb2dVertex
 10
2.612230088975694
 20
-4.234517415364583
 30
0.0
  0
SEQEND
  5
84
330
7D
100
AcDbEntity
  8
Layer 1
370
     0
  0
POLYLINE
  5
85
330
1F
100
AcDbEntity
  8
Layer 1
370
     0
100
AcDb2dPolyline
 66
     1
 10
0.0
 20
0.0
 30
0.0
  0
VERTEX
  5
86
330
85
100
AcDbEntity
  8
Layer 1
370
     0
100
AcDbVertex
100
AcDb2dVertex
 10
2.244350857204861
 20
-5.6976318359375
 30
0.0
  0
VERTEX
  5
87
330
85
100
AcDbEntity
  8
Layer 1
370
     0
100
AcDbVertex
100
AcDb2dVertex
 10
2.230841742621528
 20
-5.721245659722222
 30
0.0
  0
VERTEX
  5
88
330
85
100
AcDbEntity
  8
Layer 1
370
     0
100
AcDbVertex
100
AcDb2dVertex
 10
1.759677463107639
 20
-5.4471435546875
 30
0.0
  0
VERTEX
  5
89
330
85
100
AcDbEntity
  8
Layer 1
370
     0
100
AcDbVertex
100
AcDb2dVertex
 10
1.12017822265625
 20
-5.8128662109375
 30
0.0
  0
VERTEX
  5
8A
330
85
100
AcDbEntity
  8
Layer 1
370
     0
100
AcDbVertex
100
AcDb2dVertex
 10
1.119289822048611
 20
-5.075188530815972
 30
0.0
  0
VERTEX
  5
8B
330
85
100
AcDbEntity
  8
Layer 1
370
     0
100
AcDbVertex
100
AcDb2dVertex
 10
0.677517361111111
 20
-4.82049560546875
 30
0.0
  0
VERTEX
  5
8C
330
85
100
AcDbEntity
  8
Layer 1
370
     0
100
AcDbVertex
100
AcDb2dVertex
 10
0.7091878255208333
 20
-4.765421549479166
 30
0.0
  0
VERTEX
  5
8D
330
85
100
AcDbEntity
  8
Layer 1
370
     0
100
AcDbVertex
100
AcDb2dVertex
 10
1.667826334635417
 20
-4.821438259548611
 30
0.0
  0
VERTEX
  5
8E
330
85
100
AcDbEntity
  8
Layer 1
370
     0
100
AcDbVertex
100
AcDb2dVertex
 10
2.244350857204861
 20
-5.6976318359375
 30
0.0
  0
SEQEND
  5
8F
330
85
100
AcDbEntity
  8
Layer 1
370
     0
  0
POLYLINE
  5
90
330
1F
100
AcDbEntity
  8
Layer 1
370
     0
100
AcDb2dPolyline
 66
     1
 10
0.0
 20
0.0
 30
0.0
  0
VERTEX
  5
91
330
90
100
AcDbEntity
  8
Layer 1
370
     0
100
AcDbVertex
100
AcDb2dVertex
 10
2.412007649739583
 20
-6.092678493923611
 30
0.0
  0
VERTEX
  5
92
330
90
100
AcDbEntity
  8
Layer 1
370
     0
100
AcDbVertex
100
AcDb2dVertex
 10
1.753919813368055
 20
-6.473564995659721
 30
0.0
  0
VERTEX
  5
93
330
90
100
AcDbEntity
  8
Layer 1
370
     0
100
AcDbVertex
100
AcDb2dVertex
 10
1.120252821180556
 20
-6.108412000868055
 30
0.0
  0
VERTEX
  5
94
330
90
100
AcDbEntity
  8
Layer 1
370
     0
100
AcDbVertex
100
AcDb2dVertex
 10
1.120252821180556
 20
-6.077690972222222
 30
0.0
  0
VERTEX
  5
95
330
90
100
AcDbEntity
  8
Layer 1
370
     0
100
AcDbVertex
100
AcDb2dVertex
 10
1.758639865451389
 20
-5.712253146701388
 30
0.0
  0
VERTEX
  5
96
330
90
100
AcDbEntity
  8
Layer 1
370
     0
100
AcDbVertex
100
AcDb2dVertex
 10
2.412007649739583
 20
-6.092678493923611
 30
0.0
  0
SEQEND
  5
97
330
90
100
AcDbEntity
  8
Layer 1
370
     0
  0
POLYLINE
  5
98
330
1F
100
AcDbEntity
  8
Layer 1
370
     0
100
AcDb2dPolyline
 66
     1
 10
0.0
 20
0.0
 30
0.0
  0
VERTEX
  5
99
330
98
100
AcDbEntity
  8
Layer 1
370
     0
100
AcDbVertex
100
AcDb2dVertex
 10
1.121134440104167
 20
-7.092515733506944
 30
0.0
  0
VERTEX
  5
9A
330
98
100
AcDbEntity
  8
Layer 1
370
     0
100
AcDbVertex
100
AcDb2dVertex
 10
1.120551215277778
 20
-6.373752170138888
 30
0.0
  0
VERTEX
  5
9B
330
98
100
AcDbEntity
  8
Layer 1
370
     0
100
AcDbVertex
100
AcDb2dVertex
 10
1.754286024305555
 20
-6.738755967881944
 30
0.0
  0
VERTEX
  5
9C
330
98
100
AcDbEntity
  8
Layer 1
370
     0
100
AcDbVertex
100
AcDb2dVertex
 10
2.232462565104167
 20
-6.461819118923611
 30
0.0
  0
VERTEX
  5
9D
330
98
100
AcDbEntity
  8
Layer 1
370
     0
100
AcDbVertex
100
AcDb2dVertex
 10
2.249220106336805
 20
-6.4912109375
 30
0.0
  0
VERTEX
  5
9E
330
98
100
AcDbEntity
  8
Layer 1
370
     0
100
AcDbVertex
100
AcDb2dVertex
 10
1.668714735243055
 20
-7.364529079861111
 30
0.0
  0
VERTEX
  5
9F
330
98
100
AcDbEntity
  8
Layer 1
370
     0
100
AcDbVertex
100
AcDb2dVertex
 10
0.7097710503472222
 20
-7.416273328993055
 30
0.0
  0
VERTEX
  5
A0
330
98
100
AcDbEntity
  8
Layer 1
370
     0
100
AcDbVertex
100
AcDb2dVertex
 10
0.67315673828125
 20
-7.351860894097221
 30
0.0
  0
VERTEX
  5
A1
330
98
100
AcDbEntity
  8
Layer 1
370
     0
100
AcDbVertex
100
AcDb2dVertex
 10
1.121134440104167
 20
-7.092515733506944
 30
0.0
  0
SEQEND
  5
A2
330
98
100
AcDbEntity
  8
Layer 1
370
     0
  0
POLYLINE
  5
A3
330
1F
100
AcDbEntity
  8
Layer 1
370
     0
100
AcDb2dPolyline
 66
     1
 10
0.0
 20
0.0
 30
0.0
  0
VERTEX
  5
A4
330
A3
100
AcDbEntity
  8
Layer 1
370
     0
100
AcDbVertex
100
AcDb2dVertex
 10
2.518839518229167
 20
-6.5001220703125
 30
0.0
  0
VERTEX
  5
A5
330
A3
100
AcDbEntity
  8
Layer 1
370
     0
100
AcDbVertex
100
AcDb2dVertex
 10
2.431430392795139
 20
-6.346950954861111
 30
0.0
  0
VERTEX
  5
A6
330
A3
100
AcDbEntity
  8
Layer 1
370
     0
100
AcDbVertex
100
AcDb2dVertex
 10
2.640652126736111
 20
-6.225870768229166
 30
0.0
  0
VERTEX
  5
A7
330
A3
100
AcDbEntity
  8
Layer 1
370
     0
100
AcDbVertex
100
AcDb2dVertex
 10
3.272983127170139
 20
-6.594129774305555
 30
0.0
  0
VERTEX
  5
A8
330
A3
100
AcDbEntity
  8
Layer 1
370
     0
100
AcDbVertex
100
AcDb2dVertex
 10
3.270331488715278
 20
-7.3218994140625
 30
0.0
  0
VERTEX
  5
A9
330
A3
100
AcDbEntity
  8
Layer 1
370
     0
100
AcDbVertex
100
AcDb2dVertex
 10
3.0582275390625
 20
-7.444620768229166
 30
0.0
  0
VERTEX
  5
AA
330
A3
100
AcDbEntity
  8
Layer 1
370
     0
100
AcDbVertex
100
AcDb2dVertex
 10
2.972886827256944
 20
-7.294731987847221
 30
0.0
  0
VERTEX
  5
AB
330
A3
100
AcDbEntity
  8
Layer 1
370
     0
100
AcDbVertex
100
AcDb2dVertex
 10
1.95465087890625
 20
-7.349297417534721
 30
0.0
  0
VERTEX
  5
AC
330
A3
100
AcDbEntity
  8
Layer 1
370
     0
100
AcDbVertex
100
AcDb2dVertex
 10
2.518839518229167
 20
-6.5001220703125
 30
0.0
  0
SEQEND
  5
AD
330
A3
100
AcDbEntity
  8
Layer 1
370
     0
  0
SPLINE
  5
AE
330
1F
100
AcDbEntity
  8
Layer 1
370
     0
100
AcDbSpline
210
0.0
220
0.0
230
1.0
 70
    11
 71
     3
 72
    23
 73
    19
 74
     0
 42
0.0000000001
 43
0.0000000001
 40
0.0
 40
0.0
 40
0.0
 40
0.0
 40
1.0
 40
1.0
 40
1.0
 40
2.0
 40
2.0
 40
2.0
 40
3.0
 40
3.0
 40
3.0
 40
4.0
 40
4.0
 40
4.0
 40
5.0
 40
5.0
 40
5.0
 40
6.0
 40
6.0
 40
6.0
 40
6.0
 10
2.869588216145833
 20
-6.093275282118055
 30
0.0
 10
2.869588216145833
 20
-6.093275282118055
 30
0.0
 10
3.466640896267361
 20
-5.747538248697916
 30
0.0
 10
3.466640896267361
 20
-5.747538248697916
 30
0.0
 10
3.545260959201389
 20
-5.840562608506944
 30
0.0
 10
3.692179361979167
 20
-6.000311957465278
 30
0.0
 10
3.759209526909722
 20
-6.038791232638888
 30
0.0
 10
3.840569390190972
 20
-6.086032443576388
 30
0.0
 10
3.941928439670139
 20
-6.097276475694444
 30
0.0
 10
4.020046657986111
 20
-6.097493489583333
 30
0.0
 10
3.941928439670139
 20
-6.098212348090278
 30
0.0
 10
3.840867784288194
 20
-6.110175238715278
 30
0.0
 10
3.759358723958333
 20
-6.157741970486111
 30
0.0
 10
3.694254557291667
 20
-6.195814344618055
 30
0.0
 10
3.552788628472222
 20
-6.350992838541666
 30
0.0
 10
3.473727756076389
 20
-6.445054796006944
 30
0.0
 10
3.473727756076389
 20
-6.445054796006944
 30
0.0
 10
2.869588216145833
 20
-6.093275282118055
 30
0.0
 10
2.869588216145833
 20
-6.093275282118055
 30
0.0
  0
SPLINE
  5
AF
330
1F
100
AcDbEntity
  8
Layer 1
370
     0
100
AcDbSpline
210
0.0
220
0.0
230
1.0
 70
    11
 71
     3
 72
    23
 73
    19
 74
     0
 42
0.0000000001
 43
0.0000000001
 40
0.0
 40
0.0
 40
0.0
 40
0.0
 40
1.0
 40
1.0
 40
1.0
 40
2.0
 40
2.0
 40
2.0
 40
3.0
 40
3.0
 40
3.0
 40
4.0
 40
4.0
 40
4.0
 40
5.0
 40
5.0
 40
5.0
 40
6.0
 40
6.0
 40
6.0
 40
6.0
 10
4.2076416015625
 20
-6.216701931423611
 30
0.0
 10
4.2470703125
 20
-6.2806396484375
 30
0.0
 10
4.304050021701388
 20
-6.353230794270833
 30
0.0
 10
4.379218207465278
 20
-6.396416558159721
 30
0.0
 10
4.442925347222222
 20
-6.433254665798611
 30
0.0
 10
4.637749565972222
 20
-6.477322048611111
 30
0.0
 10
4.760023328993055
 20
-6.5001220703125
 30
0.0
 10
4.760023328993055
 20
-6.5001220703125
 30
0.0
 10
4.760525173611111
 20
-7.191311306423611
 30
0.0
 10
4.760525173611111
 20
-7.191311306423611
 30
0.0
 10
4.760525173611111
 20
-7.191311306423611
 30
0.0
 10
4.172214084201388
 20
-6.852294921875
 30
0.0
 10
4.172214084201388
 20
-6.852294921875
 30
0.0
 10
4.213324652777778
 20
-6.737196180555555
 30
0.0
 10
4.277696397569445
 20
-6.531806098090278
 30
0.0
 10
4.277696397569445
 20
-6.4549560546875
 30
0.0
 10
4.277696397569445
 20
-6.368503146701388
 30
0.0
 10
4.243448893229166
 20
-6.282633463541666
 30
0.0
 10
4.2076416015625
 20
-6.216701931423611
 30
0.0
  0
SPLINE
  5
B0
330
1F
100
AcDbEntity
  8
Layer 1
370
     0
100
AcDbSpline
210
0.0
220
0.0
230
1.0
 70
    11
 71
     3
 72
    23
 73
    19
 74
     0
 42
0.0000000001
 43
0.0000000001
 40
0.0
 40
0.0
 40
0.0
 40
0.0
 40
1.0
 40
1.0
 40
1.0
 40
2.0
 40
2.0
 40
2.0
 40
3.0
 40
3.0
 40
3.0
 40
4.0
 40
4.0
 40
4.0
 40
5.0
 40
5.0
 40
5.0
 40
6.0
 40
6.0
 40
6.0
 40
6.0
 10
4.174791124131945
 20
-5.3492431640625
 30
0.0
 10
4.174791124131945
 20
-5.3492431640625
 30
0.0
 10
4.759874131944444
 20
-5.010586208767361
 30
0.0
 10
4.759874131944444
 20
-5.010586208767361
 30
0.0
 10
4.759874131944444
 20
-5.010586208767361
 30
0.0
 10
4.757297092013888
 20
-5.689805772569444
 30
0.0
 10
4.757297092013888
 20
-5.689805772569444
 30
0.0
 10
4.635470920138888
 20
-5.713358561197916
 30
0.0
 10
4.440497504340278
 20
-5.759128146701388
 30
0.0
 10
4.3770751953125
 20
-5.796054416232638
 30
0.0
 10
4.306572808159722
 20
-5.837470160590278
 30
0.0
 10
4.252007378472222
 20
-5.90478515625
 30
0.0
 10
4.213623046875
 20
-5.966295030381944
 30
0.0
 10
4.247355143229166
 20
-5.901991102430555
 30
0.0
 10
4.277696397569445
 20
-5.821058485243055
 30
0.0
 10
4.277696397569445
 20
-5.739278157552083
 30
0.0
 10
4.277696397569445
 20
-5.663811577690972
 30
0.0
 10
4.215901692708333
 20
-5.465365939670138
 30
0.0
 10
4.174791124131945
 20
-5.3492431640625
 30
0.0
  0
POLYLINE
  5
B1
330
1F
100
AcDbEntity
  8
Layer 1
370
     0
100
AcDb2dPolyline
 66
     1
 10
0.0
 20
0.0
 30
0.0
  0
VERTEX
  5
B2
330
B1
100
AcDbEntity
  8
Layer 1
370
     0
100
AcDbVertex
100
AcDb2dVertex
 10
4.130642361111111
 20
-5.10931396484375
 30
0.0
  0
VERTEX
  5
B3
330
B1
100
AcDbEntity
  8
Layer 1
370
     0
100
AcDbVertex
100
AcDb2dVertex
 10
3.499342176649305
 20
-4.745619032118055
 30
0.0
  0
VERTEX
  5
B4
330
B1
100
AcDbEntity
  8
Layer 1
370
     0
100
AcDbVertex
100
AcDb2dVertex
 10
3.499199761284722
 20
-4.500962999131944
 30
0.0
  0
VERTEX
  5
B5
330
B1
100
AcDbEntity
  8
Layer 1
370
     0
100
AcDbVertex
100
AcDb2dVertex
 10
3.671217176649305
 20
-4.500962999131944
 30
0.0
  0
VERTEX
  5
B6
330
B1
100
AcDbEntity
  8
Layer 1
370
     0
100
AcDbVertex
100
AcDb2dVertex
 10
4.128648546006945
 20
-3.590006510416667
 30
0.0
  0
VERTEX
  5
B7
330
B1
100
AcDbEntity
  8
Layer 1
370
     0
100
AcDbVertex
100
AcDb2dVertex
 10
4.586005316840278
 20
-4.500962999131944
 30
0.0
  0
VERTEX
  5
B8
330
B1
100
AcDbEntity
  8
Layer 1
370
     0
100
AcDbVertex
100
AcDb2dVertex
 10
4.761867947048611
 20
-4.500962999131944
 30
0.0
  0
VERTEX
  5
B9
330
B1
100
AcDbEntity
  8
Layer 1
370
     0
100
AcDbVertex
100
AcDb2dVertex
 10
4.760823567708333
 20
-4.744737413194444
 30
0.0
  0
VERTEX
  5
BA
330
B1
100
AcDbEntity
  8
Layer 1
370
     0
100
AcDbVertex
100
AcDb2dVertex
 10
4.130642361111111
 20
-5.10931396484375
 30
0.0
  0
SEQEND
  5
BB
330
B1
100
AcDbEntity
  8
Layer 1
370
     0
  0
SPLINE
  5
BC
330
1F
100
AcDbEntity
  8
Layer 1
370
     0
100
AcDbSpline
210
0.0
220
0.0
230
1.0
 70
    11
 71
     3
 72
    23
 73
    19
 74
     0
 42
0.0000000001
 43
0.0000000001
 40
0.0
 40
0.0
 40
0.0
 40
0.0
 40
1.0
 40
1.0
 40
1.0
 40
2.0
 40
2.0
 40
2.0
 40
3.0
 40
3.0
 40
3.0
 40
4.0
 40
4.0
 40
4.0
 40
5.0
 40
5.0
 40
5.0
 40
6.0
 40
6.0
 40
6.0
 40
6.0
 10
4.069363064236111
 20
-5.977498372395833
 30
0.0
 10
4.029941134982638
 20
-5.913492838541666
 30
0.0
 10
3.9730224609375
 20
-5.841010199652778
 30
0.0
 10
3.898084852430555
 20
-5.797824435763888
 30
0.0
 10
3.831339518229167
 20
-5.759202745225694
 30
0.0
 10
3.620720757378472
 20
-5.712544759114583
 30
0.0
 10
3.500372992621528
 20
-5.690761990017361
 30
0.0
 10
3.500372992621528
 20
-5.690761990017361
 30
0.0
 10
3.499782986111111
 20
-5.010959201388888
 30
0.0
 10
3.499782986111111
 20
-5.010959201388888
 30
0.0
 10
3.499782986111111
 20
-5.010959201388888
 30
0.0
 10
4.099860297309028
 20
-5.356703016493055
 30
0.0
 10
4.099860297309028
 20
-5.356703016493055
 30
0.0
 10
4.058580186631945
 20
-5.473714192708333
 30
0.0
 10
3.99945068359375
 20
-5.665439181857638
 30
0.0
 10
3.99945068359375
 20
-5.739278157552083
 30
0.0
 10
3.99945068359375
 20
-5.82586669921875
 30
0.0
 10
4.033704969618055
 20
-5.911431206597222
 30
0.0
 10
4.069363064236111
 20
-5.977498372395833
 30
0.0
  0
SPLINE
  5
BD
330
1F
100
AcDbEntity
  8
Layer 1
370
     0
100
AcDbSpline
210
0.0
220
0.0
230
1.0
 70
    11
 71
     3
 72
    23
 73
    19
 74
     0
 42
0.0000000001
 43
0.0000000001
 40
0.0
 40
0.0
 40
0.0
 40
0.0
 40
1.0
 40
1.0
 40
1.0
 40
2.0
 40
2.0
 40
2.0
 40
3.0
 40
3.0
 40
3.0
 40
4.0
 40
4.0
 40
4.0
 40
5.0
 40
5.0
 40
5.0
 40
6.0
 40
6.0
 40
6.0
 40
6.0
 10
4.101406521267361
 20
-6.841281467013888
 30
0.0
 10
4.101406521267361
 20
-6.841281467013888
 30
0.0
 10
3.500372992621528
 20
-7.188937717013888
 30
0.0
 10
3.500372992621528
 20
-7.188937717013888
 30
0.0
 10
3.500372992621528
 20
-7.188937717013888
 30
0.0
 10
3.502963595920139
 20
-6.507758246527778
 30
0.0
 10
3.502963595920139
 20
-6.507758246527778
 30
0.0
 10
3.623080783420139
 20
-6.485134548611111
 30
0.0
 10
3.833638509114583
 20
-6.436631944444444
 30
0.0
 10
3.900004069010417
 20
-6.398044162326388
 30
0.0
 10
3.970730251736111
 20
-6.356472439236111
 30
0.0
 10
4.025214301215278
 20
-6.288926866319444
 30
0.0
 10
4.063673231336805
 20
-6.227498372395833
 30
0.0
 10
4.030375162760416
 20
-6.291937934027778
 30
0.0
 10
3.99945068359375
 20
-6.373074001736111
 30
0.0
 10
3.99945068359375
 20
-6.4549560546875
 30
0.0
 10
3.99945068359375
 20
-6.529364691840278
 30
0.0
 10
4.059909396701388
 20
-6.724555121527778
 30
0.0
 10
4.101406521267361
 20
-6.841281467013888
 30
0.0
  0
POLYLINE
  5
BE
330
1F
100
AcDbEntity
  8
Layer 1
370
     0
100
AcDb2dPolyline
 66
     1
 10
0.0
 20
0.0
 30
0.0
  0
VERTEX
  5
BF
330
BE
100
AcDbEntity
  8
Layer 1
370
     0
100
AcDbVertex
100
AcDb2dVertex
 10
3.499342176649305
 20
-7.454874674479166
 30
0.0
  0
VERTEX
  5
C0
330
BE
100
AcDbEntity
  8
Layer 1
370
     0
100
AcDbVertex
100
AcDb2dVertex
 10
4.127387152777778
 20
-7.091634114583333
 30
0.0
  0
VERTEX
  5
C1
330
BE
100
AcDbEntity
  8
Layer 1
370
     0
100
AcDbVertex
100
AcDb2dVertex
 10
4.760823567708333
 20
-7.456556532118055
 30
0.0
  0
VERTEX
  5
C2
330
BE
100
AcDbEntity
  8
Layer 1
370
     0
100
AcDbVertex
100
AcDb2dVertex
 10
4.761203342013888
 20
-7.732815212673611
 30
0.0
  0
VERTEX
  5
C3
330
BE
100
AcDbEntity
  8
Layer 1
370
     0
100
AcDbVertex
100
AcDb2dVertex
 10
4.546359592013888
 20
-7.732815212673611
 30
0.0
  0
VERTEX
  5
C4
330
BE
100
AcDbEntity
  8
Layer 1
370
     0
100
AcDbVertex
100
AcDb2dVertex
 10
4.128648546006945
 20
-8.564778645833332
 30
0.0
  0
VERTEX
  5
C5
330
BE
100
AcDbEntity
  8
Layer 1
370
     0
100
AcDbVertex
100
AcDb2dVertex
 10
3.710781521267361
 20
-7.732815212673611
 30
0.0
  0
VERTEX
  5
C6
330
BE
100
AcDbEntity
  8
Layer 1
370
     0
100
AcDbVertex
100
AcDb2dVertex
 10
3.498453776041667
 20
-7.732815212673611
 30
0.0
  0
VERTEX
  5
C7
330
BE
100
AcDbEntity
  8
Layer 1
370
     0
100
AcDbVertex
100
AcDb2dVertex
 10
3.499342176649305
 20
-7.454874674479166
 30
0.0
  0
SEQEND
  5
C8
330
BE
100
AcDbEntity
  8
Layer 1
370
     0
  0
SPLINE
  5
C9
330
1F
100
AcDbEntity
  8
Layer 1
370
     0
100
AcDbSpline
210
0.0
220
0.0
230
1.0
 70
    11
 71
     3
 72
    23
 73
    19
 74
     0
 42
0.0000000001
 43
0.0000000001
 40
0.0
 40
0.0
 40
0.0
 40
0.0
 40
1.0
 40
1.0
 40
1.0
 40
2.0
 40
2.0
 40
2.0
 40
3.0
 40
3.0
 40
3.0
 40
4.0
 40
4.0
 40
4.0
 40
5.0
 40
5.0
 40
5.0
 40
6.0
 40
6.0
 40
6.0
 40
6.0
 10
4.518093532986111
 20
-6.155300564236111
 30
0.0
 10
4.436360677083333
 20
-6.108100043402778
 30
0.0
 10
4.334988064236111
 20
-6.096896701388888
 30
0.0
 10
4.256808810763888
 20
-6.0966796875
 30
0.0
 10
4.334988064236111
 20
-6.096001519097222
 30
0.0
 10
4.436292860243055
 20
-6.084120008680555
 30
0.0
 10
4.517564561631944
 20
-6.036363389756944
 30
0.0
 10
4.582600911458333
 20
-5.998331705729166
 30
0.0
 10
4.723320855034722
 20
-5.84417724609375
 30
0.0
 10
4.802842881944444
 20
-5.749837239583333
 30
0.0
 10
4.802842881944444
 20
-5.749837239583333
 30
0.0
 10
5.390869140625
 20
-6.092542860243055
 30
0.0
 10
5.390869140625
 20
-6.092542860243055
 30
0.0
 10
5.390869140625
 20
-6.092542860243055
 30
0.0
 10
4.800469292534722
 20
-6.434190538194444
 30
0.0
 10
4.800469292534722
 20
-6.434190538194444
 30
0.0
 10
4.719645182291666
 20
-6.340155707465278
 30
0.0
 10
4.582166883680555
 20
-6.192355685763888
 30
0.0
 10
4.518093532986111
 20
-6.155300564236111
 30
0.0
  0
POLYLINE
  5
CA
330
1F
100
AcDbEntity
  8
Layer 1
370
     0
100
AcDb2dPolyline
 66
     1
 10
0.0
 20
0.0
 30
0.0
  0
VERTEX
  5
CB
330
CA
100
AcDbEntity
  8
Layer 1
370
     0
100
AcDbVertex
100
AcDb2dVertex
 10
7.1524658203125
 20
-5.8192138671875
 30
0.0
  0
VERTEX
  5
CC
330
CA
100
AcDbEntity
  8
Layer 1
370
     0
100
AcDbVertex
100
AcDb2dVertex
 10
6.506022135416666
 20
-5.447068956163194
 30
0.0
  0
VERTEX
  5
CD
330
CA
100
AcDbEntity
  8
Layer 1
370
     0
100
AcDbVertex
100
AcDb2dVertex
 10
6.056667751736111
 20
-5.707227918836805
 30
0.0
  0
VERTEX
  5
CE
330
CA
100
AcDbEntity
  8
Layer 1
370
     0
100
AcDbVertex
100
AcDb2dVertex
 10
6.020534939236111
 20
-5.644415961371528
 30
0.0
  0
VERTEX
  5
CF
330
CA
100
AcDbEntity
  8
Layer 1
370
     0
100
AcDbVertex
100
AcDb2dVertex
 10
6.552178276909721
 20
-4.844489203559028
 30
0.0
  0
VERTEX
  5
D0
330
CA
100
AcDbEntity
  8
Layer 1
370
     0
100
AcDbVertex
100
AcDb2dVertex
 10
7.599541558159721
 20
-4.788445366753472
 30
0.0
  0
VERTEX
  5
D1
330
CA
100
AcDbEntity
  8
Layer 1
370
     0
100
AcDbVertex
100
AcDb2dVertex
 10
7.612847222222221
 20
-4.811333550347222
 30
0.0
  0
VERTEX
  5
D2
330
CA
100
AcDbEntity
  8
Layer 1
370
     0
100
AcDbVertex
100
AcDb2dVertex
 10
7.15185546875
 20
-5.078152126736111
 30
0.0
  0
VERTEX
  5
D3
330
CA
100
AcDbEntity
  8
Layer 1
370
     0
100
AcDbVertex
100
AcDb2dVertex
 10
7.1524658203125
 20
-5.8192138671875
 30
0.0
  0
SEQEND
  5
D4
330
CA
100
AcDbEntity
  8
Layer 1
370
     0
  0
POLYLINE
  5
D5
330
1F
100
AcDbEntity
  8
Layer 1
370
     0
100
AcDb2dPolyline
 66
     1
 10
0.0
 20
0.0
 30
0.0
  0
VERTEX
  5
D6
330
D5
100
AcDbEntity
  8
Layer 1
370
     0
100
AcDbVertex
100
AcDb2dVertex
 10
7.152615017361111
 20
-6.084255642361111
 30
0.0
  0
VERTEX
  5
D7
330
D5
100
AcDbEntity
  8
Layer 1
370
     0
100
AcDbVertex
100
AcDb2dVertex
 10
7.152615017361111
 20
-6.100721571180555
 30
0.0
  0
VERTEX
  5
D8
330
D5
100
AcDbEntity
  8
Layer 1
370
     0
100
AcDbVertex
100
AcDb2dVertex
 10
6.501627604166666
 20
-6.473564995659721
 30
0.0
  0
VERTEX
  5
D9
330
D5
100
AcDbEntity
  8
Layer 1
370
     0
100
AcDbVertex
100
AcDb2dVertex
 10
5.848388671875
 20
-6.0928955078125
 30
0.0
  0
VERTEX
  5
DA
330
D5
100
AcDbEntity
  8
Layer 1
370
     0
100
AcDbVertex
100
AcDb2dVertex
 10
6.506483289930555
 20
-5.712253146701388
 30
0.0
  0
VERTEX
  5
DB
330
D5
100
AcDbEntity
  8
Layer 1
370
     0
100
AcDbVertex
100
AcDb2dVertex
 10
7.152615017361111
 20
-6.084255642361111
 30
0.0
  0
SEQEND
  5
DC
330
D5
100
AcDbEntity
  8
Layer 1
370
     0
  0
POLYLINE
  5
DD
330
1F
100
AcDbEntity
  8
Layer 1
370
     0
100
AcDb2dPolyline
 66
     1
 10
0.0
 20
0.0
 30
0.0
  0
VERTEX
  5
DE
330
DD
100
AcDbEntity
  8
Layer 1
370
     0
100
AcDbVertex
100
AcDb2dVertex
 10
5.750732421875
 20
-5.63525390625
 30
0.0
  0
VERTEX
  5
DF
330
DD
100
AcDbEntity
  8
Layer 1
370
     0
100
AcDbVertex
100
AcDb2dVertex
 10
5.857815212673611
 20
-5.822319878472222
 30
0.0
  0
VERTEX
  5
E0
330
DD
100
AcDbEntity
  8
Layer 1
370
     0
100
AcDbVertex
100
AcDb2dVertex
 10
5.619791666666666
 20
-5.960096571180555
 30
0.0
  0
VERTEX
  5
E1
330
DD
100
AcDbEntity
  8
Layer 1
370
     0
100
AcDbVertex
100
AcDb2dVertex
 10
4.987399631076388
 20
-5.59161376953125
 30
0.0
  0
VERTEX
  5
E2
330
DD
100
AcDbEntity
  8
Layer 1
370
     0
100
AcDbVertex
100
AcDb2dVertex
 10
4.989990234375
 20
-4.877332899305555
 30
0.0
  0
VERTEX
  5
E3
330
DD
100
AcDbEntity
  8
Layer 1
370
     0
100
AcDbVertex
100
AcDb2dVertex
 10
5.236870659722222
 20
-4.734544542100694
 30
0.0
  0
VERTEX
  5
E4
330
DD
100
AcDbEntity
  8
Layer 1
370
     0
100
AcDbVertex
100
AcDb2dVertex
 10
5.336683485243055
 20
-4.909756130642361
 30
0.0
  0
VERTEX
  5
E5
330
DD
100
AcDbEntity
  8
Layer 1
370
     0
100
AcDbVertex
100
AcDb2dVertex
 10
6.266330295138888
 20
-4.859992133246528
 30
0.0
  0
VERTEX
  5
E6
330
DD
100
AcDbEntity
  8
Layer 1
370
     0
100
AcDbVertex
100
AcDb2dVertex
 10
5.750732421875
 20
-5.63525390625
 30
0.0
  0
SEQEND
  5
E7
330
DD
100
AcDbEntity
  8
Layer 1
370
     0
  0
POLYLINE
  5
E8
330
1F
100
AcDbEntity
  8
Layer 1
370
     0
100
AcDb2dPolyline
 66
     1
 10
0.0
 20
0.0
 30
0.0
  0
VERTEX
  5
E9
330
E8
100
AcDbEntity
  8
Layer 1
370
     0
100
AcDbVertex
100
AcDb2dVertex
 10
6.024400499131944
 20
-6.540011935763888
 30
0.0
  0
VERTEX
  5
EA
330
E8
100
AcDbEntity
  8
Layer 1
370
     0
100
AcDbVertex
100
AcDb2dVertex
 10
6.058268229166666
 20
-6.481160481770833
 30
0.0
  0
VERTEX
  5
EB
330
E8
100
AcDbEntity
  8
Layer 1
370
     0
100
AcDbVertex
100
AcDb2dVertex
 10
6.500569661458333
 20
-6.738755967881944
 30
0.0
  0
VERTEX
  5
EC
330
E8
100
AcDbEntity
  8
Layer 1
370
     0
100
AcDbVertex
100
AcDb2dVertex
 10
7.152981228298611
 20
-6.365410698784721
 30
0.0
  0
VERTEX
  5
ED
330
E8
100
AcDbEntity
  8
Layer 1
370
     0
100
AcDbVertex
100
AcDb2dVertex
 10
7.153659396701388
 20
-7.095865885416666
 30
0.0
  0
VERTEX
  5
EE
330
E8
100
AcDbEntity
  8
Layer 1
370
     0
100
AcDbVertex
100
AcDb2dVertex
 10
7.621487087673611
 20
-7.365302191840278
 30
0.0
  0
VERTEX
  5
EF
330
E8
100
AcDbEntity
  8
Layer 1
370
     0
100
AcDbVertex
100
AcDb2dVertex
 10
7.599473741319444
 20
-7.4031982421875
 30
0.0
  0
VERTEX
  5
F0
330
E8
100
AcDbEntity
  8
Layer 1
370
     0
100
AcDbVertex
100
AcDb2dVertex
 10
6.552259657118055
 20
-7.342122395833333
 30
0.0
  0
VERTEX
  5
F1
330
E8
100
AcDbEntity
  8
Layer 1
370
     0
100
AcDbVertex
100
AcDb2dVertex
 10
6.024400499131944
 20
-6.540011935763888
 30
0.0
  0
SEQEND
  5
F2
330
E8
100
AcDbEntity
  8
Layer 1
370
     0
  0
POLYLINE
  5
F3
330
1F
100
AcDbEntity
  8
Layer 1
370
     0
100
AcDb2dPolyline
 66
     1
 10
0.0
 20
0.0
 30
0.0
  0
VERTEX
  5
F4
330
F3
100
AcDbEntity
  8
Layer 1
370
     0
100
AcDbVertex
100
AcDb2dVertex
 10
8.022393120659721
 20
-5.603203667534722
 30
0.0
  0
VERTEX
  5
F5
330
F3
100
AcDbEntity
  8
Layer 1
370
     0
100
AcDbVertex
100
AcDb2dVertex
 10
7.397800021701388
 20
-5.960679796006944
 30
0.0
  0
VERTEX
  5
F6
330
F3
100
AcDbEntity
  8
Layer 1
370
     0
100
AcDbVertex
100
AcDb2dVertex
 10
7.382283528645833
 20
-5.951727973090278
 30
0.0
  0
VERTEX
  5
F7
330
F3
100
AcDbEntity
  8
Layer 1
370
     0
100
AcDbVertex
100
AcDb2dVertex
 10
7.381781684027778
 20
-5.210517035590278
 30
0.0
  0
VERTEX
  5
F8
330
F3
100
AcDbEntity
  8
Layer 1
370
     0
100
AcDbVertex
100
AcDb2dVertex
 10
8.025390625
 20
-4.838141547309028
 30
0.0
  0
VERTEX
  5
F9
330
F3
100
AcDbEntity
  8
Layer 1
370
     0
100
AcDbVertex
100
AcDb2dVertex
 10
8.022393120659721
 20
-5.603203667534722
 30
0.0
  0
SEQEND
  5
FA
330
F3
100
AcDbEntity
  8
Layer 1
370
     0
  0
POLYLINE
  5
FB
330
1F
100
AcDbEntity
  8
Layer 1
370
     0
100
AcDb2dPolyline
 66
     1
 10
0.0
 20
0.0
 30
0.0
  0
VERTEX
  5
FC
330
FB
100
AcDbEntity
  8
Layer 1
370
     0
100
AcDbVertex
100
AcDb2dVertex
 10
7.396904839409721
 20
-3.482666015625
 30
0.0
  0
VERTEX
  5
FD
330
FB
100
AcDbEntity
  8
Layer 1
370
     0
100
AcDbVertex
100
AcDb2dVertex
 10
8.029242621527777
 20
-3.850619845920139
 30
0.0
  0
VERTEX
  5
FE
330
FB
100
AcDbEntity
  8
Layer 1
370
     0
100
AcDbVertex
100
AcDb2dVertex
 10
8.026435004340277
 20
-4.571994357638888
 30
0.0
  0
VERTEX
  5
FF
330
FB
100
AcDbEntity
  8
Layer 1
370
     0
100
AcDbVertex
100
AcDb2dVertex
 10
7.811618381076388
 20
-4.696390787760416
 30
0.0
  0
VERTEX
  5
100
330
FB
100
AcDbEntity
  8
Layer 1
370
     0
100
AcDbVertex
100
AcDb2dVertex
 10
7.728746202256944
 20
-4.551310221354166
 30
0.0
  0
VERTEX
  5
101
330
FB
100
AcDbEntity
  8
Layer 1
370
     0
100
AcDbVertex
100
AcDb2dVertex
 10
6.7108154296875
 20
-4.605950249565972
 30
0.0
  0
VERTEX
  5
102
330
FB
100
AcDbEntity
  8
Layer 1
370
     0
100
AcDbVertex
100
AcDb2dVertex
 10
7.275078667534721
 20
-3.756788465711805
 30
0.0
  0
VERTEX
  5
103
330
FB
100
AcDbEntity
  8
Layer 1
370
     0
100
AcDbVertex
100
AcDb2dVertex
 10
7.187527126736111
 20
-3.603590223524305
 30
0.0
  0
VERTEX
  5
104
330
FB
100
AcDbEntity
  8
Layer 1
370
     0
100
AcDbVertex
100
AcDb2dVertex
 10
7.396904839409721
 20
-3.482666015625
 30
0.0
  0
SEQEND
  5
105
330
FB
100
AcDbEntity
  8
Layer 1
370
     0
  0
POLYLINE
  5
106
330
1F
100
AcDbEntity
  8
Layer 1
370
     0
100
AcDb2dPolyline
 66
     1
 10
0.0
 20
0.0
 30
0.0
  0
VERTEX
  5
107
330
106
100
AcDbEntity
  8
Layer 1
370
     0
100
AcDbVertex
100
AcDb2dVertex
 10
6.514973958333333
 20
-2.968756781684028
 30
0.0
  0
VERTEX
  5
108
330
106
100
AcDbEntity
  8
Layer 1
370
     0
100
AcDbVertex
100
AcDb2dVertex
 10
7.168104383680555
 20
-3.349405924479167
 30
0.0
  0
VERTEX
  5
109
330
106
100
AcDbEntity
  8
Layer 1
370
     0
100
AcDbVertex
100
AcDb2dVertex
 10
6.510118272569444
 20
-3.730278862847222
 30
0.0
  0
VERTEX
  5
10A
330
106
100
AcDbEntity
  8
Layer 1
370
     0
100
AcDbVertex
100
AcDb2dVertex
 10
5.8763427734375
 20
-3.365207248263889
 30
0.0
  0
VERTEX
  5
10B
330
106
100
AcDbEntity
  8
Layer 1
370
     0
100
AcDbVertex
100
AcDb2dVertex
 10
5.8763427734375
 20
-3.334126790364583
 30
0.0
  0
VERTEX
  5
10C
330
106
100
AcDbEntity
  8
Layer 1
370
     0
100
AcDbVertex
100
AcDb2dVertex
 10
6.514973958333333
 20
-2.968756781684028
 30
0.0
  0
SEQEND
  5
10D
330
106
100
AcDbEntity
  8
Layer 1
370
     0
  0
POLYLINE
  5
10E
330
1F
100
AcDbEntity
  8
Layer 1
370
     0
100
AcDb2dPolyline
 66
     1
 10
0.0
 20
0.0
 30
0.0
  0
VERTEX
  5
10F
330
10E
100
AcDbEntity
  8
Layer 1
370
     0
100
AcDbVertex
100
AcDb2dVertex
 10
5.8773193359375
 20
-4.364237467447916
 30
0.0
  0
VERTEX
  5
110
330
10E
100
AcDbEntity
  8
Layer 1
370
     0
100
AcDbVertex
100
AcDb2dVertex
 10
5.876736111111111
 20
-3.630689832899305
 30
0.0
  0
VERTEX
  5
111
330
10E
100
AcDbEntity
  8
Layer 1
370
     0
100
AcDbVertex
100
AcDb2dVertex
 10
6.510538736979166
 20
-3.995463053385417
 30
0.0
  0
VERTEX
  5
112
330
10E
100
AcDbEntity
  8
Layer 1
370
     0
100
AcDbVertex
100
AcDb2dVertex
 10
6.988579644097221
 20
-3.71868896484375
 30
0.0
  0
VERTEX
  5
113
330
10E
100
AcDbEntity
  8
Layer 1
370
     0
100
AcDbVertex
100
AcDb2dVertex
 10
7.005384657118055
 20
-3.747701009114583
 30
0.0
  0
VERTEX
  5
114
330
10E
100
AcDbEntity
  8
Layer 1
370
     0
100
AcDbVertex
100
AcDb2dVertex
 10
6.424736870659721
 20
-4.621242947048611
 30
0.0
  0
VERTEX
  5
115
330
10E
100
AcDbEntity
  8
Layer 1
370
     0
100
AcDbVertex
100
AcDb2dVertex
 10
5.465725368923611
 20
-4.672688802083333
 30
0.0
  0
VERTEX
  5
116
330
10E
100
AcDbEntity
  8
Layer 1
370
     0
100
AcDbVertex
100
AcDb2dVertex
 10
5.435614691840278
 20
-4.6197509765625
 30
0.0
  0
VERTEX
  5
117
330
10E
100
AcDbEntity
  8
Layer 1
370
     0
100
AcDbVertex
100
AcDb2dVertex
 10
5.8773193359375
 20
-4.364237467447916
 30
0.0
  0
SEQEND
  5
118
330
10E
100
AcDbEntity
  8
Layer 1
370
     0
  0
POLYLINE
  5
119
330
1F
100
AcDbEntity
  8
Layer 1
370
     0
100
AcDb2dPolyline
 66
     1
 10
0.0
 20
0.0
 30
0.0
  0
VERTEX
  5
11A
330
119
100
AcDbEntity
  8
Layer 1
370
     0
100
AcDbVertex
100
AcDb2dVertex
 10
5.647420247395833
 20
-4.231641981336805
 30
0.0
  0
VERTEX
  5
11B
330
119
100
AcDbEntity
  8
Layer 1
370
     0
100
AcDbVertex
100
AcDb2dVertex
 10
4.991034613715278
 20
-4.611185709635416
 30
0.0
  0
VERTEX
  5
11C
330
119
100
AcDbEntity
  8
Layer 1
370
     0
100
AcDbVertex
100
AcDb2dVertex
 10
4.994045681423611
 20
-3.839179144965278
 30
0.0
  0
VERTEX
  5
11D
330
119
100
AcDbEntity
  8
Layer 1
370
     0
100
AcDbVertex
100
AcDb2dVertex
 10
5.618476019965278
 20
-3.481770833333333
 30
0.0
  0
VERTEX
  5
11E
330
119
100
AcDbEntity
  8
Layer 1
370
     0
100
AcDbVertex
100
AcDb2dVertex
 10
5.646891276041666
 20
-3.498175726996528
 30
0.0
  0
VERTEX
  5
11F
330
119
100
AcDbEntity
  8
Layer 1
370
     0
100
AcDbVertex
100
AcDb2dVertex
 10
5.647420247395833
 20
-4.231641981336805
 30
0.0
  0
SEQEND
  5
120
330
119
100
AcDbEntity
  8
Layer 1
370
     0
  0
POLYLINE
  5
121
330
1F
100
AcDbEntity
  8
Layer 1
370
     0
100
AcDb2dPolyline
 66
     1
 10
0.0
 20
0.0
 30
0.0
  0
VERTEX
  5
122
330
121
100
AcDbEntity
  8
Layer 1
370
     0
100
AcDbVertex
100
AcDb2dVertex
 10
5.645955403645833
 20
-2.47943115234375
 30
0.0
  0
VERTEX
  5
123
330
121
100
AcDbEntity
  8
Layer 1
370
     0
100
AcDbVertex
100
AcDb2dVertex
 10
5.646389431423611
 20
-3.201165093315972
 30
0.0
  0
VERTEX
  5
124
330
121
100
AcDbEntity
  8
Layer 1
370
     0
100
AcDbVertex
100
AcDb2dVertex
 10
5.618760850694444
 20
-3.216959635416667
 30
0.0
  0
VERTEX
  5
125
330
121
100
AcDbEntity
  8
Layer 1
370
     0
100
AcDbVertex
100
AcDb2dVertex
 10
4.991685655381944
 20
-2.855726453993055
 30
0.0
  0
VERTEX
  5
126
330
121
100
AcDbEntity
  8
Layer 1
370
     0
100
AcDbVertex
100
AcDb2dVertex
 10
4.990885416666666
 20
-2.10186767578125
 30
0.0
  0
VERTEX
  5
127
330
121
100
AcDbEntity
  8
Layer 1
370
     0
100
AcDbVertex
100
AcDb2dVertex
 10
5.645955403645833
 20
-2.47943115234375
 30
0.0
  0
SEQEND
  5
128
330
121
100
AcDbEntity
  8
Layer 1
370
     0
  0
POLYLINE
  5
129
330
1F
100
AcDbEntity
  8
Layer 1
370
     0
100
AcDb2dPolyline
 66
     1
 10
0.0
 20
0.0
 30
0.0
  0
VERTEX
  5
12A
330
129
100
AcDbEntity
  8
Layer 1
370
     0
100
AcDbVertex
100
AcDb2dVertex
 10
4.7620849609375
 20
-2.988613552517361
 30
0.0
  0
VERTEX
  5
12B
330
129
100
AcDbEntity
  8
Layer 1
370
     0
100
AcDbVertex
100
AcDb2dVertex
 10
5.387993706597222
 20
-3.349039713541667
 30
0.0
  0
VERTEX
  5
12C
330
129
100
AcDbEntity
  8
Layer 1
370
     0
100
AcDbVertex
100
AcDb2dVertex
 10
4.764756944444444
 20
-3.705851236979167
 30
0.0
  0
VERTEX
  5
12D
330
129
100
AcDbEntity
  8
Layer 1
370
     0
100
AcDbVertex
100
AcDb2dVertex
 10
4.762668185763888
 20
-4.271436903211805
 30
0.0
  0
VERTEX
  5
12E
330
129
100
AcDbEntity
  8
Layer 1
370
     0
100
AcDbVertex
100
AcDb2dVertex
 10
4.727688259548611
 20
-4.271436903211805
 30
0.0
  0
VERTEX
  5
12F
330
129
100
AcDbEntity
  8
Layer 1
370
     0
100
AcDbVertex
100
AcDb2dVertex
 10
4.257107204861111
 20
-3.333977593315972
 30
0.0
  0
VERTEX
  5
130
330
129
100
AcDbEntity
  8
Layer 1
370
     0
100
AcDbVertex
100
AcDb2dVertex
 10
4.688191731770833
 20
-2.475741916232639
 30
0.0
  0
VERTEX
  5
131
330
129
100
AcDbEntity
  8
Layer 1
370
     0
100
AcDbVertex
100
AcDb2dVertex
 10
4.761650933159722
 20
-2.475741916232639
 30
0.0
  0
VERTEX
  5
132
330
129
100
AcDbEntity
  8
Layer 1
370
     0
100
AcDbVertex
100
AcDb2dVertex
 10
4.7620849609375
 20
-2.988613552517361
 30
0.0
  0
SEQEND
  5
133
330
129
100
AcDbEntity
  8
Layer 1
370
     0
  0
POLYLINE
  5
134
330
1F
100
AcDbEntity
  8
Layer 1
370
     0
100
AcDb2dPolyline
 66
     1
 10
0.0
 20
0.0
 30
0.0
  0
VERTEX
  5
135
330
134
100
AcDbEntity
  8
Layer 1
370
     0
100
AcDbVertex
100
AcDb2dVertex
 10
3.499342176649305
 20
-1.967875162760417
 30
0.0
  0
VERTEX
  5
136
330
134
100
AcDbEntity
  8
Layer 1
370
     0
100
AcDbVertex
100
AcDb2dVertex
 10
4.127387152777778
 20
-1.604573567708333
 30
0.0
  0
VERTEX
  5
137
330
134
100
AcDbEntity
  8
Layer 1
370
     0
100
AcDbVertex
100
AcDb2dVertex
 10
4.760823567708333
 20
-1.969645182291667
 30
0.0
  0
VERTEX
  5
138
330
134
100
AcDbEntity
  8
Layer 1
370
     0
100
AcDbVertex
100
AcDb2dVertex
 10
4.761203342013888
 20
-2.245842827690972
 30
0.0
  0
VERTEX
  5
139
330
134
100
AcDbEntity
  8
Layer 1
370
     0
100
AcDbVertex
100
AcDb2dVertex
 10
4.546359592013888
 20
-2.245842827690972
 30
0.0
  0
VERTEX
  5
13A
330
134
100
AcDbEntity
  8
Layer 1
370
     0
100
AcDbVertex
100
AcDb2dVertex
 10
4.128648546006945
 20
-3.078091091579861
 30
0.0
  0
VERTEX
  5
13B
330
134
100
AcDbEntity
  8
Layer 1
370
     0
100
AcDbVertex
100
AcDb2dVertex
 10
3.710781521267361
 20
-2.245842827690972
 30
0.0
  0
VERTEX
  5
13C
330
134
100
AcDbEntity
  8
Layer 1
370
     0
100
AcDbVertex
100
AcDb2dVertex
 10
3.498453776041667
 20
-2.245842827690972
 30
0.0
  0
VERTEX
  5
13D
330
134
100
AcDbEntity
  8
Layer 1
370
     0
100
AcDbVertex
100
AcDb2dVertex
 10
3.499342176649305
 20
-1.967875162760417
 30
0.0
  0
SEQEND
  5
13E
330
134
100
AcDbEntity
  8
Layer 1
370
     0
  0
POLYLINE
  5
13F
330
1F
100
AcDbEntity
  8
Layer 1
370
     0
100
AcDb2dPolyline
 66
     1
 10
0.0
 20
0.0
 30
0.0
  0
VERTEX
  5
140
330
13F
100
AcDbEntity
  8
Layer 1
370
     0
100
AcDbVertex
100
AcDb2dVertex
 10
3.497422960069444
 20
-2.475741916232639
 30
0.0
  0
VERTEX
  5
141
330
13F
100
AcDbEntity
  8
Layer 1
370
     0
100
AcDbVertex
100
AcDb2dVertex
 10
3.569186740451389
 20
-2.475741916232639
 30
0.0
  0
VERTEX
  5
142
330
13F
100
AcDbEntity
  8
Layer 1
370
     0
100
AcDbVertex
100
AcDb2dVertex
 10
3.999972873263889
 20
-3.333977593315972
 30
0.0
  0
VERTEX
  5
143
330
13F
100
AcDbEntity
  8
Layer 1
370
     0
100
AcDbVertex
100
AcDb2dVertex
 10
3.529398600260417
 20
-4.271436903211805
 30
0.0
  0
VERTEX
  5
144
330
13F
100
AcDbEntity
  8
Layer 1
370
     0
100
AcDbVertex
100
AcDb2dVertex
 10
3.4989013671875
 20
-4.271436903211805
 30
0.0
  0
VERTEX
  5
145
330
13F
100
AcDbEntity
  8
Layer 1
370
     0
100
AcDbVertex
100
AcDb2dVertex
 10
3.498453776041667
 20
-3.710713704427083
 30
0.0
  0
VERTEX
  5
146
330
13F
100
AcDbEntity
  8
Layer 1
370
     0
100
AcDbVertex
100
AcDb2dVertex
 10
2.872395833333333
 20
-3.349995930989583
 30
0.0
  0
VERTEX
  5
147
330
13F
100
AcDbEntity
  8
Layer 1
370
     0
100
AcDbVertex
100
AcDb2dVertex
 10
3.495578342013889
 20
-2.993333604600694
 30
0.0
  0
VERTEX
  5
148
330
13F
100
AcDbEntity
  8
Layer 1
370
     0
100
AcDbVertex
100
AcDb2dVertex
 10
3.497422960069444
 20
-2.475741916232639
 30
0.0
  0
SEQEND
  5
149
330
13F
100
AcDbEntity
  8
Layer 1
370
     0
  0
POLYLINE
  5
14A
330
1F
100
AcDbEntity
  8
Layer 1
370
     0
100
AcDb2dPolyline
 66
     1
 10
0.0
 20
0.0
 30
0.0
  0
VERTEX
  5
14B
330
14A
100
AcDbEntity
  8
Layer 1
370
     0
100
AcDbVertex
100
AcDb2dVertex
 10
3.269219292534722
 20
-2.101209852430555
 30
0.0
  0
VERTEX
  5
14C
330
14A
100
AcDbEntity
  8
Layer 1
370
     0
100
AcDbVertex
100
AcDb2dVertex
 10
3.266486273871528
 20
-2.859931098090278
 30
0.0
  0
VERTEX
  5
14D
330
14A
100
AcDbEntity
  8
Layer 1
370
     0
100
AcDbVertex
100
AcDb2dVertex
 10
2.641988118489583
 20
-3.217258029513889
 30
0.0
  0
VERTEX
  5
14E
330
14A
100
AcDbEntity
  8
Layer 1
370
     0
100
AcDbVertex
100
AcDb2dVertex
 10
2.611199273003472
 20
-3.199754503038194
 30
0.0
  0
VERTEX
  5
14F
330
14A
100
AcDbEntity
  8
Layer 1
370
     0
100
AcDbVertex
100
AcDb2dVertex
 10
2.610751681857639
 20
-2.482150607638889
 30
0.0
  0
VERTEX
  5
150
330
14A
100
AcDbEntity
  8
Layer 1
370
     0
100
AcDbVertex
100
AcDb2dVertex
 10
3.269219292534722
 20
-2.101209852430555
 30
0.0
  0
SEQEND
  5
151
330
14A
100
AcDbEntity
  8
Layer 1
370
     0
  0
POLYLINE
  5
152
330
1F
100
AcDbEntity
  8
Layer 1
370
     0
100
AcDb2dPolyline
 66
     1
 10
0.0
 20
0.0
 30
0.0
  0
VERTEX
  5
153
330
152
100
AcDbEntity
  8
Layer 1
370
     0
100
AcDbVertex
100
AcDb2dVertex
 10
2.38262939453125
 20
-4.367329915364583
 30
0.0
  0
VERTEX
  5
154
330
152
100
AcDbEntity
  8
Layer 1
370
     0
100
AcDbVertex
100
AcDb2dVertex
 10
2.855048285590278
 20
-4.639600965711805
 30
0.0
  0
VERTEX
  5
155
330
152
100
AcDbEntity
  8
Layer 1
370
     0
100
AcDbVertex
100
AcDb2dVertex
 10
2.8433837890625
 20
-4.659620496961805
 30
0.0
  0
VERTEX
  5
156
330
152
100
AcDbEntity
  8
Layer 1
370
     0
100
AcDbVertex
100
AcDb2dVertex
 10
1.796373155381944
 20
-4.598856608072916
 30
0.0
  0
VERTEX
  5
157
330
152
100
AcDbEntity
  8
Layer 1
370
     0
100
AcDbVertex
100
AcDb2dVertex
 10
1.268358018663194
 20
-3.796352810329861
 30
0.0
  0
VERTEX
  5
158
330
152
100
AcDbEntity
  8
Layer 1
370
     0
100
AcDbVertex
100
AcDb2dVertex
 10
1.302164713541667
 20
-3.738104926215278
 30
0.0
  0
VERTEX
  5
159
330
152
100
AcDbEntity
  8
Layer 1
370
     0
100
AcDbVertex
100
AcDb2dVertex
 10
1.744622124565972
 20
-3.995463053385417
 30
0.0
  0
VERTEX
  5
15A
330
152
100
AcDbEntity
  8
Layer 1
370
     0
100
AcDbVertex
100
AcDb2dVertex
 10
2.382039388020833
 20
-3.630689832899305
 30
0.0
  0
VERTEX
  5
15B
330
152
100
AcDbEntity
  8
Layer 1
370
     0
100
AcDbVertex
100
AcDb2dVertex
 10
2.38262939453125
 20
-4.367329915364583
 30
0.0
  0
SEQEND
  5
15C
330
152
100
AcDbEntity
  8
Layer 1
370
     0
  0
POLYLINE
  5
15D
330
1F
100
AcDbEntity
  8
Layer 1
370
     0
100
AcDb2dPolyline
 66
     1
 10
0.0
 20
0.0
 30
0.0
  0
VERTEX
  5
15E
330
15D
100
AcDbEntity
  8
Layer 1
370
     0
100
AcDbVertex
100
AcDb2dVertex
 10
1.750447591145833
 20
-2.968756781684028
 30
0.0
  0
VERTEX
  5
15F
330
15D
100
AcDbEntity
  8
Layer 1
370
     0
100
AcDbVertex
100
AcDb2dVertex
 10
2.381808810763889
 20
-3.332343207465278
 30
0.0
  0
VERTEX
  5
160
330
15D
100
AcDbEntity
  8
Layer 1
370
     0
100
AcDbVertex
100
AcDb2dVertex
 10
2.381808810763889
 20
-3.366163465711805
 30
0.0
  0
VERTEX
  5
161
330
15D
100
AcDbEntity
  8
Layer 1
370
     0
100
AcDbVertex
100
AcDb2dVertex
 10
1.745713975694444
 20
-3.730278862847222
 30
0.0
  0
VERTEX
  5
162
330
15D
100
AcDbEntity
  8
Layer 1
370
     0
100
AcDbVertex
100
AcDb2dVertex
 10
1.092196994357639
 20
-3.349636501736111
 30
0.0
  0
VERTEX
  5
163
330
15D
100
AcDbEntity
  8
Layer 1
370
     0
100
AcDbVertex
100
AcDb2dVertex
 10
1.750447591145833
 20
-2.968756781684028
 30
0.0
  0
SEQEND
  5
164
330
15D
100
AcDbEntity
  8
Layer 1
370
     0
  0
POLYLINE
  5
165
330
1F
100
AcDbEntity
  8
Layer 1
370
     0
100
AcDb2dPolyline
 66
     1
 10
0.0
 20
0.0
 30
0.0
  0
VERTEX
  5
166
330
165
100
AcDbEntity
  8
Layer 1
370
     0
100
AcDbVertex
100
AcDb2dVertex
 10
0.2335883246527778
 20
-3.846625434027778
 30
0.0
  0
VERTEX
  5
167
330
165
100
AcDbEntity
  8
Layer 1
370
     0
100
AcDbVertex
100
AcDb2dVertex
 10
0.8632541232638888
 20
-3.482218424479167
 30
0.0
  0
VERTEX
  5
168
330
165
100
AcDbEntity
  8
Layer 1
370
     0
100
AcDbVertex
100
AcDb2dVertex
 10
1.103719075520833
 20
-3.622266981336805
 30
0.0
  0
VERTEX
  5
169
330
165
100
AcDbEntity
  8
Layer 1
370
     0
100
AcDbVertex
100
AcDb2dVertex
 10
0.9985894097222222
 20
-3.804477267795139
 30
0.0
  0
VERTEX
  5
16A
330
165
100
AcDbEntity
  8
Layer 1
370
     0
100
AcDbVertex
100
AcDb2dVertex
 10
1.510355631510417
 20
-4.582173665364583
 30
0.0
  0
VERTEX
  5
16B
330
165
100
AcDbEntity
  8
Layer 1
370
     0
100
AcDbVertex
100
AcDb2dVertex
 10
0.58087158203125
 20
-4.528062608506944
 30
0.0
  0
VERTEX
  5
16C
330
165
100
AcDbEntity
  8
Layer 1
370
     0
100
AcDbVertex
100
AcDb2dVertex
 10
0.4784071180555555
 20
-4.705763075086805
 30
0.0
  0
VERTEX
  5
16D
330
165
100
AcDbEntity
  8
Layer 1
370
     0
100
AcDbVertex
100
AcDb2dVertex
 10
0.2344089084201389
 20
-4.565199110243055
 30
0.0
  0
VERTEX
  5
16E
330
165
100
AcDbEntity
  8
Layer 1
370
     0
100
AcDbVertex
100
AcDb2dVertex
 10
0.2335883246527778
 20
-3.846625434027778
 30
0.0
  0
SEQEND
  5
16F
330
165
100
AcDbEntity
  8
Layer 1
370
     0
  0
POLYLINE
  5
170
330
1F
100
AcDbEntity
  8
Layer 1
370
     0
100
AcDb2dPolyline
 66
     1
 10
0.0
 20
0.0
 30
0.0
  0
VERTEX
  5
171
330
170
100
AcDbEntity
  8
Layer 1
370
     0
100
AcDbVertex
100
AcDb2dVertex
 10
0.2355821397569444
 20
-5.598992241753472
 30
0.0
  0
VERTEX
  5
172
330
170
100
AcDbEntity
  8
Layer 1
370
     0
100
AcDbVertex
100
AcDb2dVertex
 10
0.234619140625
 20
-4.830457899305555
 30
0.0
  0
VERTEX
  5
173
330
170
100
AcDbEntity
  8
Layer 1
370
     0
100
AcDbVertex
100
AcDb2dVertex
 10
0.8897637261284722
 20
-5.207784016927083
 30
0.0
  0
VERTEX
  5
174
330
170
100
AcDbEntity
  8
Layer 1
370
     0
100
AcDbVertex
100
AcDb2dVertex
 10
0.8905029296875
 20
-5.944512261284722
 30
0.0
  0
VERTEX
  5
175
330
170
100
AcDbEntity
  8
Layer 1
370
     0
100
AcDbVertex
100
AcDb2dVertex
 10
0.8631184895833333
 20
-5.960367838541666
 30
0.0
  0
VERTEX
  5
176
330
170
100
AcDbEntity
  8
Layer 1
370
     0
100
AcDbVertex
100
AcDb2dVertex
 10
0.2355821397569444
 20
-5.598992241753472
 30
0.0
  0
SEQEND
  5
177
330
170
100
AcDbEntity
  8
Layer 1
370
     0
  0
POLYLINE
  5
178
330
1F
100
AcDbEntity
  8
Layer 1
370
     0
100
AcDb2dPolyline
 66
     1
 10
0.0
 20
0.0
 30
0.0
  0
VERTEX
  5
179
330
178
100
AcDbEntity
  8
Layer 1
370
     0
100
AcDbVertex
100
AcDb2dVertex
 10
0.2380167643229167
 20
-6.582600911458333
 30
0.0
  0
VERTEX
  5
17A
330
178
100
AcDbEntity
  8
Layer 1
370
     0
100
AcDbVertex
100
AcDb2dVertex
 10
0.8625217013888888
 20
-6.225124782986111
 30
0.0
  0
VERTEX
  5
17B
330
178
100
AcDbEntity
  8
Layer 1
370
     0
100
AcDbVertex
100
AcDb2dVertex
 10
0.8907267252604166
 20
-6.241441514756944
 30
0.0
  0
VERTEX
  5
17C
330
178
100
AcDbEntity
  8
Layer 1
370
     0
100
AcDbVertex
100
AcDb2dVertex
 10
0.8913913302951388
 20
-6.960096571180555
 30
0.0
  0
VERTEX
  5
17D
330
178
100
AcDbEntity
  8
Layer 1
370
     0
100
AcDbVertex
100
AcDb2dVertex
 10
0.2353651258680556
 20
-7.339870876736111
 30
0.0
  0
VERTEX
  5
17E
330
178
100
AcDbEntity
  8
Layer 1
370
     0
100
AcDbVertex
100
AcDb2dVertex
 10
0.2380167643229167
 20
-6.582600911458333
 30
0.0
  0
SEQEND
  5
17F
330
178
100
AcDbEntity
  8
Layer 1
370
     0
  0
POLYLINE
  5
180
330
1F
100
AcDbEntity
  8
Layer 1
370
     0
100
AcDb2dPolyline
 66
     1
 10
0.0
 20
0.0
 30
0.0
  0
VERTEX
  5
181
330
180
100
AcDbEntity
  8
Layer 1
370
     0
100
AcDbVertex
100
AcDb2dVertex
 10
0.2312215169270833
 20
-8.334974500868055
 30
0.0
  0
VERTEX
  5
182
330
180
100
AcDbEntity
  8
Layer 1
370
     0
100
AcDbVertex
100
AcDb2dVertex
 10
0.2340291341145833
 20
-7.605821397569444
 30
0.0
  0
VERTEX
  5
183
330
180
100
AcDbEntity
  8
Layer 1
370
     0
100
AcDbVertex
100
AcDb2dVertex
 10
0.47412109375
 20
-7.466905381944444
 30
0.0
  0
VERTEX
  5
184
330
180
100
AcDbEntity
  8
Layer 1
370
     0
100
AcDbVertex
100
AcDb2dVertex
 10
0.5803561740451388
 20
-7.653103298611111
 30
0.0
  0
VERTEX
  5
185
330
180
100
AcDbEntity
  8
Layer 1
370
     0
100
AcDbVertex
100
AcDb2dVertex
 10
1.510057237413194
 20
-7.603312174479166
 30
0.0
  0
VERTEX
  5
186
330
180
100
AcDbEntity
  8
Layer 1
370
     0
100
AcDbVertex
100
AcDb2dVertex
 10
0.9949747721354166
 20
-8.378594292534721
 30
0.0
  0
VERTEX
  5
187
330
180
100
AcDbEntity
  8
Layer 1
370
     0
100
AcDbVertex
100
AcDb2dVertex
 10
1.101650661892361
 20
-8.565606011284721
 30
0.0
  0
VERTEX
  5
188
330
180
100
AcDbEntity
  8
Layer 1
370
     0
100
AcDbVertex
100
AcDb2dVertex
 10
0.86370849609375
 20
-8.703504774305555
 30
0.0
  0
VERTEX
  5
189
330
180
100
AcDbEntity
  8
Layer 1
370
     0
100
AcDbVertex
100
AcDb2dVertex
 10
0.2312215169270833
 20
-8.334974500868055
 30
0.0
  0
SEQEND
  5
18A
330
180
100
AcDbEntity
  8
Layer 1
370
     0
  0
POLYLINE
  5
18B
330
1F
100
AcDbEntity
  8
Layer 1
370
     0
100
AcDb2dPolyline
 66
     1
 10
0.0
 20
0.0
 30
0.0
  0
VERTEX
  5
18C
330
18B
100
AcDbEntity
  8
Layer 1
370
     0
100
AcDbVertex
100
AcDb2dVertex
 10
1.745713975694444
 20
-9.216810438368055
 30
0.0
  0
VERTEX
  5
18D
330
18B
100
AcDbEntity
  8
Layer 1
370
     0
100
AcDbVertex
100
AcDb2dVertex
 10
1.092576768663194
 20
-8.8365478515625
 30
0.0
  0
VERTEX
  5
18E
330
18B
100
AcDbEntity
  8
Layer 1
370
     0
100
AcDbVertex
100
AcDb2dVertex
 10
1.750447591145833
 20
-8.4556884765625
 30
0.0
  0
VERTEX
  5
18F
330
18B
100
AcDbEntity
  8
Layer 1
370
     0
100
AcDbVertex
100
AcDb2dVertex
 10
2.381808810763889
 20
-8.819281684027777
 30
0.0
  0
VERTEX
  5
190
330
18B
100
AcDbEntity
  8
Layer 1
370
     0
100
AcDbVertex
100
AcDb2dVertex
 10
2.381808810763889
 20
-8.852796766493055
 30
0.0
  0
VERTEX
  5
191
330
18B
100
AcDbEntity
  8
Layer 1
370
     0
100
AcDbVertex
100
AcDb2dVertex
 10
1.745713975694444
 20
-9.216810438368055
 30
0.0
  0
SEQEND
  5
192
330
18B
100
AcDbEntity
  8
Layer 1
370
     0
  0
POLYLINE
  5
193
330
1F
100
AcDbEntity
  8
Layer 1
370
     0
100
AcDb2dPolyline
 66
     1
 10
0.0
 20
0.0
 30
0.0
  0
VERTEX
  5
194
330
193
100
AcDbEntity
  8
Layer 1
370
     0
100
AcDbVertex
100
AcDb2dVertex
 10
2.380716959635417
 20
-7.836724175347221
 30
0.0
  0
VERTEX
  5
195
330
193
100
AcDbEntity
  8
Layer 1
370
     0
100
AcDbVertex
100
AcDb2dVertex
 10
2.381598578559028
 20
-8.554022894965277
 30
0.0
  0
VERTEX
  5
196
330
193
100
AcDbEntity
  8
Layer 1
370
     0
100
AcDbVertex
100
AcDb2dVertex
 10
1.749925401475694
 20
-8.190348307291666
 30
0.0
  0
VERTEX
  5
197
330
193
100
AcDbEntity
  8
Layer 1
370
     0
100
AcDbVertex
100
AcDb2dVertex
 10
1.300550672743056
 20
-8.45058865017361
 30
0.0
  0
VERTEX
  5
198
330
193
100
AcDbEntity
  8
Layer 1
370
     0
100
AcDbVertex
100
AcDb2dVertex
 10
1.264519585503472
 20
-8.387830946180555
 30
0.0
  0
VERTEX
  5
199
330
193
100
AcDbEntity
  8
Layer 1
370
     0
100
AcDbVertex
100
AcDb2dVertex
 10
1.796291775173611
 20
-7.587904188368055
 30
0.0
  0
VERTEX
  5
19A
330
193
100
AcDbEntity
  8
Layer 1
370
     0
100
AcDbVertex
100
AcDb2dVertex
 10
2.843532986111111
 20
-7.531643337673611
 30
0.0
  0
VERTEX
  5
19B
330
193
100
AcDbEntity
  8
Layer 1
370
     0
100
AcDbVertex
100
AcDb2dVertex
 10
2.859402126736111
 20
-7.559841579861111
 30
0.0
  0
VERTEX
  5
19C
330
193
100
AcDbEntity
  8
Layer 1
370
     0
100
AcDbVertex
100
AcDb2dVertex
 10
2.380716959635417
 20
-7.836724175347221
 30
0.0
  0
SEQEND
  5
19D
330
193
100
AcDbEntity
  8
Layer 1
370
     0
  0
POLYLINE
  5
19E
330
1F
100
AcDbEntity
  8
Layer 1
370
     0
100
AcDb2dPolyline
 66
     1
 10
0.0
 20
0.0
 30
0.0
  0
VERTEX
  5
19F
330
19E
100
AcDbEntity
  8
Layer 1
370
     0
100
AcDbVertex
100
AcDb2dVertex
 10
2.610751681857639
 20
-7.969007703993055
 30
0.0
  0
VERTEX
  5
1A0
330
19E
100
AcDbEntity
  8
Layer 1
370
     0
100
AcDbVertex
100
AcDb2dVertex
 10
3.269219292534722
 20
-7.588053385416666
 30
0.0
  0
VERTEX
  5
1A1
330
19E
100
AcDbEntity
  8
Layer 1
370
     0
100
AcDbVertex
100
AcDb2dVertex
 10
3.266486273871528
 20
-8.346476236979166
 30
0.0
  0
VERTEX
  5
1A2
330
19E
100
AcDbEntity
  8
Layer 1
370
     0
100
AcDbVertex
100
AcDb2dVertex
 10
2.641757541232639
 20
-8.703870985243055
 30
0.0
  0
VERTEX
  5
1A3
330
19E
100
AcDbEntity
  8
Layer 1
370
     0
100
AcDbVertex
100
AcDb2dVertex
 10
2.611199273003472
 20
-8.686455620659721
 30
0.0
  0
VERTEX
  5
1A4
330
19E
100
AcDbEntity
  8
Layer 1
370
     0
100
AcDbVertex
100
AcDb2dVertex
 10
2.610751681857639
 20
-7.969007703993055
 30
0.0
  0
SEQEND
  5
1A5
330
19E
100
AcDbEntity
  8
Layer 1
370
     0
  0
POLYLINE
  5
1A6
330
1F
100
AcDbEntity
  8
Layer 1
370
     0
100
AcDb2dPolyline
 66
     1
 10
0.0
 20
0.0
 30
0.0
  0
VERTEX
  5
1A7
330
1A6
100
AcDbEntity
  8
Layer 1
370
     0
100
AcDbVertex
100
AcDb2dVertex
 10
2.612230088975694
 20
-9.721164279513888
 30
0.0
  0
VERTEX
  5
1A8
330
1A6
100
AcDbEntity
  8
Layer 1
370
     0
100
AcDbVertex
100
AcDb2dVertex
 10
2.611707899305555
 20
-8.985907660590277
 30
0.0
  0
VERTEX
  5
1A9
330
1A6
100
AcDbEntity
  8
Layer 1
370
     0
100
AcDbVertex
100
AcDb2dVertex
 10
2.64154052734375
 20
-8.96877712673611
 30
0.0
  0
VERTEX
  5
1AA
330
1A6
100
AcDbEntity
  8
Layer 1
370
     0
100
AcDbVertex
100
AcDb2dVertex
 10
3.268778483072917
 20
-9.330145941840277
 30
0.0
  0
VERTEX
  5
1AB
330
1A6
100
AcDbEntity
  8
Layer 1
370
     0
100
AcDbVertex
100
AcDb2dVertex
 10
3.269666883680555
 20
-10.10031467013889
 30
0.0
  0
VERTEX
  5
1AC
330
1A6
100
AcDbEntity
  8
Layer 1
370
     0
100
AcDbVertex
100
AcDb2dVertex
 10
2.612230088975694
 20
-9.721164279513888
 30
0.0
  0
SEQEND
  5
1AD
330
1A6
100
AcDbEntity
  8
Layer 1
370
     0
  0
POLYLINE
  5
1AE
330
1F
100
AcDbEntity
  8
Layer 1
370
     0
100
AcDb2dPolyline
 66
     1
 10
0.0
 20
0.0
 30
0.0
  0
VERTEX
  5
1AF
330
1AE
100
AcDbEntity
  8
Layer 1
370
     0
100
AcDbVertex
100
AcDb2dVertex
 10
3.498453776041667
 20
-9.197360568576388
 30
0.0
  0
VERTEX
  5
1B0
330
1AE
100
AcDbEntity
  8
Layer 1
370
     0
100
AcDbVertex
100
AcDb2dVertex
 10
2.872328016493055
 20
-8.83676486545139
 30
0.0
  0
VERTEX
  5
1B1
330
1AE
100
AcDbEntity
  8
Layer 1
370
     0
100
AcDbVertex
100
AcDb2dVertex
 10
3.495578342013889
 20
-8.480116102430555
 30
0.0
  0
VERTEX
  5
1B2
330
1AE
100
AcDbEntity
  8
Layer 1
370
     0
100
AcDbVertex
100
AcDb2dVertex
 10
3.497422960069444
 20
-7.962510850694444
 30
0.0
  0
VERTEX
  5
1B3
330
1AE
100
AcDbEntity
  8
Layer 1
370
     0
100
AcDbVertex
100
AcDb2dVertex
 10
3.569186740451389
 20
-7.962510850694444
 30
0.0
  0
VERTEX
  5
1B4
330
1AE
100
AcDbEntity
  8
Layer 1
370
     0
100
AcDbVertex
100
AcDb2dVertex
 10
3.999972873263889
 20
-8.820746527777777
 30
0.0
  0
VERTEX
  5
1B5
330
1AE
100
AcDbEntity
  8
Layer 1
370
     0
100
AcDbVertex
100
AcDb2dVertex
 10
3.529398600260417
 20
-9.758287217881945
 30
0.0
  0
VERTEX
  5
1B6
330
1AE
100
AcDbEntity
  8
Layer 1
370
     0
100
AcDbVertex
100
AcDb2dVertex
 10
3.4989013671875
 20
-9.758287217881945
 30
0.0
  0
VERTEX
  5
1B7
330
1AE
100
AcDbEntity
  8
Layer 1
370
     0
100
AcDbVertex
100
AcDb2dVertex
 10
3.498453776041667
 20
-9.197360568576388
 30
0.0
  0
SEQEND
  5
1B8
330
1AE
100
AcDbEntity
  8
Layer 1
370
     0
  0
POLYLINE
  5
1B9
330
1F
100
AcDbEntity
  8
Layer 1
370
     0
100
AcDb2dPolyline
 66
     1
 10
0.0
 20
0.0
 30
0.0
  0
VERTEX
  5
1BA
330
1B9
100
AcDbEntity
  8
Layer 1
370
     0
100
AcDbVertex
100
AcDb2dVertex
 10
4.760823567708333
 20
-10.23166232638889
 30
0.0
  0
VERTEX
  5
1BB
330
1B9
100
AcDbEntity
  8
Layer 1
370
     0
100
AcDbVertex
100
AcDb2dVertex
 10
4.130642361111111
 20
-10.59598795572917
 30
0.0
  0
VERTEX
  5
1BC
330
1B9
100
AcDbEntity
  8
Layer 1
370
     0
100
AcDbVertex
100
AcDb2dVertex
 10
3.499342176649305
 20
-10.23263888888889
 30
0.0
  0
VERTEX
  5
1BD
330
1B9
100
AcDbEntity
  8
Layer 1
370
     0
100
AcDbVertex
100
AcDb2dVertex
 10
3.499199761284722
 20
-9.987969292534721
 30
0.0
  0
VERTEX
  5
1BE
330
1B9
100
AcDbEntity
  8
Layer 1
370
     0
100
AcDbVertex
100
AcDb2dVertex
 10
3.671217176649305
 20
-9.987969292534721
 30
0.0
  0
VERTEX
  5
1BF
330
1B9
100
AcDbEntity
  8
Layer 1
370
     0
100
AcDbVertex
100
AcDb2dVertex
 10
4.128648546006945
 20
-9.07693142361111
 30
0.0
  0
VERTEX
  5
1C0
330
1B9
100
AcDbEntity
  8
Layer 1
370
     0
100
AcDbVertex
100
AcDb2dVertex
 10
4.586005316840278
 20
-9.987969292534721
 30
0.0
  0
VERTEX
  5
1C1
330
1B9
100
AcDbEntity
  8
Layer 1
370
     0
100
AcDbVertex
100
AcDb2dVertex
 10
4.761867947048611
 20
-9.987969292534721
 30
0.0
  0
VERTEX
  5
1C2
330
1B9
100
AcDbEntity
  8
Layer 1
370
     0
100
AcDbVertex
100
AcDb2dVertex
 10
4.760823567708333
 20
-10.23166232638889
 30
0.0
  0
SEQEND
  5
1C3
330
1B9
100
AcDbEntity
  8
Layer 1
370
     0
  0
POLYLINE
  5
1C4
330
1F
100
AcDbEntity
  8
Layer 1
370
     0
100
AcDb2dPolyline
 66
     1
 10
0.0
 20
0.0
 30
0.0
  0
VERTEX
  5
1C5
330
1C4
100
AcDbEntity
  8
Layer 1
370
     0
100
AcDbVertex
100
AcDb2dVertex
 10
4.762668185763888
 20
-9.758287217881945
 30
0.0
  0
VERTEX
  5
1C6
330
1C4
100
AcDbEntity
  8
Layer 1
370
     0
100
AcDbVertex
100
AcDb2dVertex
 10
4.727688259548611
 20
-9.758287217881945
 30
0.0
  0
VERTEX
  5
1C7
330
1C4
100
AcDbEntity
  8
Layer 1
370
     0
100
AcDbVertex
100
AcDb2dVertex
 10
4.257107204861111
 20
-8.820746527777777
 30
0.0
  0
VERTEX
  5
1C8
330
1C4
100
AcDbEntity
  8
Layer 1
370
     0
100
AcDbVertex
100
AcDb2dVertex
 10
4.688191731770833
 20
-7.962510850694444
 30
0.0
  0
VERTEX
  5
1C9
330
1C4
100
AcDbEntity
  8
Layer 1
370
     0
100
AcDbVertex
100
AcDb2dVertex
 10
4.761650933159722
 20
-7.962510850694444
 30
0.0
  0
VERTEX
  5
1CA
330
1C4
100
AcDbEntity
  8
Layer 1
370
     0
100
AcDbVertex
100
AcDb2dVertex
 10
4.7620849609375
 20
-8.47531467013889
 30
0.0
  0
VERTEX
  5
1CB
330
1C4
100
AcDbEntity
  8
Layer 1
370
     0
100
AcDbVertex
100
AcDb2dVertex
 10
5.387993706597222
 20
-8.835801866319445
 30
0.0
  0
VERTEX
  5
1CC
330
1C4
100
AcDbEntity
  8
Layer 1
370
     0
100
AcDbVertex
100
AcDb2dVertex
 10
4.764756944444444
 20
-9.192694769965277
 30
0.0
  0
VERTEX
  5
1CD
330
1C4
100
AcDbEntity
  8
Layer 1
370
     0
100
AcDbVertex
100
AcDb2dVertex
 10
4.762668185763888
 20
-9.758287217881945
 30
0.0
  0
SEQEND
  5
1CE
330
1C4
100
AcDbEntity
  8
Layer 1
370
     0
  0
POLYLINE
  5
1CF
330
1F
100
AcDbEntity
  8
Layer 1
370
     0
100
AcDb2dPolyline
 66
     1
 10
0.0
 20
0.0
 30
0.0
  0
VERTEX
  5
1D0
330
1CF
100
AcDbEntity
  8
Layer 1
370
     0
100
AcDbVertex
100
AcDb2dVertex
 10
4.991034613715278
 20
-10.09849717881944
 30
0.0
  0
VERTEX
  5
1D1
330
1CF
100
AcDbEntity
  8
Layer 1
370
     0
100
AcDbVertex
100
AcDb2dVertex
 10
4.994045681423611
 20
-9.326090494791666
 30
0.0
  0
VERTEX
  5
1D2
330
1CF
100
AcDbEntity
  8
Layer 1
370
     0
100
AcDbVertex
100
AcDb2dVertex
 10
5.618611653645833
 20
-8.968695746527777
 30
0.0
  0
VERTEX
  5
1D3
330
1CF
100
AcDbEntity
  8
Layer 1
370
     0
100
AcDbVertex
100
AcDb2dVertex
 10
5.646891276041666
 20
-8.984781901041666
 30
0.0
  0
VERTEX
  5
1D4
330
1CF
100
AcDbEntity
  8
Layer 1
370
     0
100
AcDbVertex
100
AcDb2dVertex
 10
5.647420247395833
 20
-9.71865505642361
 30
0.0
  0
VERTEX
  5
1D5
330
1CF
100
AcDbEntity
  8
Layer 1
370
     0
100
AcDbVertex
100
AcDb2dVertex
 10
4.991034613715278
 20
-10.09849717881944
 30
0.0
  0
SEQEND
  5
1D6
330
1CF
100
AcDbEntity
  8
Layer 1
370
     0
  0
POLYLINE
  5
1D7
330
1F
100
AcDbEntity
  8
Layer 1
370
     0
100
AcDb2dPolyline
 66
     1
 10
0.0
 20
0.0
 30
0.0
  0
VERTEX
  5
1D8
330
1D7
100
AcDbEntity
  8
Layer 1
370
     0
100
AcDbVertex
100
AcDb2dVertex
 10
5.87548828125
 20
-7.833523220486111
 30
0.0
  0
VERTEX
  5
1D9
330
1D7
100
AcDbEntity
  8
Layer 1
370
     0
100
AcDbVertex
100
AcDb2dVertex
 10
5.427042643229166
 20
-7.575222439236111
 30
0.0
  0
VERTEX
  5
1DA
330
1D7
100
AcDbEntity
  8
Layer 1
370
     0
100
AcDbVertex
100
AcDb2dVertex
 10
5.465074327256944
 20
-7.509060329861111
 30
0.0
  0
VERTEX
  5
1DB
330
1D7
100
AcDbEntity
  8
Layer 1
370
     0
100
AcDbVertex
100
AcDb2dVertex
 10
6.423800998263888
 20
-7.56494140625
 30
0.0
  0
VERTEX
  5
1DC
330
1D7
100
AcDbEntity
  8
Layer 1
370
     0
100
AcDbVertex
100
AcDb2dVertex
 10
7.000556098090278
 20
-8.44076877170139
 30
0.0
  0
VERTEX
  5
1DD
330
1D7
100
AcDbEntity
  8
Layer 1
370
     0
100
AcDbVertex
100
AcDb2dVertex
 10
6.986707899305555
 20
-8.464599609375
 30
0.0
  0
VERTEX
  5
1DE
330
1D7
100
AcDbEntity
  8
Layer 1
370
     0
100
AcDbVertex
100
AcDb2dVertex
 10
6.515909830729166
 20
-8.190348307291666
 30
0.0
  0
VERTEX
  5
1DF
330
1D7
100
AcDbEntity
  8
Layer 1
370
     0
100
AcDbVertex
100
AcDb2dVertex
 10
5.8759765625
 20
-8.55666775173611
 30
0.0
  0
VERTEX
  5
1E0
330
1D7
100
AcDbEntity
  8
Layer 1
370
     0
100
AcDbVertex
100
AcDb2dVertex
 10
5.87548828125
 20
-7.833523220486111
 30
0.0
  0
SEQEND
  5
1E1
330
1D7
100
AcDbEntity
  8
Layer 1
370
     0
  0
POLYLINE
  5
1E2
330
1F
100
AcDbEntity
  8
Layer 1
370
     0
100
AcDb2dPolyline
 66
     1
 10
0.0
 20
0.0
 30
0.0
  0
VERTEX
  5
1E3
330
1E2
100
AcDbEntity
  8
Layer 1
370
     0
100
AcDbVertex
100
AcDb2dVertex
 10
6.510118272569444
 20
-9.216810438368055
 30
0.0
  0
VERTEX
  5
1E4
330
1E2
100
AcDbEntity
  8
Layer 1
370
     0
100
AcDbVertex
100
AcDb2dVertex
 10
5.8763427734375
 20
-8.852037217881945
 30
0.0
  0
VERTEX
  5
1E5
330
1E2
100
AcDbEntity
  8
Layer 1
370
     0
100
AcDbVertex
100
AcDb2dVertex
 10
5.8763427734375
 20
-8.8212890625
 30
0.0
  0
VERTEX
  5
1E6
330
1E2
100
AcDbEntity
  8
Layer 1
370
     0
100
AcDbVertex
100
AcDb2dVertex
 10
6.514973958333333
 20
-8.4556884765625
 30
0.0
  0
VERTEX
  5
1E7
330
1E2
100
AcDbEntity
  8
Layer 1
370
     0
100
AcDbVertex
100
AcDb2dVertex
 10
7.168104383680555
 20
-8.836005316840277
 30
0.0
  0
VERTEX
  5
1E8
330
1E2
100
AcDbEntity
  8
Layer 1
370
     0
100
AcDbVertex
100
AcDb2dVertex
 10
6.510118272569444
 20
-9.216810438368055
 30
0.0
  0
SEQEND
  5
1E9
330
1E2
100
AcDbEntity
  8
Layer 1
370
     0
  0
POLYLINE
  5
1EA
330
1F
100
AcDbEntity
  8
Layer 1
370
     0
100
AcDb2dPolyline
 66
     1
 10
0.0
 20
0.0
 30
0.0
  0
VERTEX
  5
1EB
330
1EA
100
AcDbEntity
  8
Layer 1
370
     0
100
AcDbVertex
100
AcDb2dVertex
 10
7.397189670138888
 20
-8.703504774305555
 30
0.0
  0
VERTEX
  5
1EC
330
1EA
100
AcDbEntity
  8
Layer 1
370
     0
100
AcDbVertex
100
AcDb2dVertex
 10
7.185370551215278
 20
-8.58029513888889
 30
0.0
  0
VERTEX
  5
1ED
330
1EA
100
AcDbEntity
  8
Layer 1
370
     0
100
AcDbVertex
100
AcDb2dVertex
 10
7.270290798611111
 20
-8.432915581597221
 30
0.0
  0
VERTEX
  5
1EE
330
1EA
100
AcDbEntity
  8
Layer 1
370
     0
100
AcDbVertex
100
AcDb2dVertex
 10
6.709798177083333
 20
-7.581353081597221
 30
0.0
  0
VERTEX
  5
1EF
330
1EA
100
AcDbEntity
  8
Layer 1
370
     0
100
AcDbVertex
100
AcDb2dVertex
 10
7.727579752604166
 20
-7.640774197048611
 30
0.0
  0
VERTEX
  5
1F0
330
1EA
100
AcDbEntity
  8
Layer 1
370
     0
100
AcDbVertex
100
AcDb2dVertex
 10
7.820461697048611
 20
-7.479749891493055
 30
0.0
  0
VERTEX
  5
1F1
330
1EA
100
AcDbEntity
  8
Layer 1
370
     0
100
AcDbVertex
100
AcDb2dVertex
 10
8.026082356770832
 20
-7.598307291666666
 30
0.0
  0
VERTEX
  5
1F2
330
1EA
100
AcDbEntity
  8
Layer 1
370
     0
100
AcDbVertex
100
AcDb2dVertex
 10
8.026801215277777
 20
-8.339165581597221
 30
0.0
  0
VERTEX
  5
1F3
330
1EA
100
AcDbEntity
  8
Layer 1
370
     0
100
AcDbVertex
100
AcDb2dVertex
 10
7.397189670138888
 20
-8.703504774305555
 30
0.0
  0
SEQEND
  5
1F4
330
1EA
100
AcDbEntity
  8
Layer 1
370
     0
  0
ENDSEC
  0
SECTION
  2
OBJECTS
  0
DICTIONARY
  5
C
330
0
100
AcDbDictionary
281
     1
  3
ACAD_GROUP
350
D
  3
ACAD_LAYOUT
350
1A
  3
ACAD_MLINESTYLE
350
17
  3
ACAD_PLOTSETTINGS
350
19
  3
ACAD_PLOTSTYLENAME
350
E
  3
ACAD_TABLESTYLE
350
1F5
  3
ACAD_VISUALSTYLE
350
2A
  0
DICTIONARY
  5
D
102
{ACAD_REACTORS
330
C
102
}
330
C
100
AcDbDictionary
281
     1
  0
DICTIONARY
  5
1A
102
{ACAD_REACTORS
330
C
102
}
330
C
100
AcDbDictionary
281
     1
  3
Layout1
350
1E
  3
Layout2
350
26
  3
Model
350
22
  0
DICTIONARY
  5
17
102
{ACAD_REACTORS
330
C
102
}
330
C
100
AcDbDictionary
281
     1
  3
Standard
350
18
  0
DICTIONARY
  5
19
102
{ACAD_REACTORS
330
C
102
}
330
C
100
AcDbDictionary
281
     1
  0
ACDBDICTIONARYWDFLT
  5
E
102
{ACAD_REACTORS
330
C
102
}
330
C
100
AcDbDictionary
281
     1
  3
Normal
350
F
100
AcDbDictionaryWithDefault
340
F
  0
DICTIONARY
  5
1F5
102
{ACAD_REACTORS
330
C
102
}
330
C
100
AcDbDictionary
281
     1
  0
DICTIONARY
  5
2A
102
{ACAD_REACTORS
330
C
102
}
330
C
100
AcDbDictionary
281
     1
  3
2dWireframe
350
2F
  3
3D Hidden
350
31
  3
3dWireframe
350
30
  3
Basic
350
32
  3
Brighten
350
36
  3
ColorChange
350
3A
  3
Conceptual
350
34
  3
Dim
350
35
  3
Facepattern
350
39
  3
Flat
350
2B
  3
FlatWithEdges
350
2C
  3
Gouraud
350
2D
  3
GouraudWithEdges
350
2E
  3
Linepattern
350
38
  3
Realistic
350
33
  3
Thicken
350
37
  0
LAYOUT
  5
1E
102
{ACAD_REACTORS
330
1A
102
}
330
1A
100
AcDbPlotSettings
  1

  2
none_device
  4

  6

 40
0.0
 41
0.0
 42
0.0
 43
0.0
 44
0.0
 45
0.0
 46
0.0
 47
0.0
 48
0.0
 49
0.0
140
0.0
141
0.0
142
1.0
143
1.0
 70
   688
 72
     0
 73
     0
 74
     5
  7

 75
    16
 76
     0
 77
     2
 78
   300
147
1.0
148
0.0
149
0.0
100
AcDbLayout
  1
Layout1
 70
     1
 71
     1
 10
0.0
 20
0.0
 11
12.0
 21
9.0
 12
0.0
 22
0.0
 32
0.0
 14
1.000000000000000E+20
 24
1.000000000000000E+20
 34
1.000000000000000E+20
 15
-1.000000000000000E+20
 25
-1.000000000000000E+20
 35
-1.000000000000000E+20
146
0.0
 13
0.0
 23
0.0
 33
0.0
 16
1.0
 26
0.0
 36
0.0
 17
0.0
 27
1.0
 37
0.0
 76
     0
330
1B
  0
LAYOUT
  5
26
102
{ACAD_REACTORS
330
1A
102
}
330
1A
100
AcDbPlotSettings
  1

  2
none_device
  4

  6

 40
0.0
 41
0.0
 42
0.0
 43
0.0
 44
0.0
 45
0.0
 46
0.0
 47
0.0
 48
0.0
 49
0.0
140
0.0
141
0.0
142
1.0
143
1.0
 70
   688
 72
     0
 73
     0
 74
     5
  7

 75
    16
 76
     0
 77
     2
 78
   300
147
1.0
148
0.0
149
0.0
100
AcDbLayout
  1
Layout2
 70
     1
 71
     2
 10
0.0
 20
0.0
 11
0.0
 21
0.0
 12
0.0
 22
0.0
 32
0.0
 14
0.0
 24
0.0
 34
0.0
 15
0.0
 25
0.0
 35
0.0
146
0.0
 13
0.0
 23
0.0
 33
0.0
 16
1.0
 26
0.0
 36
0.0
 17
0.0
 27
1.0
 37
0.0
 76
     0
330
23
  0
LAYOUT
  5
22
102
{ACAD_REACTORS
330
1A
102
}
330
1A
100
AcDbPlotSettings
  1

  2
none_device
  4

  6

 40
0.0
 41
0.0
 42
0.0
 43
0.0
 44
0.0
 45
0.0
 46
0.0
 47
0.0
 48
0.0
 49
0.0
140
0.0
141
0.0
142
1.0
143
1.0
 70
  1712
 72
     0
 73
     0
 74
     0
  7

 75
     0
 76
     0
 77
     2
 78
   300
147
1.0
148
0.0
149
0.0
100
AcDbLayout
  1
Model
 70
     1
 71
     0
 10
0.0
 20
0.0
 11
12.0
 21
9.0
 12
0.0
 22
0.0
 32
0.0
 14
1.000000000000000E+20
 24
1.000000000000000E+20
 34
1.000000000000000E+20
 15
-1.000000000000000E+20
 25
-1.000000000000000E+20
 35
-1.000000000000000E+20
146
0.0
 13
0.0
 23
0.0
 33
0.0
 16
1.0
 26
0.0
 36
0.0
 17
0.0
 27
1.0
 37
0.0
 76
     0
330
1F
331
29
  0
MLINESTYLE
  5
18
102
{ACAD_REACTORS
330
17
102
}
330
17
100
AcDbMlineStyle
  2
Standard
 70
     0
  3

 62
   256
 51
90.0
 52
90.0
 71
     2
 49
0.5
 62
   256
  6
BYLAYER
 49
-0.5
 62
   256
  6
BYLAYER
  0
ACDBPLACEHOLDER
  5
F
102
{ACAD_REACTORS
330
E
102
}
330
E
  0
VISUALSTYLE
  5
2F
102
{ACAD_REACTORS
330
2A
102
}
330
2A
100
AcDbVisualStyle
  2
2dWireframe
 70
     4
 71
     0
 72
     2
 73
     0
 90
        0
 40
-0.6
 41
-30.0
 62
     5
 63
     7
421
 16777215
 74
     1
 91
        4
 64
     7
 65
   257
 75
     1
175
     1
 42
1.0
 92
        0
 66
   257
 43
1.0
 76
     1
 77
     6
 78
     2
 67
     7
 79
     5
170
     0
171
     0
290
     0
174
     0
 93
        1
 44
0.0
173
     0
291
     0
 45
0.0
1001
ACAD
1000
AcDbSavedByObjectVersion
1070
     0
  0
VISUALSTYLE
  5
31
102
{ACAD_REACTORS
330
2A
102
}
330
2A
100
AcDbVisualStyle
  2
3D Hidden
 70
     6
 71
     1
 72
     2
 73
     2
 90
        0
 40
-0.6
 41
-30.0
 62
     5
 63
     7
421
 16777215
 74
     2
 91
        2
 64
     7
 65
   257
 75
     2
175
     1
 42
40.0
 92
        0
 66
   257
 43
1.0
 76
     1
 77
     6
 78
     2
 67
     7
 79
     3
170
     0
171
     0
290
     0
174
     0
 93
        1
 44
0.0
173
     0
291
     0
 45
0.0
1001
ACAD
1000
AcDbSavedByObjectVersion
1070
     0
  0
VISUALSTYLE
  5
30
102
{ACAD_REACTORS
330
2A
102
}
330
2A
100
AcDbVisualStyle
  2
3dWireframe
 70
     5
 71
     0
 72
     2
 73
     0
 90
        0
 40
-0.6
 41
-30.0
 62
     5
 63
     7
421
 16777215
 74
     1
 91
        4
 64
     7
 65
   257
 75
     1
175
     1
 42
1.0
 92
        0
 66
   257
 43
1.0
 76
     1
 77
     6
 78
     2
 67
     7
 79
     5
170
     0
171
     0
290
     0
174
     0
 93
        1
 44
0.0
173
     0
291
     0
 45
0.0
1001
ACAD
1000
AcDbSavedByObjectVersion
1070
     0
  0
VISUALSTYLE
  5
32
102
{ACAD_REACTORS
330
2A
102
}
330
2A
100
AcDbVisualStyle
  2
Basic
 70
     7
 71
     1
 72
     0
 73
     1
 90
        0
 40
-0.6
 41
-30.0
 62
     5
 63
     7
421
 16777215
 74
     0
 91
        4
 64
     7
 65
   257
 75
     1
175
     1
 42
1.0
 92
        8
 66
     7
 43
1.0
 76
     1
 77
     6
 78
     2
 67
     7
 79
     5
170
     0
171
     0
290
     0
174
     0
 93
        1
 44
0.0
173
     0
291
     1
 45
0.0
1001
ACAD
1000
AcDbSavedByObjectVersion
1070
     0
  0
VISUALSTYLE
  5
36
102
{ACAD_REACTORS
330
2A
102
}
330
2A
100
AcDbVisualStyle
  2
Brighten
 70
    12
 71
     2
 72
     2
 73
     0
 90
        0
 40
-0.6
 41
-30.0
 62
     5
 63
     7
421
 16777215
 74
     1
 91
        4
 64
     7
 65
   257
 75
     1
175
     1
 42
1.0
 92
        8
 66
     7
 43
1.0
 76
     1
 77
     6
 78
     2
 67
     7
 79
     5
170
     0
171
     0
290
     0
174
     0
 93
        1
 44
50.0
173
     0
291
     1
 45
0.0
1001
ACAD
1000
AcDbSavedByObjectVersion
1070
     0
  0
VISUALSTYLE
  5
3A
102
{ACAD_REACTORS
330
2A
102
}
330
2A
100
AcDbVisualStyle
  2
ColorChange
 70
    16
 71
     2
 72
     2
 73
     3
 90
        0
 40
-0.6
 41
-30.0
 62
     5
 63
     8
421
  8421504
 74
     1
 91
        4
 64
     7
 65
   257
 75
     1
175
     1
 42
1.0
 92
        8
 66
     8
424
  8421504
 43
1.0
 76
     1
 77
     6
 78
     2
 67
     7
 79
     5
170
     0
171
     0
290
     0
174
     0
 93
        1
 44
0.0
173
     0
291
     1
 45
0.0
1001
ACAD
1000
AcDbSavedByObjectVersion
1070
     0
  0
VISUALSTYLE
  5
34
102
{ACAD_REACTORS
330
2A
102
}
330
2A
100
AcDbVisualStyle
  2
Conceptual
 70
     9
 71
     3
 72
     2
 73
     0
 90
        0
 40
-0.6
 41
-30.0
 62
     5
 63
     7
421
 16777215
 74
     2
 91
        2
 64
     7
 65
   257
 75
     1
175
     1
 42
40.0
 92
        8
 66
     7
 43
1.0
 76
     1
 77
     6
 78
     2
 67
     7
 79
     3
170
     0
171
     0
290
     0
174
     0
 93
        1
 44
0.0
173
     0
291
     0
 45
0.0
1001
ACAD
1000
AcDbSavedByObjectVersion
1070
     0
  0
VISUALSTYLE
  5
35
102
{ACAD_REACTORS
330
2A
102
}
330
2A
100
AcDbVisualStyle
  2
Dim
 70
    11
 71
     2
 72
     2
 73
     0
 90
        0
 40
-0.6
 41
-30.0
 62
     5
 63
     7
421
 16777215
 74
     1
 91
        4
 64
     7
 65
   257
 75
     1
175
     1
 42
1.0
 92
        8
 66
     7
 43
1.0
 76
     1
 77
     6
 78
     2
 67
     7
 79
     5
170
     0
171
     0
290
     0
174
     0
 93
        1
 44
-50.0
173
     0
291
     1
 45
0.0
1001
ACAD
1000
AcDbSavedByObjectVersion
1070
     0
  0
VISUALSTYLE
  5
39
102
{ACAD_REACTORS
330
2A
102
}
330
2A
100
AcDbVisualStyle
  2
Facepattern
 70
    15
 71
     2
 72
     2
 73
     0
 90
        0
 40
-0.6
 41
-30.0
 62
     5
 63
     7
421
 16777215
 74
     1
 91
        4
 64
     7
 65
   257
 75
     1
175
     1
 42
1.0
 92
        8
 66
     7
 43
1.0
 76
     1
 77
     6
 78
     2
 67
     7
 79
     5
170
     0
171
     0
290
     0
174
     0
 93
        1
 44
0.0
173
     0
291
     1
 45
0.0
1001
ACAD
1000
AcDbSavedByObjectVersion
1070
     0
  0
VISUALSTYLE
  5
2B
102
{ACAD_REACTORS
330
2A
102
}
330
2A
100
AcDbVisualStyle
  2
Flat
 70
     0
 71
     2
 72
     1
 73
     1
 90
        2
 40
-0.6
 41
30.0
 62
     5
 63
     7
421
 16777215
 74
     0
 91
        4
 64
     7
 65
   257
 75
     1
175
     1
 42
1.0
 92
        8
 66
     7
 43
1.0
 76
     1
 77
     6
 78
     2
 67
     7
 79
     5
170
     0
171
     0
290
     0
174
     0
 93
       13
 44
0.0
173
     0
291
     1
 45
0.0
1001
ACAD
1000
AcDbSavedByObjectVersion
1070
     0
  0
VISUALSTYLE
  5
2C
102
{ACAD_REACTORS
330
2A
102
}
330
2A
100
AcDbVisualStyle
  2
FlatWithEdges
 70
     1
 71
     2
 72
     1
 73
     1
 90
        2
 40
-0.6
 41
30.0
 62
     5
 63
     7
421
 16777215
 74
     1
 91
        4
 64
     7
 65
   257
 75
     1
175
     1
 42
1.0
 92
        0
 66
   257
 43
1.0
 76
     1
 77
     6
 78
     2
 67
     7
 79
     5
170
     0
171
     0
290
     0
174
     0
 93
       13
 44
0.0
173
     0
291
     1
 45
0.0
1001
ACAD
1000
AcDbSavedByObjectVersion
1070
     0
  0
VISUALSTYLE
  5
2D
102
{ACAD_REACTORS
330
2A
102
}
330
2A
100
AcDbVisualStyle
  2
Gouraud
 70
     2
 71
     2
 72
     2
 73
     1
 90
        2
 40
-0.6
 41
30.0
 62
     5
 63
     7
421
 16777215
 74
     0
 91
        4
 64
     7
 65
   257
 75
     1
175
     1
 42
1.0
 92
        0
 66
     7
 43
1.0
 76
     1
 77
     6
 78
     2
 67
     7
 79
     5
170
     0
171
     0
290
     0
174
     0
 93
       13
 44
0.0
173
     0
291
     1
 45
0.0
1001
ACAD
1000
AcDbSavedByObjectVersion
1070
     0
  0
VISUALSTYLE
  5
2E
102
{ACAD_REACTORS
330
2A
102
}
330
2A
100
AcDbVisualStyle
  2
GouraudWithEdges
 70
     3
 71
     2
 72
     2
 73
     1
 90
        2
 40
-0.6
 41
30.0
 62
     5
 63
     7
421
 16777215
 74
     1
 91
        4
 64
     7
 65
   257
 75
     1
175
     1
 42
1.0
 92
        0
 66
   257
 43
1.0
 76
     1
 77
     6
 78
     2
 67
     7
 79
     5
170
     0
171
     0
290
     0
174
     0
 93
       13
 44
0.0
173
     0
291
     1
 45
0.0
1001
ACAD
1000
AcDbSavedByObjectVersion
1070
     0
  0
VISUALSTYLE
  5
38
102
{ACAD_REACTORS
330
2A
102
}
330
2A
100
AcDbVisualStyle
  2
Linepattern
 70
    14
 71
     2
 72
     2
 73
     0
 90
        0
 40
-0.6
 41
-30.0
 62
     5
 63
     7
421
 16777215
 74
     1
 91
        4
 64
     7
 65
   257
 75
     7
175
     7
 42
1.0
 92
        8
 66
     7
 43
1.0
 76
     1
 77
     6
 78
     2
 67
     7
 79
     5
170
     0
171
     0
290
     0
174
     0
 93
        1
 44
0.0
173
     0
291
     1
 45
0.0
1001
ACAD
1000
AcDbSavedByObjectVersion
1070
     0
  0
VISUALSTYLE
  5
33
102
{ACAD_REACTORS
330
2A
102
}
330
2A
100
AcDbVisualStyle
  2
Realistic
 70
     8
 71
     2
 72
     2
 73
     0
 90
        0
 40
-0.6
 41
-30.0
 62
     5
 63
     7
421
 16777215
 74
     1
 91
        0
 64
     7
 65
   257
 75
     1
175
     1
 42
1.0
 92
        8
 66
     8
424
  7895160
 43
1.0
 76
     1
 77
     6
 78
     2
 67
     7
 79
     5
170
     0
171
     0
290
     0
174
     0
 93
       13
 44
0.0
173
     0
291
     0
 45
0.0
1001
ACAD
1000
AcDbSavedByObjectVersion
1070
     0
  0
VISUALSTYLE
  5
37
102
{ACAD_REACTORS
330
2A
102
}
330
2A
100
AcDbVisualStyle
  2
Thicken
 70
    13
 71
     2
 72
     2
 73
     0
 90
        0
 40
-0.6
 41
-30.0
 62
     5
 63
     7
421
 16777215
 74
     1
 91
        4
 64
     7
 65
   257
 75
     1
175
     1
 42
1.0
 92
       12
 66
     7
 43
1.0
 76
     1
 77
     6
 78
     2
 67
     7
 79
     5
170
     0
171
     0
290
     0
174
     0
 93
        1
 44
0.0
173
     0
291
     1
 45
0.0
1001
ACAD
1000
AcDbSavedByObjectVersion
1070
     0
  0
ENDSEC
  0
EOF
