<?xml version="1.0" encoding="utf-8"?>
<!-- Generator: Adobe Illustrator 16.0.0, SVG Export Plug-In . SVG Version: 6.00 Build 0)  -->
<!DOCTYPE svg PUBLIC "-//W3C//DTD SVG 1.1//EN" "http://www.w3.org/Graphics/SVG/1.1/DTD/svg11.dtd">
<svg version="1.1" id="Layer_1" xmlns="http://www.w3.org/2000/svg" xmlns:xlink="http://www.w3.org/1999/xlink" x="0px" y="0px"
	 width="595.28px" height="841.89px" viewBox="0 0 595.28 841.89" enable-background="new 0 0 595.28 841.89" xml:space="preserve">
<linearGradient id="SVGID_1_" gradientUnits="userSpaceOnUse" x1="0" y1="392.1494" x2="594.4414" y2="392.1494">
	<stop  offset="0.0056" style="stop-color:#ECC562"/>
	<stop  offset="1" style="stop-color:#C3922E"/>
</linearGradient>
<path fill="url(#SVGID_1_)" d="M594.441,392.158l-28.426-68.641H462.935l72.899-72.897l-28.437-68.631l-68.63-28.444l-72.908,72.884
	V123.372l-68.646-28.445l-68.627,28.445v103.062l-72.889-72.884l-68.646,28.44l-28.44,68.631l72.903,72.897H28.431L0,392.158
	l28.431,68.641h103.085l-72.903,72.876l28.445,68.646l68.641,28.43l72.889-72.883v103.08l68.627,28.425l68.646-28.406V557.867
	l72.908,72.902l68.621-28.449l28.445-68.641l-72.899-72.881h103.081L594.441,392.158z M444.889,184.41l42.481,17.607l17.588,42.457
	l-79.034,79.043h-60.064l0,0v-60.064L444.889,184.41z M278.712,470.715l-23.966,23.957v-33.873h14.042L278.712,470.715z
	 M325.648,460.799h14.038v33.873l-23.958-23.957L325.648,460.799z M314.801,434.622L314.801,434.622l-17.587,17.584l-17.597-17.584
	l0,0h-24.871v-24.871v-0.014l-10.947-10.945l-6.641-6.637l17.587-17.598v-24.875h24.871l17.597-17.587l17.587,17.587l0,0h24.886
	v24.875l17.597,17.598l-17.597,17.597l0,0v24.871H314.801z M218.663,373.634L194.7,349.682h33.887v14.037L218.663,373.634z
	 M218.663,410.66l9.924,9.926v14.037H194.7L218.663,410.66z M315.729,313.579l23.958-23.961v33.9h-14.038L315.729,313.579z
	 M268.788,323.505h-14.042v-33.887l23.966,23.961L268.788,323.505z M365.859,420.585l9.93-9.926l23.967,23.962h-33.896V420.585z
	 M365.859,363.719v-14.037h33.886l-23.956,23.953L365.859,363.719z M254.746,140.851l42.468-17.592l42.473,17.592v111.75
	l-42.473,42.473l0,0l0,0l-42.468-42.473V140.851z M89.498,244.49l17.573-42.473l42.487-17.593l79.029,79.029v60.051v0.013h-60.055
	L89.498,244.49z M45.911,434.622l-17.593-42.464l17.611-42.477h111.75l42.472,42.473l-42.472,42.468H45.911z M149.558,599.874
	l-42.478-17.586l-17.583-42.478l79.034-79.012h60.055v60.037L149.558,599.874z M339.687,643.467l-42.473,17.588l-42.468-17.588
	V531.703l42.468-42.474l42.473,42.474V643.467z M504.958,539.83l-17.616,42.458l-42.453,17.586l-79.029-79.019v-60.057h60.064
	L504.958,539.83z M436.748,434.622l-42.454-42.468l0,0l0,0l42.454-42.473h111.778l17.587,42.477l-17.587,42.464H436.748z"/>
</svg>
