<?xml version="1.0" encoding="utf-8"?>
<!-- Generator: Adobe Illustrator 16.0.0, SVG Export Plug-In . SVG Version: 6.00 Build 0)  -->
<!DOCTYPE svg PUBLIC "-//W3C//DTD SVG 1.1//EN" "http://www.w3.org/Graphics/SVG/1.1/DTD/svg11.dtd">
<svg version="1.1" id="Layer_1" xmlns="http://www.w3.org/2000/svg" xmlns:xlink="http://www.w3.org/1999/xlink" x="0px" y="0px"
	 width="595.28px" height="841.89px" viewBox="0 0 595.28 841.89" enable-background="new 0 0 595.28 841.89" xml:space="preserve">
<linearGradient id="SVGID_1_" gradientUnits="userSpaceOnUse" x1="0" y1="406.3613" x2="593.6719" y2="406.3613">
	<stop  offset="0.0056" style="stop-color:#ECC562"/>
	<stop  offset="1" style="stop-color:#C3922E"/>
</linearGradient>
<path fill="url(#SVGID_1_)" d="M0,406.345c0,163.932,132.891,296.847,296.833,296.847c163.929,0,296.839-132.915,296.839-296.847
	c0-163.924-132.91-296.814-296.839-296.814C132.891,109.531,0,242.421,0,406.345z M80.838,238.501v-3.363
	c0.095-0.119,0.179-0.249,0.274-0.358c0.088,0.109,0.168,0.239,0.278,0.358v3.363c15.706,20.358,28.651,42.933,38.23,67.22
	c-0.792,0.1-1.574,0.229-2.352,0.329c-1.604,0.204-3.208,0.409-4.826,0.612c-1.878,0.204-3.761,0.389-5.634,0.573
	c-1.574,0.135-3.133,0.289-4.697,0.404c-2.192,0.16-4.378,0.284-6.57,0.398c-1.285,0.064-2.561,0.16-3.85,0.204
	c-3.527,0.15-7.043,0.22-10.605,0.22c-3.557,0-7.088-0.085-10.604-0.225c-1.291-0.039-2.561-0.134-3.841-0.199
	c-2.202-0.12-4.378-0.25-6.57-0.408c-1.569-0.12-3.123-0.264-4.677-0.409c-1.903-0.184-3.785-0.374-5.663-0.598
	c-1.609-0.18-3.213-0.374-4.827-0.593c-0.787-0.104-1.569-0.229-2.361-0.333C52.137,281.418,65.103,258.844,80.838,238.501z
	 M34.37,329.616c3.87,0.603,7.741,1.13,11.655,1.583c0.618,0.075,1.276,0.125,1.908,0.194c3.178,0.354,6.361,0.692,9.568,0.927
	c1.864,0.144,3.746,0.224,5.629,0.339c1.997,0.129,3.996,0.278,6.022,0.363c2.536,0.085,5.091,0.115,7.641,0.155
	c1.345,0.015,2.669,0.089,4.02,0.089v-0.015c0.015,0,0.03,0,0.065,0c0.035,0.015,0.075,0.015,0.139,0.015c0.02,0,0.041,0,0.055,0
	c0.041,0,0.05,0,0.085,0c0.036,0,0.089,0,0.125-0.015c0.03,0,0.05,0,0.085,0v0.015c1.335,0,2.666-0.075,4.02-0.089
	c2.541-0.04,5.091-0.06,7.626-0.144c2.017-0.085,4.009-0.239,6.027-0.359c1.873-0.104,3.75-0.195,5.614-0.334
	c3.212-0.249,6.41-0.577,9.568-0.921c0.648-0.08,1.299-0.125,1.938-0.194c3.889-0.453,7.76-0.976,11.611-1.594
	c2.092,7.168,3.865,14.475,5.364,21.873c-18.829,9.01-36.331,20.885-52.072,35.34c-15.73-14.465-33.219-26.361-52.043-35.376
	C30.524,344.08,32.297,336.784,34.37,329.616z M97.524,406.096c0.09-0.071,0.18-0.14,0.259-0.246h-0.518
	c-0.06-0.034-0.115-0.08-0.174-0.138c12.213-11.333,25.657-20.836,40.053-28.448c0.996,9.475,1.519,19.113,1.519,28.845
	c-0.01,9.739-0.542,19.371-1.534,28.861c-14.389-7.626-27.824-17.149-40.037-28.476c0.059-0.065,0.114-0.111,0.174-0.165h0.518
	C97.704,406.254,97.615,406.175,97.524,406.096z M23.46,406.076c0.016-9.744,0.539-19.367,1.529-28.852
	c14.401,7.622,27.83,17.136,40.039,28.488c-0.055,0.049-0.109,0.089-0.17,0.138h-0.532c0.085,0.091,0.184,0.175,0.264,0.246
	c-0.08,0.074-0.179,0.14-0.264,0.229h0.532c0.061,0.043,0.116,0.099,0.17,0.15C52.8,417.816,39.361,427.32,24.985,434.931
	C23.968,425.453,23.466,415.813,23.46,406.076z M28.984,460.693c18.824-9.012,36.333-20.892,52.074-35.352
	c15.73,14.465,33.228,26.35,52.042,35.381c-1.505,7.393-3.272,14.679-5.37,21.857c-3.855-0.607-7.73-1.135-11.631-1.584
	c-0.622-0.094-1.28-0.125-1.923-0.209c-3.163-0.344-6.346-0.678-9.559-0.932c-1.868-0.145-3.746-0.213-5.623-0.338
	c-2.018-0.119-4.004-0.264-6.017-0.346c-2.541-0.119-5.091-0.129-7.646-0.154c-1.335-0.028-2.675-0.094-4.02-0.094
	c-0.069,0-0.134,0-0.209,0c-0.044,0-0.085,0-0.145,0c-0.064,0-0.129,0-0.199,0c-1.345,0-2.674,0.065-4.005,0.094
	c-2.56,0.021-5.106,0.035-7.646,0.14c-2.023,0.091-4.025,0.23-6.022,0.345c-1.888,0.115-3.761,0.193-5.614,0.339
	c-3.228,0.259-6.406,0.583-9.563,0.932c-0.648,0.073-1.31,0.109-1.942,0.189c-3.906,0.458-7.771,0.956-11.626,1.583
	C32.257,475.383,30.499,468.085,28.984,460.693z M81.281,573.685v3.357c-0.089,0.135-0.179,0.255-0.274,0.373
	c-0.094-0.118-0.179-0.238-0.279-0.373v-3.357c-15.71-20.357-28.666-42.932-38.249-67.225c0.811-0.089,1.588-0.221,2.366-0.335
	c1.619-0.209,3.228-0.403,4.832-0.587c1.868-0.208,3.75-0.414,5.653-0.577c1.549-0.145,3.119-0.289,4.683-0.419
	c2.181-0.165,4.368-0.289,6.56-0.398c1.3-0.075,2.565-0.145,3.85-0.219c3.512-0.124,7.053-0.19,10.605-0.21
	c3.576,0.02,7.088,0.086,10.61,0.229c1.299,0.065,2.56,0.14,3.835,0.2c2.197,0.109,4.388,0.249,6.57,0.417
	c1.569,0.121,3.124,0.266,4.702,0.419c1.878,0.186,3.766,0.365,5.639,0.579c1.604,0.184,3.223,0.383,4.826,0.592
	c0.797,0.109,1.564,0.243,2.36,0.335C109.973,530.767,97.021,553.327,81.281,573.685z M128.328,601.968
	c-1.665,0.965-3.313,1.977-4.957,2.982c-0.493,0.314-1.016,0.613-1.514,0.937c-1.858,1.146-3.671,2.342-5.454,3.548
	c-0.264,0.173-0.522,0.349-0.782,0.518c-0.757,0.514-1.539,1.016-2.301,1.534c-5.983-5.331-11.75-10.91-17.245-16.718
	c20.293-24.908,36.741-53.042,48.256-83.612c0.599,0.149,1.206,0.279,1.813,0.408c1.554,0.384,3.078,0.823,4.629,1.206
	c2.13,0.563,4.262,1.116,6.39,1.734c1.28,0.368,2.525,0.763,3.776,1.161c2.354,0.69,4.706,1.422,7.032,2.196
	c0.094,0.028,0.195,0.059,0.294,0.104c-1.744,21.414-0.229,43.125,4.632,64.584c-0.089,0.03-0.17,0.061-0.259,0.094
	c-2.4,0.733-4.802,1.521-7.159,2.352c-0.269,0.079-0.531,0.16-0.78,0.249c-2.422,0.848-4.827,1.744-7.199,2.677
	c-0.184,0.063-0.378,0.147-0.557,0.213c-5.102,2.007-10.098,4.208-15.004,6.575c-0.817,0.404-1.633,0.841-2.445,1.244
	c-1.49,0.752-2.994,1.501-4.459,2.278c-1.444,0.761-2.849,1.572-4.283,2.364C129.957,601.051,129.129,601.498,128.328,601.968z
	 M156.452,470.213c6.439,2.191,12.985,4.099,19.639,5.663c-1.674,5.663-3.083,11.382-4.274,17.149
	c-1.125-0.363-2.286-0.678-3.441-1.035c-1.983-0.59-3.95-1.201-5.942-1.769c-1.978-0.554-3.99-1.066-5.988-1.589
	c-1.433-0.359-2.853-0.798-4.288-1.146C153.756,481.798,155.175,476.031,156.452,470.213z M152.193,324.749
	c1.448-0.348,2.868-0.777,4.297-1.14c1.998-0.519,4.005-1.037,5.988-1.595c1.991-0.572,3.979-1.174,5.942-1.762
	c1.155-0.364,2.321-0.688,3.462-1.037c1.17,5.768,2.595,11.492,4.248,17.16c-6.646,1.559-13.206,3.466-19.641,5.648
	C155.216,336.21,153.812,330.427,152.193,324.749z M184.271,657.312c-18.023-8.035-35.008-17.941-50.723-29.475
	c14.121-9.07,29.492-16.263,45.885-21.367l0.368,1.229l0.121-0.025C183.578,624.159,185.018,640.824,184.271,657.312z
	 M160.825,445.506c1.712-12.82,2.604-25.876,2.624-39.151h0.015c0-0.076,0-0.165,0-0.246c0-0.074,0-0.143,0-0.229h-0.015
	c-0.015-13.254-0.906-26.33-2.605-39.14c7.708-2.785,15.626-5.076,23.707-6.854c3.416,8.059,7.281,15.954,11.725,23.695
	c4.508,7.825,9.503,15.377,14.948,22.554c-5.45,7.179-10.46,14.724-14.968,22.554c-4.454,7.712-8.304,15.622-11.73,23.677
	C176.444,450.592,168.53,448.281,160.825,445.506z M287.354,320.655c2.481-4.389,5.186-8.628,7.97-12.767
	c3.672,5.305,7.123,10.793,10.3,16.513l2.616,4.662c4.543,8.045,7.812,13.867,10.829,22.23l3.298,9.076l9.593-0.966
	c0.226-0.015,22.559-2.227,33.946-2.308h1.271c4.791,0,9.527,0.226,14.251,0.584c-2.026,4.279-4.18,8.513-6.539,12.672
	c-4.534,7.964-15.842,23.021-19.801,28.133l-5.788,7.456h-0.324l-0.021,0.025l0.165,0.208l-0.165,0.219l0.021,0.025h0.324
	l5.772,7.457c3.975,5.111,15.282,20.168,19.801,28.138c2.355,4.164,4.488,8.414,6.529,12.693c-4.726,0.337-9.475,0.557-14.26,0.557
	h-1.271c-11.381-0.08-33.711-2.297-33.945-2.326l-9.599-0.961l-3.294,9.07c-3.013,8.348-6.29,14.166-10.847,22.206l-2.615,4.687
	c-3.175,5.684-6.626,11.184-10.311,16.497c-2.78-4.158-5.465-8.401-7.966-12.795c-5.603-9.89-14.824-30.366-14.902-30.574
	l-3.965-8.802l-9.51,1.689c-10.897,1.937-22.1,2.897-33.274,2.887c-5.279,0-10.514-0.264-15.73-0.67
	c2.376-5.103,4.99-10.153,7.845-15.094c5.559-9.688,11.995-18.884,19.113-27.381l6.151-7.313h0.365l0.01-0.029l-0.185-0.215
	l0.185-0.218l-0.01-0.015h-0.365l-6.146-7.312c-7.119-8.512-13.534-17.713-19.113-27.396c-2.844-4.952-5.439-9.997-7.814-15.098
	c5.214-0.434,10.445-0.663,15.73-0.663c11.167,0,22.365,0.973,33.273,2.915l9.499,1.674l3.966-8.802
	C272.511,351.023,281.745,330.567,287.354,320.655z M282.184,255.731c5.056-4.567,9.878-9.325,14.61-14.201
	c0.163-0.169,0.328-0.333,0.478-0.503c4.145,4.329,8.449,8.538,12.846,12.607c-5.229,4.633-10.22,9.534-15.002,14.7
	C290.991,263.93,286.667,259.751,282.184,255.731z M311.179,287.535c5.63-6.321,11.655-12.189,18.061-17.633
	c20.544,16.05,43.231,29.508,67.556,39.83c-1.435,8.059-3.403,16.038-5.889,23.894c-7.825-0.866-15.73-1.325-23.716-1.325h-1.449
	c-7.601,0.045-19.012,0.902-26.986,1.574c-2.719-6.002-5.659-11.218-8.892-16.965l-2.566-4.563
	C322.461,303.649,317.042,295.381,311.179,287.535z M390.857,478.746c2.488,7.859,4.463,15.85,5.887,23.907
	c-24.348,10.311-47.03,23.745-67.593,39.795c-6.4-5.45-12.419-11.347-18.052-17.653c5.867-7.854,11.302-16.1,16.144-24.806
	l2.58-4.544c3.233-5.767,6.166-10.968,8.887-16.975c7.984,0.668,19.371,1.539,26.987,1.584h1.43
	C375.126,480.055,383.031,479.611,390.857,478.746z M310.028,558.701c-4.404,4.061-8.696,8.264-12.846,12.579
	c-0.165-0.165-0.34-0.32-0.493-0.475c-4.713-4.892-9.554-9.659-14.589-14.218c4.467-4.02,8.802-8.207,12.935-12.591
	C299.807,549.152,304.804,554.059,310.028,558.701z M279.165,524.666c-5.135,5.648-10.6,10.928-16.327,15.89
	c-4.647-3.562-9.435-6.953-14.291-10.241c-0.797-0.529-1.559-1.042-2.331-1.56c-2.078-1.369-4.155-2.715-6.257-4.04
	c-0.965-0.607-1.938-1.21-2.908-1.798c-2.082-1.26-4.155-2.53-6.267-3.751c-0.801-0.458-1.593-0.902-2.406-1.359
	c-3.959-2.222-7.994-4.403-12.083-6.48c-1.17-0.612-2.351-1.201-3.532-1.794c-1.902-0.937-3.812-1.817-5.732-2.714
	c-1.47-0.703-2.95-1.374-4.429-2.027c-1.854-0.822-3.721-1.635-5.6-2.436c-0.538-0.22-1.056-0.469-1.58-0.683
	c1.326-7.248,3.08-14.43,5.267-21.503c8.223,0.951,16.531,1.484,24.944,1.488c9.399,0.006,18.794-0.617,28.084-1.822
	c3.376,7.252,8.282,17.453,12.028,24.023C269.836,511.117,274.359,518.03,279.165,524.666z M265.786,308.431
	c-3.73,6.565-8.637,16.782-12.024,24.019c-9.29-1.205-18.674-1.823-28.078-1.823c-8.414,0-16.723,0.518-24.957,1.464
	c-2.171-7.083-3.919-14.265-5.249-21.508c0.533-0.229,1.056-0.463,1.579-0.683c1.882-0.788,3.756-1.604,5.607-2.431
	c1.465-0.658,2.949-1.334,4.419-2.018c1.923-0.892,3.83-1.778,5.743-2.715c1.19-0.583,2.367-1.195,3.532-1.798
	c4.084-2.057,8.12-4.228,12.09-6.475c0.801-0.454,1.634-0.887,2.395-1.351c2.116-1.215,4.194-2.48,6.281-3.76
	c0.967-0.587,1.947-1.181,2.904-1.789c2.106-1.325,4.188-2.649,6.246-4.014c0.797-0.523,1.554-1.066,2.331-1.584
	c4.868-3.283,9.658-6.669,14.311-10.221c5.724,4.971,11.189,10.261,16.324,15.895C274.414,294.265,269.885,301.189,265.786,308.431z
	 M197.067,576.279h-0.06h-0.005l-0.119,0.029c-3.601-16.237-5.016-32.626-4.354-48.854c0.364,0.159,0.722,0.314,1.062,0.469
	c3.754,1.697,7.461,3.457,11.108,5.304c0.443,0.233,0.881,0.434,1.319,0.662c12.548,6.436,24.542,13.808,35.874,22.033
	c0.104,0.064,0.2,0.135,0.294,0.188c-13.927,9.092-28.956,16.329-44.755,21.354L197.067,576.279z M208.519,666.775
	c1.858-21.683,0.394-43.674-4.523-65.416c20.871-6.53,40.596-16.363,58.464-29.025c6.346,5.584,12.426,11.443,18.24,17.594
	c-20.282,24.906-36.665,53.123-48.156,83.688C224.389,671.697,216.369,669.416,208.519,666.775z M295.852,681.018
	c-13.076-0.011-25.967-0.941-38.553-2.716c9.917-25.124,23.41-48.436,39.869-69.326c10.227,13.006,19.306,26.913,27.087,41.627
	c0.015,0.024,0.021,0.05,0.045,0.069c1.524,2.919,3.028,5.858,4.447,8.837c0.041,0.039,0.05,0.101,0.084,0.13
	c2.896,6.017,5.564,12.108,8.035,18.315C323.477,679.98,309.799,681.018,295.852,681.018z M384.421,666.417
	c-7.501,2.54-15.117,4.767-22.877,6.671c-11.473-30.37-27.735-58.399-47.88-83.164c5.146-5.44,10.535-10.665,16.089-15.668
	c17.808,12.35,37.562,21.988,58.816,28.538C383.952,623.964,382.593,645.342,384.421,666.417z M394.494,578.696
	c-15.927-5.062-30.854-12.109-44.607-20.886c15.377-11.388,31.988-21.226,49.582-29.25
	C400.037,545.219,398.423,562.059,394.494,578.696z M408.624,656.874c-0.762-16.771,0.693-33.698,4.463-50.454
	c16.349,5,31.685,12.109,45.762,21.036C443.281,638.927,426.461,648.824,408.624,656.874z M439.922,488.175
	c-6.637,1.653-13.16,3.551-19.603,5.663c-1.299-6.476-2.898-12.906-4.79-19.268c6.648-1.519,13.213-3.348,19.648-5.504
	C436.549,475.508,438.126,481.877,439.922,488.175z M415.548,337.82c1.922-6.362,3.526-12.802,4.832-19.268
	c6.436,2.103,12.964,4.02,19.59,5.688c-1.808,6.272-3.388,12.658-4.756,19.087C428.758,341.182,422.214,339.333,415.548,337.82z
	 M479.036,611.053c-18.165-12.513-38.309-22.227-60.016-28.716c4.79-21.096,6.334-42.423,4.727-63.489
	c7.865-2.72,15.85-5.066,24.004-7.072c11.466,30.358,27.755,58.396,47.889,83.158C490.335,600.544,484.791,605.912,479.036,611.053z
	 M453.29,406.2c0.011-9.335,0.493-18.595,1.41-27.699c14.185,7.426,27.494,16.691,39.619,27.719
	c-12.125,11.007-25.438,20.274-39.635,27.7C453.752,424.8,453.29,415.549,453.29,406.2z M512.111,575.896
	c-16.357-20.812-29.802-44.018-39.679-68.999c13.384-1.991,27.077-3.048,41.005-3.038c13.084,0,25.951,0.957,38.567,2.725
	C542.083,531.688,528.584,555.007,512.111,575.896z M560.15,482.709c-15.233-2.386-30.819-3.656-46.713-3.656
	c-16.731-0.01-33.149,1.391-49.154,4.046c-2.247-7.667-4.149-15.466-5.738-23.392c19.247-9.084,37.144-21.109,53.193-35.839
	c16.18,15.212,34.304,27.62,53.806,36.989C564.045,468.255,562.237,475.536,560.15,482.709z M571.083,406.236
	c-0.025,9.732-0.549,19.336-1.549,28.815c-14.352-7.621-27.781-17.11-39.958-28.423c0.048-0.054,0.114-0.114,0.168-0.153h0.522
	c-0.083-0.091-0.179-0.16-0.259-0.249c0.08-0.061,0.176-0.15,0.259-0.23h-0.522c-0.054-0.039-0.12-0.089-0.168-0.148
	c12.192-11.318,25.632-20.796,39.968-28.412C570.55,386.897,571.058,396.527,571.083,406.236z M565.584,351.622
	c-19.511,9.364-37.653,21.757-53.836,36.959c-16.034-14.738-33.941-26.772-53.163-35.869c1.574-7.918,3.497-15.725,5.737-23.375
	c16.02,2.65,32.427,4.059,49.179,4.059c15.891,0.01,31.47-1.25,46.692-3.631C562.281,336.942,564.089,344.23,565.584,351.622z
	 M512.221,236.563c16.443,20.886,29.947,44.228,39.834,69.336c-12.603,1.764-25.468,2.7-38.554,2.7
	c-13.947-0.005-27.626-1.056-41.004-3.078C482.389,280.546,495.838,257.345,512.221,236.563z M495.754,217.491
	c-20.154,24.756-36.447,52.779-47.934,83.129c-8.154-1.997-16.147-4.358-24.004-7.068c1.629-21.061,0.096-42.409-4.676-63.509
	c21.706-6.46,41.854-16.168,60.021-28.672C484.91,206.513,490.459,211.893,495.754,217.491z M408.784,155.512
	c17.822,8.053,34.643,17.956,50.205,29.453c-14.088,8.906-29.439,16.009-45.758,21.005
	C409.441,189.208,407.996,172.273,408.784,155.512z M430.929,368.1c-1.603,12.403-2.415,25.04-2.45,37.867l0,0
	c0,0.079,0,0.158,0,0.224c0,0.089,0,0.175,0,0.244l0,0c0.021,12.832,0.843,25.464,2.426,37.871
	c-7.795,2.775-15.759,5.036-23.924,6.77c-3.098-7.223-6.605-14.346-10.535-21.283c-3.86-6.814-10.873-16.597-15.909-23.367h0.238
	c-0.055-0.079-0.114-0.149-0.144-0.249c0.029-0.065,0.089-0.149,0.144-0.219h-0.238c5.041-6.77,12.053-16.552,15.918-23.356
	c3.932-6.958,7.453-14.051,10.566-21.289C415.169,363.059,423.155,365.311,430.929,368.1z M399.532,283.819
	c-17.586-8.029-34.179-17.881-49.535-29.289c13.728-8.762,28.666-15.805,44.586-20.84
	C398.507,250.317,400.121,267.143,399.532,283.819z M384.562,145.942c-1.818,21.075-0.469,42.459,4.119,63.625
	c-21.245,6.564-41.001,16.173-58.817,28.506c-5.559-5.006-10.939-10.221-16.085-15.661c20.154-24.751,36.448-52.785,47.935-83.139
	C369.464,141.181,377.099,143.387,384.562,145.942z M296.017,131.303c13.932,0,27.635,1.057,41.008,3.069
	c-2.471,6.226-5.149,12.323-8.05,18.305c-0.01,0.055-0.038,0.095-0.074,0.149c-1.43,2.984-2.928,5.917-4.457,8.837
	c-0.02,0.02-0.04,0.049-0.04,0.065c-7.792,14.699-16.886,28.625-27.133,41.612c-16.433-20.906-29.916-44.217-39.813-69.328
	C270.065,132.234,282.951,131.298,296.017,131.303z M208.668,145.495c7.86-2.65,15.885-4.912,24.024-6.844
	c11.5,30.593,27.844,58.812,48.123,83.742c-5.818,6.132-11.916,11.995-18.267,17.578c-17.856-12.671-37.558-22.519-58.428-29.074
	C209.047,189.159,210.53,167.167,208.668,145.495z M196.987,235.951l0.109,0.04l0.025-0.025l0.051,0.025l0.357-1.201
	c15.822,5.036,30.833,12.279,44.755,21.365c-0.109,0.069-0.204,0.129-0.292,0.219c-11.349,8.189-23.348,15.562-35.894,21.986
	c-0.439,0.23-0.888,0.438-1.321,0.658c-3.651,1.848-7.352,3.611-11.113,5.31c-0.333,0.148-0.693,0.319-1.061,0.483
	C191.936,268.567,193.37,252.189,196.987,235.951z M184.405,154.938c0.742,16.493-0.693,33.149-4.354,49.637l-0.114-0.03
	l-0.374,1.22c-16.407-5.1-31.773-12.313-45.88-21.368C149.413,172.86,166.393,162.968,184.405,154.938z M113.454,200.72
	c0.763,0.532,1.535,1.021,2.302,1.553c0.244,0.165,0.503,0.33,0.767,0.504c1.788,1.215,3.611,2.406,5.454,3.551
	c0.488,0.314,1.006,0.623,1.514,0.936c1.633,1.017,3.283,2.022,4.966,2.984c0.792,0.469,1.604,0.907,2.416,1.36
	c1.43,0.802,2.844,1.613,4.285,2.366c1.463,0.802,2.967,1.549,4.458,2.292c0.817,0.413,1.633,0.842,2.456,1.245
	c4.886,2.372,9.882,4.573,14.973,6.59c0.199,0.07,0.389,0.14,0.569,0.22c2.385,0.926,4.78,1.823,7.192,2.666
	c0.264,0.089,0.518,0.173,0.792,0.268c2.349,0.822,4.751,1.604,7.156,2.351c0.089,0.025,0.165,0.055,0.254,0.08
	c-4.876,21.458-6.415,43.186-4.673,64.58c-0.099,0.044-0.204,0.08-0.303,0.109c-2.321,0.772-4.672,1.484-7.019,2.207
	c-1.27,0.378-2.515,0.782-3.777,1.15c-2.131,0.613-4.273,1.176-6.41,1.733c-1.534,0.404-3.063,0.812-4.627,1.196
	c-0.597,0.13-1.206,0.265-1.808,0.408c-11.502-30.578-27.925-58.721-48.192-83.637C101.689,211.613,107.467,206.04,113.454,200.72z"
	/>
</svg>
