<?xml version="1.0" encoding="utf-8"?>
<!-- Generator: Adobe Illustrator 16.0.0, SVG Export Plug-In . SVG Version: 6.00 Build 0)  -->
<!DOCTYPE svg PUBLIC "-//W3C//DTD SVG 1.1//EN" "http://www.w3.org/Graphics/SVG/1.1/DTD/svg11.dtd">
<svg version="1.1" id="Layer_1" xmlns="http://www.w3.org/2000/svg" xmlns:xlink="http://www.w3.org/1999/xlink" x="0px" y="0px"
	 width="595.28px" height="841.89px" viewBox="0 0 595.28 841.89" enable-background="new 0 0 595.28 841.89" xml:space="preserve">
<linearGradient id="SVGID_1_" gradientUnits="userSpaceOnUse" x1="0" y1="431.2344" x2="593.5752" y2="431.2344">
	<stop  offset="0.0056" style="stop-color:#ECC562"/>
	<stop  offset="1" style="stop-color:#C3922E"/>
</linearGradient>
<path fill="url(#SVGID_1_)" d="M593.575,134.399h-250.06l-0.002,0.002l-0.002-0.001l-46.728,46.728l-46.725-46.729H0v246.443
	l0.89,0.89l-0.091,0.092l47.645,47.645L0.798,477.113l0.048,0.049L0,478.01v250.06h246.443l50.341-50.261l50.349,50.261h246.442
	V478.01l-0.747-0.747l0.045-0.046l-47.748-47.748l47.748-47.75l-0.088-0.088l0.79-0.789V134.399z M34.99,366.533V169.389h200.572
	l36.482,36.479l-29.898,29.898c-12.597-5.309-26.426-8.269-40.955-8.269c-58.318,0-105.594,47.275-105.594,105.594
	c0,14.529,2.96,28.358,8.269,40.956l-30.683,30.683L34.99,366.533z M495.646,429.469l-49.109,49.113
	c10.58,12.174,16.999,28.062,16.999,45.458c0,38.305-31.05,69.354-69.354,69.354c-17.395,0-33.282-6.419-45.457-16.999
	l-51.94,51.937l-50.136-50.131c-12.175,10.581-28.062,17-45.458,17c-38.304,0-69.355-31.051-69.355-69.355
	c0-17.396,6.42-33.283,17-45.457l-50.916-50.92l50.916-50.92c-10.58-12.175-17-28.062-17-45.458
	c0-38.303,31.051-69.354,69.355-69.354c17.396,0,33.283,6.419,45.458,17l50.135-50.13l51.941,51.937
	c12.175-10.58,28.062-17,45.457-17c38.305,0,69.354,31.051,69.354,69.354c0,17.396-6.419,33.283-16.999,45.458L495.646,429.469z
	 M232.031,693.08H34.99V492.404l38.193-38.195l30.683,30.683c-5.309,12.597-8.269,26.425-8.269,40.954
	c0,58.318,47.276,105.595,105.594,105.595c14.529,0,28.358-2.961,40.955-8.27l29.898,29.898L232.031,693.08z M558.586,492.412
	V693.08H361.538l-40.015-40.011l31.704-31.704c12.597,5.309,26.427,8.269,40.954,8.269c58.319,0,105.595-47.276,105.595-105.594
	c0-14.529-2.96-28.358-8.269-40.954l28.877-28.877L558.586,492.412z M491.508,375.852c5.309-12.597,8.269-26.427,8.269-40.956
	c0-58.318-47.275-105.594-105.595-105.594c-14.527,0-28.357,2.96-40.954,8.269l-31.704-31.705l36.481-36.479h200.581v197.135
	l-38.202,38.205L491.508,375.852z"/>
</svg>
