<?xml version="1.0" encoding="utf-8"?>
<!-- Generator: Adobe Illustrator 16.0.0, SVG Export Plug-In . SVG Version: 6.00 Build 0)  -->
<!DOCTYPE svg PUBLIC "-//W3C//DTD SVG 1.1//EN" "http://www.w3.org/Graphics/SVG/1.1/DTD/svg11.dtd">
<svg version="1.1" id="Layer_1" xmlns="http://www.w3.org/2000/svg" xmlns:xlink="http://www.w3.org/1999/xlink" x="0px" y="0px"
	 width="595.28px" height="841.89px" viewBox="0 0 595.28 841.89" enable-background="new 0 0 595.28 841.89" xml:space="preserve">
<linearGradient id="SVGID_1_" gradientUnits="userSpaceOnUse" x1="0" y1="385.2236" x2="593.3564" y2="385.2236">
	<stop  offset="0.0056" style="stop-color:#ECC562"/>
	<stop  offset="1" style="stop-color:#C3922E"/>
</linearGradient>
<path fill="url(#SVGID_1_)" d="M532.02,328.795c-22.548-13.301-46.395-20.03-70.886-20.03c-13.857,0-26.191,2.172-36.47,5.05
	c5.289-24.412,4.768-59.716-23.591-95.73c-16.202-20.552-30.492-36.165-41.949-48.705c-15.29-16.696-26.312-28.764-32.414-41.887
	c-11.124-23.825-19.824-48.627-19.88-48.916l-9.4-31.109l-10.168,31.687c-0.089,0.293-9.434,24.441-20.625,48.338
	c-6.111,13.124-17.134,25.191-32.415,41.887c-11.445,12.54-25.747,28.153-41.948,48.705c-28.358,36.014-28.836,71.318-23.558,95.73
	c-10.301-2.878-22.635-5.05-36.503-5.05c-24.491,0-48.327,6.729-70.874,20.03C-11.701,371.849,0.534,468.088,1.111,472.182
	l3.245,23.812l18.913-14.791c0.111-0.064,9.733-7.047,24.346-7.047c6.29,0,12.69,1.281,19.102,3.828
	c13.068,5.182,36.57,27.896,41.459,80.033c0.855,9.318,1.356,18.33,1.867,27.037c2.423,43.639,4.745,84.891,51.594,118.777
	c17.524,12.717,38.126,19.146,61.25,19.146c31.725,0,60.328-12.34,73.807-19.223c13.446,6.883,42.048,19.223,73.786,19.223
	c23.112,0,43.693-6.43,61.217-19.146c46.85-33.887,49.148-75.139,51.615-118.777c0.501-8.707,1.001-17.719,1.878-27.037
	c4.879-52.137,28.326-74.852,41.472-80.033c6.379-2.547,12.79-3.828,19.079-3.828c14.602,0,24.336,7.047,24.336,7.047l18.969,14.791
	l3.212-23.812C592.813,468.088,605.048,371.849,532.02,328.795z M419.008,379.255c45.427-7.91,70.251,20.742,70.251,20.742
	s-26.479-0.579-47.815,17.267c-21.28,17.878-28.791,40.333-28.791,40.333s-5.19-13.83-20.747-29.363
	c-12.091-12.124-27.059-20.738-27.059-20.738S382.727,385.591,419.008,379.255z M267.104,242.81
	c11.356-16.285,23.691-32.442,29.591-40.56c4.734,5.9,16.724,22.202,29.592,40.56c16.112,23.031,43.338,50.51,43.771,82.929
	c0.545,44.299-40.315,64.541-40.315,64.541l-14.979-31.115c0,0,31.058-19.078,20.146-53.048
	c-7.556-23.43-38.214-65.429-38.214-65.429c-4.479,5.989-30.703,41.999-38.237,65.429c-10.934,33.97,20.135,53.048,20.135,53.048
	l-14.979,31.115c0,0-40.882-20.241-40.316-64.541C223.733,293.32,250.958,265.841,267.104,242.81z M318.198,431.689
	c-1.867,15.691-16.824,18.812-21.502,19.4c-4.733-0.588-19.668-3.709-21.558-19.4c-2.745-23.158,19.591-26.765,21.558-27.031
	C298.607,404.924,320.954,408.532,318.198,431.689z M174.383,379.255c36.26,6.336,54.117,28.241,54.117,28.241
	s-14.935,8.614-27.058,20.738c-15.546,15.533-20.758,29.363-20.758,29.363s-7.478-22.455-28.78-40.333
	c-21.313-17.846-47.85-17.267-47.85-17.267S128.913,371.345,174.383,379.255z M172.595,583.512
	c-20.158,14.982-33.704-1.74-33.704-1.74s-2.011-33.689-4.611-55.303c-2.556-21.594-9.256-44.109-25.58-67.684
	c-22.19-31.965-60.795-30.809-60.795-30.809s55.561-9.79,90.698,22.182c14.657,13.295,21.347,27.936,23.635,40.037
	c3.467-7.502,7.256-11.291,12.112-13.836c13.234-6.906,23.625,3.457,23.625,3.457s-21.324,9.213-15.535,48.383
	C186.352,555.09,184.552,574.646,172.595,583.512z M364.28,651.764c-38.204,8.881-67.362-24.41-67.362-24.41
	c-4.289,5.244-29.681,33.291-67.84,24.41c-50.528-11.754-44.937-50.676-44.937-50.676s21.89,8.631,36.836-2.893
	c15.014-11.529,12.724-28.215,9.256-58.172c-3.489-29.953-6.355-48.957,4.034-63.957c15.946-23.057,39.17-15.012,40.882,2.289
	c2.455,24.166-19.591,12.668-25.913,33.396c-6.945,22.727,15.535,38.061,27.069,53.027c8.501,11.068,19.812,27.1,20.391,26.391
	c0.545,0.709,11.857-15.322,20.346-26.391c11.546-14.967,34.037-30.301,27.06-53.027c-6.323-20.729-28.314-9.23-25.903-33.396
	c1.722-17.301,24.913-25.346,40.903-2.289c10.379,15,7.468,34.004,4.045,63.957c-3.488,29.957-5.756,46.643,9.18,58.172
	c14.99,11.523,36.902,2.893,36.902,2.893S414.818,640.01,364.28,651.764z M484.236,458.785
	c-16.335,23.574-23.014,46.09-25.613,67.684c-2.623,21.613-4.611,55.303-4.611,55.303s-13.547,16.723-33.726,1.74
	c-11.945-8.865-13.725-28.422-9.79-55.312c5.778-39.17-15.534-48.383-15.534-48.383s10.367-10.363,23.601-3.457
	c4.89,2.545,8.624,6.334,12.113,13.836c2.289-12.102,9.001-26.742,23.624-40.037c35.125-31.971,90.721-22.182,90.721-22.182
	S506.438,426.82,484.236,458.785z"/>
</svg>
