<?xml version="1.0" encoding="utf-8"?>
<!-- Generator: Adobe Illustrator 16.0.0, SVG Export Plug-In . SVG Version: 6.00 Build 0)  -->
<!DOCTYPE svg PUBLIC "-//W3C//DTD SVG 1.1//EN" "http://www.w3.org/Graphics/SVG/1.1/DTD/svg11.dtd">
<svg version="1.1" id="Layer_1" xmlns="http://www.w3.org/2000/svg" xmlns:xlink="http://www.w3.org/1999/xlink" x="0px" y="0px"
	 width="595.28px" height="841.89px" viewBox="0 0 595.28 841.89" enable-background="new 0 0 595.28 841.89" xml:space="preserve">
<linearGradient id="SVGID_1_" gradientUnits="userSpaceOnUse" x1="0" y1="445.4883" x2="594.0615" y2="445.4883">
	<stop  offset="0.0056" style="stop-color:#ECC562"/>
	<stop  offset="1" style="stop-color:#C3922E"/>
</linearGradient>
<path fill="url(#SVGID_1_)" d="M215.041,192.003H113.896l-31.643,96.745L0,348.692l31.478,96.784L0,542.282l82.253,59.925
	l31.643,96.755h101.145l81.997,60.186l81.973-60.186h101.145l31.647-96.755l82.259-59.925l-31.486-96.807l31.486-96.784
	l-82.259-59.943l-31.647-96.745H379.011l-81.973-60.175L215.041,192.003z M221.54,211.968h48.141l15.719,46.898l-23.872,76.939
	l-65.755-47.357l-15.541-46.376L221.54,211.968z M382.743,493.359l-7.229-21.537l18.477-13.296l48.373,34.833H382.743z
	 M387.424,570.096l-48.667-35.018l6.75-21.764h22.895L387.424,570.096z M410.176,445.476l66.343-47.865h49.872l15.622,47.865
	l-15.622,47.884h-49.872L410.176,445.476z M393.991,432.439l-18.477-13.288l7.229-21.542h59.621L393.991,432.439z M368.401,377.655
	h-22.895l-6.75-21.763l48.667-35.027L368.401,377.655z M361.53,397.592l-9.413,29.055l25.879,18.829l-25.879,18.854l9.413,29.049
	l-30.534,0.045l-9.458,29.041l-24.466-17.718v-0.067l-0.034,0.044l-0.068-0.044v0.067l-24.442,17.718l-9.463-29.041l-30.549-0.045
	l9.443-29.049l-25.888-18.854l25.888-18.829l-9.443-29.055l30.549-0.054l9.463-29.021l24.442,17.717v0.077l0.068-0.052l0.034,0.052
	v-0.077l24.466-17.717l9.458,29.021L361.53,397.592z M315.451,542.873l-18.413,53.923l-18.432-53.923l18.432-13.248L315.451,542.873
	z M211.303,397.61l7.229,21.542l-18.466,13.288l-48.377-34.829H211.303z M206.632,320.865l48.667,35.027l-6.769,21.763h-22.861
	L206.632,320.865z M183.882,445.476l-66.341,47.884H67.66l-15.632-47.884L67.66,397.61h49.881L183.882,445.476z M200.066,458.526
	l18.466,13.296l-7.229,21.537h-59.614L200.066,458.526z M225.669,513.314h22.861l6.769,21.764l-48.667,35.018L225.669,513.314z
	 M297.038,361.355l-18.432-13.263l18.432-53.915l18.413,53.915L297.038,361.355z M128.363,211.968h59.286l-31.231,22.765
	l11.62,33.756l-29.051-21.058l-29.156,21.251L128.363,211.968z M99.226,301.098l39.732-28.949l39.944,28.746l25.724,76.76h-80.658
	L83.67,348.643L99.226,301.098z M23.456,356.307l48.208-35.128L60.151,356.36l29.665,21.294H53.188l-11.45,35.032L23.456,356.307z
	 M71.665,569.782l-48.208-35.114l18.282-56.38l11.45,35.026h36.627l-29.665,21.29L71.665,569.782z M99.226,589.887l-15.556-47.56
	l40.298-29.013h80.658l-25.724,76.751l-39.944,28.766L99.226,589.887z M128.363,679.011l-18.533-56.723l29.156,21.247l29.051-21.049
	l-11.62,33.755l31.231,22.77H128.363z M180.231,648.888l15.541-46.37l65.755-47.363l23.872,76.939l-15.719,46.917H221.54
	L180.231,648.888z M297.038,734.081l-48.097-35.119h33.988l14.109-41.768l14.104,41.768h33.973L297.038,734.081z M372.527,679.011
	h-48.155l-15.715-46.917l23.862-76.939l65.766,47.363l15.55,46.37L372.527,679.011z M465.704,679.011h-59.295l31.234-22.77
	l-11.615-33.755l29.047,21.049l29.156-21.247L465.704,679.011z M494.832,589.887l-39.717,28.944l-39.955-28.766l-25.732-76.751
	h80.656l40.303,29.013L494.832,589.887z M570.624,534.668l-48.222,35.114l11.504-35.178l-29.665-21.29h36.632l11.444-35.026
	L570.624,534.668z M522.402,321.179l48.222,35.128l-18.307,56.379l-11.444-35.032h-36.632l29.665-21.294L522.402,321.179z
	 M494.832,301.098l15.555,47.545l-40.303,29.012h-80.656l25.732-76.76l39.955-28.746L494.832,301.098z M465.704,211.968
	l18.527,56.713l-29.156-21.251l-29.047,21.058l11.615-33.756l-31.234-22.765H465.704z M413.835,242.073l-15.55,46.376
	l-65.766,47.357l-23.862-76.939l15.715-46.898h48.155L413.835,242.073z M345.115,192.003h-33.973l-14.104,41.758l-14.109-41.758
	h-33.988l48.097-35.109L345.115,192.003z"/>
</svg>
