<?xml version="1.0" encoding="utf-8"?>
<!-- Generator: Adobe Illustrator 16.0.0, SVG Export Plug-In . SVG Version: 6.00 Build 0)  -->
<!DOCTYPE svg PUBLIC "-//W3C//DTD SVG 1.1//EN" "http://www.w3.org/Graphics/SVG/1.1/DTD/svg11.dtd">
<svg version="1.1" id="Layer_1" xmlns="http://www.w3.org/2000/svg" xmlns:xlink="http://www.w3.org/1999/xlink" x="0px" y="0px"
	 width="595.28px" height="841.89px" viewBox="0 0 595.28 841.89" enable-background="new 0 0 595.28 841.89" xml:space="preserve">
<linearGradient id="SVGID_1_" gradientUnits="userSpaceOnUse" x1="0" y1="415.3477" x2="594.874" y2="415.3477">
	<stop  offset="0.0056" style="stop-color:#ECC562"/>
	<stop  offset="1" style="stop-color:#C3922E"/>
</linearGradient>
<path fill="url(#SVGID_1_)" d="M594.874,494.961l-0.073-62.561l-17.079-17.054l17.039-17.062l0.113-62.552l-31.411-54.319
	l-23.275-6.232l6.041-22.561l-23.1-62.973l-62.967-23.075l-22.566,6.031l-6.243-23.294l-54.314-31.386l-62.546,0.079l-17.059,17.058
	l-17.052-17.058l-62.552-0.079l-54.314,31.386l-6.257,23.294l-22.542-6.031l-62.978,23.075L48.654,252.62l6.042,22.561
	l-23.305,6.232L0,335.732l0.083,62.552l17.078,17.062L0.083,432.4l-0.074,62.561l31.401,54.306l23.295,6.246l-6.051,22.565
	l23.099,62.979l62.489,22.903l0.479,0.172l22.557-6.026l6.242,23.294l54.31,31.372l62.566-0.065l17.039-17.066l17.067,17.066
	l62.553,0.065l53.718-31.03l0.597-0.342l6.242-23.294l22.562,6.026l62.254-22.815l0.723-0.26l22.894-62.483l0.177-0.496
	l-6.031-22.565l23.304-6.246L594.874,494.961z M579.352,490.793l-13.453,23.281l-14.009-8.111l-23.292,6.243l-6.25-23.271
	l-20.375-11.772l3.516-13.078h23.482l17.071-17.043l17.023,17.023h16.245L579.352,490.793z M471.237,643.556l-11.806,4.331
	l-17.829-4.774l3.561-13.337l17.952,4.811L471.237,643.556z M92.015,589.481l5.963-22.36l23.266,6.248l20.409-11.79l9.563,9.559
	l-11.774,20.413l6.213,23.231l-22.405,6.019l-15.37,16.978l-24.053-8.809l-8.835-24.107L92.015,589.481z M15.527,339.896
	l13.448-23.256l14.02,8.091l23.281-6.247l6.262,23.27l20.365,11.766l-3.507,13.075H65.898l-17.067,17.073l-17.048-17.058H15.561
	L15.527,339.896z M123.637,187.147l11.804-4.334l17.84,4.779l-3.571,13.335l-17.953-4.813L123.637,187.147z M502.866,241.231
	l-5.98,22.341l-23.276-6.232l-20.396,11.774l-9.562-9.554l11.793-20.409l-6.223-23.23l22.404-6.007l15.362-16.99l24.057,8.81
	l8.844,24.122L502.866,241.231z M438.784,593.648l-4.565,17.095l-13.319-3.562l4.878-18.194l6.55-6.535L438.784,593.648z
	 M276.736,652.979l-12.532-12.504v-12.938l8.927,2.388l13.33,13.318L276.736,652.979z M119.058,556.696l-17.053-4.568l3.571-13.334
	l18.193,4.88l6.541,6.537L119.058,556.696z M81.288,516.242l4.594-17.116l11.202-6.464l2.392,8.962l-4.863,18.174L81.288,516.242z
	 M156.094,237.054l4.579-17.087l13.316,3.566l-4.892,18.183l-6.54,6.54L156.094,237.054z M475.815,273.997l17.044,4.574
	l-3.566,13.326l-18.189-4.877l-6.54-6.545L475.815,273.997z M513.584,314.458l-4.583,17.107l-11.206,6.467l-2.397-8.967
	l4.857-18.173L513.584,314.458z M450.686,542.193l-35.613-20.562l-33.195-57.548h66.416l35.613,20.557l-4.54,16.961l5.953,22.208
	l-22.229,5.981L450.686,542.193z M191.168,532.991l57.519-33.23v66.467l-20.536,35.596l-17.048-4.573l-22.199,5.933l-5.938-22.188
	l-12.376-12.361L191.168,532.991z M144.177,288.497l35.613,20.57l33.22,57.528h-66.446l-35.593-20.546l4.54-16.964l-5.943-22.2
	l22.213-5.963L144.177,288.497z M479.323,329.064l4.563,16.995l-35.613,20.536l-66.43,0.015l33.219-57.542l35.591-20.57
	l12.425,12.43l22.198,5.958L479.323,329.064z M239.911,448.567l12.161-21.054l-21.06-12.181l21.049-12.142l-12.156-21.059h24.322
	v-24.317l21.06,12.156l12.146-21.045l12.157,21.045l21.074-12.162v24.323h24.297l-12.146,21.059l21.04,12.142l-21.04,12.166
	l12.146,21.074h-24.312v24.303L309.6,460.72l-12.166,21.053l-12.137-21.053l-21.093,12.176v-24.328H239.911z M379.387,406.396
	l-15.379-8.883l8.868-15.38h48.522L379.387,406.396z M363.92,366.609h-17.739v-17.776l42.007-24.273L363.92,366.609z
	 M248.707,366.595h-17.792l-24.258-42.021l42.05,24.279V366.595z M248.687,464.079v17.782l-42.016,24.263l24.284-42.045H248.687z
	 M346.157,464.084h17.791l24.274,42.027l-42.065-24.273V464.084z M421.429,448.572h-48.518l-8.903-15.384l15.379-8.874
	L421.429,448.572z M330.665,339.9l-15.4,8.889l-8.879-15.395l24.279-42.035V339.9z M279.584,348.789l-15.356-8.889v-48.517
	l24.25,42.011L279.584,348.789z M173.48,382.132h48.497l8.879,15.38l-15.38,8.878L173.48,382.132z M215.476,424.314l15.39,8.888
	l-8.875,15.37h-48.537L215.476,424.314z M264.204,490.788l15.399-8.872l8.875,15.385l-24.273,42.055V490.788z M315.284,481.916
	l15.365,8.872v48.524l-24.248-42.012L315.284,481.916z M394.914,415.333l57.509-33.201h41.126l4.538,16.951l16.271,16.264
	l-16.271,16.271l-4.538,16.955h-41.088L394.914,415.333z M346.181,330.929v-66.456l20.531-35.593l17.058,4.574l22.189-5.934
	l5.95,22.185l12.38,12.367l-20.579,35.627L346.181,330.929z M248.707,330.953l-57.557-33.255l-20.537-35.549l12.401-12.401
	l5.948-22.218l22.224,5.958l16.979-4.569l20.521,35.583L248.707,330.953z M220.138,215.006l-8.953,2.397l-18.178-4.853l3.581-13.35
	l17.072,4.583L220.138,215.006z M164.263,282.176l-8.673-5.004l3.664-3.678L164.263,282.176z M213.01,464.084l-33.201,57.548
	l-35.598,20.557l-12.42-12.431l-22.18-5.948l5.953-22.186L111,484.641l35.603-20.557H213.01z M346.167,499.756l57.563,33.235
	l20.528,35.553l-12.395,12.413L405.9,603.16l-22.204-5.938l-16.984,4.553l-20.531-35.578L346.167,499.756z M374.739,615.693
	l8.942-2.397l18.18,4.863l-3.573,13.35l-17.072-4.589L374.739,615.693z M430.615,548.509l8.678,5.02l-3.679,3.664L430.615,548.509z
	 M522.552,382.132l12.513,12.523l-9.737,9.734L512,391.049l-2.397-8.917H522.552z M479.333,366.595l8.711-5.024l1.337,5.024H479.333
	z M430.585,282.176l5.029-8.697l3.679,3.673L430.585,282.176z M438.784,236.961l-6.457,11.203l-6.507-6.486l-4.878-18.174
	l13.276-3.576L438.784,236.961z M383.77,217.379l-9.01-2.396l6.462-11.198l17.147-4.603l3.57,13.345L383.77,217.379z
	 M297.434,317.877l-33.206-57.528v-41.125l16.94-4.535l16.265-16.265l16.28,16.265l16.951,4.55v41.082L297.434,317.877z
	 M264.228,203.168v-12.934l12.508-12.514l9.746,9.735l-13.356,13.325L264.228,203.168z M248.687,233.468l-5.033-8.732l5.033-1.346
	V233.468z M119.053,273.997l11.203,6.468L123.749,287l-18.178,4.873l-3.566-13.292L119.053,273.997z M199.969,415.333l-57.562,33.24
	H101.33l-4.549-16.955L80.52,415.352l16.261-16.269l4.549-16.951h41.121L199.969,415.333z M72.311,382.132h12.93l-2.378,8.917
	L69.552,404.39l-9.74-9.734L72.311,382.132z M72.311,448.572l-12.499-12.503l9.744-9.735l13.306,13.307l2.402,8.932H72.311z
	 M115.556,464.084l-8.727,5.039l-1.351-5.039H115.556z M164.288,548.509l-5.033,8.711l-3.694-3.687L164.288,548.509z
	 M156.104,593.737l6.452-11.201l6.511,6.491l4.862,18.188l-13.271,3.548L156.104,593.737z M211.103,613.316l9.001,2.41
	l-6.462,11.193l-17.141,4.604l-3.581-13.342L211.103,613.316z M297.434,512.812l33.216,57.537v41.121l-16.945,4.54l-16.271,16.271
	l-16.274-16.271l-16.955-4.54v-41.096L297.434,512.812z M330.649,627.54v12.936l-12.498,12.514l-9.749-9.746l13.339-13.318
	L330.649,627.54z M346.191,597.234l5.019,8.724l-5.019,1.354V597.234z M475.815,556.696l-11.188-6.473l6.481-6.52l18.2-4.883
	l3.551,13.302L475.815,556.696z M522.552,448.572h-12.954l2.402-8.932l13.327-13.311l9.737,9.739L522.552,448.572z M546.032,425.092
	l-9.754-9.745l9.754-9.749l9.73,9.749L546.032,425.092z M351.205,224.732l-5.024,8.712v-10.058L351.205,224.732z M330.665,190.234
	v12.943l-8.942-2.396l-13.307-13.325l9.721-9.735L330.665,190.234z M99.442,329.085l-2.382,8.932l-11.208-6.482l-4.579-17.078
	l13.301-3.566L99.442,329.085z M106.804,361.557l8.717,5.038h-10.067L106.804,361.557z M58.57,415.347l-9.74,9.745l-9.725-9.74
	l9.735-9.734L58.57,415.347z M243.663,605.974l5.024-8.719v10.068L243.663,605.974z M495.417,501.613l2.408-8.927l11.211,6.472
	l4.573,17.084l-13.307,3.556L495.417,501.613z M488.06,469.123l-8.727-5.039h10.086L488.06,469.123z M557.02,394.635l12.485-12.503
	h9.793l-0.02,9.714l-12.533,12.538L557.02,394.635z M25.359,382.132l12.503,12.503l-9.745,9.725L15.6,391.846l-0.02-9.714H25.359z
	 M37.863,436.059l-12.479,12.49h-9.803l0.02-9.711l12.523-12.508L37.863,436.059z M569.494,448.549l-12.503-12.49l9.754-9.729
	l12.518,12.517l0.016,9.702H569.494z M579.298,366.609h-16.212l-17.044,17.058l-17.071-17.073h-23.525l-3.478-13.046l20.359-11.779
	l6.241-23.285l23.296,6.247l14.024-8.101l13.442,23.266L579.298,366.609z M549.681,308.079l-17.102-4.593l3.586-13.311l17.102,4.569
	l4.868,8.453L549.681,308.079z M504.281,295.898l3.576-13.311l13.31,3.561l-3.581,13.335L504.281,295.898z M525.188,271.165
	l-13.329-3.581l4.817-17.919l8.957-8.096l4.324,11.78L525.188,271.165z M463.179,196.114l-17.976,4.823l-3.586-13.359l17.797-4.765
	l11.866,4.354L463.179,196.114z M416.923,208.5l-3.575-13.335l13.286-3.552l3.556,13.345L416.923,208.5z M409.285,180.201
	l-4.588-17.107l4.883-8.453l8.454,4.896l4.583,17.103L409.285,180.201z M370.974,190.459l-11.74,20.354l-13.053-3.497v-23.511
	l-17.058-17.053l17.058-17.077v-16.203l26.73-0.039l23.246,13.453l-8.096,14.025l6.245,23.3L370.974,190.459z M297.434,176.488
	l-9.739-9.735l9.739-9.745l9.75,9.73L297.434,176.488z M276.722,155.762l-12.494-12.484v-9.778l9.7,0.019l12.528,12.509
	L276.722,155.762z M248.707,133.474v16.203l17.042,17.062l-17.062,17.067v23.52l-13.066,3.498l-11.75-20.365l-23.28-6.247
	l5.851-21.832l0.558-2.143l-0.558,0.02l-7.719-13.37l23.27-13.453L248.707,133.474z M190.17,163.094l-4.579,17.102l-13.334-3.556
	l4.579-17.103l8.468-4.881L190.17,163.094z M178.014,208.525l-13.326-3.557l3.576-13.364l13.316,3.581L178.014,208.525z
	 M139.442,239.241l11.755,20.37l-9.524,9.52l-20.438-11.789l-23.256,6.232l-5.978-22.341l-17.009-15.375l8.83-24.122l24.112-8.83
	l15.379,16.999l22.375,6.012L139.442,239.241z M62.263,303.5l-17.067,4.579l-8.448-4.877l4.857-8.453l17.102-4.568L62.263,303.5z
	 M15.581,464.079l16.236-0.015l17.024-17.023l17.058,17.043h23.52l3.493,13.072l-20.35,11.758l-6.262,23.292L43,505.963
	l-14.02,8.111l-13.433-23.281L15.581,464.079z M45.205,522.621l17.088,4.578l-3.581,13.319l-17.092-4.563l-4.868-8.464
	L45.205,522.621z M90.607,534.787l-3.586,13.329l-13.316-3.561l3.571-13.35L90.607,534.787z M69.699,559.539l13.32,3.581
	l-4.828,17.92l-8.947,8.099l-4.334-11.788L69.699,559.539z M131.698,634.586l17.987-4.825l3.571,13.356l-17.801,4.77l-11.853-4.344
	L131.698,634.586z M177.956,622.198l3.576,13.332l-13.286,3.556l-3.561-13.345L177.956,622.198z M185.602,650.493l4.579,17.106
	l-4.877,8.454l-8.453-4.888l-4.569-17.106L185.602,650.493z M223.875,640.239l11.765-20.363l13.046,3.501v23.516l17.062,17.068
	l-17.062,17.049v16.215l-26.709,0.025l-23.25-13.428l8.081-14.036l-6.247-23.294L223.875,640.239z M264.228,697.2v-9.754
	l12.508-12.523l9.725,9.741l-12.523,12.528L264.228,697.2z M297.434,654.221l9.75,9.74l-9.75,9.738l-9.744-9.738L297.434,654.221z
	 M318.151,674.923l12.498,12.523v9.759l-9.7-0.013l-12.528-12.523L318.151,674.923z M346.167,697.225V681.01l-17.044-17.049
	l17.068-17.068v-23.516l13.056-3.506l11.76,20.368l23.285,6.248l-5.865,21.851l-0.587,2.251l0.647-0.05l7.673,13.278l-23.249,13.433
	L346.167,697.225z M404.707,667.6l4.578-17.091l13.332,3.551l-4.57,17.106l-8.462,4.888L404.707,667.6z M416.863,622.16
	l13.326,3.571l-3.565,13.354l-13.337-3.561L416.863,622.16z M455.43,591.473l-11.76-20.39l9.531-9.51l20.44,11.796l23.244-6.248
	l5.996,22.36l17.008,15.376l-8.834,24.112l-24.103,8.824l-15.389-16.993l-22.39-6.004L455.43,591.473z M532.6,527.185l17.081-4.563
	l8.464,4.916l-4.862,8.394l-17.111,4.588L532.6,527.185z M90.583,295.878l-13.331,3.591l-3.566-13.301l13.335-3.576L90.583,295.878z
	 M529.973,577.351l-4.339,11.803l-8.962-8.113l-4.803-17.92l13.324-3.581L529.973,577.351z M504.281,534.802l13.345-3.562
	l3.556,13.286l-13.324,3.568L504.281,534.802z M320.929,133.518l9.721-0.019v9.778l-12.498,12.499l-9.735-9.74L320.929,133.518z
	 M69.225,241.554l8.981,8.111l4.799,17.919l-13.345,3.581l-4.755-17.816L69.225,241.554z"/>
</svg>
