<?xml version="1.0" encoding="utf-8"?>
<!-- Generator: Adobe Illustrator 16.0.0, SVG Export Plug-In . SVG Version: 6.00 Build 0)  -->
<!DOCTYPE svg PUBLIC "-//W3C//DTD SVG 1.1//EN" "http://www.w3.org/Graphics/SVG/1.1/DTD/svg11.dtd">
<svg version="1.1" id="Layer_1" xmlns="http://www.w3.org/2000/svg" xmlns:xlink="http://www.w3.org/1999/xlink" x="0px" y="0px"
	 width="595.28px" height="841.89px" viewBox="0 0 595.28 841.89" enable-background="new 0 0 595.28 841.89" xml:space="preserve">
<linearGradient id="SVGID_1_" gradientUnits="userSpaceOnUse" x1="0" y1="420.8037" x2="592.8135" y2="420.8037">
	<stop  offset="0.0056" style="stop-color:#ECC562"/>
	<stop  offset="1" style="stop-color:#C3922E"/>
</linearGradient>
<path fill="url(#SVGID_1_)" d="M477.069,642.37l69.865,28.956l-28.965-69.89l74.844-180.646l-74.844-180.65l28.965-69.851
	l-69.865,28.95l-180.64-74.843l-180.641,74.819l-69.89-28.926l28.931,69.855L0,420.791l74.829,180.646l-28.931,69.89l69.821-28.956
	l180.72,74.841L477.069,642.37z M477.069,622.524l-35.991,14.917l14.877-36.005l-14.877-35.956l35.991,14.9l35.97-14.915
	l-14.886,35.971l14.886,36.011L477.069,622.524z M522.966,541.519l-45.896,19.028l-45.918-19.019l-32.448-78.362l78.366-32.453
	l78.366,32.453L522.966,541.519z M296.429,485.712l-32.458,13.436l-13.449-32.46l-32.479-13.448l13.479-32.448l-13.479-32.449
	l32.487-13.444l13.44-32.449l32.469,13.451l32.429-13.451l13.468,32.469l32.419,13.434l-13.43,32.439l13.43,32.463l-32.448,13.434
	l-13.438,32.47L296.429,485.712z M321.843,516.089l-25.414,61.414l-25.443-61.418l25.443-10.537L321.843,516.089z M185.604,310
	l40.842,16.924l5.479,2.253l0,0l15.103,6.262l-10.547,25.424l-25.434,10.547l-6.238-15.087l0,0L185.604,310z M211.658,420.791
	l-10.529,25.453l-61.413-25.453l61.413-25.424L211.658,420.791z M204.809,485.274l6.229-15.093l25.443,10.533l10.547,25.447
	l-15.092,6.256V512.4l-46.332,19.186L204.809,485.274L204.809,485.274z M270.986,325.516l25.443-61.414l25.414,61.419
	l-25.403,10.527L270.986,325.516z M388.037,356.337l-6.267,15.072l-25.424-10.523L345.8,335.439L407.204,310l-19.185,46.326
	L388.037,356.337z M391.708,395.367l61.414,25.424l-61.414,25.453l-10.558-25.453L391.708,395.367z M356.347,480.715l25.424-10.533
	l6.267,15.083l-0.018,0.01l19.205,46.325l-46.321-19.182l0,0l-15.104-6.256L356.347,480.715z M572.968,420.791l-10.518,25.453
	l-61.453-25.453l61.453-25.424L572.968,420.791z M522.966,300.063l32.47,78.362l-78.366,32.449l-78.366-32.449l32.448-78.376
	l45.918-19.004L522.966,300.063z M441.078,204.169l35.991,14.901l35.97-14.907l0,0l0,0l-14.886,35.977l14.886,35.98l-35.97-14.917
	l-35.991,14.917l14.877-35.976L441.078,204.169L441.078,204.169L441.078,204.169z M338.785,161.793l78.346,32.458l19.028,45.894
	l-19.028,45.898l-63.273,26.211l0,0l-15.072,6.252l-32.459-78.366L338.785,161.793z M296.429,144.236l25.414,10.537l-25.414,61.429
	l-25.443-61.429L296.429,144.236z M175.677,194.243l78.357-32.45l32.458,78.352l-32.439,78.362l-23.23-9.618l-55.146-22.841
	l-19.028-45.908L175.677,194.243z M115.789,219.061l35.921-14.911v0.014l-13.45,32.469l-0.679,1.687v3.655l14.129,34.146
	l-35.991-14.917l-35.921,14.917l14.875-35.976l-14.905-35.976h0.03l-0.03-0.03L115.789,219.061z M69.86,300.049l45.859-19.004
	l45.938,19.019l32.449,78.362l-78.317,32.449l-78.391-32.449L69.86,300.049z M19.845,420.791l10.537-25.424l61.429,25.424
	l-61.429,25.453L19.845,420.791z M69.831,541.508l-32.434-78.342l78.391-32.453l78.317,32.453l-32.429,78.342l-45.888,19.019
	L69.831,541.508z M115.719,622.524l-35.951,14.917l14.905-36.005l-14.905-35.978l36.02,14.907l35.921-14.907v0.007l0,0
	l-14.876,35.971l14.876,36.005L115.719,622.524z M254.054,679.833l-15.113-6.263l0,0l-63.263-26.207l-19.028-45.927l19.028-45.883
	l78.357-32.459l32.458,78.372L254.054,679.833z M296.439,697.385l-25.454-10.547l25.443-61.434l25.414,61.434L296.439,697.385z
	 M306.326,601.457l32.459-78.362l78.346,32.473l19.028,45.869l-19.028,45.927l-63.273,26.207v0.004l-15.072,6.259L306.326,601.457z"
	/>
</svg>
