<?xml version="1.0" encoding="utf-8"?>
<!-- Generator: Adobe Illustrator 16.0.0, SVG Export Plug-In . SVG Version: 6.00 Build 0)  -->
<!DOCTYPE svg PUBLIC "-//W3C//DTD SVG 1.1//EN" "http://www.w3.org/Graphics/SVG/1.1/DTD/svg11.dtd">
<svg version="1.1" id="Layer_1" xmlns="http://www.w3.org/2000/svg" xmlns:xlink="http://www.w3.org/1999/xlink" x="0px" y="0px"
	 width="595.28px" height="841.89px" viewBox="0 0 595.28 841.89" enable-background="new 0 0 595.28 841.89" xml:space="preserve">
<linearGradient id="SVGID_1_" gradientUnits="userSpaceOnUse" x1="1.4829" y1="428.2852" x2="593.0742" y2="428.2852">
	<stop  offset="0.0056" style="stop-color:#ECC562"/>
	<stop  offset="1" style="stop-color:#C3922E"/>
</linearGradient>
<path fill="url(#SVGID_1_)" d="M246.045,236.682h-46.759l16.071-27.857l-66.103-36.637L148.2,247.61l32.135,0.011l-23.313,40.404
	l-51.359,29.637l0.019,59.275l-23.336,40.424l-16.079-27.854L1.483,428.432l64.785,38.619l16.083-27.836l23.316,40.395
	l-0.003,59.311l15.006,8.65l36.326,20.959l23.34,40.428h-32.143l1.319,75.564l65.845-36.793l-16.071-27.838l46.645-0.01
	l51.344,29.645l51.344-29.635l46.651-0.01l-16.066,27.861l66.095,36.629l1.064-75.422h-32.148l23.305-40.402l51.362-29.637
	l-0.012-59.285l23.336-40.41l16.087,27.854l64.781-38.924l-64.789-38.629l-16.079,27.846l-23.343-40.445l0.019-59.249
	l-51.286-29.532l-23.381-40.51l32.157-0.003l-1.323-75.574l-65.834,36.796l16.056,27.837l-46.667,0.015l-51.329-29.668
	L246.045,236.682z M62.353,451.988l-39.585-23.594l39.597-23.791l13.676,23.669v0.004v0.016L62.353,451.988z M532.203,404.583
	l39.585,23.585l-39.593,23.805l-13.684-23.695L532.203,404.583z M248.981,247.625h13.069h14.916l14.628,52.98l-14.483,52.462
	l-38.779-38.194l-13.797-53.103L248.981,247.625z M349.188,471.232l-3.964-15.262l15.194-4.203l29.649,30.09L349.188,471.232z
	 M350.857,521.078l-30.1-29.646l4.203-15.197l15.263,3.955L350.857,521.078z M352.64,428.285l11.068-11.244l40.719,11.236
	l-40.719,11.244L352.64,428.285z M372.488,408.137l38.193-38.79l53.114-13.793l14.119,24.418l-0.003,28.017l-52.943,14.623
	L372.488,408.137z M360.423,404.812l-15.199-4.213l3.968-15.279l40.876-10.614L360.423,404.812z M340.224,376.369l-15.263,3.969
	l-4.207-15.204l30.097-29.634L340.224,376.369z M337.075,388.481l-5.142,19.799l19.709,5.438l-14.359,14.567l14.359,14.574
	l-19.709,5.43l5.142,19.793l-19.8-5.135l-5.442,19.709l-14.562-14.352l-14.567,14.352l-5.446-19.709l-19.788,5.135l5.142-19.793
	l-19.709-5.43l14.347-14.582l-14.347-14.559l19.705-5.438l-5.143-19.796l19.79,5.139l5.449-19.724l14.567,14.358l14.562-14.358
	l5.442,19.716L337.075,388.481z M308.525,494.719l-11.25,40.717l-11.248-40.717l11.244-11.072L308.525,494.719z M116.611,476.67
	v-28.084l52.981-14.625l52.454,14.48l-38.179,38.781l-53.197,13.826l-8.272-14.334h0.007L116.611,476.67z M123.197,368.461
	l7.465-12.927l53.201,13.821l38.183,38.782l-52.454,14.48L116.619,408l-0.007-28.102l6.594-11.437H123.197z M245.352,385.324
	l3.971,15.275l-15.208,4.213l-29.629-30.096L245.352,385.324z M243.695,335.5l30.089,29.634l-4.188,15.204l-15.271-3.964
	L243.695,335.5z M241.902,428.285l-11.069,11.236l-40.71-11.236l40.71-11.232L241.902,428.285z M234.115,451.768l15.208,4.203
	l-3.968,15.262l-40.861,10.625L234.115,451.768z M254.329,480.197l15.267-3.963l4.192,15.197l-30.082,29.646L254.329,480.197z
	 M297.271,372.924l-11.244-11.076l11.244-40.719l11.254,40.703L297.271,372.924z M159.289,236.682l0.644-46.069l40.392,22.377
	l-13.668,23.692H159.289z M192.969,247.625h33.075h1.118l-15.287,8.845l11.281,43.454l-32.063-31.577l-15.131,8.739L192.969,247.625
	z M159.247,306.04v0.011l5.778-10.031l24.336-14.047l39.157,38.572l13.695,52.675l-52.677-13.685l-38.577-39.149L159.247,306.04z
	 M146.104,306.958l-8.765,15.162l31.566,32.055l-43.552-11.316l-8.742,15.155v-34.037L146.104,306.958z M105.667,440.268v17.469
	l-16.988-29.451l17.003-29.463l0.008,17.503l43.367,11.968L105.667,440.268z M116.611,532.586v-34.047l8.758,15.176l43.548-11.311
	l-31.577,32.062l8.734,15.135L116.611,532.586z M158.439,549.129h-0.015l-7.465-12.924l38.577-39.166l52.681-13.689l-13.691,52.678
	l-39.157,38.561l-24.344-14.035L158.439,549.129z M200.347,643.592l-40.226,22.479l-0.807-46.18h27.349L200.347,643.592z
	 M192.977,608.957h-0.003l-17.011-29.48l15.158,8.75l32.055-31.582l-11.319,43.564l15.131,8.74L192.977,608.957z M248.853,608.949
	l-24.34-14.047l13.835-53.211l38.782-38.189l14.479,52.461l-14.624,52.986h-16.552l0,0H248.853z M297.275,636.895l-29.479-17.014
	h17.516l11.963-43.371l11.978,43.381h17.492L297.275,636.895z M345.704,608.945h-13.195v0.012H317.57l-14.622-52.994l14.476-52.461
	l38.785,38.189l13.815,53.199L345.704,608.945z M435.279,619.881l-0.651,46.074l-40.399-22.396l13.668-23.678H435.279z
	 M401.584,608.949h-34.019l15.147-8.764l-11.324-43.541l32.071,31.582l15.134-8.744L401.584,608.949z M435.318,550.512h-0.009
	l-5.778,10.041l-24.34,14.035l-39.161-38.561l-13.699-52.678l52.693,13.689l38.566,39.148L435.318,550.512z M477.931,532.586
	l-29.467,17.031l8.754-15.176l-31.567-32.037l43.52,11.305l8.761-15.182V532.586z M477.931,476.67l-14.066,24.361l-53.183-13.809
	l-38.197-38.781l52.484-14.486l52.962,14.615V476.67z M488.844,416.325l0.012-17.462l17.03,29.422l-17.016,29.451v-17.484
	l-43.362-11.975L488.844,416.325z M477.931,323.987v34.178l-8.841-15.282l-43.447,11.281l31.556-32.043l-8.731-15.106
	L477.931,323.987z M443.563,320.386l-38.539,39.142l-52.693,13.684l13.688-52.671l39.092-38.508l24.45,14.094L443.563,320.386z
	 M394.217,212.974l40.223-22.483l0.813,46.19h-27.356L394.217,212.974z M401.58,247.625l17.083,29.607l-15.299-8.814l-31.986,31.502
	l11.312-43.526l-15.112-8.742L401.58,247.625z M370.021,261.692l-13.82,53.174l-38.782,38.202l-14.479-52.462l14.598-52.896
	l28.225-0.023L370.021,261.692z M326.87,236.765l-17.647,0.023l-11.952,43.283l-11.987-43.389h-17.412l29.399-17.015L326.87,236.765
	z"/>
</svg>
