<?xml version="1.0" encoding="utf-8"?>
<!-- Generator: Adobe Illustrator 16.0.0, SVG Export Plug-In . SVG Version: 6.00 Build 0)  -->
<!DOCTYPE svg PUBLIC "-//W3C//DTD SVG 1.1//EN" "http://www.w3.org/Graphics/SVG/1.1/DTD/svg11.dtd">
<svg version="1.1" id="Layer_1" xmlns="http://www.w3.org/2000/svg" xmlns:xlink="http://www.w3.org/1999/xlink" x="0px" y="0px"
	 width="595.28px" height="841.89px" viewBox="0 0 595.28 841.89" enable-background="new 0 0 595.28 841.89" xml:space="preserve">
<linearGradient id="SVGID_1_" gradientUnits="userSpaceOnUse" x1="0" y1="400.1216" x2="593.4629" y2="400.1216">
	<stop  offset="0.0056" style="stop-color:#ECC562"/>
	<stop  offset="1" style="stop-color:#C3922E"/>
</linearGradient>
<path fill="url(#SVGID_1_)" d="M94.799,174.091l-34.667,60.038l25.485,44.11H34.671L0,338.277l27.106,46.928l25.829,14.926
	l-25.829,14.912L0,461.971l34.671,60.033h50.928l-25.466,44.119l34.639,60.023l54.211-0.004l25.862-14.917v29.852l27.073,46.924
	h69.319l25.48-44.105l25.466,44.105h69.349l27.101-46.924v-29.852l25.844,14.917l54.178,0.004l34.682-60.023l-25.457-44.119h50.912
	l34.672-60.02l-27.097-46.938l-25.837-14.917l25.837-14.926l27.097-46.928l-34.646-60.014l-50.981-0.005l25.486-44.163
	l-34.663-60.019h-54.182l-25.839,14.931V159.17l-27.105-46.928h-69.345l-25.489,44.153l-25.495-44.153h-69.282l-27.096,46.928
	v29.838l-25.838-14.931L94.799,174.091z M38.752,373.54l-20.366-35.263l25.481-44.11h50.932l35.42,61.33l-61.354,35.429
	L38.752,373.54z M151.981,361.34l22.845-13.19v19.321l-9.658,16.713L151.981,361.34z M155.977,400.111l-17.805,30.825L84.808,400.13
	l53.374-30.824L155.977,400.111z M144.011,347.54l-30.81-53.373h61.625v35.601L144.011,347.54z M43.868,506.076l-25.481-44.092
	l20.366-35.271l30.114-17.391l61.354,35.406l-35.42,61.349H43.868z M174.845,592.824l-30.128,17.4h-40.735l-25.457-44.102
	l25.461-44.119h70.859V592.824z M174.845,506.076h-61.654l30.819-53.378l30.834,17.801V506.076z M174.845,452.093l-22.873-13.19
	l13.196-22.854l9.677,16.743V452.093z M262.051,672.063h-50.938l-20.346-35.257v-34.777l61.329-35.41l35.406,61.354L262.051,672.063
	z M226.349,522.004l17.782,30.819l-53.363,30.805v-61.624H226.349z M190.768,506.076v-26.387l16.723,9.653l9.658,16.733H190.768z
	 M244.736,522.004h19.312l16.733,9.657l-22.854,13.187L244.736,522.004z M265.889,558.648l30.829-17.781l30.805,17.796
	l-30.805,53.364L265.889,558.648z M312.649,531.661l16.715-9.657h19.325l-13.2,22.844L312.649,531.661z M402.697,636.807
	l-20.362,35.257h-50.95l-25.467-44.095l35.411-61.35l61.368,35.41V636.807z M402.697,583.639l-53.407-30.815l17.81-30.819h35.602
	L402.697,583.639z M402.701,506.076H376.31l9.669-16.723l16.723-9.664V506.076z M514.943,566.123l-25.484,44.102h-40.703
	l-30.123-17.4l0.005-70.82h70.836L514.943,566.123z M441.491,438.911l-22.854,13.182v-19.307l9.658-16.738L441.491,438.911z
	 M437.506,400.111l17.771-30.805l53.388,30.824l-53.373,30.806L437.506,400.111z M449.452,452.698l30.83,53.378h-61.645v-35.577
	L449.452,452.698z M554.716,426.713l20.356,35.258l-25.47,44.105h-50.925l-35.425-61.349l61.345-35.406L554.716,426.713z
	 M549.61,294.2l25.462,44.077l-20.371,35.263l-30.104,17.386l-61.345-35.429l35.372-61.296H549.61z M418.638,207.409l30.118-17.391
	h40.711l25.464,44.078l-25.497,44.163l-70.796-0.014V207.409z M418.638,294.19l61.597,0.005l-30.782,53.344l-30.814-17.772V294.19z
	 M418.638,348.164l22.831,13.176l-13.173,22.844l-9.658-16.713V348.164z M367.1,278.244l-17.824-30.815l53.426-30.834l0.015,61.649
	H367.1z M402.716,294.19v26.362l-16.737-9.644l-9.669-16.742L402.716,294.19z M331.408,128.179h50.927l20.366,35.258v34.771
	l-61.391,35.424l-35.396-61.31L331.408,128.179z M348.689,278.244l-19.325-0.005l-16.715-9.658l22.821-13.181L348.689,278.244z
	 M327.519,241.594l-30.801,17.781l-30.829-17.781l30.81-53.33L327.519,241.594z M280.781,268.581l-16.733,9.658h-19.312
	l13.191-22.844L280.781,268.581z M190.758,163.437l20.355-35.258h50.885l25.5,44.144l-35.392,61.301l-61.348-35.415V163.437z
	 M190.758,216.595l53.373,30.834l-17.791,30.81h-35.582V216.595z M190.758,294.167h26.391l-9.672,16.723l-16.718,9.653V294.167z
	 M190.758,371.723v-32.77l28.388-16.398l16.385-28.389h32.788l28.398-16.385l26.525,15.322l1.844,1.063h32.809l15.336,26.553
	l1.071,1.849l28.413,16.385v32.77l16.374,28.388l-16.389,28.408v32.77l-28.398,16.398l-16.407,28.389h-32.809l-28.369,16.385
	l-28.389-16.385h-32.784l-16.394-28.402l-28.384-16.385v-32.77l-16.39-28.408L190.758,371.723z M144.717,190.018l30.109,17.391
	v70.83H104l-25.461-44.11L104,190.018H144.717z"/>
</svg>
