<?xml version="1.0" encoding="utf-8"?>
<!-- Generator: Adobe Illustrator 16.0.0, SVG Export Plug-In . SVG Version: 6.00 Build 0)  -->
<!DOCTYPE svg PUBLIC "-//W3C//DTD SVG 1.1//EN" "http://www.w3.org/Graphics/SVG/1.1/DTD/svg11.dtd">
<svg version="1.1" id="Layer_1" xmlns="http://www.w3.org/2000/svg" xmlns:xlink="http://www.w3.org/1999/xlink" x="0px" y="0px"
	 width="595.28px" height="841.89px" viewBox="0 0 595.28 841.89" enable-background="new 0 0 595.28 841.89" xml:space="preserve">
<linearGradient id="SVGID_1_" gradientUnits="userSpaceOnUse" x1="0.4126" y1="420.561" x2="596.0879" y2="420.561">
	<stop  offset="0.0056" style="stop-color:#ECC562"/>
	<stop  offset="1" style="stop-color:#C3922E"/>
</linearGradient>
<path fill="url(#SVGID_1_)" d="M596.088,453.514l-8.568-8.565v-17.363h-17.363l-7.025-7.023l7.025-7.024h17.363v-17.37l8.568-8.562
	v-19.18l-12.032-12.033h-1.359h-0.029H524.43h-1.362h-0.024l-12.042,12.035l-12.038-12.035h-1.383h-58.24h-1.389l-12.036,12.035
	l-12.037-12.035h-0.027h-1.354h-0.002h-58.242h-0.029h-1.354h-0.003l-12.051,12.049l-12.056-12.049h-1.354h-58.271h-1.359
	l-12.046,12.048l-12.048-12.048h-0.003h-1.356h-0.029h-58.241l0,0h-1.358h-0.026l-12.036,12.035l-12.045-12.035h-1.383H98.962
	h-1.387l-12.037,12.035l-12.035-12.035h-0.025h-1.36H13.877h-0.026h-1.358L0.439,368.441l-0.026-0.022v19.199l0.026-0.022
	l8.58,8.571v17.37h17.361l7.025,7.024l-7.025,7.023H9.019v17.363l-8.58,8.585l-0.026-0.025V472.7l0.026-0.018l12.054,12.047h1.358
	h0.026h58.241h1.36h0.025l12.035-12.037l12.037,12.037h1.387h58.242h1.383l12.045-12.039l12.036,12.039h0.026h1.358l0,0h58.241
	h0.029h1.356h0.003l12.048-12.046l12.046,12.046h1.359h58.271h1.354l12.056-12.047l12.051,12.047h0.003h1.354h0.029h58.242h0.002
	h1.354h0.027l12.037-12.037l12.036,12.037h1.389h58.24h1.383l12.038-12.039l12.042,12.039h0.024h1.362h58.237h0.029h1.359
	l12.032-12.029V453.514z M528.679,369.929h49.767l8.086,8.085l-12.544,12.549V400h-9.441l-10.986,10.983L542.572,400h-9.439v-9.438
	l-12.542-12.546L528.679,369.929z M443.562,369.929h49.79l8.079,8.073l-12.56,12.561V400h-9.412h-0.027l-10.971,10.975L457.489,400
	h-0.03h-9.409v-9.438L435.487,378L443.562,369.929z M358.479,369.929h49.761l8.091,8.085l-12.55,12.549V400h-9.433l-10.988,10.983
	L372.371,400h-9.44v-9.438l-12.543-12.538L358.479,369.929z M273.389,369.929h49.768l8.086,8.088l-12.544,12.546V400h-9.438h-0.003
	l-10.985,10.983L287.282,400l0,0h-9.431v-9.438l-12.55-12.549L273.389,369.929z M188.299,369.929h49.771l8.086,8.088l-12.548,12.546
	V400h-9.434l-10.99,10.983L202.197,400h-9.438v-9.438l-12.544-12.546L188.299,369.929z M103.184,369.929h49.797l8.072,8.073
	l-12.555,12.561V400h-9.41h-0.026l-10.974,10.975L117.111,400h-0.021h-9.413v-9.438L95.114,378L103.184,369.929z M31.994,400h-9.435
	v-9.438l-12.546-12.546l8.089-8.088h49.765l8.088,8.085l-12.55,12.549V400h-9.438l-10.99,10.983L31.994,400z M67.867,471.191H18.102
	l-8.089-8.091l12.546-12.54v-9.438h9.435l10.983-10.989l10.99,10.989h9.438v9.438l12.55,12.546L67.867,471.191z M94.111,427.585
	v17.363l-8.583,8.585l-8.587-8.585v-17.363H59.576l-7.021-7.023l7.021-7.024h17.366v-17.37l8.587-8.583l8.583,8.583v17.37h0.024
	h17.344l7.02,7.024l-7.02,7.023H94.136H94.111z M152.98,471.191h-49.797l-8.069-8.072l12.562-12.559v-9.438h9.413h0.021
	l10.977-10.974l10.974,10.974h0.026h9.41v9.438l12.555,12.559L152.98,471.191z M179.223,444.948l-8.581,8.585l-8.58-8.585v-17.363
	h-0.028h-17.342l-7.02-7.023l7.02-7.024h17.342h0.028v-17.37l8.58-8.571l8.581,8.571v17.37h17.362l7.024,7.024l-7.024,7.023h-17.362
	V444.948z M238.069,471.191h-49.771l-8.084-8.091l12.544-12.54v-9.438h9.438l10.987-10.989l10.99,10.989h9.434v9.438l12.548,12.546
	L238.069,471.191z M264.311,427.585v17.363l-8.585,8.585l-8.581-8.585v-17.363h-17.363l-7.027-7.023l7.027-7.024h17.363v-17.37
	l8.581-8.583l8.585,8.583v17.37h0.001h17.362l7.024,7.024l-7.024,7.023h-17.362H264.311z M323.156,471.191h-49.768l-8.087-8.085
	l12.55-12.546v-9.438h9.431l0,0l10.99-10.989l10.985,10.989h0.003h9.438v9.438l12.544,12.54L323.156,471.191z M349.395,444.948
	l-8.579,8.585l-8.576-8.585v-17.363h-0.003h-17.367l-7.021-7.023l7.021-7.024h17.367h0.003v-17.37l8.576-8.571l8.579,8.571v17.37
	h17.367l7.021,7.024l-7.021,7.023h-17.367V444.948z M408.24,471.191h-49.761l-8.092-8.091l12.543-12.54v-9.438h9.44l10.989-10.989
	l10.988,10.989h9.433v9.438l12.55,12.546L408.24,471.191z M434.487,427.585v17.363l-8.585,8.585l-8.584-8.585v-17.363h-17.365
	l-7.023-7.023l7.023-7.024h17.365v-17.37l8.584-8.583l8.585,8.583v17.37h0.024h17.339l7.025,7.024l-7.025,7.023h-17.339H434.487z
	 M493.353,471.191h-49.79l-8.075-8.072l12.562-12.559v-9.438h9.409h0.03l10.973-10.974l10.971,10.974h0.027h9.412v9.438
	l12.56,12.559L493.353,471.191z M519.596,444.948l-8.582,8.585l-8.578-8.585v-17.363h-0.025h-17.339l-7.021-7.023l7.021-7.024
	h17.339h0.025v-17.37l8.578-8.571l8.582,8.571v17.37h17.365l7.023,7.024l-7.023,7.023h-17.365V444.948z M578.445,471.191h-49.767
	l-8.088-8.091l12.542-12.54v-9.438h9.439l10.987-10.989l10.986,10.989h9.441v9.438l12.544,12.546L578.445,471.191z"/>
</svg>
