<?xml version="1.0" encoding="utf-8"?>
<!-- Generator: Adobe Illustrator 16.0.0, SVG Export Plug-In . SVG Version: 6.00 Build 0)  -->
<!DOCTYPE svg PUBLIC "-//W3C//DTD SVG 1.1//EN" "http://www.w3.org/Graphics/SVG/1.1/DTD/svg11.dtd">
<svg version="1.1" id="Layer_1" xmlns="http://www.w3.org/2000/svg" xmlns:xlink="http://www.w3.org/1999/xlink" x="0px" y="0px"
	 width="595.28px" height="841.89px" viewBox="0 0 595.28 841.89" enable-background="new 0 0 595.28 841.89" xml:space="preserve">
<g>
	<linearGradient id="SVGID_1_" gradientUnits="userSpaceOnUse" x1="283.4648" y1="454.9414" x2="1805.6261" y2="-1368.6389">
		<stop  offset="0.0056" style="stop-color:#ECC562"/>
		<stop  offset="1" style="stop-color:#C3922E"/>
	</linearGradient>
	<path fill="url(#SVGID_1_)" d="M553.363,452.668c-28.912,1.16-52.519,10.379-52.519,10.379l26.823-22.913l-0.476-0.435
		l-0.483-0.422l-25.864-22.913c0,0,23.606,9.219,52.519,10.376c28.911,1.146,38.963-14.98,38.963-14.98s-10.07-10.304-22.576-16.997
		c-18.59-9.948-26.564-10.37-39.395-16.43c-12.848-6.057-17.299-10.805-17.299-10.805s-8.825,18.15-22.56,31.111
		c-12.929,12.224-32.765,25.794-32.765,25.794s4.14-14.99,18.312-32.851c14.166-17.864,31.887-30.528,31.887-30.528
		s-1.685-12.135-24.056-20.319c-14.164-5.192-34.528,0.86-34.528,0.86s9.729,9.945,14.129,18.59
		c8.188,15.917,0.779,29.677,0.779,29.677s-16.531-14.984-21.861-44.952c-4.282-24.163,10.607-37.387,15.338-41.356
		c4.48,1.824,8.27,5.014,20.392,10.379c19.459,8.654,21.69,26.371,21.69,26.371s21.151-12.64,15.052-35.442
		c-5.019-18.729-19.925-21.619-19.925-21.619s15.042-2.158,22.997-20.163c3.825-8.623,0.852-40.186,0.852-40.186
		c-0.045,0-0.062-0.014-0.116-0.014c0-0.031-32.299-2.988-41.142,0.739c-18.456,7.755-20.669,22.461-20.669,22.461
		s-2.946-14.555-22.146-19.442c-23.339-5.966-36.284,14.688-36.284,14.688s18.134,2.16,27.012,21.175
		c5.491,11.813,8.78,15.509,10.598,19.886c-4.03,4.619-17.604,19.158-42.349,14.979c-30.677-5.183-46.033-21.318-46.033-21.318
		s14.103-7.235,30.426,0.715c8.844,4.319,19.02,13.824,19.02,13.824s6.183-19.876,0.879-33.708
		c-8.359-21.847-20.804-23.478-20.804-23.478s-12.99,17.292-31.285,31.115c-18.294,13.833-33.641,17.871-33.641,17.871
		s13.895-19.371,26.402-31.989c13.285-13.395,31.894-22.04,31.894-22.04s-4.892-4.318-11.072-16.852
		c-6.21-12.547-6.648-20.311-16.817-38.467c-6.862-12.233-17.416-22.048-17.416-22.048s-16.513,9.81-15.374,38.036
		c1.191,28.235,10.635,51.291,10.635,51.291l-24.325-26.219l-24.377,26.219c0,0,9.461-23.056,10.644-51.291
		c1.173-28.226-15.357-38.036-15.357-38.036s-10.563,9.815-17.408,22.048c-10.15,18.156-10.588,25.919-16.824,38.467
		c-6.191,12.534-11.065,16.852-11.065,16.852s18.608,8.646,31.877,22.04c12.506,12.619,26.402,31.989,26.402,31.989
		s-15.33-4.037-33.651-17.871c-18.276-13.823-31.24-31.115-31.24-31.115s-12.444,1.631-20.812,23.478
		c-5.332,13.832,0.878,33.708,0.878,33.708s10.169-9.505,19.029-13.824c16.288-7.951,30.399-0.715,30.399-0.715
		s-15.348,16.135-46.05,21.318c-24.737,4.179-38.283-10.361-42.333-14.979c1.827-4.376,5.125-8.073,10.608-19.886
		c8.861-19.016,26.994-21.175,26.994-21.175s-12.928-20.655-36.285-14.688c-19.155,4.887-22.138,19.442-22.138,19.442
		s-2.204-14.707-20.669-22.461c-8.825-3.727-41.158-0.77-41.158-0.739c-0.036,0-0.054,0.014-0.081,0.014
		c0,0-2.975,31.563,0.824,40.186c7.964,18.004,23.016,20.163,23.016,20.163s-14.908,2.89-19.916,21.619
		c-6.092,22.802,15.051,35.442,15.051,35.442s2.205-17.717,21.69-26.371c12.113-5.365,15.885-8.555,20.365-10.379
		c4.73,3.969,19.611,17.194,15.338,41.356c-5.286,29.968-21.842,44.952-21.842,44.952s-7.409-13.761,0.744-29.677
		c4.435-8.645,14.164-18.59,14.164-18.59s-20.364-6.052-34.52-0.86c-22.371,8.185-24.064,20.319-24.064,20.319
		s17.703,12.664,31.885,30.528c14.156,17.86,18.295,32.851,18.295,32.851s-19.827-13.57-32.764-25.794
		c-13.735-12.96-22.568-31.111-22.568-31.111s-4.426,4.748-17.273,10.805c-12.839,6.06-20.812,6.482-39.385,16.43
		C10.062,401.456,0,411.76,0,411.76s10.062,16.125,38.972,14.98c28.92-1.157,52.537-10.376,52.537-10.376l-25.857,22.913
		l-0.51,0.422l0.51,0.435l25.857,22.913c0,0-23.617-9.219-52.537-10.379C10.062,451.517,0,467.651,0,467.651
		s10.062,10.312,22.604,17.005c18.573,9.935,26.546,10.356,39.385,16.414c12.847,6.055,17.273,10.809,17.273,10.809
		s8.833-18.151,22.568-31.125c12.937-12.197,32.764-25.783,32.764-25.783s-4.139,14.987-18.295,32.844
		c-14.182,17.869-31.885,30.551-31.885,30.551s1.693,12.116,24.064,20.311c14.155,5.192,34.52-0.869,34.52-0.869
		s-9.729-9.931-14.164-18.581c-8.153-15.898-0.744-29.677-0.744-29.677s16.557,14.979,21.842,44.955
		c4.273,24.151-10.607,37.384-15.338,41.343c-4.479-1.805-8.251-5.004-20.365-10.38c-19.485-8.631-21.69-26.353-21.69-26.353
		s-21.144,12.642-15.051,35.429c5.008,18.738,19.916,21.618,19.916,21.618s-15.051,2.156-23.016,20.172
		c-3.799,8.614-0.824,40.191-0.824,40.191c0.026,0,0.045,0,0.081,0.009c0,0.021,32.333,2.988,41.158-0.743
		c18.465-7.759,20.669-22.46,20.669-22.46s2.983,14.562,22.138,19.457c23.357,5.94,36.285-14.701,36.285-14.701
		s-18.133-2.159-26.994-21.188c-5.482-11.801-8.781-15.508-10.608-19.872c4.049-4.641,17.595-19.173,42.333-14.976
		c30.702,5.184,46.05,21.314,46.05,21.314s-14.111,7.244-30.399-0.721c-8.86-4.327-19.029-13.834-19.029-13.834
		s-6.209,19.876-0.878,33.705c8.368,21.855,20.812,23.486,20.812,23.486s12.963-17.287,31.24-31.106
		c18.322-13.843,33.651-17.869,33.651-17.869s-13.896,19.352-26.402,31.989c-13.269,13.385-31.877,22.03-31.877,22.03
		s4.874,4.332,11.065,16.86c6.236,12.543,6.674,20.312,16.824,38.462c6.845,12.229,17.408,22.04,17.408,22.04
		s16.53-9.797,15.357-38.036c-1.183-28.222-10.644-51.283-10.644-51.283l24.377,26.206l24.325-26.206
		c0,0-9.443,23.062-10.635,51.283c-1.139,28.239,15.374,38.036,15.374,38.036s10.554-9.811,17.416-22.04
		c10.169-18.15,10.607-25.919,16.817-38.462c6.181-12.528,11.072-16.86,11.072-16.86s-18.608-8.646-31.894-22.03
		c-12.508-12.638-26.402-31.989-26.402-31.989s15.347,4.026,33.641,17.869c18.295,13.819,31.285,31.106,31.285,31.106
		s12.444-1.631,20.804-23.486c5.304-13.829-0.879-33.705-0.879-33.705s-10.176,9.507-19.02,13.834
		c-16.323,7.965-30.426,0.721-30.426,0.721s15.356-16.131,46.033-21.314c24.745-4.197,38.318,10.335,42.349,14.976
		c-1.817,4.364-5.106,8.071-10.598,19.872c-8.878,19.028-27.012,21.188-27.012,21.188s12.945,20.642,36.284,14.701
		c19.2-4.896,22.146-19.457,22.146-19.457s2.213,14.701,20.669,22.46c8.843,3.731,41.142,0.765,41.142,0.743
		c0.054-0.009,0.071-0.009,0.116-0.009c0,0,2.974-31.577-0.852-40.191c-7.955-18.016-22.997-20.172-22.997-20.172
		s14.906-2.88,19.925-21.618c6.1-22.787-15.052-35.429-15.052-35.429s-2.231,17.722-21.69,26.353
		c-12.122,5.376-15.911,8.575-20.392,10.38c-4.73-3.959-19.62-17.191-15.338-41.343c5.33-29.976,21.861-44.955,21.861-44.955
		s7.409,13.778-0.779,29.677c-4.4,8.65-14.129,18.581-14.129,18.581s20.364,6.062,34.528,0.869
		c22.371-8.194,24.056-20.311,24.056-20.311s-17.721-12.682-31.887-30.551c-14.173-17.856-18.312-32.844-18.312-32.844
		s19.836,13.586,32.765,25.783c13.734,12.974,22.56,31.125,22.56,31.125s4.451-4.754,17.299-10.809
		c12.83-6.058,20.805-6.479,39.395-16.414c12.506-6.692,22.576-17.005,22.576-17.005S582.274,451.517,553.363,452.668z
		 M490.506,240.604c5.231,0,9.425,4.134,9.425,9.228c0,5.093-4.193,9.229-9.425,9.229c-5.196,0-9.435-4.136-9.435-9.229
		C481.071,244.738,485.31,240.604,490.506,240.604z M102.117,259.061c-5.196,0-9.425-4.136-9.425-9.229
		c0-5.094,4.229-9.228,9.425-9.228c5.241,0,9.452,4.134,9.452,9.228C111.569,254.925,107.358,259.061,102.117,259.061z
		 M102.117,637.074c-5.196,0-9.425-4.135-9.425-9.219c0-5.085,4.229-9.225,9.425-9.225c5.241,0,9.452,4.14,9.452,9.225
		C111.569,632.939,107.358,637.074,102.117,637.074z M490.506,618.631c5.231,0,9.425,4.14,9.425,9.225
		c0,5.084-4.193,9.219-9.425,9.219c-5.196,0-9.435-4.135-9.435-9.219C481.071,622.771,485.31,618.631,490.506,618.631z
		 M340.439,284.987c0,0,13.726,12.964,31.455,20.445c17.668,7.49,43.076,0.586,43.076,0.586s-7.678,7.49-20.06,9.797
		c-12.4,2.295-31.895-3.171-31.895-3.171s-1.818,1.909-4.882,16.427c-3.092,14.692,0.151,37.453,0.151,37.453l-17.847-15.409H306.78
		l30.864-29.543l-27.773-24.921L340.439,284.987z M400.814,345.476c0,5.11-4.255,9.232-9.442,9.232
		c-5.214,0-9.451-4.122-9.451-9.232c0-5.075,4.237-9.215,9.451-9.215C396.56,336.261,400.814,340.4,400.814,345.476z
		 M374.512,400.807V478.6l-38.042,37.166h-80.604l-38.05-37.166v-77.792l38.05-37.172h80.604L374.512,400.807z M296.181,344.104
		l-25.255-23.244l25.255-20.732l25.229,20.732L296.181,344.104z M276.551,258.191l19.629-22.931l19.612,22.931l-19.612,26.075
		L276.551,258.191z M220.484,305.432c17.686-7.481,31.43-20.445,31.43-20.445l30.533,11.665l-27.747,24.921l30.836,29.543h-33.623
		l-17.873,15.409c0,0,3.26-22.761,0.169-37.453c-3.073-14.518-4.883-16.427-4.883-16.427s-19.468,5.466-31.885,3.171
		c-12.373-2.307-20.078-9.797-20.078-9.797S202.747,312.922,220.484,305.432z M210.719,345.476c0,5.11-4.219,9.232-9.443,9.232
		c-5.214,0-9.424-4.122-9.424-9.232c0-5.075,4.21-9.215,9.424-9.215C206.5,336.261,210.719,340.4,210.719,345.476z M158.209,366.225
		c7.66-17.278,0.574-42.055,0.574-42.055s7.688,7.477,10.044,19.593c2.374,12.095-3.253,31.116-3.253,31.116
		s1.953,1.76,16.825,4.749c15.043,3.033,38.373-0.134,38.373-0.134l-15.786,17.434v32.845l-30.229-30.126l-25.551,27.094
		l-11.943-29.812C137.263,396.928,150.523,383.521,158.209,366.225z M197.379,439.699l-23.392,24.217l-20.83-24.217l20.83-24.204
		L197.379,439.699z M109.821,458.437l-22.954-18.737l22.954-18.72l26.08,18.72L109.821,458.437z M168.827,535.656
		c-2.356,12.104-10.044,19.594-10.044,19.594s7.086-24.781-0.574-42.063c-7.687-17.292-20.946-30.698-20.946-30.698l11.943-29.82
		l25.551,27.097l30.229-30.12v32.844l15.786,17.435c0,0-23.33-3.182-38.373-0.14c-14.872,2.988-16.825,4.745-16.825,4.745
		S171.201,523.553,168.827,535.656z M210.719,532.193c0,5.094-4.219,9.224-9.443,9.224c-5.214,0-9.424-4.13-9.424-9.224
		c0-5.093,4.21-9.224,9.424-9.224C206.5,522.97,210.719,527.101,210.719,532.193z M251.914,594.433c0,0-13.744-12.973-31.43-20.462
		c-17.738-7.486-43.12-0.574-43.12-0.574s7.706-7.484,20.078-9.806c12.417-2.29,31.885,3.19,31.885,3.19s1.81-1.914,4.883-16.438
		c3.091-14.701-0.169-37.453-0.169-37.453l17.873,15.414h33.623l-30.836,29.534l27.747,24.916L251.914,594.433z M296.181,535.307
		l25.229,23.249l-25.229,20.704l-25.255-20.704L296.181,535.307z M315.793,621.226l-19.612,22.917l-19.629-22.917l19.629-26.085
		L315.793,621.226z M371.895,573.971c-17.729,7.489-31.455,20.462-31.455,20.462l-30.568-11.678l27.773-24.916l-30.864-29.534
		h33.659l17.847-15.414c0,0-3.243,22.752-0.151,37.453c3.063,14.523,4.882,16.438,4.882,16.438s19.494-5.48,31.895-3.19
		c12.382,2.321,20.06,9.806,20.06,9.806S389.562,566.484,371.895,573.971z M381.921,532.193c0-5.093,4.237-9.224,9.451-9.224
		c5.188,0,9.442,4.131,9.442,9.224c0,5.094-4.255,9.224-9.442,9.224C386.158,541.417,381.921,537.287,381.921,532.193z
		 M434.144,513.187c-7.678,17.282-0.582,42.063-0.582,42.063s-7.705-7.489-10.054-19.594c-2.365-12.104,3.253-31.128,3.253-31.128
		s-1.943-1.757-16.808-4.745c-15.042-3.042-38.381,0.14-38.381,0.14l15.796-17.435v-32.844l30.245,30.12l25.533-27.097l11.962,29.82
		C455.108,482.488,441.812,495.895,434.144,513.187z M394.947,439.699l23.393-24.204l20.848,24.204l-20.848,24.217L394.947,439.699z
		 M443.146,426.74l-25.533-27.094l-30.245,30.126v-32.845l-15.796-17.434c0,0,23.339,3.167,38.381,0.134
		c14.864-2.988,16.808-4.749,16.808-4.749s-5.618-19.021-3.253-31.116c2.349-12.116,10.054-19.593,10.054-19.593
		s-7.096,24.776,0.582,42.055c7.669,17.295,20.965,30.703,20.965,30.703L443.146,426.74z M482.523,458.437l-26.117-18.737
		l26.117-18.72l22.953,18.72L482.523,458.437z"/>
	<linearGradient id="SVGID_2_" gradientUnits="userSpaceOnUse" x1="268.6919" y1="415.0288" x2="505.8448" y2="130.9147">
		<stop  offset="0.0056" style="stop-color:#ECC562"/>
		<stop  offset="1" style="stop-color:#C3922E"/>
	</linearGradient>
	<path fill="url(#SVGID_2_)" d="M256.062,400.431c0,0-13.403,0-22.335,9.72c-9.586,10.385-9.344,26.596-9.344,26.596
		s10.572-5.899,29.664-5.899c20.687,0,34.896,6.741,34.896,6.741s-3.234-15.625-2.437-34.618
		c0.825-19.006,7.741-33.368,7.741-33.368s-12.193-0.412-23.993,8.869C258.517,387.758,256.062,400.431,256.062,400.431z
		 M273.918,413.315c0,3.62-2.805,6.544-6.28,6.544c-3.486,0-6.308-2.924-6.308-6.544c0-3.616,2.822-6.545,6.308-6.545
		C271.113,406.77,273.918,409.699,273.918,413.315z"/>
	<linearGradient id="SVGID_3_" gradientUnits="userSpaceOnUse" x1="321.1416" y1="417.4346" x2="462.4451" y2="248.1501">
		<stop  offset="0.0056" style="stop-color:#ECC562"/>
		<stop  offset="1" style="stop-color:#C3922E"/>
	</linearGradient>
	<path fill="url(#SVGID_3_)" d="M322.092,378.472c-11.773-9.281-23.984-8.869-23.984-8.869s6.907,14.362,7.723,33.368
		c0.807,18.993-2.446,34.618-2.446,34.618s14.236-6.741,34.905-6.741c19.119,0,29.691,5.899,29.691,5.899s0.224-16.211-9.363-26.596
		c-8.932-9.72-22.325-9.72-22.325-9.72S333.872,387.758,322.092,378.472z M324.716,419.859c-3.476,0-6.299-2.924-6.299-6.544
		c0-3.616,2.823-6.545,6.299-6.545c3.44,0,6.271,2.93,6.271,6.545C330.987,416.935,328.156,419.859,324.716,419.859z"/>
	<linearGradient id="SVGID_4_" gradientUnits="userSpaceOnUse" x1="268.8491" y1="464.8125" x2="410.1469" y2="295.5349">
		<stop  offset="0.0056" style="stop-color:#ECC562"/>
		<stop  offset="1" style="stop-color:#C3922E"/>
	</linearGradient>
	<path fill="url(#SVGID_4_)" d="M288.942,441.81c0,0-14.208,6.759-34.896,6.759c-19.092,0-29.664-5.896-29.664-5.896
		s-0.242,16.198,9.344,26.592c8.933,9.72,22.335,9.72,22.335,9.72s2.455,12.656,14.191,21.959c11.8,9.282,23.993,8.853,23.993,8.853
		s-6.916-14.344-7.741-33.352C285.708,457.438,288.942,441.81,288.942,441.81z M267.638,472.629c-3.486,0-6.308-2.926-6.308-6.523
		c0-3.628,2.822-6.548,6.308-6.548c3.475,0,6.28,2.92,6.28,6.548C273.918,469.703,271.113,472.629,267.638,472.629z"/>
	<linearGradient id="SVGID_5_" gradientUnits="userSpaceOnUse" x1="319.6895" y1="469.1133" x2="556.816" y2="185.0309">
		<stop  offset="0.0056" style="stop-color:#ECC562"/>
		<stop  offset="1" style="stop-color:#C3922E"/>
	</linearGradient>
	<path fill="url(#SVGID_5_)" d="M303.384,441.81c0,0,3.253,15.629,2.446,34.635c-0.815,19.008-7.723,33.352-7.723,33.352
		s12.211,0.43,23.984-8.853c11.78-9.303,14.2-21.959,14.2-21.959s13.394,0,22.325-9.72c9.587-10.394,9.363-26.592,9.363-26.592
		s-10.572,5.896-29.691,5.896C317.62,448.568,303.384,441.81,303.384,441.81z M324.716,472.629c-3.476,0-6.299-2.926-6.299-6.523
		c0-3.628,2.823-6.548,6.299-6.548c3.44,0,6.271,2.92,6.271,6.548C330.987,469.703,328.156,472.629,324.716,472.629z"/>
</g>
</svg>
