  0
SECTION
  2
HEADER
  9
$ACADVER
  1
AC1018
  9
$ACADMAINTVER
 70
     0
  9
$DWGCODEPAGE
  3
ANSI_932
  9
$INSBASE
 10
0.0
 20
0.0
 30
0.0
  9
$EXTMIN
 10
1.000000000000000E+20
 20
1.000000000000000E+20
 30
1.000000000000000E+20
  9
$EXTMAX
 10
-1.000000000000000E+20
 20
-1.000000000000000E+20
 30
-1.000000000000000E+20
  9
$LIMMIN
 10
0.0
 20
0.0
  9
$LIMMAX
 10
12.0
 20
9.0
  9
$ORTHOMODE
 70
     0
  9
$REGENMODE
 70
     1
  9
$FILLMODE
 70
     1
  9
$QTEXTMODE
 70
     0
  9
$MIRRTEXT
 70
     1
  9
$LTSCALE
 40
1.0
  9
$ATTMODE
 70
     1
  9
$TEXTSIZE
 40
0.2
  9
$TRACEWID
 40
0.05
  9
$TEXTSTYLE
  7
Standard
  9
$CLAYER
  8
0
  9
$CELTYPE
  6
ByLayer
  9
$CECOLOR
 62
   256
  9
$CELTSCALE
 40
1.0
  9
$DISPSILH
 70
     0
  9
$DIMSCALE
 40
1.0
  9
$DIMASZ
 40
0.18
  9
$DIMEXO
 40
0.0625
  9
$DIMDLI
 40
0.38
  9
$DIMRND
 40
0.0
  9
$DIMDLE
 40
0.0
  9
$DIMEXE
 40
0.18
  9
$DIMTP
 40
0.0
  9
$DIMTM
 40
0.0
  9
$DIMTXT
 40
0.18
  9
$DIMCEN
 40
0.09
  9
$DIMTSZ
 40
0.0
  9
$DIMTOL
 70
     0
  9
$DIMLIM
 70
     0
  9
$DIMTIH
 70
     1
  9
$DIMTOH
 70
     1
  9
$DIMSE1
 70
     0
  9
$DIMSE2
 70
     0
  9
$DIMTAD
 70
     0
  9
$DIMZIN
 70
     0
  9
$DIMBLK
  1

  9
$DIMASO
 70
     1
  9
$DIMSHO
 70
     1
  9
$DIMPOST
  1

  9
$DIMAPOST
  1

  9
$DIMALT
 70
     0
  9
$DIMALTD
 70
     2
  9
$DIMALTF
 40
25.4
  9
$DIMLFAC
 40
1.0
  9
$DIMTOFL
 70
     0
  9
$DIMTVP
 40
0.0
  9
$DIMTIX
 70
     0
  9
$DIMSOXD
 70
     0
  9
$DIMSAH
 70
     0
  9
$DIMBLK1
  1

  9
$DIMBLK2
  1

  9
$DIMSTYLE
  2
Standard
  9
$DIMCLRD
 70
     0
  9
$DIMCLRE
 70
     0
  9
$DIMCLRT
 70
     0
  9
$DIMTFAC
 40
1.0
  9
$DIMGAP
 40
0.09
  9
$DIMJUST
 70
     0
  9
$DIMSD1
 70
     0
  9
$DIMSD2
 70
     0
  9
$DIMTOLJ
 70
     1
  9
$DIMTZIN
 70
     0
  9
$DIMALTZ
 70
     0
  9
$DIMALTTZ
 70
     0
  9
$DIMUPT
 70
     0
  9
$DIMDEC
 70
     4
  9
$DIMTDEC
 70
     4
  9
$DIMALTU
 70
     2
  9
$DIMALTTD
 70
     2
  9
$DIMTXSTY
  7
Standard
  9
$DIMAUNIT
 70
     0
  9
$DIMADEC
 70
     0
  9
$DIMALTRND
 40
0.0
  9
$DIMAZIN
 70
     0
  9
$DIMDSEP
 70
    46
  9
$DIMATFIT
 70
     3
  9
$DIMFRAC
 70
     0
  9
$DIMLDRBLK
  1

  9
$DIMLUNIT
 70
     2
  9
$DIMLWD
 70
    -2
  9
$DIMLWE
 70
    -2
  9
$DIMTMOVE
 70
     0
  9
$LUNITS
 70
     2
  9
$LUPREC
 70
     4
  9
$SKETCHINC
 40
0.1
  9
$FILLETRAD
 40
0.5
  9
$AUNITS
 70
     0
  9
$AUPREC
 70
     0
  9
$MENU
  1
.
  9
$ELEVATION
 40
0.0
  9
$PELEVATION
 40
0.0
  9
$THICKNESS
 40
0.0
  9
$LIMCHECK
 70
     0
  9
$CHAMFERA
 40
0.5
  9
$CHAMFERB
 40
0.5
  9
$CHAMFERC
 40
1.0
  9
$CHAMFERD
 40
0.0
  9
$SKPOLY
 70
     0
  9
$TDCREATE
 40
2460559.684166667
  9
$TDUCREATE
 40
2460559.600833334
  9
$TDUPDATE
 40
2460559.684166678
  9
$TDUUPDATE
 40
2460559.600833345
  9
$TDINDWG
 40
0.0000000116
  9
$TDUSRTIMER
 40
0.0000000116
  9
$USRTIMER
 70
     1
  9
$ANGBASE
 50
0.0
  9
$ANGDIR
 70
     0
  9
$PDMODE
 70
     0
  9
$PDSIZE
 40
0.0
  9
$PLINEWID
 40
0.0
  9
$SPLFRAME
 70
     0
  9
$SPLINETYPE
 70
     6
  9
$SPLINESEGS
 70
     8
  9
$HANDSEED
  5
19F
  9
$SURFTAB1
 70
     6
  9
$SURFTAB2
 70
     6
  9
$SURFTYPE
 70
     6
  9
$SURFU
 70
     6
  9
$SURFV
 70
     6
  9
$UCSBASE
  2

  9
$UCSNAME
  2

  9
$UCSORG
 10
0.0
 20
0.0
 30
0.0
  9
$UCSXDIR
 10
1.0
 20
0.0
 30
0.0
  9
$UCSYDIR
 10
0.0
 20
1.0
 30
0.0
  9
$UCSORTHOREF
  2

  9
$UCSORTHOVIEW
 70
     0
  9
$UCSORGTOP
 10
0.0
 20
0.0
 30
0.0
  9
$UCSORGBOTTOM
 10
0.0
 20
0.0
 30
0.0
  9
$UCSORGLEFT
 10
0.0
 20
0.0
 30
0.0
  9
$UCSORGRIGHT
 10
0.0
 20
0.0
 30
0.0
  9
$UCSORGFRONT
 10
0.0
 20
0.0
 30
0.0
  9
$UCSORGBACK
 10
0.0
 20
0.0
 30
0.0
  9
$PUCSBASE
  2

  9
$PUCSNAME
  2

  9
$PUCSORG
 10
0.0
 20
0.0
 30
0.0
  9
$PUCSXDIR
 10
1.0
 20
0.0
 30
0.0
  9
$PUCSYDIR
 10
0.0
 20
1.0
 30
0.0
  9
$PUCSORTHOREF
  2

  9
$PUCSORTHOVIEW
 70
     0
  9
$PUCSORGTOP
 10
0.0
 20
0.0
 30
0.0
  9
$PUCSORGBOTTOM
 10
0.0
 20
0.0
 30
0.0
  9
$PUCSORGLEFT
 10
0.0
 20
0.0
 30
0.0
  9
$PUCSORGRIGHT
 10
0.0
 20
0.0
 30
0.0
  9
$PUCSORGFRONT
 10
0.0
 20
0.0
 30
0.0
  9
$PUCSORGBACK
 10
0.0
 20
0.0
 30
0.0
  9
$USERI1
 70
     0
  9
$USERI2
 70
     0
  9
$USERI3
 70
     0
  9
$USERI4
 70
     0
  9
$USERI5
 70
     0
  9
$USERR1
 40
0.0
  9
$USERR2
 40
0.0
  9
$USERR3
 40
0.0
  9
$USERR4
 40
0.0
  9
$USERR5
 40
0.0
  9
$WORLDVIEW
 70
     1
  9
$SHADEDGE
 70
     3
  9
$SHADEDIF
 70
    70
  9
$TILEMODE
 70
     1
  9
$MAXACTVP
 70
    64
  9
$PINSBASE
 10
0.0
 20
0.0
 30
0.0
  9
$PLIMCHECK
 70
     0
  9
$PEXTMIN
 10
1.000000000000000E+20
 20
1.000000000000000E+20
 30
1.000000000000000E+20
  9
$PEXTMAX
 10
-1.000000000000000E+20
 20
-1.000000000000000E+20
 30
-1.000000000000000E+20
  9
$PLIMMIN
 10
0.0
 20
0.0
  9
$PLIMMAX
 10
12.0
 20
9.0
  9
$UNITMODE
 70
     0
  9
$VISRETAIN
 70
     1
  9
$PLINEGEN
 70
     0
  9
$PSLTSCALE
 70
     1
  9
$TREEDEPTH
 70
  3020
  9
$CMLSTYLE
  2
Standard
  9
$CMLJUST
 70
     0
  9
$CMLSCALE
 40
1.0
  9
$PROXYGRAPHICS
 70
     1
  9
$MEASUREMENT
 70
     0
  9
$CELWEIGHT
370
    -1
  9
$ENDCAPS
280
     0
  9
$JOINSTYLE
280
     0
  9
$LWDISPLAY
290
     1
  9
$INSUNITS
 70
     1
  9
$HYPERLINKBASE
  1

  9
$STYLESHEET
  1

  9
$XEDIT
290
     1
  9
$CEPSNTYPE
380
     0
  9
$PSTYLEMODE
290
     1
  9
$FINGERPRINTGUID
  2
{128A9738-6FC3-9817-4074-8087DBA53034}
  9
$VERSIONGUID
  2
{FAEB1C32-E019-11D5-929B-00C0DF256EC4}
  9
$EXTNAMES
290
     1
  9
$PSVPSCALE
 40
0.0
  9
$OLESTARTUP
290
     0
  9
$SORTENTS
280
   127
  9
$INDEXCTL
280
     0
  9
$HIDETEXT
280
     1
  9
$XCLIPFRAME
290
     0
  9
$HALOGAP
280
     0
  9
$OBSCOLOR
 70
   257
  9
$OBSLTYPE
280
     0
  9
$INTERSECTIONDISPLAY
280
     0
  9
$INTERSECTIONCOLOR
 70
   257
  9
$DIMASSOC
280
     2
  9
$PROJECTNAME
  1

  0
ENDSEC
  0
SECTION
  2
CLASSES
  0
CLASS
  1
ACDBDICTIONARYWDFLT
  2
AcDbDictionaryWithDefault
  3
ObjectDBX Classes
 90
        0
 91
        3
280
     0
281
     0
  0
CLASS
  1
VISUALSTYLE
  2
AcDbVisualStyle
  3
ObjectDBX Classes
 90
     4095
 91
        3
280
     0
281
     0
  0
ENDSEC
  0
SECTION
  2
TABLES
  0
TABLE
  2
VPORT
  5
8
330
0
100
AcDbSymbolTable
 70
     1
  0
VPORT
  5
29
330
8
100
AcDbSymbolTableRecord
100
AcDbViewportTableRecord
  2
*Active
 70
     0
 10
0.0
 20
0.0
 11
1.0
 21
1.0
 12
0.0
 22
0.0
 13
0.0
 23
0.0
 14
0.5
 24
0.5
 15
0.5
 25
0.5
 16
0.0
 26
0.0
 36
1.0
 17
4.133890787760416
 27
-5.846455891927083
 37
0.0
 40
11.69291178385417
 41
0.7070763662937378
 42
50.0
 43
0.0
 44
0.0
 50
0.0
 51
0.0
 71
     0
 72
   100
 73
     1
 74
     3
 75
     0
 76
     0
 77
     0
 78
     0
281
     0
 65
     1
110
0.0
120
0.0
130
0.0
111
1.0
121
0.0
131
0.0
112
0.0
122
1.0
132
0.0
 79
     0
146
0.0
  0
ENDTAB
  0
TABLE
  2
LTYPE
  5
5
330
0
100
AcDbSymbolTable
 70
     1
  0
LTYPE
  5
14
330
5
100
AcDbSymbolTableRecord
100
AcDbLinetypeTableRecord
  2
ByBlock
 70
     0
  3

 72
    65
 73
     0
 40
0.0
  0
LTYPE
  5
15
330
5
100
AcDbSymbolTableRecord
100
AcDbLinetypeTableRecord
  2
ByLayer
 70
     0
  3

 72
    65
 73
     0
 40
0.0
  0
LTYPE
  5
16
330
5
100
AcDbSymbolTableRecord
100
AcDbLinetypeTableRecord
  2
Continuous
 70
     0
  3
Solid line
 72
    65
 73
     0
 40
0.0
  0
ENDTAB
  0
TABLE
  2
LAYER
  5
2
330
0
100
AcDbSymbolTable
 70
     2
  0
LAYER
  5
10
330
2
100
AcDbSymbolTableRecord
100
AcDbLayerTableRecord
  2
0
 70
     0
 62
     7
  6
Continuous
370
    -3
390
F
  0
LAYER
  5
3B
330
2
100
AcDbSymbolTableRecord
100
AcDbLayerTableRecord
  2
Layer 1
 70
     0
 62
     7
  6
Continuous
370
    -3
390
F
  0
ENDTAB
  0
TABLE
  2
STYLE
  5
3
330
0
100
AcDbSymbolTable
 70
     1
  0
STYLE
  5
11
330
3
100
AcDbSymbolTableRecord
100
AcDbTextStyleTableRecord
  2
Standard
 70
     0
 40
0.0
 41
1.0
 50
0.0
 71
     0
 42
0.2
  3
txt
  4

  0
ENDTAB
  0
TABLE
  2
VIEW
  5
6
330
0
100
AcDbSymbolTable
 70
     0
  0
ENDTAB
  0
TABLE
  2
UCS
  5
7
330
0
100
AcDbSymbolTable
 70
     0
  0
ENDTAB
  0
TABLE
  2
APPID
  5
9
330
0
100
AcDbSymbolTable
 70
     1
  0
APPID
  5
12
330
9
100
AcDbSymbolTableRecord
100
AcDbRegAppTableRecord
  2
ACAD
 70
     0
  0
ENDTAB
  0
TABLE
  2
DIMSTYLE
  5
A
330
0
100
AcDbSymbolTable
 70
     1
100
AcDbDimStyleTable
  0
DIMSTYLE
105
27
330
A
100
AcDbSymbolTableRecord
100
AcDbDimStyleTableRecord
  2
Standard
 70
     0
340
11
  0
ENDTAB
  0
TABLE
  2
BLOCK_RECORD
  5
1
330
0
100
AcDbSymbolTable
 70
     1
  0
BLOCK_RECORD
  5
1F
330
1
100
AcDbSymbolTableRecord
100
AcDbBlockTableRecord
  2
*Model_Space
340
22
  0
BLOCK_RECORD
  5
1B
330
1
100
AcDbSymbolTableRecord
100
AcDbBlockTableRecord
  2
*Paper_Space
340
1E
  0
BLOCK_RECORD
  5
23
330
1
100
AcDbSymbolTableRecord
100
AcDbBlockTableRecord
  2
*Paper_Space0
340
26
  0
ENDTAB
  0
ENDSEC
  0
SECTION
  2
BLOCKS
  0
BLOCK
  5
20
330
1F
100
AcDbEntity
  8
0
100
AcDbBlockBegin
  2
*Model_Space
 70
     0
 71
     0
 10
0.0
 20
0.0
 30
0.0
  3
*Model_Space
  1

  0
ENDBLK
  5
21
330
1F
100
AcDbEntity
  8
0
100
AcDbBlockEnd
  0
BLOCK
  5
1C
330
1B
100
AcDbEntity
 67
     1
  8
0
100
AcDbBlockBegin
  2
*Paper_Space
 70
     0
 71
     0
 10
0.0
 20
0.0
 30
0.0
  3
*Paper_Space
  1

  0
ENDBLK
  5
1D
330
1B
100
AcDbEntity
 67
     1
  8
0
100
AcDbBlockEnd
  0
BLOCK
  5
24
330
23
100
AcDbEntity
  8
0
100
AcDbBlockBegin
  2
*Paper_Space0
 70
     0
 71
     0
 10
0.0
 20
0.0
 30
0.0
  3
*Paper_Space0
  1

  0
ENDBLK
  5
25
330
23
100
AcDbEntity
  8
0
100
AcDbBlockEnd
  0
ENDSEC
  0
SECTION
  2
ENTITIES
  0
POLYLINE
  5
3C
330
1F
100
AcDbEntity
  8
Layer 1
370
     0
100
AcDb2dPolyline
 66
     1
 10
0.0
 20
0.0
 30
0.0
  0
VERTEX
  5
3D
330
3C
100
AcDbEntity
  8
Layer 1
370
     0
100
AcDbVertex
100
AcDb2dVertex
 10
7.722615559895833
 20
-6.698486328125
 30
0.0
  0
VERTEX
  5
3E
330
3C
100
AcDbEntity
  8
Layer 1
370
     0
100
AcDbVertex
100
AcDb2dVertex
 10
8.2772216796875
 20
-5.738172743055555
 30
0.0
  0
VERTEX
  5
3F
330
3C
100
AcDbEntity
  8
Layer 1
370
     0
100
AcDbVertex
100
AcDb2dVertex
 10
7.722615559895833
 20
-4.777730305989583
 30
0.0
  0
VERTEX
  5
40
330
3C
100
AcDbEntity
  8
Layer 1
370
     0
100
AcDbVertex
100
AcDb2dVertex
 10
7.722615559895833
 20
-3.668782552083333
 30
0.0
  0
VERTEX
  5
41
330
3C
100
AcDbEntity
  8
Layer 1
370
     0
100
AcDbVertex
100
AcDb2dVertex
 10
6.762369791666666
 20
-3.114434136284722
 30
0.0
  0
VERTEX
  5
42
330
3C
100
AcDbEntity
  8
Layer 1
370
     0
100
AcDbVertex
100
AcDb2dVertex
 10
6.207668728298611
 20
-2.15386962890625
 30
0.0
  0
VERTEX
  5
43
330
3C
100
AcDbEntity
  8
Layer 1
370
     0
100
AcDbVertex
100
AcDb2dVertex
 10
5.098700629340278
 20
-2.153998480902778
 30
0.0
  0
VERTEX
  5
44
330
3C
100
AcDbEntity
  8
Layer 1
370
     0
100
AcDbVertex
100
AcDb2dVertex
 10
4.138461642795138
 20
-1.599521213107639
 30
0.0
  0
VERTEX
  5
45
330
3C
100
AcDbEntity
  8
Layer 1
370
     0
100
AcDbVertex
100
AcDb2dVertex
 10
3.179606119791667
 20
-2.154188368055555
 30
0.0
  0
VERTEX
  5
46
330
3C
100
AcDbEntity
  8
Layer 1
370
     0
100
AcDbVertex
100
AcDb2dVertex
 10
2.069512261284722
 20
-2.153998480902778
 30
0.0
  0
VERTEX
  5
47
330
3C
100
AcDbEntity
  8
Layer 1
370
     0
100
AcDbVertex
100
AcDb2dVertex
 10
1.516438802083333
 20
-3.113538953993055
 30
0.0
  0
VERTEX
  5
48
330
3C
100
AcDbEntity
  8
Layer 1
370
     0
100
AcDbVertex
100
AcDb2dVertex
 10
0.554348415798611
 20
-3.668782552083333
 30
0.0
  0
VERTEX
  5
49
330
3C
100
AcDbEntity
  8
Layer 1
370
     0
100
AcDbVertex
100
AcDb2dVertex
 10
0.5554334852430556
 20
-4.776265462239583
 30
0.0
  0
VERTEX
  5
4A
330
3C
100
AcDbEntity
  8
Layer 1
370
     0
100
AcDbVertex
100
AcDb2dVertex
 10
0.0
 20
-5.738226996527778
 30
0.0
  0
VERTEX
  5
4B
330
3C
100
AcDbEntity
  8
Layer 1
370
     0
100
AcDbVertex
100
AcDb2dVertex
 10
0.554348415798611
 20
-6.696234809027778
 30
0.0
  0
VERTEX
  5
4C
330
3C
100
AcDbEntity
  8
Layer 1
370
     0
100
AcDbVertex
100
AcDb2dVertex
 10
0.554348415798611
 20
-7.807481553819444
 30
0.0
  0
VERTEX
  5
4D
330
3C
100
AcDbEntity
  8
Layer 1
370
     0
100
AcDbVertex
100
AcDb2dVertex
 10
1.514784071180556
 20
-8.361775716145832
 30
0.0
  0
VERTEX
  5
4E
330
3C
100
AcDbEntity
  8
Layer 1
370
     0
100
AcDbVertex
100
AcDb2dVertex
 10
2.069512261284722
 20
-9.322265625
 30
0.0
  0
VERTEX
  5
4F
330
3C
100
AcDbEntity
  8
Layer 1
370
     0
100
AcDbVertex
100
AcDb2dVertex
 10
3.178087022569444
 20
-9.322157118055555
 30
0.0
  0
VERTEX
  5
50
330
3C
100
AcDbEntity
  8
Layer 1
370
     0
100
AcDbVertex
100
AcDb2dVertex
 10
4.138461642795138
 20
-9.876871744791666
 30
0.0
  0
VERTEX
  5
51
330
3C
100
AcDbEntity
  8
Layer 1
370
     0
100
AcDbVertex
100
AcDb2dVertex
 10
5.098700629340278
 20
-9.322265625
 30
0.0
  0
VERTEX
  5
52
330
3C
100
AcDbEntity
  8
Layer 1
370
     0
100
AcDbVertex
100
AcDb2dVertex
 10
6.207668728298611
 20
-9.322265625
 30
0.0
  0
VERTEX
  5
53
330
3C
100
AcDbEntity
  8
Layer 1
370
     0
100
AcDbVertex
100
AcDb2dVertex
 10
6.762369791666666
 20
-8.36208767361111
 30
0.0
  0
VERTEX
  5
54
330
3C
100
AcDbEntity
  8
Layer 1
370
     0
100
AcDbVertex
100
AcDb2dVertex
 10
7.722615559895833
 20
-7.807481553819444
 30
0.0
  0
VERTEX
  5
55
330
3C
100
AcDbEntity
  8
Layer 1
370
     0
100
AcDbVertex
100
AcDb2dVertex
 10
7.722615559895833
 20
-6.698486328125
 30
0.0
  0
SEQEND
  5
56
330
3C
100
AcDbEntity
  8
Layer 1
370
     0
  0
POLYLINE
  5
57
330
1F
100
AcDbEntity
  8
Layer 1
370
     0
100
AcDb2dPolyline
 66
     1
 10
0.0
 20
0.0
 30
0.0
  0
VERTEX
  5
58
330
57
100
AcDbEntity
  8
Layer 1
370
     0
100
AcDbVertex
100
AcDb2dVertex
 10
8.003255208333332
 20
-5.738172743055555
 30
0.0
  0
VERTEX
  5
59
330
57
100
AcDbEntity
  8
Layer 1
370
     0
100
AcDbVertex
100
AcDb2dVertex
 10
7.722615559895833
 20
-6.224270290798611
 30
0.0
  0
VERTEX
  5
5A
330
57
100
AcDbEntity
  8
Layer 1
370
     0
100
AcDbVertex
100
AcDb2dVertex
 10
7.722615559895833
 20
-5.947984483506944
 30
0.0
  0
VERTEX
  5
5B
330
57
100
AcDbEntity
  8
Layer 1
370
     0
100
AcDbVertex
100
AcDb2dVertex
 10
6.961764865451388
 20
-5.737982855902778
 30
0.0
  0
VERTEX
  5
5C
330
57
100
AcDbEntity
  8
Layer 1
370
     0
100
AcDbVertex
100
AcDb2dVertex
 10
7.722615559895833
 20
-5.52764892578125
 30
0.0
  0
VERTEX
  5
5D
330
57
100
AcDbEntity
  8
Layer 1
370
     0
100
AcDbVertex
100
AcDb2dVertex
 10
7.722615559895833
 20
-5.252129448784722
 30
0.0
  0
VERTEX
  5
5E
330
57
100
AcDbEntity
  8
Layer 1
370
     0
100
AcDbVertex
100
AcDb2dVertex
 10
8.003255208333332
 20
-5.738172743055555
 30
0.0
  0
SEQEND
  5
5F
330
57
100
AcDbEntity
  8
Layer 1
370
     0
  0
POLYLINE
  5
60
330
1F
100
AcDbEntity
  8
Layer 1
370
     0
100
AcDb2dPolyline
 66
     1
 10
0.0
 20
0.0
 30
0.0
  0
VERTEX
  5
61
330
60
100
AcDbEntity
  8
Layer 1
370
     0
100
AcDbVertex
100
AcDb2dVertex
 10
6.588717990451388
 20
-8.188368055555555
 30
0.0
  0
VERTEX
  5
62
330
60
100
AcDbEntity
  8
Layer 1
370
     0
100
AcDbVertex
100
AcDb2dVertex
 10
6.150621202256944
 20
-8.4412841796875
 30
0.0
  0
VERTEX
  5
63
330
60
100
AcDbEntity
  8
Layer 1
370
     0
100
AcDbVertex
100
AcDb2dVertex
 10
5.433553059895833
 20
-7.735243055555555
 30
0.0
  0
VERTEX
  5
64
330
60
100
AcDbEntity
  8
Layer 1
370
     0
100
AcDbVertex
100
AcDb2dVertex
 10
5.187310112847222
 20
-6.786580403645833
 30
0.0
  0
VERTEX
  5
65
330
60
100
AcDbEntity
  8
Layer 1
370
     0
100
AcDbVertex
100
AcDb2dVertex
 10
6.135715060763888
 20
-7.033203125
 30
0.0
  0
VERTEX
  5
66
330
60
100
AcDbEntity
  8
Layer 1
370
     0
100
AcDbVertex
100
AcDb2dVertex
 10
6.841457790798611
 20
-7.749755859375
 30
0.0
  0
VERTEX
  5
67
330
60
100
AcDbEntity
  8
Layer 1
370
     0
100
AcDbVertex
100
AcDb2dVertex
 10
6.588717990451388
 20
-8.188368055555555
 30
0.0
  0
SEQEND
  5
68
330
60
100
AcDbEntity
  8
Layer 1
370
     0
  0
POLYLINE
  5
69
330
1F
100
AcDbEntity
  8
Layer 1
370
     0
100
AcDb2dPolyline
 66
     1
 10
0.0
 20
0.0
 30
0.0
  0
VERTEX
  5
6A
330
69
100
AcDbEntity
  8
Layer 1
370
     0
100
AcDbVertex
100
AcDb2dVertex
 10
5.474175347222222
 20
-8.831963433159721
 30
0.0
  0
VERTEX
  5
6B
330
69
100
AcDbEntity
  8
Layer 1
370
     0
100
AcDbVertex
100
AcDb2dVertex
 10
5.035169813368055
 20
-9.085137261284721
 30
0.0
  0
VERTEX
  5
6C
330
69
100
AcDbEntity
  8
Layer 1
370
     0
100
AcDbVertex
100
AcDb2dVertex
 10
4.529568142361111
 20
-9.085137261284721
 30
0.0
  0
VERTEX
  5
6D
330
69
100
AcDbEntity
  8
Layer 1
370
     0
100
AcDbVertex
100
AcDb2dVertex
 10
4.261827256944445
 20
-8.115478515625
 30
0.0
  0
VERTEX
  5
6E
330
69
100
AcDbEntity
  8
Layer 1
370
     0
100
AcDbVertex
100
AcDb2dVertex
 10
4.522447374131944
 20
-7.170640733506944
 30
0.0
  0
VERTEX
  5
6F
330
69
100
AcDbEntity
  8
Layer 1
370
     0
100
AcDbVertex
100
AcDb2dVertex
 10
5.220798068576388
 20
-7.858235677083333
 30
0.0
  0
VERTEX
  5
70
330
69
100
AcDbEntity
  8
Layer 1
370
     0
100
AcDbVertex
100
AcDb2dVertex
 10
5.474175347222222
 20
-8.831963433159721
 30
0.0
  0
SEQEND
  5
71
330
69
100
AcDbEntity
  8
Layer 1
370
     0
  0
POLYLINE
  5
72
330
1F
100
AcDbEntity
  8
Layer 1
370
     0
100
AcDb2dPolyline
 66
     1
 10
0.0
 20
0.0
 30
0.0
  0
VERTEX
  5
73
330
72
100
AcDbEntity
  8
Layer 1
370
     0
100
AcDbVertex
100
AcDb2dVertex
 10
2.803643120659722
 20
-8.8321533203125
 30
0.0
  0
VERTEX
  5
74
330
72
100
AcDbEntity
  8
Layer 1
370
     0
100
AcDbVertex
100
AcDb2dVertex
 10
3.056755913628472
 20
-7.858479817708333
 30
0.0
  0
VERTEX
  5
75
330
72
100
AcDbEntity
  8
Layer 1
370
     0
100
AcDbVertex
100
AcDb2dVertex
 10
3.754842122395833
 20
-7.170640733506944
 30
0.0
  0
VERTEX
  5
76
330
72
100
AcDbEntity
  8
Layer 1
370
     0
100
AcDbVertex
100
AcDb2dVertex
 10
4.015713161892361
 20
-8.115532769097221
 30
0.0
  0
VERTEX
  5
77
330
72
100
AcDbEntity
  8
Layer 1
370
     0
100
AcDbVertex
100
AcDb2dVertex
 10
3.748216417100694
 20
-9.084879557291666
 30
0.0
  0
VERTEX
  5
78
330
72
100
AcDbEntity
  8
Layer 1
370
     0
100
AcDbVertex
100
AcDb2dVertex
 10
3.241739908854167
 20
-9.084879557291666
 30
0.0
  0
VERTEX
  5
79
330
72
100
AcDbEntity
  8
Layer 1
370
     0
100
AcDbVertex
100
AcDb2dVertex
 10
2.803643120659722
 20
-8.8321533203125
 30
0.0
  0
SEQEND
  5
7A
330
72
100
AcDbEntity
  8
Layer 1
370
     0
  0
POLYLINE
  5
7B
330
1F
100
AcDbEntity
  8
Layer 1
370
     0
100
AcDb2dPolyline
 66
     1
 10
0.0
 20
0.0
 30
0.0
  0
VERTEX
  5
7C
330
7B
100
AcDbEntity
  8
Layer 1
370
     0
100
AcDbVertex
100
AcDb2dVertex
 10
1.435336642795139
 20
-7.750013563368055
 30
0.0
  0
VERTEX
  5
7D
330
7B
100
AcDbEntity
  8
Layer 1
370
     0
100
AcDbVertex
100
AcDb2dVertex
 10
2.141323513454861
 20
-7.033515082465278
 30
0.0
  0
VERTEX
  5
7E
330
7B
100
AcDbEntity
  8
Layer 1
370
     0
100
AcDbVertex
100
AcDb2dVertex
 10
3.089850531684028
 20
-6.786892361111111
 30
0.0
  0
VERTEX
  5
7F
330
7B
100
AcDbEntity
  8
Layer 1
370
     0
100
AcDbVertex
100
AcDb2dVertex
 10
2.843485514322917
 20
-7.735365125868055
 30
0.0
  0
VERTEX
  5
80
330
7B
100
AcDbEntity
  8
Layer 1
370
     0
100
AcDbVertex
100
AcDb2dVertex
 10
2.127197265625
 20
-8.4412841796875
 30
0.0
  0
VERTEX
  5
81
330
7B
100
AcDbEntity
  8
Layer 1
370
     0
100
AcDbVertex
100
AcDb2dVertex
 10
1.688442654079861
 20
-8.1881103515625
 30
0.0
  0
VERTEX
  5
82
330
7B
100
AcDbEntity
  8
Layer 1
370
     0
100
AcDbVertex
100
AcDb2dVertex
 10
1.435336642795139
 20
-7.750013563368055
 30
0.0
  0
SEQEND
  5
83
330
7B
100
AcDbEntity
  8
Layer 1
370
     0
  0
POLYLINE
  5
84
330
1F
100
AcDbEntity
  8
Layer 1
370
     0
100
AcDb2dPolyline
 66
     1
 10
0.0
 20
0.0
 30
0.0
  0
VERTEX
  5
85
330
84
100
AcDbEntity
  8
Layer 1
370
     0
100
AcDbVertex
100
AcDb2dVertex
 10
1.690226236979167
 20
-3.287265353732639
 30
0.0
  0
VERTEX
  5
86
330
84
100
AcDbEntity
  8
Layer 1
370
     0
100
AcDbVertex
100
AcDb2dVertex
 10
2.127197265625
 20
-3.035237630208333
 30
0.0
  0
VERTEX
  5
87
330
84
100
AcDbEntity
  8
Layer 1
370
     0
100
AcDbVertex
100
AcDb2dVertex
 10
2.843485514322917
 20
-3.740776909722222
 30
0.0
  0
VERTEX
  5
88
330
84
100
AcDbEntity
  8
Layer 1
370
     0
100
AcDbVertex
100
AcDb2dVertex
 10
3.089850531684028
 20
-4.689439561631944
 30
0.0
  0
VERTEX
  5
89
330
84
100
AcDbEntity
  8
Layer 1
370
     0
100
AcDbVertex
100
AcDb2dVertex
 10
2.141323513454861
 20
-4.442884657118055
 30
0.0
  0
VERTEX
  5
8A
330
84
100
AcDbEntity
  8
Layer 1
370
     0
100
AcDbVertex
100
AcDb2dVertex
 10
1.436353895399306
 20
-3.727532280815972
 30
0.0
  0
VERTEX
  5
8B
330
84
100
AcDbEntity
  8
Layer 1
370
     0
100
AcDbVertex
100
AcDb2dVertex
 10
1.690226236979167
 20
-3.287265353732639
 30
0.0
  0
SEQEND
  5
8C
330
84
100
AcDbEntity
  8
Layer 1
370
     0
  0
POLYLINE
  5
8D
330
1F
100
AcDbEntity
  8
Layer 1
370
     0
100
AcDb2dPolyline
 66
     1
 10
0.0
 20
0.0
 30
0.0
  0
VERTEX
  5
8E
330
8D
100
AcDbEntity
  8
Layer 1
370
     0
100
AcDbVertex
100
AcDb2dVertex
 10
2.804022894965278
 20
-2.645833333333333
 30
0.0
  0
VERTEX
  5
8F
330
8D
100
AcDbEntity
  8
Layer 1
370
     0
100
AcDbVertex
100
AcDb2dVertex
 10
3.243537055121528
 20
-2.391377766927083
 30
0.0
  0
VERTEX
  5
90
330
8D
100
AcDbEntity
  8
Layer 1
370
     0
100
AcDbVertex
100
AcDb2dVertex
 10
3.748216417100694
 20
-2.391574435763889
 30
0.0
  0
VERTEX
  5
91
330
8D
100
AcDbEntity
  8
Layer 1
370
     0
100
AcDbVertex
100
AcDb2dVertex
 10
4.015475802951388
 20
-3.360663519965278
 30
0.0
  0
VERTEX
  5
92
330
8D
100
AcDbEntity
  8
Layer 1
370
     0
100
AcDbVertex
100
AcDb2dVertex
 10
3.754842122395833
 20
-4.305636935763888
 30
0.0
  0
VERTEX
  5
93
330
8D
100
AcDbEntity
  8
Layer 1
370
     0
100
AcDbVertex
100
AcDb2dVertex
 10
3.056233723958333
 20
-3.617655436197917
 30
0.0
  0
VERTEX
  5
94
330
8D
100
AcDbEntity
  8
Layer 1
370
     0
100
AcDbVertex
100
AcDb2dVertex
 10
2.804022894965278
 20
-2.645833333333333
 30
0.0
  0
SEQEND
  5
95
330
8D
100
AcDbEntity
  8
Layer 1
370
     0
  0
POLYLINE
  5
96
330
1F
100
AcDbEntity
  8
Layer 1
370
     0
100
AcDb2dPolyline
 66
     1
 10
0.0
 20
0.0
 30
0.0
  0
VERTEX
  5
97
330
96
100
AcDbEntity
  8
Layer 1
370
     0
100
AcDbVertex
100
AcDb2dVertex
 10
5.473795572916666
 20
-2.644558376736111
 30
0.0
  0
VERTEX
  5
98
330
96
100
AcDbEntity
  8
Layer 1
370
     0
100
AcDbVertex
100
AcDb2dVertex
 10
5.220798068576388
 20
-3.617655436197917
 30
0.0
  0
VERTEX
  5
99
330
96
100
AcDbEntity
  8
Layer 1
370
     0
100
AcDbVertex
100
AcDb2dVertex
 10
4.522325303819444
 20
-4.305636935763888
 30
0.0
  0
VERTEX
  5
9A
330
96
100
AcDbEntity
  8
Layer 1
370
     0
100
AcDbVertex
100
AcDb2dVertex
 10
4.261569552951388
 20
-3.360663519965278
 30
0.0
  0
VERTEX
  5
9B
330
96
100
AcDbEntity
  8
Layer 1
370
     0
100
AcDbVertex
100
AcDb2dVertex
 10
4.5289306640625
 20
-2.391187879774305
 30
0.0
  0
VERTEX
  5
9C
330
96
100
AcDbEntity
  8
Layer 1
370
     0
100
AcDbVertex
100
AcDb2dVertex
 10
5.0350341796875
 20
-2.391187879774305
 30
0.0
  0
VERTEX
  5
9D
330
96
100
AcDbEntity
  8
Layer 1
370
     0
100
AcDbVertex
100
AcDb2dVertex
 10
5.473795572916666
 20
-2.644558376736111
 30
0.0
  0
SEQEND
  5
9E
330
96
100
AcDbEntity
  8
Layer 1
370
     0
  0
POLYLINE
  5
9F
330
1F
100
AcDbEntity
  8
Layer 1
370
     0
100
AcDb2dPolyline
 66
     1
 10
0.0
 20
0.0
 30
0.0
  0
VERTEX
  5
A0
330
9F
100
AcDbEntity
  8
Layer 1
370
     0
100
AcDbVertex
100
AcDb2dVertex
 10
6.841457790798611
 20
-3.726006401909722
 30
0.0
  0
VERTEX
  5
A1
330
9F
100
AcDbEntity
  8
Layer 1
370
     0
100
AcDbVertex
100
AcDb2dVertex
 10
6.135715060763888
 20
-4.442884657118055
 30
0.0
  0
VERTEX
  5
A2
330
9F
100
AcDbEntity
  8
Layer 1
370
     0
100
AcDbVertex
100
AcDb2dVertex
 10
5.187310112847222
 20
-4.689439561631944
 30
0.0
  0
VERTEX
  5
A3
330
9F
100
AcDbEntity
  8
Layer 1
370
     0
100
AcDbVertex
100
AcDb2dVertex
 10
5.433553059895833
 20
-3.740715874565972
 30
0.0
  0
VERTEX
  5
A4
330
9F
100
AcDbEntity
  8
Layer 1
370
     0
100
AcDbVertex
100
AcDb2dVertex
 10
6.150485568576388
 20
-3.03466796875
 30
0.0
  0
VERTEX
  5
A5
330
9F
100
AcDbEntity
  8
Layer 1
370
     0
100
AcDbVertex
100
AcDb2dVertex
 10
6.588717990451388
 20
-3.2879638671875
 30
0.0
  0
VERTEX
  5
A6
330
9F
100
AcDbEntity
  8
Layer 1
370
     0
100
AcDbVertex
100
AcDb2dVertex
 10
6.841457790798611
 20
-3.726006401909722
 30
0.0
  0
SEQEND
  5
A7
330
9F
100
AcDbEntity
  8
Layer 1
370
     0
  0
POLYLINE
  5
A8
330
1F
100
AcDbEntity
  8
Layer 1
370
     0
100
AcDb2dPolyline
 66
     1
 10
0.0
 20
0.0
 30
0.0
  0
VERTEX
  5
A9
330
A8
100
AcDbEntity
  8
Layer 1
370
     0
100
AcDbVertex
100
AcDb2dVertex
 10
7.485541449652778
 20
-5.347100151909722
 30
0.0
  0
VERTEX
  5
AA
330
A8
100
AcDbEntity
  8
Layer 1
370
     0
100
AcDbVertex
100
AcDb2dVertex
 10
6.516140407986111
 20
-5.614854600694444
 30
0.0
  0
VERTEX
  5
AB
330
A8
100
AcDbEntity
  8
Layer 1
370
     0
100
AcDbVertex
100
AcDb2dVertex
 10
5.5714111328125
 20
-5.354295518663194
 30
0.0
  0
VERTEX
  5
AC
330
A8
100
AcDbEntity
  8
Layer 1
370
     0
100
AcDbVertex
100
AcDb2dVertex
 10
6.258951822916666
 20
-4.655897352430555
 30
0.0
  0
VERTEX
  5
AD
330
A8
100
AcDbEntity
  8
Layer 1
370
     0
100
AcDbVertex
100
AcDb2dVertex
 10
7.232557508680555
 20
-4.402838812934028
 30
0.0
  0
VERTEX
  5
AE
330
A8
100
AcDbEntity
  8
Layer 1
370
     0
100
AcDbVertex
100
AcDb2dVertex
 10
7.485541449652778
 20
-4.841206868489583
 30
0.0
  0
VERTEX
  5
AF
330
A8
100
AcDbEntity
  8
Layer 1
370
     0
100
AcDbVertex
100
AcDb2dVertex
 10
7.485541449652778
 20
-5.347100151909722
 30
0.0
  0
SEQEND
  5
B0
330
A8
100
AcDbEntity
  8
Layer 1
370
     0
  0
POLYLINE
  5
B1
330
1F
100
AcDbEntity
  8
Layer 1
370
     0
100
AcDb2dPolyline
 66
     1
 10
0.0
 20
0.0
 30
0.0
  0
VERTEX
  5
B2
330
B1
100
AcDbEntity
  8
Layer 1
370
     0
100
AcDbVertex
100
AcDb2dVertex
 10
4.4014892578125
 20
-6.718397352430555
 30
0.0
  0
VERTEX
  5
B3
330
B1
100
AcDbEntity
  8
Layer 1
370
     0
100
AcDbVertex
100
AcDb2dVertex
 10
4.138461642795138
 20
-6.459689670138888
 30
0.0
  0
VERTEX
  5
B4
330
B1
100
AcDbEntity
  8
Layer 1
370
     0
100
AcDbVertex
100
AcDb2dVertex
 10
3.876173231336805
 20
-6.718397352430555
 30
0.0
  0
VERTEX
  5
B5
330
B1
100
AcDbEntity
  8
Layer 1
370
     0
100
AcDbVertex
100
AcDb2dVertex
 10
3.77801513671875
 20
-6.363308376736111
 30
0.0
  0
VERTEX
  5
B6
330
B1
100
AcDbEntity
  8
Layer 1
370
     0
100
AcDbVertex
100
AcDb2dVertex
 10
3.421135796440972
 20
-6.455742730034721
 30
0.0
  0
VERTEX
  5
B7
330
B1
100
AcDbEntity
  8
Layer 1
370
     0
100
AcDbVertex
100
AcDb2dVertex
 10
3.513827853732639
 20
-6.098863389756944
 30
0.0
  0
VERTEX
  5
B8
330
B1
100
AcDbEntity
  8
Layer 1
370
     0
100
AcDbVertex
100
AcDb2dVertex
 10
3.158230251736111
 20
-6.000827365451388
 30
0.0
  0
VERTEX
  5
B9
330
B1
100
AcDbEntity
  8
Layer 1
370
     0
100
AcDbVertex
100
AcDb2dVertex
 10
3.417066786024305
 20
-5.738226996527778
 30
0.0
  0
VERTEX
  5
BA
330
B1
100
AcDbEntity
  8
Layer 1
370
     0
100
AcDbVertex
100
AcDb2dVertex
 10
3.158230251736111
 20
-5.475389268663194
 30
0.0
  0
VERTEX
  5
BB
330
B1
100
AcDbEntity
  8
Layer 1
370
     0
100
AcDbVertex
100
AcDb2dVertex
 10
3.513827853732639
 20
-5.377414279513888
 30
0.0
  0
VERTEX
  5
BC
330
B1
100
AcDbEntity
  8
Layer 1
370
     0
100
AcDbVertex
100
AcDb2dVertex
 10
3.421013726128472
 20
-5.020534939236111
 30
0.0
  0
VERTEX
  5
BD
330
B1
100
AcDbEntity
  8
Layer 1
370
     0
100
AcDbVertex
100
AcDb2dVertex
 10
3.77801513671875
 20
-5.11328125
 30
0.0
  0
VERTEX
  5
BE
330
B1
100
AcDbEntity
  8
Layer 1
370
     0
100
AcDbVertex
100
AcDb2dVertex
 10
3.876173231336805
 20
-4.757798936631944
 30
0.0
  0
VERTEX
  5
BF
330
B1
100
AcDbEntity
  8
Layer 1
370
     0
100
AcDbVertex
100
AcDb2dVertex
 10
4.138461642795138
 20
-5.016587999131944
 30
0.0
  0
VERTEX
  5
C0
330
B1
100
AcDbEntity
  8
Layer 1
370
     0
100
AcDbVertex
100
AcDb2dVertex
 10
4.4014892578125
 20
-4.757798936631944
 30
0.0
  0
VERTEX
  5
C1
330
B1
100
AcDbEntity
  8
Layer 1
370
     0
100
AcDbVertex
100
AcDb2dVertex
 10
4.499416775173611
 20
-5.11328125
 30
0.0
  0
VERTEX
  5
C2
330
B1
100
AcDbEntity
  8
Layer 1
370
     0
100
AcDbVertex
100
AcDb2dVertex
 10
4.856526692708333
 20
-5.020534939236111
 30
0.0
  0
VERTEX
  5
C3
330
B1
100
AcDbEntity
  8
Layer 1
370
     0
100
AcDbVertex
100
AcDb2dVertex
 10
4.763454861111111
 20
-5.377414279513888
 30
0.0
  0
VERTEX
  5
C4
330
B1
100
AcDbEntity
  8
Layer 1
370
     0
100
AcDbVertex
100
AcDb2dVertex
 10
5.119072808159722
 20
-5.475389268663194
 30
0.0
  0
VERTEX
  5
C5
330
B1
100
AcDbEntity
  8
Layer 1
370
     0
100
AcDbVertex
100
AcDb2dVertex
 10
4.860487196180555
 20
-5.738172743055555
 30
0.0
  0
VERTEX
  5
C6
330
B1
100
AcDbEntity
  8
Layer 1
370
     0
100
AcDbVertex
100
AcDb2dVertex
 10
5.119072808159722
 20
-6.000637478298611
 30
0.0
  0
VERTEX
  5
C7
330
B1
100
AcDbEntity
  8
Layer 1
370
     0
100
AcDbVertex
100
AcDb2dVertex
 10
4.763454861111111
 20
-6.098795572916666
 30
0.0
  0
VERTEX
  5
C8
330
B1
100
AcDbEntity
  8
Layer 1
370
     0
100
AcDbVertex
100
AcDb2dVertex
 10
4.856526692708333
 20
-6.455674913194444
 30
0.0
  0
VERTEX
  5
C9
330
B1
100
AcDbEntity
  8
Layer 1
370
     0
100
AcDbVertex
100
AcDb2dVertex
 10
4.499416775173611
 20
-6.362982855902778
 30
0.0
  0
VERTEX
  5
CA
330
B1
100
AcDbEntity
  8
Layer 1
370
     0
100
AcDbVertex
100
AcDb2dVertex
 10
4.4014892578125
 20
-6.718397352430555
 30
0.0
  0
SEQEND
  5
CB
330
B1
100
AcDbEntity
  8
Layer 1
370
     0
  0
POLYLINE
  5
CC
330
1F
100
AcDbEntity
  8
Layer 1
370
     0
100
AcDb2dPolyline
 66
     1
 10
0.0
 20
0.0
 30
0.0
  0
VERTEX
  5
CD
330
CC
100
AcDbEntity
  8
Layer 1
370
     0
100
AcDbVertex
100
AcDb2dVertex
 10
5.192911783854166
 20
-5.738172743055555
 30
0.0
  0
VERTEX
  5
CE
330
CC
100
AcDbEntity
  8
Layer 1
370
     0
100
AcDbVertex
100
AcDb2dVertex
 10
5.380723741319444
 20
-5.547634548611111
 30
0.0
  0
VERTEX
  5
CF
330
CC
100
AcDbEntity
  8
Layer 1
370
     0
100
AcDbVertex
100
AcDb2dVertex
 10
6.070014105902778
 20
-5.738172743055555
 30
0.0
  0
VERTEX
  5
D0
330
CC
100
AcDbEntity
  8
Layer 1
370
     0
100
AcDbVertex
100
AcDb2dVertex
 10
5.380723741319444
 20
-5.928507486979166
 30
0.0
  0
VERTEX
  5
D1
330
CC
100
AcDbEntity
  8
Layer 1
370
     0
100
AcDbVertex
100
AcDb2dVertex
 10
5.192911783854166
 20
-5.738172743055555
 30
0.0
  0
SEQEND
  5
D2
330
CC
100
AcDbEntity
  8
Layer 1
370
     0
  0
POLYLINE
  5
D3
330
1F
100
AcDbEntity
  8
Layer 1
370
     0
100
AcDb2dPolyline
 66
     1
 10
0.0
 20
0.0
 30
0.0
  0
VERTEX
  5
D4
330
D3
100
AcDbEntity
  8
Layer 1
370
     0
100
AcDbVertex
100
AcDb2dVertex
 10
5.309800889756944
 20
-5.281907823350694
 30
0.0
  0
VERTEX
  5
D5
330
D3
100
AcDbEntity
  8
Layer 1
370
     0
100
AcDbVertex
100
AcDb2dVertex
 10
5.051974826388888
 20
-5.210991753472222
 30
0.0
  0
VERTEX
  5
D6
330
D3
100
AcDbEntity
  8
Layer 1
370
     0
100
AcDbVertex
100
AcDb2dVertex
 10
5.119072808159722
 20
-4.952107747395833
 30
0.0
  0
VERTEX
  5
D7
330
D3
100
AcDbEntity
  8
Layer 1
370
     0
100
AcDbVertex
100
AcDb2dVertex
 10
5.811428493923611
 20
-4.772257486979166
 30
0.0
  0
VERTEX
  5
D8
330
D3
100
AcDbEntity
  8
Layer 1
370
     0
100
AcDbVertex
100
AcDb2dVertex
 10
5.309800889756944
 20
-5.281907823350694
 30
0.0
  0
SEQEND
  5
D9
330
D3
100
AcDbEntity
  8
Layer 1
370
     0
  0
POLYLINE
  5
DA
330
1F
100
AcDbEntity
  8
Layer 1
370
     0
100
AcDb2dPolyline
 66
     1
 10
0.0
 20
0.0
 30
0.0
  0
VERTEX
  5
DB
330
DA
100
AcDbEntity
  8
Layer 1
370
     0
100
AcDbVertex
100
AcDb2dVertex
 10
4.924655490451388
 20
-4.75775146484375
 30
0.0
  0
VERTEX
  5
DC
330
DA
100
AcDbEntity
  8
Layer 1
370
     0
100
AcDbVertex
100
AcDb2dVertex
 10
4.665812174479166
 20
-4.824971516927083
 30
0.0
  0
VERTEX
  5
DD
330
DA
100
AcDbEntity
  8
Layer 1
370
     0
100
AcDbVertex
100
AcDb2dVertex
 10
4.594767252604166
 20
-4.567274305555555
 30
0.0
  0
VERTEX
  5
DE
330
DA
100
AcDbEntity
  8
Layer 1
370
     0
100
AcDbVertex
100
AcDb2dVertex
 10
5.104804144965278
 20
-4.064934624565972
 30
0.0
  0
VERTEX
  5
DF
330
DA
100
AcDbEntity
  8
Layer 1
370
     0
100
AcDbVertex
100
AcDb2dVertex
 10
4.924655490451388
 20
-4.75775146484375
 30
0.0
  0
SEQEND
  5
E0
330
DA
100
AcDbEntity
  8
Layer 1
370
     0
  0
POLYLINE
  5
E1
330
1F
100
AcDbEntity
  8
Layer 1
370
     0
100
AcDb2dPolyline
 66
     1
 10
0.0
 20
0.0
 30
0.0
  0
VERTEX
  5
E2
330
E1
100
AcDbEntity
  8
Layer 1
370
     0
100
AcDbVertex
100
AcDb2dVertex
 10
4.329182942708333
 20
-4.49603271484375
 30
0.0
  0
VERTEX
  5
E3
330
E1
100
AcDbEntity
  8
Layer 1
370
     0
100
AcDbVertex
100
AcDb2dVertex
 10
4.138461642795138
 20
-4.683586968315972
 30
0.0
  0
VERTEX
  5
E4
330
E1
100
AcDbEntity
  8
Layer 1
370
     0
100
AcDbVertex
100
AcDb2dVertex
 10
3.948248969184028
 20
-4.49603271484375
 30
0.0
  0
VERTEX
  5
E5
330
E1
100
AcDbEntity
  8
Layer 1
370
     0
100
AcDbVertex
100
AcDb2dVertex
 10
4.138461642795138
 20
-3.806226942274305
 30
0.0
  0
VERTEX
  5
E6
330
E1
100
AcDbEntity
  8
Layer 1
370
     0
100
AcDbVertex
100
AcDb2dVertex
 10
4.329182942708333
 20
-4.49603271484375
 30
0.0
  0
SEQEND
  5
E7
330
E1
100
AcDbEntity
  8
Layer 1
370
     0
  0
POLYLINE
  5
E8
330
1F
100
AcDbEntity
  8
Layer 1
370
     0
100
AcDb2dPolyline
 66
     1
 10
0.0
 20
0.0
 30
0.0
  0
VERTEX
  5
E9
330
E8
100
AcDbEntity
  8
Layer 1
370
     0
100
AcDbVertex
100
AcDb2dVertex
 10
3.682644314236111
 20
-4.567274305555555
 30
0.0
  0
VERTEX
  5
EA
330
E8
100
AcDbEntity
  8
Layer 1
370
     0
100
AcDbVertex
100
AcDb2dVertex
 10
3.611470540364583
 20
-4.824971516927083
 30
0.0
  0
VERTEX
  5
EB
330
E8
100
AcDbEntity
  8
Layer 1
370
     0
100
AcDbVertex
100
AcDb2dVertex
 10
3.352634006076389
 20
-4.75775146484375
 30
0.0
  0
VERTEX
  5
EC
330
E8
100
AcDbEntity
  8
Layer 1
370
     0
100
AcDbVertex
100
AcDb2dVertex
 10
3.172858344184028
 20
-4.064934624565972
 30
0.0
  0
VERTEX
  5
ED
330
E8
100
AcDbEntity
  8
Layer 1
370
     0
100
AcDbVertex
100
AcDb2dVertex
 10
3.682644314236111
 20
-4.567274305555555
 30
0.0
  0
SEQEND
  5
EE
330
E8
100
AcDbEntity
  8
Layer 1
370
     0
  0
POLYLINE
  5
EF
330
1F
100
AcDbEntity
  8
Layer 1
370
     0
100
AcDb2dPolyline
 66
     1
 10
0.0
 20
0.0
 30
0.0
  0
VERTEX
  5
F0
330
EF
100
AcDbEntity
  8
Layer 1
370
     0
100
AcDbVertex
100
AcDb2dVertex
 10
3.158230251736111
 20
-4.952107747395833
 30
0.0
  0
VERTEX
  5
F1
330
EF
100
AcDbEntity
  8
Layer 1
370
     0
100
AcDbVertex
100
AcDb2dVertex
 10
3.225572374131944
 20
-5.210991753472222
 30
0.0
  0
VERTEX
  5
F2
330
EF
100
AcDbEntity
  8
Layer 1
370
     0
100
AcDbVertex
100
AcDb2dVertex
 10
2.967753092447917
 20
-5.282118055555555
 30
0.0
  0
VERTEX
  5
F3
330
EF
100
AcDbEntity
  8
Layer 1
370
     0
100
AcDbVertex
100
AcDb2dVertex
 10
2.465732150607639
 20
-4.772257486979166
 30
0.0
  0
VERTEX
  5
F4
330
EF
100
AcDbEntity
  8
Layer 1
370
     0
100
AcDbVertex
100
AcDb2dVertex
 10
3.158230251736111
 20
-4.952107747395833
 30
0.0
  0
SEQEND
  5
F5
330
EF
100
AcDbEntity
  8
Layer 1
370
     0
  0
POLYLINE
  5
F6
330
1F
100
AcDbEntity
  8
Layer 1
370
     0
100
AcDb2dPolyline
 66
     1
 10
0.0
 20
0.0
 30
0.0
  0
VERTEX
  5
F7
330
F6
100
AcDbEntity
  8
Layer 1
370
     0
100
AcDbVertex
100
AcDb2dVertex
 10
2.705864800347222
 20
-5.354295518663194
 30
0.0
  0
VERTEX
  5
F8
330
F6
100
AcDbEntity
  8
Layer 1
370
     0
100
AcDbVertex
100
AcDb2dVertex
 10
1.761528862847222
 20
-5.615044487847222
 30
0.0
  0
VERTEX
  5
F9
330
F6
100
AcDbEntity
  8
Layer 1
370
     0
100
AcDbVertex
100
AcDb2dVertex
 10
0.79339599609375
 20
-5.348063151041666
 30
0.0
  0
VERTEX
  5
FA
330
F6
100
AcDbEntity
  8
Layer 1
370
     0
100
AcDbVertex
100
AcDb2dVertex
 10
0.792812771267361
 20
-4.839931911892361
 30
0.0
  0
VERTEX
  5
FB
330
F6
100
AcDbEntity
  8
Layer 1
370
     0
100
AcDbVertex
100
AcDb2dVertex
 10
1.045037163628472
 20
-4.402974446614583
 30
0.0
  0
VERTEX
  5
FC
330
F6
100
AcDbEntity
  8
Layer 1
370
     0
100
AcDbVertex
100
AcDb2dVertex
 10
2.018202039930555
 20
-4.655897352430555
 30
0.0
  0
VERTEX
  5
FD
330
F6
100
AcDbEntity
  8
Layer 1
370
     0
100
AcDbVertex
100
AcDb2dVertex
 10
2.705864800347222
 20
-5.354295518663194
 30
0.0
  0
SEQEND
  5
FE
330
F6
100
AcDbEntity
  8
Layer 1
370
     0
  0
POLYLINE
  5
FF
330
1F
100
AcDbEntity
  8
Layer 1
370
     0
100
AcDb2dPolyline
 66
     1
 10
0.0
 20
0.0
 30
0.0
  0
VERTEX
  5
100
330
FF
100
AcDbEntity
  8
Layer 1
370
     0
100
AcDbVertex
100
AcDb2dVertex
 10
2.896457248263889
 20
-5.547634548611111
 30
0.0
  0
VERTEX
  5
101
330
FF
100
AcDbEntity
  8
Layer 1
370
     0
100
AcDbVertex
100
AcDb2dVertex
 10
3.084255642361111
 20
-5.738226996527778
 30
0.0
  0
VERTEX
  5
102
330
FF
100
AcDbEntity
  8
Layer 1
370
     0
100
AcDbVertex
100
AcDb2dVertex
 10
2.896457248263889
 20
-5.928507486979166
 30
0.0
  0
VERTEX
  5
103
330
FF
100
AcDbEntity
  8
Layer 1
370
     0
100
AcDbVertex
100
AcDb2dVertex
 10
2.206637912326389
 20
-5.738226996527778
 30
0.0
  0
VERTEX
  5
104
330
FF
100
AcDbEntity
  8
Layer 1
370
     0
100
AcDbVertex
100
AcDb2dVertex
 10
2.896457248263889
 20
-5.547634548611111
 30
0.0
  0
SEQEND
  5
105
330
FF
100
AcDbEntity
  8
Layer 1
370
     0
  0
POLYLINE
  5
106
330
1F
100
AcDbEntity
  8
Layer 1
370
     0
100
AcDb2dPolyline
 66
     1
 10
0.0
 20
0.0
 30
0.0
  0
VERTEX
  5
107
330
106
100
AcDbEntity
  8
Layer 1
370
     0
100
AcDbVertex
100
AcDb2dVertex
 10
2.706102159288194
 20
-6.122043185763888
 30
0.0
  0
VERTEX
  5
108
330
106
100
AcDbEntity
  8
Layer 1
370
     0
100
AcDbVertex
100
AcDb2dVertex
 10
2.018202039930555
 20
-6.820380316840278
 30
0.0
  0
VERTEX
  5
109
330
106
100
AcDbEntity
  8
Layer 1
370
     0
100
AcDbVertex
100
AcDb2dVertex
 10
1.046312120225694
 20
-7.072781032986111
 30
0.0
  0
VERTEX
  5
10A
330
106
100
AcDbEntity
  8
Layer 1
370
     0
100
AcDbVertex
100
AcDb2dVertex
 10
0.7915445963541666
 20
-6.632581922743055
 30
0.0
  0
VERTEX
  5
10B
330
106
100
AcDbEntity
  8
Layer 1
370
     0
100
AcDbVertex
100
AcDb2dVertex
 10
0.7915445963541666
 20
-6.128974066840278
 30
0.0
  0
VERTEX
  5
10C
330
106
100
AcDbEntity
  8
Layer 1
370
     0
100
AcDbVertex
100
AcDb2dVertex
 10
1.761528862847222
 20
-5.861219618055555
 30
0.0
  0
VERTEX
  5
10D
330
106
100
AcDbEntity
  8
Layer 1
370
     0
100
AcDbVertex
100
AcDb2dVertex
 10
2.706102159288194
 20
-6.122043185763888
 30
0.0
  0
SEQEND
  5
10E
330
106
100
AcDbEntity
  8
Layer 1
370
     0
  0
POLYLINE
  5
10F
330
1F
100
AcDbEntity
  8
Layer 1
370
     0
100
AcDb2dPolyline
 66
     1
 10
0.0
 20
0.0
 30
0.0
  0
VERTEX
  5
110
330
10F
100
AcDbEntity
  8
Layer 1
370
     0
100
AcDbVertex
100
AcDb2dVertex
 10
2.967753092447917
 20
-6.194349500868055
 30
0.0
  0
VERTEX
  5
111
330
10F
100
AcDbEntity
  8
Layer 1
370
     0
100
AcDbVertex
100
AcDb2dVertex
 10
3.225572374131944
 20
-6.265530056423611
 30
0.0
  0
VERTEX
  5
112
330
10F
100
AcDbEntity
  8
Layer 1
370
     0
100
AcDbVertex
100
AcDb2dVertex
 10
3.158230251736111
 20
-6.524102105034721
 30
0.0
  0
VERTEX
  5
113
330
10F
100
AcDbEntity
  8
Layer 1
370
     0
100
AcDbVertex
100
AcDb2dVertex
 10
2.465732150607639
 20
-6.704020182291666
 30
0.0
  0
VERTEX
  5
114
330
10F
100
AcDbEntity
  8
Layer 1
370
     0
100
AcDbVertex
100
AcDb2dVertex
 10
2.967753092447917
 20
-6.194349500868055
 30
0.0
  0
SEQEND
  5
115
330
10F
100
AcDbEntity
  8
Layer 1
370
     0
  0
POLYLINE
  5
116
330
1F
100
AcDbEntity
  8
Layer 1
370
     0
100
AcDb2dPolyline
 66
     1
 10
0.0
 20
0.0
 30
0.0
  0
VERTEX
  5
117
330
116
100
AcDbEntity
  8
Layer 1
370
     0
100
AcDbVertex
100
AcDb2dVertex
 10
3.352634006076389
 20
-6.718587239583333
 30
0.0
  0
VERTEX
  5
118
330
116
100
AcDbEntity
  8
Layer 1
370
     0
100
AcDbVertex
100
AcDb2dVertex
 10
3.611470540364583
 20
-6.651502821180555
 30
0.0
  0
VERTEX
  5
119
330
116
100
AcDbEntity
  8
Layer 1
370
     0
100
AcDbVertex
100
AcDb2dVertex
 10
3.682644314236111
 20
-6.909003363715278
 30
0.0
  0
VERTEX
  5
11A
330
116
100
AcDbEntity
  8
Layer 1
370
     0
100
AcDbVertex
100
AcDb2dVertex
 10
3.173116048177083
 20
-7.411078559027778
 30
0.0
  0
VERTEX
  5
11B
330
116
100
AcDbEntity
  8
Layer 1
370
     0
100
AcDbVertex
100
AcDb2dVertex
 10
3.352634006076389
 20
-6.718587239583333
 30
0.0
  0
SEQEND
  5
11C
330
116
100
AcDbEntity
  8
Layer 1
370
     0
  0
POLYLINE
  5
11D
330
1F
100
AcDbEntity
  8
Layer 1
370
     0
100
AcDb2dPolyline
 66
     1
 10
0.0
 20
0.0
 30
0.0
  0
VERTEX
  5
11E
330
11D
100
AcDbEntity
  8
Layer 1
370
     0
100
AcDbVertex
100
AcDb2dVertex
 10
3.948248969184028
 20
-6.980116102430555
 30
0.0
  0
VERTEX
  5
11F
330
11D
100
AcDbEntity
  8
Layer 1
370
     0
100
AcDbVertex
100
AcDb2dVertex
 10
4.138461642795138
 20
-6.792616102430555
 30
0.0
  0
VERTEX
  5
120
330
11D
100
AcDbEntity
  8
Layer 1
370
     0
100
AcDbVertex
100
AcDb2dVertex
 10
4.329182942708333
 20
-6.980116102430555
 30
0.0
  0
VERTEX
  5
121
330
11D
100
AcDbEntity
  8
Layer 1
370
     0
100
AcDbVertex
100
AcDb2dVertex
 10
4.138461642795138
 20
-7.6697998046875
 30
0.0
  0
VERTEX
  5
122
330
11D
100
AcDbEntity
  8
Layer 1
370
     0
100
AcDbVertex
100
AcDb2dVertex
 10
3.948248969184028
 20
-6.980116102430555
 30
0.0
  0
SEQEND
  5
123
330
11D
100
AcDbEntity
  8
Layer 1
370
     0
  0
POLYLINE
  5
124
330
1F
100
AcDbEntity
  8
Layer 1
370
     0
100
AcDb2dPolyline
 66
     1
 10
0.0
 20
0.0
 30
0.0
  0
VERTEX
  5
125
330
124
100
AcDbEntity
  8
Layer 1
370
     0
100
AcDbVertex
100
AcDb2dVertex
 10
4.594767252604166
 20
-6.909003363715278
 30
0.0
  0
VERTEX
  5
126
330
124
100
AcDbEntity
  8
Layer 1
370
     0
100
AcDbVertex
100
AcDb2dVertex
 10
4.665812174479166
 20
-6.651231553819444
 30
0.0
  0
VERTEX
  5
127
330
124
100
AcDbEntity
  8
Layer 1
370
     0
100
AcDbVertex
100
AcDb2dVertex
 10
4.924655490451388
 20
-6.718587239583333
 30
0.0
  0
VERTEX
  5
128
330
124
100
AcDbEntity
  8
Layer 1
370
     0
100
AcDbVertex
100
AcDb2dVertex
 10
5.104804144965278
 20
-7.410956488715278
 30
0.0
  0
VERTEX
  5
129
330
124
100
AcDbEntity
  8
Layer 1
370
     0
100
AcDbVertex
100
AcDb2dVertex
 10
4.594767252604166
 20
-6.909003363715278
 30
0.0
  0
SEQEND
  5
12A
330
124
100
AcDbEntity
  8
Layer 1
370
     0
  0
POLYLINE
  5
12B
330
1F
100
AcDbEntity
  8
Layer 1
370
     0
100
AcDb2dPolyline
 66
     1
 10
0.0
 20
0.0
 30
0.0
  0
VERTEX
  5
12C
330
12B
100
AcDbEntity
  8
Layer 1
370
     0
100
AcDbVertex
100
AcDb2dVertex
 10
5.119072808159722
 20
-6.523844401041666
 30
0.0
  0
VERTEX
  5
12D
330
12B
100
AcDbEntity
  8
Layer 1
370
     0
100
AcDbVertex
100
AcDb2dVertex
 10
5.051974826388888
 20
-6.265272352430555
 30
0.0
  0
VERTEX
  5
12E
330
12B
100
AcDbEntity
  8
Layer 1
370
     0
100
AcDbVertex
100
AcDb2dVertex
 10
5.309800889756944
 20
-6.194159613715278
 30
0.0
  0
VERTEX
  5
12F
330
12B
100
AcDbEntity
  8
Layer 1
370
     0
100
AcDbVertex
100
AcDb2dVertex
 10
5.811292860243055
 20
-6.703952365451388
 30
0.0
  0
VERTEX
  5
130
330
12B
100
AcDbEntity
  8
Layer 1
370
     0
100
AcDbVertex
100
AcDb2dVertex
 10
5.119072808159722
 20
-6.523844401041666
 30
0.0
  0
SEQEND
  5
131
330
12B
100
AcDbEntity
  8
Layer 1
370
     0
  0
POLYLINE
  5
132
330
1F
100
AcDbEntity
  8
Layer 1
370
     0
100
AcDb2dPolyline
 66
     1
 10
0.0
 20
0.0
 30
0.0
  0
VERTEX
  5
133
330
132
100
AcDbEntity
  8
Layer 1
370
     0
100
AcDbVertex
100
AcDb2dVertex
 10
5.5714111328125
 20
-6.122043185763888
 30
0.0
  0
VERTEX
  5
134
330
132
100
AcDbEntity
  8
Layer 1
370
     0
100
AcDbVertex
100
AcDb2dVertex
 10
6.516140407986111
 20
-5.860955132378472
 30
0.0
  0
VERTEX
  5
135
330
132
100
AcDbEntity
  8
Layer 1
370
     0
100
AcDbVertex
100
AcDb2dVertex
 10
7.485541449652778
 20
-6.128594292534722
 30
0.0
  0
VERTEX
  5
136
330
132
100
AcDbEntity
  8
Layer 1
370
     0
100
AcDbVertex
100
AcDb2dVertex
 10
7.485541449652778
 20
-6.634874131944444
 30
0.0
  0
VERTEX
  5
137
330
132
100
AcDbEntity
  8
Layer 1
370
     0
100
AcDbVertex
100
AcDb2dVertex
 10
7.232828776041666
 20
-7.072998046875
 30
0.0
  0
VERTEX
  5
138
330
132
100
AcDbEntity
  8
Layer 1
370
     0
100
AcDbVertex
100
AcDb2dVertex
 10
6.258951822916666
 20
-6.820054796006944
 30
0.0
  0
VERTEX
  5
139
330
132
100
AcDbEntity
  8
Layer 1
370
     0
100
AcDbVertex
100
AcDb2dVertex
 10
5.5714111328125
 20
-6.122043185763888
 30
0.0
  0
SEQEND
  5
13A
330
132
100
AcDbEntity
  8
Layer 1
370
     0
  0
POLYLINE
  5
13B
330
1F
100
AcDbEntity
  8
Layer 1
370
     0
100
AcDb2dPolyline
 66
     1
 10
0.0
 20
0.0
 30
0.0
  0
VERTEX
  5
13C
330
13B
100
AcDbEntity
  8
Layer 1
370
     0
100
AcDbVertex
100
AcDb2dVertex
 10
7.485541449652778
 20
-3.805718315972222
 30
0.0
  0
VERTEX
  5
13D
330
13B
100
AcDbEntity
  8
Layer 1
370
     0
100
AcDbVertex
100
AcDb2dVertex
 10
7.485541449652778
 20
-4.366997612847222
 30
0.0
  0
VERTEX
  5
13E
330
13B
100
AcDbEntity
  8
Layer 1
370
     0
100
AcDbVertex
100
AcDb2dVertex
 10
7.347683376736111
 20
-4.127834743923611
 30
0.0
  0
VERTEX
  5
13F
330
13B
100
AcDbEntity
  8
Layer 1
370
     0
100
AcDbVertex
100
AcDb2dVertex
 10
6.583509657118055
 20
-4.326449924045138
 30
0.0
  0
VERTEX
  5
140
330
13B
100
AcDbEntity
  8
Layer 1
370
     0
100
AcDbVertex
100
AcDb2dVertex
 10
7.137451171875
 20
-3.763699001736111
 30
0.0
  0
VERTEX
  5
141
330
13B
100
AcDbEntity
  8
Layer 1
370
     0
100
AcDbVertex
100
AcDb2dVertex
 10
6.999308268229166
 20
-3.524976942274305
 30
0.0
  0
VERTEX
  5
142
330
13B
100
AcDbEntity
  8
Layer 1
370
     0
100
AcDbVertex
100
AcDb2dVertex
 10
7.485541449652778
 20
-3.805718315972222
 30
0.0
  0
SEQEND
  5
143
330
13B
100
AcDbEntity
  8
Layer 1
370
     0
  0
POLYLINE
  5
144
330
1F
100
AcDbEntity
  8
Layer 1
370
     0
100
AcDb2dPolyline
 66
     1
 10
0.0
 20
0.0
 30
0.0
  0
VERTEX
  5
145
330
144
100
AcDbEntity
  8
Layer 1
370
     0
100
AcDbVertex
100
AcDb2dVertex
 10
6.070909288194444
 20
-2.391187879774305
 30
0.0
  0
VERTEX
  5
146
330
144
100
AcDbEntity
  8
Layer 1
370
     0
100
AcDbVertex
100
AcDb2dVertex
 10
6.351643880208333
 20
-2.877237955729167
 30
0.0
  0
VERTEX
  5
147
330
144
100
AcDbEntity
  8
Layer 1
370
     0
100
AcDbVertex
100
AcDb2dVertex
 10
6.112413194444444
 20
-2.739095052083333
 30
0.0
  0
VERTEX
  5
148
330
144
100
AcDbEntity
  8
Layer 1
370
     0
100
AcDbVertex
100
AcDb2dVertex
 10
5.549913194444444
 20
-3.293185763888889
 30
0.0
  0
VERTEX
  5
149
330
144
100
AcDbEntity
  8
Layer 1
370
     0
100
AcDbVertex
100
AcDb2dVertex
 10
5.748792860243055
 20
-2.529527452256944
 30
0.0
  0
VERTEX
  5
14A
330
144
100
AcDbEntity
  8
Layer 1
370
     0
100
AcDbVertex
100
AcDb2dVertex
 10
5.509060329861111
 20
-2.391187879774305
 30
0.0
  0
VERTEX
  5
14B
330
144
100
AcDbEntity
  8
Layer 1
370
     0
100
AcDbVertex
100
AcDb2dVertex
 10
6.070909288194444
 20
-2.391187879774305
 30
0.0
  0
SEQEND
  5
14C
330
144
100
AcDbEntity
  8
Layer 1
370
     0
  0
POLYLINE
  5
14D
330
1F
100
AcDbEntity
  8
Layer 1
370
     0
100
AcDb2dPolyline
 66
     1
 10
0.0
 20
0.0
 30
0.0
  0
VERTEX
  5
14E
330
14D
100
AcDbEntity
  8
Layer 1
370
     0
100
AcDbVertex
100
AcDb2dVertex
 10
4.138461642795138
 20
-1.873385959201389
 30
0.0
  0
VERTEX
  5
14F
330
14D
100
AcDbEntity
  8
Layer 1
370
     0
100
AcDbVertex
100
AcDb2dVertex
 10
4.624443901909722
 20
-2.153998480902778
 30
0.0
  0
VERTEX
  5
150
330
14D
100
AcDbEntity
  8
Layer 1
370
     0
100
AcDbVertex
100
AcDb2dVertex
 10
4.348280164930555
 20
-2.153998480902778
 30
0.0
  0
VERTEX
  5
151
330
14D
100
AcDbEntity
  8
Layer 1
370
     0
100
AcDbVertex
100
AcDb2dVertex
 10
4.138461642795138
 20
-2.915045844184028
 30
0.0
  0
VERTEX
  5
152
330
14D
100
AcDbEntity
  8
Layer 1
370
     0
100
AcDbVertex
100
AcDb2dVertex
 10
3.928371853298611
 20
-2.154439290364583
 30
0.0
  0
VERTEX
  5
153
330
14D
100
AcDbEntity
  8
Layer 1
370
     0
100
AcDbVertex
100
AcDb2dVertex
 10
3.653245713975694
 20
-2.154188368055555
 30
0.0
  0
VERTEX
  5
154
330
14D
100
AcDbEntity
  8
Layer 1
370
     0
100
AcDbVertex
100
AcDb2dVertex
 10
4.138461642795138
 20
-1.873385959201389
 30
0.0
  0
SEQEND
  5
155
330
14D
100
AcDbEntity
  8
Layer 1
370
     0
  0
POLYLINE
  5
156
330
1F
100
AcDbEntity
  8
Layer 1
370
     0
100
AcDb2dPolyline
 66
     1
 10
0.0
 20
0.0
 30
0.0
  0
VERTEX
  5
157
330
156
100
AcDbEntity
  8
Layer 1
370
     0
100
AcDbVertex
100
AcDb2dVertex
 10
2.206386990017361
 20
-2.391187879774305
 30
0.0
  0
VERTEX
  5
158
330
156
100
AcDbEntity
  8
Layer 1
370
     0
100
AcDbVertex
100
AcDb2dVertex
 10
2.770155164930555
 20
-2.391316731770833
 30
0.0
  0
VERTEX
  5
159
330
156
100
AcDbEntity
  8
Layer 1
370
     0
100
AcDbVertex
100
AcDb2dVertex
 10
2.528754340277778
 20
-2.530924479166667
 30
0.0
  0
VERTEX
  5
15A
330
156
100
AcDbEntity
  8
Layer 1
370
     0
100
AcDbVertex
100
AcDb2dVertex
 10
2.726996527777778
 20
-3.293382432725694
 30
0.0
  0
VERTEX
  5
15B
330
156
100
AcDbEntity
  8
Layer 1
370
     0
100
AcDbVertex
100
AcDb2dVertex
 10
2.164747450086805
 20
-2.739542643229167
 30
0.0
  0
VERTEX
  5
15C
330
156
100
AcDbEntity
  8
Layer 1
370
     0
100
AcDbVertex
100
AcDb2dVertex
 10
1.926534016927083
 20
-2.877109103732639
 30
0.0
  0
VERTEX
  5
15D
330
156
100
AcDbEntity
  8
Layer 1
370
     0
100
AcDbVertex
100
AcDb2dVertex
 10
2.206386990017361
 20
-2.391187879774305
 30
0.0
  0
SEQEND
  5
15E
330
156
100
AcDbEntity
  8
Layer 1
370
     0
  0
POLYLINE
  5
15F
330
1F
100
AcDbEntity
  8
Layer 1
370
     0
100
AcDb2dPolyline
 66
     1
 10
0.0
 20
0.0
 30
0.0
  0
VERTEX
  5
160
330
15F
100
AcDbEntity
  8
Layer 1
370
     0
100
AcDbVertex
100
AcDb2dVertex
 10
0.7918565538194444
 20
-3.805718315972222
 30
0.0
  0
VERTEX
  5
161
330
15F
100
AcDbEntity
  8
Layer 1
370
     0
100
AcDbVertex
100
AcDb2dVertex
 10
1.280388726128472
 20
-3.523952907986111
 30
0.0
  0
VERTEX
  5
162
330
15F
100
AcDbEntity
  8
Layer 1
370
     0
100
AcDbVertex
100
AcDb2dVertex
 10
1.141160753038194
 20
-3.765475802951389
 30
0.0
  0
VERTEX
  5
163
330
15F
100
AcDbEntity
  8
Layer 1
370
     0
100
AcDbVertex
100
AcDb2dVertex
 10
1.693671332465278
 20
-4.326571994357638
 30
0.0
  0
VERTEX
  5
164
330
15F
100
AcDbEntity
  8
Layer 1
370
     0
100
AcDbVertex
100
AcDb2dVertex
 10
0.9300062391493055
 20
-4.128214518229166
 30
0.0
  0
VERTEX
  5
165
330
15F
100
AcDbEntity
  8
Layer 1
370
     0
100
AcDbVertex
100
AcDb2dVertex
 10
0.7923041449652777
 20
-4.366617838541666
 30
0.0
  0
VERTEX
  5
166
330
15F
100
AcDbEntity
  8
Layer 1
370
     0
100
AcDbVertex
100
AcDb2dVertex
 10
0.7918565538194444
 20
-3.805718315972222
 30
0.0
  0
SEQEND
  5
167
330
15F
100
AcDbEntity
  8
Layer 1
370
     0
  0
POLYLINE
  5
168
330
1F
100
AcDbEntity
  8
Layer 1
370
     0
100
AcDb2dPolyline
 66
     1
 10
0.0
 20
0.0
 30
0.0
  0
VERTEX
  5
169
330
168
100
AcDbEntity
  8
Layer 1
370
     0
100
AcDbVertex
100
AcDb2dVertex
 10
0.27392578125
 20
-5.738172743055555
 30
0.0
  0
VERTEX
  5
16A
330
168
100
AcDbEntity
  8
Layer 1
370
     0
100
AcDbVertex
100
AcDb2dVertex
 10
0.5560641818576388
 20
-5.249715169270833
 30
0.0
  0
VERTEX
  5
16B
330
168
100
AcDbEntity
  8
Layer 1
370
     0
100
AcDbVertex
100
AcDb2dVertex
 10
0.5562608506944444
 20
-5.528530544704861
 30
0.0
  0
VERTEX
  5
16C
330
168
100
AcDbEntity
  8
Layer 1
370
     0
100
AcDbVertex
100
AcDb2dVertex
 10
1.315775553385417
 20
-5.738226996527778
 30
0.0
  0
VERTEX
  5
16D
330
168
100
AcDbEntity
  8
Layer 1
370
     0
100
AcDbVertex
100
AcDb2dVertex
 10
0.5546671549479166
 20
-5.948445638020833
 30
0.0
  0
VERTEX
  5
16E
330
168
100
AcDbEntity
  8
Layer 1
370
     0
100
AcDbVertex
100
AcDb2dVertex
 10
0.554348415798611
 20
-6.222873263888888
 30
0.0
  0
VERTEX
  5
16F
330
168
100
AcDbEntity
  8
Layer 1
370
     0
100
AcDbVertex
100
AcDb2dVertex
 10
0.27392578125
 20
-5.738172743055555
 30
0.0
  0
SEQEND
  5
170
330
168
100
AcDbEntity
  8
Layer 1
370
     0
  0
POLYLINE
  5
171
330
1F
100
AcDbEntity
  8
Layer 1
370
     0
100
AcDb2dPolyline
 66
     1
 10
0.0
 20
0.0
 30
0.0
  0
VERTEX
  5
172
330
171
100
AcDbEntity
  8
Layer 1
370
     0
100
AcDbVertex
100
AcDb2dVertex
 10
0.7915445963541666
 20
-7.670437282986111
 30
0.0
  0
VERTEX
  5
173
330
171
100
AcDbEntity
  8
Layer 1
370
     0
100
AcDbVertex
100
AcDb2dVertex
 10
0.7915445963541666
 20
-7.106092664930555
 30
0.0
  0
VERTEX
  5
174
330
171
100
AcDbEntity
  8
Layer 1
370
     0
100
AcDbVertex
100
AcDb2dVertex
 10
0.9313422309027777
 20
-7.347669813368055
 30
0.0
  0
VERTEX
  5
175
330
171
100
AcDbEntity
  8
Layer 1
370
     0
100
AcDbVertex
100
AcDb2dVertex
 10
1.693793402777778
 20
-7.149685329861111
 30
0.0
  0
VERTEX
  5
176
330
171
100
AcDbEntity
  8
Layer 1
370
     0
100
AcDbVertex
100
AcDb2dVertex
 10
1.139763726128472
 20
-7.712307400173611
 30
0.0
  0
VERTEX
  5
177
330
171
100
AcDbEntity
  8
Layer 1
370
     0
100
AcDbVertex
100
AcDb2dVertex
 10
1.277452256944444
 20
-7.9510498046875
 30
0.0
  0
VERTEX
  5
178
330
171
100
AcDbEntity
  8
Layer 1
370
     0
100
AcDbVertex
100
AcDb2dVertex
 10
0.7915445963541666
 20
-7.670437282986111
 30
0.0
  0
SEQEND
  5
179
330
171
100
AcDbEntity
  8
Layer 1
370
     0
  0
POLYLINE
  5
17A
330
1F
100
AcDbEntity
  8
Layer 1
370
     0
100
AcDb2dPolyline
 66
     1
 10
0.0
 20
0.0
 30
0.0
  0
VERTEX
  5
17B
330
17A
100
AcDbEntity
  8
Layer 1
370
     0
100
AcDbVertex
100
AcDb2dVertex
 10
2.206386990017361
 20
-9.085137261284721
 30
0.0
  0
VERTEX
  5
17C
330
17A
100
AcDbEntity
  8
Layer 1
370
     0
100
AcDbVertex
100
AcDb2dVertex
 10
1.925381130642361
 20
-8.598836263020832
 30
0.0
  0
VERTEX
  5
17D
330
17A
100
AcDbEntity
  8
Layer 1
370
     0
100
AcDbVertex
100
AcDb2dVertex
 10
2.164747450086805
 20
-8.736979166666666
 30
0.0
  0
VERTEX
  5
17E
330
17A
100
AcDbEntity
  8
Layer 1
370
     0
100
AcDbVertex
100
AcDb2dVertex
 10
2.727240668402778
 20
-8.18264431423611
 30
0.0
  0
VERTEX
  5
17F
330
17A
100
AcDbEntity
  8
Layer 1
370
     0
100
AcDbVertex
100
AcDb2dVertex
 10
2.52862548828125
 20
-8.947265625
 30
0.0
  0
VERTEX
  5
180
330
17A
100
AcDbEntity
  8
Layer 1
370
     0
100
AcDbVertex
100
AcDb2dVertex
 10
2.767361111111111
 20
-9.084879557291666
 30
0.0
  0
VERTEX
  5
181
330
17A
100
AcDbEntity
  8
Layer 1
370
     0
100
AcDbVertex
100
AcDb2dVertex
 10
2.206386990017361
 20
-9.085137261284721
 30
0.0
  0
SEQEND
  5
182
330
17A
100
AcDbEntity
  8
Layer 1
370
     0
  0
POLYLINE
  5
183
330
1F
100
AcDbEntity
  8
Layer 1
370
     0
100
AcDb2dPolyline
 66
     1
 10
0.0
 20
0.0
 30
0.0
  0
VERTEX
  5
184
330
183
100
AcDbEntity
  8
Layer 1
370
     0
100
AcDbVertex
100
AcDb2dVertex
 10
4.138461642795138
 20
-9.602945963541666
 30
0.0
  0
VERTEX
  5
185
330
183
100
AcDbEntity
  8
Layer 1
370
     0
100
AcDbVertex
100
AcDb2dVertex
 10
3.6524658203125
 20
-9.322157118055555
 30
0.0
  0
VERTEX
  5
186
330
183
100
AcDbEntity
  8
Layer 1
370
     0
100
AcDbVertex
100
AcDb2dVertex
 10
3.928751627604167
 20
-9.322157118055555
 30
0.0
  0
VERTEX
  5
187
330
183
100
AcDbEntity
  8
Layer 1
370
     0
100
AcDbVertex
100
AcDb2dVertex
 10
4.138461642795138
 20
-8.561102973090277
 30
0.0
  0
VERTEX
  5
188
330
183
100
AcDbEntity
  8
Layer 1
370
     0
100
AcDbVertex
100
AcDb2dVertex
 10
4.349039713541666
 20
-9.322265625
 30
0.0
  0
VERTEX
  5
189
330
183
100
AcDbEntity
  8
Layer 1
370
     0
100
AcDbVertex
100
AcDb2dVertex
 10
4.624443901909722
 20
-9.322265625
 30
0.0
  0
VERTEX
  5
18A
330
183
100
AcDbEntity
  8
Layer 1
370
     0
100
AcDbVertex
100
AcDb2dVertex
 10
4.138461642795138
 20
-9.602945963541666
 30
0.0
  0
SEQEND
  5
18B
330
183
100
AcDbEntity
  8
Layer 1
370
     0
  0
POLYLINE
  5
18C
330
1F
100
AcDbEntity
  8
Layer 1
370
     0
100
AcDb2dPolyline
 66
     1
 10
0.0
 20
0.0
 30
0.0
  0
VERTEX
  5
18D
330
18C
100
AcDbEntity
  8
Layer 1
370
     0
100
AcDbVertex
100
AcDb2dVertex
 10
6.070909288194444
 20
-9.085137261284721
 30
0.0
  0
VERTEX
  5
18E
330
18C
100
AcDbEntity
  8
Layer 1
370
     0
100
AcDbVertex
100
AcDb2dVertex
 10
5.509440104166666
 20
-9.085137261284721
 30
0.0
  0
VERTEX
  5
18F
330
18C
100
AcDbEntity
  8
Layer 1
370
     0
100
AcDbVertex
100
AcDb2dVertex
 10
5.748792860243055
 20
-8.94692654079861
 30
0.0
  0
VERTEX
  5
190
330
18C
100
AcDbEntity
  8
Layer 1
370
     0
100
AcDbVertex
100
AcDb2dVertex
 10
5.549913194444444
 20
-8.182562934027777
 30
0.0
  0
VERTEX
  5
191
330
18C
100
AcDbEntity
  8
Layer 1
370
     0
100
AcDbVertex
100
AcDb2dVertex
 10
6.112942165798611
 20
-8.736979166666666
 30
0.0
  0
VERTEX
  5
192
330
18C
100
AcDbEntity
  8
Layer 1
370
     0
100
AcDbVertex
100
AcDb2dVertex
 10
6.351643880208333
 20
-8.599161783854166
 30
0.0
  0
VERTEX
  5
193
330
18C
100
AcDbEntity
  8
Layer 1
370
     0
100
AcDbVertex
100
AcDb2dVertex
 10
6.070909288194444
 20
-9.085137261284721
 30
0.0
  0
SEQEND
  5
194
330
18C
100
AcDbEntity
  8
Layer 1
370
     0
  0
POLYLINE
  5
195
330
1F
100
AcDbEntity
  8
Layer 1
370
     0
100
AcDb2dPolyline
 66
     1
 10
0.0
 20
0.0
 30
0.0
  0
VERTEX
  5
196
330
195
100
AcDbEntity
  8
Layer 1
370
     0
100
AcDbVertex
100
AcDb2dVertex
 10
6.999308268229166
 20
-7.951239691840278
 30
0.0
  0
VERTEX
  5
197
330
195
100
AcDbEntity
  8
Layer 1
370
     0
100
AcDbVertex
100
AcDb2dVertex
 10
7.137451171875
 20
-7.711927625868055
 30
0.0
  0
VERTEX
  5
198
330
195
100
AcDbEntity
  8
Layer 1
370
     0
100
AcDbVertex
100
AcDb2dVertex
 10
6.583509657118055
 20
-7.149441189236111
 30
0.0
  0
VERTEX
  5
199
330
195
100
AcDbEntity
  8
Layer 1
370
     0
100
AcDbVertex
100
AcDb2dVertex
 10
7.347913953993055
 20
-7.347995334201388
 30
0.0
  0
VERTEX
  5
19A
330
195
100
AcDbEntity
  8
Layer 1
370
     0
100
AcDbVertex
100
AcDb2dVertex
 10
7.485541449652778
 20
-7.109144422743055
 30
0.0
  0
VERTEX
  5
19B
330
195
100
AcDbEntity
  8
Layer 1
370
     0
100
AcDbVertex
100
AcDb2dVertex
 10
7.485541449652778
 20
-7.670437282986111
 30
0.0
  0
VERTEX
  5
19C
330
195
100
AcDbEntity
  8
Layer 1
370
     0
100
AcDbVertex
100
AcDb2dVertex
 10
6.999308268229166
 20
-7.951239691840278
 30
0.0
  0
SEQEND
  5
19D
330
195
100
AcDbEntity
  8
Layer 1
370
     0
  0
ENDSEC
  0
SECTION
  2
OBJECTS
  0
DICTIONARY
  5
C
330
0
100
AcDbDictionary
281
     1
  3
ACAD_GROUP
350
D
  3
ACAD_LAYOUT
350
1A
  3
ACAD_MLINESTYLE
350
17
  3
ACAD_PLOTSETTINGS
350
19
  3
ACAD_PLOTSTYLENAME
350
E
  3
ACAD_TABLESTYLE
350
19E
  3
ACAD_VISUALSTYLE
350
2A
  0
DICTIONARY
  5
D
102
{ACAD_REACTORS
330
C
102
}
330
C
100
AcDbDictionary
281
     1
  0
DICTIONARY
  5
1A
102
{ACAD_REACTORS
330
C
102
}
330
C
100
AcDbDictionary
281
     1
  3
Layout1
350
1E
  3
Layout2
350
26
  3
Model
350
22
  0
DICTIONARY
  5
17
102
{ACAD_REACTORS
330
C
102
}
330
C
100
AcDbDictionary
281
     1
  3
Standard
350
18
  0
DICTIONARY
  5
19
102
{ACAD_REACTORS
330
C
102
}
330
C
100
AcDbDictionary
281
     1
  0
ACDBDICTIONARYWDFLT
  5
E
102
{ACAD_REACTORS
330
C
102
}
330
C
100
AcDbDictionary
281
     1
  3
Normal
350
F
100
AcDbDictionaryWithDefault
340
F
  0
DICTIONARY
  5
19E
102
{ACAD_REACTORS
330
C
102
}
330
C
100
AcDbDictionary
281
     1
  0
DICTIONARY
  5
2A
102
{ACAD_REACTORS
330
C
102
}
330
C
100
AcDbDictionary
281
     1
  3
2dWireframe
350
2F
  3
3D Hidden
350
31
  3
3dWireframe
350
30
  3
Basic
350
32
  3
Brighten
350
36
  3
ColorChange
350
3A
  3
Conceptual
350
34
  3
Dim
350
35
  3
Facepattern
350
39
  3
Flat
350
2B
  3
FlatWithEdges
350
2C
  3
Gouraud
350
2D
  3
GouraudWithEdges
350
2E
  3
Linepattern
350
38
  3
Realistic
350
33
  3
Thicken
350
37
  0
LAYOUT
  5
1E
102
{ACAD_REACTORS
330
1A
102
}
330
1A
100
AcDbPlotSettings
  1

  2
none_device
  4

  6

 40
0.0
 41
0.0
 42
0.0
 43
0.0
 44
0.0
 45
0.0
 46
0.0
 47
0.0
 48
0.0
 49
0.0
140
0.0
141
0.0
142
1.0
143
1.0
 70
   688
 72
     0
 73
     0
 74
     5
  7

 75
    16
 76
     0
 77
     2
 78
   300
147
1.0
148
0.0
149
0.0
100
AcDbLayout
  1
Layout1
 70
     1
 71
     1
 10
0.0
 20
0.0
 11
12.0
 21
9.0
 12
0.0
 22
0.0
 32
0.0
 14
1.000000000000000E+20
 24
1.000000000000000E+20
 34
1.000000000000000E+20
 15
-1.000000000000000E+20
 25
-1.000000000000000E+20
 35
-1.000000000000000E+20
146
0.0
 13
0.0
 23
0.0
 33
0.0
 16
1.0
 26
0.0
 36
0.0
 17
0.0
 27
1.0
 37
0.0
 76
     0
330
1B
  0
LAYOUT
  5
26
102
{ACAD_REACTORS
330
1A
102
}
330
1A
100
AcDbPlotSettings
  1

  2
none_device
  4

  6

 40
0.0
 41
0.0
 42
0.0
 43
0.0
 44
0.0
 45
0.0
 46
0.0
 47
0.0
 48
0.0
 49
0.0
140
0.0
141
0.0
142
1.0
143
1.0
 70
   688
 72
     0
 73
     0
 74
     5
  7

 75
    16
 76
     0
 77
     2
 78
   300
147
1.0
148
0.0
149
0.0
100
AcDbLayout
  1
Layout2
 70
     1
 71
     2
 10
0.0
 20
0.0
 11
0.0
 21
0.0
 12
0.0
 22
0.0
 32
0.0
 14
0.0
 24
0.0
 34
0.0
 15
0.0
 25
0.0
 35
0.0
146
0.0
 13
0.0
 23
0.0
 33
0.0
 16
1.0
 26
0.0
 36
0.0
 17
0.0
 27
1.0
 37
0.0
 76
     0
330
23
  0
LAYOUT
  5
22
102
{ACAD_REACTORS
330
1A
102
}
330
1A
100
AcDbPlotSettings
  1

  2
none_device
  4

  6

 40
0.0
 41
0.0
 42
0.0
 43
0.0
 44
0.0
 45
0.0
 46
0.0
 47
0.0
 48
0.0
 49
0.0
140
0.0
141
0.0
142
1.0
143
1.0
 70
  1712
 72
     0
 73
     0
 74
     0
  7

 75
     0
 76
     0
 77
     2
 78
   300
147
1.0
148
0.0
149
0.0
100
AcDbLayout
  1
Model
 70
     1
 71
     0
 10
0.0
 20
0.0
 11
12.0
 21
9.0
 12
0.0
 22
0.0
 32
0.0
 14
1.000000000000000E+20
 24
1.000000000000000E+20
 34
1.000000000000000E+20
 15
-1.000000000000000E+20
 25
-1.000000000000000E+20
 35
-1.000000000000000E+20
146
0.0
 13
0.0
 23
0.0
 33
0.0
 16
1.0
 26
0.0
 36
0.0
 17
0.0
 27
1.0
 37
0.0
 76
     0
330
1F
331
29
  0
MLINESTYLE
  5
18
102
{ACAD_REACTORS
330
17
102
}
330
17
100
AcDbMlineStyle
  2
Standard
 70
     0
  3

 62
   256
 51
90.0
 52
90.0
 71
     2
 49
0.5
 62
   256
  6
BYLAYER
 49
-0.5
 62
   256
  6
BYLAYER
  0
ACDBPLACEHOLDER
  5
F
102
{ACAD_REACTORS
330
E
102
}
330
E
  0
VISUALSTYLE
  5
2F
102
{ACAD_REACTORS
330
2A
102
}
330
2A
100
AcDbVisualStyle
  2
2dWireframe
 70
     4
 71
     0
 72
     2
 73
     0
 90
        0
 40
-0.6
 41
-30.0
 62
     5
 63
     7
421
 16777215
 74
     1
 91
        4
 64
     7
 65
   257
 75
     1
175
     1
 42
1.0
 92
        0
 66
   257
 43
1.0
 76
     1
 77
     6
 78
     2
 67
     7
 79
     5
170
     0
171
     0
290
     0
174
     0
 93
        1
 44
0.0
173
     0
291
     0
 45
0.0
1001
ACAD
1000
AcDbSavedByObjectVersion
1070
     0
  0
VISUALSTYLE
  5
31
102
{ACAD_REACTORS
330
2A
102
}
330
2A
100
AcDbVisualStyle
  2
3D Hidden
 70
     6
 71
     1
 72
     2
 73
     2
 90
        0
 40
-0.6
 41
-30.0
 62
     5
 63
     7
421
 16777215
 74
     2
 91
        2
 64
     7
 65
   257
 75
     2
175
     1
 42
40.0
 92
        0
 66
   257
 43
1.0
 76
     1
 77
     6
 78
     2
 67
     7
 79
     3
170
     0
171
     0
290
     0
174
     0
 93
        1
 44
0.0
173
     0
291
     0
 45
0.0
1001
ACAD
1000
AcDbSavedByObjectVersion
1070
     0
  0
VISUALSTYLE
  5
30
102
{ACAD_REACTORS
330
2A
102
}
330
2A
100
AcDbVisualStyle
  2
3dWireframe
 70
     5
 71
     0
 72
     2
 73
     0
 90
        0
 40
-0.6
 41
-30.0
 62
     5
 63
     7
421
 16777215
 74
     1
 91
        4
 64
     7
 65
   257
 75
     1
175
     1
 42
1.0
 92
        0
 66
   257
 43
1.0
 76
     1
 77
     6
 78
     2
 67
     7
 79
     5
170
     0
171
     0
290
     0
174
     0
 93
        1
 44
0.0
173
     0
291
     0
 45
0.0
1001
ACAD
1000
AcDbSavedByObjectVersion
1070
     0
  0
VISUALSTYLE
  5
32
102
{ACAD_REACTORS
330
2A
102
}
330
2A
100
AcDbVisualStyle
  2
Basic
 70
     7
 71
     1
 72
     0
 73
     1
 90
        0
 40
-0.6
 41
-30.0
 62
     5
 63
     7
421
 16777215
 74
     0
 91
        4
 64
     7
 65
   257
 75
     1
175
     1
 42
1.0
 92
        8
 66
     7
 43
1.0
 76
     1
 77
     6
 78
     2
 67
     7
 79
     5
170
     0
171
     0
290
     0
174
     0
 93
        1
 44
0.0
173
     0
291
     1
 45
0.0
1001
ACAD
1000
AcDbSavedByObjectVersion
1070
     0
  0
VISUALSTYLE
  5
36
102
{ACAD_REACTORS
330
2A
102
}
330
2A
100
AcDbVisualStyle
  2
Brighten
 70
    12
 71
     2
 72
     2
 73
     0
 90
        0
 40
-0.6
 41
-30.0
 62
     5
 63
     7
421
 16777215
 74
     1
 91
        4
 64
     7
 65
   257
 75
     1
175
     1
 42
1.0
 92
        8
 66
     7
 43
1.0
 76
     1
 77
     6
 78
     2
 67
     7
 79
     5
170
     0
171
     0
290
     0
174
     0
 93
        1
 44
50.0
173
     0
291
     1
 45
0.0
1001
ACAD
1000
AcDbSavedByObjectVersion
1070
     0
  0
VISUALSTYLE
  5
3A
102
{ACAD_REACTORS
330
2A
102
}
330
2A
100
AcDbVisualStyle
  2
ColorChange
 70
    16
 71
     2
 72
     2
 73
     3
 90
        0
 40
-0.6
 41
-30.0
 62
     5
 63
     8
421
  8421504
 74
     1
 91
        4
 64
     7
 65
   257
 75
     1
175
     1
 42
1.0
 92
        8
 66
     8
424
  8421504
 43
1.0
 76
     1
 77
     6
 78
     2
 67
     7
 79
     5
170
     0
171
     0
290
     0
174
     0
 93
        1
 44
0.0
173
     0
291
     1
 45
0.0
1001
ACAD
1000
AcDbSavedByObjectVersion
1070
     0
  0
VISUALSTYLE
  5
34
102
{ACAD_REACTORS
330
2A
102
}
330
2A
100
AcDbVisualStyle
  2
Conceptual
 70
     9
 71
     3
 72
     2
 73
     0
 90
        0
 40
-0.6
 41
-30.0
 62
     5
 63
     7
421
 16777215
 74
     2
 91
        2
 64
     7
 65
   257
 75
     1
175
     1
 42
40.0
 92
        8
 66
     7
 43
1.0
 76
     1
 77
     6
 78
     2
 67
     7
 79
     3
170
     0
171
     0
290
     0
174
     0
 93
        1
 44
0.0
173
     0
291
     0
 45
0.0
1001
ACAD
1000
AcDbSavedByObjectVersion
1070
     0
  0
VISUALSTYLE
  5
35
102
{ACAD_REACTORS
330
2A
102
}
330
2A
100
AcDbVisualStyle
  2
Dim
 70
    11
 71
     2
 72
     2
 73
     0
 90
        0
 40
-0.6
 41
-30.0
 62
     5
 63
     7
421
 16777215
 74
     1
 91
        4
 64
     7
 65
   257
 75
     1
175
     1
 42
1.0
 92
        8
 66
     7
 43
1.0
 76
     1
 77
     6
 78
     2
 67
     7
 79
     5
170
     0
171
     0
290
     0
174
     0
 93
        1
 44
-50.0
173
     0
291
     1
 45
0.0
1001
ACAD
1000
AcDbSavedByObjectVersion
1070
     0
  0
VISUALSTYLE
  5
39
102
{ACAD_REACTORS
330
2A
102
}
330
2A
100
AcDbVisualStyle
  2
Facepattern
 70
    15
 71
     2
 72
     2
 73
     0
 90
        0
 40
-0.6
 41
-30.0
 62
     5
 63
     7
421
 16777215
 74
     1
 91
        4
 64
     7
 65
   257
 75
     1
175
     1
 42
1.0
 92
        8
 66
     7
 43
1.0
 76
     1
 77
     6
 78
     2
 67
     7
 79
     5
170
     0
171
     0
290
     0
174
     0
 93
        1
 44
0.0
173
     0
291
     1
 45
0.0
1001
ACAD
1000
AcDbSavedByObjectVersion
1070
     0
  0
VISUALSTYLE
  5
2B
102
{ACAD_REACTORS
330
2A
102
}
330
2A
100
AcDbVisualStyle
  2
Flat
 70
     0
 71
     2
 72
     1
 73
     1
 90
        2
 40
-0.6
 41
30.0
 62
     5
 63
     7
421
 16777215
 74
     0
 91
        4
 64
     7
 65
   257
 75
     1
175
     1
 42
1.0
 92
        8
 66
     7
 43
1.0
 76
     1
 77
     6
 78
     2
 67
     7
 79
     5
170
     0
171
     0
290
     0
174
     0
 93
       13
 44
0.0
173
     0
291
     1
 45
0.0
1001
ACAD
1000
AcDbSavedByObjectVersion
1070
     0
  0
VISUALSTYLE
  5
2C
102
{ACAD_REACTORS
330
2A
102
}
330
2A
100
AcDbVisualStyle
  2
FlatWithEdges
 70
     1
 71
     2
 72
     1
 73
     1
 90
        2
 40
-0.6
 41
30.0
 62
     5
 63
     7
421
 16777215
 74
     1
 91
        4
 64
     7
 65
   257
 75
     1
175
     1
 42
1.0
 92
        0
 66
   257
 43
1.0
 76
     1
 77
     6
 78
     2
 67
     7
 79
     5
170
     0
171
     0
290
     0
174
     0
 93
       13
 44
0.0
173
     0
291
     1
 45
0.0
1001
ACAD
1000
AcDbSavedByObjectVersion
1070
     0
  0
VISUALSTYLE
  5
2D
102
{ACAD_REACTORS
330
2A
102
}
330
2A
100
AcDbVisualStyle
  2
Gouraud
 70
     2
 71
     2
 72
     2
 73
     1
 90
        2
 40
-0.6
 41
30.0
 62
     5
 63
     7
421
 16777215
 74
     0
 91
        4
 64
     7
 65
   257
 75
     1
175
     1
 42
1.0
 92
        0
 66
     7
 43
1.0
 76
     1
 77
     6
 78
     2
 67
     7
 79
     5
170
     0
171
     0
290
     0
174
     0
 93
       13
 44
0.0
173
     0
291
     1
 45
0.0
1001
ACAD
1000
AcDbSavedByObjectVersion
1070
     0
  0
VISUALSTYLE
  5
2E
102
{ACAD_REACTORS
330
2A
102
}
330
2A
100
AcDbVisualStyle
  2
GouraudWithEdges
 70
     3
 71
     2
 72
     2
 73
     1
 90
        2
 40
-0.6
 41
30.0
 62
     5
 63
     7
421
 16777215
 74
     1
 91
        4
 64
     7
 65
   257
 75
     1
175
     1
 42
1.0
 92
        0
 66
   257
 43
1.0
 76
     1
 77
     6
 78
     2
 67
     7
 79
     5
170
     0
171
     0
290
     0
174
     0
 93
       13
 44
0.0
173
     0
291
     1
 45
0.0
1001
ACAD
1000
AcDbSavedByObjectVersion
1070
     0
  0
VISUALSTYLE
  5
38
102
{ACAD_REACTORS
330
2A
102
}
330
2A
100
AcDbVisualStyle
  2
Linepattern
 70
    14
 71
     2
 72
     2
 73
     0
 90
        0
 40
-0.6
 41
-30.0
 62
     5
 63
     7
421
 16777215
 74
     1
 91
        4
 64
     7
 65
   257
 75
     7
175
     7
 42
1.0
 92
        8
 66
     7
 43
1.0
 76
     1
 77
     6
 78
     2
 67
     7
 79
     5
170
     0
171
     0
290
     0
174
     0
 93
        1
 44
0.0
173
     0
291
     1
 45
0.0
1001
ACAD
1000
AcDbSavedByObjectVersion
1070
     0
  0
VISUALSTYLE
  5
33
102
{ACAD_REACTORS
330
2A
102
}
330
2A
100
AcDbVisualStyle
  2
Realistic
 70
     8
 71
     2
 72
     2
 73
     0
 90
        0
 40
-0.6
 41
-30.0
 62
     5
 63
     7
421
 16777215
 74
     1
 91
        0
 64
     7
 65
   257
 75
     1
175
     1
 42
1.0
 92
        8
 66
     8
424
  7895160
 43
1.0
 76
     1
 77
     6
 78
     2
 67
     7
 79
     5
170
     0
171
     0
290
     0
174
     0
 93
       13
 44
0.0
173
     0
291
     0
 45
0.0
1001
ACAD
1000
AcDbSavedByObjectVersion
1070
     0
  0
VISUALSTYLE
  5
37
102
{ACAD_REACTORS
330
2A
102
}
330
2A
100
AcDbVisualStyle
  2
Thicken
 70
    13
 71
     2
 72
     2
 73
     0
 90
        0
 40
-0.6
 41
-30.0
 62
     5
 63
     7
421
 16777215
 74
     1
 91
        4
 64
     7
 65
   257
 75
     1
175
     1
 42
1.0
 92
       12
 66
     7
 43
1.0
 76
     1
 77
     6
 78
     2
 67
     7
 79
     5
170
     0
171
     0
290
     0
174
     0
 93
        1
 44
0.0
173
     0
291
     1
 45
0.0
1001
ACAD
1000
AcDbSavedByObjectVersion
1070
     0
  0
ENDSEC
  0
EOF
