<?xml version="1.0" encoding="utf-8"?>
<!-- Generator: Adobe Illustrator 16.0.0, SVG Export Plug-In . SVG Version: 6.00 Build 0)  -->
<!DOCTYPE svg PUBLIC "-//W3C//DTD SVG 1.1//EN" "http://www.w3.org/Graphics/SVG/1.1/DTD/svg11.dtd">
<svg version="1.1" id="Layer_1" xmlns="http://www.w3.org/2000/svg" xmlns:xlink="http://www.w3.org/1999/xlink" x="0px" y="0px"
	 width="595.28px" height="841.89px" viewBox="0 0 595.28 841.89" enable-background="new 0 0 595.28 841.89" xml:space="preserve">
<linearGradient id="SVGID_1_" gradientUnits="userSpaceOnUse" x1="0" y1="394.7617" x2="594.0371" y2="394.7617">
	<stop  offset="0.0056" style="stop-color:#ECC562"/>
	<stop  offset="1" style="stop-color:#C3922E"/>
</linearGradient>
<path fill="url(#SVGID_1_)" d="M594.037,320.868l-28.852-56.099l-42.972-0.01l21.352-37.002l-29.112-50.421l-50.426-29.103
	l-36.979,21.346l-0.015-42.977l-56.107-28.862h-52.54l-21.37,36.997l-21.352-36.997h-52.553h-0.004l-56.099,28.848v42.991
	l-37.006-21.346l-50.402,29.103l-29.132,50.421l21.36,37.002l-42.986,0.01L0,320.872v52.531l37.007,21.356L0,416.131v52.537
	l28.843,56.115h42.986l-21.36,36.997l29.132,50.431l50.402,29.108l37.006-21.363v42.985l56.099,28.842h52.557l21.352-36.992
	l21.37,36.992h52.544l56.104-28.842v-42.985l36.993,21.363l50.44-29.118l29.098-50.411l-21.352-37.007h42.972l28.852-56.092v-52.56
	l-36.98-21.373l36.98-21.352V320.868z M427.049,209.138v-21.36l36.979-21.36l38.896,22.453l22.453,38.888l-20.227,35.031h-21.375
	l-11.784-20.42l-56.782,32.776l31.526-54.619L427.049,209.138z M492.283,312.964l-64.604,37.29h-53.578l24.808-42.967l65.872-38.022
	l7.621,13.206h21.373l-9.564,16.558L492.283,312.964z M101.76,476.581l64.616-37.315h53.555l-24.801,42.99l-65.874,38.011
	l-7.615-13.213h-21.379l9.553-16.538L101.76,476.581z M364.806,462.556l-23.276-13.438v-9.842h9.837L364.806,462.556z
	 M321.842,487.375l-13.453-23.288l4.922-8.514l8.531,4.915V487.375z M272.201,302.158l13.453,23.294l-4.912,8.522l-8.541-4.934
	V302.158z M321.842,437.744l-15.734-9.081l-9.091,15.736l-9.084-15.736l-15.731,9.081v-18.167H254.05l9.075-15.741l-15.717-9.078
	l15.717-9.071l-9.075-15.731h18.151v-18.166l15.735,9.084l9.081-15.73l9.091,15.73l15.734-9.075v18.156h18.147l-9.076,15.731
	l15.722,9.09l-15.722,9.074l9.076,15.726h-18.147V437.744z M252.518,340.418v9.836h-9.841l-13.448-23.27L252.518,340.418z
	 M231.299,369.956l4.931,8.523l-8.527,4.92l-23.28-13.443H231.299z M227.702,406.139l8.527,4.918l-4.926,8.521h-26.881
	L227.702,406.139z M362.743,419.578l-4.93-8.521l8.522-4.913l23.293,13.434H362.743z M366.336,383.404l-8.522-4.925l4.93-8.523
	h26.886L366.336,383.404z M341.529,350.254v-9.831l23.276-13.438l-13.439,23.27H341.529z M321.842,329.044l-8.531,4.93l-4.917-8.522
	l13.448-23.275V329.044z M242.677,439.266h9.841v9.856l-23.299,13.438L242.677,439.266z M272.201,460.488l8.536-4.915l4.917,8.514
	l-13.453,23.288V460.488z M323.812,259.361l-26.796,46.403l-24.815-42.985v-76.046h15.277l10.697-18.515l9.534,16.543h16.104
	V259.361z M252.518,317.677l-42.981-24.812l-38.028-65.859l13.211-7.634v-21.361l16.549,9.543l13.949-8.045l37.3,64.602V317.677z
	 M219.931,350.254h-49.626l-65.85-38.013l7.648-13.225l-10.706-18.501h19.11l8.041-13.95l64.597,37.314L219.931,350.254z
	 M207.991,394.778l-42.953,24.8H88.983v-15.261l-18.506-10.688l16.54-9.553v-16.083h74.589L207.991,394.778z M270.244,530.188
	l26.772-46.398l24.825,42.976v76.036H306.57l-10.688,18.505l-9.553-16.538h-16.085V530.188z M341.529,471.862l42.987,24.808
	l38.009,65.854l-13.218,7.628v21.37l-16.529-9.548l-13.948,8.056l-37.301-64.604V471.862z M374.102,439.275h49.639l65.839,38.018
	l-7.618,13.223l10.685,18.515h-19.113l-8.031,13.935l-64.617-37.296L374.102,439.275z M386.053,394.778l42.961-24.822h76.041v15.269
	l18.496,10.683l-16.529,9.548v16.099h-74.6L386.053,394.778z M387.913,290.898l-46.384,26.783v-49.627l38.013-65.859l13.236,7.644
	l18.501-10.697v19.116l13.93,8.036L387.913,290.898z M327.485,113.496h39.627l44.158,22.717l0.009,40.188l-18.501,10.683
	l-20.439-11.784l-32.775,56.779v-63.075h-22.761l-10.678-18.505v-0.005L327.485,113.496z M182.764,136.213l44.172-22.717h39.63
	l20.222,35.036l-10.683,18.506h-23.587v65.551l-31.542-54.595l-19.706,11.368l-18.505-10.688V136.213z M68.667,227.758
	l22.461-38.888l38.874-22.458l35.035,20.222v21.384l-20.425,11.789l32.776,56.78l-54.604-31.539l-11.382,19.711H90.018
	L68.667,227.758z M15.75,364.312v-39.625l22.722-44.172H78.66l10.678,18.501l-11.798,20.433l56.779,32.782H71.252v22.745
	l-18.496,10.697L15.75,364.312z M38.467,509.025l-22.717-44.15v-39.648l35.031-20.222l18.52,10.673v23.587h65.562l-54.624,31.538
	l11.382,19.712l-10.692,18.51H38.467z M167.009,601.751l-37.006,21.361l-38.874-22.434l0,0L68.667,561.78l20.23-35.029h21.366
	l11.789,20.428l56.773-32.789l-31.542,54.625l19.725,11.371V601.751z M206.129,498.635l46.389-26.777v49.631l-38.023,65.856
	l-13.226-7.641l-18.505,10.688v-19.101l-13.939-8.054L206.129,498.635z M266.566,676.038h-39.639l-44.163-22.712v-40.191
	l18.505-10.679l20.43,11.779l32.786-56.761v63.044h22.75l10.688,18.521L266.566,676.038z M411.271,653.326l-44.153,22.712h-39.632
	l-20.23-35.03l10.678-18.52h23.597v-65.562l31.523,54.629l19.726-11.388l18.492,10.688V653.326z M525.376,561.79l-22.448,38.864
	l-38.9,22.458l-35.014-20.222v-21.352l20.412-11.803l-32.782-56.782l54.61,31.535l11.376-19.706h21.385L525.376,561.79z
	 M578.279,425.236v39.644l-22.704,44.146l-40.183,0.005l-10.696-18.515l11.798-20.431l-56.784-32.771h63.062v-22.775l18.505-10.683
	L578.279,425.236z M578.279,364.312l-35.013,20.231l-18.52-10.697v-23.592h-65.562l54.624-31.528l-11.378-19.697l10.688-18.514
	h42.456l22.704,44.144V364.312z"/>
</svg>
