  0
SECTION
  2
HEADER
  9
$ACADVER
  1
AC1018
  9
$ACADMAINTVER
 70
     0
  9
$DWGCODEPAGE
  3
ANSI_932
  9
$INSBASE
 10
0.0
 20
0.0
 30
0.0
  9
$EXTMIN
 10
1.000000000000000E+20
 20
1.000000000000000E+20
 30
1.000000000000000E+20
  9
$EXTMAX
 10
-1.000000000000000E+20
 20
-1.000000000000000E+20
 30
-1.000000000000000E+20
  9
$LIMMIN
 10
0.0
 20
0.0
  9
$LIMMAX
 10
12.0
 20
9.0
  9
$ORTHOMODE
 70
     0
  9
$REGENMODE
 70
     1
  9
$FILLMODE
 70
     1
  9
$QTEXTMODE
 70
     0
  9
$MIRRTEXT
 70
     1
  9
$LTSCALE
 40
1.0
  9
$ATTMODE
 70
     1
  9
$TEXTSIZE
 40
0.2
  9
$TRACEWID
 40
0.05
  9
$TEXTSTYLE
  7
Standard
  9
$CLAYER
  8
0
  9
$CELTYPE
  6
ByLayer
  9
$CECOLOR
 62
   256
  9
$CELTSCALE
 40
1.0
  9
$DISPSILH
 70
     0
  9
$DIMSCALE
 40
1.0
  9
$DIMASZ
 40
0.18
  9
$DIMEXO
 40
0.0625
  9
$DIMDLI
 40
0.38
  9
$DIMRND
 40
0.0
  9
$DIMDLE
 40
0.0
  9
$DIMEXE
 40
0.18
  9
$DIMTP
 40
0.0
  9
$DIMTM
 40
0.0
  9
$DIMTXT
 40
0.18
  9
$DIMCEN
 40
0.09
  9
$DIMTSZ
 40
0.0
  9
$DIMTOL
 70
     0
  9
$DIMLIM
 70
     0
  9
$DIMTIH
 70
     1
  9
$DIMTOH
 70
     1
  9
$DIMSE1
 70
     0
  9
$DIMSE2
 70
     0
  9
$DIMTAD
 70
     0
  9
$DIMZIN
 70
     0
  9
$DIMBLK
  1

  9
$DIMASO
 70
     1
  9
$DIMSHO
 70
     1
  9
$DIMPOST
  1

  9
$DIMAPOST
  1

  9
$DIMALT
 70
     0
  9
$DIMALTD
 70
     2
  9
$DIMALTF
 40
25.4
  9
$DIMLFAC
 40
1.0
  9
$DIMTOFL
 70
     0
  9
$DIMTVP
 40
0.0
  9
$DIMTIX
 70
     0
  9
$DIMSOXD
 70
     0
  9
$DIMSAH
 70
     0
  9
$DIMBLK1
  1

  9
$DIMBLK2
  1

  9
$DIMSTYLE
  2
Standard
  9
$DIMCLRD
 70
     0
  9
$DIMCLRE
 70
     0
  9
$DIMCLRT
 70
     0
  9
$DIMTFAC
 40
1.0
  9
$DIMGAP
 40
0.09
  9
$DIMJUST
 70
     0
  9
$DIMSD1
 70
     0
  9
$DIMSD2
 70
     0
  9
$DIMTOLJ
 70
     1
  9
$DIMTZIN
 70
     0
  9
$DIMALTZ
 70
     0
  9
$DIMALTTZ
 70
     0
  9
$DIMUPT
 70
     0
  9
$DIMDEC
 70
     4
  9
$DIMTDEC
 70
     4
  9
$DIMALTU
 70
     2
  9
$DIMALTTD
 70
     2
  9
$DIMTXSTY
  7
Standard
  9
$DIMAUNIT
 70
     0
  9
$DIMADEC
 70
     0
  9
$DIMALTRND
 40
0.0
  9
$DIMAZIN
 70
     0
  9
$DIMDSEP
 70
    46
  9
$DIMATFIT
 70
     3
  9
$DIMFRAC
 70
     0
  9
$DIMLDRBLK
  1

  9
$DIMLUNIT
 70
     2
  9
$DIMLWD
 70
    -2
  9
$DIMLWE
 70
    -2
  9
$DIMTMOVE
 70
     0
  9
$LUNITS
 70
     2
  9
$LUPREC
 70
     4
  9
$SKETCHINC
 40
0.1
  9
$FILLETRAD
 40
0.5
  9
$AUNITS
 70
     0
  9
$AUPREC
 70
     0
  9
$MENU
  1
.
  9
$ELEVATION
 40
0.0
  9
$PELEVATION
 40
0.0
  9
$THICKNESS
 40
0.0
  9
$LIMCHECK
 70
     0
  9
$CHAMFERA
 40
0.5
  9
$CHAMFERB
 40
0.5
  9
$CHAMFERC
 40
1.0
  9
$CHAMFERD
 40
0.0
  9
$SKPOLY
 70
     0
  9
$TDCREATE
 40
2460559.678101852
  9
$TDUCREATE
 40
2460559.594768519
  9
$TDUPDATE
 40
2460559.678101863
  9
$TDUUPDATE
 40
2460559.59476853
  9
$TDINDWG
 40
0.0000000116
  9
$TDUSRTIMER
 40
0.0000000116
  9
$USRTIMER
 70
     1
  9
$ANGBASE
 50
0.0
  9
$ANGDIR
 70
     0
  9
$PDMODE
 70
     0
  9
$PDSIZE
 40
0.0
  9
$PLINEWID
 40
0.0
  9
$SPLFRAME
 70
     0
  9
$SPLINETYPE
 70
     6
  9
$SPLINESEGS
 70
     8
  9
$HANDSEED
  5
45
  9
$SURFTAB1
 70
     6
  9
$SURFTAB2
 70
     6
  9
$SURFTYPE
 70
     6
  9
$SURFU
 70
     6
  9
$SURFV
 70
     6
  9
$UCSBASE
  2

  9
$UCSNAME
  2

  9
$UCSORG
 10
0.0
 20
0.0
 30
0.0
  9
$UCSXDIR
 10
1.0
 20
0.0
 30
0.0
  9
$UCSYDIR
 10
0.0
 20
1.0
 30
0.0
  9
$UCSORTHOREF
  2

  9
$UCSORTHOVIEW
 70
     0
  9
$UCSORGTOP
 10
0.0
 20
0.0
 30
0.0
  9
$UCSORGBOTTOM
 10
0.0
 20
0.0
 30
0.0
  9
$UCSORGLEFT
 10
0.0
 20
0.0
 30
0.0
  9
$UCSORGRIGHT
 10
0.0
 20
0.0
 30
0.0
  9
$UCSORGFRONT
 10
0.0
 20
0.0
 30
0.0
  9
$UCSORGBACK
 10
0.0
 20
0.0
 30
0.0
  9
$PUCSBASE
  2

  9
$PUCSNAME
  2

  9
$PUCSORG
 10
0.0
 20
0.0
 30
0.0
  9
$PUCSXDIR
 10
1.0
 20
0.0
 30
0.0
  9
$PUCSYDIR
 10
0.0
 20
1.0
 30
0.0
  9
$PUCSORTHOREF
  2

  9
$PUCSORTHOVIEW
 70
     0
  9
$PUCSORGTOP
 10
0.0
 20
0.0
 30
0.0
  9
$PUCSORGBOTTOM
 10
0.0
 20
0.0
 30
0.0
  9
$PUCSORGLEFT
 10
0.0
 20
0.0
 30
0.0
  9
$PUCSORGRIGHT
 10
0.0
 20
0.0
 30
0.0
  9
$PUCSORGFRONT
 10
0.0
 20
0.0
 30
0.0
  9
$PUCSORGBACK
 10
0.0
 20
0.0
 30
0.0
  9
$USERI1
 70
     0
  9
$USERI2
 70
     0
  9
$USERI3
 70
     0
  9
$USERI4
 70
     0
  9
$USERI5
 70
     0
  9
$USERR1
 40
0.0
  9
$USERR2
 40
0.0
  9
$USERR3
 40
0.0
  9
$USERR4
 40
0.0
  9
$USERR5
 40
0.0
  9
$WORLDVIEW
 70
     1
  9
$SHADEDGE
 70
     3
  9
$SHADEDIF
 70
    70
  9
$TILEMODE
 70
     1
  9
$MAXACTVP
 70
    64
  9
$PINSBASE
 10
0.0
 20
0.0
 30
0.0
  9
$PLIMCHECK
 70
     0
  9
$PEXTMIN
 10
1.000000000000000E+20
 20
1.000000000000000E+20
 30
1.000000000000000E+20
  9
$PEXTMAX
 10
-1.000000000000000E+20
 20
-1.000000000000000E+20
 30
-1.000000000000000E+20
  9
$PLIMMIN
 10
0.0
 20
0.0
  9
$PLIMMAX
 10
12.0
 20
9.0
  9
$UNITMODE
 70
     0
  9
$VISRETAIN
 70
     1
  9
$PLINEGEN
 70
     0
  9
$PSLTSCALE
 70
     1
  9
$TREEDEPTH
 70
  3020
  9
$CMLSTYLE
  2
Standard
  9
$CMLJUST
 70
     0
  9
$CMLSCALE
 40
1.0
  9
$PROXYGRAPHICS
 70
     1
  9
$MEASUREMENT
 70
     0
  9
$CELWEIGHT
370
    -1
  9
$ENDCAPS
280
     0
  9
$JOINSTYLE
280
     0
  9
$LWDISPLAY
290
     1
  9
$INSUNITS
 70
     1
  9
$HYPERLINKBASE
  1

  9
$STYLESHEET
  1

  9
$XEDIT
290
     1
  9
$CEPSNTYPE
380
     0
  9
$PSTYLEMODE
290
     1
  9
$FINGERPRINTGUID
  2
{9D94BDC7-6424-5966-34B0-4EC798A3BBDF}
  9
$VERSIONGUID
  2
{FAEB1C32-E019-11D5-929B-00C0DF256EC4}
  9
$EXTNAMES
290
     1
  9
$PSVPSCALE
 40
0.0
  9
$OLESTARTUP
290
     0
  9
$SORTENTS
280
   127
  9
$INDEXCTL
280
     0
  9
$HIDETEXT
280
     1
  9
$XCLIPFRAME
290
     0
  9
$HALOGAP
280
     0
  9
$OBSCOLOR
 70
   257
  9
$OBSLTYPE
280
     0
  9
$INTERSECTIONDISPLAY
280
     0
  9
$INTERSECTIONCOLOR
 70
   257
  9
$DIMASSOC
280
     2
  9
$PROJECTNAME
  1

  0
ENDSEC
  0
SECTION
  2
CLASSES
  0
CLASS
  1
ACDBDICTIONARYWDFLT
  2
AcDbDictionaryWithDefault
  3
ObjectDBX Classes
 90
        0
 91
        3
280
     0
281
     0
  0
CLASS
  1
VISUALSTYLE
  2
AcDbVisualStyle
  3
ObjectDBX Classes
 90
     4095
 91
        3
280
     0
281
     0
  0
ENDSEC
  0
SECTION
  2
TABLES
  0
TABLE
  2
VPORT
  5
8
330
0
100
AcDbSymbolTable
 70
     1
  0
VPORT
  5
29
330
8
100
AcDbSymbolTableRecord
100
AcDbViewportTableRecord
  2
*Active
 70
     0
 10
0.0
 20
0.0
 11
1.0
 21
1.0
 12
0.0
 22
0.0
 13
0.0
 23
0.0
 14
0.5
 24
0.5
 15
0.5
 25
0.5
 16
0.0
 26
0.0
 36
1.0
 17
4.133890787760416
 27
-5.846455891927083
 37
0.0
 40
11.69291178385417
 41
0.7070763662937378
 42
50.0
 43
0.0
 44
0.0
 50
0.0
 51
0.0
 71
     0
 72
   100
 73
     1
 74
     3
 75
     0
 76
     0
 77
     0
 78
     0
281
     0
 65
     1
110
0.0
120
0.0
130
0.0
111
1.0
121
0.0
131
0.0
112
0.0
122
1.0
132
0.0
 79
     0
146
0.0
  0
ENDTAB
  0
TABLE
  2
LTYPE
  5
5
330
0
100
AcDbSymbolTable
 70
     1
  0
LTYPE
  5
14
330
5
100
AcDbSymbolTableRecord
100
AcDbLinetypeTableRecord
  2
ByBlock
 70
     0
  3

 72
    65
 73
     0
 40
0.0
  0
LTYPE
  5
15
330
5
100
AcDbSymbolTableRecord
100
AcDbLinetypeTableRecord
  2
ByLayer
 70
     0
  3

 72
    65
 73
     0
 40
0.0
  0
LTYPE
  5
16
330
5
100
AcDbSymbolTableRecord
100
AcDbLinetypeTableRecord
  2
Continuous
 70
     0
  3
Solid line
 72
    65
 73
     0
 40
0.0
  0
ENDTAB
  0
TABLE
  2
LAYER
  5
2
330
0
100
AcDbSymbolTable
 70
     2
  0
LAYER
  5
10
330
2
100
AcDbSymbolTableRecord
100
AcDbLayerTableRecord
  2
0
 70
     0
 62
     7
  6
Continuous
370
    -3
390
F
  0
LAYER
  5
3B
330
2
100
AcDbSymbolTableRecord
100
AcDbLayerTableRecord
  2
Layer 1
 70
     0
 62
     7
  6
Continuous
370
    -3
390
F
  0
ENDTAB
  0
TABLE
  2
STYLE
  5
3
330
0
100
AcDbSymbolTable
 70
     1
  0
STYLE
  5
11
330
3
100
AcDbSymbolTableRecord
100
AcDbTextStyleTableRecord
  2
Standard
 70
     0
 40
0.0
 41
1.0
 50
0.0
 71
     0
 42
0.2
  3
txt
  4

  0
ENDTAB
  0
TABLE
  2
VIEW
  5
6
330
0
100
AcDbSymbolTable
 70
     0
  0
ENDTAB
  0
TABLE
  2
UCS
  5
7
330
0
100
AcDbSymbolTable
 70
     0
  0
ENDTAB
  0
TABLE
  2
APPID
  5
9
330
0
100
AcDbSymbolTable
 70
     1
  0
APPID
  5
12
330
9
100
AcDbSymbolTableRecord
100
AcDbRegAppTableRecord
  2
ACAD
 70
     0
  0
ENDTAB
  0
TABLE
  2
DIMSTYLE
  5
A
330
0
100
AcDbSymbolTable
 70
     1
100
AcDbDimStyleTable
  0
DIMSTYLE
105
27
330
A
100
AcDbSymbolTableRecord
100
AcDbDimStyleTableRecord
  2
Standard
 70
     0
340
11
  0
ENDTAB
  0
TABLE
  2
BLOCK_RECORD
  5
1
330
0
100
AcDbSymbolTable
 70
     1
  0
BLOCK_RECORD
  5
1F
330
1
100
AcDbSymbolTableRecord
100
AcDbBlockTableRecord
  2
*Model_Space
340
22
  0
BLOCK_RECORD
  5
1B
330
1
100
AcDbSymbolTableRecord
100
AcDbBlockTableRecord
  2
*Paper_Space
340
1E
  0
BLOCK_RECORD
  5
23
330
1
100
AcDbSymbolTableRecord
100
AcDbBlockTableRecord
  2
*Paper_Space0
340
26
  0
ENDTAB
  0
ENDSEC
  0
SECTION
  2
BLOCKS
  0
BLOCK
  5
20
330
1F
100
AcDbEntity
  8
0
100
AcDbBlockBegin
  2
*Model_Space
 70
     0
 71
     0
 10
0.0
 20
0.0
 30
0.0
  3
*Model_Space
  1

  0
ENDBLK
  5
21
330
1F
100
AcDbEntity
  8
0
100
AcDbBlockEnd
  0
BLOCK
  5
1C
330
1B
100
AcDbEntity
 67
     1
  8
0
100
AcDbBlockBegin
  2
*Paper_Space
 70
     0
 71
     0
 10
0.0
 20
0.0
 30
0.0
  3
*Paper_Space
  1

  0
ENDBLK
  5
1D
330
1B
100
AcDbEntity
 67
     1
  8
0
100
AcDbBlockEnd
  0
BLOCK
  5
24
330
23
100
AcDbEntity
  8
0
100
AcDbBlockBegin
  2
*Paper_Space0
 70
     0
 71
     0
 10
0.0
 20
0.0
 30
0.0
  3
*Paper_Space0
  1

  0
ENDBLK
  5
25
330
23
100
AcDbEntity
  8
0
100
AcDbBlockEnd
  0
ENDSEC
  0
SECTION
  2
ENTITIES
  0
SPLINE
  5
3C
330
1F
100
AcDbEntity
  8
Layer 1
370
     0
100
AcDbSpline
210
0.0
220
0.0
230
1.0
 70
    11
 71
     3
 72
   107
 73
   103
 74
     0
 42
0.0000000001
 43
0.0000000001
 40
0.0
 40
0.0
 40
0.0
 40
0.0
 40
1.0
 40
1.0
 40
1.0
 40
2.0
 40
2.0
 40
2.0
 40
3.0
 40
3.0
 40
3.0
 40
4.0
 40
4.0
 40
4.0
 40
5.0
 40
5.0
 40
5.0
 40
6.0
 40
6.0
 40
6.0
 40
7.0
 40
7.0
 40
7.0
 40
8.0
 40
8.0
 40
8.0
 40
9.0
 40
9.0
 40
9.0
 40
10.0
 40
10.0
 40
10.0
 40
11.0
 40
11.0
 40
11.0
 40
12.0
 40
12.0
 40
12.0
 40
13.0
 40
13.0
 40
13.0
 40
14.0
 40
14.0
 40
14.0
 40
15.0
 40
15.0
 40
15.0
 40
16.0
 40
16.0
 40
16.0
 40
17.0
 40
17.0
 40
17.0
 40
18.0
 40
18.0
 40
18.0
 40
19.0
 40
19.0
 40
19.0
 40
20.0
 40
20.0
 40
20.0
 40
21.0
 40
21.0
 40
21.0
 40
22.0
 40
22.0
 40
22.0
 40
23.0
 40
23.0
 40
23.0
 40
24.0
 40
24.0
 40
24.0
 40
25.0
 40
25.0
 40
25.0
 40
26.0
 40
26.0
 40
26.0
 40
27.0
 40
27.0
 40
27.0
 40
28.0
 40
28.0
 40
28.0
 40
29.0
 40
29.0
 40
29.0
 40
30.0
 40
30.0
 40
30.0
 40
31.0
 40
31.0
 40
31.0
 40
32.0
 40
32.0
 40
32.0
 40
33.0
 40
33.0
 40
33.0
 40
34.0
 40
34.0
 40
34.0
 40
34.0
 10
7.38916015625
 20
-4.566602918836805
 30
0.0
 10
7.075995551215278
 20
-4.381869845920138
 30
0.0
 10
6.744791666666666
 20
-4.288411458333333
 30
0.0
 10
6.404635959201388
 20
-4.288411458333333
 30
0.0
 10
6.212171766493055
 20
-4.288411458333333
 30
0.0
 10
6.040866427951388
 20
-4.318583170572916
 30
0.0
 10
5.898111979166666
 20
-4.358554416232638
 30
0.0
 10
5.971571180555555
 20
-4.019497341579861
 30
0.0
 10
5.964328342013888
 20
-3.529161241319444
 30
0.0
 10
5.570461697048611
 20
-3.028964572482639
 30
0.0
 10
5.345431857638888
 20
-2.743523491753472
 30
0.0
 10
5.146959092881944
 20
-2.52667236328125
 30
0.0
 10
4.987833658854166
 20
-2.352505154079861
 30
0.0
 10
4.775472005208333
 20
-2.120612250434028
 30
0.0
 10
4.622382269965278
 20
-1.953009711371528
 30
0.0
 10
4.537638346354166
 20
-1.770738389756944
 30
0.0
 10
4.383138020833333
 20
-1.439839680989583
 30
0.0
 10
4.262301974826388
 20
-1.095357259114583
 30
0.0
 10
4.261528862847222
 20
-1.091356065538194
 30
0.0
 10
4.261528862847222
 20
-1.091356065538194
 30
0.0
 10
4.130967881944445
 20
-0.6592814127604166
 30
0.0
 10
4.130967881944445
 20
-0.6592814127604166
 30
0.0
 10
4.130967881944445
 20
-0.6592814127604166
 30
0.0
 10
3.98974609375
 20
-1.099378797743056
 30
0.0
 10
3.98974609375
 20
-1.099378797743056
 30
0.0
 10
3.988511827256944
 20
-1.10345458984375
 30
0.0
 10
3.858717176649305
 20
-1.438835991753472
 30
0.0
 10
3.703294542100694
 20
-1.770738389756944
 30
0.0
 10
3.618414984809028
 20
-1.953009711371528
 30
0.0
 10
3.465318467881944
 20
-2.120612250434028
 30
0.0
 10
3.253092447916667
 20
-2.352505154079861
 30
0.0
 10
3.094129774305555
 20
-2.52667236328125
 30
0.0
 10
2.895501030815972
 20
-2.743523491753472
 30
0.0
 10
2.670477973090278
 20
-3.028964572482639
 30
0.0
 10
2.276611328125
 20
-3.529161241319444
 30
0.0
 10
2.269972059461805
 20
-4.019497341579861
 30
0.0
 10
2.343288845486111
 20
-4.358554416232638
 30
0.0
 10
2.200222439236111
 20
-4.318583170572916
 30
0.0
 10
2.028910319010417
 20
-4.288411458333333
 30
0.0
 10
1.836296929253472
 20
-4.288411458333333
 30
0.0
 10
1.496141221788194
 20
-4.288411458333333
 30
0.0
 10
1.165086534288194
 20
-4.381869845920138
 30
0.0
 10
0.8519422743055555
 20
-4.566602918836805
 30
0.0
 10
-0.1625094943576389
 20
-5.164571126302083
 30
0.0
 10
0.0074123806423611
 20
-6.501220703125
 30
0.0
 10
0.0154351128472222
 20
-6.558078342013888
 30
0.0
 10
0.0154351128472222
 20
-6.558078342013888
 30
0.0
 10
0.0605061848958333
 20
-6.888807508680555
 30
0.0
 10
0.0605061848958333
 20
-6.888807508680555
 30
0.0
 10
0.0605061848958333
 20
-6.888807508680555
 30
0.0
 10
0.3231879340277777
 20
-6.683376736111111
 30
0.0
 10
0.3231879340277777
 20
-6.683376736111111
 30
0.0
 10
0.3247273763020833
 20
-6.682481553819444
 30
0.0
 10
0.4583740234375
 20
-6.585503472222221
 30
0.0
 10
0.6613294813368055
 20
-6.585503472222221
 30
0.0
 10
0.748684353298611
 20
-6.585503472222221
 30
0.0
 10
0.8375786675347222
 20
-6.603298611111111
 30
0.0
 10
0.9266357421875
 20
-6.638671875
 30
0.0
 10
1.108133951822917
 20
-6.710639105902778
 30
0.0
 10
1.434556749131944
 20
-7.026123046875
 30
0.0
 10
1.502461751302083
 20
-7.750244140625
 30
0.0
 10
1.51434326171875
 20
-7.879665798611111
 30
0.0
 10
1.521294487847222
 20
-8.004828559027777
 30
0.0
 10
1.528394911024306
 20
-8.12575954861111
 30
0.0
 10
1.562045627170139
 20
-8.731852213541666
 30
0.0
 10
1.59429931640625
 20
-9.304796006944445
 30
0.0
 10
2.244974772135417
 20
-9.775444878472221
 30
0.0
 10
2.488369411892361
 20
-9.952067057291666
 30
0.0
 10
2.774502224392361
 20
-10.04136827256944
 30
0.0
 10
3.095675998263889
 20
-10.04136827256944
 30
0.0
 10
3.536302354600694
 20
-10.04136827256944
 30
0.0
 10
3.933559841579861
 20
-9.869981553819445
 30
0.0
 10
4.120775010850695
 20
-9.774386935763888
 30
0.0
 10
4.307522243923611
 20
-9.869981553819445
 30
0.0
 10
4.704779730902778
 20
-10.04136827256944
 30
0.0
 10
5.145575629340278
 20
-10.04136827256944
 30
0.0
 10
5.466579861111111
 20
-10.04136827256944
 30
0.0
 10
5.752427842881944
 20
-9.952067057291666
 30
0.0
 10
5.995808919270833
 20
-9.775444878472221
 30
0.0
 10
6.646497938368055
 20
-9.304796006944445
 30
0.0
 10
6.678426106770833
 20
-8.731852213541666
 30
0.0
 10
6.712687174479166
 20
-8.12575954861111
 30
0.0
 10
6.719645182291666
 20
-8.004828559027777
 30
0.0
 10
6.726589626736111
 20
-7.879665798611111
 30
0.0
 10
6.73876953125
 20
-7.750244140625
 30
0.0
 10
6.806532118055555
 20
-7.026123046875
 30
0.0
 10
7.132188585069444
 20
-6.710639105902778
 30
0.0
 10
7.314765082465278
 20
-6.638671875
 30
0.0
 10
7.403361002604166
 20
-6.603298611111111
 30
0.0
 10
7.492404513888888
 20
-6.585503472222221
 30
0.0
 10
7.579752604166666
 20
-6.585503472222221
 30
0.0
 10
7.782552083333333
 20
-6.585503472222221
 30
0.0
 10
7.917751736111111
 20
-6.683376736111111
 30
0.0
 10
7.917751736111111
 20
-6.683376736111111
 30
0.0
 10
7.917751736111111
 20
-6.683376736111111
 30
0.0
 10
8.181206597222221
 20
-6.888807508680555
 30
0.0
 10
8.181206597222221
 20
-6.888807508680555
 30
0.0
 10
8.181206597222221
 20
-6.888807508680555
 30
0.0
 10
8.225816514756945
 20
-6.558078342013888
 30
0.0
 10
8.225816514756945
 20
-6.558078342013888
 30
0.0
 10
8.2335205078125
 20
-6.501220703125
 30
0.0
 10
8.4034423828125
 20
-5.164571126302083
 30
0.0
 10
7.38916015625
 20
-4.566602918836805
 30
0.0
  0
SPLINE
  5
3D
330
1F
100
AcDbEntity
  8
Layer 1
370
     0
100
AcDbSpline
210
0.0
220
0.0
230
1.0
 70
    11
 71
     3
 72
    23
 73
    19
 74
     0
 42
0.0000000001
 43
0.0000000001
 40
0.0
 40
0.0
 40
0.0
 40
0.0
 40
1.0
 40
1.0
 40
1.0
 40
2.0
 40
2.0
 40
2.0
 40
3.0
 40
3.0
 40
3.0
 40
4.0
 40
4.0
 40
4.0
 40
5.0
 40
5.0
 40
5.0
 40
6.0
 40
6.0
 40
6.0
 40
6.0
 10
5.819552951388888
 20
-5.267435709635416
 30
0.0
 10
6.450480143229166
 20
-5.157572428385416
 30
0.0
 10
6.795260959201388
 20
-5.555521647135416
 30
0.0
 10
6.795260959201388
 20
-5.555521647135416
 30
0.0
 10
6.795260959201388
 20
-5.555521647135416
 30
0.0
 10
6.427490234375
 20
-5.547478569878472
 30
0.0
 10
6.131157769097222
 20
-5.795335557725694
 30
0.0
 10
5.835598415798611
 20
-6.043646918402778
 30
0.0
 10
5.731282552083333
 20
-6.355523003472221
 30
0.0
 10
5.731282552083333
 20
-6.355523003472221
 30
0.0
 10
5.731282552083333
 20
-6.355523003472221
 30
0.0
 10
5.659193250868055
 20
-6.163438585069444
 30
0.0
 10
5.443128797743055
 20
-5.947699652777778
 30
0.0
 10
5.275200737847222
 20
-5.779317220052083
 30
0.0
 10
5.067314995659722
 20
-5.659674750434028
 30
0.0
 10
5.067314995659722
 20
-5.659674750434028
 30
0.0
 10
5.067314995659722
 20
-5.659674750434028
 30
0.0
 10
5.315646701388888
 20
-5.355434841579861
 30
0.0
 10
5.819552951388888
 20
-5.267435709635416
 30
0.0
  0
SPLINE
  5
3E
330
1F
100
AcDbEntity
  8
Layer 1
370
     0
100
AcDbSpline
210
0.0
220
0.0
230
1.0
 70
    11
 71
     3
 72
    41
 73
    37
 74
     0
 42
0.0000000001
 43
0.0000000001
 40
0.0
 40
0.0
 40
0.0
 40
0.0
 40
1.0
 40
1.0
 40
1.0
 40
2.0
 40
2.0
 40
2.0
 40
3.0
 40
3.0
 40
3.0
 40
4.0
 40
4.0
 40
4.0
 40
5.0
 40
5.0
 40
5.0
 40
6.0
 40
6.0
 40
6.0
 40
7.0
 40
7.0
 40
7.0
 40
8.0
 40
8.0
 40
8.0
 40
9.0
 40
9.0
 40
9.0
 40
10.0
 40
10.0
 40
10.0
 40
11.0
 40
11.0
 40
11.0
 40
12.0
 40
12.0
 40
12.0
 40
12.0
 10
3.709784613715278
 20
-3.372361924913194
 30
0.0
 10
3.867513020833333
 20
-3.146185980902778
 30
0.0
 10
4.038825141059028
 20
-2.921773274739583
 30
0.0
 10
4.120775010850695
 20
-2.809034559461805
 30
0.0
 10
4.1865234375
 20
-2.890984429253472
 30
0.0
 10
4.353054470486111
 20
-3.117397732204861
 30
0.0
 10
4.531778971354166
 20
-3.372361924913194
 30
0.0
 10
4.755560980902778
 20
-3.692233615451389
 30
0.0
 10
5.133694118923611
 20
-4.073893229166666
 30
0.0
 10
5.139702690972222
 20
-4.524156358506944
 30
0.0
 10
5.147271050347222
 20
-5.139424641927083
 30
0.0
 10
4.579766167534722
 20
-5.420552571614583
 30
0.0
 10
4.579766167534722
 20
-5.420552571614583
 30
0.0
 10
4.579766167534722
 20
-5.420552571614583
 30
0.0
 10
4.371731228298611
 20
-4.988396538628472
 30
0.0
 10
4.371731228298611
 20
-4.988396538628472
 30
0.0
 10
4.371731228298611
 20
-4.988396538628472
 30
0.0
 10
4.803087022569444
 20
-4.723422580295138
 30
0.0
 10
4.651529947916666
 20
-4.251614040798611
 30
0.0
 10
4.546590169270833
 20
-3.926194932725694
 30
0.0
 10
4.120775010850695
 20
-3.342881944444444
 30
0.0
 10
4.120775010850695
 20
-3.342881944444444
 30
0.0
 10
4.058573404947916
 20
-3.426066080729167
 30
0.0
 10
3.694349500868055
 20
-3.926194932725694
 30
0.0
 10
3.589708116319444
 20
-4.251614040798611
 30
0.0
 10
3.437845865885417
 20
-4.723422580295138
 30
0.0
 10
3.869357638888889
 20
-4.988396538628472
 30
0.0
 10
3.869357638888889
 20
-4.988396538628472
 30
0.0
 10
3.869357638888889
 20
-4.988396538628472
 30
0.0
 10
3.661322699652778
 20
-5.420552571614583
 30
0.0
 10
3.661322699652778
 20
-5.420552571614583
 30
0.0
 10
3.661322699652778
 20
-5.420552571614583
 30
0.0
 10
3.093519422743055
 20
-5.139424641927083
 30
0.0
 10
3.10137939453125
 20
-4.524156358506944
 30
0.0
 10
3.107401529947917
 20
-4.073893229166666
 30
0.0
 10
3.485527886284722
 20
-3.692233615451389
 30
0.0
 10
3.709784613715278
 20
-3.372361924913194
 30
0.0
  0
SPLINE
  5
3F
330
1F
100
AcDbEntity
  8
Layer 1
370
     0
100
AcDbSpline
210
0.0
220
0.0
230
1.0
 70
    11
 71
     3
 72
    17
 73
    13
 74
     0
 42
0.0000000001
 43
0.0000000001
 40
0.0
 40
0.0
 40
0.0
 40
0.0
 40
1.0
 40
1.0
 40
1.0
 40
2.0
 40
2.0
 40
2.0
 40
3.0
 40
3.0
 40
3.0
 40
4.0
 40
4.0
 40
4.0
 40
4.0
 10
4.419420030381945
 20
-5.995686848958333
 30
0.0
 10
4.393486870659722
 20
-6.213623046875
 30
0.0
 10
4.185750325520833
 20
-6.256971571180555
 30
0.0
 10
4.120775010850695
 20
-6.26513671875
 30
0.0
 10
4.055033365885416
 20
-6.256971571180555
 30
0.0
 10
3.847601996527778
 20
-6.213623046875
 30
0.0
 10
3.821363661024305
 20
-5.995686848958333
 30
0.0
 10
3.783237033420139
 20
-5.674051920572916
 30
0.0
 10
4.093465169270833
 20
-5.623948838975694
 30
0.0
 10
4.120775010850695
 20
-5.620259602864583
 30
0.0
 10
4.147318522135416
 20
-5.623948838975694
 30
0.0
 10
4.457695855034722
 20
-5.674051920572916
 30
0.0
 10
4.419420030381945
 20
-5.995686848958333
 30
0.0
  0
SPLINE
  5
40
330
1F
100
AcDbEntity
  8
Layer 1
370
     0
100
AcDbSpline
210
0.0
220
0.0
230
1.0
 70
    11
 71
     3
 72
    23
 73
    19
 74
     0
 42
0.0000000001
 43
0.0000000001
 40
0.0
 40
0.0
 40
0.0
 40
0.0
 40
1.0
 40
1.0
 40
1.0
 40
2.0
 40
2.0
 40
2.0
 40
3.0
 40
3.0
 40
3.0
 40
4.0
 40
4.0
 40
4.0
 40
5.0
 40
5.0
 40
5.0
 40
6.0
 40
6.0
 40
6.0
 40
6.0
 10
2.421990288628472
 20
-5.267435709635416
 30
0.0
 10
2.925604926215278
 20
-5.355434841579861
 30
0.0
 10
3.173617892795139
 20
-5.659674750434028
 30
0.0
 10
3.173617892795139
 20
-5.659674750434028
 30
0.0
 10
3.173617892795139
 20
-5.659674750434028
 30
0.0
 10
2.966193305121528
 20
-5.779317220052083
 30
0.0
 10
2.797810872395833
 20
-5.947699652777778
 30
0.0
 10
2.581895616319444
 20
-6.163438585069444
 30
0.0
 10
2.509501139322917
 20
-6.355523003472221
 30
0.0
 10
2.509501139322917
 20
-6.355523003472221
 30
0.0
 10
2.509501139322917
 20
-6.355523003472221
 30
0.0
 10
2.405646430121528
 20
-6.043646918402778
 30
0.0
 10
2.109775119357639
 20
-5.795335557725694
 30
0.0
 10
1.813761393229167
 20
-5.547478569878472
 30
0.0
 10
1.445197211371528
 20
-5.555521647135416
 30
0.0
 10
1.445197211371528
 20
-5.555521647135416
 30
0.0
 10
1.445197211371528
 20
-5.555521647135416
 30
0.0
 10
1.790452745225694
 20
-5.157572428385416
 30
0.0
 10
2.421990288628472
 20
-5.267435709635416
 30
0.0
  0
SPLINE
  5
41
330
1F
100
AcDbEntity
  8
Layer 1
370
     0
100
AcDbSpline
210
0.0
220
0.0
230
1.0
 70
    11
 71
     3
 72
    35
 73
    31
 74
     0
 42
0.0000000001
 43
0.0000000001
 40
0.0
 40
0.0
 40
0.0
 40
0.0
 40
1.0
 40
1.0
 40
1.0
 40
2.0
 40
2.0
 40
2.0
 40
3.0
 40
3.0
 40
3.0
 40
4.0
 40
4.0
 40
4.0
 40
5.0
 40
5.0
 40
5.0
 40
6.0
 40
6.0
 40
6.0
 40
7.0
 40
7.0
 40
7.0
 40
8.0
 40
8.0
 40
8.0
 40
9.0
 40
9.0
 40
9.0
 40
10.0
 40
10.0
 40
10.0
 40
10.0
 10
2.397148980034722
 20
-8.104329427083332
 30
0.0
 10
2.117180718315972
 20
-8.312418619791666
 30
0.0
 10
1.929043240017361
 20
-8.080159505208332
 30
0.0
 10
1.929043240017361
 20
-8.080159505208332
 30
0.0
 10
1.929043240017361
 20
-8.080159505208332
 30
0.0
 10
1.901116265190972
 20
-7.612250434027778
 30
0.0
 10
1.864997016059028
 20
-7.312065972222221
 30
0.0
 10
1.829501681857639
 20
-7.012152777777778
 30
0.0
 10
1.736436631944444
 20
-6.699435763888888
 30
0.0
 10
1.509718153211806
 20
-6.372016059027778
 30
0.0
 10
1.201517740885417
 20
-5.928059895833333
 30
0.0
 10
0.66534423828125
 20
-5.944118923611111
 30
0.0
 10
0.66534423828125
 20
-5.944118923611111
 30
0.0
 10
0.66534423828125
 20
-5.944118923611111
 30
0.0
 10
1.437025282118056
 20
-5.808152940538194
 30
0.0
 10
1.925042046440972
 20
-6.252197265625
 30
0.0
 10
2.128607855902778
 20
-6.436848958333333
 30
0.0
 10
2.221523708767361
 20
-6.640190972222221
 30
0.0
 10
2.253309461805555
 20
-6.808268229166666
 30
0.0
 10
2.301466200086805
 20
-6.704074435763888
 30
0.0
 10
2.354085286458333
 20
-6.651448567708333
 30
0.0
 10
2.421535915798611
 20
-6.616102430555555
 30
0.0
 10
2.6053466796875
 20
-6.520182291666666
 30
0.0
 10
2.749654134114583
 20
-6.664116753472221
 30
0.0
 10
2.749654134114583
 20
-6.664116753472221
 30
0.0
 10
2.749654134114583
 20
-6.664116753472221
 30
0.0
 10
2.4534912109375
 20
-6.792073567708333
 30
0.0
 10
2.533894856770833
 20
-7.336100260416666
 30
0.0
 10
2.588216145833333
 20
-7.709581163194444
 30
0.0
 10
2.563218858506944
 20
-7.981201171875
 30
0.0
 10
2.397148980034722
 20
-8.104329427083332
 30
0.0
  0
SPLINE
  5
42
330
1F
100
AcDbEntity
  8
Layer 1
370
     0
100
AcDbSpline
210
0.0
220
0.0
230
1.0
 70
    11
 71
     3
 72
    59
 73
    55
 74
     0
 42
0.0000000001
 43
0.0000000001
 40
0.0
 40
0.0
 40
0.0
 40
0.0
 40
1.0
 40
1.0
 40
1.0
 40
2.0
 40
2.0
 40
2.0
 40
3.0
 40
3.0
 40
3.0
 40
4.0
 40
4.0
 40
4.0
 40
5.0
 40
5.0
 40
5.0
 40
6.0
 40
6.0
 40
6.0
 40
7.0
 40
7.0
 40
7.0
 40
8.0
 40
8.0
 40
8.0
 40
9.0
 40
9.0
 40
9.0
 40
10.0
 40
10.0
 40
10.0
 40
11.0
 40
11.0
 40
11.0
 40
12.0
 40
12.0
 40
12.0
 40
13.0
 40
13.0
 40
13.0
 40
14.0
 40
14.0
 40
14.0
 40
15.0
 40
15.0
 40
15.0
 40
16.0
 40
16.0
 40
16.0
 40
17.0
 40
17.0
 40
17.0
 40
18.0
 40
18.0
 40
18.0
 40
18.0
 10
5.0594482421875
 20
-9.05227322048611
 30
0.0
 10
4.528835720486111
 20
-9.175618489583332
 30
0.0
 10
4.123860677083333
 20
-8.713243272569445
 30
0.0
 10
4.123860677083333
 20
-8.713243272569445
 30
0.0
 10
4.064297146267361
 20
-8.786078559027777
 30
0.0
 10
3.711629231770833
 20
-9.175618489583332
 30
0.0
 10
3.181640625
 20
-9.05227322048611
 30
0.0
 10
2.479865180121528
 20
-8.889024522569445
 30
0.0
 10
2.557515462239583
 20
-8.348442925347221
 30
0.0
 10
2.557515462239583
 20
-8.348442925347221
 30
0.0
 10
2.557515462239583
 20
-8.348442925347221
 30
0.0
 10
2.861545138888889
 20
-8.468315972222221
 30
0.0
 10
3.069125705295139
 20
-8.308268229166666
 30
0.0
 10
3.27764892578125
 20
-8.148139105902777
 30
0.0
 10
3.245842827690972
 20
-7.916395399305555
 30
0.0
 10
3.197686089409722
 20
-7.500325520833333
 30
0.0
 10
3.149224175347222
 20
-7.084309895833333
 30
0.0
 10
3.109415690104167
 20
-6.820366753472221
 30
0.0
 10
3.253716362847222
 20
-6.612033420138888
 30
0.0
 10
3.475192599826389
 20
-6.291802300347221
 30
0.0
 10
3.797743055555555
 20
-6.403537326388888
 30
0.0
 10
3.821519639756944
 20
-6.643825954861111
 30
0.0
 10
3.855617947048611
 20
-6.979465060763888
 30
0.0
 10
3.549424913194444
 20
-6.819769965277778
 30
0.0
 10
3.461615668402778
 20
-7.107666015625
 30
0.0
 10
3.365152994791667
 20
-7.423312717013888
 30
0.0
 10
3.677374945746528
 20
-7.636284722222221
 30
0.0
 10
3.837571885850694
 20
-7.844156901041666
 30
0.0
 10
3.955641004774305
 20
-7.997884114583333
 30
0.0
 10
4.112745496961805
 20
-8.220540364583332
 30
0.0
 10
4.120775010850695
 20
-8.210693359375
 30
0.0
 10
4.128343370225695
 20
-8.220540364583332
 30
0.0
 10
4.285454644097222
 20
-7.997884114583333
 30
0.0
 10
4.403361002604166
 20
-7.844156901041666
 30
0.0
 10
4.563720703125
 20
-7.636284722222221
 30
0.0
 10
4.8760986328125
 20
-7.423312717013888
 30
0.0
 10
4.779188368055555
 20
-7.107666015625
 30
0.0
 10
4.691365559895833
 20
-6.819769965277778
 30
0.0
 10
4.385932074652778
 20
-6.979465060763888
 30
0.0
 10
4.419420030381945
 20
-6.643825954861111
 30
0.0
 10
4.443332248263888
 20
-6.403537326388888
 30
0.0
 10
4.765435112847222
 20
-6.291802300347221
 30
0.0
 10
4.987521701388888
 20
-6.612033420138888
 30
0.0
 10
5.131673177083333
 20
-6.820366753472221
 30
0.0
 10
5.091240776909722
 20
-7.084309895833333
 30
0.0
 10
5.043701171875
 20
-7.500325520833333
 30
0.0
 10
4.995252821180555
 20
-7.916395399305555
 30
0.0
 10
4.963758680555555
 20
-8.148139105902777
 30
0.0
 10
5.171196831597222
 20
-8.308268229166666
 30
0.0
 10
5.37939453125
 20
-8.468315972222221
 30
0.0
 10
5.683729383680555
 20
-8.348442925347221
 30
0.0
 10
5.683729383680555
 20
-8.348442925347221
 30
0.0
 10
5.683729383680555
 20
-8.348442925347221
 30
0.0
 10
5.761366102430555
 20
-8.889024522569445
 30
0.0
 10
5.0594482421875
 20
-9.05227322048611
 30
0.0
  0
SPLINE
  5
43
330
1F
100
AcDbEntity
  8
Layer 1
370
     0
100
AcDbSpline
210
0.0
220
0.0
230
1.0
 70
    11
 71
     3
 72
    35
 73
    31
 74
     0
 42
0.0000000001
 43
0.0000000001
 40
0.0
 40
0.0
 40
0.0
 40
0.0
 40
1.0
 40
1.0
 40
1.0
 40
2.0
 40
2.0
 40
2.0
 40
3.0
 40
3.0
 40
3.0
 40
4.0
 40
4.0
 40
4.0
 40
5.0
 40
5.0
 40
5.0
 40
6.0
 40
6.0
 40
6.0
 40
7.0
 40
7.0
 40
7.0
 40
8.0
 40
8.0
 40
8.0
 40
9.0
 40
9.0
 40
9.0
 40
10.0
 40
10.0
 40
10.0
 40
10.0
 10
6.725504557291666
 20
-6.372016059027778
 30
0.0
 10
6.498630099826388
 20
-6.699435763888888
 30
0.0
 10
6.405870225694444
 20
-7.012152777777778
 30
0.0
 10
6.369764539930555
 20
-7.312065972222221
 30
0.0
 10
6.333333333333333
 20
-7.612250434027778
 30
0.0
 10
6.305718315972221
 20
-8.080159505208332
 30
0.0
 10
6.305718315972221
 20
-8.080159505208332
 30
0.0
 10
6.305718315972221
 20
-8.080159505208332
 30
0.0
 10
6.117567274305555
 20
-8.312418619791666
 30
0.0
 10
5.837307400173611
 20
-8.104329427083332
 30
0.0
 10
5.671400282118055
 20
-7.981201171875
 30
0.0
 10
5.646687825520833
 20
-7.709581163194444
 30
0.0
 10
5.701334635416666
 20
-7.336100260416666
 30
0.0
 10
5.781589084201388
 20
-6.792073567708333
 30
0.0
 10
5.485582139756944
 20
-6.664116753472221
 30
0.0
 10
5.485582139756944
 20
-6.664116753472221
 30
0.0
 10
5.485582139756944
 20
-6.664116753472221
 30
0.0
 10
5.629570855034722
 20
-6.520182291666666
 30
0.0
 10
5.813368055555555
 20
-6.616102430555555
 30
0.0
 10
5.881279839409722
 20
-6.651448567708333
 30
0.0
 10
5.933146158854166
 20
-6.704074435763888
 30
0.0
 10
5.981608072916666
 20
-6.808268229166666
 30
0.0
 10
6.013400607638888
 20
-6.640190972222221
 30
0.0
 10
6.106621636284722
 20
-6.436848958333333
 30
0.0
 10
6.309719509548611
 20
-6.252197265625
 30
0.0
 10
6.797566731770833
 20
-5.808152940538194
 30
0.0
 10
7.569729275173611
 20
-5.944118923611111
 30
0.0
 10
7.569729275173611
 20
-5.944118923611111
 30
0.0
 10
7.569729275173611
 20
-5.944118923611111
 30
0.0
 10
7.033854166666666
 20
-5.928059895833333
 30
0.0
 10
6.725504557291666
 20
-6.372016059027778
 30
0.0
  0
ENDSEC
  0
SECTION
  2
OBJECTS
  0
DICTIONARY
  5
C
330
0
100
AcDbDictionary
281
     1
  3
ACAD_GROUP
350
D
  3
ACAD_LAYOUT
350
1A
  3
ACAD_MLINESTYLE
350
17
  3
ACAD_PLOTSETTINGS
350
19
  3
ACAD_PLOTSTYLENAME
350
E
  3
ACAD_TABLESTYLE
350
44
  3
ACAD_VISUALSTYLE
350
2A
  0
DICTIONARY
  5
D
102
{ACAD_REACTORS
330
C
102
}
330
C
100
AcDbDictionary
281
     1
  0
DICTIONARY
  5
1A
102
{ACAD_REACTORS
330
C
102
}
330
C
100
AcDbDictionary
281
     1
  3
Layout1
350
1E
  3
Layout2
350
26
  3
Model
350
22
  0
DICTIONARY
  5
17
102
{ACAD_REACTORS
330
C
102
}
330
C
100
AcDbDictionary
281
     1
  3
Standard
350
18
  0
DICTIONARY
  5
19
102
{ACAD_REACTORS
330
C
102
}
330
C
100
AcDbDictionary
281
     1
  0
ACDBDICTIONARYWDFLT
  5
E
102
{ACAD_REACTORS
330
C
102
}
330
C
100
AcDbDictionary
281
     1
  3
Normal
350
F
100
AcDbDictionaryWithDefault
340
F
  0
DICTIONARY
  5
44
102
{ACAD_REACTORS
330
C
102
}
330
C
100
AcDbDictionary
281
     1
  0
DICTIONARY
  5
2A
102
{ACAD_REACTORS
330
C
102
}
330
C
100
AcDbDictionary
281
     1
  3
2dWireframe
350
2F
  3
3D Hidden
350
31
  3
3dWireframe
350
30
  3
Basic
350
32
  3
Brighten
350
36
  3
ColorChange
350
3A
  3
Conceptual
350
34
  3
Dim
350
35
  3
Facepattern
350
39
  3
Flat
350
2B
  3
FlatWithEdges
350
2C
  3
Gouraud
350
2D
  3
GouraudWithEdges
350
2E
  3
Linepattern
350
38
  3
Realistic
350
33
  3
Thicken
350
37
  0
LAYOUT
  5
1E
102
{ACAD_REACTORS
330
1A
102
}
330
1A
100
AcDbPlotSettings
  1

  2
none_device
  4

  6

 40
0.0
 41
0.0
 42
0.0
 43
0.0
 44
0.0
 45
0.0
 46
0.0
 47
0.0
 48
0.0
 49
0.0
140
0.0
141
0.0
142
1.0
143
1.0
 70
   688
 72
     0
 73
     0
 74
     5
  7

 75
    16
 76
     0
 77
     2
 78
   300
147
1.0
148
0.0
149
0.0
100
AcDbLayout
  1
Layout1
 70
     1
 71
     1
 10
0.0
 20
0.0
 11
12.0
 21
9.0
 12
0.0
 22
0.0
 32
0.0
 14
1.000000000000000E+20
 24
1.000000000000000E+20
 34
1.000000000000000E+20
 15
-1.000000000000000E+20
 25
-1.000000000000000E+20
 35
-1.000000000000000E+20
146
0.0
 13
0.0
 23
0.0
 33
0.0
 16
1.0
 26
0.0
 36
0.0
 17
0.0
 27
1.0
 37
0.0
 76
     0
330
1B
  0
LAYOUT
  5
26
102
{ACAD_REACTORS
330
1A
102
}
330
1A
100
AcDbPlotSettings
  1

  2
none_device
  4

  6

 40
0.0
 41
0.0
 42
0.0
 43
0.0
 44
0.0
 45
0.0
 46
0.0
 47
0.0
 48
0.0
 49
0.0
140
0.0
141
0.0
142
1.0
143
1.0
 70
   688
 72
     0
 73
     0
 74
     5
  7

 75
    16
 76
     0
 77
     2
 78
   300
147
1.0
148
0.0
149
0.0
100
AcDbLayout
  1
Layout2
 70
     1
 71
     2
 10
0.0
 20
0.0
 11
0.0
 21
0.0
 12
0.0
 22
0.0
 32
0.0
 14
0.0
 24
0.0
 34
0.0
 15
0.0
 25
0.0
 35
0.0
146
0.0
 13
0.0
 23
0.0
 33
0.0
 16
1.0
 26
0.0
 36
0.0
 17
0.0
 27
1.0
 37
0.0
 76
     0
330
23
  0
LAYOUT
  5
22
102
{ACAD_REACTORS
330
1A
102
}
330
1A
100
AcDbPlotSettings
  1

  2
none_device
  4

  6

 40
0.0
 41
0.0
 42
0.0
 43
0.0
 44
0.0
 45
0.0
 46
0.0
 47
0.0
 48
0.0
 49
0.0
140
0.0
141
0.0
142
1.0
143
1.0
 70
  1712
 72
     0
 73
     0
 74
     0
  7

 75
     0
 76
     0
 77
     2
 78
   300
147
1.0
148
0.0
149
0.0
100
AcDbLayout
  1
Model
 70
     1
 71
     0
 10
0.0
 20
0.0
 11
12.0
 21
9.0
 12
0.0
 22
0.0
 32
0.0
 14
1.000000000000000E+20
 24
1.000000000000000E+20
 34
1.000000000000000E+20
 15
-1.000000000000000E+20
 25
-1.000000000000000E+20
 35
-1.000000000000000E+20
146
0.0
 13
0.0
 23
0.0
 33
0.0
 16
1.0
 26
0.0
 36
0.0
 17
0.0
 27
1.0
 37
0.0
 76
     0
330
1F
331
29
  0
MLINESTYLE
  5
18
102
{ACAD_REACTORS
330
17
102
}
330
17
100
AcDbMlineStyle
  2
Standard
 70
     0
  3

 62
   256
 51
90.0
 52
90.0
 71
     2
 49
0.5
 62
   256
  6
BYLAYER
 49
-0.5
 62
   256
  6
BYLAYER
  0
ACDBPLACEHOLDER
  5
F
102
{ACAD_REACTORS
330
E
102
}
330
E
  0
VISUALSTYLE
  5
2F
102
{ACAD_REACTORS
330
2A
102
}
330
2A
100
AcDbVisualStyle
  2
2dWireframe
 70
     4
 71
     0
 72
     2
 73
     0
 90
        0
 40
-0.6
 41
-30.0
 62
     5
 63
     7
421
 16777215
 74
     1
 91
        4
 64
     7
 65
   257
 75
     1
175
     1
 42
1.0
 92
        0
 66
   257
 43
1.0
 76
     1
 77
     6
 78
     2
 67
     7
 79
     5
170
     0
171
     0
290
     0
174
     0
 93
        1
 44
0.0
173
     0
291
     0
 45
0.0
1001
ACAD
1000
AcDbSavedByObjectVersion
1070
     0
  0
VISUALSTYLE
  5
31
102
{ACAD_REACTORS
330
2A
102
}
330
2A
100
AcDbVisualStyle
  2
3D Hidden
 70
     6
 71
     1
 72
     2
 73
     2
 90
        0
 40
-0.6
 41
-30.0
 62
     5
 63
     7
421
 16777215
 74
     2
 91
        2
 64
     7
 65
   257
 75
     2
175
     1
 42
40.0
 92
        0
 66
   257
 43
1.0
 76
     1
 77
     6
 78
     2
 67
     7
 79
     3
170
     0
171
     0
290
     0
174
     0
 93
        1
 44
0.0
173
     0
291
     0
 45
0.0
1001
ACAD
1000
AcDbSavedByObjectVersion
1070
     0
  0
VISUALSTYLE
  5
30
102
{ACAD_REACTORS
330
2A
102
}
330
2A
100
AcDbVisualStyle
  2
3dWireframe
 70
     5
 71
     0
 72
     2
 73
     0
 90
        0
 40
-0.6
 41
-30.0
 62
     5
 63
     7
421
 16777215
 74
     1
 91
        4
 64
     7
 65
   257
 75
     1
175
     1
 42
1.0
 92
        0
 66
   257
 43
1.0
 76
     1
 77
     6
 78
     2
 67
     7
 79
     5
170
     0
171
     0
290
     0
174
     0
 93
        1
 44
0.0
173
     0
291
     0
 45
0.0
1001
ACAD
1000
AcDbSavedByObjectVersion
1070
     0
  0
VISUALSTYLE
  5
32
102
{ACAD_REACTORS
330
2A
102
}
330
2A
100
AcDbVisualStyle
  2
Basic
 70
     7
 71
     1
 72
     0
 73
     1
 90
        0
 40
-0.6
 41
-30.0
 62
     5
 63
     7
421
 16777215
 74
     0
 91
        4
 64
     7
 65
   257
 75
     1
175
     1
 42
1.0
 92
        8
 66
     7
 43
1.0
 76
     1
 77
     6
 78
     2
 67
     7
 79
     5
170
     0
171
     0
290
     0
174
     0
 93
        1
 44
0.0
173
     0
291
     1
 45
0.0
1001
ACAD
1000
AcDbSavedByObjectVersion
1070
     0
  0
VISUALSTYLE
  5
36
102
{ACAD_REACTORS
330
2A
102
}
330
2A
100
AcDbVisualStyle
  2
Brighten
 70
    12
 71
     2
 72
     2
 73
     0
 90
        0
 40
-0.6
 41
-30.0
 62
     5
 63
     7
421
 16777215
 74
     1
 91
        4
 64
     7
 65
   257
 75
     1
175
     1
 42
1.0
 92
        8
 66
     7
 43
1.0
 76
     1
 77
     6
 78
     2
 67
     7
 79
     5
170
     0
171
     0
290
     0
174
     0
 93
        1
 44
50.0
173
     0
291
     1
 45
0.0
1001
ACAD
1000
AcDbSavedByObjectVersion
1070
     0
  0
VISUALSTYLE
  5
3A
102
{ACAD_REACTORS
330
2A
102
}
330
2A
100
AcDbVisualStyle
  2
ColorChange
 70
    16
 71
     2
 72
     2
 73
     3
 90
        0
 40
-0.6
 41
-30.0
 62
     5
 63
     8
421
  8421504
 74
     1
 91
        4
 64
     7
 65
   257
 75
     1
175
     1
 42
1.0
 92
        8
 66
     8
424
  8421504
 43
1.0
 76
     1
 77
     6
 78
     2
 67
     7
 79
     5
170
     0
171
     0
290
     0
174
     0
 93
        1
 44
0.0
173
     0
291
     1
 45
0.0
1001
ACAD
1000
AcDbSavedByObjectVersion
1070
     0
  0
VISUALSTYLE
  5
34
102
{ACAD_REACTORS
330
2A
102
}
330
2A
100
AcDbVisualStyle
  2
Conceptual
 70
     9
 71
     3
 72
     2
 73
     0
 90
        0
 40
-0.6
 41
-30.0
 62
     5
 63
     7
421
 16777215
 74
     2
 91
        2
 64
     7
 65
   257
 75
     1
175
     1
 42
40.0
 92
        8
 66
     7
 43
1.0
 76
     1
 77
     6
 78
     2
 67
     7
 79
     3
170
     0
171
     0
290
     0
174
     0
 93
        1
 44
0.0
173
     0
291
     0
 45
0.0
1001
ACAD
1000
AcDbSavedByObjectVersion
1070
     0
  0
VISUALSTYLE
  5
35
102
{ACAD_REACTORS
330
2A
102
}
330
2A
100
AcDbVisualStyle
  2
Dim
 70
    11
 71
     2
 72
     2
 73
     0
 90
        0
 40
-0.6
 41
-30.0
 62
     5
 63
     7
421
 16777215
 74
     1
 91
        4
 64
     7
 65
   257
 75
     1
175
     1
 42
1.0
 92
        8
 66
     7
 43
1.0
 76
     1
 77
     6
 78
     2
 67
     7
 79
     5
170
     0
171
     0
290
     0
174
     0
 93
        1
 44
-50.0
173
     0
291
     1
 45
0.0
1001
ACAD
1000
AcDbSavedByObjectVersion
1070
     0
  0
VISUALSTYLE
  5
39
102
{ACAD_REACTORS
330
2A
102
}
330
2A
100
AcDbVisualStyle
  2
Facepattern
 70
    15
 71
     2
 72
     2
 73
     0
 90
        0
 40
-0.6
 41
-30.0
 62
     5
 63
     7
421
 16777215
 74
     1
 91
        4
 64
     7
 65
   257
 75
     1
175
     1
 42
1.0
 92
        8
 66
     7
 43
1.0
 76
     1
 77
     6
 78
     2
 67
     7
 79
     5
170
     0
171
     0
290
     0
174
     0
 93
        1
 44
0.0
173
     0
291
     1
 45
0.0
1001
ACAD
1000
AcDbSavedByObjectVersion
1070
     0
  0
VISUALSTYLE
  5
2B
102
{ACAD_REACTORS
330
2A
102
}
330
2A
100
AcDbVisualStyle
  2
Flat
 70
     0
 71
     2
 72
     1
 73
     1
 90
        2
 40
-0.6
 41
30.0
 62
     5
 63
     7
421
 16777215
 74
     0
 91
        4
 64
     7
 65
   257
 75
     1
175
     1
 42
1.0
 92
        8
 66
     7
 43
1.0
 76
     1
 77
     6
 78
     2
 67
     7
 79
     5
170
     0
171
     0
290
     0
174
     0
 93
       13
 44
0.0
173
     0
291
     1
 45
0.0
1001
ACAD
1000
AcDbSavedByObjectVersion
1070
     0
  0
VISUALSTYLE
  5
2C
102
{ACAD_REACTORS
330
2A
102
}
330
2A
100
AcDbVisualStyle
  2
FlatWithEdges
 70
     1
 71
     2
 72
     1
 73
     1
 90
        2
 40
-0.6
 41
30.0
 62
     5
 63
     7
421
 16777215
 74
     1
 91
        4
 64
     7
 65
   257
 75
     1
175
     1
 42
1.0
 92
        0
 66
   257
 43
1.0
 76
     1
 77
     6
 78
     2
 67
     7
 79
     5
170
     0
171
     0
290
     0
174
     0
 93
       13
 44
0.0
173
     0
291
     1
 45
0.0
1001
ACAD
1000
AcDbSavedByObjectVersion
1070
     0
  0
VISUALSTYLE
  5
2D
102
{ACAD_REACTORS
330
2A
102
}
330
2A
100
AcDbVisualStyle
  2
Gouraud
 70
     2
 71
     2
 72
     2
 73
     1
 90
        2
 40
-0.6
 41
30.0
 62
     5
 63
     7
421
 16777215
 74
     0
 91
        4
 64
     7
 65
   257
 75
     1
175
     1
 42
1.0
 92
        0
 66
     7
 43
1.0
 76
     1
 77
     6
 78
     2
 67
     7
 79
     5
170
     0
171
     0
290
     0
174
     0
 93
       13
 44
0.0
173
     0
291
     1
 45
0.0
1001
ACAD
1000
AcDbSavedByObjectVersion
1070
     0
  0
VISUALSTYLE
  5
2E
102
{ACAD_REACTORS
330
2A
102
}
330
2A
100
AcDbVisualStyle
  2
GouraudWithEdges
 70
     3
 71
     2
 72
     2
 73
     1
 90
        2
 40
-0.6
 41
30.0
 62
     5
 63
     7
421
 16777215
 74
     1
 91
        4
 64
     7
 65
   257
 75
     1
175
     1
 42
1.0
 92
        0
 66
   257
 43
1.0
 76
     1
 77
     6
 78
     2
 67
     7
 79
     5
170
     0
171
     0
290
     0
174
     0
 93
       13
 44
0.0
173
     0
291
     1
 45
0.0
1001
ACAD
1000
AcDbSavedByObjectVersion
1070
     0
  0
VISUALSTYLE
  5
38
102
{ACAD_REACTORS
330
2A
102
}
330
2A
100
AcDbVisualStyle
  2
Linepattern
 70
    14
 71
     2
 72
     2
 73
     0
 90
        0
 40
-0.6
 41
-30.0
 62
     5
 63
     7
421
 16777215
 74
     1
 91
        4
 64
     7
 65
   257
 75
     7
175
     7
 42
1.0
 92
        8
 66
     7
 43
1.0
 76
     1
 77
     6
 78
     2
 67
     7
 79
     5
170
     0
171
     0
290
     0
174
     0
 93
        1
 44
0.0
173
     0
291
     1
 45
0.0
1001
ACAD
1000
AcDbSavedByObjectVersion
1070
     0
  0
VISUALSTYLE
  5
33
102
{ACAD_REACTORS
330
2A
102
}
330
2A
100
AcDbVisualStyle
  2
Realistic
 70
     8
 71
     2
 72
     2
 73
     0
 90
        0
 40
-0.6
 41
-30.0
 62
     5
 63
     7
421
 16777215
 74
     1
 91
        0
 64
     7
 65
   257
 75
     1
175
     1
 42
1.0
 92
        8
 66
     8
424
  7895160
 43
1.0
 76
     1
 77
     6
 78
     2
 67
     7
 79
     5
170
     0
171
     0
290
     0
174
     0
 93
       13
 44
0.0
173
     0
291
     0
 45
0.0
1001
ACAD
1000
AcDbSavedByObjectVersion
1070
     0
  0
VISUALSTYLE
  5
37
102
{ACAD_REACTORS
330
2A
102
}
330
2A
100
AcDbVisualStyle
  2
Thicken
 70
    13
 71
     2
 72
     2
 73
     0
 90
        0
 40
-0.6
 41
-30.0
 62
     5
 63
     7
421
 16777215
 74
     1
 91
        4
 64
     7
 65
   257
 75
     1
175
     1
 42
1.0
 92
       12
 66
     7
 43
1.0
 76
     1
 77
     6
 78
     2
 67
     7
 79
     5
170
     0
171
     0
290
     0
174
     0
 93
        1
 44
0.0
173
     0
291
     1
 45
0.0
1001
ACAD
1000
AcDbSavedByObjectVersion
1070
     0
  0
ENDSEC
  0
EOF
