<?xml version="1.0" encoding="utf-8"?>
<!-- Generator: Adobe Illustrator 16.0.0, SVG Export Plug-In . SVG Version: 6.00 Build 0)  -->
<!DOCTYPE svg PUBLIC "-//W3C//DTD SVG 1.1//EN" "http://www.w3.org/Graphics/SVG/1.1/DTD/svg11.dtd">
<svg version="1.1" id="Layer_1" xmlns="http://www.w3.org/2000/svg" xmlns:xlink="http://www.w3.org/1999/xlink" x="0px" y="0px"
	 width="595.28px" height="841.89px" viewBox="0 0 595.28 841.89" enable-background="new 0 0 595.28 841.89" xml:space="preserve">
<linearGradient id="SVGID_1_" gradientUnits="userSpaceOnUse" x1="4.882812e-04" y1="416.7808" x2="592.7451" y2="416.7808">
	<stop  offset="0.0056" style="stop-color:#ECC562"/>
	<stop  offset="1" style="stop-color:#C3922E"/>
</linearGradient>
<path fill="url(#SVGID_1_)" d="M592.745,416.778l-60.857-105.372h-52.976l26.497-45.909l-60.876-105.382H322.868l-26.487,45.9
	l-26.505-45.9H148.19L87.362,265.497l26.487,45.909H60.838L0,416.778l60.837,105.398h53.012l-26.506,45.883l60.847,105.389h121.686
	l26.505-45.9l26.487,45.9H444.57l60.839-105.389l-26.497-45.883h52.976L592.745,416.778z M337.843,186.063h91.755l45.853,79.434
	l-26.516,45.909h-91.706l-45.881-79.448L337.843,186.063z M342.244,496.23H250.51l-45.845-79.453l45.845-79.433h91.734
	l45.872,79.433L342.244,496.23z M403.071,442.713l30.888,53.518h-61.756L403.071,442.713z M327.27,522.176l-30.889,53.492
	l-30.878-53.492H327.27z M220.568,496.23h-61.794l30.888-53.518L220.568,496.23z M189.663,390.844l-30.888-53.499h61.794
	L189.663,390.844z M265.502,311.406l30.878-53.513l30.889,53.513H265.502z M372.203,337.345h61.756l-30.888,53.499L372.203,337.345z
	 M117.303,265.497l45.872-79.434H254.9l26.506,45.895l-45.881,79.448h-91.716L117.303,265.497z M75.827,496.23l-45.872-79.453
	l45.872-79.433h52.988l45.873,79.433l-45.873,79.453H75.827z M254.9,647.508h-91.753l-45.844-79.449l26.506-45.883h91.716
	l45.881,79.426L254.9,647.508z M475.45,568.059l-45.853,79.449h-91.755l-26.495-45.906l45.881-79.426h91.706L475.45,568.059z
	 M463.947,496.23l-45.89-79.453l45.89-79.433h52.975l45.882,79.433l-45.882,79.453H463.947z"/>
</svg>
