<?xml version="1.0" encoding="utf-8"?>
<!-- Generator: Adobe Illustrator 16.0.0, SVG Export Plug-In . SVG Version: 6.00 Build 0)  -->
<!DOCTYPE svg PUBLIC "-//W3C//DTD SVG 1.1//EN" "http://www.w3.org/Graphics/SVG/1.1/DTD/svg11.dtd">
<svg version="1.1" id="Layer_1" xmlns="http://www.w3.org/2000/svg" xmlns:xlink="http://www.w3.org/1999/xlink" x="0px" y="0px"
	 width="595.28px" height="841.89px" viewBox="0 0 595.28 841.89" enable-background="new 0 0 595.28 841.89" xml:space="preserve">
<linearGradient id="SVGID_1_" gradientUnits="userSpaceOnUse" x1="0.4126" y1="379.375" x2="594.4746" y2="379.375">
	<stop  offset="0.0056" style="stop-color:#ECC562"/>
	<stop  offset="1" style="stop-color:#C3922E"/>
</linearGradient>
<path fill="url(#SVGID_1_)" d="M594.475,402.714l-0.008,0.003l-6.845-6.85l6.845-6.84l0.008,0.009v-19.315l-0.008,0.007
	l-6.845-6.845l6.845-6.846h0.008v-19.32l-0.008,0.004l-25.149-25.165h-52.382l51.375,51.337l-6.824,6.826l-15.926-15.935
	l-15.923,15.935l-6.11-6.112l16.154-16.154l-25.438-25.438l-16.146,16.147l-18.515-18.53l-25.437,25.442l18.515,18.523l-6.127,6.125
	l-18.559-18.552l-18.541,18.552l-6.827-6.829l50.619-50.578h-52.381l-24.396,24.406l-25.144-25.165H318.92l51.377,51.337
	l-6.812,6.817l-15.933-15.936l-15.933,15.944l-6.107-6.112l16.152-16.154l-25.439-25.438l-16.144,16.147l-18.515-18.53
	l-25.438,25.442l18.521,18.523l-6.129,6.125l-18.561-18.552l-18.544,18.552l-6.828-6.829l50.622-50.578h-52.379l-24.397,24.406
	l-25.146-25.165h-52.384l51.38,51.337l-6.83,6.826l-15.925-15.935l-15.925,15.935l-6.111-6.112l16.158-16.154l-25.443-25.438
	l-16.142,16.147l-18.515-18.53L58.11,345.072l18.524,18.523l-6.132,6.125l-18.556-18.552l-18.545,18.552l-6.827-6.829l50.626-50.578
	H24.815L0.42,336.72l-0.007-0.007v19.327l0.007-0.004l6.848,6.846l-6.848,6.845l-0.007-0.007v19.315l0.007-0.009l6.848,6.84
	l-6.848,6.85l-0.007-0.006v19.323l0.007-0.003l24.395,24.412h52.386L26.575,395.86l6.827-6.825l18.545,18.552l18.556-18.556
	l6.132,6.127L58.11,413.685l25.442,25.438l18.515-18.531l16.142,16.145l25.443-25.44l-16.158-16.15l6.111-6.11l15.925,15.935
	l15.925-15.935l6.83,6.825l-51.38,51.335h52.384l25.146-25.164l24.397,24.412h52.379l-50.622-50.583l6.828-6.825l18.544,18.552
	l18.561-18.556l6.129,6.127l-18.521,18.525l25.438,25.438l18.515-18.531l16.144,16.145l25.439-25.44l-16.152-16.15l6.107-6.11
	l15.933,15.941l15.933-15.936l6.812,6.819l-51.377,51.335h52.386l25.144-25.164l24.396,24.412h52.381l-50.619-50.583l6.827-6.825
	l18.541,18.552l18.559-18.556l6.127,6.127l-18.515,18.525l25.437,25.438l18.515-18.531l16.146,16.145l25.438-25.44l-16.154-16.15
	l6.11-6.11l15.923,15.935l15.926-15.935l6.824,6.825l-51.375,51.335h52.382l25.149-25.164l0.008,0.003V402.714z M44.221,432.786
	H30.47l-20.4-20.414l6.855-6.854L44.221,432.786z M10.076,379.372l6.843-6.833l6.827,6.833l-6.827,6.84L10.076,379.372z
	 M16.925,353.237l-6.855-6.856l20.4-20.413h13.751L16.925,353.237z M51.947,388.28l-8.896-8.908l8.896-8.896l8.907,8.896
	L51.947,388.28z M83.549,338.941l8.862,8.872l-6.125,6.122l-8.864-8.863L83.549,338.941z M83.549,419.804l-6.128-6.119l8.864-8.871
	l6.125,6.13L83.549,419.804z M86.287,385.508l-6.133-6.136l6.133-6.129l6.135,6.129L86.287,385.508z M102.065,401.281l-6.131-6.122
	l6.135-6.127l6.122,6.118L102.065,401.281z M102.069,369.721l-6.135-6.131l6.131-6.122l6.126,6.134L102.069,369.721z
	 M118.209,417.429l-6.495-6.492l6.132-6.132l6.5,6.491L118.209,417.429z M111.724,379.372l6.121-6.118l6.113,6.118l-6.113,6.122
	L111.724,379.372z M117.846,353.947l-6.132-6.13l6.495-6.495l6.137,6.13L117.846,353.947z M149.531,385.663l-6.274-6.291l6.274-6.28
	l6.276,6.28L149.531,385.663z M167.629,433.541h-13.753l28.056-28.025l6.855,6.856L167.629,433.541z M175.107,379.372l6.831-6.833
	l6.839,6.833l-6.839,6.835L175.107,379.372z M181.931,353.237l-28.056-28.03h13.753l21.158,21.174L181.931,353.237z
	 M198.436,402.717l-6.847-6.85l6.845-6.84l6.85,6.84L198.436,402.717z M198.435,369.728l-6.845-6.845l6.847-6.846l6.849,6.846
	L198.435,369.728z M242.236,432.786h-13.751l-20.397-20.414l6.855-6.854L242.236,432.786z M208.097,379.372l6.835-6.833l6.833,6.833
	l-6.833,6.84L208.097,379.372z M214.943,353.237l-6.855-6.856l20.397-20.413h13.751L214.943,353.237z M249.965,388.28l-8.898-8.908
	l8.898-8.896l8.901,8.896L249.965,388.28z M281.567,338.941l8.864,8.872l-6.132,6.122l-8.864-8.863L281.567,338.941z
	 M281.567,419.804l-6.131-6.119l8.864-8.871l6.132,6.13L281.567,419.804z M284.303,385.508l-6.135-6.136l6.135-6.129l6.131,6.129
	L284.303,385.508z M300.08,401.281l-6.124-6.122l6.133-6.127l6.117,6.118L300.08,401.281z M300.09,369.721l-6.133-6.131l6.124-6.122
	l6.127,6.134L300.09,369.721z M316.226,417.429l-6.49-6.485l6.127-6.139l6.498,6.491L316.226,417.429z M309.737,379.372l6.112-6.109
	l6.112,6.109l-6.112,6.119L309.737,379.372z M315.862,353.947l-6.127-6.13l6.49-6.495l6.135,6.13L315.862,353.947z M347.545,385.663
	l-6.275-6.291l6.275-6.28l6.278,6.28L347.545,385.663z M365.646,433.541h-13.745l28.044-28.025l6.854,6.856L365.646,433.541z
	 M373.139,379.36l6.817-6.821l6.838,6.833l-6.838,6.835l-6.817-6.817l0.009-0.018L373.139,379.36z M379.945,353.237l-28.044-28.03
	h13.745l21.153,21.174L379.945,353.237z M396.453,402.717l-6.849-6.85l6.845-6.84l6.849,6.84L396.453,402.717z M396.449,369.728
	l-6.845-6.845l6.849-6.846l6.845,6.846L396.449,369.728z M440.254,432.786h-13.751L406.1,412.373l6.855-6.854L440.254,432.786z
	 M406.108,379.372l6.84-6.833l6.831,6.833l-6.831,6.84L406.108,379.372z M412.955,353.237l-6.855-6.856l20.403-20.413h13.751
	L412.955,353.237z M447.978,388.28l-8.897-8.908l8.897-8.896l8.901,8.896L447.978,388.28z M479.582,338.941l8.863,8.872
	l-6.128,6.122l-8.866-8.863L479.582,338.941z M479.582,419.804l-6.131-6.119l8.866-8.871l6.128,6.13L479.582,419.804z
	 M482.317,385.508l-6.131-6.136l6.131-6.129l6.133,6.129L482.317,385.508z M498.097,401.281l-6.126-6.122l6.133-6.127l6.119,6.118
	L498.097,401.281z M498.104,369.721l-6.133-6.131l6.126-6.122l6.126,6.134L498.104,369.721z M514.244,417.429l-6.501-6.492
	l6.134-6.132l6.497,6.491L514.244,417.429z M507.752,379.372l6.117-6.118l6.116,6.118l-6.116,6.122L507.752,379.372z
	 M513.877,353.947l-6.134-6.13l6.501-6.495l6.13,6.13L513.877,353.947z M545.561,385.663l-6.276-6.291l6.276-6.28l6.279,6.28
	L545.561,385.663z M563.663,433.541h-13.752l28.055-28.025l6.853,6.856L563.663,433.541z M571.139,379.372l6.828-6.833l6.844,6.833
	l-6.844,6.835L571.139,379.372z M577.966,353.237l-28.055-28.03h13.752l21.155,21.174L577.966,353.237z"/>
</svg>
