<?xml version="1.0" encoding="utf-8"?>
<!-- Generator: Adobe Illustrator 16.0.0, SVG Export Plug-In . SVG Version: 6.00 Build 0)  -->
<!DOCTYPE svg PUBLIC "-//W3C//DTD SVG 1.1//EN" "http://www.w3.org/Graphics/SVG/1.1/DTD/svg11.dtd">
<svg version="1.1" id="Layer_1" xmlns="http://www.w3.org/2000/svg" xmlns:xlink="http://www.w3.org/1999/xlink" x="0px" y="0px"
	 width="595.28px" height="841.89px" viewBox="0 0 595.28 841.89" enable-background="new 0 0 595.28 841.89" xml:space="preserve">
<linearGradient id="SVGID_1_" gradientUnits="userSpaceOnUse" x1="0" y1="413.1504" x2="595.96" y2="413.1504">
	<stop  offset="0.0056" style="stop-color:#ECC562"/>
	<stop  offset="1" style="stop-color:#C3922E"/>
</linearGradient>
<path fill="url(#SVGID_1_)" d="M556.028,482.291l39.932-69.143l-39.932-69.152v-79.844l-69.138-39.913l-39.938-69.161l-79.846,0.009
	l-69.137-39.922l-69.038,39.936l-79.927-0.014l-39.821,69.087l-69.271,39.978l0.078,79.739L0,413.152l39.913,68.977v80.01
	l69.151,39.909l39.94,69.155l79.817-0.008l69.147,39.939l69.137-39.932h79.846l39.938-69.133l69.138-39.932V482.291z
	 M576.234,413.148l-20.206,34.999v-19.893l-54.781-15.12l54.781-15.144v-19.837L576.234,413.148z M474.388,589.562l-31.543,18.21
	l-51.629-50.835l-17.729-68.304l68.285,17.757l50.813,51.592L474.388,589.562z M394.141,635.901l-31.608,18.229h-36.403
	l-19.277-69.815l18.765-68.028l50.281,49.507L394.141,635.901z M201.862,635.915l18.224-70.104l50.262-49.524l18.783,68.032
	l-19.26,69.793h-36.466L201.862,635.915z M103.344,558.001l50.831-51.588l68.294-17.757l-17.738,68.29l-51.573,50.826l-31.59-18.229
	L103.344,558.001z M121.696,236.683l31.462-18.146l51.573,50.799l17.738,68.304l-68.294-17.752l-50.758-51.505L121.696,236.683z
	 M201.89,190.5l31.645-18.321l36.337,0.014l19.243,69.774l-18.766,68.038l-50.3-49.535L201.89,190.5z M394.113,190.408
	l-18.216,70.063l-50.29,49.535l-18.774-68.038l19.25-69.802h36.439L394.113,190.408z M492.585,268.272l-50.813,51.615
	l-68.285,17.752l17.729-68.308l51.619-50.835l31.553,18.237L492.585,268.272z M538.959,384.991l-69.797,19.278l-68.021-18.76
	l49.503-50.285l70.1-18.22l18.215,31.562V384.991z M316.907,483.725l-18.938-18.627l-18.885,18.627l-7.067-25.566l-25.695,6.655
	l6.674-25.695l-25.603-7.059l18.636-18.907l-18.636-18.924l25.603-7.054l-6.683-25.695l25.704,6.678l7.067-25.595l18.885,18.633
	l18.938-18.633l7.051,25.595l25.712-6.678l-6.701,25.695l25.604,7.054l-18.618,18.92l18.618,18.897l-25.604,7.067l6.701,25.695
	l-25.712-6.674L316.907,483.725z M373.89,413.148l13.522-13.719l49.629,13.719l-49.629,13.704L373.89,413.148z M382.306,380.297
	l-18.563-5.106l4.831-18.64l49.85-12.949L382.306,380.297z M354.575,342.558l-18.637,4.84l-5.115-18.554l36.723-36.168
	L354.575,342.558z M311.701,323.714l-13.732,13.504l-13.695-13.504l13.695-49.666L311.701,323.714z M265.15,328.844l-5.125,18.554
	l-18.636-4.84l-12.944-49.883L265.15,328.844z M227.393,356.552l4.849,18.64l-18.563,5.121l-36.146-36.71L227.393,356.552z
	 M194.822,385.509l-67.992,18.774l-69.706-19.223l-0.042-36.585l18.16-31.461l70.068,18.21L194.822,385.509z M208.545,399.43
	l13.521,13.723l-13.521,13.7l-49.667-13.7L208.545,399.43z M194.839,440.787l-49.529,50.28L75.334,509.24l-18.343-31.694v-36.26
	l69.839-19.278L194.839,440.787z M213.678,445.993l18.563,5.125l-4.849,18.617l-49.86,12.954L213.678,445.993z M241.39,483.738
	l18.636-4.83l5.125,18.54l-36.686,36.149L241.39,483.738z M284.274,502.568l13.695-13.5l13.732,13.5l-13.732,49.657L284.274,502.568
	z M330.823,497.448l5.115-18.56l18.637,4.85l12.971,49.851L330.823,497.448z M368.573,469.717l-4.831-18.617l18.563-5.12
	l36.107,36.705L368.573,469.717z M401.142,440.787l68.021-18.798l69.797,19.27v36.452l-18.195,31.545l-70.119-18.212
	L401.142,440.787z M538.959,274.012v40.412l-9.926-17.22l-55.021,14.3l39.884-40.518l-9.946-17.188L538.959,274.012z
	 M437.105,172.166l20.213,34.996l-17.225-9.946l-40.5,39.895l14.319-54.983l-17.261-9.96H437.105z M297.969,134.884l34.991,20.204
	h-19.884l-15.107,54.795l-15.126-54.764l-19.809-0.018L297.969,134.884z M158.86,172.166l40.591,0.009l-17.381,10.052l14.273,54.897
	l-40.482-39.876l-17.151,9.905L158.86,172.166z M57.014,274.012l35.174-20.287l-10.024,17.39l39.781,40.399L66.96,297.231
	l-9.915,17.165L57.014,274.012z M19.723,413.148l20.314-35.169l0.014,20.075l54.685,15.098l-54.8,15.136l-0.023,19.759
	L19.723,413.148z M56.991,552.271v-40.633l10.065,17.394l54.896-14.255l-39.89,40.509l9.914,17.189L56.991,552.271z M158.86,654.13
	l-20.232-35.014l17.234,9.946l40.5-39.912l-14.3,55.053l17.189,9.908L158.86,654.13z M297.969,691.412l-34.992-20.217h19.893
	l15.099-54.796l15.162,54.804h19.829L297.969,691.412z M437.105,654.13H396.68l17.233-9.951l-14.319-55.034l40.538,39.918
	l17.187-9.923L437.105,654.13z M503.95,572.489l9.946-17.23l-39.884-40.499l55.037,14.296l9.909-17.197v40.413L503.95,572.489z"/>
</svg>
