<?xml version="1.0" encoding="utf-8"?>
<!-- Generator: Adobe Illustrator 16.0.0, SVG Export Plug-In . SVG Version: 6.00 Build 0)  -->
<!DOCTYPE svg PUBLIC "-//W3C//DTD SVG 1.1//EN" "http://www.w3.org/Graphics/SVG/1.1/DTD/svg11.dtd">
<svg version="1.1" id="Layer_1" xmlns="http://www.w3.org/2000/svg" xmlns:xlink="http://www.w3.org/1999/xlink" x="0px" y="0px"
	 width="595.28px" height="841.89px" viewBox="0 0 595.28 841.89" enable-background="new 0 0 595.28 841.89" xml:space="preserve">
<linearGradient id="SVGID_1_" gradientUnits="userSpaceOnUse" x1="4.882812e-04" y1="275.543" x2="591" y2="275.543">
	<stop  offset="0.0056" style="stop-color:#ECC562"/>
	<stop  offset="1" style="stop-color:#C3922E"/>
</linearGradient>
<path fill="url(#SVGID_1_)" d="M591,327.892h-29.321l-8.861-8.86l17.425-17.419l11.399,11.401H591v-7.532h-6.238l-9.195-9.188
	L591,280.872v-10.658l-15.434-15.422l9.195-9.189H591v-7.532h-9.358l-11.399,11.399l-17.425-17.414l8.861-8.862H591v-7.529h-32.441
	l-11.069,11.068l-11.075-11.068h-12.565l-11.077,11.068l-11.07-11.068h-53.107l-16.968,16.949l-16.961-16.949h-53.104
	l-11.072,11.068l-11.073-11.068H326.85l-11.079,11.068l-11.068-11.068h-53.109l-16.963,16.949l-16.966-16.949h-53.107
	l-11.069,11.068l-11.075-11.068h-12.565l-11.077,11.068l-11.072-11.068H54.596l-16.965,16.949l-16.967-16.949H0v7.529h17.546
	l14.755,14.746l-11.567,11.562L9.304,238.07H0v7.532h6.185l9.222,9.22L0.008,270.217H0v10.655l0.007-0.006l15.399,15.394
	l-9.222,9.222H0v7.532h9.304l11.43-11.425l11.567,11.557l-14.755,14.747H0v7.53h20.664l16.967-16.956l16.965,16.956h53.103
	l11.072-11.066l11.077,11.066h12.565l11.075-11.066l11.069,11.066h53.107l16.966-16.956l16.963,16.956h53.109l11.068-11.066
	l11.079,11.066h12.565l11.073-11.066l11.072,11.066h53.104l16.961-16.956l16.968,16.956h53.107l11.07-11.066l11.077,11.066h12.565
	l11.075-11.066l11.069,11.066H591V327.892z M570.242,260.119l15.436,15.423l-15.436,15.427l-6.828-6.828h-19.35l-8.602-8.6
	l8.602-8.604h19.35L570.242,260.119z M526.966,223.194h6.332l8.858,8.862l-8.858,8.871h-6.332l-8.867-8.871L526.966,223.194z
	 M523.849,248.457h12.565l11.075-11.076l17.428,17.411l-4.625,4.622h-19.361l-10.803,10.797l-10.795-10.797h-19.368l-4.62-4.62
	l17.427-17.413L523.849,248.457z M388.68,275.542l-15.438,15.427l-6.823-6.828H347.06l-8.6-8.6l8.6-8.604h19.359l6.823-6.819
	L388.68,275.542z M378.57,254.792l9.189-9.189h12.428l9.219,9.22l-15.399,15.394L378.57,254.792z M394.007,280.866l15.399,15.394
	l-9.219,9.222H387.76l-9.189-9.188L394.007,280.866z M399.334,275.542l15.399-15.395l6.8,6.791h20.195l6.795-6.791l15.406,15.395
	l-15.406,15.391l-6.795-6.791h-20.195l-6.8,6.791L399.334,275.542z M453.855,254.823l9.218-9.22H475.5l9.191,9.189l-15.437,15.425
	L453.855,254.823z M469.255,280.866l15.437,15.427l-9.191,9.188h-12.427l-9.218-9.222L469.255,280.866z M474.582,275.542
	l15.437-15.42l6.824,6.816h19.355l8.601,8.604l-8.601,8.6h-19.355l-6.824,6.828L474.582,275.542z M451.718,223.194h46.868
	l8.855,8.862L490.02,249.47l-11.397-11.399h-18.669l-11.43,11.432l-11.562-11.562L451.718,223.194z M443.198,254.826l-4.584,4.588
	h-13.961l-4.589-4.588l11.562-11.564L443.198,254.826z M364.682,223.194h46.866l14.755,14.746l-11.564,11.562l-11.433-11.432
	h-18.668l-11.396,11.399l-17.424-17.414L364.682,223.194z M329.969,223.194h6.327l8.868,8.862l-8.868,8.871h-6.327l-8.873-8.871
	L329.969,223.194z M326.85,248.457h12.565l11.075-11.076l17.425,17.411l-4.62,4.622h-19.361l-10.803,10.797l-10.804-10.797h-19.362
	l-4.623-4.62l17.429-17.413L326.85,248.457z M191.675,275.542l-15.436,15.427l-6.821-6.828h-19.355l-8.601-8.6l8.601-8.604h19.355
	l6.821-6.819L191.675,275.542z M181.567,254.792l9.188-9.189h12.431l9.217,9.22l-15.4,15.394L181.567,254.792z M197.003,280.866
	l15.4,15.394l-9.217,9.222h-12.431l-9.188-9.188L197.003,280.866z M202.33,275.542l15.407-15.395l6.79,6.791h20.203l6.794-6.791
	l15.404,15.395l-15.404,15.391l-6.794-6.791h-20.203l-6.79,6.791L202.33,275.542z M256.85,254.823l9.222-9.22H278.5l9.19,9.189
	l-15.438,15.425L256.85,254.823z M272.253,280.866l15.438,15.427l-9.19,9.188h-12.429l-9.222-9.222L272.253,280.866z
	 M277.58,275.542l15.437-15.42l6.827,6.816h19.355l8.599,8.604l-8.599,8.6h-19.355l-6.827,6.828L277.58,275.542z M254.711,223.194
	h46.872l8.86,8.862l-17.426,17.414l-11.396-11.399h-18.671l-11.428,11.432l-11.566-11.562L254.711,223.194z M246.195,254.826
	l-4.585,4.588h-13.964l-4.585-4.588l11.568-11.564L246.195,254.826z M167.679,223.194h46.865L229.3,237.94l-11.563,11.562
	l-11.429-11.432h-18.667l-11.401,11.399l-17.422-17.414L167.679,223.194z M132.967,223.194h6.33l8.863,8.862l-8.863,8.871h-6.33
	l-8.867-8.871L132.967,223.194z M129.847,248.457h12.565l11.075-11.076l17.426,17.411l-4.619,4.622h-19.363l-10.799,10.797
	l-10.804-10.797h-19.363l-4.619-4.62l17.424-17.413L129.847,248.457z M90.689,296.293l-9.188,9.188H69.074l-9.226-9.222
	l15.407-15.394L90.689,296.293z M59.849,254.823l9.226-9.22h12.428l9.188,9.189l-15.434,15.425L59.849,254.823z M80.584,275.542
	l15.431-15.42l6.83,6.816h19.355l8.594,8.604l-8.594,8.6h-19.355l-6.83,6.828L80.584,275.542z M57.713,223.194h46.867l8.862,8.862
	L96.016,249.47L84.622,238.07H65.954l-11.429,11.432L42.958,237.94L57.713,223.194z M37.631,243.262L49.2,254.826l-4.587,4.588
	H30.649l-4.584-4.588L37.631,243.262z M20.734,290.933L5.33,275.542l15.404-15.395l6.794,6.791h20.205l6.791-6.791l15.403,15.395
	l-15.403,15.391l-6.791-6.791H27.529L20.734,290.933z M26.065,296.26l4.584-4.588h13.963l4.587,4.588l-11.569,11.558L26.065,296.26z
	 M104.58,327.892H57.713l-14.755-14.747l11.566-11.557l11.429,11.425h18.668l11.394-11.401l17.427,17.419L104.58,327.892z
	 M139.297,327.892h-6.33l-8.867-8.868l8.867-8.865h6.33l8.863,8.865L139.297,327.892z M142.412,302.626h-12.565l-11.077,11.08
	l-17.424-17.416l4.619-4.619h19.363l10.804-10.798l10.799,10.798h19.363l4.619,4.619l-17.426,17.416L142.412,302.626z
	 M214.543,327.892h-46.865l-8.861-8.86l17.422-17.419l11.401,11.401h18.667l11.429-11.425l11.563,11.557L214.543,327.892z
	 M223.062,296.26l4.585-4.588h13.964l4.585,4.588l-11.565,11.558L223.062,296.26z M301.583,327.892h-46.872l-14.754-14.747
	l11.566-11.557l11.428,11.425h18.671l11.396-11.401l17.426,17.419L301.583,327.892z M336.296,327.892h-6.327l-8.873-8.868
	l8.873-8.865h6.327l8.868,8.865L336.296,327.892z M339.415,302.626H326.85l-11.079,11.08l-17.429-17.416l4.623-4.619h19.362
	l10.804-10.8l10.803,10.8h19.361l4.62,4.619l-17.425,17.416L339.415,302.626z M411.548,327.892h-46.866l-8.863-8.86l17.424-17.419
	l11.396,11.401h18.668l11.433-11.425l11.564,11.557L411.548,327.892z M420.064,296.26l4.589-4.588h13.961l4.584,4.588
	l-11.572,11.558L420.064,296.26z M498.586,327.892h-46.868l-14.757-14.747l11.562-11.557l11.43,11.425h18.669l11.397-11.401
	l17.422,17.419L498.586,327.892z M533.298,327.892h-6.332l-8.867-8.868l8.867-8.865h6.332l8.858,8.865L533.298,327.892z
	 M536.414,302.626h-12.565l-11.077,11.08l-17.427-17.416l4.62-4.619h19.368l10.795-10.798l10.803,10.798h19.361l4.625,4.619
	l-17.428,17.416L536.414,302.626z"/>
</svg>
