<?xml version="1.0" encoding="utf-8"?>
<!-- Generator: Adobe Illustrator 16.0.0, SVG Export Plug-In . SVG Version: 6.00 Build 0)  -->
<!DOCTYPE svg PUBLIC "-//W3C//DTD SVG 1.1//EN" "http://www.w3.org/Graphics/SVG/1.1/DTD/svg11.dtd">
<svg version="1.1" id="Layer_1" xmlns="http://www.w3.org/2000/svg" xmlns:xlink="http://www.w3.org/1999/xlink" x="0px" y="0px"
	 width="595.28px" height="841.89px" viewBox="0 0 595.28 841.89" enable-background="new 0 0 595.28 841.89" xml:space="preserve">
<linearGradient id="SVGID_1_" gradientUnits="userSpaceOnUse" x1="0.4126" y1="417.5005" x2="592.6191" y2="417.5005">
	<stop  offset="0.0056" style="stop-color:#ECC562"/>
	<stop  offset="1" style="stop-color:#C3922E"/>
</linearGradient>
<path fill="url(#SVGID_1_)" d="M592.619,490.867H568.9v-19.998h17.208h0.002l6.509-6.515v-13.296l-7.47-7.479l7.47-7.468v-13.255
	l-14.101,14.101l-5.333-5.335l14.125-14.125l-14.125-14.122l5.333-5.335l14.101,14.103v-13.252l-7.47-7.473l7.47-7.469v-13.304
	l-6.509-6.509H568.9v-20.002h23.719v-9.371h-33.092h-52.217h-66.235h-52.197h-66.231h-52.223h-66.231h-52.205H85.758H33.537H0.413
	v9.371H24.17v20.002H6.95l-6.53,6.532l-0.007-0.007v13.263l0.007-0.006l7.496,7.499l-7.496,7.495H0.413v13.247l0.007,0.004
	l14.122-14.124l5.34,5.345L5.767,417.498l14.115,14.114l-5.34,5.346L0.42,422.834l-0.007,0.008v13.247l0.007-0.005l7.496,7.496
	l-7.496,7.496H0.413v13.259l0.007-0.004l6.53,6.538H24.17v19.998H0.413v9.369h33.124h52.221h66.229h52.205h66.231h52.223h66.231
	h52.197h66.235h52.217h33.092V490.867z M578.519,450.211l7.497,7.494l-3.789,3.787H568.9v-1.662L578.519,450.211z M574.053,417.498
	l-7.494,7.498l-7.49-7.498l7.49-7.498L574.053,417.498z M552.438,424.129l7.493,7.494l-9.62,9.62h-1.66v-13.331L552.438,424.129z
	 M548.651,407.085v-13.329h1.66l9.62,9.62l-7.493,7.5L548.651,407.085z M568.9,373.509h13.326l3.789,3.785l-7.497,7.498
	l-9.618-9.623V373.509z M571.896,391.419l-5.338,5.333l-12.367-12.369h-5.54v-10.874h10.876v5.537L571.896,391.419z
	 M507.311,344.136h52.217v20.002h-20.244v20.245h-11.725v-20.245h-0.009l0,0h-20.239V344.136z M527.55,424.031l-6.53-6.533
	l6.539-6.526v-17.216h11.725v17.212v0.004l6.525,6.526l-6.525,6.533v17.212h-11.725v-17.212H527.55z M466.693,443.58l7.497-7.496
	l7.494,7.496l-7.494,7.496L466.693,443.58z M467.564,457.705l-3.79,3.787h-13.327v-1.662l9.616-9.623L467.564,457.705z
	 M474.19,422.834l-14.127,14.124l-5.33-5.335l14.125-14.125l-14.125-14.122l2.662-2.661l2.668-2.674l14.127,14.124l14.122-14.124
	l5.337,5.345l-14.112,14.112l14.112,14.114l-5.342,5.346L474.19,422.834z M433.986,424.129l7.496,7.494l-9.619,9.62h-1.668v-13.331
	L433.986,424.129z M430.195,407.085v-13.329h1.668l9.616,9.62l-7.493,7.5L430.195,407.085z M440.604,417.498l7.502-7.498
	l7.492,7.498l-7.492,7.498L440.604,417.498z M481.685,391.419l-7.494,7.495l-7.497-7.495l7.497-7.499L481.685,391.419z
	 M480.817,377.294l3.783-3.785h13.335v1.66l-9.628,9.623L480.817,377.294z M492.79,417.498l7.493-7.491l7.485,7.491l-7.485,7.49
	L492.79,417.498z M514.392,424.129l3.791,3.783v13.331h-1.647l-9.628-9.631L514.392,424.129z M514.392,410.876l-7.484-7.49
	l9.628-9.63h1.651v13.329L514.392,410.876z M507.311,373.509h10.872v10.874h-5.527l-12.372,12.381l-5.346-5.345l12.373-12.369
	V373.509z M450.447,344.136h47.488v20.002h-17.214l0,0h-0.004l-6.527,6.535l-6.533-6.535h-17.21V344.136z M450.447,373.509h13.327
	l3.79,3.785l-7.501,7.498l-9.616-9.623V373.509z M453.442,391.419l-2.667,2.67l-2.67,2.663l-12.367-12.369h-5.543v-10.874h10.88
	v5.537L453.442,391.419z M388.878,344.136h52.197v20.002h-20.249v20.245h-11.703v-20.245l0,0h-20.245V344.136z M402.594,417.498
	l6.529-6.526v-17.216h11.703v17.212v0.004l6.53,6.526l-6.53,6.533v17.212h-11.703v-17.212L402.594,417.498z M388.878,373.509h10.876
	v10.874h-5.557l-12.357,12.36l-5.33-5.324l12.368-12.373V373.509z M348.271,443.58l7.488-7.496l7.495,7.496l-7.495,7.496
	L348.271,443.58z M349.131,457.705l-3.783,3.787H332.02v-1.662l9.619-9.619L349.131,457.705z M355.76,422.834l-14.121,14.124
	l-5.335-5.335l14.126-14.125l-14.126-14.122l5.335-5.335l14.121,14.126l14.126-14.126l5.328,5.331l-14.129,14.126l14.129,14.128
	l-5.328,5.324L355.76,422.834z M315.556,424.129l7.497,7.494l-9.625,9.62h-1.659v-13.331L315.556,424.129z M311.769,407.085v-13.329
	h1.659l9.625,9.62l-7.497,7.5L311.769,407.085z M322.184,417.498l7.493-7.498l7.499,7.498l-7.499,7.498L322.184,417.498z
	 M363.255,391.419l-7.495,7.495l-7.488-7.495l7.488-7.499L363.255,391.419z M362.394,377.294l3.783-3.785h13.331v1.66l-9.622,9.623
	L362.394,377.294z M374.341,417.498L381.84,410l7.505,7.498L381.84,425L374.341,417.498z M395.967,424.129l3.787,3.783v13.331
	h-1.673l-9.612-9.617L395.967,424.129z M395.967,410.876l-7.498-7.504l9.612-9.616h1.673v13.329L395.967,410.876z M332.02,344.136
	h47.488v20.002h-17.213l-6.535,6.532l-6.531-6.532H332.02V344.136z M332.02,373.509h13.328l3.783,3.785l-7.492,7.498l-9.619-9.623
	V373.509z M335.013,391.419l-5.336,5.333l-12.362-12.369h-5.546v-10.874h10.878v5.537L335.013,391.419z M270.424,344.136h52.223
	v20.002h-20.249v20.245h-11.722v-20.245h-0.003l0,0h-20.249V344.136z M290.672,424.031l-6.534-6.533l6.537-6.526v-17.216h11.722
	v17.212l6.535,6.53l-6.535,6.533v17.212h-11.722v-17.212H290.672z M229.812,443.58l7.493-7.496l7.496,7.496l-7.496,7.496
	L229.812,443.58z M230.683,457.705l-3.789,3.787h-13.333v-1.662l9.615-9.623L230.683,457.705z M237.305,422.834l-14.129,14.124
	l-5.322-5.332l14.124-14.128l-14.124-14.122l2.658-2.661l2.678-2.674l14.115,14.124l14.125-14.124l5.339,5.345l-14.108,14.112
	l14.108,14.114l-5.339,5.346L237.305,422.834z M197.101,424.129l7.503,7.497l-9.626,9.617h-1.669v-13.331L197.101,424.129z
	 M193.309,407.085v-13.329h1.669l9.618,9.62l-7.494,7.5L193.309,407.085z M203.727,417.498l7.498-7.498l7.5,7.498l-7.5,7.498
	L203.727,417.498z M244.801,391.419l-7.496,7.495l-7.493-7.495l7.493-7.499L244.801,391.419z M243.937,377.294l3.787-3.785h13.331
	v1.66l-9.626,9.623L243.937,377.294z M255.908,417.498l7.494-7.491l7.486,7.491l-7.486,7.49L255.908,417.498z M277.514,424.129
	l3.79,3.783v13.331h-1.65l-9.626-9.631L277.514,424.129z M277.514,410.876l-7.487-7.49l9.626-9.63h1.65v13.329L277.514,410.876z
	 M270.424,373.509h10.88v10.874h-5.535l-12.367,12.381l-5.342-5.345l12.364-12.369V373.509z M213.561,344.136h47.494v20.002h-17.213
	l0,0h-0.005l-6.532,6.535l-6.53-6.535h-17.214V344.136z M213.561,373.509h13.333l3.789,3.785l-7.507,7.498l-9.615-9.623V373.509z
	 M216.555,391.419l-2.664,2.67l-2.667,2.654l-12.358-12.36h-5.558v-10.874h10.884v5.537L216.555,391.419z M151.987,344.136h52.205
	v20.002h-20.248v20.245h-11.704v-20.245h-0.005l0,0h-20.248V344.136z M165.706,417.498l6.535-6.526v-17.216h11.704v17.212v0.004
	l6.53,6.526l-6.53,6.533v17.212h-11.704v-17.212L165.706,417.498z M111.379,443.58l7.493-7.496l7.499,7.496l-7.499,7.496
	L111.379,443.58z M112.25,457.705l-3.788,3.787H95.135v-1.662l9.618-9.619L112.25,457.705z M118.872,422.834l-14.119,14.124
	l-5.334-5.335l14.116-14.125l-14.116-14.122l5.334-5.335l14.119,14.126L133,398.041l5.329,5.335l-14.123,14.122l14.123,14.125
	L133,436.95L118.872,422.834z M78.669,424.129l7.495,7.494l-9.62,9.62h-1.66v-13.331L78.669,424.129z M74.885,407.085v-13.329h1.66
	l9.62,9.62l-7.495,7.5L74.885,407.085z M85.297,417.498L92.792,410l7.493,7.498l-7.493,7.498L85.297,417.498z M126.37,391.419
	l-7.499,7.495l-7.493-7.495l7.493-7.499L126.37,391.419z M125.502,377.294l3.782-3.785h13.331v1.66L133,384.792L125.502,377.294z
	 M137.47,417.498l7.484-7.498l7.502,7.498l-7.502,7.498L137.47,417.498z M159.078,424.129l3.784,3.783v13.331h-1.655l-9.625-9.62
	L159.078,424.129z M159.078,410.876l-7.497-7.5l9.625-9.62h1.659v13.329L159.078,410.876z M151.987,373.509h10.875v10.874h-5.54
	l-12.368,12.369l-5.329-5.333l12.362-12.373V373.509z M95.135,344.136h47.48v20.002h-17.212l-6.532,6.532l-6.532-6.532H95.135
	V344.136z M95.135,373.509h13.326l3.788,3.785l-7.497,7.498l-9.618-9.623V373.509z M98.123,391.419l-5.331,5.333l-12.363-12.369
	h-5.544v-10.874h10.873v5.537L98.123,391.419z M33.537,344.136h52.221v20.002h-20.25v20.245H53.781v-20.245l0,0H33.537V344.136z
	 M47.255,417.498l6.526-6.526v-17.216h11.727v17.212l6.533,6.53l-6.533,6.533v17.212H53.781v-17.212L47.255,417.498z M33.537,379.05
	v-5.541h10.878v10.874H38.88l-12.368,12.381l-5.343-5.345L33.537,379.05z M40.625,410.876l-7.487-7.49l9.632-9.63h1.645v13.329
	L40.625,410.876z M44.415,427.912v13.331H42.77l-9.638-9.631l7.493-7.483L44.415,427.912z M14.542,384.792l-7.496-7.498l3.787-3.785
	H24.17v1.66L14.542,384.792z M19.02,417.498l7.493-7.491l7.49,7.491l-7.49,7.49L19.02,417.498z M24.17,461.492H10.833l-3.787-3.787
	l7.496-7.498l9.629,9.623V461.492z M21.169,443.58l5.338-5.339l12.373,12.378h5.535v10.873H33.537v-5.542L21.169,443.58z
	 M85.758,490.867H33.537v-19.998h20.245v-20.25h11.727v20.25l0,0h20.25V490.867z M85.758,461.492H74.885v-10.873h5.544
	l12.363-12.372l5.331,5.333l-12.365,12.37V461.492z M142.616,490.867h-47.48v-19.998h17.203h0.001l6.532-6.534l6.532,6.534h17.212
	V490.867z M142.616,461.492h-13.331l-3.782-3.787l7.497-7.498l9.616,9.623V461.492z M139.625,443.58l5.329-5.333l12.368,12.372h5.54
	v10.873h-10.875v-5.542L139.625,443.58z M204.192,490.867h-52.205v-19.998h20.253v-20.25h11.704v20.25h20.248V490.867z
	 M204.192,461.492h-10.884v-10.873h5.558l12.358-12.362l5.331,5.323l-12.363,12.37V461.492z M261.055,490.867h-47.494v-19.998
	h17.214l6.53-6.538l6.538,6.538h17.213V490.867z M261.055,461.492h-13.331l-3.787-3.787l7.492-7.498l9.626,9.623V461.492z
	 M258.06,443.58l5.342-5.339l12.367,12.378h5.535v10.873h-10.88v-5.542L258.06,443.58z M322.646,490.867h-52.223v-19.998h20.252
	v-20.25h11.722v20.25h20.249V490.867z M322.646,461.492h-10.878v-10.873h5.546l12.362-12.372l5.336,5.333l-12.366,12.37V461.492z
	 M379.508,490.867H332.02v-19.998h17.209l0,0l6.531-6.534l6.535,6.534h17.213V490.867z M379.508,461.492h-13.326l-3.788-3.787
	l7.492-7.498l9.622,9.623V461.492z M376.51,443.58l5.33-5.323l12.357,12.362h5.557v10.873h-10.876v-5.542L376.51,443.58z
	 M441.075,490.867h-52.197v-19.998h20.245v-20.25h11.703v20.25h20.249V490.867z M441.075,461.492h-10.88v-10.873h5.543
	l12.367-12.372l5.337,5.333l-12.367,12.37V461.492z M497.936,490.867h-47.488v-19.998h17.21l6.533-6.538l6.531,6.538h17.214V490.867
	z M497.936,461.492h-13.335l-3.783-3.787l7.495-7.498l9.623,9.623V461.492z M494.938,443.58l5.346-5.339l12.372,12.378h5.527v10.873
	h-10.872v-5.542L494.938,443.58z M559.527,490.867h-52.217v-19.998h20.248v-20.25h11.725v20.25h20.244V490.867z M559.527,461.492
	h-10.876v-10.873h5.54l12.367-12.372l5.338,5.333l-12.369,12.37V461.492z"/>
</svg>
