  0
SECTION
  2
HEADER
  9
$ACADVER
  1
AC1018
  9
$ACADMAINTVER
 70
     0
  9
$DWGCODEPAGE
  3
ANSI_932
  9
$INSBASE
 10
0.0
 20
0.0
 30
0.0
  9
$EXTMIN
 10
1.000000000000000E+20
 20
1.000000000000000E+20
 30
1.000000000000000E+20
  9
$EXTMAX
 10
-1.000000000000000E+20
 20
-1.000000000000000E+20
 30
-1.000000000000000E+20
  9
$LIMMIN
 10
0.0
 20
0.0
  9
$LIMMAX
 10
12.0
 20
9.0
  9
$ORTHOMODE
 70
     0
  9
$REGENMODE
 70
     1
  9
$FILLMODE
 70
     1
  9
$QTEXTMODE
 70
     0
  9
$MIRRTEXT
 70
     1
  9
$LTSCALE
 40
1.0
  9
$ATTMODE
 70
     1
  9
$TEXTSIZE
 40
0.2
  9
$TRACEWID
 40
0.05
  9
$TEXTSTYLE
  7
Standard
  9
$CLAYER
  8
0
  9
$CELTYPE
  6
ByLayer
  9
$CECOLOR
 62
   256
  9
$CELTSCALE
 40
1.0
  9
$DISPSILH
 70
     0
  9
$DIMSCALE
 40
1.0
  9
$DIMASZ
 40
0.18
  9
$DIMEXO
 40
0.0625
  9
$DIMDLI
 40
0.38
  9
$DIMRND
 40
0.0
  9
$DIMDLE
 40
0.0
  9
$DIMEXE
 40
0.18
  9
$DIMTP
 40
0.0
  9
$DIMTM
 40
0.0
  9
$DIMTXT
 40
0.18
  9
$DIMCEN
 40
0.09
  9
$DIMTSZ
 40
0.0
  9
$DIMTOL
 70
     0
  9
$DIMLIM
 70
     0
  9
$DIMTIH
 70
     1
  9
$DIMTOH
 70
     1
  9
$DIMSE1
 70
     0
  9
$DIMSE2
 70
     0
  9
$DIMTAD
 70
     0
  9
$DIMZIN
 70
     0
  9
$DIMBLK
  1

  9
$DIMASO
 70
     1
  9
$DIMSHO
 70
     1
  9
$DIMPOST
  1

  9
$DIMAPOST
  1

  9
$DIMALT
 70
     0
  9
$DIMALTD
 70
     2
  9
$DIMALTF
 40
25.4
  9
$DIMLFAC
 40
1.0
  9
$DIMTOFL
 70
     0
  9
$DIMTVP
 40
0.0
  9
$DIMTIX
 70
     0
  9
$DIMSOXD
 70
     0
  9
$DIMSAH
 70
     0
  9
$DIMBLK1
  1

  9
$DIMBLK2
  1

  9
$DIMSTYLE
  2
Standard
  9
$DIMCLRD
 70
     0
  9
$DIMCLRE
 70
     0
  9
$DIMCLRT
 70
     0
  9
$DIMTFAC
 40
1.0
  9
$DIMGAP
 40
0.09
  9
$DIMJUST
 70
     0
  9
$DIMSD1
 70
     0
  9
$DIMSD2
 70
     0
  9
$DIMTOLJ
 70
     1
  9
$DIMTZIN
 70
     0
  9
$DIMALTZ
 70
     0
  9
$DIMALTTZ
 70
     0
  9
$DIMUPT
 70
     0
  9
$DIMDEC
 70
     4
  9
$DIMTDEC
 70
     4
  9
$DIMALTU
 70
     2
  9
$DIMALTTD
 70
     2
  9
$DIMTXSTY
  7
Standard
  9
$DIMAUNIT
 70
     0
  9
$DIMADEC
 70
     0
  9
$DIMALTRND
 40
0.0
  9
$DIMAZIN
 70
     0
  9
$DIMDSEP
 70
    46
  9
$DIMATFIT
 70
     3
  9
$DIMFRAC
 70
     0
  9
$DIMLDRBLK
  1

  9
$DIMLUNIT
 70
     2
  9
$DIMLWD
 70
    -2
  9
$DIMLWE
 70
    -2
  9
$DIMTMOVE
 70
     0
  9
$LUNITS
 70
     2
  9
$LUPREC
 70
     4
  9
$SKETCHINC
 40
0.1
  9
$FILLETRAD
 40
0.5
  9
$AUNITS
 70
     0
  9
$AUPREC
 70
     0
  9
$MENU
  1
.
  9
$ELEVATION
 40
0.0
  9
$PELEVATION
 40
0.0
  9
$THICKNESS
 40
0.0
  9
$LIMCHECK
 70
     0
  9
$CHAMFERA
 40
0.5
  9
$CHAMFERB
 40
0.5
  9
$CHAMFERC
 40
1.0
  9
$CHAMFERD
 40
0.0
  9
$SKPOLY
 70
     0
  9
$TDCREATE
 40
2460559.672071759
  9
$TDUCREATE
 40
2460559.588738426
  9
$TDUPDATE
 40
2460559.672071771
  9
$TDUUPDATE
 40
2460559.588738437
  9
$TDINDWG
 40
0.0000000116
  9
$TDUSRTIMER
 40
0.0000000116
  9
$USRTIMER
 70
     1
  9
$ANGBASE
 50
0.0
  9
$ANGDIR
 70
     0
  9
$PDMODE
 70
     0
  9
$PDSIZE
 40
0.0
  9
$PLINEWID
 40
0.0
  9
$SPLFRAME
 70
     0
  9
$SPLINETYPE
 70
     6
  9
$SPLINESEGS
 70
     8
  9
$HANDSEED
  5
285
  9
$SURFTAB1
 70
     6
  9
$SURFTAB2
 70
     6
  9
$SURFTYPE
 70
     6
  9
$SURFU
 70
     6
  9
$SURFV
 70
     6
  9
$UCSBASE
  2

  9
$UCSNAME
  2

  9
$UCSORG
 10
0.0
 20
0.0
 30
0.0
  9
$UCSXDIR
 10
1.0
 20
0.0
 30
0.0
  9
$UCSYDIR
 10
0.0
 20
1.0
 30
0.0
  9
$UCSORTHOREF
  2

  9
$UCSORTHOVIEW
 70
     0
  9
$UCSORGTOP
 10
0.0
 20
0.0
 30
0.0
  9
$UCSORGBOTTOM
 10
0.0
 20
0.0
 30
0.0
  9
$UCSORGLEFT
 10
0.0
 20
0.0
 30
0.0
  9
$UCSORGRIGHT
 10
0.0
 20
0.0
 30
0.0
  9
$UCSORGFRONT
 10
0.0
 20
0.0
 30
0.0
  9
$UCSORGBACK
 10
0.0
 20
0.0
 30
0.0
  9
$PUCSBASE
  2

  9
$PUCSNAME
  2

  9
$PUCSORG
 10
0.0
 20
0.0
 30
0.0
  9
$PUCSXDIR
 10
1.0
 20
0.0
 30
0.0
  9
$PUCSYDIR
 10
0.0
 20
1.0
 30
0.0
  9
$PUCSORTHOREF
  2

  9
$PUCSORTHOVIEW
 70
     0
  9
$PUCSORGTOP
 10
0.0
 20
0.0
 30
0.0
  9
$PUCSORGBOTTOM
 10
0.0
 20
0.0
 30
0.0
  9
$PUCSORGLEFT
 10
0.0
 20
0.0
 30
0.0
  9
$PUCSORGRIGHT
 10
0.0
 20
0.0
 30
0.0
  9
$PUCSORGFRONT
 10
0.0
 20
0.0
 30
0.0
  9
$PUCSORGBACK
 10
0.0
 20
0.0
 30
0.0
  9
$USERI1
 70
     0
  9
$USERI2
 70
     0
  9
$USERI3
 70
     0
  9
$USERI4
 70
     0
  9
$USERI5
 70
     0
  9
$USERR1
 40
0.0
  9
$USERR2
 40
0.0
  9
$USERR3
 40
0.0
  9
$USERR4
 40
0.0
  9
$USERR5
 40
0.0
  9
$WORLDVIEW
 70
     1
  9
$SHADEDGE
 70
     3
  9
$SHADEDIF
 70
    70
  9
$TILEMODE
 70
     1
  9
$MAXACTVP
 70
    64
  9
$PINSBASE
 10
0.0
 20
0.0
 30
0.0
  9
$PLIMCHECK
 70
     0
  9
$PEXTMIN
 10
1.000000000000000E+20
 20
1.000000000000000E+20
 30
1.000000000000000E+20
  9
$PEXTMAX
 10
-1.000000000000000E+20
 20
-1.000000000000000E+20
 30
-1.000000000000000E+20
  9
$PLIMMIN
 10
0.0
 20
0.0
  9
$PLIMMAX
 10
12.0
 20
9.0
  9
$UNITMODE
 70
     0
  9
$VISRETAIN
 70
     1
  9
$PLINEGEN
 70
     0
  9
$PSLTSCALE
 70
     1
  9
$TREEDEPTH
 70
  3020
  9
$CMLSTYLE
  2
Standard
  9
$CMLJUST
 70
     0
  9
$CMLSCALE
 40
1.0
  9
$PROXYGRAPHICS
 70
     1
  9
$MEASUREMENT
 70
     0
  9
$CELWEIGHT
370
    -1
  9
$ENDCAPS
280
     0
  9
$JOINSTYLE
280
     0
  9
$LWDISPLAY
290
     1
  9
$INSUNITS
 70
     1
  9
$HYPERLINKBASE
  1

  9
$STYLESHEET
  1

  9
$XEDIT
290
     1
  9
$CEPSNTYPE
380
     0
  9
$PSTYLEMODE
290
     1
  9
$FINGERPRINTGUID
  2
{BF4EC96E-5589-1FD6-8A55-7B27C7A5E889}
  9
$VERSIONGUID
  2
{FAEB1C32-E019-11D5-929B-00C0DF256EC4}
  9
$EXTNAMES
290
     1
  9
$PSVPSCALE
 40
0.0
  9
$OLESTARTUP
290
     0
  9
$SORTENTS
280
   127
  9
$INDEXCTL
280
     0
  9
$HIDETEXT
280
     1
  9
$XCLIPFRAME
290
     0
  9
$HALOGAP
280
     0
  9
$OBSCOLOR
 70
   257
  9
$OBSLTYPE
280
     0
  9
$INTERSECTIONDISPLAY
280
     0
  9
$INTERSECTIONCOLOR
 70
   257
  9
$DIMASSOC
280
     2
  9
$PROJECTNAME
  1

  0
ENDSEC
  0
SECTION
  2
CLASSES
  0
CLASS
  1
ACDBDICTIONARYWDFLT
  2
AcDbDictionaryWithDefault
  3
ObjectDBX Classes
 90
        0
 91
        3
280
     0
281
     0
  0
CLASS
  1
VISUALSTYLE
  2
AcDbVisualStyle
  3
ObjectDBX Classes
 90
     4095
 91
        3
280
     0
281
     0
  0
ENDSEC
  0
SECTION
  2
TABLES
  0
TABLE
  2
VPORT
  5
8
330
0
100
AcDbSymbolTable
 70
     1
  0
VPORT
  5
29
330
8
100
AcDbSymbolTableRecord
100
AcDbViewportTableRecord
  2
*Active
 70
     0
 10
0.0
 20
0.0
 11
1.0
 21
1.0
 12
0.0
 22
0.0
 13
0.0
 23
0.0
 14
0.5
 24
0.5
 15
0.5
 25
0.5
 16
0.0
 26
0.0
 36
1.0
 17
4.133890787760416
 27
-5.846455891927083
 37
0.0
 40
11.69291178385417
 41
0.7070763662937378
 42
50.0
 43
0.0
 44
0.0
 50
0.0
 51
0.0
 71
     0
 72
   100
 73
     1
 74
     3
 75
     0
 76
     0
 77
     0
 78
     0
281
     0
 65
     1
110
0.0
120
0.0
130
0.0
111
1.0
121
0.0
131
0.0
112
0.0
122
1.0
132
0.0
 79
     0
146
0.0
  0
ENDTAB
  0
TABLE
  2
LTYPE
  5
5
330
0
100
AcDbSymbolTable
 70
     1
  0
LTYPE
  5
14
330
5
100
AcDbSymbolTableRecord
100
AcDbLinetypeTableRecord
  2
ByBlock
 70
     0
  3

 72
    65
 73
     0
 40
0.0
  0
LTYPE
  5
15
330
5
100
AcDbSymbolTableRecord
100
AcDbLinetypeTableRecord
  2
ByLayer
 70
     0
  3

 72
    65
 73
     0
 40
0.0
  0
LTYPE
  5
16
330
5
100
AcDbSymbolTableRecord
100
AcDbLinetypeTableRecord
  2
Continuous
 70
     0
  3
Solid line
 72
    65
 73
     0
 40
0.0
  0
ENDTAB
  0
TABLE
  2
LAYER
  5
2
330
0
100
AcDbSymbolTable
 70
     2
  0
LAYER
  5
10
330
2
100
AcDbSymbolTableRecord
100
AcDbLayerTableRecord
  2
0
 70
     0
 62
     7
  6
Continuous
370
    -3
390
F
  0
LAYER
  5
3B
330
2
100
AcDbSymbolTableRecord
100
AcDbLayerTableRecord
  2
Layer 1
 70
     0
 62
     7
  6
Continuous
370
    -3
390
F
  0
ENDTAB
  0
TABLE
  2
STYLE
  5
3
330
0
100
AcDbSymbolTable
 70
     1
  0
STYLE
  5
11
330
3
100
AcDbSymbolTableRecord
100
AcDbTextStyleTableRecord
  2
Standard
 70
     0
 40
0.0
 41
1.0
 50
0.0
 71
     0
 42
0.2
  3
txt
  4

  0
ENDTAB
  0
TABLE
  2
VIEW
  5
6
330
0
100
AcDbSymbolTable
 70
     0
  0
ENDTAB
  0
TABLE
  2
UCS
  5
7
330
0
100
AcDbSymbolTable
 70
     0
  0
ENDTAB
  0
TABLE
  2
APPID
  5
9
330
0
100
AcDbSymbolTable
 70
     1
  0
APPID
  5
12
330
9
100
AcDbSymbolTableRecord
100
AcDbRegAppTableRecord
  2
ACAD
 70
     0
  0
ENDTAB
  0
TABLE
  2
DIMSTYLE
  5
A
330
0
100
AcDbSymbolTable
 70
     1
100
AcDbDimStyleTable
  0
DIMSTYLE
105
27
330
A
100
AcDbSymbolTableRecord
100
AcDbDimStyleTableRecord
  2
Standard
 70
     0
340
11
  0
ENDTAB
  0
TABLE
  2
BLOCK_RECORD
  5
1
330
0
100
AcDbSymbolTable
 70
     1
  0
BLOCK_RECORD
  5
1F
330
1
100
AcDbSymbolTableRecord
100
AcDbBlockTableRecord
  2
*Model_Space
340
22
  0
BLOCK_RECORD
  5
1B
330
1
100
AcDbSymbolTableRecord
100
AcDbBlockTableRecord
  2
*Paper_Space
340
1E
  0
BLOCK_RECORD
  5
23
330
1
100
AcDbSymbolTableRecord
100
AcDbBlockTableRecord
  2
*Paper_Space0
340
26
  0
ENDTAB
  0
ENDSEC
  0
SECTION
  2
BLOCKS
  0
BLOCK
  5
20
330
1F
100
AcDbEntity
  8
0
100
AcDbBlockBegin
  2
*Model_Space
 70
     0
 71
     0
 10
0.0
 20
0.0
 30
0.0
  3
*Model_Space
  1

  0
ENDBLK
  5
21
330
1F
100
AcDbEntity
  8
0
100
AcDbBlockEnd
  0
BLOCK
  5
1C
330
1B
100
AcDbEntity
 67
     1
  8
0
100
AcDbBlockBegin
  2
*Paper_Space
 70
     0
 71
     0
 10
0.0
 20
0.0
 30
0.0
  3
*Paper_Space
  1

  0
ENDBLK
  5
1D
330
1B
100
AcDbEntity
 67
     1
  8
0
100
AcDbBlockEnd
  0
BLOCK
  5
24
330
23
100
AcDbEntity
  8
0
100
AcDbBlockBegin
  2
*Paper_Space0
 70
     0
 71
     0
 10
0.0
 20
0.0
 30
0.0
  3
*Paper_Space0
  1

  0
ENDBLK
  5
25
330
23
100
AcDbEntity
  8
0
100
AcDbBlockEnd
  0
ENDSEC
  0
SECTION
  2
ENTITIES
  0
POLYLINE
  5
3C
330
1F
100
AcDbEntity
  8
Layer 1
370
     0
100
AcDb2dPolyline
 66
     1
 10
0.0
 20
0.0
 30
0.0
  0
VERTEX
  5
3D
330
3C
100
AcDbEntity
  8
Layer 1
370
     0
100
AcDbVertex
100
AcDb2dVertex
 10
8.208333333333332
 20
-4.554050021701388
 30
0.0
  0
VERTEX
  5
3E
330
3C
100
AcDbEntity
  8
Layer 1
370
     0
100
AcDbVertex
100
AcDb2dVertex
 10
7.801093207465278
 20
-4.554050021701388
 30
0.0
  0
VERTEX
  5
3F
330
3C
100
AcDbEntity
  8
Layer 1
370
     0
100
AcDbVertex
100
AcDb2dVertex
 10
7.678019205729166
 20
-4.430989583333333
 30
0.0
  0
VERTEX
  5
40
330
3C
100
AcDbEntity
  8
Layer 1
370
     0
100
AcDbVertex
100
AcDb2dVertex
 10
7.920030381944444
 20
-4.189059787326388
 30
0.0
  0
VERTEX
  5
41
330
3C
100
AcDbEntity
  8
Layer 1
370
     0
100
AcDbVertex
100
AcDb2dVertex
 10
8.078355577256945
 20
-4.347405327690972
 30
0.0
  0
VERTEX
  5
42
330
3C
100
AcDbEntity
  8
Layer 1
370
     0
100
AcDbVertex
100
AcDb2dVertex
 10
8.208333333333332
 20
-4.347405327690972
 30
0.0
  0
VERTEX
  5
43
330
3C
100
AcDbEntity
  8
Layer 1
370
     0
100
AcDbVertex
100
AcDb2dVertex
 10
8.208333333333332
 20
-4.2427978515625
 30
0.0
  0
VERTEX
  5
44
330
3C
100
AcDbEntity
  8
Layer 1
370
     0
100
AcDbVertex
100
AcDb2dVertex
 10
8.121690538194445
 20
-4.2427978515625
 30
0.0
  0
VERTEX
  5
45
330
3C
100
AcDbEntity
  8
Layer 1
370
     0
100
AcDbVertex
100
AcDb2dVertex
 10
7.993977864583333
 20
-4.115186903211805
 30
0.0
  0
VERTEX
  5
46
330
3C
100
AcDbEntity
  8
Layer 1
370
     0
100
AcDbVertex
100
AcDb2dVertex
 10
8.208333333333332
 20
-3.9010009765625
 30
0.0
  0
VERTEX
  5
47
330
3C
100
AcDbEntity
  8
Layer 1
370
     0
100
AcDbVertex
100
AcDb2dVertex
 10
8.208333333333332
 20
-3.752970377604167
 30
0.0
  0
VERTEX
  5
48
330
3C
100
AcDbEntity
  8
Layer 1
370
     0
100
AcDbVertex
100
AcDb2dVertex
 10
7.993977864583333
 20
-3.538777669270833
 30
0.0
  0
VERTEX
  5
49
330
3C
100
AcDbEntity
  8
Layer 1
370
     0
100
AcDbVertex
100
AcDb2dVertex
 10
8.121690538194445
 20
-3.411146375868055
 30
0.0
  0
VERTEX
  5
4A
330
3C
100
AcDbEntity
  8
Layer 1
370
     0
100
AcDbVertex
100
AcDb2dVertex
 10
8.208333333333332
 20
-3.411146375868055
 30
0.0
  0
VERTEX
  5
4B
330
3C
100
AcDbEntity
  8
Layer 1
370
     0
100
AcDbVertex
100
AcDb2dVertex
 10
8.208333333333332
 20
-3.306532118055555
 30
0.0
  0
VERTEX
  5
4C
330
3C
100
AcDbEntity
  8
Layer 1
370
     0
100
AcDbVertex
100
AcDb2dVertex
 10
8.078355577256945
 20
-3.306532118055555
 30
0.0
  0
VERTEX
  5
4D
330
3C
100
AcDbEntity
  8
Layer 1
370
     0
100
AcDbVertex
100
AcDb2dVertex
 10
7.920030381944444
 20
-3.464857313368055
 30
0.0
  0
VERTEX
  5
4E
330
3C
100
AcDbEntity
  8
Layer 1
370
     0
100
AcDbVertex
100
AcDb2dVertex
 10
7.678019205729166
 20
-3.223002115885417
 30
0.0
  0
VERTEX
  5
4F
330
3C
100
AcDbEntity
  8
Layer 1
370
     0
100
AcDbVertex
100
AcDb2dVertex
 10
7.801093207465278
 20
-3.099921332465278
 30
0.0
  0
VERTEX
  5
50
330
3C
100
AcDbEntity
  8
Layer 1
370
     0
100
AcDbVertex
100
AcDb2dVertex
 10
8.208333333333332
 20
-3.099921332465278
 30
0.0
  0
VERTEX
  5
51
330
3C
100
AcDbEntity
  8
Layer 1
370
     0
100
AcDbVertex
100
AcDb2dVertex
 10
8.208333333333332
 20
-2.995347764756944
 30
0.0
  0
VERTEX
  5
52
330
3C
100
AcDbEntity
  8
Layer 1
370
     0
100
AcDbVertex
100
AcDb2dVertex
 10
7.757758246527778
 20
-2.995347764756944
 30
0.0
  0
VERTEX
  5
53
330
3C
100
AcDbEntity
  8
Layer 1
370
     0
100
AcDbVertex
100
AcDb2dVertex
 10
7.604017469618055
 20
-3.149068196614583
 30
0.0
  0
VERTEX
  5
54
330
3C
100
AcDbEntity
  8
Layer 1
370
     0
100
AcDbVertex
100
AcDb2dVertex
 10
7.4501953125
 20
-2.995347764756944
 30
0.0
  0
VERTEX
  5
55
330
3C
100
AcDbEntity
  8
Layer 1
370
     0
100
AcDbVertex
100
AcDb2dVertex
 10
7.275675455729166
 20
-2.995347764756944
 30
0.0
  0
VERTEX
  5
56
330
3C
100
AcDbEntity
  8
Layer 1
370
     0
100
AcDbVertex
100
AcDb2dVertex
 10
7.121826171875
 20
-3.149068196614583
 30
0.0
  0
VERTEX
  5
57
330
3C
100
AcDbEntity
  8
Layer 1
370
     0
100
AcDbVertex
100
AcDb2dVertex
 10
6.968071831597221
 20
-2.995347764756944
 30
0.0
  0
VERTEX
  5
58
330
3C
100
AcDbEntity
  8
Layer 1
370
     0
100
AcDbVertex
100
AcDb2dVertex
 10
6.23046875
 20
-2.995347764756944
 30
0.0
  0
VERTEX
  5
59
330
3C
100
AcDbEntity
  8
Layer 1
370
     0
100
AcDbVertex
100
AcDb2dVertex
 10
5.994805230034722
 20
-3.230753580729167
 30
0.0
  0
VERTEX
  5
5A
330
3C
100
AcDbEntity
  8
Layer 1
370
     0
100
AcDbVertex
100
AcDb2dVertex
 10
5.759236653645833
 20
-2.995347764756944
 30
0.0
  0
VERTEX
  5
5B
330
3C
100
AcDbEntity
  8
Layer 1
370
     0
100
AcDbVertex
100
AcDb2dVertex
 10
5.021674262152778
 20
-2.995347764756944
 30
0.0
  0
VERTEX
  5
5C
330
3C
100
AcDbEntity
  8
Layer 1
370
     0
100
AcDbVertex
100
AcDb2dVertex
 10
4.867892795138888
 20
-3.149068196614583
 30
0.0
  0
VERTEX
  5
5D
330
3C
100
AcDbEntity
  8
Layer 1
370
     0
100
AcDbVertex
100
AcDb2dVertex
 10
4.714097764756944
 20
-2.995347764756944
 30
0.0
  0
VERTEX
  5
5E
330
3C
100
AcDbEntity
  8
Layer 1
370
     0
100
AcDbVertex
100
AcDb2dVertex
 10
4.539577907986111
 20
-2.995347764756944
 30
0.0
  0
VERTEX
  5
5F
330
3C
100
AcDbEntity
  8
Layer 1
370
     0
100
AcDbVertex
100
AcDb2dVertex
 10
4.385701497395833
 20
-3.149068196614583
 30
0.0
  0
VERTEX
  5
60
330
3C
100
AcDbEntity
  8
Layer 1
370
     0
100
AcDbVertex
100
AcDb2dVertex
 10
4.231974283854166
 20
-2.995347764756944
 30
0.0
  0
VERTEX
  5
61
330
3C
100
AcDbEntity
  8
Layer 1
370
     0
100
AcDbVertex
100
AcDb2dVertex
 10
3.494344075520833
 20
-2.995347764756944
 30
0.0
  0
VERTEX
  5
62
330
3C
100
AcDbEntity
  8
Layer 1
370
     0
100
AcDbVertex
100
AcDb2dVertex
 10
3.258748372395833
 20
-3.230753580729167
 30
0.0
  0
VERTEX
  5
63
330
3C
100
AcDbEntity
  8
Layer 1
370
     0
100
AcDbVertex
100
AcDb2dVertex
 10
3.023111979166667
 20
-2.995347764756944
 30
0.0
  0
VERTEX
  5
64
330
3C
100
AcDbEntity
  8
Layer 1
370
     0
100
AcDbVertex
100
AcDb2dVertex
 10
2.285508897569444
 20
-2.995347764756944
 30
0.0
  0
VERTEX
  5
65
330
3C
100
AcDbEntity
  8
Layer 1
370
     0
100
AcDbVertex
100
AcDb2dVertex
 10
2.131768120659722
 20
-3.149068196614583
 30
0.0
  0
VERTEX
  5
66
330
3C
100
AcDbEntity
  8
Layer 1
370
     0
100
AcDbVertex
100
AcDb2dVertex
 10
1.977945963541667
 20
-2.995347764756944
 30
0.0
  0
VERTEX
  5
67
330
3C
100
AcDbEntity
  8
Layer 1
370
     0
100
AcDbVertex
100
AcDb2dVertex
 10
1.803432888454861
 20
-2.995347764756944
 30
0.0
  0
VERTEX
  5
68
330
3C
100
AcDbEntity
  8
Layer 1
370
     0
100
AcDbVertex
100
AcDb2dVertex
 10
1.649583604600694
 20
-3.149068196614583
 30
0.0
  0
VERTEX
  5
69
330
3C
100
AcDbEntity
  8
Layer 1
370
     0
100
AcDbVertex
100
AcDb2dVertex
 10
1.495808919270833
 20
-2.995347764756944
 30
0.0
  0
VERTEX
  5
6A
330
3C
100
AcDbEntity
  8
Layer 1
370
     0
100
AcDbVertex
100
AcDb2dVertex
 10
0.7582736545138888
 20
-2.995347764756944
 30
0.0
  0
VERTEX
  5
6B
330
3C
100
AcDbEntity
  8
Layer 1
370
     0
100
AcDbVertex
100
AcDb2dVertex
 10
0.5226508246527778
 20
-3.230753580729167
 30
0.0
  0
VERTEX
  5
6C
330
3C
100
AcDbEntity
  8
Layer 1
370
     0
100
AcDbVertex
100
AcDb2dVertex
 10
0.2870008680555555
 20
-2.995347764756944
 30
0.0
  0
VERTEX
  5
6D
330
3C
100
AcDbEntity
  8
Layer 1
370
     0
100
AcDbVertex
100
AcDb2dVertex
 10
0.0000067816840278
 20
-2.995347764756944
 30
0.0
  0
VERTEX
  5
6E
330
3C
100
AcDbEntity
  8
Layer 1
370
     0
100
AcDbVertex
100
AcDb2dVertex
 10
0.0000067816840278
 20
-3.099921332465278
 30
0.0
  0
VERTEX
  5
6F
330
3C
100
AcDbEntity
  8
Layer 1
370
     0
100
AcDbVertex
100
AcDb2dVertex
 10
0.2436998155381944
 20
-3.099921332465278
 30
0.0
  0
VERTEX
  5
70
330
3C
100
AcDbEntity
  8
Layer 1
370
     0
100
AcDbVertex
100
AcDb2dVertex
 10
0.4486287434895833
 20
-3.304728190104167
 30
0.0
  0
VERTEX
  5
71
330
3C
100
AcDbEntity
  8
Layer 1
370
     0
100
AcDbVertex
100
AcDb2dVertex
 10
0.2879774305555555
 20
-3.465311686197917
 30
0.0
  0
VERTEX
  5
72
330
3C
100
AcDbEntity
  8
Layer 1
370
     0
100
AcDbVertex
100
AcDb2dVertex
 10
0.1292249891493056
 20
-3.306532118055555
 30
0.0
  0
VERTEX
  5
73
330
3C
100
AcDbEntity
  8
Layer 1
370
     0
100
AcDbVertex
100
AcDb2dVertex
 10
0.0000067816840278
 20
-3.306532118055555
 30
0.0
  0
VERTEX
  5
74
330
3C
100
AcDbEntity
  8
Layer 1
370
     0
100
AcDbVertex
100
AcDb2dVertex
 10
0.0000067816840278
 20
-3.411146375868055
 30
0.0
  0
VERTEX
  5
75
330
3C
100
AcDbEntity
  8
Layer 1
370
     0
100
AcDbVertex
100
AcDb2dVertex
 10
0.0859035915798611
 20
-3.411146375868055
 30
0.0
  0
VERTEX
  5
76
330
3C
100
AcDbEntity
  8
Layer 1
370
     0
100
AcDbVertex
100
AcDb2dVertex
 10
0.2139892578125
 20
-3.539204915364583
 30
0.0
  0
VERTEX
  5
77
330
3C
100
AcDbEntity
  8
Layer 1
370
     0
100
AcDbVertex
100
AcDb2dVertex
 10
0.0001085069444444
 20
-3.753011067708333
 30
0.0
  0
VERTEX
  5
78
330
3C
100
AcDbEntity
  8
Layer 1
370
     0
100
AcDbVertex
100
AcDb2dVertex
 10
0.0000067816840278
 20
-3.753011067708333
 30
0.0
  0
VERTEX
  5
79
330
3C
100
AcDbEntity
  8
Layer 1
370
     0
100
AcDbVertex
100
AcDb2dVertex
 10
0.0000067816840278
 20
-3.9010009765625
 30
0.0
  0
VERTEX
  5
7A
330
3C
100
AcDbEntity
  8
Layer 1
370
     0
100
AcDbVertex
100
AcDb2dVertex
 10
0.0001085069444444
 20
-3.900919596354167
 30
0.0
  0
VERTEX
  5
7B
330
3C
100
AcDbEntity
  8
Layer 1
370
     0
100
AcDbVertex
100
AcDb2dVertex
 10
0.2139892578125
 20
-4.114718967013888
 30
0.0
  0
VERTEX
  5
7C
330
3C
100
AcDbEntity
  8
Layer 1
370
     0
100
AcDbVertex
100
AcDb2dVertex
 10
0.0859035915798611
 20
-4.2427978515625
 30
0.0
  0
VERTEX
  5
7D
330
3C
100
AcDbEntity
  8
Layer 1
370
     0
100
AcDbVertex
100
AcDb2dVertex
 10
0.0000067816840278
 20
-4.2427978515625
 30
0.0
  0
VERTEX
  5
7E
330
3C
100
AcDbEntity
  8
Layer 1
370
     0
100
AcDbVertex
100
AcDb2dVertex
 10
0.0000067816840278
 20
-4.347405327690972
 30
0.0
  0
VERTEX
  5
7F
330
3C
100
AcDbEntity
  8
Layer 1
370
     0
100
AcDbVertex
100
AcDb2dVertex
 10
0.1292249891493056
 20
-4.347405327690972
 30
0.0
  0
VERTEX
  5
80
330
3C
100
AcDbEntity
  8
Layer 1
370
     0
100
AcDbVertex
100
AcDb2dVertex
 10
0.2879774305555555
 20
-4.188720703125
 30
0.0
  0
VERTEX
  5
81
330
3C
100
AcDbEntity
  8
Layer 1
370
     0
100
AcDbVertex
100
AcDb2dVertex
 10
0.4486287434895833
 20
-4.349229600694445
 30
0.0
  0
VERTEX
  5
82
330
3C
100
AcDbEntity
  8
Layer 1
370
     0
100
AcDbVertex
100
AcDb2dVertex
 10
0.2436998155381944
 20
-4.554050021701388
 30
0.0
  0
VERTEX
  5
83
330
3C
100
AcDbEntity
  8
Layer 1
370
     0
100
AcDbVertex
100
AcDb2dVertex
 10
0.0000067816840278
 20
-4.554050021701388
 30
0.0
  0
VERTEX
  5
84
330
3C
100
AcDbEntity
  8
Layer 1
370
     0
100
AcDbVertex
100
AcDb2dVertex
 10
0.0000067816840278
 20
-4.65863037109375
 30
0.0
  0
VERTEX
  5
85
330
3C
100
AcDbEntity
  8
Layer 1
370
     0
100
AcDbVertex
100
AcDb2dVertex
 10
0.2870008680555555
 20
-4.65863037109375
 30
0.0
  0
VERTEX
  5
86
330
3C
100
AcDbEntity
  8
Layer 1
370
     0
100
AcDbVertex
100
AcDb2dVertex
 10
0.5226508246527778
 20
-4.423136393229166
 30
0.0
  0
VERTEX
  5
87
330
3C
100
AcDbEntity
  8
Layer 1
370
     0
100
AcDbVertex
100
AcDb2dVertex
 10
0.7582736545138888
 20
-4.65863037109375
 30
0.0
  0
VERTEX
  5
88
330
3C
100
AcDbEntity
  8
Layer 1
370
     0
100
AcDbVertex
100
AcDb2dVertex
 10
1.495808919270833
 20
-4.65863037109375
 30
0.0
  0
VERTEX
  5
89
330
3C
100
AcDbEntity
  8
Layer 1
370
     0
100
AcDbVertex
100
AcDb2dVertex
 10
1.649583604600694
 20
-4.504937065972222
 30
0.0
  0
VERTEX
  5
8A
330
3C
100
AcDbEntity
  8
Layer 1
370
     0
100
AcDbVertex
100
AcDb2dVertex
 10
1.803432888454861
 20
-4.65863037109375
 30
0.0
  0
VERTEX
  5
8B
330
3C
100
AcDbEntity
  8
Layer 1
370
     0
100
AcDbVertex
100
AcDb2dVertex
 10
1.977945963541667
 20
-4.65863037109375
 30
0.0
  0
VERTEX
  5
8C
330
3C
100
AcDbEntity
  8
Layer 1
370
     0
100
AcDbVertex
100
AcDb2dVertex
 10
2.131768120659722
 20
-4.504937065972222
 30
0.0
  0
VERTEX
  5
8D
330
3C
100
AcDbEntity
  8
Layer 1
370
     0
100
AcDbVertex
100
AcDb2dVertex
 10
2.285508897569444
 20
-4.65863037109375
 30
0.0
  0
VERTEX
  5
8E
330
3C
100
AcDbEntity
  8
Layer 1
370
     0
100
AcDbVertex
100
AcDb2dVertex
 10
3.023111979166667
 20
-4.65863037109375
 30
0.0
  0
VERTEX
  5
8F
330
3C
100
AcDbEntity
  8
Layer 1
370
     0
100
AcDbVertex
100
AcDb2dVertex
 10
3.258748372395833
 20
-4.423136393229166
 30
0.0
  0
VERTEX
  5
90
330
3C
100
AcDbEntity
  8
Layer 1
370
     0
100
AcDbVertex
100
AcDb2dVertex
 10
3.494344075520833
 20
-4.65863037109375
 30
0.0
  0
VERTEX
  5
91
330
3C
100
AcDbEntity
  8
Layer 1
370
     0
100
AcDbVertex
100
AcDb2dVertex
 10
4.231974283854166
 20
-4.65863037109375
 30
0.0
  0
VERTEX
  5
92
330
3C
100
AcDbEntity
  8
Layer 1
370
     0
100
AcDbVertex
100
AcDb2dVertex
 10
4.385701497395833
 20
-4.504937065972222
 30
0.0
  0
VERTEX
  5
93
330
3C
100
AcDbEntity
  8
Layer 1
370
     0
100
AcDbVertex
100
AcDb2dVertex
 10
4.539577907986111
 20
-4.65863037109375
 30
0.0
  0
VERTEX
  5
94
330
3C
100
AcDbEntity
  8
Layer 1
370
     0
100
AcDbVertex
100
AcDb2dVertex
 10
4.714097764756944
 20
-4.65863037109375
 30
0.0
  0
VERTEX
  5
95
330
3C
100
AcDbEntity
  8
Layer 1
370
     0
100
AcDbVertex
100
AcDb2dVertex
 10
4.867892795138888
 20
-4.504937065972222
 30
0.0
  0
VERTEX
  5
96
330
3C
100
AcDbEntity
  8
Layer 1
370
     0
100
AcDbVertex
100
AcDb2dVertex
 10
5.021674262152778
 20
-4.65863037109375
 30
0.0
  0
VERTEX
  5
97
330
3C
100
AcDbEntity
  8
Layer 1
370
     0
100
AcDbVertex
100
AcDb2dVertex
 10
5.759236653645833
 20
-4.65863037109375
 30
0.0
  0
VERTEX
  5
98
330
3C
100
AcDbEntity
  8
Layer 1
370
     0
100
AcDbVertex
100
AcDb2dVertex
 10
5.994805230034722
 20
-4.423136393229166
 30
0.0
  0
VERTEX
  5
99
330
3C
100
AcDbEntity
  8
Layer 1
370
     0
100
AcDbVertex
100
AcDb2dVertex
 10
6.23046875
 20
-4.65863037109375
 30
0.0
  0
VERTEX
  5
9A
330
3C
100
AcDbEntity
  8
Layer 1
370
     0
100
AcDbVertex
100
AcDb2dVertex
 10
6.968071831597221
 20
-4.65863037109375
 30
0.0
  0
VERTEX
  5
9B
330
3C
100
AcDbEntity
  8
Layer 1
370
     0
100
AcDbVertex
100
AcDb2dVertex
 10
7.121826171875
 20
-4.504937065972222
 30
0.0
  0
VERTEX
  5
9C
330
3C
100
AcDbEntity
  8
Layer 1
370
     0
100
AcDbVertex
100
AcDb2dVertex
 10
7.275675455729166
 20
-4.65863037109375
 30
0.0
  0
VERTEX
  5
9D
330
3C
100
AcDbEntity
  8
Layer 1
370
     0
100
AcDbVertex
100
AcDb2dVertex
 10
7.4501953125
 20
-4.65863037109375
 30
0.0
  0
VERTEX
  5
9E
330
3C
100
AcDbEntity
  8
Layer 1
370
     0
100
AcDbVertex
100
AcDb2dVertex
 10
7.604017469618055
 20
-4.504937065972222
 30
0.0
  0
VERTEX
  5
9F
330
3C
100
AcDbEntity
  8
Layer 1
370
     0
100
AcDbVertex
100
AcDb2dVertex
 10
7.757758246527778
 20
-4.65863037109375
 30
0.0
  0
VERTEX
  5
A0
330
3C
100
AcDbEntity
  8
Layer 1
370
     0
100
AcDbVertex
100
AcDb2dVertex
 10
8.208333333333332
 20
-4.65863037109375
 30
0.0
  0
VERTEX
  5
A1
330
3C
100
AcDbEntity
  8
Layer 1
370
     0
100
AcDbVertex
100
AcDb2dVertex
 10
8.208333333333332
 20
-4.554050021701388
 30
0.0
  0
SEQEND
  5
A2
330
3C
100
AcDbEntity
  8
Layer 1
370
     0
  0
POLYLINE
  5
A3
330
1F
100
AcDbEntity
  8
Layer 1
370
     0
100
AcDb2dPolyline
 66
     1
 10
0.0
 20
0.0
 30
0.0
  0
VERTEX
  5
A4
330
A3
100
AcDbEntity
  8
Layer 1
370
     0
100
AcDbVertex
100
AcDb2dVertex
 10
7.920030381944444
 20
-3.612765842013889
 30
0.0
  0
VERTEX
  5
A5
330
A3
100
AcDbEntity
  8
Layer 1
370
     0
100
AcDbVertex
100
AcDb2dVertex
 10
8.134412977430555
 20
-3.826972113715278
 30
0.0
  0
VERTEX
  5
A6
330
A3
100
AcDbEntity
  8
Layer 1
370
     0
100
AcDbVertex
100
AcDb2dVertex
 10
7.920030381944444
 20
-4.041239420572916
 30
0.0
  0
VERTEX
  5
A7
330
A3
100
AcDbEntity
  8
Layer 1
370
     0
100
AcDbVertex
100
AcDb2dVertex
 10
7.8251953125
 20
-3.9464111328125
 30
0.0
  0
VERTEX
  5
A8
330
A3
100
AcDbEntity
  8
Layer 1
370
     0
100
AcDbVertex
100
AcDb2dVertex
 10
7.556450737847221
 20
-3.9464111328125
 30
0.0
  0
VERTEX
  5
A9
330
A3
100
AcDbEntity
  8
Layer 1
370
     0
100
AcDbVertex
100
AcDb2dVertex
 10
7.436984592013888
 20
-3.826972113715278
 30
0.0
  0
VERTEX
  5
AA
330
A3
100
AcDbEntity
  8
Layer 1
370
     0
100
AcDbVertex
100
AcDb2dVertex
 10
7.556450737847221
 20
-3.707472059461805
 30
0.0
  0
VERTEX
  5
AB
330
A3
100
AcDbEntity
  8
Layer 1
370
     0
100
AcDbVertex
100
AcDb2dVertex
 10
7.8251953125
 20
-3.707472059461805
 30
0.0
  0
VERTEX
  5
AC
330
A3
100
AcDbEntity
  8
Layer 1
370
     0
100
AcDbVertex
100
AcDb2dVertex
 10
7.920030381944444
 20
-3.612765842013889
 30
0.0
  0
SEQEND
  5
AD
330
A3
100
AcDbEntity
  8
Layer 1
370
     0
  0
POLYLINE
  5
AE
330
1F
100
AcDbEntity
  8
Layer 1
370
     0
100
AcDb2dPolyline
 66
     1
 10
0.0
 20
0.0
 30
0.0
  0
VERTEX
  5
AF
330
AE
100
AcDbEntity
  8
Layer 1
370
     0
100
AcDbVertex
100
AcDb2dVertex
 10
7.3189697265625
 20
-3.099921332465278
 30
0.0
  0
VERTEX
  5
B0
330
AE
100
AcDbEntity
  8
Layer 1
370
     0
100
AcDbVertex
100
AcDb2dVertex
 10
7.406914605034721
 20
-3.099921332465278
 30
0.0
  0
VERTEX
  5
B1
330
AE
100
AcDbEntity
  8
Layer 1
370
     0
100
AcDbVertex
100
AcDb2dVertex
 10
7.529947916666666
 20
-3.223002115885417
 30
0.0
  0
VERTEX
  5
B2
330
AE
100
AcDbEntity
  8
Layer 1
370
     0
100
AcDbVertex
100
AcDb2dVertex
 10
7.406914605034721
 20
-3.346204969618055
 30
0.0
  0
VERTEX
  5
B3
330
AE
100
AcDbEntity
  8
Layer 1
370
     0
100
AcDbVertex
100
AcDb2dVertex
 10
7.3189697265625
 20
-3.346204969618055
 30
0.0
  0
VERTEX
  5
B4
330
AE
100
AcDbEntity
  8
Layer 1
370
     0
100
AcDbVertex
100
AcDb2dVertex
 10
7.195814344618055
 20
-3.223002115885417
 30
0.0
  0
VERTEX
  5
B5
330
AE
100
AcDbEntity
  8
Layer 1
370
     0
100
AcDbVertex
100
AcDb2dVertex
 10
7.3189697265625
 20
-3.099921332465278
 30
0.0
  0
SEQEND
  5
B6
330
AE
100
AcDbEntity
  8
Layer 1
370
     0
  0
POLYLINE
  5
B7
330
1F
100
AcDbEntity
  8
Layer 1
370
     0
100
AcDb2dPolyline
 66
     1
 10
0.0
 20
0.0
 30
0.0
  0
VERTEX
  5
B8
330
B7
100
AcDbEntity
  8
Layer 1
370
     0
100
AcDbVertex
100
AcDb2dVertex
 10
7.275675455729166
 20
-3.450792100694444
 30
0.0
  0
VERTEX
  5
B9
330
B7
100
AcDbEntity
  8
Layer 1
370
     0
100
AcDbVertex
100
AcDb2dVertex
 10
7.4501953125
 20
-3.450792100694444
 30
0.0
  0
VERTEX
  5
BA
330
B7
100
AcDbEntity
  8
Layer 1
370
     0
100
AcDbVertex
100
AcDb2dVertex
 10
7.604017469618055
 20
-3.296963161892361
 30
0.0
  0
VERTEX
  5
BB
330
B7
100
AcDbEntity
  8
Layer 1
370
     0
100
AcDbVertex
100
AcDb2dVertex
 10
7.8460693359375
 20
-3.538777669270833
 30
0.0
  0
VERTEX
  5
BC
330
B7
100
AcDbEntity
  8
Layer 1
370
     0
100
AcDbVertex
100
AcDb2dVertex
 10
7.781833224826388
 20
-3.602973090277778
 30
0.0
  0
VERTEX
  5
BD
330
B7
100
AcDbEntity
  8
Layer 1
370
     0
100
AcDbVertex
100
AcDb2dVertex
 10
7.512925889756944
 20
-3.602973090277778
 30
0.0
  0
VERTEX
  5
BE
330
B7
100
AcDbEntity
  8
Layer 1
370
     0
100
AcDbVertex
100
AcDb2dVertex
 10
7.362887912326388
 20
-3.7529296875
 30
0.0
  0
VERTEX
  5
BF
330
B7
100
AcDbEntity
  8
Layer 1
370
     0
100
AcDbVertex
100
AcDb2dVertex
 10
7.212958441840278
 20
-3.602973090277778
 30
0.0
  0
VERTEX
  5
C0
330
B7
100
AcDbEntity
  8
Layer 1
370
     0
100
AcDbVertex
100
AcDb2dVertex
 10
6.943956163194444
 20
-3.602973090277778
 30
0.0
  0
VERTEX
  5
C1
330
B7
100
AcDbEntity
  8
Layer 1
370
     0
100
AcDbVertex
100
AcDb2dVertex
 10
6.879787868923611
 20
-3.538804796006944
 30
0.0
  0
VERTEX
  5
C2
330
B7
100
AcDbEntity
  8
Layer 1
370
     0
100
AcDbVertex
100
AcDb2dVertex
 10
7.121826171875
 20
-3.296963161892361
 30
0.0
  0
VERTEX
  5
C3
330
B7
100
AcDbEntity
  8
Layer 1
370
     0
100
AcDbVertex
100
AcDb2dVertex
 10
7.275675455729166
 20
-3.450792100694444
 30
0.0
  0
SEQEND
  5
C4
330
B7
100
AcDbEntity
  8
Layer 1
370
     0
  0
POLYLINE
  5
C5
330
1F
100
AcDbEntity
  8
Layer 1
370
     0
100
AcDb2dPolyline
 66
     1
 10
0.0
 20
0.0
 30
0.0
  0
VERTEX
  5
C6
330
C5
100
AcDbEntity
  8
Layer 1
370
     0
100
AcDbVertex
100
AcDb2dVertex
 10
5.398328993055555
 20
-3.826972113715278
 30
0.0
  0
VERTEX
  5
C7
330
C5
100
AcDbEntity
  8
Layer 1
370
     0
100
AcDbVertex
100
AcDb2dVertex
 10
5.183919270833333
 20
-4.041239420572916
 30
0.0
  0
VERTEX
  5
C8
330
C5
100
AcDbEntity
  8
Layer 1
370
     0
100
AcDbVertex
100
AcDb2dVertex
 10
5.089152018229166
 20
-3.9464111328125
 30
0.0
  0
VERTEX
  5
C9
330
C5
100
AcDbEntity
  8
Layer 1
370
     0
100
AcDbVertex
100
AcDb2dVertex
 10
4.820271809895833
 20
-3.9464111328125
 30
0.0
  0
VERTEX
  5
CA
330
C5
100
AcDbEntity
  8
Layer 1
370
     0
100
AcDbVertex
100
AcDb2dVertex
 10
4.700832790798611
 20
-3.826972113715278
 30
0.0
  0
VERTEX
  5
CB
330
C5
100
AcDbEntity
  8
Layer 1
370
     0
100
AcDbVertex
100
AcDb2dVertex
 10
4.820271809895833
 20
-3.707472059461805
 30
0.0
  0
VERTEX
  5
CC
330
C5
100
AcDbEntity
  8
Layer 1
370
     0
100
AcDbVertex
100
AcDb2dVertex
 10
5.089152018229166
 20
-3.707472059461805
 30
0.0
  0
VERTEX
  5
CD
330
C5
100
AcDbEntity
  8
Layer 1
370
     0
100
AcDbVertex
100
AcDb2dVertex
 10
5.183919270833333
 20
-3.612765842013889
 30
0.0
  0
VERTEX
  5
CE
330
C5
100
AcDbEntity
  8
Layer 1
370
     0
100
AcDbVertex
100
AcDb2dVertex
 10
5.398328993055555
 20
-3.826972113715278
 30
0.0
  0
SEQEND
  5
CF
330
C5
100
AcDbEntity
  8
Layer 1
370
     0
  0
POLYLINE
  5
D0
330
1F
100
AcDbEntity
  8
Layer 1
370
     0
100
AcDb2dPolyline
 66
     1
 10
0.0
 20
0.0
 30
0.0
  0
VERTEX
  5
D1
330
D0
100
AcDbEntity
  8
Layer 1
370
     0
100
AcDbVertex
100
AcDb2dVertex
 10
5.257921006944444
 20
-3.538777669270833
 30
0.0
  0
VERTEX
  5
D2
330
D0
100
AcDbEntity
  8
Layer 1
370
     0
100
AcDbVertex
100
AcDb2dVertex
 10
5.385552300347222
 20
-3.411146375868055
 30
0.0
  0
VERTEX
  5
D3
330
D0
100
AcDbEntity
  8
Layer 1
370
     0
100
AcDbVertex
100
AcDb2dVertex
 10
5.558159722222222
 20
-3.411146375868055
 30
0.0
  0
VERTEX
  5
D4
330
D0
100
AcDbEntity
  8
Layer 1
370
     0
100
AcDbVertex
100
AcDb2dVertex
 10
5.686197916666666
 20
-3.539204915364583
 30
0.0
  0
VERTEX
  5
D5
330
D0
100
AcDbEntity
  8
Layer 1
370
     0
100
AcDbVertex
100
AcDb2dVertex
 10
5.472317165798611
 20
-3.753011067708333
 30
0.0
  0
VERTEX
  5
D6
330
D0
100
AcDbEntity
  8
Layer 1
370
     0
100
AcDbVertex
100
AcDb2dVertex
 10
5.257921006944444
 20
-3.538777669270833
 30
0.0
  0
SEQEND
  5
D7
330
D0
100
AcDbEntity
  8
Layer 1
370
     0
  0
POLYLINE
  5
D8
330
1F
100
AcDbEntity
  8
Layer 1
370
     0
100
AcDb2dPolyline
 66
     1
 10
0.0
 20
0.0
 30
0.0
  0
VERTEX
  5
D9
330
D8
100
AcDbEntity
  8
Layer 1
370
     0
100
AcDbVertex
100
AcDb2dVertex
 10
5.472317165798611
 20
-3.900919596354167
 30
0.0
  0
VERTEX
  5
DA
330
D8
100
AcDbEntity
  8
Layer 1
370
     0
100
AcDbVertex
100
AcDb2dVertex
 10
5.686197916666666
 20
-4.114718967013888
 30
0.0
  0
VERTEX
  5
DB
330
D8
100
AcDbEntity
  8
Layer 1
370
     0
100
AcDbVertex
100
AcDb2dVertex
 10
5.558159722222222
 20
-4.2427978515625
 30
0.0
  0
VERTEX
  5
DC
330
D8
100
AcDbEntity
  8
Layer 1
370
     0
100
AcDbVertex
100
AcDb2dVertex
 10
5.385552300347222
 20
-4.2427978515625
 30
0.0
  0
VERTEX
  5
DD
330
D8
100
AcDbEntity
  8
Layer 1
370
     0
100
AcDbVertex
100
AcDb2dVertex
 10
5.257921006944444
 20
-4.115186903211805
 30
0.0
  0
VERTEX
  5
DE
330
D8
100
AcDbEntity
  8
Layer 1
370
     0
100
AcDbVertex
100
AcDb2dVertex
 10
5.472317165798611
 20
-3.900919596354167
 30
0.0
  0
SEQEND
  5
DF
330
D8
100
AcDbEntity
  8
Layer 1
370
     0
  0
POLYLINE
  5
E0
330
1F
100
AcDbEntity
  8
Layer 1
370
     0
100
AcDb2dPolyline
 66
     1
 10
0.0
 20
0.0
 30
0.0
  0
VERTEX
  5
E1
330
E0
100
AcDbEntity
  8
Layer 1
370
     0
100
AcDbVertex
100
AcDb2dVertex
 10
5.546305338541666
 20
-3.826972113715278
 30
0.0
  0
VERTEX
  5
E2
330
E0
100
AcDbEntity
  8
Layer 1
370
     0
100
AcDbVertex
100
AcDb2dVertex
 10
5.760186089409722
 20
-3.613152398003472
 30
0.0
  0
VERTEX
  5
E3
330
E0
100
AcDbEntity
  8
Layer 1
370
     0
100
AcDbVertex
100
AcDb2dVertex
 10
5.854627821180555
 20
-3.707472059461805
 30
0.0
  0
VERTEX
  5
E4
330
E0
100
AcDbEntity
  8
Layer 1
370
     0
100
AcDbVertex
100
AcDb2dVertex
 10
6.135118272569444
 20
-3.707472059461805
 30
0.0
  0
VERTEX
  5
E5
330
E0
100
AcDbEntity
  8
Layer 1
370
     0
100
AcDbVertex
100
AcDb2dVertex
 10
6.2294921875
 20
-3.613152398003472
 30
0.0
  0
VERTEX
  5
E6
330
E0
100
AcDbEntity
  8
Layer 1
370
     0
100
AcDbVertex
100
AcDb2dVertex
 10
6.443467881944444
 20
-3.826972113715278
 30
0.0
  0
VERTEX
  5
E7
330
E0
100
AcDbEntity
  8
Layer 1
370
     0
100
AcDbVertex
100
AcDb2dVertex
 10
6.2294921875
 20
-4.040730794270833
 30
0.0
  0
VERTEX
  5
E8
330
E0
100
AcDbEntity
  8
Layer 1
370
     0
100
AcDbVertex
100
AcDb2dVertex
 10
6.135118272569444
 20
-3.9464111328125
 30
0.0
  0
VERTEX
  5
E9
330
E0
100
AcDbEntity
  8
Layer 1
370
     0
100
AcDbVertex
100
AcDb2dVertex
 10
5.854627821180555
 20
-3.9464111328125
 30
0.0
  0
VERTEX
  5
EA
330
E0
100
AcDbEntity
  8
Layer 1
370
     0
100
AcDbVertex
100
AcDb2dVertex
 10
5.760186089409722
 20
-4.040730794270833
 30
0.0
  0
VERTEX
  5
EB
330
E0
100
AcDbEntity
  8
Layer 1
370
     0
100
AcDbVertex
100
AcDb2dVertex
 10
5.546305338541666
 20
-3.826972113715278
 30
0.0
  0
SEQEND
  5
EC
330
E0
100
AcDbEntity
  8
Layer 1
370
     0
  0
POLYLINE
  5
ED
330
1F
100
AcDbEntity
  8
Layer 1
370
     0
100
AcDb2dPolyline
 66
     1
 10
0.0
 20
0.0
 30
0.0
  0
VERTEX
  5
EE
330
ED
100
AcDbEntity
  8
Layer 1
370
     0
100
AcDbVertex
100
AcDb2dVertex
 10
6.303548177083333
 20
-3.539204915364583
 30
0.0
  0
VERTEX
  5
EF
330
ED
100
AcDbEntity
  8
Layer 1
370
     0
100
AcDbVertex
100
AcDb2dVertex
 10
6.431572808159721
 20
-3.411146375868055
 30
0.0
  0
VERTEX
  5
F0
330
ED
100
AcDbEntity
  8
Layer 1
370
     0
100
AcDbVertex
100
AcDb2dVertex
 10
6.604166666666666
 20
-3.411146375868055
 30
0.0
  0
VERTEX
  5
F1
330
ED
100
AcDbEntity
  8
Layer 1
370
     0
100
AcDbVertex
100
AcDb2dVertex
 10
6.731825086805555
 20
-3.538777669270833
 30
0.0
  0
VERTEX
  5
F2
330
ED
100
AcDbEntity
  8
Layer 1
370
     0
100
AcDbVertex
100
AcDb2dVertex
 10
6.517428927951388
 20
-3.753011067708333
 30
0.0
  0
VERTEX
  5
F3
330
ED
100
AcDbEntity
  8
Layer 1
370
     0
100
AcDbVertex
100
AcDb2dVertex
 10
6.303548177083333
 20
-3.539204915364583
 30
0.0
  0
SEQEND
  5
F4
330
ED
100
AcDbEntity
  8
Layer 1
370
     0
  0
POLYLINE
  5
F5
330
1F
100
AcDbEntity
  8
Layer 1
370
     0
100
AcDb2dPolyline
 66
     1
 10
0.0
 20
0.0
 30
0.0
  0
VERTEX
  5
F6
330
F5
100
AcDbEntity
  8
Layer 1
370
     0
100
AcDbVertex
100
AcDb2dVertex
 10
6.517428927951388
 20
-3.900919596354167
 30
0.0
  0
VERTEX
  5
F7
330
F5
100
AcDbEntity
  8
Layer 1
370
     0
100
AcDbVertex
100
AcDb2dVertex
 10
6.731825086805555
 20
-4.115186903211805
 30
0.0
  0
VERTEX
  5
F8
330
F5
100
AcDbEntity
  8
Layer 1
370
     0
100
AcDbVertex
100
AcDb2dVertex
 10
6.604166666666666
 20
-4.2427978515625
 30
0.0
  0
VERTEX
  5
F9
330
F5
100
AcDbEntity
  8
Layer 1
370
     0
100
AcDbVertex
100
AcDb2dVertex
 10
6.431572808159721
 20
-4.2427978515625
 30
0.0
  0
VERTEX
  5
FA
330
F5
100
AcDbEntity
  8
Layer 1
370
     0
100
AcDbVertex
100
AcDb2dVertex
 10
6.303548177083333
 20
-4.114718967013888
 30
0.0
  0
VERTEX
  5
FB
330
F5
100
AcDbEntity
  8
Layer 1
370
     0
100
AcDbVertex
100
AcDb2dVertex
 10
6.517428927951388
 20
-3.900919596354167
 30
0.0
  0
SEQEND
  5
FC
330
F5
100
AcDbEntity
  8
Layer 1
370
     0
  0
POLYLINE
  5
FD
330
1F
100
AcDbEntity
  8
Layer 1
370
     0
100
AcDb2dPolyline
 66
     1
 10
0.0
 20
0.0
 30
0.0
  0
VERTEX
  5
FE
330
FD
100
AcDbEntity
  8
Layer 1
370
     0
100
AcDbVertex
100
AcDb2dVertex
 10
6.591417100694444
 20
-3.826972113715278
 30
0.0
  0
VERTEX
  5
FF
330
FD
100
AcDbEntity
  8
Layer 1
370
     0
100
AcDbVertex
100
AcDb2dVertex
 10
6.805813259548611
 20
-3.612806532118055
 30
0.0
  0
VERTEX
  5
100
330
FD
100
AcDbEntity
  8
Layer 1
370
     0
100
AcDbVertex
100
AcDb2dVertex
 10
6.900594075520833
 20
-3.707472059461805
 30
0.0
  0
VERTEX
  5
101
330
FD
100
AcDbEntity
  8
Layer 1
370
     0
100
AcDbVertex
100
AcDb2dVertex
 10
7.169420030381944
 20
-3.707472059461805
 30
0.0
  0
VERTEX
  5
102
330
FD
100
AcDbEntity
  8
Layer 1
370
     0
100
AcDbVertex
100
AcDb2dVertex
 10
7.288872612847221
 20
-3.826972113715278
 30
0.0
  0
VERTEX
  5
103
330
FD
100
AcDbEntity
  8
Layer 1
370
     0
100
AcDbVertex
100
AcDb2dVertex
 10
7.169420030381944
 20
-3.9464111328125
 30
0.0
  0
VERTEX
  5
104
330
FD
100
AcDbEntity
  8
Layer 1
370
     0
100
AcDbVertex
100
AcDb2dVertex
 10
6.900594075520833
 20
-3.9464111328125
 30
0.0
  0
VERTEX
  5
105
330
FD
100
AcDbEntity
  8
Layer 1
370
     0
100
AcDbVertex
100
AcDb2dVertex
 10
6.805813259548611
 20
-4.041239420572916
 30
0.0
  0
VERTEX
  5
106
330
FD
100
AcDbEntity
  8
Layer 1
370
     0
100
AcDbVertex
100
AcDb2dVertex
 10
6.591417100694444
 20
-3.826972113715278
 30
0.0
  0
SEQEND
  5
107
330
FD
100
AcDbEntity
  8
Layer 1
370
     0
  0
POLYLINE
  5
108
330
1F
100
AcDbEntity
  8
Layer 1
370
     0
100
AcDb2dPolyline
 66
     1
 10
0.0
 20
0.0
 30
0.0
  0
VERTEX
  5
109
330
108
100
AcDbEntity
  8
Layer 1
370
     0
100
AcDbVertex
100
AcDb2dVertex
 10
6.273857964409721
 20
-3.099921332465278
 30
0.0
  0
VERTEX
  5
10A
330
108
100
AcDbEntity
  8
Layer 1
370
     0
100
AcDbVertex
100
AcDb2dVertex
 10
6.9248046875
 20
-3.099921332465278
 30
0.0
  0
VERTEX
  5
10B
330
108
100
AcDbEntity
  8
Layer 1
370
     0
100
AcDbVertex
100
AcDb2dVertex
 10
7.047797309027778
 20
-3.223002115885417
 30
0.0
  0
VERTEX
  5
10C
330
108
100
AcDbEntity
  8
Layer 1
370
     0
100
AcDbVertex
100
AcDb2dVertex
 10
6.805826822916666
 20
-3.464857313368055
 30
0.0
  0
VERTEX
  5
10D
330
108
100
AcDbEntity
  8
Layer 1
370
     0
100
AcDbVertex
100
AcDb2dVertex
 10
6.647528754340278
 20
-3.306532118055555
 30
0.0
  0
VERTEX
  5
10E
330
108
100
AcDbEntity
  8
Layer 1
370
     0
100
AcDbVertex
100
AcDb2dVertex
 10
6.388237847222221
 20
-3.306532118055555
 30
0.0
  0
VERTEX
  5
10F
330
108
100
AcDbEntity
  8
Layer 1
370
     0
100
AcDbVertex
100
AcDb2dVertex
 10
6.2294921875
 20
-3.465311686197917
 30
0.0
  0
VERTEX
  5
110
330
108
100
AcDbEntity
  8
Layer 1
370
     0
100
AcDbVertex
100
AcDb2dVertex
 10
6.068901909722222
 20
-3.304728190104167
 30
0.0
  0
VERTEX
  5
111
330
108
100
AcDbEntity
  8
Layer 1
370
     0
100
AcDbVertex
100
AcDb2dVertex
 10
6.273857964409721
 20
-3.099921332465278
 30
0.0
  0
SEQEND
  5
112
330
108
100
AcDbEntity
  8
Layer 1
370
     0
  0
POLYLINE
  5
113
330
1F
100
AcDbEntity
  8
Layer 1
370
     0
100
AcDb2dPolyline
 66
     1
 10
0.0
 20
0.0
 30
0.0
  0
VERTEX
  5
114
330
113
100
AcDbEntity
  8
Layer 1
370
     0
100
AcDbVertex
100
AcDb2dVertex
 10
6.155531141493055
 20
-3.53924560546875
 30
0.0
  0
VERTEX
  5
115
330
113
100
AcDbEntity
  8
Layer 1
370
     0
100
AcDbVertex
100
AcDb2dVertex
 10
6.091864691840278
 20
-3.602973090277778
 30
0.0
  0
VERTEX
  5
116
330
113
100
AcDbEntity
  8
Layer 1
370
     0
100
AcDbVertex
100
AcDb2dVertex
 10
5.897962782118055
 20
-3.602973090277778
 30
0.0
  0
VERTEX
  5
117
330
113
100
AcDbEntity
  8
Layer 1
370
     0
100
AcDbVertex
100
AcDb2dVertex
 10
5.834228515625
 20
-3.53924560546875
 30
0.0
  0
VERTEX
  5
118
330
113
100
AcDbEntity
  8
Layer 1
370
     0
100
AcDbVertex
100
AcDb2dVertex
 10
5.994805230034722
 20
-3.378634982638889
 30
0.0
  0
VERTEX
  5
119
330
113
100
AcDbEntity
  8
Layer 1
370
     0
100
AcDbVertex
100
AcDb2dVertex
 10
6.155531141493055
 20
-3.53924560546875
 30
0.0
  0
SEQEND
  5
11A
330
113
100
AcDbEntity
  8
Layer 1
370
     0
  0
POLYLINE
  5
11B
330
1F
100
AcDbEntity
  8
Layer 1
370
     0
100
AcDb2dPolyline
 66
     1
 10
0.0
 20
0.0
 30
0.0
  0
VERTEX
  5
11C
330
11B
100
AcDbEntity
  8
Layer 1
370
     0
100
AcDbVertex
100
AcDb2dVertex
 10
5.065022786458333
 20
-3.099921332465278
 30
0.0
  0
VERTEX
  5
11D
330
11B
100
AcDbEntity
  8
Layer 1
370
     0
100
AcDbVertex
100
AcDb2dVertex
 10
5.7159423828125
 20
-3.099921332465278
 30
0.0
  0
VERTEX
  5
11E
330
11B
100
AcDbEntity
  8
Layer 1
370
     0
100
AcDbVertex
100
AcDb2dVertex
 10
5.920871310763888
 20
-3.304728190104167
 30
0.0
  0
VERTEX
  5
11F
330
11B
100
AcDbEntity
  8
Layer 1
370
     0
100
AcDbVertex
100
AcDb2dVertex
 10
5.76025390625
 20
-3.465311686197917
 30
0.0
  0
VERTEX
  5
120
330
11B
100
AcDbEntity
  8
Layer 1
370
     0
100
AcDbVertex
100
AcDb2dVertex
 10
5.601467556423611
 20
-3.306532118055555
 30
0.0
  0
VERTEX
  5
121
330
11B
100
AcDbEntity
  8
Layer 1
370
     0
100
AcDbVertex
100
AcDb2dVertex
 10
5.342190212673611
 20
-3.306532118055555
 30
0.0
  0
VERTEX
  5
122
330
11B
100
AcDbEntity
  8
Layer 1
370
     0
100
AcDbVertex
100
AcDb2dVertex
 10
5.183919270833333
 20
-3.464857313368055
 30
0.0
  0
VERTEX
  5
123
330
11B
100
AcDbEntity
  8
Layer 1
370
     0
100
AcDbVertex
100
AcDb2dVertex
 10
4.941921657986111
 20
-3.223002115885417
 30
0.0
  0
VERTEX
  5
124
330
11B
100
AcDbEntity
  8
Layer 1
370
     0
100
AcDbVertex
100
AcDb2dVertex
 10
5.065022786458333
 20
-3.099921332465278
 30
0.0
  0
SEQEND
  5
125
330
11B
100
AcDbEntity
  8
Layer 1
370
     0
  0
POLYLINE
  5
126
330
1F
100
AcDbEntity
  8
Layer 1
370
     0
100
AcDb2dPolyline
 66
     1
 10
0.0
 20
0.0
 30
0.0
  0
VERTEX
  5
127
330
126
100
AcDbEntity
  8
Layer 1
370
     0
100
AcDbVertex
100
AcDb2dVertex
 10
4.582899305555555
 20
-3.099921332465278
 30
0.0
  0
VERTEX
  5
128
330
126
100
AcDbEntity
  8
Layer 1
370
     0
100
AcDbVertex
100
AcDb2dVertex
 10
4.6707763671875
 20
-3.099921332465278
 30
0.0
  0
VERTEX
  5
129
330
126
100
AcDbEntity
  8
Layer 1
370
     0
100
AcDbVertex
100
AcDb2dVertex
 10
4.7939453125
 20
-3.223002115885417
 30
0.0
  0
VERTEX
  5
12A
330
126
100
AcDbEntity
  8
Layer 1
370
     0
100
AcDbVertex
100
AcDb2dVertex
 10
4.6707763671875
 20
-3.346204969618055
 30
0.0
  0
VERTEX
  5
12B
330
126
100
AcDbEntity
  8
Layer 1
370
     0
100
AcDbVertex
100
AcDb2dVertex
 10
4.582899305555555
 20
-3.346204969618055
 30
0.0
  0
VERTEX
  5
12C
330
126
100
AcDbEntity
  8
Layer 1
370
     0
100
AcDbVertex
100
AcDb2dVertex
 10
4.459662543402778
 20
-3.223002115885417
 30
0.0
  0
VERTEX
  5
12D
330
126
100
AcDbEntity
  8
Layer 1
370
     0
100
AcDbVertex
100
AcDb2dVertex
 10
4.582899305555555
 20
-3.099921332465278
 30
0.0
  0
SEQEND
  5
12E
330
126
100
AcDbEntity
  8
Layer 1
370
     0
  0
POLYLINE
  5
12F
330
1F
100
AcDbEntity
  8
Layer 1
370
     0
100
AcDb2dPolyline
 66
     1
 10
0.0
 20
0.0
 30
0.0
  0
VERTEX
  5
130
330
12F
100
AcDbEntity
  8
Layer 1
370
     0
100
AcDbVertex
100
AcDb2dVertex
 10
4.539577907986111
 20
-3.450792100694444
 30
0.0
  0
VERTEX
  5
131
330
12F
100
AcDbEntity
  8
Layer 1
370
     0
100
AcDbVertex
100
AcDb2dVertex
 10
4.714097764756944
 20
-3.450792100694444
 30
0.0
  0
VERTEX
  5
132
330
12F
100
AcDbEntity
  8
Layer 1
370
     0
100
AcDbVertex
100
AcDb2dVertex
 10
4.867919921875
 20
-3.296963161892361
 30
0.0
  0
VERTEX
  5
133
330
12F
100
AcDbEntity
  8
Layer 1
370
     0
100
AcDbVertex
100
AcDb2dVertex
 10
5.109931098090278
 20
-3.538777669270833
 30
0.0
  0
VERTEX
  5
134
330
12F
100
AcDbEntity
  8
Layer 1
370
     0
100
AcDbVertex
100
AcDb2dVertex
 10
5.045762803819444
 20
-3.602973090277778
 30
0.0
  0
VERTEX
  5
135
330
12F
100
AcDbEntity
  8
Layer 1
370
     0
100
AcDbVertex
100
AcDb2dVertex
 10
4.77685546875
 20
-3.602973090277778
 30
0.0
  0
VERTEX
  5
136
330
12F
100
AcDbEntity
  8
Layer 1
370
     0
100
AcDbVertex
100
AcDb2dVertex
 10
4.626817491319444
 20
-3.7529296875
 30
0.0
  0
VERTEX
  5
137
330
12F
100
AcDbEntity
  8
Layer 1
370
     0
100
AcDbVertex
100
AcDb2dVertex
 10
4.476765950520833
 20
-3.602973090277778
 30
0.0
  0
VERTEX
  5
138
330
12F
100
AcDbEntity
  8
Layer 1
370
     0
100
AcDbVertex
100
AcDb2dVertex
 10
4.207845052083333
 20
-3.602973090277778
 30
0.0
  0
VERTEX
  5
139
330
12F
100
AcDbEntity
  8
Layer 1
370
     0
100
AcDbVertex
100
AcDb2dVertex
 10
4.143636067708333
 20
-3.538804796006944
 30
0.0
  0
VERTEX
  5
13A
330
12F
100
AcDbEntity
  8
Layer 1
370
     0
100
AcDbVertex
100
AcDb2dVertex
 10
4.385701497395833
 20
-3.296963161892361
 30
0.0
  0
VERTEX
  5
13B
330
12F
100
AcDbEntity
  8
Layer 1
370
     0
100
AcDbVertex
100
AcDb2dVertex
 10
4.539577907986111
 20
-3.450792100694444
 30
0.0
  0
SEQEND
  5
13C
330
12F
100
AcDbEntity
  8
Layer 1
370
     0
  0
POLYLINE
  5
13D
330
1F
100
AcDbEntity
  8
Layer 1
370
     0
100
AcDb2dPolyline
 66
     1
 10
0.0
 20
0.0
 30
0.0
  0
VERTEX
  5
13E
330
13D
100
AcDbEntity
  8
Layer 1
370
     0
100
AcDbVertex
100
AcDb2dVertex
 10
2.662156846788194
 20
-3.826972113715278
 30
0.0
  0
VERTEX
  5
13F
330
13D
100
AcDbEntity
  8
Layer 1
370
     0
100
AcDbVertex
100
AcDb2dVertex
 10
2.447767469618055
 20
-4.041239420572916
 30
0.0
  0
VERTEX
  5
140
330
13D
100
AcDbEntity
  8
Layer 1
370
     0
100
AcDbVertex
100
AcDb2dVertex
 10
2.35302734375
 20
-3.9464111328125
 30
0.0
  0
VERTEX
  5
141
330
13D
100
AcDbEntity
  8
Layer 1
370
     0
100
AcDbVertex
100
AcDb2dVertex
 10
2.084201388888889
 20
-3.9464111328125
 30
0.0
  0
VERTEX
  5
142
330
13D
100
AcDbEntity
  8
Layer 1
370
     0
100
AcDbVertex
100
AcDb2dVertex
 10
1.964748806423611
 20
-3.826972113715278
 30
0.0
  0
VERTEX
  5
143
330
13D
100
AcDbEntity
  8
Layer 1
370
     0
100
AcDbVertex
100
AcDb2dVertex
 10
2.084201388888889
 20
-3.707472059461805
 30
0.0
  0
VERTEX
  5
144
330
13D
100
AcDbEntity
  8
Layer 1
370
     0
100
AcDbVertex
100
AcDb2dVertex
 10
2.35302734375
 20
-3.707472059461805
 30
0.0
  0
VERTEX
  5
145
330
13D
100
AcDbEntity
  8
Layer 1
370
     0
100
AcDbVertex
100
AcDb2dVertex
 10
2.447767469618055
 20
-3.612765842013889
 30
0.0
  0
VERTEX
  5
146
330
13D
100
AcDbEntity
  8
Layer 1
370
     0
100
AcDbVertex
100
AcDb2dVertex
 10
2.662156846788194
 20
-3.826972113715278
 30
0.0
  0
SEQEND
  5
147
330
13D
100
AcDbEntity
  8
Layer 1
370
     0
  0
POLYLINE
  5
148
330
1F
100
AcDbEntity
  8
Layer 1
370
     0
100
AcDb2dPolyline
 66
     1
 10
0.0
 20
0.0
 30
0.0
  0
VERTEX
  5
149
330
148
100
AcDbEntity
  8
Layer 1
370
     0
100
AcDbVertex
100
AcDb2dVertex
 10
2.521769205729167
 20
-3.538777669270833
 30
0.0
  0
VERTEX
  5
14A
330
148
100
AcDbEntity
  8
Layer 1
370
     0
100
AcDbVertex
100
AcDb2dVertex
 10
2.649386935763889
 20
-3.411146375868055
 30
0.0
  0
VERTEX
  5
14B
330
148
100
AcDbEntity
  8
Layer 1
370
     0
100
AcDbVertex
100
AcDb2dVertex
 10
2.822035047743055
 20
-3.411146375868055
 30
0.0
  0
VERTEX
  5
14C
330
148
100
AcDbEntity
  8
Layer 1
370
     0
100
AcDbVertex
100
AcDb2dVertex
 10
2.950046115451389
 20
-3.539204915364583
 30
0.0
  0
VERTEX
  5
14D
330
148
100
AcDbEntity
  8
Layer 1
370
     0
100
AcDbVertex
100
AcDb2dVertex
 10
2.736151801215278
 20
-3.753011067708333
 30
0.0
  0
VERTEX
  5
14E
330
148
100
AcDbEntity
  8
Layer 1
370
     0
100
AcDbVertex
100
AcDb2dVertex
 10
2.521769205729167
 20
-3.538777669270833
 30
0.0
  0
SEQEND
  5
14F
330
148
100
AcDbEntity
  8
Layer 1
370
     0
  0
POLYLINE
  5
150
330
1F
100
AcDbEntity
  8
Layer 1
370
     0
100
AcDb2dPolyline
 66
     1
 10
0.0
 20
0.0
 30
0.0
  0
VERTEX
  5
151
330
150
100
AcDbEntity
  8
Layer 1
370
     0
100
AcDbVertex
100
AcDb2dVertex
 10
2.736151801215278
 20
-3.900919596354167
 30
0.0
  0
VERTEX
  5
152
330
150
100
AcDbEntity
  8
Layer 1
370
     0
100
AcDbVertex
100
AcDb2dVertex
 10
2.950046115451389
 20
-4.114718967013888
 30
0.0
  0
VERTEX
  5
153
330
150
100
AcDbEntity
  8
Layer 1
370
     0
100
AcDbVertex
100
AcDb2dVertex
 10
2.822035047743055
 20
-4.2427978515625
 30
0.0
  0
VERTEX
  5
154
330
150
100
AcDbEntity
  8
Layer 1
370
     0
100
AcDbVertex
100
AcDb2dVertex
 10
2.649386935763889
 20
-4.2427978515625
 30
0.0
  0
VERTEX
  5
155
330
150
100
AcDbEntity
  8
Layer 1
370
     0
100
AcDbVertex
100
AcDb2dVertex
 10
2.521769205729167
 20
-4.115186903211805
 30
0.0
  0
VERTEX
  5
156
330
150
100
AcDbEntity
  8
Layer 1
370
     0
100
AcDbVertex
100
AcDb2dVertex
 10
2.736151801215278
 20
-3.900919596354167
 30
0.0
  0
SEQEND
  5
157
330
150
100
AcDbEntity
  8
Layer 1
370
     0
  0
POLYLINE
  5
158
330
1F
100
AcDbEntity
  8
Layer 1
370
     0
100
AcDb2dPolyline
 66
     1
 10
0.0
 20
0.0
 30
0.0
  0
VERTEX
  5
159
330
158
100
AcDbEntity
  8
Layer 1
370
     0
100
AcDbVertex
100
AcDb2dVertex
 10
2.810139973958333
 20
-3.826972113715278
 30
0.0
  0
VERTEX
  5
15A
330
158
100
AcDbEntity
  8
Layer 1
370
     0
100
AcDbVertex
100
AcDb2dVertex
 10
3.024122450086805
 20
-3.613152398003472
 30
0.0
  0
VERTEX
  5
15B
330
158
100
AcDbEntity
  8
Layer 1
370
     0
100
AcDbVertex
100
AcDb2dVertex
 10
3.118421766493055
 20
-3.707472059461805
 30
0.0
  0
VERTEX
  5
15C
330
158
100
AcDbEntity
  8
Layer 1
370
     0
100
AcDbVertex
100
AcDb2dVertex
 10
3.399013943142361
 20
-3.707472059461805
 30
0.0
  0
VERTEX
  5
15D
330
158
100
AcDbEntity
  8
Layer 1
370
     0
100
AcDbVertex
100
AcDb2dVertex
 10
3.493374294704861
 20
-3.613152398003472
 30
0.0
  0
VERTEX
  5
15E
330
158
100
AcDbEntity
  8
Layer 1
370
     0
100
AcDbVertex
100
AcDb2dVertex
 10
3.707316080729167
 20
-3.826972113715278
 30
0.0
  0
VERTEX
  5
15F
330
158
100
AcDbEntity
  8
Layer 1
370
     0
100
AcDbVertex
100
AcDb2dVertex
 10
3.493374294704861
 20
-4.040730794270833
 30
0.0
  0
VERTEX
  5
160
330
158
100
AcDbEntity
  8
Layer 1
370
     0
100
AcDbVertex
100
AcDb2dVertex
 10
3.399013943142361
 20
-3.9464111328125
 30
0.0
  0
VERTEX
  5
161
330
158
100
AcDbEntity
  8
Layer 1
370
     0
100
AcDbVertex
100
AcDb2dVertex
 10
3.118421766493055
 20
-3.9464111328125
 30
0.0
  0
VERTEX
  5
162
330
158
100
AcDbEntity
  8
Layer 1
370
     0
100
AcDbVertex
100
AcDb2dVertex
 10
3.024122450086805
 20
-4.040730794270833
 30
0.0
  0
VERTEX
  5
163
330
158
100
AcDbEntity
  8
Layer 1
370
     0
100
AcDbVertex
100
AcDb2dVertex
 10
2.810139973958333
 20
-3.826972113715278
 30
0.0
  0
SEQEND
  5
164
330
158
100
AcDbEntity
  8
Layer 1
370
     0
  0
POLYLINE
  5
165
330
1F
100
AcDbEntity
  8
Layer 1
370
     0
100
AcDb2dPolyline
 66
     1
 10
0.0
 20
0.0
 30
0.0
  0
VERTEX
  5
166
330
165
100
AcDbEntity
  8
Layer 1
370
     0
100
AcDbVertex
100
AcDb2dVertex
 10
3.567355685763889
 20
-3.539204915364583
 30
0.0
  0
VERTEX
  5
167
330
165
100
AcDbEntity
  8
Layer 1
370
     0
100
AcDbVertex
100
AcDb2dVertex
 10
3.695441351996528
 20
-3.411146375868055
 30
0.0
  0
VERTEX
  5
168
330
165
100
AcDbEntity
  8
Layer 1
370
     0
100
AcDbVertex
100
AcDb2dVertex
 10
3.868062337239583
 20
-3.411146375868055
 30
0.0
  0
VERTEX
  5
169
330
165
100
AcDbEntity
  8
Layer 1
370
     0
100
AcDbVertex
100
AcDb2dVertex
 10
3.995707194010417
 20
-3.538777669270833
 30
0.0
  0
VERTEX
  5
16A
330
165
100
AcDbEntity
  8
Layer 1
370
     0
100
AcDbVertex
100
AcDb2dVertex
 10
3.781290690104167
 20
-3.753011067708333
 30
0.0
  0
VERTEX
  5
16B
330
165
100
AcDbEntity
  8
Layer 1
370
     0
100
AcDbVertex
100
AcDb2dVertex
 10
3.567355685763889
 20
-3.539204915364583
 30
0.0
  0
SEQEND
  5
16C
330
165
100
AcDbEntity
  8
Layer 1
370
     0
  0
POLYLINE
  5
16D
330
1F
100
AcDbEntity
  8
Layer 1
370
     0
100
AcDb2dPolyline
 66
     1
 10
0.0
 20
0.0
 30
0.0
  0
VERTEX
  5
16E
330
16D
100
AcDbEntity
  8
Layer 1
370
     0
100
AcDbVertex
100
AcDb2dVertex
 10
3.781290690104167
 20
-3.900919596354167
 30
0.0
  0
VERTEX
  5
16F
330
16D
100
AcDbEntity
  8
Layer 1
370
     0
100
AcDbVertex
100
AcDb2dVertex
 10
3.995707194010417
 20
-4.115186903211805
 30
0.0
  0
VERTEX
  5
170
330
16D
100
AcDbEntity
  8
Layer 1
370
     0
100
AcDbVertex
100
AcDb2dVertex
 10
3.868062337239583
 20
-4.2427978515625
 30
0.0
  0
VERTEX
  5
171
330
16D
100
AcDbEntity
  8
Layer 1
370
     0
100
AcDbVertex
100
AcDb2dVertex
 10
3.695441351996528
 20
-4.2427978515625
 30
0.0
  0
VERTEX
  5
172
330
16D
100
AcDbEntity
  8
Layer 1
370
     0
100
AcDbVertex
100
AcDb2dVertex
 10
3.567355685763889
 20
-4.114718967013888
 30
0.0
  0
VERTEX
  5
173
330
16D
100
AcDbEntity
  8
Layer 1
370
     0
100
AcDbVertex
100
AcDb2dVertex
 10
3.781290690104167
 20
-3.900919596354167
 30
0.0
  0
SEQEND
  5
174
330
16D
100
AcDbEntity
  8
Layer 1
370
     0
  0
POLYLINE
  5
175
330
1F
100
AcDbEntity
  8
Layer 1
370
     0
100
AcDb2dPolyline
 66
     1
 10
0.0
 20
0.0
 30
0.0
  0
VERTEX
  5
176
330
175
100
AcDbEntity
  8
Layer 1
370
     0
100
AcDbVertex
100
AcDb2dVertex
 10
3.855278862847222
 20
-3.826972113715278
 30
0.0
  0
VERTEX
  5
177
330
175
100
AcDbEntity
  8
Layer 1
370
     0
100
AcDbVertex
100
AcDb2dVertex
 10
4.069681803385416
 20
-3.612806532118055
 30
0.0
  0
VERTEX
  5
178
330
175
100
AcDbEntity
  8
Layer 1
370
     0
100
AcDbVertex
100
AcDb2dVertex
 10
4.164496527777778
 20
-3.707472059461805
 30
0.0
  0
VERTEX
  5
179
330
175
100
AcDbEntity
  8
Layer 1
370
     0
100
AcDbVertex
100
AcDb2dVertex
 10
4.433322482638888
 20
-3.707472059461805
 30
0.0
  0
VERTEX
  5
17A
330
175
100
AcDbEntity
  8
Layer 1
370
     0
100
AcDbVertex
100
AcDb2dVertex
 10
4.552747938368055
 20
-3.826972113715278
 30
0.0
  0
VERTEX
  5
17B
330
175
100
AcDbEntity
  8
Layer 1
370
     0
100
AcDbVertex
100
AcDb2dVertex
 10
4.433322482638888
 20
-3.9464111328125
 30
0.0
  0
VERTEX
  5
17C
330
175
100
AcDbEntity
  8
Layer 1
370
     0
100
AcDbVertex
100
AcDb2dVertex
 10
4.164496527777778
 20
-3.9464111328125
 30
0.0
  0
VERTEX
  5
17D
330
175
100
AcDbEntity
  8
Layer 1
370
     0
100
AcDbVertex
100
AcDb2dVertex
 10
4.069681803385416
 20
-4.041239420572916
 30
0.0
  0
VERTEX
  5
17E
330
175
100
AcDbEntity
  8
Layer 1
370
     0
100
AcDbVertex
100
AcDb2dVertex
 10
3.855278862847222
 20
-3.826972113715278
 30
0.0
  0
SEQEND
  5
17F
330
175
100
AcDbEntity
  8
Layer 1
370
     0
  0
POLYLINE
  5
180
330
1F
100
AcDbEntity
  8
Layer 1
370
     0
100
AcDb2dPolyline
 66
     1
 10
0.0
 20
0.0
 30
0.0
  0
VERTEX
  5
181
330
180
100
AcDbEntity
  8
Layer 1
370
     0
100
AcDbVertex
100
AcDb2dVertex
 10
3.537651909722222
 20
-3.099921332465278
 30
0.0
  0
VERTEX
  5
182
330
180
100
AcDbEntity
  8
Layer 1
370
     0
100
AcDbVertex
100
AcDb2dVertex
 10
4.188652886284722
 20
-3.099921332465278
 30
0.0
  0
VERTEX
  5
183
330
180
100
AcDbEntity
  8
Layer 1
370
     0
100
AcDbVertex
100
AcDb2dVertex
 10
4.311713324652778
 20
-3.223002115885417
 30
0.0
  0
VERTEX
  5
184
330
180
100
AcDbEntity
  8
Layer 1
370
     0
100
AcDbVertex
100
AcDb2dVertex
 10
4.069681803385416
 20
-3.464857313368055
 30
0.0
  0
VERTEX
  5
185
330
180
100
AcDbEntity
  8
Layer 1
370
     0
100
AcDbVertex
100
AcDb2dVertex
 10
3.911410861545139
 20
-3.306532118055555
 30
0.0
  0
VERTEX
  5
186
330
180
100
AcDbEntity
  8
Layer 1
370
     0
100
AcDbVertex
100
AcDb2dVertex
 10
3.652092827690972
 20
-3.306532118055555
 30
0.0
  0
VERTEX
  5
187
330
180
100
AcDbEntity
  8
Layer 1
370
     0
100
AcDbVertex
100
AcDb2dVertex
 10
3.493374294704861
 20
-3.465311686197917
 30
0.0
  0
VERTEX
  5
188
330
180
100
AcDbEntity
  8
Layer 1
370
     0
100
AcDbVertex
100
AcDb2dVertex
 10
3.332729763454861
 20
-3.304728190104167
 30
0.0
  0
VERTEX
  5
189
330
180
100
AcDbEntity
  8
Layer 1
370
     0
100
AcDbVertex
100
AcDb2dVertex
 10
3.537651909722222
 20
-3.099921332465278
 30
0.0
  0
SEQEND
  5
18A
330
180
100
AcDbEntity
  8
Layer 1
370
     0
  0
POLYLINE
  5
18B
330
1F
100
AcDbEntity
  8
Layer 1
370
     0
100
AcDb2dPolyline
 66
     1
 10
0.0
 20
0.0
 30
0.0
  0
VERTEX
  5
18C
330
18B
100
AcDbEntity
  8
Layer 1
370
     0
100
AcDbVertex
100
AcDb2dVertex
 10
3.419379340277778
 20
-3.53924560546875
 30
0.0
  0
VERTEX
  5
18D
330
18B
100
AcDbEntity
  8
Layer 1
370
     0
100
AcDbVertex
100
AcDb2dVertex
 10
3.355699327256944
 20
-3.602973090277778
 30
0.0
  0
VERTEX
  5
18E
330
18B
100
AcDbEntity
  8
Layer 1
370
     0
100
AcDbVertex
100
AcDb2dVertex
 10
3.161756727430555
 20
-3.602973090277778
 30
0.0
  0
VERTEX
  5
18F
330
18B
100
AcDbEntity
  8
Layer 1
370
     0
100
AcDbVertex
100
AcDb2dVertex
 10
3.098076714409722
 20
-3.53924560546875
 30
0.0
  0
VERTEX
  5
190
330
18B
100
AcDbEntity
  8
Layer 1
370
     0
100
AcDbVertex
100
AcDb2dVertex
 10
3.258748372395833
 20
-3.378634982638889
 30
0.0
  0
VERTEX
  5
191
330
18B
100
AcDbEntity
  8
Layer 1
370
     0
100
AcDbVertex
100
AcDb2dVertex
 10
3.419379340277778
 20
-3.53924560546875
 30
0.0
  0
SEQEND
  5
192
330
18B
100
AcDbEntity
  8
Layer 1
370
     0
  0
POLYLINE
  5
193
330
1F
100
AcDbEntity
  8
Layer 1
370
     0
100
AcDb2dPolyline
 66
     1
 10
0.0
 20
0.0
 30
0.0
  0
VERTEX
  5
194
330
193
100
AcDbEntity
  8
Layer 1
370
     0
100
AcDbVertex
100
AcDb2dVertex
 10
2.328870985243055
 20
-3.099921332465278
 30
0.0
  0
VERTEX
  5
195
330
193
100
AcDbEntity
  8
Layer 1
370
     0
100
AcDbVertex
100
AcDb2dVertex
 10
2.979770236545139
 20
-3.099921332465278
 30
0.0
  0
VERTEX
  5
196
330
193
100
AcDbEntity
  8
Layer 1
370
     0
100
AcDbVertex
100
AcDb2dVertex
 10
3.184719509548611
 20
-3.304728190104167
 30
0.0
  0
VERTEX
  5
197
330
193
100
AcDbEntity
  8
Layer 1
370
     0
100
AcDbVertex
100
AcDb2dVertex
 10
3.024122450086805
 20
-3.465311686197917
 30
0.0
  0
VERTEX
  5
198
330
193
100
AcDbEntity
  8
Layer 1
370
     0
100
AcDbVertex
100
AcDb2dVertex
 10
2.865383572048611
 20
-3.306532118055555
 30
0.0
  0
VERTEX
  5
199
330
193
100
AcDbEntity
  8
Layer 1
370
     0
100
AcDbVertex
100
AcDb2dVertex
 10
2.606119791666667
 20
-3.306532118055555
 30
0.0
  0
VERTEX
  5
19A
330
193
100
AcDbEntity
  8
Layer 1
370
     0
100
AcDbVertex
100
AcDb2dVertex
 10
2.447767469618055
 20
-3.464857313368055
 30
0.0
  0
VERTEX
  5
19B
330
193
100
AcDbEntity
  8
Layer 1
370
     0
100
AcDbVertex
100
AcDb2dVertex
 10
2.205796983506944
 20
-3.223002115885417
 30
0.0
  0
VERTEX
  5
19C
330
193
100
AcDbEntity
  8
Layer 1
370
     0
100
AcDbVertex
100
AcDb2dVertex
 10
2.328870985243055
 20
-3.099921332465278
 30
0.0
  0
SEQEND
  5
19D
330
193
100
AcDbEntity
  8
Layer 1
370
     0
  0
POLYLINE
  5
19E
330
1F
100
AcDbEntity
  8
Layer 1
370
     0
100
AcDb2dPolyline
 66
     1
 10
0.0
 20
0.0
 30
0.0
  0
VERTEX
  5
19F
330
19E
100
AcDbEntity
  8
Layer 1
370
     0
100
AcDbVertex
100
AcDb2dVertex
 10
1.846767849392361
 20
-3.099921332465278
 30
0.0
  0
VERTEX
  5
1A0
330
19E
100
AcDbEntity
  8
Layer 1
370
     0
100
AcDbVertex
100
AcDb2dVertex
 10
1.934685601128472
 20
-3.099921332465278
 30
0.0
  0
VERTEX
  5
1A1
330
19E
100
AcDbEntity
  8
Layer 1
370
     0
100
AcDbVertex
100
AcDb2dVertex
 10
2.057786729600694
 20
-3.223002115885417
 30
0.0
  0
VERTEX
  5
1A2
330
19E
100
AcDbEntity
  8
Layer 1
370
     0
100
AcDbVertex
100
AcDb2dVertex
 10
1.934685601128472
 20
-3.346204969618055
 30
0.0
  0
VERTEX
  5
1A3
330
19E
100
AcDbEntity
  8
Layer 1
370
     0
100
AcDbVertex
100
AcDb2dVertex
 10
1.846767849392361
 20
-3.346204969618055
 30
0.0
  0
VERTEX
  5
1A4
330
19E
100
AcDbEntity
  8
Layer 1
370
     0
100
AcDbVertex
100
AcDb2dVertex
 10
1.723619249131944
 20
-3.223002115885417
 30
0.0
  0
VERTEX
  5
1A5
330
19E
100
AcDbEntity
  8
Layer 1
370
     0
100
AcDbVertex
100
AcDb2dVertex
 10
1.846767849392361
 20
-3.099921332465278
 30
0.0
  0
SEQEND
  5
1A6
330
19E
100
AcDbEntity
  8
Layer 1
370
     0
  0
POLYLINE
  5
1A7
330
1F
100
AcDbEntity
  8
Layer 1
370
     0
100
AcDb2dPolyline
 66
     1
 10
0.0
 20
0.0
 30
0.0
  0
VERTEX
  5
1A8
330
1A7
100
AcDbEntity
  8
Layer 1
370
     0
100
AcDbVertex
100
AcDb2dVertex
 10
1.803432888454861
 20
-3.450792100694444
 30
0.0
  0
VERTEX
  5
1A9
330
1A7
100
AcDbEntity
  8
Layer 1
370
     0
100
AcDbVertex
100
AcDb2dVertex
 10
1.977945963541667
 20
-3.450792100694444
 30
0.0
  0
VERTEX
  5
1AA
330
1A7
100
AcDbEntity
  8
Layer 1
370
     0
100
AcDbVertex
100
AcDb2dVertex
 10
2.131768120659722
 20
-3.296963161892361
 30
0.0
  0
VERTEX
  5
1AB
330
1A7
100
AcDbEntity
  8
Layer 1
370
     0
100
AcDbVertex
100
AcDb2dVertex
 10
2.373792860243055
 20
-3.538777669270833
 30
0.0
  0
VERTEX
  5
1AC
330
1A7
100
AcDbEntity
  8
Layer 1
370
     0
100
AcDbVertex
100
AcDb2dVertex
 10
2.309638129340278
 20
-3.602973090277778
 30
0.0
  0
VERTEX
  5
1AD
330
1A7
100
AcDbEntity
  8
Layer 1
370
     0
100
AcDbVertex
100
AcDb2dVertex
 10
2.04071044921875
 20
-3.602973090277778
 30
0.0
  0
VERTEX
  5
1AE
330
1A7
100
AcDbEntity
  8
Layer 1
370
     0
100
AcDbVertex
100
AcDb2dVertex
 10
1.890726725260417
 20
-3.7529296875
 30
0.0
  0
VERTEX
  5
1AF
330
1A7
100
AcDbEntity
  8
Layer 1
370
     0
100
AcDbVertex
100
AcDb2dVertex
 10
1.740668402777778
 20
-3.602973090277778
 30
0.0
  0
VERTEX
  5
1B0
330
1A7
100
AcDbEntity
  8
Layer 1
370
     0
100
AcDbVertex
100
AcDb2dVertex
 10
1.471733940972222
 20
-3.602973090277778
 30
0.0
  0
VERTEX
  5
1B1
330
1A7
100
AcDbEntity
  8
Layer 1
370
     0
100
AcDbVertex
100
AcDb2dVertex
 10
1.407579210069444
 20
-3.538804796006944
 30
0.0
  0
VERTEX
  5
1B2
330
1A7
100
AcDbEntity
  8
Layer 1
370
     0
100
AcDbVertex
100
AcDb2dVertex
 10
1.649583604600694
 20
-3.296963161892361
 30
0.0
  0
VERTEX
  5
1B3
330
1A7
100
AcDbEntity
  8
Layer 1
370
     0
100
AcDbVertex
100
AcDb2dVertex
 10
1.803432888454861
 20
-3.450792100694444
 30
0.0
  0
SEQEND
  5
1B4
330
1A7
100
AcDbEntity
  8
Layer 1
370
     0
  0
POLYLINE
  5
1B5
330
1F
100
AcDbEntity
  8
Layer 1
370
     0
100
AcDb2dPolyline
 66
     1
 10
0.0
 20
0.0
 30
0.0
  0
VERTEX
  5
1B6
330
1B5
100
AcDbEntity
  8
Layer 1
370
     0
100
AcDbVertex
100
AcDb2dVertex
 10
1.259575737847222
 20
-4.115186903211805
 30
0.0
  0
VERTEX
  5
1B7
330
1B5
100
AcDbEntity
  8
Layer 1
370
     0
100
AcDbVertex
100
AcDb2dVertex
 10
1.131971571180556
 20
-4.2427978515625
 30
0.0
  0
VERTEX
  5
1B8
330
1B5
100
AcDbEntity
  8
Layer 1
370
     0
100
AcDbVertex
100
AcDb2dVertex
 10
0.9593641493055555
 20
-4.2427978515625
 30
0.0
  0
VERTEX
  5
1B9
330
1B5
100
AcDbEntity
  8
Layer 1
370
     0
100
AcDbVertex
100
AcDb2dVertex
 10
0.8312310112847222
 20
-4.114718967013888
 30
0.0
  0
VERTEX
  5
1BA
330
1B5
100
AcDbEntity
  8
Layer 1
370
     0
100
AcDbVertex
100
AcDb2dVertex
 10
1.045220269097222
 20
-3.900919596354167
 30
0.0
  0
VERTEX
  5
1BB
330
1B5
100
AcDbEntity
  8
Layer 1
370
     0
100
AcDbVertex
100
AcDb2dVertex
 10
1.259575737847222
 20
-4.115186903211805
 30
0.0
  0
SEQEND
  5
1BC
330
1B5
100
AcDbEntity
  8
Layer 1
370
     0
  0
POLYLINE
  5
1BD
330
1F
100
AcDbEntity
  8
Layer 1
370
     0
100
AcDb2dPolyline
 66
     1
 10
0.0
 20
0.0
 30
0.0
  0
VERTEX
  5
1BE
330
1BD
100
AcDbEntity
  8
Layer 1
370
     0
100
AcDbVertex
100
AcDb2dVertex
 10
0.8312310112847222
 20
-3.539204915364583
 30
0.0
  0
VERTEX
  5
1BF
330
1BD
100
AcDbEntity
  8
Layer 1
370
     0
100
AcDbVertex
100
AcDb2dVertex
 10
0.9593641493055555
 20
-3.411146375868055
 30
0.0
  0
VERTEX
  5
1C0
330
1BD
100
AcDbEntity
  8
Layer 1
370
     0
100
AcDbVertex
100
AcDb2dVertex
 10
1.131971571180556
 20
-3.411146375868055
 30
0.0
  0
VERTEX
  5
1C1
330
1BD
100
AcDbEntity
  8
Layer 1
370
     0
100
AcDbVertex
100
AcDb2dVertex
 10
1.259575737847222
 20
-3.538777669270833
 30
0.0
  0
VERTEX
  5
1C2
330
1BD
100
AcDbEntity
  8
Layer 1
370
     0
100
AcDbVertex
100
AcDb2dVertex
 10
1.045220269097222
 20
-3.753011067708333
 30
0.0
  0
VERTEX
  5
1C3
330
1BD
100
AcDbEntity
  8
Layer 1
370
     0
100
AcDbVertex
100
AcDb2dVertex
 10
0.8312310112847222
 20
-3.539204915364583
 30
0.0
  0
SEQEND
  5
1C4
330
1BD
100
AcDbEntity
  8
Layer 1
370
     0
  0
POLYLINE
  5
1C5
330
1F
100
AcDbEntity
  8
Layer 1
370
     0
100
AcDb2dPolyline
 66
     1
 10
0.0
 20
0.0
 30
0.0
  0
VERTEX
  5
1C6
330
1C5
100
AcDbEntity
  8
Layer 1
370
     0
100
AcDbVertex
100
AcDb2dVertex
 10
1.119228786892361
 20
-3.826972113715278
 30
0.0
  0
VERTEX
  5
1C7
330
1C5
100
AcDbEntity
  8
Layer 1
370
     0
100
AcDbVertex
100
AcDb2dVertex
 10
1.333550347222222
 20
-3.612806532118055
 30
0.0
  0
VERTEX
  5
1C8
330
1C5
100
AcDbEntity
  8
Layer 1
370
     0
100
AcDbVertex
100
AcDb2dVertex
 10
1.428412543402778
 20
-3.707472059461805
 30
0.0
  0
VERTEX
  5
1C9
330
1C5
100
AcDbEntity
  8
Layer 1
370
     0
100
AcDbVertex
100
AcDb2dVertex
 10
1.697238498263889
 20
-3.707472059461805
 30
0.0
  0
VERTEX
  5
1CA
330
1C5
100
AcDbEntity
  8
Layer 1
370
     0
100
AcDbVertex
100
AcDb2dVertex
 10
1.816596137152778
 20
-3.826972113715278
 30
0.0
  0
VERTEX
  5
1CB
330
1C5
100
AcDbEntity
  8
Layer 1
370
     0
100
AcDbVertex
100
AcDb2dVertex
 10
1.697238498263889
 20
-3.9464111328125
 30
0.0
  0
VERTEX
  5
1CC
330
1C5
100
AcDbEntity
  8
Layer 1
370
     0
100
AcDbVertex
100
AcDb2dVertex
 10
1.428412543402778
 20
-3.9464111328125
 30
0.0
  0
VERTEX
  5
1CD
330
1C5
100
AcDbEntity
  8
Layer 1
370
     0
100
AcDbVertex
100
AcDb2dVertex
 10
1.333550347222222
 20
-4.041239420572916
 30
0.0
  0
VERTEX
  5
1CE
330
1C5
100
AcDbEntity
  8
Layer 1
370
     0
100
AcDbVertex
100
AcDb2dVertex
 10
1.119228786892361
 20
-3.826972113715278
 30
0.0
  0
SEQEND
  5
1CF
330
1C5
100
AcDbEntity
  8
Layer 1
370
     0
  0
POLYLINE
  5
1D0
330
1F
100
AcDbEntity
  8
Layer 1
370
     0
100
AcDb2dPolyline
 66
     1
 10
0.0
 20
0.0
 30
0.0
  0
VERTEX
  5
1D1
330
1D0
100
AcDbEntity
  8
Layer 1
370
     0
100
AcDbVertex
100
AcDb2dVertex
 10
0.80157470703125
 20
-3.099921332465278
 30
0.0
  0
VERTEX
  5
1D2
330
1D0
100
AcDbEntity
  8
Layer 1
370
     0
100
AcDbVertex
100
AcDb2dVertex
 10
1.452501085069444
 20
-3.099921332465278
 30
0.0
  0
VERTEX
  5
1D3
330
1D0
100
AcDbEntity
  8
Layer 1
370
     0
100
AcDbVertex
100
AcDb2dVertex
 10
1.575588650173611
 20
-3.223002115885417
 30
0.0
  0
VERTEX
  5
1D4
330
1D0
100
AcDbEntity
  8
Layer 1
370
     0
100
AcDbVertex
100
AcDb2dVertex
 10
1.333550347222222
 20
-3.464857313368055
 30
0.0
  0
VERTEX
  5
1D5
330
1D0
100
AcDbEntity
  8
Layer 1
370
     0
100
AcDbVertex
100
AcDb2dVertex
 10
1.175299750434028
 20
-3.306532118055555
 30
0.0
  0
VERTEX
  5
1D6
330
1D0
100
AcDbEntity
  8
Layer 1
370
     0
100
AcDbVertex
100
AcDb2dVertex
 10
0.9160224066840277
 20
-3.306532118055555
 30
0.0
  0
VERTEX
  5
1D7
330
1D0
100
AcDbEntity
  8
Layer 1
370
     0
100
AcDbVertex
100
AcDb2dVertex
 10
0.7572835286458333
 20
-3.465311686197917
 30
0.0
  0
VERTEX
  5
1D8
330
1D0
100
AcDbEntity
  8
Layer 1
370
     0
100
AcDbVertex
100
AcDb2dVertex
 10
0.596645779079861
 20
-3.304728190104167
 30
0.0
  0
VERTEX
  5
1D9
330
1D0
100
AcDbEntity
  8
Layer 1
370
     0
100
AcDbVertex
100
AcDb2dVertex
 10
0.80157470703125
 20
-3.099921332465278
 30
0.0
  0
SEQEND
  5
1DA
330
1D0
100
AcDbEntity
  8
Layer 1
370
     0
  0
POLYLINE
  5
1DB
330
1F
100
AcDbEntity
  8
Layer 1
370
     0
100
AcDb2dPolyline
 66
     1
 10
0.0
 20
0.0
 30
0.0
  0
VERTEX
  5
1DC
330
1DB
100
AcDbEntity
  8
Layer 1
370
     0
100
AcDbVertex
100
AcDb2dVertex
 10
0.5226508246527778
 20
-3.378634982638889
 30
0.0
  0
VERTEX
  5
1DD
330
1DB
100
AcDbEntity
  8
Layer 1
370
     0
100
AcDbVertex
100
AcDb2dVertex
 10
0.6833292643229166
 20
-3.53924560546875
 30
0.0
  0
VERTEX
  5
1DE
330
1DB
100
AcDbEntity
  8
Layer 1
370
     0
100
AcDbVertex
100
AcDb2dVertex
 10
0.6196221245659722
 20
-3.602973090277778
 30
0.0
  0
VERTEX
  5
1DF
330
1DB
100
AcDbEntity
  8
Layer 1
370
     0
100
AcDbVertex
100
AcDb2dVertex
 10
0.4256863064236111
 20
-3.602973090277778
 30
0.0
  0
VERTEX
  5
1E0
330
1DB
100
AcDbEntity
  8
Layer 1
370
     0
100
AcDbVertex
100
AcDb2dVertex
 10
0.3620198567708333
 20
-3.53924560546875
 30
0.0
  0
VERTEX
  5
1E1
330
1DB
100
AcDbEntity
  8
Layer 1
370
     0
100
AcDbVertex
100
AcDb2dVertex
 10
0.5226508246527778
 20
-3.378634982638889
 30
0.0
  0
SEQEND
  5
1E2
330
1DB
100
AcDbEntity
  8
Layer 1
370
     0
  0
POLYLINE
  5
1E3
330
1F
100
AcDbEntity
  8
Layer 1
370
     0
100
AcDb2dPolyline
 66
     1
 10
0.0
 20
0.0
 30
0.0
  0
VERTEX
  5
1E4
330
1E3
100
AcDbEntity
  8
Layer 1
370
     0
100
AcDbVertex
100
AcDb2dVertex
 10
0.2879774305555555
 20
-4.040730794270833
 30
0.0
  0
VERTEX
  5
1E5
330
1E3
100
AcDbEntity
  8
Layer 1
370
     0
100
AcDbVertex
100
AcDb2dVertex
 10
0.0740288628472222
 20
-3.826972113715278
 30
0.0
  0
VERTEX
  5
1E6
330
1E3
100
AcDbEntity
  8
Layer 1
370
     0
100
AcDbVertex
100
AcDb2dVertex
 10
0.2879774305555555
 20
-3.613152398003472
 30
0.0
  0
VERTEX
  5
1E7
330
1E3
100
AcDbEntity
  8
Layer 1
370
     0
100
AcDbVertex
100
AcDb2dVertex
 10
0.3823445638020833
 20
-3.707472059461805
 30
0.0
  0
VERTEX
  5
1E8
330
1E3
100
AcDbEntity
  8
Layer 1
370
     0
100
AcDbVertex
100
AcDb2dVertex
 10
0.6629638671875
 20
-3.707472059461805
 30
0.0
  0
VERTEX
  5
1E9
330
1E3
100
AcDbEntity
  8
Layer 1
370
     0
100
AcDbVertex
100
AcDb2dVertex
 10
0.7572835286458333
 20
-3.613152398003472
 30
0.0
  0
VERTEX
  5
1EA
330
1E3
100
AcDbEntity
  8
Layer 1
370
     0
100
AcDbVertex
100
AcDb2dVertex
 10
0.971218532986111
 20
-3.826972113715278
 30
0.0
  0
VERTEX
  5
1EB
330
1E3
100
AcDbEntity
  8
Layer 1
370
     0
100
AcDbVertex
100
AcDb2dVertex
 10
0.7572835286458333
 20
-4.040730794270833
 30
0.0
  0
VERTEX
  5
1EC
330
1E3
100
AcDbEntity
  8
Layer 1
370
     0
100
AcDbVertex
100
AcDb2dVertex
 10
0.6629638671875
 20
-3.9464111328125
 30
0.0
  0
VERTEX
  5
1ED
330
1E3
100
AcDbEntity
  8
Layer 1
370
     0
100
AcDbVertex
100
AcDb2dVertex
 10
0.3823445638020833
 20
-3.9464111328125
 30
0.0
  0
VERTEX
  5
1EE
330
1E3
100
AcDbEntity
  8
Layer 1
370
     0
100
AcDbVertex
100
AcDb2dVertex
 10
0.2879774305555555
 20
-4.040730794270833
 30
0.0
  0
SEQEND
  5
1EF
330
1E3
100
AcDbEntity
  8
Layer 1
370
     0
  0
POLYLINE
  5
1F0
330
1F
100
AcDbEntity
  8
Layer 1
370
     0
100
AcDb2dPolyline
 66
     1
 10
0.0
 20
0.0
 30
0.0
  0
VERTEX
  5
1F1
330
1F0
100
AcDbEntity
  8
Layer 1
370
     0
100
AcDbVertex
100
AcDb2dVertex
 10
0.3620198567708333
 20
-4.114718967013888
 30
0.0
  0
VERTEX
  5
1F2
330
1F0
100
AcDbEntity
  8
Layer 1
370
     0
100
AcDbVertex
100
AcDb2dVertex
 10
0.4256863064236111
 20
-4.050998263888888
 30
0.0
  0
VERTEX
  5
1F3
330
1F0
100
AcDbEntity
  8
Layer 1
370
     0
100
AcDbVertex
100
AcDb2dVertex
 10
0.6196221245659722
 20
-4.050998263888888
 30
0.0
  0
VERTEX
  5
1F4
330
1F0
100
AcDbEntity
  8
Layer 1
370
     0
100
AcDbVertex
100
AcDb2dVertex
 10
0.6833292643229166
 20
-4.114718967013888
 30
0.0
  0
VERTEX
  5
1F5
330
1F0
100
AcDbEntity
  8
Layer 1
370
     0
100
AcDbVertex
100
AcDb2dVertex
 10
0.5226508246527778
 20
-4.275241427951388
 30
0.0
  0
VERTEX
  5
1F6
330
1F0
100
AcDbEntity
  8
Layer 1
370
     0
100
AcDbVertex
100
AcDb2dVertex
 10
0.3620198567708333
 20
-4.114718967013888
 30
0.0
  0
SEQEND
  5
1F7
330
1F0
100
AcDbEntity
  8
Layer 1
370
     0
  0
POLYLINE
  5
1F8
330
1F
100
AcDbEntity
  8
Layer 1
370
     0
100
AcDb2dPolyline
 66
     1
 10
0.0
 20
0.0
 30
0.0
  0
VERTEX
  5
1F9
330
1F8
100
AcDbEntity
  8
Layer 1
370
     0
100
AcDbVertex
100
AcDb2dVertex
 10
1.452501085069444
 20
-4.554050021701388
 30
0.0
  0
VERTEX
  5
1FA
330
1F8
100
AcDbEntity
  8
Layer 1
370
     0
100
AcDbVertex
100
AcDb2dVertex
 10
0.80157470703125
 20
-4.554050021701388
 30
0.0
  0
VERTEX
  5
1FB
330
1F8
100
AcDbEntity
  8
Layer 1
370
     0
100
AcDbVertex
100
AcDb2dVertex
 10
0.596645779079861
 20
-4.349229600694445
 30
0.0
  0
VERTEX
  5
1FC
330
1F8
100
AcDbEntity
  8
Layer 1
370
     0
100
AcDbVertex
100
AcDb2dVertex
 10
0.7572835286458333
 20
-4.188720703125
 30
0.0
  0
VERTEX
  5
1FD
330
1F8
100
AcDbEntity
  8
Layer 1
370
     0
100
AcDbVertex
100
AcDb2dVertex
 10
0.9160224066840277
 20
-4.347405327690972
 30
0.0
  0
VERTEX
  5
1FE
330
1F8
100
AcDbEntity
  8
Layer 1
370
     0
100
AcDbVertex
100
AcDb2dVertex
 10
1.175299750434028
 20
-4.347405327690972
 30
0.0
  0
VERTEX
  5
1FF
330
1F8
100
AcDbEntity
  8
Layer 1
370
     0
100
AcDbVertex
100
AcDb2dVertex
 10
1.333550347222222
 20
-4.189059787326388
 30
0.0
  0
VERTEX
  5
200
330
1F8
100
AcDbEntity
  8
Layer 1
370
     0
100
AcDbVertex
100
AcDb2dVertex
 10
1.575588650173611
 20
-4.430989583333333
 30
0.0
  0
VERTEX
  5
201
330
1F8
100
AcDbEntity
  8
Layer 1
370
     0
100
AcDbVertex
100
AcDb2dVertex
 10
1.452501085069444
 20
-4.554050021701388
 30
0.0
  0
SEQEND
  5
202
330
1F8
100
AcDbEntity
  8
Layer 1
370
     0
  0
POLYLINE
  5
203
330
1F
100
AcDbEntity
  8
Layer 1
370
     0
100
AcDb2dPolyline
 66
     1
 10
0.0
 20
0.0
 30
0.0
  0
VERTEX
  5
204
330
203
100
AcDbEntity
  8
Layer 1
370
     0
100
AcDbVertex
100
AcDb2dVertex
 10
1.934685601128472
 20
-4.554050021701388
 30
0.0
  0
VERTEX
  5
205
330
203
100
AcDbEntity
  8
Layer 1
370
     0
100
AcDbVertex
100
AcDb2dVertex
 10
1.846767849392361
 20
-4.554050021701388
 30
0.0
  0
VERTEX
  5
206
330
203
100
AcDbEntity
  8
Layer 1
370
     0
100
AcDbVertex
100
AcDb2dVertex
 10
1.723619249131944
 20
-4.430887858072916
 30
0.0
  0
VERTEX
  5
207
330
203
100
AcDbEntity
  8
Layer 1
370
     0
100
AcDbVertex
100
AcDb2dVertex
 10
1.846767849392361
 20
-4.307759602864583
 30
0.0
  0
VERTEX
  5
208
330
203
100
AcDbEntity
  8
Layer 1
370
     0
100
AcDbVertex
100
AcDb2dVertex
 10
1.934685601128472
 20
-4.307759602864583
 30
0.0
  0
VERTEX
  5
209
330
203
100
AcDbEntity
  8
Layer 1
370
     0
100
AcDbVertex
100
AcDb2dVertex
 10
2.057786729600694
 20
-4.430887858072916
 30
0.0
  0
VERTEX
  5
20A
330
203
100
AcDbEntity
  8
Layer 1
370
     0
100
AcDbVertex
100
AcDb2dVertex
 10
1.934685601128472
 20
-4.554050021701388
 30
0.0
  0
SEQEND
  5
20B
330
203
100
AcDbEntity
  8
Layer 1
370
     0
  0
POLYLINE
  5
20C
330
1F
100
AcDbEntity
  8
Layer 1
370
     0
100
AcDb2dPolyline
 66
     1
 10
0.0
 20
0.0
 30
0.0
  0
VERTEX
  5
20D
330
20C
100
AcDbEntity
  8
Layer 1
370
     0
100
AcDbVertex
100
AcDb2dVertex
 10
1.977945963541667
 20
-4.203138563368055
 30
0.0
  0
VERTEX
  5
20E
330
20C
100
AcDbEntity
  8
Layer 1
370
     0
100
AcDbVertex
100
AcDb2dVertex
 10
1.803432888454861
 20
-4.203138563368055
 30
0.0
  0
VERTEX
  5
20F
330
20C
100
AcDbEntity
  8
Layer 1
370
     0
100
AcDbVertex
100
AcDb2dVertex
 10
1.649583604600694
 20
-4.357028537326388
 30
0.0
  0
VERTEX
  5
210
330
20C
100
AcDbEntity
  8
Layer 1
370
     0
100
AcDbVertex
100
AcDb2dVertex
 10
1.407579210069444
 20
-4.115146213107638
 30
0.0
  0
VERTEX
  5
211
330
20C
100
AcDbEntity
  8
Layer 1
370
     0
100
AcDbVertex
100
AcDb2dVertex
 10
1.471733940972222
 20
-4.050998263888888
 30
0.0
  0
VERTEX
  5
212
330
20C
100
AcDbEntity
  8
Layer 1
370
     0
100
AcDbVertex
100
AcDb2dVertex
 10
1.740668402777778
 20
-4.050998263888888
 30
0.0
  0
VERTEX
  5
213
330
20C
100
AcDbEntity
  8
Layer 1
370
     0
100
AcDbVertex
100
AcDb2dVertex
 10
1.890726725260417
 20
-3.901028103298611
 30
0.0
  0
VERTEX
  5
214
330
20C
100
AcDbEntity
  8
Layer 1
370
     0
100
AcDbVertex
100
AcDb2dVertex
 10
2.04071044921875
 20
-4.050998263888888
 30
0.0
  0
VERTEX
  5
215
330
20C
100
AcDbEntity
  8
Layer 1
370
     0
100
AcDbVertex
100
AcDb2dVertex
 10
2.309638129340278
 20
-4.050998263888888
 30
0.0
  0
VERTEX
  5
216
330
20C
100
AcDbEntity
  8
Layer 1
370
     0
100
AcDbVertex
100
AcDb2dVertex
 10
2.373792860243055
 20
-4.115146213107638
 30
0.0
  0
VERTEX
  5
217
330
20C
100
AcDbEntity
  8
Layer 1
370
     0
100
AcDbVertex
100
AcDb2dVertex
 10
2.131768120659722
 20
-4.357028537326388
 30
0.0
  0
VERTEX
  5
218
330
20C
100
AcDbEntity
  8
Layer 1
370
     0
100
AcDbVertex
100
AcDb2dVertex
 10
1.977945963541667
 20
-4.203138563368055
 30
0.0
  0
SEQEND
  5
219
330
20C
100
AcDbEntity
  8
Layer 1
370
     0
  0
POLYLINE
  5
21A
330
1F
100
AcDbEntity
  8
Layer 1
370
     0
100
AcDb2dPolyline
 66
     1
 10
0.0
 20
0.0
 30
0.0
  0
VERTEX
  5
21B
330
21A
100
AcDbEntity
  8
Layer 1
370
     0
100
AcDbVertex
100
AcDb2dVertex
 10
2.979770236545139
 20
-4.554050021701388
 30
0.0
  0
VERTEX
  5
21C
330
21A
100
AcDbEntity
  8
Layer 1
370
     0
100
AcDbVertex
100
AcDb2dVertex
 10
2.328870985243055
 20
-4.554050021701388
 30
0.0
  0
VERTEX
  5
21D
330
21A
100
AcDbEntity
  8
Layer 1
370
     0
100
AcDbVertex
100
AcDb2dVertex
 10
2.205796983506944
 20
-4.430989583333333
 30
0.0
  0
VERTEX
  5
21E
330
21A
100
AcDbEntity
  8
Layer 1
370
     0
100
AcDbVertex
100
AcDb2dVertex
 10
2.447767469618055
 20
-4.189059787326388
 30
0.0
  0
VERTEX
  5
21F
330
21A
100
AcDbEntity
  8
Layer 1
370
     0
100
AcDbVertex
100
AcDb2dVertex
 10
2.606119791666667
 20
-4.347405327690972
 30
0.0
  0
VERTEX
  5
220
330
21A
100
AcDbEntity
  8
Layer 1
370
     0
100
AcDbVertex
100
AcDb2dVertex
 10
2.865383572048611
 20
-4.347405327690972
 30
0.0
  0
VERTEX
  5
221
330
21A
100
AcDbEntity
  8
Layer 1
370
     0
100
AcDbVertex
100
AcDb2dVertex
 10
3.024122450086805
 20
-4.188720703125
 30
0.0
  0
VERTEX
  5
222
330
21A
100
AcDbEntity
  8
Layer 1
370
     0
100
AcDbVertex
100
AcDb2dVertex
 10
3.184719509548611
 20
-4.349229600694445
 30
0.0
  0
VERTEX
  5
223
330
21A
100
AcDbEntity
  8
Layer 1
370
     0
100
AcDbVertex
100
AcDb2dVertex
 10
2.979770236545139
 20
-4.554050021701388
 30
0.0
  0
SEQEND
  5
224
330
21A
100
AcDbEntity
  8
Layer 1
370
     0
  0
POLYLINE
  5
225
330
1F
100
AcDbEntity
  8
Layer 1
370
     0
100
AcDb2dPolyline
 66
     1
 10
0.0
 20
0.0
 30
0.0
  0
VERTEX
  5
226
330
225
100
AcDbEntity
  8
Layer 1
370
     0
100
AcDbVertex
100
AcDb2dVertex
 10
3.098076714409722
 20
-4.114718967013888
 30
0.0
  0
VERTEX
  5
227
330
225
100
AcDbEntity
  8
Layer 1
370
     0
100
AcDbVertex
100
AcDb2dVertex
 10
3.161756727430555
 20
-4.050998263888888
 30
0.0
  0
VERTEX
  5
228
330
225
100
AcDbEntity
  8
Layer 1
370
     0
100
AcDbVertex
100
AcDb2dVertex
 10
3.355699327256944
 20
-4.050998263888888
 30
0.0
  0
VERTEX
  5
229
330
225
100
AcDbEntity
  8
Layer 1
370
     0
100
AcDbVertex
100
AcDb2dVertex
 10
3.419379340277778
 20
-4.114718967013888
 30
0.0
  0
VERTEX
  5
22A
330
225
100
AcDbEntity
  8
Layer 1
370
     0
100
AcDbVertex
100
AcDb2dVertex
 10
3.258748372395833
 20
-4.275241427951388
 30
0.0
  0
VERTEX
  5
22B
330
225
100
AcDbEntity
  8
Layer 1
370
     0
100
AcDbVertex
100
AcDb2dVertex
 10
3.098076714409722
 20
-4.114718967013888
 30
0.0
  0
SEQEND
  5
22C
330
225
100
AcDbEntity
  8
Layer 1
370
     0
  0
POLYLINE
  5
22D
330
1F
100
AcDbEntity
  8
Layer 1
370
     0
100
AcDb2dPolyline
 66
     1
 10
0.0
 20
0.0
 30
0.0
  0
VERTEX
  5
22E
330
22D
100
AcDbEntity
  8
Layer 1
370
     0
100
AcDbVertex
100
AcDb2dVertex
 10
4.188652886284722
 20
-4.554050021701388
 30
0.0
  0
VERTEX
  5
22F
330
22D
100
AcDbEntity
  8
Layer 1
370
     0
100
AcDbVertex
100
AcDb2dVertex
 10
3.537651909722222
 20
-4.554050021701388
 30
0.0
  0
VERTEX
  5
230
330
22D
100
AcDbEntity
  8
Layer 1
370
     0
100
AcDbVertex
100
AcDb2dVertex
 10
3.332729763454861
 20
-4.349229600694445
 30
0.0
  0
VERTEX
  5
231
330
22D
100
AcDbEntity
  8
Layer 1
370
     0
100
AcDbVertex
100
AcDb2dVertex
 10
3.493374294704861
 20
-4.188720703125
 30
0.0
  0
VERTEX
  5
232
330
22D
100
AcDbEntity
  8
Layer 1
370
     0
100
AcDbVertex
100
AcDb2dVertex
 10
3.652092827690972
 20
-4.347405327690972
 30
0.0
  0
VERTEX
  5
233
330
22D
100
AcDbEntity
  8
Layer 1
370
     0
100
AcDbVertex
100
AcDb2dVertex
 10
3.911410861545139
 20
-4.347405327690972
 30
0.0
  0
VERTEX
  5
234
330
22D
100
AcDbEntity
  8
Layer 1
370
     0
100
AcDbVertex
100
AcDb2dVertex
 10
4.069681803385416
 20
-4.189059787326388
 30
0.0
  0
VERTEX
  5
235
330
22D
100
AcDbEntity
  8
Layer 1
370
     0
100
AcDbVertex
100
AcDb2dVertex
 10
4.311713324652778
 20
-4.430989583333333
 30
0.0
  0
VERTEX
  5
236
330
22D
100
AcDbEntity
  8
Layer 1
370
     0
100
AcDbVertex
100
AcDb2dVertex
 10
4.188652886284722
 20
-4.554050021701388
 30
0.0
  0
SEQEND
  5
237
330
22D
100
AcDbEntity
  8
Layer 1
370
     0
  0
POLYLINE
  5
238
330
1F
100
AcDbEntity
  8
Layer 1
370
     0
100
AcDb2dPolyline
 66
     1
 10
0.0
 20
0.0
 30
0.0
  0
VERTEX
  5
239
330
238
100
AcDbEntity
  8
Layer 1
370
     0
100
AcDbVertex
100
AcDb2dVertex
 10
4.6707763671875
 20
-4.554050021701388
 30
0.0
  0
VERTEX
  5
23A
330
238
100
AcDbEntity
  8
Layer 1
370
     0
100
AcDbVertex
100
AcDb2dVertex
 10
4.582899305555555
 20
-4.554050021701388
 30
0.0
  0
VERTEX
  5
23B
330
238
100
AcDbEntity
  8
Layer 1
370
     0
100
AcDbVertex
100
AcDb2dVertex
 10
4.459662543402778
 20
-4.430887858072916
 30
0.0
  0
VERTEX
  5
23C
330
238
100
AcDbEntity
  8
Layer 1
370
     0
100
AcDbVertex
100
AcDb2dVertex
 10
4.582899305555555
 20
-4.307759602864583
 30
0.0
  0
VERTEX
  5
23D
330
238
100
AcDbEntity
  8
Layer 1
370
     0
100
AcDbVertex
100
AcDb2dVertex
 10
4.6707763671875
 20
-4.307759602864583
 30
0.0
  0
VERTEX
  5
23E
330
238
100
AcDbEntity
  8
Layer 1
370
     0
100
AcDbVertex
100
AcDb2dVertex
 10
4.7939453125
 20
-4.430887858072916
 30
0.0
  0
VERTEX
  5
23F
330
238
100
AcDbEntity
  8
Layer 1
370
     0
100
AcDbVertex
100
AcDb2dVertex
 10
4.6707763671875
 20
-4.554050021701388
 30
0.0
  0
SEQEND
  5
240
330
238
100
AcDbEntity
  8
Layer 1
370
     0
  0
POLYLINE
  5
241
330
1F
100
AcDbEntity
  8
Layer 1
370
     0
100
AcDb2dPolyline
 66
     1
 10
0.0
 20
0.0
 30
0.0
  0
VERTEX
  5
242
330
241
100
AcDbEntity
  8
Layer 1
370
     0
100
AcDbVertex
100
AcDb2dVertex
 10
4.714097764756944
 20
-4.203138563368055
 30
0.0
  0
VERTEX
  5
243
330
241
100
AcDbEntity
  8
Layer 1
370
     0
100
AcDbVertex
100
AcDb2dVertex
 10
4.539577907986111
 20
-4.203138563368055
 30
0.0
  0
VERTEX
  5
244
330
241
100
AcDbEntity
  8
Layer 1
370
     0
100
AcDbVertex
100
AcDb2dVertex
 10
4.385701497395833
 20
-4.357028537326388
 30
0.0
  0
VERTEX
  5
245
330
241
100
AcDbEntity
  8
Layer 1
370
     0
100
AcDbVertex
100
AcDb2dVertex
 10
4.143636067708333
 20
-4.115146213107638
 30
0.0
  0
VERTEX
  5
246
330
241
100
AcDbEntity
  8
Layer 1
370
     0
100
AcDbVertex
100
AcDb2dVertex
 10
4.207845052083333
 20
-4.050998263888888
 30
0.0
  0
VERTEX
  5
247
330
241
100
AcDbEntity
  8
Layer 1
370
     0
100
AcDbVertex
100
AcDb2dVertex
 10
4.476765950520833
 20
-4.050998263888888
 30
0.0
  0
VERTEX
  5
248
330
241
100
AcDbEntity
  8
Layer 1
370
     0
100
AcDbVertex
100
AcDb2dVertex
 10
4.626817491319444
 20
-3.9010009765625
 30
0.0
  0
VERTEX
  5
249
330
241
100
AcDbEntity
  8
Layer 1
370
     0
100
AcDbVertex
100
AcDb2dVertex
 10
4.77685546875
 20
-4.050998263888888
 30
0.0
  0
VERTEX
  5
24A
330
241
100
AcDbEntity
  8
Layer 1
370
     0
100
AcDbVertex
100
AcDb2dVertex
 10
5.045762803819444
 20
-4.050998263888888
 30
0.0
  0
VERTEX
  5
24B
330
241
100
AcDbEntity
  8
Layer 1
370
     0
100
AcDbVertex
100
AcDb2dVertex
 10
5.109931098090278
 20
-4.115146213107638
 30
0.0
  0
VERTEX
  5
24C
330
241
100
AcDbEntity
  8
Layer 1
370
     0
100
AcDbVertex
100
AcDb2dVertex
 10
4.867919921875
 20
-4.357028537326388
 30
0.0
  0
VERTEX
  5
24D
330
241
100
AcDbEntity
  8
Layer 1
370
     0
100
AcDbVertex
100
AcDb2dVertex
 10
4.714097764756944
 20
-4.203138563368055
 30
0.0
  0
SEQEND
  5
24E
330
241
100
AcDbEntity
  8
Layer 1
370
     0
  0
POLYLINE
  5
24F
330
1F
100
AcDbEntity
  8
Layer 1
370
     0
100
AcDb2dPolyline
 66
     1
 10
0.0
 20
0.0
 30
0.0
  0
VERTEX
  5
250
330
24F
100
AcDbEntity
  8
Layer 1
370
     0
100
AcDbVertex
100
AcDb2dVertex
 10
5.7159423828125
 20
-4.554050021701388
 30
0.0
  0
VERTEX
  5
251
330
24F
100
AcDbEntity
  8
Layer 1
370
     0
100
AcDbVertex
100
AcDb2dVertex
 10
5.065022786458333
 20
-4.554050021701388
 30
0.0
  0
VERTEX
  5
252
330
24F
100
AcDbEntity
  8
Layer 1
370
     0
100
AcDbVertex
100
AcDb2dVertex
 10
4.941921657986111
 20
-4.430989583333333
 30
0.0
  0
VERTEX
  5
253
330
24F
100
AcDbEntity
  8
Layer 1
370
     0
100
AcDbVertex
100
AcDb2dVertex
 10
5.183919270833333
 20
-4.189059787326388
 30
0.0
  0
VERTEX
  5
254
330
24F
100
AcDbEntity
  8
Layer 1
370
     0
100
AcDbVertex
100
AcDb2dVertex
 10
5.342190212673611
 20
-4.347405327690972
 30
0.0
  0
VERTEX
  5
255
330
24F
100
AcDbEntity
  8
Layer 1
370
     0
100
AcDbVertex
100
AcDb2dVertex
 10
5.601467556423611
 20
-4.347405327690972
 30
0.0
  0
VERTEX
  5
256
330
24F
100
AcDbEntity
  8
Layer 1
370
     0
100
AcDbVertex
100
AcDb2dVertex
 10
5.76025390625
 20
-4.188720703125
 30
0.0
  0
VERTEX
  5
257
330
24F
100
AcDbEntity
  8
Layer 1
370
     0
100
AcDbVertex
100
AcDb2dVertex
 10
5.920871310763888
 20
-4.349229600694445
 30
0.0
  0
VERTEX
  5
258
330
24F
100
AcDbEntity
  8
Layer 1
370
     0
100
AcDbVertex
100
AcDb2dVertex
 10
5.7159423828125
 20
-4.554050021701388
 30
0.0
  0
SEQEND
  5
259
330
24F
100
AcDbEntity
  8
Layer 1
370
     0
  0
POLYLINE
  5
25A
330
1F
100
AcDbEntity
  8
Layer 1
370
     0
100
AcDb2dPolyline
 66
     1
 10
0.0
 20
0.0
 30
0.0
  0
VERTEX
  5
25B
330
25A
100
AcDbEntity
  8
Layer 1
370
     0
100
AcDbVertex
100
AcDb2dVertex
 10
5.834228515625
 20
-4.114718967013888
 30
0.0
  0
VERTEX
  5
25C
330
25A
100
AcDbEntity
  8
Layer 1
370
     0
100
AcDbVertex
100
AcDb2dVertex
 10
5.897962782118055
 20
-4.050998263888888
 30
0.0
  0
VERTEX
  5
25D
330
25A
100
AcDbEntity
  8
Layer 1
370
     0
100
AcDbVertex
100
AcDb2dVertex
 10
6.091864691840278
 20
-4.050998263888888
 30
0.0
  0
VERTEX
  5
25E
330
25A
100
AcDbEntity
  8
Layer 1
370
     0
100
AcDbVertex
100
AcDb2dVertex
 10
6.155531141493055
 20
-4.114718967013888
 30
0.0
  0
VERTEX
  5
25F
330
25A
100
AcDbEntity
  8
Layer 1
370
     0
100
AcDbVertex
100
AcDb2dVertex
 10
5.994805230034722
 20
-4.275241427951388
 30
0.0
  0
VERTEX
  5
260
330
25A
100
AcDbEntity
  8
Layer 1
370
     0
100
AcDbVertex
100
AcDb2dVertex
 10
5.834228515625
 20
-4.114718967013888
 30
0.0
  0
SEQEND
  5
261
330
25A
100
AcDbEntity
  8
Layer 1
370
     0
  0
POLYLINE
  5
262
330
1F
100
AcDbEntity
  8
Layer 1
370
     0
100
AcDb2dPolyline
 66
     1
 10
0.0
 20
0.0
 30
0.0
  0
VERTEX
  5
263
330
262
100
AcDbEntity
  8
Layer 1
370
     0
100
AcDbVertex
100
AcDb2dVertex
 10
6.9248046875
 20
-4.554050021701388
 30
0.0
  0
VERTEX
  5
264
330
262
100
AcDbEntity
  8
Layer 1
370
     0
100
AcDbVertex
100
AcDb2dVertex
 10
6.273857964409721
 20
-4.554050021701388
 30
0.0
  0
VERTEX
  5
265
330
262
100
AcDbEntity
  8
Layer 1
370
     0
100
AcDbVertex
100
AcDb2dVertex
 10
6.068901909722222
 20
-4.349229600694445
 30
0.0
  0
VERTEX
  5
266
330
262
100
AcDbEntity
  8
Layer 1
370
     0
100
AcDbVertex
100
AcDb2dVertex
 10
6.2294921875
 20
-4.188720703125
 30
0.0
  0
VERTEX
  5
267
330
262
100
AcDbEntity
  8
Layer 1
370
     0
100
AcDbVertex
100
AcDb2dVertex
 10
6.388237847222221
 20
-4.347405327690972
 30
0.0
  0
VERTEX
  5
268
330
262
100
AcDbEntity
  8
Layer 1
370
     0
100
AcDbVertex
100
AcDb2dVertex
 10
6.647528754340278
 20
-4.347405327690972
 30
0.0
  0
VERTEX
  5
269
330
262
100
AcDbEntity
  8
Layer 1
370
     0
100
AcDbVertex
100
AcDb2dVertex
 10
6.805826822916666
 20
-4.189059787326388
 30
0.0
  0
VERTEX
  5
26A
330
262
100
AcDbEntity
  8
Layer 1
370
     0
100
AcDbVertex
100
AcDb2dVertex
 10
7.047797309027778
 20
-4.430989583333333
 30
0.0
  0
VERTEX
  5
26B
330
262
100
AcDbEntity
  8
Layer 1
370
     0
100
AcDbVertex
100
AcDb2dVertex
 10
6.9248046875
 20
-4.554050021701388
 30
0.0
  0
SEQEND
  5
26C
330
262
100
AcDbEntity
  8
Layer 1
370
     0
  0
POLYLINE
  5
26D
330
1F
100
AcDbEntity
  8
Layer 1
370
     0
100
AcDb2dPolyline
 66
     1
 10
0.0
 20
0.0
 30
0.0
  0
VERTEX
  5
26E
330
26D
100
AcDbEntity
  8
Layer 1
370
     0
100
AcDbVertex
100
AcDb2dVertex
 10
7.406914605034721
 20
-4.554050021701388
 30
0.0
  0
VERTEX
  5
26F
330
26D
100
AcDbEntity
  8
Layer 1
370
     0
100
AcDbVertex
100
AcDb2dVertex
 10
7.3189697265625
 20
-4.554050021701388
 30
0.0
  0
VERTEX
  5
270
330
26D
100
AcDbEntity
  8
Layer 1
370
     0
100
AcDbVertex
100
AcDb2dVertex
 10
7.195814344618055
 20
-4.430887858072916
 30
0.0
  0
VERTEX
  5
271
330
26D
100
AcDbEntity
  8
Layer 1
370
     0
100
AcDbVertex
100
AcDb2dVertex
 10
7.3189697265625
 20
-4.307759602864583
 30
0.0
  0
VERTEX
  5
272
330
26D
100
AcDbEntity
  8
Layer 1
370
     0
100
AcDbVertex
100
AcDb2dVertex
 10
7.406914605034721
 20
-4.307759602864583
 30
0.0
  0
VERTEX
  5
273
330
26D
100
AcDbEntity
  8
Layer 1
370
     0
100
AcDbVertex
100
AcDb2dVertex
 10
7.529947916666666
 20
-4.430887858072916
 30
0.0
  0
VERTEX
  5
274
330
26D
100
AcDbEntity
  8
Layer 1
370
     0
100
AcDbVertex
100
AcDb2dVertex
 10
7.406914605034721
 20
-4.554050021701388
 30
0.0
  0
SEQEND
  5
275
330
26D
100
AcDbEntity
  8
Layer 1
370
     0
  0
POLYLINE
  5
276
330
1F
100
AcDbEntity
  8
Layer 1
370
     0
100
AcDb2dPolyline
 66
     1
 10
0.0
 20
0.0
 30
0.0
  0
VERTEX
  5
277
330
276
100
AcDbEntity
  8
Layer 1
370
     0
100
AcDbVertex
100
AcDb2dVertex
 10
7.4501953125
 20
-4.203138563368055
 30
0.0
  0
VERTEX
  5
278
330
276
100
AcDbEntity
  8
Layer 1
370
     0
100
AcDbVertex
100
AcDb2dVertex
 10
7.275675455729166
 20
-4.203138563368055
 30
0.0
  0
VERTEX
  5
279
330
276
100
AcDbEntity
  8
Layer 1
370
     0
100
AcDbVertex
100
AcDb2dVertex
 10
7.121826171875
 20
-4.357028537326388
 30
0.0
  0
VERTEX
  5
27A
330
276
100
AcDbEntity
  8
Layer 1
370
     0
100
AcDbVertex
100
AcDb2dVertex
 10
6.879787868923611
 20
-4.115146213107638
 30
0.0
  0
VERTEX
  5
27B
330
276
100
AcDbEntity
  8
Layer 1
370
     0
100
AcDbVertex
100
AcDb2dVertex
 10
6.943956163194444
 20
-4.050998263888888
 30
0.0
  0
VERTEX
  5
27C
330
276
100
AcDbEntity
  8
Layer 1
370
     0
100
AcDbVertex
100
AcDb2dVertex
 10
7.212958441840278
 20
-4.050998263888888
 30
0.0
  0
VERTEX
  5
27D
330
276
100
AcDbEntity
  8
Layer 1
370
     0
100
AcDbVertex
100
AcDb2dVertex
 10
7.362887912326388
 20
-3.901028103298611
 30
0.0
  0
VERTEX
  5
27E
330
276
100
AcDbEntity
  8
Layer 1
370
     0
100
AcDbVertex
100
AcDb2dVertex
 10
7.512925889756944
 20
-4.050998263888888
 30
0.0
  0
VERTEX
  5
27F
330
276
100
AcDbEntity
  8
Layer 1
370
     0
100
AcDbVertex
100
AcDb2dVertex
 10
7.781833224826388
 20
-4.050998263888888
 30
0.0
  0
VERTEX
  5
280
330
276
100
AcDbEntity
  8
Layer 1
370
     0
100
AcDbVertex
100
AcDb2dVertex
 10
7.8460693359375
 20
-4.115146213107638
 30
0.0
  0
VERTEX
  5
281
330
276
100
AcDbEntity
  8
Layer 1
370
     0
100
AcDbVertex
100
AcDb2dVertex
 10
7.604017469618055
 20
-4.357028537326388
 30
0.0
  0
VERTEX
  5
282
330
276
100
AcDbEntity
  8
Layer 1
370
     0
100
AcDbVertex
100
AcDb2dVertex
 10
7.4501953125
 20
-4.203138563368055
 30
0.0
  0
SEQEND
  5
283
330
276
100
AcDbEntity
  8
Layer 1
370
     0
  0
ENDSEC
  0
SECTION
  2
OBJECTS
  0
DICTIONARY
  5
C
330
0
100
AcDbDictionary
281
     1
  3
ACAD_GROUP
350
D
  3
ACAD_LAYOUT
350
1A
  3
ACAD_MLINESTYLE
350
17
  3
ACAD_PLOTSETTINGS
350
19
  3
ACAD_PLOTSTYLENAME
350
E
  3
ACAD_TABLESTYLE
350
284
  3
ACAD_VISUALSTYLE
350
2A
  0
DICTIONARY
  5
D
102
{ACAD_REACTORS
330
C
102
}
330
C
100
AcDbDictionary
281
     1
  0
DICTIONARY
  5
1A
102
{ACAD_REACTORS
330
C
102
}
330
C
100
AcDbDictionary
281
     1
  3
Layout1
350
1E
  3
Layout2
350
26
  3
Model
350
22
  0
DICTIONARY
  5
17
102
{ACAD_REACTORS
330
C
102
}
330
C
100
AcDbDictionary
281
     1
  3
Standard
350
18
  0
DICTIONARY
  5
19
102
{ACAD_REACTORS
330
C
102
}
330
C
100
AcDbDictionary
281
     1
  0
ACDBDICTIONARYWDFLT
  5
E
102
{ACAD_REACTORS
330
C
102
}
330
C
100
AcDbDictionary
281
     1
  3
Normal
350
F
100
AcDbDictionaryWithDefault
340
F
  0
DICTIONARY
  5
284
102
{ACAD_REACTORS
330
C
102
}
330
C
100
AcDbDictionary
281
     1
  0
DICTIONARY
  5
2A
102
{ACAD_REACTORS
330
C
102
}
330
C
100
AcDbDictionary
281
     1
  3
2dWireframe
350
2F
  3
3D Hidden
350
31
  3
3dWireframe
350
30
  3
Basic
350
32
  3
Brighten
350
36
  3
ColorChange
350
3A
  3
Conceptual
350
34
  3
Dim
350
35
  3
Facepattern
350
39
  3
Flat
350
2B
  3
FlatWithEdges
350
2C
  3
Gouraud
350
2D
  3
GouraudWithEdges
350
2E
  3
Linepattern
350
38
  3
Realistic
350
33
  3
Thicken
350
37
  0
LAYOUT
  5
1E
102
{ACAD_REACTORS
330
1A
102
}
330
1A
100
AcDbPlotSettings
  1

  2
none_device
  4

  6

 40
0.0
 41
0.0
 42
0.0
 43
0.0
 44
0.0
 45
0.0
 46
0.0
 47
0.0
 48
0.0
 49
0.0
140
0.0
141
0.0
142
1.0
143
1.0
 70
   688
 72
     0
 73
     0
 74
     5
  7

 75
    16
 76
     0
 77
     2
 78
   300
147
1.0
148
0.0
149
0.0
100
AcDbLayout
  1
Layout1
 70
     1
 71
     1
 10
0.0
 20
0.0
 11
12.0
 21
9.0
 12
0.0
 22
0.0
 32
0.0
 14
1.000000000000000E+20
 24
1.000000000000000E+20
 34
1.000000000000000E+20
 15
-1.000000000000000E+20
 25
-1.000000000000000E+20
 35
-1.000000000000000E+20
146
0.0
 13
0.0
 23
0.0
 33
0.0
 16
1.0
 26
0.0
 36
0.0
 17
0.0
 27
1.0
 37
0.0
 76
     0
330
1B
  0
LAYOUT
  5
26
102
{ACAD_REACTORS
330
1A
102
}
330
1A
100
AcDbPlotSettings
  1

  2
none_device
  4

  6

 40
0.0
 41
0.0
 42
0.0
 43
0.0
 44
0.0
 45
0.0
 46
0.0
 47
0.0
 48
0.0
 49
0.0
140
0.0
141
0.0
142
1.0
143
1.0
 70
   688
 72
     0
 73
     0
 74
     5
  7

 75
    16
 76
     0
 77
     2
 78
   300
147
1.0
148
0.0
149
0.0
100
AcDbLayout
  1
Layout2
 70
     1
 71
     2
 10
0.0
 20
0.0
 11
0.0
 21
0.0
 12
0.0
 22
0.0
 32
0.0
 14
0.0
 24
0.0
 34
0.0
 15
0.0
 25
0.0
 35
0.0
146
0.0
 13
0.0
 23
0.0
 33
0.0
 16
1.0
 26
0.0
 36
0.0
 17
0.0
 27
1.0
 37
0.0
 76
     0
330
23
  0
LAYOUT
  5
22
102
{ACAD_REACTORS
330
1A
102
}
330
1A
100
AcDbPlotSettings
  1

  2
none_device
  4

  6

 40
0.0
 41
0.0
 42
0.0
 43
0.0
 44
0.0
 45
0.0
 46
0.0
 47
0.0
 48
0.0
 49
0.0
140
0.0
141
0.0
142
1.0
143
1.0
 70
  1712
 72
     0
 73
     0
 74
     0
  7

 75
     0
 76
     0
 77
     2
 78
   300
147
1.0
148
0.0
149
0.0
100
AcDbLayout
  1
Model
 70
     1
 71
     0
 10
0.0
 20
0.0
 11
12.0
 21
9.0
 12
0.0
 22
0.0
 32
0.0
 14
1.000000000000000E+20
 24
1.000000000000000E+20
 34
1.000000000000000E+20
 15
-1.000000000000000E+20
 25
-1.000000000000000E+20
 35
-1.000000000000000E+20
146
0.0
 13
0.0
 23
0.0
 33
0.0
 16
1.0
 26
0.0
 36
0.0
 17
0.0
 27
1.0
 37
0.0
 76
     0
330
1F
331
29
  0
MLINESTYLE
  5
18
102
{ACAD_REACTORS
330
17
102
}
330
17
100
AcDbMlineStyle
  2
Standard
 70
     0
  3

 62
   256
 51
90.0
 52
90.0
 71
     2
 49
0.5
 62
   256
  6
BYLAYER
 49
-0.5
 62
   256
  6
BYLAYER
  0
ACDBPLACEHOLDER
  5
F
102
{ACAD_REACTORS
330
E
102
}
330
E
  0
VISUALSTYLE
  5
2F
102
{ACAD_REACTORS
330
2A
102
}
330
2A
100
AcDbVisualStyle
  2
2dWireframe
 70
     4
 71
     0
 72
     2
 73
     0
 90
        0
 40
-0.6
 41
-30.0
 62
     5
 63
     7
421
 16777215
 74
     1
 91
        4
 64
     7
 65
   257
 75
     1
175
     1
 42
1.0
 92
        0
 66
   257
 43
1.0
 76
     1
 77
     6
 78
     2
 67
     7
 79
     5
170
     0
171
     0
290
     0
174
     0
 93
        1
 44
0.0
173
     0
291
     0
 45
0.0
1001
ACAD
1000
AcDbSavedByObjectVersion
1070
     0
  0
VISUALSTYLE
  5
31
102
{ACAD_REACTORS
330
2A
102
}
330
2A
100
AcDbVisualStyle
  2
3D Hidden
 70
     6
 71
     1
 72
     2
 73
     2
 90
        0
 40
-0.6
 41
-30.0
 62
     5
 63
     7
421
 16777215
 74
     2
 91
        2
 64
     7
 65
   257
 75
     2
175
     1
 42
40.0
 92
        0
 66
   257
 43
1.0
 76
     1
 77
     6
 78
     2
 67
     7
 79
     3
170
     0
171
     0
290
     0
174
     0
 93
        1
 44
0.0
173
     0
291
     0
 45
0.0
1001
ACAD
1000
AcDbSavedByObjectVersion
1070
     0
  0
VISUALSTYLE
  5
30
102
{ACAD_REACTORS
330
2A
102
}
330
2A
100
AcDbVisualStyle
  2
3dWireframe
 70
     5
 71
     0
 72
     2
 73
     0
 90
        0
 40
-0.6
 41
-30.0
 62
     5
 63
     7
421
 16777215
 74
     1
 91
        4
 64
     7
 65
   257
 75
     1
175
     1
 42
1.0
 92
        0
 66
   257
 43
1.0
 76
     1
 77
     6
 78
     2
 67
     7
 79
     5
170
     0
171
     0
290
     0
174
     0
 93
        1
 44
0.0
173
     0
291
     0
 45
0.0
1001
ACAD
1000
AcDbSavedByObjectVersion
1070
     0
  0
VISUALSTYLE
  5
32
102
{ACAD_REACTORS
330
2A
102
}
330
2A
100
AcDbVisualStyle
  2
Basic
 70
     7
 71
     1
 72
     0
 73
     1
 90
        0
 40
-0.6
 41
-30.0
 62
     5
 63
     7
421
 16777215
 74
     0
 91
        4
 64
     7
 65
   257
 75
     1
175
     1
 42
1.0
 92
        8
 66
     7
 43
1.0
 76
     1
 77
     6
 78
     2
 67
     7
 79
     5
170
     0
171
     0
290
     0
174
     0
 93
        1
 44
0.0
173
     0
291
     1
 45
0.0
1001
ACAD
1000
AcDbSavedByObjectVersion
1070
     0
  0
VISUALSTYLE
  5
36
102
{ACAD_REACTORS
330
2A
102
}
330
2A
100
AcDbVisualStyle
  2
Brighten
 70
    12
 71
     2
 72
     2
 73
     0
 90
        0
 40
-0.6
 41
-30.0
 62
     5
 63
     7
421
 16777215
 74
     1
 91
        4
 64
     7
 65
   257
 75
     1
175
     1
 42
1.0
 92
        8
 66
     7
 43
1.0
 76
     1
 77
     6
 78
     2
 67
     7
 79
     5
170
     0
171
     0
290
     0
174
     0
 93
        1
 44
50.0
173
     0
291
     1
 45
0.0
1001
ACAD
1000
AcDbSavedByObjectVersion
1070
     0
  0
VISUALSTYLE
  5
3A
102
{ACAD_REACTORS
330
2A
102
}
330
2A
100
AcDbVisualStyle
  2
ColorChange
 70
    16
 71
     2
 72
     2
 73
     3
 90
        0
 40
-0.6
 41
-30.0
 62
     5
 63
     8
421
  8421504
 74
     1
 91
        4
 64
     7
 65
   257
 75
     1
175
     1
 42
1.0
 92
        8
 66
     8
424
  8421504
 43
1.0
 76
     1
 77
     6
 78
     2
 67
     7
 79
     5
170
     0
171
     0
290
     0
174
     0
 93
        1
 44
0.0
173
     0
291
     1
 45
0.0
1001
ACAD
1000
AcDbSavedByObjectVersion
1070
     0
  0
VISUALSTYLE
  5
34
102
{ACAD_REACTORS
330
2A
102
}
330
2A
100
AcDbVisualStyle
  2
Conceptual
 70
     9
 71
     3
 72
     2
 73
     0
 90
        0
 40
-0.6
 41
-30.0
 62
     5
 63
     7
421
 16777215
 74
     2
 91
        2
 64
     7
 65
   257
 75
     1
175
     1
 42
40.0
 92
        8
 66
     7
 43
1.0
 76
     1
 77
     6
 78
     2
 67
     7
 79
     3
170
     0
171
     0
290
     0
174
     0
 93
        1
 44
0.0
173
     0
291
     0
 45
0.0
1001
ACAD
1000
AcDbSavedByObjectVersion
1070
     0
  0
VISUALSTYLE
  5
35
102
{ACAD_REACTORS
330
2A
102
}
330
2A
100
AcDbVisualStyle
  2
Dim
 70
    11
 71
     2
 72
     2
 73
     0
 90
        0
 40
-0.6
 41
-30.0
 62
     5
 63
     7
421
 16777215
 74
     1
 91
        4
 64
     7
 65
   257
 75
     1
175
     1
 42
1.0
 92
        8
 66
     7
 43
1.0
 76
     1
 77
     6
 78
     2
 67
     7
 79
     5
170
     0
171
     0
290
     0
174
     0
 93
        1
 44
-50.0
173
     0
291
     1
 45
0.0
1001
ACAD
1000
AcDbSavedByObjectVersion
1070
     0
  0
VISUALSTYLE
  5
39
102
{ACAD_REACTORS
330
2A
102
}
330
2A
100
AcDbVisualStyle
  2
Facepattern
 70
    15
 71
     2
 72
     2
 73
     0
 90
        0
 40
-0.6
 41
-30.0
 62
     5
 63
     7
421
 16777215
 74
     1
 91
        4
 64
     7
 65
   257
 75
     1
175
     1
 42
1.0
 92
        8
 66
     7
 43
1.0
 76
     1
 77
     6
 78
     2
 67
     7
 79
     5
170
     0
171
     0
290
     0
174
     0
 93
        1
 44
0.0
173
     0
291
     1
 45
0.0
1001
ACAD
1000
AcDbSavedByObjectVersion
1070
     0
  0
VISUALSTYLE
  5
2B
102
{ACAD_REACTORS
330
2A
102
}
330
2A
100
AcDbVisualStyle
  2
Flat
 70
     0
 71
     2
 72
     1
 73
     1
 90
        2
 40
-0.6
 41
30.0
 62
     5
 63
     7
421
 16777215
 74
     0
 91
        4
 64
     7
 65
   257
 75
     1
175
     1
 42
1.0
 92
        8
 66
     7
 43
1.0
 76
     1
 77
     6
 78
     2
 67
     7
 79
     5
170
     0
171
     0
290
     0
174
     0
 93
       13
 44
0.0
173
     0
291
     1
 45
0.0
1001
ACAD
1000
AcDbSavedByObjectVersion
1070
     0
  0
VISUALSTYLE
  5
2C
102
{ACAD_REACTORS
330
2A
102
}
330
2A
100
AcDbVisualStyle
  2
FlatWithEdges
 70
     1
 71
     2
 72
     1
 73
     1
 90
        2
 40
-0.6
 41
30.0
 62
     5
 63
     7
421
 16777215
 74
     1
 91
        4
 64
     7
 65
   257
 75
     1
175
     1
 42
1.0
 92
        0
 66
   257
 43
1.0
 76
     1
 77
     6
 78
     2
 67
     7
 79
     5
170
     0
171
     0
290
     0
174
     0
 93
       13
 44
0.0
173
     0
291
     1
 45
0.0
1001
ACAD
1000
AcDbSavedByObjectVersion
1070
     0
  0
VISUALSTYLE
  5
2D
102
{ACAD_REACTORS
330
2A
102
}
330
2A
100
AcDbVisualStyle
  2
Gouraud
 70
     2
 71
     2
 72
     2
 73
     1
 90
        2
 40
-0.6
 41
30.0
 62
     5
 63
     7
421
 16777215
 74
     0
 91
        4
 64
     7
 65
   257
 75
     1
175
     1
 42
1.0
 92
        0
 66
     7
 43
1.0
 76
     1
 77
     6
 78
     2
 67
     7
 79
     5
170
     0
171
     0
290
     0
174
     0
 93
       13
 44
0.0
173
     0
291
     1
 45
0.0
1001
ACAD
1000
AcDbSavedByObjectVersion
1070
     0
  0
VISUALSTYLE
  5
2E
102
{ACAD_REACTORS
330
2A
102
}
330
2A
100
AcDbVisualStyle
  2
GouraudWithEdges
 70
     3
 71
     2
 72
     2
 73
     1
 90
        2
 40
-0.6
 41
30.0
 62
     5
 63
     7
421
 16777215
 74
     1
 91
        4
 64
     7
 65
   257
 75
     1
175
     1
 42
1.0
 92
        0
 66
   257
 43
1.0
 76
     1
 77
     6
 78
     2
 67
     7
 79
     5
170
     0
171
     0
290
     0
174
     0
 93
       13
 44
0.0
173
     0
291
     1
 45
0.0
1001
ACAD
1000
AcDbSavedByObjectVersion
1070
     0
  0
VISUALSTYLE
  5
38
102
{ACAD_REACTORS
330
2A
102
}
330
2A
100
AcDbVisualStyle
  2
Linepattern
 70
    14
 71
     2
 72
     2
 73
     0
 90
        0
 40
-0.6
 41
-30.0
 62
     5
 63
     7
421
 16777215
 74
     1
 91
        4
 64
     7
 65
   257
 75
     7
175
     7
 42
1.0
 92
        8
 66
     7
 43
1.0
 76
     1
 77
     6
 78
     2
 67
     7
 79
     5
170
     0
171
     0
290
     0
174
     0
 93
        1
 44
0.0
173
     0
291
     1
 45
0.0
1001
ACAD
1000
AcDbSavedByObjectVersion
1070
     0
  0
VISUALSTYLE
  5
33
102
{ACAD_REACTORS
330
2A
102
}
330
2A
100
AcDbVisualStyle
  2
Realistic
 70
     8
 71
     2
 72
     2
 73
     0
 90
        0
 40
-0.6
 41
-30.0
 62
     5
 63
     7
421
 16777215
 74
     1
 91
        0
 64
     7
 65
   257
 75
     1
175
     1
 42
1.0
 92
        8
 66
     8
424
  7895160
 43
1.0
 76
     1
 77
     6
 78
     2
 67
     7
 79
     5
170
     0
171
     0
290
     0
174
     0
 93
       13
 44
0.0
173
     0
291
     0
 45
0.0
1001
ACAD
1000
AcDbSavedByObjectVersion
1070
     0
  0
VISUALSTYLE
  5
37
102
{ACAD_REACTORS
330
2A
102
}
330
2A
100
AcDbVisualStyle
  2
Thicken
 70
    13
 71
     2
 72
     2
 73
     0
 90
        0
 40
-0.6
 41
-30.0
 62
     5
 63
     7
421
 16777215
 74
     1
 91
        4
 64
     7
 65
   257
 75
     1
175
     1
 42
1.0
 92
       12
 66
     7
 43
1.0
 76
     1
 77
     6
 78
     2
 67
     7
 79
     5
170
     0
171
     0
290
     0
174
     0
 93
        1
 44
0.0
173
     0
291
     1
 45
0.0
1001
ACAD
1000
AcDbSavedByObjectVersion
1070
     0
  0
ENDSEC
  0
EOF
