  0
SECTION
  2
HEADER
  9
$ACADVER
  1
AC1018
  9
$ACADMAINTVER
 70
     0
  9
$DWGCODEPAGE
  3
ANSI_932
  9
$INSBASE
 10
0.0
 20
0.0
 30
0.0
  9
$EXTMIN
 10
1.000000000000000E+20
 20
1.000000000000000E+20
 30
1.000000000000000E+20
  9
$EXTMAX
 10
-1.000000000000000E+20
 20
-1.000000000000000E+20
 30
-1.000000000000000E+20
  9
$LIMMIN
 10
0.0
 20
0.0
  9
$LIMMAX
 10
12.0
 20
9.0
  9
$ORTHOMODE
 70
     0
  9
$REGENMODE
 70
     1
  9
$FILLMODE
 70
     1
  9
$QTEXTMODE
 70
     0
  9
$MIRRTEXT
 70
     1
  9
$LTSCALE
 40
1.0
  9
$ATTMODE
 70
     1
  9
$TEXTSIZE
 40
0.2
  9
$TRACEWID
 40
0.05
  9
$TEXTSTYLE
  7
Standard
  9
$CLAYER
  8
0
  9
$CELTYPE
  6
ByLayer
  9
$CECOLOR
 62
   256
  9
$CELTSCALE
 40
1.0
  9
$DISPSILH
 70
     0
  9
$DIMSCALE
 40
1.0
  9
$DIMASZ
 40
0.18
  9
$DIMEXO
 40
0.0625
  9
$DIMDLI
 40
0.38
  9
$DIMRND
 40
0.0
  9
$DIMDLE
 40
0.0
  9
$DIMEXE
 40
0.18
  9
$DIMTP
 40
0.0
  9
$DIMTM
 40
0.0
  9
$DIMTXT
 40
0.18
  9
$DIMCEN
 40
0.09
  9
$DIMTSZ
 40
0.0
  9
$DIMTOL
 70
     0
  9
$DIMLIM
 70
     0
  9
$DIMTIH
 70
     1
  9
$DIMTOH
 70
     1
  9
$DIMSE1
 70
     0
  9
$DIMSE2
 70
     0
  9
$DIMTAD
 70
     0
  9
$DIMZIN
 70
     0
  9
$DIMBLK
  1

  9
$DIMASO
 70
     1
  9
$DIMSHO
 70
     1
  9
$DIMPOST
  1

  9
$DIMAPOST
  1

  9
$DIMALT
 70
     0
  9
$DIMALTD
 70
     2
  9
$DIMALTF
 40
25.4
  9
$DIMLFAC
 40
1.0
  9
$DIMTOFL
 70
     0
  9
$DIMTVP
 40
0.0
  9
$DIMTIX
 70
     0
  9
$DIMSOXD
 70
     0
  9
$DIMSAH
 70
     0
  9
$DIMBLK1
  1

  9
$DIMBLK2
  1

  9
$DIMSTYLE
  2
Standard
  9
$DIMCLRD
 70
     0
  9
$DIMCLRE
 70
     0
  9
$DIMCLRT
 70
     0
  9
$DIMTFAC
 40
1.0
  9
$DIMGAP
 40
0.09
  9
$DIMJUST
 70
     0
  9
$DIMSD1
 70
     0
  9
$DIMSD2
 70
     0
  9
$DIMTOLJ
 70
     1
  9
$DIMTZIN
 70
     0
  9
$DIMALTZ
 70
     0
  9
$DIMALTTZ
 70
     0
  9
$DIMUPT
 70
     0
  9
$DIMDEC
 70
     4
  9
$DIMTDEC
 70
     4
  9
$DIMALTU
 70
     2
  9
$DIMALTTD
 70
     2
  9
$DIMTXSTY
  7
Standard
  9
$DIMAUNIT
 70
     0
  9
$DIMADEC
 70
     0
  9
$DIMALTRND
 40
0.0
  9
$DIMAZIN
 70
     0
  9
$DIMDSEP
 70
    46
  9
$DIMATFIT
 70
     3
  9
$DIMFRAC
 70
     0
  9
$DIMLDRBLK
  1

  9
$DIMLUNIT
 70
     2
  9
$DIMLWD
 70
    -2
  9
$DIMLWE
 70
    -2
  9
$DIMTMOVE
 70
     0
  9
$LUNITS
 70
     2
  9
$LUPREC
 70
     4
  9
$SKETCHINC
 40
0.1
  9
$FILLETRAD
 40
0.5
  9
$AUNITS
 70
     0
  9
$AUPREC
 70
     0
  9
$MENU
  1
.
  9
$ELEVATION
 40
0.0
  9
$PELEVATION
 40
0.0
  9
$THICKNESS
 40
0.0
  9
$LIMCHECK
 70
     0
  9
$CHAMFERA
 40
0.5
  9
$CHAMFERB
 40
0.5
  9
$CHAMFERC
 40
1.0
  9
$CHAMFERD
 40
0.0
  9
$SKPOLY
 70
     0
  9
$TDCREATE
 40
2460559.672905093
  9
$TDUCREATE
 40
2460559.589571759
  9
$TDUPDATE
 40
2460559.672905104
  9
$TDUUPDATE
 40
2460559.589571771
  9
$TDINDWG
 40
0.0000000116
  9
$TDUSRTIMER
 40
0.0000000116
  9
$USRTIMER
 70
     1
  9
$ANGBASE
 50
0.0
  9
$ANGDIR
 70
     0
  9
$PDMODE
 70
     0
  9
$PDSIZE
 40
0.0
  9
$PLINEWID
 40
0.0
  9
$SPLFRAME
 70
     0
  9
$SPLINETYPE
 70
     6
  9
$SPLINESEGS
 70
     8
  9
$HANDSEED
  5
468
  9
$SURFTAB1
 70
     6
  9
$SURFTAB2
 70
     6
  9
$SURFTYPE
 70
     6
  9
$SURFU
 70
     6
  9
$SURFV
 70
     6
  9
$UCSBASE
  2

  9
$UCSNAME
  2

  9
$UCSORG
 10
0.0
 20
0.0
 30
0.0
  9
$UCSXDIR
 10
1.0
 20
0.0
 30
0.0
  9
$UCSYDIR
 10
0.0
 20
1.0
 30
0.0
  9
$UCSORTHOREF
  2

  9
$UCSORTHOVIEW
 70
     0
  9
$UCSORGTOP
 10
0.0
 20
0.0
 30
0.0
  9
$UCSORGBOTTOM
 10
0.0
 20
0.0
 30
0.0
  9
$UCSORGLEFT
 10
0.0
 20
0.0
 30
0.0
  9
$UCSORGRIGHT
 10
0.0
 20
0.0
 30
0.0
  9
$UCSORGFRONT
 10
0.0
 20
0.0
 30
0.0
  9
$UCSORGBACK
 10
0.0
 20
0.0
 30
0.0
  9
$PUCSBASE
  2

  9
$PUCSNAME
  2

  9
$PUCSORG
 10
0.0
 20
0.0
 30
0.0
  9
$PUCSXDIR
 10
1.0
 20
0.0
 30
0.0
  9
$PUCSYDIR
 10
0.0
 20
1.0
 30
0.0
  9
$PUCSORTHOREF
  2

  9
$PUCSORTHOVIEW
 70
     0
  9
$PUCSORGTOP
 10
0.0
 20
0.0
 30
0.0
  9
$PUCSORGBOTTOM
 10
0.0
 20
0.0
 30
0.0
  9
$PUCSORGLEFT
 10
0.0
 20
0.0
 30
0.0
  9
$PUCSORGRIGHT
 10
0.0
 20
0.0
 30
0.0
  9
$PUCSORGFRONT
 10
0.0
 20
0.0
 30
0.0
  9
$PUCSORGBACK
 10
0.0
 20
0.0
 30
0.0
  9
$USERI1
 70
     0
  9
$USERI2
 70
     0
  9
$USERI3
 70
     0
  9
$USERI4
 70
     0
  9
$USERI5
 70
     0
  9
$USERR1
 40
0.0
  9
$USERR2
 40
0.0
  9
$USERR3
 40
0.0
  9
$USERR4
 40
0.0
  9
$USERR5
 40
0.0
  9
$WORLDVIEW
 70
     1
  9
$SHADEDGE
 70
     3
  9
$SHADEDIF
 70
    70
  9
$TILEMODE
 70
     1
  9
$MAXACTVP
 70
    64
  9
$PINSBASE
 10
0.0
 20
0.0
 30
0.0
  9
$PLIMCHECK
 70
     0
  9
$PEXTMIN
 10
1.000000000000000E+20
 20
1.000000000000000E+20
 30
1.000000000000000E+20
  9
$PEXTMAX
 10
-1.000000000000000E+20
 20
-1.000000000000000E+20
 30
-1.000000000000000E+20
  9
$PLIMMIN
 10
0.0
 20
0.0
  9
$PLIMMAX
 10
12.0
 20
9.0
  9
$UNITMODE
 70
     0
  9
$VISRETAIN
 70
     1
  9
$PLINEGEN
 70
     0
  9
$PSLTSCALE
 70
     1
  9
$TREEDEPTH
 70
  3020
  9
$CMLSTYLE
  2
Standard
  9
$CMLJUST
 70
     0
  9
$CMLSCALE
 40
1.0
  9
$PROXYGRAPHICS
 70
     1
  9
$MEASUREMENT
 70
     0
  9
$CELWEIGHT
370
    -1
  9
$ENDCAPS
280
     0
  9
$JOINSTYLE
280
     0
  9
$LWDISPLAY
290
     1
  9
$INSUNITS
 70
     1
  9
$HYPERLINKBASE
  1

  9
$STYLESHEET
  1

  9
$XEDIT
290
     1
  9
$CEPSNTYPE
380
     0
  9
$PSTYLEMODE
290
     1
  9
$FINGERPRINTGUID
  2
{39A11857-2B07-3A01-E8F8-63BFD7E59FF5}
  9
$VERSIONGUID
  2
{FAEB1C32-E019-11D5-929B-00C0DF256EC4}
  9
$EXTNAMES
290
     1
  9
$PSVPSCALE
 40
0.0
  9
$OLESTARTUP
290
     0
  9
$SORTENTS
280
   127
  9
$INDEXCTL
280
     0
  9
$HIDETEXT
280
     1
  9
$XCLIPFRAME
290
     0
  9
$HALOGAP
280
     0
  9
$OBSCOLOR
 70
   257
  9
$OBSLTYPE
280
     0
  9
$INTERSECTIONDISPLAY
280
     0
  9
$INTERSECTIONCOLOR
 70
   257
  9
$DIMASSOC
280
     2
  9
$PROJECTNAME
  1

  0
ENDSEC
  0
SECTION
  2
CLASSES
  0
CLASS
  1
ACDBDICTIONARYWDFLT
  2
AcDbDictionaryWithDefault
  3
ObjectDBX Classes
 90
        0
 91
        3
280
     0
281
     0
  0
CLASS
  1
VISUALSTYLE
  2
AcDbVisualStyle
  3
ObjectDBX Classes
 90
     4095
 91
        3
280
     0
281
     0
  0
ENDSEC
  0
SECTION
  2
TABLES
  0
TABLE
  2
VPORT
  5
8
330
0
100
AcDbSymbolTable
 70
     1
  0
VPORT
  5
29
330
8
100
AcDbSymbolTableRecord
100
AcDbViewportTableRecord
  2
*Active
 70
     0
 10
0.0
 20
0.0
 11
1.0
 21
1.0
 12
0.0
 22
0.0
 13
0.0
 23
0.0
 14
0.5
 24
0.5
 15
0.5
 25
0.5
 16
0.0
 26
0.0
 36
1.0
 17
4.133890787760416
 27
-5.846455891927083
 37
0.0
 40
11.69291178385417
 41
0.7070763662937378
 42
50.0
 43
0.0
 44
0.0
 50
0.0
 51
0.0
 71
     0
 72
   100
 73
     1
 74
     3
 75
     0
 76
     0
 77
     0
 78
     0
281
     0
 65
     1
110
0.0
120
0.0
130
0.0
111
1.0
121
0.0
131
0.0
112
0.0
122
1.0
132
0.0
 79
     0
146
0.0
  0
ENDTAB
  0
TABLE
  2
LTYPE
  5
5
330
0
100
AcDbSymbolTable
 70
     1
  0
LTYPE
  5
14
330
5
100
AcDbSymbolTableRecord
100
AcDbLinetypeTableRecord
  2
ByBlock
 70
     0
  3

 72
    65
 73
     0
 40
0.0
  0
LTYPE
  5
15
330
5
100
AcDbSymbolTableRecord
100
AcDbLinetypeTableRecord
  2
ByLayer
 70
     0
  3

 72
    65
 73
     0
 40
0.0
  0
LTYPE
  5
16
330
5
100
AcDbSymbolTableRecord
100
AcDbLinetypeTableRecord
  2
Continuous
 70
     0
  3
Solid line
 72
    65
 73
     0
 40
0.0
  0
ENDTAB
  0
TABLE
  2
LAYER
  5
2
330
0
100
AcDbSymbolTable
 70
     2
  0
LAYER
  5
10
330
2
100
AcDbSymbolTableRecord
100
AcDbLayerTableRecord
  2
0
 70
     0
 62
     7
  6
Continuous
370
    -3
390
F
  0
LAYER
  5
3B
330
2
100
AcDbSymbolTableRecord
100
AcDbLayerTableRecord
  2
Layer 1
 70
     0
 62
     7
  6
Continuous
370
    -3
390
F
  0
ENDTAB
  0
TABLE
  2
STYLE
  5
3
330
0
100
AcDbSymbolTable
 70
     1
  0
STYLE
  5
11
330
3
100
AcDbSymbolTableRecord
100
AcDbTextStyleTableRecord
  2
Standard
 70
     0
 40
0.0
 41
1.0
 50
0.0
 71
     0
 42
0.2
  3
txt
  4

  0
ENDTAB
  0
TABLE
  2
VIEW
  5
6
330
0
100
AcDbSymbolTable
 70
     0
  0
ENDTAB
  0
TABLE
  2
UCS
  5
7
330
0
100
AcDbSymbolTable
 70
     0
  0
ENDTAB
  0
TABLE
  2
APPID
  5
9
330
0
100
AcDbSymbolTable
 70
     1
  0
APPID
  5
12
330
9
100
AcDbSymbolTableRecord
100
AcDbRegAppTableRecord
  2
ACAD
 70
     0
  0
ENDTAB
  0
TABLE
  2
DIMSTYLE
  5
A
330
0
100
AcDbSymbolTable
 70
     1
100
AcDbDimStyleTable
  0
DIMSTYLE
105
27
330
A
100
AcDbSymbolTableRecord
100
AcDbDimStyleTableRecord
  2
Standard
 70
     0
340
11
  0
ENDTAB
  0
TABLE
  2
BLOCK_RECORD
  5
1
330
0
100
AcDbSymbolTable
 70
     1
  0
BLOCK_RECORD
  5
1F
330
1
100
AcDbSymbolTableRecord
100
AcDbBlockTableRecord
  2
*Model_Space
340
22
  0
BLOCK_RECORD
  5
1B
330
1
100
AcDbSymbolTableRecord
100
AcDbBlockTableRecord
  2
*Paper_Space
340
1E
  0
BLOCK_RECORD
  5
23
330
1
100
AcDbSymbolTableRecord
100
AcDbBlockTableRecord
  2
*Paper_Space0
340
26
  0
ENDTAB
  0
ENDSEC
  0
SECTION
  2
BLOCKS
  0
BLOCK
  5
20
330
1F
100
AcDbEntity
  8
0
100
AcDbBlockBegin
  2
*Model_Space
 70
     0
 71
     0
 10
0.0
 20
0.0
 30
0.0
  3
*Model_Space
  1

  0
ENDBLK
  5
21
330
1F
100
AcDbEntity
  8
0
100
AcDbBlockEnd
  0
BLOCK
  5
1C
330
1B
100
AcDbEntity
 67
     1
  8
0
100
AcDbBlockBegin
  2
*Paper_Space
 70
     0
 71
     0
 10
0.0
 20
0.0
 30
0.0
  3
*Paper_Space
  1

  0
ENDBLK
  5
1D
330
1B
100
AcDbEntity
 67
     1
  8
0
100
AcDbBlockEnd
  0
BLOCK
  5
24
330
23
100
AcDbEntity
  8
0
100
AcDbBlockBegin
  2
*Paper_Space0
 70
     0
 71
     0
 10
0.0
 20
0.0
 30
0.0
  3
*Paper_Space0
  1

  0
ENDBLK
  5
25
330
23
100
AcDbEntity
  8
0
100
AcDbBlockEnd
  0
ENDSEC
  0
SECTION
  2
ENTITIES
  0
POLYLINE
  5
3C
330
1F
100
AcDbEntity
  8
Layer 1
370
     0
100
AcDb2dPolyline
 66
     1
 10
0.0
 20
0.0
 30
0.0
  0
VERTEX
  5
3D
330
3C
100
AcDbEntity
  8
Layer 1
370
     0
100
AcDbVertex
100
AcDb2dVertex
 10
8.230821397569445
 20
-6.817599826388888
 30
0.0
  0
VERTEX
  5
3E
330
3C
100
AcDbEntity
  8
Layer 1
370
     0
100
AcDbVertex
100
AcDb2dVertex
 10
7.901394314236111
 20
-6.817599826388888
 30
0.0
  0
VERTEX
  5
3F
330
3C
100
AcDbEntity
  8
Layer 1
370
     0
100
AcDbVertex
100
AcDb2dVertex
 10
7.901394314236111
 20
-6.539849175347221
 30
0.0
  0
VERTEX
  5
40
330
3C
100
AcDbEntity
  8
Layer 1
370
     0
100
AcDbVertex
100
AcDb2dVertex
 10
8.140394422743055
 20
-6.539849175347221
 30
0.0
  0
VERTEX
  5
41
330
3C
100
AcDbEntity
  8
Layer 1
370
     0
100
AcDbVertex
100
AcDb2dVertex
 10
8.140421549479166
 20
-6.539849175347221
 30
0.0
  0
VERTEX
  5
42
330
3C
100
AcDbEntity
  8
Layer 1
370
     0
100
AcDbVertex
100
AcDb2dVertex
 10
8.230821397569445
 20
-6.449367947048611
 30
0.0
  0
VERTEX
  5
43
330
3C
100
AcDbEntity
  8
Layer 1
370
     0
100
AcDbVertex
100
AcDb2dVertex
 10
8.230821397569445
 20
-6.264702690972221
 30
0.0
  0
VERTEX
  5
44
330
3C
100
AcDbEntity
  8
Layer 1
370
     0
100
AcDbVertex
100
AcDb2dVertex
 10
8.1270751953125
 20
-6.160834418402778
 30
0.0
  0
VERTEX
  5
45
330
3C
100
AcDbEntity
  8
Layer 1
370
     0
100
AcDbVertex
100
AcDb2dVertex
 10
8.230821397569445
 20
-6.057115342881944
 30
0.0
  0
VERTEX
  5
46
330
3C
100
AcDbEntity
  8
Layer 1
370
     0
100
AcDbVertex
100
AcDb2dVertex
 10
8.230821397569445
 20
-5.873019748263888
 30
0.0
  0
VERTEX
  5
47
330
3C
100
AcDbEntity
  8
Layer 1
370
     0
100
AcDbVertex
100
AcDb2dVertex
 10
8.034979926215277
 20
-6.068861219618055
 30
0.0
  0
VERTEX
  5
48
330
3C
100
AcDbEntity
  8
Layer 1
370
     0
100
AcDbVertex
100
AcDb2dVertex
 10
7.960910373263888
 20
-5.994764539930555
 30
0.0
  0
VERTEX
  5
49
330
3C
100
AcDbEntity
  8
Layer 1
370
     0
100
AcDbVertex
100
AcDb2dVertex
 10
8.157090928819445
 20
-5.798583984375
 30
0.0
  0
VERTEX
  5
4A
330
3C
100
AcDbEntity
  8
Layer 1
370
     0
100
AcDbVertex
100
AcDb2dVertex
 10
7.960910373263888
 20
-5.602444118923611
 30
0.0
  0
VERTEX
  5
4B
330
3C
100
AcDbEntity
  8
Layer 1
370
     0
100
AcDbVertex
100
AcDb2dVertex
 10
8.034979926215277
 20
-5.528347439236111
 30
0.0
  0
VERTEX
  5
4C
330
3C
100
AcDbEntity
  8
Layer 1
370
     0
100
AcDbVertex
100
AcDb2dVertex
 10
8.230821397569445
 20
-5.724216037326388
 30
0.0
  0
VERTEX
  5
4D
330
3C
100
AcDbEntity
  8
Layer 1
370
     0
100
AcDbVertex
100
AcDb2dVertex
 10
8.230821397569445
 20
-5.5401611328125
 30
0.0
  0
VERTEX
  5
4E
330
3C
100
AcDbEntity
  8
Layer 1
370
     0
100
AcDbVertex
100
AcDb2dVertex
 10
8.1270751953125
 20
-5.436374240451388
 30
0.0
  0
VERTEX
  5
4F
330
3C
100
AcDbEntity
  8
Layer 1
370
     0
100
AcDbVertex
100
AcDb2dVertex
 10
8.230821397569445
 20
-5.3326416015625
 30
0.0
  0
VERTEX
  5
50
330
3C
100
AcDbEntity
  8
Layer 1
370
     0
100
AcDbVertex
100
AcDb2dVertex
 10
8.230821397569445
 20
-5.147867838541666
 30
0.0
  0
VERTEX
  5
51
330
3C
100
AcDbEntity
  8
Layer 1
370
     0
100
AcDbVertex
100
AcDb2dVertex
 10
8.140421549479166
 20
-5.057467990451388
 30
0.0
  0
VERTEX
  5
52
330
3C
100
AcDbEntity
  8
Layer 1
370
     0
100
AcDbVertex
100
AcDb2dVertex
 10
7.901394314236111
 20
-5.057467990451388
 30
0.0
  0
VERTEX
  5
53
330
3C
100
AcDbEntity
  8
Layer 1
370
     0
100
AcDbVertex
100
AcDb2dVertex
 10
7.901394314236111
 20
-4.7796630859375
 30
0.0
  0
VERTEX
  5
54
330
3C
100
AcDbEntity
  8
Layer 1
370
     0
100
AcDbVertex
100
AcDb2dVertex
 10
8.230821397569445
 20
-4.7796630859375
 30
0.0
  0
VERTEX
  5
55
330
3C
100
AcDbEntity
  8
Layer 1
370
     0
100
AcDbVertex
100
AcDb2dVertex
 10
8.230821397569445
 20
-4.649509006076388
 30
0.0
  0
VERTEX
  5
56
330
3C
100
AcDbEntity
  8
Layer 1
370
     0
100
AcDbVertex
100
AcDb2dVertex
 10
7.771213107638888
 20
-4.649509006076388
 30
0.0
  0
VERTEX
  5
57
330
3C
100
AcDbEntity
  8
Layer 1
370
     0
100
AcDbVertex
100
AcDb2dVertex
 10
7.045979817708333
 20
-4.649509006076388
 30
0.0
  0
VERTEX
  5
58
330
3C
100
AcDbEntity
  8
Layer 1
370
     0
100
AcDbVertex
100
AcDb2dVertex
 10
6.126044379340278
 20
-4.649509006076388
 30
0.0
  0
VERTEX
  5
59
330
3C
100
AcDbEntity
  8
Layer 1
370
     0
100
AcDbVertex
100
AcDb2dVertex
 10
5.401082356770833
 20
-4.649509006076388
 30
0.0
  0
VERTEX
  5
5A
330
3C
100
AcDbEntity
  8
Layer 1
370
     0
100
AcDbVertex
100
AcDb2dVertex
 10
4.481201171875
 20
-4.649509006076388
 30
0.0
  0
VERTEX
  5
5B
330
3C
100
AcDbEntity
  8
Layer 1
370
     0
100
AcDbVertex
100
AcDb2dVertex
 10
3.755886501736111
 20
-4.649509006076388
 30
0.0
  0
VERTEX
  5
5C
330
3C
100
AcDbEntity
  8
Layer 1
370
     0
100
AcDbVertex
100
AcDb2dVertex
 10
2.836005316840278
 20
-4.649509006076388
 30
0.0
  0
VERTEX
  5
5D
330
3C
100
AcDbEntity
  8
Layer 1
370
     0
100
AcDbVertex
100
AcDb2dVertex
 10
2.110934787326389
 20
-4.649509006076388
 30
0.0
  0
VERTEX
  5
5E
330
3C
100
AcDbEntity
  8
Layer 1
370
     0
100
AcDbVertex
100
AcDb2dVertex
 10
1.191080729166667
 20
-4.649509006076388
 30
0.0
  0
VERTEX
  5
5F
330
3C
100
AcDbEntity
  8
Layer 1
370
     0
100
AcDbVertex
100
AcDb2dVertex
 10
0.4657864040798611
 20
-4.649509006076388
 30
0.0
  0
VERTEX
  5
60
330
3C
100
AcDbEntity
  8
Layer 1
370
     0
100
AcDbVertex
100
AcDb2dVertex
 10
0.0057305230034722
 20
-4.649509006076388
 30
0.0
  0
VERTEX
  5
61
330
3C
100
AcDbEntity
  8
Layer 1
370
     0
100
AcDbVertex
100
AcDb2dVertex
 10
0.0057305230034722
 20
-4.7796630859375
 30
0.0
  0
VERTEX
  5
62
330
3C
100
AcDbEntity
  8
Layer 1
370
     0
100
AcDbVertex
100
AcDb2dVertex
 10
0.3357001410590277
 20
-4.7796630859375
 30
0.0
  0
VERTEX
  5
63
330
3C
100
AcDbEntity
  8
Layer 1
370
     0
100
AcDbVertex
100
AcDb2dVertex
 10
0.3357001410590277
 20
-5.057467990451388
 30
0.0
  0
VERTEX
  5
64
330
3C
100
AcDbEntity
  8
Layer 1
370
     0
100
AcDbVertex
100
AcDb2dVertex
 10
0.0965237087673611
 20
-5.057467990451388
 30
0.0
  0
VERTEX
  5
65
330
3C
100
AcDbEntity
  8
Layer 1
370
     0
100
AcDbVertex
100
AcDb2dVertex
 10
0.0058322482638889
 20
-5.148193359375
 30
0.0
  0
VERTEX
  5
66
330
3C
100
AcDbEntity
  8
Layer 1
370
     0
100
AcDbVertex
100
AcDb2dVertex
 10
0.0057305230034722
 20
-5.148098415798611
 30
0.0
  0
VERTEX
  5
67
330
3C
100
AcDbEntity
  8
Layer 1
370
     0
100
AcDbVertex
100
AcDb2dVertex
 10
0.0057305230034722
 20
-5.332302517361111
 30
0.0
  0
VERTEX
  5
68
330
3C
100
AcDbEntity
  8
Layer 1
370
     0
100
AcDbVertex
100
AcDb2dVertex
 10
0.0058322482638889
 20
-5.332221137152778
 30
0.0
  0
VERTEX
  5
69
330
3C
100
AcDbEntity
  8
Layer 1
370
     0
100
AcDbVertex
100
AcDb2dVertex
 10
0.1099378797743056
 20
-5.436374240451388
 30
0.0
  0
VERTEX
  5
6A
330
3C
100
AcDbEntity
  8
Layer 1
370
     0
100
AcDbVertex
100
AcDb2dVertex
 10
0.0058322482638889
 20
-5.540473090277778
 30
0.0
  0
VERTEX
  5
6B
330
3C
100
AcDbEntity
  8
Layer 1
370
     0
100
AcDbVertex
100
AcDb2dVertex
 10
0.0057305230034722
 20
-5.540473090277778
 30
0.0
  0
VERTEX
  5
6C
330
3C
100
AcDbEntity
  8
Layer 1
370
     0
100
AcDbVertex
100
AcDb2dVertex
 10
0.0057305230034722
 20
-5.724460177951388
 30
0.0
  0
VERTEX
  5
6D
330
3C
100
AcDbEntity
  8
Layer 1
370
     0
100
AcDbVertex
100
AcDb2dVertex
 10
0.0058322482638889
 20
-5.724514431423611
 30
0.0
  0
VERTEX
  5
6E
330
3C
100
AcDbEntity
  8
Layer 1
370
     0
100
AcDbVertex
100
AcDb2dVertex
 10
0.20196533203125
 20
-5.528347439236111
 30
0.0
  0
VERTEX
  5
6F
330
3C
100
AcDbEntity
  8
Layer 1
370
     0
100
AcDbVertex
100
AcDb2dVertex
 10
0.2761298285590278
 20
-5.602579752604166
 30
0.0
  0
VERTEX
  5
70
330
3C
100
AcDbEntity
  8
Layer 1
370
     0
100
AcDbVertex
100
AcDb2dVertex
 10
0.0800916883680556
 20
-5.798583984375
 30
0.0
  0
VERTEX
  5
71
330
3C
100
AcDbEntity
  8
Layer 1
370
     0
100
AcDbVertex
100
AcDb2dVertex
 10
0.2761298285590278
 20
-5.994615342881944
 30
0.0
  0
VERTEX
  5
72
330
3C
100
AcDbEntity
  8
Layer 1
370
     0
100
AcDbVertex
100
AcDb2dVertex
 10
0.20196533203125
 20
-6.068861219618055
 30
0.0
  0
VERTEX
  5
73
330
3C
100
AcDbEntity
  8
Layer 1
370
     0
100
AcDbVertex
100
AcDb2dVertex
 10
0.0058322482638889
 20
-5.872694227430555
 30
0.0
  0
VERTEX
  5
74
330
3C
100
AcDbEntity
  8
Layer 1
370
     0
100
AcDbVertex
100
AcDb2dVertex
 10
0.0057305230034722
 20
-5.872802734375
 30
0.0
  0
VERTEX
  5
75
330
3C
100
AcDbEntity
  8
Layer 1
370
     0
100
AcDbVertex
100
AcDb2dVertex
 10
0.0057305230034722
 20
-6.056789822048611
 30
0.0
  0
VERTEX
  5
76
330
3C
100
AcDbEntity
  8
Layer 1
370
     0
100
AcDbVertex
100
AcDb2dVertex
 10
0.0058322482638889
 20
-6.056722005208333
 30
0.0
  0
VERTEX
  5
77
330
3C
100
AcDbEntity
  8
Layer 1
370
     0
100
AcDbVertex
100
AcDb2dVertex
 10
0.1099378797743056
 20
-6.160834418402778
 30
0.0
  0
VERTEX
  5
78
330
3C
100
AcDbEntity
  8
Layer 1
370
     0
100
AcDbVertex
100
AcDb2dVertex
 10
0.0058322482638889
 20
-6.264946831597221
 30
0.0
  0
VERTEX
  5
79
330
3C
100
AcDbEntity
  8
Layer 1
370
     0
100
AcDbVertex
100
AcDb2dVertex
 10
0.0057305230034722
 20
-6.264946831597221
 30
0.0
  0
VERTEX
  5
7A
330
3C
100
AcDbEntity
  8
Layer 1
370
     0
100
AcDbVertex
100
AcDb2dVertex
 10
0.0057305230034722
 20
-6.4490966796875
 30
0.0
  0
VERTEX
  5
7B
330
3C
100
AcDbEntity
  8
Layer 1
370
     0
100
AcDbVertex
100
AcDb2dVertex
 10
0.0058322482638889
 20
-6.449042426215278
 30
0.0
  0
VERTEX
  5
7C
330
3C
100
AcDbEntity
  8
Layer 1
370
     0
100
AcDbVertex
100
AcDb2dVertex
 10
0.0965237087673611
 20
-6.539849175347221
 30
0.0
  0
VERTEX
  5
7D
330
3C
100
AcDbEntity
  8
Layer 1
370
     0
100
AcDbVertex
100
AcDb2dVertex
 10
0.3357001410590277
 20
-6.539849175347221
 30
0.0
  0
VERTEX
  5
7E
330
3C
100
AcDbEntity
  8
Layer 1
370
     0
100
AcDbVertex
100
AcDb2dVertex
 10
0.3357001410590277
 20
-6.817599826388888
 30
0.0
  0
VERTEX
  5
7F
330
3C
100
AcDbEntity
  8
Layer 1
370
     0
100
AcDbVertex
100
AcDb2dVertex
 10
0.0057305230034722
 20
-6.817599826388888
 30
0.0
  0
VERTEX
  5
80
330
3C
100
AcDbEntity
  8
Layer 1
370
     0
100
AcDbVertex
100
AcDb2dVertex
 10
0.0057305230034722
 20
-6.947726779513888
 30
0.0
  0
VERTEX
  5
81
330
3C
100
AcDbEntity
  8
Layer 1
370
     0
100
AcDbVertex
100
AcDb2dVertex
 10
0.4657864040798611
 20
-6.947726779513888
 30
0.0
  0
VERTEX
  5
82
330
3C
100
AcDbEntity
  8
Layer 1
370
     0
100
AcDbVertex
100
AcDb2dVertex
 10
1.191080729166667
 20
-6.947726779513888
 30
0.0
  0
VERTEX
  5
83
330
3C
100
AcDbEntity
  8
Layer 1
370
     0
100
AcDbVertex
100
AcDb2dVertex
 10
2.110934787326389
 20
-6.947726779513888
 30
0.0
  0
VERTEX
  5
84
330
3C
100
AcDbEntity
  8
Layer 1
370
     0
100
AcDbVertex
100
AcDb2dVertex
 10
2.836005316840278
 20
-6.947726779513888
 30
0.0
  0
VERTEX
  5
85
330
3C
100
AcDbEntity
  8
Layer 1
370
     0
100
AcDbVertex
100
AcDb2dVertex
 10
3.755886501736111
 20
-6.947726779513888
 30
0.0
  0
VERTEX
  5
86
330
3C
100
AcDbEntity
  8
Layer 1
370
     0
100
AcDbVertex
100
AcDb2dVertex
 10
4.481201171875
 20
-6.947726779513888
 30
0.0
  0
VERTEX
  5
87
330
3C
100
AcDbEntity
  8
Layer 1
370
     0
100
AcDbVertex
100
AcDb2dVertex
 10
5.401082356770833
 20
-6.947726779513888
 30
0.0
  0
VERTEX
  5
88
330
3C
100
AcDbEntity
  8
Layer 1
370
     0
100
AcDbVertex
100
AcDb2dVertex
 10
6.126044379340278
 20
-6.947726779513888
 30
0.0
  0
VERTEX
  5
89
330
3C
100
AcDbEntity
  8
Layer 1
370
     0
100
AcDbVertex
100
AcDb2dVertex
 10
7.045979817708333
 20
-6.947726779513888
 30
0.0
  0
VERTEX
  5
8A
330
3C
100
AcDbEntity
  8
Layer 1
370
     0
100
AcDbVertex
100
AcDb2dVertex
 10
7.771213107638888
 20
-6.947726779513888
 30
0.0
  0
VERTEX
  5
8B
330
3C
100
AcDbEntity
  8
Layer 1
370
     0
100
AcDbVertex
100
AcDb2dVertex
 10
8.230821397569445
 20
-6.947726779513888
 30
0.0
  0
VERTEX
  5
8C
330
3C
100
AcDbEntity
  8
Layer 1
370
     0
100
AcDbVertex
100
AcDb2dVertex
 10
8.230821397569445
 20
-6.817599826388888
 30
0.0
  0
SEQEND
  5
8D
330
3C
100
AcDbEntity
  8
Layer 1
370
     0
  0
POLYLINE
  5
8E
330
1F
100
AcDbEntity
  8
Layer 1
370
     0
100
AcDb2dPolyline
 66
     1
 10
0.0
 20
0.0
 30
0.0
  0
VERTEX
  5
8F
330
8E
100
AcDbEntity
  8
Layer 1
370
     0
100
AcDbVertex
100
AcDb2dVertex
 10
8.034979926215277
 20
-6.2529296875
 30
0.0
  0
VERTEX
  5
90
330
8E
100
AcDbEntity
  8
Layer 1
370
     0
100
AcDbVertex
100
AcDb2dVertex
 10
8.139105902777777
 20
-6.357014973958333
 30
0.0
  0
VERTEX
  5
91
330
8E
100
AcDbEntity
  8
Layer 1
370
     0
100
AcDbVertex
100
AcDb2dVertex
 10
8.086480034722221
 20
-6.409613715277778
 30
0.0
  0
VERTEX
  5
92
330
8E
100
AcDbEntity
  8
Layer 1
370
     0
100
AcDbVertex
100
AcDb2dVertex
 10
7.901394314236111
 20
-6.409613715277778
 30
0.0
  0
VERTEX
  5
93
330
8E
100
AcDbEntity
  8
Layer 1
370
     0
100
AcDbVertex
100
AcDb2dVertex
 10
7.901394314236111
 20
-6.386528862847221
 30
0.0
  0
VERTEX
  5
94
330
8E
100
AcDbEntity
  8
Layer 1
370
     0
100
AcDbVertex
100
AcDb2dVertex
 10
8.034979926215277
 20
-6.2529296875
 30
0.0
  0
SEQEND
  5
95
330
8E
100
AcDbEntity
  8
Layer 1
370
     0
  0
POLYLINE
  5
96
330
1F
100
AcDbEntity
  8
Layer 1
370
     0
100
AcDb2dPolyline
 66
     1
 10
0.0
 20
0.0
 30
0.0
  0
VERTEX
  5
97
330
96
100
AcDbEntity
  8
Layer 1
370
     0
100
AcDbVertex
100
AcDb2dVertex
 10
7.972954644097221
 20
-5.798583984375
 30
0.0
  0
VERTEX
  5
98
330
96
100
AcDbEntity
  8
Layer 1
370
     0
100
AcDbVertex
100
AcDb2dVertex
 10
7.868869357638888
 20
-5.902723524305555
 30
0.0
  0
VERTEX
  5
99
330
96
100
AcDbEntity
  8
Layer 1
370
     0
100
AcDbVertex
100
AcDb2dVertex
 10
7.764838324652778
 20
-5.798583984375
 30
0.0
  0
VERTEX
  5
9A
330
96
100
AcDbEntity
  8
Layer 1
370
     0
100
AcDbVertex
100
AcDb2dVertex
 10
7.868869357638888
 20
-5.694444444444444
 30
0.0
  0
VERTEX
  5
9B
330
96
100
AcDbEntity
  8
Layer 1
370
     0
100
AcDbVertex
100
AcDb2dVertex
 10
7.972954644097221
 20
-5.798583984375
 30
0.0
  0
SEQEND
  5
9C
330
96
100
AcDbEntity
  8
Layer 1
370
     0
  0
POLYLINE
  5
9D
330
1F
100
AcDbEntity
  8
Layer 1
370
     0
100
AcDb2dPolyline
 66
     1
 10
0.0
 20
0.0
 30
0.0
  0
VERTEX
  5
9E
330
9D
100
AcDbEntity
  8
Layer 1
370
     0
100
AcDbVertex
100
AcDb2dVertex
 10
7.672756618923611
 20
-5.890679253472222
 30
0.0
  0
VERTEX
  5
9F
330
9D
100
AcDbEntity
  8
Layer 1
370
     0
100
AcDbVertex
100
AcDb2dVertex
 10
7.776828342013888
 20
-5.994764539930555
 30
0.0
  0
VERTEX
  5
A0
330
9D
100
AcDbEntity
  8
Layer 1
370
     0
100
AcDbVertex
100
AcDb2dVertex
 10
7.643215603298611
 20
-6.128377278645833
 30
0.0
  0
VERTEX
  5
A1
330
9D
100
AcDbEntity
  8
Layer 1
370
     0
100
AcDbVertex
100
AcDb2dVertex
 10
7.620157877604166
 20
-6.128377278645833
 30
0.0
  0
VERTEX
  5
A2
330
9D
100
AcDbEntity
  8
Layer 1
370
     0
100
AcDbVertex
100
AcDb2dVertex
 10
7.620157877604166
 20
-5.943223741319444
 30
0.0
  0
VERTEX
  5
A3
330
9D
100
AcDbEntity
  8
Layer 1
370
     0
100
AcDbVertex
100
AcDb2dVertex
 10
7.672756618923611
 20
-5.890679253472222
 30
0.0
  0
SEQEND
  5
A4
330
9D
100
AcDbEntity
  8
Layer 1
370
     0
  0
POLYLINE
  5
A5
330
1F
100
AcDbEntity
  8
Layer 1
370
     0
100
AcDb2dPolyline
 66
     1
 10
0.0
 20
0.0
 30
0.0
  0
VERTEX
  5
A6
330
A5
100
AcDbEntity
  8
Layer 1
370
     0
100
AcDbVertex
100
AcDb2dVertex
 10
7.620157877604166
 20
-5.653957790798611
 30
0.0
  0
VERTEX
  5
A7
330
A5
100
AcDbEntity
  8
Layer 1
370
     0
100
AcDbVertex
100
AcDb2dVertex
 10
7.620157877604166
 20
-5.468831380208333
 30
0.0
  0
VERTEX
  5
A8
330
A5
100
AcDbEntity
  8
Layer 1
370
     0
100
AcDbVertex
100
AcDb2dVertex
 10
7.643215603298611
 20
-5.468831380208333
 30
0.0
  0
VERTEX
  5
A9
330
A5
100
AcDbEntity
  8
Layer 1
370
     0
100
AcDbVertex
100
AcDb2dVertex
 10
7.776828342013888
 20
-5.602444118923611
 30
0.0
  0
VERTEX
  5
AA
330
A5
100
AcDbEntity
  8
Layer 1
370
     0
100
AcDbVertex
100
AcDb2dVertex
 10
7.672756618923611
 20
-5.706610785590278
 30
0.0
  0
VERTEX
  5
AB
330
A5
100
AcDbEntity
  8
Layer 1
370
     0
100
AcDbVertex
100
AcDb2dVertex
 10
7.620157877604166
 20
-5.653957790798611
 30
0.0
  0
SEQEND
  5
AC
330
A5
100
AcDbEntity
  8
Layer 1
370
     0
  0
POLYLINE
  5
AD
330
1F
100
AcDbEntity
  8
Layer 1
370
     0
100
AcDb2dPolyline
 66
     1
 10
0.0
 20
0.0
 30
0.0
  0
VERTEX
  5
AE
330
AD
100
AcDbEntity
  8
Layer 1
370
     0
100
AcDbVertex
100
AcDb2dVertex
 10
7.901394314236111
 20
-5.1876220703125
 30
0.0
  0
VERTEX
  5
AF
330
AD
100
AcDbEntity
  8
Layer 1
370
     0
100
AcDbVertex
100
AcDb2dVertex
 10
8.086480034722221
 20
-5.1876220703125
 30
0.0
  0
VERTEX
  5
B0
330
AD
100
AcDbEntity
  8
Layer 1
370
     0
100
AcDbVertex
100
AcDb2dVertex
 10
8.139105902777777
 20
-5.240193684895833
 30
0.0
  0
VERTEX
  5
B1
330
AD
100
AcDbEntity
  8
Layer 1
370
     0
100
AcDbVertex
100
AcDb2dVertex
 10
8.034979926215277
 20
-5.344333224826388
 30
0.0
  0
VERTEX
  5
B2
330
AD
100
AcDbEntity
  8
Layer 1
370
     0
100
AcDbVertex
100
AcDb2dVertex
 10
7.901394314236111
 20
-5.210679796006944
 30
0.0
  0
VERTEX
  5
B3
330
AD
100
AcDbEntity
  8
Layer 1
370
     0
100
AcDbVertex
100
AcDb2dVertex
 10
7.901394314236111
 20
-5.1876220703125
 30
0.0
  0
SEQEND
  5
B4
330
AD
100
AcDbEntity
  8
Layer 1
370
     0
  0
POLYLINE
  5
B5
330
1F
100
AcDbEntity
  8
Layer 1
370
     0
100
AcDb2dPolyline
 66
     1
 10
0.0
 20
0.0
 30
0.0
  0
VERTEX
  5
B6
330
B5
100
AcDbEntity
  8
Layer 1
370
     0
100
AcDbVertex
100
AcDb2dVertex
 10
7.943006727430555
 20
-5.436374240451388
 30
0.0
  0
VERTEX
  5
B7
330
B5
100
AcDbEntity
  8
Layer 1
370
     0
100
AcDbVertex
100
AcDb2dVertex
 10
7.868869357638888
 20
-5.510443793402778
 30
0.0
  0
VERTEX
  5
B8
330
B5
100
AcDbEntity
  8
Layer 1
370
     0
100
AcDbVertex
100
AcDb2dVertex
 10
7.697102864583333
 20
-5.338650173611111
 30
0.0
  0
VERTEX
  5
B9
330
B5
100
AcDbEntity
  8
Layer 1
370
     0
100
AcDbVertex
100
AcDb2dVertex
 10
7.620157877604166
 20
-5.338650173611111
 30
0.0
  0
VERTEX
  5
BA
330
B5
100
AcDbEntity
  8
Layer 1
370
     0
100
AcDbVertex
100
AcDb2dVertex
 10
7.620157877604166
 20
-5.1876220703125
 30
0.0
  0
VERTEX
  5
BB
330
B5
100
AcDbEntity
  8
Layer 1
370
     0
100
AcDbVertex
100
AcDb2dVertex
 10
7.771213107638888
 20
-5.1876220703125
 30
0.0
  0
VERTEX
  5
BC
330
B5
100
AcDbEntity
  8
Layer 1
370
     0
100
AcDbVertex
100
AcDb2dVertex
 10
7.771213107638888
 20
-5.2645263671875
 30
0.0
  0
VERTEX
  5
BD
330
B5
100
AcDbEntity
  8
Layer 1
370
     0
100
AcDbVertex
100
AcDb2dVertex
 10
7.943006727430555
 20
-5.436374240451388
 30
0.0
  0
SEQEND
  5
BE
330
B5
100
AcDbEntity
  8
Layer 1
370
     0
  0
POLYLINE
  5
BF
330
1F
100
AcDbEntity
  8
Layer 1
370
     0
100
AcDb2dPolyline
 66
     1
 10
0.0
 20
0.0
 30
0.0
  0
VERTEX
  5
C0
330
BF
100
AcDbEntity
  8
Layer 1
370
     0
100
AcDbVertex
100
AcDb2dVertex
 10
7.045979817708333
 20
-4.7796630859375
 30
0.0
  0
VERTEX
  5
C1
330
BF
100
AcDbEntity
  8
Layer 1
370
     0
100
AcDbVertex
100
AcDb2dVertex
 10
7.771213107638888
 20
-4.7796630859375
 30
0.0
  0
VERTEX
  5
C2
330
BF
100
AcDbEntity
  8
Layer 1
370
     0
100
AcDbVertex
100
AcDb2dVertex
 10
7.771213107638888
 20
-5.057467990451388
 30
0.0
  0
VERTEX
  5
C3
330
BF
100
AcDbEntity
  8
Layer 1
370
     0
100
AcDbVertex
100
AcDb2dVertex
 10
7.490044487847221
 20
-5.057467990451388
 30
0.0
  0
VERTEX
  5
C4
330
BF
100
AcDbEntity
  8
Layer 1
370
     0
100
AcDbVertex
100
AcDb2dVertex
 10
7.490044487847221
 20
-5.338650173611111
 30
0.0
  0
VERTEX
  5
C5
330
BF
100
AcDbEntity
  8
Layer 1
370
     0
100
AcDbVertex
100
AcDb2dVertex
 10
7.327202690972221
 20
-5.338650173611111
 30
0.0
  0
VERTEX
  5
C6
330
BF
100
AcDbEntity
  8
Layer 1
370
     0
100
AcDbVertex
100
AcDb2dVertex
 10
7.327202690972221
 20
-5.057467990451388
 30
0.0
  0
VERTEX
  5
C7
330
BF
100
AcDbEntity
  8
Layer 1
370
     0
100
AcDbVertex
100
AcDb2dVertex
 10
7.327080620659721
 20
-5.057467990451388
 30
0.0
  0
VERTEX
  5
C8
330
BF
100
AcDbEntity
  8
Layer 1
370
     0
100
AcDbVertex
100
AcDb2dVertex
 10
7.327080620659721
 20
-5.057467990451388
 30
0.0
  0
VERTEX
  5
C9
330
BF
100
AcDbEntity
  8
Layer 1
370
     0
100
AcDbVertex
100
AcDb2dVertex
 10
7.045979817708333
 20
-5.057467990451388
 30
0.0
  0
VERTEX
  5
CA
330
BF
100
AcDbEntity
  8
Layer 1
370
     0
100
AcDbVertex
100
AcDb2dVertex
 10
7.045979817708333
 20
-4.7796630859375
 30
0.0
  0
SEQEND
  5
CB
330
BF
100
AcDbEntity
  8
Layer 1
370
     0
  0
POLYLINE
  5
CC
330
1F
100
AcDbEntity
  8
Layer 1
370
     0
100
AcDb2dPolyline
 66
     1
 10
0.0
 20
0.0
 30
0.0
  0
VERTEX
  5
CD
330
CC
100
AcDbEntity
  8
Layer 1
370
     0
100
AcDbVertex
100
AcDb2dVertex
 10
7.327080620659721
 20
-5.889322916666666
 30
0.0
  0
VERTEX
  5
CE
330
CC
100
AcDbEntity
  8
Layer 1
370
     0
100
AcDbVertex
100
AcDb2dVertex
 10
7.236382378472221
 20
-5.798583984375
 30
0.0
  0
VERTEX
  5
CF
330
CC
100
AcDbEntity
  8
Layer 1
370
     0
100
AcDbVertex
100
AcDb2dVertex
 10
7.327202690972221
 20
-5.707939995659722
 30
0.0
  0
VERTEX
  5
D0
330
CC
100
AcDbEntity
  8
Layer 1
370
     0
100
AcDbVertex
100
AcDb2dVertex
 10
7.327202690972221
 20
-5.468831380208333
 30
0.0
  0
VERTEX
  5
D1
330
CC
100
AcDbEntity
  8
Layer 1
370
     0
100
AcDbVertex
100
AcDb2dVertex
 10
7.490044487847221
 20
-5.468831380208333
 30
0.0
  0
VERTEX
  5
D2
330
CC
100
AcDbEntity
  8
Layer 1
370
     0
100
AcDbVertex
100
AcDb2dVertex
 10
7.490044487847221
 20
-5.7078857421875
 30
0.0
  0
VERTEX
  5
D3
330
CC
100
AcDbEntity
  8
Layer 1
370
     0
100
AcDbVertex
100
AcDb2dVertex
 10
7.490044487847221
 20
-5.707939995659722
 30
0.0
  0
VERTEX
  5
D4
330
CC
100
AcDbEntity
  8
Layer 1
370
     0
100
AcDbVertex
100
AcDb2dVertex
 10
7.580674913194444
 20
-5.798583984375
 30
0.0
  0
VERTEX
  5
D5
330
CC
100
AcDbEntity
  8
Layer 1
370
     0
100
AcDbVertex
100
AcDb2dVertex
 10
7.490044487847221
 20
-5.889322916666666
 30
0.0
  0
VERTEX
  5
D6
330
CC
100
AcDbEntity
  8
Layer 1
370
     0
100
AcDbVertex
100
AcDb2dVertex
 10
7.490044487847221
 20
-6.128377278645833
 30
0.0
  0
VERTEX
  5
D7
330
CC
100
AcDbEntity
  8
Layer 1
370
     0
100
AcDbVertex
100
AcDb2dVertex
 10
7.327202690972221
 20
-6.128377278645833
 30
0.0
  0
VERTEX
  5
D8
330
CC
100
AcDbEntity
  8
Layer 1
370
     0
100
AcDbVertex
100
AcDb2dVertex
 10
7.327202690972221
 20
-5.889322916666666
 30
0.0
  0
VERTEX
  5
D9
330
CC
100
AcDbEntity
  8
Layer 1
370
     0
100
AcDbVertex
100
AcDb2dVertex
 10
7.327080620659721
 20
-5.889322916666666
 30
0.0
  0
SEQEND
  5
DA
330
CC
100
AcDbEntity
  8
Layer 1
370
     0
  0
POLYLINE
  5
DB
330
1F
100
AcDbEntity
  8
Layer 1
370
     0
100
AcDb2dPolyline
 66
     1
 10
0.0
 20
0.0
 30
0.0
  0
VERTEX
  5
DC
330
DB
100
AcDbEntity
  8
Layer 1
370
     0
100
AcDbVertex
100
AcDb2dVertex
 10
6.481852213541666
 20
-6.160834418402778
 30
0.0
  0
VERTEX
  5
DD
330
DB
100
AcDbEntity
  8
Layer 1
370
     0
100
AcDbVertex
100
AcDb2dVertex
 10
6.585978190104166
 20
-6.056722005208333
 30
0.0
  0
VERTEX
  5
DE
330
DB
100
AcDbEntity
  8
Layer 1
370
     0
100
AcDbVertex
100
AcDb2dVertex
 10
6.6900634765625
 20
-6.160834418402778
 30
0.0
  0
VERTEX
  5
DF
330
DB
100
AcDbEntity
  8
Layer 1
370
     0
100
AcDbVertex
100
AcDb2dVertex
 10
6.585978190104166
 20
-6.264946831597221
 30
0.0
  0
VERTEX
  5
E0
330
DB
100
AcDbEntity
  8
Layer 1
370
     0
100
AcDbVertex
100
AcDb2dVertex
 10
6.481852213541666
 20
-6.160834418402778
 30
0.0
  0
SEQEND
  5
E1
330
DB
100
AcDbEntity
  8
Layer 1
370
     0
  0
POLYLINE
  5
E2
330
1F
100
AcDbEntity
  8
Layer 1
370
     0
100
AcDb2dPolyline
 66
     1
 10
0.0
 20
0.0
 30
0.0
  0
VERTEX
  5
E3
330
E2
100
AcDbEntity
  8
Layer 1
370
     0
100
AcDbVertex
100
AcDb2dVertex
 10
6.493950737847221
 20
-6.357014973958333
 30
0.0
  0
VERTEX
  5
E4
330
E2
100
AcDbEntity
  8
Layer 1
370
     0
100
AcDbVertex
100
AcDb2dVertex
 10
6.441311306423611
 20
-6.409613715277778
 30
0.0
  0
VERTEX
  5
E5
330
E2
100
AcDbEntity
  8
Layer 1
370
     0
100
AcDbVertex
100
AcDb2dVertex
 10
6.256212022569444
 20
-6.409613715277778
 30
0.0
  0
VERTEX
  5
E6
330
E2
100
AcDbEntity
  8
Layer 1
370
     0
100
AcDbVertex
100
AcDb2dVertex
 10
6.256212022569444
 20
-6.386528862847221
 30
0.0
  0
VERTEX
  5
E7
330
E2
100
AcDbEntity
  8
Layer 1
370
     0
100
AcDbVertex
100
AcDb2dVertex
 10
6.3897705078125
 20
-6.252875434027778
 30
0.0
  0
VERTEX
  5
E8
330
E2
100
AcDbEntity
  8
Layer 1
370
     0
100
AcDbVertex
100
AcDb2dVertex
 10
6.493950737847221
 20
-6.357014973958333
 30
0.0
  0
SEQEND
  5
E9
330
E2
100
AcDbEntity
  8
Layer 1
370
     0
  0
POLYLINE
  5
EA
330
1F
100
AcDbEntity
  8
Layer 1
370
     0
100
AcDb2dPolyline
 66
     1
 10
0.0
 20
0.0
 30
0.0
  0
VERTEX
  5
EB
330
EA
100
AcDbEntity
  8
Layer 1
370
     0
100
AcDbVertex
100
AcDb2dVertex
 10
6.585978190104166
 20
-5.872694227430555
 30
0.0
  0
VERTEX
  5
EC
330
EA
100
AcDbEntity
  8
Layer 1
370
     0
100
AcDbVertex
100
AcDb2dVertex
 10
6.3897705078125
 20
-6.068861219618055
 30
0.0
  0
VERTEX
  5
ED
330
EA
100
AcDbEntity
  8
Layer 1
370
     0
100
AcDbVertex
100
AcDb2dVertex
 10
6.315741644965278
 20
-5.994764539930555
 30
0.0
  0
VERTEX
  5
EE
330
EA
100
AcDbEntity
  8
Layer 1
370
     0
100
AcDbVertex
100
AcDb2dVertex
 10
6.511922200520833
 20
-5.798583984375
 30
0.0
  0
VERTEX
  5
EF
330
EA
100
AcDbEntity
  8
Layer 1
370
     0
100
AcDbVertex
100
AcDb2dVertex
 10
6.315741644965278
 20
-5.602444118923611
 30
0.0
  0
VERTEX
  5
F0
330
EA
100
AcDbEntity
  8
Layer 1
370
     0
100
AcDbVertex
100
AcDb2dVertex
 10
6.352715386284721
 20
-5.565483940972222
 30
0.0
  0
VERTEX
  5
F1
330
EA
100
AcDbEntity
  8
Layer 1
370
     0
100
AcDbVertex
100
AcDb2dVertex
 10
6.3897705078125
 20
-5.528347439236111
 30
0.0
  0
VERTEX
  5
F2
330
EA
100
AcDbEntity
  8
Layer 1
370
     0
100
AcDbVertex
100
AcDb2dVertex
 10
6.585978190104166
 20
-5.724514431423611
 30
0.0
  0
VERTEX
  5
F3
330
EA
100
AcDbEntity
  8
Layer 1
370
     0
100
AcDbVertex
100
AcDb2dVertex
 10
6.782118055555555
 20
-5.528347439236111
 30
0.0
  0
VERTEX
  5
F4
330
EA
100
AcDbEntity
  8
Layer 1
370
     0
100
AcDbVertex
100
AcDb2dVertex
 10
6.856241861979166
 20
-5.602579752604166
 30
0.0
  0
VERTEX
  5
F5
330
EA
100
AcDbEntity
  8
Layer 1
370
     0
100
AcDbVertex
100
AcDb2dVertex
 10
6.660237630208333
 20
-5.798583984375
 30
0.0
  0
VERTEX
  5
F6
330
EA
100
AcDbEntity
  8
Layer 1
370
     0
100
AcDbVertex
100
AcDb2dVertex
 10
6.856241861979166
 20
-5.994615342881944
 30
0.0
  0
VERTEX
  5
F7
330
EA
100
AcDbEntity
  8
Layer 1
370
     0
100
AcDbVertex
100
AcDb2dVertex
 10
6.782050238715278
 20
-6.068861219618055
 30
0.0
  0
VERTEX
  5
F8
330
EA
100
AcDbEntity
  8
Layer 1
370
     0
100
AcDbVertex
100
AcDb2dVertex
 10
6.585978190104166
 20
-5.872694227430555
 30
0.0
  0
SEQEND
  5
F9
330
EA
100
AcDbEntity
  8
Layer 1
370
     0
  0
POLYLINE
  5
FA
330
1F
100
AcDbEntity
  8
Layer 1
370
     0
100
AcDb2dPolyline
 66
     1
 10
0.0
 20
0.0
 30
0.0
  0
VERTEX
  5
FB
330
FA
100
AcDbEntity
  8
Layer 1
370
     0
100
AcDbVertex
100
AcDb2dVertex
 10
6.027587890625
 20
-5.890679253472222
 30
0.0
  0
VERTEX
  5
FC
330
FA
100
AcDbEntity
  8
Layer 1
370
     0
100
AcDbVertex
100
AcDb2dVertex
 10
6.131700303819444
 20
-5.994764539930555
 30
0.0
  0
VERTEX
  5
FD
330
FA
100
AcDbEntity
  8
Layer 1
370
     0
100
AcDbVertex
100
AcDb2dVertex
 10
5.998101128472222
 20
-6.128377278645833
 30
0.0
  0
VERTEX
  5
FE
330
FA
100
AcDbEntity
  8
Layer 1
370
     0
100
AcDbVertex
100
AcDb2dVertex
 10
5.974934895833333
 20
-6.128377278645833
 30
0.0
  0
VERTEX
  5
FF
330
FA
100
AcDbEntity
  8
Layer 1
370
     0
100
AcDbVertex
100
AcDb2dVertex
 10
5.974934895833333
 20
-5.943223741319444
 30
0.0
  0
VERTEX
  5
100
330
FA
100
AcDbEntity
  8
Layer 1
370
     0
100
AcDbVertex
100
AcDb2dVertex
 10
6.027587890625
 20
-5.890679253472222
 30
0.0
  0
SEQEND
  5
101
330
FA
100
AcDbEntity
  8
Layer 1
370
     0
  0
POLYLINE
  5
102
330
1F
100
AcDbEntity
  8
Layer 1
370
     0
100
AcDb2dPolyline
 66
     1
 10
0.0
 20
0.0
 30
0.0
  0
VERTEX
  5
103
330
102
100
AcDbEntity
  8
Layer 1
370
     0
100
AcDbVertex
100
AcDb2dVertex
 10
5.974934895833333
 20
-5.653957790798611
 30
0.0
  0
VERTEX
  5
104
330
102
100
AcDbEntity
  8
Layer 1
370
     0
100
AcDbVertex
100
AcDb2dVertex
 10
5.974934895833333
 20
-5.468831380208333
 30
0.0
  0
VERTEX
  5
105
330
102
100
AcDbEntity
  8
Layer 1
370
     0
100
AcDbVertex
100
AcDb2dVertex
 10
5.998101128472222
 20
-5.468831380208333
 30
0.0
  0
VERTEX
  5
106
330
102
100
AcDbEntity
  8
Layer 1
370
     0
100
AcDbVertex
100
AcDb2dVertex
 10
6.131659613715278
 20
-5.602444118923611
 30
0.0
  0
VERTEX
  5
107
330
102
100
AcDbEntity
  8
Layer 1
370
     0
100
AcDbVertex
100
AcDb2dVertex
 10
6.027587890625
 20
-5.706610785590278
 30
0.0
  0
VERTEX
  5
108
330
102
100
AcDbEntity
  8
Layer 1
370
     0
100
AcDbVertex
100
AcDb2dVertex
 10
5.974934895833333
 20
-5.653957790798611
 30
0.0
  0
SEQEND
  5
109
330
102
100
AcDbEntity
  8
Layer 1
370
     0
  0
POLYLINE
  5
10A
330
1F
100
AcDbEntity
  8
Layer 1
370
     0
100
AcDb2dPolyline
 66
     1
 10
0.0
 20
0.0
 30
0.0
  0
VERTEX
  5
10B
330
10A
100
AcDbEntity
  8
Layer 1
370
     0
100
AcDbVertex
100
AcDb2dVertex
 10
6.119493272569444
 20
-5.798583984375
 30
0.0
  0
VERTEX
  5
10C
330
10A
100
AcDbEntity
  8
Layer 1
370
     0
100
AcDbVertex
100
AcDb2dVertex
 10
6.223687065972221
 20
-5.694444444444444
 30
0.0
  0
VERTEX
  5
10D
330
10A
100
AcDbEntity
  8
Layer 1
370
     0
100
AcDbVertex
100
AcDb2dVertex
 10
6.327745225694444
 20
-5.798583984375
 30
0.0
  0
VERTEX
  5
10E
330
10A
100
AcDbEntity
  8
Layer 1
370
     0
100
AcDbVertex
100
AcDb2dVertex
 10
6.223687065972221
 20
-5.902723524305555
 30
0.0
  0
VERTEX
  5
10F
330
10A
100
AcDbEntity
  8
Layer 1
370
     0
100
AcDbVertex
100
AcDb2dVertex
 10
6.119493272569444
 20
-5.798583984375
 30
0.0
  0
SEQEND
  5
110
330
10A
100
AcDbEntity
  8
Layer 1
370
     0
  0
POLYLINE
  5
111
330
1F
100
AcDbEntity
  8
Layer 1
370
     0
100
AcDb2dPolyline
 66
     1
 10
0.0
 20
0.0
 30
0.0
  0
VERTEX
  5
112
330
111
100
AcDbEntity
  8
Layer 1
370
     0
100
AcDbVertex
100
AcDb2dVertex
 10
6.6900634765625
 20
-5.436374240451388
 30
0.0
  0
VERTEX
  5
113
330
111
100
AcDbEntity
  8
Layer 1
370
     0
100
AcDbVertex
100
AcDb2dVertex
 10
6.585978190104166
 20
-5.540473090277778
 30
0.0
  0
VERTEX
  5
114
330
111
100
AcDbEntity
  8
Layer 1
370
     0
100
AcDbVertex
100
AcDb2dVertex
 10
6.481852213541666
 20
-5.436374240451388
 30
0.0
  0
VERTEX
  5
115
330
111
100
AcDbEntity
  8
Layer 1
370
     0
100
AcDbVertex
100
AcDb2dVertex
 10
6.585978190104166
 20
-5.332221137152778
 30
0.0
  0
VERTEX
  5
116
330
111
100
AcDbEntity
  8
Layer 1
370
     0
100
AcDbVertex
100
AcDb2dVertex
 10
6.6900634765625
 20
-5.436374240451388
 30
0.0
  0
SEQEND
  5
117
330
111
100
AcDbEntity
  8
Layer 1
370
     0
  0
POLYLINE
  5
118
330
1F
100
AcDbEntity
  8
Layer 1
370
     0
100
AcDb2dPolyline
 66
     1
 10
0.0
 20
0.0
 30
0.0
  0
VERTEX
  5
119
330
118
100
AcDbEntity
  8
Layer 1
370
     0
100
AcDbVertex
100
AcDb2dVertex
 10
6.678019205729166
 20
-5.240193684895833
 30
0.0
  0
VERTEX
  5
11A
330
118
100
AcDbEntity
  8
Layer 1
370
     0
100
AcDbVertex
100
AcDb2dVertex
 10
6.730563693576388
 20
-5.1876220703125
 30
0.0
  0
VERTEX
  5
11B
330
118
100
AcDbEntity
  8
Layer 1
370
     0
100
AcDbVertex
100
AcDb2dVertex
 10
6.915771484375
 20
-5.1876220703125
 30
0.0
  0
VERTEX
  5
11C
330
118
100
AcDbEntity
  8
Layer 1
370
     0
100
AcDbVertex
100
AcDb2dVertex
 10
6.915771484375
 20
-5.210679796006944
 30
0.0
  0
VERTEX
  5
11D
330
118
100
AcDbEntity
  8
Layer 1
370
     0
100
AcDbVertex
100
AcDb2dVertex
 10
6.782050238715278
 20
-5.344333224826388
 30
0.0
  0
VERTEX
  5
11E
330
118
100
AcDbEntity
  8
Layer 1
370
     0
100
AcDbVertex
100
AcDb2dVertex
 10
6.678019205729166
 20
-5.240193684895833
 30
0.0
  0
SEQEND
  5
11F
330
118
100
AcDbEntity
  8
Layer 1
370
     0
  0
POLYLINE
  5
120
330
1F
100
AcDbEntity
  8
Layer 1
370
     0
100
AcDb2dPolyline
 66
     1
 10
0.0
 20
0.0
 30
0.0
  0
VERTEX
  5
121
330
120
100
AcDbEntity
  8
Layer 1
370
     0
100
AcDbVertex
100
AcDb2dVertex
 10
6.844306098090278
 20
-5.798583984375
 30
0.0
  0
VERTEX
  5
122
330
120
100
AcDbEntity
  8
Layer 1
370
     0
100
AcDbVertex
100
AcDb2dVertex
 10
6.948377821180555
 20
-5.694539388020833
 30
0.0
  0
VERTEX
  5
123
330
120
100
AcDbEntity
  8
Layer 1
370
     0
100
AcDbVertex
100
AcDb2dVertex
 10
7.052341037326388
 20
-5.798583984375
 30
0.0
  0
VERTEX
  5
124
330
120
100
AcDbEntity
  8
Layer 1
370
     0
100
AcDbVertex
100
AcDb2dVertex
 10
6.948377821180555
 20
-5.902615017361111
 30
0.0
  0
VERTEX
  5
125
330
120
100
AcDbEntity
  8
Layer 1
370
     0
100
AcDbVertex
100
AcDb2dVertex
 10
6.844306098090278
 20
-5.798583984375
 30
0.0
  0
SEQEND
  5
126
330
120
100
AcDbEntity
  8
Layer 1
370
     0
  0
POLYLINE
  5
127
330
1F
100
AcDbEntity
  8
Layer 1
370
     0
100
AcDb2dPolyline
 66
     1
 10
0.0
 20
0.0
 30
0.0
  0
VERTEX
  5
128
330
127
100
AcDbEntity
  8
Layer 1
370
     0
100
AcDbVertex
100
AcDb2dVertex
 10
7.144327799479166
 20
-5.890679253472222
 30
0.0
  0
VERTEX
  5
129
330
127
100
AcDbEntity
  8
Layer 1
370
     0
100
AcDbVertex
100
AcDb2dVertex
 10
7.196980794270833
 20
-5.943223741319444
 30
0.0
  0
VERTEX
  5
12A
330
127
100
AcDbEntity
  8
Layer 1
370
     0
100
AcDbVertex
100
AcDb2dVertex
 10
7.196980794270833
 20
-6.128377278645833
 30
0.0
  0
VERTEX
  5
12B
330
127
100
AcDbEntity
  8
Layer 1
370
     0
100
AcDbVertex
100
AcDb2dVertex
 10
7.174099392361111
 20
-6.128377278645833
 30
0.0
  0
VERTEX
  5
12C
330
127
100
AcDbEntity
  8
Layer 1
370
     0
100
AcDbVertex
100
AcDb2dVertex
 10
7.040378146701388
 20
-5.994615342881944
 30
0.0
  0
VERTEX
  5
12D
330
127
100
AcDbEntity
  8
Layer 1
370
     0
100
AcDbVertex
100
AcDb2dVertex
 10
7.144327799479166
 20
-5.890679253472222
 30
0.0
  0
SEQEND
  5
12E
330
127
100
AcDbEntity
  8
Layer 1
370
     0
  0
POLYLINE
  5
12F
330
1F
100
AcDbEntity
  8
Layer 1
370
     0
100
AcDb2dPolyline
 66
     1
 10
0.0
 20
0.0
 30
0.0
  0
VERTEX
  5
130
330
12F
100
AcDbEntity
  8
Layer 1
370
     0
100
AcDbVertex
100
AcDb2dVertex
 10
7.144327799479166
 20
-5.706610785590278
 30
0.0
  0
VERTEX
  5
131
330
12F
100
AcDbEntity
  8
Layer 1
370
     0
100
AcDbVertex
100
AcDb2dVertex
 10
7.040378146701388
 20
-5.602579752604166
 30
0.0
  0
VERTEX
  5
132
330
12F
100
AcDbEntity
  8
Layer 1
370
     0
100
AcDbVertex
100
AcDb2dVertex
 10
7.174099392361111
 20
-5.468831380208333
 30
0.0
  0
VERTEX
  5
133
330
12F
100
AcDbEntity
  8
Layer 1
370
     0
100
AcDbVertex
100
AcDb2dVertex
 10
7.197035047743055
 20
-5.468831380208333
 30
0.0
  0
VERTEX
  5
134
330
12F
100
AcDbEntity
  8
Layer 1
370
     0
100
AcDbVertex
100
AcDb2dVertex
 10
7.197035047743055
 20
-5.653957790798611
 30
0.0
  0
VERTEX
  5
135
330
12F
100
AcDbEntity
  8
Layer 1
370
     0
100
AcDbVertex
100
AcDb2dVertex
 10
7.144327799479166
 20
-5.706610785590278
 30
0.0
  0
SEQEND
  5
136
330
12F
100
AcDbEntity
  8
Layer 1
370
     0
  0
POLYLINE
  5
137
330
1F
100
AcDbEntity
  8
Layer 1
370
     0
100
AcDb2dPolyline
 66
     1
 10
0.0
 20
0.0
 30
0.0
  0
VERTEX
  5
138
330
137
100
AcDbEntity
  8
Layer 1
370
     0
100
AcDbVertex
100
AcDb2dVertex
 10
7.045979817708333
 20
-5.1876220703125
 30
0.0
  0
VERTEX
  5
139
330
137
100
AcDbEntity
  8
Layer 1
370
     0
100
AcDbVertex
100
AcDb2dVertex
 10
7.196980794270833
 20
-5.1876220703125
 30
0.0
  0
VERTEX
  5
13A
330
137
100
AcDbEntity
  8
Layer 1
370
     0
100
AcDbVertex
100
AcDb2dVertex
 10
7.196980794270833
 20
-5.338650173611111
 30
0.0
  0
VERTEX
  5
13B
330
137
100
AcDbEntity
  8
Layer 1
370
     0
100
AcDbVertex
100
AcDb2dVertex
 10
7.120212131076388
 20
-5.338650173611111
 30
0.0
  0
VERTEX
  5
13C
330
137
100
AcDbEntity
  8
Layer 1
370
     0
100
AcDbVertex
100
AcDb2dVertex
 10
6.948377821180555
 20
-5.510606553819444
 30
0.0
  0
VERTEX
  5
13D
330
137
100
AcDbEntity
  8
Layer 1
370
     0
100
AcDbVertex
100
AcDb2dVertex
 10
6.874131944444444
 20
-5.436374240451388
 30
0.0
  0
VERTEX
  5
13E
330
137
100
AcDbEntity
  8
Layer 1
370
     0
100
AcDbVertex
100
AcDb2dVertex
 10
7.045979817708333
 20
-5.264580620659722
 30
0.0
  0
VERTEX
  5
13F
330
137
100
AcDbEntity
  8
Layer 1
370
     0
100
AcDbVertex
100
AcDb2dVertex
 10
7.045979817708333
 20
-5.1876220703125
 30
0.0
  0
SEQEND
  5
140
330
137
100
AcDbEntity
  8
Layer 1
370
     0
  0
POLYLINE
  5
141
330
1F
100
AcDbEntity
  8
Layer 1
370
     0
100
AcDb2dPolyline
 66
     1
 10
0.0
 20
0.0
 30
0.0
  0
VERTEX
  5
142
330
141
100
AcDbEntity
  8
Layer 1
370
     0
100
AcDbVertex
100
AcDb2dVertex
 10
6.256212022569444
 20
-4.7796630859375
 30
0.0
  0
VERTEX
  5
143
330
141
100
AcDbEntity
  8
Layer 1
370
     0
100
AcDbVertex
100
AcDb2dVertex
 10
6.915771484375
 20
-4.7796630859375
 30
0.0
  0
VERTEX
  5
144
330
141
100
AcDbEntity
  8
Layer 1
370
     0
100
AcDbVertex
100
AcDb2dVertex
 10
6.915771484375
 20
-5.057467990451388
 30
0.0
  0
VERTEX
  5
145
330
141
100
AcDbEntity
  8
Layer 1
370
     0
100
AcDbVertex
100
AcDb2dVertex
 10
6.676689995659721
 20
-5.057467990451388
 30
0.0
  0
VERTEX
  5
146
330
141
100
AcDbEntity
  8
Layer 1
370
     0
100
AcDbVertex
100
AcDb2dVertex
 10
6.676689995659721
 20
-5.057467990451388
 30
0.0
  0
VERTEX
  5
147
330
141
100
AcDbEntity
  8
Layer 1
370
     0
100
AcDbVertex
100
AcDb2dVertex
 10
6.6766357421875
 20
-5.057467990451388
 30
0.0
  0
VERTEX
  5
148
330
141
100
AcDbEntity
  8
Layer 1
370
     0
100
AcDbVertex
100
AcDb2dVertex
 10
6.585978190104166
 20
-5.148234049479166
 30
0.0
  0
VERTEX
  5
149
330
141
100
AcDbEntity
  8
Layer 1
370
     0
100
AcDbVertex
100
AcDb2dVertex
 10
6.4952392578125
 20
-5.057467990451388
 30
0.0
  0
VERTEX
  5
14A
330
141
100
AcDbEntity
  8
Layer 1
370
     0
100
AcDbVertex
100
AcDb2dVertex
 10
6.256212022569444
 20
-5.057467990451388
 30
0.0
  0
VERTEX
  5
14B
330
141
100
AcDbEntity
  8
Layer 1
370
     0
100
AcDbVertex
100
AcDb2dVertex
 10
6.256212022569444
 20
-4.7796630859375
 30
0.0
  0
SEQEND
  5
14C
330
141
100
AcDbEntity
  8
Layer 1
370
     0
  0
POLYLINE
  5
14D
330
1F
100
AcDbEntity
  8
Layer 1
370
     0
100
AcDb2dPolyline
 66
     1
 10
0.0
 20
0.0
 30
0.0
  0
VERTEX
  5
14E
330
14D
100
AcDbEntity
  8
Layer 1
370
     0
100
AcDbVertex
100
AcDb2dVertex
 10
6.256212022569444
 20
-5.1876220703125
 30
0.0
  0
VERTEX
  5
14F
330
14D
100
AcDbEntity
  8
Layer 1
370
     0
100
AcDbVertex
100
AcDb2dVertex
 10
6.441311306423611
 20
-5.1876220703125
 30
0.0
  0
VERTEX
  5
150
330
14D
100
AcDbEntity
  8
Layer 1
370
     0
100
AcDbVertex
100
AcDb2dVertex
 10
6.493950737847221
 20
-5.240193684895833
 30
0.0
  0
VERTEX
  5
151
330
14D
100
AcDbEntity
  8
Layer 1
370
     0
100
AcDbVertex
100
AcDb2dVertex
 10
6.3897705078125
 20
-5.344333224826388
 30
0.0
  0
VERTEX
  5
152
330
14D
100
AcDbEntity
  8
Layer 1
370
     0
100
AcDbVertex
100
AcDb2dVertex
 10
6.256212022569444
 20
-5.210679796006944
 30
0.0
  0
VERTEX
  5
153
330
14D
100
AcDbEntity
  8
Layer 1
370
     0
100
AcDbVertex
100
AcDb2dVertex
 10
6.256212022569444
 20
-5.1876220703125
 30
0.0
  0
SEQEND
  5
154
330
14D
100
AcDbEntity
  8
Layer 1
370
     0
  0
POLYLINE
  5
155
330
1F
100
AcDbEntity
  8
Layer 1
370
     0
100
AcDb2dPolyline
 66
     1
 10
0.0
 20
0.0
 30
0.0
  0
VERTEX
  5
156
330
155
100
AcDbEntity
  8
Layer 1
370
     0
100
AcDbVertex
100
AcDb2dVertex
 10
6.297810872395833
 20
-5.436374240451388
 30
0.0
  0
VERTEX
  5
157
330
155
100
AcDbEntity
  8
Layer 1
370
     0
100
AcDbVertex
100
AcDb2dVertex
 10
6.260769314236111
 20
-5.473456488715278
 30
0.0
  0
VERTEX
  5
158
330
155
100
AcDbEntity
  8
Layer 1
370
     0
100
AcDbVertex
100
AcDb2dVertex
 10
6.223687065972221
 20
-5.510443793402778
 30
0.0
  0
VERTEX
  5
159
330
155
100
AcDbEntity
  8
Layer 1
370
     0
100
AcDbVertex
100
AcDb2dVertex
 10
6.051920572916666
 20
-5.338650173611111
 30
0.0
  0
VERTEX
  5
15A
330
155
100
AcDbEntity
  8
Layer 1
370
     0
100
AcDbVertex
100
AcDb2dVertex
 10
5.974934895833333
 20
-5.338650173611111
 30
0.0
  0
VERTEX
  5
15B
330
155
100
AcDbEntity
  8
Layer 1
370
     0
100
AcDbVertex
100
AcDb2dVertex
 10
5.974934895833333
 20
-5.1876220703125
 30
0.0
  0
VERTEX
  5
15C
330
155
100
AcDbEntity
  8
Layer 1
370
     0
100
AcDbVertex
100
AcDb2dVertex
 10
6.126044379340278
 20
-5.1876220703125
 30
0.0
  0
VERTEX
  5
15D
330
155
100
AcDbEntity
  8
Layer 1
370
     0
100
AcDbVertex
100
AcDb2dVertex
 10
6.126044379340278
 20
-5.2645263671875
 30
0.0
  0
VERTEX
  5
15E
330
155
100
AcDbEntity
  8
Layer 1
370
     0
100
AcDbVertex
100
AcDb2dVertex
 10
6.297810872395833
 20
-5.436374240451388
 30
0.0
  0
SEQEND
  5
15F
330
155
100
AcDbEntity
  8
Layer 1
370
     0
  0
POLYLINE
  5
160
330
1F
100
AcDbEntity
  8
Layer 1
370
     0
100
AcDb2dPolyline
 66
     1
 10
0.0
 20
0.0
 30
0.0
  0
VERTEX
  5
161
330
160
100
AcDbEntity
  8
Layer 1
370
     0
100
AcDbVertex
100
AcDb2dVertex
 10
5.401082356770833
 20
-4.7796630859375
 30
0.0
  0
VERTEX
  5
162
330
160
100
AcDbEntity
  8
Layer 1
370
     0
100
AcDbVertex
100
AcDb2dVertex
 10
6.126044379340278
 20
-4.7796630859375
 30
0.0
  0
VERTEX
  5
163
330
160
100
AcDbEntity
  8
Layer 1
370
     0
100
AcDbVertex
100
AcDb2dVertex
 10
6.126044379340278
 20
-5.057467990451388
 30
0.0
  0
VERTEX
  5
164
330
160
100
AcDbEntity
  8
Layer 1
370
     0
100
AcDbVertex
100
AcDb2dVertex
 10
5.844807942708333
 20
-5.057467990451388
 30
0.0
  0
VERTEX
  5
165
330
160
100
AcDbEntity
  8
Layer 1
370
     0
100
AcDbVertex
100
AcDb2dVertex
 10
5.844807942708333
 20
-5.338650173611111
 30
0.0
  0
VERTEX
  5
166
330
160
100
AcDbEntity
  8
Layer 1
370
     0
100
AcDbVertex
100
AcDb2dVertex
 10
5.682264539930555
 20
-5.338650173611111
 30
0.0
  0
VERTEX
  5
167
330
160
100
AcDbEntity
  8
Layer 1
370
     0
100
AcDbVertex
100
AcDb2dVertex
 10
5.682264539930555
 20
-5.057467990451388
 30
0.0
  0
VERTEX
  5
168
330
160
100
AcDbEntity
  8
Layer 1
370
     0
100
AcDbVertex
100
AcDb2dVertex
 10
5.682264539930555
 20
-5.057467990451388
 30
0.0
  0
VERTEX
  5
169
330
160
100
AcDbEntity
  8
Layer 1
370
     0
100
AcDbVertex
100
AcDb2dVertex
 10
5.401082356770833
 20
-5.057467990451388
 30
0.0
  0
VERTEX
  5
16A
330
160
100
AcDbEntity
  8
Layer 1
370
     0
100
AcDbVertex
100
AcDb2dVertex
 10
5.401082356770833
 20
-4.7796630859375
 30
0.0
  0
SEQEND
  5
16B
330
160
100
AcDbEntity
  8
Layer 1
370
     0
  0
POLYLINE
  5
16C
330
1F
100
AcDbEntity
  8
Layer 1
370
     0
100
AcDb2dPolyline
 66
     1
 10
0.0
 20
0.0
 30
0.0
  0
VERTEX
  5
16D
330
16C
100
AcDbEntity
  8
Layer 1
370
     0
100
AcDbVertex
100
AcDb2dVertex
 10
5.591579861111111
 20
-5.798583984375
 30
0.0
  0
VERTEX
  5
16E
330
16C
100
AcDbEntity
  8
Layer 1
370
     0
100
AcDbVertex
100
AcDb2dVertex
 10
5.682264539930555
 20
-5.707939995659722
 30
0.0
  0
VERTEX
  5
16F
330
16C
100
AcDbEntity
  8
Layer 1
370
     0
100
AcDbVertex
100
AcDb2dVertex
 10
5.682264539930555
 20
-5.468831380208333
 30
0.0
  0
VERTEX
  5
170
330
16C
100
AcDbEntity
  8
Layer 1
370
     0
100
AcDbVertex
100
AcDb2dVertex
 10
5.844807942708333
 20
-5.468831380208333
 30
0.0
  0
VERTEX
  5
171
330
16C
100
AcDbEntity
  8
Layer 1
370
     0
100
AcDbVertex
100
AcDb2dVertex
 10
5.844807942708333
 20
-5.7078857421875
 30
0.0
  0
VERTEX
  5
172
330
16C
100
AcDbEntity
  8
Layer 1
370
     0
100
AcDbVertex
100
AcDb2dVertex
 10
5.844807942708333
 20
-5.707939995659722
 30
0.0
  0
VERTEX
  5
173
330
16C
100
AcDbEntity
  8
Layer 1
370
     0
100
AcDbVertex
100
AcDb2dVertex
 10
5.935506184895833
 20
-5.798583984375
 30
0.0
  0
VERTEX
  5
174
330
16C
100
AcDbEntity
  8
Layer 1
370
     0
100
AcDbVertex
100
AcDb2dVertex
 10
5.844807942708333
 20
-5.889322916666666
 30
0.0
  0
VERTEX
  5
175
330
16C
100
AcDbEntity
  8
Layer 1
370
     0
100
AcDbVertex
100
AcDb2dVertex
 10
5.844807942708333
 20
-6.128377278645833
 30
0.0
  0
VERTEX
  5
176
330
16C
100
AcDbEntity
  8
Layer 1
370
     0
100
AcDbVertex
100
AcDb2dVertex
 10
5.682264539930555
 20
-6.128377278645833
 30
0.0
  0
VERTEX
  5
177
330
16C
100
AcDbEntity
  8
Layer 1
370
     0
100
AcDbVertex
100
AcDb2dVertex
 10
5.682264539930555
 20
-5.889322916666666
 30
0.0
  0
VERTEX
  5
178
330
16C
100
AcDbEntity
  8
Layer 1
370
     0
100
AcDbVertex
100
AcDb2dVertex
 10
5.591579861111111
 20
-5.798583984375
 30
0.0
  0
SEQEND
  5
179
330
16C
100
AcDbEntity
  8
Layer 1
370
     0
  0
POLYLINE
  5
17A
330
1F
100
AcDbEntity
  8
Layer 1
370
     0
100
AcDb2dPolyline
 66
     1
 10
0.0
 20
0.0
 30
0.0
  0
VERTEX
  5
17B
330
17A
100
AcDbEntity
  8
Layer 1
370
     0
100
AcDbVertex
100
AcDb2dVertex
 10
5.401082356770833
 20
-5.1876220703125
 30
0.0
  0
VERTEX
  5
17C
330
17A
100
AcDbEntity
  8
Layer 1
370
     0
100
AcDbVertex
100
AcDb2dVertex
 10
5.552137586805555
 20
-5.1876220703125
 30
0.0
  0
VERTEX
  5
17D
330
17A
100
AcDbEntity
  8
Layer 1
370
     0
100
AcDbVertex
100
AcDb2dVertex
 10
5.552137586805555
 20
-5.338650173611111
 30
0.0
  0
VERTEX
  5
17E
330
17A
100
AcDbEntity
  8
Layer 1
370
     0
100
AcDbVertex
100
AcDb2dVertex
 10
5.474962022569444
 20
-5.338650173611111
 30
0.0
  0
VERTEX
  5
17F
330
17A
100
AcDbEntity
  8
Layer 1
370
     0
100
AcDbVertex
100
AcDb2dVertex
 10
5.303331163194444
 20
-5.510321723090278
 30
0.0
  0
VERTEX
  5
180
330
17A
100
AcDbEntity
  8
Layer 1
370
     0
100
AcDbVertex
100
AcDb2dVertex
 10
5.229302300347222
 20
-5.436374240451388
 30
0.0
  0
VERTEX
  5
181
330
17A
100
AcDbEntity
  8
Layer 1
370
     0
100
AcDbVertex
100
AcDb2dVertex
 10
5.401082356770833
 20
-5.2645263671875
 30
0.0
  0
VERTEX
  5
182
330
17A
100
AcDbEntity
  8
Layer 1
370
     0
100
AcDbVertex
100
AcDb2dVertex
 10
5.401082356770833
 20
-5.1876220703125
 30
0.0
  0
SEQEND
  5
183
330
17A
100
AcDbEntity
  8
Layer 1
370
     0
  0
POLYLINE
  5
184
330
1F
100
AcDbEntity
  8
Layer 1
370
     0
100
AcDb2dPolyline
 66
     1
 10
0.0
 20
0.0
 30
0.0
  0
VERTEX
  5
185
330
184
100
AcDbEntity
  8
Layer 1
370
     0
100
AcDbVertex
100
AcDb2dVertex
 10
4.837103949652778
 20
-6.160834418402778
 30
0.0
  0
VERTEX
  5
186
330
184
100
AcDbEntity
  8
Layer 1
370
     0
100
AcDbVertex
100
AcDb2dVertex
 10
4.941107855902778
 20
-6.056722005208333
 30
0.0
  0
VERTEX
  5
187
330
184
100
AcDbEntity
  8
Layer 1
370
     0
100
AcDbVertex
100
AcDb2dVertex
 10
5.045206705729166
 20
-6.160834418402778
 30
0.0
  0
VERTEX
  5
188
330
184
100
AcDbEntity
  8
Layer 1
370
     0
100
AcDbVertex
100
AcDb2dVertex
 10
4.941107855902778
 20
-6.264946831597221
 30
0.0
  0
VERTEX
  5
189
330
184
100
AcDbEntity
  8
Layer 1
370
     0
100
AcDbVertex
100
AcDb2dVertex
 10
4.837103949652778
 20
-6.160834418402778
 30
0.0
  0
SEQEND
  5
18A
330
184
100
AcDbEntity
  8
Layer 1
370
     0
  0
POLYLINE
  5
18B
330
1F
100
AcDbEntity
  8
Layer 1
370
     0
100
AcDb2dPolyline
 66
     1
 10
0.0
 20
0.0
 30
0.0
  0
VERTEX
  5
18C
330
18B
100
AcDbEntity
  8
Layer 1
370
     0
100
AcDbVertex
100
AcDb2dVertex
 10
4.849039713541666
 20
-6.357014973958333
 30
0.0
  0
VERTEX
  5
18D
330
18B
100
AcDbEntity
  8
Layer 1
370
     0
100
AcDbVertex
100
AcDb2dVertex
 10
4.796495225694444
 20
-6.409613715277778
 30
0.0
  0
VERTEX
  5
18E
330
18B
100
AcDbEntity
  8
Layer 1
370
     0
100
AcDbVertex
100
AcDb2dVertex
 10
4.611382378472222
 20
-6.409613715277778
 30
0.0
  0
VERTEX
  5
18F
330
18B
100
AcDbEntity
  8
Layer 1
370
     0
100
AcDbVertex
100
AcDb2dVertex
 10
4.611382378472222
 20
-6.386528862847221
 30
0.0
  0
VERTEX
  5
190
330
18B
100
AcDbEntity
  8
Layer 1
370
     0
100
AcDbVertex
100
AcDb2dVertex
 10
4.744981553819444
 20
-6.2529296875
 30
0.0
  0
VERTEX
  5
191
330
18B
100
AcDbEntity
  8
Layer 1
370
     0
100
AcDbVertex
100
AcDb2dVertex
 10
4.849039713541666
 20
-6.357014973958333
 30
0.0
  0
SEQEND
  5
192
330
18B
100
AcDbEntity
  8
Layer 1
370
     0
  0
POLYLINE
  5
193
330
1F
100
AcDbEntity
  8
Layer 1
370
     0
100
AcDb2dPolyline
 66
     1
 10
0.0
 20
0.0
 30
0.0
  0
VERTEX
  5
194
330
193
100
AcDbEntity
  8
Layer 1
370
     0
100
AcDbVertex
100
AcDb2dVertex
 10
4.941107855902778
 20
-5.872694227430555
 30
0.0
  0
VERTEX
  5
195
330
193
100
AcDbEntity
  8
Layer 1
370
     0
100
AcDbVertex
100
AcDb2dVertex
 10
4.744981553819444
 20
-6.068861219618055
 30
0.0
  0
VERTEX
  5
196
330
193
100
AcDbEntity
  8
Layer 1
370
     0
100
AcDbVertex
100
AcDb2dVertex
 10
4.670884874131944
 20
-5.994764539930555
 30
0.0
  0
VERTEX
  5
197
330
193
100
AcDbEntity
  8
Layer 1
370
     0
100
AcDbVertex
100
AcDb2dVertex
 10
4.867078993055555
 20
-5.798583984375
 30
0.0
  0
VERTEX
  5
198
330
193
100
AcDbEntity
  8
Layer 1
370
     0
100
AcDbVertex
100
AcDb2dVertex
 10
4.670884874131944
 20
-5.602444118923611
 30
0.0
  0
VERTEX
  5
199
330
193
100
AcDbEntity
  8
Layer 1
370
     0
100
AcDbVertex
100
AcDb2dVertex
 10
4.744981553819444
 20
-5.528347439236111
 30
0.0
  0
VERTEX
  5
19A
330
193
100
AcDbEntity
  8
Layer 1
370
     0
100
AcDbVertex
100
AcDb2dVertex
 10
4.941107855902778
 20
-5.724541558159722
 30
0.0
  0
VERTEX
  5
19B
330
193
100
AcDbEntity
  8
Layer 1
370
     0
100
AcDbVertex
100
AcDb2dVertex
 10
5.137301974826388
 20
-5.528347439236111
 30
0.0
  0
VERTEX
  5
19C
330
193
100
AcDbEntity
  8
Layer 1
370
     0
100
AcDbVertex
100
AcDb2dVertex
 10
5.2113037109375
 20
-5.602389865451388
 30
0.0
  0
VERTEX
  5
19D
330
193
100
AcDbEntity
  8
Layer 1
370
     0
100
AcDbVertex
100
AcDb2dVertex
 10
5.015068901909722
 20
-5.798583984375
 30
0.0
  0
VERTEX
  5
19E
330
193
100
AcDbEntity
  8
Layer 1
370
     0
100
AcDbVertex
100
AcDb2dVertex
 10
5.2113037109375
 20
-5.994805230034722
 30
0.0
  0
VERTEX
  5
19F
330
193
100
AcDbEntity
  8
Layer 1
370
     0
100
AcDbVertex
100
AcDb2dVertex
 10
5.137301974826388
 20
-6.068752712673611
 30
0.0
  0
VERTEX
  5
1A0
330
193
100
AcDbEntity
  8
Layer 1
370
     0
100
AcDbVertex
100
AcDb2dVertex
 10
4.941107855902778
 20
-5.872694227430555
 30
0.0
  0
SEQEND
  5
1A1
330
193
100
AcDbEntity
  8
Layer 1
370
     0
  0
POLYLINE
  5
1A2
330
1F
100
AcDbEntity
  8
Layer 1
370
     0
100
AcDb2dPolyline
 66
     1
 10
0.0
 20
0.0
 30
0.0
  0
VERTEX
  5
1A3
330
1A2
100
AcDbEntity
  8
Layer 1
370
     0
100
AcDbVertex
100
AcDb2dVertex
 10
4.382717556423611
 20
-5.890679253472222
 30
0.0
  0
VERTEX
  5
1A4
330
1A2
100
AcDbEntity
  8
Layer 1
370
     0
100
AcDbVertex
100
AcDb2dVertex
 10
4.486843532986111
 20
-5.994764539930555
 30
0.0
  0
VERTEX
  5
1A5
330
1A2
100
AcDbEntity
  8
Layer 1
370
     0
100
AcDbVertex
100
AcDb2dVertex
 10
4.353162977430555
 20
-6.128377278645833
 30
0.0
  0
VERTEX
  5
1A6
330
1A2
100
AcDbEntity
  8
Layer 1
370
     0
100
AcDbVertex
100
AcDb2dVertex
 10
4.330118815104166
 20
-6.128377278645833
 30
0.0
  0
VERTEX
  5
1A7
330
1A2
100
AcDbEntity
  8
Layer 1
370
     0
100
AcDbVertex
100
AcDb2dVertex
 10
4.330118815104166
 20
-5.943223741319444
 30
0.0
  0
VERTEX
  5
1A8
330
1A2
100
AcDbEntity
  8
Layer 1
370
     0
100
AcDbVertex
100
AcDb2dVertex
 10
4.382717556423611
 20
-5.890679253472222
 30
0.0
  0
SEQEND
  5
1A9
330
1A2
100
AcDbEntity
  8
Layer 1
370
     0
  0
POLYLINE
  5
1AA
330
1F
100
AcDbEntity
  8
Layer 1
370
     0
100
AcDb2dPolyline
 66
     1
 10
0.0
 20
0.0
 30
0.0
  0
VERTEX
  5
1AB
330
1AA
100
AcDbEntity
  8
Layer 1
370
     0
100
AcDbVertex
100
AcDb2dVertex
 10
4.330118815104166
 20
-5.653957790798611
 30
0.0
  0
VERTEX
  5
1AC
330
1AA
100
AcDbEntity
  8
Layer 1
370
     0
100
AcDbVertex
100
AcDb2dVertex
 10
4.330118815104166
 20
-5.468831380208333
 30
0.0
  0
VERTEX
  5
1AD
330
1AA
100
AcDbEntity
  8
Layer 1
370
     0
100
AcDbVertex
100
AcDb2dVertex
 10
4.353162977430555
 20
-5.468831380208333
 30
0.0
  0
VERTEX
  5
1AE
330
1AA
100
AcDbEntity
  8
Layer 1
370
     0
100
AcDbVertex
100
AcDb2dVertex
 10
4.486843532986111
 20
-5.602444118923611
 30
0.0
  0
VERTEX
  5
1AF
330
1AA
100
AcDbEntity
  8
Layer 1
370
     0
100
AcDbVertex
100
AcDb2dVertex
 10
4.382717556423611
 20
-5.706610785590278
 30
0.0
  0
VERTEX
  5
1B0
330
1AA
100
AcDbEntity
  8
Layer 1
370
     0
100
AcDbVertex
100
AcDb2dVertex
 10
4.330118815104166
 20
-5.653957790798611
 30
0.0
  0
SEQEND
  5
1B1
330
1AA
100
AcDbEntity
  8
Layer 1
370
     0
  0
POLYLINE
  5
1B2
330
1F
100
AcDbEntity
  8
Layer 1
370
     0
100
AcDb2dPolyline
 66
     1
 10
0.0
 20
0.0
 30
0.0
  0
VERTEX
  5
1B3
330
1B2
100
AcDbEntity
  8
Layer 1
370
     0
100
AcDbVertex
100
AcDb2dVertex
 10
4.474772135416666
 20
-5.798583984375
 30
0.0
  0
VERTEX
  5
1B4
330
1B2
100
AcDbEntity
  8
Layer 1
370
     0
100
AcDbVertex
100
AcDb2dVertex
 10
4.578843858506944
 20
-5.694444444444444
 30
0.0
  0
VERTEX
  5
1B5
330
1B2
100
AcDbEntity
  8
Layer 1
370
     0
100
AcDbVertex
100
AcDb2dVertex
 10
4.682996961805555
 20
-5.798583984375
 30
0.0
  0
VERTEX
  5
1B6
330
1B2
100
AcDbEntity
  8
Layer 1
370
     0
100
AcDbVertex
100
AcDb2dVertex
 10
4.578843858506944
 20
-5.902723524305555
 30
0.0
  0
VERTEX
  5
1B7
330
1B2
100
AcDbEntity
  8
Layer 1
370
     0
100
AcDbVertex
100
AcDb2dVertex
 10
4.474772135416666
 20
-5.798583984375
 30
0.0
  0
SEQEND
  5
1B8
330
1B2
100
AcDbEntity
  8
Layer 1
370
     0
  0
POLYLINE
  5
1B9
330
1F
100
AcDbEntity
  8
Layer 1
370
     0
100
AcDb2dPolyline
 66
     1
 10
0.0
 20
0.0
 30
0.0
  0
VERTEX
  5
1BA
330
1B9
100
AcDbEntity
  8
Layer 1
370
     0
100
AcDbVertex
100
AcDb2dVertex
 10
5.045206705729166
 20
-5.436374240451388
 30
0.0
  0
VERTEX
  5
1BB
330
1B9
100
AcDbEntity
  8
Layer 1
370
     0
100
AcDbVertex
100
AcDb2dVertex
 10
4.941107855902778
 20
-5.540473090277778
 30
0.0
  0
VERTEX
  5
1BC
330
1B9
100
AcDbEntity
  8
Layer 1
370
     0
100
AcDbVertex
100
AcDb2dVertex
 10
4.837103949652778
 20
-5.436374240451388
 30
0.0
  0
VERTEX
  5
1BD
330
1B9
100
AcDbEntity
  8
Layer 1
370
     0
100
AcDbVertex
100
AcDb2dVertex
 10
4.941107855902778
 20
-5.332221137152778
 30
0.0
  0
VERTEX
  5
1BE
330
1B9
100
AcDbEntity
  8
Layer 1
370
     0
100
AcDbVertex
100
AcDb2dVertex
 10
5.045206705729166
 20
-5.436374240451388
 30
0.0
  0
SEQEND
  5
1BF
330
1B9
100
AcDbEntity
  8
Layer 1
370
     0
  0
POLYLINE
  5
1C0
330
1F
100
AcDbEntity
  8
Layer 1
370
     0
100
AcDb2dPolyline
 66
     1
 10
0.0
 20
0.0
 30
0.0
  0
VERTEX
  5
1C1
330
1C0
100
AcDbEntity
  8
Layer 1
370
     0
100
AcDbVertex
100
AcDb2dVertex
 10
5.033243815104166
 20
-5.240193684895833
 30
0.0
  0
VERTEX
  5
1C2
330
1C0
100
AcDbEntity
  8
Layer 1
370
     0
100
AcDbVertex
100
AcDb2dVertex
 10
5.085788302951388
 20
-5.1876220703125
 30
0.0
  0
VERTEX
  5
1C3
330
1C0
100
AcDbEntity
  8
Layer 1
370
     0
100
AcDbVertex
100
AcDb2dVertex
 10
5.270941840277778
 20
-5.1876220703125
 30
0.0
  0
VERTEX
  5
1C4
330
1C0
100
AcDbEntity
  8
Layer 1
370
     0
100
AcDbVertex
100
AcDb2dVertex
 10
5.270941840277778
 20
-5.210679796006944
 30
0.0
  0
VERTEX
  5
1C5
330
1C0
100
AcDbEntity
  8
Layer 1
370
     0
100
AcDbVertex
100
AcDb2dVertex
 10
5.137301974826388
 20
-5.344333224826388
 30
0.0
  0
VERTEX
  5
1C6
330
1C0
100
AcDbEntity
  8
Layer 1
370
     0
100
AcDbVertex
100
AcDb2dVertex
 10
5.033243815104166
 20
-5.240193684895833
 30
0.0
  0
SEQEND
  5
1C7
330
1C0
100
AcDbEntity
  8
Layer 1
370
     0
  0
POLYLINE
  5
1C8
330
1F
100
AcDbEntity
  8
Layer 1
370
     0
100
AcDb2dPolyline
 66
     1
 10
0.0
 20
0.0
 30
0.0
  0
VERTEX
  5
1C9
330
1C8
100
AcDbEntity
  8
Layer 1
370
     0
100
AcDbVertex
100
AcDb2dVertex
 10
5.199178059895833
 20
-5.798583984375
 30
0.0
  0
VERTEX
  5
1CA
330
1C8
100
AcDbEntity
  8
Layer 1
370
     0
100
AcDbVertex
100
AcDb2dVertex
 10
5.303331163194444
 20
-5.694444444444444
 30
0.0
  0
VERTEX
  5
1CB
330
1C8
100
AcDbEntity
  8
Layer 1
370
     0
100
AcDbVertex
100
AcDb2dVertex
 10
5.407565646701388
 20
-5.798583984375
 30
0.0
  0
VERTEX
  5
1CC
330
1C8
100
AcDbEntity
  8
Layer 1
370
     0
100
AcDbVertex
100
AcDb2dVertex
 10
5.303331163194444
 20
-5.902777777777778
 30
0.0
  0
VERTEX
  5
1CD
330
1C8
100
AcDbEntity
  8
Layer 1
370
     0
100
AcDbVertex
100
AcDb2dVertex
 10
5.199178059895833
 20
-5.798583984375
 30
0.0
  0
SEQEND
  5
1CE
330
1C8
100
AcDbEntity
  8
Layer 1
370
     0
  0
POLYLINE
  5
1CF
330
1F
100
AcDbEntity
  8
Layer 1
370
     0
100
AcDb2dPolyline
 66
     1
 10
0.0
 20
0.0
 30
0.0
  0
VERTEX
  5
1D0
330
1CF
100
AcDbEntity
  8
Layer 1
370
     0
100
AcDbVertex
100
AcDb2dVertex
 10
5.499538845486111
 20
-5.890679253472222
 30
0.0
  0
VERTEX
  5
1D1
330
1CF
100
AcDbEntity
  8
Layer 1
370
     0
100
AcDbVertex
100
AcDb2dVertex
 10
5.552137586805555
 20
-5.943223741319444
 30
0.0
  0
VERTEX
  5
1D2
330
1CF
100
AcDbEntity
  8
Layer 1
370
     0
100
AcDbVertex
100
AcDb2dVertex
 10
5.552137586805555
 20
-6.128377278645833
 30
0.0
  0
VERTEX
  5
1D3
330
1CF
100
AcDbEntity
  8
Layer 1
370
     0
100
AcDbVertex
100
AcDb2dVertex
 10
5.528903537326388
 20
-6.128377278645833
 30
0.0
  0
VERTEX
  5
1D4
330
1CF
100
AcDbEntity
  8
Layer 1
370
     0
100
AcDbVertex
100
AcDb2dVertex
 10
5.395399305555555
 20
-5.994805230034722
 30
0.0
  0
VERTEX
  5
1D5
330
1CF
100
AcDbEntity
  8
Layer 1
370
     0
100
AcDbVertex
100
AcDb2dVertex
 10
5.499538845486111
 20
-5.890679253472222
 30
0.0
  0
SEQEND
  5
1D6
330
1CF
100
AcDbEntity
  8
Layer 1
370
     0
  0
POLYLINE
  5
1D7
330
1F
100
AcDbEntity
  8
Layer 1
370
     0
100
AcDb2dPolyline
 66
     1
 10
0.0
 20
0.0
 30
0.0
  0
VERTEX
  5
1D8
330
1D7
100
AcDbEntity
  8
Layer 1
370
     0
100
AcDbVertex
100
AcDb2dVertex
 10
5.499538845486111
 20
-5.706610785590278
 30
0.0
  0
VERTEX
  5
1D9
330
1D7
100
AcDbEntity
  8
Layer 1
370
     0
100
AcDbVertex
100
AcDb2dVertex
 10
5.395399305555555
 20
-5.602389865451388
 30
0.0
  0
VERTEX
  5
1DA
330
1D7
100
AcDbEntity
  8
Layer 1
370
     0
100
AcDbVertex
100
AcDb2dVertex
 10
5.528903537326388
 20
-5.468831380208333
 30
0.0
  0
VERTEX
  5
1DB
330
1D7
100
AcDbEntity
  8
Layer 1
370
     0
100
AcDbVertex
100
AcDb2dVertex
 10
5.552137586805555
 20
-5.468831380208333
 30
0.0
  0
VERTEX
  5
1DC
330
1D7
100
AcDbEntity
  8
Layer 1
370
     0
100
AcDbVertex
100
AcDb2dVertex
 10
5.552137586805555
 20
-5.653957790798611
 30
0.0
  0
VERTEX
  5
1DD
330
1D7
100
AcDbEntity
  8
Layer 1
370
     0
100
AcDbVertex
100
AcDb2dVertex
 10
5.499538845486111
 20
-5.706610785590278
 30
0.0
  0
SEQEND
  5
1DE
330
1D7
100
AcDbEntity
  8
Layer 1
370
     0
  0
POLYLINE
  5
1DF
330
1F
100
AcDbEntity
  8
Layer 1
370
     0
100
AcDb2dPolyline
 66
     1
 10
0.0
 20
0.0
 30
0.0
  0
VERTEX
  5
1E0
330
1DF
100
AcDbEntity
  8
Layer 1
370
     0
100
AcDbVertex
100
AcDb2dVertex
 10
4.611382378472222
 20
-4.7796630859375
 30
0.0
  0
VERTEX
  5
1E1
330
1DF
100
AcDbEntity
  8
Layer 1
370
     0
100
AcDbVertex
100
AcDb2dVertex
 10
5.270941840277778
 20
-4.7796630859375
 30
0.0
  0
VERTEX
  5
1E2
330
1DF
100
AcDbEntity
  8
Layer 1
370
     0
100
AcDbVertex
100
AcDb2dVertex
 10
5.270941840277778
 20
-5.057467990451388
 30
0.0
  0
VERTEX
  5
1E3
330
1DF
100
AcDbEntity
  8
Layer 1
370
     0
100
AcDbVertex
100
AcDb2dVertex
 10
5.031873914930555
 20
-5.057467990451388
 30
0.0
  0
VERTEX
  5
1E4
330
1DF
100
AcDbEntity
  8
Layer 1
370
     0
100
AcDbVertex
100
AcDb2dVertex
 10
4.941107855902778
 20
-5.148193359375
 30
0.0
  0
VERTEX
  5
1E5
330
1DF
100
AcDbEntity
  8
Layer 1
370
     0
100
AcDbVertex
100
AcDb2dVertex
 10
4.850396050347222
 20
-5.057467990451388
 30
0.0
  0
VERTEX
  5
1E6
330
1DF
100
AcDbEntity
  8
Layer 1
370
     0
100
AcDbVertex
100
AcDb2dVertex
 10
4.611382378472222
 20
-5.057467990451388
 30
0.0
  0
VERTEX
  5
1E7
330
1DF
100
AcDbEntity
  8
Layer 1
370
     0
100
AcDbVertex
100
AcDb2dVertex
 10
4.611382378472222
 20
-4.7796630859375
 30
0.0
  0
SEQEND
  5
1E8
330
1DF
100
AcDbEntity
  8
Layer 1
370
     0
  0
POLYLINE
  5
1E9
330
1F
100
AcDbEntity
  8
Layer 1
370
     0
100
AcDb2dPolyline
 66
     1
 10
0.0
 20
0.0
 30
0.0
  0
VERTEX
  5
1EA
330
1E9
100
AcDbEntity
  8
Layer 1
370
     0
100
AcDbVertex
100
AcDb2dVertex
 10
4.611382378472222
 20
-5.1876220703125
 30
0.0
  0
VERTEX
  5
1EB
330
1E9
100
AcDbEntity
  8
Layer 1
370
     0
100
AcDbVertex
100
AcDb2dVertex
 10
4.796495225694444
 20
-5.1876220703125
 30
0.0
  0
VERTEX
  5
1EC
330
1E9
100
AcDbEntity
  8
Layer 1
370
     0
100
AcDbVertex
100
AcDb2dVertex
 10
4.849039713541666
 20
-5.240193684895833
 30
0.0
  0
VERTEX
  5
1ED
330
1E9
100
AcDbEntity
  8
Layer 1
370
     0
100
AcDbVertex
100
AcDb2dVertex
 10
4.744981553819444
 20
-5.344333224826388
 30
0.0
  0
VERTEX
  5
1EE
330
1E9
100
AcDbEntity
  8
Layer 1
370
     0
100
AcDbVertex
100
AcDb2dVertex
 10
4.611382378472222
 20
-5.210679796006944
 30
0.0
  0
VERTEX
  5
1EF
330
1E9
100
AcDbEntity
  8
Layer 1
370
     0
100
AcDbVertex
100
AcDb2dVertex
 10
4.611382378472222
 20
-5.1876220703125
 30
0.0
  0
SEQEND
  5
1F0
330
1E9
100
AcDbEntity
  8
Layer 1
370
     0
  0
POLYLINE
  5
1F1
330
1F
100
AcDbEntity
  8
Layer 1
370
     0
100
AcDb2dPolyline
 66
     1
 10
0.0
 20
0.0
 30
0.0
  0
VERTEX
  5
1F2
330
1F1
100
AcDbEntity
  8
Layer 1
370
     0
100
AcDbVertex
100
AcDb2dVertex
 10
4.6529541015625
 20
-5.436374240451388
 30
0.0
  0
VERTEX
  5
1F3
330
1F1
100
AcDbEntity
  8
Layer 1
370
     0
100
AcDbVertex
100
AcDb2dVertex
 10
4.578843858506944
 20
-5.510443793402778
 30
0.0
  0
VERTEX
  5
1F4
330
1F1
100
AcDbEntity
  8
Layer 1
370
     0
100
AcDbVertex
100
AcDb2dVertex
 10
4.407145182291666
 20
-5.338650173611111
 30
0.0
  0
VERTEX
  5
1F5
330
1F1
100
AcDbEntity
  8
Layer 1
370
     0
100
AcDbVertex
100
AcDb2dVertex
 10
4.330118815104166
 20
-5.338650173611111
 30
0.0
  0
VERTEX
  5
1F6
330
1F1
100
AcDbEntity
  8
Layer 1
370
     0
100
AcDbVertex
100
AcDb2dVertex
 10
4.330118815104166
 20
-5.1876220703125
 30
0.0
  0
VERTEX
  5
1F7
330
1F1
100
AcDbEntity
  8
Layer 1
370
     0
100
AcDbVertex
100
AcDb2dVertex
 10
4.481201171875
 20
-5.1876220703125
 30
0.0
  0
VERTEX
  5
1F8
330
1F1
100
AcDbEntity
  8
Layer 1
370
     0
100
AcDbVertex
100
AcDb2dVertex
 10
4.481201171875
 20
-5.2645263671875
 30
0.0
  0
VERTEX
  5
1F9
330
1F1
100
AcDbEntity
  8
Layer 1
370
     0
100
AcDbVertex
100
AcDb2dVertex
 10
4.6529541015625
 20
-5.436374240451388
 30
0.0
  0
SEQEND
  5
1FA
330
1F1
100
AcDbEntity
  8
Layer 1
370
     0
  0
POLYLINE
  5
1FB
330
1F
100
AcDbEntity
  8
Layer 1
370
     0
100
AcDb2dPolyline
 66
     1
 10
0.0
 20
0.0
 30
0.0
  0
VERTEX
  5
1FC
330
1FB
100
AcDbEntity
  8
Layer 1
370
     0
100
AcDbVertex
100
AcDb2dVertex
 10
3.755886501736111
 20
-4.7796630859375
 30
0.0
  0
VERTEX
  5
1FD
330
1FB
100
AcDbEntity
  8
Layer 1
370
     0
100
AcDbVertex
100
AcDb2dVertex
 10
4.481201171875
 20
-4.7796630859375
 30
0.0
  0
VERTEX
  5
1FE
330
1FB
100
AcDbEntity
  8
Layer 1
370
     0
100
AcDbVertex
100
AcDb2dVertex
 10
4.481201171875
 20
-5.057467990451388
 30
0.0
  0
VERTEX
  5
1FF
330
1FB
100
AcDbEntity
  8
Layer 1
370
     0
100
AcDbVertex
100
AcDb2dVertex
 10
4.199964735243055
 20
-5.057467990451388
 30
0.0
  0
VERTEX
  5
200
330
1FB
100
AcDbEntity
  8
Layer 1
370
     0
100
AcDbVertex
100
AcDb2dVertex
 10
4.199964735243055
 20
-5.338650173611111
 30
0.0
  0
VERTEX
  5
201
330
1FB
100
AcDbEntity
  8
Layer 1
370
     0
100
AcDbVertex
100
AcDb2dVertex
 10
4.037163628472222
 20
-5.338650173611111
 30
0.0
  0
VERTEX
  5
202
330
1FB
100
AcDbEntity
  8
Layer 1
370
     0
100
AcDbVertex
100
AcDb2dVertex
 10
4.037163628472222
 20
-5.057467990451388
 30
0.0
  0
VERTEX
  5
203
330
1FB
100
AcDbEntity
  8
Layer 1
370
     0
100
AcDbVertex
100
AcDb2dVertex
 10
4.037116156684028
 20
-5.057467990451388
 30
0.0
  0
VERTEX
  5
204
330
1FB
100
AcDbEntity
  8
Layer 1
370
     0
100
AcDbVertex
100
AcDb2dVertex
 10
4.037116156684028
 20
-5.057467990451388
 30
0.0
  0
VERTEX
  5
205
330
1FB
100
AcDbEntity
  8
Layer 1
370
     0
100
AcDbVertex
100
AcDb2dVertex
 10
3.755886501736111
 20
-5.057467990451388
 30
0.0
  0
VERTEX
  5
206
330
1FB
100
AcDbEntity
  8
Layer 1
370
     0
100
AcDbVertex
100
AcDb2dVertex
 10
3.755886501736111
 20
-4.7796630859375
 30
0.0
  0
SEQEND
  5
207
330
1FB
100
AcDbEntity
  8
Layer 1
370
     0
  0
POLYLINE
  5
208
330
1F
100
AcDbEntity
  8
Layer 1
370
     0
100
AcDb2dPolyline
 66
     1
 10
0.0
 20
0.0
 30
0.0
  0
VERTEX
  5
209
330
208
100
AcDbEntity
  8
Layer 1
370
     0
100
AcDbVertex
100
AcDb2dVertex
 10
4.037116156684028
 20
-5.889322916666666
 30
0.0
  0
VERTEX
  5
20A
330
208
100
AcDbEntity
  8
Layer 1
370
     0
100
AcDbVertex
100
AcDb2dVertex
 10
3.946370442708333
 20
-5.798583984375
 30
0.0
  0
VERTEX
  5
20B
330
208
100
AcDbEntity
  8
Layer 1
370
     0
100
AcDbVertex
100
AcDb2dVertex
 10
4.037163628472222
 20
-5.707939995659722
 30
0.0
  0
VERTEX
  5
20C
330
208
100
AcDbEntity
  8
Layer 1
370
     0
100
AcDbVertex
100
AcDb2dVertex
 10
4.037163628472222
 20
-5.468831380208333
 30
0.0
  0
VERTEX
  5
20D
330
208
100
AcDbEntity
  8
Layer 1
370
     0
100
AcDbVertex
100
AcDb2dVertex
 10
4.199964735243055
 20
-5.468831380208333
 30
0.0
  0
VERTEX
  5
20E
330
208
100
AcDbEntity
  8
Layer 1
370
     0
100
AcDbVertex
100
AcDb2dVertex
 10
4.199964735243055
 20
-5.7078857421875
 30
0.0
  0
VERTEX
  5
20F
330
208
100
AcDbEntity
  8
Layer 1
370
     0
100
AcDbVertex
100
AcDb2dVertex
 10
4.290730794270833
 20
-5.798583984375
 30
0.0
  0
VERTEX
  5
210
330
208
100
AcDbEntity
  8
Layer 1
370
     0
100
AcDbVertex
100
AcDb2dVertex
 10
4.199964735243055
 20
-5.889322916666666
 30
0.0
  0
VERTEX
  5
211
330
208
100
AcDbEntity
  8
Layer 1
370
     0
100
AcDbVertex
100
AcDb2dVertex
 10
4.199964735243055
 20
-6.128377278645833
 30
0.0
  0
VERTEX
  5
212
330
208
100
AcDbEntity
  8
Layer 1
370
     0
100
AcDbVertex
100
AcDb2dVertex
 10
4.037163628472222
 20
-6.128377278645833
 30
0.0
  0
VERTEX
  5
213
330
208
100
AcDbEntity
  8
Layer 1
370
     0
100
AcDbVertex
100
AcDb2dVertex
 10
4.037163628472222
 20
-5.889322916666666
 30
0.0
  0
VERTEX
  5
214
330
208
100
AcDbEntity
  8
Layer 1
370
     0
100
AcDbVertex
100
AcDb2dVertex
 10
4.037116156684028
 20
-5.889322916666666
 30
0.0
  0
SEQEND
  5
215
330
208
100
AcDbEntity
  8
Layer 1
370
     0
  0
POLYLINE
  5
216
330
1F
100
AcDbEntity
  8
Layer 1
370
     0
100
AcDb2dPolyline
 66
     1
 10
0.0
 20
0.0
 30
0.0
  0
VERTEX
  5
217
330
216
100
AcDbEntity
  8
Layer 1
370
     0
100
AcDbVertex
100
AcDb2dVertex
 10
3.19183349609375
 20
-6.160834418402778
 30
0.0
  0
VERTEX
  5
218
330
216
100
AcDbEntity
  8
Layer 1
370
     0
100
AcDbVertex
100
AcDb2dVertex
 10
3.2958984375
 20
-6.056722005208333
 30
0.0
  0
VERTEX
  5
219
330
216
100
AcDbEntity
  8
Layer 1
370
     0
100
AcDbVertex
100
AcDb2dVertex
 10
3.400010850694444
 20
-6.160834418402778
 30
0.0
  0
VERTEX
  5
21A
330
216
100
AcDbEntity
  8
Layer 1
370
     0
100
AcDbVertex
100
AcDb2dVertex
 10
3.2958984375
 20
-6.264946831597221
 30
0.0
  0
VERTEX
  5
21B
330
216
100
AcDbEntity
  8
Layer 1
370
     0
100
AcDbVertex
100
AcDb2dVertex
 10
3.19183349609375
 20
-6.160834418402778
 30
0.0
  0
SEQEND
  5
21C
330
216
100
AcDbEntity
  8
Layer 1
370
     0
  0
POLYLINE
  5
21D
330
1F
100
AcDbEntity
  8
Layer 1
370
     0
100
AcDb2dPolyline
 66
     1
 10
0.0
 20
0.0
 30
0.0
  0
VERTEX
  5
21E
330
21D
100
AcDbEntity
  8
Layer 1
370
     0
100
AcDbVertex
100
AcDb2dVertex
 10
3.203925238715278
 20
-6.357014973958333
 30
0.0
  0
VERTEX
  5
21F
330
21D
100
AcDbEntity
  8
Layer 1
370
     0
100
AcDbVertex
100
AcDb2dVertex
 10
3.151299370659722
 20
-6.409613715277778
 30
0.0
  0
VERTEX
  5
220
330
21D
100
AcDbEntity
  8
Layer 1
370
     0
100
AcDbVertex
100
AcDb2dVertex
 10
2.96612548828125
 20
-6.409613715277778
 30
0.0
  0
VERTEX
  5
221
330
21D
100
AcDbEntity
  8
Layer 1
370
     0
100
AcDbVertex
100
AcDb2dVertex
 10
2.96612548828125
 20
-6.386528862847221
 30
0.0
  0
VERTEX
  5
222
330
21D
100
AcDbEntity
  8
Layer 1
370
     0
100
AcDbVertex
100
AcDb2dVertex
 10
3.099663628472222
 20
-6.252875434027778
 30
0.0
  0
VERTEX
  5
223
330
21D
100
AcDbEntity
  8
Layer 1
370
     0
100
AcDbVertex
100
AcDb2dVertex
 10
3.203925238715278
 20
-6.357014973958333
 30
0.0
  0
SEQEND
  5
224
330
21D
100
AcDbEntity
  8
Layer 1
370
     0
  0
POLYLINE
  5
225
330
1F
100
AcDbEntity
  8
Layer 1
370
     0
100
AcDb2dPolyline
 66
     1
 10
0.0
 20
0.0
 30
0.0
  0
VERTEX
  5
226
330
225
100
AcDbEntity
  8
Layer 1
370
     0
100
AcDbVertex
100
AcDb2dVertex
 10
3.2958984375
 20
-5.872694227430555
 30
0.0
  0
VERTEX
  5
227
330
225
100
AcDbEntity
  8
Layer 1
370
     0
100
AcDbVertex
100
AcDb2dVertex
 10
3.099663628472222
 20
-6.068861219618055
 30
0.0
  0
VERTEX
  5
228
330
225
100
AcDbEntity
  8
Layer 1
370
     0
100
AcDbVertex
100
AcDb2dVertex
 10
3.025743272569444
 20
-5.994805230034722
 30
0.0
  0
VERTEX
  5
229
330
225
100
AcDbEntity
  8
Layer 1
370
     0
100
AcDbVertex
100
AcDb2dVertex
 10
3.221903483072917
 20
-5.798583984375
 30
0.0
  0
VERTEX
  5
22A
330
225
100
AcDbEntity
  8
Layer 1
370
     0
100
AcDbVertex
100
AcDb2dVertex
 10
3.025743272569444
 20
-5.602444118923611
 30
0.0
  0
VERTEX
  5
22B
330
225
100
AcDbEntity
  8
Layer 1
370
     0
100
AcDbVertex
100
AcDb2dVertex
 10
3.062662760416667
 20
-5.565483940972222
 30
0.0
  0
VERTEX
  5
22C
330
225
100
AcDbEntity
  8
Layer 1
370
     0
100
AcDbVertex
100
AcDb2dVertex
 10
3.099860297309028
 20
-5.528347439236111
 30
0.0
  0
VERTEX
  5
22D
330
225
100
AcDbEntity
  8
Layer 1
370
     0
100
AcDbVertex
100
AcDb2dVertex
 10
3.2958984375
 20
-5.724514431423611
 30
0.0
  0
VERTEX
  5
22E
330
225
100
AcDbEntity
  8
Layer 1
370
     0
100
AcDbVertex
100
AcDb2dVertex
 10
3.492072211371528
 20
-5.528347439236111
 30
0.0
  0
VERTEX
  5
22F
330
225
100
AcDbEntity
  8
Layer 1
370
     0
100
AcDbVertex
100
AcDb2dVertex
 10
3.56622314453125
 20
-5.602579752604166
 30
0.0
  0
VERTEX
  5
230
330
225
100
AcDbEntity
  8
Layer 1
370
     0
100
AcDbVertex
100
AcDb2dVertex
 10
3.370279947916667
 20
-5.798583984375
 30
0.0
  0
VERTEX
  5
231
330
225
100
AcDbEntity
  8
Layer 1
370
     0
100
AcDbVertex
100
AcDb2dVertex
 10
3.56622314453125
 20
-5.994615342881944
 30
0.0
  0
VERTEX
  5
232
330
225
100
AcDbEntity
  8
Layer 1
370
     0
100
AcDbVertex
100
AcDb2dVertex
 10
3.492072211371528
 20
-6.068861219618055
 30
0.0
  0
VERTEX
  5
233
330
225
100
AcDbEntity
  8
Layer 1
370
     0
100
AcDbVertex
100
AcDb2dVertex
 10
3.2958984375
 20
-5.872694227430555
 30
0.0
  0
SEQEND
  5
234
330
225
100
AcDbEntity
  8
Layer 1
370
     0
  0
POLYLINE
  5
235
330
1F
100
AcDbEntity
  8
Layer 1
370
     0
100
AcDb2dPolyline
 66
     1
 10
0.0
 20
0.0
 30
0.0
  0
VERTEX
  5
236
330
235
100
AcDbEntity
  8
Layer 1
370
     0
100
AcDbVertex
100
AcDb2dVertex
 10
2.737514919704861
 20
-5.890679253472222
 30
0.0
  0
VERTEX
  5
237
330
235
100
AcDbEntity
  8
Layer 1
370
     0
100
AcDbVertex
100
AcDb2dVertex
 10
2.841722276475694
 20
-5.994805230034722
 30
0.0
  0
VERTEX
  5
238
330
235
100
AcDbEntity
  8
Layer 1
370
     0
100
AcDbVertex
100
AcDb2dVertex
 10
2.708021375868055
 20
-6.128377278645833
 30
0.0
  0
VERTEX
  5
239
330
235
100
AcDbEntity
  8
Layer 1
370
     0
100
AcDbVertex
100
AcDb2dVertex
 10
2.684841579861111
 20
-6.128377278645833
 30
0.0
  0
VERTEX
  5
23A
330
235
100
AcDbEntity
  8
Layer 1
370
     0
100
AcDbVertex
100
AcDb2dVertex
 10
2.684841579861111
 20
-5.943223741319444
 30
0.0
  0
VERTEX
  5
23B
330
235
100
AcDbEntity
  8
Layer 1
370
     0
100
AcDbVertex
100
AcDb2dVertex
 10
2.737514919704861
 20
-5.890679253472222
 30
0.0
  0
SEQEND
  5
23C
330
235
100
AcDbEntity
  8
Layer 1
370
     0
  0
POLYLINE
  5
23D
330
1F
100
AcDbEntity
  8
Layer 1
370
     0
100
AcDb2dPolyline
 66
     1
 10
0.0
 20
0.0
 30
0.0
  0
VERTEX
  5
23E
330
23D
100
AcDbEntity
  8
Layer 1
370
     0
100
AcDbVertex
100
AcDb2dVertex
 10
2.684841579861111
 20
-5.653957790798611
 30
0.0
  0
VERTEX
  5
23F
330
23D
100
AcDbEntity
  8
Layer 1
370
     0
100
AcDbVertex
100
AcDb2dVertex
 10
2.684841579861111
 20
-5.468831380208333
 30
0.0
  0
VERTEX
  5
240
330
23D
100
AcDbEntity
  8
Layer 1
370
     0
100
AcDbVertex
100
AcDb2dVertex
 10
2.708021375868055
 20
-5.468831380208333
 30
0.0
  0
VERTEX
  5
241
330
23D
100
AcDbEntity
  8
Layer 1
370
     0
100
AcDbVertex
100
AcDb2dVertex
 10
2.841600206163194
 20
-5.602444118923611
 30
0.0
  0
VERTEX
  5
242
330
23D
100
AcDbEntity
  8
Layer 1
370
     0
100
AcDbVertex
100
AcDb2dVertex
 10
2.737514919704861
 20
-5.706610785590278
 30
0.0
  0
VERTEX
  5
243
330
23D
100
AcDbEntity
  8
Layer 1
370
     0
100
AcDbVertex
100
AcDb2dVertex
 10
2.684841579861111
 20
-5.653957790798611
 30
0.0
  0
SEQEND
  5
244
330
23D
100
AcDbEntity
  8
Layer 1
370
     0
  0
POLYLINE
  5
245
330
1F
100
AcDbEntity
  8
Layer 1
370
     0
100
AcDb2dPolyline
 66
     1
 10
0.0
 20
0.0
 30
0.0
  0
VERTEX
  5
246
330
245
100
AcDbEntity
  8
Layer 1
370
     0
100
AcDbVertex
100
AcDb2dVertex
 10
2.829535590277778
 20
-5.798583984375
 30
0.0
  0
VERTEX
  5
247
330
245
100
AcDbEntity
  8
Layer 1
370
     0
100
AcDbVertex
100
AcDb2dVertex
 10
2.933675130208333
 20
-5.694444444444444
 30
0.0
  0
VERTEX
  5
248
330
245
100
AcDbEntity
  8
Layer 1
370
     0
100
AcDbVertex
100
AcDb2dVertex
 10
3.037835015190972
 20
-5.798583984375
 30
0.0
  0
VERTEX
  5
249
330
245
100
AcDbEntity
  8
Layer 1
370
     0
100
AcDbVertex
100
AcDb2dVertex
 10
2.933675130208333
 20
-5.902723524305555
 30
0.0
  0
VERTEX
  5
24A
330
245
100
AcDbEntity
  8
Layer 1
370
     0
100
AcDbVertex
100
AcDb2dVertex
 10
2.829535590277778
 20
-5.798583984375
 30
0.0
  0
SEQEND
  5
24B
330
245
100
AcDbEntity
  8
Layer 1
370
     0
  0
POLYLINE
  5
24C
330
1F
100
AcDbEntity
  8
Layer 1
370
     0
100
AcDb2dPolyline
 66
     1
 10
0.0
 20
0.0
 30
0.0
  0
VERTEX
  5
24D
330
24C
100
AcDbEntity
  8
Layer 1
370
     0
100
AcDbVertex
100
AcDb2dVertex
 10
3.400010850694444
 20
-5.436374240451388
 30
0.0
  0
VERTEX
  5
24E
330
24C
100
AcDbEntity
  8
Layer 1
370
     0
100
AcDbVertex
100
AcDb2dVertex
 10
3.2958984375
 20
-5.540473090277778
 30
0.0
  0
VERTEX
  5
24F
330
24C
100
AcDbEntity
  8
Layer 1
370
     0
100
AcDbVertex
100
AcDb2dVertex
 10
3.19183349609375
 20
-5.436374240451388
 30
0.0
  0
VERTEX
  5
250
330
24C
100
AcDbEntity
  8
Layer 1
370
     0
100
AcDbVertex
100
AcDb2dVertex
 10
3.2958984375
 20
-5.332221137152778
 30
0.0
  0
VERTEX
  5
251
330
24C
100
AcDbEntity
  8
Layer 1
370
     0
100
AcDbVertex
100
AcDb2dVertex
 10
3.400010850694444
 20
-5.436374240451388
 30
0.0
  0
SEQEND
  5
252
330
24C
100
AcDbEntity
  8
Layer 1
370
     0
  0
POLYLINE
  5
253
330
1F
100
AcDbEntity
  8
Layer 1
370
     0
100
AcDb2dPolyline
 66
     1
 10
0.0
 20
0.0
 30
0.0
  0
VERTEX
  5
254
330
253
100
AcDbEntity
  8
Layer 1
370
     0
100
AcDbVertex
100
AcDb2dVertex
 10
3.388014051649305
 20
-5.240193684895833
 30
0.0
  0
VERTEX
  5
255
330
253
100
AcDbEntity
  8
Layer 1
370
     0
100
AcDbVertex
100
AcDb2dVertex
 10
3.44061279296875
 20
-5.1876220703125
 30
0.0
  0
VERTEX
  5
256
330
253
100
AcDbEntity
  8
Layer 1
370
     0
100
AcDbVertex
100
AcDb2dVertex
 10
3.625766330295139
 20
-5.1876220703125
 30
0.0
  0
VERTEX
  5
257
330
253
100
AcDbEntity
  8
Layer 1
370
     0
100
AcDbVertex
100
AcDb2dVertex
 10
3.625766330295139
 20
-5.210679796006944
 30
0.0
  0
VERTEX
  5
258
330
253
100
AcDbEntity
  8
Layer 1
370
     0
100
AcDbVertex
100
AcDb2dVertex
 10
3.492072211371528
 20
-5.344333224826388
 30
0.0
  0
VERTEX
  5
259
330
253
100
AcDbEntity
  8
Layer 1
370
     0
100
AcDbVertex
100
AcDb2dVertex
 10
3.388014051649305
 20
-5.240193684895833
 30
0.0
  0
SEQEND
  5
25A
330
253
100
AcDbEntity
  8
Layer 1
370
     0
  0
POLYLINE
  5
25B
330
1F
100
AcDbEntity
  8
Layer 1
370
     0
100
AcDb2dPolyline
 66
     1
 10
0.0
 20
0.0
 30
0.0
  0
VERTEX
  5
25C
330
25B
100
AcDbEntity
  8
Layer 1
370
     0
100
AcDbVertex
100
AcDb2dVertex
 10
3.554280598958333
 20
-5.798583984375
 30
0.0
  0
VERTEX
  5
25D
330
25B
100
AcDbEntity
  8
Layer 1
370
     0
100
AcDbVertex
100
AcDb2dVertex
 10
3.658365885416667
 20
-5.694539388020833
 30
0.0
  0
VERTEX
  5
25E
330
25B
100
AcDbEntity
  8
Layer 1
370
     0
100
AcDbVertex
100
AcDb2dVertex
 10
3.762342664930555
 20
-5.798583984375
 30
0.0
  0
VERTEX
  5
25F
330
25B
100
AcDbEntity
  8
Layer 1
370
     0
100
AcDbVertex
100
AcDb2dVertex
 10
3.658365885416667
 20
-5.902615017361111
 30
0.0
  0
VERTEX
  5
260
330
25B
100
AcDbEntity
  8
Layer 1
370
     0
100
AcDbVertex
100
AcDb2dVertex
 10
3.554280598958333
 20
-5.798583984375
 30
0.0
  0
SEQEND
  5
261
330
25B
100
AcDbEntity
  8
Layer 1
370
     0
  0
POLYLINE
  5
262
330
1F
100
AcDbEntity
  8
Layer 1
370
     0
100
AcDb2dPolyline
 66
     1
 10
0.0
 20
0.0
 30
0.0
  0
VERTEX
  5
263
330
262
100
AcDbEntity
  8
Layer 1
370
     0
100
AcDbVertex
100
AcDb2dVertex
 10
3.854363335503472
 20
-5.890679253472222
 30
0.0
  0
VERTEX
  5
264
330
262
100
AcDbEntity
  8
Layer 1
370
     0
100
AcDbVertex
100
AcDb2dVertex
 10
3.906995985243055
 20
-5.943223741319444
 30
0.0
  0
VERTEX
  5
265
330
262
100
AcDbEntity
  8
Layer 1
370
     0
100
AcDbVertex
100
AcDb2dVertex
 10
3.906995985243055
 20
-6.128377278645833
 30
0.0
  0
VERTEX
  5
266
330
262
100
AcDbEntity
  8
Layer 1
370
     0
100
AcDbVertex
100
AcDb2dVertex
 10
3.884073893229167
 20
-6.128377278645833
 30
0.0
  0
VERTEX
  5
267
330
262
100
AcDbEntity
  8
Layer 1
370
     0
100
AcDbVertex
100
AcDb2dVertex
 10
3.750379774305555
 20
-5.994615342881944
 30
0.0
  0
VERTEX
  5
268
330
262
100
AcDbEntity
  8
Layer 1
370
     0
100
AcDbVertex
100
AcDb2dVertex
 10
3.854363335503472
 20
-5.890679253472222
 30
0.0
  0
SEQEND
  5
269
330
262
100
AcDbEntity
  8
Layer 1
370
     0
  0
POLYLINE
  5
26A
330
1F
100
AcDbEntity
  8
Layer 1
370
     0
100
AcDb2dPolyline
 66
     1
 10
0.0
 20
0.0
 30
0.0
  0
VERTEX
  5
26B
330
26A
100
AcDbEntity
  8
Layer 1
370
     0
100
AcDbVertex
100
AcDb2dVertex
 10
3.854363335503472
 20
-5.706610785590278
 30
0.0
  0
VERTEX
  5
26C
330
26A
100
AcDbEntity
  8
Layer 1
370
     0
100
AcDbVertex
100
AcDb2dVertex
 10
3.750379774305555
 20
-5.602579752604166
 30
0.0
  0
VERTEX
  5
26D
330
26A
100
AcDbEntity
  8
Layer 1
370
     0
100
AcDbVertex
100
AcDb2dVertex
 10
3.884073893229167
 20
-5.468831380208333
 30
0.0
  0
VERTEX
  5
26E
330
26A
100
AcDbEntity
  8
Layer 1
370
     0
100
AcDbVertex
100
AcDb2dVertex
 10
3.906995985243055
 20
-5.468831380208333
 30
0.0
  0
VERTEX
  5
26F
330
26A
100
AcDbEntity
  8
Layer 1
370
     0
100
AcDbVertex
100
AcDb2dVertex
 10
3.906995985243055
 20
-5.653957790798611
 30
0.0
  0
VERTEX
  5
270
330
26A
100
AcDbEntity
  8
Layer 1
370
     0
100
AcDbVertex
100
AcDb2dVertex
 10
3.854363335503472
 20
-5.706610785590278
 30
0.0
  0
SEQEND
  5
271
330
26A
100
AcDbEntity
  8
Layer 1
370
     0
  0
POLYLINE
  5
272
330
1F
100
AcDbEntity
  8
Layer 1
370
     0
100
AcDb2dPolyline
 66
     1
 10
0.0
 20
0.0
 30
0.0
  0
VERTEX
  5
273
330
272
100
AcDbEntity
  8
Layer 1
370
     0
100
AcDbVertex
100
AcDb2dVertex
 10
3.755886501736111
 20
-5.1876220703125
 30
0.0
  0
VERTEX
  5
274
330
272
100
AcDbEntity
  8
Layer 1
370
     0
100
AcDbVertex
100
AcDb2dVertex
 10
3.906995985243055
 20
-5.1876220703125
 30
0.0
  0
VERTEX
  5
275
330
272
100
AcDbEntity
  8
Layer 1
370
     0
100
AcDbVertex
100
AcDb2dVertex
 10
3.906995985243055
 20
-5.338650173611111
 30
0.0
  0
VERTEX
  5
276
330
272
100
AcDbEntity
  8
Layer 1
370
     0
100
AcDbVertex
100
AcDb2dVertex
 10
3.830125596788194
 20
-5.338650173611111
 30
0.0
  0
VERTEX
  5
277
330
272
100
AcDbEntity
  8
Layer 1
370
     0
100
AcDbVertex
100
AcDb2dVertex
 10
3.658365885416667
 20
-5.510606553819444
 30
0.0
  0
VERTEX
  5
278
330
272
100
AcDbEntity
  8
Layer 1
370
     0
100
AcDbVertex
100
AcDb2dVertex
 10
3.58416748046875
 20
-5.436374240451388
 30
0.0
  0
VERTEX
  5
279
330
272
100
AcDbEntity
  8
Layer 1
370
     0
100
AcDbVertex
100
AcDb2dVertex
 10
3.755886501736111
 20
-5.264580620659722
 30
0.0
  0
VERTEX
  5
27A
330
272
100
AcDbEntity
  8
Layer 1
370
     0
100
AcDbVertex
100
AcDb2dVertex
 10
3.755886501736111
 20
-5.1876220703125
 30
0.0
  0
SEQEND
  5
27B
330
272
100
AcDbEntity
  8
Layer 1
370
     0
  0
POLYLINE
  5
27C
330
1F
100
AcDbEntity
  8
Layer 1
370
     0
100
AcDb2dPolyline
 66
     1
 10
0.0
 20
0.0
 30
0.0
  0
VERTEX
  5
27D
330
27C
100
AcDbEntity
  8
Layer 1
370
     0
100
AcDbVertex
100
AcDb2dVertex
 10
2.96612548828125
 20
-4.7796630859375
 30
0.0
  0
VERTEX
  5
27E
330
27C
100
AcDbEntity
  8
Layer 1
370
     0
100
AcDbVertex
100
AcDb2dVertex
 10
3.625766330295139
 20
-4.7796630859375
 30
0.0
  0
VERTEX
  5
27F
330
27C
100
AcDbEntity
  8
Layer 1
370
     0
100
AcDbVertex
100
AcDb2dVertex
 10
3.625766330295139
 20
-5.057467990451388
 30
0.0
  0
VERTEX
  5
280
330
27C
100
AcDbEntity
  8
Layer 1
370
     0
100
AcDbVertex
100
AcDb2dVertex
 10
3.386698404947917
 20
-5.057467990451388
 30
0.0
  0
VERTEX
  5
281
330
27C
100
AcDbEntity
  8
Layer 1
370
     0
100
AcDbVertex
100
AcDb2dVertex
 10
3.386698404947917
 20
-5.057467990451388
 30
0.0
  0
VERTEX
  5
282
330
27C
100
AcDbEntity
  8
Layer 1
370
     0
100
AcDbVertex
100
AcDb2dVertex
 10
3.386623806423611
 20
-5.057467990451388
 30
0.0
  0
VERTEX
  5
283
330
27C
100
AcDbEntity
  8
Layer 1
370
     0
100
AcDbVertex
100
AcDb2dVertex
 10
3.2958984375
 20
-5.148234049479166
 30
0.0
  0
VERTEX
  5
284
330
27C
100
AcDbEntity
  8
Layer 1
370
     0
100
AcDbVertex
100
AcDb2dVertex
 10
3.205206976996528
 20
-5.057467990451388
 30
0.0
  0
VERTEX
  5
285
330
27C
100
AcDbEntity
  8
Layer 1
370
     0
100
AcDbVertex
100
AcDb2dVertex
 10
2.96612548828125
 20
-5.057467990451388
 30
0.0
  0
VERTEX
  5
286
330
27C
100
AcDbEntity
  8
Layer 1
370
     0
100
AcDbVertex
100
AcDb2dVertex
 10
2.96612548828125
 20
-4.7796630859375
 30
0.0
  0
SEQEND
  5
287
330
27C
100
AcDbEntity
  8
Layer 1
370
     0
  0
POLYLINE
  5
288
330
1F
100
AcDbEntity
  8
Layer 1
370
     0
100
AcDb2dPolyline
 66
     1
 10
0.0
 20
0.0
 30
0.0
  0
VERTEX
  5
289
330
288
100
AcDbEntity
  8
Layer 1
370
     0
100
AcDbVertex
100
AcDb2dVertex
 10
2.96612548828125
 20
-5.1876220703125
 30
0.0
  0
VERTEX
  5
28A
330
288
100
AcDbEntity
  8
Layer 1
370
     0
100
AcDbVertex
100
AcDb2dVertex
 10
3.151299370659722
 20
-5.1876220703125
 30
0.0
  0
VERTEX
  5
28B
330
288
100
AcDbEntity
  8
Layer 1
370
     0
100
AcDbVertex
100
AcDb2dVertex
 10
3.203925238715278
 20
-5.240193684895833
 30
0.0
  0
VERTEX
  5
28C
330
288
100
AcDbEntity
  8
Layer 1
370
     0
100
AcDbVertex
100
AcDb2dVertex
 10
3.099663628472222
 20
-5.344333224826388
 30
0.0
  0
VERTEX
  5
28D
330
288
100
AcDbEntity
  8
Layer 1
370
     0
100
AcDbVertex
100
AcDb2dVertex
 10
2.96612548828125
 20
-5.210679796006944
 30
0.0
  0
VERTEX
  5
28E
330
288
100
AcDbEntity
  8
Layer 1
370
     0
100
AcDbVertex
100
AcDb2dVertex
 10
2.96612548828125
 20
-5.1876220703125
 30
0.0
  0
SEQEND
  5
28F
330
288
100
AcDbEntity
  8
Layer 1
370
     0
  0
POLYLINE
  5
290
330
1F
100
AcDbEntity
  8
Layer 1
370
     0
100
AcDb2dPolyline
 66
     1
 10
0.0
 20
0.0
 30
0.0
  0
VERTEX
  5
291
330
290
100
AcDbEntity
  8
Layer 1
370
     0
100
AcDbVertex
100
AcDb2dVertex
 10
3.007710774739583
 20
-5.436374240451388
 30
0.0
  0
VERTEX
  5
292
330
290
100
AcDbEntity
  8
Layer 1
370
     0
100
AcDbVertex
100
AcDb2dVertex
 10
2.970716688368055
 20
-5.473456488715278
 30
0.0
  0
VERTEX
  5
293
330
290
100
AcDbEntity
  8
Layer 1
370
     0
100
AcDbVertex
100
AcDb2dVertex
 10
2.933675130208333
 20
-5.510321723090278
 30
0.0
  0
VERTEX
  5
294
330
290
100
AcDbEntity
  8
Layer 1
370
     0
100
AcDbVertex
100
AcDb2dVertex
 10
2.762037489149305
 20
-5.338650173611111
 30
0.0
  0
VERTEX
  5
295
330
290
100
AcDbEntity
  8
Layer 1
370
     0
100
AcDbVertex
100
AcDb2dVertex
 10
2.684841579861111
 20
-5.338650173611111
 30
0.0
  0
VERTEX
  5
296
330
290
100
AcDbEntity
  8
Layer 1
370
     0
100
AcDbVertex
100
AcDb2dVertex
 10
2.684841579861111
 20
-5.1876220703125
 30
0.0
  0
VERTEX
  5
297
330
290
100
AcDbEntity
  8
Layer 1
370
     0
100
AcDbVertex
100
AcDb2dVertex
 10
2.836005316840278
 20
-5.1876220703125
 30
0.0
  0
VERTEX
  5
298
330
290
100
AcDbEntity
  8
Layer 1
370
     0
100
AcDbVertex
100
AcDb2dVertex
 10
2.836005316840278
 20
-5.2645263671875
 30
0.0
  0
VERTEX
  5
299
330
290
100
AcDbEntity
  8
Layer 1
370
     0
100
AcDbVertex
100
AcDb2dVertex
 10
3.007710774739583
 20
-5.436374240451388
 30
0.0
  0
SEQEND
  5
29A
330
290
100
AcDbEntity
  8
Layer 1
370
     0
  0
POLYLINE
  5
29B
330
1F
100
AcDbEntity
  8
Layer 1
370
     0
100
AcDb2dPolyline
 66
     1
 10
0.0
 20
0.0
 30
0.0
  0
VERTEX
  5
29C
330
29B
100
AcDbEntity
  8
Layer 1
370
     0
100
AcDbVertex
100
AcDb2dVertex
 10
2.110934787326389
 20
-4.7796630859375
 30
0.0
  0
VERTEX
  5
29D
330
29B
100
AcDbEntity
  8
Layer 1
370
     0
100
AcDbVertex
100
AcDb2dVertex
 10
2.836005316840278
 20
-4.7796630859375
 30
0.0
  0
VERTEX
  5
29E
330
29B
100
AcDbEntity
  8
Layer 1
370
     0
100
AcDbVertex
100
AcDb2dVertex
 10
2.836005316840278
 20
-5.057467990451388
 30
0.0
  0
VERTEX
  5
29F
330
29B
100
AcDbEntity
  8
Layer 1
370
     0
100
AcDbVertex
100
AcDb2dVertex
 10
2.554789225260417
 20
-5.057467990451388
 30
0.0
  0
VERTEX
  5
2A0
330
29B
100
AcDbEntity
  8
Layer 1
370
     0
100
AcDbVertex
100
AcDb2dVertex
 10
2.554789225260417
 20
-5.338650173611111
 30
0.0
  0
VERTEX
  5
2A1
330
29B
100
AcDbEntity
  8
Layer 1
370
     0
100
AcDbVertex
100
AcDb2dVertex
 10
2.392232259114583
 20
-5.338650173611111
 30
0.0
  0
VERTEX
  5
2A2
330
29B
100
AcDbEntity
  8
Layer 1
370
     0
100
AcDbVertex
100
AcDb2dVertex
 10
2.392232259114583
 20
-5.057467990451388
 30
0.0
  0
VERTEX
  5
2A3
330
29B
100
AcDbEntity
  8
Layer 1
370
     0
100
AcDbVertex
100
AcDb2dVertex
 10
2.392157660590278
 20
-5.057467990451388
 30
0.0
  0
VERTEX
  5
2A4
330
29B
100
AcDbEntity
  8
Layer 1
370
     0
100
AcDbVertex
100
AcDb2dVertex
 10
2.392157660590278
 20
-5.057467990451388
 30
0.0
  0
VERTEX
  5
2A5
330
29B
100
AcDbEntity
  8
Layer 1
370
     0
100
AcDbVertex
100
AcDb2dVertex
 10
2.110934787326389
 20
-5.057467990451388
 30
0.0
  0
VERTEX
  5
2A6
330
29B
100
AcDbEntity
  8
Layer 1
370
     0
100
AcDbVertex
100
AcDb2dVertex
 10
2.110934787326389
 20
-4.7796630859375
 30
0.0
  0
SEQEND
  5
2A7
330
29B
100
AcDbEntity
  8
Layer 1
370
     0
  0
POLYLINE
  5
2A8
330
1F
100
AcDbEntity
  8
Layer 1
370
     0
100
AcDb2dPolyline
 66
     1
 10
0.0
 20
0.0
 30
0.0
  0
VERTEX
  5
2A9
330
2A8
100
AcDbEntity
  8
Layer 1
370
     0
100
AcDbVertex
100
AcDb2dVertex
 10
2.301466200086805
 20
-5.798583984375
 30
0.0
  0
VERTEX
  5
2AA
330
2A8
100
AcDbEntity
  8
Layer 1
370
     0
100
AcDbVertex
100
AcDb2dVertex
 10
2.392232259114583
 20
-5.707939995659722
 30
0.0
  0
VERTEX
  5
2AB
330
2A8
100
AcDbEntity
  8
Layer 1
370
     0
100
AcDbVertex
100
AcDb2dVertex
 10
2.392232259114583
 20
-5.468831380208333
 30
0.0
  0
VERTEX
  5
2AC
330
2A8
100
AcDbEntity
  8
Layer 1
370
     0
100
AcDbVertex
100
AcDb2dVertex
 10
2.554789225260417
 20
-5.468831380208333
 30
0.0
  0
VERTEX
  5
2AD
330
2A8
100
AcDbEntity
  8
Layer 1
370
     0
100
AcDbVertex
100
AcDb2dVertex
 10
2.554789225260417
 20
-5.7078857421875
 30
0.0
  0
VERTEX
  5
2AE
330
2A8
100
AcDbEntity
  8
Layer 1
370
     0
100
AcDbVertex
100
AcDb2dVertex
 10
2.554789225260417
 20
-5.707939995659722
 30
0.0
  0
VERTEX
  5
2AF
330
2A8
100
AcDbEntity
  8
Layer 1
370
     0
100
AcDbVertex
100
AcDb2dVertex
 10
2.645487467447917
 20
-5.798583984375
 30
0.0
  0
VERTEX
  5
2B0
330
2A8
100
AcDbEntity
  8
Layer 1
370
     0
100
AcDbVertex
100
AcDb2dVertex
 10
2.554789225260417
 20
-5.889322916666666
 30
0.0
  0
VERTEX
  5
2B1
330
2A8
100
AcDbEntity
  8
Layer 1
370
     0
100
AcDbVertex
100
AcDb2dVertex
 10
2.554789225260417
 20
-6.128377278645833
 30
0.0
  0
VERTEX
  5
2B2
330
2A8
100
AcDbEntity
  8
Layer 1
370
     0
100
AcDbVertex
100
AcDb2dVertex
 10
2.392232259114583
 20
-6.128377278645833
 30
0.0
  0
VERTEX
  5
2B3
330
2A8
100
AcDbEntity
  8
Layer 1
370
     0
100
AcDbVertex
100
AcDb2dVertex
 10
2.392232259114583
 20
-5.889322916666666
 30
0.0
  0
VERTEX
  5
2B4
330
2A8
100
AcDbEntity
  8
Layer 1
370
     0
100
AcDbVertex
100
AcDb2dVertex
 10
2.301466200086805
 20
-5.798583984375
 30
0.0
  0
SEQEND
  5
2B5
330
2A8
100
AcDbEntity
  8
Layer 1
370
     0
  0
POLYLINE
  5
2B6
330
1F
100
AcDbEntity
  8
Layer 1
370
     0
100
AcDb2dPolyline
 66
     1
 10
0.0
 20
0.0
 30
0.0
  0
VERTEX
  5
2B7
330
2B6
100
AcDbEntity
  8
Layer 1
370
     0
100
AcDbVertex
100
AcDb2dVertex
 10
1.546929253472222
 20
-6.160834418402778
 30
0.0
  0
VERTEX
  5
2B8
330
2B6
100
AcDbEntity
  8
Layer 1
370
     0
100
AcDbVertex
100
AcDb2dVertex
 10
1.650994194878472
 20
-6.056722005208333
 30
0.0
  0
VERTEX
  5
2B9
330
2B6
100
AcDbEntity
  8
Layer 1
370
     0
100
AcDbVertex
100
AcDb2dVertex
 10
1.755140516493055
 20
-6.160834418402778
 30
0.0
  0
VERTEX
  5
2BA
330
2B6
100
AcDbEntity
  8
Layer 1
370
     0
100
AcDbVertex
100
AcDb2dVertex
 10
1.650994194878472
 20
-6.264946831597221
 30
0.0
  0
VERTEX
  5
2BB
330
2B6
100
AcDbEntity
  8
Layer 1
370
     0
100
AcDbVertex
100
AcDb2dVertex
 10
1.546929253472222
 20
-6.160834418402778
 30
0.0
  0
SEQEND
  5
2BC
330
2B6
100
AcDbEntity
  8
Layer 1
370
     0
  0
POLYLINE
  5
2BD
330
1F
100
AcDbEntity
  8
Layer 1
370
     0
100
AcDb2dPolyline
 66
     1
 10
0.0
 20
0.0
 30
0.0
  0
VERTEX
  5
2BE
330
2BD
100
AcDbEntity
  8
Layer 1
370
     0
100
AcDbVertex
100
AcDb2dVertex
 10
1.55902099609375
 20
-6.357014973958333
 30
0.0
  0
VERTEX
  5
2BF
330
2BD
100
AcDbEntity
  8
Layer 1
370
     0
100
AcDbVertex
100
AcDb2dVertex
 10
1.50640869140625
 20
-6.409613715277778
 30
0.0
  0
VERTEX
  5
2C0
330
2BD
100
AcDbEntity
  8
Layer 1
370
     0
100
AcDbVertex
100
AcDb2dVertex
 10
1.321322970920139
 20
-6.409613715277778
 30
0.0
  0
VERTEX
  5
2C1
330
2BD
100
AcDbEntity
  8
Layer 1
370
     0
100
AcDbVertex
100
AcDb2dVertex
 10
1.321322970920139
 20
-6.386528862847221
 30
0.0
  0
VERTEX
  5
2C2
330
2BD
100
AcDbEntity
  8
Layer 1
370
     0
100
AcDbVertex
100
AcDb2dVertex
 10
1.454901801215278
 20
-6.2529296875
 30
0.0
  0
VERTEX
  5
2C3
330
2BD
100
AcDbEntity
  8
Layer 1
370
     0
100
AcDbVertex
100
AcDb2dVertex
 10
1.55902099609375
 20
-6.357014973958333
 30
0.0
  0
SEQEND
  5
2C4
330
2BD
100
AcDbEntity
  8
Layer 1
370
     0
  0
POLYLINE
  5
2C5
330
1F
100
AcDbEntity
  8
Layer 1
370
     0
100
AcDb2dPolyline
 66
     1
 10
0.0
 20
0.0
 30
0.0
  0
VERTEX
  5
2C6
330
2C5
100
AcDbEntity
  8
Layer 1
370
     0
100
AcDbVertex
100
AcDb2dVertex
 10
1.650994194878472
 20
-5.872694227430555
 30
0.0
  0
VERTEX
  5
2C7
330
2C5
100
AcDbEntity
  8
Layer 1
370
     0
100
AcDbVertex
100
AcDb2dVertex
 10
1.454901801215278
 20
-6.068861219618055
 30
0.0
  0
VERTEX
  5
2C8
330
2C5
100
AcDbEntity
  8
Layer 1
370
     0
100
AcDbVertex
100
AcDb2dVertex
 10
1.380818684895833
 20
-5.994764539930555
 30
0.0
  0
VERTEX
  5
2C9
330
2C5
100
AcDbEntity
  8
Layer 1
370
     0
100
AcDbVertex
100
AcDb2dVertex
 10
1.576877170138889
 20
-5.798583984375
 30
0.0
  0
VERTEX
  5
2CA
330
2C5
100
AcDbEntity
  8
Layer 1
370
     0
100
AcDbVertex
100
AcDb2dVertex
 10
1.380818684895833
 20
-5.602444118923611
 30
0.0
  0
VERTEX
  5
2CB
330
2C5
100
AcDbEntity
  8
Layer 1
370
     0
100
AcDbVertex
100
AcDb2dVertex
 10
1.454901801215278
 20
-5.528347439236111
 30
0.0
  0
VERTEX
  5
2CC
330
2C5
100
AcDbEntity
  8
Layer 1
370
     0
100
AcDbVertex
100
AcDb2dVertex
 10
1.650994194878472
 20
-5.724541558159722
 30
0.0
  0
VERTEX
  5
2CD
330
2C5
100
AcDbEntity
  8
Layer 1
370
     0
100
AcDbVertex
100
AcDb2dVertex
 10
1.847215440538194
 20
-5.528347439236111
 30
0.0
  0
VERTEX
  5
2CE
330
2C5
100
AcDbEntity
  8
Layer 1
370
     0
100
AcDbVertex
100
AcDb2dVertex
 10
1.921230740017361
 20
-5.602444118923611
 30
0.0
  0
VERTEX
  5
2CF
330
2C5
100
AcDbEntity
  8
Layer 1
370
     0
100
AcDbVertex
100
AcDb2dVertex
 10
1.725084092881944
 20
-5.798583984375
 30
0.0
  0
VERTEX
  5
2D0
330
2C5
100
AcDbEntity
  8
Layer 1
370
     0
100
AcDbVertex
100
AcDb2dVertex
 10
1.921230740017361
 20
-5.994764539930555
 30
0.0
  0
VERTEX
  5
2D1
330
2C5
100
AcDbEntity
  8
Layer 1
370
     0
100
AcDbVertex
100
AcDb2dVertex
 10
1.847215440538194
 20
-6.068752712673611
 30
0.0
  0
VERTEX
  5
2D2
330
2C5
100
AcDbEntity
  8
Layer 1
370
     0
100
AcDbVertex
100
AcDb2dVertex
 10
1.650994194878472
 20
-5.872694227430555
 30
0.0
  0
SEQEND
  5
2D3
330
2C5
100
AcDbEntity
  8
Layer 1
370
     0
  0
POLYLINE
  5
2D4
330
1F
100
AcDbEntity
  8
Layer 1
370
     0
100
AcDb2dPolyline
 66
     1
 10
0.0
 20
0.0
 30
0.0
  0
VERTEX
  5
2D5
330
2D4
100
AcDbEntity
  8
Layer 1
370
     0
100
AcDbVertex
100
AcDb2dVertex
 10
1.092631022135417
 20
-5.890679253472222
 30
0.0
  0
VERTEX
  5
2D6
330
2D4
100
AcDbEntity
  8
Layer 1
370
     0
100
AcDbVertex
100
AcDb2dVertex
 10
1.196729871961806
 20
-5.994764539930555
 30
0.0
  0
VERTEX
  5
2D7
330
2D4
100
AcDbEntity
  8
Layer 1
370
     0
100
AcDbVertex
100
AcDb2dVertex
 10
1.063117133246528
 20
-6.128377278645833
 30
0.0
  0
VERTEX
  5
2D8
330
2D4
100
AcDbEntity
  8
Layer 1
370
     0
100
AcDbVertex
100
AcDb2dVertex
 10
1.040066189236111
 20
-6.128377278645833
 30
0.0
  0
VERTEX
  5
2D9
330
2D4
100
AcDbEntity
  8
Layer 1
370
     0
100
AcDbVertex
100
AcDb2dVertex
 10
1.040066189236111
 20
-5.943223741319444
 30
0.0
  0
VERTEX
  5
2DA
330
2D4
100
AcDbEntity
  8
Layer 1
370
     0
100
AcDbVertex
100
AcDb2dVertex
 10
1.092631022135417
 20
-5.890679253472222
 30
0.0
  0
SEQEND
  5
2DB
330
2D4
100
AcDbEntity
  8
Layer 1
370
     0
  0
POLYLINE
  5
2DC
330
1F
100
AcDbEntity
  8
Layer 1
370
     0
100
AcDb2dPolyline
 66
     1
 10
0.0
 20
0.0
 30
0.0
  0
VERTEX
  5
2DD
330
2DC
100
AcDbEntity
  8
Layer 1
370
     0
100
AcDbVertex
100
AcDb2dVertex
 10
1.040066189236111
 20
-5.653957790798611
 30
0.0
  0
VERTEX
  5
2DE
330
2DC
100
AcDbEntity
  8
Layer 1
370
     0
100
AcDbVertex
100
AcDb2dVertex
 10
1.040066189236111
 20
-5.468831380208333
 30
0.0
  0
VERTEX
  5
2DF
330
2DC
100
AcDbEntity
  8
Layer 1
370
     0
100
AcDbVertex
100
AcDb2dVertex
 10
1.063117133246528
 20
-5.468831380208333
 30
0.0
  0
VERTEX
  5
2E0
330
2DC
100
AcDbEntity
  8
Layer 1
370
     0
100
AcDbVertex
100
AcDb2dVertex
 10
1.196729871961806
 20
-5.602444118923611
 30
0.0
  0
VERTEX
  5
2E1
330
2DC
100
AcDbEntity
  8
Layer 1
370
     0
100
AcDbVertex
100
AcDb2dVertex
 10
1.092631022135417
 20
-5.706610785590278
 30
0.0
  0
VERTEX
  5
2E2
330
2DC
100
AcDbEntity
  8
Layer 1
370
     0
100
AcDbVertex
100
AcDb2dVertex
 10
1.040066189236111
 20
-5.653957790798611
 30
0.0
  0
SEQEND
  5
2E3
330
2DC
100
AcDbEntity
  8
Layer 1
370
     0
  0
POLYLINE
  5
2E4
330
1F
100
AcDbEntity
  8
Layer 1
370
     0
100
AcDb2dPolyline
 66
     1
 10
0.0
 20
0.0
 30
0.0
  0
VERTEX
  5
2E5
330
2E4
100
AcDbEntity
  8
Layer 1
370
     0
100
AcDbVertex
100
AcDb2dVertex
 10
1.184685601128472
 20
-5.798583984375
 30
0.0
  0
VERTEX
  5
2E6
330
2E4
100
AcDbEntity
  8
Layer 1
370
     0
100
AcDbVertex
100
AcDb2dVertex
 10
1.288770887586806
 20
-5.694444444444444
 30
0.0
  0
VERTEX
  5
2E7
330
2E4
100
AcDbEntity
  8
Layer 1
370
     0
100
AcDbVertex
100
AcDb2dVertex
 10
1.392842610677083
 20
-5.798583984375
 30
0.0
  0
VERTEX
  5
2E8
330
2E4
100
AcDbEntity
  8
Layer 1
370
     0
100
AcDbVertex
100
AcDb2dVertex
 10
1.288770887586806
 20
-5.902723524305555
 30
0.0
  0
VERTEX
  5
2E9
330
2E4
100
AcDbEntity
  8
Layer 1
370
     0
100
AcDbVertex
100
AcDb2dVertex
 10
1.184685601128472
 20
-5.798583984375
 30
0.0
  0
SEQEND
  5
2EA
330
2E4
100
AcDbEntity
  8
Layer 1
370
     0
  0
POLYLINE
  5
2EB
330
1F
100
AcDbEntity
  8
Layer 1
370
     0
100
AcDb2dPolyline
 66
     1
 10
0.0
 20
0.0
 30
0.0
  0
VERTEX
  5
2EC
330
2EB
100
AcDbEntity
  8
Layer 1
370
     0
100
AcDbVertex
100
AcDb2dVertex
 10
1.755140516493055
 20
-5.436374240451388
 30
0.0
  0
VERTEX
  5
2ED
330
2EB
100
AcDbEntity
  8
Layer 1
370
     0
100
AcDbVertex
100
AcDb2dVertex
 10
1.650994194878472
 20
-5.540473090277778
 30
0.0
  0
VERTEX
  5
2EE
330
2EB
100
AcDbEntity
  8
Layer 1
370
     0
100
AcDbVertex
100
AcDb2dVertex
 10
1.546929253472222
 20
-5.436374240451388
 30
0.0
  0
VERTEX
  5
2EF
330
2EB
100
AcDbEntity
  8
Layer 1
370
     0
100
AcDbVertex
100
AcDb2dVertex
 10
1.650994194878472
 20
-5.332221137152778
 30
0.0
  0
VERTEX
  5
2F0
330
2EB
100
AcDbEntity
  8
Layer 1
370
     0
100
AcDbVertex
100
AcDb2dVertex
 10
1.755140516493055
 20
-5.436374240451388
 30
0.0
  0
SEQEND
  5
2F1
330
2EB
100
AcDbEntity
  8
Layer 1
370
     0
  0
POLYLINE
  5
2F2
330
1F
100
AcDbEntity
  8
Layer 1
370
     0
100
AcDb2dPolyline
 66
     1
 10
0.0
 20
0.0
 30
0.0
  0
VERTEX
  5
2F3
330
2F2
100
AcDbEntity
  8
Layer 1
370
     0
100
AcDbVertex
100
AcDb2dVertex
 10
1.743089463975694
 20
-5.240193684895833
 30
0.0
  0
VERTEX
  5
2F4
330
2F2
100
AcDbEntity
  8
Layer 1
370
     0
100
AcDbVertex
100
AcDb2dVertex
 10
1.795620388454861
 20
-5.1876220703125
 30
0.0
  0
VERTEX
  5
2F5
330
2F2
100
AcDbEntity
  8
Layer 1
370
     0
100
AcDbVertex
100
AcDb2dVertex
 10
1.98077392578125
 20
-5.1876220703125
 30
0.0
  0
VERTEX
  5
2F6
330
2F2
100
AcDbEntity
  8
Layer 1
370
     0
100
AcDbVertex
100
AcDb2dVertex
 10
1.98077392578125
 20
-5.210679796006944
 30
0.0
  0
VERTEX
  5
2F7
330
2F2
100
AcDbEntity
  8
Layer 1
370
     0
100
AcDbVertex
100
AcDb2dVertex
 10
1.847215440538194
 20
-5.344333224826388
 30
0.0
  0
VERTEX
  5
2F8
330
2F2
100
AcDbEntity
  8
Layer 1
370
     0
100
AcDbVertex
100
AcDb2dVertex
 10
1.743089463975694
 20
-5.240193684895833
 30
0.0
  0
SEQEND
  5
2F9
330
2F2
100
AcDbEntity
  8
Layer 1
370
     0
  0
POLYLINE
  5
2FA
330
1F
100
AcDbEntity
  8
Layer 1
370
     0
100
AcDb2dPolyline
 66
     1
 10
0.0
 20
0.0
 30
0.0
  0
VERTEX
  5
2FB
330
2FA
100
AcDbEntity
  8
Layer 1
370
     0
100
AcDbVertex
100
AcDb2dVertex
 10
1.9093017578125
 20
-5.798583984375
 30
0.0
  0
VERTEX
  5
2FC
330
2FA
100
AcDbEntity
  8
Layer 1
370
     0
100
AcDbVertex
100
AcDb2dVertex
 10
2.013251410590278
 20
-5.694444444444444
 30
0.0
  0
VERTEX
  5
2FD
330
2FA
100
AcDbEntity
  8
Layer 1
370
     0
100
AcDbVertex
100
AcDb2dVertex
 10
2.117445203993055
 20
-5.798583984375
 30
0.0
  0
VERTEX
  5
2FE
330
2FA
100
AcDbEntity
  8
Layer 1
370
     0
100
AcDbVertex
100
AcDb2dVertex
 10
2.013251410590278
 20
-5.902723524305555
 30
0.0
  0
VERTEX
  5
2FF
330
2FA
100
AcDbEntity
  8
Layer 1
370
     0
100
AcDbVertex
100
AcDb2dVertex
 10
1.9093017578125
 20
-5.798583984375
 30
0.0
  0
SEQEND
  5
300
330
2FA
100
AcDbEntity
  8
Layer 1
370
     0
  0
POLYLINE
  5
301
330
1F
100
AcDbEntity
  8
Layer 1
370
     0
100
AcDb2dPolyline
 66
     1
 10
0.0
 20
0.0
 30
0.0
  0
VERTEX
  5
302
330
301
100
AcDbEntity
  8
Layer 1
370
     0
100
AcDbVertex
100
AcDb2dVertex
 10
2.209418402777778
 20
-5.890679253472222
 30
0.0
  0
VERTEX
  5
303
330
301
100
AcDbEntity
  8
Layer 1
370
     0
100
AcDbVertex
100
AcDb2dVertex
 10
2.261969672309028
 20
-5.943223741319444
 30
0.0
  0
VERTEX
  5
304
330
301
100
AcDbEntity
  8
Layer 1
370
     0
100
AcDbVertex
100
AcDb2dVertex
 10
2.261969672309028
 20
-6.128377278645833
 30
0.0
  0
VERTEX
  5
305
330
301
100
AcDbEntity
  8
Layer 1
370
     0
100
AcDbVertex
100
AcDb2dVertex
 10
2.238979763454861
 20
-6.128377278645833
 30
0.0
  0
VERTEX
  5
306
330
301
100
AcDbEntity
  8
Layer 1
370
     0
100
AcDbVertex
100
AcDb2dVertex
 10
2.105292426215278
 20
-5.994764539930555
 30
0.0
  0
VERTEX
  5
307
330
301
100
AcDbEntity
  8
Layer 1
370
     0
100
AcDbVertex
100
AcDb2dVertex
 10
2.209418402777778
 20
-5.890679253472222
 30
0.0
  0
SEQEND
  5
308
330
301
100
AcDbEntity
  8
Layer 1
370
     0
  0
POLYLINE
  5
309
330
1F
100
AcDbEntity
  8
Layer 1
370
     0
100
AcDb2dPolyline
 66
     1
 10
0.0
 20
0.0
 30
0.0
  0
VERTEX
  5
30A
330
309
100
AcDbEntity
  8
Layer 1
370
     0
100
AcDbVertex
100
AcDb2dVertex
 10
2.209418402777778
 20
-5.706610785590278
 30
0.0
  0
VERTEX
  5
30B
330
309
100
AcDbEntity
  8
Layer 1
370
     0
100
AcDbVertex
100
AcDb2dVertex
 10
2.105292426215278
 20
-5.602444118923611
 30
0.0
  0
VERTEX
  5
30C
330
309
100
AcDbEntity
  8
Layer 1
370
     0
100
AcDbVertex
100
AcDb2dVertex
 10
2.238979763454861
 20
-5.468831380208333
 30
0.0
  0
VERTEX
  5
30D
330
309
100
AcDbEntity
  8
Layer 1
370
     0
100
AcDbVertex
100
AcDb2dVertex
 10
2.262017144097222
 20
-5.468831380208333
 30
0.0
  0
VERTEX
  5
30E
330
309
100
AcDbEntity
  8
Layer 1
370
     0
100
AcDbVertex
100
AcDb2dVertex
 10
2.262017144097222
 20
-5.653957790798611
 30
0.0
  0
VERTEX
  5
30F
330
309
100
AcDbEntity
  8
Layer 1
370
     0
100
AcDbVertex
100
AcDb2dVertex
 10
2.209418402777778
 20
-5.706610785590278
 30
0.0
  0
SEQEND
  5
310
330
309
100
AcDbEntity
  8
Layer 1
370
     0
  0
POLYLINE
  5
311
330
1F
100
AcDbEntity
  8
Layer 1
370
     0
100
AcDb2dPolyline
 66
     1
 10
0.0
 20
0.0
 30
0.0
  0
VERTEX
  5
312
330
311
100
AcDbEntity
  8
Layer 1
370
     0
100
AcDbVertex
100
AcDb2dVertex
 10
2.110934787326389
 20
-5.1876220703125
 30
0.0
  0
VERTEX
  5
313
330
311
100
AcDbEntity
  8
Layer 1
370
     0
100
AcDbVertex
100
AcDb2dVertex
 10
2.261969672309028
 20
-5.1876220703125
 30
0.0
  0
VERTEX
  5
314
330
311
100
AcDbEntity
  8
Layer 1
370
     0
100
AcDbVertex
100
AcDb2dVertex
 10
2.261969672309028
 20
-5.338650173611111
 30
0.0
  0
VERTEX
  5
315
330
311
100
AcDbEntity
  8
Layer 1
370
     0
100
AcDbVertex
100
AcDb2dVertex
 10
2.185031467013889
 20
-5.338650173611111
 30
0.0
  0
VERTEX
  5
316
330
311
100
AcDbEntity
  8
Layer 1
370
     0
100
AcDbVertex
100
AcDb2dVertex
 10
2.013251410590278
 20
-5.510443793402778
 30
0.0
  0
VERTEX
  5
317
330
311
100
AcDbEntity
  8
Layer 1
370
     0
100
AcDbVertex
100
AcDb2dVertex
 10
1.939242892795139
 20
-5.436374240451388
 30
0.0
  0
VERTEX
  5
318
330
311
100
AcDbEntity
  8
Layer 1
370
     0
100
AcDbVertex
100
AcDb2dVertex
 10
2.110934787326389
 20
-5.2645263671875
 30
0.0
  0
VERTEX
  5
319
330
311
100
AcDbEntity
  8
Layer 1
370
     0
100
AcDbVertex
100
AcDb2dVertex
 10
2.110934787326389
 20
-5.1876220703125
 30
0.0
  0
SEQEND
  5
31A
330
311
100
AcDbEntity
  8
Layer 1
370
     0
  0
POLYLINE
  5
31B
330
1F
100
AcDbEntity
  8
Layer 1
370
     0
100
AcDb2dPolyline
 66
     1
 10
0.0
 20
0.0
 30
0.0
  0
VERTEX
  5
31C
330
31B
100
AcDbEntity
  8
Layer 1
370
     0
100
AcDbVertex
100
AcDb2dVertex
 10
1.321322970920139
 20
-4.7796630859375
 30
0.0
  0
VERTEX
  5
31D
330
31B
100
AcDbEntity
  8
Layer 1
370
     0
100
AcDbVertex
100
AcDb2dVertex
 10
1.98077392578125
 20
-4.7796630859375
 30
0.0
  0
VERTEX
  5
31E
330
31B
100
AcDbEntity
  8
Layer 1
370
     0
100
AcDbVertex
100
AcDb2dVertex
 10
1.98077392578125
 20
-5.057467990451388
 30
0.0
  0
VERTEX
  5
31F
330
31B
100
AcDbEntity
  8
Layer 1
370
     0
100
AcDbVertex
100
AcDb2dVertex
 10
1.741719563802083
 20
-5.057467990451388
 30
0.0
  0
VERTEX
  5
320
330
31B
100
AcDbEntity
  8
Layer 1
370
     0
100
AcDbVertex
100
AcDb2dVertex
 10
1.650994194878472
 20
-5.148193359375
 30
0.0
  0
VERTEX
  5
321
330
31B
100
AcDbEntity
  8
Layer 1
370
     0
100
AcDbVertex
100
AcDb2dVertex
 10
1.560275607638889
 20
-5.057467990451388
 30
0.0
  0
VERTEX
  5
322
330
31B
100
AcDbEntity
  8
Layer 1
370
     0
100
AcDbVertex
100
AcDb2dVertex
 10
1.321322970920139
 20
-5.057467990451388
 30
0.0
  0
VERTEX
  5
323
330
31B
100
AcDbEntity
  8
Layer 1
370
     0
100
AcDbVertex
100
AcDb2dVertex
 10
1.321322970920139
 20
-4.7796630859375
 30
0.0
  0
SEQEND
  5
324
330
31B
100
AcDbEntity
  8
Layer 1
370
     0
  0
POLYLINE
  5
325
330
1F
100
AcDbEntity
  8
Layer 1
370
     0
100
AcDb2dPolyline
 66
     1
 10
0.0
 20
0.0
 30
0.0
  0
VERTEX
  5
326
330
325
100
AcDbEntity
  8
Layer 1
370
     0
100
AcDbVertex
100
AcDb2dVertex
 10
1.321322970920139
 20
-5.1876220703125
 30
0.0
  0
VERTEX
  5
327
330
325
100
AcDbEntity
  8
Layer 1
370
     0
100
AcDbVertex
100
AcDb2dVertex
 10
1.50640869140625
 20
-5.1876220703125
 30
0.0
  0
VERTEX
  5
328
330
325
100
AcDbEntity
  8
Layer 1
370
     0
100
AcDbVertex
100
AcDb2dVertex
 10
1.55902099609375
 20
-5.240193684895833
 30
0.0
  0
VERTEX
  5
329
330
325
100
AcDbEntity
  8
Layer 1
370
     0
100
AcDbVertex
100
AcDb2dVertex
 10
1.454901801215278
 20
-5.344333224826388
 30
0.0
  0
VERTEX
  5
32A
330
325
100
AcDbEntity
  8
Layer 1
370
     0
100
AcDbVertex
100
AcDb2dVertex
 10
1.321322970920139
 20
-5.210679796006944
 30
0.0
  0
VERTEX
  5
32B
330
325
100
AcDbEntity
  8
Layer 1
370
     0
100
AcDbVertex
100
AcDb2dVertex
 10
1.321322970920139
 20
-5.1876220703125
 30
0.0
  0
SEQEND
  5
32C
330
325
100
AcDbEntity
  8
Layer 1
370
     0
  0
POLYLINE
  5
32D
330
1F
100
AcDbEntity
  8
Layer 1
370
     0
100
AcDb2dPolyline
 66
     1
 10
0.0
 20
0.0
 30
0.0
  0
VERTEX
  5
32E
330
32D
100
AcDbEntity
  8
Layer 1
370
     0
100
AcDbVertex
100
AcDb2dVertex
 10
1.362813313802083
 20
-5.436374240451388
 30
0.0
  0
VERTEX
  5
32F
330
32D
100
AcDbEntity
  8
Layer 1
370
     0
100
AcDbVertex
100
AcDb2dVertex
 10
1.288770887586806
 20
-5.510443793402778
 30
0.0
  0
VERTEX
  5
330
330
32D
100
AcDbEntity
  8
Layer 1
370
     0
100
AcDbVertex
100
AcDb2dVertex
 10
1.1170654296875
 20
-5.338650173611111
 30
0.0
  0
VERTEX
  5
331
330
32D
100
AcDbEntity
  8
Layer 1
370
     0
100
AcDbVertex
100
AcDb2dVertex
 10
1.040066189236111
 20
-5.338650173611111
 30
0.0
  0
VERTEX
  5
332
330
32D
100
AcDbEntity
  8
Layer 1
370
     0
100
AcDbVertex
100
AcDb2dVertex
 10
1.040066189236111
 20
-5.1876220703125
 30
0.0
  0
VERTEX
  5
333
330
32D
100
AcDbEntity
  8
Layer 1
370
     0
100
AcDbVertex
100
AcDb2dVertex
 10
1.191080729166667
 20
-5.1876220703125
 30
0.0
  0
VERTEX
  5
334
330
32D
100
AcDbEntity
  8
Layer 1
370
     0
100
AcDbVertex
100
AcDb2dVertex
 10
1.191080729166667
 20
-5.2645263671875
 30
0.0
  0
VERTEX
  5
335
330
32D
100
AcDbEntity
  8
Layer 1
370
     0
100
AcDbVertex
100
AcDb2dVertex
 10
1.362813313802083
 20
-5.436374240451388
 30
0.0
  0
SEQEND
  5
336
330
32D
100
AcDbEntity
  8
Layer 1
370
     0
  0
POLYLINE
  5
337
330
1F
100
AcDbEntity
  8
Layer 1
370
     0
100
AcDb2dPolyline
 66
     1
 10
0.0
 20
0.0
 30
0.0
  0
VERTEX
  5
338
330
337
100
AcDbEntity
  8
Layer 1
370
     0
100
AcDbVertex
100
AcDb2dVertex
 10
0.4657864040798611
 20
-4.7796630859375
 30
0.0
  0
VERTEX
  5
339
330
337
100
AcDbEntity
  8
Layer 1
370
     0
100
AcDbVertex
100
AcDb2dVertex
 10
1.191080729166667
 20
-4.7796630859375
 30
0.0
  0
VERTEX
  5
33A
330
337
100
AcDbEntity
  8
Layer 1
370
     0
100
AcDbVertex
100
AcDb2dVertex
 10
1.191080729166667
 20
-5.057467990451388
 30
0.0
  0
VERTEX
  5
33B
330
337
100
AcDbEntity
  8
Layer 1
370
     0
100
AcDbVertex
100
AcDb2dVertex
 10
0.9098375108506944
 20
-5.057467990451388
 30
0.0
  0
VERTEX
  5
33C
330
337
100
AcDbEntity
  8
Layer 1
370
     0
100
AcDbVertex
100
AcDb2dVertex
 10
0.9098375108506944
 20
-5.338650173611111
 30
0.0
  0
VERTEX
  5
33D
330
337
100
AcDbEntity
  8
Layer 1
370
     0
100
AcDbVertex
100
AcDb2dVertex
 10
0.7469618055555555
 20
-5.338650173611111
 30
0.0
  0
VERTEX
  5
33E
330
337
100
AcDbEntity
  8
Layer 1
370
     0
100
AcDbVertex
100
AcDb2dVertex
 10
0.7469618055555555
 20
-5.057467990451388
 30
0.0
  0
VERTEX
  5
33F
330
337
100
AcDbEntity
  8
Layer 1
370
     0
100
AcDbVertex
100
AcDb2dVertex
 10
0.7469618055555555
 20
-5.057467990451388
 30
0.0
  0
VERTEX
  5
340
330
337
100
AcDbEntity
  8
Layer 1
370
     0
100
AcDbVertex
100
AcDb2dVertex
 10
0.4657864040798611
 20
-5.057467990451388
 30
0.0
  0
VERTEX
  5
341
330
337
100
AcDbEntity
  8
Layer 1
370
     0
100
AcDbVertex
100
AcDb2dVertex
 10
0.4657864040798611
 20
-4.7796630859375
 30
0.0
  0
SEQEND
  5
342
330
337
100
AcDbEntity
  8
Layer 1
370
     0
  0
POLYLINE
  5
343
330
1F
100
AcDbEntity
  8
Layer 1
370
     0
100
AcDb2dPolyline
 66
     1
 10
0.0
 20
0.0
 30
0.0
  0
VERTEX
  5
344
330
343
100
AcDbEntity
  8
Layer 1
370
     0
100
AcDbVertex
100
AcDb2dVertex
 10
0.6563178168402778
 20
-5.798583984375
 30
0.0
  0
VERTEX
  5
345
330
343
100
AcDbEntity
  8
Layer 1
370
     0
100
AcDbVertex
100
AcDb2dVertex
 10
0.7469618055555555
 20
-5.707939995659722
 30
0.0
  0
VERTEX
  5
346
330
343
100
AcDbEntity
  8
Layer 1
370
     0
100
AcDbVertex
100
AcDb2dVertex
 10
0.7469618055555555
 20
-5.468831380208333
 30
0.0
  0
VERTEX
  5
347
330
343
100
AcDbEntity
  8
Layer 1
370
     0
100
AcDbVertex
100
AcDb2dVertex
 10
0.9098375108506944
 20
-5.468831380208333
 30
0.0
  0
VERTEX
  5
348
330
343
100
AcDbEntity
  8
Layer 1
370
     0
100
AcDbVertex
100
AcDb2dVertex
 10
0.9098375108506944
 20
-5.7078857421875
 30
0.0
  0
VERTEX
  5
349
330
343
100
AcDbEntity
  8
Layer 1
370
     0
100
AcDbVertex
100
AcDb2dVertex
 10
1.000569661458333
 20
-5.798583984375
 30
0.0
  0
VERTEX
  5
34A
330
343
100
AcDbEntity
  8
Layer 1
370
     0
100
AcDbVertex
100
AcDb2dVertex
 10
0.9098375108506944
 20
-5.889322916666666
 30
0.0
  0
VERTEX
  5
34B
330
343
100
AcDbEntity
  8
Layer 1
370
     0
100
AcDbVertex
100
AcDb2dVertex
 10
0.9098375108506944
 20
-6.128377278645833
 30
0.0
  0
VERTEX
  5
34C
330
343
100
AcDbEntity
  8
Layer 1
370
     0
100
AcDbVertex
100
AcDb2dVertex
 10
0.7469618055555555
 20
-6.128377278645833
 30
0.0
  0
VERTEX
  5
34D
330
343
100
AcDbEntity
  8
Layer 1
370
     0
100
AcDbVertex
100
AcDb2dVertex
 10
0.7469618055555555
 20
-5.889322916666666
 30
0.0
  0
VERTEX
  5
34E
330
343
100
AcDbEntity
  8
Layer 1
370
     0
100
AcDbVertex
100
AcDb2dVertex
 10
0.6563178168402778
 20
-5.798583984375
 30
0.0
  0
SEQEND
  5
34F
330
343
100
AcDbEntity
  8
Layer 1
370
     0
  0
POLYLINE
  5
350
330
1F
100
AcDbEntity
  8
Layer 1
370
     0
100
AcDb2dPolyline
 66
     1
 10
0.0
 20
0.0
 30
0.0
  0
VERTEX
  5
351
330
350
100
AcDbEntity
  8
Layer 1
370
     0
100
AcDbVertex
100
AcDb2dVertex
 10
0.4657864040798611
 20
-5.264580620659722
 30
0.0
  0
VERTEX
  5
352
330
350
100
AcDbEntity
  8
Layer 1
370
     0
100
AcDbVertex
100
AcDb2dVertex
 10
0.4657864040798611
 20
-5.1876220703125
 30
0.0
  0
VERTEX
  5
353
330
350
100
AcDbEntity
  8
Layer 1
370
     0
100
AcDbVertex
100
AcDb2dVertex
 10
0.6168755425347222
 20
-5.1876220703125
 30
0.0
  0
VERTEX
  5
354
330
350
100
AcDbEntity
  8
Layer 1
370
     0
100
AcDbVertex
100
AcDb2dVertex
 10
0.6168755425347222
 20
-5.338650173611111
 30
0.0
  0
VERTEX
  5
355
330
350
100
AcDbEntity
  8
Layer 1
370
     0
100
AcDbVertex
100
AcDb2dVertex
 10
0.540005154079861
 20
-5.338650173611111
 30
0.0
  0
VERTEX
  5
356
330
350
100
AcDbEntity
  8
Layer 1
370
     0
100
AcDbVertex
100
AcDb2dVertex
 10
0.36822509765625
 20
-5.510606553819444
 30
0.0
  0
VERTEX
  5
357
330
350
100
AcDbEntity
  8
Layer 1
370
     0
100
AcDbVertex
100
AcDb2dVertex
 10
0.2940131293402777
 20
-5.436374240451388
 30
0.0
  0
VERTEX
  5
358
330
350
100
AcDbEntity
  8
Layer 1
370
     0
100
AcDbVertex
100
AcDb2dVertex
 10
0.4657864040798611
 20
-5.264580620659722
 30
0.0
  0
SEQEND
  5
359
330
350
100
AcDbEntity
  8
Layer 1
370
     0
  0
POLYLINE
  5
35A
330
1F
100
AcDbEntity
  8
Layer 1
370
     0
100
AcDb2dPolyline
 66
     1
 10
0.0
 20
0.0
 30
0.0
  0
VERTEX
  5
35B
330
35A
100
AcDbEntity
  8
Layer 1
370
     0
100
AcDbVertex
100
AcDb2dVertex
 10
0.5642428927951388
 20
-5.706610785590278
 30
0.0
  0
VERTEX
  5
35C
330
35A
100
AcDbEntity
  8
Layer 1
370
     0
100
AcDbVertex
100
AcDb2dVertex
 10
0.4602525499131944
 20
-5.602579752604166
 30
0.0
  0
VERTEX
  5
35D
330
35A
100
AcDbEntity
  8
Layer 1
370
     0
100
AcDbVertex
100
AcDb2dVertex
 10
0.5940280490451388
 20
-5.468831380208333
 30
0.0
  0
VERTEX
  5
35E
330
35A
100
AcDbEntity
  8
Layer 1
370
     0
100
AcDbVertex
100
AcDb2dVertex
 10
0.6168755425347222
 20
-5.468831380208333
 30
0.0
  0
VERTEX
  5
35F
330
35A
100
AcDbEntity
  8
Layer 1
370
     0
100
AcDbVertex
100
AcDb2dVertex
 10
0.6168755425347222
 20
-5.653957790798611
 30
0.0
  0
VERTEX
  5
360
330
35A
100
AcDbEntity
  8
Layer 1
370
     0
100
AcDbVertex
100
AcDb2dVertex
 10
0.5642428927951388
 20
-5.706610785590278
 30
0.0
  0
SEQEND
  5
361
330
35A
100
AcDbEntity
  8
Layer 1
370
     0
  0
POLYLINE
  5
362
330
1F
100
AcDbEntity
  8
Layer 1
370
     0
100
AcDb2dPolyline
 66
     1
 10
0.0
 20
0.0
 30
0.0
  0
VERTEX
  5
363
330
362
100
AcDbEntity
  8
Layer 1
370
     0
100
AcDbVertex
100
AcDb2dVertex
 10
0.6168755425347222
 20
-5.943223741319444
 30
0.0
  0
VERTEX
  5
364
330
362
100
AcDbEntity
  8
Layer 1
370
     0
100
AcDbVertex
100
AcDb2dVertex
 10
0.6168755425347222
 20
-6.128377278645833
 30
0.0
  0
VERTEX
  5
365
330
362
100
AcDbEntity
  8
Layer 1
370
     0
100
AcDbVertex
100
AcDb2dVertex
 10
0.5940280490451388
 20
-6.128377278645833
 30
0.0
  0
VERTEX
  5
366
330
362
100
AcDbEntity
  8
Layer 1
370
     0
100
AcDbVertex
100
AcDb2dVertex
 10
0.4601711697048611
 20
-5.994615342881944
 30
0.0
  0
VERTEX
  5
367
330
362
100
AcDbEntity
  8
Layer 1
370
     0
100
AcDbVertex
100
AcDb2dVertex
 10
0.5642428927951388
 20
-5.890679253472222
 30
0.0
  0
VERTEX
  5
368
330
362
100
AcDbEntity
  8
Layer 1
370
     0
100
AcDbVertex
100
AcDb2dVertex
 10
0.6168755425347222
 20
-5.943223741319444
 30
0.0
  0
SEQEND
  5
369
330
362
100
AcDbEntity
  8
Layer 1
370
     0
  0
POLYLINE
  5
36A
330
1F
100
AcDbEntity
  8
Layer 1
370
     0
100
AcDb2dPolyline
 66
     1
 10
0.0
 20
0.0
 30
0.0
  0
VERTEX
  5
36B
330
36A
100
AcDbEntity
  8
Layer 1
370
     0
100
AcDbVertex
100
AcDb2dVertex
 10
0.20196533203125
 20
-5.344333224826388
 30
0.0
  0
VERTEX
  5
36C
330
36A
100
AcDbEntity
  8
Layer 1
370
     0
100
AcDbVertex
100
AcDb2dVertex
 10
0.0978529188368056
 20
-5.240193684895833
 30
0.0
  0
VERTEX
  5
36D
330
36A
100
AcDbEntity
  8
Layer 1
370
     0
100
AcDbVertex
100
AcDb2dVertex
 10
0.15045166015625
 20
-5.1876220703125
 30
0.0
  0
VERTEX
  5
36E
330
36A
100
AcDbEntity
  8
Layer 1
370
     0
100
AcDbVertex
100
AcDb2dVertex
 10
0.3357001410590277
 20
-5.1876220703125
 30
0.0
  0
VERTEX
  5
36F
330
36A
100
AcDbEntity
  8
Layer 1
370
     0
100
AcDbVertex
100
AcDb2dVertex
 10
0.3357001410590277
 20
-5.210679796006944
 30
0.0
  0
VERTEX
  5
370
330
36A
100
AcDbEntity
  8
Layer 1
370
     0
100
AcDbVertex
100
AcDb2dVertex
 10
0.20196533203125
 20
-5.344333224826388
 30
0.0
  0
SEQEND
  5
371
330
36A
100
AcDbEntity
  8
Layer 1
370
     0
  0
POLYLINE
  5
372
330
1F
100
AcDbEntity
  8
Layer 1
370
     0
100
AcDb2dPolyline
 66
     1
 10
0.0
 20
0.0
 30
0.0
  0
VERTEX
  5
373
330
372
100
AcDbEntity
  8
Layer 1
370
     0
100
AcDbVertex
100
AcDb2dVertex
 10
0.26416015625
 20
-5.798583984375
 30
0.0
  0
VERTEX
  5
374
330
372
100
AcDbEntity
  8
Layer 1
370
     0
100
AcDbVertex
100
AcDb2dVertex
 10
0.36822509765625
 20
-5.694539388020833
 30
0.0
  0
VERTEX
  5
375
330
372
100
AcDbEntity
  8
Layer 1
370
     0
100
AcDbVertex
100
AcDb2dVertex
 10
0.4722493489583333
 20
-5.798583984375
 30
0.0
  0
VERTEX
  5
376
330
372
100
AcDbEntity
  8
Layer 1
370
     0
100
AcDbVertex
100
AcDb2dVertex
 10
0.36822509765625
 20
-5.902615017361111
 30
0.0
  0
VERTEX
  5
377
330
372
100
AcDbEntity
  8
Layer 1
370
     0
100
AcDbVertex
100
AcDb2dVertex
 10
0.26416015625
 20
-5.798583984375
 30
0.0
  0
SEQEND
  5
378
330
372
100
AcDbEntity
  8
Layer 1
370
     0
  0
POLYLINE
  5
379
330
1F
100
AcDbEntity
  8
Layer 1
370
     0
100
AcDb2dPolyline
 66
     1
 10
0.0
 20
0.0
 30
0.0
  0
VERTEX
  5
37A
330
379
100
AcDbEntity
  8
Layer 1
370
     0
100
AcDbVertex
100
AcDb2dVertex
 10
0.3357001410590277
 20
-6.409613715277778
 30
0.0
  0
VERTEX
  5
37B
330
379
100
AcDbEntity
  8
Layer 1
370
     0
100
AcDbVertex
100
AcDb2dVertex
 10
0.15045166015625
 20
-6.409613715277778
 30
0.0
  0
VERTEX
  5
37C
330
379
100
AcDbEntity
  8
Layer 1
370
     0
100
AcDbVertex
100
AcDb2dVertex
 10
0.0978529188368056
 20
-6.357014973958333
 30
0.0
  0
VERTEX
  5
37D
330
379
100
AcDbEntity
  8
Layer 1
370
     0
100
AcDbVertex
100
AcDb2dVertex
 10
0.20196533203125
 20
-6.252875434027778
 30
0.0
  0
VERTEX
  5
37E
330
379
100
AcDbEntity
  8
Layer 1
370
     0
100
AcDbVertex
100
AcDb2dVertex
 10
0.3357001410590277
 20
-6.386528862847221
 30
0.0
  0
VERTEX
  5
37F
330
379
100
AcDbEntity
  8
Layer 1
370
     0
100
AcDbVertex
100
AcDb2dVertex
 10
0.3357001410590277
 20
-6.409613715277778
 30
0.0
  0
SEQEND
  5
380
330
379
100
AcDbEntity
  8
Layer 1
370
     0
  0
POLYLINE
  5
381
330
1F
100
AcDbEntity
  8
Layer 1
370
     0
100
AcDb2dPolyline
 66
     1
 10
0.0
 20
0.0
 30
0.0
  0
VERTEX
  5
382
330
381
100
AcDbEntity
  8
Layer 1
370
     0
100
AcDbVertex
100
AcDb2dVertex
 10
0.2940131293402777
 20
-6.160834418402778
 30
0.0
  0
VERTEX
  5
383
330
381
100
AcDbEntity
  8
Layer 1
370
     0
100
AcDbVertex
100
AcDb2dVertex
 10
0.3681572808159722
 20
-6.086683485243055
 30
0.0
  0
VERTEX
  5
384
330
381
100
AcDbEntity
  8
Layer 1
370
     0
100
AcDbVertex
100
AcDb2dVertex
 10
0.540005154079861
 20
-6.258599175347221
 30
0.0
  0
VERTEX
  5
385
330
381
100
AcDbEntity
  8
Layer 1
370
     0
100
AcDbVertex
100
AcDb2dVertex
 10
0.6168755425347222
 20
-6.258599175347221
 30
0.0
  0
VERTEX
  5
386
330
381
100
AcDbEntity
  8
Layer 1
370
     0
100
AcDbVertex
100
AcDb2dVertex
 10
0.6168755425347222
 20
-6.409613715277778
 30
0.0
  0
VERTEX
  5
387
330
381
100
AcDbEntity
  8
Layer 1
370
     0
100
AcDbVertex
100
AcDb2dVertex
 10
0.4657864040798611
 20
-6.409613715277778
 30
0.0
  0
VERTEX
  5
388
330
381
100
AcDbEntity
  8
Layer 1
370
     0
100
AcDbVertex
100
AcDb2dVertex
 10
0.4657864040798611
 20
-6.3326416015625
 30
0.0
  0
VERTEX
  5
389
330
381
100
AcDbEntity
  8
Layer 1
370
     0
100
AcDbVertex
100
AcDb2dVertex
 10
0.2940131293402777
 20
-6.160834418402778
 30
0.0
  0
SEQEND
  5
38A
330
381
100
AcDbEntity
  8
Layer 1
370
     0
  0
POLYLINE
  5
38B
330
1F
100
AcDbEntity
  8
Layer 1
370
     0
100
AcDb2dPolyline
 66
     1
 10
0.0
 20
0.0
 30
0.0
  0
VERTEX
  5
38C
330
38B
100
AcDbEntity
  8
Layer 1
370
     0
100
AcDbVertex
100
AcDb2dVertex
 10
1.191080729166667
 20
-6.817599826388888
 30
0.0
  0
VERTEX
  5
38D
330
38B
100
AcDbEntity
  8
Layer 1
370
     0
100
AcDbVertex
100
AcDb2dVertex
 10
0.4657864040798611
 20
-6.817599826388888
 30
0.0
  0
VERTEX
  5
38E
330
38B
100
AcDbEntity
  8
Layer 1
370
     0
100
AcDbVertex
100
AcDb2dVertex
 10
0.4657864040798611
 20
-6.539849175347221
 30
0.0
  0
VERTEX
  5
38F
330
38B
100
AcDbEntity
  8
Layer 1
370
     0
100
AcDbVertex
100
AcDb2dVertex
 10
0.7469618055555555
 20
-6.539849175347221
 30
0.0
  0
VERTEX
  5
390
330
38B
100
AcDbEntity
  8
Layer 1
370
     0
100
AcDbVertex
100
AcDb2dVertex
 10
0.7469618055555555
 20
-6.258599175347221
 30
0.0
  0
VERTEX
  5
391
330
38B
100
AcDbEntity
  8
Layer 1
370
     0
100
AcDbVertex
100
AcDb2dVertex
 10
0.9098375108506944
 20
-6.258599175347221
 30
0.0
  0
VERTEX
  5
392
330
38B
100
AcDbEntity
  8
Layer 1
370
     0
100
AcDbVertex
100
AcDb2dVertex
 10
0.9098375108506944
 20
-6.539849175347221
 30
0.0
  0
VERTEX
  5
393
330
38B
100
AcDbEntity
  8
Layer 1
370
     0
100
AcDbVertex
100
AcDb2dVertex
 10
0.9098375108506944
 20
-6.539849175347221
 30
0.0
  0
VERTEX
  5
394
330
38B
100
AcDbEntity
  8
Layer 1
370
     0
100
AcDbVertex
100
AcDb2dVertex
 10
1.191080729166667
 20
-6.539849175347221
 30
0.0
  0
VERTEX
  5
395
330
38B
100
AcDbEntity
  8
Layer 1
370
     0
100
AcDbVertex
100
AcDb2dVertex
 10
1.191080729166667
 20
-6.817599826388888
 30
0.0
  0
SEQEND
  5
396
330
38B
100
AcDbEntity
  8
Layer 1
370
     0
  0
POLYLINE
  5
397
330
1F
100
AcDbEntity
  8
Layer 1
370
     0
100
AcDb2dPolyline
 66
     1
 10
0.0
 20
0.0
 30
0.0
  0
VERTEX
  5
398
330
397
100
AcDbEntity
  8
Layer 1
370
     0
100
AcDbVertex
100
AcDb2dVertex
 10
1.191080729166667
 20
-6.409613715277778
 30
0.0
  0
VERTEX
  5
399
330
397
100
AcDbEntity
  8
Layer 1
370
     0
100
AcDbVertex
100
AcDb2dVertex
 10
1.040066189236111
 20
-6.409613715277778
 30
0.0
  0
VERTEX
  5
39A
330
397
100
AcDbEntity
  8
Layer 1
370
     0
100
AcDbVertex
100
AcDb2dVertex
 10
1.040066189236111
 20
-6.258599175347221
 30
0.0
  0
VERTEX
  5
39B
330
397
100
AcDbEntity
  8
Layer 1
370
     0
100
AcDbVertex
100
AcDb2dVertex
 10
1.1170654296875
 20
-6.258599175347221
 30
0.0
  0
VERTEX
  5
39C
330
397
100
AcDbEntity
  8
Layer 1
370
     0
100
AcDbVertex
100
AcDb2dVertex
 10
1.288770887586806
 20
-6.086764865451388
 30
0.0
  0
VERTEX
  5
39D
330
397
100
AcDbEntity
  8
Layer 1
370
     0
100
AcDbVertex
100
AcDb2dVertex
 10
1.362813313802083
 20
-6.160834418402778
 30
0.0
  0
VERTEX
  5
39E
330
397
100
AcDbEntity
  8
Layer 1
370
     0
100
AcDbVertex
100
AcDb2dVertex
 10
1.191080729166667
 20
-6.3326416015625
 30
0.0
  0
VERTEX
  5
39F
330
397
100
AcDbEntity
  8
Layer 1
370
     0
100
AcDbVertex
100
AcDb2dVertex
 10
1.191080729166667
 20
-6.409613715277778
 30
0.0
  0
SEQEND
  5
3A0
330
397
100
AcDbEntity
  8
Layer 1
370
     0
  0
POLYLINE
  5
3A1
330
1F
100
AcDbEntity
  8
Layer 1
370
     0
100
AcDb2dPolyline
 66
     1
 10
0.0
 20
0.0
 30
0.0
  0
VERTEX
  5
3A2
330
3A1
100
AcDbEntity
  8
Layer 1
370
     0
100
AcDbVertex
100
AcDb2dVertex
 10
1.98077392578125
 20
-6.817599826388888
 30
0.0
  0
VERTEX
  5
3A3
330
3A1
100
AcDbEntity
  8
Layer 1
370
     0
100
AcDbVertex
100
AcDb2dVertex
 10
1.321322970920139
 20
-6.817599826388888
 30
0.0
  0
VERTEX
  5
3A4
330
3A1
100
AcDbEntity
  8
Layer 1
370
     0
100
AcDbVertex
100
AcDb2dVertex
 10
1.321322970920139
 20
-6.539849175347221
 30
0.0
  0
VERTEX
  5
3A5
330
3A1
100
AcDbEntity
  8
Layer 1
370
     0
100
AcDbVertex
100
AcDb2dVertex
 10
1.560255262586805
 20
-6.539849175347221
 30
0.0
  0
VERTEX
  5
3A6
330
3A1
100
AcDbEntity
  8
Layer 1
370
     0
100
AcDbVertex
100
AcDb2dVertex
 10
1.560275607638889
 20
-6.539849175347221
 30
0.0
  0
VERTEX
  5
3A7
330
3A1
100
AcDbEntity
  8
Layer 1
370
     0
100
AcDbVertex
100
AcDb2dVertex
 10
1.650994194878472
 20
-6.4490966796875
 30
0.0
  0
VERTEX
  5
3A8
330
3A1
100
AcDbEntity
  8
Layer 1
370
     0
100
AcDbVertex
100
AcDb2dVertex
 10
1.741719563802083
 20
-6.539849175347221
 30
0.0
  0
VERTEX
  5
3A9
330
3A1
100
AcDbEntity
  8
Layer 1
370
     0
100
AcDbVertex
100
AcDb2dVertex
 10
1.98077392578125
 20
-6.539849175347221
 30
0.0
  0
VERTEX
  5
3AA
330
3A1
100
AcDbEntity
  8
Layer 1
370
     0
100
AcDbVertex
100
AcDb2dVertex
 10
1.98077392578125
 20
-6.817599826388888
 30
0.0
  0
SEQEND
  5
3AB
330
3A1
100
AcDbEntity
  8
Layer 1
370
     0
  0
POLYLINE
  5
3AC
330
1F
100
AcDbEntity
  8
Layer 1
370
     0
100
AcDb2dPolyline
 66
     1
 10
0.0
 20
0.0
 30
0.0
  0
VERTEX
  5
3AD
330
3AC
100
AcDbEntity
  8
Layer 1
370
     0
100
AcDbVertex
100
AcDb2dVertex
 10
1.98077392578125
 20
-6.409613715277778
 30
0.0
  0
VERTEX
  5
3AE
330
3AC
100
AcDbEntity
  8
Layer 1
370
     0
100
AcDbVertex
100
AcDb2dVertex
 10
1.795620388454861
 20
-6.409613715277778
 30
0.0
  0
VERTEX
  5
3AF
330
3AC
100
AcDbEntity
  8
Layer 1
370
     0
100
AcDbVertex
100
AcDb2dVertex
 10
1.743089463975694
 20
-6.357014973958333
 30
0.0
  0
VERTEX
  5
3B0
330
3AC
100
AcDbEntity
  8
Layer 1
370
     0
100
AcDbVertex
100
AcDb2dVertex
 10
1.847215440538194
 20
-6.252875434027778
 30
0.0
  0
VERTEX
  5
3B1
330
3AC
100
AcDbEntity
  8
Layer 1
370
     0
100
AcDbVertex
100
AcDb2dVertex
 10
1.98077392578125
 20
-6.386528862847221
 30
0.0
  0
VERTEX
  5
3B2
330
3AC
100
AcDbEntity
  8
Layer 1
370
     0
100
AcDbVertex
100
AcDb2dVertex
 10
1.98077392578125
 20
-6.409613715277778
 30
0.0
  0
SEQEND
  5
3B3
330
3AC
100
AcDbEntity
  8
Layer 1
370
     0
  0
POLYLINE
  5
3B4
330
1F
100
AcDbEntity
  8
Layer 1
370
     0
100
AcDb2dPolyline
 66
     1
 10
0.0
 20
0.0
 30
0.0
  0
VERTEX
  5
3B5
330
3B4
100
AcDbEntity
  8
Layer 1
370
     0
100
AcDbVertex
100
AcDb2dVertex
 10
1.939242892795139
 20
-6.160834418402778
 30
0.0
  0
VERTEX
  5
3B6
330
3B4
100
AcDbEntity
  8
Layer 1
370
     0
100
AcDbVertex
100
AcDb2dVertex
 10
2.013251410590278
 20
-6.086764865451388
 30
0.0
  0
VERTEX
  5
3B7
330
3B4
100
AcDbEntity
  8
Layer 1
370
     0
100
AcDbVertex
100
AcDb2dVertex
 10
2.185031467013889
 20
-6.258599175347221
 30
0.0
  0
VERTEX
  5
3B8
330
3B4
100
AcDbEntity
  8
Layer 1
370
     0
100
AcDbVertex
100
AcDb2dVertex
 10
2.261969672309028
 20
-6.258599175347221
 30
0.0
  0
VERTEX
  5
3B9
330
3B4
100
AcDbEntity
  8
Layer 1
370
     0
100
AcDbVertex
100
AcDb2dVertex
 10
2.261969672309028
 20
-6.409613715277778
 30
0.0
  0
VERTEX
  5
3BA
330
3B4
100
AcDbEntity
  8
Layer 1
370
     0
100
AcDbVertex
100
AcDb2dVertex
 10
2.110934787326389
 20
-6.409613715277778
 30
0.0
  0
VERTEX
  5
3BB
330
3B4
100
AcDbEntity
  8
Layer 1
370
     0
100
AcDbVertex
100
AcDb2dVertex
 10
2.110934787326389
 20
-6.3326416015625
 30
0.0
  0
VERTEX
  5
3BC
330
3B4
100
AcDbEntity
  8
Layer 1
370
     0
100
AcDbVertex
100
AcDb2dVertex
 10
1.939242892795139
 20
-6.160834418402778
 30
0.0
  0
SEQEND
  5
3BD
330
3B4
100
AcDbEntity
  8
Layer 1
370
     0
  0
POLYLINE
  5
3BE
330
1F
100
AcDbEntity
  8
Layer 1
370
     0
100
AcDb2dPolyline
 66
     1
 10
0.0
 20
0.0
 30
0.0
  0
VERTEX
  5
3BF
330
3BE
100
AcDbEntity
  8
Layer 1
370
     0
100
AcDbVertex
100
AcDb2dVertex
 10
2.836005316840278
 20
-6.817599826388888
 30
0.0
  0
VERTEX
  5
3C0
330
3BE
100
AcDbEntity
  8
Layer 1
370
     0
100
AcDbVertex
100
AcDb2dVertex
 10
2.110934787326389
 20
-6.817599826388888
 30
0.0
  0
VERTEX
  5
3C1
330
3BE
100
AcDbEntity
  8
Layer 1
370
     0
100
AcDbVertex
100
AcDb2dVertex
 10
2.110934787326389
 20
-6.539849175347221
 30
0.0
  0
VERTEX
  5
3C2
330
3BE
100
AcDbEntity
  8
Layer 1
370
     0
100
AcDbVertex
100
AcDb2dVertex
 10
2.392232259114583
 20
-6.539849175347221
 30
0.0
  0
VERTEX
  5
3C3
330
3BE
100
AcDbEntity
  8
Layer 1
370
     0
100
AcDbVertex
100
AcDb2dVertex
 10
2.392232259114583
 20
-6.258599175347221
 30
0.0
  0
VERTEX
  5
3C4
330
3BE
100
AcDbEntity
  8
Layer 1
370
     0
100
AcDbVertex
100
AcDb2dVertex
 10
2.554789225260417
 20
-6.258599175347221
 30
0.0
  0
VERTEX
  5
3C5
330
3BE
100
AcDbEntity
  8
Layer 1
370
     0
100
AcDbVertex
100
AcDb2dVertex
 10
2.554789225260417
 20
-6.539849175347221
 30
0.0
  0
VERTEX
  5
3C6
330
3BE
100
AcDbEntity
  8
Layer 1
370
     0
100
AcDbVertex
100
AcDb2dVertex
 10
2.836005316840278
 20
-6.539849175347221
 30
0.0
  0
VERTEX
  5
3C7
330
3BE
100
AcDbEntity
  8
Layer 1
370
     0
100
AcDbVertex
100
AcDb2dVertex
 10
2.836005316840278
 20
-6.817599826388888
 30
0.0
  0
SEQEND
  5
3C8
330
3BE
100
AcDbEntity
  8
Layer 1
370
     0
  0
POLYLINE
  5
3C9
330
1F
100
AcDbEntity
  8
Layer 1
370
     0
100
AcDb2dPolyline
 66
     1
 10
0.0
 20
0.0
 30
0.0
  0
VERTEX
  5
3CA
330
3C9
100
AcDbEntity
  8
Layer 1
370
     0
100
AcDbVertex
100
AcDb2dVertex
 10
2.836005316840278
 20
-6.409613715277778
 30
0.0
  0
VERTEX
  5
3CB
330
3C9
100
AcDbEntity
  8
Layer 1
370
     0
100
AcDbVertex
100
AcDb2dVertex
 10
2.684841579861111
 20
-6.409613715277778
 30
0.0
  0
VERTEX
  5
3CC
330
3C9
100
AcDbEntity
  8
Layer 1
370
     0
100
AcDbVertex
100
AcDb2dVertex
 10
2.684841579861111
 20
-6.258599175347221
 30
0.0
  0
VERTEX
  5
3CD
330
3C9
100
AcDbEntity
  8
Layer 1
370
     0
100
AcDbVertex
100
AcDb2dVertex
 10
2.762037489149305
 20
-6.258599175347221
 30
0.0
  0
VERTEX
  5
3CE
330
3C9
100
AcDbEntity
  8
Layer 1
370
     0
100
AcDbVertex
100
AcDb2dVertex
 10
2.933675130208333
 20
-6.086900499131944
 30
0.0
  0
VERTEX
  5
3CF
330
3C9
100
AcDbEntity
  8
Layer 1
370
     0
100
AcDbVertex
100
AcDb2dVertex
 10
3.007710774739583
 20
-6.160834418402778
 30
0.0
  0
VERTEX
  5
3D0
330
3C9
100
AcDbEntity
  8
Layer 1
370
     0
100
AcDbVertex
100
AcDb2dVertex
 10
2.836005316840278
 20
-6.3326416015625
 30
0.0
  0
VERTEX
  5
3D1
330
3C9
100
AcDbEntity
  8
Layer 1
370
     0
100
AcDbVertex
100
AcDb2dVertex
 10
2.836005316840278
 20
-6.409613715277778
 30
0.0
  0
SEQEND
  5
3D2
330
3C9
100
AcDbEntity
  8
Layer 1
370
     0
  0
POLYLINE
  5
3D3
330
1F
100
AcDbEntity
  8
Layer 1
370
     0
100
AcDb2dPolyline
 66
     1
 10
0.0
 20
0.0
 30
0.0
  0
VERTEX
  5
3D4
330
3D3
100
AcDbEntity
  8
Layer 1
370
     0
100
AcDbVertex
100
AcDb2dVertex
 10
3.625766330295139
 20
-6.817599826388888
 30
0.0
  0
VERTEX
  5
3D5
330
3D3
100
AcDbEntity
  8
Layer 1
370
     0
100
AcDbVertex
100
AcDb2dVertex
 10
2.96612548828125
 20
-6.817599826388888
 30
0.0
  0
VERTEX
  5
3D6
330
3D3
100
AcDbEntity
  8
Layer 1
370
     0
100
AcDbVertex
100
AcDb2dVertex
 10
2.96612548828125
 20
-6.539849175347221
 30
0.0
  0
VERTEX
  5
3D7
330
3D3
100
AcDbEntity
  8
Layer 1
370
     0
100
AcDbVertex
100
AcDb2dVertex
 10
3.205206976996528
 20
-6.539849175347221
 30
0.0
  0
VERTEX
  5
3D8
330
3D3
100
AcDbEntity
  8
Layer 1
370
     0
100
AcDbVertex
100
AcDb2dVertex
 10
3.2958984375
 20
-6.449042426215278
 30
0.0
  0
VERTEX
  5
3D9
330
3D3
100
AcDbEntity
  8
Layer 1
370
     0
100
AcDbVertex
100
AcDb2dVertex
 10
3.386698404947917
 20
-6.539849175347221
 30
0.0
  0
VERTEX
  5
3DA
330
3D3
100
AcDbEntity
  8
Layer 1
370
     0
100
AcDbVertex
100
AcDb2dVertex
 10
3.625766330295139
 20
-6.539849175347221
 30
0.0
  0
VERTEX
  5
3DB
330
3D3
100
AcDbEntity
  8
Layer 1
370
     0
100
AcDbVertex
100
AcDb2dVertex
 10
3.625766330295139
 20
-6.817599826388888
 30
0.0
  0
SEQEND
  5
3DC
330
3D3
100
AcDbEntity
  8
Layer 1
370
     0
  0
POLYLINE
  5
3DD
330
1F
100
AcDbEntity
  8
Layer 1
370
     0
100
AcDb2dPolyline
 66
     1
 10
0.0
 20
0.0
 30
0.0
  0
VERTEX
  5
3DE
330
3DD
100
AcDbEntity
  8
Layer 1
370
     0
100
AcDbVertex
100
AcDb2dVertex
 10
3.625766330295139
 20
-6.409613715277778
 30
0.0
  0
VERTEX
  5
3DF
330
3DD
100
AcDbEntity
  8
Layer 1
370
     0
100
AcDbVertex
100
AcDb2dVertex
 10
3.44061279296875
 20
-6.409613715277778
 30
0.0
  0
VERTEX
  5
3E0
330
3DD
100
AcDbEntity
  8
Layer 1
370
     0
100
AcDbVertex
100
AcDb2dVertex
 10
3.388014051649305
 20
-6.357014973958333
 30
0.0
  0
VERTEX
  5
3E1
330
3DD
100
AcDbEntity
  8
Layer 1
370
     0
100
AcDbVertex
100
AcDb2dVertex
 10
3.492072211371528
 20
-6.252875434027778
 30
0.0
  0
VERTEX
  5
3E2
330
3DD
100
AcDbEntity
  8
Layer 1
370
     0
100
AcDbVertex
100
AcDb2dVertex
 10
3.625766330295139
 20
-6.386528862847221
 30
0.0
  0
VERTEX
  5
3E3
330
3DD
100
AcDbEntity
  8
Layer 1
370
     0
100
AcDbVertex
100
AcDb2dVertex
 10
3.625766330295139
 20
-6.409613715277778
 30
0.0
  0
SEQEND
  5
3E4
330
3DD
100
AcDbEntity
  8
Layer 1
370
     0
  0
POLYLINE
  5
3E5
330
1F
100
AcDbEntity
  8
Layer 1
370
     0
100
AcDb2dPolyline
 66
     1
 10
0.0
 20
0.0
 30
0.0
  0
VERTEX
  5
3E6
330
3E5
100
AcDbEntity
  8
Layer 1
370
     0
100
AcDbVertex
100
AcDb2dVertex
 10
3.58416748046875
 20
-6.160834418402778
 30
0.0
  0
VERTEX
  5
3E7
330
3E5
100
AcDbEntity
  8
Layer 1
370
     0
100
AcDbVertex
100
AcDb2dVertex
 10
3.658365885416667
 20
-6.086683485243055
 30
0.0
  0
VERTEX
  5
3E8
330
3E5
100
AcDbEntity
  8
Layer 1
370
     0
100
AcDbVertex
100
AcDb2dVertex
 10
3.830125596788194
 20
-6.258599175347221
 30
0.0
  0
VERTEX
  5
3E9
330
3E5
100
AcDbEntity
  8
Layer 1
370
     0
100
AcDbVertex
100
AcDb2dVertex
 10
3.906995985243055
 20
-6.258599175347221
 30
0.0
  0
VERTEX
  5
3EA
330
3E5
100
AcDbEntity
  8
Layer 1
370
     0
100
AcDbVertex
100
AcDb2dVertex
 10
3.906995985243055
 20
-6.409613715277778
 30
0.0
  0
VERTEX
  5
3EB
330
3E5
100
AcDbEntity
  8
Layer 1
370
     0
100
AcDbVertex
100
AcDb2dVertex
 10
3.755886501736111
 20
-6.409613715277778
 30
0.0
  0
VERTEX
  5
3EC
330
3E5
100
AcDbEntity
  8
Layer 1
370
     0
100
AcDbVertex
100
AcDb2dVertex
 10
3.755886501736111
 20
-6.3326416015625
 30
0.0
  0
VERTEX
  5
3ED
330
3E5
100
AcDbEntity
  8
Layer 1
370
     0
100
AcDbVertex
100
AcDb2dVertex
 10
3.58416748046875
 20
-6.160834418402778
 30
0.0
  0
SEQEND
  5
3EE
330
3E5
100
AcDbEntity
  8
Layer 1
370
     0
  0
POLYLINE
  5
3EF
330
1F
100
AcDbEntity
  8
Layer 1
370
     0
100
AcDb2dPolyline
 66
     1
 10
0.0
 20
0.0
 30
0.0
  0
VERTEX
  5
3F0
330
3EF
100
AcDbEntity
  8
Layer 1
370
     0
100
AcDbVertex
100
AcDb2dVertex
 10
4.481201171875
 20
-6.817599826388888
 30
0.0
  0
VERTEX
  5
3F1
330
3EF
100
AcDbEntity
  8
Layer 1
370
     0
100
AcDbVertex
100
AcDb2dVertex
 10
3.755886501736111
 20
-6.817599826388888
 30
0.0
  0
VERTEX
  5
3F2
330
3EF
100
AcDbEntity
  8
Layer 1
370
     0
100
AcDbVertex
100
AcDb2dVertex
 10
3.755886501736111
 20
-6.539849175347221
 30
0.0
  0
VERTEX
  5
3F3
330
3EF
100
AcDbEntity
  8
Layer 1
370
     0
100
AcDbVertex
100
AcDb2dVertex
 10
4.037163628472222
 20
-6.539849175347221
 30
0.0
  0
VERTEX
  5
3F4
330
3EF
100
AcDbEntity
  8
Layer 1
370
     0
100
AcDbVertex
100
AcDb2dVertex
 10
4.037163628472222
 20
-6.258599175347221
 30
0.0
  0
VERTEX
  5
3F5
330
3EF
100
AcDbEntity
  8
Layer 1
370
     0
100
AcDbVertex
100
AcDb2dVertex
 10
4.199964735243055
 20
-6.258599175347221
 30
0.0
  0
VERTEX
  5
3F6
330
3EF
100
AcDbEntity
  8
Layer 1
370
     0
100
AcDbVertex
100
AcDb2dVertex
 10
4.199964735243055
 20
-6.539849175347221
 30
0.0
  0
VERTEX
  5
3F7
330
3EF
100
AcDbEntity
  8
Layer 1
370
     0
100
AcDbVertex
100
AcDb2dVertex
 10
4.481201171875
 20
-6.539849175347221
 30
0.0
  0
VERTEX
  5
3F8
330
3EF
100
AcDbEntity
  8
Layer 1
370
     0
100
AcDbVertex
100
AcDb2dVertex
 10
4.481201171875
 20
-6.817599826388888
 30
0.0
  0
SEQEND
  5
3F9
330
3EF
100
AcDbEntity
  8
Layer 1
370
     0
  0
POLYLINE
  5
3FA
330
1F
100
AcDbEntity
  8
Layer 1
370
     0
100
AcDb2dPolyline
 66
     1
 10
0.0
 20
0.0
 30
0.0
  0
VERTEX
  5
3FB
330
3FA
100
AcDbEntity
  8
Layer 1
370
     0
100
AcDbVertex
100
AcDb2dVertex
 10
4.481201171875
 20
-6.409613715277778
 30
0.0
  0
VERTEX
  5
3FC
330
3FA
100
AcDbEntity
  8
Layer 1
370
     0
100
AcDbVertex
100
AcDb2dVertex
 10
4.330118815104166
 20
-6.409613715277778
 30
0.0
  0
VERTEX
  5
3FD
330
3FA
100
AcDbEntity
  8
Layer 1
370
     0
100
AcDbVertex
100
AcDb2dVertex
 10
4.330118815104166
 20
-6.258599175347221
 30
0.0
  0
VERTEX
  5
3FE
330
3FA
100
AcDbEntity
  8
Layer 1
370
     0
100
AcDbVertex
100
AcDb2dVertex
 10
4.407145182291666
 20
-6.258599175347221
 30
0.0
  0
VERTEX
  5
3FF
330
3FA
100
AcDbEntity
  8
Layer 1
370
     0
100
AcDbVertex
100
AcDb2dVertex
 10
4.578843858506944
 20
-6.086764865451388
 30
0.0
  0
VERTEX
  5
400
330
3FA
100
AcDbEntity
  8
Layer 1
370
     0
100
AcDbVertex
100
AcDb2dVertex
 10
4.6529541015625
 20
-6.160834418402778
 30
0.0
  0
VERTEX
  5
401
330
3FA
100
AcDbEntity
  8
Layer 1
370
     0
100
AcDbVertex
100
AcDb2dVertex
 10
4.481201171875
 20
-6.3326416015625
 30
0.0
  0
VERTEX
  5
402
330
3FA
100
AcDbEntity
  8
Layer 1
370
     0
100
AcDbVertex
100
AcDb2dVertex
 10
4.481201171875
 20
-6.409613715277778
 30
0.0
  0
SEQEND
  5
403
330
3FA
100
AcDbEntity
  8
Layer 1
370
     0
  0
POLYLINE
  5
404
330
1F
100
AcDbEntity
  8
Layer 1
370
     0
100
AcDb2dPolyline
 66
     1
 10
0.0
 20
0.0
 30
0.0
  0
VERTEX
  5
405
330
404
100
AcDbEntity
  8
Layer 1
370
     0
100
AcDbVertex
100
AcDb2dVertex
 10
5.270941840277778
 20
-6.817599826388888
 30
0.0
  0
VERTEX
  5
406
330
404
100
AcDbEntity
  8
Layer 1
370
     0
100
AcDbVertex
100
AcDb2dVertex
 10
4.611382378472222
 20
-6.817599826388888
 30
0.0
  0
VERTEX
  5
407
330
404
100
AcDbEntity
  8
Layer 1
370
     0
100
AcDbVertex
100
AcDb2dVertex
 10
4.611382378472222
 20
-6.539849175347221
 30
0.0
  0
VERTEX
  5
408
330
404
100
AcDbEntity
  8
Layer 1
370
     0
100
AcDbVertex
100
AcDb2dVertex
 10
4.850396050347222
 20
-6.539849175347221
 30
0.0
  0
VERTEX
  5
409
330
404
100
AcDbEntity
  8
Layer 1
370
     0
100
AcDbVertex
100
AcDb2dVertex
 10
4.850396050347222
 20
-6.539849175347221
 30
0.0
  0
VERTEX
  5
40A
330
404
100
AcDbEntity
  8
Layer 1
370
     0
100
AcDbVertex
100
AcDb2dVertex
 10
4.941107855902778
 20
-6.4490966796875
 30
0.0
  0
VERTEX
  5
40B
330
404
100
AcDbEntity
  8
Layer 1
370
     0
100
AcDbVertex
100
AcDb2dVertex
 10
5.031873914930555
 20
-6.539849175347221
 30
0.0
  0
VERTEX
  5
40C
330
404
100
AcDbEntity
  8
Layer 1
370
     0
100
AcDbVertex
100
AcDb2dVertex
 10
5.270941840277778
 20
-6.539849175347221
 30
0.0
  0
VERTEX
  5
40D
330
404
100
AcDbEntity
  8
Layer 1
370
     0
100
AcDbVertex
100
AcDb2dVertex
 10
5.270941840277778
 20
-6.817599826388888
 30
0.0
  0
SEQEND
  5
40E
330
404
100
AcDbEntity
  8
Layer 1
370
     0
  0
POLYLINE
  5
40F
330
1F
100
AcDbEntity
  8
Layer 1
370
     0
100
AcDb2dPolyline
 66
     1
 10
0.0
 20
0.0
 30
0.0
  0
VERTEX
  5
410
330
40F
100
AcDbEntity
  8
Layer 1
370
     0
100
AcDbVertex
100
AcDb2dVertex
 10
5.270941840277778
 20
-6.409613715277778
 30
0.0
  0
VERTEX
  5
411
330
40F
100
AcDbEntity
  8
Layer 1
370
     0
100
AcDbVertex
100
AcDb2dVertex
 10
5.085856119791666
 20
-6.409613715277778
 30
0.0
  0
VERTEX
  5
412
330
40F
100
AcDbEntity
  8
Layer 1
370
     0
100
AcDbVertex
100
AcDb2dVertex
 10
5.033243815104166
 20
-6.357014973958333
 30
0.0
  0
VERTEX
  5
413
330
40F
100
AcDbEntity
  8
Layer 1
370
     0
100
AcDbVertex
100
AcDb2dVertex
 10
5.137301974826388
 20
-6.252875434027778
 30
0.0
  0
VERTEX
  5
414
330
40F
100
AcDbEntity
  8
Layer 1
370
     0
100
AcDbVertex
100
AcDb2dVertex
 10
5.270941840277778
 20
-6.386528862847221
 30
0.0
  0
VERTEX
  5
415
330
40F
100
AcDbEntity
  8
Layer 1
370
     0
100
AcDbVertex
100
AcDb2dVertex
 10
5.270941840277778
 20
-6.409613715277778
 30
0.0
  0
SEQEND
  5
416
330
40F
100
AcDbEntity
  8
Layer 1
370
     0
  0
POLYLINE
  5
417
330
1F
100
AcDbEntity
  8
Layer 1
370
     0
100
AcDb2dPolyline
 66
     1
 10
0.0
 20
0.0
 30
0.0
  0
VERTEX
  5
418
330
417
100
AcDbEntity
  8
Layer 1
370
     0
100
AcDbVertex
100
AcDb2dVertex
 10
5.229302300347222
 20
-6.160834418402778
 30
0.0
  0
VERTEX
  5
419
330
417
100
AcDbEntity
  8
Layer 1
370
     0
100
AcDbVertex
100
AcDb2dVertex
 10
5.303331163194444
 20
-6.086900499131944
 30
0.0
  0
VERTEX
  5
41A
330
417
100
AcDbEntity
  8
Layer 1
370
     0
100
AcDbVertex
100
AcDb2dVertex
 10
5.474962022569444
 20
-6.258599175347221
 30
0.0
  0
VERTEX
  5
41B
330
417
100
AcDbEntity
  8
Layer 1
370
     0
100
AcDbVertex
100
AcDb2dVertex
 10
5.552137586805555
 20
-6.258599175347221
 30
0.0
  0
VERTEX
  5
41C
330
417
100
AcDbEntity
  8
Layer 1
370
     0
100
AcDbVertex
100
AcDb2dVertex
 10
5.552137586805555
 20
-6.409613715277778
 30
0.0
  0
VERTEX
  5
41D
330
417
100
AcDbEntity
  8
Layer 1
370
     0
100
AcDbVertex
100
AcDb2dVertex
 10
5.401082356770833
 20
-6.409613715277778
 30
0.0
  0
VERTEX
  5
41E
330
417
100
AcDbEntity
  8
Layer 1
370
     0
100
AcDbVertex
100
AcDb2dVertex
 10
5.401082356770833
 20
-6.3326416015625
 30
0.0
  0
VERTEX
  5
41F
330
417
100
AcDbEntity
  8
Layer 1
370
     0
100
AcDbVertex
100
AcDb2dVertex
 10
5.229302300347222
 20
-6.160834418402778
 30
0.0
  0
SEQEND
  5
420
330
417
100
AcDbEntity
  8
Layer 1
370
     0
  0
POLYLINE
  5
421
330
1F
100
AcDbEntity
  8
Layer 1
370
     0
100
AcDb2dPolyline
 66
     1
 10
0.0
 20
0.0
 30
0.0
  0
VERTEX
  5
422
330
421
100
AcDbEntity
  8
Layer 1
370
     0
100
AcDbVertex
100
AcDb2dVertex
 10
6.126044379340278
 20
-6.817599826388888
 30
0.0
  0
VERTEX
  5
423
330
421
100
AcDbEntity
  8
Layer 1
370
     0
100
AcDbVertex
100
AcDb2dVertex
 10
5.401082356770833
 20
-6.817599826388888
 30
0.0
  0
VERTEX
  5
424
330
421
100
AcDbEntity
  8
Layer 1
370
     0
100
AcDbVertex
100
AcDb2dVertex
 10
5.401082356770833
 20
-6.539849175347221
 30
0.0
  0
VERTEX
  5
425
330
421
100
AcDbEntity
  8
Layer 1
370
     0
100
AcDbVertex
100
AcDb2dVertex
 10
5.682264539930555
 20
-6.539849175347221
 30
0.0
  0
VERTEX
  5
426
330
421
100
AcDbEntity
  8
Layer 1
370
     0
100
AcDbVertex
100
AcDb2dVertex
 10
5.682264539930555
 20
-6.258599175347221
 30
0.0
  0
VERTEX
  5
427
330
421
100
AcDbEntity
  8
Layer 1
370
     0
100
AcDbVertex
100
AcDb2dVertex
 10
5.844807942708333
 20
-6.258599175347221
 30
0.0
  0
VERTEX
  5
428
330
421
100
AcDbEntity
  8
Layer 1
370
     0
100
AcDbVertex
100
AcDb2dVertex
 10
5.844807942708333
 20
-6.539849175347221
 30
0.0
  0
VERTEX
  5
429
330
421
100
AcDbEntity
  8
Layer 1
370
     0
100
AcDbVertex
100
AcDb2dVertex
 10
6.126044379340278
 20
-6.539849175347221
 30
0.0
  0
VERTEX
  5
42A
330
421
100
AcDbEntity
  8
Layer 1
370
     0
100
AcDbVertex
100
AcDb2dVertex
 10
6.126044379340278
 20
-6.817599826388888
 30
0.0
  0
SEQEND
  5
42B
330
421
100
AcDbEntity
  8
Layer 1
370
     0
  0
POLYLINE
  5
42C
330
1F
100
AcDbEntity
  8
Layer 1
370
     0
100
AcDb2dPolyline
 66
     1
 10
0.0
 20
0.0
 30
0.0
  0
VERTEX
  5
42D
330
42C
100
AcDbEntity
  8
Layer 1
370
     0
100
AcDbVertex
100
AcDb2dVertex
 10
6.126044379340278
 20
-6.409613715277778
 30
0.0
  0
VERTEX
  5
42E
330
42C
100
AcDbEntity
  8
Layer 1
370
     0
100
AcDbVertex
100
AcDb2dVertex
 10
5.974934895833333
 20
-6.409613715277778
 30
0.0
  0
VERTEX
  5
42F
330
42C
100
AcDbEntity
  8
Layer 1
370
     0
100
AcDbVertex
100
AcDb2dVertex
 10
5.974934895833333
 20
-6.258599175347221
 30
0.0
  0
VERTEX
  5
430
330
42C
100
AcDbEntity
  8
Layer 1
370
     0
100
AcDbVertex
100
AcDb2dVertex
 10
6.051920572916666
 20
-6.258599175347221
 30
0.0
  0
VERTEX
  5
431
330
42C
100
AcDbEntity
  8
Layer 1
370
     0
100
AcDbVertex
100
AcDb2dVertex
 10
6.223687065972221
 20
-6.086764865451388
 30
0.0
  0
VERTEX
  5
432
330
42C
100
AcDbEntity
  8
Layer 1
370
     0
100
AcDbVertex
100
AcDb2dVertex
 10
6.297810872395833
 20
-6.160834418402778
 30
0.0
  0
VERTEX
  5
433
330
42C
100
AcDbEntity
  8
Layer 1
370
     0
100
AcDbVertex
100
AcDb2dVertex
 10
6.126044379340278
 20
-6.3326416015625
 30
0.0
  0
VERTEX
  5
434
330
42C
100
AcDbEntity
  8
Layer 1
370
     0
100
AcDbVertex
100
AcDb2dVertex
 10
6.126044379340278
 20
-6.409613715277778
 30
0.0
  0
SEQEND
  5
435
330
42C
100
AcDbEntity
  8
Layer 1
370
     0
  0
POLYLINE
  5
436
330
1F
100
AcDbEntity
  8
Layer 1
370
     0
100
AcDb2dPolyline
 66
     1
 10
0.0
 20
0.0
 30
0.0
  0
VERTEX
  5
437
330
436
100
AcDbEntity
  8
Layer 1
370
     0
100
AcDbVertex
100
AcDb2dVertex
 10
6.915771484375
 20
-6.817599826388888
 30
0.0
  0
VERTEX
  5
438
330
436
100
AcDbEntity
  8
Layer 1
370
     0
100
AcDbVertex
100
AcDb2dVertex
 10
6.256212022569444
 20
-6.817599826388888
 30
0.0
  0
VERTEX
  5
439
330
436
100
AcDbEntity
  8
Layer 1
370
     0
100
AcDbVertex
100
AcDb2dVertex
 10
6.256212022569444
 20
-6.539849175347221
 30
0.0
  0
VERTEX
  5
43A
330
436
100
AcDbEntity
  8
Layer 1
370
     0
100
AcDbVertex
100
AcDb2dVertex
 10
6.4952392578125
 20
-6.539849175347221
 30
0.0
  0
VERTEX
  5
43B
330
436
100
AcDbEntity
  8
Layer 1
370
     0
100
AcDbVertex
100
AcDb2dVertex
 10
6.585978190104166
 20
-6.449042426215278
 30
0.0
  0
VERTEX
  5
43C
330
436
100
AcDbEntity
  8
Layer 1
370
     0
100
AcDbVertex
100
AcDb2dVertex
 10
6.676689995659721
 20
-6.539849175347221
 30
0.0
  0
VERTEX
  5
43D
330
436
100
AcDbEntity
  8
Layer 1
370
     0
100
AcDbVertex
100
AcDb2dVertex
 10
6.915771484375
 20
-6.539849175347221
 30
0.0
  0
VERTEX
  5
43E
330
436
100
AcDbEntity
  8
Layer 1
370
     0
100
AcDbVertex
100
AcDb2dVertex
 10
6.915771484375
 20
-6.817599826388888
 30
0.0
  0
SEQEND
  5
43F
330
436
100
AcDbEntity
  8
Layer 1
370
     0
  0
POLYLINE
  5
440
330
1F
100
AcDbEntity
  8
Layer 1
370
     0
100
AcDb2dPolyline
 66
     1
 10
0.0
 20
0.0
 30
0.0
  0
VERTEX
  5
441
330
440
100
AcDbEntity
  8
Layer 1
370
     0
100
AcDbVertex
100
AcDb2dVertex
 10
6.915771484375
 20
-6.409613715277778
 30
0.0
  0
VERTEX
  5
442
330
440
100
AcDbEntity
  8
Layer 1
370
     0
100
AcDbVertex
100
AcDb2dVertex
 10
6.730563693576388
 20
-6.409613715277778
 30
0.0
  0
VERTEX
  5
443
330
440
100
AcDbEntity
  8
Layer 1
370
     0
100
AcDbVertex
100
AcDb2dVertex
 10
6.678019205729166
 20
-6.357014973958333
 30
0.0
  0
VERTEX
  5
444
330
440
100
AcDbEntity
  8
Layer 1
370
     0
100
AcDbVertex
100
AcDb2dVertex
 10
6.782118055555555
 20
-6.252875434027778
 30
0.0
  0
VERTEX
  5
445
330
440
100
AcDbEntity
  8
Layer 1
370
     0
100
AcDbVertex
100
AcDb2dVertex
 10
6.915771484375
 20
-6.386528862847221
 30
0.0
  0
VERTEX
  5
446
330
440
100
AcDbEntity
  8
Layer 1
370
     0
100
AcDbVertex
100
AcDb2dVertex
 10
6.915771484375
 20
-6.409613715277778
 30
0.0
  0
SEQEND
  5
447
330
440
100
AcDbEntity
  8
Layer 1
370
     0
  0
POLYLINE
  5
448
330
1F
100
AcDbEntity
  8
Layer 1
370
     0
100
AcDb2dPolyline
 66
     1
 10
0.0
 20
0.0
 30
0.0
  0
VERTEX
  5
449
330
448
100
AcDbEntity
  8
Layer 1
370
     0
100
AcDbVertex
100
AcDb2dVertex
 10
6.874131944444444
 20
-6.160834418402778
 30
0.0
  0
VERTEX
  5
44A
330
448
100
AcDbEntity
  8
Layer 1
370
     0
100
AcDbVertex
100
AcDb2dVertex
 10
6.948377821180555
 20
-6.086683485243055
 30
0.0
  0
VERTEX
  5
44B
330
448
100
AcDbEntity
  8
Layer 1
370
     0
100
AcDbVertex
100
AcDb2dVertex
 10
7.120212131076388
 20
-6.258599175347221
 30
0.0
  0
VERTEX
  5
44C
330
448
100
AcDbEntity
  8
Layer 1
370
     0
100
AcDbVertex
100
AcDb2dVertex
 10
7.196980794270833
 20
-6.258599175347221
 30
0.0
  0
VERTEX
  5
44D
330
448
100
AcDbEntity
  8
Layer 1
370
     0
100
AcDbVertex
100
AcDb2dVertex
 10
7.196980794270833
 20
-6.409613715277778
 30
0.0
  0
VERTEX
  5
44E
330
448
100
AcDbEntity
  8
Layer 1
370
     0
100
AcDbVertex
100
AcDb2dVertex
 10
7.045979817708333
 20
-6.409613715277778
 30
0.0
  0
VERTEX
  5
44F
330
448
100
AcDbEntity
  8
Layer 1
370
     0
100
AcDbVertex
100
AcDb2dVertex
 10
7.045979817708333
 20
-6.3326416015625
 30
0.0
  0
VERTEX
  5
450
330
448
100
AcDbEntity
  8
Layer 1
370
     0
100
AcDbVertex
100
AcDb2dVertex
 10
6.874131944444444
 20
-6.160834418402778
 30
0.0
  0
SEQEND
  5
451
330
448
100
AcDbEntity
  8
Layer 1
370
     0
  0
POLYLINE
  5
452
330
1F
100
AcDbEntity
  8
Layer 1
370
     0
100
AcDb2dPolyline
 66
     1
 10
0.0
 20
0.0
 30
0.0
  0
VERTEX
  5
453
330
452
100
AcDbEntity
  8
Layer 1
370
     0
100
AcDbVertex
100
AcDb2dVertex
 10
7.771213107638888
 20
-6.817599826388888
 30
0.0
  0
VERTEX
  5
454
330
452
100
AcDbEntity
  8
Layer 1
370
     0
100
AcDbVertex
100
AcDb2dVertex
 10
7.045979817708333
 20
-6.817599826388888
 30
0.0
  0
VERTEX
  5
455
330
452
100
AcDbEntity
  8
Layer 1
370
     0
100
AcDbVertex
100
AcDb2dVertex
 10
7.045979817708333
 20
-6.539849175347221
 30
0.0
  0
VERTEX
  5
456
330
452
100
AcDbEntity
  8
Layer 1
370
     0
100
AcDbVertex
100
AcDb2dVertex
 10
7.327202690972221
 20
-6.539849175347221
 30
0.0
  0
VERTEX
  5
457
330
452
100
AcDbEntity
  8
Layer 1
370
     0
100
AcDbVertex
100
AcDb2dVertex
 10
7.327202690972221
 20
-6.258599175347221
 30
0.0
  0
VERTEX
  5
458
330
452
100
AcDbEntity
  8
Layer 1
370
     0
100
AcDbVertex
100
AcDb2dVertex
 10
7.490044487847221
 20
-6.258599175347221
 30
0.0
  0
VERTEX
  5
459
330
452
100
AcDbEntity
  8
Layer 1
370
     0
100
AcDbVertex
100
AcDb2dVertex
 10
7.490044487847221
 20
-6.539849175347221
 30
0.0
  0
VERTEX
  5
45A
330
452
100
AcDbEntity
  8
Layer 1
370
     0
100
AcDbVertex
100
AcDb2dVertex
 10
7.771213107638888
 20
-6.539849175347221
 30
0.0
  0
VERTEX
  5
45B
330
452
100
AcDbEntity
  8
Layer 1
370
     0
100
AcDbVertex
100
AcDb2dVertex
 10
7.771213107638888
 20
-6.817599826388888
 30
0.0
  0
SEQEND
  5
45C
330
452
100
AcDbEntity
  8
Layer 1
370
     0
  0
POLYLINE
  5
45D
330
1F
100
AcDbEntity
  8
Layer 1
370
     0
100
AcDb2dPolyline
 66
     1
 10
0.0
 20
0.0
 30
0.0
  0
VERTEX
  5
45E
330
45D
100
AcDbEntity
  8
Layer 1
370
     0
100
AcDbVertex
100
AcDb2dVertex
 10
7.771213107638888
 20
-6.409613715277778
 30
0.0
  0
VERTEX
  5
45F
330
45D
100
AcDbEntity
  8
Layer 1
370
     0
100
AcDbVertex
100
AcDb2dVertex
 10
7.620157877604166
 20
-6.409613715277778
 30
0.0
  0
VERTEX
  5
460
330
45D
100
AcDbEntity
  8
Layer 1
370
     0
100
AcDbVertex
100
AcDb2dVertex
 10
7.620157877604166
 20
-6.258599175347221
 30
0.0
  0
VERTEX
  5
461
330
45D
100
AcDbEntity
  8
Layer 1
370
     0
100
AcDbVertex
100
AcDb2dVertex
 10
7.697102864583333
 20
-6.258599175347221
 30
0.0
  0
VERTEX
  5
462
330
45D
100
AcDbEntity
  8
Layer 1
370
     0
100
AcDbVertex
100
AcDb2dVertex
 10
7.868869357638888
 20
-6.086764865451388
 30
0.0
  0
VERTEX
  5
463
330
45D
100
AcDbEntity
  8
Layer 1
370
     0
100
AcDbVertex
100
AcDb2dVertex
 10
7.943006727430555
 20
-6.160834418402778
 30
0.0
  0
VERTEX
  5
464
330
45D
100
AcDbEntity
  8
Layer 1
370
     0
100
AcDbVertex
100
AcDb2dVertex
 10
7.771213107638888
 20
-6.3326416015625
 30
0.0
  0
VERTEX
  5
465
330
45D
100
AcDbEntity
  8
Layer 1
370
     0
100
AcDbVertex
100
AcDb2dVertex
 10
7.771213107638888
 20
-6.409613715277778
 30
0.0
  0
SEQEND
  5
466
330
45D
100
AcDbEntity
  8
Layer 1
370
     0
  0
ENDSEC
  0
SECTION
  2
OBJECTS
  0
DICTIONARY
  5
C
330
0
100
AcDbDictionary
281
     1
  3
ACAD_GROUP
350
D
  3
ACAD_LAYOUT
350
1A
  3
ACAD_MLINESTYLE
350
17
  3
ACAD_PLOTSETTINGS
350
19
  3
ACAD_PLOTSTYLENAME
350
E
  3
ACAD_TABLESTYLE
350
467
  3
ACAD_VISUALSTYLE
350
2A
  0
DICTIONARY
  5
D
102
{ACAD_REACTORS
330
C
102
}
330
C
100
AcDbDictionary
281
     1
  0
DICTIONARY
  5
1A
102
{ACAD_REACTORS
330
C
102
}
330
C
100
AcDbDictionary
281
     1
  3
Layout1
350
1E
  3
Layout2
350
26
  3
Model
350
22
  0
DICTIONARY
  5
17
102
{ACAD_REACTORS
330
C
102
}
330
C
100
AcDbDictionary
281
     1
  3
Standard
350
18
  0
DICTIONARY
  5
19
102
{ACAD_REACTORS
330
C
102
}
330
C
100
AcDbDictionary
281
     1
  0
ACDBDICTIONARYWDFLT
  5
E
102
{ACAD_REACTORS
330
C
102
}
330
C
100
AcDbDictionary
281
     1
  3
Normal
350
F
100
AcDbDictionaryWithDefault
340
F
  0
DICTIONARY
  5
467
102
{ACAD_REACTORS
330
C
102
}
330
C
100
AcDbDictionary
281
     1
  0
DICTIONARY
  5
2A
102
{ACAD_REACTORS
330
C
102
}
330
C
100
AcDbDictionary
281
     1
  3
2dWireframe
350
2F
  3
3D Hidden
350
31
  3
3dWireframe
350
30
  3
Basic
350
32
  3
Brighten
350
36
  3
ColorChange
350
3A
  3
Conceptual
350
34
  3
Dim
350
35
  3
Facepattern
350
39
  3
Flat
350
2B
  3
FlatWithEdges
350
2C
  3
Gouraud
350
2D
  3
GouraudWithEdges
350
2E
  3
Linepattern
350
38
  3
Realistic
350
33
  3
Thicken
350
37
  0
LAYOUT
  5
1E
102
{ACAD_REACTORS
330
1A
102
}
330
1A
100
AcDbPlotSettings
  1

  2
none_device
  4

  6

 40
0.0
 41
0.0
 42
0.0
 43
0.0
 44
0.0
 45
0.0
 46
0.0
 47
0.0
 48
0.0
 49
0.0
140
0.0
141
0.0
142
1.0
143
1.0
 70
   688
 72
     0
 73
     0
 74
     5
  7

 75
    16
 76
     0
 77
     2
 78
   300
147
1.0
148
0.0
149
0.0
100
AcDbLayout
  1
Layout1
 70
     1
 71
     1
 10
0.0
 20
0.0
 11
12.0
 21
9.0
 12
0.0
 22
0.0
 32
0.0
 14
1.000000000000000E+20
 24
1.000000000000000E+20
 34
1.000000000000000E+20
 15
-1.000000000000000E+20
 25
-1.000000000000000E+20
 35
-1.000000000000000E+20
146
0.0
 13
0.0
 23
0.0
 33
0.0
 16
1.0
 26
0.0
 36
0.0
 17
0.0
 27
1.0
 37
0.0
 76
     0
330
1B
  0
LAYOUT
  5
26
102
{ACAD_REACTORS
330
1A
102
}
330
1A
100
AcDbPlotSettings
  1

  2
none_device
  4

  6

 40
0.0
 41
0.0
 42
0.0
 43
0.0
 44
0.0
 45
0.0
 46
0.0
 47
0.0
 48
0.0
 49
0.0
140
0.0
141
0.0
142
1.0
143
1.0
 70
   688
 72
     0
 73
     0
 74
     5
  7

 75
    16
 76
     0
 77
     2
 78
   300
147
1.0
148
0.0
149
0.0
100
AcDbLayout
  1
Layout2
 70
     1
 71
     2
 10
0.0
 20
0.0
 11
0.0
 21
0.0
 12
0.0
 22
0.0
 32
0.0
 14
0.0
 24
0.0
 34
0.0
 15
0.0
 25
0.0
 35
0.0
146
0.0
 13
0.0
 23
0.0
 33
0.0
 16
1.0
 26
0.0
 36
0.0
 17
0.0
 27
1.0
 37
0.0
 76
     0
330
23
  0
LAYOUT
  5
22
102
{ACAD_REACTORS
330
1A
102
}
330
1A
100
AcDbPlotSettings
  1

  2
none_device
  4

  6

 40
0.0
 41
0.0
 42
0.0
 43
0.0
 44
0.0
 45
0.0
 46
0.0
 47
0.0
 48
0.0
 49
0.0
140
0.0
141
0.0
142
1.0
143
1.0
 70
  1712
 72
     0
 73
     0
 74
     0
  7

 75
     0
 76
     0
 77
     2
 78
   300
147
1.0
148
0.0
149
0.0
100
AcDbLayout
  1
Model
 70
     1
 71
     0
 10
0.0
 20
0.0
 11
12.0
 21
9.0
 12
0.0
 22
0.0
 32
0.0
 14
1.000000000000000E+20
 24
1.000000000000000E+20
 34
1.000000000000000E+20
 15
-1.000000000000000E+20
 25
-1.000000000000000E+20
 35
-1.000000000000000E+20
146
0.0
 13
0.0
 23
0.0
 33
0.0
 16
1.0
 26
0.0
 36
0.0
 17
0.0
 27
1.0
 37
0.0
 76
     0
330
1F
331
29
  0
MLINESTYLE
  5
18
102
{ACAD_REACTORS
330
17
102
}
330
17
100
AcDbMlineStyle
  2
Standard
 70
     0
  3

 62
   256
 51
90.0
 52
90.0
 71
     2
 49
0.5
 62
   256
  6
BYLAYER
 49
-0.5
 62
   256
  6
BYLAYER
  0
ACDBPLACEHOLDER
  5
F
102
{ACAD_REACTORS
330
E
102
}
330
E
  0
VISUALSTYLE
  5
2F
102
{ACAD_REACTORS
330
2A
102
}
330
2A
100
AcDbVisualStyle
  2
2dWireframe
 70
     4
 71
     0
 72
     2
 73
     0
 90
        0
 40
-0.6
 41
-30.0
 62
     5
 63
     7
421
 16777215
 74
     1
 91
        4
 64
     7
 65
   257
 75
     1
175
     1
 42
1.0
 92
        0
 66
   257
 43
1.0
 76
     1
 77
     6
 78
     2
 67
     7
 79
     5
170
     0
171
     0
290
     0
174
     0
 93
        1
 44
0.0
173
     0
291
     0
 45
0.0
1001
ACAD
1000
AcDbSavedByObjectVersion
1070
     0
  0
VISUALSTYLE
  5
31
102
{ACAD_REACTORS
330
2A
102
}
330
2A
100
AcDbVisualStyle
  2
3D Hidden
 70
     6
 71
     1
 72
     2
 73
     2
 90
        0
 40
-0.6
 41
-30.0
 62
     5
 63
     7
421
 16777215
 74
     2
 91
        2
 64
     7
 65
   257
 75
     2
175
     1
 42
40.0
 92
        0
 66
   257
 43
1.0
 76
     1
 77
     6
 78
     2
 67
     7
 79
     3
170
     0
171
     0
290
     0
174
     0
 93
        1
 44
0.0
173
     0
291
     0
 45
0.0
1001
ACAD
1000
AcDbSavedByObjectVersion
1070
     0
  0
VISUALSTYLE
  5
30
102
{ACAD_REACTORS
330
2A
102
}
330
2A
100
AcDbVisualStyle
  2
3dWireframe
 70
     5
 71
     0
 72
     2
 73
     0
 90
        0
 40
-0.6
 41
-30.0
 62
     5
 63
     7
421
 16777215
 74
     1
 91
        4
 64
     7
 65
   257
 75
     1
175
     1
 42
1.0
 92
        0
 66
   257
 43
1.0
 76
     1
 77
     6
 78
     2
 67
     7
 79
     5
170
     0
171
     0
290
     0
174
     0
 93
        1
 44
0.0
173
     0
291
     0
 45
0.0
1001
ACAD
1000
AcDbSavedByObjectVersion
1070
     0
  0
VISUALSTYLE
  5
32
102
{ACAD_REACTORS
330
2A
102
}
330
2A
100
AcDbVisualStyle
  2
Basic
 70
     7
 71
     1
 72
     0
 73
     1
 90
        0
 40
-0.6
 41
-30.0
 62
     5
 63
     7
421
 16777215
 74
     0
 91
        4
 64
     7
 65
   257
 75
     1
175
     1
 42
1.0
 92
        8
 66
     7
 43
1.0
 76
     1
 77
     6
 78
     2
 67
     7
 79
     5
170
     0
171
     0
290
     0
174
     0
 93
        1
 44
0.0
173
     0
291
     1
 45
0.0
1001
ACAD
1000
AcDbSavedByObjectVersion
1070
     0
  0
VISUALSTYLE
  5
36
102
{ACAD_REACTORS
330
2A
102
}
330
2A
100
AcDbVisualStyle
  2
Brighten
 70
    12
 71
     2
 72
     2
 73
     0
 90
        0
 40
-0.6
 41
-30.0
 62
     5
 63
     7
421
 16777215
 74
     1
 91
        4
 64
     7
 65
   257
 75
     1
175
     1
 42
1.0
 92
        8
 66
     7
 43
1.0
 76
     1
 77
     6
 78
     2
 67
     7
 79
     5
170
     0
171
     0
290
     0
174
     0
 93
        1
 44
50.0
173
     0
291
     1
 45
0.0
1001
ACAD
1000
AcDbSavedByObjectVersion
1070
     0
  0
VISUALSTYLE
  5
3A
102
{ACAD_REACTORS
330
2A
102
}
330
2A
100
AcDbVisualStyle
  2
ColorChange
 70
    16
 71
     2
 72
     2
 73
     3
 90
        0
 40
-0.6
 41
-30.0
 62
     5
 63
     8
421
  8421504
 74
     1
 91
        4
 64
     7
 65
   257
 75
     1
175
     1
 42
1.0
 92
        8
 66
     8
424
  8421504
 43
1.0
 76
     1
 77
     6
 78
     2
 67
     7
 79
     5
170
     0
171
     0
290
     0
174
     0
 93
        1
 44
0.0
173
     0
291
     1
 45
0.0
1001
ACAD
1000
AcDbSavedByObjectVersion
1070
     0
  0
VISUALSTYLE
  5
34
102
{ACAD_REACTORS
330
2A
102
}
330
2A
100
AcDbVisualStyle
  2
Conceptual
 70
     9
 71
     3
 72
     2
 73
     0
 90
        0
 40
-0.6
 41
-30.0
 62
     5
 63
     7
421
 16777215
 74
     2
 91
        2
 64
     7
 65
   257
 75
     1
175
     1
 42
40.0
 92
        8
 66
     7
 43
1.0
 76
     1
 77
     6
 78
     2
 67
     7
 79
     3
170
     0
171
     0
290
     0
174
     0
 93
        1
 44
0.0
173
     0
291
     0
 45
0.0
1001
ACAD
1000
AcDbSavedByObjectVersion
1070
     0
  0
VISUALSTYLE
  5
35
102
{ACAD_REACTORS
330
2A
102
}
330
2A
100
AcDbVisualStyle
  2
Dim
 70
    11
 71
     2
 72
     2
 73
     0
 90
        0
 40
-0.6
 41
-30.0
 62
     5
 63
     7
421
 16777215
 74
     1
 91
        4
 64
     7
 65
   257
 75
     1
175
     1
 42
1.0
 92
        8
 66
     7
 43
1.0
 76
     1
 77
     6
 78
     2
 67
     7
 79
     5
170
     0
171
     0
290
     0
174
     0
 93
        1
 44
-50.0
173
     0
291
     1
 45
0.0
1001
ACAD
1000
AcDbSavedByObjectVersion
1070
     0
  0
VISUALSTYLE
  5
39
102
{ACAD_REACTORS
330
2A
102
}
330
2A
100
AcDbVisualStyle
  2
Facepattern
 70
    15
 71
     2
 72
     2
 73
     0
 90
        0
 40
-0.6
 41
-30.0
 62
     5
 63
     7
421
 16777215
 74
     1
 91
        4
 64
     7
 65
   257
 75
     1
175
     1
 42
1.0
 92
        8
 66
     7
 43
1.0
 76
     1
 77
     6
 78
     2
 67
     7
 79
     5
170
     0
171
     0
290
     0
174
     0
 93
        1
 44
0.0
173
     0
291
     1
 45
0.0
1001
ACAD
1000
AcDbSavedByObjectVersion
1070
     0
  0
VISUALSTYLE
  5
2B
102
{ACAD_REACTORS
330
2A
102
}
330
2A
100
AcDbVisualStyle
  2
Flat
 70
     0
 71
     2
 72
     1
 73
     1
 90
        2
 40
-0.6
 41
30.0
 62
     5
 63
     7
421
 16777215
 74
     0
 91
        4
 64
     7
 65
   257
 75
     1
175
     1
 42
1.0
 92
        8
 66
     7
 43
1.0
 76
     1
 77
     6
 78
     2
 67
     7
 79
     5
170
     0
171
     0
290
     0
174
     0
 93
       13
 44
0.0
173
     0
291
     1
 45
0.0
1001
ACAD
1000
AcDbSavedByObjectVersion
1070
     0
  0
VISUALSTYLE
  5
2C
102
{ACAD_REACTORS
330
2A
102
}
330
2A
100
AcDbVisualStyle
  2
FlatWithEdges
 70
     1
 71
     2
 72
     1
 73
     1
 90
        2
 40
-0.6
 41
30.0
 62
     5
 63
     7
421
 16777215
 74
     1
 91
        4
 64
     7
 65
   257
 75
     1
175
     1
 42
1.0
 92
        0
 66
   257
 43
1.0
 76
     1
 77
     6
 78
     2
 67
     7
 79
     5
170
     0
171
     0
290
     0
174
     0
 93
       13
 44
0.0
173
     0
291
     1
 45
0.0
1001
ACAD
1000
AcDbSavedByObjectVersion
1070
     0
  0
VISUALSTYLE
  5
2D
102
{ACAD_REACTORS
330
2A
102
}
330
2A
100
AcDbVisualStyle
  2
Gouraud
 70
     2
 71
     2
 72
     2
 73
     1
 90
        2
 40
-0.6
 41
30.0
 62
     5
 63
     7
421
 16777215
 74
     0
 91
        4
 64
     7
 65
   257
 75
     1
175
     1
 42
1.0
 92
        0
 66
     7
 43
1.0
 76
     1
 77
     6
 78
     2
 67
     7
 79
     5
170
     0
171
     0
290
     0
174
     0
 93
       13
 44
0.0
173
     0
291
     1
 45
0.0
1001
ACAD
1000
AcDbSavedByObjectVersion
1070
     0
  0
VISUALSTYLE
  5
2E
102
{ACAD_REACTORS
330
2A
102
}
330
2A
100
AcDbVisualStyle
  2
GouraudWithEdges
 70
     3
 71
     2
 72
     2
 73
     1
 90
        2
 40
-0.6
 41
30.0
 62
     5
 63
     7
421
 16777215
 74
     1
 91
        4
 64
     7
 65
   257
 75
     1
175
     1
 42
1.0
 92
        0
 66
   257
 43
1.0
 76
     1
 77
     6
 78
     2
 67
     7
 79
     5
170
     0
171
     0
290
     0
174
     0
 93
       13
 44
0.0
173
     0
291
     1
 45
0.0
1001
ACAD
1000
AcDbSavedByObjectVersion
1070
     0
  0
VISUALSTYLE
  5
38
102
{ACAD_REACTORS
330
2A
102
}
330
2A
100
AcDbVisualStyle
  2
Linepattern
 70
    14
 71
     2
 72
     2
 73
     0
 90
        0
 40
-0.6
 41
-30.0
 62
     5
 63
     7
421
 16777215
 74
     1
 91
        4
 64
     7
 65
   257
 75
     7
175
     7
 42
1.0
 92
        8
 66
     7
 43
1.0
 76
     1
 77
     6
 78
     2
 67
     7
 79
     5
170
     0
171
     0
290
     0
174
     0
 93
        1
 44
0.0
173
     0
291
     1
 45
0.0
1001
ACAD
1000
AcDbSavedByObjectVersion
1070
     0
  0
VISUALSTYLE
  5
33
102
{ACAD_REACTORS
330
2A
102
}
330
2A
100
AcDbVisualStyle
  2
Realistic
 70
     8
 71
     2
 72
     2
 73
     0
 90
        0
 40
-0.6
 41
-30.0
 62
     5
 63
     7
421
 16777215
 74
     1
 91
        0
 64
     7
 65
   257
 75
     1
175
     1
 42
1.0
 92
        8
 66
     8
424
  7895160
 43
1.0
 76
     1
 77
     6
 78
     2
 67
     7
 79
     5
170
     0
171
     0
290
     0
174
     0
 93
       13
 44
0.0
173
     0
291
     0
 45
0.0
1001
ACAD
1000
AcDbSavedByObjectVersion
1070
     0
  0
VISUALSTYLE
  5
37
102
{ACAD_REACTORS
330
2A
102
}
330
2A
100
AcDbVisualStyle
  2
Thicken
 70
    13
 71
     2
 72
     2
 73
     0
 90
        0
 40
-0.6
 41
-30.0
 62
     5
 63
     7
421
 16777215
 74
     1
 91
        4
 64
     7
 65
   257
 75
     1
175
     1
 42
1.0
 92
       12
 66
     7
 43
1.0
 76
     1
 77
     6
 78
     2
 67
     7
 79
     5
170
     0
171
     0
290
     0
174
     0
 93
        1
 44
0.0
173
     0
291
     1
 45
0.0
1001
ACAD
1000
AcDbSavedByObjectVersion
1070
     0
  0
ENDSEC
  0
EOF
