<?xml version="1.0" encoding="utf-8"?>
<!-- Generator: Adobe Illustrator 16.0.0, SVG Export Plug-In . SVG Version: 6.00 Build 0)  -->
<!DOCTYPE svg PUBLIC "-//W3C//DTD SVG 1.1//EN" "http://www.w3.org/Graphics/SVG/1.1/DTD/svg11.dtd">
<svg version="1.1" id="Layer_1" xmlns="http://www.w3.org/2000/svg" xmlns:xlink="http://www.w3.org/1999/xlink" x="0px" y="0px"
	 width="595.28px" height="841.89px" viewBox="0 0 595.28 841.89" enable-background="new 0 0 595.28 841.89" xml:space="preserve">
<linearGradient id="SVGID_1_" gradientUnits="userSpaceOnUse" x1="0" y1="439.2441" x2="594.6201" y2="439.2441">
	<stop  offset="0.0056" style="stop-color:#ECC562"/>
	<stop  offset="1" style="stop-color:#C3922E"/>
</linearGradient>
<path fill="url(#SVGID_1_)" d="M594.318,464.672l-45.076-25.956l44.872-25.69l0.506-145.285l-125.475-73.089l-46.075,26.365
	l-0.035-52.055L297.199,96.414L171.412,169.18l0.063,51.656l-45.48-26.195L0.266,267.395l0.17,145.301l45.082,25.957L0.617,464.336
	L0,609.632l125.613,73.091l45.894-26.274l0.042,53.042l125.857,72.584l125.761-72.781l-0.042-52.851l45.634,26.28l125.714-72.755
	L594.318,464.672z M577.798,474.251l0.062,53.734l-46.266-26.673l-0.041-52.454l1.063-0.634L577.798,474.251z M376.423,537.133
	l-17.106-9.834l-0.053-52.805l45.357-26.247l17.286,10.078l-7.579,13.123l36.857,55.989l-66.924-3.896L376.423,537.133z
	 M406.509,573.577l0.031,51.953l-1.966,1.133l-45.173-26.009l-0.058-54.25L406.509,573.577z M219.9,342.296l15.542,8.968
	l0.059,51.614l-45.353,26.25l-15.245-8.862l6.129-10.609l-40.355-61.316l73.28,4.253L219.9,342.296z M188.081,304.885l-0.038-52.942
	l2.159-1.239l45.15,26.015l0.064,55.441L188.081,304.885z M161.593,410.229l-0.973,1.7l-33.924-19.735l-46.044,26.332l-0.064-53.113
	l-31.808-18.338l2.28-3.965l69.022,4.033L161.593,410.229z M173.665,438.673l-47.382,27.424l-45.624-26.291v-2.212l45.964-26.312
	L173.665,438.673z M80.722,510.661L80.68,458.91l45.629,26.28l34.429-19.939l1.207,2.116l-41.796,62.879l-69.044,3.726l-2.636-4.638
	L80.722,510.661z M181.356,468.009l-6.293-11.028l15.064-8.718l45.528,26.515l-0.191,52.399l-15.271,8.836l-6.145-10.792
	l-73.313,3.929L181.356,468.009z M206.61,438.716l42.988-24.893c5.661,6.698,16.239,18.2,21.065,20.97
	c5.858,3.401,13.156,4.211,18.78,4.227c-5.625,0.052-12.901,0.913-18.77,4.338c-4.688,2.741-14.873,13.914-20.565,20.687
	L206.61,438.716z M302.95,447.603c2.839,4.604,6.941,9.83,12.354,12.939c4.587,2.652,18.614,5.825,27.418,7.467l0.036,49.766
	l-42.358-24.409c2.96-8.287,7.595-23.075,7.595-28.608C307.994,458.532,305.528,452.35,302.95,447.603z M300.585,385.146
	l42.126-24.383l-0.186,48.904c-8.771,1.696-22.81,4.991-27.376,7.65c-5.076,2.982-9.005,7.829-11.769,12.257
	c2.429-4.63,4.613-10.457,4.613-16.345C307.994,407.794,303.545,393.506,300.585,385.146z M297.406,367.871l-45.454-26.186
	l-0.01-17.615h12.385l32.935-65.589l32.93,65.589h12.662l-0.075,17.552L297.406,367.871z M292.994,430.38
	c-2.838-4.608-6.937-9.827-12.332-12.937c-4.806-2.781-19.97-6.14-28.635-7.708l-0.042-48.946l43.206,24.894
	c-2.972,8.425-7.229,22.229-7.229,27.545C287.96,419.462,290.427,425.623,292.994,430.38z M295.301,492.572l-43.274,25.031
	l0.187-49.045c8.648-1.629,23.809-5.121,28.587-7.899c5.092-2.993,9.015-7.856,11.784-12.279c-2.397,4.64-4.624,10.481-4.624,16.377
	C287.96,470.114,292.313,484.168,295.301,492.572z M251.953,536.751l45.219-26.153l45.607,26.274l0.027,19.891h-15.469
	l-30.075,59.901l-30.086-59.901h-15.288L251.953,536.751z M325.303,443.182c-5.885-3.398-13.184-4.205-18.812-4.221
	c5.629-0.049,12.923-0.904,18.774-4.343c4.683-2.738,14.814-13.837,20.54-20.63l42.338,24.675l-42.509,24.599
	C339.814,456.491,329.916,445.85,325.303,443.182z M514.978,418.983l-46.544-26.794L436.08,410.92l-2.602-4.522l38.278-57.595
	l75.41-4.035l0.958,1.648l-33.191,19.211L514.978,418.983z M514.988,438.066v1.186l-46.871,26.845l-47.033-27.408l47.383-27.406
	L514.988,438.066z M414.053,405.738l7.71,13.469l-17.138,9.92l-45.532-26.531l0.187-51.428l17.775-10.281l7.187,12.615l66.935-3.583
	L414.053,405.738z M433.757,470.881l2.438-4.237l31.846,18.547l46.974-26.881l0.049,52.593l33.684,19.399l-1.585,2.729
	l-75.399-4.397L433.757,470.881z M577.612,403.431l-44.971,25.738l-1.117-0.645l-0.036-53.367l46.34-26.811L577.612,403.431z
	 M532.577,250.752l45.528,26.493l-0.202,51.939l-15.467,8.957l-5.967-10.446l-73.291,3.934l40.627-61.14l-6.304-11.03
	L532.577,250.752z M469.078,213.75l47.025,27.407l-47.375,27.423l-45.632-26.285v-2.238L469.078,213.75z M423.167,314.225
	l-0.042-52.815l45.634,26.264l34.419-19.928l1.21,2.089l-41.807,62.895l-69.049,3.704l-2.168-3.812L423.167,314.225z
	 M406.614,304.678l-47.26,27.327l0.217-55.584l44.959-25.733l2.046,1.181L406.614,304.678z M406.509,178.519l0.031,51.965
	l-1.989,1.137l-45.149-26.009l-0.058-54.278L406.509,178.519z M342.87,215.18l45.065,25.951l-44.873,25.69l-0.15,40.722h-2.519
	l-33.882-67.497l31.038-61.793h5.289L342.87,215.18z M251.953,141.687l45.219-26.158l45.607,26.285l0.027,19.886h-15.469
	l-30.075,59.922l-30.086-59.922h-15.288L251.953,141.687z M251.814,178.253h5.167l31.017,61.793l-33.881,67.497h-2.196
	l-0.032-40.372L206.812,241.2l44.869-25.68L251.814,178.253z M235.384,151.287l-0.197,54.628l-44.964,25.728l-2.217-1.26
	l-0.032-51.667L235.384,151.287z M171.549,314.448l34.014,19.604l-0.84,1.441l-75.385-4.375l-38.017-57.78l2.434-4.194l31.857,18.53
	l45.894-26.264L171.549,314.448z M126.032,213.75l45.458,26.178v2.435l-45.799,26.216l-47.053-27.406L126.032,213.75z
	 M16.818,276.957l45.336-26.237l17.313,10.083l-7.569,13.119l36.847,55.994l-66.923-3.896l-7.377,12.794l-17.568-10.121
	L16.818,276.957z M16.962,403.127l-0.069-55.334l47.17,27.167l0.053,53.044l-1.972,1.142L16.962,403.127z M17.137,473.947
	l44.964-25.738l2.031,1.175l0.048,51.743l-47.234,27.344L17.137,473.947z M16.648,600.118l0.202-52.499l17.287-10.002l7.649,13.406
	l66.938-3.585l-37.086,55.82l7.681,13.465l-17.132,9.929L16.648,600.118z M125.691,663.61l-47.026-27.379l47.367-27.422
	l45.458,26.179v2.413L125.691,663.61z M171.412,564.244l0.063,51.646l-45.48-26.185L93.64,608.442l-2.594-4.519l38.288-57.595
	l75.401-4.051l1.143,2.03L171.412,564.244z M187.974,573.769l47.41-27.429l-0.197,54.606l-44.98,25.732l-2.2-1.254L187.974,573.769z
	 M188.081,699.924l-0.038-52.938l2.148-1.233l45.161,26.019l0.064,55.452L188.081,699.924z M251.889,662.21l-45.081-25.963
	l44.874-25.679l0.133-37.268h5.167l31.017,61.793l-33.881,67.503h-2.196L251.889,662.21z M342.779,736.68l-45.373,26.231
	l-45.454-26.161l-0.01-17.616h12.385l32.935-65.595l32.93,65.595h12.662L342.779,736.68z M342.912,702.597h-2.519l-33.882-67.503
	l31.038-61.793h5.289l0.031,36.922l45.065,25.955l-44.873,25.696L342.912,702.597z M359.354,727.092l0.217-55.613l44.969-25.732
	l2.036,1.158l0.038,52.839L359.354,727.092z M423.035,564.014l-32.288-18.598l2.738-4.764l69.028,4.023l41.526,63.06l-0.997,1.716
	l-33.897-19.746L423.07,616.08L423.035,564.014z M468.729,663.61l-45.632-26.264v-2.214l45.981-26.323l47.025,27.383L468.729,663.61
	z M532.598,626.652l-15.251-8.871l6.114-10.611l-40.355-61.312l73.28,4.278l6.688-11.594l14.805,8.536l0.052,53.342L532.598,626.652
	z"/>
</svg>
