  0
SECTION
  2
HEADER
  9
$ACADVER
  1
AC1018
  9
$ACADMAINTVER
 70
     0
  9
$DWGCODEPAGE
  3
ANSI_932
  9
$INSBASE
 10
0.0
 20
0.0
 30
0.0
  9
$EXTMIN
 10
1.000000000000000E+20
 20
1.000000000000000E+20
 30
1.000000000000000E+20
  9
$EXTMAX
 10
-1.000000000000000E+20
 20
-1.000000000000000E+20
 30
-1.000000000000000E+20
  9
$LIMMIN
 10
0.0
 20
0.0
  9
$LIMMAX
 10
12.0
 20
9.0
  9
$ORTHOMODE
 70
     0
  9
$REGENMODE
 70
     1
  9
$FILLMODE
 70
     1
  9
$QTEXTMODE
 70
     0
  9
$MIRRTEXT
 70
     1
  9
$LTSCALE
 40
1.0
  9
$ATTMODE
 70
     1
  9
$TEXTSIZE
 40
0.2
  9
$TRACEWID
 40
0.05
  9
$TEXTSTYLE
  7
Standard
  9
$CLAYER
  8
0
  9
$CELTYPE
  6
ByLayer
  9
$CECOLOR
 62
   256
  9
$CELTSCALE
 40
1.0
  9
$DISPSILH
 70
     0
  9
$DIMSCALE
 40
1.0
  9
$DIMASZ
 40
0.18
  9
$DIMEXO
 40
0.0625
  9
$DIMDLI
 40
0.38
  9
$DIMRND
 40
0.0
  9
$DIMDLE
 40
0.0
  9
$DIMEXE
 40
0.18
  9
$DIMTP
 40
0.0
  9
$DIMTM
 40
0.0
  9
$DIMTXT
 40
0.18
  9
$DIMCEN
 40
0.09
  9
$DIMTSZ
 40
0.0
  9
$DIMTOL
 70
     0
  9
$DIMLIM
 70
     0
  9
$DIMTIH
 70
     1
  9
$DIMTOH
 70
     1
  9
$DIMSE1
 70
     0
  9
$DIMSE2
 70
     0
  9
$DIMTAD
 70
     0
  9
$DIMZIN
 70
     0
  9
$DIMBLK
  1

  9
$DIMASO
 70
     1
  9
$DIMSHO
 70
     1
  9
$DIMPOST
  1

  9
$DIMAPOST
  1

  9
$DIMALT
 70
     0
  9
$DIMALTD
 70
     2
  9
$DIMALTF
 40
25.4
  9
$DIMLFAC
 40
1.0
  9
$DIMTOFL
 70
     0
  9
$DIMTVP
 40
0.0
  9
$DIMTIX
 70
     0
  9
$DIMSOXD
 70
     0
  9
$DIMSAH
 70
     0
  9
$DIMBLK1
  1

  9
$DIMBLK2
  1

  9
$DIMSTYLE
  2
Standard
  9
$DIMCLRD
 70
     0
  9
$DIMCLRE
 70
     0
  9
$DIMCLRT
 70
     0
  9
$DIMTFAC
 40
1.0
  9
$DIMGAP
 40
0.09
  9
$DIMJUST
 70
     0
  9
$DIMSD1
 70
     0
  9
$DIMSD2
 70
     0
  9
$DIMTOLJ
 70
     1
  9
$DIMTZIN
 70
     0
  9
$DIMALTZ
 70
     0
  9
$DIMALTTZ
 70
     0
  9
$DIMUPT
 70
     0
  9
$DIMDEC
 70
     4
  9
$DIMTDEC
 70
     4
  9
$DIMALTU
 70
     2
  9
$DIMALTTD
 70
     2
  9
$DIMTXSTY
  7
Standard
  9
$DIMAUNIT
 70
     0
  9
$DIMADEC
 70
     0
  9
$DIMALTRND
 40
0.0
  9
$DIMAZIN
 70
     0
  9
$DIMDSEP
 70
    46
  9
$DIMATFIT
 70
     3
  9
$DIMFRAC
 70
     0
  9
$DIMLDRBLK
  1

  9
$DIMLUNIT
 70
     2
  9
$DIMLWD
 70
    -2
  9
$DIMLWE
 70
    -2
  9
$DIMTMOVE
 70
     0
  9
$LUNITS
 70
     2
  9
$LUPREC
 70
     4
  9
$SKETCHINC
 40
0.1
  9
$FILLETRAD
 40
0.5
  9
$AUNITS
 70
     0
  9
$AUPREC
 70
     0
  9
$MENU
  1
.
  9
$ELEVATION
 40
0.0
  9
$PELEVATION
 40
0.0
  9
$THICKNESS
 40
0.0
  9
$LIMCHECK
 70
     0
  9
$CHAMFERA
 40
0.5
  9
$CHAMFERB
 40
0.5
  9
$CHAMFERC
 40
1.0
  9
$CHAMFERD
 40
0.0
  9
$SKPOLY
 70
     0
  9
$TDCREATE
 40
2460559.680578704
  9
$TDUCREATE
 40
2460559.597245371
  9
$TDUPDATE
 40
2460559.680578715
  9
$TDUUPDATE
 40
2460559.597245382
  9
$TDINDWG
 40
0.0000000116
  9
$TDUSRTIMER
 40
0.0000000116
  9
$USRTIMER
 70
     1
  9
$ANGBASE
 50
0.0
  9
$ANGDIR
 70
     0
  9
$PDMODE
 70
     0
  9
$PDSIZE
 40
0.0
  9
$PLINEWID
 40
0.0
  9
$SPLFRAME
 70
     0
  9
$SPLINETYPE
 70
     6
  9
$SPLINESEGS
 70
     8
  9
$HANDSEED
  5
5A
  9
$SURFTAB1
 70
     6
  9
$SURFTAB2
 70
     6
  9
$SURFTYPE
 70
     6
  9
$SURFU
 70
     6
  9
$SURFV
 70
     6
  9
$UCSBASE
  2

  9
$UCSNAME
  2

  9
$UCSORG
 10
0.0
 20
0.0
 30
0.0
  9
$UCSXDIR
 10
1.0
 20
0.0
 30
0.0
  9
$UCSYDIR
 10
0.0
 20
1.0
 30
0.0
  9
$UCSORTHOREF
  2

  9
$UCSORTHOVIEW
 70
     0
  9
$UCSORGTOP
 10
0.0
 20
0.0
 30
0.0
  9
$UCSORGBOTTOM
 10
0.0
 20
0.0
 30
0.0
  9
$UCSORGLEFT
 10
0.0
 20
0.0
 30
0.0
  9
$UCSORGRIGHT
 10
0.0
 20
0.0
 30
0.0
  9
$UCSORGFRONT
 10
0.0
 20
0.0
 30
0.0
  9
$UCSORGBACK
 10
0.0
 20
0.0
 30
0.0
  9
$PUCSBASE
  2

  9
$PUCSNAME
  2

  9
$PUCSORG
 10
0.0
 20
0.0
 30
0.0
  9
$PUCSXDIR
 10
1.0
 20
0.0
 30
0.0
  9
$PUCSYDIR
 10
0.0
 20
1.0
 30
0.0
  9
$PUCSORTHOREF
  2

  9
$PUCSORTHOVIEW
 70
     0
  9
$PUCSORGTOP
 10
0.0
 20
0.0
 30
0.0
  9
$PUCSORGBOTTOM
 10
0.0
 20
0.0
 30
0.0
  9
$PUCSORGLEFT
 10
0.0
 20
0.0
 30
0.0
  9
$PUCSORGRIGHT
 10
0.0
 20
0.0
 30
0.0
  9
$PUCSORGFRONT
 10
0.0
 20
0.0
 30
0.0
  9
$PUCSORGBACK
 10
0.0
 20
0.0
 30
0.0
  9
$USERI1
 70
     0
  9
$USERI2
 70
     0
  9
$USERI3
 70
     0
  9
$USERI4
 70
     0
  9
$USERI5
 70
     0
  9
$USERR1
 40
0.0
  9
$USERR2
 40
0.0
  9
$USERR3
 40
0.0
  9
$USERR4
 40
0.0
  9
$USERR5
 40
0.0
  9
$WORLDVIEW
 70
     1
  9
$SHADEDGE
 70
     3
  9
$SHADEDIF
 70
    70
  9
$TILEMODE
 70
     1
  9
$MAXACTVP
 70
    64
  9
$PINSBASE
 10
0.0
 20
0.0
 30
0.0
  9
$PLIMCHECK
 70
     0
  9
$PEXTMIN
 10
1.000000000000000E+20
 20
1.000000000000000E+20
 30
1.000000000000000E+20
  9
$PEXTMAX
 10
-1.000000000000000E+20
 20
-1.000000000000000E+20
 30
-1.000000000000000E+20
  9
$PLIMMIN
 10
0.0
 20
0.0
  9
$PLIMMAX
 10
12.0
 20
9.0
  9
$UNITMODE
 70
     0
  9
$VISRETAIN
 70
     1
  9
$PLINEGEN
 70
     0
  9
$PSLTSCALE
 70
     1
  9
$TREEDEPTH
 70
  3020
  9
$CMLSTYLE
  2
Standard
  9
$CMLJUST
 70
     0
  9
$CMLSCALE
 40
1.0
  9
$PROXYGRAPHICS
 70
     1
  9
$MEASUREMENT
 70
     0
  9
$CELWEIGHT
370
    -1
  9
$ENDCAPS
280
     0
  9
$JOINSTYLE
280
     0
  9
$LWDISPLAY
290
     1
  9
$INSUNITS
 70
     1
  9
$HYPERLINKBASE
  1

  9
$STYLESHEET
  1

  9
$XEDIT
290
     1
  9
$CEPSNTYPE
380
     0
  9
$PSTYLEMODE
290
     1
  9
$FINGERPRINTGUID
  2
{F88398D1-EE17-1774-D2F1-3474AADA6C4A}
  9
$VERSIONGUID
  2
{FAEB1C32-E019-11D5-929B-00C0DF256EC4}
  9
$EXTNAMES
290
     1
  9
$PSVPSCALE
 40
0.0
  9
$OLESTARTUP
290
     0
  9
$SORTENTS
280
   127
  9
$INDEXCTL
280
     0
  9
$HIDETEXT
280
     1
  9
$XCLIPFRAME
290
     0
  9
$HALOGAP
280
     0
  9
$OBSCOLOR
 70
   257
  9
$OBSLTYPE
280
     0
  9
$INTERSECTIONDISPLAY
280
     0
  9
$INTERSECTIONCOLOR
 70
   257
  9
$DIMASSOC
280
     2
  9
$PROJECTNAME
  1

  0
ENDSEC
  0
SECTION
  2
CLASSES
  0
CLASS
  1
ACDBDICTIONARYWDFLT
  2
AcDbDictionaryWithDefault
  3
ObjectDBX Classes
 90
        0
 91
        3
280
     0
281
     0
  0
CLASS
  1
VISUALSTYLE
  2
AcDbVisualStyle
  3
ObjectDBX Classes
 90
     4095
 91
        3
280
     0
281
     0
  0
ENDSEC
  0
SECTION
  2
TABLES
  0
TABLE
  2
VPORT
  5
8
330
0
100
AcDbSymbolTable
 70
     1
  0
VPORT
  5
29
330
8
100
AcDbSymbolTableRecord
100
AcDbViewportTableRecord
  2
*Active
 70
     0
 10
0.0
 20
0.0
 11
1.0
 21
1.0
 12
0.0
 22
0.0
 13
0.0
 23
0.0
 14
0.5
 24
0.5
 15
0.5
 25
0.5
 16
0.0
 26
0.0
 36
1.0
 17
4.133890787760416
 27
-5.846455891927083
 37
0.0
 40
11.69291178385417
 41
0.7070763662937378
 42
50.0
 43
0.0
 44
0.0
 50
0.0
 51
0.0
 71
     0
 72
   100
 73
     1
 74
     3
 75
     0
 76
     0
 77
     0
 78
     0
281
     0
 65
     1
110
0.0
120
0.0
130
0.0
111
1.0
121
0.0
131
0.0
112
0.0
122
1.0
132
0.0
 79
     0
146
0.0
  0
ENDTAB
  0
TABLE
  2
LTYPE
  5
5
330
0
100
AcDbSymbolTable
 70
     1
  0
LTYPE
  5
14
330
5
100
AcDbSymbolTableRecord
100
AcDbLinetypeTableRecord
  2
ByBlock
 70
     0
  3

 72
    65
 73
     0
 40
0.0
  0
LTYPE
  5
15
330
5
100
AcDbSymbolTableRecord
100
AcDbLinetypeTableRecord
  2
ByLayer
 70
     0
  3

 72
    65
 73
     0
 40
0.0
  0
LTYPE
  5
16
330
5
100
AcDbSymbolTableRecord
100
AcDbLinetypeTableRecord
  2
Continuous
 70
     0
  3
Solid line
 72
    65
 73
     0
 40
0.0
  0
ENDTAB
  0
TABLE
  2
LAYER
  5
2
330
0
100
AcDbSymbolTable
 70
     2
  0
LAYER
  5
10
330
2
100
AcDbSymbolTableRecord
100
AcDbLayerTableRecord
  2
0
 70
     0
 62
     7
  6
Continuous
370
    -3
390
F
  0
LAYER
  5
3B
330
2
100
AcDbSymbolTableRecord
100
AcDbLayerTableRecord
  2
Layer 1
 70
     0
 62
     7
  6
Continuous
370
    -3
390
F
  0
ENDTAB
  0
TABLE
  2
STYLE
  5
3
330
0
100
AcDbSymbolTable
 70
     1
  0
STYLE
  5
11
330
3
100
AcDbSymbolTableRecord
100
AcDbTextStyleTableRecord
  2
Standard
 70
     0
 40
0.0
 41
1.0
 50
0.0
 71
     0
 42
0.2
  3
txt
  4

  0
ENDTAB
  0
TABLE
  2
VIEW
  5
6
330
0
100
AcDbSymbolTable
 70
     0
  0
ENDTAB
  0
TABLE
  2
UCS
  5
7
330
0
100
AcDbSymbolTable
 70
     0
  0
ENDTAB
  0
TABLE
  2
APPID
  5
9
330
0
100
AcDbSymbolTable
 70
     1
  0
APPID
  5
12
330
9
100
AcDbSymbolTableRecord
100
AcDbRegAppTableRecord
  2
ACAD
 70
     0
  0
ENDTAB
  0
TABLE
  2
DIMSTYLE
  5
A
330
0
100
AcDbSymbolTable
 70
     1
100
AcDbDimStyleTable
  0
DIMSTYLE
105
27
330
A
100
AcDbSymbolTableRecord
100
AcDbDimStyleTableRecord
  2
Standard
 70
     0
340
11
  0
ENDTAB
  0
TABLE
  2
BLOCK_RECORD
  5
1
330
0
100
AcDbSymbolTable
 70
     1
  0
BLOCK_RECORD
  5
1F
330
1
100
AcDbSymbolTableRecord
100
AcDbBlockTableRecord
  2
*Model_Space
340
22
  0
BLOCK_RECORD
  5
1B
330
1
100
AcDbSymbolTableRecord
100
AcDbBlockTableRecord
  2
*Paper_Space
340
1E
  0
BLOCK_RECORD
  5
23
330
1
100
AcDbSymbolTableRecord
100
AcDbBlockTableRecord
  2
*Paper_Space0
340
26
  0
ENDTAB
  0
ENDSEC
  0
SECTION
  2
BLOCKS
  0
BLOCK
  5
20
330
1F
100
AcDbEntity
  8
0
100
AcDbBlockBegin
  2
*Model_Space
 70
     0
 71
     0
 10
0.0
 20
0.0
 30
0.0
  3
*Model_Space
  1

  0
ENDBLK
  5
21
330
1F
100
AcDbEntity
  8
0
100
AcDbBlockEnd
  0
BLOCK
  5
1C
330
1B
100
AcDbEntity
 67
     1
  8
0
100
AcDbBlockBegin
  2
*Paper_Space
 70
     0
 71
     0
 10
0.0
 20
0.0
 30
0.0
  3
*Paper_Space
  1

  0
ENDBLK
  5
1D
330
1B
100
AcDbEntity
 67
     1
  8
0
100
AcDbBlockEnd
  0
BLOCK
  5
24
330
23
100
AcDbEntity
  8
0
100
AcDbBlockBegin
  2
*Paper_Space0
 70
     0
 71
     0
 10
0.0
 20
0.0
 30
0.0
  3
*Paper_Space0
  1

  0
ENDBLK
  5
25
330
23
100
AcDbEntity
  8
0
100
AcDbBlockEnd
  0
ENDSEC
  0
SECTION
  2
ENTITIES
  0
SPLINE
  5
3C
330
1F
100
AcDbEntity
  8
Layer 1
370
     0
100
AcDbSpline
210
0.0
220
0.0
230
1.0
 70
    11
 71
     3
 72
    50
 73
    46
 74
     0
 42
0.0000000001
 43
0.0000000001
 40
0.0
 40
0.0
 40
0.0
 40
0.0
 40
1.0
 40
1.0
 40
1.0
 40
2.0
 40
2.0
 40
2.0
 40
3.0
 40
3.0
 40
3.0
 40
4.0
 40
4.0
 40
4.0
 40
5.0
 40
5.0
 40
5.0
 40
6.0
 40
6.0
 40
6.0
 40
7.0
 40
7.0
 40
7.0
 40
8.0
 40
8.0
 40
8.0
 40
9.0
 40
9.0
 40
9.0
 40
10.0
 40
10.0
 40
10.0
 40
11.0
 40
11.0
 40
11.0
 40
12.0
 40
12.0
 40
12.0
 40
13.0
 40
13.0
 40
13.0
 40
14.0
 40
14.0
 40
14.0
 40
15.0
 40
15.0
 40
15.0
 40
15.0
 10
8.262559678819445
 20
-5.198337131076388
 30
0.0
 10
8.262559678819445
 20
-4.057576497395833
 30
0.0
 10
7.431694878472221
 20
-3.085591634114583
 30
0.0
 10
6.314860026041666
 20
-2.899678548177083
 30
0.0
 10
5.953884548611111
 20
-2.035068088107639
 30
0.0
 10
5.101630316840278
 20
-1.460550944010417
 30
0.0
 10
4.164605034722222
 20
-1.460550944010417
 30
0.0
 10
4.000162760416666
 20
-1.460550944010417
 30
0.0
 10
3.834486219618055
 20
-1.47796630859375
 30
0.0
 10
3.672648111979167
 20
-1.512864854600694
 30
0.0
 10
3.063693576388889
 20
-1.644192165798611
 30
0.0
 10
2.54168701171875
 20
-2.004421657986111
 30
0.0
 10
2.203884548611111
 20
-2.527316623263889
 30
0.0
 10
2.131334092881944
 20
-2.639363606770833
 30
0.0
 10
2.067830403645833
 20
-2.760403103298611
 30
0.0
 10
2.013929578993055
 20
-2.888359917534722
 30
0.0
 10
0.8592597113715277
 20
-3.04547119140625
 30
0.0
 10
0.0
 20
-4.021857367621528
 30
0.0
 10
0.0
 20
-5.198337131076388
 30
0.0
 10
0.0
 20
-5.81689453125
 30
0.0
 10
0.2515326605902778
 20
-6.415011935763888
 30
0.0
 10
0.6931694878472222
 20
-6.852511935763888
 30
0.0
 10
0.6745130750868055
 20
-6.976996527777778
 30
0.0
 10
0.6661444769965278
 20
-7.103651258680555
 30
0.0
 10
0.6675143771701388
 20
-7.229899088541666
 30
0.0
 10
0.673000759548611
 20
-8.176025390625
 30
0.0
 10
1.240254720052083
 20
-9.018975151909721
 30
0.0
 10
2.113783094618055
 20
-9.377766927083332
 30
0.0
 10
2.780605740017361
 20
-9.651312934027777
 30
0.0
 10
3.550855848524305
 20
-9.59658474392361
 30
0.0
 10
4.167900933159722
 20
-9.239298502604166
 30
0.0
 10
4.260891384548611
 20
-9.293687608506945
 30
0.0
 10
4.352783203125
 20
-9.339491102430555
 30
0.0
 10
4.445909288194444
 20
-9.377766927083332
 30
0.0
 10
4.729261610243055
 20
-9.494059244791666
 30
0.0
 10
5.027289496527778
 20
-9.553046332465277
 30
0.0
 10
5.331081814236111
 20
-9.553046332465277
 30
0.0
 10
6.281534830729166
 20
-9.553046332465277
 30
0.0
 10
7.128865559895833
 20
-8.985093858506945
 30
0.0
 10
7.489569769965278
 20
-8.105889214409721
 30
0.0
 10
7.660061306423611
 20
-7.690728081597221
 30
0.0
 10
7.7064208984375
 20
-7.2406005859375
 30
0.0
 10
7.624254014756944
 20
-6.798828125
 30
0.0
 10
8.036390516493055
 20
-6.363661024305555
 30
0.0
 10
8.262559678819445
 20
-5.798441569010416
 30
0.0
 10
8.262559678819445
 20
-5.198337131076388
 30
0.0
  0
SPLINE
  5
3D
330
1F
100
AcDbEntity
  8
Layer 1
370
     0
100
AcDbSpline
210
0.0
220
0.0
230
1.0
 70
    11
 71
     3
 72
    26
 73
    22
 74
     0
 42
0.0000000001
 43
0.0000000001
 40
0.0
 40
0.0
 40
0.0
 40
0.0
 40
1.0
 40
1.0
 40
1.0
 40
2.0
 40
2.0
 40
2.0
 40
3.0
 40
3.0
 40
3.0
 40
4.0
 40
4.0
 40
4.0
 40
5.0
 40
5.0
 40
5.0
 40
6.0
 40
6.0
 40
6.0
 40
7.0
 40
7.0
 40
7.0
 40
7.0
 10
6.323106553819444
 20
-3.546271430121528
 30
0.0
 10
6.830417209201388
 20
-3.666897243923611
 30
0.0
 10
7.250244140625
 20
-4.015604654947916
 30
0.0
 10
7.468451605902778
 20
-4.477525499131944
 30
0.0
 10
7.2891845703125
 20
-4.453253851996528
 30
0.0
 10
6.984849717881944
 20
-4.463399251302083
 30
0.0
 10
6.817938910590278
 20
-4.760348849826388
 30
0.0
 10
6.607001410590278
 20
-5.137505425347222
 30
0.0
 10
6.826714409722221
 20
-5.457756890190972
 30
0.0
 10
6.932183159722221
 20
-5.751064724392361
 30
0.0
 10
6.723442925347221
 20
-5.522359212239583
 30
0.0
 10
6.463541666666666
 20
-5.333902994791666
 30
0.0
 10
6.157823350694444
 20
-5.208767361111111
 30
0.0
 10
6.068535698784722
 20
-5.1719970703125
 30
0.0
 10
5.976657443576388
 20
-5.1436767578125
 30
0.0
 10
5.884345160590278
 20
-5.11920166015625
 30
0.0
 10
5.920830620659722
 20
-5.072028266059028
 30
0.0
 10
5.956217447916666
 20
-5.023946126302083
 30
0.0
 10
5.9891357421875
 20
-4.973341200086805
 30
0.0
 10
6.265774197048611
 20
-4.545498318142361
 30
0.0
 10
6.381117078993055
 20
-4.045783148871528
 30
0.0
 10
6.323106553819444
 20
-3.546271430121528
 30
0.0
  0
POLYLINE
  5
3E
330
1F
100
AcDbEntity
  8
Layer 1
370
     0
100
AcDb2dPolyline
 66
     1
 10
0.0
 20
0.0
 30
0.0
  0
VERTEX
  5
3F
330
3E
100
AcDbEntity
  8
Layer 1
370
     0
100
AcDbVertex
100
AcDb2dVertex
 10
4.704020182291666
 20
-6.477281358506944
 30
0.0
  0
VERTEX
  5
40
330
3E
100
AcDbEntity
  8
Layer 1
370
     0
100
AcDbVertex
100
AcDb2dVertex
 10
4.150065104166666
 20
-6.151068793402778
 30
0.0
  0
VERTEX
  5
41
330
3E
100
AcDbEntity
  8
Layer 1
370
     0
100
AcDbVertex
100
AcDb2dVertex
 10
3.596523708767361
 20
-6.467339409722221
 30
0.0
  0
VERTEX
  5
42
330
3E
100
AcDbEntity
  8
Layer 1
370
     0
100
AcDbVertex
100
AcDb2dVertex
 10
3.715155707465278
 20
-5.8447265625
 30
0.0
  0
VERTEX
  5
43
330
3E
100
AcDbEntity
  8
Layer 1
370
     0
100
AcDbVertex
100
AcDb2dVertex
 10
3.3004150390625
 20
-5.389940049913194
 30
0.0
  0
VERTEX
  5
44
330
3E
100
AcDbEntity
  8
Layer 1
370
     0
100
AcDbVertex
100
AcDb2dVertex
 10
3.84381103515625
 20
-5.350443522135416
 30
0.0
  0
VERTEX
  5
45
330
3E
100
AcDbEntity
  8
Layer 1
370
     0
100
AcDbVertex
100
AcDb2dVertex
 10
4.179836697048611
 20
-4.777289496527778
 30
0.0
  0
VERTEX
  5
46
330
3E
100
AcDbEntity
  8
Layer 1
370
     0
100
AcDbVertex
100
AcDb2dVertex
 10
4.436713324652778
 20
-5.320814344618055
 30
0.0
  0
VERTEX
  5
47
330
3E
100
AcDbEntity
  8
Layer 1
370
     0
100
AcDbVertex
100
AcDb2dVertex
 10
5.010145399305555
 20
-5.419759114583333
 30
0.0
  0
VERTEX
  5
48
330
3E
100
AcDbEntity
  8
Layer 1
370
     0
100
AcDbVertex
100
AcDb2dVertex
 10
4.614732530381944
 20
-5.864407009548611
 30
0.0
  0
VERTEX
  5
49
330
3E
100
AcDbEntity
  8
Layer 1
370
     0
100
AcDbVertex
100
AcDb2dVertex
 10
4.704020182291666
 20
-6.477281358506944
 30
0.0
  0
SEQEND
  5
4A
330
3E
100
AcDbEntity
  8
Layer 1
370
     0
  0
SPLINE
  5
4B
330
1F
100
AcDbEntity
  8
Layer 1
370
     0
100
AcDbSpline
210
0.0
220
0.0
230
1.0
 70
    11
 71
     3
 72
    26
 73
    22
 74
     0
 42
0.0000000001
 43
0.0000000001
 40
0.0
 40
0.0
 40
0.0
 40
0.0
 40
1.0
 40
1.0
 40
1.0
 40
2.0
 40
2.0
 40
2.0
 40
3.0
 40
3.0
 40
3.0
 40
4.0
 40
4.0
 40
4.0
 40
5.0
 40
5.0
 40
5.0
 40
6.0
 40
6.0
 40
6.0
 40
7.0
 40
7.0
 40
7.0
 40
7.0
 10
3.320990668402778
 20
-6.394097222222221
 30
0.0
 10
3.288621690538194
 20
-6.4730224609375
 30
0.0
 10
3.262017144097222
 20
-6.553195529513888
 30
0.0
 10
3.239657931857639
 20
-6.633490668402778
 30
0.0
 10
2.97686767578125
 20
-6.800130208333333
 30
0.0
 10
2.665947808159722
 20
-6.898261176215278
 30
0.0
 10
2.332668728298611
 20
-6.898261176215278
 30
0.0
 10
2.035325792100694
 20
-6.898261176215278
 30
0.0
 10
1.755947536892361
 20
-6.820773654513888
 30
0.0
 10
1.512783474392361
 20
-6.685818142361111
 30
0.0
 10
1.521694607204861
 20
-6.492078993055555
 30
0.0
 10
1.596991644965278
 20
-6.28759765625
 30
0.0
 10
1.74017333984375
 20
-6.082967122395833
 30
0.0
 10
2.02545166015625
 20
-5.766215006510416
 30
0.0
 10
2.420179578993055
 20
-5.562547471788194
 30
0.0
 10
2.856865776909722
 20
-5.526136610243055
 30
0.0
 10
3.079874674479167
 20
-5.694620768229166
 30
0.0
 10
3.334425184461805
 20
-5.822231716579861
 30
0.0
 10
3.608595106336805
 20
-5.895480685763888
 30
0.0
 10
3.493252224392361
 20
-6.046006944444444
 30
0.0
 10
3.395053439670139
 20
-6.212510850694444
 30
0.0
 10
3.320990668402778
 20
-6.394097222222221
 30
0.0
  0
SPLINE
  5
4C
330
1F
100
AcDbEntity
  8
Layer 1
370
     0
100
AcDbSpline
210
0.0
220
0.0
230
1.0
 70
    11
 71
     3
 72
    26
 73
    22
 74
     0
 42
0.0000000001
 43
0.0000000001
 40
0.0
 40
0.0
 40
0.0
 40
0.0
 40
1.0
 40
1.0
 40
1.0
 40
2.0
 40
2.0
 40
2.0
 40
3.0
 40
3.0
 40
3.0
 40
4.0
 40
4.0
 40
4.0
 40
5.0
 40
5.0
 40
5.0
 40
6.0
 40
6.0
 40
6.0
 40
7.0
 40
7.0
 40
7.0
 40
7.0
 10
4.386515299479166
 20
-4.490776909722222
 30
0.0
 10
4.629964192708333
 20
-3.961574978298611
 30
0.0
 10
5.138237847222222
 20
-3.583102756076389
 30
0.0
 10
5.740193684895833
 20
-3.515353732638889
 30
0.0
 10
5.792724609375
 20
-3.645161946614583
 30
0.0
 10
5.825385199652778
 20
-3.793897840711805
 30
0.0
 10
5.831407335069444
 20
-3.96295166015625
 30
0.0
 10
5.842393663194444
 20
-4.278252495659722
 30
0.0
 10
5.676703559027778
 20
-4.587599012586805
 30
0.0
 10
5.528862847222222
 20
-4.798468695746528
 30
0.0
 10
5.462754991319444
 20
-4.887959798177083
 30
0.0
 10
5.390733506944444
 20
-4.971964518229166
 30
0.0
 10
5.310099283854166
 20
-5.046108669704861
 30
0.0
 10
5.028252495659722
 20
-5.049051920572916
 30
0.0
 10
4.756700303819444
 20
-5.105828179253472
 30
0.0
 10
4.506537543402778
 20
-5.208285861545138
 30
0.0
 10
4.506537543402778
 20
-5.204915364583333
 30
0.0
 10
4.507080078125
 20
-5.201626247829861
 30
0.0
 10
4.507080078125
 20
-5.198337131076388
 30
0.0
 10
4.507080078125
 20
-4.950371636284722
 30
0.0
 10
4.463324652777778
 20
-4.71295166015625
 30
0.0
 10
4.386515299479166
 20
-4.490776909722222
 30
0.0
  0
SPLINE
  5
4D
330
1F
100
AcDbEntity
  8
Layer 1
370
     0
100
AcDbSpline
210
0.0
220
0.0
230
1.0
 70
    11
 71
     3
 72
    26
 73
    22
 74
     0
 42
0.0000000001
 43
0.0000000001
 40
0.0
 40
0.0
 40
0.0
 40
0.0
 40
1.0
 40
1.0
 40
1.0
 40
2.0
 40
2.0
 40
2.0
 40
3.0
 40
3.0
 40
3.0
 40
4.0
 40
4.0
 40
4.0
 40
5.0
 40
5.0
 40
5.0
 40
6.0
 40
6.0
 40
6.0
 40
7.0
 40
7.0
 40
7.0
 40
7.0
 10
5.473036024305555
 20
-5.526258680555555
 30
0.0
 10
5.645968967013888
 20
-5.541015625
 30
0.0
 10
5.815497504340278
 20
-5.580796983506944
 30
0.0
 10
5.977756076388888
 20
-5.647576226128472
 30
0.0
 10
6.376858181423611
 20
-5.811550564236111
 30
0.0
 10
6.677897135416666
 20
-6.111219618055555
 30
0.0
 10
6.854560004340278
 20
-6.471245659722221
 30
0.0
 10
6.754163953993055
 20
-6.623141818576388
 30
0.0
 10
6.598090277777778
 20
-6.746012369791666
 30
0.0
 10
6.391262478298611
 20
-6.832967122395833
 30
0.0
 10
6.244235568576388
 20
-6.874742296006944
 30
0.0
 10
6.090074327256944
 20
-6.898261176215278
 30
0.0
 10
5.929890950520833
 20
-6.898261176215278
 30
0.0
 10
5.632541232638888
 20
-6.898261176215278
 30
0.0
 10
5.352742513020833
 20
-6.820773654513888
 30
0.0
 10
5.108629014756944
 20
-6.685818142361111
 30
0.0
 10
5.038262261284722
 20
-6.397935655381944
 30
0.0
 10
4.909884982638888
 20
-6.127061631944444
 30
0.0
 10
4.731187608506944
 20
-5.889458550347222
 30
0.0
 10
5.002875434027778
 20
-5.816202799479166
 30
0.0
 10
5.253865559895833
 20
-5.692776150173611
 30
0.0
 10
5.473036024305555
 20
-5.526258680555555
 30
0.0
  0
SPLINE
  5
4E
330
1F
100
AcDbEntity
  8
Layer 1
370
     0
100
AcDbSpline
210
0.0
220
0.0
230
1.0
 70
    11
 71
     3
 72
    17
 73
    13
 74
     0
 42
0.0000000001
 43
0.0000000001
 40
0.0
 40
0.0
 40
0.0
 40
0.0
 40
1.0
 40
1.0
 40
1.0
 40
2.0
 40
2.0
 40
2.0
 40
3.0
 40
3.0
 40
3.0
 40
4.0
 40
4.0
 40
4.0
 40
4.0
 10
4.311089409722222
 20
-1.789089626736111
 30
0.0
 10
5.085028754340278
 20
-1.843404134114583
 30
0.0
 10
5.778184678819444
 20
-2.342976888020833
 30
0.0
 10
6.057291666666666
 20
-3.111992730034722
 30
0.0
 10
6.057291666666666
 20
-3.111992730034722
 30
0.0
 10
5.593451605902778
 20
-2.305121527777778
 30
0.0
 10
4.728162977430555
 20
-2.433159722222222
 30
0.0
 10
4.441379123263888
 20
-2.475335015190972
 30
0.0
 10
4.2174072265625
 20
-2.473551432291667
 30
0.0
 10
4.1241455078125
 20
-2.288601345486111
 30
0.0
 10
3.989189995659722
 20
-2.023898654513889
 30
0.0
 10
4.223442925347222
 20
-1.78271484375
 30
0.0
 10
4.311089409722222
 20
-1.789089626736111
 30
0.0
  0
SPLINE
  5
4F
330
1F
100
AcDbEntity
  8
Layer 1
370
     0
100
AcDbSpline
210
0.0
220
0.0
230
1.0
 70
    11
 71
     3
 72
    29
 73
    25
 74
     0
 42
0.0000000001
 43
0.0000000001
 40
0.0
 40
0.0
 40
0.0
 40
0.0
 40
1.0
 40
1.0
 40
1.0
 40
2.0
 40
2.0
 40
2.0
 40
3.0
 40
3.0
 40
3.0
 40
4.0
 40
4.0
 40
4.0
 40
5.0
 40
5.0
 40
5.0
 40
6.0
 40
6.0
 40
6.0
 40
7.0
 40
7.0
 40
7.0
 40
8.0
 40
8.0
 40
8.0
 40
8.0
 10
2.735209147135417
 20
-2.870741102430555
 30
0.0
 10
2.981397840711805
 20
-2.48931884765625
 30
0.0
 10
3.361721462673611
 20
-2.226813422309028
 30
0.0
 10
3.8055419921875
 20
-2.131361219618055
 30
0.0
 10
3.813639322916667
 20
-2.129713270399305
 30
0.0
 10
3.822001139322917
 20
-2.129163953993055
 30
0.0
 10
3.830234103732639
 20
-2.127516004774305
 30
0.0
 10
3.757676866319444
 20
-2.287089029947917
 30
0.0
 10
3.665513780381944
 20
-2.604526095920139
 30
0.0
 10
3.923631456163194
 20
-2.856133355034722
 30
0.0
 10
4.299302842881945
 20
-3.221577962239583
 30
0.0
 10
4.758748372395833
 20
-2.952480740017361
 30
0.0
 10
5.0999755859375
 20
-3.004462348090278
 30
0.0
 10
5.204901801215278
 20
-3.020304361979167
 30
0.0
 10
5.297892252604166
 20
-3.053012424045139
 30
0.0
 10
5.381279839409722
 20
-3.098130967881944
 30
0.0
 10
4.865858289930555
 20
-3.232821994357639
 30
0.0
 10
4.423272026909722
 20
-3.549357096354167
 30
0.0
 10
4.131279839409722
 20
-3.978583441840278
 30
0.0
 10
3.794019911024305
 20
-3.482706705729167
 30
0.0
 10
3.256388346354167
 20
-3.135030110677083
 30
0.0
 10
2.636325412326389
 20
-3.047797309027778
 30
0.0
 10
2.665676540798611
 20
-2.987521701388889
 30
0.0
 10
2.698045518663194
 20
-2.928066677517361
 30
0.0
 10
2.735209147135417
 20
-2.870741102430555
 30
0.0
  0
SPLINE
  5
50
330
1F
100
AcDbEntity
  8
Layer 1
370
     0
100
AcDbSpline
210
0.0
220
0.0
230
1.0
 70
    11
 71
     3
 72
    26
 73
    22
 74
     0
 42
0.0000000001
 43
0.0000000001
 40
0.0
 40
0.0
 40
0.0
 40
0.0
 40
1.0
 40
1.0
 40
1.0
 40
2.0
 40
2.0
 40
2.0
 40
3.0
 40
3.0
 40
3.0
 40
4.0
 40
4.0
 40
4.0
 40
5.0
 40
5.0
 40
5.0
 40
6.0
 40
6.0
 40
6.0
 40
7.0
 40
7.0
 40
7.0
 40
7.0
 10
2.481757269965278
 20
-3.550252278645833
 30
0.0
 10
2.569810655381944
 20
-3.542093912760417
 30
0.0
 10
2.66265869140625
 20
-3.542982313368055
 30
0.0
 10
2.761135525173611
 20
-3.556769476996528
 30
0.0
 10
3.257073296440972
 20
-3.68658447265625
 30
0.0
 10
3.665513780381944
 20
-4.033162434895833
 30
0.0
 10
3.876173231336805
 20
-4.490776909722222
 30
0.0
 10
3.802931043836805
 20
-4.702806260850694
 30
0.0
 10
3.760965983072917
 20
-4.929036458333333
 30
0.0
 10
3.757676866319444
 20
-5.164666069878472
 30
0.0
 10
3.513821072048611
 20
-5.073872884114583
 30
0.0
 10
3.259548611111111
 20
-5.025465223524305
 30
0.0
 10
3.000189887152778
 20
-5.025465223524305
 30
0.0
 10
2.998819986979167
 20
-5.025465223524305
 30
0.0
 10
2.996758355034722
 20
-5.025594075520833
 30
0.0
 10
2.995388454861111
 20
-5.025594075520833
 30
0.0
 10
2.751803927951389
 20
-4.795457628038194
 30
0.0
 10
2.574612087673611
 20
-4.493923611111111
 30
0.0
 10
2.500962999131944
 20
-4.150499131944445
 30
0.0
 10
2.457621256510417
 20
-3.949842664930555
 30
0.0
 10
2.453640407986111
 20
-3.747477213541667
 30
0.0
 10
2.481757269965278
 20
-3.550252278645833
 30
0.0
  0
SPLINE
  5
51
330
1F
100
AcDbEntity
  8
Layer 1
370
     0
100
AcDbSpline
210
0.0
220
0.0
230
1.0
 70
    11
 71
     3
 72
    17
 73
    13
 74
     0
 42
0.0000000001
 43
0.0000000001
 40
0.0
 40
0.0
 40
0.0
 40
0.0
 40
1.0
 40
1.0
 40
1.0
 40
2.0
 40
2.0
 40
2.0
 40
3.0
 40
3.0
 40
3.0
 40
4.0
 40
4.0
 40
4.0
 40
4.0
 10
0.4214680989583333
 20
-4.54974365234375
 30
0.0
 10
0.6687486436631944
 20
-3.814683702256944
 30
0.0
 10
1.326531304253472
 20
-3.269097222222222
 30
0.0
 10
2.14093017578125
 20
-3.191880967881944
 30
0.0
 10
2.14093017578125
 20
-3.191880967881944
 30
0.0
 10
1.243686252170139
 20
-3.4384765625
 30
0.0
 10
1.149468315972222
 20
-4.308085123697916
 30
0.0
 10
1.118604871961806
 20
-4.596652560763888
 30
0.0
 10
1.060451931423611
 20
-4.812323676215278
 30
0.0
 10
0.858154296875
 20
-4.856757269965278
 30
0.0
 10
0.5679456922743055
 20
-4.920328776041666
 30
0.0
 10
0.3934868706597222
 20
-4.633144802517361
 30
0.0
 10
0.4214680989583333
 20
-4.54974365234375
 30
0.0
  0
SPLINE
  5
52
330
1F
100
AcDbEntity
  8
Layer 1
370
     0
100
AcDbSpline
210
0.0
220
0.0
230
1.0
 70
    11
 71
     3
 72
    29
 73
    25
 74
     0
 42
0.0000000001
 43
0.0000000001
 40
0.0
 40
0.0
 40
0.0
 40
0.0
 40
1.0
 40
1.0
 40
1.0
 40
2.0
 40
2.0
 40
2.0
 40
3.0
 40
3.0
 40
3.0
 40
4.0
 40
4.0
 40
4.0
 40
5.0
 40
5.0
 40
5.0
 40
6.0
 40
6.0
 40
6.0
 40
7.0
 40
7.0
 40
7.0
 40
8.0
 40
8.0
 40
8.0
 40
8.0
 10
0.6328125
 20
-5.198337131076388
 30
0.0
 10
0.6328125
 20
-5.139438205295138
 30
0.0
 10
0.63665771484375
 20
-5.081346299913194
 30
0.0
 10
0.6424153645833333
 20
-5.023681640625
 30
0.0
 10
0.7860175238715277
 20
-5.135660807291666
 30
0.0
 10
1.044135199652778
 20
-5.271369086371528
 30
0.0
 10
1.331468370225694
 20
-5.109130859375
 30
0.0
 10
1.78790283203125
 20
-4.851216634114583
 30
0.0
 10
1.6585693359375
 20
-4.3348388671875
 30
0.0
 10
1.804361979166667
 20
-4.021572536892361
 30
0.0
 10
1.85333251953125
 20
-3.916653103298611
 30
0.0
 10
1.916280110677083
 20
-3.828952365451389
 30
0.0
 10
1.991299099392361
 20
-3.758314344618055
 30
0.0
 10
1.988009982638889
 20
-3.921732584635417
 30
0.0
 10
2.001864963107639
 20
-4.086317274305555
 30
0.0
 10
2.036838107638889
 20
-4.250074598524305
 30
0.0
 10
2.105136447482639
 20
-4.566691080729166
 30
0.0
 10
2.242153591579861
 20
-4.855461968315972
 30
0.0
 10
2.429782443576389
 20
-5.102335611979166
 30
0.0
 10
1.817532009548611
 20
-5.267530653211805
 30
0.0
 10
1.301981608072917
 20
-5.694620768229166
 30
0.0
 10
1.027818467881944
 20
-6.286634657118055
 30
0.0
 10
0.7816229926215277
 20
-5.991631401909722
 30
0.0
 10
0.6328125
 20
-5.612196180555555
 30
0.0
 10
0.6328125
 20
-5.198337131076388
 30
0.0
  0
SPLINE
  5
53
330
1F
100
AcDbEntity
  8
Layer 1
370
     0
100
AcDbSpline
210
0.0
220
0.0
230
1.0
 70
    11
 71
     3
 72
    17
 73
    13
 74
     0
 42
0.0000000001
 43
0.0000000001
 40
0.0
 40
0.0
 40
0.0
 40
0.0
 40
1.0
 40
1.0
 40
1.0
 40
2.0
 40
2.0
 40
2.0
 40
3.0
 40
3.0
 40
3.0
 40
4.0
 40
4.0
 40
4.0
 40
4.0
 10
2.221306694878472
 20
-8.518012152777777
 30
0.0
 10
2.192782931857639
 20
-8.81344943576389
 30
0.0
 10
1.865675184461805
 20
-8.891343858506945
 30
0.0
 10
1.794630262586805
 20
-8.839097764756945
 30
0.0
 10
1.171685112847222
 20
-8.378187391493055
 30
0.0
 10
0.8537665473090277
 20
-7.584431966145833
 30
0.0
 10
1.030971950954861
 20
-6.785658094618055
 30
0.0
 10
1.030971950954861
 20
-6.785658094618055
 30
0.0
 10
0.98968505859375
 20
-7.715345594618055
 30
0.0
 10
1.788865831163194
 20
-8.07180447048611
 30
0.0
 10
2.053575303819444
 20
-8.19009060329861
 30
0.0
 10
2.241054958767361
 20
-8.311469184027777
 30
0.0
 10
2.221306694878472
 20
-8.518012152777777
 30
0.0
  0
SPLINE
  5
54
330
1F
100
AcDbEntity
  8
Layer 1
370
     0
100
AcDbSpline
210
0.0
220
0.0
230
1.0
 70
    11
 71
     3
 72
    29
 73
    25
 74
     0
 42
0.0000000001
 43
0.0000000001
 40
0.0
 40
0.0
 40
0.0
 40
0.0
 40
1.0
 40
1.0
 40
1.0
 40
2.0
 40
2.0
 40
2.0
 40
3.0
 40
3.0
 40
3.0
 40
4.0
 40
4.0
 40
4.0
 40
5.0
 40
5.0
 40
5.0
 40
6.0
 40
6.0
 40
6.0
 40
7.0
 40
7.0
 40
7.0
 40
8.0
 40
8.0
 40
8.0
 40
8.0
 10
2.998819986979167
 20
-8.900621202256945
 30
0.0
 10
2.777316623263889
 20
-8.900621202256945
 30
0.0
 10
2.560343424479167
 20
-8.85781521267361
 30
0.0
 10
2.353379991319444
 20
-8.772786458333332
 30
0.0
 10
2.322116427951389
 20
-8.75961642795139
 30
0.0
 10
2.291666666666667
 20
-8.745279947916666
 30
0.0
 10
2.260810004340278
 20
-8.730400933159721
 30
0.0
 10
2.417026095920139
 20
-8.63803439670139
 30
0.0
 10
2.643459743923611
 20
-8.444173177083332
 30
0.0
 10
2.593668619791667
 20
-8.112603081597221
 30
0.0
 10
2.516459147135417
 20
-7.601521809895833
 30
0.0
 10
2.002414279513889
 20
-7.532321506076388
 30
0.0
 10
1.75732421875
 20
-7.293131510416666
 30
0.0
 10
1.940694173177083
 20
-7.3438720703125
 30
0.0
 10
2.13311767578125
 20
-7.372734917534721
 30
0.0
 10
2.332668728298611
 20
-7.372734917534721
 30
0.0
 10
2.625352647569444
 20
-7.372734917534721
 30
0.0
 10
2.904188368055555
 20
-7.313761393229166
 30
0.0
 10
3.159145779079861
 20
-7.208713107638888
 30
0.0
 10
3.156955295138889
 20
-7.770819769965278
 30
0.0
 10
3.374064127604167
 20
-8.31435818142361
 30
0.0
 10
3.760965983072917
 20
-8.720662434895832
 30
0.0
 10
3.529459635416667
 20
-8.836493598090277
 30
0.0
 10
3.270378960503472
 20
-8.900621202256945
 30
0.0
 10
2.998819986979167
 20
-8.900621202256945
 30
0.0
  0
SPLINE
  5
55
330
1F
100
AcDbEntity
  8
Layer 1
370
     0
100
AcDbSpline
210
0.0
220
0.0
230
1.0
 70
    11
 71
     3
 72
    26
 73
    22
 74
     0
 42
0.0000000001
 43
0.0000000001
 40
0.0
 40
0.0
 40
0.0
 40
0.0
 40
1.0
 40
1.0
 40
1.0
 40
2.0
 40
2.0
 40
2.0
 40
3.0
 40
3.0
 40
3.0
 40
4.0
 40
4.0
 40
4.0
 40
5.0
 40
5.0
 40
5.0
 40
6.0
 40
6.0
 40
6.0
 40
7.0
 40
7.0
 40
7.0
 40
7.0
 10
4.023342556423611
 20
-8.30112033420139
 30
0.0
 10
3.709811740451389
 20
-7.920857747395833
 30
0.0
 10
3.569234212239583
 20
-7.414767795138888
 30
0.0
 10
3.659891764322917
 20
-6.916639539930555
 30
0.0
 10
3.842027452256944
 20
-6.776136610243055
 30
0.0
 10
4.001532660590278
 20
-6.608466254340278
 30
0.0
 10
4.131279839409722
 20
-6.418294270833333
 30
0.0
 10
4.278713650173611
 20
-6.6351318359375
 30
0.0
 10
4.465101453993055
 20
-6.822699652777778
 30
0.0
 10
4.679334852430555
 20
-6.973971896701388
 30
0.0
 10
4.690036349826388
 20
-7.047146267361111
 30
0.0
 10
4.6981201171875
 20
-7.120863172743055
 30
0.0
 10
4.698811848958333
 20
-7.195814344618055
 30
0.0
 10
4.699639214409722
 20
-7.412801106770833
 30
0.0
 10
4.659586588541666
 20
-7.6331787109375
 30
0.0
 10
4.571953667534722
 20
-7.846055772569444
 30
0.0
 10
4.481282552083333
 20
-8.067274305555555
 30
0.0
 10
4.346611870659722
 20
-8.25998263888889
 30
0.0
 10
4.182712131076388
 20
-8.41933865017361
 30
0.0
 10
4.128397623697916
 20
-8.385674370659721
 30
0.0
 10
4.075595431857638
 20
-8.346923828125
 30
0.0
 10
4.023342556423611
 20
-8.30112033420139
 30
0.0
  0
SPLINE
  5
56
330
1F
100
AcDbEntity
  8
Layer 1
370
     0
100
AcDbSpline
210
0.0
220
0.0
230
1.0
 70
    11
 71
     3
 72
    17
 73
    13
 74
     0
 42
0.0000000001
 43
0.0000000001
 40
0.0
 40
0.0
 40
0.0
 40
0.0
 40
1.0
 40
1.0
 40
1.0
 40
2.0
 40
2.0
 40
2.0
 40
3.0
 40
3.0
 40
3.0
 40
4.0
 40
4.0
 40
4.0
 40
4.0
 10
6.474500868055555
 20
-8.890869140625
 30
0.0
 10
5.835245768229166
 20
-9.329413519965277
 30
0.0
 10
4.981608072916666
 20
-9.369873046875
 30
0.0
 10
4.284613715277778
 20
-8.941758897569445
 30
0.0
 10
4.284613715277778
 20
-8.941758897569445
 30
0.0
 10
5.149766710069444
 20
-9.284356011284721
 30
0.0
 10
5.747599283854166
 20
-8.64577907986111
 30
0.0
 10
5.945665147569444
 20
-8.43423122829861
 30
0.0
 10
6.122165256076388
 20
-8.296861436631945
 30
0.0
 10
6.310343424479166
 20
-8.383056640625
 30
0.0
 10
6.580796983506944
 20
-8.506632486979166
 30
0.0
 10
6.547349717881944
 20
-8.84109157986111
 30
0.0
 10
6.474500868055555
 20
-8.890869140625
 30
0.0
  0
SPLINE
  5
57
330
1F
100
AcDbEntity
  8
Layer 1
370
     0
100
AcDbSpline
210
0.0
220
0.0
230
1.0
 70
    11
 71
     3
 72
    32
 73
    28
 74
     0
 42
0.0000000001
 43
0.0000000001
 40
0.0
 40
0.0
 40
0.0
 40
0.0
 40
1.0
 40
1.0
 40
1.0
 40
2.0
 40
2.0
 40
2.0
 40
3.0
 40
3.0
 40
3.0
 40
4.0
 40
4.0
 40
4.0
 40
5.0
 40
5.0
 40
5.0
 40
6.0
 40
6.0
 40
6.0
 40
7.0
 40
7.0
 40
7.0
 40
8.0
 40
8.0
 40
8.0
 40
9.0
 40
9.0
 40
9.0
 40
9.0
 10
6.904622395833333
 20
-7.86572265625
 30
0.0
 10
6.824381510416666
 20
-8.060628255208332
 30
0.0
 10
6.711100260416666
 20
-8.234117296006945
 30
0.0
 10
6.573676215277778
 20
-8.381700303819445
 30
0.0
 10
6.539116753472221
 20
-8.217393663194445
 30
0.0
 10
6.422119140625
 20
-7.882798936631944
 30
0.0
 10
6.047553168402778
 20
-7.840847439236111
 30
0.0
 10
5.526380750868055
 20
-7.782402886284721
 30
0.0
 10
5.329020182291666
 20
-8.27663845486111
 30
0.0
 10
5.027560763888888
 20
-8.445122612847221
 30
0.0
 10
4.925672743055555
 20
-8.502387152777777
 30
0.0
 10
4.821967230902778
 20
-8.536322699652777
 30
0.0
 10
4.718967013888888
 20
-8.5494384765625
 30
0.0
 10
4.835964626736111
 20
-8.397474500868055
 30
0.0
 10
4.935397677951388
 20
-8.229600694444445
 30
0.0
 10
5.010972764756944
 20
-8.045952690972221
 30
0.0
 10
5.119873046875
 20
-7.7801513671875
 30
0.0
 10
5.170613606770833
 20
-7.504950629340278
 30
0.0
 10
5.172526041666666
 20
-7.233818901909721
 30
0.0
 10
5.408989800347222
 20
-7.322062174479166
 30
0.0
 10
5.663397894965278
 20
-7.372734917534721
 30
0.0
 10
5.929890950520833
 20
-7.372734917534721
 30
0.0
 10
6.329277886284721
 20
-7.372734917534721
 30
0.0
 10
6.702324761284721
 20
-7.262736002604166
 30
0.0
 10
7.024074978298611
 20
-7.074503580729166
 30
0.0
 10
7.046698676215278
 20
-7.335910373263888
 30
0.0
 10
7.010918511284721
 20
-7.606594509548611
 30
0.0
 10
6.904622395833333
 20
-7.86572265625
 30
0.0
  0
SPLINE
  5
58
330
1F
100
AcDbEntity
  8
Layer 1
370
     0
100
AcDbSpline
210
0.0
220
0.0
230
1.0
 70
    11
 71
     3
 72
    17
 73
    13
 74
     0
 42
0.0000000001
 43
0.0000000001
 40
0.0
 40
0.0
 40
0.0
 40
0.0
 40
1.0
 40
1.0
 40
1.0
 40
2.0
 40
2.0
 40
2.0
 40
3.0
 40
3.0
 40
3.0
 40
4.0
 40
4.0
 40
4.0
 40
4.0
 10
7.294813368055555
 20
-6.678059895833333
 30
0.0
 10
7.294813368055555
 20
-6.678059895833333
 30
0.0
 10
7.854261610243055
 20
-5.979899088541666
 30
0.0
 10
7.436482747395833
 20
-5.250115288628472
 30
0.0
 10
7.297553168402778
 20
-5.008314344618055
 30
0.0
 10
7.221028645833333
 20
-4.807522243923611
 30
0.0
 10
7.353800455729166
 20
-4.658718532986111
 30
0.0
 10
7.5433349609375
 20
-4.44537353515625
 30
0.0
 10
7.841227213541666
 20
-4.570529513888888
 30
0.0
 10
7.866861979166666
 20
-4.651312934027778
 30
0.0
 10
8.089057074652777
 20
-5.362440321180555
 30
0.0
 10
7.860432942708333
 20
-6.154825846354166
 30
0.0
 10
7.294813368055555
 20
-6.678059895833333
 30
0.0
  0
ENDSEC
  0
SECTION
  2
OBJECTS
  0
DICTIONARY
  5
C
330
0
100
AcDbDictionary
281
     1
  3
ACAD_GROUP
350
D
  3
ACAD_LAYOUT
350
1A
  3
ACAD_MLINESTYLE
350
17
  3
ACAD_PLOTSETTINGS
350
19
  3
ACAD_PLOTSTYLENAME
350
E
  3
ACAD_TABLESTYLE
350
59
  3
ACAD_VISUALSTYLE
350
2A
  0
DICTIONARY
  5
D
102
{ACAD_REACTORS
330
C
102
}
330
C
100
AcDbDictionary
281
     1
  0
DICTIONARY
  5
1A
102
{ACAD_REACTORS
330
C
102
}
330
C
100
AcDbDictionary
281
     1
  3
Layout1
350
1E
  3
Layout2
350
26
  3
Model
350
22
  0
DICTIONARY
  5
17
102
{ACAD_REACTORS
330
C
102
}
330
C
100
AcDbDictionary
281
     1
  3
Standard
350
18
  0
DICTIONARY
  5
19
102
{ACAD_REACTORS
330
C
102
}
330
C
100
AcDbDictionary
281
     1
  0
ACDBDICTIONARYWDFLT
  5
E
102
{ACAD_REACTORS
330
C
102
}
330
C
100
AcDbDictionary
281
     1
  3
Normal
350
F
100
AcDbDictionaryWithDefault
340
F
  0
DICTIONARY
  5
59
102
{ACAD_REACTORS
330
C
102
}
330
C
100
AcDbDictionary
281
     1
  0
DICTIONARY
  5
2A
102
{ACAD_REACTORS
330
C
102
}
330
C
100
AcDbDictionary
281
     1
  3
2dWireframe
350
2F
  3
3D Hidden
350
31
  3
3dWireframe
350
30
  3
Basic
350
32
  3
Brighten
350
36
  3
ColorChange
350
3A
  3
Conceptual
350
34
  3
Dim
350
35
  3
Facepattern
350
39
  3
Flat
350
2B
  3
FlatWithEdges
350
2C
  3
Gouraud
350
2D
  3
GouraudWithEdges
350
2E
  3
Linepattern
350
38
  3
Realistic
350
33
  3
Thicken
350
37
  0
LAYOUT
  5
1E
102
{ACAD_REACTORS
330
1A
102
}
330
1A
100
AcDbPlotSettings
  1

  2
none_device
  4

  6

 40
0.0
 41
0.0
 42
0.0
 43
0.0
 44
0.0
 45
0.0
 46
0.0
 47
0.0
 48
0.0
 49
0.0
140
0.0
141
0.0
142
1.0
143
1.0
 70
   688
 72
     0
 73
     0
 74
     5
  7

 75
    16
 76
     0
 77
     2
 78
   300
147
1.0
148
0.0
149
0.0
100
AcDbLayout
  1
Layout1
 70
     1
 71
     1
 10
0.0
 20
0.0
 11
12.0
 21
9.0
 12
0.0
 22
0.0
 32
0.0
 14
1.000000000000000E+20
 24
1.000000000000000E+20
 34
1.000000000000000E+20
 15
-1.000000000000000E+20
 25
-1.000000000000000E+20
 35
-1.000000000000000E+20
146
0.0
 13
0.0
 23
0.0
 33
0.0
 16
1.0
 26
0.0
 36
0.0
 17
0.0
 27
1.0
 37
0.0
 76
     0
330
1B
  0
LAYOUT
  5
26
102
{ACAD_REACTORS
330
1A
102
}
330
1A
100
AcDbPlotSettings
  1

  2
none_device
  4

  6

 40
0.0
 41
0.0
 42
0.0
 43
0.0
 44
0.0
 45
0.0
 46
0.0
 47
0.0
 48
0.0
 49
0.0
140
0.0
141
0.0
142
1.0
143
1.0
 70
   688
 72
     0
 73
     0
 74
     5
  7

 75
    16
 76
     0
 77
     2
 78
   300
147
1.0
148
0.0
149
0.0
100
AcDbLayout
  1
Layout2
 70
     1
 71
     2
 10
0.0
 20
0.0
 11
0.0
 21
0.0
 12
0.0
 22
0.0
 32
0.0
 14
0.0
 24
0.0
 34
0.0
 15
0.0
 25
0.0
 35
0.0
146
0.0
 13
0.0
 23
0.0
 33
0.0
 16
1.0
 26
0.0
 36
0.0
 17
0.0
 27
1.0
 37
0.0
 76
     0
330
23
  0
LAYOUT
  5
22
102
{ACAD_REACTORS
330
1A
102
}
330
1A
100
AcDbPlotSettings
  1

  2
none_device
  4

  6

 40
0.0
 41
0.0
 42
0.0
 43
0.0
 44
0.0
 45
0.0
 46
0.0
 47
0.0
 48
0.0
 49
0.0
140
0.0
141
0.0
142
1.0
143
1.0
 70
  1712
 72
     0
 73
     0
 74
     0
  7

 75
     0
 76
     0
 77
     2
 78
   300
147
1.0
148
0.0
149
0.0
100
AcDbLayout
  1
Model
 70
     1
 71
     0
 10
0.0
 20
0.0
 11
12.0
 21
9.0
 12
0.0
 22
0.0
 32
0.0
 14
1.000000000000000E+20
 24
1.000000000000000E+20
 34
1.000000000000000E+20
 15
-1.000000000000000E+20
 25
-1.000000000000000E+20
 35
-1.000000000000000E+20
146
0.0
 13
0.0
 23
0.0
 33
0.0
 16
1.0
 26
0.0
 36
0.0
 17
0.0
 27
1.0
 37
0.0
 76
     0
330
1F
331
29
  0
MLINESTYLE
  5
18
102
{ACAD_REACTORS
330
17
102
}
330
17
100
AcDbMlineStyle
  2
Standard
 70
     0
  3

 62
   256
 51
90.0
 52
90.0
 71
     2
 49
0.5
 62
   256
  6
BYLAYER
 49
-0.5
 62
   256
  6
BYLAYER
  0
ACDBPLACEHOLDER
  5
F
102
{ACAD_REACTORS
330
E
102
}
330
E
  0
VISUALSTYLE
  5
2F
102
{ACAD_REACTORS
330
2A
102
}
330
2A
100
AcDbVisualStyle
  2
2dWireframe
 70
     4
 71
     0
 72
     2
 73
     0
 90
        0
 40
-0.6
 41
-30.0
 62
     5
 63
     7
421
 16777215
 74
     1
 91
        4
 64
     7
 65
   257
 75
     1
175
     1
 42
1.0
 92
        0
 66
   257
 43
1.0
 76
     1
 77
     6
 78
     2
 67
     7
 79
     5
170
     0
171
     0
290
     0
174
     0
 93
        1
 44
0.0
173
     0
291
     0
 45
0.0
1001
ACAD
1000
AcDbSavedByObjectVersion
1070
     0
  0
VISUALSTYLE
  5
31
102
{ACAD_REACTORS
330
2A
102
}
330
2A
100
AcDbVisualStyle
  2
3D Hidden
 70
     6
 71
     1
 72
     2
 73
     2
 90
        0
 40
-0.6
 41
-30.0
 62
     5
 63
     7
421
 16777215
 74
     2
 91
        2
 64
     7
 65
   257
 75
     2
175
     1
 42
40.0
 92
        0
 66
   257
 43
1.0
 76
     1
 77
     6
 78
     2
 67
     7
 79
     3
170
     0
171
     0
290
     0
174
     0
 93
        1
 44
0.0
173
     0
291
     0
 45
0.0
1001
ACAD
1000
AcDbSavedByObjectVersion
1070
     0
  0
VISUALSTYLE
  5
30
102
{ACAD_REACTORS
330
2A
102
}
330
2A
100
AcDbVisualStyle
  2
3dWireframe
 70
     5
 71
     0
 72
     2
 73
     0
 90
        0
 40
-0.6
 41
-30.0
 62
     5
 63
     7
421
 16777215
 74
     1
 91
        4
 64
     7
 65
   257
 75
     1
175
     1
 42
1.0
 92
        0
 66
   257
 43
1.0
 76
     1
 77
     6
 78
     2
 67
     7
 79
     5
170
     0
171
     0
290
     0
174
     0
 93
        1
 44
0.0
173
     0
291
     0
 45
0.0
1001
ACAD
1000
AcDbSavedByObjectVersion
1070
     0
  0
VISUALSTYLE
  5
32
102
{ACAD_REACTORS
330
2A
102
}
330
2A
100
AcDbVisualStyle
  2
Basic
 70
     7
 71
     1
 72
     0
 73
     1
 90
        0
 40
-0.6
 41
-30.0
 62
     5
 63
     7
421
 16777215
 74
     0
 91
        4
 64
     7
 65
   257
 75
     1
175
     1
 42
1.0
 92
        8
 66
     7
 43
1.0
 76
     1
 77
     6
 78
     2
 67
     7
 79
     5
170
     0
171
     0
290
     0
174
     0
 93
        1
 44
0.0
173
     0
291
     1
 45
0.0
1001
ACAD
1000
AcDbSavedByObjectVersion
1070
     0
  0
VISUALSTYLE
  5
36
102
{ACAD_REACTORS
330
2A
102
}
330
2A
100
AcDbVisualStyle
  2
Brighten
 70
    12
 71
     2
 72
     2
 73
     0
 90
        0
 40
-0.6
 41
-30.0
 62
     5
 63
     7
421
 16777215
 74
     1
 91
        4
 64
     7
 65
   257
 75
     1
175
     1
 42
1.0
 92
        8
 66
     7
 43
1.0
 76
     1
 77
     6
 78
     2
 67
     7
 79
     5
170
     0
171
     0
290
     0
174
     0
 93
        1
 44
50.0
173
     0
291
     1
 45
0.0
1001
ACAD
1000
AcDbSavedByObjectVersion
1070
     0
  0
VISUALSTYLE
  5
3A
102
{ACAD_REACTORS
330
2A
102
}
330
2A
100
AcDbVisualStyle
  2
ColorChange
 70
    16
 71
     2
 72
     2
 73
     3
 90
        0
 40
-0.6
 41
-30.0
 62
     5
 63
     8
421
  8421504
 74
     1
 91
        4
 64
     7
 65
   257
 75
     1
175
     1
 42
1.0
 92
        8
 66
     8
424
  8421504
 43
1.0
 76
     1
 77
     6
 78
     2
 67
     7
 79
     5
170
     0
171
     0
290
     0
174
     0
 93
        1
 44
0.0
173
     0
291
     1
 45
0.0
1001
ACAD
1000
AcDbSavedByObjectVersion
1070
     0
  0
VISUALSTYLE
  5
34
102
{ACAD_REACTORS
330
2A
102
}
330
2A
100
AcDbVisualStyle
  2
Conceptual
 70
     9
 71
     3
 72
     2
 73
     0
 90
        0
 40
-0.6
 41
-30.0
 62
     5
 63
     7
421
 16777215
 74
     2
 91
        2
 64
     7
 65
   257
 75
     1
175
     1
 42
40.0
 92
        8
 66
     7
 43
1.0
 76
     1
 77
     6
 78
     2
 67
     7
 79
     3
170
     0
171
     0
290
     0
174
     0
 93
        1
 44
0.0
173
     0
291
     0
 45
0.0
1001
ACAD
1000
AcDbSavedByObjectVersion
1070
     0
  0
VISUALSTYLE
  5
35
102
{ACAD_REACTORS
330
2A
102
}
330
2A
100
AcDbVisualStyle
  2
Dim
 70
    11
 71
     2
 72
     2
 73
     0
 90
        0
 40
-0.6
 41
-30.0
 62
     5
 63
     7
421
 16777215
 74
     1
 91
        4
 64
     7
 65
   257
 75
     1
175
     1
 42
1.0
 92
        8
 66
     7
 43
1.0
 76
     1
 77
     6
 78
     2
 67
     7
 79
     5
170
     0
171
     0
290
     0
174
     0
 93
        1
 44
-50.0
173
     0
291
     1
 45
0.0
1001
ACAD
1000
AcDbSavedByObjectVersion
1070
     0
  0
VISUALSTYLE
  5
39
102
{ACAD_REACTORS
330
2A
102
}
330
2A
100
AcDbVisualStyle
  2
Facepattern
 70
    15
 71
     2
 72
     2
 73
     0
 90
        0
 40
-0.6
 41
-30.0
 62
     5
 63
     7
421
 16777215
 74
     1
 91
        4
 64
     7
 65
   257
 75
     1
175
     1
 42
1.0
 92
        8
 66
     7
 43
1.0
 76
     1
 77
     6
 78
     2
 67
     7
 79
     5
170
     0
171
     0
290
     0
174
     0
 93
        1
 44
0.0
173
     0
291
     1
 45
0.0
1001
ACAD
1000
AcDbSavedByObjectVersion
1070
     0
  0
VISUALSTYLE
  5
2B
102
{ACAD_REACTORS
330
2A
102
}
330
2A
100
AcDbVisualStyle
  2
Flat
 70
     0
 71
     2
 72
     1
 73
     1
 90
        2
 40
-0.6
 41
30.0
 62
     5
 63
     7
421
 16777215
 74
     0
 91
        4
 64
     7
 65
   257
 75
     1
175
     1
 42
1.0
 92
        8
 66
     7
 43
1.0
 76
     1
 77
     6
 78
     2
 67
     7
 79
     5
170
     0
171
     0
290
     0
174
     0
 93
       13
 44
0.0
173
     0
291
     1
 45
0.0
1001
ACAD
1000
AcDbSavedByObjectVersion
1070
     0
  0
VISUALSTYLE
  5
2C
102
{ACAD_REACTORS
330
2A
102
}
330
2A
100
AcDbVisualStyle
  2
FlatWithEdges
 70
     1
 71
     2
 72
     1
 73
     1
 90
        2
 40
-0.6
 41
30.0
 62
     5
 63
     7
421
 16777215
 74
     1
 91
        4
 64
     7
 65
   257
 75
     1
175
     1
 42
1.0
 92
        0
 66
   257
 43
1.0
 76
     1
 77
     6
 78
     2
 67
     7
 79
     5
170
     0
171
     0
290
     0
174
     0
 93
       13
 44
0.0
173
     0
291
     1
 45
0.0
1001
ACAD
1000
AcDbSavedByObjectVersion
1070
     0
  0
VISUALSTYLE
  5
2D
102
{ACAD_REACTORS
330
2A
102
}
330
2A
100
AcDbVisualStyle
  2
Gouraud
 70
     2
 71
     2
 72
     2
 73
     1
 90
        2
 40
-0.6
 41
30.0
 62
     5
 63
     7
421
 16777215
 74
     0
 91
        4
 64
     7
 65
   257
 75
     1
175
     1
 42
1.0
 92
        0
 66
     7
 43
1.0
 76
     1
 77
     6
 78
     2
 67
     7
 79
     5
170
     0
171
     0
290
     0
174
     0
 93
       13
 44
0.0
173
     0
291
     1
 45
0.0
1001
ACAD
1000
AcDbSavedByObjectVersion
1070
     0
  0
VISUALSTYLE
  5
2E
102
{ACAD_REACTORS
330
2A
102
}
330
2A
100
AcDbVisualStyle
  2
GouraudWithEdges
 70
     3
 71
     2
 72
     2
 73
     1
 90
        2
 40
-0.6
 41
30.0
 62
     5
 63
     7
421
 16777215
 74
     1
 91
        4
 64
     7
 65
   257
 75
     1
175
     1
 42
1.0
 92
        0
 66
   257
 43
1.0
 76
     1
 77
     6
 78
     2
 67
     7
 79
     5
170
     0
171
     0
290
     0
174
     0
 93
       13
 44
0.0
173
     0
291
     1
 45
0.0
1001
ACAD
1000
AcDbSavedByObjectVersion
1070
     0
  0
VISUALSTYLE
  5
38
102
{ACAD_REACTORS
330
2A
102
}
330
2A
100
AcDbVisualStyle
  2
Linepattern
 70
    14
 71
     2
 72
     2
 73
     0
 90
        0
 40
-0.6
 41
-30.0
 62
     5
 63
     7
421
 16777215
 74
     1
 91
        4
 64
     7
 65
   257
 75
     7
175
     7
 42
1.0
 92
        8
 66
     7
 43
1.0
 76
     1
 77
     6
 78
     2
 67
     7
 79
     5
170
     0
171
     0
290
     0
174
     0
 93
        1
 44
0.0
173
     0
291
     1
 45
0.0
1001
ACAD
1000
AcDbSavedByObjectVersion
1070
     0
  0
VISUALSTYLE
  5
33
102
{ACAD_REACTORS
330
2A
102
}
330
2A
100
AcDbVisualStyle
  2
Realistic
 70
     8
 71
     2
 72
     2
 73
     0
 90
        0
 40
-0.6
 41
-30.0
 62
     5
 63
     7
421
 16777215
 74
     1
 91
        0
 64
     7
 65
   257
 75
     1
175
     1
 42
1.0
 92
        8
 66
     8
424
  7895160
 43
1.0
 76
     1
 77
     6
 78
     2
 67
     7
 79
     5
170
     0
171
     0
290
     0
174
     0
 93
       13
 44
0.0
173
     0
291
     0
 45
0.0
1001
ACAD
1000
AcDbSavedByObjectVersion
1070
     0
  0
VISUALSTYLE
  5
37
102
{ACAD_REACTORS
330
2A
102
}
330
2A
100
AcDbVisualStyle
  2
Thicken
 70
    13
 71
     2
 72
     2
 73
     0
 90
        0
 40
-0.6
 41
-30.0
 62
     5
 63
     7
421
 16777215
 74
     1
 91
        4
 64
     7
 65
   257
 75
     1
175
     1
 42
1.0
 92
       12
 66
     7
 43
1.0
 76
     1
 77
     6
 78
     2
 67
     7
 79
     5
170
     0
171
     0
290
     0
174
     0
 93
        1
 44
0.0
173
     0
291
     1
 45
0.0
1001
ACAD
1000
AcDbSavedByObjectVersion
1070
     0
  0
ENDSEC
  0
EOF
