  0
SECTION
  2
HEADER
  9
$ACADVER
  1
AC1018
  9
$ACADMAINTVER
 70
     0
  9
$DWGCODEPAGE
  3
ANSI_932
  9
$INSBASE
 10
0.0
 20
0.0
 30
0.0
  9
$EXTMIN
 10
1.000000000000000E+20
 20
1.000000000000000E+20
 30
1.000000000000000E+20
  9
$EXTMAX
 10
-1.000000000000000E+20
 20
-1.000000000000000E+20
 30
-1.000000000000000E+20
  9
$LIMMIN
 10
0.0
 20
0.0
  9
$LIMMAX
 10
12.0
 20
9.0
  9
$ORTHOMODE
 70
     0
  9
$REGENMODE
 70
     1
  9
$FILLMODE
 70
     1
  9
$QTEXTMODE
 70
     0
  9
$MIRRTEXT
 70
     1
  9
$LTSCALE
 40
1.0
  9
$ATTMODE
 70
     1
  9
$TEXTSIZE
 40
0.2
  9
$TRACEWID
 40
0.05
  9
$TEXTSTYLE
  7
Standard
  9
$CLAYER
  8
0
  9
$CELTYPE
  6
ByLayer
  9
$CECOLOR
 62
   256
  9
$CELTSCALE
 40
1.0
  9
$DISPSILH
 70
     0
  9
$DIMSCALE
 40
1.0
  9
$DIMASZ
 40
0.18
  9
$DIMEXO
 40
0.0625
  9
$DIMDLI
 40
0.38
  9
$DIMRND
 40
0.0
  9
$DIMDLE
 40
0.0
  9
$DIMEXE
 40
0.18
  9
$DIMTP
 40
0.0
  9
$DIMTM
 40
0.0
  9
$DIMTXT
 40
0.18
  9
$DIMCEN
 40
0.09
  9
$DIMTSZ
 40
0.0
  9
$DIMTOL
 70
     0
  9
$DIMLIM
 70
     0
  9
$DIMTIH
 70
     1
  9
$DIMTOH
 70
     1
  9
$DIMSE1
 70
     0
  9
$DIMSE2
 70
     0
  9
$DIMTAD
 70
     0
  9
$DIMZIN
 70
     0
  9
$DIMBLK
  1

  9
$DIMASO
 70
     1
  9
$DIMSHO
 70
     1
  9
$DIMPOST
  1

  9
$DIMAPOST
  1

  9
$DIMALT
 70
     0
  9
$DIMALTD
 70
     2
  9
$DIMALTF
 40
25.4
  9
$DIMLFAC
 40
1.0
  9
$DIMTOFL
 70
     0
  9
$DIMTVP
 40
0.0
  9
$DIMTIX
 70
     0
  9
$DIMSOXD
 70
     0
  9
$DIMSAH
 70
     0
  9
$DIMBLK1
  1

  9
$DIMBLK2
  1

  9
$DIMSTYLE
  2
Standard
  9
$DIMCLRD
 70
     0
  9
$DIMCLRE
 70
     0
  9
$DIMCLRT
 70
     0
  9
$DIMTFAC
 40
1.0
  9
$DIMGAP
 40
0.09
  9
$DIMJUST
 70
     0
  9
$DIMSD1
 70
     0
  9
$DIMSD2
 70
     0
  9
$DIMTOLJ
 70
     1
  9
$DIMTZIN
 70
     0
  9
$DIMALTZ
 70
     0
  9
$DIMALTTZ
 70
     0
  9
$DIMUPT
 70
     0
  9
$DIMDEC
 70
     4
  9
$DIMTDEC
 70
     4
  9
$DIMALTU
 70
     2
  9
$DIMALTTD
 70
     2
  9
$DIMTXSTY
  7
Standard
  9
$DIMAUNIT
 70
     0
  9
$DIMADEC
 70
     0
  9
$DIMALTRND
 40
0.0
  9
$DIMAZIN
 70
     0
  9
$DIMDSEP
 70
    46
  9
$DIMATFIT
 70
     3
  9
$DIMFRAC
 70
     0
  9
$DIMLDRBLK
  1

  9
$DIMLUNIT
 70
     2
  9
$DIMLWD
 70
    -2
  9
$DIMLWE
 70
    -2
  9
$DIMTMOVE
 70
     0
  9
$LUNITS
 70
     2
  9
$LUPREC
 70
     4
  9
$SKETCHINC
 40
0.1
  9
$FILLETRAD
 40
0.5
  9
$AUNITS
 70
     0
  9
$AUPREC
 70
     0
  9
$MENU
  1
.
  9
$ELEVATION
 40
0.0
  9
$PELEVATION
 40
0.0
  9
$THICKNESS
 40
0.0
  9
$LIMCHECK
 70
     0
  9
$CHAMFERA
 40
0.5
  9
$CHAMFERB
 40
0.5
  9
$CHAMFERC
 40
1.0
  9
$CHAMFERD
 40
0.0
  9
$SKPOLY
 70
     0
  9
$TDCREATE
 40
2460559.6784375
  9
$TDUCREATE
 40
2460559.595104167
  9
$TDUPDATE
 40
2460559.678437511
  9
$TDUUPDATE
 40
2460559.595104178
  9
$TDINDWG
 40
0.0000000116
  9
$TDUSRTIMER
 40
0.0000000116
  9
$USRTIMER
 70
     1
  9
$ANGBASE
 50
0.0
  9
$ANGDIR
 70
     0
  9
$PDMODE
 70
     0
  9
$PDSIZE
 40
0.0
  9
$PLINEWID
 40
0.0
  9
$SPLFRAME
 70
     0
  9
$SPLINETYPE
 70
     6
  9
$SPLINESEGS
 70
     8
  9
$HANDSEED
  5
69
  9
$SURFTAB1
 70
     6
  9
$SURFTAB2
 70
     6
  9
$SURFTYPE
 70
     6
  9
$SURFU
 70
     6
  9
$SURFV
 70
     6
  9
$UCSBASE
  2

  9
$UCSNAME
  2

  9
$UCSORG
 10
0.0
 20
0.0
 30
0.0
  9
$UCSXDIR
 10
1.0
 20
0.0
 30
0.0
  9
$UCSYDIR
 10
0.0
 20
1.0
 30
0.0
  9
$UCSORTHOREF
  2

  9
$UCSORTHOVIEW
 70
     0
  9
$UCSORGTOP
 10
0.0
 20
0.0
 30
0.0
  9
$UCSORGBOTTOM
 10
0.0
 20
0.0
 30
0.0
  9
$UCSORGLEFT
 10
0.0
 20
0.0
 30
0.0
  9
$UCSORGRIGHT
 10
0.0
 20
0.0
 30
0.0
  9
$UCSORGFRONT
 10
0.0
 20
0.0
 30
0.0
  9
$UCSORGBACK
 10
0.0
 20
0.0
 30
0.0
  9
$PUCSBASE
  2

  9
$PUCSNAME
  2

  9
$PUCSORG
 10
0.0
 20
0.0
 30
0.0
  9
$PUCSXDIR
 10
1.0
 20
0.0
 30
0.0
  9
$PUCSYDIR
 10
0.0
 20
1.0
 30
0.0
  9
$PUCSORTHOREF
  2

  9
$PUCSORTHOVIEW
 70
     0
  9
$PUCSORGTOP
 10
0.0
 20
0.0
 30
0.0
  9
$PUCSORGBOTTOM
 10
0.0
 20
0.0
 30
0.0
  9
$PUCSORGLEFT
 10
0.0
 20
0.0
 30
0.0
  9
$PUCSORGRIGHT
 10
0.0
 20
0.0
 30
0.0
  9
$PUCSORGFRONT
 10
0.0
 20
0.0
 30
0.0
  9
$PUCSORGBACK
 10
0.0
 20
0.0
 30
0.0
  9
$USERI1
 70
     0
  9
$USERI2
 70
     0
  9
$USERI3
 70
     0
  9
$USERI4
 70
     0
  9
$USERI5
 70
     0
  9
$USERR1
 40
0.0
  9
$USERR2
 40
0.0
  9
$USERR3
 40
0.0
  9
$USERR4
 40
0.0
  9
$USERR5
 40
0.0
  9
$WORLDVIEW
 70
     1
  9
$SHADEDGE
 70
     3
  9
$SHADEDIF
 70
    70
  9
$TILEMODE
 70
     1
  9
$MAXACTVP
 70
    64
  9
$PINSBASE
 10
0.0
 20
0.0
 30
0.0
  9
$PLIMCHECK
 70
     0
  9
$PEXTMIN
 10
1.000000000000000E+20
 20
1.000000000000000E+20
 30
1.000000000000000E+20
  9
$PEXTMAX
 10
-1.000000000000000E+20
 20
-1.000000000000000E+20
 30
-1.000000000000000E+20
  9
$PLIMMIN
 10
0.0
 20
0.0
  9
$PLIMMAX
 10
12.0
 20
9.0
  9
$UNITMODE
 70
     0
  9
$VISRETAIN
 70
     1
  9
$PLINEGEN
 70
     0
  9
$PSLTSCALE
 70
     1
  9
$TREEDEPTH
 70
  3020
  9
$CMLSTYLE
  2
Standard
  9
$CMLJUST
 70
     0
  9
$CMLSCALE
 40
1.0
  9
$PROXYGRAPHICS
 70
     1
  9
$MEASUREMENT
 70
     0
  9
$CELWEIGHT
370
    -1
  9
$ENDCAPS
280
     0
  9
$JOINSTYLE
280
     0
  9
$LWDISPLAY
290
     1
  9
$INSUNITS
 70
     1
  9
$HYPERLINKBASE
  1

  9
$STYLESHEET
  1

  9
$XEDIT
290
     1
  9
$CEPSNTYPE
380
     0
  9
$PSTYLEMODE
290
     1
  9
$FINGERPRINTGUID
  2
{37D06EA5-B19F-3B2B-F5A0-C279C1607FA6}
  9
$VERSIONGUID
  2
{FAEB1C32-E019-11D5-929B-00C0DF256EC4}
  9
$EXTNAMES
290
     1
  9
$PSVPSCALE
 40
0.0
  9
$OLESTARTUP
290
     0
  9
$SORTENTS
280
   127
  9
$INDEXCTL
280
     0
  9
$HIDETEXT
280
     1
  9
$XCLIPFRAME
290
     0
  9
$HALOGAP
280
     0
  9
$OBSCOLOR
 70
   257
  9
$OBSLTYPE
280
     0
  9
$INTERSECTIONDISPLAY
280
     0
  9
$INTERSECTIONCOLOR
 70
   257
  9
$DIMASSOC
280
     2
  9
$PROJECTNAME
  1

  0
ENDSEC
  0
SECTION
  2
CLASSES
  0
CLASS
  1
ACDBDICTIONARYWDFLT
  2
AcDbDictionaryWithDefault
  3
ObjectDBX Classes
 90
        0
 91
        3
280
     0
281
     0
  0
CLASS
  1
VISUALSTYLE
  2
AcDbVisualStyle
  3
ObjectDBX Classes
 90
     4095
 91
        3
280
     0
281
     0
  0
ENDSEC
  0
SECTION
  2
TABLES
  0
TABLE
  2
VPORT
  5
8
330
0
100
AcDbSymbolTable
 70
     1
  0
VPORT
  5
29
330
8
100
AcDbSymbolTableRecord
100
AcDbViewportTableRecord
  2
*Active
 70
     0
 10
0.0
 20
0.0
 11
1.0
 21
1.0
 12
0.0
 22
0.0
 13
0.0
 23
0.0
 14
0.5
 24
0.5
 15
0.5
 25
0.5
 16
0.0
 26
0.0
 36
1.0
 17
4.133890787760416
 27
-5.846455891927083
 37
0.0
 40
11.69291178385417
 41
0.7070763662937378
 42
50.0
 43
0.0
 44
0.0
 50
0.0
 51
0.0
 71
     0
 72
   100
 73
     1
 74
     3
 75
     0
 76
     0
 77
     0
 78
     0
281
     0
 65
     1
110
0.0
120
0.0
130
0.0
111
1.0
121
0.0
131
0.0
112
0.0
122
1.0
132
0.0
 79
     0
146
0.0
  0
ENDTAB
  0
TABLE
  2
LTYPE
  5
5
330
0
100
AcDbSymbolTable
 70
     1
  0
LTYPE
  5
14
330
5
100
AcDbSymbolTableRecord
100
AcDbLinetypeTableRecord
  2
ByBlock
 70
     0
  3

 72
    65
 73
     0
 40
0.0
  0
LTYPE
  5
15
330
5
100
AcDbSymbolTableRecord
100
AcDbLinetypeTableRecord
  2
ByLayer
 70
     0
  3

 72
    65
 73
     0
 40
0.0
  0
LTYPE
  5
16
330
5
100
AcDbSymbolTableRecord
100
AcDbLinetypeTableRecord
  2
Continuous
 70
     0
  3
Solid line
 72
    65
 73
     0
 40
0.0
  0
ENDTAB
  0
TABLE
  2
LAYER
  5
2
330
0
100
AcDbSymbolTable
 70
     2
  0
LAYER
  5
10
330
2
100
AcDbSymbolTableRecord
100
AcDbLayerTableRecord
  2
0
 70
     0
 62
     7
  6
Continuous
370
    -3
390
F
  0
LAYER
  5
3B
330
2
100
AcDbSymbolTableRecord
100
AcDbLayerTableRecord
  2
Layer 1
 70
     0
 62
     7
  6
Continuous
370
    -3
390
F
  0
ENDTAB
  0
TABLE
  2
STYLE
  5
3
330
0
100
AcDbSymbolTable
 70
     1
  0
STYLE
  5
11
330
3
100
AcDbSymbolTableRecord
100
AcDbTextStyleTableRecord
  2
Standard
 70
     0
 40
0.0
 41
1.0
 50
0.0
 71
     0
 42
0.2
  3
txt
  4

  0
ENDTAB
  0
TABLE
  2
VIEW
  5
6
330
0
100
AcDbSymbolTable
 70
     0
  0
ENDTAB
  0
TABLE
  2
UCS
  5
7
330
0
100
AcDbSymbolTable
 70
     0
  0
ENDTAB
  0
TABLE
  2
APPID
  5
9
330
0
100
AcDbSymbolTable
 70
     1
  0
APPID
  5
12
330
9
100
AcDbSymbolTableRecord
100
AcDbRegAppTableRecord
  2
ACAD
 70
     0
  0
ENDTAB
  0
TABLE
  2
DIMSTYLE
  5
A
330
0
100
AcDbSymbolTable
 70
     1
100
AcDbDimStyleTable
  0
DIMSTYLE
105
27
330
A
100
AcDbSymbolTableRecord
100
AcDbDimStyleTableRecord
  2
Standard
 70
     0
340
11
  0
ENDTAB
  0
TABLE
  2
BLOCK_RECORD
  5
1
330
0
100
AcDbSymbolTable
 70
     1
  0
BLOCK_RECORD
  5
1F
330
1
100
AcDbSymbolTableRecord
100
AcDbBlockTableRecord
  2
*Model_Space
340
22
  0
BLOCK_RECORD
  5
1B
330
1
100
AcDbSymbolTableRecord
100
AcDbBlockTableRecord
  2
*Paper_Space
340
1E
  0
BLOCK_RECORD
  5
23
330
1
100
AcDbSymbolTableRecord
100
AcDbBlockTableRecord
  2
*Paper_Space0
340
26
  0
ENDTAB
  0
ENDSEC
  0
SECTION
  2
BLOCKS
  0
BLOCK
  5
20
330
1F
100
AcDbEntity
  8
0
100
AcDbBlockBegin
  2
*Model_Space
 70
     0
 71
     0
 10
0.0
 20
0.0
 30
0.0
  3
*Model_Space
  1

  0
ENDBLK
  5
21
330
1F
100
AcDbEntity
  8
0
100
AcDbBlockEnd
  0
BLOCK
  5
1C
330
1B
100
AcDbEntity
 67
     1
  8
0
100
AcDbBlockBegin
  2
*Paper_Space
 70
     0
 71
     0
 10
0.0
 20
0.0
 30
0.0
  3
*Paper_Space
  1

  0
ENDBLK
  5
1D
330
1B
100
AcDbEntity
 67
     1
  8
0
100
AcDbBlockEnd
  0
BLOCK
  5
24
330
23
100
AcDbEntity
  8
0
100
AcDbBlockBegin
  2
*Paper_Space0
 70
     0
 71
     0
 10
0.0
 20
0.0
 30
0.0
  3
*Paper_Space0
  1

  0
ENDBLK
  5
25
330
23
100
AcDbEntity
  8
0
100
AcDbBlockEnd
  0
ENDSEC
  0
SECTION
  2
ENTITIES
  0
SPLINE
  5
3C
330
1F
100
AcDbEntity
  8
Layer 1
370
     0
100
AcDbSpline
210
0.0
220
0.0
230
1.0
 70
    11
 71
     3
 72
    17
 73
    13
 74
     0
 42
0.0000000001
 43
0.0000000001
 40
0.0
 40
0.0
 40
0.0
 40
0.0
 40
1.0
 40
1.0
 40
1.0
 40
2.0
 40
2.0
 40
2.0
 40
3.0
 40
3.0
 40
3.0
 40
4.0
 40
4.0
 40
4.0
 40
4.0
 10
0.0
 20
-5.643683539496528
 30
0.0
 10
0.0
 20
-7.920518663194444
 30
0.0
 10
1.845703125
 20
-9.766560872395832
 30
0.0
 10
4.1226806640625
 20
-9.766560872395832
 30
0.0
 10
6.399468315972221
 20
-9.766560872395832
 30
0.0
 10
8.245442708333332
 20
-7.920518663194444
 30
0.0
 10
8.245442708333332
 20
-5.643683539496528
 30
0.0
 10
8.245442708333332
 20
-3.366963704427083
 30
0.0
 10
6.399468315972221
 20
-1.521260579427083
 30
0.0
 10
4.1226806640625
 20
-1.521260579427083
 30
0.0
 10
1.845703125
 20
-1.521260579427083
 30
0.0
 10
0.0
 20
-3.366963704427083
 30
0.0
 10
0.0
 20
-5.643683539496528
 30
0.0
  0
SPLINE
  5
3D
330
1F
100
AcDbEntity
  8
Layer 1
370
     0
100
AcDbSpline
210
0.0
220
0.0
230
1.0
 70
    11
 71
     3
 72
    65
 73
    61
 74
     0
 42
0.0000000001
 43
0.0000000001
 40
0.0
 40
0.0
 40
0.0
 40
0.0
 40
1.0
 40
1.0
 40
1.0
 40
2.0
 40
2.0
 40
2.0
 40
3.0
 40
3.0
 40
3.0
 40
4.0
 40
4.0
 40
4.0
 40
5.0
 40
5.0
 40
5.0
 40
6.0
 40
6.0
 40
6.0
 40
7.0
 40
7.0
 40
7.0
 40
8.0
 40
8.0
 40
8.0
 40
9.0
 40
9.0
 40
9.0
 40
10.0
 40
10.0
 40
10.0
 40
11.0
 40
11.0
 40
11.0
 40
12.0
 40
12.0
 40
12.0
 40
13.0
 40
13.0
 40
13.0
 40
14.0
 40
14.0
 40
14.0
 40
15.0
 40
15.0
 40
15.0
 40
16.0
 40
16.0
 40
16.0
 40
17.0
 40
17.0
 40
17.0
 40
18.0
 40
18.0
 40
18.0
 40
19.0
 40
19.0
 40
19.0
 40
20.0
 40
20.0
 40
20.0
 40
20.0
 10
1.122755262586806
 20
-3.312520345052083
 30
0.0
 10
1.122755262586806
 20
-3.312520345052083
 30
0.0
 10
1.122755262586806
 20
-3.265814887152778
 30
0.0
 10
1.122755262586806
 20
-3.265814887152778
 30
0.0
 10
1.124070909288194
 20
-3.264166937934028
 30
0.0
 10
1.125237358940972
 20
-3.262363009982639
 30
0.0
 10
1.126566569010417
 20
-3.260843912760417
 30
0.0
 10
1.127794053819444
 20
-3.262363009982639
 30
0.0
 10
1.12890625
 20
-3.264166937934028
 30
0.0
 10
1.130425347222222
 20
-3.265814887152778
 30
0.0
 10
1.130425347222222
 20
-3.265814887152778
 30
0.0
 10
1.130425347222222
 20
-3.312520345052083
 30
0.0
 10
1.130425347222222
 20
-3.312520345052083
 30
0.0
 10
1.348558213975694
 20
-3.595269097222222
 30
0.0
 10
1.528361002604167
 20
-3.908806694878472
 30
0.0
 10
1.661404079861111
 20
-4.246127658420138
 30
0.0
 10
1.650404188368055
 20
-4.247517903645833
 30
0.0
 10
1.639539930555555
 20
-4.249315049913195
 30
0.0
 10
1.628743489583333
 20
-4.250698513454861
 30
0.0
 10
1.606472439236111
 20
-4.253533257378472
 30
0.0
 10
1.584194607204861
 20
-4.256374782986111
 30
0.0
 10
1.561713324652778
 20
-4.259195963541666
 30
0.0
 10
1.535630967881944
 20
-4.262030707465278
 30
0.0
 10
1.509474012586806
 20
-4.264594184027778
 30
0.0
 10
1.483466254340278
 20
-4.267157660590278
 30
0.0
 10
1.46160888671875
 20
-4.269036187065972
 30
0.0
 10
1.439948187934028
 20
-4.271172417534722
 30
0.0
 10
1.418226453993056
 20
-4.27276611328125
 30
0.0
 10
1.387783474392361
 20
-4.274983723958333
 30
0.0
 10
1.357421875
 20
-4.276706271701388
 30
0.0
 10
1.326978895399306
 20
-4.278299967447916
 30
0.0
 10
1.309129503038194
 20
-4.279195149739583
 30
0.0
 10
1.291415744357639
 20
-4.280517578125
 30
0.0
 10
1.273505316840278
 20
-4.281134711371528
 30
0.0
 10
1.224514431423611
 20
-4.283216688368055
 30
0.0
 10
1.175679524739583
 20
-4.284186469184028
 30
0.0
 10
1.126213921440972
 20
-4.284186469184028
 30
0.0
 10
1.076809353298611
 20
-4.284186469184028
 30
0.0
 10
1.02777099609375
 20
-4.282999674479166
 30
0.0
 10
0.9789293077256944
 20
-4.281060112847222
 30
0.0
 10
0.9610053168402777
 20
-4.280517578125
 30
0.0
 10
0.943359375
 20
-4.279195149739583
 30
0.0
 10
0.9255845811631944
 20
-4.278299967447916
 30
0.0
 10
0.8950059678819444
 20
-4.276638454861111
 30
0.0
 10
0.8647800021701388
 20
-4.274834526909722
 30
0.0
 10
0.8343302408854166
 20
-4.272630479600695
 30
0.0
 10
0.8125406901041666
 20
-4.270968967013888
 30
0.0
 10
0.79095458984375
 20
-4.268968370225695
 30
0.0
 10
0.7693684895833333
 20
-4.266954210069445
 30
0.0
 10
0.7429402669270833
 20
-4.264397515190972
 30
0.0
 10
0.716796875
 20
-4.261766221788195
 30
0.0
 10
0.6907145182291666
 20
-4.258653428819445
 30
0.0
 10
0.6683688693576388
 20
-4.256157769097222
 30
0.0
 10
0.6460910373263888
 20
-4.253458658854166
 30
0.0
 10
0.6236707899305555
 20
-4.250413682725695
 30
0.0
 10
0.6127454969618055
 20
-4.248969184027778
 30
0.0
 10
0.6018812391493055
 20
-4.247239854600695
 30
0.0
 10
0.59088134765625
 20
-4.24578857421875
 30
0.0
 10
0.7241278754340278
 20
-3.908589680989583
 30
0.0
 10
0.9042087131076388
 20
-3.595058865017361
 30
0.0
 10
1.122755262586806
 20
-3.312520345052083
 30
0.0
  0
SPLINE
  5
3E
330
1F
100
AcDbEntity
  8
Layer 1
370
     0
100
AcDbSpline
210
0.0
220
0.0
230
1.0
 70
    11
 71
     3
 72
    83
 73
    79
 74
     0
 42
0.0000000001
 43
0.0000000001
 40
0.0
 40
0.0
 40
0.0
 40
0.0
 40
1.0
 40
1.0
 40
1.0
 40
2.0
 40
2.0
 40
2.0
 40
3.0
 40
3.0
 40
3.0
 40
4.0
 40
4.0
 40
4.0
 40
5.0
 40
5.0
 40
5.0
 40
6.0
 40
6.0
 40
6.0
 40
7.0
 40
7.0
 40
7.0
 40
8.0
 40
8.0
 40
8.0
 40
9.0
 40
9.0
 40
9.0
 40
10.0
 40
10.0
 40
10.0
 40
11.0
 40
11.0
 40
11.0
 40
12.0
 40
12.0
 40
12.0
 40
13.0
 40
13.0
 40
13.0
 40
14.0
 40
14.0
 40
14.0
 40
15.0
 40
15.0
 40
15.0
 40
16.0
 40
16.0
 40
16.0
 40
17.0
 40
17.0
 40
17.0
 40
18.0
 40
18.0
 40
18.0
 40
19.0
 40
19.0
 40
19.0
 40
20.0
 40
20.0
 40
20.0
 40
21.0
 40
21.0
 40
21.0
 40
22.0
 40
22.0
 40
22.0
 40
23.0
 40
23.0
 40
23.0
 40
24.0
 40
24.0
 40
24.0
 40
25.0
 40
25.0
 40
25.0
 40
26.0
 40
26.0
 40
26.0
 40
26.0
 10
0.47735595703125
 20
-4.577996148003472
 30
0.0
 10
0.5311075846354166
 20
-4.586371527777778
 30
0.0
 10
0.584865993923611
 20
-4.593695746527778
 30
0.0
 10
0.6392347547743055
 20
-4.599989149305555
 30
0.0
 10
0.6478203667534722
 20
-4.601026746961805
 30
0.0
 10
0.6569552951388888
 20
-4.601725260416666
 30
0.0
 10
0.665737575954861
 20
-4.602688259548611
 30
0.0
 10
0.7098795572916666
 20
-4.607611762152778
 30
0.0
 10
0.7540825737847222
 20
-4.6123046875
 30
0.0
 10
0.7986246744791666
 20
-4.615559895833333
 30
0.0
 10
0.8245171440972222
 20
-4.617560492621528
 30
0.0
 10
0.8506537543402777
 20
-4.618665907118055
 30
0.0
 10
0.8768107096354166
 20
-4.620273166232638
 30
0.0
 10
0.9045477973090277
 20
-4.6220703125
 30
0.0
 10
0.9323052300347222
 20
-4.624131944444444
 30
0.0
 10
0.96044921875
 20
-4.625311957465278
 30
0.0
 10
0.9956732855902777
 20
-4.626498752170138
 30
0.0
 10
1.031155056423611
 20
-4.626905653211805
 30
0.0
 10
1.066575792100694
 20
-4.627461751302083
 30
0.0
 10
1.085252549913194
 20
-4.627665201822916
 30
0.0
 10
1.103651258680556
 20
-4.628702799479166
 30
0.0
 10
1.122402615017361
 20
-4.628702799479166
 30
0.0
 10
1.122402615017361
 20
-4.628702799479166
 30
0.0
 10
1.122402615017361
 20
-4.628492567274305
 30
0.0
 10
1.122402615017361
 20
-4.628492567274305
 30
0.0
 10
1.122612847222222
 20
-4.628492567274305
 30
0.0
 10
1.122823079427083
 20
-4.628492567274305
 30
0.0
 10
1.123304578993056
 20
-4.628492567274305
 30
0.0
 10
1.123792860243056
 20
-4.628702799479166
 30
0.0
 10
1.124342176649306
 20
-4.628702799479166
 30
0.0
 10
1.125237358940972
 20
-4.628702799479166
 30
0.0
 10
1.125515407986111
 20
-4.628702799479166
 30
0.0
 10
1.125807020399306
 20
-4.628702799479166
 30
0.0
 10
1.125996907552083
 20
-4.628702799479166
 30
0.0
 10
1.126566569010417
 20
-4.628702799479166
 30
0.0
 10
1.126695421006944
 20
-4.628702799479166
 30
0.0
 10
1.127176920572917
 20
-4.628702799479166
 30
0.0
 10
1.127671983506944
 20
-4.628702799479166
 30
0.0
 10
1.12841796875
 20
-4.628702799479166
 30
0.0
 10
1.12890625
 20
-4.628492567274305
 30
0.0
 10
1.129326714409722
 20
-4.628492567274305
 30
0.0
 10
1.129597981770833
 20
-4.628492567274305
 30
0.0
 10
1.130086263020833
 20
-4.628492567274305
 30
0.0
 10
1.130086263020833
 20
-4.628492567274305
 30
0.0
 10
1.130086263020833
 20
-4.628702799479166
 30
0.0
 10
1.130086263020833
 20
-4.628702799479166
 30
0.0
 10
1.148627387152778
 20
-4.628702799479166
 30
0.0
 10
1.167107476128472
 20
-4.627665201822916
 30
0.0
 10
1.1859130859375
 20
-4.627461751302083
 30
0.0
 10
1.221198187934028
 20
-4.626905653211805
 30
0.0
 10
1.256625705295139
 20
-4.626627604166666
 30
0.0
 10
1.291836208767361
 20
-4.625461154513888
 30
0.0
 10
1.319851345486111
 20
-4.624274359809028
 30
0.0
 10
1.347520616319444
 20
-4.622138129340278
 30
0.0
 10
1.37554931640625
 20
-4.620469835069444
 30
0.0
 10
1.401557074652778
 20
-4.6190185546875
 30
0.0
 10
1.427639431423611
 20
-4.617763943142361
 30
0.0
 10
1.453518337673611
 20
-4.615831163194444
 30
0.0
 10
1.498135036892361
 20
-4.612372504340278
 30
0.0
 10
1.54254150390625
 20
-4.607821994357638
 30
0.0
 10
1.586412217881944
 20
-4.603040907118055
 30
0.0
 10
1.595411512586805
 20
-4.601935492621528
 30
0.0
 10
1.604458279079861
 20
-4.601311577690972
 30
0.0
 10
1.613328721788194
 20
-4.600341796875
 30
0.0
 10
1.667344835069444
 20
-4.594048394097222
 30
0.0
 10
1.721103244357639
 20
-4.586785210503472
 30
0.0
 10
1.774590386284722
 20
-4.578199598524305
 30
0.0
 10
1.803643120659722
 20
-4.677761501736111
 30
0.0
 10
1.828274197048611
 20
-4.779242621527778
 30
0.0
 10
1.849087185329861
 20
-4.881991916232638
 30
0.0
 10
1.587578667534722
 20
-5.007134331597222
 30
0.0
 10
1.344489203559028
 20
-5.172064887152778
 30
0.0
 10
1.125868055555556
 20
-5.372829861111111
 30
0.0
 10
0.9073893229166666
 20
-5.171922471788194
 30
0.0
 10
0.66448974609375
 20
-5.006707085503472
 30
0.0
 10
0.4030490451388888
 20
-4.881496853298611
 30
0.0
 10
0.4239501953125
 20
-4.778889973958333
 30
0.0
 10
0.4485677083333333
 20
-4.67755126953125
 30
0.0
 10
0.47735595703125
 20
-4.577996148003472
 30
0.0
  0
SPLINE
  5
3F
330
1F
100
AcDbEntity
  8
Layer 1
370
     0
100
AcDbSpline
210
0.0
220
0.0
230
1.0
 70
    11
 71
     3
 72
    35
 73
    31
 74
     0
 42
0.0000000001
 43
0.0000000001
 40
0.0
 40
0.0
 40
0.0
 40
0.0
 40
1.0
 40
1.0
 40
1.0
 40
2.0
 40
2.0
 40
2.0
 40
3.0
 40
3.0
 40
3.0
 40
4.0
 40
4.0
 40
4.0
 40
5.0
 40
5.0
 40
5.0
 40
6.0
 40
6.0
 40
6.0
 40
7.0
 40
7.0
 40
7.0
 40
8.0
 40
8.0
 40
8.0
 40
9.0
 40
9.0
 40
9.0
 40
10.0
 40
10.0
 40
10.0
 40
10.0
 10
1.354505750868056
 20
-5.640224880642361
 30
0.0
 10
1.355760362413194
 20
-5.639241536458333
 30
0.0
 10
1.357001410590278
 20
-5.638278537326388
 30
0.0
 10
1.358106825086806
 20
-5.636813693576388
 30
0.0
 10
1.358106825086806
 20
-5.636813693576388
 30
0.0
 10
1.350911458333333
 20
-5.636813693576388
 30
0.0
 10
1.350911458333333
 20
-5.636813693576388
 30
0.0
 10
1.350077311197917
 20
-5.636338975694444
 30
0.0
 10
1.349317762586806
 20
-5.635708279079861
 30
0.0
 10
1.348497178819444
 20
-5.634894476996528
 30
0.0
 10
1.51812744140625
 20
-5.477484809027778
 30
0.0
 10
1.704847547743055
 20
-5.345499674479166
 30
0.0
 10
1.90478515625
 20
-5.239786783854166
 30
0.0
 10
1.918613009982639
 20
-5.371378580729166
 30
0.0
 10
1.925876193576389
 20
-5.505242241753472
 30
0.0
 10
1.925876193576389
 20
-5.640407986111111
 30
0.0
 10
1.925740559895833
 20
-5.775668674045138
 30
0.0
 10
1.918355305989583
 20
-5.909450954861111
 30
0.0
 10
1.904568142361111
 20
-6.041259765625
 30
0.0
 10
1.704718695746528
 20
-5.935343424479166
 30
0.0
 10
1.51812744140625
 20
-5.803073459201388
 30
0.0
 10
1.348497178819444
 20
-5.645758734809028
 30
0.0
 10
1.349317762586806
 20
-5.644849989149305
 30
0.0
 10
1.350077311197917
 20
-5.644219292534722
 30
0.0
 10
1.350911458333333
 20
-5.643473307291666
 30
0.0
 10
1.350911458333333
 20
-5.643473307291666
 30
0.0
 10
1.358106825086806
 20
-5.643473307291666
 30
0.0
 10
1.358106825086806
 20
-5.643473307291666
 30
0.0
 10
1.357001410590278
 20
-5.642422146267361
 30
0.0
 10
1.355760362413194
 20
-5.641316731770833
 30
0.0
 10
1.354505750868056
 20
-5.640224880642361
 30
0.0
  0
SPLINE
  5
40
330
1F
100
AcDbEntity
  8
Layer 1
370
     0
100
AcDbSpline
210
0.0
220
0.0
230
1.0
 70
    11
 71
     3
 72
    35
 73
    31
 74
     0
 42
0.0000000001
 43
0.0000000001
 40
0.0
 40
0.0
 40
0.0
 40
0.0
 40
1.0
 40
1.0
 40
1.0
 40
2.0
 40
2.0
 40
2.0
 40
3.0
 40
3.0
 40
3.0
 40
4.0
 40
4.0
 40
4.0
 40
5.0
 40
5.0
 40
5.0
 40
6.0
 40
6.0
 40
6.0
 40
7.0
 40
7.0
 40
7.0
 40
8.0
 40
8.0
 40
8.0
 40
9.0
 40
9.0
 40
9.0
 40
10.0
 40
10.0
 40
10.0
 40
10.0
 10
0.3258395724826389
 20
-5.639940049913194
 30
0.0
 10
0.3260565863715277
 20
-5.504611545138888
 30
0.0
 10
0.3333197699652777
 20
-5.370958116319444
 30
0.0
 10
0.3470730251736111
 20
-5.239223904079861
 30
0.0
 10
0.547085232204861
 20
-5.345079210069444
 30
0.0
 10
0.7336018880208333
 20
-5.477227105034722
 30
0.0
 10
0.9031711154513888
 20
-5.634894476996528
 30
0.0
 10
0.9024115668402777
 20
-5.635572645399305
 30
0.0
 10
0.9016520182291666
 20
-5.636135525173611
 30
0.0
 10
0.9008043077256944
 20
-5.636813693576388
 30
0.0
 10
0.9008043077256944
 20
-5.636813693576388
 30
0.0
 10
0.8934190538194444
 20
-5.636813693576388
 30
0.0
 10
0.8934190538194444
 20
-5.636813693576388
 30
0.0
 10
0.8945990668402777
 20
-5.638075086805555
 30
0.0
 10
0.8959757486979166
 20
-5.639241536458333
 30
0.0
 10
0.8970811631944444
 20
-5.640224880642361
 30
0.0
 10
0.8959757486979166
 20
-5.641255696614583
 30
0.0
 10
0.8945990668402777
 20
-5.642164442274305
 30
0.0
 10
0.8934190538194444
 20
-5.643398708767361
 30
0.0
 10
0.8934190538194444
 20
-5.643398708767361
 30
0.0
 10
0.9008043077256944
 20
-5.643398708767361
 30
0.0
 10
0.9008043077256944
 20
-5.643398708767361
 30
0.0
 10
0.9016520182291666
 20
-5.644002278645833
 30
0.0
 10
0.9024115668402777
 20
-5.644775390625
 30
0.0
 10
0.9031711154513888
 20
-5.645480685763888
 30
0.0
 10
0.7333306206597222
 20
-5.803005642361111
 30
0.0
 10
0.5466783311631944
 20
-5.935004340277778
 30
0.0
 10
0.3470119900173611
 20
-6.040703667534722
 30
0.0
 10
0.3328925238715277
 20
-5.909071180555555
 30
0.0
 10
0.3259141710069444
 20
-5.775180392795138
 30
0.0
 10
0.3258395724826389
 20
-5.639940049913194
 30
0.0
  0
SPLINE
  5
41
330
1F
100
AcDbEntity
  8
Layer 1
370
     0
100
AcDbSpline
210
0.0
220
0.0
230
1.0
 70
    11
 71
     3
 72
    68
 73
    64
 74
     0
 42
0.0000000001
 43
0.0000000001
 40
0.0
 40
0.0
 40
0.0
 40
0.0
 40
1.0
 40
1.0
 40
1.0
 40
2.0
 40
2.0
 40
2.0
 40
3.0
 40
3.0
 40
3.0
 40
4.0
 40
4.0
 40
4.0
 40
5.0
 40
5.0
 40
5.0
 40
6.0
 40
6.0
 40
6.0
 40
7.0
 40
7.0
 40
7.0
 40
8.0
 40
8.0
 40
8.0
 40
9.0
 40
9.0
 40
9.0
 40
10.0
 40
10.0
 40
10.0
 40
11.0
 40
11.0
 40
11.0
 40
12.0
 40
12.0
 40
12.0
 40
13.0
 40
13.0
 40
13.0
 40
14.0
 40
14.0
 40
14.0
 40
15.0
 40
15.0
 40
15.0
 40
16.0
 40
16.0
 40
16.0
 40
17.0
 40
17.0
 40
17.0
 40
18.0
 40
18.0
 40
18.0
 40
19.0
 40
19.0
 40
19.0
 40
20.0
 40
20.0
 40
20.0
 40
21.0
 40
21.0
 40
21.0
 40
21.0
 10
0.4025607638888888
 20
-6.398518880208333
 30
0.0
 10
0.6640082465277778
 20
-6.273356119791666
 30
0.0
 10
0.9071858723958333
 20
-6.108357747395833
 30
0.0
 10
1.125807020399306
 20
-5.907524956597222
 30
0.0
 10
1.344278971354167
 20
-6.108425564236111
 30
0.0
 10
1.587300618489583
 20
-6.273491753472221
 30
0.0
 10
1.848612467447917
 20
-6.39892578125
 30
0.0
 10
1.827711317274305
 20
-6.501600477430555
 30
0.0
 10
1.80316162109375
 20
-6.602796766493055
 30
0.0
 10
1.774027506510417
 20
-6.702501085069444
 30
0.0
 10
1.720486111111111
 20
-6.694064670138888
 30
0.0
 10
1.666659884982639
 20
-6.686740451388888
 30
0.0
 10
1.61248779296875
 20
-6.680501302083333
 30
0.0
 10
1.603847927517361
 20
-6.67919921875
 30
0.0
 10
1.594706217447917
 20
-6.678765190972221
 30
0.0
 10
1.585781521267361
 20
-6.677598741319444
 30
0.0
 10
1.541856553819444
 20
-6.672824435763888
 30
0.0
 10
1.497646755642361
 20
-6.668185763888888
 30
0.0
 10
1.453023274739583
 20
-6.664659288194444
 30
0.0
 10
1.427083333333333
 20
-6.662651909722221
 30
0.0
 10
1.4010009765625
 20
-6.661702473958333
 30
0.0
 10
1.374925401475694
 20
-6.659966362847221
 30
0.0
 10
1.346903483072917
 20
-6.658311631944444
 30
0.0
 10
1.319308810763889
 20
-6.656304253472221
 30
0.0
 10
1.291354709201389
 20
-6.655164930555555
 30
0.0
 10
1.256062825520833
 20
-6.653510199652778
 30
0.0
 10
1.220648871527778
 20
-6.653374565972221
 30
0.0
 10
1.185153537326389
 20
-6.653021918402778
 30
0.0
 10
1.166612413194444
 20
-6.652628580729166
 30
0.0
 10
1.148003472222222
 20
-6.651719835069444
 30
0.0
 10
1.129326714409722
 20
-6.651719835069444
 30
0.0
 10
1.128363715277778
 20
-6.651719835069444
 30
0.0
 10
1.127461751302083
 20
-6.651719835069444
 30
0.0
 10
1.126424153645833
 20
-6.651719835069444
 30
0.0
 10
1.125807020399306
 20
-6.651719835069444
 30
0.0
 10
1.125237358940972
 20
-6.651719835069444
 30
0.0
 10
1.124409993489583
 20
-6.651719835069444
 30
0.0
 10
1.123514811197917
 20
-6.651719835069444
 30
0.0
 10
1.122612847222222
 20
-6.651719835069444
 30
0.0
 10
1.12164306640625
 20
-6.651719835069444
 30
0.0
 10
1.10296630859375
 20
-6.651719835069444
 30
0.0
 10
1.084499782986111
 20
-6.652628580729166
 30
0.0
 10
1.066019694010417
 20
-6.653021918402778
 30
0.0
 10
1.030463324652778
 20
-6.653306749131944
 30
0.0
 10
0.9951036241319444
 20
-6.653510199652778
 30
0.0
 10
0.9598320855034722
 20
-6.654961480034721
 30
0.0
 10
0.9317355685763888
 20
-6.656222873263888
 30
0.0
 10
0.9039306640625
 20
-6.658162434895833
 30
0.0
 10
0.876186794704861
 20
-6.659749348958333
 30
0.0
 10
0.8499688042534722
 20
-6.661349826388888
 30
0.0
 10
0.8239474826388888
 20
-6.662434895833333
 30
0.0
 10
0.7982177734375
 20
-6.664455837673611
 30
0.0
 10
0.7533908420138888
 20
-6.668050130208333
 30
0.0
 10
0.7092488606770833
 20
-6.672553168402778
 30
0.0
 10
0.6653917100694444
 20
-6.677395290798611
 30
0.0
 10
0.6563924153645833
 20
-6.678412543402778
 30
0.0
 10
0.6471964518229166
 20
-6.678914388020833
 30
0.0
 10
0.6384209526909722
 20
-6.680026584201388
 30
0.0
 10
0.58416748046875
 20
-6.686387803819444
 30
0.0
 10
0.530483669704861
 20
-6.693305121527778
 30
0.0
 10
0.4769422743055555
 20
-6.702012803819444
 30
0.0
 10
0.4480183919270833
 20
-6.6025390625
 30
0.0
 10
0.4235975477430555
 20
-6.501180013020833
 30
0.0
 10
0.4025607638888888
 20
-6.398518880208333
 30
0.0
  0
SPLINE
  5
42
330
1F
100
AcDbEntity
  8
Layer 1
370
     0
100
AcDbSpline
210
0.0
220
0.0
230
1.0
 70
    11
 71
     3
 72
    65
 73
    61
 74
     0
 42
0.0000000001
 43
0.0000000001
 40
0.0
 40
0.0
 40
0.0
 40
0.0
 40
1.0
 40
1.0
 40
1.0
 40
2.0
 40
2.0
 40
2.0
 40
3.0
 40
3.0
 40
3.0
 40
4.0
 40
4.0
 40
4.0
 40
5.0
 40
5.0
 40
5.0
 40
6.0
 40
6.0
 40
6.0
 40
7.0
 40
7.0
 40
7.0
 40
8.0
 40
8.0
 40
8.0
 40
9.0
 40
9.0
 40
9.0
 40
10.0
 40
10.0
 40
10.0
 40
11.0
 40
11.0
 40
11.0
 40
12.0
 40
12.0
 40
12.0
 40
13.0
 40
13.0
 40
13.0
 40
14.0
 40
14.0
 40
14.0
 40
15.0
 40
15.0
 40
15.0
 40
16.0
 40
16.0
 40
16.0
 40
17.0
 40
17.0
 40
17.0
 40
18.0
 40
18.0
 40
18.0
 40
19.0
 40
19.0
 40
19.0
 40
20.0
 40
20.0
 40
20.0
 40
20.0
 10
1.12890625
 20
-7.967841254340278
 30
0.0
 10
1.12890625
 20
-7.967841254340278
 30
0.0
 10
1.12890625
 20
-8.014472113715277
 30
0.0
 10
1.12890625
 20
-8.014472113715277
 30
0.0
 10
1.127671983506944
 20
-8.016343858506945
 30
0.0
 10
1.126424153645833
 20
-8.018012152777777
 30
0.0
 10
1.125101725260417
 20
-8.0196533203125
 30
0.0
 10
1.123792860243056
 20
-8.018012152777777
 30
0.0
 10
1.122612847222222
 20
-8.016343858506945
 30
0.0
 10
1.121222601996528
 20
-8.014472113715277
 30
0.0
 10
1.121222601996528
 20
-8.014472113715277
 30
0.0
 10
1.121222601996528
 20
-7.967841254340278
 30
0.0
 10
1.121222601996528
 20
-7.967841254340278
 30
0.0
 10
0.9030287000868055
 20
-7.685099283854166
 30
0.0
 10
0.7230902777777778
 20
-7.371568467881944
 30
0.0
 10
0.589992947048611
 20
-7.034166124131944
 30
0.0
 10
0.60125732421875
 20
-7.032931857638888
 30
0.0
 10
0.6120537651909722
 20
-7.031100802951388
 30
0.0
 10
0.6228502061631944
 20
-7.029513888888888
 30
0.0
 10
0.6453314887152778
 20
-7.026611328125
 30
0.0
 10
0.6676771375868055
 20
-7.023912217881944
 30
0.0
 10
0.6899549696180555
 20
-7.0213623046875
 30
0.0
 10
0.7158949110243055
 20
-7.018473307291666
 30
0.0
 10
0.7420450846354166
 20
-7.015611436631944
 30
0.0
 10
0.7684665256076388
 20
-7.013346354166666
 30
0.0
 10
0.78997802734375
 20
-7.011338975694444
 30
0.0
 10
0.8117811414930555
 20
-7.009331597222221
 30
0.0
 10
0.8335096571180555
 20
-7.007527669270833
 30
0.0
 10
0.8638034396701388
 20
-7.005235460069444
 30
0.0
 10
0.8941786024305555
 20
-7.003512912326388
 30
0.0
 10
0.9246148003472222
 20
-7.001993815104166
 30
0.0
 10
0.9426744249131944
 20
-7.000949435763888
 30
0.0
 10
0.9602389865451388
 20
-6.999986436631944
 30
0.0
 10
0.97808837890625
 20
-6.998955620659721
 30
0.0
 10
1.026869032118056
 20
-6.997233072916666
 30
0.0
 10
1.0760498046875
 20
-6.996310763888888
 30
0.0
 10
1.125379774305556
 20
-6.996039496527778
 30
0.0
 10
1.175048828125
 20
-6.996310763888888
 30
0.0
 10
1.223829481336806
 20
-6.997233072916666
 30
0.0
 10
1.272738986545139
 20
-6.999213324652778
 30
0.0
 10
1.290785047743056
 20
-7.0001220703125
 30
0.0
 10
1.308295355902778
 20
-7.001152886284721
 30
0.0
 10
1.326009114583333
 20
-7.001993815104166
 30
0.0
 10
1.356519911024306
 20
-7.003512912326388
 30
0.0
 10
1.386956108940972
 20
-7.005452473958333
 30
0.0
 10
1.417256673177083
 20
-7.007785373263888
 30
0.0
 10
1.439053005642361
 20
-7.009467230902778
 30
0.0
 10
1.460639105902778
 20
-7.011474609375
 30
0.0
 10
1.482564290364583
 20
-7.013604058159721
 30
0.0
 10
1.508646647135417
 20
-7.016181098090278
 30
0.0
 10
1.534871419270833
 20
-7.0186767578125
 30
0.0
 10
1.560885959201389
 20
-7.021647135416666
 30
0.0
 10
1.583157009548611
 20
-7.024197048611111
 30
0.0
 10
1.605645073784722
 20
-7.026963975694444
 30
0.0
 10
1.627916124131944
 20
-7.029866536458333
 30
0.0
 10
1.638990614149305
 20
-7.031385633680555
 30
0.0
 10
1.649644639756944
 20
-7.033243815104166
 30
0.0
 10
1.660698784722222
 20
-7.034518771701388
 30
0.0
 10
1.527398003472222
 20
-7.371758355034721
 30
0.0
 10
1.347520616319444
 20
-7.685099283854166
 30
0.0
 10
1.12890625
 20
-7.967841254340278
 30
0.0
  0
SPLINE
  5
43
330
1F
100
AcDbEntity
  8
Layer 1
370
     0
100
AcDbSpline
210
0.0
220
0.0
230
1.0
 70
    11
 71
     3
 72
    77
 73
    73
 74
     0
 42
0.0000000001
 43
0.0000000001
 40
0.0
 40
0.0
 40
0.0
 40
0.0
 40
1.0
 40
1.0
 40
1.0
 40
2.0
 40
2.0
 40
2.0
 40
3.0
 40
3.0
 40
3.0
 40
4.0
 40
4.0
 40
4.0
 40
5.0
 40
5.0
 40
5.0
 40
6.0
 40
6.0
 40
6.0
 40
7.0
 40
7.0
 40
7.0
 40
8.0
 40
8.0
 40
8.0
 40
9.0
 40
9.0
 40
9.0
 40
10.0
 40
10.0
 40
10.0
 40
11.0
 40
11.0
 40
11.0
 40
12.0
 40
12.0
 40
12.0
 40
13.0
 40
13.0
 40
13.0
 40
14.0
 40
14.0
 40
14.0
 40
15.0
 40
15.0
 40
15.0
 40
16.0
 40
16.0
 40
16.0
 40
17.0
 40
17.0
 40
17.0
 40
18.0
 40
18.0
 40
18.0
 40
19.0
 40
19.0
 40
19.0
 40
20.0
 40
20.0
 40
20.0
 40
21.0
 40
21.0
 40
21.0
 40
22.0
 40
22.0
 40
22.0
 40
23.0
 40
23.0
 40
23.0
 40
24.0
 40
24.0
 40
24.0
 40
24.0
 10
1.782335069444444
 20
-8.360663519965277
 30
0.0
 10
1.75921630859375
 20
-8.374064127604166
 30
0.0
 10
1.736321343315972
 20
-8.388115776909721
 30
0.0
 10
1.713494194878472
 20
-8.402086046006945
 30
0.0
 10
1.706644694010417
 20
-8.406453450520832
 30
0.0
 10
1.699381510416667
 20
-8.410603841145832
 30
0.0
 10
1.692464192708333
 20
-8.415093315972221
 30
0.0
 10
1.666659884982639
 20
-8.43100314670139
 30
0.0
 10
1.6414794921875
 20
-8.447618272569445
 30
0.0
 10
1.616712782118055
 20
-8.464369032118055
 30
0.0
 10
1.613050672743055
 20
-8.46676974826389
 30
0.0
 10
1.609456380208333
 20
-8.46921115451389
 30
0.0
 10
1.605848524305555
 20
-8.4715576171875
 30
0.0
 10
1.5953369140625
 20
-8.478691948784721
 30
0.0
 10
1.584479437934028
 20
-8.485663519965277
 30
0.0
 10
1.573893229166667
 20
-8.492865668402777
 30
0.0
 10
1.490797254774306
 20
-8.4188232421875
 30
0.0
 10
1.410698784722222
 20
-8.34133572048611
 30
0.0
 10
1.334377712673611
 20
-8.260674370659721
 30
0.0
 10
1.616224500868055
 20
-7.914727105034721
 30
0.0
 10
1.84466552734375
 20
-7.523980034722221
 30
0.0
 10
2.004604763454861
 20
-7.099392361111111
 30
0.0
 10
2.012919108072917
 20
-7.101467556423611
 30
0.0
 10
2.021355523003472
 20
-7.103271484375
 30
0.0
 10
2.029791937934028
 20
-7.105061848958333
 30
0.0
 10
2.051378038194444
 20
-7.110392252604166
 30
0.0
 10
2.072536892361111
 20
-7.116495768229166
 30
0.0
 10
2.094082302517361
 20
-7.121812608506944
 30
0.0
 10
2.123670789930555
 20
-7.129638671875
 30
0.0
 10
2.153272840711805
 20
-7.137315538194444
 30
0.0
 10
2.182827419704861
 20
-7.145901150173611
 30
0.0
 10
2.200602213541667
 20
-7.151014539930555
 30
0.0
 10
2.2178955078125
 20
-7.156494140625
 30
0.0
 10
2.235276963975694
 20
-7.162027994791666
 30
0.0
 10
2.267978244357639
 20
-7.171617296006944
 30
0.0
 10
2.300638834635417
 20
-7.181776258680555
 30
0.0
 10
2.33294677734375
 20
-7.192532009548611
 30
0.0
 10
2.334255642361111
 20
-7.192925347222221
 30
0.0
 10
2.335659450954861
 20
-7.193345811631944
 30
0.0
 10
2.3370361328125
 20
-7.193983289930555
 30
0.0
 10
2.312811957465278
 20
-7.491400824652778
 30
0.0
 10
2.3338623046875
 20
-7.792941623263888
 30
0.0
 10
2.401373969184028
 20
-8.090983072916666
 30
0.0
 10
2.400132921006944
 20
-8.09140353732639
 30
0.0
 10
2.399013943142361
 20
-8.09182400173611
 30
0.0
 10
2.397772894965278
 20
-8.09228515625
 30
0.0
 10
2.36444091796875
 20
-8.102471245659721
 30
0.0
 10
2.331075032552083
 20
-8.113416883680555
 30
0.0
 10
2.298346625434028
 20
-8.124945746527777
 30
0.0
 10
2.294609917534722
 20
-8.126044379340277
 30
0.0
 10
2.290968153211805
 20
-8.12717013888889
 30
0.0
 10
2.287509494357639
 20
-8.128404405381945
 30
0.0
 10
2.253872341579861
 20
-8.140177408854166
 30
0.0
 10
2.220465766059028
 20
-8.152628580729166
 30
0.0
 10
2.187527126736111
 20
-8.165581597222221
 30
0.0
 10
2.184977213541667
 20
-8.166463216145832
 30
0.0
 10
2.182271321614583
 20
-8.16762966579861
 30
0.0
 10
2.179796006944444
 20
-8.168538411458332
 30
0.0
 10
2.108934190538194
 20
-8.1964111328125
 30
0.0
 10
2.03955078125
 20
-8.226982964409721
 30
0.0
 10
1.971408420138889
 20
-8.25986056857639
 30
0.0
 10
1.960055881076389
 20
-8.26547580295139
 30
0.0
 10
1.948723687065972
 20
-8.271538628472221
 30
0.0
 10
1.937445746527778
 20
-8.277140299479166
 30
0.0
 10
1.916748046875
 20
-8.287584092881945
 30
0.0
 10
1.895860460069444
 20
-8.297987196180555
 30
0.0
 10
1.875508626302083
 20
-8.308783637152777
 30
0.0
 10
1.855455186631944
 20
-8.319349500868055
 30
0.0
 10
1.835944281684028
 20
-8.330620659722221
 30
0.0
 10
1.816026475694444
 20
-8.341620551215277
 30
0.0
 10
1.804958767361111
 20
-8.34792751736111
 30
0.0
 10
1.793463812934028
 20
-8.354139539930555
 30
0.0
 10
1.782335069444444
 20
-8.360663519965277
 30
0.0
  0
SPLINE
  5
44
330
1F
100
AcDbEntity
  8
Layer 1
370
     0
100
AcDbSpline
210
0.0
220
0.0
230
1.0
 70
    11
 71
     3
 72
    26
 73
    22
 74
     0
 42
0.0000000001
 43
0.0000000001
 40
0.0
 40
0.0
 40
0.0
 40
0.0
 40
1.0
 40
1.0
 40
1.0
 40
2.0
 40
2.0
 40
2.0
 40
3.0
 40
3.0
 40
3.0
 40
4.0
 40
4.0
 40
4.0
 40
5.0
 40
5.0
 40
5.0
 40
6.0
 40
6.0
 40
6.0
 40
7.0
 40
7.0
 40
7.0
 40
7.0
 10
2.172946506076389
 20
-6.530734592013888
 30
0.0
 10
2.262376573350694
 20
-6.561170789930555
 30
0.0
 10
2.353298611111111
 20
-6.587660047743055
 30
0.0
 10
2.445712619357639
 20
-6.609388563368055
 30
0.0
 10
2.422465006510417
 20
-6.688042534722221
 30
0.0
 10
2.40289306640625
 20
-6.767469618055555
 30
0.0
 10
2.3863525390625
 20
-6.847574869791666
 30
0.0
 10
2.370720757378472
 20
-6.842529296875
 30
0.0
 10
2.354600694444444
 20
-6.838161892361111
 30
0.0
 10
2.338555230034722
 20
-6.833197699652778
 30
0.0
 10
2.311008029513889
 20
-6.825005425347221
 30
0.0
 10
2.283698187934028
 20
-6.816514756944444
 30
0.0
 10
2.256022135416667
 20
-6.808634440104166
 30
0.0
 10
2.228549533420139
 20
-6.800944010416666
 30
0.0
 10
2.200602213541667
 20
-6.7938232421875
 30
0.0
 10
2.1728515625
 20
-6.786566840277778
 30
0.0
 10
2.1529541015625
 20
-6.781575520833333
 30
0.0
 10
2.133232964409722
 20
-6.775485568576388
 30
0.0
 10
2.113301595052083
 20
-6.770643446180555
 30
0.0
 10
2.135498046875
 20
-6.691636827256944
 30
0.0
 10
2.15521240234375
 20
-6.611545138888888
 30
0.0
 10
2.172946506076389
 20
-6.530734592013888
 30
0.0
  0
SPLINE
  5
45
330
1F
100
AcDbEntity
  8
Layer 1
370
     0
100
AcDbSpline
210
0.0
220
0.0
230
1.0
 70
    11
 71
     3
 72
    26
 73
    22
 74
     0
 42
0.0000000001
 43
0.0000000001
 40
0.0
 40
0.0
 40
0.0
 40
0.0
 40
1.0
 40
1.0
 40
1.0
 40
2.0
 40
2.0
 40
2.0
 40
3.0
 40
3.0
 40
3.0
 40
4.0
 40
4.0
 40
4.0
 40
5.0
 40
5.0
 40
5.0
 40
6.0
 40
6.0
 40
6.0
 40
7.0
 40
7.0
 40
7.0
 40
7.0
 10
2.113796657986111
 20
-4.510396321614583
 30
0.0
 10
2.1339111328125
 20
-4.505567762586805
 30
0.0
 10
2.15362548828125
 20
-4.499606662326388
 30
0.0
 10
2.173482259114583
 20
-4.49456787109375
 30
0.0
 10
2.20123291015625
 20
-4.48736572265625
 30
0.0
 10
2.229105631510417
 20
-4.480170355902778
 30
0.0
 10
2.25665283203125
 20
-4.472412109375
 30
0.0
 10
2.284308539496528
 20
-4.464470757378472
 30
0.0
 10
2.311923556857639
 20
-4.456102159288194
 30
0.0
 10
2.339185926649305
 20
-4.44793701171875
 30
0.0
 10
2.355231391059028
 20
-4.442884657118055
 30
0.0
 10
2.371426052517361
 20
-4.438381618923611
 30
0.0
 10
2.38726806640625
 20
-4.433539496527778
 30
0.0
 10
2.403523763020833
 20
-4.513651529947916
 30
0.0
 10
2.423312717013889
 20
-4.593146430121528
 30
0.0
 10
2.446268717447917
 20
-4.671875
 30
0.0
 10
2.353969997829861
 20
-4.693528917100694
 30
0.0
 10
2.262858072916667
 20
-4.720018174913194
 30
0.0
 10
2.173482259114583
 20
-4.750325520833333
 30
0.0
 10
2.155775282118055
 20
-4.669589572482638
 30
0.0
 10
2.136271158854167
 20
-4.589267306857638
 30
0.0
 10
2.113796657986111
 20
-4.510396321614583
 30
0.0
  0
SPLINE
  5
46
330
1F
100
AcDbEntity
  8
Layer 1
370
     0
100
AcDbSpline
210
0.0
220
0.0
230
1.0
 70
    11
 71
     3
 72
    20
 73
    16
 74
     0
 42
0.0000000001
 43
0.0000000001
 40
0.0
 40
0.0
 40
0.0
 40
0.0
 40
1.0
 40
1.0
 40
1.0
 40
2.0
 40
2.0
 40
2.0
 40
3.0
 40
3.0
 40
3.0
 40
4.0
 40
4.0
 40
4.0
 40
5.0
 40
5.0
 40
5.0
 40
5.0
 10
2.559319390190972
 20
-9.129340277777777
 30
0.0
 10
2.309000651041667
 20
-9.017740885416666
 30
0.0
 10
2.073099772135417
 20
-8.88015407986111
 30
0.0
 10
1.854838053385417
 20
-8.719970703125
 30
0.0
 10
2.050957573784722
 20
-8.593994140625
 30
0.0
 10
2.264451768663194
 20
-8.494099934895832
 30
0.0
 10
2.492133246527778
 20
-8.423204210069445
 30
0.0
 10
2.492133246527778
 20
-8.423204210069445
 30
0.0
 10
2.497246636284722
 20
-8.44028049045139
 30
0.0
 10
2.497246636284722
 20
-8.44028049045139
 30
0.0
 10
2.497246636284722
 20
-8.44028049045139
 30
0.0
 10
2.498928493923611
 20
-8.439927842881945
 30
0.0
 10
2.498928493923611
 20
-8.439927842881945
 30
0.0
 10
2.549689398871528
 20
-8.668877495659721
 30
0.0
 10
2.569688585069444
 20
-8.900336371527777
 30
0.0
 10
2.559319390190972
 20
-9.129340277777777
 30
0.0
  0
SPLINE
  5
47
330
1F
100
AcDbEntity
  8
Layer 1
370
     0
100
AcDbSpline
210
0.0
220
0.0
230
1.0
 70
    11
 71
     3
 72
    41
 73
    37
 74
     0
 42
0.0000000001
 43
0.0000000001
 40
0.0
 40
0.0
 40
0.0
 40
0.0
 40
1.0
 40
1.0
 40
1.0
 40
2.0
 40
2.0
 40
2.0
 40
3.0
 40
3.0
 40
3.0
 40
4.0
 40
4.0
 40
4.0
 40
5.0
 40
5.0
 40
5.0
 40
6.0
 40
6.0
 40
6.0
 40
7.0
 40
7.0
 40
7.0
 40
8.0
 40
8.0
 40
8.0
 40
9.0
 40
9.0
 40
9.0
 40
10.0
 40
10.0
 40
10.0
 40
11.0
 40
11.0
 40
11.0
 40
12.0
 40
12.0
 40
12.0
 40
12.0
 10
2.233683268229167
 20
-6.187581380208333
 30
0.0
 10
2.257466634114583
 20
-6.009521484375
 30
0.0
 10
2.269849989149305
 20
-5.82818603515625
 30
0.0
 10
2.270128038194444
 20
-5.643819173177083
 30
0.0
 10
2.270128038194444
 20
-5.643819173177083
 30
0.0
 10
2.270338270399305
 20
-5.643819173177083
 30
0.0
 10
2.270338270399305
 20
-5.643819173177083
 30
0.0
 10
2.270338270399305
 20
-5.642768012152778
 30
0.0
 10
2.270338270399305
 20
-5.641533745659722
 30
0.0
 10
2.270338270399305
 20
-5.640407986111111
 30
0.0
 10
2.270338270399305
 20
-5.639383951822916
 30
0.0
 10
2.270338270399305
 20
-5.638427734375
 30
0.0
 10
2.270338270399305
 20
-5.637227376302083
 30
0.0
 10
2.270338270399305
 20
-5.637227376302083
 30
0.0
 10
2.270128038194444
 20
-5.637227376302083
 30
0.0
 10
2.270128038194444
 20
-5.637227376302083
 30
0.0
 10
2.269924587673611
 20
-5.453145345052083
 30
0.0
 10
2.257541232638889
 20
-5.271531846788194
 30
0.0
 10
2.233940972222222
 20
-5.093614366319444
 30
0.0
 10
2.340989854600694
 20
-5.054931640625
 30
0.0
 10
2.450968424479167
 20
-5.023111979166666
 30
0.0
 10
2.563198513454861
 20
-4.9984130859375
 30
0.0
 10
2.610643174913194
 20
-5.110344780815972
 30
0.0
 10
2.664326985677083
 20
-5.219997829861111
 30
0.0
 10
2.726047092013889
 20
-5.327507866753472
 30
0.0
 10
2.788655598958333
 20
-5.436184353298611
 30
0.0
 10
2.858039008246528
 20
-5.54107666015625
 30
0.0
 10
2.93365478515625
 20
-5.640760633680555
 30
0.0
 10
2.857964409722222
 20
-5.740464952256944
 30
0.0
 10
2.788377549913194
 20
-5.845262315538194
 30
0.0
 10
2.72576904296875
 20
-5.954006618923611
 30
0.0
 10
2.663906521267361
 20
-6.061116536458333
 30
0.0
 10
2.610432942708333
 20
-6.170979817708333
 30
0.0
 10
2.562845865885417
 20
-6.282850477430555
 30
0.0
 10
2.450615776909722
 20
-6.258219401041666
 30
0.0
 10
2.3406982421875
 20
-6.226128472222221
 30
0.0
 10
2.233683268229167
 20
-6.187581380208333
 30
0.0
  0
SPLINE
  5
48
330
1F
100
AcDbEntity
  8
Layer 1
370
     0
100
AcDbSpline
210
0.0
220
0.0
230
1.0
 70
    11
 71
     3
 72
   161
 73
   157
 74
     0
 42
0.0000000001
 43
0.0000000001
 40
0.0
 40
0.0
 40
0.0
 40
0.0
 40
1.0
 40
1.0
 40
1.0
 40
2.0
 40
2.0
 40
2.0
 40
3.0
 40
3.0
 40
3.0
 40
4.0
 40
4.0
 40
4.0
 40
5.0
 40
5.0
 40
5.0
 40
6.0
 40
6.0
 40
6.0
 40
7.0
 40
7.0
 40
7.0
 40
8.0
 40
8.0
 40
8.0
 40
9.0
 40
9.0
 40
9.0
 40
10.0
 40
10.0
 40
10.0
 40
11.0
 40
11.0
 40
11.0
 40
12.0
 40
12.0
 40
12.0
 40
13.0
 40
13.0
 40
13.0
 40
14.0
 40
14.0
 40
14.0
 40
15.0
 40
15.0
 40
15.0
 40
16.0
 40
16.0
 40
16.0
 40
17.0
 40
17.0
 40
17.0
 40
18.0
 40
18.0
 40
18.0
 40
19.0
 40
19.0
 40
19.0
 40
20.0
 40
20.0
 40
20.0
 40
21.0
 40
21.0
 40
21.0
 40
22.0
 40
22.0
 40
22.0
 40
23.0
 40
23.0
 40
23.0
 40
24.0
 40
24.0
 40
24.0
 40
25.0
 40
25.0
 40
25.0
 40
26.0
 40
26.0
 40
26.0
 40
27.0
 40
27.0
 40
27.0
 40
28.0
 40
28.0
 40
28.0
 40
29.0
 40
29.0
 40
29.0
 40
30.0
 40
30.0
 40
30.0
 40
31.0
 40
31.0
 40
31.0
 40
32.0
 40
32.0
 40
32.0
 40
33.0
 40
33.0
 40
33.0
 40
34.0
 40
34.0
 40
34.0
 40
35.0
 40
35.0
 40
35.0
 40
36.0
 40
36.0
 40
36.0
 40
37.0
 40
37.0
 40
37.0
 40
38.0
 40
38.0
 40
38.0
 40
39.0
 40
39.0
 40
39.0
 40
40.0
 40
40.0
 40
40.0
 40
41.0
 40
41.0
 40
41.0
 40
42.0
 40
42.0
 40
42.0
 40
43.0
 40
43.0
 40
43.0
 40
44.0
 40
44.0
 40
44.0
 40
45.0
 40
45.0
 40
45.0
 40
46.0
 40
46.0
 40
46.0
 40
47.0
 40
47.0
 40
47.0
 40
48.0
 40
48.0
 40
48.0
 40
49.0
 40
49.0
 40
49.0
 40
50.0
 40
50.0
 40
50.0
 40
51.0
 40
51.0
 40
51.0
 40
52.0
 40
52.0
 40
52.0
 40
52.0
 10
3.991034613715278
 20
-4.453545464409722
 30
0.0
 10
4.025492350260416
 20
-4.392591688368055
 30
0.0
 10
4.063056098090278
 20
-4.333706325954861
 30
0.0
 10
4.101725260416666
 20
-4.276224772135416
 30
0.0
 10
4.152723524305555
 20
-4.349900987413195
 30
0.0
 10
4.200656467013888
 20
-4.426133897569445
 30
0.0
 10
4.244778103298611
 20
-4.505567762586805
 30
0.0
 10
4.244778103298611
 20
-4.505567762586805
 30
0.0
 10
4.281114366319445
 20
-4.5703125
 30
0.0
 10
4.281114366319445
 20
-4.5703125
 30
0.0
 10
4.344211154513888
 20
-4.682047526041666
 30
0.0
 10
4.389607747395833
 20
-4.762912326388888
 30
0.0
 10
4.4315185546875
 20
-4.879069010416666
 30
0.0
 10
4.4315185546875
 20
-4.879069010416666
 30
0.0
 10
4.477322048611111
 20
-5.005126953125
 30
0.0
 10
4.477322048611111
 20
-5.005126953125
 30
0.0
 10
4.477322048611111
 20
-5.005126953125
 30
0.0
 10
4.610555013020833
 20
-4.991712782118055
 30
0.0
 10
4.610555013020833
 20
-4.991712782118055
 30
0.0
 10
4.613688151041666
 20
-4.991502549913194
 30
0.0
 10
4.923868815104166
 20
-4.960781521267361
 30
0.0
 10
5.08203125
 20
-4.959662543402778
 30
0.0
 10
5.08203125
 20
-4.959662543402778
 30
0.0
 10
5.099677191840278
 20
-4.959662543402778
 30
0.0
 10
5.099677191840278
 20
-4.959662543402778
 30
0.0
 10
5.166219075520833
 20
-4.959662543402778
 30
0.0
 10
5.232001410590278
 20
-4.962795681423611
 30
0.0
 10
5.297607421875
 20
-4.9677734375
 30
0.0
 10
5.269463433159722
 20
-5.027201334635416
 30
0.0
 10
5.239556206597222
 20
-5.086005316840278
 30
0.0
 10
5.206787109375
 20
-5.143778483072916
 30
0.0
 10
5.143812391493055
 20
-5.254387749565972
 30
0.0
 10
4.986762152777778
 20
-5.463514539930555
 30
0.0
 10
4.931776258680555
 20
-5.534518771701388
 30
0.0
 10
4.931776258680555
 20
-5.534518771701388
 30
0.0
 10
4.851386176215278
 20
-5.638075086805555
 30
0.0
 10
4.851386176215278
 20
-5.638075086805555
 30
0.0
 10
4.851386176215278
 20
-5.638075086805555
 30
0.0
 10
4.846883138020833
 20
-5.638075086805555
 30
0.0
 10
4.846883138020833
 20
-5.638075086805555
 30
0.0
 10
4.846883138020833
 20
-5.638075086805555
 30
0.0
 10
4.846598307291666
 20
-5.638427734375
 30
0.0
 10
4.846598307291666
 20
-5.638427734375
 30
0.0
 10
4.846598307291666
 20
-5.638427734375
 30
0.0
 10
4.848890516493055
 20
-5.641316731770833
 30
0.0
 10
4.848890516493055
 20
-5.641316731770833
 30
0.0
 10
4.848890516493055
 20
-5.641316731770833
 30
0.0
 10
4.846598307291666
 20
-5.644354926215278
 30
0.0
 10
4.846598307291666
 20
-5.644354926215278
 30
0.0
 10
4.846598307291666
 20
-5.644354926215278
 30
0.0
 10
4.846883138020833
 20
-5.644707573784722
 30
0.0
 10
4.846883138020833
 20
-5.644707573784722
 30
0.0
 10
4.846883138020833
 20
-5.644707573784722
 30
0.0
 10
4.851386176215278
 20
-5.644707573784722
 30
0.0
 10
4.851386176215278
 20
-5.644707573784722
 30
0.0
 10
4.851386176215278
 20
-5.644707573784722
 30
0.0
 10
4.931559244791666
 20
-5.748270670572916
 30
0.0
 10
4.931559244791666
 20
-5.748270670572916
 30
0.0
 10
4.986762152777778
 20
-5.819261338975694
 30
0.0
 10
5.143812391493055
 20
-6.028388129340278
 30
0.0
 10
5.206570095486111
 20
-6.139078776041666
 30
0.0
 10
5.239284939236111
 20
-6.196912977430555
 30
0.0
 10
5.268907335069444
 20
-6.255940755208333
 30
0.0
 10
5.297254774305555
 20
-6.315375434027778
 30
0.0
 10
5.231621636284722
 20
-6.320054796006944
 30
0.0
 10
5.165662977430555
 20
-6.323106553819444
 30
0.0
 10
5.099202473958333
 20
-6.323106553819444
 30
0.0
 10
5.099202473958333
 20
-6.323106553819444
 30
0.0
 10
5.08154296875
 20
-6.323106553819444
 30
0.0
 10
5.08154296875
 20
-6.323106553819444
 30
0.0
 10
4.923475477430555
 20
-6.321994357638888
 30
0.0
 10
4.613335503472222
 20
-6.291205512152778
 30
0.0
 10
4.610080295138888
 20
-6.290798611111111
 30
0.0
 10
4.610080295138888
 20
-6.290798611111111
 30
0.0
 10
4.476765950520833
 20
-6.277452256944444
 30
0.0
 10
4.476765950520833
 20
-6.277452256944444
 30
0.0
 10
4.476765950520833
 20
-6.277452256944444
 30
0.0
 10
4.431016710069445
 20
-6.403428819444444
 30
0.0
 10
4.431016710069445
 20
-6.403428819444444
 30
0.0
 10
4.389173719618055
 20
-6.519368489583333
 30
0.0
 10
4.343655056423611
 20
-6.600179036458333
 30
0.0
 10
4.280368381076388
 20
-6.711846245659721
 30
0.0
 10
4.280368381076388
 20
-6.711846245659721
 30
0.0
 10
4.244045681423611
 20
-6.776936848958333
 30
0.0
 10
4.244045681423611
 20
-6.776936848958333
 30
0.0
 10
4.199951171875
 20
-6.855875651041666
 30
0.0
 10
4.152018229166666
 20
-6.932264539930555
 30
0.0
 10
4.100836859809028
 20
-7.006062825520833
 30
0.0
 10
4.062221950954861
 20
-6.948310004340278
 30
0.0
 10
4.024936252170138
 20
-6.889377170138888
 30
0.0
 10
3.990193684895833
 20
-6.828355577256944
 30
0.0
 10
3.912373860677083
 20
-6.690999348958333
 30
0.0
 10
3.784308539496528
 20
-6.406602647569444
 30
0.0
 10
3.783216688368055
 20
-6.403713650173611
 30
0.0
 10
3.783216688368055
 20
-6.403713650173611
 30
0.0
 10
3.7281494140625
 20
-6.281467013888888
 30
0.0
 10
3.7281494140625
 20
-6.281467013888888
 30
0.0
 10
3.7281494140625
 20
-6.281467013888888
 30
0.0
 10
3.5960693359375
 20
-6.304931640625
 30
0.0
 10
3.5960693359375
 20
-6.304931640625
 30
0.0
 10
3.444715711805555
 20
-6.331827799479166
 30
0.0
 10
3.28912353515625
 20
-6.345174153645833
 30
0.0
 10
3.133931477864583
 20
-6.345024956597221
 30
0.0
 10
3.06060791015625
 20
-6.345024956597221
 30
0.0
 10
2.987908257378472
 20
-6.341362847222221
 30
0.0
 10
2.915459526909722
 20
-6.335720486111111
 30
0.0
 10
2.948465983072917
 20
-6.264851888020833
 30
0.0
 10
2.984768337673611
 20
-6.1947021484375
 30
0.0
 10
3.0244140625
 20
-6.126085069444444
 30
0.0
 10
3.10162353515625
 20
-5.991536458333333
 30
0.0
 10
3.191006130642361
 20
-5.863810221354166
 30
0.0
 10
3.289869520399305
 20
-5.745795355902778
 30
0.0
 10
3.289869520399305
 20
-5.745795355902778
 30
0.0
 10
3.37530517578125
 20
-5.644219292534722
 30
0.0
 10
3.37530517578125
 20
-5.644219292534722
 30
0.0
 10
3.37530517578125
 20
-5.644219292534722
 30
0.0
 10
3.38037109375
 20
-5.644219292534722
 30
0.0
 10
3.38037109375
 20
-5.644219292534722
 30
0.0
 10
3.38037109375
 20
-5.644219292534722
 30
0.0
 10
3.380513509114583
 20
-5.643819173177083
 30
0.0
 10
3.380513509114583
 20
-5.643819173177083
 30
0.0
 10
3.380513509114583
 20
-5.643819173177083
 30
0.0
 10
3.377943250868055
 20
-5.640828450520833
 30
0.0
 10
3.377943250868055
 20
-5.640828450520833
 30
0.0
 10
3.377943250868055
 20
-5.640828450520833
 30
0.0
 10
3.380513509114583
 20
-5.637797037760416
 30
0.0
 10
3.380513509114583
 20
-5.637797037760416
 30
0.0
 10
3.380513509114583
 20
-5.637797037760416
 30
0.0
 10
3.38037109375
 20
-5.637586805555555
 30
0.0
 10
3.38037109375
 20
-5.637586805555555
 30
0.0
 10
3.38037109375
 20
-5.637586805555555
 30
0.0
 10
3.37530517578125
 20
-5.637586805555555
 30
0.0
 10
3.37530517578125
 20
-5.637586805555555
 30
0.0
 10
3.37530517578125
 20
-5.637586805555555
 30
0.0
 10
3.289944118923611
 20
-5.536031087239583
 30
0.0
 10
3.289944118923611
 20
-5.536031087239583
 30
0.0
 10
3.191073947482639
 20
-5.417805989583333
 30
0.0
 10
3.101976182725694
 20
-5.290018717447916
 30
0.0
 10
3.024488661024305
 20
-5.155524359809028
 30
0.0
 10
2.9849853515625
 20
-5.086751302083333
 30
0.0
 10
2.948940700954861
 20
-5.016682942708333
 30
0.0
 10
2.91595458984375
 20
-4.945834689670138
 30
0.0
 10
2.988369411892361
 20
-4.939805772569444
 30
0.0
 10
3.061028374565972
 20
-4.936625162760416
 30
0.0
 10
3.134426540798611
 20
-4.936625162760416
 30
0.0
 10
3.289516872829861
 20
-4.936625162760416
 30
0.0
 10
3.445054796006944
 20
-4.95013427734375
 30
0.0
 10
3.5965576171875
 20
-4.97711181640625
 30
0.0
 10
3.5965576171875
 20
-4.97711181640625
 30
0.0
 10
3.728481716579861
 20
-5.000359429253472
 30
0.0
 10
3.728481716579861
 20
-5.000359429253472
 30
0.0
 10
3.728481716579861
 20
-5.000359429253472
 30
0.0
 10
3.7835693359375
 20
-4.878106011284722
 30
0.0
 10
3.7835693359375
 20
-4.878106011284722
 30
0.0
 10
3.784871419270833
 20
-4.875325520833333
 30
0.0
 10
3.913126627604167
 20
-4.591213650173611
 30
0.0
 10
3.991034613715278
 20
-4.453545464409722
 30
0.0
  0
SPLINE
  5
49
330
1F
100
AcDbEntity
  8
Layer 1
370
     0
100
AcDbSpline
210
0.0
220
0.0
230
1.0
 70
    11
 71
     3
 72
    20
 73
    16
 74
     0
 42
0.0000000001
 43
0.0000000001
 40
0.0
 40
0.0
 40
0.0
 40
0.0
 40
1.0
 40
1.0
 40
1.0
 40
2.0
 40
2.0
 40
2.0
 40
3.0
 40
3.0
 40
3.0
 40
4.0
 40
4.0
 40
4.0
 40
5.0
 40
5.0
 40
5.0
 40
5.0
 10
3.919223361545139
 20
-3.55181884765625
 30
0.0
 10
3.989447699652778
 20
-3.488382975260417
 30
0.0
 10
4.056423611111111
 20
-3.422309027777778
 30
0.0
 10
4.122138129340278
 20
-3.354580349392361
 30
0.0
 10
4.124403211805555
 20
-3.35223388671875
 30
0.0
 10
4.126695421006945
 20
-3.349948459201389
 30
0.0
 10
4.128770616319445
 20
-3.34759521484375
 30
0.0
 10
4.186333550347222
 20
-3.407721625434028
 30
0.0
 10
4.246120876736111
 20
-3.466179741753472
 30
0.0
 10
4.307183159722222
 20
-3.522691514756944
 30
0.0
 10
4.234551323784722
 20
-3.587042914496528
 30
0.0
 10
4.165242513020833
 20
-3.655110677083333
 30
0.0
 10
4.098822699652778
 20
-3.726854112413194
 30
0.0
 10
4.041544596354166
 20
-3.665696885850694
 30
0.0
 10
3.981479220920139
 20
-3.607652452256944
 30
0.0
 10
3.919223361545139
 20
-3.55181884765625
 30
0.0
  0
SPLINE
  5
4A
330
1F
100
AcDbEntity
  8
Layer 1
370
     0
100
AcDbSpline
210
0.0
220
0.0
230
1.0
 70
    11
 71
     3
 72
    32
 73
    28
 74
     0
 42
0.0000000001
 43
0.0000000001
 40
0.0
 40
0.0
 40
0.0
 40
0.0
 40
1.0
 40
1.0
 40
1.0
 40
2.0
 40
2.0
 40
2.0
 40
3.0
 40
3.0
 40
3.0
 40
4.0
 40
4.0
 40
4.0
 40
5.0
 40
5.0
 40
5.0
 40
6.0
 40
6.0
 40
6.0
 40
7.0
 40
7.0
 40
7.0
 40
8.0
 40
8.0
 40
8.0
 40
9.0
 40
9.0
 40
9.0
 40
9.0
 10
4.321926540798611
 20
-3.993543836805555
 30
0.0
 10
4.400119357638888
 20
-3.905754937065972
 30
0.0
 10
4.483805338541666
 20
-3.824252658420139
 30
0.0
 10
4.572767469618055
 20
-3.748636881510417
 30
0.0
 10
4.858100043402778
 20
-3.971550835503472
 30
0.0
 10
5.173204210069444
 20
-4.158474392361111
 30
0.0
 10
5.511040581597222
 20
-4.301825629340278
 30
0.0
 10
5.491115993923611
 20
-4.41375732421875
 30
0.0
 10
5.463772243923611
 20
-4.524576822916666
 30
0.0
 10
5.429253472222222
 20
-4.633680555555555
 30
0.0
 10
5.320570203993055
 20
-4.621649848090278
 30
0.0
 10
5.210774739583333
 20
-4.615281846788194
 30
0.0
 10
5.099867078993055
 20
-4.615281846788194
 30
0.0
 10
5.099867078993055
 20
-4.615281846788194
 30
0.0
 10
5.079739040798611
 20
-4.615281846788194
 30
0.0
 10
5.079739040798611
 20
-4.615281846788194
 30
0.0
 10
4.974175347222222
 20
-4.61590576171875
 30
0.0
 10
4.815687391493055
 20
-4.6278076171875
 30
0.0
 10
4.704928927951388
 20
-4.63714599609375
 30
0.0
 10
4.667168511284722
 20
-4.553785536024305
 30
0.0
 10
4.626329210069444
 20
-4.481336805555555
 30
0.0
 10
4.581434461805555
 20
-4.401516384548611
 30
0.0
 10
4.581434461805555
 20
-4.401516384548611
 30
0.0
 10
4.545789930555555
 20
-4.338134765625
 30
0.0
 10
4.545789930555555
 20
-4.338134765625
 30
0.0
 10
4.478624131944444
 20
-4.21734619140625
 30
0.0
 10
4.403361002604166
 20
-4.102511935763888
 30
0.0
 10
4.321926540798611
 20
-3.993543836805555
 30
0.0
  0
SPLINE
  5
4B
330
1F
100
AcDbEntity
  8
Layer 1
370
     0
100
AcDbSpline
210
0.0
220
0.0
230
1.0
 70
    11
 71
     3
 72
    32
 73
    28
 74
     0
 42
0.0000000001
 43
0.0000000001
 40
0.0
 40
0.0
 40
0.0
 40
0.0
 40
1.0
 40
1.0
 40
1.0
 40
2.0
 40
2.0
 40
2.0
 40
3.0
 40
3.0
 40
3.0
 40
4.0
 40
4.0
 40
4.0
 40
5.0
 40
5.0
 40
5.0
 40
6.0
 40
6.0
 40
6.0
 40
7.0
 40
7.0
 40
7.0
 40
8.0
 40
8.0
 40
8.0
 40
9.0
 40
9.0
 40
9.0
 40
9.0
 10
5.428575303819444
 20
-6.649251302083333
 30
0.0
 10
5.463134765625
 20
-6.758409288194444
 30
0.0
 10
5.490559895833333
 20
-6.869384765625
 30
0.0
 10
5.510335286458333
 20
-6.981296115451388
 30
0.0
 10
5.172173394097222
 20
-7.124498155381944
 30
0.0
 10
4.857137044270833
 20
-7.311089409722221
 30
0.0
 10
4.571546766493055
 20
-7.534003363715278
 30
0.0
 10
4.482652452256944
 20
-7.458306206597221
 30
0.0
 10
4.399061414930555
 20
-7.376410590277778
 30
0.0
 10
4.320827907986111
 20
-7.288818359375
 30
0.0
 10
4.402316623263888
 20
-7.179728190104166
 30
0.0
 10
4.477796766493055
 20
-7.065212673611111
 30
0.0
 10
4.5450439453125
 20
-6.944295247395833
 30
0.0
 10
4.5450439453125
 20
-6.944295247395833
 30
0.0
 10
4.580878363715278
 20
-6.881184895833333
 30
0.0
 10
4.580878363715278
 20
-6.881184895833333
 30
0.0
 10
4.625786675347222
 20
-6.801093207465278
 30
0.0
 10
4.666517469618055
 20
-6.728854709201388
 30
0.0
 10
4.704305013020833
 20
-6.645426432291666
 30
0.0
 10
4.815199110243055
 20
-6.654703776041666
 30
0.0
 10
4.973347981770833
 20
-6.666802300347221
 30
0.0
 10
5.079128689236111
 20
-6.667426215277778
 30
0.0
 10
5.079128689236111
 20
-6.667426215277778
 30
0.0
 10
5.098985460069444
 20
-6.667426215277778
 30
0.0
 10
5.098985460069444
 20
-6.667426215277778
 30
0.0
 10
5.2100830078125
 20
-6.667426215277778
 30
0.0
 10
5.319878472222222
 20
-6.661268446180555
 30
0.0
 10
5.428575303819444
 20
-6.649251302083333
 30
0.0
  0
SPLINE
  5
4C
330
1F
100
AcDbEntity
  8
Layer 1
370
     0
100
AcDbSpline
210
0.0
220
0.0
230
1.0
 70
    11
 71
     3
 72
    20
 73
    16
 74
     0
 42
0.0000000001
 43
0.0000000001
 40
0.0
 40
0.0
 40
0.0
 40
0.0
 40
1.0
 40
1.0
 40
1.0
 40
2.0
 40
2.0
 40
2.0
 40
3.0
 40
3.0
 40
3.0
 40
4.0
 40
4.0
 40
4.0
 40
5.0
 40
5.0
 40
5.0
 40
5.0
 10
4.305948893229166
 20
-7.759738498263888
 30
0.0
 10
4.244778103298611
 20
-7.816134982638888
 30
0.0
 10
4.185167100694445
 20
-7.87451171875
 30
0.0
 10
4.127536349826388
 20
-7.9344482421875
 30
0.0
 10
4.125250922309028
 20
-7.932156032986111
 30
0.0
 10
4.122816297743055
 20
-7.929999457465278
 30
0.0
 10
4.120686848958333
 20
-7.9278564453125
 30
0.0
 10
4.055230034722222
 20
-7.859917534722221
 30
0.0
 10
3.987996419270833
 20
-7.793701171875
 30
0.0
 10
3.918056911892361
 20
-7.730387369791666
 30
0.0
 10
3.9801025390625
 20
-7.674560546875
 30
0.0
 10
4.040303548177083
 20
-7.616400824652778
 30
0.0
 10
4.097703721788195
 20
-7.555514865451388
 30
0.0
 10
4.163981119791666
 20
-7.627115885416666
 30
0.0
 10
4.233384874131945
 20
-7.695258246527778
 30
0.0
 10
4.305948893229166
 20
-7.759738498263888
 30
0.0
  0
SPLINE
  5
4D
330
1F
100
AcDbEntity
  8
Layer 1
370
     0
100
AcDbSpline
210
0.0
220
0.0
230
1.0
 70
    11
 71
     3
 72
    59
 73
    55
 74
     0
 42
0.0000000001
 43
0.0000000001
 40
0.0
 40
0.0
 40
0.0
 40
0.0
 40
1.0
 40
1.0
 40
1.0
 40
2.0
 40
2.0
 40
2.0
 40
3.0
 40
3.0
 40
3.0
 40
4.0
 40
4.0
 40
4.0
 40
5.0
 40
5.0
 40
5.0
 40
6.0
 40
6.0
 40
6.0
 40
7.0
 40
7.0
 40
7.0
 40
8.0
 40
8.0
 40
8.0
 40
9.0
 40
9.0
 40
9.0
 40
10.0
 40
10.0
 40
10.0
 40
11.0
 40
11.0
 40
11.0
 40
12.0
 40
12.0
 40
12.0
 40
13.0
 40
13.0
 40
13.0
 40
14.0
 40
14.0
 40
14.0
 40
15.0
 40
15.0
 40
15.0
 40
16.0
 40
16.0
 40
16.0
 40
17.0
 40
17.0
 40
17.0
 40
18.0
 40
18.0
 40
18.0
 40
18.0
 10
3.877292209201389
 20
-7.287027994791666
 30
0.0
 10
3.80596923828125
 20
-7.365478515625
 30
0.0
 10
3.730068630642361
 20
-7.438802083333333
 30
0.0
 10
3.650526258680555
 20
-7.507717556423611
 30
0.0
 10
3.585978190104167
 20
-7.458238389756944
 30
0.0
 10
3.519490559895833
 20
-7.411146375868055
 30
0.0
 10
3.452046712239583
 20
-7.365478515625
 30
0.0
 10
3.440972222222222
 20
-7.358127170138888
 30
0.0
 10
3.430392795138889
 20
-7.351006401909721
 30
0.0
 10
3.419670952690972
 20
-7.343817816840278
 30
0.0
 10
3.390814887152778
 20
-7.324801974826388
 30
0.0
 10
3.361965603298611
 20
-7.306111653645833
 30
0.0
 10
3.332763671875
 20
-7.287706163194444
 30
0.0
 10
3.319356282552083
 20
-7.279269748263888
 30
0.0
 10
3.30584716796875
 20
-7.270901150173611
 30
0.0
 10
3.292371961805555
 20
-7.262736002604166
 30
0.0
 10
3.263454861111111
 20
-7.2452392578125
 30
0.0
 10
3.234666612413194
 20
-7.227593315972221
 30
0.0
 10
3.205329047309028
 20
-7.210639105902778
 30
0.0
 10
3.194207085503472
 20
-7.204277886284721
 30
0.0
 10
3.183207194010417
 20
-7.198106553819444
 30
0.0
 10
3.171915690104167
 20
-7.191758897569444
 30
0.0
 10
3.116929796006944
 20
-7.160902235243055
 30
0.0
 10
3.060885959201389
 20
-7.130601671006944
 30
0.0
 10
3.00408935546875
 20
-7.101752387152778
 30
0.0
 10
2.987833658854167
 20
-7.093248155381944
 30
0.0
 10
2.971435546875
 20
-7.085069444444444
 30
0.0
 10
2.955037434895833
 20
-7.076836480034721
 30
0.0
 10
2.928615993923611
 20
-7.063829210069444
 30
0.0
 10
2.902092827690972
 20
-7.051595052083333
 30
0.0
 10
2.875420464409722
 20
-7.039143880208333
 30
0.0
 10
2.855000813802083
 20
-7.029378255208333
 30
0.0
 10
2.834445529513889
 20
-7.020060221354166
 30
0.0
 10
2.813910590277778
 20
-7.010986328125
 30
0.0
 10
2.788167317708333
 20
-6.999565972222221
 30
0.0
 10
2.762234157986111
 20
-6.98828125
 30
0.0
 10
2.736138237847222
 20
-6.977159288194444
 30
0.0
 10
2.728664822048611
 20
-6.974107530381944
 30
0.0
 10
2.721469455295139
 20
-6.970648871527778
 30
0.0
 10
2.714199490017361
 20
-6.967678493923611
 30
0.0
 10
2.732618543836805
 20
-6.867011176215278
 30
0.0
 10
2.756978352864583
 20
-6.767266167534721
 30
0.0
 10
2.787346733940972
 20
-6.669026692708333
 30
0.0
 10
2.901557074652778
 20
-6.682237413194444
 30
0.0
 10
3.016940646701389
 20
-6.689643012152778
 30
0.0
 10
3.133795844184028
 20
-6.689697265625
 30
0.0
 10
3.264336480034722
 20
-6.689778645833333
 30
0.0
 10
3.394829644097222
 20
-6.681125217013888
 30
0.0
 10
3.523857964409722
 20
-6.664388020833333
 30
0.0
 10
3.570746527777778
 20
-6.765109592013888
 30
0.0
 10
3.638888888888889
 20
-6.906792534722221
 30
0.0
 10
3.69091796875
 20
-6.998046875
 30
0.0
 10
3.747728135850694
 20
-7.098849826388888
 30
0.0
 10
3.810546875
 20
-7.194864908854166
 30
0.0
 10
3.877292209201389
 20
-7.287027994791666
 30
0.0
  0
SPLINE
  5
4E
330
1F
100
AcDbEntity
  8
Layer 1
370
     0
100
AcDbSpline
210
0.0
220
0.0
230
1.0
 70
    11
 71
     3
 72
    59
 73
    55
 74
     0
 42
0.0000000001
 43
0.0000000001
 40
0.0
 40
0.0
 40
0.0
 40
0.0
 40
1.0
 40
1.0
 40
1.0
 40
2.0
 40
2.0
 40
2.0
 40
3.0
 40
3.0
 40
3.0
 40
4.0
 40
4.0
 40
4.0
 40
5.0
 40
5.0
 40
5.0
 40
6.0
 40
6.0
 40
6.0
 40
7.0
 40
7.0
 40
7.0
 40
8.0
 40
8.0
 40
8.0
 40
9.0
 40
9.0
 40
9.0
 40
10.0
 40
10.0
 40
10.0
 40
11.0
 40
11.0
 40
11.0
 40
12.0
 40
12.0
 40
12.0
 40
13.0
 40
13.0
 40
13.0
 40
14.0
 40
14.0
 40
14.0
 40
15.0
 40
15.0
 40
15.0
 40
16.0
 40
16.0
 40
16.0
 40
17.0
 40
17.0
 40
17.0
 40
18.0
 40
18.0
 40
18.0
 40
18.0
 10
3.691474066840278
 20
-4.283759223090278
 30
0.0
 10
3.639662000868055
 20
-4.374945746527778
 30
0.0
 10
3.571519639756944
 20
-4.516838921440972
 30
0.0
 10
3.524468315972222
 20
-4.617357042100694
 30
0.0
 10
3.395439995659722
 20
-4.600619845920138
 30
0.0
 10
3.265102810329861
 20
-4.592034233940972
 30
0.0
 10
3.134501139322917
 20
-4.592034233940972
 30
0.0
 10
3.01763916015625
 20
-4.592034233940972
 30
0.0
 10
2.902242024739583
 20
-4.599229600694444
 30
0.0
 10
2.787882486979167
 20
-4.612372504340278
 30
0.0
 10
2.757724338107639
 20
-4.514004177517361
 30
0.0
 10
2.733452690972222
 20
-4.41424560546875
 30
0.0
 10
2.714979383680555
 20
-4.313652886284722
 30
0.0
 10
2.722378200954861
 20
-4.310465494791666
 30
0.0
 10
2.729641384548611
 20
-4.307217068142361
 30
0.0
 10
2.736911349826389
 20
-4.304172092013888
 30
0.0
 10
2.763054741753472
 20
-4.293233235677083
 30
0.0
 10
2.789076063368055
 20
-4.281894259982638
 30
0.0
 10
2.814792209201389
 20
-4.270412868923611
 30
0.0
 10
2.83514404296875
 20
-4.261271158854166
 30
0.0
 10
2.855753580729167
 20
-4.251878526475695
 30
0.0
 10
2.876166449652778
 20
-4.242390950520833
 30
0.0
 10
2.902872721354167
 20
-4.230007595486111
 30
0.0
 10
2.929361979166667
 20
-4.217692057291666
 30
0.0
 10
2.955925835503472
 20
-4.204684787326388
 30
0.0
 10
2.972459581163194
 20
-4.196587456597222
 30
0.0
 10
2.988796657986111
 20
-4.188090006510416
 30
0.0
 10
3.004977756076389
 20
-4.179707845052083
 30
0.0
 10
3.061699761284722
 20
-4.151143391927083
 30
0.0
 10
3.117750379774305
 20
-4.120985243055555
 30
0.0
 10
3.172899034288194
 20
-4.08978271484375
 30
0.0
 10
3.18402099609375
 20
-4.083482530381945
 30
0.0
 10
3.195590549045139
 20
-4.077460394965278
 30
0.0
 10
3.206163194444444
 20
-4.071024576822916
 30
0.0
 10
3.235555013020833
 20
-4.054144965277778
 30
0.0
 10
3.264411078559028
 20
-4.036573621961805
 30
0.0
 10
3.293402777777778
 20
-4.018798828125
 30
0.0
 10
3.306830512152778
 20
-4.010640462239583
 30
0.0
 10
3.320448133680555
 20
-4.002400716145833
 30
0.0
 10
3.333740234375
 20
-3.99395751953125
 30
0.0
 10
3.362989637586805
 20
-3.975558810763889
 30
0.0
 10
3.391913519965278
 20
-3.957160101996528
 30
0.0
 10
3.420484754774305
 20
-3.938205295138889
 30
0.0
 10
3.431559244791667
 20
-3.930935329861111
 30
0.0
 10
3.442070855034722
 20
-3.923394097222222
 30
0.0
 10
3.452860514322917
 20
-3.91619873046875
 30
0.0
 10
3.520467122395833
 20
-3.87060546875
 30
0.0
 10
3.587002224392361
 20
-3.823567708333333
 30
0.0
 10
3.651618109809028
 20
-3.774237738715278
 30
0.0
 10
3.731119791666667
 20
-3.843282063802083
 30
0.0
 10
3.807020399305555
 20
-3.916754828559028
 30
0.0
 10
3.878343370225694
 20
-3.995001898871528
 30
0.0
 10
3.811299641927083
 20
-4.087015787760416
 30
0.0
 10
3.748399522569444
 20
-4.183180067274305
 30
0.0
 10
3.691474066840278
 20
-4.283759223090278
 30
0.0
  0
SPLINE
  5
4F
330
1F
100
AcDbEntity
  8
Layer 1
370
     0
100
AcDbSpline
210
0.0
220
0.0
230
1.0
 70
    11
 71
     3
 72
    38
 73
    34
 74
     0
 42
0.0000000001
 43
0.0000000001
 40
0.0
 40
0.0
 40
0.0
 40
0.0
 40
1.0
 40
1.0
 40
1.0
 40
2.0
 40
2.0
 40
2.0
 40
3.0
 40
3.0
 40
3.0
 40
4.0
 40
4.0
 40
4.0
 40
5.0
 40
5.0
 40
5.0
 40
6.0
 40
6.0
 40
6.0
 40
7.0
 40
7.0
 40
7.0
 40
8.0
 40
8.0
 40
8.0
 40
9.0
 40
9.0
 40
9.0
 40
10.0
 40
10.0
 40
10.0
 40
11.0
 40
11.0
 40
11.0
 40
11.0
 10
2.737046983506944
 20
-8.00387912326389
 30
0.0
 10
2.737046983506944
 20
-8.00387912326389
 30
0.0
 10
2.736212836371528
 20
-8.00387912326389
 30
0.0
 10
2.736212836371528
 20
-8.00387912326389
 30
0.0
 10
2.736212836371528
 20
-8.00387912326389
 30
0.0
 10
2.736138237847222
 20
-8.00387912326389
 30
0.0
 10
2.736138237847222
 20
-8.00387912326389
 30
0.0
 10
2.736138237847222
 20
-8.00387912326389
 30
0.0
 10
2.734483506944444
 20
-8.004286024305555
 30
0.0
 10
2.734483506944444
 20
-8.004286024305555
 30
0.0
 10
2.684468587239583
 20
-7.778767903645833
 30
0.0
 10
2.664815266927083
 20
-7.5511474609375
 30
0.0
 10
2.674018012152778
 20
-7.325764973958333
 30
0.0
 10
2.679070366753472
 20
-7.327975802951388
 30
0.0
 10
2.684048122829861
 20
-7.330132378472221
 30
0.0
 10
2.688761393229167
 20
-7.332275390625
 30
0.0
 10
2.74090576171875
 20
-7.355848524305555
 30
0.0
 10
2.792392306857639
 20
-7.380289713541666
 30
0.0
 10
2.843037923177083
 20
-7.405938042534721
 30
0.0
 10
2.849188910590278
 20
-7.4091796875
 30
0.0
 10
2.855278862847222
 20
-7.411960177951388
 30
0.0
 10
2.861355251736111
 20
-7.415134006076388
 30
0.0
 10
3.035630967881944
 20
-7.5045166015625
 30
0.0
 10
3.202216254340278
 20
-7.606906467013888
 30
0.0
 10
3.359605577256944
 20
-7.721150716145833
 30
0.0
 10
3.361050075954861
 20
-7.7220458984375
 30
0.0
 10
3.362386067708333
 20
-7.7230224609375
 30
0.0
 10
3.363694932725694
 20
-7.723768446180555
 30
0.0
 10
3.170260959201389
 20
-7.850043402777778
 30
0.0
 10
2.961527506510417
 20
-7.9505615234375
 30
0.0
 10
2.742099338107639
 20
-8.02035861545139
 30
0.0
 10
2.742099338107639
 20
-8.02035861545139
 30
0.0
 10
2.737046983506944
 20
-8.00387912326389
 30
0.0
 10
2.737046983506944
 20
-8.00387912326389
 30
0.0
  0
SPLINE
  5
50
330
1F
100
AcDbEntity
  8
Layer 1
370
     0
100
AcDbSpline
210
0.0
220
0.0
230
1.0
 70
    11
 71
     3
 72
    20
 73
    16
 74
     0
 42
0.0000000001
 43
0.0000000001
 40
0.0
 40
0.0
 40
0.0
 40
0.0
 40
1.0
 40
1.0
 40
1.0
 40
2.0
 40
2.0
 40
2.0
 40
3.0
 40
3.0
 40
3.0
 40
4.0
 40
4.0
 40
4.0
 40
5.0
 40
5.0
 40
5.0
 40
5.0
 10
2.896091037326389
 20
-9.26076931423611
 30
0.0
 10
2.921902126736111
 20
-8.95962185329861
 30
0.0
 10
2.901557074652778
 20
-8.654188368055555
 30
0.0
 10
2.833272298177083
 20
-8.352213541666666
 30
0.0
 10
3.123141818576389
 20
-8.261515299479166
 30
0.0
 10
3.397101508246528
 20
-8.124945746527777
 30
0.0
 10
3.645270453559028
 20
-7.949083116319444
 30
0.0
 10
3.733405219184028
 20
-8.02663845486111
 30
0.0
 10
3.817857530381944
 20
-8.108018663194445
 30
0.0
 10
3.898600260416667
 20
-8.193440755208332
 30
0.0
 10
3.616909450954861
 20
-8.539360894097221
 30
0.0
 10
3.389370388454861
 20
-8.931260850694445
 30
0.0
 10
3.229763454861111
 20
-9.355767144097221
 30
0.0
 10
3.116509331597222
 20
-9.32912868923611
 30
0.0
 10
3.005120171440972
 20
-9.297444661458332
 30
0.0
 10
2.896091037326389
 20
-9.26076931423611
 30
0.0
  0
SPLINE
  5
51
330
1F
100
AcDbEntity
  8
Layer 1
370
     0
100
AcDbSpline
210
0.0
220
0.0
230
1.0
 70
    11
 71
     3
 72
    29
 73
    25
 74
     0
 42
0.0000000001
 43
0.0000000001
 40
0.0
 40
0.0
 40
0.0
 40
0.0
 40
1.0
 40
1.0
 40
1.0
 40
2.0
 40
2.0
 40
2.0
 40
3.0
 40
3.0
 40
3.0
 40
4.0
 40
4.0
 40
4.0
 40
5.0
 40
5.0
 40
5.0
 40
6.0
 40
6.0
 40
6.0
 40
7.0
 40
7.0
 40
7.0
 40
8.0
 40
8.0
 40
8.0
 40
8.0
 10
4.109056260850695
 20
-9.458577473958332
 30
0.0
 10
3.927442762586805
 20
-9.458428276909721
 30
0.0
 10
3.748399522569444
 20
-9.445502387152777
 30
0.0
 10
3.573594835069444
 20
-9.420857747395832
 30
0.0
 10
3.711330837673611
 20
-9.071912977430555
 30
0.0
 10
3.898735894097222
 20
-8.74814181857639
 30
0.0
 10
4.127326117621528
 20
-8.457994249131945
 30
0.0
 10
4.269368489583333
 20
-8.638631184895832
 30
0.0
 10
4.395467122395833
 20
-8.831787109375
 30
0.0
 10
4.5035400390625
 20
-9.036146375868055
 30
0.0
 10
4.503743489583333
 20
-9.036485460069445
 30
0.0
 10
4.503824869791666
 20
-9.036838107638888
 30
0.0
 10
4.504163953993055
 20
-9.037109375
 30
0.0
 10
4.525336371527778
 20
-9.077650282118055
 30
0.0
 10
4.546223958333333
 20
-9.118476019965277
 30
0.0
 10
4.565931532118055
 20
-9.159844292534721
 30
0.0
 10
4.566501193576388
 20
-9.160386827256945
 30
0.0
 10
4.566623263888888
 20
-9.161241319444445
 30
0.0
 10
4.567097981770833
 20
-9.16164822048611
 30
0.0
 10
4.607313368055555
 20
-9.245212131076388
 30
0.0
 10
4.644382052951388
 20
-9.329820421006945
 30
0.0
 10
4.678697374131944
 20
-9.416029188368055
 30
0.0
 10
4.492730034722222
 20
-9.444173177083332
 30
0.0
 10
4.302761501736111
 20
-9.458577473958332
 30
0.0
 10
4.109056260850695
 20
-9.458577473958332
 30
0.0
  0
SPLINE
  5
52
330
1F
100
AcDbEntity
  8
Layer 1
370
     0
100
AcDbSpline
210
0.0
220
0.0
230
1.0
 70
    11
 71
     3
 72
    20
 73
    16
 74
     0
 42
0.0000000001
 43
0.0000000001
 40
0.0
 40
0.0
 40
0.0
 40
0.0
 40
1.0
 40
1.0
 40
1.0
 40
2.0
 40
2.0
 40
2.0
 40
3.0
 40
3.0
 40
3.0
 40
4.0
 40
4.0
 40
4.0
 40
5.0
 40
5.0
 40
5.0
 40
5.0
 10
5.339179144965278
 20
-9.255791558159721
 30
0.0
 10
5.234998914930555
 20
-9.291069878472221
 30
0.0
 10
5.129218207465278
 20
-9.321994357638888
 30
0.0
 10
5.021443684895833
 20
-9.348442925347221
 30
0.0
 10
4.862101236979166
 20
-8.9266357421875
 30
0.0
 10
4.63623046875
 20
-8.537339952256945
 30
0.0
 10
4.3564453125
 20
-8.19338650173611
 30
0.0
 10
4.427910698784722
 20
-8.11782497829861
 30
0.0
 10
4.502766927083333
 20
-8.04526095920139
 30
0.0
 10
4.579901801215278
 20
-7.975775824652778
 30
0.0
 10
4.827229817708333
 20
-8.147298177083332
 30
0.0
 10
5.101603190104166
 20
-8.281168619791666
 30
0.0
 10
5.396796332465278
 20
-8.372138129340277
 30
0.0
 10
5.332668728298611
 20
-8.66616482204861
 30
0.0
 10
5.313788519965278
 20
-8.963080512152777
 30
0.0
 10
5.339179144965278
 20
-9.255791558159721
 30
0.0
  0
SPLINE
  5
53
330
1F
100
AcDbEntity
  8
Layer 1
370
     0
100
AcDbSpline
210
0.0
220
0.0
230
1.0
 70
    11
 71
     3
 72
    14
 73
    10
 74
     0
 42
0.0000000001
 43
0.0000000001
 40
0.0
 40
0.0
 40
0.0
 40
0.0
 40
1.0
 40
1.0
 40
1.0
 40
2.0
 40
2.0
 40
2.0
 40
3.0
 40
3.0
 40
3.0
 40
3.0
 10
5.479085286458333
 20
-8.03744845920139
 30
0.0
 10
5.257880316840278
 20
-7.967149522569444
 30
0.0
 10
5.050550672743055
 20
-7.8692626953125
 30
0.0
 10
4.859537760416666
 20
-7.747368706597221
 30
0.0
 10
5.073106553819444
 20
-7.589206271701388
 30
0.0
 10
5.303819444444444
 20
-7.452568901909721
 30
0.0
 10
5.548177083333333
 20
-7.341118706597221
 30
0.0
 10
5.556070963541666
 20
-7.572482638888888
 30
0.0
 10
5.533650716145833
 20
-7.806369357638888
 30
0.0
 10
5.479085286458333
 20
-8.03744845920139
 30
0.0
  0
SPLINE
  5
54
330
1F
100
AcDbEntity
  8
Layer 1
370
     0
100
AcDbSpline
210
0.0
220
0.0
230
1.0
 70
    11
 71
     3
 72
    14
 73
    10
 74
     0
 42
0.0000000001
 43
0.0000000001
 40
0.0
 40
0.0
 40
0.0
 40
0.0
 40
1.0
 40
1.0
 40
1.0
 40
2.0
 40
2.0
 40
2.0
 40
3.0
 40
3.0
 40
3.0
 40
3.0
 10
5.675333658854166
 20
-9.123250325520832
 30
0.0
 10
5.664754231770833
 20
-8.890313042534721
 30
0.0
 10
5.684963650173611
 20
-8.655219184027777
 30
0.0
 10
5.737318250868055
 20
-8.422498914930555
 30
0.0
 10
5.964382595486111
 20
-8.491943359375
 30
0.0
 10
6.177381727430555
 20
-8.590684678819445
 30
0.0
 10
6.372897677951388
 20
-8.714667426215277
 30
0.0
 10
6.156684027777778
 20
-8.873982747395832
 30
0.0
 10
5.923068576388888
 20
-9.011447482638888
 30
0.0
 10
5.675333658854166
 20
-9.123250325520832
 30
0.0
  0
SPLINE
  5
55
330
1F
100
AcDbEntity
  8
Layer 1
370
     0
100
AcDbSpline
210
0.0
220
0.0
230
1.0
 70
    11
 71
     3
 72
    17
 73
    13
 74
     0
 42
0.0000000001
 43
0.0000000001
 40
0.0
 40
0.0
 40
0.0
 40
0.0
 40
1.0
 40
1.0
 40
1.0
 40
2.0
 40
2.0
 40
2.0
 40
3.0
 40
3.0
 40
3.0
 40
4.0
 40
4.0
 40
4.0
 40
4.0
 10
6.110026041666666
 20
-6.780205620659721
 30
0.0
 10
6.017849392361111
 20
-6.803168402777778
 30
0.0
 10
5.92724609375
 20
-6.829522026909721
 30
0.0
 10
5.8377685546875
 20
-6.858859592013888
 30
0.0
 10
5.819729275173611
 20
-6.7689208984375
 30
0.0
 10
5.797512478298611
 20
-6.679606119791666
 30
0.0
 10
5.771240234375
 20
-6.591254340277778
 30
0.0
 10
5.863579644097222
 20
-6.570163302951388
 30
0.0
 10
5.954752604166666
 20
-6.544759114583333
 30
0.0
 10
6.044135199652778
 20
-6.514811197916666
 30
0.0
 10
6.063178168402778
 20
-6.604275173611111
 30
0.0
 10
6.0850830078125
 20
-6.692735460069444
 30
0.0
 10
6.110026041666666
 20
-6.780205620659721
 30
0.0
  0
SPLINE
  5
56
330
1F
100
AcDbEntity
  8
Layer 1
370
     0
100
AcDbSpline
210
0.0
220
0.0
230
1.0
 70
    11
 71
     3
 72
    17
 73
    13
 74
     0
 42
0.0000000001
 43
0.0000000001
 40
0.0
 40
0.0
 40
0.0
 40
0.0
 40
1.0
 40
1.0
 40
1.0
 40
2.0
 40
2.0
 40
2.0
 40
3.0
 40
3.0
 40
3.0
 40
4.0
 40
4.0
 40
4.0
 40
4.0
 10
5.771497938368055
 20
-4.691942003038194
 30
0.0
 10
5.798190646701388
 20
-4.603583441840278
 30
0.0
 10
5.820475260416666
 20
-4.514139811197916
 30
0.0
 10
5.838609483506944
 20
-4.424336751302083
 30
0.0
 10
5.927992078993055
 20
-4.453545464409722
 30
0.0
 10
6.018663194444444
 20
-4.480170355902778
 30
0.0
 10
6.110690646701388
 20
-4.503343370225694
 30
0.0
 10
6.085584852430555
 20
-4.5904541015625
 30
0.0
 10
6.063639322916666
 20
-4.679144965277778
 30
0.0
 10
6.044637044270833
 20
-4.768446180555555
 30
0.0
 10
5.954969618055555
 20
-4.738640679253472
 30
0.0
 10
5.864081488715278
 20
-4.712965223524305
 30
0.0
 10
5.771497938368055
 20
-4.691942003038194
 30
0.0
  0
SPLINE
  5
57
330
1F
100
AcDbEntity
  8
Layer 1
370
     0
100
AcDbSpline
210
0.0
220
0.0
230
1.0
 70
    11
 71
     3
 72
    20
 73
    16
 74
     0
 42
0.0000000001
 43
0.0000000001
 40
0.0
 40
0.0
 40
0.0
 40
0.0
 40
1.0
 40
1.0
 40
1.0
 40
2.0
 40
2.0
 40
2.0
 40
3.0
 40
3.0
 40
3.0
 40
4.0
 40
4.0
 40
4.0
 40
5.0
 40
5.0
 40
5.0
 40
5.0
 10
6.653279622395833
 20
-8.48684353298611
 30
0.0
 10
6.400987413194444
 20
-8.313056098090277
 30
0.0
 10
6.1212158203125
 20
-8.178141276041666
 30
0.0
 10
5.819729275173611
 20
-8.0880126953125
 30
0.0
 10
5.886257595486111
 20
-7.795016818576388
 30
0.0
 10
5.907701280381944
 20
-7.498806423611111
 30
0.0
 10
5.8853759765625
 20
-7.206217447916666
 30
0.0
 10
5.994615342881944
 20
-7.168443467881944
 30
0.0
 10
6.105509440104166
 20
-7.135850694444444
 30
0.0
 10
6.218763563368055
 20
-7.107991536458333
 30
0.0
 10
6.378011067708333
 20
-7.529635959201388
 30
0.0
 10
6.604248046875
 20
-7.919053819444444
 30
0.0
 10
6.883884006076388
 20
-8.26296657986111
 30
0.0
 10
6.810207790798611
 20
-8.340888129340277
 30
0.0
 10
6.733208550347221
 20
-8.415445963541666
 30
0.0
 10
6.653279622395833
 20
-8.48684353298611
 30
0.0
  0
SPLINE
  5
58
330
1F
100
AcDbEntity
  8
Layer 1
370
     0
100
AcDbSpline
210
0.0
220
0.0
230
1.0
 70
    11
 71
     3
 72
    17
 73
    13
 74
     0
 42
0.0000000001
 43
0.0000000001
 40
0.0
 40
0.0
 40
0.0
 40
0.0
 40
1.0
 40
1.0
 40
1.0
 40
2.0
 40
2.0
 40
2.0
 40
3.0
 40
3.0
 40
3.0
 40
4.0
 40
4.0
 40
4.0
 40
4.0
 10
6.295694986979166
 20
-5.641669379340278
 30
0.0
 10
6.295844184027778
 20
-5.512017144097222
 30
0.0
 10
6.302544487847221
 20
-5.383409288194444
 30
0.0
 10
6.315280490451388
 20
-5.2569580078125
 30
0.0
 10
6.512288411458333
 20
-5.360100640190972
 30
0.0
 10
6.6971435546875
 20
-5.488776312934028
 30
0.0
 10
6.865546332465278
 20
-5.641947428385416
 30
0.0
 10
6.6971435546875
 20
-5.794826931423611
 30
0.0
 10
6.512234157986111
 20
-5.923529730902778
 30
0.0
 10
6.3150634765625
 20
-6.026665581597222
 30
0.0
 10
6.302110460069444
 20
-5.899997287326388
 30
0.0
 10
6.295694986979166
 20
-5.771511501736111
 30
0.0
 10
6.295694986979166
 20
-5.641669379340278
 30
0.0
  0
SPLINE
  5
59
330
1F
100
AcDbEntity
  8
Layer 1
370
     0
100
AcDbSpline
210
0.0
220
0.0
230
1.0
 70
    11
 71
     3
 72
    17
 73
    13
 74
     0
 42
0.0000000001
 43
0.0000000001
 40
0.0
 40
0.0
 40
0.0
 40
0.0
 40
1.0
 40
1.0
 40
1.0
 40
2.0
 40
2.0
 40
2.0
 40
3.0
 40
3.0
 40
3.0
 40
4.0
 40
4.0
 40
4.0
 40
4.0
 10
7.112657335069444
 20
-7.998562282986111
 30
0.0
 10
6.885470920138888
 20
-7.709513346354166
 30
0.0
 10
6.698744032118055
 20
-7.38720703125
 30
0.0
 10
6.561564127604166
 20
-7.040242513020833
 30
0.0
 10
6.747450086805555
 20
-7.012586805555555
 30
0.0
 10
6.937635633680555
 20
-6.997911241319444
 30
0.0
 10
7.131076388888888
 20
-6.998046875
 30
0.0
 10
7.312798394097221
 20
-6.998046875
 30
0.0
 10
7.491509331597221
 20
-7.011338975694444
 30
0.0
 10
7.666734483506944
 20
-7.035888671875
 30
0.0
 10
7.5289306640625
 20
-7.384562174479166
 30
0.0
 10
7.341444227430555
 20
-7.708428276909721
 30
0.0
 10
7.112657335069444
 20
-7.998562282986111
 30
0.0
  0
SPLINE
  5
5A
330
1F
100
AcDbEntity
  8
Layer 1
370
     0
100
AcDbSpline
210
0.0
220
0.0
230
1.0
 70
    11
 71
     3
 72
    23
 73
    19
 74
     0
 42
0.0000000001
 43
0.0000000001
 40
0.0
 40
0.0
 40
0.0
 40
0.0
 40
1.0
 40
1.0
 40
1.0
 40
2.0
 40
2.0
 40
2.0
 40
3.0
 40
3.0
 40
3.0
 40
4.0
 40
4.0
 40
4.0
 40
5.0
 40
5.0
 40
5.0
 40
6.0
 40
6.0
 40
6.0
 40
6.0
 10
7.779866536458333
 20
-6.704291449652778
 30
0.0
 10
7.568291558159721
 20
-6.671156141493055
 30
0.0
 10
7.351820203993055
 20
-6.653510199652778
 30
0.0
 10
7.131076388888888
 20
-6.653510199652778
 30
0.0
 10
6.898695203993055
 20
-6.653374565972221
 30
0.0
 10
6.670667860243055
 20
-6.672824435763888
 30
0.0
 10
6.448377821180555
 20
-6.709703233506944
 30
0.0
 10
6.417168511284721
 20
-6.603217230902778
 30
0.0
 10
6.3907470703125
 20
-6.494900173611111
 30
0.0
 10
6.368679470486111
 20
-6.384819878472221
 30
0.0
 10
6.635999891493055
 20
-6.258653428819444
 30
0.0
 10
6.884562174479166
 20
-6.091634114583333
 30
0.0
 10
7.107476128472221
 20
-5.887057834201388
 30
0.0
 10
7.332194010416666
 20
-6.098334418402778
 30
0.0
 10
7.583916558159721
 20
-6.270670572916666
 30
0.0
 10
7.854777018229166
 20
-6.400797526041666
 30
0.0
 10
7.833957248263888
 20
-6.5035400390625
 30
0.0
 10
7.808851453993055
 20
-6.604668511284721
 30
0.0
 10
7.779866536458333
 20
-6.704291449652778
 30
0.0
  0
SPLINE
  5
5B
330
1F
100
AcDbEntity
  8
Layer 1
370
     0
100
AcDbSpline
210
0.0
220
0.0
230
1.0
 70
    11
 71
     3
 72
    35
 73
    31
 74
     0
 42
0.0000000001
 43
0.0000000001
 40
0.0
 40
0.0
 40
0.0
 40
0.0
 40
1.0
 40
1.0
 40
1.0
 40
2.0
 40
2.0
 40
2.0
 40
3.0
 40
3.0
 40
3.0
 40
4.0
 40
4.0
 40
4.0
 40
5.0
 40
5.0
 40
5.0
 40
6.0
 40
6.0
 40
6.0
 40
7.0
 40
7.0
 40
7.0
 40
8.0
 40
8.0
 40
8.0
 40
9.0
 40
9.0
 40
9.0
 40
10.0
 40
10.0
 40
10.0
 40
10.0
 10
7.931708441840278
 20
-5.642164442274305
 30
0.0
 10
7.931355794270833
 20
-5.777330186631944
 30
0.0
 10
7.924085828993055
 20
-5.910725911458333
 30
0.0
 10
7.910196940104166
 20
-6.042371961805555
 30
0.0
 10
7.710869683159721
 20
-5.9365234375
 30
0.0
 10
7.524346245659721
 20
-5.804734971788194
 30
0.0
 10
7.355224609375
 20
-5.647603352864583
 30
0.0
 10
7.355889214409721
 20
-5.6468505859375
 30
0.0
 10
7.3568115234375
 20
-5.646016438802083
 30
0.0
 10
7.357557508680555
 20
-5.645480685763888
 30
0.0
 10
7.357557508680555
 20
-5.645480685763888
 30
0.0
 10
7.364813910590278
 20
-5.645480685763888
 30
0.0
 10
7.364813910590278
 20
-5.645480685763888
 30
0.0
 10
7.363661024305555
 20
-5.644219292534722
 30
0.0
 10
7.362331814236111
 20
-5.643256293402778
 30
0.0
 10
7.361219618055555
 20
-5.642022026909722
 30
0.0
 10
7.362331814236111
 20
-5.641181098090278
 30
0.0
 10
7.363661024305555
 20
-5.639940049913194
 30
0.0
 10
7.364813910590278
 20
-5.638821072048611
 30
0.0
 10
7.364813910590278
 20
-5.638821072048611
 30
0.0
 10
7.357557508680555
 20
-5.638821072048611
 30
0.0
 10
7.357557508680555
 20
-5.638821072048611
 30
0.0
 10
7.3568115234375
 20
-5.638278537326388
 30
0.0
 10
7.355889214409721
 20
-5.637586805555555
 30
0.0
 10
7.355224609375
 20
-5.636759440104166
 30
0.0
 10
7.524563259548611
 20
-5.479566786024305
 30
0.0
 10
7.711222330729166
 20
-5.347927517361111
 30
0.0
 10
7.910332573784721
 20
-5.242146809895833
 30
0.0
 10
7.924302842881944
 20
-5.373575846354166
 30
0.0
 10
7.931355794270833
 20
-5.50732421875
 30
0.0
 10
7.931708441840278
 20
-5.642164442274305
 30
0.0
  0
SPLINE
  5
5C
330
1F
100
AcDbEntity
  8
Layer 1
370
     0
100
AcDbSpline
210
0.0
220
0.0
230
1.0
 70
    11
 71
     3
 72
    23
 73
    19
 74
     0
 42
0.0000000001
 43
0.0000000001
 40
0.0
 40
0.0
 40
0.0
 40
0.0
 40
1.0
 40
1.0
 40
1.0
 40
2.0
 40
2.0
 40
2.0
 40
3.0
 40
3.0
 40
3.0
 40
4.0
 40
4.0
 40
4.0
 40
5.0
 40
5.0
 40
5.0
 40
6.0
 40
6.0
 40
6.0
 40
6.0
 10
7.855333116319444
 20
-4.883639865451388
 30
0.0
 10
7.5843505859375
 20
-5.013699001736111
 30
0.0
 10
7.332370334201388
 20
-5.185824924045138
 30
0.0
 10
7.107611762152778
 20
-5.396959092881944
 30
0.0
 10
6.884914822048611
 20
-5.192267523871528
 30
0.0
 10
6.636203342013888
 20
-5.025119357638888
 30
0.0
 10
6.369235568576388
 20
-4.898783365885416
 30
0.0
 10
6.391099717881944
 20
-4.788804796006944
 30
0.0
 10
6.417805989583333
 20
-4.680379231770833
 30
0.0
 10
6.448920355902778
 20
-4.574123806423611
 30
0.0
 10
6.671413845486111
 20
-4.610928005642361
 30
0.0
 10
6.8992919921875
 20
-4.630499945746528
 30
0.0
 10
7.1319580078125
 20
-4.630499945746528
 30
0.0
 10
7.3526611328125
 20
-4.630642361111111
 30
0.0
 10
7.569037543402778
 20
-4.613145616319444
 30
0.0
 10
7.780463324652778
 20
-4.580064561631944
 30
0.0
 10
7.809461805555555
 20
-4.679755316840278
 30
0.0
 10
7.834567599826388
 20
-4.780971950954861
 30
0.0
 10
7.855333116319444
 20
-4.883639865451388
 30
0.0
  0
SPLINE
  5
5D
330
1F
100
AcDbEntity
  8
Layer 1
370
     0
100
AcDbSpline
210
0.0
220
0.0
230
1.0
 70
    11
 71
     3
 72
    17
 73
    13
 74
     0
 42
0.0000000001
 43
0.0000000001
 40
0.0
 40
0.0
 40
0.0
 40
0.0
 40
1.0
 40
1.0
 40
1.0
 40
2.0
 40
2.0
 40
2.0
 40
3.0
 40
3.0
 40
3.0
 40
4.0
 40
4.0
 40
4.0
 40
4.0
 10
7.114176432291666
 20
-3.285603841145833
 30
0.0
 10
7.342556423611111
 20
-3.57568359375
 30
0.0
 10
7.530110677083333
 20
-3.899881998697917
 30
0.0
 10
7.667426215277778
 20
-4.248609754774305
 30
0.0
 10
7.492390950520833
 20
-4.273111979166666
 30
0.0
 10
7.313707139756944
 20
-4.286112467447916
 30
0.0
 10
7.1319580078125
 20
-4.286112467447916
 30
0.0
 10
6.938245985243055
 20
-4.286037868923611
 30
0.0
 10
6.748263888888888
 20
-4.271450466579861
 30
0.0
 10
6.562459309895833
 20
-4.243360731336805
 30
0.0
 10
6.699842664930555
 20
-3.896477593315972
 30
0.0
 10
6.886637369791666
 20
-3.574232313368055
 30
0.0
 10
7.114176432291666
 20
-3.285603841145833
 30
0.0
  0
SPLINE
  5
5E
330
1F
100
AcDbEntity
  8
Layer 1
370
     0
100
AcDbSpline
210
0.0
220
0.0
230
1.0
 70
    11
 71
     3
 72
    20
 73
    16
 74
     0
 42
0.0000000001
 43
0.0000000001
 40
0.0
 40
0.0
 40
0.0
 40
0.0
 40
1.0
 40
1.0
 40
1.0
 40
2.0
 40
2.0
 40
2.0
 40
3.0
 40
3.0
 40
3.0
 40
4.0
 40
4.0
 40
4.0
 40
5.0
 40
5.0
 40
5.0
 40
5.0
 10
6.885470920138888
 20
-3.020711263020833
 30
0.0
 10
6.605550130208333
 20
-3.364542643229167
 30
0.0
 10
6.379258897569444
 20
-3.753757052951389
 30
0.0
 10
6.2197265625
 20
-4.175286187065972
 30
0.0
 10
6.106472439236111
 20
-4.147549099392361
 30
0.0
 10
5.995456271701388
 20
-4.114752875434028
 30
0.0
 10
5.886338975694444
 20
-4.077121310763888
 30
0.0
 10
5.908962673611111
 20
-3.784613715277778
 30
0.0
 10
5.887668185763888
 20
-3.488104926215278
 30
0.0
 10
5.821397569444444
 20
-3.195048014322917
 30
0.0
 10
6.122870551215278
 20
-3.105319552951389
 30
0.0
 10
6.4027099609375
 20
-2.970486111111111
 30
0.0
 10
6.655015733506944
 20
-2.796827528211805
 30
0.0
 10
6.73486328125
 20
-2.868231879340278
 30
0.0
 10
6.811930338541666
 20
-2.942959255642361
 30
0.0
 10
6.885470920138888
 20
-3.020711263020833
 30
0.0
  0
SPLINE
  5
5F
330
1F
100
AcDbEntity
  8
Layer 1
370
     0
100
AcDbSpline
210
0.0
220
0.0
230
1.0
 70
    11
 71
     3
 72
    14
 73
    10
 74
     0
 42
0.0000000001
 43
0.0000000001
 40
0.0
 40
0.0
 40
0.0
 40
0.0
 40
1.0
 40
1.0
 40
1.0
 40
2.0
 40
2.0
 40
2.0
 40
3.0
 40
3.0
 40
3.0
 40
3.0
 10
5.677558051215278
 20
-2.159884982638889
 30
0.0
 10
5.925089518229166
 20
-2.271735297309028
 30
0.0
 10
6.158704969618055
 20
-2.409274631076389
 30
0.0
 10
6.374850802951388
 20
-2.568956163194444
 30
0.0
 10
6.179185655381944
 20
-2.692647298177083
 30
0.0
 10
5.965969509548611
 20
-2.791307237413194
 30
0.0
 10
5.739325629340278
 20
-2.860690646701389
 30
0.0
 10
5.686686197916666
 20
-2.627895779079861
 30
0.0
 10
5.666612413194444
 20
-2.392686631944444
 30
0.0
 10
5.677558051215278
 20
-2.159884982638889
 30
0.0
  0
SPLINE
  5
60
330
1F
100
AcDbEntity
  8
Layer 1
370
     0
100
AcDbSpline
210
0.0
220
0.0
230
1.0
 70
    11
 71
     3
 72
    53
 73
    49
 74
     0
 42
0.0000000001
 43
0.0000000001
 40
0.0
 40
0.0
 40
0.0
 40
0.0
 40
1.0
 40
1.0
 40
1.0
 40
2.0
 40
2.0
 40
2.0
 40
3.0
 40
3.0
 40
3.0
 40
4.0
 40
4.0
 40
4.0
 40
5.0
 40
5.0
 40
5.0
 40
6.0
 40
6.0
 40
6.0
 40
7.0
 40
7.0
 40
7.0
 40
8.0
 40
8.0
 40
8.0
 40
9.0
 40
9.0
 40
9.0
 40
10.0
 40
10.0
 40
10.0
 40
11.0
 40
11.0
 40
11.0
 40
12.0
 40
12.0
 40
12.0
 40
13.0
 40
13.0
 40
13.0
 40
14.0
 40
14.0
 40
14.0
 40
15.0
 40
15.0
 40
15.0
 40
16.0
 40
16.0
 40
16.0
 40
16.0
 10
5.985120985243055
 20
-5.112494574652778
 30
0.0
 10
5.962863498263888
 20
-5.284762912326388
 30
0.0
 10
5.951578776041666
 20
-5.460272894965278
 30
0.0
 10
5.951090494791666
 20
-5.638427734375
 30
0.0
 10
5.951090494791666
 20
-5.638427734375
 30
0.0
 10
5.951090494791666
 20
-5.638427734375
 30
0.0
 10
5.951090494791666
 20
-5.638427734375
 30
0.0
 10
5.951090494791666
 20
-5.639519585503472
 30
0.0
 10
5.951090494791666
 20
-5.640625
 30
0.0
 10
5.951090494791666
 20
-5.641533745659722
 30
0.0
 10
5.951090494791666
 20
-5.642768012152778
 30
0.0
 10
5.951090494791666
 20
-5.643961588541666
 30
0.0
 10
5.951090494791666
 20
-5.644917805989583
 30
0.0
 10
5.951090494791666
 20
-5.644917805989583
 30
0.0
 10
5.951090494791666
 20
-5.644917805989583
 30
0.0
 10
5.951090494791666
 20
-5.644917805989583
 30
0.0
 10
5.951375325520833
 20
-5.823140462239583
 30
0.0
 10
5.962795681423611
 20
-5.998589409722222
 30
0.0
 10
5.984781901041666
 20
-6.1708984375
 30
0.0
 10
5.876519097222222
 20
-6.209445529513888
 30
0.0
 10
5.765909830729166
 20
-6.2408447265625
 30
0.0
 10
5.652506510416666
 20
-6.264919704861111
 30
0.0
 10
5.609483506944444
 20
-6.164605034722222
 30
0.0
 10
5.560763888888888
 20
-6.065673828125
 30
0.0
 10
5.506184895833333
 20
-5.969319661458333
 30
0.0
 10
5.452568901909722
 20
-5.874674479166666
 30
0.0
 10
5.355170355902778
 20
-5.738810221354166
 30
0.0
 10
5.285224066840278
 20
-5.644775390625
 30
0.0
 10
5.285224066840278
 20
-5.644775390625
 30
0.0
 10
5.288533528645833
 20
-5.644775390625
 30
0.0
 10
5.288533528645833
 20
-5.644775390625
 30
0.0
 10
5.287773980034722
 20
-5.643683539496528
 30
0.0
 10
5.286946614583333
 20
-5.6427001953125
 30
0.0
 10
5.286539713541666
 20
-5.641316731770833
 30
0.0
 10
5.286946614583333
 20
-5.640407986111111
 30
0.0
 10
5.287773980034722
 20
-5.639241536458333
 30
0.0
 10
5.288533528645833
 20
-5.638278537326388
 30
0.0
 10
5.288533528645833
 20
-5.638278537326388
 30
0.0
 10
5.285224066840278
 20
-5.638278537326388
 30
0.0
 10
5.285224066840278
 20
-5.638278537326388
 30
0.0
 10
5.355238172743055
 20
-5.544257269965278
 30
0.0
 10
5.452623155381944
 20
-5.40838623046875
 30
0.0
 10
5.506306966145833
 20
-5.313883463541666
 30
0.0
 10
5.5609130859375
 20
-5.217237684461805
 30
0.0
 10
5.609822591145833
 20
-5.118733723958333
 30
0.0
 10
5.653062608506944
 20
-5.018202039930555
 30
0.0
 10
5.7662353515625
 20
-5.04248046875
 30
0.0
 10
5.877156575520833
 20
-5.073757595486111
 30
0.0
 10
5.985120985243055
 20
-5.112494574652778
 30
0.0
  0
SPLINE
  5
61
330
1F
100
AcDbEntity
  8
Layer 1
370
     0
100
AcDbSpline
210
0.0
220
0.0
230
1.0
 70
    11
 71
     3
 72
    14
 73
    10
 74
     0
 42
0.0000000001
 43
0.0000000001
 40
0.0
 40
0.0
 40
0.0
 40
0.0
 40
1.0
 40
1.0
 40
1.0
 40
2.0
 40
2.0
 40
2.0
 40
3.0
 40
3.0
 40
3.0
 40
3.0
 10
5.549058702256944
 20
-3.941928439670139
 30
0.0
 10
5.3048095703125
 20
-3.830417209201389
 30
0.0
 10
5.074354383680555
 20
-3.693576388888889
 30
0.0
 10
4.861070421006944
 20
-3.535142686631944
 30
0.0
 10
5.051730685763888
 20
-3.413445366753472
 30
0.0
 10
5.259209526909722
 20
-3.315633138020833
 30
0.0
 10
5.480319552951388
 20
-3.245693630642361
 30
0.0
 10
5.534817165798611
 20
-3.47662353515625
 30
0.0
 10
5.557237413194444
 20
-3.710313585069444
 30
0.0
 10
5.549058702256944
 20
-3.941928439670139
 30
0.0
  0
SPLINE
  5
62
330
1F
100
AcDbEntity
  8
Layer 1
370
     0
100
AcDbSpline
210
0.0
220
0.0
230
1.0
 70
    11
 71
     3
 72
    20
 73
    16
 74
     0
 42
0.0000000001
 43
0.0000000001
 40
0.0
 40
0.0
 40
0.0
 40
0.0
 40
1.0
 40
1.0
 40
1.0
 40
2.0
 40
2.0
 40
2.0
 40
3.0
 40
3.0
 40
3.0
 40
4.0
 40
4.0
 40
4.0
 40
5.0
 40
5.0
 40
5.0
 40
5.0
 10
5.341132269965278
 20
-2.0269775390625
 30
0.0
 10
5.315877278645833
 20
-2.319688585069444
 30
0.0
 10
5.334621853298611
 20
-2.616692437065972
 30
0.0
 10
5.398342556423611
 20
-2.910651312934028
 30
0.0
 10
5.103271484375
 20
-3.001824273003472
 30
0.0
 10
4.828884548611111
 20
-3.135274251302083
 30
0.0
 10
4.581434461805555
 20
-3.306572808159722
 30
0.0
 10
4.504231770833333
 20
-3.237040201822917
 30
0.0
 10
4.429497612847222
 20
-3.16461181640625
 30
0.0
 10
4.3580322265625
 20
-3.089057074652778
 30
0.0
 10
4.637953016493055
 20
-2.745293511284722
 30
0.0
 10
4.8642578125
 20
-2.355936686197917
 30
0.0
 10
5.023790147569444
 20
-1.934346516927083
 30
0.0
 10
5.131442599826388
 20
-1.960849338107639
 30
0.0
 10
5.237481011284722
 20
-1.991488986545139
 30
0.0
 10
5.341132269965278
 20
-2.0269775390625
 30
0.0
  0
SPLINE
  5
63
330
1F
100
AcDbEntity
  8
Layer 1
370
     0
100
AcDbSpline
210
0.0
220
0.0
230
1.0
 70
    11
 71
     3
 72
    29
 73
    25
 74
     0
 42
0.0000000001
 43
0.0000000001
 40
0.0
 40
0.0
 40
0.0
 40
0.0
 40
1.0
 40
1.0
 40
1.0
 40
2.0
 40
2.0
 40
2.0
 40
3.0
 40
3.0
 40
3.0
 40
4.0
 40
4.0
 40
4.0
 40
5.0
 40
5.0
 40
5.0
 40
6.0
 40
6.0
 40
6.0
 40
7.0
 40
7.0
 40
7.0
 40
8.0
 40
8.0
 40
8.0
 40
8.0
 10
4.111348470052083
 20
-1.823649088541667
 30
0.0
 10
4.304850260416666
 20
-1.823649088541667
 30
0.0
 10
4.495171440972222
 20
-1.838324652777778
 30
0.0
 10
4.680908203125
 20
-1.86627197265625
 30
0.0
 10
4.646592881944444
 20
-1.952745225694444
 30
0.0
 10
4.609388563368055
 20
-2.037428114149305
 30
0.0
 10
4.569105360243055
 20
-2.120510525173611
 30
0.0
 10
4.5689697265625
 20
-2.121270073784722
 30
0.0
 10
4.568576388888888
 20
-2.121832953559028
 30
0.0
 10
4.568074544270833
 20
-2.122585720486111
 30
0.0
 10
4.5482177734375
 20
-2.164035373263889
 30
0.0
 10
4.527411566840278
 20
-2.20477294921875
 30
0.0
 10
4.506171332465278
 20
-2.245320638020833
 30
0.0
 10
4.505900065104166
 20
-2.245598687065972
 30
0.0
 10
4.505615234375
 20
-2.246005588107639
 30
0.0
 10
4.505615234375
 20
-2.246222601996528
 30
0.0
 10
4.397393120659722
 20
-2.450371636284722
 30
0.0
 10
4.271091037326388
 20
-2.643798828125
 30
0.0
 10
4.128770616319445
 20
-2.824164496527778
 30
0.0
 10
3.900539822048611
 20
-2.533806694878472
 30
0.0
 10
3.713270399305555
 20
-2.210042317708333
 30
0.0
 10
3.575812445746528
 20
-1.861280653211805
 30
0.0
 10
3.750901963975694
 20
-1.836588541666667
 30
0.0
 10
3.929877387152778
 20
-1.823588053385417
 30
0.0
 10
4.111348470052083
 20
-1.823649088541667
 30
0.0
  0
SPLINE
  5
64
330
1F
100
AcDbEntity
  8
Layer 1
370
     0
100
AcDbSpline
210
0.0
220
0.0
230
1.0
 70
    11
 71
     3
 72
    20
 73
    16
 74
     0
 42
0.0000000001
 43
0.0000000001
 40
0.0
 40
0.0
 40
0.0
 40
0.0
 40
1.0
 40
1.0
 40
1.0
 40
2.0
 40
2.0
 40
2.0
 40
3.0
 40
3.0
 40
3.0
 40
4.0
 40
4.0
 40
4.0
 40
5.0
 40
5.0
 40
5.0
 40
5.0
 10
2.898173014322917
 20
-2.020758734809028
 30
0.0
 10
3.007344563802083
 20
-1.983954535590278
 30
0.0
 10
3.118801540798611
 20
-1.952541775173611
 30
0.0
 10
3.231838650173611
 20
-1.925699869791667
 30
0.0
 10
3.391567654079861
 20
-2.350606282552083
 30
0.0
 10
3.618564181857639
 20
-2.742533365885417
 30
0.0
 10
3.90020751953125
 20
-3.088785807291667
 30
0.0
 10
3.819403754340278
 20
-3.1739501953125
 30
0.0
 10
3.734714084201389
 20
-3.255377875434028
 30
0.0
 10
3.646504720052083
 20
-3.332919650607639
 30
0.0
 10
3.39849853515625
 20
-3.156934950086805
 30
0.0
 10
3.124871148003472
 20
-3.020155164930555
 30
0.0
 10
2.835008409288194
 20
-2.929111056857639
 30
0.0
 10
2.903428819444444
 20
-2.627204047309028
 30
0.0
 10
2.924031575520833
 20
-2.321770562065972
 30
0.0
 10
2.898173014322917
 20
-2.020758734809028
 30
0.0
  0
SPLINE
  5
65
330
1F
100
AcDbEntity
  8
Layer 1
370
     0
100
AcDbSpline
210
0.0
220
0.0
230
1.0
 70
    11
 71
     3
 72
    38
 73
    34
 74
     0
 42
0.0000000001
 43
0.0000000001
 40
0.0
 40
0.0
 40
0.0
 40
0.0
 40
1.0
 40
1.0
 40
1.0
 40
2.0
 40
2.0
 40
2.0
 40
3.0
 40
3.0
 40
3.0
 40
4.0
 40
4.0
 40
4.0
 40
5.0
 40
5.0
 40
5.0
 40
6.0
 40
6.0
 40
6.0
 40
7.0
 40
7.0
 40
7.0
 40
8.0
 40
8.0
 40
8.0
 40
9.0
 40
9.0
 40
9.0
 40
10.0
 40
10.0
 40
10.0
 40
11.0
 40
11.0
 40
11.0
 40
11.0
 10
2.735928005642361
 20
-3.277092827690972
 30
0.0
 10
2.735928005642361
 20
-3.277092827690972
 30
0.0
 10
2.737447102864583
 20
-3.27764892578125
 30
0.0
 10
2.737447102864583
 20
-3.27764892578125
 30
0.0
 10
2.737447102864583
 20
-3.27764892578125
 30
0.0
 10
2.737799750434028
 20
-3.277303059895833
 30
0.0
 10
2.737799750434028
 20
-3.277303059895833
 30
0.0
 10
2.737799750434028
 20
-3.277303059895833
 30
0.0
 10
2.738505045572917
 20
-3.27764892578125
 30
0.0
 10
2.738505045572917
 20
-3.27764892578125
 30
0.0
 10
2.738505045572917
 20
-3.27764892578125
 30
0.0
 10
2.74346923828125
 20
-3.260972764756944
 30
0.0
 10
2.74346923828125
 20
-3.260972764756944
 30
0.0
 10
2.963216145833333
 20
-3.330919053819444
 30
0.0
 10
3.171712239583333
 20
-3.431511773003472
 30
0.0
 10
3.365071614583333
 20
-3.557705349392361
 30
0.0
 10
3.363552517361111
 20
-3.558668348524305
 30
0.0
 10
3.36224365234375
 20
-3.559502495659722
 30
0.0
 10
3.361009385850694
 20
-3.560743543836805
 30
0.0
 10
3.203389485677083
 20
-3.674479166666667
 30
0.0
 10
3.036729600694444
 20
-3.776875813802083
 30
0.0
 10
2.862481011284722
 20
-3.866109212239583
 30
0.0
 10
2.85638427734375
 20
-3.869303385416667
 30
0.0
 10
2.850145128038194
 20
-3.8721923828125
 30
0.0
 10
2.844136555989583
 20
-3.875244140625
 30
0.0
 10
2.793423122829861
 20
-3.900906032986111
 30
0.0
 10
2.742024739583333
 20
-3.925401475694444
 30
0.0
 10
2.689785427517361
 20
-3.948994954427083
 30
0.0
 10
2.685160319010417
 20
-3.951056586371528
 30
0.0
 10
2.680162217881944
 20
-3.953423394097222
 30
0.0
 10
2.675048828125
 20
-3.955702039930555
 30
0.0
 10
2.665778266059028
 20
-3.7301025390625
 30
0.0
 10
2.685696072048611
 20
-3.502631293402778
 30
0.0
 10
2.735928005642361
 20
-3.277092827690972
 30
0.0
  0
SPLINE
  5
66
330
1F
100
AcDbEntity
  8
Layer 1
370
     0
100
AcDbSpline
210
0.0
220
0.0
230
1.0
 70
    11
 71
     3
 72
    20
 73
    16
 74
     0
 42
0.0000000001
 43
0.0000000001
 40
0.0
 40
0.0
 40
0.0
 40
0.0
 40
1.0
 40
1.0
 40
1.0
 40
2.0
 40
2.0
 40
2.0
 40
3.0
 40
3.0
 40
3.0
 40
4.0
 40
4.0
 40
4.0
 40
5.0
 40
5.0
 40
5.0
 40
5.0
 10
2.561184353298611
 20
-2.151923285590278
 30
0.0
 10
2.571492513020833
 20
-2.380988226996528
 30
0.0
 10
2.551561143663194
 20
-2.612325032552083
 30
0.0
 10
2.500705295138889
 20
-2.841322157118055
 30
0.0
 10
2.500705295138889
 20
-2.841322157118055
 30
0.0
 10
2.499118381076389
 20
-2.840901692708333
 30
0.0
 10
2.499118381076389
 20
-2.840901692708333
 30
0.0
 10
2.499118381076389
 20
-2.840901692708333
 30
0.0
 10
2.493930392795139
 20
-2.85784912109375
 30
0.0
 10
2.493930392795139
 20
-2.85784912109375
 30
0.0
 10
2.266059027777778
 20
-2.787021213107639
 30
0.0
 10
2.052639431423611
 20
-2.686835394965278
 30
0.0
 10
1.856703016493055
 20
-2.561069064670139
 30
0.0
 10
2.075181749131944
 20
-2.400831434461805
 30
0.0
 10
2.311008029513889
 20
-2.263441297743055
 30
0.0
 10
2.561184353298611
 20
-2.151923285590278
 30
0.0
  0
SPLINE
  5
67
330
1F
100
AcDbEntity
  8
Layer 1
370
     0
100
AcDbSpline
210
0.0
220
0.0
230
1.0
 70
    11
 71
     3
 72
    77
 73
    73
 74
     0
 42
0.0000000001
 43
0.0000000001
 40
0.0
 40
0.0
 40
0.0
 40
0.0
 40
1.0
 40
1.0
 40
1.0
 40
2.0
 40
2.0
 40
2.0
 40
3.0
 40
3.0
 40
3.0
 40
4.0
 40
4.0
 40
4.0
 40
5.0
 40
5.0
 40
5.0
 40
6.0
 40
6.0
 40
6.0
 40
7.0
 40
7.0
 40
7.0
 40
8.0
 40
8.0
 40
8.0
 40
9.0
 40
9.0
 40
9.0
 40
10.0
 40
10.0
 40
10.0
 40
11.0
 40
11.0
 40
11.0
 40
12.0
 40
12.0
 40
12.0
 40
13.0
 40
13.0
 40
13.0
 40
14.0
 40
14.0
 40
14.0
 40
15.0
 40
15.0
 40
15.0
 40
16.0
 40
16.0
 40
16.0
 40
17.0
 40
17.0
 40
17.0
 40
18.0
 40
18.0
 40
18.0
 40
19.0
 40
19.0
 40
19.0
 40
20.0
 40
20.0
 40
20.0
 40
21.0
 40
21.0
 40
21.0
 40
22.0
 40
22.0
 40
22.0
 40
23.0
 40
23.0
 40
23.0
 40
24.0
 40
24.0
 40
24.0
 40
24.0
 10
1.575751410590278
 20
-2.78778076171875
 30
0.0
 10
1.586344401041667
 20
-2.795166015625
 30
0.0
 10
1.597073025173611
 20
-2.801961263020833
 30
0.0
 10
1.607720269097222
 20
-2.809353298611111
 30
0.0
 10
1.611104329427083
 20
-2.811638726128472
 30
0.0
 10
1.614712185329861
 20
-2.813930935329861
 30
0.0
 10
1.618374294704861
 20
-2.816351996527778
 30
0.0
 10
1.643208821614583
 20
-2.833224826388889
 30
0.0
 10
1.668531629774305
 20
-2.849772135416667
 30
0.0
 10
1.694125705295139
 20
-2.865675184461805
 30
0.0
 10
1.700907389322917
 20
-2.870035807291667
 30
0.0
 10
1.708102756076389
 20
-2.874321831597222
 30
0.0
 10
1.715155707465278
 20
-2.878675672743055
 30
0.0
 10
1.737840440538194
 20
-2.892795138888889
 30
0.0
 10
1.760748969184028
 20
-2.906765407986111
 30
0.0
 10
1.784132215711805
 20
-2.920118543836805
 30
0.0
 10
1.795125325520833
 20
-2.926628960503472
 30
0.0
 10
1.806403266059028
 20
-2.932712131076389
 30
0.0
 10
1.817681206597222
 20
-2.939012315538194
 30
0.0
 10
1.837537977430555
 20
-2.950154622395833
 30
0.0
 10
1.857184516059028
 20
-2.961418999565972
 30
0.0
 10
1.877190483940972
 20
-2.971869574652778
 30
0.0
 10
1.897515190972222
 20
-2.983011881510417
 30
0.0
 10
1.918402777777778
 20
-2.993381076388889
 30
0.0
 10
1.939100477430555
 20
-3.003696017795139
 30
0.0
 10
1.950453016493055
 20
-3.009433322482639
 30
0.0
 10
1.961785210503472
 20
-3.015387641059028
 30
0.0
 10
1.97320556640625
 20
-3.020982530381944
 30
0.0
 10
2.041069878472222
 20
-3.053921169704861
 30
0.0
 10
2.110453287760417
 20
-3.084499782986111
 30
0.0
 10
2.181165907118055
 20
-3.112508138020833
 30
0.0
 10
2.183926052517361
 20
-3.113484700520833
 30
0.0
 10
2.186570909288194
 20
-3.114447699652778
 30
0.0
 10
2.189066569010417
 20
-3.115559895833333
 30
0.0
 10
2.222188313802083
 20
-3.128424750434028
 30
0.0
 10
2.255452473958333
 20
-3.140875922309028
 30
0.0
 10
2.288960774739583
 20
-3.152581108940972
 30
0.0
 10
2.292622884114583
 20
-3.153815375434028
 30
0.0
 10
2.296156141493055
 20
-3.154988606770833
 30
0.0
 10
2.299967447916667
 20
-3.156304253472222
 30
0.0
 10
2.332594129774305
 20
-3.167724609375
 30
0.0
 10
2.365960015190972
 20
-3.178575303819444
 30
0.0
 10
2.399359809027778
 20
-3.188958062065972
 30
0.0
 10
2.400600857204861
 20
-3.189303927951389
 30
0.0
 10
2.401652018229167
 20
-3.189717610677083
 30
0.0
 10
2.40289306640625
 20
-3.190070258246528
 30
0.0
 10
2.335164388020833
 20
-3.488104926215278
 30
0.0
 10
2.313795301649305
 20
-3.789869520399305
 30
0.0
 10
2.337992350260417
 20
-4.087015787760416
 30
0.0
 10
2.336615668402778
 20
-4.087632921006945
 30
0.0
 10
2.335164388020833
 20
-4.088127983940972
 30
0.0
 10
2.333787706163194
 20
-4.088534884982638
 30
0.0
 10
2.301547580295139
 20
-4.099256727430555
 30
0.0
 10
2.268893771701389
 20
-4.109144422743055
 30
0.0
 10
2.236307779947917
 20
-4.119188096788195
 30
0.0
 10
2.218668619791667
 20
-4.124437120225695
 30
0.0
 10
2.201375325520833
 20
-4.130045572916666
 30
0.0
 10
2.183851453993055
 20
-4.135165744357638
 30
0.0
 10
2.154256184895833
 20
-4.1436767578125
 30
0.0
 10
2.124498155381944
 20
-4.151496039496528
 30
0.0
 10
2.094828287760417
 20
-4.159233940972222
 30
0.0
 10
2.073520236545139
 20
-4.164842393663195
 30
0.0
 10
2.052286783854167
 20
-4.170518663194445
 30
0.0
 10
2.030558268229167
 20
-4.17584228515625
 30
0.0
 10
2.022264268663194
 20
-4.177646213107638
 30
0.0
 10
2.013807508680555
 20
-4.179517957899305
 30
0.0
 10
2.005452473958333
 20
-4.181504991319445
 30
0.0
 10
1.845703125
 20
-3.756808810763889
 30
0.0
 10
1.617601182725694
 20
-3.365939670138889
 30
0.0
 10
1.336113823784722
 20
-3.019883897569444
 30
0.0
 10
1.412346733940972
 20
-2.939073350694444
 30
0.0
 10
1.492594401041667
 20
-2.861660427517361
 30
0.0
 10
1.575751410590278
 20
-2.78778076171875
 30
0.0
  0
ENDSEC
  0
SECTION
  2
OBJECTS
  0
DICTIONARY
  5
C
330
0
100
AcDbDictionary
281
     1
  3
ACAD_GROUP
350
D
  3
ACAD_LAYOUT
350
1A
  3
ACAD_MLINESTYLE
350
17
  3
ACAD_PLOTSETTINGS
350
19
  3
ACAD_PLOTSTYLENAME
350
E
  3
ACAD_TABLESTYLE
350
68
  3
ACAD_VISUALSTYLE
350
2A
  0
DICTIONARY
  5
D
102
{ACAD_REACTORS
330
C
102
}
330
C
100
AcDbDictionary
281
     1
  0
DICTIONARY
  5
1A
102
{ACAD_REACTORS
330
C
102
}
330
C
100
AcDbDictionary
281
     1
  3
Layout1
350
1E
  3
Layout2
350
26
  3
Model
350
22
  0
DICTIONARY
  5
17
102
{ACAD_REACTORS
330
C
102
}
330
C
100
AcDbDictionary
281
     1
  3
Standard
350
18
  0
DICTIONARY
  5
19
102
{ACAD_REACTORS
330
C
102
}
330
C
100
AcDbDictionary
281
     1
  0
ACDBDICTIONARYWDFLT
  5
E
102
{ACAD_REACTORS
330
C
102
}
330
C
100
AcDbDictionary
281
     1
  3
Normal
350
F
100
AcDbDictionaryWithDefault
340
F
  0
DICTIONARY
  5
68
102
{ACAD_REACTORS
330
C
102
}
330
C
100
AcDbDictionary
281
     1
  0
DICTIONARY
  5
2A
102
{ACAD_REACTORS
330
C
102
}
330
C
100
AcDbDictionary
281
     1
  3
2dWireframe
350
2F
  3
3D Hidden
350
31
  3
3dWireframe
350
30
  3
Basic
350
32
  3
Brighten
350
36
  3
ColorChange
350
3A
  3
Conceptual
350
34
  3
Dim
350
35
  3
Facepattern
350
39
  3
Flat
350
2B
  3
FlatWithEdges
350
2C
  3
Gouraud
350
2D
  3
GouraudWithEdges
350
2E
  3
Linepattern
350
38
  3
Realistic
350
33
  3
Thicken
350
37
  0
LAYOUT
  5
1E
102
{ACAD_REACTORS
330
1A
102
}
330
1A
100
AcDbPlotSettings
  1

  2
none_device
  4

  6

 40
0.0
 41
0.0
 42
0.0
 43
0.0
 44
0.0
 45
0.0
 46
0.0
 47
0.0
 48
0.0
 49
0.0
140
0.0
141
0.0
142
1.0
143
1.0
 70
   688
 72
     0
 73
     0
 74
     5
  7

 75
    16
 76
     0
 77
     2
 78
   300
147
1.0
148
0.0
149
0.0
100
AcDbLayout
  1
Layout1
 70
     1
 71
     1
 10
0.0
 20
0.0
 11
12.0
 21
9.0
 12
0.0
 22
0.0
 32
0.0
 14
1.000000000000000E+20
 24
1.000000000000000E+20
 34
1.000000000000000E+20
 15
-1.000000000000000E+20
 25
-1.000000000000000E+20
 35
-1.000000000000000E+20
146
0.0
 13
0.0
 23
0.0
 33
0.0
 16
1.0
 26
0.0
 36
0.0
 17
0.0
 27
1.0
 37
0.0
 76
     0
330
1B
  0
LAYOUT
  5
26
102
{ACAD_REACTORS
330
1A
102
}
330
1A
100
AcDbPlotSettings
  1

  2
none_device
  4

  6

 40
0.0
 41
0.0
 42
0.0
 43
0.0
 44
0.0
 45
0.0
 46
0.0
 47
0.0
 48
0.0
 49
0.0
140
0.0
141
0.0
142
1.0
143
1.0
 70
   688
 72
     0
 73
     0
 74
     5
  7

 75
    16
 76
     0
 77
     2
 78
   300
147
1.0
148
0.0
149
0.0
100
AcDbLayout
  1
Layout2
 70
     1
 71
     2
 10
0.0
 20
0.0
 11
0.0
 21
0.0
 12
0.0
 22
0.0
 32
0.0
 14
0.0
 24
0.0
 34
0.0
 15
0.0
 25
0.0
 35
0.0
146
0.0
 13
0.0
 23
0.0
 33
0.0
 16
1.0
 26
0.0
 36
0.0
 17
0.0
 27
1.0
 37
0.0
 76
     0
330
23
  0
LAYOUT
  5
22
102
{ACAD_REACTORS
330
1A
102
}
330
1A
100
AcDbPlotSettings
  1

  2
none_device
  4

  6

 40
0.0
 41
0.0
 42
0.0
 43
0.0
 44
0.0
 45
0.0
 46
0.0
 47
0.0
 48
0.0
 49
0.0
140
0.0
141
0.0
142
1.0
143
1.0
 70
  1712
 72
     0
 73
     0
 74
     0
  7

 75
     0
 76
     0
 77
     2
 78
   300
147
1.0
148
0.0
149
0.0
100
AcDbLayout
  1
Model
 70
     1
 71
     0
 10
0.0
 20
0.0
 11
12.0
 21
9.0
 12
0.0
 22
0.0
 32
0.0
 14
1.000000000000000E+20
 24
1.000000000000000E+20
 34
1.000000000000000E+20
 15
-1.000000000000000E+20
 25
-1.000000000000000E+20
 35
-1.000000000000000E+20
146
0.0
 13
0.0
 23
0.0
 33
0.0
 16
1.0
 26
0.0
 36
0.0
 17
0.0
 27
1.0
 37
0.0
 76
     0
330
1F
331
29
  0
MLINESTYLE
  5
18
102
{ACAD_REACTORS
330
17
102
}
330
17
100
AcDbMlineStyle
  2
Standard
 70
     0
  3

 62
   256
 51
90.0
 52
90.0
 71
     2
 49
0.5
 62
   256
  6
BYLAYER
 49
-0.5
 62
   256
  6
BYLAYER
  0
ACDBPLACEHOLDER
  5
F
102
{ACAD_REACTORS
330
E
102
}
330
E
  0
VISUALSTYLE
  5
2F
102
{ACAD_REACTORS
330
2A
102
}
330
2A
100
AcDbVisualStyle
  2
2dWireframe
 70
     4
 71
     0
 72
     2
 73
     0
 90
        0
 40
-0.6
 41
-30.0
 62
     5
 63
     7
421
 16777215
 74
     1
 91
        4
 64
     7
 65
   257
 75
     1
175
     1
 42
1.0
 92
        0
 66
   257
 43
1.0
 76
     1
 77
     6
 78
     2
 67
     7
 79
     5
170
     0
171
     0
290
     0
174
     0
 93
        1
 44
0.0
173
     0
291
     0
 45
0.0
1001
ACAD
1000
AcDbSavedByObjectVersion
1070
     0
  0
VISUALSTYLE
  5
31
102
{ACAD_REACTORS
330
2A
102
}
330
2A
100
AcDbVisualStyle
  2
3D Hidden
 70
     6
 71
     1
 72
     2
 73
     2
 90
        0
 40
-0.6
 41
-30.0
 62
     5
 63
     7
421
 16777215
 74
     2
 91
        2
 64
     7
 65
   257
 75
     2
175
     1
 42
40.0
 92
        0
 66
   257
 43
1.0
 76
     1
 77
     6
 78
     2
 67
     7
 79
     3
170
     0
171
     0
290
     0
174
     0
 93
        1
 44
0.0
173
     0
291
     0
 45
0.0
1001
ACAD
1000
AcDbSavedByObjectVersion
1070
     0
  0
VISUALSTYLE
  5
30
102
{ACAD_REACTORS
330
2A
102
}
330
2A
100
AcDbVisualStyle
  2
3dWireframe
 70
     5
 71
     0
 72
     2
 73
     0
 90
        0
 40
-0.6
 41
-30.0
 62
     5
 63
     7
421
 16777215
 74
     1
 91
        4
 64
     7
 65
   257
 75
     1
175
     1
 42
1.0
 92
        0
 66
   257
 43
1.0
 76
     1
 77
     6
 78
     2
 67
     7
 79
     5
170
     0
171
     0
290
     0
174
     0
 93
        1
 44
0.0
173
     0
291
     0
 45
0.0
1001
ACAD
1000
AcDbSavedByObjectVersion
1070
     0
  0
VISUALSTYLE
  5
32
102
{ACAD_REACTORS
330
2A
102
}
330
2A
100
AcDbVisualStyle
  2
Basic
 70
     7
 71
     1
 72
     0
 73
     1
 90
        0
 40
-0.6
 41
-30.0
 62
     5
 63
     7
421
 16777215
 74
     0
 91
        4
 64
     7
 65
   257
 75
     1
175
     1
 42
1.0
 92
        8
 66
     7
 43
1.0
 76
     1
 77
     6
 78
     2
 67
     7
 79
     5
170
     0
171
     0
290
     0
174
     0
 93
        1
 44
0.0
173
     0
291
     1
 45
0.0
1001
ACAD
1000
AcDbSavedByObjectVersion
1070
     0
  0
VISUALSTYLE
  5
36
102
{ACAD_REACTORS
330
2A
102
}
330
2A
100
AcDbVisualStyle
  2
Brighten
 70
    12
 71
     2
 72
     2
 73
     0
 90
        0
 40
-0.6
 41
-30.0
 62
     5
 63
     7
421
 16777215
 74
     1
 91
        4
 64
     7
 65
   257
 75
     1
175
     1
 42
1.0
 92
        8
 66
     7
 43
1.0
 76
     1
 77
     6
 78
     2
 67
     7
 79
     5
170
     0
171
     0
290
     0
174
     0
 93
        1
 44
50.0
173
     0
291
     1
 45
0.0
1001
ACAD
1000
AcDbSavedByObjectVersion
1070
     0
  0
VISUALSTYLE
  5
3A
102
{ACAD_REACTORS
330
2A
102
}
330
2A
100
AcDbVisualStyle
  2
ColorChange
 70
    16
 71
     2
 72
     2
 73
     3
 90
        0
 40
-0.6
 41
-30.0
 62
     5
 63
     8
421
  8421504
 74
     1
 91
        4
 64
     7
 65
   257
 75
     1
175
     1
 42
1.0
 92
        8
 66
     8
424
  8421504
 43
1.0
 76
     1
 77
     6
 78
     2
 67
     7
 79
     5
170
     0
171
     0
290
     0
174
     0
 93
        1
 44
0.0
173
     0
291
     1
 45
0.0
1001
ACAD
1000
AcDbSavedByObjectVersion
1070
     0
  0
VISUALSTYLE
  5
34
102
{ACAD_REACTORS
330
2A
102
}
330
2A
100
AcDbVisualStyle
  2
Conceptual
 70
     9
 71
     3
 72
     2
 73
     0
 90
        0
 40
-0.6
 41
-30.0
 62
     5
 63
     7
421
 16777215
 74
     2
 91
        2
 64
     7
 65
   257
 75
     1
175
     1
 42
40.0
 92
        8
 66
     7
 43
1.0
 76
     1
 77
     6
 78
     2
 67
     7
 79
     3
170
     0
171
     0
290
     0
174
     0
 93
        1
 44
0.0
173
     0
291
     0
 45
0.0
1001
ACAD
1000
AcDbSavedByObjectVersion
1070
     0
  0
VISUALSTYLE
  5
35
102
{ACAD_REACTORS
330
2A
102
}
330
2A
100
AcDbVisualStyle
  2
Dim
 70
    11
 71
     2
 72
     2
 73
     0
 90
        0
 40
-0.6
 41
-30.0
 62
     5
 63
     7
421
 16777215
 74
     1
 91
        4
 64
     7
 65
   257
 75
     1
175
     1
 42
1.0
 92
        8
 66
     7
 43
1.0
 76
     1
 77
     6
 78
     2
 67
     7
 79
     5
170
     0
171
     0
290
     0
174
     0
 93
        1
 44
-50.0
173
     0
291
     1
 45
0.0
1001
ACAD
1000
AcDbSavedByObjectVersion
1070
     0
  0
VISUALSTYLE
  5
39
102
{ACAD_REACTORS
330
2A
102
}
330
2A
100
AcDbVisualStyle
  2
Facepattern
 70
    15
 71
     2
 72
     2
 73
     0
 90
        0
 40
-0.6
 41
-30.0
 62
     5
 63
     7
421
 16777215
 74
     1
 91
        4
 64
     7
 65
   257
 75
     1
175
     1
 42
1.0
 92
        8
 66
     7
 43
1.0
 76
     1
 77
     6
 78
     2
 67
     7
 79
     5
170
     0
171
     0
290
     0
174
     0
 93
        1
 44
0.0
173
     0
291
     1
 45
0.0
1001
ACAD
1000
AcDbSavedByObjectVersion
1070
     0
  0
VISUALSTYLE
  5
2B
102
{ACAD_REACTORS
330
2A
102
}
330
2A
100
AcDbVisualStyle
  2
Flat
 70
     0
 71
     2
 72
     1
 73
     1
 90
        2
 40
-0.6
 41
30.0
 62
     5
 63
     7
421
 16777215
 74
     0
 91
        4
 64
     7
 65
   257
 75
     1
175
     1
 42
1.0
 92
        8
 66
     7
 43
1.0
 76
     1
 77
     6
 78
     2
 67
     7
 79
     5
170
     0
171
     0
290
     0
174
     0
 93
       13
 44
0.0
173
     0
291
     1
 45
0.0
1001
ACAD
1000
AcDbSavedByObjectVersion
1070
     0
  0
VISUALSTYLE
  5
2C
102
{ACAD_REACTORS
330
2A
102
}
330
2A
100
AcDbVisualStyle
  2
FlatWithEdges
 70
     1
 71
     2
 72
     1
 73
     1
 90
        2
 40
-0.6
 41
30.0
 62
     5
 63
     7
421
 16777215
 74
     1
 91
        4
 64
     7
 65
   257
 75
     1
175
     1
 42
1.0
 92
        0
 66
   257
 43
1.0
 76
     1
 77
     6
 78
     2
 67
     7
 79
     5
170
     0
171
     0
290
     0
174
     0
 93
       13
 44
0.0
173
     0
291
     1
 45
0.0
1001
ACAD
1000
AcDbSavedByObjectVersion
1070
     0
  0
VISUALSTYLE
  5
2D
102
{ACAD_REACTORS
330
2A
102
}
330
2A
100
AcDbVisualStyle
  2
Gouraud
 70
     2
 71
     2
 72
     2
 73
     1
 90
        2
 40
-0.6
 41
30.0
 62
     5
 63
     7
421
 16777215
 74
     0
 91
        4
 64
     7
 65
   257
 75
     1
175
     1
 42
1.0
 92
        0
 66
     7
 43
1.0
 76
     1
 77
     6
 78
     2
 67
     7
 79
     5
170
     0
171
     0
290
     0
174
     0
 93
       13
 44
0.0
173
     0
291
     1
 45
0.0
1001
ACAD
1000
AcDbSavedByObjectVersion
1070
     0
  0
VISUALSTYLE
  5
2E
102
{ACAD_REACTORS
330
2A
102
}
330
2A
100
AcDbVisualStyle
  2
GouraudWithEdges
 70
     3
 71
     2
 72
     2
 73
     1
 90
        2
 40
-0.6
 41
30.0
 62
     5
 63
     7
421
 16777215
 74
     1
 91
        4
 64
     7
 65
   257
 75
     1
175
     1
 42
1.0
 92
        0
 66
   257
 43
1.0
 76
     1
 77
     6
 78
     2
 67
     7
 79
     5
170
     0
171
     0
290
     0
174
     0
 93
       13
 44
0.0
173
     0
291
     1
 45
0.0
1001
ACAD
1000
AcDbSavedByObjectVersion
1070
     0
  0
VISUALSTYLE
  5
38
102
{ACAD_REACTORS
330
2A
102
}
330
2A
100
AcDbVisualStyle
  2
Linepattern
 70
    14
 71
     2
 72
     2
 73
     0
 90
        0
 40
-0.6
 41
-30.0
 62
     5
 63
     7
421
 16777215
 74
     1
 91
        4
 64
     7
 65
   257
 75
     7
175
     7
 42
1.0
 92
        8
 66
     7
 43
1.0
 76
     1
 77
     6
 78
     2
 67
     7
 79
     5
170
     0
171
     0
290
     0
174
     0
 93
        1
 44
0.0
173
     0
291
     1
 45
0.0
1001
ACAD
1000
AcDbSavedByObjectVersion
1070
     0
  0
VISUALSTYLE
  5
33
102
{ACAD_REACTORS
330
2A
102
}
330
2A
100
AcDbVisualStyle
  2
Realistic
 70
     8
 71
     2
 72
     2
 73
     0
 90
        0
 40
-0.6
 41
-30.0
 62
     5
 63
     7
421
 16777215
 74
     1
 91
        0
 64
     7
 65
   257
 75
     1
175
     1
 42
1.0
 92
        8
 66
     8
424
  7895160
 43
1.0
 76
     1
 77
     6
 78
     2
 67
     7
 79
     5
170
     0
171
     0
290
     0
174
     0
 93
       13
 44
0.0
173
     0
291
     0
 45
0.0
1001
ACAD
1000
AcDbSavedByObjectVersion
1070
     0
  0
VISUALSTYLE
  5
37
102
{ACAD_REACTORS
330
2A
102
}
330
2A
100
AcDbVisualStyle
  2
Thicken
 70
    13
 71
     2
 72
     2
 73
     0
 90
        0
 40
-0.6
 41
-30.0
 62
     5
 63
     7
421
 16777215
 74
     1
 91
        4
 64
     7
 65
   257
 75
     1
175
     1
 42
1.0
 92
       12
 66
     7
 43
1.0
 76
     1
 77
     6
 78
     2
 67
     7
 79
     5
170
     0
171
     0
290
     0
174
     0
 93
        1
 44
0.0
173
     0
291
     1
 45
0.0
1001
ACAD
1000
AcDbSavedByObjectVersion
1070
     0
  0
ENDSEC
  0
EOF
