<?xml version="1.0" encoding="utf-8"?>
<!-- Generator: Adobe Illustrator 16.0.0, SVG Export Plug-In . SVG Version: 6.00 Build 0)  -->
<!DOCTYPE svg PUBLIC "-//W3C//DTD SVG 1.1//EN" "http://www.w3.org/Graphics/SVG/1.1/DTD/svg11.dtd">
<svg version="1.1" id="Layer_1" xmlns="http://www.w3.org/2000/svg" xmlns:xlink="http://www.w3.org/1999/xlink" x="0px" y="0px"
	 width="595.28px" height="841.89px" viewBox="0 0 595.28 841.89" enable-background="new 0 0 595.28 841.89" xml:space="preserve">
<linearGradient id="SVGID_1_" gradientUnits="userSpaceOnUse" x1="0" y1="449.3945" x2="592.3535" y2="449.3945">
	<stop  offset="0.0056" style="stop-color:#ECC562"/>
	<stop  offset="1" style="stop-color:#C3922E"/>
</linearGradient>
<path fill="url(#SVGID_1_)" d="M592.354,350.731l-56.743-0.084l40.258-40.407l-55.356-55.366l-28.784-0.035l-0.035-28.77
	l-55.366-55.371l-40.382,40.277l-0.104-57.749l-0.877-0.015h-76.721l-21.078,21.043l-21.063-21.043h-76.711l-0.886,0.015
	l-0.104,57.749l-40.887-40.768l-54.886,53.875l-0.034,30.757l-30.767,0.04l-53.861,54.867l40.768,40.901l-57.753,0.084L0,427.354
	l22.003,22.058L0,471.475l0.981,76.617l57.753,0.078l-40.768,40.907l53.891,54.866l30.737,0.029l0.034,30.751l54.886,53.882
	l40.887-40.759l0.104,57.729h77.607l21.053-21.004l21.052,21.004h77.623l0.104-57.729l40.367,40.253l55.381-55.376l0.035-28.751
	l28.75-0.029l55.376-55.376L535.61,548.17l56.743-0.078v-78.609l-20.021-20.071l20.021-20.042V350.731z M508.723,280.425
	l30.578,30.524l-39.049,39.048h-22.623l37.965-37.949l-24.516-24.52l-0.02-7.104H508.723z M535.046,449.411l-11.898,11.442v20.255
	h-53.717l-31.732-31.697l31.732-31.703h53.717v20.265L535.046,449.411z M475.855,523.428l-23.638-0.02l-16.714-16.695l23.618,0.018
	L475.855,523.428z M435.504,392.108l16.714-16.688l23.638-0.016l-16.733,16.689L435.504,392.108z M396.573,246.32l39.055-39.045
	l30.528,30.579v17.659l-7.108-0.02l-24.516-24.51l-37.959,37.969V246.32z M396.559,305.183l37.974-37.964l14.342,14.315
	l16.495-0.331l-0.327,16.504l14.325,14.326l-37.979,37.979l-44.835,0.02L396.559,305.183z M401.845,449.411l-0.015,0.024h0.024
	l31.679,31.673h-22.604l-31.678-31.697l31.678-31.703h22.604l-31.679,31.674h-0.024L401.845,449.411z M371.187,375.404v0.026
	l0.03-0.026h44.794l-15.984,15.996l-44.83-0.015l-0.01-44.834l15.985-15.985l0.015,44.79l-0.039,0.049H371.187z M360.635,431.786
	l-6.256-6.067l0.124-8.724l20.85,0.039L360.635,431.786z M375.353,481.792l-20.85,0.034l-0.124-8.718l6.256-6.067L375.353,481.792z
	 M371.162,294.359l-16.689,16.713l0.021-23.628l16.679-16.708L371.162,294.359z M327.283,180.333l43.2-0.044v55.228l-15.99,15.994
	v-53.672h-34.67l-5.038-5.027L327.283,180.333z M297.166,554.086l-0.015-0.024v0.039l-31.684,31.664v-22.589l31.698-31.688
	l31.703,31.688v22.589l-31.688-31.664v-0.039L297.166,554.086z M264.784,527.598l-0.04-20.838l8.732-0.13l6.068,6.26
	L264.784,527.598z M314.811,512.89l6.053-6.26l8.732,0.13l-0.039,20.838L314.811,512.89z M328.67,462.36l-0.063-0.005v0.088
	l-0.07,0.049l0.07,0.027l-0.278,18.055l-18.046,0.278l-0.03-0.066l-0.068,0.066h-0.079l0.015,0.063l-12.954,12.566l-12.958-12.566
	l0.02-0.063h-0.089l-0.055-0.066l-0.029,0.066l-18.051-0.278l-0.277-18.055l0.064-0.027l-0.064-0.049v-0.088l-0.05,0.005
	l-12.582-12.949l12.582-12.968l0.05,0.039v-0.1l0.064-0.055l-0.064-0.015l0.277-18.07l18.051-0.268l0.029,0.055l0.055-0.055h0.089
	l-0.02-0.069l12.958-12.557l12.954,12.557l-0.015,0.069h0.089l0.059,0.055l0.03-0.055l18.046,0.268l0.278,18.07l-0.07,0.015
	l0.07,0.055v0.1l0.063-0.039l12.572,12.968L328.67,462.36z M297.166,344.742l0.015,0.01v-0.04l31.688-31.663v22.604l-31.703,31.673
	l-31.698-31.673v-22.604l31.684,31.663v0.04L297.166,344.742z M329.557,371.224l0.039,20.839l-8.728,0.128l-6.058-6.245
	L329.557,371.224z M279.545,385.946l-6.068,6.245l-8.732-0.128l0.025-20.844L279.545,385.946z M297.166,211.531l11.437,11.903
	h20.266v53.721l-31.703,31.708l-31.698-31.708v-53.721h20.28L297.166,211.531z M223.862,180.289l43.201,0.044l12.482,12.478
	l-5.022,5.027h-34.666v53.672l-15.995-15.994V180.289z M233.685,431.786l-14.708-14.752l20.845-0.039l0.119,8.724L233.685,431.786z
	 M239.941,473.108l-0.119,8.718l-20.845-0.034l14.708-14.751L239.941,473.108z M239.857,287.444l0.01,23.628l-16.694-16.713
	l-0.02-23.624L239.857,287.444z M223.119,375.404l0.035,0.026v-0.026h0.035l-0.035-0.049l0.005-44.79l15.99,15.985l-0.02,44.825
	l-44.82,0.024l-15.99-15.996H223.119z M192.501,449.411l0.01-0.029h-0.035l-31.668-31.674h22.608l31.688,31.703l-31.688,31.697
	h-22.608l31.668-31.673h0.035L192.501,449.411z M128.194,237.854l30.514-30.579l39.054,39.045v22.618l-37.954-37.954l-24.521,24.51
	l-7.098,0.02L128.194,237.854z M129.293,297.708l-0.327-16.504l16.505,0.331l14.326-14.315l37.984,37.964l0.01,44.849l-44.845-0.02
	l-37.984-37.979L129.293,297.708z M59.279,449.411l11.914-11.438v-20.265h53.707l31.718,31.703l-31.718,31.697H71.193v-20.255
	L59.279,449.411z M118.495,375.404l23.624,0.016l16.708,16.688l-23.629-0.016L118.495,375.404z M135.198,506.73l23.629-0.018
	l-16.708,16.695l-23.624,0.01L135.198,506.73z M55.039,310.949l30.579-30.524h17.65l-0.01,7.104l-24.505,24.52l37.949,37.949
	l-22.624-0.005L55.039,310.949z M83.27,376.108l15.995,15.984H45.593v34.666l-5.022,5.027l-12.473-12.493l-0.045-43.185H83.27z
	 M28.052,522.72l0.045-43.205l12.473-12.474l5.022,5.002v34.688h53.672L83.27,522.72H28.052z M85.618,618.383l-30.579-30.509
	l39.039-39.06h22.628l-37.954,37.948l24.505,24.525l0.01,7.109L85.618,618.383z M197.762,652.488l-39.054,39.074l-30.514-30.595
	l-0.005-17.654l7.098,0.005l24.521,24.511l37.954-37.964V652.488z M197.782,593.644l-37.984,37.97l-14.326-14.326l-16.505,0.322
	l0.327-16.495l-14.331-14.332l37.989-37.973l44.84-0.02L197.782,593.644z M223.154,523.428v-0.039l-0.035,0.039l-44.8-0.02
	l15.99-15.965h44.82l0.02,44.823l-15.99,15.975l-0.005-44.789l0.035-0.024H223.154z M223.173,604.479l16.694-16.725l-0.01,23.619
	l-16.703,16.713L223.173,604.479z M267.063,718.485l-43.201,0.054v-55.242l15.995-15.979v53.687h34.666l5.022,5.013L267.063,718.485
	z M297.166,687.277l-11.418-11.904h-20.28v-53.706l31.698-31.713l31.703,31.713v53.706h-20.266L297.166,687.277z M370.483,718.539
	l-43.2-0.054l-12.498-12.469l5.038-5.013h34.67v-53.687l15.99,15.979V718.539z M354.493,611.373l-0.021-23.604l16.689,16.71
	l0.01,23.607L354.493,611.373z M371.217,523.428l-0.03-0.039v0.039h-0.039l0.039,0.024l-0.015,44.789l-15.985-15.975l0.01-44.823
	h44.83l15.984,15.965L371.217,523.428z M466.156,660.968l-30.528,30.595l-39.055-39.074v-22.623l37.959,37.964l24.516-24.511
	l7.108-0.005V660.968z M465.042,601.114l0.327,16.495l-16.495-0.322l-14.342,14.326l-37.974-37.97l-0.005-44.854l44.835,0.02
	l37.979,37.973L465.042,601.114z M539.291,587.874l-30.568,30.509l-17.664,0.015l0.02-7.109l24.516-24.516l-37.965-37.958h22.623
	L539.291,587.874z M511.07,522.72l-16.005-15.989h53.673v-34.688l5.032-5.002l12.469,12.474l0.044,43.205H511.07z M566.239,419.313
	l-12.469,12.473l-5.032-5.027v-34.666h-53.673l16.005-15.984h55.213L566.239,419.313z"/>
</svg>
