<?xml version="1.0" encoding="utf-8"?>
<!-- Generator: Adobe Illustrator 16.0.0, SVG Export Plug-In . SVG Version: 6.00 Build 0)  -->
<!DOCTYPE svg PUBLIC "-//W3C//DTD SVG 1.1//EN" "http://www.w3.org/Graphics/SVG/1.1/DTD/svg11.dtd">
<svg version="1.1" id="Layer_1" xmlns="http://www.w3.org/2000/svg" xmlns:xlink="http://www.w3.org/1999/xlink" x="0px" y="0px"
	 width="595.28px" height="841.89px" viewBox="0 0 595.28 841.89" enable-background="new 0 0 595.28 841.89" xml:space="preserve">
<linearGradient id="SVGID_1_" gradientUnits="userSpaceOnUse" x1="0" y1="451.0986" x2="593.7363" y2="451.0986">
	<stop  offset="0.0056" style="stop-color:#ECC562"/>
	<stop  offset="1" style="stop-color:#C3922E"/>
</linearGradient>
<path fill="url(#SVGID_1_)" d="M108.75,640.158l13.937,52.048l27.17-46.804l31.595,5.004l20.113,24.86l-27.385,47.238l54.258-14.539
	l38.618,38.795v-53.88l29.8-11.454l29.82,11.454v53.88l38.618-38.795l54.268,14.539l-27.419-47.238l20.143-24.86l31.6-5.004
	l27.15,46.804l13.946-52.048l53.989-14.543l-47.741-27.61l5.047-31.595l24.897-20.097l47.957,27.834l-14.438-54.115l39.044-39.168
	h-55.062l-11.43-29.777l11.43-29.768h55.062l-39.044-39.144l14.438-54.124L521.174,355.9l-24.897-20.104l-5.047-31.599l47.741-27.62
	l-53.989-14.54l-13.946-52.037l-27.15,46.794l-31.6-5.004l-20.143-24.858l27.419-47.23l-54.268,14.525l-38.618-38.791v53.894
	l-29.82,11.449l-29.8-11.449v-53.894l-38.618,38.791l-54.258-14.525l27.385,47.23l-20.113,24.858l-31.595,5.004l-27.17-46.794
	l-6.062,22.615l-7.875,29.422l-53.985,14.54l47.732,27.62l-5.038,31.599L72.562,355.9l-47.972-27.849l14.453,54.124L0,421.319
	h55.057l11.439,29.768l-11.439,29.777H0l39.044,39.168l-14.453,54.115l47.972-27.834l24.897,20.097l5.038,31.595l-47.732,27.61
	L108.75,640.158z M190.34,635.016l-20.137-24.854l28.007-48.455l52.272-30.272v59.189l-28.548,49.397L190.34,635.016z
	 M267.132,421.319l-0.011-21.764l18.889,10.957l10.821-18.702l0.024,0.062v0.005l0.009,0.01v-0.015l0.039-0.062l10.816,18.702
	l18.897-10.957l-0.01,21.764h22.181l-10.994,19.051l0.033,0.015l-0.033,0.066l18.467,10.636l-18.467,10.679l0.033,0.057
	l-0.033,0.024l10.994,19.018h-22.181l0.01,21.772L307.721,491.7l-10.865,18.615L286.011,491.7l-18.889,10.937l0.011-21.772h-22.18
	l10.989-19.018l-0.038-0.024l0.023-0.057l-18.466-10.679l18.466-10.636l-0.023-0.066l0.038-0.015l-10.989-19.051H267.132z
	 M267.093,340.347l20.117,34.848l-7.305,12.621l-12.808-7.411L267.093,340.347z M306.506,375.195l20.133-34.848l-0.021,40.058
	l-12.812,7.411L306.506,375.195z M373.127,460.594l35.029,20.271h-40.179l-7.477-12.971L373.127,460.594z M360.501,434.299
	l7.477-12.979h40.179l-35.029,20.295L360.501,434.299z M378.871,532.917l-35.618-20.631v-14.825h15.109L378.871,532.917z
	 M377.571,497.461h59.218l49.148,28.46l-5.041,31.582l-24.894,20.098l-48.311-27.983L377.571,497.461z M389.886,451.087
	l51.396-29.768h56.692l11.425,29.768l-11.425,29.777h-56.692L389.886,451.087z M436.789,404.761h-59.218l30.121-52.167
	l48.311-27.997l24.894,20.113l5.041,31.586L436.789,404.761z M358.362,404.761h-15.109v-14.84l35.618-20.626L358.362,404.761z
	 M326.639,561.865l-20.133-34.852l7.301-12.618l12.812,7.402L326.639,561.865z M287.21,527.014l-20.117,34.852l0.005-40.067
	l12.808-7.402L287.21,527.014z M233.254,467.894l-7.511,12.971h-40.159l35.021-20.271L233.254,467.894z M185.584,421.319h40.159
	l7.511,12.979l-12.649,7.315L185.584,421.319z M235.351,497.461h15.132v14.825l-35.628,20.631L235.351,497.461z M250.483,404.761
	h-15.132l-20.496-35.466l35.628,20.626V404.761z M216.166,404.761h-59.238l-49.139-28.465l5.038-31.586l24.907-20.113l48.302,27.997
	L216.166,404.761z M203.841,451.087l-51.397,29.777H95.746l-11.415-29.777l11.415-29.768h56.698L203.841,451.087z M156.927,497.461
	h59.238l-30.131,52.156l-48.302,27.983l-24.907-20.098l-5.038-31.582L156.927,497.461z M250.493,681.477l-0.01,25.16l-17.084-17.171
	l-24.768,6.645l12.946-22.385l-15.649-19.448l24.648,3.918l19.907-34.426l0.014,39.795l23.285,8.955L250.493,681.477z
	 M267.056,652.162l0.023-57.141l29.729-51.465l0.047,0.09v0.012l0.009,0.01v-0.021l0.058-0.09l29.739,51.465l0.014,57.141
	l-29.82,11.45L267.056,652.162z M385.092,696.11l-24.749-6.645l-17.09,17.171l-0.023-25.16l-23.294-8.957l23.317-8.955V623.77
	l19.884,34.426h0.02l24.652-3.918l-15.692,19.463L385.092,696.11z M403.386,635.016l-31.584,5.006l-28.549-49.397v-59.189
	l52.258,30.272l27.997,48.455L403.386,635.016z M496.134,619.985l-24.266,6.543l-6.479,22.87l-12.846-22.132l-24.677,3.868
	l15.716-19.389l-19.251-33.354l33.222,19.255l19.438-15.673l-3.946,24.648l0.062,0.005L496.134,619.985z M527.321,497.461h26.481
	l-17.679,17.716l6.65,24.499l-23.174-13.405l-19.42,15.669l3.952-24.647v-0.015l-34.223-19.816h39.471l8.927-23.334L527.321,497.461
	z M504.133,384.907l-3.952-24.635l19.42,15.665l0.047-0.009l23.127-13.397l-6.487,24.299l17.516,17.932l-26.539,0.005l-8.956,23.299
	l-8.927-23.304H469.91L504.133,384.907z M427.867,271.066l24.677,3.857L465.39,252.8l6.1,22.94l24.645,6.473l-23.056,13.344
	l3.913,24.681l-19.438-15.672l-33.222,19.247l19.251-33.351L427.867,271.066z M403.386,267.182l20.122,24.872l-27.997,48.431
	l-52.258,30.279v-59.176l28.549-49.421L403.386,267.182z M343.229,220.736l0.023-25.165l17.085,17.136l24.754-6.602l-12.956,22.385
	l15.673,19.443l-24.652-3.918l-19.903,34.437v-39.81l-23.317-8.956L343.229,220.736z M326.676,250.049l-0.014,57.128l-29.739,51.468
	l-0.058-0.091v-0.009l-0.009,0.009l0,0l-0.047,0.091l-29.729-51.468l-0.023-57.128l29.8-11.468L326.676,250.049z M208.63,206.106
	l24.768,6.63l17.084-17.165l0.019,25.122l23.28,8.994l-23.299,8.956v39.81l-19.907-34.437l-24.648,3.918l15.688-19.472
	L208.63,206.106z M190.34,267.182l31.595-5.014l28.548,49.421v59.176l-52.272-30.279l-28.007-48.431L190.34,267.182z
	 M97.598,282.213l24.648-6.473l6.095-22.94l12.86,22.123v0.038l24.663-3.895l-15.707,19.391l19.252,33.356l-33.246-19.256
	l-19.434,15.681l3.909-24.662L97.598,282.213z M66.462,404.766l-26.538-0.005l17.678-17.735l-6.645-24.496l23.169,13.406
	l19.41-15.665l-3.933,24.635v0.023l34.231,19.831H84.346l-8.937,23.304L66.462,404.766z M89.604,517.277v0.015l3.933,24.647
	l-19.41-15.669l-23.169,13.405l6.645-24.499l-17.678-17.716h26.495l8.989-23.334l8.937,23.334h39.489L89.604,517.277z
	 M120.672,606.622l-3.942-24.648l19.434,15.693l33.246-19.275l-19.252,33.354l15.707,19.389l-24.663-3.898l-12.86,22.162
	l-6.095-22.932l-24.648-6.481L120.672,606.622z"/>
</svg>
