  0
SECTION
  2
HEADER
  9
$ACADVER
  1
AC1018
  9
$ACADMAINTVER
 70
     0
  9
$DWGCODEPAGE
  3
ANSI_932
  9
$INSBASE
 10
0.0
 20
0.0
 30
0.0
  9
$EXTMIN
 10
1.000000000000000E+20
 20
1.000000000000000E+20
 30
1.000000000000000E+20
  9
$EXTMAX
 10
-1.000000000000000E+20
 20
-1.000000000000000E+20
 30
-1.000000000000000E+20
  9
$LIMMIN
 10
0.0
 20
0.0
  9
$LIMMAX
 10
12.0
 20
9.0
  9
$ORTHOMODE
 70
     0
  9
$REGENMODE
 70
     1
  9
$FILLMODE
 70
     1
  9
$QTEXTMODE
 70
     0
  9
$MIRRTEXT
 70
     1
  9
$LTSCALE
 40
1.0
  9
$ATTMODE
 70
     1
  9
$TEXTSIZE
 40
0.2
  9
$TRACEWID
 40
0.05
  9
$TEXTSTYLE
  7
Standard
  9
$CLAYER
  8
0
  9
$CELTYPE
  6
ByLayer
  9
$CECOLOR
 62
   256
  9
$CELTSCALE
 40
1.0
  9
$DISPSILH
 70
     0
  9
$DIMSCALE
 40
1.0
  9
$DIMASZ
 40
0.18
  9
$DIMEXO
 40
0.0625
  9
$DIMDLI
 40
0.38
  9
$DIMRND
 40
0.0
  9
$DIMDLE
 40
0.0
  9
$DIMEXE
 40
0.18
  9
$DIMTP
 40
0.0
  9
$DIMTM
 40
0.0
  9
$DIMTXT
 40
0.18
  9
$DIMCEN
 40
0.09
  9
$DIMTSZ
 40
0.0
  9
$DIMTOL
 70
     0
  9
$DIMLIM
 70
     0
  9
$DIMTIH
 70
     1
  9
$DIMTOH
 70
     1
  9
$DIMSE1
 70
     0
  9
$DIMSE2
 70
     0
  9
$DIMTAD
 70
     0
  9
$DIMZIN
 70
     0
  9
$DIMBLK
  1

  9
$DIMASO
 70
     1
  9
$DIMSHO
 70
     1
  9
$DIMPOST
  1

  9
$DIMAPOST
  1

  9
$DIMALT
 70
     0
  9
$DIMALTD
 70
     2
  9
$DIMALTF
 40
25.4
  9
$DIMLFAC
 40
1.0
  9
$DIMTOFL
 70
     0
  9
$DIMTVP
 40
0.0
  9
$DIMTIX
 70
     0
  9
$DIMSOXD
 70
     0
  9
$DIMSAH
 70
     0
  9
$DIMBLK1
  1

  9
$DIMBLK2
  1

  9
$DIMSTYLE
  2
Standard
  9
$DIMCLRD
 70
     0
  9
$DIMCLRE
 70
     0
  9
$DIMCLRT
 70
     0
  9
$DIMTFAC
 40
1.0
  9
$DIMGAP
 40
0.09
  9
$DIMJUST
 70
     0
  9
$DIMSD1
 70
     0
  9
$DIMSD2
 70
     0
  9
$DIMTOLJ
 70
     1
  9
$DIMTZIN
 70
     0
  9
$DIMALTZ
 70
     0
  9
$DIMALTTZ
 70
     0
  9
$DIMUPT
 70
     0
  9
$DIMDEC
 70
     4
  9
$DIMTDEC
 70
     4
  9
$DIMALTU
 70
     2
  9
$DIMALTTD
 70
     2
  9
$DIMTXSTY
  7
Standard
  9
$DIMAUNIT
 70
     0
  9
$DIMADEC
 70
     0
  9
$DIMALTRND
 40
0.0
  9
$DIMAZIN
 70
     0
  9
$DIMDSEP
 70
    46
  9
$DIMATFIT
 70
     3
  9
$DIMFRAC
 70
     0
  9
$DIMLDRBLK
  1

  9
$DIMLUNIT
 70
     2
  9
$DIMLWD
 70
    -2
  9
$DIMLWE
 70
    -2
  9
$DIMTMOVE
 70
     0
  9
$LUNITS
 70
     2
  9
$LUPREC
 70
     4
  9
$SKETCHINC
 40
0.1
  9
$FILLETRAD
 40
0.5
  9
$AUNITS
 70
     0
  9
$AUPREC
 70
     0
  9
$MENU
  1
.
  9
$ELEVATION
 40
0.0
  9
$PELEVATION
 40
0.0
  9
$THICKNESS
 40
0.0
  9
$LIMCHECK
 70
     0
  9
$CHAMFERA
 40
0.5
  9
$CHAMFERB
 40
0.5
  9
$CHAMFERC
 40
1.0
  9
$CHAMFERD
 40
0.0
  9
$SKPOLY
 70
     0
  9
$TDCREATE
 40
2460559.683078704
  9
$TDUCREATE
 40
2460559.59974537
  9
$TDUPDATE
 40
2460559.683078715
  9
$TDUUPDATE
 40
2460559.599745382
  9
$TDINDWG
 40
0.0000000116
  9
$TDUSRTIMER
 40
0.0000000116
  9
$USRTIMER
 70
     1
  9
$ANGBASE
 50
0.0
  9
$ANGDIR
 70
     0
  9
$PDMODE
 70
     0
  9
$PDSIZE
 40
0.0
  9
$PLINEWID
 40
0.0
  9
$SPLFRAME
 70
     0
  9
$SPLINETYPE
 70
     6
  9
$SPLINESEGS
 70
     8
  9
$HANDSEED
  5
9D
  9
$SURFTAB1
 70
     6
  9
$SURFTAB2
 70
     6
  9
$SURFTYPE
 70
     6
  9
$SURFU
 70
     6
  9
$SURFV
 70
     6
  9
$UCSBASE
  2

  9
$UCSNAME
  2

  9
$UCSORG
 10
0.0
 20
0.0
 30
0.0
  9
$UCSXDIR
 10
1.0
 20
0.0
 30
0.0
  9
$UCSYDIR
 10
0.0
 20
1.0
 30
0.0
  9
$UCSORTHOREF
  2

  9
$UCSORTHOVIEW
 70
     0
  9
$UCSORGTOP
 10
0.0
 20
0.0
 30
0.0
  9
$UCSORGBOTTOM
 10
0.0
 20
0.0
 30
0.0
  9
$UCSORGLEFT
 10
0.0
 20
0.0
 30
0.0
  9
$UCSORGRIGHT
 10
0.0
 20
0.0
 30
0.0
  9
$UCSORGFRONT
 10
0.0
 20
0.0
 30
0.0
  9
$UCSORGBACK
 10
0.0
 20
0.0
 30
0.0
  9
$PUCSBASE
  2

  9
$PUCSNAME
  2

  9
$PUCSORG
 10
0.0
 20
0.0
 30
0.0
  9
$PUCSXDIR
 10
1.0
 20
0.0
 30
0.0
  9
$PUCSYDIR
 10
0.0
 20
1.0
 30
0.0
  9
$PUCSORTHOREF
  2

  9
$PUCSORTHOVIEW
 70
     0
  9
$PUCSORGTOP
 10
0.0
 20
0.0
 30
0.0
  9
$PUCSORGBOTTOM
 10
0.0
 20
0.0
 30
0.0
  9
$PUCSORGLEFT
 10
0.0
 20
0.0
 30
0.0
  9
$PUCSORGRIGHT
 10
0.0
 20
0.0
 30
0.0
  9
$PUCSORGFRONT
 10
0.0
 20
0.0
 30
0.0
  9
$PUCSORGBACK
 10
0.0
 20
0.0
 30
0.0
  9
$USERI1
 70
     0
  9
$USERI2
 70
     0
  9
$USERI3
 70
     0
  9
$USERI4
 70
     0
  9
$USERI5
 70
     0
  9
$USERR1
 40
0.0
  9
$USERR2
 40
0.0
  9
$USERR3
 40
0.0
  9
$USERR4
 40
0.0
  9
$USERR5
 40
0.0
  9
$WORLDVIEW
 70
     1
  9
$SHADEDGE
 70
     3
  9
$SHADEDIF
 70
    70
  9
$TILEMODE
 70
     1
  9
$MAXACTVP
 70
    64
  9
$PINSBASE
 10
0.0
 20
0.0
 30
0.0
  9
$PLIMCHECK
 70
     0
  9
$PEXTMIN
 10
1.000000000000000E+20
 20
1.000000000000000E+20
 30
1.000000000000000E+20
  9
$PEXTMAX
 10
-1.000000000000000E+20
 20
-1.000000000000000E+20
 30
-1.000000000000000E+20
  9
$PLIMMIN
 10
0.0
 20
0.0
  9
$PLIMMAX
 10
12.0
 20
9.0
  9
$UNITMODE
 70
     0
  9
$VISRETAIN
 70
     1
  9
$PLINEGEN
 70
     0
  9
$PSLTSCALE
 70
     1
  9
$TREEDEPTH
 70
  3020
  9
$CMLSTYLE
  2
Standard
  9
$CMLJUST
 70
     0
  9
$CMLSCALE
 40
1.0
  9
$PROXYGRAPHICS
 70
     1
  9
$MEASUREMENT
 70
     0
  9
$CELWEIGHT
370
    -1
  9
$ENDCAPS
280
     0
  9
$JOINSTYLE
280
     0
  9
$LWDISPLAY
290
     1
  9
$INSUNITS
 70
     1
  9
$HYPERLINKBASE
  1

  9
$STYLESHEET
  1

  9
$XEDIT
290
     1
  9
$CEPSNTYPE
380
     0
  9
$PSTYLEMODE
290
     1
  9
$FINGERPRINTGUID
  2
{E47F13A9-8076-AC69-6C0C-1B49ED204888}
  9
$VERSIONGUID
  2
{FAEB1C32-E019-11D5-929B-00C0DF256EC4}
  9
$EXTNAMES
290
     1
  9
$PSVPSCALE
 40
0.0
  9
$OLESTARTUP
290
     0
  9
$SORTENTS
280
   127
  9
$INDEXCTL
280
     0
  9
$HIDETEXT
280
     1
  9
$XCLIPFRAME
290
     0
  9
$HALOGAP
280
     0
  9
$OBSCOLOR
 70
   257
  9
$OBSLTYPE
280
     0
  9
$INTERSECTIONDISPLAY
280
     0
  9
$INTERSECTIONCOLOR
 70
   257
  9
$DIMASSOC
280
     2
  9
$PROJECTNAME
  1

  0
ENDSEC
  0
SECTION
  2
CLASSES
  0
CLASS
  1
ACDBDICTIONARYWDFLT
  2
AcDbDictionaryWithDefault
  3
ObjectDBX Classes
 90
        0
 91
        3
280
     0
281
     0
  0
CLASS
  1
VISUALSTYLE
  2
AcDbVisualStyle
  3
ObjectDBX Classes
 90
     4095
 91
        3
280
     0
281
     0
  0
ENDSEC
  0
SECTION
  2
TABLES
  0
TABLE
  2
VPORT
  5
8
330
0
100
AcDbSymbolTable
 70
     1
  0
VPORT
  5
29
330
8
100
AcDbSymbolTableRecord
100
AcDbViewportTableRecord
  2
*Active
 70
     0
 10
0.0
 20
0.0
 11
1.0
 21
1.0
 12
0.0
 22
0.0
 13
0.0
 23
0.0
 14
0.5
 24
0.5
 15
0.5
 25
0.5
 16
0.0
 26
0.0
 36
1.0
 17
4.133890787760416
 27
-5.846455891927083
 37
0.0
 40
11.69291178385417
 41
0.7070763662937378
 42
50.0
 43
0.0
 44
0.0
 50
0.0
 51
0.0
 71
     0
 72
   100
 73
     1
 74
     3
 75
     0
 76
     0
 77
     0
 78
     0
281
     0
 65
     1
110
0.0
120
0.0
130
0.0
111
1.0
121
0.0
131
0.0
112
0.0
122
1.0
132
0.0
 79
     0
146
0.0
  0
ENDTAB
  0
TABLE
  2
LTYPE
  5
5
330
0
100
AcDbSymbolTable
 70
     1
  0
LTYPE
  5
14
330
5
100
AcDbSymbolTableRecord
100
AcDbLinetypeTableRecord
  2
ByBlock
 70
     0
  3

 72
    65
 73
     0
 40
0.0
  0
LTYPE
  5
15
330
5
100
AcDbSymbolTableRecord
100
AcDbLinetypeTableRecord
  2
ByLayer
 70
     0
  3

 72
    65
 73
     0
 40
0.0
  0
LTYPE
  5
16
330
5
100
AcDbSymbolTableRecord
100
AcDbLinetypeTableRecord
  2
Continuous
 70
     0
  3
Solid line
 72
    65
 73
     0
 40
0.0
  0
ENDTAB
  0
TABLE
  2
LAYER
  5
2
330
0
100
AcDbSymbolTable
 70
     2
  0
LAYER
  5
10
330
2
100
AcDbSymbolTableRecord
100
AcDbLayerTableRecord
  2
0
 70
     0
 62
     7
  6
Continuous
370
    -3
390
F
  0
LAYER
  5
3B
330
2
100
AcDbSymbolTableRecord
100
AcDbLayerTableRecord
  2
Layer 1
 70
     0
 62
     7
  6
Continuous
370
    -3
390
F
  0
ENDTAB
  0
TABLE
  2
STYLE
  5
3
330
0
100
AcDbSymbolTable
 70
     1
  0
STYLE
  5
11
330
3
100
AcDbSymbolTableRecord
100
AcDbTextStyleTableRecord
  2
Standard
 70
     0
 40
0.0
 41
1.0
 50
0.0
 71
     0
 42
0.2
  3
txt
  4

  0
ENDTAB
  0
TABLE
  2
VIEW
  5
6
330
0
100
AcDbSymbolTable
 70
     0
  0
ENDTAB
  0
TABLE
  2
UCS
  5
7
330
0
100
AcDbSymbolTable
 70
     0
  0
ENDTAB
  0
TABLE
  2
APPID
  5
9
330
0
100
AcDbSymbolTable
 70
     1
  0
APPID
  5
12
330
9
100
AcDbSymbolTableRecord
100
AcDbRegAppTableRecord
  2
ACAD
 70
     0
  0
ENDTAB
  0
TABLE
  2
DIMSTYLE
  5
A
330
0
100
AcDbSymbolTable
 70
     1
100
AcDbDimStyleTable
  0
DIMSTYLE
105
27
330
A
100
AcDbSymbolTableRecord
100
AcDbDimStyleTableRecord
  2
Standard
 70
     0
340
11
  0
ENDTAB
  0
TABLE
  2
BLOCK_RECORD
  5
1
330
0
100
AcDbSymbolTable
 70
     2
  0
BLOCK_RECORD
  5
1F
330
1
100
AcDbSymbolTableRecord
100
AcDbBlockTableRecord
  2
*Model_Space
340
22
  0
BLOCK_RECORD
  5
1B
330
1
100
AcDbSymbolTableRecord
100
AcDbBlockTableRecord
  2
*Paper_Space
340
1E
  0
BLOCK_RECORD
  5
23
330
1
100
AcDbSymbolTableRecord
100
AcDbBlockTableRecord
  2
*Paper_Space0
340
26
  0
BLOCK_RECORD
  5
3C
330
1
100
AcDbSymbolTableRecord
100
AcDbBlockTableRecord
  2
block 2
340
0
102
{BLKREFS
331
3D
102
}
  0
ENDTAB
  0
ENDSEC
  0
SECTION
  2
BLOCKS
  0
BLOCK
  5
20
330
1F
100
AcDbEntity
  8
0
100
AcDbBlockBegin
  2
*Model_Space
 70
     0
 71
     0
 10
0.0
 20
0.0
 30
0.0
  3
*Model_Space
  1

  0
ENDBLK
  5
21
330
1F
100
AcDbEntity
  8
0
100
AcDbBlockEnd
  0
BLOCK
  5
1C
330
1B
100
AcDbEntity
 67
     1
  8
0
100
AcDbBlockBegin
  2
*Paper_Space
 70
     0
 71
     0
 10
0.0
 20
0.0
 30
0.0
  3
*Paper_Space
  1

  0
ENDBLK
  5
1D
330
1B
100
AcDbEntity
 67
     1
  8
0
100
AcDbBlockEnd
  0
BLOCK
  5
24
330
23
100
AcDbEntity
  8
0
100
AcDbBlockBegin
  2
*Paper_Space0
 70
     0
 71
     0
 10
0.0
 20
0.0
 30
0.0
  3
*Paper_Space0
  1

  0
ENDBLK
  5
25
330
23
100
AcDbEntity
  8
0
100
AcDbBlockEnd
  0
BLOCK
  5
3E
330
3C
100
AcDbEntity
  8
0
100
AcDbBlockBegin
  2
block 2
 70
     0
 71
     0
 10
0.0
 20
0.0
 30
0.0
  3
block 2
  1

  0
SPLINE
  5
40
330
3C
100
AcDbEntity
  8
Layer 1
370
     0
100
AcDbSpline
210
0.0
220
0.0
230
1.0
 70
    11
 71
     3
 72
   557
 73
   553
 74
     0
 42
0.0000000001
 43
0.0000000001
 40
0.0
 40
0.0
 40
0.0
 40
0.0
 40
1.0
 40
1.0
 40
1.0
 40
2.0
 40
2.0
 40
2.0
 40
3.0
 40
3.0
 40
3.0
 40
4.0
 40
4.0
 40
4.0
 40
5.0
 40
5.0
 40
5.0
 40
6.0
 40
6.0
 40
6.0
 40
7.0
 40
7.0
 40
7.0
 40
8.0
 40
8.0
 40
8.0
 40
9.0
 40
9.0
 40
9.0
 40
10.0
 40
10.0
 40
10.0
 40
11.0
 40
11.0
 40
11.0
 40
12.0
 40
12.0
 40
12.0
 40
13.0
 40
13.0
 40
13.0
 40
14.0
 40
14.0
 40
14.0
 40
15.0
 40
15.0
 40
15.0
 40
16.0
 40
16.0
 40
16.0
 40
17.0
 40
17.0
 40
17.0
 40
18.0
 40
18.0
 40
18.0
 40
19.0
 40
19.0
 40
19.0
 40
20.0
 40
20.0
 40
20.0
 40
21.0
 40
21.0
 40
21.0
 40
22.0
 40
22.0
 40
22.0
 40
23.0
 40
23.0
 40
23.0
 40
24.0
 40
24.0
 40
24.0
 40
25.0
 40
25.0
 40
25.0
 40
26.0
 40
26.0
 40
26.0
 40
27.0
 40
27.0
 40
27.0
 40
28.0
 40
28.0
 40
28.0
 40
29.0
 40
29.0
 40
29.0
 40
30.0
 40
30.0
 40
30.0
 40
31.0
 40
31.0
 40
31.0
 40
32.0
 40
32.0
 40
32.0
 40
33.0
 40
33.0
 40
33.0
 40
34.0
 40
34.0
 40
34.0
 40
35.0
 40
35.0
 40
35.0
 40
36.0
 40
36.0
 40
36.0
 40
37.0
 40
37.0
 40
37.0
 40
38.0
 40
38.0
 40
38.0
 40
39.0
 40
39.0
 40
39.0
 40
40.0
 40
40.0
 40
40.0
 40
41.0
 40
41.0
 40
41.0
 40
42.0
 40
42.0
 40
42.0
 40
43.0
 40
43.0
 40
43.0
 40
44.0
 40
44.0
 40
44.0
 40
45.0
 40
45.0
 40
45.0
 40
46.0
 40
46.0
 40
46.0
 40
47.0
 40
47.0
 40
47.0
 40
48.0
 40
48.0
 40
48.0
 40
49.0
 40
49.0
 40
49.0
 40
50.0
 40
50.0
 40
50.0
 40
51.0
 40
51.0
 40
51.0
 40
52.0
 40
52.0
 40
52.0
 40
53.0
 40
53.0
 40
53.0
 40
54.0
 40
54.0
 40
54.0
 40
55.0
 40
55.0
 40
55.0
 40
56.0
 40
56.0
 40
56.0
 40
57.0
 40
57.0
 40
57.0
 40
58.0
 40
58.0
 40
58.0
 40
59.0
 40
59.0
 40
59.0
 40
60.0
 40
60.0
 40
60.0
 40
61.0
 40
61.0
 40
61.0
 40
62.0
 40
62.0
 40
62.0
 40
63.0
 40
63.0
 40
63.0
 40
64.0
 40
64.0
 40
64.0
 40
65.0
 40
65.0
 40
65.0
 40
66.0
 40
66.0
 40
66.0
 40
67.0
 40
67.0
 40
67.0
 40
68.0
 40
68.0
 40
68.0
 40
69.0
 40
69.0
 40
69.0
 40
70.0
 40
70.0
 40
70.0
 40
71.0
 40
71.0
 40
71.0
 40
72.0
 40
72.0
 40
72.0
 40
73.0
 40
73.0
 40
73.0
 40
74.0
 40
74.0
 40
74.0
 40
75.0
 40
75.0
 40
75.0
 40
76.0
 40
76.0
 40
76.0
 40
77.0
 40
77.0
 40
77.0
 40
78.0
 40
78.0
 40
78.0
 40
79.0
 40
79.0
 40
79.0
 40
80.0
 40
80.0
 40
80.0
 40
81.0
 40
81.0
 40
81.0
 40
82.0
 40
82.0
 40
82.0
 40
83.0
 40
83.0
 40
83.0
 40
84.0
 40
84.0
 40
84.0
 40
85.0
 40
85.0
 40
85.0
 40
86.0
 40
86.0
 40
86.0
 40
87.0
 40
87.0
 40
87.0
 40
88.0
 40
88.0
 40
88.0
 40
89.0
 40
89.0
 40
89.0
 40
90.0
 40
90.0
 40
90.0
 40
91.0
 40
91.0
 40
91.0
 40
92.0
 40
92.0
 40
92.0
 40
93.0
 40
93.0
 40
93.0
 40
94.0
 40
94.0
 40
94.0
 40
95.0
 40
95.0
 40
95.0
 40
96.0
 40
96.0
 40
96.0
 40
97.0
 40
97.0
 40
97.0
 40
98.0
 40
98.0
 40
98.0
 40
99.0
 40
99.0
 40
99.0
 40
100.0
 40
100.0
 40
100.0
 40
101.0
 40
101.0
 40
101.0
 40
102.0
 40
102.0
 40
102.0
 40
103.0
 40
103.0
 40
103.0
 40
104.0
 40
104.0
 40
104.0
 40
105.0
 40
105.0
 40
105.0
 40
106.0
 40
106.0
 40
106.0
 40
107.0
 40
107.0
 40
107.0
 40
108.0
 40
108.0
 40
108.0
 40
109.0
 40
109.0
 40
109.0
 40
110.0
 40
110.0
 40
110.0
 40
111.0
 40
111.0
 40
111.0
 40
112.0
 40
112.0
 40
112.0
 40
113.0
 40
113.0
 40
113.0
 40
114.0
 40
114.0
 40
114.0
 40
115.0
 40
115.0
 40
115.0
 40
116.0
 40
116.0
 40
116.0
 40
117.0
 40
117.0
 40
117.0
 40
118.0
 40
118.0
 40
118.0
 40
119.0
 40
119.0
 40
119.0
 40
120.0
 40
120.0
 40
120.0
 40
121.0
 40
121.0
 40
121.0
 40
122.0
 40
122.0
 40
122.0
 40
123.0
 40
123.0
 40
123.0
 40
124.0
 40
124.0
 40
124.0
 40
125.0
 40
125.0
 40
125.0
 40
126.0
 40
126.0
 40
126.0
 40
127.0
 40
127.0
 40
127.0
 40
128.0
 40
128.0
 40
128.0
 40
129.0
 40
129.0
 40
129.0
 40
130.0
 40
130.0
 40
130.0
 40
131.0
 40
131.0
 40
131.0
 40
132.0
 40
132.0
 40
132.0
 40
133.0
 40
133.0
 40
133.0
 40
134.0
 40
134.0
 40
134.0
 40
135.0
 40
135.0
 40
135.0
 40
136.0
 40
136.0
 40
136.0
 40
137.0
 40
137.0
 40
137.0
 40
138.0
 40
138.0
 40
138.0
 40
139.0
 40
139.0
 40
139.0
 40
140.0
 40
140.0
 40
140.0
 40
141.0
 40
141.0
 40
141.0
 40
142.0
 40
142.0
 40
142.0
 40
143.0
 40
143.0
 40
143.0
 40
144.0
 40
144.0
 40
144.0
 40
145.0
 40
145.0
 40
145.0
 40
146.0
 40
146.0
 40
146.0
 40
147.0
 40
147.0
 40
147.0
 40
148.0
 40
148.0
 40
148.0
 40
149.0
 40
149.0
 40
149.0
 40
150.0
 40
150.0
 40
150.0
 40
151.0
 40
151.0
 40
151.0
 40
152.0
 40
152.0
 40
152.0
 40
153.0
 40
153.0
 40
153.0
 40
154.0
 40
154.0
 40
154.0
 40
155.0
 40
155.0
 40
155.0
 40
156.0
 40
156.0
 40
156.0
 40
157.0
 40
157.0
 40
157.0
 40
158.0
 40
158.0
 40
158.0
 40
159.0
 40
159.0
 40
159.0
 40
160.0
 40
160.0
 40
160.0
 40
161.0
 40
161.0
 40
161.0
 40
162.0
 40
162.0
 40
162.0
 40
163.0
 40
163.0
 40
163.0
 40
164.0
 40
164.0
 40
164.0
 40
165.0
 40
165.0
 40
165.0
 40
166.0
 40
166.0
 40
166.0
 40
167.0
 40
167.0
 40
167.0
 40
168.0
 40
168.0
 40
168.0
 40
169.0
 40
169.0
 40
169.0
 40
170.0
 40
170.0
 40
170.0
 40
171.0
 40
171.0
 40
171.0
 40
172.0
 40
172.0
 40
172.0
 40
173.0
 40
173.0
 40
173.0
 40
174.0
 40
174.0
 40
174.0
 40
175.0
 40
175.0
 40
175.0
 40
176.0
 40
176.0
 40
176.0
 40
177.0
 40
177.0
 40
177.0
 40
178.0
 40
178.0
 40
178.0
 40
179.0
 40
179.0
 40
179.0
 40
180.0
 40
180.0
 40
180.0
 40
181.0
 40
181.0
 40
181.0
 40
182.0
 40
182.0
 40
182.0
 40
183.0
 40
183.0
 40
183.0
 40
184.0
 40
184.0
 40
184.0
 40
184.0
 10
7.685601128472221
 20
-6.287055121527778
 30
0.0
 10
7.284044053819444
 20
-6.303168402777778
 30
0.0
 10
6.9561767578125
 20
-6.431206597222221
 30
0.0
 10
6.9561767578125
 20
-6.431206597222221
 30
0.0
 10
6.9561767578125
 20
-6.431206597222221
 30
0.0
 10
7.328721788194444
 20
-6.112969292534722
 30
0.0
 10
7.328721788194444
 20
-6.112969292534722
 30
0.0
 10
7.328721788194444
 20
-6.112969292534722
 30
0.0
 10
7.322116427951388
 20
-6.10693359375
 30
0.0
 10
7.322116427951388
 20
-6.10693359375
 30
0.0
 10
7.322116427951388
 20
-6.10693359375
 30
0.0
 10
7.315402560763888
 20
-6.10107421875
 30
0.0
 10
7.315402560763888
 20
-6.10107421875
 30
0.0
 10
7.315402560763888
 20
-6.10107421875
 30
0.0
 10
6.9561767578125
 20
-5.7828369140625
 30
0.0
 10
6.9561767578125
 20
-5.7828369140625
 30
0.0
 10
6.9561767578125
 20
-5.7828369140625
 30
0.0
 10
7.284044053819444
 20
-5.910875108506944
 30
0.0
 10
7.685601128472221
 20
-5.926947699652778
 30
0.0
 10
8.087144639756945
 20
-5.942857530381944
 30
0.0
 10
8.226752387152777
 20
-5.718892415364583
 30
0.0
 10
8.226752387152777
 20
-5.718892415364583
 30
0.0
 10
8.226752387152777
 20
-5.718892415364583
 30
0.0
 10
8.08688693576389
 20
-5.575778537326388
 30
0.0
 10
7.913194444444444
 20
-5.482828776041666
 30
0.0
 10
7.655002170138888
 20
-5.344658745659722
 30
0.0
 10
7.544243706597221
 20
-5.338799370659722
 30
0.0
 10
7.366048177083333
 20
-5.254631890190972
 30
0.0
 10
7.187608506944444
 20
-5.170505099826388
 30
0.0
 10
7.125786675347221
 20
-5.104566786024305
 30
0.0
 10
7.125786675347221
 20
-5.104566786024305
 30
0.0
 10
7.125786675347221
 20
-5.104566786024305
 30
0.0
 10
7.003214518229166
 20
-5.356655544704861
 30
0.0
 10
6.812459309895833
 20
-5.536661783854166
 30
0.0
 10
6.632893880208333
 20
-5.706441243489583
 30
0.0
 10
6.357394748263888
 20
-5.894911024305555
 30
0.0
 10
6.357394748263888
 20
-5.894911024305555
 30
0.0
 10
6.357394748263888
 20
-5.894911024305555
 30
0.0
 10
6.414889865451388
 20
-5.686713324652778
 30
0.0
 10
6.611735026041666
 20
-5.438652886284722
 30
0.0
 10
6.808485243055555
 20
-5.190538194444444
 30
0.0
 10
7.054606119791666
 20
-5.014655219184028
 30
0.0
 10
7.054606119791666
 20
-5.014655219184028
 30
0.0
 10
7.054606119791666
 20
-5.014655219184028
 30
0.0
 10
7.031209309895833
 20
-4.846116807725694
 30
0.0
 10
6.720499674479166
 20
-4.732442220052083
 30
0.0
 10
6.523776584201388
 20
-4.660332573784722
 30
0.0
 10
6.240939670138888
 20
-4.744384765625
 30
0.0
 10
6.240939670138888
 20
-4.744384765625
 30
0.0
 10
6.240939670138888
 20
-4.744384765625
 30
0.0
 10
6.376057942708333
 20
-4.882514105902778
 30
0.0
 10
6.437174479166666
 20
-5.002583821614583
 30
0.0
 10
6.5509033203125
 20
-5.223646375868055
 30
0.0
 10
6.447998046875
 20
-5.414767795138888
 30
0.0
 10
6.447998046875
 20
-5.414767795138888
 30
0.0
 10
6.447998046875
 20
-5.414767795138888
 30
0.0
 10
6.218397352430555
 20
-5.206658257378472
 30
0.0
 10
6.144368489583333
 20
-4.790432400173611
 30
0.0
 10
6.084893120659722
 20
-4.454840766059028
 30
0.0
 10
6.291693793402778
 20
-4.271165635850695
 30
0.0
 10
6.357394748263888
 20
-4.216037326388888
 30
0.0
 10
6.419623480902778
 20
-4.241373697916666
 30
0.0
 10
6.472249348958333
 20
-4.285678439670138
 30
0.0
 10
6.640611436631944
 20
-4.360195583767361
 30
0.0
 10
6.910875108506944
 20
-4.480394151475694
 30
0.0
 10
6.941867404513888
 20
-4.726460774739583
 30
0.0
 10
6.941867404513888
 20
-4.726460774739583
 30
0.0
 10
6.941867404513888
 20
-4.726460774739583
 30
0.0
 10
7.235636393229166
 20
-4.5509033203125
 30
0.0
 10
7.150919596354166
 20
-4.234212239583333
 30
0.0
 10
7.081217447916666
 20
-3.974087185329861
 30
0.0
 10
6.874186197916666
 20
-3.933953179253472
 30
0.0
 10
6.874186197916666
 20
-3.933953179253472
 30
0.0
 10
6.874186197916666
 20
-3.933953179253472
 30
0.0
 10
7.083102756076388
 20
-3.903978135850694
 30
0.0
 10
7.193589952256944
 20
-3.653917100694444
 30
0.0
 10
7.246717664930555
 20
-3.534152560763889
 30
0.0
 10
7.205417209201388
 20
-3.095777723524305
 30
0.0
 10
7.205417209201388
 20
-3.095777723524305
 30
0.0
 10
7.204793294270833
 20
-3.095777723524305
 30
0.0
 10
7.204549153645833
 20
-3.095587836371528
 30
0.0
 10
7.203803168402778
 20
-3.095587836371528
 30
0.0
 10
7.203803168402778
 20
-3.09515380859375
 30
0.0
 10
6.755208333333333
 20
-3.054090711805555
 30
0.0
 10
6.632392035590278
 20
-3.105848524305555
 30
0.0
 10
6.376057942708333
 20
-3.213555230034722
 30
0.0
 10
6.345323350694444
 20
-3.417812771267361
 30
0.0
 10
6.345323350694444
 20
-3.417812771267361
 30
0.0
 10
6.345323350694444
 20
-3.417812771267361
 30
0.0
 10
6.304402669270833
 20
-3.215664333767361
 30
0.0
 10
6.037733289930555
 20
-3.147786458333333
 30
0.0
 10
5.713582356770833
 20
-3.064921061197917
 30
0.0
 10
5.533786349826388
 20
-3.351793077256944
 30
0.0
 10
5.533786349826388
 20
-3.351793077256944
 30
0.0
 10
5.533786349826388
 20
-3.351793077256944
 30
0.0
 10
5.78564453125
 20
-3.381788465711805
 30
0.0
 10
5.908949110243055
 20
-3.645894368489583
 30
0.0
 10
5.985215928819444
 20
-3.809963650173611
 30
0.0
 10
6.030897352430555
 20
-3.861300998263889
 30
0.0
 10
6.056138780381944
 20
-3.922085232204861
 30
0.0
 10
6.000162760416666
 20
-3.986233181423611
 30
0.0
 10
5.8116455078125
 20
-4.18817138671875
 30
0.0
 10
5.467963324652778
 20
-4.130133734809028
 30
0.0
 10
5.041897243923611
 20
-4.058146158854166
 30
0.0
 10
4.82861328125
 20
-3.834052191840278
 30
0.0
 10
4.82861328125
 20
-3.834052191840278
 30
0.0
 10
4.82861328125
 20
-3.834052191840278
 30
0.0
 10
5.024481879340278
 20
-3.733561197916667
 30
0.0
 10
5.251193576388888
 20
-3.843987358940972
 30
0.0
 10
5.3740234375
 20
-3.903978135850694
 30
0.0
 10
5.515353732638888
 20
-4.035990397135416
 30
0.0
 10
5.515353732638888
 20
-4.035990397135416
 30
0.0
 10
5.515353732638888
 20
-4.035990397135416
 30
0.0
 10
5.601223415798611
 20
-3.759928385416667
 30
0.0
 10
5.527560763888888
 20
-3.567816840277778
 30
0.0
 10
5.411458333333333
 20
-3.264383951822917
 30
0.0
 10
5.238620334201388
 20
-3.241733127170139
 30
0.0
 10
5.238620334201388
 20
-3.241733127170139
 30
0.0
 10
5.238620334201388
 20
-3.241733127170139
 30
0.0
 10
5.058200412326388
 20
-3.481892903645833
 30
0.0
 10
4.804104275173611
 20
-3.673882378472222
 30
0.0
 10
4.550021701388888
 20
-3.866014268663194
 30
0.0
 10
4.336873372395833
 20
-3.922085232204861
 30
0.0
 10
4.336873372395833
 20
-3.922085232204861
 30
0.0
 10
4.336873372395833
 20
-3.922085232204861
 30
0.0
 10
4.529852973090278
 20
-3.653049045138889
 30
0.0
 10
4.703572591145833
 20
-3.477789984809028
 30
0.0
 10
4.888088650173611
 20
-3.291754828559028
 30
0.0
 10
5.146538628472222
 20
-3.171678331163194
 30
0.0
 10
5.146538628472222
 20
-3.171678331163194
 30
0.0
 10
5.146538628472222
 20
-3.171678331163194
 30
0.0
 10
5.078599717881944
 20
-3.111707899305555
 30
0.0
 10
4.992757161458333
 20
-2.9376220703125
 30
0.0
 10
4.906507703993055
 20
-2.763353135850694
 30
0.0
 10
4.900417751736111
 20
-2.655531141493055
 30
0.0
 10
4.759182400173611
 20
-2.403361002604167
 30
0.0
 10
4.663872612847222
 20
-2.23345947265625
 30
0.0
 10
4.517293294270833
 20
-2.097140842013889
 30
0.0
 10
4.517293294270833
 20
-2.097140842013889
 30
0.0
 10
4.517293294270833
 20
-2.097140842013889
 30
0.0
 10
4.287950303819445
 20
-2.233391655815972
 30
0.0
 10
4.303765190972222
 20
-2.625420464409722
 30
0.0
 10
4.3203125
 20
-3.017571343315972
 30
0.0
 10
4.451470269097222
 20
-3.337795681423611
 30
0.0
 10
4.451470269097222
 20
-3.337795681423611
 30
0.0
 10
4.451470269097222
 20
-3.337795681423611
 30
0.0
 10
4.113620334201388
 20
-2.973646375868055
 30
0.0
 10
4.113620334201388
 20
-2.973646375868055
 30
0.0
 10
4.113620334201388
 20
-2.973646375868055
 30
0.0
 10
3.775051540798611
 20
-3.337795681423611
 30
0.0
 10
3.775051540798611
 20
-3.337795681423611
 30
0.0
 10
3.775051540798611
 20
-3.337795681423611
 30
0.0
 10
3.906453450520833
 20
-3.017571343315972
 30
0.0
 10
3.922878689236111
 20
-2.625420464409722
 30
0.0
 10
3.939175075954861
 20
-2.233391655815972
 30
0.0
 10
3.709587944878472
 20
-2.097140842013889
 30
0.0
 10
3.709587944878472
 20
-2.097140842013889
 30
0.0
 10
3.709587944878472
 20
-2.097140842013889
 30
0.0
 10
3.562879774305555
 20
-2.23345947265625
 30
0.0
 10
3.467814127604167
 20
-2.403361002604167
 30
0.0
 10
3.326836480034722
 20
-2.655531141493055
 30
0.0
 10
3.320753309461805
 20
-2.763353135850694
 30
0.0
 10
3.234144422743055
 20
-2.9376220703125
 30
0.0
 10
3.148152669270833
 20
-3.111707899305555
 30
0.0
 10
3.080464680989583
 20
-3.171678331163194
 30
0.0
 10
3.080464680989583
 20
-3.171678331163194
 30
0.0
 10
3.080464680989583
 20
-3.171678331163194
 30
0.0
 10
3.338907877604167
 20
-3.291754828559028
 30
0.0
 10
3.523200141059028
 20
-3.477789984809028
 30
0.0
 10
3.6968994140625
 20
-3.653049045138889
 30
0.0
 10
3.889899359809028
 20
-3.922085232204861
 30
0.0
 10
3.889899359809028
 20
-3.922085232204861
 30
0.0
 10
3.889899359809028
 20
-3.922085232204861
 30
0.0
 10
3.676988389756944
 20
-3.866014268663194
 30
0.0
 10
3.422519259982639
 20
-3.673882378472222
 30
0.0
 10
3.168680826822917
 20
-3.481892903645833
 30
0.0
 10
2.988633897569444
 20
-3.241733127170139
 30
0.0
 10
2.988633897569444
 20
-3.241733127170139
 30
0.0
 10
2.988633897569444
 20
-3.241733127170139
 30
0.0
 10
2.8157958984375
 20
-3.264383951822917
 30
0.0
 10
2.699578179253472
 20
-3.567816840277778
 30
0.0
 10
2.625528971354167
 20
-3.759928385416667
 30
0.0
 10
2.711771647135417
 20
-4.035990397135416
 30
0.0
 10
2.711771647135417
 20
-4.035990397135416
 30
0.0
 10
2.711771647135417
 20
-4.035990397135416
 30
0.0
 10
2.853006998697917
 20
-3.903978135850694
 30
0.0
 10
2.976060655381944
 20
-3.843987358940972
 30
0.0
 10
3.202284071180555
 20
-3.733561197916667
 30
0.0
 10
3.398267957899305
 20
-3.834052191840278
 30
0.0
 10
3.398267957899305
 20
-3.834052191840278
 30
0.0
 10
3.398267957899305
 20
-3.834052191840278
 30
0.0
 10
3.185099283854167
 20
-4.058146158854166
 30
0.0
 10
2.758680555555555
 20
-4.130133734809028
 30
0.0
 10
2.415106879340278
 20
-4.18817138671875
 30
0.0
 10
2.226969401041667
 20
-3.986233181423611
 30
0.0
 10
2.170728895399305
 20
-3.922085232204861
 30
0.0
 10
2.19610595703125
 20
-3.861300998263889
 30
0.0
 10
2.241916232638889
 20
-3.809963650173611
 30
0.0
 10
2.318060980902778
 20
-3.645894368489583
 30
0.0
 10
2.441128200954861
 20
-3.381788465711805
 30
0.0
 10
2.692979600694444
 20
-3.351793077256944
 30
0.0
 10
2.692979600694444
 20
-3.351793077256944
 30
0.0
 10
2.692979600694444
 20
-3.351793077256944
 30
0.0
 10
2.513427734375
 20
-3.064921061197917
 30
0.0
 10
2.18902587890625
 20
-3.147786458333333
 30
0.0
 10
1.922987196180555
 20
-3.215664333767361
 30
0.0
 10
1.881551106770833
 20
-3.417812771267361
 30
0.0
 10
1.881551106770833
 20
-3.417812771267361
 30
0.0
 10
1.881551106770833
 20
-3.417812771267361
 30
0.0
 10
1.850945366753472
 20
-3.213555230034722
 30
0.0
 10
1.594482421875
 20
-3.105848524305555
 30
0.0
 10
1.471917046440972
 20
-3.054090711805555
 30
0.0
 10
1.022840711805556
 20
-3.09515380859375
 30
0.0
 10
1.022840711805556
 20
-3.095587836371528
 30
0.0
 10
1.022345648871528
 20
-3.095587836371528
 30
0.0
 10
1.022087944878472
 20
-3.095777723524305
 30
0.0
 10
1.021721733940972
 20
-3.095777723524305
 30
0.0
 10
1.021721733940972
 20
-3.095777723524305
 30
0.0
 10
0.9804009331597222
 20
-3.534152560763889
 30
0.0
 10
1.033169216579861
 20
-3.653917100694444
 30
0.0
 10
1.143785264756944
 20
-3.903978135850694
 30
0.0
 10
1.352830674913194
 20
-3.933953179253472
 30
0.0
 10
1.352830674913194
 20
-3.933953179253472
 30
0.0
 10
1.352830674913194
 20
-3.933953179253472
 30
0.0
 10
1.145772298177083
 20
-3.974087185329861
 30
0.0
 10
1.076219346788194
 20
-4.234212239583333
 30
0.0
 10
0.991604275173611
 20
-4.5509033203125
 30
0.0
 10
1.285264756944444
 20
-4.726460774739583
 30
0.0
 10
1.285264756944444
 20
-4.726460774739583
 30
0.0
 10
1.285264756944444
 20
-4.726460774739583
 30
0.0
 10
1.315884060329861
 20
-4.480394151475694
 30
0.0
 10
1.586513943142361
 20
-4.360195583767361
 30
0.0
 10
1.754753960503472
 20
-4.285678439670138
 30
0.0
 10
1.807142469618055
 20
-4.241373697916666
 30
0.0
 10
1.869357638888889
 20
-4.216037326388888
 30
0.0
 10
1.93505859375
 20
-4.271165635850695
 30
0.0
 10
2.141737196180555
 20
-4.454840766059028
 30
0.0
 10
2.082383897569444
 20
-4.790432400173611
 30
0.0
 10
2.00897216796875
 20
-5.206658257378472
 30
0.0
 10
1.779018825954861
 20
-5.414767795138888
 30
0.0
 10
1.779018825954861
 20
-5.414767795138888
 30
0.0
 10
1.779018825954861
 20
-5.414767795138888
 30
0.0
 10
1.676113552517361
 20
-5.223646375868055
 30
0.0
 10
1.789347330729167
 20
-5.002583821614583
 30
0.0
 10
1.850945366753472
 20
-4.882514105902778
 30
0.0
 10
1.986070421006944
 20
-4.744384765625
 30
0.0
 10
1.986070421006944
 20
-4.744384765625
 30
0.0
 10
1.986070421006944
 20
-4.744384765625
 30
0.0
 10
1.703233506944444
 20
-4.660332573784722
 30
0.0
 10
1.506632486979167
 20
-4.732442220052083
 30
0.0
 10
1.195929633246528
 20
-4.846116807725694
 30
0.0
 10
1.172410753038194
 20
-5.014655219184028
 30
0.0
 10
1.172410753038194
 20
-5.014655219184028
 30
0.0
 10
1.172410753038194
 20
-5.014655219184028
 30
0.0
 10
1.418287489149306
 20
-5.190538194444444
 30
0.0
 10
1.615261501736111
 20
-5.438652886284722
 30
0.0
 10
1.811869303385417
 20
-5.686713324652778
 30
0.0
 10
1.869357638888889
 20
-5.894911024305555
 30
0.0
 10
1.869357638888889
 20
-5.894911024305555
 30
0.0
 10
1.869357638888889
 20
-5.894911024305555
 30
0.0
 10
1.593987358940972
 20
-5.706441243489583
 30
0.0
 10
1.414306640625
 20
-5.536661783854166
 30
0.0
 10
1.223544650607639
 20
-5.356655544704861
 30
0.0
 10
1.100857204861111
 20
-5.104566786024305
 30
0.0
 10
1.100857204861111
 20
-5.104566786024305
 30
0.0
 10
1.100857204861111
 20
-5.104566786024305
 30
0.0
 10
1.039388020833333
 20
-5.170505099826388
 30
0.0
 10
0.8609551323784722
 20
-5.254631890190972
 30
0.0
 10
0.6826375325520833
 20
-5.338799370659722
 30
0.0
 10
0.5718994140625
 20
-5.344658745659722
 30
0.0
 10
0.3139377170138889
 20
-5.482828776041666
 30
0.0
 10
0.1397433810763889
 20
-5.575778537326388
 30
0.0
 10
0.0
 20
-5.718892415364583
 30
0.0
 10
0.0
 20
-5.718892415364583
 30
0.0
 10
0.0
 20
-5.718892415364583
 30
0.0
 10
0.1397433810763889
 20
-5.942857530381944
 30
0.0
 10
0.5412801106770833
 20
-5.926947699652778
 30
0.0
 10
0.9429524739583333
 20
-5.910875108506944
 30
0.0
 10
1.270962185329861
 20
-5.7828369140625
 30
0.0
 10
1.270962185329861
 20
-5.7828369140625
 30
0.0
 10
1.270962185329861
 20
-5.7828369140625
 30
0.0
 10
0.9118381076388888
 20
-6.10107421875
 30
0.0
 10
0.9118381076388888
 20
-6.10107421875
 30
0.0
 10
0.9118381076388888
 20
-6.10107421875
 30
0.0
 10
0.9047580295138888
 20
-6.10693359375
 30
0.0
 10
0.9047580295138888
 20
-6.10693359375
 30
0.0
 10
0.9047580295138888
 20
-6.10693359375
 30
0.0
 10
0.9118381076388888
 20
-6.112969292534722
 30
0.0
 10
0.9118381076388888
 20
-6.112969292534722
 30
0.0
 10
0.9118381076388888
 20
-6.112969292534722
 30
0.0
 10
1.270962185329861
 20
-6.431206597222221
 30
0.0
 10
1.270962185329861
 20
-6.431206597222221
 30
0.0
 10
1.270962185329861
 20
-6.431206597222221
 30
0.0
 10
0.9429524739583333
 20
-6.303168402777778
 30
0.0
 10
0.5412801106770833
 20
-6.287055121527778
 30
0.0
 10
0.1397433810763889
 20
-6.271063910590278
 30
0.0
 10
0.0
 20
-6.495157877604166
 30
0.0
 10
0.0
 20
-6.495157877604166
 30
0.0
 10
0.0
 20
-6.495157877604166
 30
0.0
 10
0.1397433810763889
 20
-6.638387044270833
 30
0.0
 10
0.3139377170138889
 20
-6.731336805555555
 30
0.0
 10
0.5718994140625
 20
-6.869316948784721
 30
0.0
 10
0.6826375325520833
 20
-6.875176323784721
 30
0.0
 10
0.8609551323784722
 20
-6.959309895833333
 30
0.0
 10
1.039388020833333
 20
-7.043402777777778
 30
0.0
 10
1.100857204861111
 20
-7.109429253472221
 30
0.0
 10
1.100857204861111
 20
-7.109429253472221
 30
0.0
 10
1.100857204861111
 20
-7.109429253472221
 30
0.0
 10
1.223544650607639
 20
-6.857326931423611
 30
0.0
 10
1.414306640625
 20
-6.677137586805555
 30
0.0
 10
1.593987358940972
 20
-6.507731119791666
 30
0.0
 10
1.869357638888889
 20
-6.319037543402778
 30
0.0
 10
1.869357638888889
 20
-6.319037543402778
 30
0.0
 10
1.869357638888889
 20
-6.319037543402778
 30
0.0
 10
1.811869303385417
 20
-6.527194552951388
 30
0.0
 10
1.615261501736111
 20
-6.775200737847221
 30
0.0
 10
1.418287489149306
 20
-7.023383246527778
 30
0.0
 10
1.172410753038194
 20
-7.199517144097221
 30
0.0
 10
1.172410753038194
 20
-7.199517144097221
 30
0.0
 10
1.172410753038194
 20
-7.199517144097221
 30
0.0
 10
1.195929633246528
 20
-7.3677978515625
 30
0.0
 10
1.506632486979167
 20
-7.481608072916666
 30
0.0
 10
1.703233506944444
 20
-7.553724500868055
 30
0.0
 10
1.986070421006944
 20
-7.469536675347221
 30
0.0
 10
1.986070421006944
 20
-7.469536675347221
 30
0.0
 10
1.986070421006944
 20
-7.469536675347221
 30
0.0
 10
1.850945366753472
 20
-7.331610785590278
 30
0.0
 10
1.789347330729167
 20
-7.211466471354166
 30
0.0
 10
1.676113552517361
 20
-6.990654839409721
 30
0.0
 10
1.779018825954861
 20
-6.799289279513888
 30
0.0
 10
1.779018825954861
 20
-6.799289279513888
 30
0.0
 10
1.779018825954861
 20
-6.799289279513888
 30
0.0
 10
2.00897216796875
 20
-7.007337782118055
 30
0.0
 10
2.082383897569444
 20
-7.423665364583333
 30
0.0
 10
2.141737196180555
 20
-7.759101019965278
 30
0.0
 10
1.93505859375
 20
-7.942884657118055
 30
0.0
 10
1.869357638888889
 20
-7.997870551215278
 30
0.0
 10
1.807142469618055
 20
-7.972805447048611
 30
0.0
 10
1.754753960503472
 20
-7.928371853298611
 30
0.0
 10
1.586513943142361
 20
-7.853705512152778
 30
0.0
 10
1.315884060329861
 20
-7.733832465277778
 30
0.0
 10
1.285264756944444
 20
-7.487698025173611
 30
0.0
 10
1.285264756944444
 20
-7.487698025173611
 30
0.0
 10
1.285264756944444
 20
-7.487698025173611
 30
0.0
 10
0.991604275173611
 20
-7.663275824652778
 30
0.0
 10
1.076219346788194
 20
-7.979763454861111
 30
0.0
 10
1.145772298177083
 20
-8.24001736111111
 30
0.0
 10
1.352830674913194
 20
-8.280015733506945
 30
0.0
 10
1.352830674913194
 20
-8.280015733506945
 30
0.0
 10
1.352830674913194
 20
-8.280015733506945
 30
0.0
 10
1.143785264756944
 20
-8.30996365017361
 30
0.0
 10
1.033169216579861
 20
-8.5601806640625
 30
0.0
 10
0.9804009331597222
 20
-8.679823133680555
 30
0.0
 10
1.021721733940972
 20
-9.118394639756945
 30
0.0
 10
1.021721733940972
 20
-9.118394639756945
 30
0.0
 10
1.022087944878472
 20
-9.118394639756945
 30
0.0
 10
1.022345648871528
 20
-9.118394639756945
 30
0.0
 10
1.022840711805556
 20
-9.118516710069445
 30
0.0
 10
1.022840711805556
 20
-9.118815104166666
 30
0.0
 10
1.471917046440972
 20
-9.160020616319445
 30
0.0
 10
1.594482421875
 20
-9.108194986979166
 30
0.0
 10
1.850945366753472
 20
-9.000434027777777
 30
0.0
 10
1.881551106770833
 20
-8.796251085069445
 30
0.0
 10
1.881551106770833
 20
-8.796251085069445
 30
0.0
 10
1.881551106770833
 20
-8.796251085069445
 30
0.0
 10
1.922987196180555
 20
-8.998494466145832
 30
0.0
 10
2.18902587890625
 20
-9.066487630208332
 30
0.0
 10
2.513427734375
 20
-9.148993598090277
 30
0.0
 10
2.692979600694444
 20
-8.8623046875
 30
0.0
 10
2.692979600694444
 20
-8.8623046875
 30
0.0
 10
2.692979600694444
 20
-8.8623046875
 30
0.0
 10
2.441128200954861
 20
-8.832316080729166
 30
0.0
 10
2.318060980902778
 20
-8.568033854166666
 30
0.0
 10
2.241916232638889
 20
-8.404134114583332
 30
0.0
 10
2.19610595703125
 20
-8.352647569444445
 30
0.0
 10
2.170728895399305
 20
-8.292032877604166
 30
0.0
 10
2.226969401041667
 20
-8.227579752604166
 30
0.0
 10
2.415106879340278
 20
-8.025743272569445
 30
0.0
 10
2.758680555555555
 20
-8.084038628472221
 30
0.0
 10
3.185099283854167
 20
-8.15603298611111
 30
0.0
 10
3.398267957899305
 20
-8.380072699652777
 30
0.0
 10
3.398267957899305
 20
-8.380072699652777
 30
0.0
 10
3.398267957899305
 20
-8.380072699652777
 30
0.0
 10
3.202284071180555
 20
-8.48068576388889
 30
0.0
 10
2.976060655381944
 20
-8.370062934027777
 30
0.0
 10
2.853006998697917
 20
-8.30996365017361
 30
0.0
 10
2.711771647135417
 20
-8.177924262152777
 30
0.0
 10
2.711771647135417
 20
-8.177924262152777
 30
0.0
 10
2.711771647135417
 20
-8.177924262152777
 30
0.0
 10
2.625528971354167
 20
-8.4539794921875
 30
0.0
 10
2.699578179253472
 20
-8.646050347222221
 30
0.0
 10
2.8157958984375
 20
-8.949598524305555
 30
0.0
 10
2.988633897569444
 20
-8.972249348958332
 30
0.0
 10
2.988633897569444
 20
-8.972249348958332
 30
0.0
 10
2.988633897569444
 20
-8.972249348958332
 30
0.0
 10
3.168680826822917
 20
-8.73215060763889
 30
0.0
 10
3.422519259982639
 20
-8.540215386284721
 30
0.0
 10
3.676988389756944
 20
-8.347954644097221
 30
0.0
 10
3.889899359809028
 20
-8.292032877604166
 30
0.0
 10
3.889899359809028
 20
-8.292032877604166
 30
0.0
 10
3.889899359809028
 20
-8.292032877604166
 30
0.0
 10
3.6968994140625
 20
-8.560804578993055
 30
0.0
 10
3.523200141059028
 20
-8.736328125
 30
0.0
 10
3.338907877604167
 20
-8.922227647569445
 30
0.0
 10
3.080464680989583
 20
-9.042304144965277
 30
0.0
 10
3.080464680989583
 20
-9.042304144965277
 30
0.0
 10
3.080464680989583
 20
-9.042304144965277
 30
0.0
 10
3.148152669270833
 20
-9.102471245659721
 30
0.0
 10
3.234144422743055
 20
-9.276475694444445
 30
0.0
 10
3.320753309461805
 20
-9.45068359375
 30
0.0
 10
3.326836480034722
 20
-9.558580186631945
 30
0.0
 10
3.467814127604167
 20
-9.8106689453125
 30
0.0
 10
3.562879774305555
 20
-9.980523003472221
 30
0.0
 10
3.709587944878472
 20
-10.11678059895833
 30
0.0
 10
3.709587944878472
 20
-10.11678059895833
 30
0.0
 10
3.709587944878472
 20
-10.11678059895833
 30
0.0
 10
3.939175075954861
 20
-9.980712890625
 30
0.0
 10
3.922878689236111
 20
-9.5885009765625
 30
0.0
 10
3.906453450520833
 20
-9.196533203125
 30
0.0
 10
3.775051540798611
 20
-8.876234266493055
 30
0.0
 10
3.775051540798611
 20
-8.876234266493055
 30
0.0
 10
3.775051540798611
 20
-8.876234266493055
 30
0.0
 10
4.113620334201388
 20
-9.240207248263888
 30
0.0
 10
4.113620334201388
 20
-9.240207248263888
 30
0.0
 10
4.113620334201388
 20
-9.240207248263888
 30
0.0
 10
4.451470269097222
 20
-8.876234266493055
 30
0.0
 10
4.451470269097222
 20
-8.876234266493055
 30
0.0
 10
4.451470269097222
 20
-8.876234266493055
 30
0.0
 10
4.3203125
 20
-9.196533203125
 30
0.0
 10
4.303765190972222
 20
-9.5885009765625
 30
0.0
 10
4.287950303819445
 20
-9.980712890625
 30
0.0
 10
4.517293294270833
 20
-10.11678059895833
 30
0.0
 10
4.517293294270833
 20
-10.11678059895833
 30
0.0
 10
4.517293294270833
 20
-10.11678059895833
 30
0.0
 10
4.663872612847222
 20
-9.980523003472221
 30
0.0
 10
4.759182400173611
 20
-9.8106689453125
 30
0.0
 10
4.900417751736111
 20
-9.558580186631945
 30
0.0
 10
4.906507703993055
 20
-9.45068359375
 30
0.0
 10
4.992757161458333
 20
-9.276475694444445
 30
0.0
 10
5.078599717881944
 20
-9.102471245659721
 30
0.0
 10
5.146538628472222
 20
-9.042304144965277
 30
0.0
 10
5.146538628472222
 20
-9.042304144965277
 30
0.0
 10
5.146538628472222
 20
-9.042304144965277
 30
0.0
 10
4.888088650173611
 20
-8.922227647569445
 30
0.0
 10
4.703572591145833
 20
-8.736328125
 30
0.0
 10
4.529852973090278
 20
-8.560804578993055
 30
0.0
 10
4.336873372395833
 20
-8.292032877604166
 30
0.0
 10
4.336873372395833
 20
-8.292032877604166
 30
0.0
 10
4.336873372395833
 20
-8.292032877604166
 30
0.0
 10
4.550021701388888
 20
-8.347954644097221
 30
0.0
 10
4.804104275173611
 20
-8.540215386284721
 30
0.0
 10
5.058200412326388
 20
-8.73215060763889
 30
0.0
 10
5.238620334201388
 20
-8.972249348958332
 30
0.0
 10
5.238620334201388
 20
-8.972249348958332
 30
0.0
 10
5.238620334201388
 20
-8.972249348958332
 30
0.0
 10
5.411458333333333
 20
-8.949598524305555
 30
0.0
 10
5.527560763888888
 20
-8.646050347222221
 30
0.0
 10
5.601223415798611
 20
-8.4539794921875
 30
0.0
 10
5.515353732638888
 20
-8.177924262152777
 30
0.0
 10
5.515353732638888
 20
-8.177924262152777
 30
0.0
 10
5.515353732638888
 20
-8.177924262152777
 30
0.0
 10
5.3740234375
 20
-8.30996365017361
 30
0.0
 10
5.251193576388888
 20
-8.370062934027777
 30
0.0
 10
5.024481879340278
 20
-8.48068576388889
 30
0.0
 10
4.82861328125
 20
-8.380072699652777
 30
0.0
 10
4.82861328125
 20
-8.380072699652777
 30
0.0
 10
4.82861328125
 20
-8.380072699652777
 30
0.0
 10
5.041897243923611
 20
-8.15603298611111
 30
0.0
 10
5.467963324652778
 20
-8.084038628472221
 30
0.0
 10
5.8116455078125
 20
-8.025743272569445
 30
0.0
 10
6.000162760416666
 20
-8.227579752604166
 30
0.0
 10
6.056138780381944
 20
-8.292032877604166
 30
0.0
 10
6.030897352430555
 20
-8.352647569444445
 30
0.0
 10
5.985215928819444
 20
-8.404134114583332
 30
0.0
 10
5.908949110243055
 20
-8.568033854166666
 30
0.0
 10
5.78564453125
 20
-8.832316080729166
 30
0.0
 10
5.533786349826388
 20
-8.8623046875
 30
0.0
 10
5.533786349826388
 20
-8.8623046875
 30
0.0
 10
5.533786349826388
 20
-8.8623046875
 30
0.0
 10
5.713582356770833
 20
-9.148993598090277
 30
0.0
 10
6.037733289930555
 20
-9.066487630208332
 30
0.0
 10
6.304402669270833
 20
-8.998494466145832
 30
0.0
 10
6.345323350694444
 20
-8.796251085069445
 30
0.0
 10
6.345323350694444
 20
-8.796251085069445
 30
0.0
 10
6.345323350694444
 20
-8.796251085069445
 30
0.0
 10
6.376057942708333
 20
-9.000434027777777
 30
0.0
 10
6.632392035590278
 20
-9.108194986979166
 30
0.0
 10
6.755208333333333
 20
-9.160020616319445
 30
0.0
 10
7.203803168402778
 20
-9.118815104166666
 30
0.0
 10
7.203803168402778
 20
-9.118516710069445
 30
0.0
 10
7.204549153645833
 20
-9.118394639756945
 30
0.0
 10
7.204793294270833
 20
-9.118394639756945
 30
0.0
 10
7.205417209201388
 20
-9.118394639756945
 30
0.0
 10
7.205417209201388
 20
-9.118394639756945
 30
0.0
 10
7.246717664930555
 20
-8.679823133680555
 30
0.0
 10
7.193589952256944
 20
-8.5601806640625
 30
0.0
 10
7.083102756076388
 20
-8.30996365017361
 30
0.0
 10
6.874186197916666
 20
-8.280015733506945
 30
0.0
 10
6.874186197916666
 20
-8.280015733506945
 30
0.0
 10
6.874186197916666
 20
-8.280015733506945
 30
0.0
 10
7.081217447916666
 20
-8.24001736111111
 30
0.0
 10
7.150919596354166
 20
-7.979763454861111
 30
0.0
 10
7.235636393229166
 20
-7.663275824652778
 30
0.0
 10
6.941867404513888
 20
-7.487698025173611
 30
0.0
 10
6.941867404513888
 20
-7.487698025173611
 30
0.0
 10
6.941867404513888
 20
-7.487698025173611
 30
0.0
 10
6.910875108506944
 20
-7.733832465277778
 30
0.0
 10
6.640611436631944
 20
-7.853705512152778
 30
0.0
 10
6.472249348958333
 20
-7.928371853298611
 30
0.0
 10
6.419623480902778
 20
-7.972805447048611
 30
0.0
 10
6.357394748263888
 20
-7.997870551215278
 30
0.0
 10
6.291693793402778
 20
-7.942884657118055
 30
0.0
 10
6.084893120659722
 20
-7.759101019965278
 30
0.0
 10
6.144368489583333
 20
-7.423665364583333
 30
0.0
 10
6.218397352430555
 20
-7.007337782118055
 30
0.0
 10
6.447998046875
 20
-6.799289279513888
 30
0.0
 10
6.447998046875
 20
-6.799289279513888
 30
0.0
 10
6.447998046875
 20
-6.799289279513888
 30
0.0
 10
6.5509033203125
 20
-6.990654839409721
 30
0.0
 10
6.437174479166666
 20
-7.211466471354166
 30
0.0
 10
6.376057942708333
 20
-7.331610785590278
 30
0.0
 10
6.240939670138888
 20
-7.469536675347221
 30
0.0
 10
6.240939670138888
 20
-7.469536675347221
 30
0.0
 10
6.240939670138888
 20
-7.469536675347221
 30
0.0
 10
6.523776584201388
 20
-7.553724500868055
 30
0.0
 10
6.720499674479166
 20
-7.481608072916666
 30
0.0
 10
7.031209309895833
 20
-7.3677978515625
 30
0.0
 10
7.054606119791666
 20
-7.199517144097221
 30
0.0
 10
7.054606119791666
 20
-7.199517144097221
 30
0.0
 10
7.054606119791666
 20
-7.199517144097221
 30
0.0
 10
6.808485243055555
 20
-7.023383246527778
 30
0.0
 10
6.611735026041666
 20
-6.775200737847221
 30
0.0
 10
6.414889865451388
 20
-6.527194552951388
 30
0.0
 10
6.357394748263888
 20
-6.319037543402778
 30
0.0
 10
6.357394748263888
 20
-6.319037543402778
 30
0.0
 10
6.357394748263888
 20
-6.319037543402778
 30
0.0
 10
6.632893880208333
 20
-6.507731119791666
 30
0.0
 10
6.812459309895833
 20
-6.677137586805555
 30
0.0
 10
7.003214518229166
 20
-6.857326931423611
 30
0.0
 10
7.125786675347221
 20
-7.109429253472221
 30
0.0
 10
7.125786675347221
 20
-7.109429253472221
 30
0.0
 10
7.125786675347221
 20
-7.109429253472221
 30
0.0
 10
7.187608506944444
 20
-7.043402777777778
 30
0.0
 10
7.366048177083333
 20
-6.959309895833333
 30
0.0
 10
7.544243706597221
 20
-6.875176323784721
 30
0.0
 10
7.655002170138888
 20
-6.869316948784721
 30
0.0
 10
7.913194444444444
 20
-6.731336805555555
 30
0.0
 10
8.08688693576389
 20
-6.638387044270833
 30
0.0
 10
8.226752387152777
 20
-6.495157877604166
 30
0.0
 10
8.226752387152777
 20
-6.495157877604166
 30
0.0
 10
8.226752387152777
 20
-6.495157877604166
 30
0.0
 10
8.087144639756945
 20
-6.271063910590278
 30
0.0
 10
7.685601128472221
 20
-6.287055121527778
 30
0.0
  0
SPLINE
  5
41
330
3C
100
AcDbEntity
  8
Layer 1
370
     0
100
AcDbSpline
210
0.0
220
0.0
230
1.0
 70
    11
 71
     3
 72
    17
 73
    13
 74
     0
 42
0.0000000001
 43
0.0000000001
 40
0.0
 40
0.0
 40
0.0
 40
0.0
 40
1.0
 40
1.0
 40
1.0
 40
2.0
 40
2.0
 40
2.0
 40
3.0
 40
3.0
 40
3.0
 40
4.0
 40
4.0
 40
4.0
 40
4.0
 10
6.812581380208333
 20
-3.341722276475694
 30
0.0
 10
6.885240342881944
 20
-3.341722276475694
 30
0.0
 10
6.9434814453125
 20
-3.399142795138889
 30
0.0
 10
6.9434814453125
 20
-3.469889322916667
 30
0.0
 10
6.9434814453125
 20
-3.540622287326389
 30
0.0
 10
6.885240342881944
 20
-3.598063151041667
 30
0.0
 10
6.812581380208333
 20
-3.598063151041667
 30
0.0
 10
6.740410698784721
 20
-3.598063151041667
 30
0.0
 10
6.681545681423611
 20
-3.540622287326389
 30
0.0
 10
6.681545681423611
 20
-3.469889322916667
 30
0.0
 10
6.681545681423611
 20
-3.399142795138889
 30
0.0
 10
6.740410698784721
 20
-3.341722276475694
 30
0.0
 10
6.812581380208333
 20
-3.341722276475694
 30
0.0
  0
SPLINE
  5
42
330
3C
100
AcDbEntity
  8
Layer 1
370
     0
100
AcDbSpline
210
0.0
220
0.0
230
1.0
 70
    11
 71
     3
 72
    17
 73
    13
 74
     0
 42
0.0000000001
 43
0.0000000001
 40
0.0
 40
0.0
 40
0.0
 40
0.0
 40
1.0
 40
1.0
 40
1.0
 40
2.0
 40
2.0
 40
2.0
 40
3.0
 40
3.0
 40
3.0
 40
4.0
 40
4.0
 40
4.0
 40
4.0
 10
1.418287489149306
 20
-3.598063151041667
 30
0.0
 10
1.346116807725694
 20
-3.598063151041667
 30
0.0
 10
1.287387424045139
 20
-3.540622287326389
 30
0.0
 10
1.287387424045139
 20
-3.469889322916667
 30
0.0
 10
1.287387424045139
 20
-3.399142795138889
 30
0.0
 10
1.346116807725694
 20
-3.341722276475694
 30
0.0
 10
1.418287489149306
 20
-3.341722276475694
 30
0.0
 10
1.491082085503472
 20
-3.341722276475694
 30
0.0
 10
1.549567328559028
 20
-3.399142795138889
 30
0.0
 10
1.549567328559028
 20
-3.469889322916667
 30
0.0
 10
1.549567328559028
 20
-3.540622287326389
 30
0.0
 10
1.491082085503472
 20
-3.598063151041667
 30
0.0
 10
1.418287489149306
 20
-3.598063151041667
 30
0.0
  0
SPLINE
  5
43
330
3C
100
AcDbEntity
  8
Layer 1
370
     0
100
AcDbSpline
210
0.0
220
0.0
230
1.0
 70
    11
 71
     3
 72
    17
 73
    13
 74
     0
 42
0.0000000001
 43
0.0000000001
 40
0.0
 40
0.0
 40
0.0
 40
0.0
 40
1.0
 40
1.0
 40
1.0
 40
2.0
 40
2.0
 40
2.0
 40
3.0
 40
3.0
 40
3.0
 40
4.0
 40
4.0
 40
4.0
 40
4.0
 10
1.418287489149306
 20
-8.848253038194445
 30
0.0
 10
1.346116807725694
 20
-8.848253038194445
 30
0.0
 10
1.287387424045139
 20
-8.790825737847221
 30
0.0
 10
1.287387424045139
 20
-8.72021484375
 30
0.0
 10
1.287387424045139
 20
-8.649590386284721
 30
0.0
 10
1.346116807725694
 20
-8.592095269097221
 30
0.0
 10
1.418287489149306
 20
-8.592095269097221
 30
0.0
 10
1.491082085503472
 20
-8.592095269097221
 30
0.0
 10
1.549567328559028
 20
-8.649590386284721
 30
0.0
 10
1.549567328559028
 20
-8.72021484375
 30
0.0
 10
1.549567328559028
 20
-8.790825737847221
 30
0.0
 10
1.491082085503472
 20
-8.848253038194445
 30
0.0
 10
1.418287489149306
 20
-8.848253038194445
 30
0.0
  0
SPLINE
  5
44
330
3C
100
AcDbEntity
  8
Layer 1
370
     0
100
AcDbSpline
210
0.0
220
0.0
230
1.0
 70
    11
 71
     3
 72
    17
 73
    13
 74
     0
 42
0.0000000001
 43
0.0000000001
 40
0.0
 40
0.0
 40
0.0
 40
0.0
 40
1.0
 40
1.0
 40
1.0
 40
2.0
 40
2.0
 40
2.0
 40
3.0
 40
3.0
 40
3.0
 40
4.0
 40
4.0
 40
4.0
 40
4.0
 10
6.812581380208333
 20
-8.592095269097221
 30
0.0
 10
6.885240342881944
 20
-8.592095269097221
 30
0.0
 10
6.9434814453125
 20
-8.649590386284721
 30
0.0
 10
6.9434814453125
 20
-8.72021484375
 30
0.0
 10
6.9434814453125
 20
-8.790825737847221
 30
0.0
 10
6.885240342881944
 20
-8.848253038194445
 30
0.0
 10
6.812581380208333
 20
-8.848253038194445
 30
0.0
 10
6.740410698784721
 20
-8.848253038194445
 30
0.0
 10
6.681545681423611
 20
-8.790825737847221
 30
0.0
 10
6.681545681423611
 20
-8.72021484375
 30
0.0
 10
6.681545681423611
 20
-8.649590386284721
 30
0.0
 10
6.740410698784721
 20
-8.592095269097221
 30
0.0
 10
6.812581380208333
 20
-8.592095269097221
 30
0.0
  0
SPLINE
  5
45
330
3C
100
AcDbEntity
  8
Layer 1
370
     0
100
AcDbSpline
210
0.0
220
0.0
230
1.0
 70
    11
 71
     3
 72
    38
 73
    34
 74
     0
 42
0.0000000001
 43
0.0000000001
 40
0.0
 40
0.0
 40
0.0
 40
0.0
 40
1.0
 40
1.0
 40
1.0
 40
2.0
 40
2.0
 40
2.0
 40
3.0
 40
3.0
 40
3.0
 40
4.0
 40
4.0
 40
4.0
 40
5.0
 40
5.0
 40
5.0
 40
6.0
 40
6.0
 40
6.0
 40
7.0
 40
7.0
 40
7.0
 40
8.0
 40
8.0
 40
8.0
 40
9.0
 40
9.0
 40
9.0
 40
10.0
 40
10.0
 40
10.0
 40
11.0
 40
11.0
 40
11.0
 40
11.0
 10
4.728325737847222
 20
-3.958150227864583
 30
0.0
 10
4.728325737847222
 20
-3.958150227864583
 30
0.0
 10
4.918958875868055
 20
-4.138210720486111
 30
0.0
 10
5.165201822916666
 20
-4.242112901475695
 30
0.0
 10
5.410590277777778
 20
-4.346137152777778
 30
0.0
 10
5.763481987847222
 20
-4.250257703993055
 30
0.0
 10
5.763481987847222
 20
-4.250257703993055
 30
0.0
 10
5.763481987847222
 20
-4.250257703993055
 30
0.0
 10
5.656846788194444
 20
-4.354288736979166
 30
0.0
 10
5.484876844618055
 20
-4.386325412326388
 30
0.0
 10
5.312649197048611
 20
-4.418199327256945
 30
0.0
 10
5.041897243923611
 20
-4.34228515625
 30
0.0
 10
5.041897243923611
 20
-4.34228515625
 30
0.0
 10
5.041897243923611
 20
-4.34228515625
 30
0.0
 10
5.016642252604166
 20
-4.368794759114583
 30
0.0
 10
4.974093967013888
 20
-4.5704345703125
 30
0.0
 10
4.93115234375
 20
-4.774495442708333
 30
0.0
 10
4.9761962890625
 20
-5.090616861979166
 30
0.0
 10
4.9761962890625
 20
-5.090616861979166
 30
0.0
 10
4.9761962890625
 20
-5.090616861979166
 30
0.0
 10
4.728325737847222
 20
-4.876600477430555
 30
0.0
 10
4.728325737847222
 20
-4.876600477430555
 30
0.0
 10
4.728325737847222
 20
-4.876600477430555
 30
0.0
 10
4.260837131076388
 20
-4.876600477430555
 30
0.0
 10
4.260837131076388
 20
-4.876600477430555
 30
0.0
 10
4.260837131076388
 20
-4.876600477430555
 30
0.0
 10
4.689507378472222
 20
-4.466281467013888
 30
0.0
 10
4.689507378472222
 20
-4.466281467013888
 30
0.0
 10
4.689507378472222
 20
-4.466281467013888
 30
0.0
 10
4.303765190972222
 20
-4.120157877604166
 30
0.0
 10
4.303765190972222
 20
-4.120157877604166
 30
0.0
 10
4.303765190972222
 20
-4.120157877604166
 30
0.0
 10
4.728325737847222
 20
-3.958150227864583
 30
0.0
 10
4.728325737847222
 20
-3.958150227864583
 30
0.0
  0
SPLINE
  5
46
330
3C
100
AcDbEntity
  8
Layer 1
370
     0
100
AcDbSpline
210
0.0
220
0.0
230
1.0
 70
    11
 71
     3
 72
    17
 73
    13
 74
     0
 42
0.0000000001
 43
0.0000000001
 40
0.0
 40
0.0
 40
0.0
 40
0.0
 40
1.0
 40
1.0
 40
1.0
 40
2.0
 40
2.0
 40
2.0
 40
3.0
 40
3.0
 40
3.0
 40
4.0
 40
4.0
 40
4.0
 40
4.0
 10
5.566867404513888
 20
-4.798272026909722
 30
0.0
 10
5.566867404513888
 20
-4.869249131944444
 30
0.0
 10
5.507771809895833
 20
-4.926493326822916
 30
0.0
 10
5.435723198784722
 20
-4.926493326822916
 30
0.0
 10
5.363308376736111
 20
-4.926493326822916
 30
0.0
 10
5.304456922743055
 20
-4.869249131944444
 30
0.0
 10
5.304456922743055
 20
-4.798272026909722
 30
0.0
 10
5.304456922743055
 20
-4.727783203125
 30
0.0
 10
5.363308376736111
 20
-4.6702880859375
 30
0.0
 10
5.435723198784722
 20
-4.6702880859375
 30
0.0
 10
5.507771809895833
 20
-4.6702880859375
 30
0.0
 10
5.566867404513888
 20
-4.727783203125
 30
0.0
 10
5.566867404513888
 20
-4.798272026909722
 30
0.0
  0
POLYLINE
  5
47
330
3C
100
AcDbEntity
  8
Layer 1
370
     0
100
AcDb2dPolyline
 66
     1
 10
0.0
 20
0.0
 30
0.0
  0
VERTEX
  5
48
330
47
100
AcDbEntity
  8
Layer 1
370
     0
100
AcDbVertex
100
AcDb2dVertex
 10
5.201551649305555
 20
-5.566765679253472
 30
0.0
  0
VERTEX
  5
49
330
47
100
AcDbEntity
  8
Layer 1
370
     0
100
AcDbVertex
100
AcDb2dVertex
 10
5.201551649305555
 20
-6.647216796875
 30
0.0
  0
VERTEX
  5
4A
330
47
100
AcDbEntity
  8
Layer 1
370
     0
100
AcDbVertex
100
AcDb2dVertex
 10
4.673190646701388
 20
-7.163411458333333
 30
0.0
  0
VERTEX
  5
4B
330
47
100
AcDbEntity
  8
Layer 1
370
     0
100
AcDbVertex
100
AcDb2dVertex
 10
3.553683810763889
 20
-7.163411458333333
 30
0.0
  0
VERTEX
  5
4C
330
47
100
AcDbEntity
  8
Layer 1
370
     0
100
AcDbVertex
100
AcDb2dVertex
 10
3.02520751953125
 20
-6.647216796875
 30
0.0
  0
VERTEX
  5
4D
330
47
100
AcDbEntity
  8
Layer 1
370
     0
100
AcDbVertex
100
AcDb2dVertex
 10
3.02520751953125
 20
-5.566765679253472
 30
0.0
  0
VERTEX
  5
4E
330
47
100
AcDbEntity
  8
Layer 1
370
     0
100
AcDbVertex
100
AcDb2dVertex
 10
3.553683810763889
 20
-5.050482855902778
 30
0.0
  0
VERTEX
  5
4F
330
47
100
AcDbEntity
  8
Layer 1
370
     0
100
AcDbVertex
100
AcDb2dVertex
 10
4.673190646701388
 20
-5.050482855902778
 30
0.0
  0
VERTEX
  5
50
330
47
100
AcDbEntity
  8
Layer 1
370
     0
100
AcDbVertex
100
AcDb2dVertex
 10
5.201551649305555
 20
-5.566765679253472
 30
0.0
  0
SEQEND
  5
51
330
47
100
AcDbEntity
  8
Layer 1
370
     0
  0
POLYLINE
  5
52
330
3C
100
AcDbEntity
  8
Layer 1
370
     0
100
AcDb2dPolyline
 66
     1
 10
0.0
 20
0.0
 30
0.0
  0
VERTEX
  5
53
330
52
100
AcDbEntity
  8
Layer 1
370
     0
100
AcDbVertex
100
AcDb2dVertex
 10
4.113620334201388
 20
-4.779229058159722
 30
0.0
  0
VERTEX
  5
54
330
52
100
AcDbEntity
  8
Layer 1
370
     0
100
AcDbVertex
100
AcDb2dVertex
 10
3.762858072916667
 20
-4.456393771701388
 30
0.0
  0
VERTEX
  5
55
330
52
100
AcDbEntity
  8
Layer 1
370
     0
100
AcDbVertex
100
AcDb2dVertex
 10
4.113620334201388
 20
-4.168443467881945
 30
0.0
  0
VERTEX
  5
56
330
52
100
AcDbEntity
  8
Layer 1
370
     0
100
AcDbVertex
100
AcDb2dVertex
 10
4.464016384548611
 20
-4.456393771701388
 30
0.0
  0
VERTEX
  5
57
330
52
100
AcDbEntity
  8
Layer 1
370
     0
100
AcDbVertex
100
AcDb2dVertex
 10
4.113620334201388
 20
-4.779229058159722
 30
0.0
  0
SEQEND
  5
58
330
52
100
AcDbEntity
  8
Layer 1
370
     0
  0
POLYLINE
  5
59
330
3C
100
AcDbEntity
  8
Layer 1
370
     0
100
AcDb2dPolyline
 66
     1
 10
0.0
 20
0.0
 30
0.0
  0
VERTEX
  5
5A
330
59
100
AcDbEntity
  8
Layer 1
370
     0
100
AcDbVertex
100
AcDb2dVertex
 10
3.840989854600694
 20
-3.585984971788194
 30
0.0
  0
VERTEX
  5
5B
330
59
100
AcDbEntity
  8
Layer 1
370
     0
100
AcDbVertex
100
AcDb2dVertex
 10
4.113620334201388
 20
-3.267496744791667
 30
0.0
  0
VERTEX
  5
5C
330
59
100
AcDbEntity
  8
Layer 1
370
     0
100
AcDbVertex
100
AcDb2dVertex
 10
4.386013454861111
 20
-3.585984971788194
 30
0.0
  0
VERTEX
  5
5D
330
59
100
AcDbEntity
  8
Layer 1
370
     0
100
AcDbVertex
100
AcDb2dVertex
 10
4.113620334201388
 20
-3.948140462239583
 30
0.0
  0
VERTEX
  5
5E
330
59
100
AcDbEntity
  8
Layer 1
370
     0
100
AcDbVertex
100
AcDb2dVertex
 10
3.840989854600694
 20
-3.585984971788194
 30
0.0
  0
SEQEND
  5
5F
330
59
100
AcDbEntity
  8
Layer 1
370
     0
  0
SPLINE
  5
60
330
3C
100
AcDbEntity
  8
Layer 1
370
     0
100
AcDbSpline
210
0.0
220
0.0
230
1.0
 70
    11
 71
     3
 72
    38
 73
    34
 74
     0
 42
0.0000000001
 43
0.0000000001
 40
0.0
 40
0.0
 40
0.0
 40
0.0
 40
1.0
 40
1.0
 40
1.0
 40
2.0
 40
2.0
 40
2.0
 40
3.0
 40
3.0
 40
3.0
 40
4.0
 40
4.0
 40
4.0
 40
5.0
 40
5.0
 40
5.0
 40
6.0
 40
6.0
 40
6.0
 40
7.0
 40
7.0
 40
7.0
 40
8.0
 40
8.0
 40
8.0
 40
9.0
 40
9.0
 40
9.0
 40
10.0
 40
10.0
 40
10.0
 40
11.0
 40
11.0
 40
11.0
 40
11.0
 10
3.062282986111111
 20
-4.242112901475695
 30
0.0
 10
3.30792236328125
 20
-4.138210720486111
 30
0.0
 10
3.498806423611111
 20
-3.958150227864583
 30
0.0
 10
3.498806423611111
 20
-3.958150227864583
 30
0.0
 10
3.498806423611111
 20
-3.958150227864583
 30
0.0
 10
3.922878689236111
 20
-4.120157877604166
 30
0.0
 10
3.922878689236111
 20
-4.120157877604166
 30
0.0
 10
3.922878689236111
 20
-4.120157877604166
 30
0.0
 10
3.537509494357639
 20
-4.466281467013888
 30
0.0
 10
3.537509494357639
 20
-4.466281467013888
 30
0.0
 10
3.537509494357639
 20
-4.466281467013888
 30
0.0
 10
3.965793185763889
 20
-4.876600477430555
 30
0.0
 10
3.965793185763889
 20
-4.876600477430555
 30
0.0
 10
3.965793185763889
 20
-4.876600477430555
 30
0.0
 10
3.498806423611111
 20
-4.876600477430555
 30
0.0
 10
3.498806423611111
 20
-4.876600477430555
 30
0.0
 10
3.498806423611111
 20
-4.876600477430555
 30
0.0
 10
3.250569661458333
 20
-5.090616861979166
 30
0.0
 10
3.250569661458333
 20
-5.090616861979166
 30
0.0
 10
3.250569661458333
 20
-5.090616861979166
 30
0.0
 10
3.295850965711805
 20
-4.774495442708333
 30
0.0
 10
3.252916124131944
 20
-4.5704345703125
 30
0.0
 10
3.210238986545139
 20
-4.368794759114583
 30
0.0
 10
3.185099283854167
 20
-4.34228515625
 30
0.0
 10
3.185099283854167
 20
-4.34228515625
 30
0.0
 10
3.185099283854167
 20
-4.34228515625
 30
0.0
 10
2.914713541666667
 20
-4.418199327256945
 30
0.0
 10
2.742255316840278
 20
-4.386325412326388
 30
0.0
 10
2.570414225260417
 20
-4.354288736979166
 30
0.0
 10
2.463392469618055
 20
-4.250257703993055
 30
0.0
 10
2.463392469618055
 20
-4.250257703993055
 30
0.0
 10
2.463392469618055
 20
-4.250257703993055
 30
0.0
 10
2.815924750434028
 20
-4.346137152777778
 30
0.0
 10
3.062282986111111
 20
-4.242112901475695
 30
0.0
  0
SPLINE
  5
61
330
3C
100
AcDbEntity
  8
Layer 1
370
     0
100
AcDbSpline
210
0.0
220
0.0
230
1.0
 70
    11
 71
     3
 72
    17
 73
    13
 74
     0
 42
0.0000000001
 43
0.0000000001
 40
0.0
 40
0.0
 40
0.0
 40
0.0
 40
1.0
 40
1.0
 40
1.0
 40
2.0
 40
2.0
 40
2.0
 40
3.0
 40
3.0
 40
3.0
 40
4.0
 40
4.0
 40
4.0
 40
4.0
 10
2.926656087239583
 20
-4.798272026909722
 30
0.0
 10
2.926656087239583
 20
-4.869249131944444
 30
0.0
 10
2.868055555555555
 20
-4.926493326822916
 30
0.0
 10
2.795505099826389
 20
-4.926493326822916
 30
0.0
 10
2.72308349609375
 20
-4.926493326822916
 30
0.0
 10
2.66461181640625
 20
-4.869249131944444
 30
0.0
 10
2.66461181640625
 20
-4.798272026909722
 30
0.0
 10
2.66461181640625
 20
-4.727783203125
 30
0.0
 10
2.72308349609375
 20
-4.6702880859375
 30
0.0
 10
2.795505099826389
 20
-4.6702880859375
 30
0.0
 10
2.868055555555555
 20
-4.6702880859375
 30
0.0
 10
2.926656087239583
 20
-4.727783203125
 30
0.0
 10
2.926656087239583
 20
-4.798272026909722
 30
0.0
  0
SPLINE
  5
62
330
3C
100
AcDbEntity
  8
Layer 1
370
     0
100
AcDbSpline
210
0.0
220
0.0
230
1.0
 70
    11
 71
     3
 72
    38
 73
    34
 74
     0
 42
0.0000000001
 43
0.0000000001
 40
0.0
 40
0.0
 40
0.0
 40
0.0
 40
1.0
 40
1.0
 40
1.0
 40
2.0
 40
2.0
 40
2.0
 40
3.0
 40
3.0
 40
3.0
 40
4.0
 40
4.0
 40
4.0
 40
5.0
 40
5.0
 40
5.0
 40
6.0
 40
6.0
 40
6.0
 40
7.0
 40
7.0
 40
7.0
 40
8.0
 40
8.0
 40
8.0
 40
9.0
 40
9.0
 40
9.0
 40
10.0
 40
10.0
 40
10.0
 40
11.0
 40
11.0
 40
11.0
 40
11.0
 10
2.197353786892361
 20
-5.086459689670138
 30
0.0
 10
2.303744845920139
 20
-4.846483018663194
 30
0.0
 10
2.205322265625
 20
-4.502366807725694
 30
0.0
 10
2.205322265625
 20
-4.502366807725694
 30
0.0
 10
2.205322265625
 20
-4.502366807725694
 30
0.0
 10
2.312093098958333
 20
-4.606214735243055
 30
0.0
 10
2.344821506076389
 20
-4.774495442708333
 30
0.0
 10
2.377794053819444
 20
-4.942484537760416
 30
0.0
 10
2.299641927083333
 20
-5.206658257378472
 30
0.0
 10
2.299641927083333
 20
-5.206658257378472
 30
0.0
 10
2.299641927083333
 20
-5.206658257378472
 30
0.0
 10
2.326768663194444
 20
-5.231106228298611
 30
0.0
 10
2.533318413628472
 20
-5.272610134548611
 30
0.0
 10
2.742255316840278
 20
-5.314731174045138
 30
0.0
 10
3.066277398003472
 20
-5.270751953125
 30
0.0
 10
3.066277398003472
 20
-5.270751953125
 30
0.0
 10
3.066277398003472
 20
-5.270751953125
 30
0.0
 10
2.847025553385417
 20
-5.512885199652778
 30
0.0
 10
2.847025553385417
 20
-5.512885199652778
 30
0.0
 10
2.847025553385417
 20
-5.512885199652778
 30
0.0
 10
2.847025553385417
 20
-5.969061957465278
 30
0.0
 10
2.847025553385417
 20
-5.969061957465278
 30
0.0
 10
2.847025553385417
 20
-5.969061957465278
 30
0.0
 10
2.427178276909722
 20
-5.550645616319444
 30
0.0
 10
2.427178276909722
 20
-5.550645616319444
 30
0.0
 10
2.427178276909722
 20
-5.550645616319444
 30
0.0
 10
2.072306315104167
 20
-5.926947699652778
 30
0.0
 10
2.072306315104167
 20
-5.926947699652778
 30
0.0
 10
2.072306315104167
 20
-5.926947699652778
 30
0.0
 10
1.90643310546875
 20
-5.512885199652778
 30
0.0
 10
1.90643310546875
 20
-5.512885199652778
 30
0.0
 10
1.90643310546875
 20
-5.512885199652778
 30
0.0
 10
2.090596516927083
 20
-5.326673719618055
 30
0.0
 10
2.197353786892361
 20
-5.086459689670138
 30
0.0
  0
POLYLINE
  5
63
330
3C
100
AcDbEntity
  8
Layer 1
370
     0
100
AcDb2dPolyline
 66
     1
 10
0.0
 20
0.0
 30
0.0
  0
VERTEX
  5
64
330
63
100
AcDbEntity
  8
Layer 1
370
     0
100
AcDbVertex
100
AcDb2dVertex
 10
2.741373697916667
 20
-6.10693359375
 30
0.0
  0
VERTEX
  5
65
330
63
100
AcDbEntity
  8
Layer 1
370
     0
100
AcDbVertex
100
AcDb2dVertex
 10
2.416483561197917
 20
-6.443277994791666
 30
0.0
  0
VERTEX
  5
66
330
63
100
AcDbEntity
  8
Layer 1
370
     0
100
AcDbVertex
100
AcDb2dVertex
 10
2.127183702256944
 20
-6.10693359375
 30
0.0
  0
VERTEX
  5
67
330
63
100
AcDbEntity
  8
Layer 1
370
     0
100
AcDbVertex
100
AcDb2dVertex
 10
2.416483561197917
 20
-5.770765516493055
 30
0.0
  0
VERTEX
  5
68
330
63
100
AcDbEntity
  8
Layer 1
370
     0
100
AcDbVertex
100
AcDb2dVertex
 10
2.741373697916667
 20
-6.10693359375
 30
0.0
  0
SEQEND
  5
69
330
63
100
AcDbEntity
  8
Layer 1
370
     0
  0
POLYLINE
  5
6A
330
3C
100
AcDbEntity
  8
Layer 1
370
     0
100
AcDb2dPolyline
 66
     1
 10
0.0
 20
0.0
 30
0.0
  0
VERTEX
  5
6B
330
6A
100
AcDbEntity
  8
Layer 1
370
     0
100
AcDbVertex
100
AcDb2dVertex
 10
1.525295681423611
 20
-6.367173936631944
 30
0.0
  0
VERTEX
  5
6C
330
6A
100
AcDbEntity
  8
Layer 1
370
     0
100
AcDbVertex
100
AcDb2dVertex
 10
1.206495496961806
 20
-6.10693359375
 30
0.0
  0
VERTEX
  5
6D
330
6A
100
AcDbEntity
  8
Layer 1
370
     0
100
AcDbVertex
100
AcDb2dVertex
 10
1.525295681423611
 20
-5.846930609809028
 30
0.0
  0
VERTEX
  5
6E
330
6A
100
AcDbEntity
  8
Layer 1
370
     0
100
AcDbVertex
100
AcDb2dVertex
 10
1.887518988715278
 20
-6.10693359375
 30
0.0
  0
VERTEX
  5
6F
330
6A
100
AcDbEntity
  8
Layer 1
370
     0
100
AcDbVertex
100
AcDb2dVertex
 10
1.525295681423611
 20
-6.367173936631944
 30
0.0
  0
SEQEND
  5
70
330
6A
100
AcDbEntity
  8
Layer 1
370
     0
  0
SPLINE
  5
71
330
3C
100
AcDbEntity
  8
Layer 1
370
     0
100
AcDbSpline
210
0.0
220
0.0
230
1.0
 70
    11
 71
     3
 72
    38
 73
    34
 74
     0
 42
0.0000000001
 43
0.0000000001
 40
0.0
 40
0.0
 40
0.0
 40
0.0
 40
1.0
 40
1.0
 40
1.0
 40
2.0
 40
2.0
 40
2.0
 40
3.0
 40
3.0
 40
3.0
 40
4.0
 40
4.0
 40
4.0
 40
5.0
 40
5.0
 40
5.0
 40
6.0
 40
6.0
 40
6.0
 40
7.0
 40
7.0
 40
7.0
 40
8.0
 40
8.0
 40
8.0
 40
9.0
 40
9.0
 40
9.0
 40
10.0
 40
10.0
 40
10.0
 40
11.0
 40
11.0
 40
11.0
 40
11.0
 10
2.344821506076389
 20
-7.439670138888888
 30
0.0
 10
2.312093098958333
 20
-7.6077880859375
 30
0.0
 10
2.205322265625
 20
-7.711805555555555
 30
0.0
 10
2.205322265625
 20
-7.711805555555555
 30
0.0
 10
2.205322265625
 20
-7.711805555555555
 30
0.0
 10
2.303744845920139
 20
-7.367621527777778
 30
0.0
 10
2.197353786892361
 20
-7.127590603298611
 30
0.0
 10
2.090596516927083
 20
-6.887424045138888
 30
0.0
 10
1.90643310546875
 20
-6.701226128472221
 30
0.0
 10
1.90643310546875
 20
-6.701226128472221
 30
0.0
 10
1.90643310546875
 20
-6.701226128472221
 30
0.0
 10
2.072306315104167
 20
-6.287055121527778
 30
0.0
 10
2.072306315104167
 20
-6.287055121527778
 30
0.0
 10
2.072306315104167
 20
-6.287055121527778
 30
0.0
 10
2.427178276909722
 20
-6.663397894965278
 30
0.0
 10
2.427178276909722
 20
-6.663397894965278
 30
0.0
 10
2.427178276909722
 20
-6.663397894965278
 30
0.0
 10
2.847025553385417
 20
-6.245062934027778
 30
0.0
 10
2.847025553385417
 20
-6.245062934027778
 30
0.0
 10
2.847025553385417
 20
-6.245062934027778
 30
0.0
 10
2.847025553385417
 20
-6.701226128472221
 30
0.0
 10
2.847025553385417
 20
-6.701226128472221
 30
0.0
 10
2.847025553385417
 20
-6.701226128472221
 30
0.0
 10
3.066277398003472
 20
-6.943372938368055
 30
0.0
 10
3.066277398003472
 20
-6.943372938368055
 30
0.0
 10
3.066277398003472
 20
-6.943372938368055
 30
0.0
 10
2.742255316840278
 20
-6.899183485243055
 30
0.0
 10
2.533318413628472
 20
-6.941433376736111
 30
0.0
 10
2.326768663194444
 20
-6.982937282986111
 30
0.0
 10
2.299641927083333
 20
-7.007337782118055
 30
0.0
 10
2.299641927083333
 20
-7.007337782118055
 30
0.0
 10
2.299641927083333
 20
-7.007337782118055
 30
0.0
 10
2.377794053819444
 20
-7.271565755208333
 30
0.0
 10
2.344821506076389
 20
-7.439670138888888
 30
0.0
  0
SPLINE
  5
72
330
3C
100
AcDbEntity
  8
Layer 1
370
     0
100
AcDbSpline
210
0.0
220
0.0
230
1.0
 70
    11
 71
     3
 72
    17
 73
    13
 74
     0
 42
0.0000000001
 43
0.0000000001
 40
0.0
 40
0.0
 40
0.0
 40
0.0
 40
1.0
 40
1.0
 40
1.0
 40
2.0
 40
2.0
 40
2.0
 40
3.0
 40
3.0
 40
3.0
 40
4.0
 40
4.0
 40
4.0
 40
4.0
 10
2.926656087239583
 20
-7.391574435763888
 30
0.0
 10
2.926656087239583
 20
-7.462320963541666
 30
0.0
 10
2.868055555555555
 20
-7.519680447048611
 30
0.0
 10
2.795505099826389
 20
-7.519680447048611
 30
0.0
 10
2.72308349609375
 20
-7.519680447048611
 30
0.0
 10
2.66461181640625
 20
-7.462320963541666
 30
0.0
 10
2.66461181640625
 20
-7.391574435763888
 30
0.0
 10
2.66461181640625
 20
-7.320841471354166
 30
0.0
 10
2.72308349609375
 20
-7.263468424479166
 30
0.0
 10
2.795505099826389
 20
-7.263468424479166
 30
0.0
 10
2.868055555555555
 20
-7.263468424479166
 30
0.0
 10
2.926656087239583
 20
-7.320841471354166
 30
0.0
 10
2.926656087239583
 20
-7.391574435763888
 30
0.0
  0
SPLINE
  5
73
330
3C
100
AcDbEntity
  8
Layer 1
370
     0
100
AcDbSpline
210
0.0
220
0.0
230
1.0
 70
    11
 71
     3
 72
    38
 73
    34
 74
     0
 42
0.0000000001
 43
0.0000000001
 40
0.0
 40
0.0
 40
0.0
 40
0.0
 40
1.0
 40
1.0
 40
1.0
 40
2.0
 40
2.0
 40
2.0
 40
3.0
 40
3.0
 40
3.0
 40
4.0
 40
4.0
 40
4.0
 40
5.0
 40
5.0
 40
5.0
 40
6.0
 40
6.0
 40
6.0
 40
7.0
 40
7.0
 40
7.0
 40
8.0
 40
8.0
 40
8.0
 40
9.0
 40
9.0
 40
9.0
 40
10.0
 40
10.0
 40
10.0
 40
11.0
 40
11.0
 40
11.0
 40
11.0
 10
3.498806423611111
 20
-8.25600857204861
 30
0.0
 10
3.498806423611111
 20
-8.25600857204861
 30
0.0
 10
3.30792236328125
 20
-8.07583279079861
 30
0.0
 10
3.062282986111111
 20
-7.971815321180555
 30
0.0
 10
2.815924750434028
 20
-7.867838541666666
 30
0.0
 10
2.463392469618055
 20
-7.963840060763888
 30
0.0
 10
2.463392469618055
 20
-7.963840060763888
 30
0.0
 10
2.463392469618055
 20
-7.963840060763888
 30
0.0
 10
2.570414225260417
 20
-7.859890407986111
 30
0.0
 10
2.742255316840278
 20
-7.827650282118055
 30
0.0
 10
2.914713541666667
 20
-7.795844184027778
 30
0.0
 10
3.185099283854167
 20
-7.871961805555555
 30
0.0
 10
3.185099283854167
 20
-7.871961805555555
 30
0.0
 10
3.185099283854167
 20
-7.871961805555555
 30
0.0
 10
3.210238986545139
 20
-7.845377604166666
 30
0.0
 10
3.252916124131944
 20
-7.643663194444444
 30
0.0
 10
3.295850965711805
 20
-7.439480251736111
 30
0.0
 10
3.250569661458333
 20
-7.123480902777778
 30
0.0
 10
3.250569661458333
 20
-7.123480902777778
 30
0.0
 10
3.250569661458333
 20
-7.123480902777778
 30
0.0
 10
3.498806423611111
 20
-7.337565104166666
 30
0.0
 10
3.498806423611111
 20
-7.337565104166666
 30
0.0
 10
3.498806423611111
 20
-7.337565104166666
 30
0.0
 10
3.965793185763889
 20
-7.337565104166666
 30
0.0
 10
3.965793185763889
 20
-7.337565104166666
 30
0.0
 10
3.965793185763889
 20
-7.337565104166666
 30
0.0
 10
3.537509494357639
 20
-7.747762044270833
 30
0.0
 10
3.537509494357639
 20
-7.747762044270833
 30
0.0
 10
3.537509494357639
 20
-7.747762044270833
 30
0.0
 10
3.922878689236111
 20
-8.093817816840277
 30
0.0
 10
3.922878689236111
 20
-8.093817816840277
 30
0.0
 10
3.922878689236111
 20
-8.093817816840277
 30
0.0
 10
3.498806423611111
 20
-8.25600857204861
 30
0.0
 10
3.498806423611111
 20
-8.25600857204861
 30
0.0
  0
POLYLINE
  5
74
330
3C
100
AcDbEntity
  8
Layer 1
370
     0
100
AcDb2dPolyline
 66
     1
 10
0.0
 20
0.0
 30
0.0
  0
VERTEX
  5
75
330
74
100
AcDbEntity
  8
Layer 1
370
     0
100
AcDbVertex
100
AcDb2dVertex
 10
4.113620334201388
 20
-7.434814453125
 30
0.0
  0
VERTEX
  5
76
330
74
100
AcDbEntity
  8
Layer 1
370
     0
100
AcDbVertex
100
AcDb2dVertex
 10
4.464016384548611
 20
-7.757717556423611
 30
0.0
  0
VERTEX
  5
77
330
74
100
AcDbEntity
  8
Layer 1
370
     0
100
AcDbVertex
100
AcDb2dVertex
 10
4.113620334201388
 20
-8.045274522569445
 30
0.0
  0
VERTEX
  5
78
330
74
100
AcDbEntity
  8
Layer 1
370
     0
100
AcDbVertex
100
AcDb2dVertex
 10
3.762858072916667
 20
-7.757717556423611
 30
0.0
  0
VERTEX
  5
79
330
74
100
AcDbEntity
  8
Layer 1
370
     0
100
AcDbVertex
100
AcDb2dVertex
 10
4.113620334201388
 20
-7.434814453125
 30
0.0
  0
SEQEND
  5
7A
330
74
100
AcDbEntity
  8
Layer 1
370
     0
  0
POLYLINE
  5
7B
330
3C
100
AcDbEntity
  8
Layer 1
370
     0
100
AcDb2dPolyline
 66
     1
 10
0.0
 20
0.0
 30
0.0
  0
VERTEX
  5
7C
330
7B
100
AcDbEntity
  8
Layer 1
370
     0
100
AcDbVertex
100
AcDb2dVertex
 10
4.386013454861111
 20
-8.628133138020832
 30
0.0
  0
VERTEX
  5
7D
330
7B
100
AcDbEntity
  8
Layer 1
370
     0
100
AcDbVertex
100
AcDb2dVertex
 10
4.113620334201388
 20
-8.946424696180555
 30
0.0
  0
VERTEX
  5
7E
330
7B
100
AcDbEntity
  8
Layer 1
370
     0
100
AcDbVertex
100
AcDb2dVertex
 10
3.840989854600694
 20
-8.628133138020832
 30
0.0
  0
VERTEX
  5
7F
330
7B
100
AcDbEntity
  8
Layer 1
370
     0
100
AcDbVertex
100
AcDb2dVertex
 10
4.113620334201388
 20
-8.26584201388889
 30
0.0
  0
VERTEX
  5
80
330
7B
100
AcDbEntity
  8
Layer 1
370
     0
100
AcDbVertex
100
AcDb2dVertex
 10
4.386013454861111
 20
-8.628133138020832
 30
0.0
  0
SEQEND
  5
81
330
7B
100
AcDbEntity
  8
Layer 1
370
     0
  0
SPLINE
  5
82
330
3C
100
AcDbEntity
  8
Layer 1
370
     0
100
AcDbSpline
210
0.0
220
0.0
230
1.0
 70
    11
 71
     3
 72
    38
 73
    34
 74
     0
 42
0.0000000001
 43
0.0000000001
 40
0.0
 40
0.0
 40
0.0
 40
0.0
 40
1.0
 40
1.0
 40
1.0
 40
2.0
 40
2.0
 40
2.0
 40
3.0
 40
3.0
 40
3.0
 40
4.0
 40
4.0
 40
4.0
 40
5.0
 40
5.0
 40
5.0
 40
6.0
 40
6.0
 40
6.0
 40
7.0
 40
7.0
 40
7.0
 40
8.0
 40
8.0
 40
8.0
 40
9.0
 40
9.0
 40
9.0
 40
10.0
 40
10.0
 40
10.0
 40
11.0
 40
11.0
 40
11.0
 40
11.0
 10
5.165201822916666
 20
-7.971815321180555
 30
0.0
 10
4.918958875868055
 20
-8.07583279079861
 30
0.0
 10
4.728325737847222
 20
-8.25600857204861
 30
0.0
 10
4.728325737847222
 20
-8.25600857204861
 30
0.0
 10
4.728325737847222
 20
-8.25600857204861
 30
0.0
 10
4.303765190972222
 20
-8.093817816840277
 30
0.0
 10
4.303765190972222
 20
-8.093817816840277
 30
0.0
 10
4.303765190972222
 20
-8.093817816840277
 30
0.0
 10
4.689507378472222
 20
-7.747762044270833
 30
0.0
 10
4.689507378472222
 20
-7.747762044270833
 30
0.0
 10
4.689507378472222
 20
-7.747762044270833
 30
0.0
 10
4.260837131076388
 20
-7.337565104166666
 30
0.0
 10
4.260837131076388
 20
-7.337565104166666
 30
0.0
 10
4.260837131076388
 20
-7.337565104166666
 30
0.0
 10
4.728325737847222
 20
-7.337565104166666
 30
0.0
 10
4.728325737847222
 20
-7.337565104166666
 30
0.0
 10
4.728325737847222
 20
-7.337565104166666
 30
0.0
 10
4.9761962890625
 20
-7.123480902777778
 30
0.0
 10
4.9761962890625
 20
-7.123480902777778
 30
0.0
 10
4.9761962890625
 20
-7.123480902777778
 30
0.0
 10
4.93115234375
 20
-7.439480251736111
 30
0.0
 10
4.974093967013888
 20
-7.643663194444444
 30
0.0
 10
5.016642252604166
 20
-7.845377604166666
 30
0.0
 10
5.041897243923611
 20
-7.871961805555555
 30
0.0
 10
5.041897243923611
 20
-7.871961805555555
 30
0.0
 10
5.041897243923611
 20
-7.871961805555555
 30
0.0
 10
5.312649197048611
 20
-7.795844184027778
 30
0.0
 10
5.484876844618055
 20
-7.827650282118055
 30
0.0
 10
5.656846788194444
 20
-7.859890407986111
 30
0.0
 10
5.763481987847222
 20
-7.963840060763888
 30
0.0
 10
5.763481987847222
 20
-7.963840060763888
 30
0.0
 10
5.763481987847222
 20
-7.963840060763888
 30
0.0
 10
5.410590277777778
 20
-7.867838541666666
 30
0.0
 10
5.165201822916666
 20
-7.971815321180555
 30
0.0
  0
SPLINE
  5
83
330
3C
100
AcDbEntity
  8
Layer 1
370
     0
100
AcDbSpline
210
0.0
220
0.0
230
1.0
 70
    11
 71
     3
 72
    17
 73
    13
 74
     0
 42
0.0000000001
 43
0.0000000001
 40
0.0
 40
0.0
 40
0.0
 40
0.0
 40
1.0
 40
1.0
 40
1.0
 40
2.0
 40
2.0
 40
2.0
 40
3.0
 40
3.0
 40
3.0
 40
4.0
 40
4.0
 40
4.0
 40
4.0
 10
5.304456922743055
 20
-7.391574435763888
 30
0.0
 10
5.304456922743055
 20
-7.320841471354166
 30
0.0
 10
5.363308376736111
 20
-7.263468424479166
 30
0.0
 10
5.435723198784722
 20
-7.263468424479166
 30
0.0
 10
5.507771809895833
 20
-7.263468424479166
 30
0.0
 10
5.566867404513888
 20
-7.320841471354166
 30
0.0
 10
5.566867404513888
 20
-7.391574435763888
 30
0.0
 10
5.566867404513888
 20
-7.462320963541666
 30
0.0
 10
5.507771809895833
 20
-7.519680447048611
 30
0.0
 10
5.435723198784722
 20
-7.519680447048611
 30
0.0
 10
5.363308376736111
 20
-7.519680447048611
 30
0.0
 10
5.304456922743055
 20
-7.462320963541666
 30
0.0
 10
5.304456922743055
 20
-7.391574435763888
 30
0.0
  0
SPLINE
  5
84
330
3C
100
AcDbEntity
  8
Layer 1
370
     0
100
AcDbSpline
210
0.0
220
0.0
230
1.0
 70
    11
 71
     3
 72
    38
 73
    34
 74
     0
 42
0.0000000001
 43
0.0000000001
 40
0.0
 40
0.0
 40
0.0
 40
0.0
 40
1.0
 40
1.0
 40
1.0
 40
2.0
 40
2.0
 40
2.0
 40
3.0
 40
3.0
 40
3.0
 40
4.0
 40
4.0
 40
4.0
 40
5.0
 40
5.0
 40
5.0
 40
6.0
 40
6.0
 40
6.0
 40
7.0
 40
7.0
 40
7.0
 40
8.0
 40
8.0
 40
8.0
 40
9.0
 40
9.0
 40
9.0
 40
10.0
 40
10.0
 40
10.0
 40
11.0
 40
11.0
 40
11.0
 40
11.0
 10
6.029771592881944
 20
-7.127590603298611
 30
0.0
 10
5.923136393229166
 20
-7.367621527777778
 30
0.0
 10
6.021687825520833
 20
-7.711805555555555
 30
0.0
 10
6.021687825520833
 20
-7.711805555555555
 30
0.0
 10
6.021687825520833
 20
-7.711805555555555
 30
0.0
 10
5.9146728515625
 20
-7.6077880859375
 30
0.0
 10
5.882052951388888
 20
-7.439670138888888
 30
0.0
 10
5.849202473958333
 20
-7.271565755208333
 30
0.0
 10
5.927232530381944
 20
-7.007337782118055
 30
0.0
 10
5.927232530381944
 20
-7.007337782118055
 30
0.0
 10
5.927232530381944
 20
-7.007337782118055
 30
0.0
 10
5.900241427951388
 20
-6.982937282986111
 30
0.0
 10
5.693793402777778
 20
-6.941433376736111
 30
0.0
 10
5.484876844618055
 20
-6.899183485243055
 30
0.0
 10
5.160725911458333
 20
-6.943372938368055
 30
0.0
 10
5.160725911458333
 20
-6.943372938368055
 30
0.0
 10
5.160725911458333
 20
-6.943372938368055
 30
0.0
 10
5.380113389756944
 20
-6.701226128472221
 30
0.0
 10
5.380113389756944
 20
-6.701226128472221
 30
0.0
 10
5.380113389756944
 20
-6.701226128472221
 30
0.0
 10
5.380113389756944
 20
-6.245062934027778
 30
0.0
 10
5.380113389756944
 20
-6.245062934027778
 30
0.0
 10
5.380113389756944
 20
-6.245062934027778
 30
0.0
 10
5.800184461805555
 20
-6.663397894965278
 30
0.0
 10
5.800184461805555
 20
-6.663397894965278
 30
0.0
 10
5.800184461805555
 20
-6.663397894965278
 30
0.0
 10
6.154812282986111
 20
-6.287055121527778
 30
0.0
 10
6.154812282986111
 20
-6.287055121527778
 30
0.0
 10
6.154812282986111
 20
-6.287055121527778
 30
0.0
 10
6.320949978298611
 20
-6.701226128472221
 30
0.0
 10
6.320949978298611
 20
-6.701226128472221
 30
0.0
 10
6.320949978298611
 20
-6.701226128472221
 30
0.0
 10
6.136284722222222
 20
-6.887424045138888
 30
0.0
 10
6.029771592881944
 20
-7.127590603298611
 30
0.0
  0
POLYLINE
  5
85
330
3C
100
AcDbEntity
  8
Layer 1
370
     0
100
AcDb2dPolyline
 66
     1
 10
0.0
 20
0.0
 30
0.0
  0
VERTEX
  5
86
330
85
100
AcDbEntity
  8
Layer 1
370
     0
100
AcDbVertex
100
AcDb2dVertex
 10
5.485378689236111
 20
-6.10693359375
 30
0.0
  0
VERTEX
  5
87
330
85
100
AcDbEntity
  8
Layer 1
370
     0
100
AcDbVertex
100
AcDb2dVertex
 10
5.810275607638888
 20
-5.770765516493055
 30
0.0
  0
VERTEX
  5
88
330
85
100
AcDbEntity
  8
Layer 1
370
     0
100
AcDbVertex
100
AcDb2dVertex
 10
6.099826388888888
 20
-6.10693359375
 30
0.0
  0
VERTEX
  5
89
330
85
100
AcDbEntity
  8
Layer 1
370
     0
100
AcDbVertex
100
AcDb2dVertex
 10
5.810275607638888
 20
-6.443277994791666
 30
0.0
  0
VERTEX
  5
8A
330
85
100
AcDbEntity
  8
Layer 1
370
     0
100
AcDbVertex
100
AcDb2dVertex
 10
5.485378689236111
 20
-6.10693359375
 30
0.0
  0
SEQEND
  5
8B
330
85
100
AcDbEntity
  8
Layer 1
370
     0
  0
SPLINE
  5
8C
330
3C
100
AcDbEntity
  8
Layer 1
370
     0
100
AcDbSpline
210
0.0
220
0.0
230
1.0
 70
    11
 71
     3
 72
    38
 73
    34
 74
     0
 42
0.0000000001
 43
0.0000000001
 40
0.0
 40
0.0
 40
0.0
 40
0.0
 40
1.0
 40
1.0
 40
1.0
 40
2.0
 40
2.0
 40
2.0
 40
3.0
 40
3.0
 40
3.0
 40
4.0
 40
4.0
 40
4.0
 40
5.0
 40
5.0
 40
5.0
 40
6.0
 40
6.0
 40
6.0
 40
7.0
 40
7.0
 40
7.0
 40
8.0
 40
8.0
 40
8.0
 40
9.0
 40
9.0
 40
9.0
 40
10.0
 40
10.0
 40
10.0
 40
11.0
 40
11.0
 40
11.0
 40
11.0
 10
6.154812282986111
 20
-5.926947699652778
 30
0.0
 10
6.154812282986111
 20
-5.926947699652778
 30
0.0
 10
5.800184461805555
 20
-5.550645616319444
 30
0.0
 10
5.800184461805555
 20
-5.550645616319444
 30
0.0
 10
5.800184461805555
 20
-5.550645616319444
 30
0.0
 10
5.380113389756944
 20
-5.969061957465278
 30
0.0
 10
5.380113389756944
 20
-5.969061957465278
 30
0.0
 10
5.380113389756944
 20
-5.969061957465278
 30
0.0
 10
5.380113389756944
 20
-5.512885199652778
 30
0.0
 10
5.380113389756944
 20
-5.512885199652778
 30
0.0
 10
5.380113389756944
 20
-5.512885199652778
 30
0.0
 10
5.160725911458333
 20
-5.270751953125
 30
0.0
 10
5.160725911458333
 20
-5.270751953125
 30
0.0
 10
5.160725911458333
 20
-5.270751953125
 30
0.0
 10
5.484876844618055
 20
-5.314731174045138
 30
0.0
 10
5.693793402777778
 20
-5.272610134548611
 30
0.0
 10
5.900241427951388
 20
-5.231106228298611
 30
0.0
 10
5.927232530381944
 20
-5.206658257378472
 30
0.0
 10
5.927232530381944
 20
-5.206658257378472
 30
0.0
 10
5.927232530381944
 20
-5.206658257378472
 30
0.0
 10
5.849202473958333
 20
-4.942484537760416
 30
0.0
 10
5.882052951388888
 20
-4.774495442708333
 30
0.0
 10
5.9146728515625
 20
-4.606214735243055
 30
0.0
 10
6.021687825520833
 20
-4.502366807725694
 30
0.0
 10
6.021687825520833
 20
-4.502366807725694
 30
0.0
 10
6.021687825520833
 20
-4.502366807725694
 30
0.0
 10
5.923136393229166
 20
-4.846483018663194
 30
0.0
 10
6.029771592881944
 20
-5.086459689670138
 30
0.0
 10
6.136284722222222
 20
-5.326673719618055
 30
0.0
 10
6.320949978298611
 20
-5.512885199652778
 30
0.0
 10
6.320949978298611
 20
-5.512885199652778
 30
0.0
 10
6.320949978298611
 20
-5.512885199652778
 30
0.0
 10
6.154812282986111
 20
-5.926947699652778
 30
0.0
 10
6.154812282986111
 20
-5.926947699652778
 30
0.0
  0
POLYLINE
  5
8D
330
3C
100
AcDbEntity
  8
Layer 1
370
     0
100
AcDb2dPolyline
 66
     1
 10
0.0
 20
0.0
 30
0.0
  0
VERTEX
  5
8E
330
8D
100
AcDbEntity
  8
Layer 1
370
     0
100
AcDbVertex
100
AcDb2dVertex
 10
6.701714409722221
 20
-6.367173936631944
 30
0.0
  0
VERTEX
  5
8F
330
8D
100
AcDbEntity
  8
Layer 1
370
     0
100
AcDbVertex
100
AcDb2dVertex
 10
6.338975694444444
 20
-6.10693359375
 30
0.0
  0
VERTEX
  5
90
330
8D
100
AcDbEntity
  8
Layer 1
370
     0
100
AcDbVertex
100
AcDb2dVertex
 10
6.701714409722221
 20
-5.846930609809028
 30
0.0
  0
VERTEX
  5
91
330
8D
100
AcDbEntity
  8
Layer 1
370
     0
100
AcDbVertex
100
AcDb2dVertex
 10
7.0205078125
 20
-6.10693359375
 30
0.0
  0
VERTEX
  5
92
330
8D
100
AcDbEntity
  8
Layer 1
370
     0
100
AcDbVertex
100
AcDb2dVertex
 10
6.701714409722221
 20
-6.367173936631944
 30
0.0
  0
SEQEND
  5
93
330
8D
100
AcDbEntity
  8
Layer 1
370
     0
  0
SPLINE
  5
94
330
3C
100
AcDbEntity
  8
Layer 1
370
     0
100
AcDbSpline
210
0.0
220
0.0
230
1.0
 70
    11
 71
     3
 72
    29
 73
    25
 74
     0
 42
0.0000000001
 43
0.0000000001
 40
0.0
 40
0.0
 40
0.0
 40
0.0
 40
1.0
 40
1.0
 40
1.0
 40
2.0
 40
2.0
 40
2.0
 40
3.0
 40
3.0
 40
3.0
 40
4.0
 40
4.0
 40
4.0
 40
5.0
 40
5.0
 40
5.0
 40
6.0
 40
6.0
 40
6.0
 40
7.0
 40
7.0
 40
7.0
 40
8.0
 40
8.0
 40
8.0
 40
8.0
 10
3.556410047743055
 20
-5.561543782552083
 30
0.0
 10
3.556410047743055
 20
-5.561543782552083
 30
0.0
 10
3.370259602864583
 20
-5.561543782552083
 30
0.0
 10
3.246195475260417
 20
-5.696539984809028
 30
0.0
 10
3.113057454427083
 20
-5.840772840711805
 30
0.0
 10
3.116421169704861
 20
-6.065931532118055
 30
0.0
 10
3.116421169704861
 20
-6.065931532118055
 30
0.0
 10
3.116421169704861
 20
-6.065931532118055
 30
0.0
 10
3.263251410590278
 20
-5.983995225694444
 30
0.0
 10
3.528422037760417
 20
-5.983995225694444
 30
0.0
 10
3.815741644965278
 20
-5.983995225694444
 30
0.0
 10
4.013081868489583
 20
-6.077623155381944
 30
0.0
 10
4.013081868489583
 20
-6.077623155381944
 30
0.0
 10
4.013081868489583
 20
-6.077623155381944
 30
0.0
 10
3.968159993489583
 20
-5.860609266493055
 30
0.0
 10
3.979234483506944
 20
-5.596815321180555
 30
0.0
 10
3.990695529513889
 20
-5.332838270399305
 30
0.0
 10
4.086751302083333
 20
-5.133368598090278
 30
0.0
 10
4.086751302083333
 20
-5.133368598090278
 30
0.0
 10
4.086751302083333
 20
-5.133368598090278
 30
0.0
 10
3.917405870225694
 20
-5.127644856770833
 30
0.0
 10
3.753512912326389
 20
-5.256551106770833
 30
0.0
 10
3.590508355034722
 20
-5.385525173611111
 30
0.0
 10
3.556410047743055
 20
-5.561543782552083
 30
0.0
 10
3.556410047743055
 20
-5.561543782552083
 30
0.0
  0
SPLINE
  5
95
330
3C
100
AcDbEntity
  8
Layer 1
370
     0
100
AcDbSpline
210
0.0
220
0.0
230
1.0
 70
    11
 71
     3
 72
    17
 73
    13
 74
     0
 42
0.0000000001
 43
0.0000000001
 40
0.0
 40
0.0
 40
0.0
 40
0.0
 40
1.0
 40
1.0
 40
1.0
 40
2.0
 40
2.0
 40
2.0
 40
3.0
 40
3.0
 40
3.0
 40
4.0
 40
4.0
 40
4.0
 40
4.0
 10
3.804416232638889
 20
-5.740485297309028
 30
0.0
 10
3.804416232638889
 20
-5.790757921006944
 30
0.0
 10
3.765455457899305
 20
-5.831373426649305
 30
0.0
 10
3.717196994357639
 20
-5.831373426649305
 30
0.0
 10
3.668782552083333
 20
-5.831373426649305
 30
0.0
 10
3.629591200086805
 20
-5.790757921006944
 30
0.0
 10
3.629591200086805
 20
-5.740485297309028
 30
0.0
 10
3.629591200086805
 20
-5.690266927083333
 30
0.0
 10
3.668782552083333
 20
-5.649576822916666
 30
0.0
 10
3.717196994357639
 20
-5.649576822916666
 30
0.0
 10
3.765455457899305
 20
-5.649576822916666
 30
0.0
 10
3.804416232638889
 20
-5.690266927083333
 30
0.0
 10
3.804416232638889
 20
-5.740485297309028
 30
0.0
  0
SPLINE
  5
96
330
3C
100
AcDbEntity
  8
Layer 1
370
     0
100
AcDbSpline
210
0.0
220
0.0
230
1.0
 70
    11
 71
     3
 72
    29
 73
    25
 74
     0
 42
0.0000000001
 43
0.0000000001
 40
0.0
 40
0.0
 40
0.0
 40
0.0
 40
1.0
 40
1.0
 40
1.0
 40
2.0
 40
2.0
 40
2.0
 40
3.0
 40
3.0
 40
3.0
 40
4.0
 40
4.0
 40
4.0
 40
5.0
 40
5.0
 40
5.0
 40
6.0
 40
6.0
 40
6.0
 40
7.0
 40
7.0
 40
7.0
 40
8.0
 40
8.0
 40
8.0
 40
8.0
 10
4.473497178819444
 20
-5.256551106770833
 30
0.0
 10
4.309977213541666
 20
-5.127644856770833
 30
0.0
 10
4.140380859375
 20
-5.133368598090278
 30
0.0
 10
4.140380859375
 20
-5.133368598090278
 30
0.0
 10
4.140380859375
 20
-5.133368598090278
 30
0.0
 10
4.236314561631945
 20
-5.332838270399305
 30
0.0
 10
4.247639973958333
 20
-5.596815321180555
 30
0.0
 10
4.258843315972222
 20
-5.860609266493055
 30
0.0
 10
4.213663736979166
 20
-6.077623155381944
 30
0.0
 10
4.213663736979166
 20
-6.077623155381944
 30
0.0
 10
4.213663736979166
 20
-6.077623155381944
 30
0.0
 10
4.411390516493055
 20
-5.983995225694444
 30
0.0
 10
4.698459201388888
 20
-5.983995225694444
 30
0.0
 10
4.964002821180555
 20
-5.983995225694444
 30
0.0
 10
5.11083984375
 20
-6.065931532118055
 30
0.0
 10
5.11083984375
 20
-6.065931532118055
 30
0.0
 10
5.11083984375
 20
-6.065931532118055
 30
0.0
 10
5.113945855034722
 20
-5.840772840711805
 30
0.0
 10
4.980794270833333
 20
-5.696539984809028
 30
0.0
 10
4.856743706597222
 20
-5.561543782552083
 30
0.0
 10
4.670722113715278
 20
-5.561543782552083
 30
0.0
 10
4.670722113715278
 20
-5.561543782552083
 30
0.0
 10
4.670722113715278
 20
-5.561543782552083
 30
0.0
 10
4.637112087673611
 20
-5.385525173611111
 30
0.0
 10
4.473497178819444
 20
-5.256551106770833
 30
0.0
  0
SPLINE
  5
97
330
3C
100
AcDbEntity
  8
Layer 1
370
     0
100
AcDbSpline
210
0.0
220
0.0
230
1.0
 70
    11
 71
     3
 72
    17
 73
    13
 74
     0
 42
0.0000000001
 43
0.0000000001
 40
0.0
 40
0.0
 40
0.0
 40
0.0
 40
1.0
 40
1.0
 40
1.0
 40
2.0
 40
2.0
 40
2.0
 40
3.0
 40
3.0
 40
3.0
 40
4.0
 40
4.0
 40
4.0
 40
4.0
 10
4.509941948784722
 20
-5.831373426649305
 30
0.0
 10
4.461669921875
 20
-5.831373426649305
 30
0.0
 10
4.422458224826388
 20
-5.790757921006944
 30
0.0
 10
4.422458224826388
 20
-5.740485297309028
 30
0.0
 10
4.422458224826388
 20
-5.690266927083333
 30
0.0
 10
4.461669921875
 20
-5.649576822916666
 30
0.0
 10
4.509941948784722
 20
-5.649576822916666
 30
0.0
 10
4.557725694444444
 20
-5.649576822916666
 30
0.0
 10
4.5970458984375
 20
-5.690266927083333
 30
0.0
 10
4.5970458984375
 20
-5.740485297309028
 30
0.0
 10
4.5970458984375
 20
-5.790757921006944
 30
0.0
 10
4.557725694444444
 20
-5.831373426649305
 30
0.0
 10
4.509941948784722
 20
-5.831373426649305
 30
0.0
  0
SPLINE
  5
98
330
3C
100
AcDbEntity
  8
Layer 1
370
     0
100
AcDbSpline
210
0.0
220
0.0
230
1.0
 70
    11
 71
     3
 72
    29
 73
    25
 74
     0
 42
0.0000000001
 43
0.0000000001
 40
0.0
 40
0.0
 40
0.0
 40
0.0
 40
1.0
 40
1.0
 40
1.0
 40
2.0
 40
2.0
 40
2.0
 40
3.0
 40
3.0
 40
3.0
 40
4.0
 40
4.0
 40
4.0
 40
5.0
 40
5.0
 40
5.0
 40
6.0
 40
6.0
 40
6.0
 40
7.0
 40
7.0
 40
7.0
 40
8.0
 40
8.0
 40
8.0
 40
8.0
 10
4.013081868489583
 20
-6.136244032118055
 30
0.0
 10
4.013081868489583
 20
-6.136244032118055
 30
0.0
 10
3.815741644965278
 20
-6.230116102430555
 30
0.0
 10
3.528422037760417
 20
-6.230116102430555
 30
0.0
 10
3.263251410590278
 20
-6.230116102430555
 30
0.0
 10
3.116421169704861
 20
-6.148234049479166
 30
0.0
 10
3.116421169704861
 20
-6.148234049479166
 30
0.0
 10
3.116421169704861
 20
-6.148234049479166
 30
0.0
 10
3.113057454427083
 20
-6.373209635416666
 30
0.0
 10
3.246195475260417
 20
-6.517564561631944
 30
0.0
 10
3.370259602864583
 20
-6.652560763888888
 30
0.0
 10
3.556410047743055
 20
-6.652560763888888
 30
0.0
 10
3.556410047743055
 20
-6.652560763888888
 30
0.0
 10
3.556410047743055
 20
-6.652560763888888
 30
0.0
 10
3.590508355034722
 20
-6.828342013888888
 30
0.0
 10
3.753512912326389
 20
-6.957546657986111
 30
0.0
 10
3.917405870225694
 20
-7.086466471354166
 30
0.0
 10
4.086751302083333
 20
-7.080498589409721
 30
0.0
 10
4.086751302083333
 20
-7.080498589409721
 30
0.0
 10
4.086751302083333
 20
-7.080498589409721
 30
0.0
 10
3.990695529513889
 20
-6.881279839409721
 30
0.0
 10
3.979234483506944
 20
-6.617282443576388
 30
0.0
 10
3.968159993489583
 20
-6.353312174479166
 30
0.0
 10
4.013081868489583
 20
-6.136244032118055
 30
0.0
 10
4.013081868489583
 20
-6.136244032118055
 30
0.0
  0
SPLINE
  5
99
330
3C
100
AcDbEntity
  8
Layer 1
370
     0
100
AcDbSpline
210
0.0
220
0.0
230
1.0
 70
    11
 71
     3
 72
    17
 73
    13
 74
     0
 42
0.0000000001
 43
0.0000000001
 40
0.0
 40
0.0
 40
0.0
 40
0.0
 40
1.0
 40
1.0
 40
1.0
 40
2.0
 40
2.0
 40
2.0
 40
3.0
 40
3.0
 40
3.0
 40
4.0
 40
4.0
 40
4.0
 40
4.0
 10
3.717196994357639
 20
-6.564290364583333
 30
0.0
 10
3.668782552083333
 20
-6.564290364583333
 30
0.0
 10
3.629591200086805
 20
-6.523654513888888
 30
0.0
 10
3.629591200086805
 20
-6.473687065972221
 30
0.0
 10
3.629591200086805
 20
-6.423299153645833
 30
0.0
 10
3.668782552083333
 20
-6.382744683159721
 30
0.0
 10
3.717196994357639
 20
-6.382744683159721
 30
0.0
 10
3.765455457899305
 20
-6.382744683159721
 30
0.0
 10
3.804416232638889
 20
-6.423299153645833
 30
0.0
 10
3.804416232638889
 20
-6.473687065972221
 30
0.0
 10
3.804416232638889
 20
-6.523654513888888
 30
0.0
 10
3.765455457899305
 20
-6.564290364583333
 30
0.0
 10
3.717196994357639
 20
-6.564290364583333
 30
0.0
  0
SPLINE
  5
9A
330
3C
100
AcDbEntity
  8
Layer 1
370
     0
100
AcDbSpline
210
0.0
220
0.0
230
1.0
 70
    11
 71
     3
 72
    29
 73
    25
 74
     0
 42
0.0000000001
 43
0.0000000001
 40
0.0
 40
0.0
 40
0.0
 40
0.0
 40
1.0
 40
1.0
 40
1.0
 40
2.0
 40
2.0
 40
2.0
 40
3.0
 40
3.0
 40
3.0
 40
4.0
 40
4.0
 40
4.0
 40
5.0
 40
5.0
 40
5.0
 40
6.0
 40
6.0
 40
6.0
 40
7.0
 40
7.0
 40
7.0
 40
8.0
 40
8.0
 40
8.0
 40
8.0
 10
4.213663736979166
 20
-6.136244032118055
 30
0.0
 10
4.213663736979166
 20
-6.136244032118055
 30
0.0
 10
4.258843315972222
 20
-6.353312174479166
 30
0.0
 10
4.247639973958333
 20
-6.617282443576388
 30
0.0
 10
4.236314561631945
 20
-6.881279839409721
 30
0.0
 10
4.140380859375
 20
-7.080498589409721
 30
0.0
 10
4.140380859375
 20
-7.080498589409721
 30
0.0
 10
4.140380859375
 20
-7.080498589409721
 30
0.0
 10
4.309977213541666
 20
-7.086466471354166
 30
0.0
 10
4.473497178819444
 20
-6.957546657986111
 30
0.0
 10
4.637112087673611
 20
-6.828342013888888
 30
0.0
 10
4.670722113715278
 20
-6.652560763888888
 30
0.0
 10
4.670722113715278
 20
-6.652560763888888
 30
0.0
 10
4.670722113715278
 20
-6.652560763888888
 30
0.0
 10
4.856743706597222
 20
-6.652560763888888
 30
0.0
 10
4.980794270833333
 20
-6.517564561631944
 30
0.0
 10
5.113945855034722
 20
-6.373209635416666
 30
0.0
 10
5.11083984375
 20
-6.148234049479166
 30
0.0
 10
5.11083984375
 20
-6.148234049479166
 30
0.0
 10
5.11083984375
 20
-6.148234049479166
 30
0.0
 10
4.964002821180555
 20
-6.230116102430555
 30
0.0
 10
4.698459201388888
 20
-6.230116102430555
 30
0.0
 10
4.411390516493055
 20
-6.230116102430555
 30
0.0
 10
4.213663736979166
 20
-6.136244032118055
 30
0.0
 10
4.213663736979166
 20
-6.136244032118055
 30
0.0
  0
SPLINE
  5
9B
330
3C
100
AcDbEntity
  8
Layer 1
370
     0
100
AcDbSpline
210
0.0
220
0.0
230
1.0
 70
    11
 71
     3
 72
    17
 73
    13
 74
     0
 42
0.0000000001
 43
0.0000000001
 40
0.0
 40
0.0
 40
0.0
 40
0.0
 40
1.0
 40
1.0
 40
1.0
 40
2.0
 40
2.0
 40
2.0
 40
3.0
 40
3.0
 40
3.0
 40
4.0
 40
4.0
 40
4.0
 40
4.0
 10
4.509941948784722
 20
-6.564290364583333
 30
0.0
 10
4.461669921875
 20
-6.564290364583333
 30
0.0
 10
4.422458224826388
 20
-6.523654513888888
 30
0.0
 10
4.422458224826388
 20
-6.473687065972221
 30
0.0
 10
4.422458224826388
 20
-6.423299153645833
 30
0.0
 10
4.461669921875
 20
-6.382744683159721
 30
0.0
 10
4.509941948784722
 20
-6.382744683159721
 30
0.0
 10
4.557725694444444
 20
-6.382744683159721
 30
0.0
 10
4.5970458984375
 20
-6.423299153645833
 30
0.0
 10
4.5970458984375
 20
-6.473687065972221
 30
0.0
 10
4.5970458984375
 20
-6.523654513888888
 30
0.0
 10
4.557725694444444
 20
-6.564290364583333
 30
0.0
 10
4.509941948784722
 20
-6.564290364583333
 30
0.0
  0
ENDBLK
  5
3F
330
3C
100
AcDbEntity
  8
0
100
AcDbBlockEnd
  0
ENDSEC
  0
SECTION
  2
ENTITIES
  0
INSERT
  5
3D
330
1F
100
AcDbEntity
  8
Layer 1
100
AcDbBlockReference
  2
block 2
 10
0.0
 20
0.0
 30
0.0
  0
ENDSEC
  0
SECTION
  2
OBJECTS
  0
DICTIONARY
  5
C
330
0
100
AcDbDictionary
281
     1
  3
ACAD_GROUP
350
D
  3
ACAD_LAYOUT
350
1A
  3
ACAD_MLINESTYLE
350
17
  3
ACAD_PLOTSETTINGS
350
19
  3
ACAD_PLOTSTYLENAME
350
E
  3
ACAD_TABLESTYLE
350
9C
  3
ACAD_VISUALSTYLE
350
2A
  0
DICTIONARY
  5
D
102
{ACAD_REACTORS
330
C
102
}
330
C
100
AcDbDictionary
281
     1
  0
DICTIONARY
  5
1A
102
{ACAD_REACTORS
330
C
102
}
330
C
100
AcDbDictionary
281
     1
  3
Layout1
350
1E
  3
Layout2
350
26
  3
Model
350
22
  0
DICTIONARY
  5
17
102
{ACAD_REACTORS
330
C
102
}
330
C
100
AcDbDictionary
281
     1
  3
Standard
350
18
  0
DICTIONARY
  5
19
102
{ACAD_REACTORS
330
C
102
}
330
C
100
AcDbDictionary
281
     1
  0
ACDBDICTIONARYWDFLT
  5
E
102
{ACAD_REACTORS
330
C
102
}
330
C
100
AcDbDictionary
281
     1
  3
Normal
350
F
100
AcDbDictionaryWithDefault
340
F
  0
DICTIONARY
  5
9C
102
{ACAD_REACTORS
330
C
102
}
330
C
100
AcDbDictionary
281
     1
  0
DICTIONARY
  5
2A
102
{ACAD_REACTORS
330
C
102
}
330
C
100
AcDbDictionary
281
     1
  3
2dWireframe
350
2F
  3
3D Hidden
350
31
  3
3dWireframe
350
30
  3
Basic
350
32
  3
Brighten
350
36
  3
ColorChange
350
3A
  3
Conceptual
350
34
  3
Dim
350
35
  3
Facepattern
350
39
  3
Flat
350
2B
  3
FlatWithEdges
350
2C
  3
Gouraud
350
2D
  3
GouraudWithEdges
350
2E
  3
Linepattern
350
38
  3
Realistic
350
33
  3
Thicken
350
37
  0
LAYOUT
  5
1E
102
{ACAD_REACTORS
330
1A
102
}
330
1A
100
AcDbPlotSettings
  1

  2
none_device
  4

  6

 40
0.0
 41
0.0
 42
0.0
 43
0.0
 44
0.0
 45
0.0
 46
0.0
 47
0.0
 48
0.0
 49
0.0
140
0.0
141
0.0
142
1.0
143
1.0
 70
   688
 72
     0
 73
     0
 74
     5
  7

 75
    16
 76
     0
 77
     2
 78
   300
147
1.0
148
0.0
149
0.0
100
AcDbLayout
  1
Layout1
 70
     1
 71
     1
 10
0.0
 20
0.0
 11
12.0
 21
9.0
 12
0.0
 22
0.0
 32
0.0
 14
1.000000000000000E+20
 24
1.000000000000000E+20
 34
1.000000000000000E+20
 15
-1.000000000000000E+20
 25
-1.000000000000000E+20
 35
-1.000000000000000E+20
146
0.0
 13
0.0
 23
0.0
 33
0.0
 16
1.0
 26
0.0
 36
0.0
 17
0.0
 27
1.0
 37
0.0
 76
     0
330
1B
  0
LAYOUT
  5
26
102
{ACAD_REACTORS
330
1A
102
}
330
1A
100
AcDbPlotSettings
  1

  2
none_device
  4

  6

 40
0.0
 41
0.0
 42
0.0
 43
0.0
 44
0.0
 45
0.0
 46
0.0
 47
0.0
 48
0.0
 49
0.0
140
0.0
141
0.0
142
1.0
143
1.0
 70
   688
 72
     0
 73
     0
 74
     5
  7

 75
    16
 76
     0
 77
     2
 78
   300
147
1.0
148
0.0
149
0.0
100
AcDbLayout
  1
Layout2
 70
     1
 71
     2
 10
0.0
 20
0.0
 11
0.0
 21
0.0
 12
0.0
 22
0.0
 32
0.0
 14
0.0
 24
0.0
 34
0.0
 15
0.0
 25
0.0
 35
0.0
146
0.0
 13
0.0
 23
0.0
 33
0.0
 16
1.0
 26
0.0
 36
0.0
 17
0.0
 27
1.0
 37
0.0
 76
     0
330
23
  0
LAYOUT
  5
22
102
{ACAD_REACTORS
330
1A
102
}
330
1A
100
AcDbPlotSettings
  1

  2
none_device
  4

  6

 40
0.0
 41
0.0
 42
0.0
 43
0.0
 44
0.0
 45
0.0
 46
0.0
 47
0.0
 48
0.0
 49
0.0
140
0.0
141
0.0
142
1.0
143
1.0
 70
  1712
 72
     0
 73
     0
 74
     0
  7

 75
     0
 76
     0
 77
     2
 78
   300
147
1.0
148
0.0
149
0.0
100
AcDbLayout
  1
Model
 70
     1
 71
     0
 10
0.0
 20
0.0
 11
12.0
 21
9.0
 12
0.0
 22
0.0
 32
0.0
 14
1.000000000000000E+20
 24
1.000000000000000E+20
 34
1.000000000000000E+20
 15
-1.000000000000000E+20
 25
-1.000000000000000E+20
 35
-1.000000000000000E+20
146
0.0
 13
0.0
 23
0.0
 33
0.0
 16
1.0
 26
0.0
 36
0.0
 17
0.0
 27
1.0
 37
0.0
 76
     0
330
1F
331
29
  0
MLINESTYLE
  5
18
102
{ACAD_REACTORS
330
17
102
}
330
17
100
AcDbMlineStyle
  2
Standard
 70
     0
  3

 62
   256
 51
90.0
 52
90.0
 71
     2
 49
0.5
 62
   256
  6
BYLAYER
 49
-0.5
 62
   256
  6
BYLAYER
  0
ACDBPLACEHOLDER
  5
F
102
{ACAD_REACTORS
330
E
102
}
330
E
  0
VISUALSTYLE
  5
2F
102
{ACAD_REACTORS
330
2A
102
}
330
2A
100
AcDbVisualStyle
  2
2dWireframe
 70
     4
 71
     0
 72
     2
 73
     0
 90
        0
 40
-0.6
 41
-30.0
 62
     5
 63
     7
421
 16777215
 74
     1
 91
        4
 64
     7
 65
   257
 75
     1
175
     1
 42
1.0
 92
        0
 66
   257
 43
1.0
 76
     1
 77
     6
 78
     2
 67
     7
 79
     5
170
     0
171
     0
290
     0
174
     0
 93
        1
 44
0.0
173
     0
291
     0
 45
0.0
1001
ACAD
1000
AcDbSavedByObjectVersion
1070
     0
  0
VISUALSTYLE
  5
31
102
{ACAD_REACTORS
330
2A
102
}
330
2A
100
AcDbVisualStyle
  2
3D Hidden
 70
     6
 71
     1
 72
     2
 73
     2
 90
        0
 40
-0.6
 41
-30.0
 62
     5
 63
     7
421
 16777215
 74
     2
 91
        2
 64
     7
 65
   257
 75
     2
175
     1
 42
40.0
 92
        0
 66
   257
 43
1.0
 76
     1
 77
     6
 78
     2
 67
     7
 79
     3
170
     0
171
     0
290
     0
174
     0
 93
        1
 44
0.0
173
     0
291
     0
 45
0.0
1001
ACAD
1000
AcDbSavedByObjectVersion
1070
     0
  0
VISUALSTYLE
  5
30
102
{ACAD_REACTORS
330
2A
102
}
330
2A
100
AcDbVisualStyle
  2
3dWireframe
 70
     5
 71
     0
 72
     2
 73
     0
 90
        0
 40
-0.6
 41
-30.0
 62
     5
 63
     7
421
 16777215
 74
     1
 91
        4
 64
     7
 65
   257
 75
     1
175
     1
 42
1.0
 92
        0
 66
   257
 43
1.0
 76
     1
 77
     6
 78
     2
 67
     7
 79
     5
170
     0
171
     0
290
     0
174
     0
 93
        1
 44
0.0
173
     0
291
     0
 45
0.0
1001
ACAD
1000
AcDbSavedByObjectVersion
1070
     0
  0
VISUALSTYLE
  5
32
102
{ACAD_REACTORS
330
2A
102
}
330
2A
100
AcDbVisualStyle
  2
Basic
 70
     7
 71
     1
 72
     0
 73
     1
 90
        0
 40
-0.6
 41
-30.0
 62
     5
 63
     7
421
 16777215
 74
     0
 91
        4
 64
     7
 65
   257
 75
     1
175
     1
 42
1.0
 92
        8
 66
     7
 43
1.0
 76
     1
 77
     6
 78
     2
 67
     7
 79
     5
170
     0
171
     0
290
     0
174
     0
 93
        1
 44
0.0
173
     0
291
     1
 45
0.0
1001
ACAD
1000
AcDbSavedByObjectVersion
1070
     0
  0
VISUALSTYLE
  5
36
102
{ACAD_REACTORS
330
2A
102
}
330
2A
100
AcDbVisualStyle
  2
Brighten
 70
    12
 71
     2
 72
     2
 73
     0
 90
        0
 40
-0.6
 41
-30.0
 62
     5
 63
     7
421
 16777215
 74
     1
 91
        4
 64
     7
 65
   257
 75
     1
175
     1
 42
1.0
 92
        8
 66
     7
 43
1.0
 76
     1
 77
     6
 78
     2
 67
     7
 79
     5
170
     0
171
     0
290
     0
174
     0
 93
        1
 44
50.0
173
     0
291
     1
 45
0.0
1001
ACAD
1000
AcDbSavedByObjectVersion
1070
     0
  0
VISUALSTYLE
  5
3A
102
{ACAD_REACTORS
330
2A
102
}
330
2A
100
AcDbVisualStyle
  2
ColorChange
 70
    16
 71
     2
 72
     2
 73
     3
 90
        0
 40
-0.6
 41
-30.0
 62
     5
 63
     8
421
  8421504
 74
     1
 91
        4
 64
     7
 65
   257
 75
     1
175
     1
 42
1.0
 92
        8
 66
     8
424
  8421504
 43
1.0
 76
     1
 77
     6
 78
     2
 67
     7
 79
     5
170
     0
171
     0
290
     0
174
     0
 93
        1
 44
0.0
173
     0
291
     1
 45
0.0
1001
ACAD
1000
AcDbSavedByObjectVersion
1070
     0
  0
VISUALSTYLE
  5
34
102
{ACAD_REACTORS
330
2A
102
}
330
2A
100
AcDbVisualStyle
  2
Conceptual
 70
     9
 71
     3
 72
     2
 73
     0
 90
        0
 40
-0.6
 41
-30.0
 62
     5
 63
     7
421
 16777215
 74
     2
 91
        2
 64
     7
 65
   257
 75
     1
175
     1
 42
40.0
 92
        8
 66
     7
 43
1.0
 76
     1
 77
     6
 78
     2
 67
     7
 79
     3
170
     0
171
     0
290
     0
174
     0
 93
        1
 44
0.0
173
     0
291
     0
 45
0.0
1001
ACAD
1000
AcDbSavedByObjectVersion
1070
     0
  0
VISUALSTYLE
  5
35
102
{ACAD_REACTORS
330
2A
102
}
330
2A
100
AcDbVisualStyle
  2
Dim
 70
    11
 71
     2
 72
     2
 73
     0
 90
        0
 40
-0.6
 41
-30.0
 62
     5
 63
     7
421
 16777215
 74
     1
 91
        4
 64
     7
 65
   257
 75
     1
175
     1
 42
1.0
 92
        8
 66
     7
 43
1.0
 76
     1
 77
     6
 78
     2
 67
     7
 79
     5
170
     0
171
     0
290
     0
174
     0
 93
        1
 44
-50.0
173
     0
291
     1
 45
0.0
1001
ACAD
1000
AcDbSavedByObjectVersion
1070
     0
  0
VISUALSTYLE
  5
39
102
{ACAD_REACTORS
330
2A
102
}
330
2A
100
AcDbVisualStyle
  2
Facepattern
 70
    15
 71
     2
 72
     2
 73
     0
 90
        0
 40
-0.6
 41
-30.0
 62
     5
 63
     7
421
 16777215
 74
     1
 91
        4
 64
     7
 65
   257
 75
     1
175
     1
 42
1.0
 92
        8
 66
     7
 43
1.0
 76
     1
 77
     6
 78
     2
 67
     7
 79
     5
170
     0
171
     0
290
     0
174
     0
 93
        1
 44
0.0
173
     0
291
     1
 45
0.0
1001
ACAD
1000
AcDbSavedByObjectVersion
1070
     0
  0
VISUALSTYLE
  5
2B
102
{ACAD_REACTORS
330
2A
102
}
330
2A
100
AcDbVisualStyle
  2
Flat
 70
     0
 71
     2
 72
     1
 73
     1
 90
        2
 40
-0.6
 41
30.0
 62
     5
 63
     7
421
 16777215
 74
     0
 91
        4
 64
     7
 65
   257
 75
     1
175
     1
 42
1.0
 92
        8
 66
     7
 43
1.0
 76
     1
 77
     6
 78
     2
 67
     7
 79
     5
170
     0
171
     0
290
     0
174
     0
 93
       13
 44
0.0
173
     0
291
     1
 45
0.0
1001
ACAD
1000
AcDbSavedByObjectVersion
1070
     0
  0
VISUALSTYLE
  5
2C
102
{ACAD_REACTORS
330
2A
102
}
330
2A
100
AcDbVisualStyle
  2
FlatWithEdges
 70
     1
 71
     2
 72
     1
 73
     1
 90
        2
 40
-0.6
 41
30.0
 62
     5
 63
     7
421
 16777215
 74
     1
 91
        4
 64
     7
 65
   257
 75
     1
175
     1
 42
1.0
 92
        0
 66
   257
 43
1.0
 76
     1
 77
     6
 78
     2
 67
     7
 79
     5
170
     0
171
     0
290
     0
174
     0
 93
       13
 44
0.0
173
     0
291
     1
 45
0.0
1001
ACAD
1000
AcDbSavedByObjectVersion
1070
     0
  0
VISUALSTYLE
  5
2D
102
{ACAD_REACTORS
330
2A
102
}
330
2A
100
AcDbVisualStyle
  2
Gouraud
 70
     2
 71
     2
 72
     2
 73
     1
 90
        2
 40
-0.6
 41
30.0
 62
     5
 63
     7
421
 16777215
 74
     0
 91
        4
 64
     7
 65
   257
 75
     1
175
     1
 42
1.0
 92
        0
 66
     7
 43
1.0
 76
     1
 77
     6
 78
     2
 67
     7
 79
     5
170
     0
171
     0
290
     0
174
     0
 93
       13
 44
0.0
173
     0
291
     1
 45
0.0
1001
ACAD
1000
AcDbSavedByObjectVersion
1070
     0
  0
VISUALSTYLE
  5
2E
102
{ACAD_REACTORS
330
2A
102
}
330
2A
100
AcDbVisualStyle
  2
GouraudWithEdges
 70
     3
 71
     2
 72
     2
 73
     1
 90
        2
 40
-0.6
 41
30.0
 62
     5
 63
     7
421
 16777215
 74
     1
 91
        4
 64
     7
 65
   257
 75
     1
175
     1
 42
1.0
 92
        0
 66
   257
 43
1.0
 76
     1
 77
     6
 78
     2
 67
     7
 79
     5
170
     0
171
     0
290
     0
174
     0
 93
       13
 44
0.0
173
     0
291
     1
 45
0.0
1001
ACAD
1000
AcDbSavedByObjectVersion
1070
     0
  0
VISUALSTYLE
  5
38
102
{ACAD_REACTORS
330
2A
102
}
330
2A
100
AcDbVisualStyle
  2
Linepattern
 70
    14
 71
     2
 72
     2
 73
     0
 90
        0
 40
-0.6
 41
-30.0
 62
     5
 63
     7
421
 16777215
 74
     1
 91
        4
 64
     7
 65
   257
 75
     7
175
     7
 42
1.0
 92
        8
 66
     7
 43
1.0
 76
     1
 77
     6
 78
     2
 67
     7
 79
     5
170
     0
171
     0
290
     0
174
     0
 93
        1
 44
0.0
173
     0
291
     1
 45
0.0
1001
ACAD
1000
AcDbSavedByObjectVersion
1070
     0
  0
VISUALSTYLE
  5
33
102
{ACAD_REACTORS
330
2A
102
}
330
2A
100
AcDbVisualStyle
  2
Realistic
 70
     8
 71
     2
 72
     2
 73
     0
 90
        0
 40
-0.6
 41
-30.0
 62
     5
 63
     7
421
 16777215
 74
     1
 91
        0
 64
     7
 65
   257
 75
     1
175
     1
 42
1.0
 92
        8
 66
     8
424
  7895160
 43
1.0
 76
     1
 77
     6
 78
     2
 67
     7
 79
     5
170
     0
171
     0
290
     0
174
     0
 93
       13
 44
0.0
173
     0
291
     0
 45
0.0
1001
ACAD
1000
AcDbSavedByObjectVersion
1070
     0
  0
VISUALSTYLE
  5
37
102
{ACAD_REACTORS
330
2A
102
}
330
2A
100
AcDbVisualStyle
  2
Thicken
 70
    13
 71
     2
 72
     2
 73
     0
 90
        0
 40
-0.6
 41
-30.0
 62
     5
 63
     7
421
 16777215
 74
     1
 91
        4
 64
     7
 65
   257
 75
     1
175
     1
 42
1.0
 92
       12
 66
     7
 43
1.0
 76
     1
 77
     6
 78
     2
 67
     7
 79
     5
170
     0
171
     0
290
     0
174
     0
 93
        1
 44
0.0
173
     0
291
     1
 45
0.0
1001
ACAD
1000
AcDbSavedByObjectVersion
1070
     0
  0
ENDSEC
  0
EOF
