<?xml version="1.0" encoding="utf-8"?>
<!-- Generator: Adobe Illustrator 16.0.0, SVG Export Plug-In . SVG Version: 6.00 Build 0)  -->
<!DOCTYPE svg PUBLIC "-//W3C//DTD SVG 1.1//EN" "http://www.w3.org/Graphics/SVG/1.1/DTD/svg11.dtd">
<svg version="1.1" id="Layer_1" xmlns="http://www.w3.org/2000/svg" xmlns:xlink="http://www.w3.org/1999/xlink" x="0px" y="0px"
	 width="595.28px" height="841.89px" viewBox="0 0 595.28 841.89" enable-background="new 0 0 595.28 841.89" xml:space="preserve">
<linearGradient id="SVGID_1_" gradientUnits="userSpaceOnUse" x1="0" y1="448.9688" x2="592.5479" y2="448.9688">
	<stop  offset="0.0056" style="stop-color:#ECC562"/>
	<stop  offset="1" style="stop-color:#C3922E"/>
</linearGradient>
<path fill="url(#SVGID_1_)" d="M444.403,705.557l59.837-103.61l-28.533-49.363h57.021l59.819-103.614l-59.819-103.613h-57.021
	l28.533-49.372L444.403,192.38H324.775l-28.497,49.391l-28.534-49.391H148.134L88.321,295.984l28.491,49.372H59.814L0,448.959
	l59.814,103.624h56.998l-28.491,49.363l59.813,103.61h119.611l28.534-49.371l28.497,49.371H444.403z M432.678,685.254h-23.812
	v-41.292l35.739,20.637L432.678,685.254z M480.778,601.946l-26.02,45.072l-45.893-26.508v-67.928h43.408L480.778,601.946z
	 M424.706,504.812l15.85,27.456h-31.689v-18.316L424.706,504.812z M415.906,448.959l16.247-28.1l48.646,28.1l-48.646,28.102
	L415.906,448.959z M521.012,532.269H463.99l-21.702-37.608l58.832-33.973l45.895,26.507L521.012,532.269z M569.086,448.969
	l-11.901,20.637l-35.76-20.646l35.74-20.636L569.086,448.969z M521.012,365.679l25.983,45.064l-45.875,26.49l-58.805-33.963
	l21.675-37.591H521.012z M408.866,212.704h23.812l11.947,20.634l-35.759,20.638V212.704z M408.866,277.437l45.893-26.507
	l26.02,45.054l-28.504,49.372h-43.408V277.437z M408.866,365.679h31.689l-15.85,27.439l-15.84-9.159V365.679z M336.51,212.704
	h52.033v53.006l-58.815,33.974l-21.732-37.618L336.51,212.704z M388.543,289.155v56.201h-32.464l-16.209-28.092L388.543,289.155z
	 M312.119,309.828l-15.84,9.148l-15.842-9.158l15.842-27.438L312.119,309.828z M204.015,212.704h52.031l28.506,49.362
	l-21.712,37.599l-58.825-33.945V212.704z M204.015,289.155l48.671,28.109l-16.228,28.092h-32.444V289.155z M159.88,212.704h23.821
	l-0.02,41.272l-35.741-20.638L159.88,212.704z M111.74,295.984l26.049-45.054l45.892,26.507v67.919h-43.408L111.74,295.984z
	 M167.842,393.118l-15.832-27.439h31.672v18.28L167.842,393.118z M176.641,448.959l-16.247,28.102l-48.654-28.102l48.654-28.091
	L176.641,448.959z M71.537,365.679h56.994l21.722,37.599l-58.826,33.955l-45.902-26.508L71.537,365.679z M23.458,448.959
	l11.915-20.653l35.75,20.653l-35.75,20.646L23.458,448.959z M71.55,532.259l-26.025-45.064l45.902-26.507l58.826,33.963
	l-21.722,37.608H71.55z M183.701,685.246H159.88l-11.939-20.647l35.761-20.637V685.246z M183.701,620.503l-45.912,26.516
	l-26.049-45.072l28.534-49.363h43.427V620.503z M183.701,532.259H152.01l15.85-27.446l15.842,9.14V532.259z M256.046,685.254
	h-52.031v-53.018l58.825-33.983l21.712,37.61L256.046,685.254z M204.015,608.765v-56.182h32.444l16.228,28.091L204.015,608.765z
	 M280.437,588.113l15.842-9.15l15.84,9.15l-15.84,27.437L280.437,588.113z M388.543,685.254l-52.033-0.008l-28.515-49.383
	l21.732-37.61l58.815,33.983V685.254z M388.543,608.765l-48.673-28.091l16.209-28.091h32.464V608.765z M344.344,532.269
	l-22.081,38.244l-25.984-15.004l-26.013,15.004l-22.081-38.254h-44.17v-30.033l-25.985-15.012l22.044-38.255l-22.081-38.252
	l26.022-15.003v-30.025h44.17l22.081-38.271l26.013,15.021l25.994-15.002l22.071,38.252h44.199v30.025l26.02,15.003l-22.107,38.252
	l22.08,38.255l-25.992,15.012v30.043H344.344z"/>
</svg>
