<?xml version="1.0" encoding="utf-8"?>
<!-- Generator: Adobe Illustrator 16.0.0, SVG Export Plug-In . SVG Version: 6.00 Build 0)  -->
<!DOCTYPE svg PUBLIC "-//W3C//DTD SVG 1.1//EN" "http://www.w3.org/Graphics/SVG/1.1/DTD/svg11.dtd">
<svg version="1.1" id="Layer_1" xmlns="http://www.w3.org/2000/svg" xmlns:xlink="http://www.w3.org/1999/xlink" x="0px" y="0px"
	 width="595.28px" height="841.89px" viewBox="0 0 595.28 841.89" enable-background="new 0 0 595.28 841.89" xml:space="preserve">
<linearGradient id="SVGID_1_" gradientUnits="userSpaceOnUse" x1="0" y1="452.7051" x2="594.3096" y2="452.7051">
	<stop  offset="0.0056" style="stop-color:#ECC562"/>
	<stop  offset="1" style="stop-color:#C3922E"/>
</linearGradient>
<path fill="url(#SVGID_1_)" d="M356.599,690.957l-14.672-6.031l-10.73,10.666v-15.741l-13.983-5.7l13.966-5.717l0.018-18.31
	l13.37,13.341h18.345l-10.564,10.411l6.176,15.138l25.842-25.75h0.119l0.119-0.091h36.214l-6.323-15.028l-14.826,0.102
	l12.984-12.967l0.01-18.895l12.957,12.938l13.938-5.827l-5.911,13.92l11.133,11.15l-15.073,0.036l-6.14,14.571h84.039l-0.028-0.036
	l0.028-84.004l-14.599,6.114l-0.045,15.108l-11.116-11.113l-13.919,5.863l5.837-13.91l-12.938-12.957l18.896-0.036l12.948-12.957
	l-0.101,14.817l15.037,6.332v-36.231l0.083-0.073v-0.165l25.748-25.814l-15.139-6.187l-10.391,10.557v-18.344l-13.361-13.369
	l18.318-0.019l5.736-13.956l5.654,14.002h15.743l-10.639,10.701l6.002,14.661l58.949-59.45l-58.949-59.453l-6.002,14.68
	l10.639,10.721h-15.743l-5.654,13.984l-5.736-13.956l-18.318-0.01l13.361-13.379v-18.326l10.391,10.538l15.157-6.176l-25.767-25.813
	v-0.175l-0.083-0.091v-36.214l-15.037,6.341l0.101,14.817l-12.948-12.976l-18.896-0.009l12.938-12.975l-5.837-13.91l13.919,5.882
	l11.116-11.133l0.045,15.092l14.599,6.13l-0.028-84.02l0.028-0.009v-0.009h-0.028v-0.009l0,0h-84.011l6.14,14.597l15.073,0.037
	l-11.133,11.143l5.911,13.919l-13.938-5.819l-12.938,12.92l-0.028-18.895l-12.984-12.976l14.826,0.119l6.323-15.046h-36.214
	l-0.093-0.083h-0.146l-25.842-25.758l-6.176,15.146l10.564,10.41h-18.345l-13.37,13.342l-0.018-18.308l-13.966-5.737l13.983-5.663
	v-15.743l10.73,10.648l14.672-6.021l-59.453-58.931l-59.453,58.94l14.662,6.011l10.712-10.648v15.743l14.001,5.663l-13.938,5.737
	l-0.019,18.308l-13.397-13.342H231.37l10.574-10.41l-6.184-15.138l-25.814,25.75h-0.155l-0.083,0.083h-36.232l6.332,15.046
	l14.799-0.119l-12.957,12.976v18.895l-12.994-12.939l-13.919,5.838l5.911-13.919l-11.134-11.143l15.074-0.037l6.121-14.597h-84.02
	v84.047l14.57-6.13l0.046-15.092l11.143,11.133l13.902-5.882l-5.792,13.91l12.911,12.975l-18.905,0.009l-12.966,12.976l0.119-14.817
	l-15.028-6.323v36.196l-0.092,0.119v0.146l-25.741,25.813l15.129,6.176l10.4-10.538v18.326l13.361,13.379l-18.327,0.01
	l-5.727,13.956L70,418.655H54.248l10.675-10.721l-5.993-14.662L0,452.707l58.931,59.434l5.993-14.645l-10.675-10.701H70l5.69-14.002
	l5.727,13.956l18.327,0.019l-13.361,13.369v18.344l-10.4-10.557l-15.12,6.177l25.731,25.824v0.126l0.092,0.112v36.212l15.028-6.312
	l-0.119-14.817l12.966,12.957l18.905,0.036l-12.911,12.957l5.819,13.91l-13.929-5.863l-11.143,11.113l-0.046-15.108l-14.57-6.104
	v84.03h84.02l-6.121-14.571l-15.074-0.036l11.134-11.15l-5.911-13.92l13.919,5.827l12.994-12.938v18.895l12.957,12.967
	l-14.799-0.102l-6.332,15.028h36.232l0.091,0.091h0.147l25.832,25.75l6.167-15.138l-10.574-10.411h18.345l13.397-13.341l0.019,18.31
	l13.938,5.717l-14.001,5.7v15.741l-10.712-10.666l-14.635,6.012l59.426,58.922L356.599,690.957z M534.609,433.857h20.599
	l18.868,18.85l-18.868,18.858h-20.599l-7.717-18.858L534.609,433.857z M59.673,471.565H39.055l-18.868-18.858l18.868-18.85h20.618
	l7.734,18.85L59.673,471.565z M315.014,612.545l-7.412-7.413l2.996-2.988h20.599v-31.87l9.476,9.492v32.806L315.014,612.545z
	 M297.136,311.423l6.8,7.074h12.031v31.898l-18.831,18.84l-18.839-18.84v-31.898h12.05L297.136,311.423z M278.424,270.609v-23.367
	l18.711-7.679l18.712,7.679v23.367l-18.712,18.675L278.424,270.609z M316.371,406.284v12.371l-5.132,0.083l-3.638-3.721
	L316.371,406.284z M297.136,390.541v0.019v-0.009l0.01,0.009v-0.019l18.821-18.822v13.434l-18.831,18.812l-18.839-18.812v-13.434
	L297.136,390.541z M286.672,415.017l-3.638,3.721l-5.149-0.083l0.018-12.371L286.672,415.017z M278.424,445.019l0.036,0.027v-0.064
	l0.037-0.046l-0.037-0.009l0.175-10.722l10.711-0.165l0.028,0.027l0.037-0.027h0.037v-0.027l7.688-7.478l7.698,7.478v0.027h0.063
	l0.02,0.027v-0.027l10.729,0.165l0.155,10.722l-0.018,0.009l0.018,0.046l0.02,0.064l0.026-0.027l7.46,7.688l-7.46,7.715
	l-0.046-0.019v0.037l-0.018,0.055l0.018,0.019l-0.155,10.712l-10.729,0.175v-0.037l-0.057,0.037h-0.026v0.026l-7.698,7.469
	l-7.688-7.469V471.4h-0.037l-0.037-0.037l-0.028,0.037l-10.711-0.175l-0.175-10.712l0.037-0.019l-0.037-0.055v-0.037l-0.036,0.019
	l-7.477-7.715L278.424,445.019z M297.136,514.889L297.136,514.889v0.01l-18.839,18.812v-13.416l18.839-18.83l18.831,18.83v13.416
	l-18.821-18.812v-0.01H297.136z M307.602,490.424l3.618-3.721l5.151,0.074v12.377L307.602,490.424z M283.062,486.703l3.61,3.721
	l-8.77,8.73l-0.018-12.377L283.062,486.703z M278.296,555.043l18.839-18.84l18.831,18.84v31.889h-12.031l-6.8,7.065l-6.79-7.065
	h-12.05V555.043z M297.136,616.163l18.712,18.657v23.377l-18.712,7.67l-18.711-7.67V634.82L297.136,616.163z M341.093,408.758v0.018
	l0.02-0.018h26.61l-9.476,9.493h-26.619v-26.629l9.465-9.493v26.602V408.758L341.093,408.758z M359.293,452.707v0.036h0.036
	l18.831,18.812h-13.461l-18.795-18.849l18.795-18.822h13.461l-18.831,18.822H359.293L359.293,452.707z M341.093,496.69v26.61
	l-9.465-9.492v-26.611h26.619l9.476,9.475l-26.61,0.019l-0.02-0.028V496.69L341.093,496.69L341.093,496.69z M341.093,558.847
	l-9.896-9.925l-0.018-14.039l9.914,9.925V558.847z M341.093,360.632l-9.914,9.915l0.018-14.039l9.896-9.924V360.632z
	 M331.196,433.463l12.39,0.019l-8.77,8.778l-3.665-3.619L331.196,433.463z M334.816,463.181l8.77,8.77l-12.39,0.018l-0.091-5.177
	L334.816,463.181z M397.495,629.112l-19.29,19.29H350.89l-19.693-19.703l24.559-0.063l0.074-34.281l24.273,24.201l17.393-17.329
	V629.112z M397.531,578.374l-18.152,18.171l-23.185-23.212v-13.414l22.544,22.541l14.551-14.569h4.242V578.374z M396.872,542.818
	l0.183,9.805l-9.804-0.191l-8.513,8.514l-22.544-22.561l-0.036-26.648l26.657,0.018l22.56,22.562L396.872,542.818z M456.966,434.837
	l-7.403,7.423l-2.979-2.996v-20.591h-31.889l9.521-9.493h32.778L456.966,434.837z M456.994,496.251h-32.778l-9.521-9.483h31.889
	v-20.6l2.979-2.987l7.403,7.422L456.994,496.251z M431.373,433.885v12.041l7.055,6.781l-7.055,6.799v12.05h-31.917l-18.841-18.849
	l18.841-18.822H431.373z M393.325,418.673h-14.001l9.914-9.915h14.021L393.325,418.673z M393.325,486.768l9.934,9.904h-14.021
	l-9.914-9.904H393.325z M412.322,553.091v-4.225l14.551-14.56l-22.515-22.543h13.416l23.192,23.192l-18.181,18.135H412.322z
	 M429.191,611.243l-16.512-16.521l0.018-26.427l26.464-0.037l16.504,16.522l-7.798,18.657L429.191,611.243z M478.372,607.294
	l14.589,14.569v26.665l-26.656,0.02l-14.562-14.589l7.862-18.793L478.372,607.294z M492.842,533.774l-19.308,19.309h-27.857
	l17.301-17.412l-24.21-24.292l34.326-0.056l0.047-24.556l19.701,19.709V533.774z M502.619,434.013l7.66,18.694l-7.66,18.729h-23.368
	l-18.684-18.729l18.684-18.694H502.619z M473.534,352.348l19.308,19.298v27.308l-19.701,19.72l-0.047-24.558l-34.326-0.064
	l24.21-24.292l-17.301-17.411H473.534z M466.305,256.882l26.656,0.019v26.666l-14.589,14.57l-18.767-7.881l-7.862-18.785
	L466.305,256.882z M429.191,294.196l18.676,7.79l7.798,18.666l-16.504,16.522l-26.464-0.028l-0.018-26.437L429.191,294.196z
	 M422.786,352.348l18.181,18.125l-23.192,23.202h-13.416l22.515-22.551l-14.551-14.562v-4.215H422.786z M405.375,371.124
	l-22.56,22.569h-26.657l0.036-26.647l22.544-22.552l8.513,8.504l9.804-0.192l-0.183,9.805L405.375,371.124z M397.531,337.549
	l-4.242-0.01l-14.551-14.561l-22.544,22.552v-13.443l23.185-23.193l18.152,18.163V337.549z M350.89,257.019h27.315l19.29,19.299
	v27.866l-17.393-17.31l-24.273,24.22l-0.074-34.309l-24.559-0.055L350.89,257.019z M340.672,292.858v32.805l-9.476,9.512v-31.899
	h-20.599l-2.996-2.978l7.412-7.404L340.672,292.858z M278.296,194.635l18.839-18.85l18.868,18.85v20.609l-18.868,7.725
	l-18.839-7.725V194.635z M279.276,292.895l7.396,7.404l-2.998,2.978h-20.562v31.899l-9.539-9.512v-32.805L279.276,292.895z
	 M253.169,496.69v-0.028l-0.019,0.028l-26.592-0.019l9.502-9.475h26.611v26.611l-9.466,9.492L253.169,496.69h0.036H253.169z
	 M234.98,452.707L234.98,452.707h-0.028l-18.785-18.822h13.406l18.804,18.822l-18.804,18.849h-13.406l18.785-18.812h0.028V452.707z
	 M253.169,408.731l0.036-26.602l9.466,9.493v26.629h-26.611l-9.502-9.493h26.592l0.019,0.018v-0.018h0.036L253.169,408.731z
	 M253.169,346.583l9.942,9.924v14.039l-9.906-9.934L253.169,346.583z M253.206,544.808l9.906-9.925v14.039l-9.942,9.925
	L253.206,544.808z M263.094,471.968l-12.371-0.018l8.725-8.77l3.711,3.61L263.094,471.968z M259.447,442.26l-8.725-8.778
	l12.371-0.019l0.064,5.178L259.447,442.26z M196.777,276.318l19.28-19.299h27.308l19.748,19.711l-24.568,0.055l-0.055,34.309
	l-24.301-24.22l-17.438,17.31L196.777,276.318z M196.75,327.057l18.152-18.163l23.184,23.193v13.443l-22.524-22.552l-14.58,14.561
	l-4.232,0.01V327.057z M197.428,362.602l-0.21-9.795l9.832,0.192l8.514-8.504l22.551,22.552v26.647l-26.647-0.009l-22.552-22.56
	L197.428,362.602z M137.333,470.603l7.404-7.422l2.969,2.987v20.6h31.889l-9.521,9.483h-32.787L137.333,470.603z M137.288,409.18
	h32.787l9.521,9.493h-31.889v20.591l-2.969,2.996l-7.404-7.423L137.288,409.18z M162.918,471.556v-12.05l-7.074-6.799l7.074-6.781
	v-12.041h31.907l18.831,18.822l-18.831,18.849H162.918z M191.014,408.758h14.047l9.906,9.915h-14.021L191.014,408.758z
	 M200.946,486.768h14.021l-9.906,9.904h-14.047L200.946,486.768z M181.97,352.348v4.215l-14.562,14.562l22.524,22.551h-13.425
	l-23.202-23.202l18.19-18.125H181.97z M165.09,294.196l16.504,16.512l-0.01,26.437l-26.446,0.028l-16.531-16.522l7.826-18.666
	L165.09,294.196z M115.882,298.136l-14.579-14.57l0.018-26.666l26.657-0.019l14.58,14.588l-7.881,18.785L115.882,298.136z
	 M101.45,371.646l19.28-19.298h27.885l-17.31,17.411l24.21,24.292l-34.317,0.064l-0.055,24.558l-19.692-19.72V371.646z
	 M91.645,471.437l-7.661-18.729l7.661-18.694h23.376l18.685,18.694l-18.685,18.729H91.645z M120.729,553.083l-19.28-19.309v-27.298
	l19.692-19.709l0.055,24.556l34.317,0.056l-24.21,24.292l17.31,17.412H120.729z M127.978,648.548h-26.657l-0.018-26.685
	l14.579-14.56l18.794,7.862l7.881,18.793L127.978,648.548z M165.09,611.243l-18.657-7.806l-7.826-18.657l16.531-16.522l26.446,0.037
	l0.01,26.427L165.09,611.243z M171.496,553.091l-18.19-18.135l23.202-23.192h13.434l-22.533,22.543l14.562,14.56v4.225H171.496z
	 M188.915,534.316l22.57-22.562h26.629v26.631l-22.551,22.561l-8.514-8.514l-9.832,0.191l0.21-9.805L188.915,534.316z
	 M196.75,567.891h4.232l14.58,14.569l22.524-22.541v13.414l-23.184,23.212l-18.152-18.171V567.891z M243.364,648.402h-27.308
	l-19.28-19.29l-0.026-27.886l17.438,17.329l24.301-24.201l0.055,34.281l24.568,0.063L243.364,648.402z M253.573,612.571v-32.806
	l9.539-9.492v31.87h20.562l2.998,2.988l-7.396,7.413L253.573,612.571z M316.004,710.786l-18.868,18.859l-18.839-18.859v-20.6
	l18.839-7.717l18.868,7.717V710.786z"/>
</svg>
