<?xml version="1.0" encoding="utf-8"?>
<!-- Generator: Adobe Illustrator 16.0.0, SVG Export Plug-In . SVG Version: 6.00 Build 0)  -->
<!DOCTYPE svg PUBLIC "-//W3C//DTD SVG 1.1//EN" "http://www.w3.org/Graphics/SVG/1.1/DTD/svg11.dtd">
<svg version="1.1" id="Layer_1" xmlns="http://www.w3.org/2000/svg" xmlns:xlink="http://www.w3.org/1999/xlink" x="0px" y="0px"
	 width="595.28px" height="841.89px" viewBox="0 0 595.28 841.89" enable-background="new 0 0 595.28 841.89" xml:space="preserve">
<linearGradient id="SVGID_1_" gradientUnits="userSpaceOnUse" x1="0.4126" y1="352.3965" x2="593.9785" y2="352.3965">
	<stop  offset="0.0056" style="stop-color:#ECC562"/>
	<stop  offset="1" style="stop-color:#C3922E"/>
</linearGradient>
<path fill="url(#SVGID_1_)" d="M593.979,411.815h-30.86l-9.951-9.95l7.645-7.645h25.511v-25.517l7.648-7.65l0.008,0.006v-17.318
	l-0.008,0.003l-7.648-7.657v-25.51h-25.511l-7.639-7.639l9.955-9.957h30.851V280.74h-35.916l-13.545,13.544l-13.542-13.544h-71.843
	l-13.535,13.541l-13.535-13.541h-71.855l-13.538,13.536l-13.53-13.536h-71.859l-13.539,13.541l-13.535-13.541h-71.851
	l-13.535,13.541l-13.537-13.541H63.42l-13.536,13.536L36.353,280.74H0.413v12.241h30.874l9.948,9.947l-7.648,7.649H8.071v25.51
	l-7.651,7.657l-0.007-0.01v17.327l0.007-0.008l7.651,7.65v25.517h25.516l7.648,7.65l-9.948,9.944H0.413v12.238h35.94l13.532-13.531
	l13.536,13.531h71.861l13.537-13.536l13.535,13.536h71.851l13.535-13.536l13.539,13.536h71.859l13.53-13.531l13.538,13.531h71.855
	l13.535-13.536l13.535,13.536h71.843l13.533-13.536l13.536,13.536h35.934V411.815z M464.205,292.981h61.7l9.96,9.957l-7.64,7.639
	h-25.514v25.51l-7.655,7.657l-7.646-7.657v-25.51h-25.511l-7.648-7.649L464.205,292.981z M365.271,292.981h61.724l9.953,9.947
	l-7.646,7.649h-25.514v25.51l-7.653,7.657l-7.656-7.657v-25.51h-25.501l-7.652-7.649L365.271,292.981z M266.346,292.981h61.722
	l9.952,9.947l-7.653,7.649h-25.509v25.51l-7.65,7.657l-7.655-7.657v-25.51h-25.508l-7.652-7.649L266.346,292.981z M167.42,292.981
	h61.715l9.951,9.947l-7.645,7.649H205.93v25.51l-7.649,7.657l-7.655-7.657v-25.51h-25.509l-7.648-7.649L167.42,292.981z
	 M68.488,292.981h61.724l9.949,9.947l-7.644,7.649H107v25.51l-7.646,7.657l-7.653-7.657v-25.51H66.194l-7.652-7.649L68.488,292.981z
	 M38.654,381.983H20.311v-18.345L9.077,352.4l11.234-11.239v-18.344h18.343l11.23-11.232l11.234,11.232h18.345v18.344L90.702,352.4
	l-11.238,11.238v18.345H61.119l-11.234,11.232L38.654,381.983z M130.212,411.815H68.488l-9.946-9.944l7.652-7.65H91.7v-25.515
	l7.653-7.651l7.646,7.651v25.515h25.517l7.644,7.645L130.212,411.815z M137.588,381.983h-18.345v-18.345L108.005,352.4
	l11.238-11.239v-18.344h18.345l11.231-11.232l11.23,11.232h18.338v18.344l11.241,11.239l-11.241,11.238v18.345h-18.338l-11.23,11.23
	L137.588,381.983z M229.136,411.815H167.42l-9.952-9.95l7.648-7.645h25.509v-25.517l7.655-7.65l7.649,7.65v25.517h25.512
	l7.645,7.645L229.136,411.815z M236.512,381.983h-18.344v-18.345L206.936,352.4l11.232-11.239v-18.344h18.344l11.228-11.232
	l11.229,11.232h18.344v18.344l11.241,11.239l-11.241,11.238v18.345h-18.344l-11.229,11.23L236.512,381.983z M328.067,411.815
	h-61.722l-9.954-9.95l7.652-7.645h25.508v-25.515l7.655-7.651l7.65,7.651v25.515h25.509l7.653,7.65L328.067,411.815z
	 M335.437,381.983h-18.342v-18.345L305.859,352.4l11.235-11.239v-18.344h18.342l11.232-11.232l11.232,11.232h18.344v18.344
	l11.238,11.239l-11.238,11.238v18.345h-18.344l-11.232,11.232L335.437,381.983z M426.995,411.815h-61.724l-9.946-9.944l7.652-7.65
	h25.501v-25.517l7.656-7.65l7.653,7.65v25.517h25.514l7.646,7.645L426.995,411.815z M434.364,381.983h-18.341v-18.345L404.79,352.4
	l11.233-11.239v-18.344h18.341l11.233-11.232l11.232,11.232h18.341v18.34l11.237,11.245l-11.237,11.236v18.345H456.83l-11.232,11.23
	L434.364,381.983z M525.905,411.815h-61.7l-9.954-9.95l7.648-7.645h25.511v-25.515l7.646-7.645l7.646,7.644v25.517h25.507
	l7.646,7.645L525.905,411.815z M533.278,381.983h-18.339v-18.345l-11.228-11.23l11.239-11.247v-18.344h18.342l11.225-11.225
	l11.228,11.225h18.337v18.344l11.24,11.239l-11.24,11.238v18.345h-18.337l-11.236,11.23L533.278,381.983z"/>
</svg>
