<?xml version="1.0" encoding="utf-8"?>
<!-- Generator: Adobe Illustrator 16.0.0, SVG Export Plug-In . SVG Version: 6.00 Build 0)  -->
<!DOCTYPE svg PUBLIC "-//W3C//DTD SVG 1.1//EN" "http://www.w3.org/Graphics/SVG/1.1/DTD/svg11.dtd">
<svg version="1.1" id="Layer_1" xmlns="http://www.w3.org/2000/svg" xmlns:xlink="http://www.w3.org/1999/xlink" x="0px" y="0px"
	 width="595.28px" height="841.89px" viewBox="0 0 595.28 841.89" enable-background="new 0 0 595.28 841.89" xml:space="preserve">
<linearGradient id="SVGID_1_" gradientUnits="userSpaceOnUse" x1="77.1602" y1="478.1621" x2="623.1047" y2="343.5691">
	<stop  offset="0.0056" style="stop-color:#ECC562"/>
	<stop  offset="1" style="stop-color:#C3922E"/>
</linearGradient>
<path fill="url(#SVGID_1_)" d="M2.021,128.904V719h590.055V128.904H2.021z M576.09,284.364l-12.84,5.899v13.283l-9.106-9.357
	l-13.482,5.553l6.312-15.68l-7.807-6.046h9.2l13.536-27.721l1.621,28.552L576.09,284.364z M565.778,192.586l9.014-8.084l5.717,11.4
	l-13.026,26.69L565.778,192.586z M563.524,569.781l-1.621,28.557l-13.536-27.712h-9.2l7.807-6.048l-6.312-15.693l13.482,5.545
	l9.106-9.358v13.293l12.84,5.916L563.524,569.781z M567.482,626.026l13.026,26.682l-5.717,11.443l-9.014-8.092L567.482,626.026z
	 M297.57,681.793l-5.991-5.999h-8.413l-0.01-20.024l14.409-14.448l14.417,14.448v20.024h-8.407L297.57,681.793z M297.577,686.823
	l-0.007,0.007l-0.009-0.007l0.009-0.014L297.577,686.823z M297.561,631.204l-14.405,14.438l-0.006-20.338l-20.409-0.025
	l14.425-14.45l-14.399-14.451h20.375l0.024-20.307l14.395,14.42l14.42-14.459l0.022,20.346h20.378l-14.397,14.451l14.397,14.43
	h-16.652l-3.741,0.046l-0.007,20.359L297.561,631.204z M297.57,166.826l6.004,6.02h8.407v20.03l-14.405,14.43l-14.421-14.451
	l0.01-20.008h8.413L297.57,166.826z M297.561,161.797h0.009h0.007l-0.007,0.03L297.561,161.797z M297.577,217.424l14.405-14.438
	l0.007,20.346h20.417l-14.47,14.533l14.395,14.386h-20.493l0.061,20.247l-14.321-14.36l-14.336,14.377l0.062-20.264h-20.475
	l14.382-14.386l-14.443-14.485h16.652l3.731-0.047l0.006-20.354L297.577,217.424z M538.656,339.529l-19.061,7.872l8.222,19.451
	l-12.133-5.315l-10.555,10.608v-34.117l-23.923-23.981h14.337l4.786-12.262l8.043,19.03l19.33-7.984l-7.654,19.021L538.656,339.529z
	 M554.392,424.322l-6.004,6.012v8.449h-19.975l-14.399-14.452l14.404-14.456h19.97v8.431L554.392,424.322z M538.656,509.099
	l-18.607,7.687l7.654,19.021l-19.33-7.973l-8.043,19.01l-4.786-12.27h-14.409l23.995-23.965v-34.108l10.555,10.582l12.133-5.299
	l-8.222,19.459L538.656,509.099z M429.026,576.614l-14.34,14.43v-20.449h-20.23l11.764-11.777l2.564-2.735l-2.723-2.466
	l-11.853-11.889h20.535l-0.016-20.473l14.378,14.436l14.362-14.34v20.403h20.39l-14.367,14.364l14.422,14.459l-20.421-0.016v20.578
	L429.026,576.614z M443.492,601.257v16.769l-14.389,5.574l-14.417-5.67v-16.75l14.353-14.42L443.492,601.257z M166.049,576.705
	l-14.397,14.435v-20.578l-20.425,0.016l14.429-14.459l-14.375-14.364h20.352l0.011-20.32l14.311,14.348l14.466-14.526l-0.024,20.473
	h20.539l-14.446,14.477l14.314,14.391h-16.78l-3.568,0.039v20.521L166.049,576.705z M180.455,601.283v16.646l-14.41,5.67
	l-14.393-5.574v-16.769l14.397-14.432L180.455,601.283z M9.511,513.902v-9.18l15.261-13.754l-0.021,12.768l12.981,5.362
	L24.75,514.47v2.394v10.784L9.511,513.902z M24.75,537.785v15.986l-15.239,6.427v-36.151L24.75,537.785z M24.75,320.992v10.786
	v2.411l12.981,5.349l-12.981,5.345l0.021,12.798L9.511,344.723v-8.466L24.75,320.992z M9.511,326.129V288.42l15.239,6.436v15.996
	L9.511,326.129z M151.724,278.016l-0.03-20.472l14.436,14.46l14.326-14.412v20.44h20.348l-14.314,14.404l14.396,14.421l-20.415-0.03
	v20.592l-14.425-14.459l-14.377,14.317v-16.801l-0.032-3.592H131.28l14.375-14.364l-14.471-14.503H151.724z M151.656,230.625
	l14.389-5.596l14.41,5.669v16.758l-14.343,14.412l-14.438-14.459L151.656,230.625z M429.102,271.939l14.352-14.395l-0.025,20.472
	h20.529l-14.386,14.438l14.401,14.43h-20.504v20.294l-11.757-11.769l-2.729-2.597l-2.464,2.728l-11.79,11.832l0.016-20.467h-20.531
	l11.872-11.894l2.784-2.532l-14.413-14.447h16.677l3.554-0.047v-20.498L429.102,271.939z M414.687,247.361v-16.663l14.417-5.669
	l14.389,5.596l-0.023,16.784l-14.367,14.395L414.687,247.361z M471.018,534.574h-20.408v-20.347l18.574-18.542v-26.335
	l14.398-14.442l14.425,14.451l-0.021,38.285L471.018,534.574z M473.976,541.754h16.698l5.665,14.45l-5.559,14.411l-16.75-0.021
	l-14.436-14.469L473.976,541.754z M133.09,466.382V445.94h20.309l27.071,27.184l-0.043,38.004l-14.484,14.533l-14.287-14.339
	l0.011-26.326L133.09,466.382z M56.491,509.099l19.049-7.855l-8.219-19.459l12.132,5.299l10.564-10.582v34.108l23.999,23.965H99.6
	l-4.795,12.27l-8.033-19.01l-19.333,7.973l7.658-19.021L56.491,509.099z M19.294,453.657l-3.899-3.913l3.889-3.82h12.605V433.29
	l3.865-3.856l3.86,3.856v12.634l19.98,0.008l-10.688,10.721l5.051,11.408l-11.398-5.063l-10.67,10.721v-20.061H19.294z
	 M67.439,312.83l19.333,7.984l8.033-19.03l4.795,12.262h14.417l-23.999,23.981v34.099l-10.564-10.59l-12.132,5.315l8.219-19.451
	l-19.049-7.872l18.605-7.678L67.439,312.83z M462.051,382.246v20.449l-20.269,0.03l-27.105-27.214l0.036-38.004l14.484-14.524
	l14.282,14.321v26.348L462.051,382.246z M450.609,360.676v-16.221l11.441,11.473v16.199L450.609,360.676z M453.218,424.322
	l-14.398,14.442l-19.563-0.029l-5.965-14.413l5.965-14.412l19.574-0.026L453.218,424.322z M431.707,402.734l-17.217,0.009
	l-5.062,12.214l-7.473-18.032l-16.747,6.956l7.993-19.403l-19.278-7.973l16.785-6.984l-7.459-18.032l12.429,5.104l11.896-11.929
	l-0.039,33.814L431.707,402.734z M324.664,451.468l-19.039-7.898l-8.055,19.428l-8.046-19.428l-19.034,7.898l7.891-19.077
	l-19.401-8.068l19.401-8.076l-7.891-19.086l19.034,7.929l8.046-19.458l8.055,19.458l19.039-7.929l-7.898,19.086l19.398,8.076
	l-19.398,8.068L324.664,451.468z M325.216,459.444l-9.218,9.248h-13.047l6.533-15.788L325.216,459.444z M297.57,472.346
	l-0.009-0.018h0.009h0.007L297.57,472.346z M304.738,498.972l-5.803-2.402l-0.662-0.259h-0.044l-0.742-0.309l-7.07,2.943
	l7.152-17.307L304.738,498.972z M292.194,468.692h-13.041l-9.217-9.248l15.717-6.54L292.194,468.692z M246.171,402.882v16.083
	l-26.918-11.196l-7.985-19.412l19.251-7.984l26.929,11.212L246.171,402.882z M262.53,396.602l6.52,15.783l-15.743,6.54v-13.083
	L262.53,396.602z M223.109,417.125l17.28,7.197l-17.28,7.18l2.389-5.807l0.275-0.677V423.6L223.109,417.125z M213.791,413.252
	l4.551,11.07l-4.551,11.066l-16.751,6.965l-7.464-18.031l7.464-18.039L213.791,413.252z M219.253,440.868l26.918-11.192v16.078
	l11.276,11.305l-26.929,11.188l-19.251-7.968L219.253,440.868z M253.307,442.79v-13.079l15.743,6.548l-6.52,15.775L253.307,442.79z
	 M269.937,389.184l9.217-9.25h13.041l-6.541,15.788L269.937,389.184z M297.57,376.299l0.007,0.013h-0.007h-0.009L297.57,376.299z
	 M290.396,349.648l7.181,2.978l7.173-2.978l-7.18,17.342L290.396,349.648z M302.951,379.935h13.047l9.218,9.25l-15.731,6.539
	L302.951,379.935z M372.047,431.502l-17.298-7.18l17.289-7.197l-2.958,7.197L372.047,431.502z M348.982,418.964v-16.083
	l-11.288-11.297l26.902-11.192l19.285,7.963l-7.997,19.412L348.982,418.964z M341.838,405.843v13.083l-15.745-6.54l6.527-15.783
	L341.838,405.843z M341.838,429.711v13.079l-9.218,9.244l-6.527-15.775L341.838,429.711z M348.982,445.754v-16.078l26.915,11.192
	l7.984,19.411l-19.285,7.968l-26.902-11.188L348.982,445.754z M381.358,435.389l-4.553-11.066l4.544-11.07l16.747-6.969
	l7.468,18.039l-7.468,18.031L381.358,435.389z M407.582,334.531l-13.603,13.633l-14.512-5.956l-5.944-14.56l13.551-13.576h20.528
	L407.582,334.531z M373.951,347.726l7.434,17.93l-16.788,6.982l-10.904-4.519l-4.564-11.031l6.963-16.797L373.951,347.726z
	 M355.263,376.524l-17.12,7.132l7.117-17.221l2.965,7.158L355.263,376.524z M330.222,384.082l-11.279-11.314h-16.033l11.163-26.967
	l19.358-8.024l7.97,19.312L330.222,384.082z M308.61,340.325l-11.034,4.557l-11.04-4.574l-6.957-16.784l17.99-7.487l17.992,7.487
	L308.61,340.325z M281.076,345.8l11.167,26.967h-16.05l-11.276,11.314l-11.164-26.967l7.96-19.338L281.076,345.8z M257.008,383.657
	l-17.156-7.15l7.145-2.968l2.903-7.05L257.008,383.657z M241.527,368.059l-10.995,4.57l-16.771-6.973l7.405-17.891l17.905-7.474
	l6.962,16.831L241.527,368.059z M215.673,342.208l-14.516,5.956l-13.547-13.587v-20.579l20.424,0.017l13.587,13.633L215.673,342.208
	z M199.472,356.595l12.419-5.104l-7.459,18.032l16.771,6.977l-19.26,7.98l7.996,19.403l-16.751-6.956l-7.438,17.958l-4.947-12.197
	l-17.331,0.009l24.139-24.215v-33.767L199.472,356.595z M76.819,438.783l14.41-14.461l-14.41-14.447l20.32-0.03l0.013-20.441
	l14.447,14.498l14.354-14.441v20.385h20.3l-14.417,14.477l14.432,14.486l-20.315-0.009v20.423l-14.397-14.43l-14.393,14.43v-20.439
	H76.819z M40.802,424.361l-0.045-0.039l0.045-0.056l5.947-5.96v-8.431h19.979l14.406,14.447l-14.406,14.461H46.749v-8.449
	L40.802,424.361z M57.419,390.417l6.248-14.16l14.187-6.208l12.164,12.197v20.449H69.683L57.419,390.417z M69.678,445.932h20.339
	v20.45l-12.164,12.187l-14.187-6.188l-6.248-14.16L69.678,445.932z M141.929,424.322l14.415-14.477h19.66l5.854,14.477
	l-5.854,14.486h-19.643L141.929,424.322z M180.47,375.512l-27.088,27.184H133.09v-20.401l18.578-18.65v-26.249l14.356-14.339
	l14.446,14.491V375.512z M133.09,372.167v-16.239l11.437-11.417v16.166L133.09,372.167z M144.526,334.409l-18.574,18.533v26.4
	l-14.355,14.426l-14.445-14.482l0.011-38.272l26.955-26.967h20.408V334.409z M121.175,306.883h-16.708l-5.657-14.447l5.568-14.421
	h16.71l14.469,14.486L121.175,306.883z M66.158,351.262l-8.351,19.771l-13.67,6.06L31.913,364.83l-0.018-15.143l15.215-6.28
	L66.158,351.262z M42.559,385.63l11.398-5.064l-5.051,11.435l10.69,10.704H39.614v12.633l-3.86,3.878l-3.865-3.878v-12.633H19.294
	l-3.86-3.874l3.86-3.86h12.594v-20.022L42.559,385.63z M31.913,483.807l12.224-12.267l13.67,6.063l8.351,19.762l-19.047,7.864
	l-15.215-6.276L31.913,483.807z M104.466,541.754h16.708l14.382,14.372l-14.44,14.469l-16.738,0.021l-5.568-14.411L104.466,541.754z
	 M97.163,507.645v-38.294l14.393-14.442l14.397,14.442v26.327l18.556,18.598l-0.013,20.299h-20.378L97.163,507.645z M133.09,492.712
	v-16.211l11.437,11.45l-0.006,16.214L133.09,492.712z M163.48,445.94h17.323l4.947-12.204l7.438,17.974l16.751-6.973l-7.996,19.411
	l19.26,7.994l-16.771,6.964l7.459,18.021l-12.419-5.103l-11.889,11.928l0.028-33.796L163.48,445.94z M187.567,514.089l13.59-13.633
	l14.516,5.973l5.949,14.542l-13.551,13.593h-20.517L187.567,514.089z M221.183,500.919l-7.422-17.926l16.771-6.995l10.995,4.575
	l4.5,10.941l-6.971,16.823L221.183,500.919z M239.853,472.121l17.15-7.119l-7.102,17.155l-2.903-7.068L239.853,472.121z
	 M264.914,464.547l11.28,11.312h16.05l-11.167,26.941l-19.364,8.043l-7.958-19.321L264.914,464.547z M286.537,508.303l10.998-4.566
	l11.076,4.575l6.95,16.806l-17.992,7.473l-17.99-7.473L286.537,508.303z M314.072,502.84l-11.163-26.98h16.033l11.279-11.312
	l11.179,26.997l-7.97,19.3L314.072,502.84z M338.143,465.002l17.114,7.109l-7.032,2.913l-2.965,7.172L338.143,465.002z
	 M353.692,480.517l10.904-4.519l16.788,6.995l-7.414,17.917l-17.88,7.428l-6.963-16.794L353.692,480.517z M379.468,506.429
	l14.512-5.973l13.603,13.633l0.021,20.475h-20.528l-13.551-13.593L379.468,506.429z M407.535,470.156l0.039,33.796l-11.896-11.928
	l-12.429,5.103l7.459-18.021l-16.785-6.985l19.269-7.973l-7.983-19.411l16.747,6.973l7.473-18.048l5.062,12.223l17.211,0.021
	L407.535,470.156z M441.782,445.915l20.269,0.025v20.441l-18.571,18.614v26.254l-14.363,14.32l-14.403-14.442l-0.036-38.004
	L441.782,445.915z M462.051,476.501v16.198l-11.441,11.418v-16.166L462.051,476.501z M483.582,444.793l-14.398,14.43v-20.414
	l-20.286-0.025l14.409-14.461l-14.396-14.447l20.273-0.03v-20.419l14.398,14.43l14.404-14.43v16.701l0.031,3.718l20.322,0.03
	l-14.425,14.456l14.401,14.452h-20.299l-0.008,20.475L483.582,444.793z M497.986,379.286l-14.404,14.443l-14.398-14.443V352.95
	l-18.574-18.606v-20.298h20.501l26.876,26.958V379.286z M459.66,292.454l14.398-14.438h16.714l5.566,14.421l-5.665,14.447h-16.607
	L459.66,292.454z M471.101,270.853h-20.532l0.033-20.484l11.791-11.815l14.243,6.232l6.219,14.3L471.101,270.853z M407.562,270.861
	h-20.239l-18.571-18.61h-26.315l-14.395-14.386l14.456-14.511l38.182,0.026l26.883,26.933V270.861z M377.227,270.861h-16.185
	l-11.457-11.46h16.202L377.227,270.861z M358.085,278.024l26.282,0.008l14.264,14.308l-14.514,14.564h-37.873l-27.176-27.223
	l-0.067-20.281h20.472L358.085,278.024z M319.155,307.238l-0.056-17.407l24.184,24.241h33.695l-11.865,11.88l5.097,12.456
	l-17.986-7.474l-6.96,16.814l-7.963-19.312l-19.365,8.007l6.957-16.788l-17.903-7.466L319.155,307.238z M297.57,308.311
	l-14.428-5.885l0.061-19.774l14.374-14.404l14.357,14.404l0.061,19.774L297.57,308.311z M288.167,312.189l-17.911,7.466
	l6.951,16.788l-19.372-8.007l-7.944,19.32l-6.974-16.831l-17.99,7.509l5.101-12.482l-11.887-11.919l33.712,0.039l24.189-24.233
	l-0.048,17.399L288.167,312.189z M276.08,279.69l-27.172,27.214l-37.921-0.031l-14.404-14.446l14.287-14.395l26.182-0.008
	l18.61-18.623h20.478L276.08,279.69z M217.976,270.861l11.394-11.46h16.186l-11.462,11.46H217.976z M252.71,252.251h-26.314
	l-18.487,18.61h-20.317v-20.467l26.881-27.015h38.194l14.431,14.485L252.71,252.251z M124.049,270.853l-11.751-11.768l6.217-14.3
	l14.24-6.232l11.789,11.815l0.024,20.484H124.049z M113.114,239.389l-14.222,5.99L71.13,220.467l-12.519-35.74l35.634,12.547
	l24.856,27.833L113.114,239.389z M97.501,253.723l11.421-4.804l-5.114,11.763l10.141,10.171H99.474l-4.49,11.676l-4.495-11.676
	H76.901l9.342-7.241L76.03,234.472L97.501,253.723z M85.601,278.016l5.483,14.234l-8.13,19.233l-19.251-7.929l-6.894-17.139
	l10.844-8.4H85.601z M58.205,309.017l7.622,18.931l-18.716,7.725l-15.215-6.289l0.018-15.611l10.837-11.136L58.205,309.017z
	 M24.75,367.769v20.061h-8.41l-6.83,5.609v-38.597L24.75,367.769z M16.34,409.875h8.41v8.431l5.99,6.016h0.008l-0.045,0.039
	l-5.953,5.973v8.449h-8.392l-6.847,5.543v-40.089L16.34,409.875z M16.34,460.825h8.41v20.033L9.511,494.596v-39.415L16.34,460.825z
	 M47.11,512.977l18.716,7.717l-7.622,18.908l-15.456,6.39l-10.837-11.138l-0.018-15.601L47.11,512.977z M63.703,545.071
	l19.251-7.928l8.13,19.234l-5.483,14.248H67.653l-10.844-8.397L63.703,545.071z M90.489,577.782l4.495-11.668l4.49,11.668
	l14.497-0.015l-10.163,10.182l5.114,11.777l-11.421-4.831L76.03,614.164l10.214-29.157l-9.342-7.225H90.489z M98.892,603.27
	l14.222,5.999l5.988,14.256l-24.843,27.853l-35.647,12.516l12.519-35.724L98.892,603.27z M118.515,603.863l-6.217-14.29
	l11.779-11.829l20.432-0.034v20.579l-11.754,11.798L118.515,603.863z M187.592,577.768h20.317l18.487,18.609h26.271l14.396,14.451
	l-14.418,14.45l-38.185-0.021l-26.868-26.951V577.768z M217.976,577.768h16.117l11.424,11.458H229.37L217.976,577.768z
	 M237.051,570.595h-26.182l-14.287-14.383l14.451-14.484h37.874l27.121,27.179L276,589.218h-20.373L237.051,570.595z
	 M251.853,534.563h-33.684l11.858-11.879l-5.09-12.466l17.98,7.475l6.973-16.812l7.944,19.32l19.375-8.034l-6.954,16.807l18,7.504
	l-12.196,5.056l-0.018,17.269L251.853,534.563z M283.195,546.322l14.375-5.998l14.376,5.998l0.025,19.621l-14.407,14.419
	l-14.395-14.411L283.195,546.322z M306.896,536.478l17.997-7.504l-6.957-16.784l19.365,8.012l7.963-19.3l6.961,16.792l17.985-7.482
	l-5.097,12.474l11.865,11.879h-33.685l-24.193,24.238l-0.015-17.269L306.896,536.478z M346.244,541.728h37.873l14.514,14.56
	l-14.264,14.308h-26.282l-18.571,18.623h-20.378l-0.016-20.312L346.244,541.728z M377.227,577.768l-11.439,11.45h-16.169
	l11.434-11.45H377.227z M342.479,596.377h26.272l18.571-18.609h20.239v20.457l-26.893,27.033h-38.19l-14.399-14.43L342.479,596.377z
	 M450.631,577.71l20.441,0.034l11.782,11.829l-6.219,14.29l-14.243,6.224l-11.762-11.798V577.71z M479.316,606.544l-0.091-0.058
	l-0.039-0.09l0.091,0.044L479.316,606.544z M482.033,609.269l14.218-5.999l27.761,24.899l12.521,35.724l-35.641-12.516
	l-24.853-27.853L482.033,609.269z M497.646,594.896l-11.428,4.831l5.121-11.777l-10.161-10.182l14.489,0.015l4.488-11.668
	l4.5,11.668h13.59l-9.353,7.225l10.21,29.157L497.646,594.896z M509.549,570.626l-5.488-14.228l8.13-19.255l19.24,7.928
	l6.902,17.157l-10.848,8.397H509.549z M517.296,478.568l-12.166-12.187v-20.45h20.325l12.267,12.288l-6.242,14.16L517.296,478.568z
	 M525.457,402.695H505.13v-20.449l12.166-12.197l14.184,6.208l6.242,14.16L525.457,402.695z M512.19,311.483l-8.13-19.233
	l5.488-14.234h17.937l10.848,8.4l-6.902,17.139L512.19,311.483z M504.656,270.853l-4.5,11.676l-4.488-11.676h-14.479l10.15-10.171
	l-5.121-11.781l11.428,4.822l21.457-19.251l-10.21,29.141l9.358,7.241H504.656z M496.251,245.378l-14.218-5.99l-5.993-14.282
	l24.853-27.833l35.641-12.547l-12.521,35.74L496.251,245.378z M496.803,191.132l-36.449,12.819l-9.723-12.594v-14.032l35.055-17.199
	l36.925,2.095L496.803,191.132z M457.85,212.434l29.084-10.236l-19.224,21.515l4.812,11.456l-11.746-5.12l-10.167,10.192
	l0.031-14.533l-11.635-4.497l11.625-4.527V203.06L457.85,212.434z M443.492,211.785l-14.199,5.501l-19.198-8.149l7.923-19.303
	l17.098-6.903l8.377,10.863V211.785z M412.561,184.324l-18.865,7.639l-7.699-18.762l6.252-15.269l15.567,0.026l11.106,10.872
	L412.561,184.324z M389.799,201.255l18.97-7.665l-7.96,19.376l18.966,8.05l-12.213,4.812v14.39l-23.917-23.99h-34.029l10.566-10.591
	l-5.294-12.17l19.398,8.236l7.846-19.104L389.799,201.255z M370.44,192.292l-19.723-8.384l-6.043-13.698l12.231-12.252l15.1-0.026
	l6.271,15.269L370.44,192.292z M345.502,189.794l6.184,14.213l-12.172,12.222h-20.385v-20.402l12.266-12.3L345.502,189.794z
	 M276.014,216.229h-20.386l-12.171-12.222l6.186-14.213l14.107-6.267l12.27,12.296L276.014,216.229z M244.424,183.908l-19.711,8.384
	l-7.838-19.091l6.258-15.269l15.107,0.026l12.234,12.252L244.424,183.908z M220.848,201.705l19.412-8.236l-5.292,12.17
	l10.565,10.591h-34.021l-23.92,24.046v-14.446l-12.223-4.812l18.959-8.05l-7.941-19.376l18.965,7.665l7.654-18.653L220.848,201.705z
	 M201.443,191.963l-18.867-7.639l-6.352-15.494l11.106-10.872l15.559-0.026l6.256,15.269L201.443,191.963z M177.133,189.833
	l7.909,19.303l-19.189,8.149l-14.201-5.501v-17.991l8.377-10.863L177.133,189.833z M156.143,221.211l-11.642,4.497l0.023,14.533
	l-10.162-10.192l-11.744,5.12l4.808-11.456l-19.206-21.515l29.071,10.236l7.217-9.375v13.625L156.143,221.211z M144.509,191.357
	l-9.711,12.594l-36.453-12.819l-25.81-28.911l36.921-2.095l35.052,17.199V191.357z M84.372,186.22l-28.784-10.132l-0.112-0.043
	l-4.778-12.568l12.72-0.724L84.372,186.22z M60.092,210.552l-23.406-21l0.725-12.768l12.531,4.795l0.042,0.112L60.092,210.552z
	 M64.998,224.574l12.795,36.541l-12.57,9.738H51.229l-17.16-35.148l2.099-37.017L64.998,224.574z M46.77,278.016h9.21l-7.818,6.046
	l6.317,15.68L41,294.189l-9.111,9.357v-13.283l-12.828-5.899l12.555-5.518l1.619-28.552L46.77,278.016z M27.665,222.601
	l-13.034-26.699l5.717-11.4l9.013,8.084L27.665,222.601z M26.829,237.181l-2.09,36.875l-15.229,6.128v-77.263L26.829,237.181z
	 M9.511,568.453l15.229,6.123l2.09,36.892L9.511,644.353V568.453z M27.665,626.026l1.697,30.033l-9.013,8.092l-5.717-11.443
	L27.665,626.026z M19.061,564.28l12.828-5.916v-13.293L41,554.43l13.479-5.545l-6.317,15.693l7.818,6.048h-9.21l-13.535,27.72
	l-1.619-28.564L19.061,564.28z M51.229,577.782h13.994l12.57,9.747l-12.795,36.542l-28.831,25.854l-2.099-37.003L51.229,577.782z
	 M60.092,638.076l-10.108,28.85l-0.042,0.132l-12.531,4.794l-0.725-12.771L60.092,638.076z M55.477,672.605l0.112-0.049
	l28.784-10.136l-20.954,23.47l-12.72-0.73L55.477,672.605z M98.345,657.505l36.453-12.829l9.711,12.617v14.013l-35.052,17.222
	l-36.921-2.124L98.345,657.505z M137.292,636.203l-29.071,10.227l19.206-21.524l-4.808-11.456l11.744,5.144l10.147-10.185v14.534
	l11.634,4.496l-11.634,4.504v13.635L137.292,636.203z M151.652,636.851l14.201-5.509l19.189,8.154l-7.909,19.299l-17.104,6.908
	l-8.377-10.861V636.851z M182.576,664.312l18.867-7.644l7.702,18.764l-6.256,15.256l-15.559-0.019l-11.106-10.85L182.576,664.312z
	 M205.352,647.369l-18.965,7.667l7.941-19.361l-18.959-8.061l12.223-4.814v-14.376l23.92,24.003h34.005l-10.55,10.576l5.292,12.155
	l-19.412-8.219l-7.842,19.095L205.352,647.369z M224.712,656.345l19.711,8.366l6.051,13.707l-12.234,12.251l-15.107,0.019
	l-6.258-15.256L224.712,656.345z M249.642,658.828l-6.186-14.217l12.171-12.185h20.386l0.005,20.377l-12.27,12.288L249.642,658.828z
	 M319.129,632.427h20.385l12.172,12.185l-6.184,14.217l-14.107,6.264l-12.266-12.288V632.427z M350.718,664.711l19.723-8.366
	l7.837,19.087l-6.271,15.256l-15.1-0.019l-12.231-12.251L350.718,664.711z M374.286,646.939l-19.398,8.219l5.294-12.155
	l-10.563-10.576h34.026l23.917-24.057v14.43l12.213,4.814l-18.966,8.061l7.96,19.361l-18.97-7.667l-7.667,18.665L374.286,646.939z
	 M393.695,656.668l18.865,7.644l6.361,15.508l-11.106,10.85l-15.567,0.019l-6.252-15.256L393.695,656.668z M418.018,658.795
	l-7.923-19.299l19.198-8.154l14.199,5.509v17.991l-8.377,10.861L418.018,658.795z M439.001,627.438l11.63-4.496v-14.534
	l10.146,10.185l11.746-5.144l-4.812,11.456l19.224,21.524l-29.084-10.227l-7.219,9.374v-13.635L439.001,627.438z M450.631,657.293
	l9.723-12.617l36.449,12.829l25.808,28.898l-36.925,2.124l-35.055-17.222V657.293z M510.769,662.421l28.787,10.136l0.111,0.049
	l4.792,12.555l-12.738,0.73L510.769,662.421z M535.049,638.076l23.41,21.004l-0.726,12.771l-12.523-4.794l-0.05-0.132
	L535.049,638.076z M530.15,624.079l-12.808-36.55l12.572-9.747h14.002l17.165,35.141l-2.11,37.003L530.15,624.079z M563.229,534.854
	l-10.824,11.138l-15.474-6.39l-7.615-18.908l18.709-7.717l15.225,6.276L563.229,534.854z M528.993,497.365l8.34-19.762l13.676-6.063
	l12.221,12.267l0.021,15.146l-15.225,6.276L528.993,497.365z M552.581,462.997l-11.394,5.063l5.043-11.408l-10.68-10.721
	l19.986-0.008V433.29l3.852-3.856l3.861,3.856v12.634h12.596l3.865,3.864l-3.865,3.869H563.25v20.061L552.581,462.997z
	 M563.25,415.338l-3.861,3.878l-3.852-3.878v-12.633h-19.979l10.672-10.704l-5.043-11.435l11.394,5.064l10.669-10.689v20.03h12.596
	l3.865,3.86l-3.865,3.874H563.25V415.338z M563.229,364.83l-12.221,12.262l-13.676-6.06l-8.34-19.771l19.032-7.854l15.225,6.28
	L563.229,364.83z M529.316,327.948l7.61-18.931l15.479-6.38l10.824,11.136l0.021,15.611l-15.225,6.289L529.316,327.948z
	 M543.917,270.853h-14.002l-12.572-9.738l12.808-36.541l28.821-25.886l2.11,37.017L543.917,270.853z M535.054,210.552l10.106-28.859
	l0.05-0.112l12.523-4.795l0.726,12.768L535.054,210.552z M539.667,176.044l-0.111,0.043l-28.787,10.132l20.952-23.467l12.738,0.724
	L539.667,176.044z M528.695,155.409l-29.932-1.727l26.616-13.048l11.394,5.734L528.695,155.409z M517.73,136.426l-33.511,16.442
	l-36.783-2.107l-6.258-14.334H517.73z M442.658,157.664l28.486,1.632l-27.652,13.559v9.236l-6.035-7.838l-15.637,6.323l5.543-13.495
	l-9.34-9.149h13.251l5.885-12.854L442.658,157.664z M433.266,136.426l-6.573,14.351h-15.966l-14.306-14.351H433.266z
	 M386.329,136.426l14.314,14.351h-10.782l-2.378-0.017l-5.352,13.031l-5.34-13.031l-12.738,0.03l14.325-14.365H386.329z
	 M368.295,136.426l-14.335,14.351h-19.979v-8.426l-5.911-5.925H368.295z M319.12,145.29l3.821-3.886l3.909,3.899v12.629h19.975
	l-10.661,10.694l5.04,11.435l-11.398-5.055l-10.677,10.703l-0.009-20.034h-12.596l-3.858-3.878l3.858-3.865h12.596V145.29z
	 M317.817,136.426l-5.836,5.934v8.417h-8.407l-6.004,6.012l-5.991-6.012h-8.413v-8.426l-5.909-5.925H317.817z M268.295,145.303
	l3.87-3.874l3.858,3.874v12.629h12.592l3.872,3.865l-3.872,3.878h-12.592l-0.004,20.034l-10.678-10.703l-11.396,5.055l5.034-11.435
	l-10.66-10.694h19.975V145.303z M267.084,136.426l-5.912,5.925v8.426h-19.993l-14.315-14.351H267.084z M216.76,136.426
	l14.341,14.365l-12.742-0.03l-5.35,13.031l-5.339-13.031l-2.395,0.017h-10.779l14.317-14.351H216.76z M198.719,136.426
	l-14.311,14.351h-15.959l-6.572-14.351H198.719z M163.868,157.932h13.266l-9.347,9.149l5.538,13.495l-15.641-6.323l-6.031,7.838
	v-9.236l-27.646-13.559l28.478-1.632l5.501-12.586L163.868,157.932z M153.97,136.426l-6.265,14.334l-36.781,2.107l-33.516-16.442
	H153.97z M96.374,153.682l-29.928,1.727l-8.068-9.041l11.382-5.734L96.374,153.682z M62.226,136.426l-15.396,7.734l10.497,11.759
	l-16.784,0.961l5.984,15.728l-15.683-5.994l-0.963,16.832l-11.718-10.517l-8.652,14.534v-51.036H62.226z M9.511,711.491v-50.601
	l8.652,14.818l11.718-10.527l0.963,16.844l15.683-6.012l-5.984,15.72l16.784,0.967l-10.497,11.767l13.975,7.024H9.511z
	 M58.378,702.26l8.068-9.031l29.925,1.709L69.76,708.003L58.378,702.26z M78.864,711.491l32.06-15.722l36.781,2.098l5.946,13.624
	H78.864z M152.483,690.978l-28.472-1.624l27.64-13.567v-9.241l6.031,7.83l15.641-6.336l-5.538,13.533l9.347,9.123h-13.266
	l-5.883,12.886L152.483,690.978z M162.206,711.491l6.243-13.632h15.97l13.585,13.632H162.206z M208.104,711.491l-13.607-13.632
	h10.523h2.651l5.339-13.033l5.35,13.033l12.742-0.013l-13.621,13.645H208.104z M227.569,711.491l13.609-13.632h19.993v8.426
	l5.193,5.206H227.569z M276.022,703.338l-3.823,3.896l-3.905-3.914v-12.624H248.32l10.66-10.703l-5.034-11.425l11.396,5.054
	l10.678-10.703l0.004,20.035h12.592l3.872,3.87l-3.872,3.872h-12.592V703.338z M278.029,711.491l5.137-5.214v-8.418h8.413
	l5.991-6.022l6.004,6.022h8.407v8.426l5.193,5.206H278.029z M326.851,703.319l-3.871,3.875l-3.859-3.875v-12.624h-12.596
	l-3.858-3.872l3.858-3.87h12.596l0.009-20.021l10.677,10.689l11.398-5.054l-5.04,11.425l10.661,10.703h-19.975V703.319z
	 M328.785,711.491l5.196-5.206v-8.426h19.979l13.62,13.632H328.785z M377.676,711.491l-13.622-13.645l12.738,0.013l5.34-13.033
	l5.352,13.033h2.713h10.447l-13.608,13.632H377.676z M397.134,711.491l13.593-13.632h15.966l6.242,13.632H397.134z M431.274,690.695
	h-13.251l9.34-9.123l-5.543-13.533l15.637,6.336l6.035-7.83v9.241l27.649,13.567l-28.483,1.624l-5.499,12.604L431.274,690.695z
	 M441.495,711.491l5.941-13.624l36.783-2.098l32.048,15.722H441.495z M498.771,694.938l29.924-1.709l8.078,9.031l-11.394,5.743
	L498.771,694.938z M584.593,711.491h-50.254l13.964-7.024L537.814,692.7l16.798-0.967l-5.996-15.72l15.693,6.012l0.948-16.844
	l11.733,10.527l7.602-15.179V711.491z M584.593,644.798l-16.281-33.338l2.101-36.884l14.181-6.214V644.798z M584.593,560.312
	l-14.201-6.541v-15.996l14.201-14.226V560.312z M584.593,513.617l-14.201,14.03v-10.524l0.002-2.653l-12.984-5.371l12.984-5.362
	l-0.018-12.768l14.217,14.179V513.617z M584.593,495.093l-14.201-14.234v-20.033h8.415l5.786-5.805V495.093z M584.593,444.569
	l-5.786-5.786h-8.415v-8.449l-5.999-6.012l5.999-6.016v-8.431h8.415l5.786-5.809V444.569z M584.593,393.616l-5.786-5.786h-8.415
	v-20.061l14.201-14.234V393.616z M584.593,343.407l-14.217,14.252l0.018-12.777l-12.984-5.345l12.984-5.349l-0.002-2.744v-10.453
	l14.201,14.217V343.407z M584.593,325.082l-14.201-14.217v-16.008l14.201-6.531V325.082z M584.593,280.288l-14.181-6.232
	l-2.101-36.875l16.281-33.351V280.288z M584.593,188.111l-7.602-15.183l-11.733,10.517l-0.948-16.832l-15.693,5.994l5.996-15.728
	l-16.798-0.961l10.488-11.759l-15.389-7.734h51.679V188.111z"/>
</svg>
