  0
SECTION
  2
HEADER
  9
$ACADVER
  1
AC1018
  9
$ACADMAINTVER
 70
     0
  9
$DWGCODEPAGE
  3
ANSI_932
  9
$INSBASE
 10
0.0
 20
0.0
 30
0.0
  9
$EXTMIN
 10
1.000000000000000E+20
 20
1.000000000000000E+20
 30
1.000000000000000E+20
  9
$EXTMAX
 10
-1.000000000000000E+20
 20
-1.000000000000000E+20
 30
-1.000000000000000E+20
  9
$LIMMIN
 10
0.0
 20
0.0
  9
$LIMMAX
 10
12.0
 20
9.0
  9
$ORTHOMODE
 70
     0
  9
$REGENMODE
 70
     1
  9
$FILLMODE
 70
     1
  9
$QTEXTMODE
 70
     0
  9
$MIRRTEXT
 70
     1
  9
$LTSCALE
 40
1.0
  9
$ATTMODE
 70
     1
  9
$TEXTSIZE
 40
0.2
  9
$TRACEWID
 40
0.05
  9
$TEXTSTYLE
  7
Standard
  9
$CLAYER
  8
0
  9
$CELTYPE
  6
ByLayer
  9
$CECOLOR
 62
   256
  9
$CELTSCALE
 40
1.0
  9
$DISPSILH
 70
     0
  9
$DIMSCALE
 40
1.0
  9
$DIMASZ
 40
0.18
  9
$DIMEXO
 40
0.0625
  9
$DIMDLI
 40
0.38
  9
$DIMRND
 40
0.0
  9
$DIMDLE
 40
0.0
  9
$DIMEXE
 40
0.18
  9
$DIMTP
 40
0.0
  9
$DIMTM
 40
0.0
  9
$DIMTXT
 40
0.18
  9
$DIMCEN
 40
0.09
  9
$DIMTSZ
 40
0.0
  9
$DIMTOL
 70
     0
  9
$DIMLIM
 70
     0
  9
$DIMTIH
 70
     1
  9
$DIMTOH
 70
     1
  9
$DIMSE1
 70
     0
  9
$DIMSE2
 70
     0
  9
$DIMTAD
 70
     0
  9
$DIMZIN
 70
     0
  9
$DIMBLK
  1

  9
$DIMASO
 70
     1
  9
$DIMSHO
 70
     1
  9
$DIMPOST
  1

  9
$DIMAPOST
  1

  9
$DIMALT
 70
     0
  9
$DIMALTD
 70
     2
  9
$DIMALTF
 40
25.4
  9
$DIMLFAC
 40
1.0
  9
$DIMTOFL
 70
     0
  9
$DIMTVP
 40
0.0
  9
$DIMTIX
 70
     0
  9
$DIMSOXD
 70
     0
  9
$DIMSAH
 70
     0
  9
$DIMBLK1
  1

  9
$DIMBLK2
  1

  9
$DIMSTYLE
  2
Standard
  9
$DIMCLRD
 70
     0
  9
$DIMCLRE
 70
     0
  9
$DIMCLRT
 70
     0
  9
$DIMTFAC
 40
1.0
  9
$DIMGAP
 40
0.09
  9
$DIMJUST
 70
     0
  9
$DIMSD1
 70
     0
  9
$DIMSD2
 70
     0
  9
$DIMTOLJ
 70
     1
  9
$DIMTZIN
 70
     0
  9
$DIMALTZ
 70
     0
  9
$DIMALTTZ
 70
     0
  9
$DIMUPT
 70
     0
  9
$DIMDEC
 70
     4
  9
$DIMTDEC
 70
     4
  9
$DIMALTU
 70
     2
  9
$DIMALTTD
 70
     2
  9
$DIMTXSTY
  7
Standard
  9
$DIMAUNIT
 70
     0
  9
$DIMADEC
 70
     0
  9
$DIMALTRND
 40
0.0
  9
$DIMAZIN
 70
     0
  9
$DIMDSEP
 70
    46
  9
$DIMATFIT
 70
     3
  9
$DIMFRAC
 70
     0
  9
$DIMLDRBLK
  1

  9
$DIMLUNIT
 70
     2
  9
$DIMLWD
 70
    -2
  9
$DIMLWE
 70
    -2
  9
$DIMTMOVE
 70
     0
  9
$LUNITS
 70
     2
  9
$LUPREC
 70
     4
  9
$SKETCHINC
 40
0.1
  9
$FILLETRAD
 40
0.5
  9
$AUNITS
 70
     0
  9
$AUPREC
 70
     0
  9
$MENU
  1
.
  9
$ELEVATION
 40
0.0
  9
$PELEVATION
 40
0.0
  9
$THICKNESS
 40
0.0
  9
$LIMCHECK
 70
     0
  9
$CHAMFERA
 40
0.5
  9
$CHAMFERB
 40
0.5
  9
$CHAMFERC
 40
1.0
  9
$CHAMFERD
 40
0.0
  9
$SKPOLY
 70
     0
  9
$TDCREATE
 40
2460559.695416667
  9
$TDUCREATE
 40
2460559.612083334
  9
$TDUPDATE
 40
2460559.695416678
  9
$TDUUPDATE
 40
2460559.612083345
  9
$TDINDWG
 40
0.0000000116
  9
$TDUSRTIMER
 40
0.0000000116
  9
$USRTIMER
 70
     1
  9
$ANGBASE
 50
0.0
  9
$ANGDIR
 70
     0
  9
$PDMODE
 70
     0
  9
$PDSIZE
 40
0.0
  9
$PLINEWID
 40
0.0
  9
$SPLFRAME
 70
     0
  9
$SPLINETYPE
 70
     6
  9
$SPLINESEGS
 70
     8
  9
$HANDSEED
  5
85
  9
$SURFTAB1
 70
     6
  9
$SURFTAB2
 70
     6
  9
$SURFTYPE
 70
     6
  9
$SURFU
 70
     6
  9
$SURFV
 70
     6
  9
$UCSBASE
  2

  9
$UCSNAME
  2

  9
$UCSORG
 10
0.0
 20
0.0
 30
0.0
  9
$UCSXDIR
 10
1.0
 20
0.0
 30
0.0
  9
$UCSYDIR
 10
0.0
 20
1.0
 30
0.0
  9
$UCSORTHOREF
  2

  9
$UCSORTHOVIEW
 70
     0
  9
$UCSORGTOP
 10
0.0
 20
0.0
 30
0.0
  9
$UCSORGBOTTOM
 10
0.0
 20
0.0
 30
0.0
  9
$UCSORGLEFT
 10
0.0
 20
0.0
 30
0.0
  9
$UCSORGRIGHT
 10
0.0
 20
0.0
 30
0.0
  9
$UCSORGFRONT
 10
0.0
 20
0.0
 30
0.0
  9
$UCSORGBACK
 10
0.0
 20
0.0
 30
0.0
  9
$PUCSBASE
  2

  9
$PUCSNAME
  2

  9
$PUCSORG
 10
0.0
 20
0.0
 30
0.0
  9
$PUCSXDIR
 10
1.0
 20
0.0
 30
0.0
  9
$PUCSYDIR
 10
0.0
 20
1.0
 30
0.0
  9
$PUCSORTHOREF
  2

  9
$PUCSORTHOVIEW
 70
     0
  9
$PUCSORGTOP
 10
0.0
 20
0.0
 30
0.0
  9
$PUCSORGBOTTOM
 10
0.0
 20
0.0
 30
0.0
  9
$PUCSORGLEFT
 10
0.0
 20
0.0
 30
0.0
  9
$PUCSORGRIGHT
 10
0.0
 20
0.0
 30
0.0
  9
$PUCSORGFRONT
 10
0.0
 20
0.0
 30
0.0
  9
$PUCSORGBACK
 10
0.0
 20
0.0
 30
0.0
  9
$USERI1
 70
     0
  9
$USERI2
 70
     0
  9
$USERI3
 70
     0
  9
$USERI4
 70
     0
  9
$USERI5
 70
     0
  9
$USERR1
 40
0.0
  9
$USERR2
 40
0.0
  9
$USERR3
 40
0.0
  9
$USERR4
 40
0.0
  9
$USERR5
 40
0.0
  9
$WORLDVIEW
 70
     1
  9
$SHADEDGE
 70
     3
  9
$SHADEDIF
 70
    70
  9
$TILEMODE
 70
     1
  9
$MAXACTVP
 70
    64
  9
$PINSBASE
 10
0.0
 20
0.0
 30
0.0
  9
$PLIMCHECK
 70
     0
  9
$PEXTMIN
 10
1.000000000000000E+20
 20
1.000000000000000E+20
 30
1.000000000000000E+20
  9
$PEXTMAX
 10
-1.000000000000000E+20
 20
-1.000000000000000E+20
 30
-1.000000000000000E+20
  9
$PLIMMIN
 10
0.0
 20
0.0
  9
$PLIMMAX
 10
12.0
 20
9.0
  9
$UNITMODE
 70
     0
  9
$VISRETAIN
 70
     1
  9
$PLINEGEN
 70
     0
  9
$PSLTSCALE
 70
     1
  9
$TREEDEPTH
 70
  3020
  9
$CMLSTYLE
  2
Standard
  9
$CMLJUST
 70
     0
  9
$CMLSCALE
 40
1.0
  9
$PROXYGRAPHICS
 70
     1
  9
$MEASUREMENT
 70
     0
  9
$CELWEIGHT
370
    -1
  9
$ENDCAPS
280
     0
  9
$JOINSTYLE
280
     0
  9
$LWDISPLAY
290
     1
  9
$INSUNITS
 70
     1
  9
$HYPERLINKBASE
  1

  9
$STYLESHEET
  1

  9
$XEDIT
290
     1
  9
$CEPSNTYPE
380
     0
  9
$PSTYLEMODE
290
     1
  9
$FINGERPRINTGUID
  2
{C1FCBA24-E03F-73D9-2DF9-A5F76420C776}
  9
$VERSIONGUID
  2
{FAEB1C32-E019-11D5-929B-00C0DF256EC4}
  9
$EXTNAMES
290
     1
  9
$PSVPSCALE
 40
0.0
  9
$OLESTARTUP
290
     0
  9
$SORTENTS
280
   127
  9
$INDEXCTL
280
     0
  9
$HIDETEXT
280
     1
  9
$XCLIPFRAME
290
     0
  9
$HALOGAP
280
     0
  9
$OBSCOLOR
 70
   257
  9
$OBSLTYPE
280
     0
  9
$INTERSECTIONDISPLAY
280
     0
  9
$INTERSECTIONCOLOR
 70
   257
  9
$DIMASSOC
280
     2
  9
$PROJECTNAME
  1

  0
ENDSEC
  0
SECTION
  2
CLASSES
  0
CLASS
  1
ACDBDICTIONARYWDFLT
  2
AcDbDictionaryWithDefault
  3
ObjectDBX Classes
 90
        0
 91
        3
280
     0
281
     0
  0
CLASS
  1
VISUALSTYLE
  2
AcDbVisualStyle
  3
ObjectDBX Classes
 90
     4095
 91
        3
280
     0
281
     0
  0
ENDSEC
  0
SECTION
  2
TABLES
  0
TABLE
  2
VPORT
  5
8
330
0
100
AcDbSymbolTable
 70
     1
  0
VPORT
  5
29
330
8
100
AcDbSymbolTableRecord
100
AcDbViewportTableRecord
  2
*Active
 70
     0
 10
0.0
 20
0.0
 11
1.0
 21
1.0
 12
0.0
 22
0.0
 13
0.0
 23
0.0
 14
0.5
 24
0.5
 15
0.5
 25
0.5
 16
0.0
 26
0.0
 36
1.0
 17
4.133890787760416
 27
-5.846455891927083
 37
0.0
 40
11.69291178385417
 41
0.7070763662937378
 42
50.0
 43
0.0
 44
0.0
 50
0.0
 51
0.0
 71
     0
 72
   100
 73
     1
 74
     3
 75
     0
 76
     0
 77
     0
 78
     0
281
     0
 65
     1
110
0.0
120
0.0
130
0.0
111
1.0
121
0.0
131
0.0
112
0.0
122
1.0
132
0.0
 79
     0
146
0.0
  0
ENDTAB
  0
TABLE
  2
LTYPE
  5
5
330
0
100
AcDbSymbolTable
 70
     1
  0
LTYPE
  5
14
330
5
100
AcDbSymbolTableRecord
100
AcDbLinetypeTableRecord
  2
ByBlock
 70
     0
  3

 72
    65
 73
     0
 40
0.0
  0
LTYPE
  5
15
330
5
100
AcDbSymbolTableRecord
100
AcDbLinetypeTableRecord
  2
ByLayer
 70
     0
  3

 72
    65
 73
     0
 40
0.0
  0
LTYPE
  5
16
330
5
100
AcDbSymbolTableRecord
100
AcDbLinetypeTableRecord
  2
Continuous
 70
     0
  3
Solid line
 72
    65
 73
     0
 40
0.0
  0
ENDTAB
  0
TABLE
  2
LAYER
  5
2
330
0
100
AcDbSymbolTable
 70
     2
  0
LAYER
  5
10
330
2
100
AcDbSymbolTableRecord
100
AcDbLayerTableRecord
  2
0
 70
     0
 62
     7
  6
Continuous
370
    -3
390
F
  0
LAYER
  5
3B
330
2
100
AcDbSymbolTableRecord
100
AcDbLayerTableRecord
  2
Layer 1
 70
     0
 62
     7
  6
Continuous
370
    -3
390
F
  0
ENDTAB
  0
TABLE
  2
STYLE
  5
3
330
0
100
AcDbSymbolTable
 70
     1
  0
STYLE
  5
11
330
3
100
AcDbSymbolTableRecord
100
AcDbTextStyleTableRecord
  2
Standard
 70
     0
 40
0.0
 41
1.0
 50
0.0
 71
     0
 42
0.2
  3
txt
  4

  0
ENDTAB
  0
TABLE
  2
VIEW
  5
6
330
0
100
AcDbSymbolTable
 70
     0
  0
ENDTAB
  0
TABLE
  2
UCS
  5
7
330
0
100
AcDbSymbolTable
 70
     0
  0
ENDTAB
  0
TABLE
  2
APPID
  5
9
330
0
100
AcDbSymbolTable
 70
     1
  0
APPID
  5
12
330
9
100
AcDbSymbolTableRecord
100
AcDbRegAppTableRecord
  2
ACAD
 70
     0
  0
ENDTAB
  0
TABLE
  2
DIMSTYLE
  5
A
330
0
100
AcDbSymbolTable
 70
     1
100
AcDbDimStyleTable
  0
DIMSTYLE
105
27
330
A
100
AcDbSymbolTableRecord
100
AcDbDimStyleTableRecord
  2
Standard
 70
     0
340
11
  0
ENDTAB
  0
TABLE
  2
BLOCK_RECORD
  5
1
330
0
100
AcDbSymbolTable
 70
     1
  0
BLOCK_RECORD
  5
1F
330
1
100
AcDbSymbolTableRecord
100
AcDbBlockTableRecord
  2
*Model_Space
340
22
  0
BLOCK_RECORD
  5
1B
330
1
100
AcDbSymbolTableRecord
100
AcDbBlockTableRecord
  2
*Paper_Space
340
1E
  0
BLOCK_RECORD
  5
23
330
1
100
AcDbSymbolTableRecord
100
AcDbBlockTableRecord
  2
*Paper_Space0
340
26
  0
ENDTAB
  0
ENDSEC
  0
SECTION
  2
BLOCKS
  0
BLOCK
  5
20
330
1F
100
AcDbEntity
  8
0
100
AcDbBlockBegin
  2
*Model_Space
 70
     0
 71
     0
 10
0.0
 20
0.0
 30
0.0
  3
*Model_Space
  1

  0
ENDBLK
  5
21
330
1F
100
AcDbEntity
  8
0
100
AcDbBlockEnd
  0
BLOCK
  5
1C
330
1B
100
AcDbEntity
 67
     1
  8
0
100
AcDbBlockBegin
  2
*Paper_Space
 70
     0
 71
     0
 10
0.0
 20
0.0
 30
0.0
  3
*Paper_Space
  1

  0
ENDBLK
  5
1D
330
1B
100
AcDbEntity
 67
     1
  8
0
100
AcDbBlockEnd
  0
BLOCK
  5
24
330
23
100
AcDbEntity
  8
0
100
AcDbBlockBegin
  2
*Paper_Space0
 70
     0
 71
     0
 10
0.0
 20
0.0
 30
0.0
  3
*Paper_Space0
  1

  0
ENDBLK
  5
25
330
23
100
AcDbEntity
  8
0
100
AcDbBlockEnd
  0
ENDSEC
  0
SECTION
  2
ENTITIES
  0
SPLINE
  5
3C
330
1F
100
AcDbEntity
  8
Layer 1
370
     0
100
AcDbSpline
210
0.0
220
0.0
230
1.0
 70
    11
 71
     3
 72
   209
 73
   205
 74
     0
 42
0.0000000001
 43
0.0000000001
 40
0.0
 40
0.0
 40
0.0
 40
0.0
 40
1.0
 40
1.0
 40
1.0
 40
2.0
 40
2.0
 40
2.0
 40
3.0
 40
3.0
 40
3.0
 40
4.0
 40
4.0
 40
4.0
 40
5.0
 40
5.0
 40
5.0
 40
6.0
 40
6.0
 40
6.0
 40
7.0
 40
7.0
 40
7.0
 40
8.0
 40
8.0
 40
8.0
 40
9.0
 40
9.0
 40
9.0
 40
10.0
 40
10.0
 40
10.0
 40
11.0
 40
11.0
 40
11.0
 40
12.0
 40
12.0
 40
12.0
 40
13.0
 40
13.0
 40
13.0
 40
14.0
 40
14.0
 40
14.0
 40
15.0
 40
15.0
 40
15.0
 40
16.0
 40
16.0
 40
16.0
 40
17.0
 40
17.0
 40
17.0
 40
18.0
 40
18.0
 40
18.0
 40
19.0
 40
19.0
 40
19.0
 40
20.0
 40
20.0
 40
20.0
 40
21.0
 40
21.0
 40
21.0
 40
22.0
 40
22.0
 40
22.0
 40
23.0
 40
23.0
 40
23.0
 40
24.0
 40
24.0
 40
24.0
 40
25.0
 40
25.0
 40
25.0
 40
26.0
 40
26.0
 40
26.0
 40
27.0
 40
27.0
 40
27.0
 40
28.0
 40
28.0
 40
28.0
 40
29.0
 40
29.0
 40
29.0
 40
30.0
 40
30.0
 40
30.0
 40
31.0
 40
31.0
 40
31.0
 40
32.0
 40
32.0
 40
32.0
 40
33.0
 40
33.0
 40
33.0
 40
34.0
 40
34.0
 40
34.0
 40
35.0
 40
35.0
 40
35.0
 40
36.0
 40
36.0
 40
36.0
 40
37.0
 40
37.0
 40
37.0
 40
38.0
 40
38.0
 40
38.0
 40
39.0
 40
39.0
 40
39.0
 40
40.0
 40
40.0
 40
40.0
 40
41.0
 40
41.0
 40
41.0
 40
42.0
 40
42.0
 40
42.0
 40
43.0
 40
43.0
 40
43.0
 40
44.0
 40
44.0
 40
44.0
 40
45.0
 40
45.0
 40
45.0
 40
46.0
 40
46.0
 40
46.0
 40
47.0
 40
47.0
 40
47.0
 40
48.0
 40
48.0
 40
48.0
 40
49.0
 40
49.0
 40
49.0
 40
50.0
 40
50.0
 40
50.0
 40
51.0
 40
51.0
 40
51.0
 40
52.0
 40
52.0
 40
52.0
 40
53.0
 40
53.0
 40
53.0
 40
54.0
 40
54.0
 40
54.0
 40
55.0
 40
55.0
 40
55.0
 40
56.0
 40
56.0
 40
56.0
 40
57.0
 40
57.0
 40
57.0
 40
58.0
 40
58.0
 40
58.0
 40
59.0
 40
59.0
 40
59.0
 40
60.0
 40
60.0
 40
60.0
 40
61.0
 40
61.0
 40
61.0
 40
62.0
 40
62.0
 40
62.0
 40
63.0
 40
63.0
 40
63.0
 40
64.0
 40
64.0
 40
64.0
 40
65.0
 40
65.0
 40
65.0
 40
66.0
 40
66.0
 40
66.0
 40
67.0
 40
67.0
 40
67.0
 40
68.0
 40
68.0
 40
68.0
 40
68.0
 10
1.263217502170139
 20
-5.382568359375
 30
0.0
 10
1.263217502170139
 20
-5.382568359375
 30
0.0
 10
1.005255805121528
 20
-5.841335720486111
 30
0.0
 10
1.005255805121528
 20
-5.841335720486111
 30
0.0
 10
1.005255805121528
 20
-5.841335720486111
 30
0.0
 10
1.263217502170139
 20
-6.300252278645833
 30
0.0
 10
1.263217502170139
 20
-6.300252278645833
 30
0.0
 10
1.214497884114583
 20
-6.316202799479166
 30
0.0
 10
1.163960774739583
 20
-6.324327256944444
 30
0.0
 10
1.112433539496528
 20
-6.324327256944444
 30
0.0
 10
1.112433539496528
 20
-6.324327256944444
 30
0.0
 10
1.015428331163194
 20
-6.324327256944444
 30
0.0
 10
1.015428331163194
 20
-6.324327256944444
 30
0.0
 10
1.015428331163194
 20
-6.324327256944444
 30
0.0
 10
1.015428331163194
 20
-8.56484646267361
 30
0.0
 10
1.015428331163194
 20
-8.56484646267361
 30
0.0
 10
1.015428331163194
 20
-8.56484646267361
 30
0.0
 10
1.112433539496528
 20
-8.56484646267361
 30
0.0
 10
1.112433539496528
 20
-8.56484646267361
 30
0.0
 10
1.2216796875
 20
-8.56484646267361
 30
0.0
 10
1.324917263454861
 20
-8.5994873046875
 30
0.0
 10
1.411933051215278
 20
-8.665228949652777
 30
0.0
 10
1.329379611545139
 20
-8.782267252604166
 30
0.0
 10
1.285739474826389
 20
-8.919447157118055
 30
0.0
 10
1.285739474826389
 20
-9.06289333767361
 30
0.0
 10
1.285739474826389
 20
-9.207207573784721
 30
0.0
 10
1.329379611545139
 20
-9.344428168402777
 30
0.0
 10
1.411736382378472
 20
-9.461181640625
 30
0.0
 10
1.331169976128472
 20
-9.52199978298611
 30
0.0
 10
1.235059950086806
 20
-9.55654568142361
 30
0.0
 10
1.13336181640625
 20
-9.560723198784721
 30
0.0
 10
1.13336181640625
 20
-9.560723198784721
 30
0.0
 10
1.040445963541667
 20
-9.564710828993055
 30
0.0
 10
1.040445963541667
 20
-9.564710828993055
 30
0.0
 10
1.040445963541667
 20
-9.564710828993055
 30
0.0
 10
1.040445963541667
 20
-11.22074381510417
 30
0.0
 10
1.040445963541667
 20
-11.22074381510417
 30
0.0
 10
1.040445963541667
 20
-11.22074381510417
 30
0.0
 10
1.431308322482639
 20
-11.22074381510417
 30
0.0
 10
1.431308322482639
 20
-11.22074381510417
 30
0.0
 10
1.431308322482639
 20
-11.22074381510417
 30
0.0
 10
1.431308322482639
 20
-11.68276638454861
 30
0.0
 10
1.431308322482639
 20
-11.68276638454861
 30
0.0
 10
1.431308322482639
 20
-11.68276638454861
 30
0.0
 10
3.727498372395833
 20
-11.68276638454861
 30
0.0
 10
3.727498372395833
 20
-11.68276638454861
 30
0.0
 10
3.727498372395833
 20
-11.68276638454861
 30
0.0
 10
3.727498372395833
 20
-11.58591037326389
 30
0.0
 10
3.727498372395833
 20
-11.58591037326389
 30
0.0
 10
3.727498372395833
 20
-11.40531412760417
 30
0.0
 10
3.830417209201389
 20
-11.23735894097222
 30
0.0
 10
3.990492078993055
 20
-11.154541015625
 30
0.0
 10
3.990492078993055
 20
-11.154541015625
 30
0.0
 10
4.212741427951388
 20
-11.55022515190972
 30
0.0
 10
4.212741427951388
 20
-11.55022515190972
 30
0.0
 10
4.212741427951388
 20
-11.55022515190972
 30
0.0
 10
4.435045030381945
 20
-11.15431043836806
 30
0.0
 10
4.435045030381945
 20
-11.15431043836806
 30
0.0
 10
4.595431857638888
 20
-11.23735894097222
 30
0.0
 10
4.698296440972222
 20
-11.40531412760417
 30
0.0
 10
4.698296440972222
 20
-11.58591037326389
 30
0.0
 10
4.698296440972222
 20
-11.58591037326389
 30
0.0
 10
4.698296440972222
 20
-11.68276638454861
 30
0.0
 10
4.698296440972222
 20
-11.68276638454861
 30
0.0
 10
4.698296440972222
 20
-11.68276638454861
 30
0.0
 10
6.9945068359375
 20
-11.68276638454861
 30
0.0
 10
6.9945068359375
 20
-11.68276638454861
 30
0.0
 10
6.9945068359375
 20
-11.68276638454861
 30
0.0
 10
6.9945068359375
 20
-11.22074381510417
 30
0.0
 10
6.9945068359375
 20
-11.22074381510417
 30
0.0
 10
6.9945068359375
 20
-11.22074381510417
 30
0.0
 10
7.385403103298611
 20
-11.22074381510417
 30
0.0
 10
7.385403103298611
 20
-11.22074381510417
 30
0.0
 10
7.385403103298611
 20
-11.22074381510417
 30
0.0
 10
7.385403103298611
 20
-9.564710828993055
 30
0.0
 10
7.385403103298611
 20
-9.564710828993055
 30
0.0
 10
7.385403103298611
 20
-9.564710828993055
 30
0.0
 10
7.292494032118055
 20
-9.560723198784721
 30
0.0
 10
7.292494032118055
 20
-9.560723198784721
 30
0.0
 10
7.190700954861111
 20
-9.55654568142361
 30
0.0
 10
7.094780815972221
 20
-9.52199978298611
 30
0.0
 10
7.014024522569444
 20
-9.461181640625
 30
0.0
 10
7.096462673611111
 20
-9.344428168402777
 30
0.0
 10
7.139919704861111
 20
-9.207207573784721
 30
0.0
 10
7.139919704861111
 20
-9.06289333767361
 30
0.0
 10
7.139919704861111
 20
-8.919447157118055
 30
0.0
 10
7.096462673611111
 20
-8.782267252604166
 30
0.0
 10
7.013929578993055
 20
-8.665228949652777
 30
0.0
 10
7.100789388020833
 20
-8.5994873046875
 30
0.0
 10
7.203993055555555
 20
-8.56484646267361
 30
0.0
 10
7.313381618923611
 20
-8.56484646267361
 30
0.0
 10
7.313381618923611
 20
-8.56484646267361
 30
0.0
 10
7.410319010416666
 20
-8.56484646267361
 30
0.0
 10
7.410319010416666
 20
-8.56484646267361
 30
0.0
 10
7.410319010416666
 20
-8.56484646267361
 30
0.0
 10
7.410319010416666
 20
-6.324327256944444
 30
0.0
 10
7.410319010416666
 20
-6.324327256944444
 30
0.0
 10
7.410319010416666
 20
-6.324327256944444
 30
0.0
 10
7.313286675347221
 20
-6.324327256944444
 30
0.0
 10
7.313286675347221
 20
-6.324327256944444
 30
0.0
 10
7.261895073784721
 20
-6.324327256944444
 30
0.0
 10
7.211208767361111
 20
-6.316202799479166
 30
0.0
 10
7.162733289930555
 20
-6.300252278645833
 30
0.0
 10
7.162733289930555
 20
-6.300252278645833
 30
0.0
 10
7.420600043402778
 20
-5.841335720486111
 30
0.0
 10
7.420600043402778
 20
-5.841335720486111
 30
0.0
 10
7.420600043402778
 20
-5.841335720486111
 30
0.0
 10
7.162733289930555
 20
-5.382568359375
 30
0.0
 10
7.162733289930555
 20
-5.382568359375
 30
0.0
 10
7.211208767361111
 20
-5.366563585069444
 30
0.0
 10
7.261895073784721
 20
-5.358256022135416
 30
0.0
 10
7.313286675347221
 20
-5.358256022135416
 30
0.0
 10
7.313286675347221
 20
-5.358256022135416
 30
0.0
 10
7.410319010416666
 20
-5.358256022135416
 30
0.0
 10
7.410319010416666
 20
-5.358256022135416
 30
0.0
 10
7.410319010416666
 20
-5.358256022135416
 30
0.0
 10
7.410319010416666
 20
-3.11785888671875
 30
0.0
 10
7.410319010416666
 20
-3.11785888671875
 30
0.0
 10
7.410319010416666
 20
-3.11785888671875
 30
0.0
 10
7.313381618923611
 20
-3.11785888671875
 30
0.0
 10
7.313381618923611
 20
-3.11785888671875
 30
0.0
 10
7.203993055555555
 20
-3.11785888671875
 30
0.0
 10
7.100789388020833
 20
-3.083184136284722
 30
0.0
 10
7.014024522569444
 20
-3.017584906684028
 30
0.0
 10
7.096462673611111
 20
-2.900539822048611
 30
0.0
 10
7.139919704861111
 20
-2.763326009114583
 30
0.0
 10
7.139919704861111
 20
-2.619771321614583
 30
0.0
 10
7.139919704861111
 20
-2.475558810763889
 30
0.0
 10
7.096462673611111
 20
-2.338290744357639
 30
0.0
 10
7.014024522569444
 20
-2.221632215711805
 30
0.0
 10
7.094780815972221
 20
-2.160481770833333
 30
0.0
 10
7.190700954861111
 20
-2.126274956597222
 30
0.0
 10
7.292494032118055
 20
-2.121914333767361
 30
0.0
 10
7.292494032118055
 20
-2.121914333767361
 30
0.0
 10
7.385403103298611
 20
-2.118245442708333
 30
0.0
 10
7.385403103298611
 20
-2.118245442708333
 30
0.0
 10
7.385403103298611
 20
-2.118245442708333
 30
0.0
 10
7.385403103298611
 20
-0.4620632595486111
 30
0.0
 10
7.385403103298611
 20
-0.4620632595486111
 30
0.0
 10
7.385403103298611
 20
-0.4620632595486111
 30
0.0
 10
6.9945068359375
 20
-0.4620632595486111
 30
0.0
 10
6.9945068359375
 20
-0.4620632595486111
 30
0.0
 10
6.9945068359375
 20
-0.4620632595486111
 30
0.0
 10
6.9945068359375
 20
-0.0000067816840278
 30
0.0
 10
6.9945068359375
 20
-0.0000067816840278
 30
0.0
 10
6.9945068359375
 20
-0.0000067816840278
 30
0.0
 10
4.698296440972222
 20
-0.0000067816840278
 30
0.0
 10
4.698296440972222
 20
-0.0000067816840278
 30
0.0
 10
4.698296440972222
 20
-0.0000067816840278
 30
0.0
 10
4.698296440972222
 20
-0.0968153211805556
 30
0.0
 10
4.698296440972222
 20
-0.0968153211805556
 30
0.0
 10
4.698296440972222
 20
-0.2775404188368055
 30
0.0
 10
4.5953369140625
 20
-0.4454006618923611
 30
0.0
 10
4.435045030381945
 20
-0.5284627278645833
 30
0.0
 10
4.435045030381945
 20
-0.5284627278645833
 30
0.0
 10
4.212741427951388
 20
-0.1326226128472222
 30
0.0
 10
4.212741427951388
 20
-0.1326226128472222
 30
0.0
 10
4.212741427951388
 20
-0.1326226128472222
 30
0.0
 10
3.990492078993055
 20
-0.5283203125
 30
0.0
 10
3.990492078993055
 20
-0.5283203125
 30
0.0
 10
3.830417209201389
 20
-0.4452175564236111
 30
0.0
 10
3.727498372395833
 20
-0.2772623697916666
 30
0.0
 10
3.727498372395833
 20
-0.0968153211805556
 30
0.0
 10
3.727498372395833
 20
-0.0968153211805556
 30
0.0
 10
3.727498372395833
 20
-0.0000067816840278
 30
0.0
 10
3.727498372395833
 20
-0.0000067816840278
 30
0.0
 10
3.727498372395833
 20
-0.0000067816840278
 30
0.0
 10
1.431308322482639
 20
-0.0000067816840278
 30
0.0
 10
1.431308322482639
 20
-0.0000067816840278
 30
0.0
 10
1.431308322482639
 20
-0.0000067816840278
 30
0.0
 10
1.431308322482639
 20
-0.4619683159722222
 30
0.0
 10
1.431308322482639
 20
-0.4619683159722222
 30
0.0
 10
1.431308322482639
 20
-0.4619683159722222
 30
0.0
 10
1.040445963541667
 20
-0.4619683159722222
 30
0.0
 10
1.040445963541667
 20
-0.4619683159722222
 30
0.0
 10
1.040445963541667
 20
-0.4619683159722222
 30
0.0
 10
1.040445963541667
 20
-2.118245442708333
 30
0.0
 10
1.040445963541667
 20
-2.118245442708333
 30
0.0
 10
1.040445963541667
 20
-2.118245442708333
 30
0.0
 10
1.13336181640625
 20
-2.121914333767361
 30
0.0
 10
1.13336181640625
 20
-2.121914333767361
 30
0.0
 10
1.235059950086806
 20
-2.126274956597222
 30
0.0
 10
1.331169976128472
 20
-2.160481770833333
 30
0.0
 10
1.411736382378472
 20
-2.221632215711805
 30
0.0
 10
1.329379611545139
 20
-2.338290744357639
 30
0.0
 10
1.285739474826389
 20
-2.475558810763889
 30
0.0
 10
1.285739474826389
 20
-2.619771321614583
 30
0.0
 10
1.285739474826389
 20
-2.763326009114583
 30
0.0
 10
1.329379611545139
 20
-2.900539822048611
 30
0.0
 10
1.411736382378472
 20
-3.017584906684028
 30
0.0
 10
1.324917263454861
 20
-3.083184136284722
 30
0.0
 10
1.221869574652778
 20
-3.11785888671875
 30
0.0
 10
1.112433539496528
 20
-3.11785888671875
 30
0.0
 10
1.112433539496528
 20
-3.11785888671875
 30
0.0
 10
1.015428331163194
 20
-3.11785888671875
 30
0.0
 10
1.015428331163194
 20
-3.11785888671875
 30
0.0
 10
1.015428331163194
 20
-3.11785888671875
 30
0.0
 10
1.015428331163194
 20
-5.358256022135416
 30
0.0
 10
1.015428331163194
 20
-5.358256022135416
 30
0.0
 10
1.015428331163194
 20
-5.358256022135416
 30
0.0
 10
1.112433539496528
 20
-5.358256022135416
 30
0.0
 10
1.112433539496528
 20
-5.358256022135416
 30
0.0
 10
1.163960774739583
 20
-5.358256022135416
 30
0.0
 10
1.214497884114583
 20
-5.366563585069444
 30
0.0
 10
1.263217502170139
 20
-5.382568359375
 30
0.0
  0
SPLINE
  5
3D
330
1F
100
AcDbEntity
  8
Layer 1
370
     0
100
AcDbSpline
210
0.0
220
0.0
230
1.0
 70
    11
 71
     3
 72
    26
 73
    22
 74
     0
 42
0.0000000001
 43
0.0000000001
 40
0.0
 40
0.0
 40
0.0
 40
0.0
 40
1.0
 40
1.0
 40
1.0
 40
2.0
 40
2.0
 40
2.0
 40
3.0
 40
3.0
 40
3.0
 40
4.0
 40
4.0
 40
4.0
 40
5.0
 40
5.0
 40
5.0
 40
6.0
 40
6.0
 40
6.0
 40
7.0
 40
7.0
 40
7.0
 40
7.0
 10
6.9945068359375
 20
-0.6559244791666666
 30
0.0
 10
6.9945068359375
 20
-0.6559244791666666
 30
0.0
 10
7.191487630208333
 20
-0.6559244791666666
 30
0.0
 10
7.191487630208333
 20
-0.6559244791666666
 30
0.0
 10
7.191487630208333
 20
-0.6559244791666666
 30
0.0
 10
7.191487630208333
 20
-1.938368055555555
 30
0.0
 10
7.191487630208333
 20
-1.938368055555555
 30
0.0
 10
7.077785915798611
 20
-1.958407931857639
 30
0.0
 10
6.970974392361111
 20
-2.007168240017361
 30
0.0
 10
6.880696614583333
 20
-2.079623752170139
 30
0.0
 10
6.790595160590278
 20
-2.007168240017361
 30
0.0
 10
6.683498806423611
 20
-1.958407931857639
 30
0.0
 10
6.569851345486111
 20
-1.938368055555555
 30
0.0
 10
6.569851345486111
 20
-1.938368055555555
 30
0.0
 10
6.569851345486111
 20
-1.08038330078125
 30
0.0
 10
6.569851345486111
 20
-1.08038330078125
 30
0.0
 10
6.569851345486111
 20
-1.08038330078125
 30
0.0
 10
6.9945068359375
 20
-1.08038330078125
 30
0.0
 10
6.9945068359375
 20
-1.08038330078125
 30
0.0
 10
6.9945068359375
 20
-1.08038330078125
 30
0.0
 10
6.9945068359375
 20
-0.6559244791666666
 30
0.0
 10
6.9945068359375
 20
-0.6559244791666666
 30
0.0
  0
SPLINE
  5
3E
330
1F
100
AcDbEntity
  8
Layer 1
370
     0
100
AcDbSpline
210
0.0
220
0.0
230
1.0
 70
    11
 71
     3
 72
    26
 73
    22
 74
     0
 42
0.0000000001
 43
0.0000000001
 40
0.0
 40
0.0
 40
0.0
 40
0.0
 40
1.0
 40
1.0
 40
1.0
 40
2.0
 40
2.0
 40
2.0
 40
3.0
 40
3.0
 40
3.0
 40
4.0
 40
4.0
 40
4.0
 40
5.0
 40
5.0
 40
5.0
 40
6.0
 40
6.0
 40
6.0
 40
7.0
 40
7.0
 40
7.0
 40
7.0
 10
1.431308322482639
 20
-11.02676052517361
 30
0.0
 10
1.431308322482639
 20
-11.02676052517361
 30
0.0
 10
1.234347873263889
 20
-11.02676052517361
 30
0.0
 10
1.234347873263889
 20
-11.02676052517361
 30
0.0
 10
1.234347873263889
 20
-11.02676052517361
 30
0.0
 10
1.234347873263889
 20
-9.744425455729166
 30
0.0
 10
1.234347873263889
 20
-9.744425455729166
 30
0.0
 10
1.348063151041667
 20
-9.724216037326388
 30
0.0
 10
1.455057779947917
 20
-9.675550672743055
 30
0.0
 10
1.544962565104167
 20
-9.603000217013888
 30
0.0
 10
1.635260687934028
 20
-9.675550672743055
 30
0.0
 10
1.742255316840278
 20
-9.724216037326388
 30
0.0
 10
1.855909559461805
 20
-9.744425455729166
 30
0.0
 10
1.855909559461805
 20
-9.744425455729166
 30
0.0
 10
1.855909559461805
 20
-10.60218641493056
 30
0.0
 10
1.855909559461805
 20
-10.60218641493056
 30
0.0
 10
1.855909559461805
 20
-10.60218641493056
 30
0.0
 10
1.431308322482639
 20
-10.60218641493056
 30
0.0
 10
1.431308322482639
 20
-10.60218641493056
 30
0.0
 10
1.431308322482639
 20
-10.60218641493056
 30
0.0
 10
1.431308322482639
 20
-11.02676052517361
 30
0.0
 10
1.431308322482639
 20
-11.02676052517361
 30
0.0
  0
SPLINE
  5
3F
330
1F
100
AcDbEntity
  8
Layer 1
370
     0
100
AcDbSpline
210
0.0
220
0.0
230
1.0
 70
    11
 71
     3
 72
    23
 73
    19
 74
     0
 42
0.0000000001
 43
0.0000000001
 40
0.0
 40
0.0
 40
0.0
 40
0.0
 40
1.0
 40
1.0
 40
1.0
 40
2.0
 40
2.0
 40
2.0
 40
3.0
 40
3.0
 40
3.0
 40
4.0
 40
4.0
 40
4.0
 40
5.0
 40
5.0
 40
5.0
 40
6.0
 40
6.0
 40
6.0
 40
6.0
 10
1.20928955078125
 20
-5.171291775173611
 30
0.0
 10
1.20928955078125
 20
-5.171291775173611
 30
0.0
 10
1.20928955078125
 20
-3.304965549045139
 30
0.0
 10
1.20928955078125
 20
-3.304965549045139
 30
0.0
 10
1.332200792100694
 20
-3.287692599826389
 30
0.0
 10
1.447828504774306
 20
-3.237481011284722
 30
0.0
 10
1.544962565104167
 20
-3.159396701388889
 30
0.0
 10
1.642489963107639
 20
-3.237481011284722
 30
0.0
 10
1.758165147569444
 20
-3.287692599826389
 30
0.0
 10
1.880832248263889
 20
-3.305107964409722
 30
0.0
 10
1.880832248263889
 20
-3.305107964409722
 30
0.0
 10
1.880832248263889
 20
-4.283047146267361
 30
0.0
 10
1.880832248263889
 20
-4.283047146267361
 30
0.0
 10
1.880832248263889
 20
-4.283047146267361
 30
0.0
 10
1.359130859375
 20
-5.211235894097222
 30
0.0
 10
1.359130859375
 20
-5.211235894097222
 30
0.0
 10
1.311170789930556
 20
-5.192267523871528
 30
0.0
 10
1.2608642578125
 20
-5.178853352864583
 30
0.0
 10
1.20928955078125
 20
-5.171291775173611
 30
0.0
  0
SPLINE
  5
40
330
1F
100
AcDbEntity
  8
Layer 1
370
     0
100
AcDbSpline
210
0.0
220
0.0
230
1.0
 70
    11
 71
     3
 72
    23
 73
    19
 74
     0
 42
0.0000000001
 43
0.0000000001
 40
0.0
 40
0.0
 40
0.0
 40
0.0
 40
1.0
 40
1.0
 40
1.0
 40
2.0
 40
2.0
 40
2.0
 40
3.0
 40
3.0
 40
3.0
 40
4.0
 40
4.0
 40
4.0
 40
5.0
 40
5.0
 40
5.0
 40
6.0
 40
6.0
 40
6.0
 40
6.0
 10
4.212741427951388
 20
-0.7764350043402778
 30
0.0
 10
4.212741427951388
 20
-0.7764350043402778
 30
0.0
 10
4.213202582465278
 20
-0.7764350043402778
 30
0.0
 10
4.213202582465278
 20
-0.7764350043402778
 30
0.0
 10
4.257554796006945
 20
-0.7762451171875
 30
0.0
 10
4.301798502604166
 20
-0.7719794379340278
 30
0.0
 10
4.344753689236111
 20
-0.7635294596354166
 30
0.0
 10
4.344753689236111
 20
-0.7635294596354166
 30
0.0
 10
4.413926866319445
 20
-0.8865695529513888
 30
0.0
 10
4.413926866319445
 20
-0.8865695529513888
 30
0.0
 10
4.413926866319445
 20
-0.8865695529513888
 30
0.0
 10
4.011610243055555
 20
-0.8865695529513888
 30
0.0
 10
4.011610243055555
 20
-0.8865695529513888
 30
0.0
 10
4.011610243055555
 20
-0.8865695529513888
 30
0.0
 10
4.080769856770833
 20
-0.7633802625868055
 30
0.0
 10
4.080769856770833
 20
-0.7633802625868055
 30
0.0
 10
4.124037000868055
 20
-0.7719794379340278
 30
0.0
 10
4.168389214409722
 20
-0.7762451171875
 30
0.0
 10
4.212741427951388
 20
-0.7764350043402778
 30
0.0
  0
SPLINE
  5
41
330
1F
100
AcDbEntity
  8
Layer 1
370
     0
100
AcDbSpline
210
0.0
220
0.0
230
1.0
 70
    11
 71
     3
 72
    23
 73
    19
 74
     0
 42
0.0000000001
 43
0.0000000001
 40
0.0
 40
0.0
 40
0.0
 40
0.0
 40
1.0
 40
1.0
 40
1.0
 40
2.0
 40
2.0
 40
2.0
 40
3.0
 40
3.0
 40
3.0
 40
4.0
 40
4.0
 40
4.0
 40
5.0
 40
5.0
 40
5.0
 40
6.0
 40
6.0
 40
6.0
 40
6.0
 10
7.216552734375
 20
-3.305107964409722
 30
0.0
 10
7.216552734375
 20
-3.305107964409722
 30
0.0
 10
7.216457790798611
 20
-5.171291775173611
 30
0.0
 10
7.216457790798611
 20
-5.171291775173611
 30
0.0
 10
7.164984809027778
 20
-5.178853352864583
 30
0.0
 10
7.114583333333333
 20
-5.192267523871528
 30
0.0
 10
7.0665283203125
 20
-5.211235894097222
 30
0.0
 10
7.0665283203125
 20
-5.211235894097222
 30
0.0
 10
6.544921875
 20
-4.283047146267361
 30
0.0
 10
6.544921875
 20
-4.283047146267361
 30
0.0
 10
6.544921875
 20
-4.283047146267361
 30
0.0
 10
6.544921875
 20
-3.305107964409722
 30
0.0
 10
6.544921875
 20
-3.305107964409722
 30
0.0
 10
6.667887369791666
 20
-3.287692599826389
 30
0.0
 10
6.783460828993055
 20
-3.237481011284722
 30
0.0
 10
6.880696614583333
 20
-3.1593017578125
 30
0.0
 10
6.977918836805555
 20
-3.237481011284722
 30
0.0
 10
7.093560112847221
 20
-3.287692599826389
 30
0.0
 10
7.216552734375
 20
-3.305107964409722
 30
0.0
  0
SPLINE
  5
42
330
1F
100
AcDbEntity
  8
Layer 1
370
     0
100
AcDbSpline
210
0.0
220
0.0
230
1.0
 70
    11
 71
     3
 72
    23
 73
    19
 74
     0
 42
0.0000000001
 43
0.0000000001
 40
0.0
 40
0.0
 40
0.0
 40
0.0
 40
1.0
 40
1.0
 40
1.0
 40
2.0
 40
2.0
 40
2.0
 40
3.0
 40
3.0
 40
3.0
 40
4.0
 40
4.0
 40
4.0
 40
5.0
 40
5.0
 40
5.0
 40
6.0
 40
6.0
 40
6.0
 40
6.0
 10
4.213202582465278
 20
-10.90623643663194
 30
0.0
 10
4.213202582465278
 20
-10.90623643663194
 30
0.0
 10
4.212741427951388
 20
-10.90623643663194
 30
0.0
 10
4.212741427951388
 20
-10.90623643663194
 30
0.0
 10
4.16796875
 20
-10.90623643663194
 30
0.0
 10
4.123616536458333
 20
-10.91073947482639
 30
0.0
 10
4.080769856770833
 20
-10.91928439670139
 30
0.0
 10
4.080769856770833
 20
-10.91928439670139
 30
0.0
 10
4.011610243055555
 20
-10.79599338107639
 30
0.0
 10
4.011610243055555
 20
-10.79599338107639
 30
0.0
 10
4.011610243055555
 20
-10.79599338107639
 30
0.0
 10
4.413926866319445
 20
-10.79599338107639
 30
0.0
 10
4.413926866319445
 20
-10.79599338107639
 30
0.0
 10
4.413926866319445
 20
-10.79599338107639
 30
0.0
 10
4.344753689236111
 20
-10.91923014322917
 30
0.0
 10
4.344753689236111
 20
-10.91923014322917
 30
0.0
 10
4.301798502604166
 20
-10.91073947482639
 30
0.0
 10
4.257554796006945
 20
-10.90623643663194
 30
0.0
 10
4.213202582465278
 20
-10.90623643663194
 30
0.0
  0
SPLINE
  5
43
330
1F
100
AcDbEntity
  8
Layer 1
370
     0
100
AcDbSpline
210
0.0
220
0.0
230
1.0
 70
    11
 71
     3
 72
    23
 73
    19
 74
     0
 42
0.0000000001
 43
0.0000000001
 40
0.0
 40
0.0
 40
0.0
 40
0.0
 40
1.0
 40
1.0
 40
1.0
 40
2.0
 40
2.0
 40
2.0
 40
3.0
 40
3.0
 40
3.0
 40
4.0
 40
4.0
 40
4.0
 40
5.0
 40
5.0
 40
5.0
 40
6.0
 40
6.0
 40
6.0
 40
6.0
 10
1.20928955078125
 20
-8.377604166666666
 30
0.0
 10
1.20928955078125
 20
-8.377604166666666
 30
0.0
 10
1.20928955078125
 20
-6.511135525173611
 30
0.0
 10
1.20928955078125
 20
-6.511135525173611
 30
0.0
 10
1.260965983072917
 20
-6.503960503472221
 30
0.0
 10
1.311170789930556
 20
-6.490437825520833
 30
0.0
 10
1.359130859375
 20
-6.471489800347221
 30
0.0
 10
1.359130859375
 20
-6.471489800347221
 30
0.0
 10
1.880832248263889
 20
-7.399631076388888
 30
0.0
 10
1.880832248263889
 20
-7.399631076388888
 30
0.0
 10
1.880832248263889
 20
-7.399631076388888
 30
0.0
 10
1.880832248263889
 20
-8.377604166666666
 30
0.0
 10
1.880832248263889
 20
-8.377604166666666
 30
0.0
 10
1.757927788628472
 20
-8.39487033420139
 30
0.0
 10
1.642489963107639
 20
-8.445271809895832
 30
0.0
 10
1.544962565104167
 20
-8.523328993055555
 30
0.0
 10
1.447828504774306
 20
-8.445271809895832
 30
0.0
 10
1.332383897569444
 20
-8.394965277777777
 30
0.0
 10
1.20928955078125
 20
-8.377604166666666
 30
0.0
  0
POLYLINE
  5
44
330
1F
100
AcDbEntity
  8
Layer 1
370
     0
100
AcDb2dPolyline
 66
     1
 10
0.0
 20
0.0
 30
0.0
  0
VERTEX
  5
45
330
44
100
AcDbEntity
  8
Layer 1
370
     0
100
AcDbVertex
100
AcDb2dVertex
 10
6.800632052951388
 20
-0.8865695529513888
 30
0.0
  0
VERTEX
  5
46
330
44
100
AcDbEntity
  8
Layer 1
370
     0
100
AcDbVertex
100
AcDb2dVertex
 10
6.569851345486111
 20
-0.8865695529513888
 30
0.0
  0
VERTEX
  5
47
330
44
100
AcDbEntity
  8
Layer 1
370
     0
100
AcDbVertex
100
AcDb2dVertex
 10
6.569851345486111
 20
-0.6559244791666666
 30
0.0
  0
VERTEX
  5
48
330
44
100
AcDbEntity
  8
Layer 1
370
     0
100
AcDbVertex
100
AcDb2dVertex
 10
6.800632052951388
 20
-0.6559244791666666
 30
0.0
  0
VERTEX
  5
49
330
44
100
AcDbEntity
  8
Layer 1
370
     0
100
AcDbVertex
100
AcDb2dVertex
 10
6.800632052951388
 20
-0.8865695529513888
 30
0.0
  0
SEQEND
  5
4A
330
44
100
AcDbEntity
  8
Layer 1
370
     0
  0
SPLINE
  5
4B
330
1F
100
AcDbEntity
  8
Layer 1
370
     0
100
AcDbSpline
210
0.0
220
0.0
230
1.0
 70
    11
 71
     3
 72
    17
 73
    13
 74
     0
 42
0.0000000001
 43
0.0000000001
 40
0.0
 40
0.0
 40
0.0
 40
0.0
 40
1.0
 40
1.0
 40
1.0
 40
2.0
 40
2.0
 40
2.0
 40
3.0
 40
3.0
 40
3.0
 40
4.0
 40
4.0
 40
4.0
 40
4.0
 10
6.946248372395833
 20
-2.619771321614583
 30
0.0
 10
6.946248372395833
 20
-2.706637912326389
 30
0.0
 10
6.923638237847221
 20
-2.791436089409722
 30
0.0
 10
6.880696614583333
 20
-2.866238064236111
 30
0.0
 10
6.837849934895833
 20
-2.791436089409722
 30
0.0
 10
6.815131293402778
 20
-2.706637912326389
 30
0.0
 10
6.815131293402778
 20
-2.619771321614583
 30
0.0
 10
6.815131293402778
 20
-2.532524956597222
 30
0.0
 10
6.837849934895833
 20
-2.447496202256944
 30
0.0
 10
6.880696614583333
 20
-2.37274169921875
 30
0.0
 10
6.923638237847221
 20
-2.447496202256944
 30
0.0
 10
6.946248372395833
 20
-2.532524956597222
 30
0.0
 10
6.946248372395833
 20
-2.619771321614583
 30
0.0
  0
POLYLINE
  5
4C
330
1F
100
AcDbEntity
  8
Layer 1
370
     0
100
AcDb2dPolyline
 66
     1
 10
0.0
 20
0.0
 30
0.0
  0
VERTEX
  5
4D
330
4C
100
AcDbEntity
  8
Layer 1
370
     0
100
AcDbVertex
100
AcDb2dVertex
 10
1.625217013888889
 20
-10.79599338107639
 30
0.0
  0
VERTEX
  5
4E
330
4C
100
AcDbEntity
  8
Layer 1
370
     0
100
AcDbVertex
100
AcDb2dVertex
 10
1.855909559461805
 20
-10.79599338107639
 30
0.0
  0
VERTEX
  5
4F
330
4C
100
AcDbEntity
  8
Layer 1
370
     0
100
AcDbVertex
100
AcDb2dVertex
 10
1.855909559461805
 20
-11.02676052517361
 30
0.0
  0
VERTEX
  5
50
330
4C
100
AcDbEntity
  8
Layer 1
370
     0
100
AcDbVertex
100
AcDb2dVertex
 10
1.625217013888889
 20
-11.02676052517361
 30
0.0
  0
VERTEX
  5
51
330
4C
100
AcDbEntity
  8
Layer 1
370
     0
100
AcDbVertex
100
AcDb2dVertex
 10
1.625217013888889
 20
-10.79599338107639
 30
0.0
  0
SEQEND
  5
52
330
4C
100
AcDbEntity
  8
Layer 1
370
     0
  0
SPLINE
  5
53
330
1F
100
AcDbEntity
  8
Layer 1
370
     0
100
AcDbSpline
210
0.0
220
0.0
230
1.0
 70
    11
 71
     3
 72
    17
 73
    13
 74
     0
 42
0.0000000001
 43
0.0000000001
 40
0.0
 40
0.0
 40
0.0
 40
0.0
 40
1.0
 40
1.0
 40
1.0
 40
2.0
 40
2.0
 40
2.0
 40
3.0
 40
3.0
 40
3.0
 40
4.0
 40
4.0
 40
4.0
 40
4.0
 10
1.479688856336806
 20
-9.06289333767361
 30
0.0
 10
1.479688856336806
 20
-8.976087782118055
 30
0.0
 10
1.502217610677083
 20
-8.891276041666666
 30
0.0
 10
1.544962565104167
 20
-8.81637912326389
 30
0.0
 10
1.588005913628472
 20
-8.891276041666666
 30
0.0
 10
1.610710991753472
 20
-8.975992838541666
 30
0.0
 10
1.610710991753472
 20
-9.06289333767361
 30
0.0
 10
1.610710991753472
 20
-9.150241427951388
 30
0.0
 10
1.588005913628472
 20
-9.235093858506945
 30
0.0
 10
1.544962565104167
 20
-9.309882269965277
 30
0.0
 10
1.502217610677083
 20
-9.235093858506945
 30
0.0
 10
1.479688856336806
 20
-9.150241427951388
 30
0.0
 10
1.479688856336806
 20
-9.06289333767361
 30
0.0
  0
SPLINE
  5
54
330
1F
100
AcDbEntity
  8
Layer 1
370
     0
100
AcDbSpline
210
0.0
220
0.0
230
1.0
 70
    11
 71
     3
 72
    41
 73
    37
 74
     0
 42
0.0000000001
 43
0.0000000001
 40
0.0
 40
0.0
 40
0.0
 40
0.0
 40
1.0
 40
1.0
 40
1.0
 40
2.0
 40
2.0
 40
2.0
 40
3.0
 40
3.0
 40
3.0
 40
4.0
 40
4.0
 40
4.0
 40
5.0
 40
5.0
 40
5.0
 40
6.0
 40
6.0
 40
6.0
 40
7.0
 40
7.0
 40
7.0
 40
8.0
 40
8.0
 40
8.0
 40
9.0
 40
9.0
 40
9.0
 40
10.0
 40
10.0
 40
10.0
 40
11.0
 40
11.0
 40
11.0
 40
12.0
 40
12.0
 40
12.0
 40
12.0
 10
5.574598524305555
 20
-2.952162000868055
 30
0.0
 10
5.574598524305555
 20
-2.952162000868055
 30
0.0
 10
6.351101345486111
 20
-4.333957248263888
 30
0.0
 10
6.351101345486111
 20
-4.333957248263888
 30
0.0
 10
6.351101345486111
 20
-4.333957248263888
 30
0.0
 10
6.351101345486111
 20
-5.069085015190972
 30
0.0
 10
6.351101345486111
 20
-5.069085015190972
 30
0.0
 10
6.330132378472221
 20
-5.067023383246528
 30
0.0
 10
6.312391493055555
 20
-5.065992567274305
 30
0.0
 10
6.2982177734375
 20
-5.065992567274305
 30
0.0
 10
6.156833224826388
 20
-5.065992567274305
 30
0.0
 10
6.019287109375
 20
-5.104519314236111
 30
0.0
 10
5.898830837673611
 20
-5.177252875434028
 30
0.0
 10
5.893568250868055
 20
-5.163831922743055
 30
0.0
 10
5.888156467013888
 20
-5.150322808159722
 30
0.0
 10
5.882012261284722
 20
-5.136101616753472
 30
0.0
 10
5.790785047743055
 20
-4.920328776041666
 30
0.0
 10
5.660101996527778
 20
-4.726650661892361
 30
0.0
 10
5.493733723958333
 20
-4.560336642795138
 30
0.0
 10
5.327243381076388
 20
-4.393846299913195
 30
0.0
 10
5.133653428819444
 20
-4.263237847222222
 30
0.0
 10
4.917833116319444
 20
-4.172003851996528
 30
0.0
 10
4.856594509548611
 20
-4.145968967013888
 30
0.0
 10
4.793470594618055
 20
-4.123494466145833
 30
0.0
 10
4.729871961805555
 20
-4.104526095920138
 30
0.0
 10
4.846733940972222
 20
-4.047512478298611
 30
0.0
 10
4.953030056423611
 20
-3.971435546875
 30
0.0
 10
5.046468098958333
 20
-3.878099229600694
 30
0.0
 10
5.269083658854166
 20
-3.655232747395833
 30
0.0
 10
5.391818576388888
 20
-3.359219021267361
 30
0.0
 10
5.391818576388888
 20
-3.04437255859375
 30
0.0
 10
5.391818576388888
 20
-3.024617513020833
 30
0.0
 10
5.391289605034722
 20
-3.005194769965278
 30
0.0
 10
5.390394422743055
 20
-2.986280653211805
 30
0.0
 10
5.453653971354166
 20
-2.983506944444444
 30
0.0
 10
5.515611436631944
 20
-2.972059461805555
 30
0.0
 10
5.574598524305555
 20
-2.952162000868055
 30
0.0
  0
SPLINE
  5
55
330
1F
100
AcDbEntity
  8
Layer 1
370
     0
100
AcDbSpline
210
0.0
220
0.0
230
1.0
 70
    11
 71
     3
 72
    41
 73
    37
 74
     0
 42
0.0000000001
 43
0.0000000001
 40
0.0
 40
0.0
 40
0.0
 40
0.0
 40
1.0
 40
1.0
 40
1.0
 40
2.0
 40
2.0
 40
2.0
 40
3.0
 40
3.0
 40
3.0
 40
4.0
 40
4.0
 40
4.0
 40
5.0
 40
5.0
 40
5.0
 40
6.0
 40
6.0
 40
6.0
 40
7.0
 40
7.0
 40
7.0
 40
8.0
 40
8.0
 40
8.0
 40
9.0
 40
9.0
 40
9.0
 40
10.0
 40
10.0
 40
10.0
 40
11.0
 40
11.0
 40
11.0
 40
12.0
 40
12.0
 40
12.0
 40
12.0
 10
2.851114908854167
 20
-8.73046875
 30
0.0
 10
2.851114908854167
 20
-8.73046875
 30
0.0
 10
2.0748291015625
 20
-7.348768446180555
 30
0.0
 10
2.0748291015625
 20
-7.348768446180555
 30
0.0
 10
2.0748291015625
 20
-7.348768446180555
 30
0.0
 10
2.0748291015625
 20
-6.61376953125
 30
0.0
 10
2.0748291015625
 20
-6.61376953125
 30
0.0
 10
2.095621744791667
 20
-6.615654839409721
 30
0.0
 10
2.113410101996528
 20
-6.616685655381944
 30
0.0
 10
2.127631293402778
 20
-6.616685655381944
 30
0.0
 10
2.268595377604167
 20
-6.616685655381944
 30
0.0
 10
2.406148274739583
 20
-6.578206380208333
 30
0.0
 10
2.526509602864583
 20
-6.505832248263888
 30
0.0
 10
2.531765407986111
 20
-6.519070095486111
 30
0.0
 10
2.537400987413194
 20
-6.5323486328125
 30
0.0
 10
2.543321397569444
 20
-6.546671549479166
 30
0.0
 10
2.634304470486111
 20
-6.762396918402778
 30
0.0
 10
2.765143500434028
 20
-6.955973307291666
 30
0.0
 10
2.931504991319444
 20
-7.122572157118055
 30
0.0
 10
3.097819010416667
 20
-7.288872612847221
 30
0.0
 10
3.291585286458333
 20
-7.419474283854166
 30
0.0
 10
3.507317437065972
 20
-7.510755750868055
 30
0.0
 10
3.568549262152778
 20
-7.536702473958333
 30
0.0
 10
3.631673177083333
 20
-7.559271918402778
 30
0.0
 10
3.695258246527778
 20
-7.5782470703125
 30
0.0
 10
3.578599717881944
 20
-7.635348849826388
 30
0.0
 10
3.472208658854167
 20
-7.711330837673611
 30
0.0
 10
3.378872341579861
 20
-7.804673936631944
 30
0.0
 10
3.156243218315972
 20
-8.027289496527777
 30
0.0
 10
3.033576117621528
 20
-8.3233642578125
 30
0.0
 10
3.033576117621528
 20
-8.63840060763889
 30
0.0
 10
3.033576117621528
 20
-8.658013237847221
 30
0.0
 10
3.034044053819444
 20
-8.677476671006945
 30
0.0
 10
3.034844292534722
 20
-8.696478949652777
 30
0.0
 10
2.972005208333333
 20
-8.699259440104166
 30
0.0
 10
2.910386827256944
 20
-8.710652669270832
 30
0.0
 10
2.851114908854167
 20
-8.73046875
 30
0.0
  0
SPLINE
  5
56
330
1F
100
AcDbEntity
  8
Layer 1
370
     0
100
AcDbSpline
210
0.0
220
0.0
230
1.0
 70
    11
 71
     3
 72
    47
 73
    43
 74
     0
 42
0.0000000001
 43
0.0000000001
 40
0.0
 40
0.0
 40
0.0
 40
0.0
 40
1.0
 40
1.0
 40
1.0
 40
2.0
 40
2.0
 40
2.0
 40
3.0
 40
3.0
 40
3.0
 40
4.0
 40
4.0
 40
4.0
 40
5.0
 40
5.0
 40
5.0
 40
6.0
 40
6.0
 40
6.0
 40
7.0
 40
7.0
 40
7.0
 40
8.0
 40
8.0
 40
8.0
 40
9.0
 40
9.0
 40
9.0
 40
10.0
 40
10.0
 40
10.0
 40
11.0
 40
11.0
 40
11.0
 40
12.0
 40
12.0
 40
12.0
 40
13.0
 40
13.0
 40
13.0
 40
14.0
 40
14.0
 40
14.0
 40
14.0
 10
3.230536566840278
 20
-2.965582953559028
 30
0.0
 10
3.369540744357639
 20
-2.929823133680555
 30
0.0
 10
3.495537651909722
 20
-2.848354763454861
 30
0.0
 10
3.585917154947917
 20
-2.735209147135417
 30
0.0
 10
3.681043836805555
 20
-2.615919325086805
 30
0.0
 10
3.731350368923611
 20
-2.472276475694444
 30
0.0
 10
3.731350368923611
 20
-2.319756401909722
 30
0.0
 10
3.731350368923611
 20
-2.276584201388889
 30
0.0
 10
3.727118598090278
 20
-2.23345947265625
 30
0.0
 10
3.719061957465278
 20
-2.191270616319444
 30
0.0
 10
3.867824978298611
 20
-2.104871961805555
 30
0.0
 10
4.038262261284722
 20
-2.059075249565972
 30
0.0
 10
4.212741427951388
 20
-2.059075249565972
 30
0.0
 10
4.387071397569445
 20
-2.059075249565972
 30
0.0
 10
4.557861328125
 20
-2.104966905381944
 30
0.0
 10
4.706651475694444
 20
-2.191501193576389
 30
0.0
 10
4.698635525173611
 20
-2.23345947265625
 30
0.0
 10
4.694417317708333
 20
-2.276584201388889
 30
0.0
 10
4.694417317708333
 20
-2.319756401909722
 30
0.0
 10
4.694417317708333
 20
-2.47222900390625
 30
0.0
 10
4.744764539930555
 20
-2.615824381510417
 30
0.0
 10
4.839925130208333
 20
-2.735073513454861
 30
0.0
 10
4.930026584201388
 20
-2.848171657986111
 30
0.0
 10
5.055704752604166
 20
-2.929545084635417
 30
0.0
 10
5.194607204861111
 20
-2.965488009982639
 30
0.0
 10
5.196818033854166
 20
-2.991719563802083
 30
0.0
 10
5.197808159722222
 20
-3.0181884765625
 30
0.0
 10
5.197808159722222
 20
-3.04437255859375
 30
0.0
 10
5.197808159722222
 20
-3.307542588975694
 30
0.0
 10
5.095309787326388
 20
-3.55499267578125
 30
0.0
 10
4.909288194444444
 20
-3.740878634982639
 30
0.0
 10
4.723171657986111
 20
-3.927001953125
 30
0.0
 10
4.475857204861111
 20
-4.029493543836805
 30
0.0
 10
4.212741427951388
 20
-4.029493543836805
 30
0.0
 10
3.949462890625
 20
-4.029493543836805
 30
0.0
 10
3.702067057291667
 20
-3.927001953125
 30
0.0
 10
3.515950520833333
 20
-3.740878634982639
 30
0.0
 10
3.330023871527778
 20
-3.55499267578125
 30
0.0
 10
3.227342393663194
 20
-3.307542588975694
 30
0.0
 10
3.227342393663194
 20
-3.04437255859375
 30
0.0
 10
3.227342393663194
 20
-3.0181884765625
 30
0.0
 10
3.228563096788194
 20
-2.991719563802083
 30
0.0
 10
3.230536566840278
 20
-2.965582953559028
 30
0.0
  0
SPLINE
  5
57
330
1F
100
AcDbEntity
  8
Layer 1
370
     0
100
AcDbSpline
210
0.0
220
0.0
230
1.0
 70
    11
 71
     3
 72
    17
 73
    13
 74
     0
 42
0.0000000001
 43
0.0000000001
 40
0.0
 40
0.0
 40
0.0
 40
0.0
 40
1.0
 40
1.0
 40
1.0
 40
2.0
 40
2.0
 40
2.0
 40
3.0
 40
3.0
 40
3.0
 40
4.0
 40
4.0
 40
4.0
 40
4.0
 10
5.802191840277778
 20
-6.144205729166666
 30
0.0
 10
5.746256510416666
 20
-6.053032769097222
 30
0.0
 10
5.716769748263888
 20
-5.949083116319444
 30
0.0
 10
5.716769748263888
 20
-5.841335720486111
 30
0.0
 10
5.716769748263888
 20
-5.733635796440972
 30
0.0
 10
5.746256510416666
 20
-5.629645453559028
 30
0.0
 10
5.802191840277778
 20
-5.538553873697916
 30
0.0
 10
5.820963541666666
 20
-5.637532552083333
 30
0.0
 10
5.830634223090278
 20
-5.739271375868055
 30
0.0
 10
5.830634223090278
 20
-5.841335720486111
 30
0.0
 10
5.830634223090278
 20
-5.943454318576388
 30
0.0
 10
5.820963541666666
 20
-6.045233832465278
 30
0.0
 10
5.802191840277778
 20
-6.144205729166666
 30
0.0
  0
SPLINE
  5
58
330
1F
100
AcDbEntity
  8
Layer 1
370
     0
100
AcDbSpline
210
0.0
220
0.0
230
1.0
 70
    11
 71
     3
 72
    65
 73
    61
 74
     0
 42
0.0000000001
 43
0.0000000001
 40
0.0
 40
0.0
 40
0.0
 40
0.0
 40
1.0
 40
1.0
 40
1.0
 40
2.0
 40
2.0
 40
2.0
 40
3.0
 40
3.0
 40
3.0
 40
4.0
 40
4.0
 40
4.0
 40
5.0
 40
5.0
 40
5.0
 40
6.0
 40
6.0
 40
6.0
 40
7.0
 40
7.0
 40
7.0
 40
8.0
 40
8.0
 40
8.0
 40
9.0
 40
9.0
 40
9.0
 40
10.0
 40
10.0
 40
10.0
 40
11.0
 40
11.0
 40
11.0
 40
12.0
 40
12.0
 40
12.0
 40
13.0
 40
13.0
 40
13.0
 40
14.0
 40
14.0
 40
14.0
 40
15.0
 40
15.0
 40
15.0
 40
16.0
 40
16.0
 40
16.0
 40
17.0
 40
17.0
 40
17.0
 40
18.0
 40
18.0
 40
18.0
 40
19.0
 40
19.0
 40
19.0
 40
20.0
 40
20.0
 40
20.0
 40
20.0
 10
5.356594509548611
 20
-4.697231716579861
 30
0.0
 10
5.505330403645833
 20
-4.846082899305555
 30
0.0
 10
5.621988932291666
 20
-5.018968370225694
 30
0.0
 10
5.703409830729166
 20
-5.211703830295138
 30
0.0
 10
5.716606987847222
 20
-5.242574055989583
 30
0.0
 10
5.728556315104166
 20
-5.273647732204861
 30
0.0
 10
5.739447699652778
 20
-5.304572211371528
 30
0.0
 10
5.599636501736111
 20
-5.449903700086805
 30
0.0
 10
5.522922092013888
 20
-5.640062120225694
 30
0.0
 10
5.522922092013888
 20
-5.841335720486111
 30
0.0
 10
5.522922092013888
 20
-6.042616102430555
 30
0.0
 10
5.599636501736111
 20
-6.232720269097221
 30
0.0
 10
5.739447699652778
 20
-6.3780517578125
 30
0.0
 10
5.728556315104166
 20
-6.409071180555555
 30
0.0
 10
5.716606987847222
 20
-6.440185546875
 30
0.0
 10
5.703409830729166
 20
-6.471015082465278
 30
0.0
 10
5.621988932291666
 20
-6.663709852430555
 30
0.0
 10
5.505330403645833
 20
-6.836778428819444
 30
0.0
 10
5.356594509548611
 20
-6.9853515625
 30
0.0
 10
5.207926432291666
 20
-7.134060329861111
 30
0.0
 10
5.035196940104166
 20
-7.250773111979166
 30
0.0
 10
4.842420789930555
 20
-7.332248263888888
 30
0.0
 10
4.642930772569444
 20
-7.416476779513888
 30
0.0
 10
4.431043836805555
 20
-7.459323459201388
 30
0.0
 10
4.212741427951388
 20
-7.459323459201388
 30
0.0
 10
3.994194878472222
 20
-7.459323459201388
 30
0.0
 10
3.782212999131944
 20
-7.416476779513888
 30
0.0
 10
3.582817925347222
 20
-7.332248263888888
 30
0.0
 10
3.390224880642361
 20
-7.250773111979166
 30
0.0
 10
3.217156304253472
 20
-7.134060329861111
 30
0.0
 10
3.068630642361111
 20
-6.9853515625
 30
0.0
 10
2.920010036892361
 20
-6.836778428819444
 30
0.0
 10
2.803249782986111
 20
-6.663750542534721
 30
0.0
 10
2.721923828125
 20
-6.471015082465278
 30
0.0
 10
2.708930121527778
 20
-6.440456814236111
 30
0.0
 10
2.696967230902778
 20
-6.409450954861111
 30
0.0
 10
2.686211480034722
 20
-6.378472222222221
 30
0.0
 10
2.826015896267361
 20
-6.233330620659721
 30
0.0
 10
2.902926974826389
 20
-6.0428466796875
 30
0.0
 10
2.902926974826389
 20
-5.841335720486111
 30
0.0
 10
2.902926974826389
 20
-5.63983154296875
 30
0.0
 10
2.826015896267361
 20
-5.449395073784722
 30
0.0
 10
2.686211480034722
 20
-5.304192437065972
 30
0.0
 10
2.696967230902778
 20
-5.273274739583333
 30
0.0
 10
2.708930121527778
 20
-5.242201063368055
 30
0.0
 10
2.721923828125
 20
-5.211703830295138
 30
0.0
 10
2.803249782986111
 20
-5.018873426649305
 30
0.0
 10
2.920010036892361
 20
-4.846082899305555
 30
0.0
 10
3.068630642361111
 20
-4.697231716579861
 30
0.0
 10
3.217156304253472
 20
-4.548746744791666
 30
0.0
 10
3.390224880642361
 20
-4.432176378038195
 30
0.0
 10
3.582817925347222
 20
-4.350572374131945
 30
0.0
 10
3.782212999131944
 20
-4.266099717881945
 30
0.0
 10
3.994194878472222
 20
-4.223442925347222
 30
0.0
 10
4.212741427951388
 20
-4.223442925347222
 30
0.0
 10
4.431043836805555
 20
-4.223442925347222
 30
0.0
 10
4.642930772569444
 20
-4.266099717881945
 30
0.0
 10
4.842420789930555
 20
-4.350572374131945
 30
0.0
 10
5.035196940104166
 20
-4.432040744357638
 30
0.0
 10
5.207926432291666
 20
-4.548746744791666
 30
0.0
 10
5.356594509548611
 20
-4.697231716579861
 30
0.0
  0
SPLINE
  5
59
330
1F
100
AcDbEntity
  8
Layer 1
370
     0
100
AcDbSpline
210
0.0
220
0.0
230
1.0
 70
    11
 71
     3
 72
    47
 73
    43
 74
     0
 42
0.0000000001
 43
0.0000000001
 40
0.0
 40
0.0
 40
0.0
 40
0.0
 40
1.0
 40
1.0
 40
1.0
 40
2.0
 40
2.0
 40
2.0
 40
3.0
 40
3.0
 40
3.0
 40
4.0
 40
4.0
 40
4.0
 40
5.0
 40
5.0
 40
5.0
 40
6.0
 40
6.0
 40
6.0
 40
7.0
 40
7.0
 40
7.0
 40
8.0
 40
8.0
 40
8.0
 40
9.0
 40
9.0
 40
9.0
 40
10.0
 40
10.0
 40
10.0
 40
11.0
 40
11.0
 40
11.0
 40
12.0
 40
12.0
 40
12.0
 40
13.0
 40
13.0
 40
13.0
 40
14.0
 40
14.0
 40
14.0
 40
14.0
 10
5.194607204861111
 20
-8.717230902777777
 30
0.0
 10
5.055704752604166
 20
-8.753119574652777
 30
0.0
 10
4.930026584201388
 20
-8.8345947265625
 30
0.0
 10
4.839925130208333
 20
-8.947686089409721
 30
0.0
 10
4.744764539930555
 20
-9.066840277777777
 30
0.0
 10
4.694417317708333
 20
-9.21044921875
 30
0.0
 10
4.694417317708333
 20
-9.362901475694445
 30
0.0
 10
4.694417317708333
 20
-9.40627712673611
 30
0.0
 10
4.698635525173611
 20
-9.44924587673611
 30
0.0
 10
4.706651475694444
 20
-9.491034613715277
 30
0.0
 10
4.557861328125
 20
-9.577840169270832
 30
0.0
 10
4.387071397569445
 20
-9.623643663194445
 30
0.0
 10
4.212741427951388
 20
-9.623643663194445
 30
0.0
 10
4.038262261284722
 20
-9.623643663194445
 30
0.0
 10
3.867824978298611
 20
-9.577840169270832
 30
0.0
 10
3.719061957465278
 20
-9.491455078125
 30
0.0
 10
3.727118598090278
 20
-9.44924587673611
 30
0.0
 10
3.731350368923611
 20
-9.406087239583332
 30
0.0
 10
3.731350368923611
 20
-9.362901475694445
 30
0.0
 10
3.731350368923611
 20
-9.21035427517361
 30
0.0
 10
3.681043836805555
 20
-9.066609700520832
 30
0.0
 10
3.585917154947917
 20
-8.94741482204861
 30
0.0
 10
3.495537651909722
 20
-8.834269205729166
 30
0.0
 10
3.369540744357639
 20
-8.752848307291666
 30
0.0
 10
3.230536566840278
 20
-8.717000325520832
 30
0.0
 10
3.228563096788194
 20
-8.690958658854166
 30
0.0
 10
3.227342393663194
 20
-8.664347330729166
 30
0.0
 10
3.227342393663194
 20
-8.63840060763889
 30
0.0
 10
3.227342393663194
 20
-8.37521701388889
 30
0.0
 10
3.330023871527778
 20
-8.127861870659721
 30
0.0
 10
3.515950520833333
 20
-7.941786024305555
 30
0.0
 10
3.702067057291667
 20
-7.755628797743055
 30
0.0
 10
3.949462890625
 20
-7.653130425347221
 30
0.0
 10
4.212741427951388
 20
-7.653130425347221
 30
0.0
 10
4.475857204861111
 20
-7.653130425347221
 30
0.0
 10
4.723171657986111
 20
-7.755628797743055
 30
0.0
 10
4.909288194444444
 20
-7.941786024305555
 30
0.0
 10
5.095309787326388
 20
-8.127861870659721
 30
0.0
 10
5.197808159722222
 20
-8.37521701388889
 30
0.0
 10
5.197808159722222
 20
-8.63840060763889
 30
0.0
 10
5.197808159722222
 20
-8.664347330729166
 30
0.0
 10
5.196818033854166
 20
-8.690958658854166
 30
0.0
 10
5.194607204861111
 20
-8.717230902777777
 30
0.0
  0
SPLINE
  5
5A
330
1F
100
AcDbEntity
  8
Layer 1
370
     0
100
AcDbSpline
210
0.0
220
0.0
230
1.0
 70
    11
 71
     3
 72
    17
 73
    13
 74
     0
 42
0.0000000001
 43
0.0000000001
 40
0.0
 40
0.0
 40
0.0
 40
0.0
 40
1.0
 40
1.0
 40
1.0
 40
2.0
 40
2.0
 40
2.0
 40
3.0
 40
3.0
 40
3.0
 40
4.0
 40
4.0
 40
4.0
 40
4.0
 10
2.594706217447917
 20
-5.841335720486111
 30
0.0
 10
2.594706217447917
 20
-5.7388916015625
 30
0.0
 10
2.604465060763889
 20
-5.636915418836805
 30
0.0
 10
2.623189290364583
 20
-5.537706163194444
 30
0.0
 10
2.679355197482639
 20
-5.6290283203125
 30
0.0
 10
2.709065755208333
 20
-5.733167860243055
 30
0.0
 10
2.709065755208333
 20
-5.841335720486111
 30
0.0
 10
2.709065755208333
 20
-5.949462890625
 30
0.0
 10
2.679355197482639
 20
-6.053643120659722
 30
0.0
 10
2.623189290364583
 20
-6.144951714409722
 30
0.0
 10
2.604465060763889
 20
-6.045803493923611
 30
0.0
 10
2.594706217447917
 20
-5.943820529513888
 30
0.0
 10
2.594706217447917
 20
-5.841335720486111
 30
0.0
  0
SPLINE
  5
5B
330
1F
100
AcDbEntity
  8
Layer 1
370
     0
100
AcDbSpline
210
0.0
220
0.0
230
1.0
 70
    11
 71
     3
 72
    14
 73
    10
 74
     0
 42
0.0000000001
 43
0.0000000001
 40
0.0
 40
0.0
 40
0.0
 40
0.0
 40
1.0
 40
1.0
 40
1.0
 40
2.0
 40
2.0
 40
2.0
 40
3.0
 40
3.0
 40
3.0
 40
3.0
 10
3.515950520833333
 20
-9.3350830078125
 30
0.0
 10
3.404541015625
 20
-9.22353786892361
 30
0.0
 10
3.321058485243055
 20
-9.086981879340277
 30
0.0
 10
3.273796929253472
 20
-8.938774956597221
 30
0.0
 10
3.432793511284722
 20
-9.017279730902777
 30
0.0
 10
3.534857855902778
 20
-9.177408854166666
 30
0.0
 10
3.537353515625
 20
-9.355821397569445
 30
0.0
 10
3.530219184027778
 20
-9.349066840277777
 30
0.0
 10
3.523173014322917
 20
-9.342135959201388
 30
0.0
 10
3.515950520833333
 20
-9.3350830078125
 30
0.0
  0
SPLINE
  5
5C
330
1F
100
AcDbEntity
  8
Layer 1
370
     0
100
AcDbSpline
210
0.0
220
0.0
230
1.0
 70
    11
 71
     3
 72
    14
 73
    10
 74
     0
 42
0.0000000001
 43
0.0000000001
 40
0.0
 40
0.0
 40
0.0
 40
0.0
 40
1.0
 40
1.0
 40
1.0
 40
2.0
 40
2.0
 40
2.0
 40
3.0
 40
3.0
 40
3.0
 40
3.0
 10
4.909288194444444
 20
-9.3350830078125
 30
0.0
 10
4.902574327256944
 20
-9.341796875
 30
0.0
 10
4.895412868923611
 20
-9.3486328125
 30
0.0
 10
4.888495551215278
 20
-9.355170355902777
 30
0.0
 10
4.891303168402778
 20
-9.177544487847221
 30
0.0
 10
4.992960611979166
 20
-9.017808702256945
 30
0.0
 10
5.151258680555555
 20
-8.939154730902777
 30
0.0
 10
5.103990342881944
 20
-9.087348090277777
 30
0.0
 10
5.020697699652778
 20
-9.223768446180555
 30
0.0
 10
4.909288194444444
 20
-9.3350830078125
 30
0.0
  0
SPLINE
  5
5D
330
1F
100
AcDbEntity
  8
Layer 1
370
     0
100
AcDbSpline
210
0.0
220
0.0
230
1.0
 70
    11
 71
     3
 72
    14
 73
    10
 74
     0
 42
0.0000000001
 43
0.0000000001
 40
0.0
 40
0.0
 40
0.0
 40
0.0
 40
1.0
 40
1.0
 40
1.0
 40
2.0
 40
2.0
 40
2.0
 40
3.0
 40
3.0
 40
3.0
 40
3.0
 10
4.909288194444444
 20
-2.347540961371528
 30
0.0
 10
5.020697699652778
 20
-2.459038628472222
 30
0.0
 10
5.103990342881944
 20
-2.595316569010417
 30
0.0
 10
5.151258680555555
 20
-2.743428548177083
 30
0.0
 10
4.992960611979166
 20
-2.664822048611111
 30
0.0
 10
4.891303168402778
 20
-2.505215115017361
 30
0.0
 10
4.888495551215278
 20
-2.327406141493055
 30
0.0
 10
4.895548502604166
 20
-2.334208170572917
 30
0.0
 10
4.902574327256944
 20
-2.340833875868055
 30
0.0
 10
4.909288194444444
 20
-2.347540961371528
 30
0.0
  0
SPLINE
  5
5E
330
1F
100
AcDbEntity
  8
Layer 1
370
     0
100
AcDbSpline
210
0.0
220
0.0
230
1.0
 70
    11
 71
     3
 72
    41
 73
    37
 74
     0
 42
0.0000000001
 43
0.0000000001
 40
0.0
 40
0.0
 40
0.0
 40
0.0
 40
1.0
 40
1.0
 40
1.0
 40
2.0
 40
2.0
 40
2.0
 40
3.0
 40
3.0
 40
3.0
 40
4.0
 40
4.0
 40
4.0
 40
5.0
 40
5.0
 40
5.0
 40
6.0
 40
6.0
 40
6.0
 40
7.0
 40
7.0
 40
7.0
 40
8.0
 40
8.0
 40
8.0
 40
9.0
 40
9.0
 40
9.0
 40
10.0
 40
10.0
 40
10.0
 40
11.0
 40
11.0
 40
11.0
 40
12.0
 40
12.0
 40
12.0
 40
12.0
 10
5.574598524305555
 20
-8.73046875
 30
0.0
 10
5.515611436631944
 20
-8.710517035590277
 30
0.0
 10
5.453653971354166
 20
-8.699259440104166
 30
0.0
 10
5.390394422743055
 20
-8.696478949652777
 30
0.0
 10
5.391289605034722
 20
-8.677476671006945
 30
0.0
 10
5.391818576388888
 20
-8.658013237847221
 30
0.0
 10
5.391818576388888
 20
-8.63840060763889
 30
0.0
 10
5.391818576388888
 20
-8.3233642578125
 30
0.0
 10
5.269083658854166
 20
-8.027289496527777
 30
0.0
 10
5.046468098958333
 20
-7.804673936631944
 30
0.0
 10
4.953030056423611
 20
-7.711330837673611
 30
0.0
 10
4.846869574652778
 20
-7.635348849826388
 30
0.0
 10
4.730034722222222
 20
-7.5782470703125
 30
0.0
 10
4.793660481770833
 20
-7.559271918402778
 30
0.0
 10
4.856594509548611
 20
-7.536702473958333
 30
0.0
 10
4.917833116319444
 20
-7.510755750868055
 30
0.0
 10
5.133653428819444
 20
-7.419474283854166
 30
0.0
 10
5.327311197916666
 20
-7.288872612847221
 30
0.0
 10
5.493733723958333
 20
-7.122572157118055
 30
0.0
 10
5.660101996527778
 20
-6.955973307291666
 30
0.0
 10
5.790785047743055
 20
-6.762396918402778
 30
0.0
 10
5.882012261284722
 20
-6.546671549479166
 30
0.0
 10
5.888156467013888
 20
-6.532118055555555
 30
0.0
 10
5.893703884548611
 20
-6.518690321180555
 30
0.0
 10
5.898830837673611
 20
-6.505655924479166
 30
0.0
 10
6.019287109375
 20
-6.578152126736111
 30
0.0
 10
6.156833224826388
 20
-6.616685655381944
 30
0.0
 10
6.2982177734375
 20
-6.616685655381944
 30
0.0
 10
6.312296549479166
 20
-6.616685655381944
 30
0.0
 10
6.329983181423611
 20
-6.615654839409721
 30
0.0
 10
6.351101345486111
 20
-6.61376953125
 30
0.0
 10
6.351101345486111
 20
-6.61376953125
 30
0.0
 10
6.351101345486111
 20
-7.348768446180555
 30
0.0
 10
6.351101345486111
 20
-7.348768446180555
 30
0.0
 10
6.351101345486111
 20
-7.348768446180555
 30
0.0
 10
5.574598524305555
 20
-8.73046875
 30
0.0
 10
5.574598524305555
 20
-8.73046875
 30
0.0
  0
SPLINE
  5
5F
330
1F
100
AcDbEntity
  8
Layer 1
370
     0
100
AcDbSpline
210
0.0
220
0.0
230
1.0
 70
    11
 71
     3
 72
    14
 73
    10
 74
     0
 42
0.0000000001
 43
0.0000000001
 40
0.0
 40
0.0
 40
0.0
 40
0.0
 40
1.0
 40
1.0
 40
1.0
 40
2.0
 40
2.0
 40
2.0
 40
3.0
 40
3.0
 40
3.0
 40
3.0
 10
3.515950520833333
 20
-2.347540961371528
 30
0.0
 10
3.522894965277778
 20
-2.340684678819444
 30
0.0
 10
3.530124240451389
 20
-2.333652072482639
 30
0.0
 10
3.537353515625
 20
-2.326985677083333
 30
0.0
 10
3.534627278645833
 20
-2.505167643229167
 30
0.0
 10
3.432793511284722
 20
-2.665242513020833
 30
0.0
 10
3.273796929253472
 20
-2.743801540798611
 30
0.0
 10
3.321241590711805
 20
-2.595465766059028
 30
0.0
 10
3.404541015625
 20
-2.459140353732639
 30
0.0
 10
3.515950520833333
 20
-2.347540961371528
 30
0.0
  0
SPLINE
  5
60
330
1F
100
AcDbEntity
  8
Layer 1
370
     0
100
AcDbSpline
210
0.0
220
0.0
230
1.0
 70
    11
 71
     3
 72
    41
 73
    37
 74
     0
 42
0.0000000001
 43
0.0000000001
 40
0.0
 40
0.0
 40
0.0
 40
0.0
 40
1.0
 40
1.0
 40
1.0
 40
2.0
 40
2.0
 40
2.0
 40
3.0
 40
3.0
 40
3.0
 40
4.0
 40
4.0
 40
4.0
 40
5.0
 40
5.0
 40
5.0
 40
6.0
 40
6.0
 40
6.0
 40
7.0
 40
7.0
 40
7.0
 40
8.0
 40
8.0
 40
8.0
 40
9.0
 40
9.0
 40
9.0
 40
10.0
 40
10.0
 40
10.0
 40
11.0
 40
11.0
 40
11.0
 40
12.0
 40
12.0
 40
12.0
 40
12.0
 10
2.851114908854167
 20
-2.952067057291667
 30
0.0
 10
2.910481770833333
 20
-2.972059461805555
 30
0.0
 10
2.972195095486111
 20
-2.983506944444444
 30
0.0
 10
3.035074869791667
 20
-2.986280653211805
 30
0.0
 10
3.034138997395833
 20
-3.005194769965278
 30
0.0
 10
3.033576117621528
 20
-3.024617513020833
 30
0.0
 10
3.033576117621528
 20
-3.04437255859375
 30
0.0
 10
3.033576117621528
 20
-3.359219021267361
 30
0.0
 10
3.156243218315972
 20
-3.655232747395833
 30
0.0
 10
3.378872341579861
 20
-3.878099229600694
 30
0.0
 10
3.472208658854167
 20
-3.971435546875
 30
0.0
 10
3.578694661458333
 20
-4.047512478298611
 30
0.0
 10
3.695448133680555
 20
-4.104526095920138
 30
0.0
 10
3.631673177083333
 20
-4.123494466145833
 30
0.0
 10
3.568745930989583
 20
-4.145968967013888
 30
0.0
 10
3.507317437065972
 20
-4.172003851996528
 30
0.0
 10
3.291680230034722
 20
-4.263237847222222
 30
0.0
 10
3.097913953993055
 20
-4.393846299913195
 30
0.0
 10
2.931504991319444
 20
-4.560336642795138
 30
0.0
 10
2.765143500434028
 20
-4.726650661892361
 30
0.0
 10
2.634304470486111
 20
-4.920328776041666
 30
0.0
 10
2.543321397569444
 20
-5.136101616753472
 30
0.0
 10
2.537590874565972
 20
-5.149895562065972
 30
0.0
 10
2.531867133246528
 20
-5.163601345486111
 30
0.0
 10
2.526509602864583
 20
-5.177022298177083
 30
0.0
 10
2.406243218315972
 20
-5.104288736979166
 30
0.0
 10
2.268690321180555
 20
-5.065992567274305
 30
0.0
 10
2.127631293402778
 20
-5.065992567274305
 30
0.0
 10
2.113410101996528
 20
-5.065992567274305
 30
0.0
 10
2.095621744791667
 20
-5.067023383246528
 30
0.0
 10
2.0748291015625
 20
-5.069085015190972
 30
0.0
 10
2.0748291015625
 20
-5.069085015190972
 30
0.0
 10
2.0748291015625
 20
-4.333957248263888
 30
0.0
 10
2.0748291015625
 20
-4.333957248263888
 30
0.0
 10
2.0748291015625
 20
-4.333957248263888
 30
0.0
 10
2.851114908854167
 20
-2.952067057291667
 30
0.0
 10
2.851114908854167
 20
-2.952067057291667
 30
0.0
  0
SPLINE
  5
61
330
1F
100
AcDbEntity
  8
Layer 1
370
     0
100
AcDbSpline
210
0.0
220
0.0
230
1.0
 70
    11
 71
     3
 72
    26
 73
    22
 74
     0
 42
0.0000000001
 43
0.0000000001
 40
0.0
 40
0.0
 40
0.0
 40
0.0
 40
1.0
 40
1.0
 40
1.0
 40
2.0
 40
2.0
 40
2.0
 40
3.0
 40
3.0
 40
3.0
 40
4.0
 40
4.0
 40
4.0
 40
5.0
 40
5.0
 40
5.0
 40
6.0
 40
6.0
 40
6.0
 40
7.0
 40
7.0
 40
7.0
 40
7.0
 10
3.493516710069444
 20
-9.873860677083332
 30
0.0
 10
3.559685601128472
 20
-9.818535698784721
 30
0.0
 10
3.613267686631944
 20
-9.752522786458332
 30
0.0
 10
3.653401692708333
 20
-9.676812065972221
 30
0.0
 10
3.823649088541667
 20
-9.768744574652777
 30
0.0
 10
4.016628689236111
 20
-9.817450629340277
 30
0.0
 10
4.212741427951388
 20
-9.817450629340277
 30
0.0
 10
4.408799913194445
 20
-9.817450629340277
 30
0.0
 10
4.601996527777778
 20
-9.768744574652777
 30
0.0
 10
4.772447374131944
 20
-9.676676432291666
 30
0.0
 10
4.812337239583333
 20
-9.752034505208332
 30
0.0
 10
4.866061740451388
 20
-9.818495008680555
 30
0.0
 10
4.932237413194444
 20
-9.873860677083332
 30
0.0
 10
4.932237413194444
 20
-9.873860677083332
 30
0.0
 10
4.522840711805555
 20
-10.60218641493056
 30
0.0
 10
4.522840711805555
 20
-10.60218641493056
 30
0.0
 10
4.522840711805555
 20
-10.60218641493056
 30
0.0
 10
3.902682834201389
 20
-10.60218641493056
 30
0.0
 10
3.902682834201389
 20
-10.60218641493056
 30
0.0
 10
3.902682834201389
 20
-10.60218641493056
 30
0.0
 10
3.493516710069444
 20
-9.873860677083332
 30
0.0
 10
3.493516710069444
 20
-9.873860677083332
 30
0.0
  0
SPLINE
  5
62
330
1F
100
AcDbEntity
  8
Layer 1
370
     0
100
AcDbSpline
210
0.0
220
0.0
230
1.0
 70
    11
 71
     3
 72
    26
 73
    22
 74
     0
 42
0.0000000001
 43
0.0000000001
 40
0.0
 40
0.0
 40
0.0
 40
0.0
 40
1.0
 40
1.0
 40
1.0
 40
2.0
 40
2.0
 40
2.0
 40
3.0
 40
3.0
 40
3.0
 40
4.0
 40
4.0
 40
4.0
 40
5.0
 40
5.0
 40
5.0
 40
6.0
 40
6.0
 40
6.0
 40
7.0
 40
7.0
 40
7.0
 40
7.0
 10
4.932237413194444
 20
-1.808946397569444
 30
0.0
 10
4.866061740451388
 20
-1.864373101128472
 30
0.0
 10
4.812337239583333
 20
-1.930487738715278
 30
0.0
 10
4.772447374131944
 20
-2.005947536892361
 30
0.0
 10
4.601996527777778
 20
-1.913926866319444
 30
0.0
 10
4.408799913194445
 20
-1.865207248263889
 30
0.0
 10
4.212741427951388
 20
-1.865207248263889
 30
0.0
 10
4.016628689236111
 20
-1.865207248263889
 30
0.0
 10
3.823649088541667
 20
-1.913784450954861
 30
0.0
 10
3.653306749131944
 20
-2.005716959635417
 30
0.0
 10
3.613267686631944
 20
-1.930304633246528
 30
0.0
 10
3.559685601128472
 20
-1.864278157552083
 30
0.0
 10
3.493516710069444
 20
-1.808946397569444
 30
0.0
 10
3.493516710069444
 20
-1.808946397569444
 30
0.0
 10
3.902777777777778
 20
-1.08038330078125
 30
0.0
 10
3.902777777777778
 20
-1.08038330078125
 30
0.0
 10
3.902777777777778
 20
-1.08038330078125
 30
0.0
 10
4.522840711805555
 20
-1.08038330078125
 30
0.0
 10
4.522840711805555
 20
-1.08038330078125
 30
0.0
 10
4.522840711805555
 20
-1.08038330078125
 30
0.0
 10
4.932237413194444
 20
-1.808946397569444
 30
0.0
 10
4.932237413194444
 20
-1.808946397569444
 30
0.0
  0
SPLINE
  5
63
330
1F
100
AcDbEntity
  8
Layer 1
370
     0
100
AcDbSpline
210
0.0
220
0.0
230
1.0
 70
    11
 71
     3
 72
    47
 73
    43
 74
     0
 42
0.0000000001
 43
0.0000000001
 40
0.0
 40
0.0
 40
0.0
 40
0.0
 40
1.0
 40
1.0
 40
1.0
 40
2.0
 40
2.0
 40
2.0
 40
3.0
 40
3.0
 40
3.0
 40
4.0
 40
4.0
 40
4.0
 40
5.0
 40
5.0
 40
5.0
 40
6.0
 40
6.0
 40
6.0
 40
7.0
 40
7.0
 40
7.0
 40
8.0
 40
8.0
 40
8.0
 40
9.0
 40
9.0
 40
9.0
 40
10.0
 40
10.0
 40
10.0
 40
11.0
 40
11.0
 40
11.0
 40
12.0
 40
12.0
 40
12.0
 40
13.0
 40
13.0
 40
13.0
 40
14.0
 40
14.0
 40
14.0
 40
14.0
 10
1.993977864583333
 20
-5.275187174479166
 30
0.0
 10
2.01739501953125
 20
-5.27130126953125
 30
0.0
 10
2.09210205078125
 20
-5.260172526041666
 30
0.0
 10
2.127631293402778
 20
-5.260172526041666
 30
0.0
 10
2.249077690972222
 20
-5.260172526041666
 30
0.0
 10
2.364949544270833
 20
-5.297207302517361
 30
0.0
 10
2.463487413194444
 20
-5.367214626736111
 30
0.0
 10
2.421963161892361
 20
-5.520534939236111
 30
0.0
 10
2.40093994140625
 20
-5.679904513888888
 30
0.0
 10
2.40093994140625
 20
-5.841335720486111
 30
0.0
 10
2.40093994140625
 20
-6.002617730034722
 30
0.0
 10
2.421963161892361
 20
-6.162095811631944
 30
0.0
 10
2.463487413194444
 20
-6.315497504340278
 30
0.0
 10
2.364949544270833
 20
-6.385606553819444
 30
0.0
 10
2.249077690972222
 20
-6.422688802083333
 30
0.0
 10
2.127631293402778
 20
-6.422688802083333
 30
0.0
 10
2.0919189453125
 20
-6.422688802083333
 30
0.0
 10
2.017306857638889
 20
-6.411417643229166
 30
0.0
 10
1.993977864583333
 20
-6.407335069444444
 30
0.0
 10
1.993977864583333
 20
-6.407335069444444
 30
0.0
 10
1.880832248263889
 20
-6.388278537326388
 30
0.0
 10
1.880832248263889
 20
-6.388278537326388
 30
0.0
 10
1.880832248263889
 20
-6.388278537326388
 30
0.0
 10
1.880832248263889
 20
-7.003648546006944
 30
0.0
 10
1.880832248263889
 20
-7.003648546006944
 30
0.0
 10
1.880832248263889
 20
-7.003648546006944
 30
0.0
 10
1.527886284722222
 20
-6.375325520833333
 30
0.0
 10
1.527886284722222
 20
-6.375325520833333
 30
0.0
 10
1.694105360243055
 20
-6.245998806423611
 30
0.0
 10
1.789326985677083
 20
-6.052001953125
 30
0.0
 10
1.789326985677083
 20
-5.841335720486111
 30
0.0
 10
1.789326985677083
 20
-5.630818684895833
 30
0.0
 10
1.694105360243055
 20
-5.436767578125
 30
0.0
 10
1.527886284722222
 20
-5.307244194878472
 30
0.0
 10
1.527886284722222
 20
-5.307244194878472
 30
0.0
 10
1.880832248263889
 20
-4.678873697916666
 30
0.0
 10
1.880832248263889
 20
-4.678873697916666
 30
0.0
 10
1.880832248263889
 20
-4.678873697916666
 30
0.0
 10
1.880832248263889
 20
-5.294386121961805
 30
0.0
 10
1.880832248263889
 20
-5.294386121961805
 30
0.0
 10
1.880832248263889
 20
-5.294386121961805
 30
0.0
 10
1.993977864583333
 20
-5.275187174479166
 30
0.0
 10
1.993977864583333
 20
-5.275187174479166
 30
0.0
  0
SPLINE
  5
64
330
1F
100
AcDbEntity
  8
Layer 1
370
     0
100
AcDbSpline
210
0.0
220
0.0
230
1.0
 70
    11
 71
     3
 72
    56
 73
    52
 74
     0
 42
0.0000000001
 43
0.0000000001
 40
0.0
 40
0.0
 40
0.0
 40
0.0
 40
1.0
 40
1.0
 40
1.0
 40
2.0
 40
2.0
 40
2.0
 40
3.0
 40
3.0
 40
3.0
 40
4.0
 40
4.0
 40
4.0
 40
5.0
 40
5.0
 40
5.0
 40
6.0
 40
6.0
 40
6.0
 40
7.0
 40
7.0
 40
7.0
 40
8.0
 40
8.0
 40
8.0
 40
9.0
 40
9.0
 40
9.0
 40
10.0
 40
10.0
 40
10.0
 40
11.0
 40
11.0
 40
11.0
 40
12.0
 40
12.0
 40
12.0
 40
13.0
 40
13.0
 40
13.0
 40
14.0
 40
14.0
 40
14.0
 40
15.0
 40
15.0
 40
15.0
 40
16.0
 40
16.0
 40
16.0
 40
17.0
 40
17.0
 40
17.0
 40
17.0
 10
1.956854926215278
 20
-9.560723198784721
 30
0.0
 10
1.85498046875
 20
-9.55654568142361
 30
0.0
 10
1.759053548177083
 20
-9.52199978298611
 30
0.0
 10
1.67852783203125
 20
-9.461032443576388
 30
0.0
 10
1.760748969184028
 20
-9.344319661458332
 30
0.0
 10
1.804524739583333
 20
-9.207112630208332
 30
0.0
 10
1.804524739583333
 20
-9.06289333767361
 30
0.0
 10
1.804524739583333
 20
-8.919447157118055
 30
0.0
 10
1.760748969184028
 20
-8.782267252604166
 30
0.0
 10
1.678385416666667
 20
-8.665228949652777
 30
0.0
 10
1.765299479166667
 20
-8.5994873046875
 30
0.0
 10
1.868442111545139
 20
-8.56484646267361
 30
0.0
 10
1.977878146701389
 20
-8.56484646267361
 30
0.0
 10
1.977878146701389
 20
-8.56484646267361
 30
0.0
 10
2.0748291015625
 20
-8.56484646267361
 30
0.0
 10
2.0748291015625
 20
-8.56484646267361
 30
0.0
 10
2.0748291015625
 20
-8.56484646267361
 30
0.0
 10
2.0748291015625
 20
-7.744561089409721
 30
0.0
 10
2.0748291015625
 20
-7.744561089409721
 30
0.0
 10
2.0748291015625
 20
-7.744561089409721
 30
0.0
 10
2.769605848524305
 20
-8.981241861979166
 30
0.0
 10
2.769605848524305
 20
-8.981241861979166
 30
0.0
 10
2.769605848524305
 20
-8.981241861979166
 30
0.0
 10
2.852342393663194
 20
-8.939710828993055
 30
0.0
 10
2.852342393663194
 20
-8.939710828993055
 30
0.0
 10
2.917290581597222
 20
-8.907145182291666
 30
0.0
 10
2.987297905815972
 20
-8.890394422743055
 30
0.0
 10
3.060418023003472
 20
-8.8897705078125
 30
0.0
 10
3.107957628038194
 20
-9.110026041666666
 30
0.0
 10
3.217854817708333
 20
-9.3111572265625
 30
0.0
 10
3.378872341579861
 20
-9.47219509548611
 30
0.0
 10
3.4134521484375
 20
-9.506890190972221
 30
0.0
 10
3.451090494791667
 20
-9.539781358506945
 30
0.0
 10
3.490003797743055
 20
-9.570231119791666
 30
0.0
 10
3.451382107204861
 20
-9.649549696180555
 30
0.0
 10
3.391350640190972
 20
-9.716471354166666
 30
0.0
 10
3.315517849392361
 20
-9.764010959201388
 30
0.0
 10
3.315517849392361
 20
-9.764010959201388
 30
0.0
 10
3.237291124131944
 20
-9.813096788194445
 30
0.0
 10
3.237291124131944
 20
-9.813096788194445
 30
0.0
 10
3.237291124131944
 20
-9.813096788194445
 30
0.0
 10
3.680433485243055
 20
-10.60218641493056
 30
0.0
 10
3.680433485243055
 20
-10.60218641493056
 30
0.0
 10
3.680433485243055
 20
-10.60218641493056
 30
0.0
 10
2.049777560763889
 20
-10.60218641493056
 30
0.0
 10
2.049777560763889
 20
-10.60218641493056
 30
0.0
 10
2.049777560763889
 20
-10.60218641493056
 30
0.0
 10
2.049777560763889
 20
-9.564656575520832
 30
0.0
 10
2.049777560763889
 20
-9.564656575520832
 30
0.0
 10
2.049777560763889
 20
-9.564656575520832
 30
0.0
 10
1.956854926215278
 20
-9.560723198784721
 30
0.0
 10
1.956854926215278
 20
-9.560723198784721
 30
0.0
  0
SPLINE
  5
65
330
1F
100
AcDbEntity
  8
Layer 1
370
     0
100
AcDbSpline
210
0.0
220
0.0
230
1.0
 70
    11
 71
     3
 72
    56
 73
    52
 74
     0
 42
0.0000000001
 43
0.0000000001
 40
0.0
 40
0.0
 40
0.0
 40
0.0
 40
1.0
 40
1.0
 40
1.0
 40
2.0
 40
2.0
 40
2.0
 40
3.0
 40
3.0
 40
3.0
 40
4.0
 40
4.0
 40
4.0
 40
5.0
 40
5.0
 40
5.0
 40
6.0
 40
6.0
 40
6.0
 40
7.0
 40
7.0
 40
7.0
 40
8.0
 40
8.0
 40
8.0
 40
9.0
 40
9.0
 40
9.0
 40
10.0
 40
10.0
 40
10.0
 40
11.0
 40
11.0
 40
11.0
 40
12.0
 40
12.0
 40
12.0
 40
13.0
 40
13.0
 40
13.0
 40
14.0
 40
14.0
 40
14.0
 40
15.0
 40
15.0
 40
15.0
 40
16.0
 40
16.0
 40
16.0
 40
17.0
 40
17.0
 40
17.0
 40
17.0
 10
5.188734266493055
 20
-9.813096788194445
 30
0.0
 10
5.188734266493055
 20
-9.813096788194445
 30
0.0
 10
5.110419379340278
 20
-9.764010959201388
 30
0.0
 10
5.110419379340278
 20
-9.764010959201388
 30
0.0
 10
5.034491644965278
 20
-9.716471354166666
 30
0.0
 10
4.974378797743055
 20
-9.649400499131945
 30
0.0
 10
4.9356689453125
 20
-9.570054796006945
 30
0.0
 10
4.9742431640625
 20
-9.539971245659721
 30
0.0
 10
5.0115966796875
 20
-9.507025824652777
 30
0.0
 10
5.046468098958333
 20
-9.47219509548611
 30
0.0
 10
5.207573784722222
 20
-9.3111572265625
 30
0.0
 10
5.3173828125
 20
-9.110026041666666
 30
0.0
 10
5.365058051215278
 20
-8.8897705078125
 30
0.0
 10
5.438042534722222
 20
-8.8902587890625
 30
0.0
 10
5.508327907986111
 20
-8.9071044921875
 30
0.0
 10
5.573513454861111
 20
-8.939710828993055
 30
0.0
 10
5.573513454861111
 20
-8.939710828993055
 30
0.0
 10
5.656155056423611
 20
-8.981241861979166
 30
0.0
 10
5.656155056423611
 20
-8.981241861979166
 30
0.0
 10
5.656155056423611
 20
-8.981241861979166
 30
0.0
 10
6.351101345486111
 20
-7.744642469618055
 30
0.0
 10
6.351101345486111
 20
-7.744642469618055
 30
0.0
 10
6.351101345486111
 20
-7.744642469618055
 30
0.0
 10
6.351101345486111
 20
-8.56484646267361
 30
0.0
 10
6.351101345486111
 20
-8.56484646267361
 30
0.0
 10
6.351101345486111
 20
-8.56484646267361
 30
0.0
 10
6.448052300347221
 20
-8.56484646267361
 30
0.0
 10
6.448052300347221
 20
-8.56484646267361
 30
0.0
 10
6.557264539930555
 20
-8.56484646267361
 30
0.0
 10
6.660549587673611
 20
-8.5994873046875
 30
0.0
 10
6.747545030381944
 20
-8.665228949652777
 30
0.0
 10
6.664957682291666
 20
-8.782267252604166
 30
0.0
 10
6.621310763888888
 20
-8.919447157118055
 30
0.0
 10
6.621310763888888
 20
-9.06289333767361
 30
0.0
 10
6.621310763888888
 20
-9.207207573784721
 30
0.0
 10
6.664957682291666
 20
-9.344428168402777
 30
0.0
 10
6.747409396701388
 20
-9.461181640625
 30
0.0
 10
6.666707356770833
 20
-9.52199978298611
 30
0.0
 10
6.570638020833333
 20
-9.55654568142361
 30
0.0
 10
6.468980577256944
 20
-9.560723198784721
 30
0.0
 10
6.468980577256944
 20
-9.560723198784721
 30
0.0
 10
6.376071506076388
 20
-9.564710828993055
 30
0.0
 10
6.376071506076388
 20
-9.564710828993055
 30
0.0
 10
6.376071506076388
 20
-9.564710828993055
 30
0.0
 10
6.376071506076388
 20
-10.60218641493056
 30
0.0
 10
6.376071506076388
 20
-10.60218641493056
 30
0.0
 10
6.376071506076388
 20
-10.60218641493056
 30
0.0
 10
4.745279947916666
 20
-10.60218641493056
 30
0.0
 10
4.745279947916666
 20
-10.60218641493056
 30
0.0
 10
4.745279947916666
 20
-10.60218641493056
 30
0.0
 10
5.188734266493055
 20
-9.813096788194445
 30
0.0
 10
5.188734266493055
 20
-9.813096788194445
 30
0.0
  0
SPLINE
  5
66
330
1F
100
AcDbEntity
  8
Layer 1
370
     0
100
AcDbSpline
210
0.0
220
0.0
230
1.0
 70
    11
 71
     3
 72
    47
 73
    43
 74
     0
 42
0.0000000001
 43
0.0000000001
 40
0.0
 40
0.0
 40
0.0
 40
0.0
 40
1.0
 40
1.0
 40
1.0
 40
2.0
 40
2.0
 40
2.0
 40
3.0
 40
3.0
 40
3.0
 40
4.0
 40
4.0
 40
4.0
 40
5.0
 40
5.0
 40
5.0
 40
6.0
 40
6.0
 40
6.0
 40
7.0
 40
7.0
 40
7.0
 40
8.0
 40
8.0
 40
8.0
 40
9.0
 40
9.0
 40
9.0
 40
10.0
 40
10.0
 40
10.0
 40
11.0
 40
11.0
 40
11.0
 40
12.0
 40
12.0
 40
12.0
 40
13.0
 40
13.0
 40
13.0
 40
14.0
 40
14.0
 40
14.0
 40
14.0
 10
6.431871202256944
 20
-6.407335069444444
 30
0.0
 10
6.408460828993055
 20
-6.411417643229166
 30
0.0
 10
6.334025065104166
 20
-6.422688802083333
 30
0.0
 10
6.2982177734375
 20
-6.422688802083333
 30
0.0
 10
6.176540798611111
 20
-6.422688802083333
 30
0.0
 10
6.060533311631944
 20
-6.385470920138888
 30
0.0
 10
5.961968315972222
 20
-6.315171983506944
 30
0.0
 10
6.003268771701388
 20
-6.162000868055555
 30
0.0
 10
6.024386935763888
 20
-6.002577039930555
 30
0.0
 10
6.024386935763888
 20
-5.841335720486111
 30
0.0
 10
6.024386935763888
 20
-5.679904513888888
 30
0.0
 10
6.003268771701388
 20
-5.520677354600694
 30
0.0
 10
5.961832682291666
 20
-5.3675537109375
 30
0.0
 10
6.060397677951388
 20
-5.297207302517361
 30
0.0
 10
6.176540798611111
 20
-5.260172526041666
 30
0.0
 10
6.2982177734375
 20
-5.260172526041666
 30
0.0
 10
6.333835177951388
 20
-5.260172526041666
 30
0.0
 10
6.408460828993055
 20
-5.27130126953125
 30
0.0
 10
6.431871202256944
 20
-5.275187174479166
 30
0.0
 10
6.431871202256944
 20
-5.275187174479166
 30
0.0
 10
6.544921875
 20
-5.294386121961805
 30
0.0
 10
6.544921875
 20
-5.294386121961805
 30
0.0
 10
6.544921875
 20
-5.294386121961805
 30
0.0
 10
6.544921875
 20
-4.679022894965278
 30
0.0
 10
6.544921875
 20
-4.679022894965278
 30
0.0
 10
6.544921875
 20
-4.679022894965278
 30
0.0
 10
6.897976345486111
 20
-5.307244194878472
 30
0.0
 10
6.897976345486111
 20
-5.307244194878472
 30
0.0
 10
6.731648763020833
 20
-5.436720106336805
 30
0.0
 10
6.636420355902778
 20
-5.630581325954861
 30
0.0
 10
6.636420355902778
 20
-5.841335720486111
 30
0.0
 10
6.636420355902778
 20
-6.052001953125
 30
0.0
 10
6.731648763020833
 20
-6.245998806423611
 30
0.0
 10
6.897976345486111
 20
-6.375325520833333
 30
0.0
 10
6.897976345486111
 20
-6.375325520833333
 30
0.0
 10
6.544921875
 20
-7.0037841796875
 30
0.0
 10
6.544921875
 20
-7.0037841796875
 30
0.0
 10
6.544921875
 20
-7.0037841796875
 30
0.0
 10
6.544921875
 20
-6.388278537326388
 30
0.0
 10
6.544921875
 20
-6.388278537326388
 30
0.0
 10
6.544921875
 20
-6.388278537326388
 30
0.0
 10
6.431871202256944
 20
-6.407335069444444
 30
0.0
 10
6.431871202256944
 20
-6.407335069444444
 30
0.0
  0
SPLINE
  5
67
330
1F
100
AcDbEntity
  8
Layer 1
370
     0
100
AcDbSpline
210
0.0
220
0.0
230
1.0
 70
    11
 71
     3
 72
    56
 73
    52
 74
     0
 42
0.0000000001
 43
0.0000000001
 40
0.0
 40
0.0
 40
0.0
 40
0.0
 40
1.0
 40
1.0
 40
1.0
 40
2.0
 40
2.0
 40
2.0
 40
3.0
 40
3.0
 40
3.0
 40
4.0
 40
4.0
 40
4.0
 40
5.0
 40
5.0
 40
5.0
 40
6.0
 40
6.0
 40
6.0
 40
7.0
 40
7.0
 40
7.0
 40
8.0
 40
8.0
 40
8.0
 40
9.0
 40
9.0
 40
9.0
 40
10.0
 40
10.0
 40
10.0
 40
11.0
 40
11.0
 40
11.0
 40
12.0
 40
12.0
 40
12.0
 40
13.0
 40
13.0
 40
13.0
 40
14.0
 40
14.0
 40
14.0
 40
15.0
 40
15.0
 40
15.0
 40
16.0
 40
16.0
 40
16.0
 40
17.0
 40
17.0
 40
17.0
 40
17.0
 10
6.468980577256944
 20
-2.121914333767361
 30
0.0
 10
6.570638020833333
 20
-2.126274956597222
 30
0.0
 10
6.666707356770833
 20
-2.160481770833333
 30
0.0
 10
6.747409396701388
 20
-2.221632215711805
 30
0.0
 10
6.664957682291666
 20
-2.338290744357639
 30
0.0
 10
6.621310763888888
 20
-2.475558810763889
 30
0.0
 10
6.621310763888888
 20
-2.619771321614583
 30
0.0
 10
6.621310763888888
 20
-2.763326009114583
 30
0.0
 10
6.664957682291666
 20
-2.900539822048611
 30
0.0
 10
6.747409396701388
 20
-3.017584906684028
 30
0.0
 10
6.660549587673611
 20
-3.083184136284722
 30
0.0
 10
6.557264539930555
 20
-3.11785888671875
 30
0.0
 10
6.448052300347221
 20
-3.11785888671875
 30
0.0
 10
6.448052300347221
 20
-3.11785888671875
 30
0.0
 10
6.351101345486111
 20
-3.11785888671875
 30
0.0
 10
6.351101345486111
 20
-3.11785888671875
 30
0.0
 10
6.351101345486111
 20
-3.11785888671875
 30
0.0
 10
6.351101345486111
 20
-3.937974717881944
 30
0.0
 10
6.351101345486111
 20
-3.937974717881944
 30
0.0
 10
6.351101345486111
 20
-3.937974717881944
 30
0.0
 10
5.656155056423611
 20
-2.701422797309028
 30
0.0
 10
5.656155056423611
 20
-2.701422797309028
 30
0.0
 10
5.656155056423611
 20
-2.701422797309028
 30
0.0
 10
5.573513454861111
 20
-2.742953830295139
 30
0.0
 10
5.573513454861111
 20
-2.742953830295139
 30
0.0
 10
5.508327907986111
 20
-2.775668674045139
 30
0.0
 10
5.438273111979166
 20
-2.792317708333333
 30
0.0
 10
5.365058051215278
 20
-2.792887369791667
 30
0.0
 10
5.3173828125
 20
-2.572652180989583
 30
0.0
 10
5.207573784722222
 20
-2.371615939670139
 30
0.0
 10
5.046468098958333
 20
-2.21051025390625
 30
0.0
 10
5.0115966796875
 20
-2.175686306423611
 30
0.0
 10
4.9742431640625
 20
-2.142740885416667
 30
0.0
 10
4.9356689453125
 20
-2.112759060329861
 30
0.0
 10
4.974378797743055
 20
-2.033311631944444
 30
0.0
 10
5.034491644965278
 20
-1.96624755859375
 30
0.0
 10
5.110419379340278
 20
-1.918565538194444
 30
0.0
 10
5.110419379340278
 20
-1.918565538194444
 30
0.0
 10
5.188734266493055
 20
-1.869439019097222
 30
0.0
 10
5.188734266493055
 20
-1.869439019097222
 30
0.0
 10
5.188734266493055
 20
-1.869439019097222
 30
0.0
 10
4.745279947916666
 20
-1.08038330078125
 30
0.0
 10
4.745279947916666
 20
-1.08038330078125
 30
0.0
 10
4.745279947916666
 20
-1.08038330078125
 30
0.0
 10
6.376071506076388
 20
-1.08038330078125
 30
0.0
 10
6.376071506076388
 20
-1.08038330078125
 30
0.0
 10
6.376071506076388
 20
-1.08038330078125
 30
0.0
 10
6.376071506076388
 20
-2.118245442708333
 30
0.0
 10
6.376071506076388
 20
-2.118245442708333
 30
0.0
 10
6.376071506076388
 20
-2.118245442708333
 30
0.0
 10
6.468980577256944
 20
-2.121914333767361
 30
0.0
 10
6.468980577256944
 20
-2.121914333767361
 30
0.0
  0
SPLINE
  5
68
330
1F
100
AcDbEntity
  8
Layer 1
370
     0
100
AcDbSpline
210
0.0
220
0.0
230
1.0
 70
    11
 71
     3
 72
    56
 73
    52
 74
     0
 42
0.0000000001
 43
0.0000000001
 40
0.0
 40
0.0
 40
0.0
 40
0.0
 40
1.0
 40
1.0
 40
1.0
 40
2.0
 40
2.0
 40
2.0
 40
3.0
 40
3.0
 40
3.0
 40
4.0
 40
4.0
 40
4.0
 40
5.0
 40
5.0
 40
5.0
 40
6.0
 40
6.0
 40
6.0
 40
7.0
 40
7.0
 40
7.0
 40
8.0
 40
8.0
 40
8.0
 40
9.0
 40
9.0
 40
9.0
 40
10.0
 40
10.0
 40
10.0
 40
11.0
 40
11.0
 40
11.0
 40
12.0
 40
12.0
 40
12.0
 40
13.0
 40
13.0
 40
13.0
 40
14.0
 40
14.0
 40
14.0
 40
15.0
 40
15.0
 40
15.0
 40
16.0
 40
16.0
 40
16.0
 40
17.0
 40
17.0
 40
17.0
 40
17.0
 10
3.315517849392361
 20
-1.918565538194444
 30
0.0
 10
3.391350640190972
 20
-1.966200086805555
 30
0.0
 10
3.451382107204861
 20
-2.033121744791667
 30
0.0
 10
3.490003797743055
 20
-2.112379286024305
 30
0.0
 10
3.451002332899305
 20
-2.142890082465278
 30
0.0
 10
3.4134521484375
 20
-2.175733778211805
 30
0.0
 10
3.378872341579861
 20
-2.21051025390625
 30
0.0
 10
3.217854817708333
 20
-2.371615939670139
 30
0.0
 10
3.107855902777778
 20
-2.572652180989583
 30
0.0
 10
3.060418023003472
 20
-2.792887369791667
 30
0.0
 10
2.987216525607639
 20
-2.792236328125
 30
0.0
 10
2.917290581597222
 20
-2.775472005208333
 30
0.0
 10
2.852342393663194
 20
-2.742953830295139
 30
0.0
 10
2.852342393663194
 20
-2.742953830295139
 30
0.0
 10
2.769605848524305
 20
-2.701422797309028
 30
0.0
 10
2.769605848524305
 20
-2.701422797309028
 30
0.0
 10
2.769605848524305
 20
-2.701422797309028
 30
0.0
 10
2.0748291015625
 20
-3.937974717881944
 30
0.0
 10
2.0748291015625
 20
-3.937974717881944
 30
0.0
 10
2.0748291015625
 20
-3.937974717881944
 30
0.0
 10
2.0748291015625
 20
-3.11785888671875
 30
0.0
 10
2.0748291015625
 20
-3.11785888671875
 30
0.0
 10
2.0748291015625
 20
-3.11785888671875
 30
0.0
 10
1.977878146701389
 20
-3.11785888671875
 30
0.0
 10
1.977878146701389
 20
-3.11785888671875
 30
0.0
 10
1.868442111545139
 20
-3.11785888671875
 30
0.0
 10
1.765204535590278
 20
-3.083184136284722
 30
0.0
 10
1.678385416666667
 20
-3.017584906684028
 30
0.0
 10
1.760748969184028
 20
-2.900539822048611
 30
0.0
 10
1.804524739583333
 20
-2.763326009114583
 30
0.0
 10
1.804524739583333
 20
-2.619771321614583
 30
0.0
 10
1.804524739583333
 20
-2.475653754340278
 30
0.0
 10
1.760748969184028
 20
-2.338433159722222
 30
0.0
 10
1.67852783203125
 20
-2.221632215711805
 30
0.0
 10
1.759053548177083
 20
-2.160481770833333
 30
0.0
 10
1.85498046875
 20
-2.126274956597222
 30
0.0
 10
1.956854926215278
 20
-2.121914333767361
 30
0.0
 10
1.956854926215278
 20
-2.121914333767361
 30
0.0
 10
2.049777560763889
 20
-2.118245442708333
 30
0.0
 10
2.049777560763889
 20
-2.118245442708333
 30
0.0
 10
2.049777560763889
 20
-2.118245442708333
 30
0.0
 10
2.049777560763889
 20
-1.08038330078125
 30
0.0
 10
2.049777560763889
 20
-1.08038330078125
 30
0.0
 10
2.049777560763889
 20
-1.08038330078125
 30
0.0
 10
3.680433485243055
 20
-1.08038330078125
 30
0.0
 10
3.680433485243055
 20
-1.08038330078125
 30
0.0
 10
3.680433485243055
 20
-1.08038330078125
 30
0.0
 10
3.237291124131944
 20
-1.869439019097222
 30
0.0
 10
3.237291124131944
 20
-1.869439019097222
 30
0.0
 10
3.237291124131944
 20
-1.869439019097222
 30
0.0
 10
3.315517849392361
 20
-1.918565538194444
 30
0.0
 10
3.315517849392361
 20
-1.918565538194444
 30
0.0
  0
POLYLINE
  5
69
330
1F
100
AcDbEntity
  8
Layer 1
370
     0
100
AcDb2dPolyline
 66
     1
 10
0.0
 20
0.0
 30
0.0
  0
VERTEX
  5
6A
330
69
100
AcDbEntity
  8
Layer 1
370
     0
100
AcDbVertex
100
AcDb2dVertex
 10
6.569851345486111
 20
-10.79599338107639
 30
0.0
  0
VERTEX
  5
6B
330
69
100
AcDbEntity
  8
Layer 1
370
     0
100
AcDbVertex
100
AcDb2dVertex
 10
6.800632052951388
 20
-10.79599338107639
 30
0.0
  0
VERTEX
  5
6C
330
69
100
AcDbEntity
  8
Layer 1
370
     0
100
AcDbVertex
100
AcDb2dVertex
 10
6.800632052951388
 20
-11.02676052517361
 30
0.0
  0
VERTEX
  5
6D
330
69
100
AcDbEntity
  8
Layer 1
370
     0
100
AcDbVertex
100
AcDb2dVertex
 10
6.569851345486111
 20
-11.02676052517361
 30
0.0
  0
VERTEX
  5
6E
330
69
100
AcDbEntity
  8
Layer 1
370
     0
100
AcDbVertex
100
AcDb2dVertex
 10
6.569851345486111
 20
-10.79599338107639
 30
0.0
  0
SEQEND
  5
6F
330
69
100
AcDbEntity
  8
Layer 1
370
     0
  0
SPLINE
  5
70
330
1F
100
AcDbEntity
  8
Layer 1
370
     0
100
AcDbSpline
210
0.0
220
0.0
230
1.0
 70
    11
 71
     3
 72
    26
 73
    22
 74
     0
 42
0.0000000001
 43
0.0000000001
 40
0.0
 40
0.0
 40
0.0
 40
0.0
 40
1.0
 40
1.0
 40
1.0
 40
2.0
 40
2.0
 40
2.0
 40
3.0
 40
3.0
 40
3.0
 40
4.0
 40
4.0
 40
4.0
 40
5.0
 40
5.0
 40
5.0
 40
6.0
 40
6.0
 40
6.0
 40
7.0
 40
7.0
 40
7.0
 40
7.0
 10
6.569851345486111
 20
-10.60218641493056
 30
0.0
 10
6.569851345486111
 20
-10.60218641493056
 30
0.0
 10
6.569851345486111
 20
-9.744425455729166
 30
0.0
 10
6.569851345486111
 20
-9.744425455729166
 30
0.0
 10
6.683688693576388
 20
-9.724216037326388
 30
0.0
 10
6.790595160590278
 20
-9.675550672743055
 30
0.0
 10
6.880696614583333
 20
-9.603000217013888
 30
0.0
 10
6.970893012152778
 20
-9.675550672743055
 30
0.0
 10
7.077785915798611
 20
-9.724216037326388
 30
0.0
 10
7.191487630208333
 20
-9.744425455729166
 30
0.0
 10
7.191487630208333
 20
-9.744425455729166
 30
0.0
 10
7.191487630208333
 20
-11.02676052517361
 30
0.0
 10
7.191487630208333
 20
-11.02676052517361
 30
0.0
 10
7.191487630208333
 20
-11.02676052517361
 30
0.0
 10
6.9945068359375
 20
-11.02676052517361
 30
0.0
 10
6.9945068359375
 20
-11.02676052517361
 30
0.0
 10
6.9945068359375
 20
-11.02676052517361
 30
0.0
 10
6.9945068359375
 20
-10.60218641493056
 30
0.0
 10
6.9945068359375
 20
-10.60218641493056
 30
0.0
 10
6.9945068359375
 20
-10.60218641493056
 30
0.0
 10
6.569851345486111
 20
-10.60218641493056
 30
0.0
 10
6.569851345486111
 20
-10.60218641493056
 30
0.0
  0
SPLINE
  5
71
330
1F
100
AcDbEntity
  8
Layer 1
370
     0
100
AcDbSpline
210
0.0
220
0.0
230
1.0
 70
    11
 71
     3
 72
    17
 73
    13
 74
     0
 42
0.0000000001
 43
0.0000000001
 40
0.0
 40
0.0
 40
0.0
 40
0.0
 40
1.0
 40
1.0
 40
1.0
 40
2.0
 40
2.0
 40
2.0
 40
3.0
 40
3.0
 40
3.0
 40
4.0
 40
4.0
 40
4.0
 40
4.0
 10
6.946248372395833
 20
-9.06289333767361
 30
0.0
 10
6.946248372395833
 20
-9.150241427951388
 30
0.0
 10
6.923638237847221
 20
-9.235093858506945
 30
0.0
 10
6.880696614583333
 20
-9.309882269965277
 30
0.0
 10
6.837849934895833
 20
-9.235093858506945
 30
0.0
 10
6.815131293402778
 20
-9.150241427951388
 30
0.0
 10
6.815131293402778
 20
-9.06289333767361
 30
0.0
 10
6.815131293402778
 20
-8.975992838541666
 30
0.0
 10
6.837849934895833
 20
-8.891276041666666
 30
0.0
 10
6.880696614583333
 20
-8.81637912326389
 30
0.0
 10
6.923638237847221
 20
-8.891276041666666
 30
0.0
 10
6.946248372395833
 20
-8.975992838541666
 30
0.0
 10
6.946248372395833
 20
-9.06289333767361
 30
0.0
  0
POLYLINE
  5
72
330
1F
100
AcDbEntity
  8
Layer 1
370
     0
100
AcDb2dPolyline
 66
     1
 10
0.0
 20
0.0
 30
0.0
  0
VERTEX
  5
73
330
72
100
AcDbEntity
  8
Layer 1
370
     0
100
AcDbVertex
100
AcDb2dVertex
 10
1.855909559461805
 20
-0.8865695529513888
 30
0.0
  0
VERTEX
  5
74
330
72
100
AcDbEntity
  8
Layer 1
370
     0
100
AcDbVertex
100
AcDb2dVertex
 10
1.625217013888889
 20
-0.8865695529513888
 30
0.0
  0
VERTEX
  5
75
330
72
100
AcDbEntity
  8
Layer 1
370
     0
100
AcDbVertex
100
AcDb2dVertex
 10
1.625217013888889
 20
-0.6559244791666666
 30
0.0
  0
VERTEX
  5
76
330
72
100
AcDbEntity
  8
Layer 1
370
     0
100
AcDbVertex
100
AcDb2dVertex
 10
1.855909559461805
 20
-0.6559244791666666
 30
0.0
  0
VERTEX
  5
77
330
72
100
AcDbEntity
  8
Layer 1
370
     0
100
AcDbVertex
100
AcDb2dVertex
 10
1.855909559461805
 20
-0.8865695529513888
 30
0.0
  0
SEQEND
  5
78
330
72
100
AcDbEntity
  8
Layer 1
370
     0
  0
SPLINE
  5
79
330
1F
100
AcDbEntity
  8
Layer 1
370
     0
100
AcDbSpline
210
0.0
220
0.0
230
1.0
 70
    11
 71
     3
 72
    26
 73
    22
 74
     0
 42
0.0000000001
 43
0.0000000001
 40
0.0
 40
0.0
 40
0.0
 40
0.0
 40
1.0
 40
1.0
 40
1.0
 40
2.0
 40
2.0
 40
2.0
 40
3.0
 40
3.0
 40
3.0
 40
4.0
 40
4.0
 40
4.0
 40
5.0
 40
5.0
 40
5.0
 40
6.0
 40
6.0
 40
6.0
 40
7.0
 40
7.0
 40
7.0
 40
7.0
 10
1.855909559461805
 20
-1.08038330078125
 30
0.0
 10
1.855909559461805
 20
-1.08038330078125
 30
0.0
 10
1.855909559461805
 20
-1.938368055555555
 30
0.0
 10
1.855909559461805
 20
-1.938368055555555
 30
0.0
 10
1.742255316840278
 20
-1.958407931857639
 30
0.0
 10
1.635260687934028
 20
-2.007073296440972
 30
0.0
 10
1.544962565104167
 20
-2.079623752170139
 30
0.0
 10
1.454962836371528
 20
-2.007073296440972
 30
0.0
 10
1.347968207465278
 20
-1.958407931857639
 30
0.0
 10
1.234347873263889
 20
-1.938368055555555
 30
0.0
 10
1.234347873263889
 20
-1.938368055555555
 30
0.0
 10
1.234347873263889
 20
-0.6559244791666666
 30
0.0
 10
1.234347873263889
 20
-0.6559244791666666
 30
0.0
 10
1.234347873263889
 20
-0.6559244791666666
 30
0.0
 10
1.431308322482639
 20
-0.6559244791666666
 30
0.0
 10
1.431308322482639
 20
-0.6559244791666666
 30
0.0
 10
1.431308322482639
 20
-0.6559244791666666
 30
0.0
 10
1.431308322482639
 20
-1.08038330078125
 30
0.0
 10
1.431308322482639
 20
-1.08038330078125
 30
0.0
 10
1.431308322482639
 20
-1.08038330078125
 30
0.0
 10
1.855909559461805
 20
-1.08038330078125
 30
0.0
 10
1.855909559461805
 20
-1.08038330078125
 30
0.0
  0
SPLINE
  5
7A
330
1F
100
AcDbEntity
  8
Layer 1
370
     0
100
AcDbSpline
210
0.0
220
0.0
230
1.0
 70
    11
 71
     3
 72
    17
 73
    13
 74
     0
 42
0.0000000001
 43
0.0000000001
 40
0.0
 40
0.0
 40
0.0
 40
0.0
 40
1.0
 40
1.0
 40
1.0
 40
2.0
 40
2.0
 40
2.0
 40
3.0
 40
3.0
 40
3.0
 40
4.0
 40
4.0
 40
4.0
 40
4.0
 10
1.479688856336806
 20
-2.619771321614583
 30
0.0
 10
1.479688856336806
 20
-2.532524956597222
 30
0.0
 10
1.502217610677083
 20
-2.447496202256944
 30
0.0
 10
1.544962565104167
 20
-2.37274169921875
 30
0.0
 10
1.588005913628472
 20
-2.447496202256944
 30
0.0
 10
1.610710991753472
 20
-2.532524956597222
 30
0.0
 10
1.610710991753472
 20
-2.619771321614583
 30
0.0
 10
1.610710991753472
 20
-2.706637912326389
 30
0.0
 10
1.588005913628472
 20
-2.791436089409722
 30
0.0
 10
1.544962565104167
 20
-2.866238064236111
 30
0.0
 10
1.502217610677083
 20
-2.791436089409722
 30
0.0
 10
1.479688856336806
 20
-2.706637912326389
 30
0.0
 10
1.479688856336806
 20
-2.619771321614583
 30
0.0
  0
SPLINE
  5
7B
330
1F
100
AcDbEntity
  8
Layer 1
370
     0
100
AcDbSpline
210
0.0
220
0.0
230
1.0
 70
    11
 71
     3
 72
    17
 73
    13
 74
     0
 42
0.0000000001
 43
0.0000000001
 40
0.0
 40
0.0
 40
0.0
 40
0.0
 40
1.0
 40
1.0
 40
1.0
 40
2.0
 40
2.0
 40
2.0
 40
3.0
 40
3.0
 40
3.0
 40
4.0
 40
4.0
 40
4.0
 40
4.0
 10
1.227783203125
 20
-5.841335720486111
 30
0.0
 10
1.227783203125
 20
-5.841335720486111
 30
0.0
 10
1.431308322482639
 20
-5.478908962673611
 30
0.0
 10
1.431308322482639
 20
-5.478908962673611
 30
0.0
 10
1.535820855034722
 20
-5.570936414930555
 30
0.0
 10
1.595465766059028
 20
-5.702100965711805
 30
0.0
 10
1.595465766059028
 20
-5.841335720486111
 30
0.0
 10
1.595465766059028
 20
-5.980523003472222
 30
0.0
 10
1.535820855034722
 20
-6.1116943359375
 30
0.0
 10
1.431308322482639
 20
-6.203762478298611
 30
0.0
 10
1.431308322482639
 20
-6.203762478298611
 30
0.0
 10
1.227783203125
 20
-5.841335720486111
 30
0.0
 10
1.227783203125
 20
-5.841335720486111
 30
0.0
  0
SPLINE
  5
7C
330
1F
100
AcDbEntity
  8
Layer 1
370
     0
100
AcDbSpline
210
0.0
220
0.0
230
1.0
 70
    11
 71
     3
 72
    14
 73
    10
 74
     0
 42
0.0000000001
 43
0.0000000001
 40
0.0
 40
0.0
 40
0.0
 40
0.0
 40
1.0
 40
1.0
 40
1.0
 40
2.0
 40
2.0
 40
2.0
 40
3.0
 40
3.0
 40
3.0
 40
3.0
 10
4.212741427951388
 20
-11.15431043836806
 30
0.0
 10
4.212741427951388
 20
-11.15431043836806
 30
0.0
 10
4.182847764756945
 20
-11.10126410590278
 30
0.0
 10
4.182847764756945
 20
-11.10126410590278
 30
0.0
 10
4.202460394965278
 20
-11.09996202256944
 30
0.0
 10
4.222588433159722
 20
-11.09996202256944
 30
0.0
 10
4.242485894097222
 20
-11.10122341579861
 30
0.0
 10
4.242485894097222
 20
-11.10122341579861
 30
0.0
 10
4.212741427951388
 20
-11.15431043836806
 30
0.0
 10
4.212741427951388
 20
-11.15431043836806
 30
0.0
  0
SPLINE
  5
7D
330
1F
100
AcDbEntity
  8
Layer 1
370
     0
100
AcDbSpline
210
0.0
220
0.0
230
1.0
 70
    11
 71
     3
 72
    23
 73
    19
 74
     0
 42
0.0000000001
 43
0.0000000001
 40
0.0
 40
0.0
 40
0.0
 40
0.0
 40
1.0
 40
1.0
 40
1.0
 40
2.0
 40
2.0
 40
2.0
 40
3.0
 40
3.0
 40
3.0
 40
4.0
 40
4.0
 40
4.0
 40
5.0
 40
5.0
 40
5.0
 40
6.0
 40
6.0
 40
6.0
 40
6.0
 10
7.216457790798611
 20
-6.511135525173611
 30
0.0
 10
7.216457790798611
 20
-6.511135525173611
 30
0.0
 10
7.216552734375
 20
-8.377604166666666
 30
0.0
 10
7.216552734375
 20
-8.377604166666666
 30
0.0
 10
7.093560112847221
 20
-8.394965277777777
 30
0.0
 10
6.977823893229166
 20
-8.445271809895832
 30
0.0
 10
6.880696614583333
 20
-8.52346462673611
 30
0.0
 10
6.783555772569444
 20
-8.445271809895832
 30
0.0
 10
6.667887369791666
 20
-8.394965277777777
 30
0.0
 10
6.544921875
 20
-8.377604166666666
 30
0.0
 10
6.544921875
 20
-8.377604166666666
 30
0.0
 10
6.544921875
 20
-7.399631076388888
 30
0.0
 10
6.544921875
 20
-7.399631076388888
 30
0.0
 10
6.544921875
 20
-7.399631076388888
 30
0.0
 10
7.0665283203125
 20
-6.471489800347221
 30
0.0
 10
7.0665283203125
 20
-6.471489800347221
 30
0.0
 10
7.114583333333333
 20
-6.490437825520833
 30
0.0
 10
7.164984809027778
 20
-6.503960503472221
 30
0.0
 10
7.216457790798611
 20
-6.511135525173611
 30
0.0
  0
SPLINE
  5
7E
330
1F
100
AcDbEntity
  8
Layer 1
370
     0
100
AcDbSpline
210
0.0
220
0.0
230
1.0
 70
    11
 71
     3
 72
    17
 73
    13
 74
     0
 42
0.0000000001
 43
0.0000000001
 40
0.0
 40
0.0
 40
0.0
 40
0.0
 40
1.0
 40
1.0
 40
1.0
 40
2.0
 40
2.0
 40
2.0
 40
3.0
 40
3.0
 40
3.0
 40
4.0
 40
4.0
 40
4.0
 40
4.0
 10
7.198255750868055
 20
-5.841335720486111
 30
0.0
 10
7.198255750868055
 20
-5.841335720486111
 30
0.0
 10
6.9945068359375
 20
-6.203762478298611
 30
0.0
 10
6.9945068359375
 20
-6.203762478298611
 30
0.0
 10
6.889946831597221
 20
-6.1116943359375
 30
0.0
 10
6.830390082465278
 20
-5.980712890625
 30
0.0
 10
6.830390082465278
 20
-5.841335720486111
 30
0.0
 10
6.830390082465278
 20
-5.702100965711805
 30
0.0
 10
6.889946831597221
 20
-5.570936414930555
 30
0.0
 10
6.9945068359375
 20
-5.47900390625
 30
0.0
 10
6.9945068359375
 20
-5.47900390625
 30
0.0
 10
7.198255750868055
 20
-5.841335720486111
 30
0.0
 10
7.198255750868055
 20
-5.841335720486111
 30
0.0
  0
SPLINE
  5
7F
330
1F
100
AcDbEntity
  8
Layer 1
370
     0
100
AcDbSpline
210
0.0
220
0.0
230
1.0
 70
    11
 71
     3
 72
    14
 73
    10
 74
     0
 42
0.0000000001
 43
0.0000000001
 40
0.0
 40
0.0
 40
0.0
 40
0.0
 40
1.0
 40
1.0
 40
1.0
 40
2.0
 40
2.0
 40
2.0
 40
3.0
 40
3.0
 40
3.0
 40
3.0
 10
4.212741427951388
 20
-0.5284627278645833
 30
0.0
 10
4.212741427951388
 20
-0.5284627278645833
 30
0.0
 10
4.242485894097222
 20
-0.581631130642361
 30
0.0
 10
4.242485894097222
 20
-0.581631130642361
 30
0.0
 10
4.222588433159722
 20
-0.582851833767361
 30
0.0
 10
4.202650282118055
 20
-0.582851833767361
 30
0.0
 10
4.182847764756945
 20
-0.581631130642361
 30
0.0
 10
4.182847764756945
 20
-0.581631130642361
 30
0.0
 10
4.212741427951388
 20
-0.5284627278645833
 30
0.0
 10
4.212741427951388
 20
-0.5284627278645833
 30
0.0
  0
SPLINE
  5
80
330
1F
100
AcDbEntity
  8
Layer 1
370
     0
100
AcDbSpline
210
0.0
220
0.0
230
1.0
 70
    11
 71
     3
 72
    26
 73
    22
 74
     0
 42
0.0000000001
 43
0.0000000001
 40
0.0
 40
0.0
 40
0.0
 40
0.0
 40
1.0
 40
1.0
 40
1.0
 40
2.0
 40
2.0
 40
2.0
 40
3.0
 40
3.0
 40
3.0
 40
4.0
 40
4.0
 40
4.0
 40
5.0
 40
5.0
 40
5.0
 40
6.0
 40
6.0
 40
6.0
 40
7.0
 40
7.0
 40
7.0
 40
7.0
 10
3.540486653645833
 20
-11.48879665798611
 30
0.0
 10
3.540486653645833
 20
-11.48879665798611
 30
0.0
 10
1.625217013888889
 20
-11.48879665798611
 30
0.0
 10
1.625217013888889
 20
-11.48879665798611
 30
0.0
 10
1.625217013888889
 20
-11.48879665798611
 30
0.0
 10
1.625217013888889
 20
-11.22074381510417
 30
0.0
 10
1.625217013888889
 20
-11.22074381510417
 30
0.0
 10
1.625217013888889
 20
-11.22074381510417
 30
0.0
 10
2.049777560763889
 20
-11.22074381510417
 30
0.0
 10
2.049777560763889
 20
-11.22074381510417
 30
0.0
 10
2.049777560763889
 20
-11.22074381510417
 30
0.0
 10
2.049777560763889
 20
-10.79599338107639
 30
0.0
 10
2.049777560763889
 20
-10.79599338107639
 30
0.0
 10
2.049777560763889
 20
-10.79599338107639
 30
0.0
 10
3.789265950520833
 20
-10.79599338107639
 30
0.0
 10
3.789265950520833
 20
-10.79599338107639
 30
0.0
 10
3.789265950520833
 20
-10.79599338107639
 30
0.0
 10
3.895453559027778
 20
-10.98521592881944
 30
0.0
 10
3.895453559027778
 20
-10.98521592881944
 30
0.0
 10
3.702867296006944
 20
-11.08741590711806
 30
0.0
 10
3.57122802734375
 20
-11.27406141493056
 30
0.0
 10
3.540486653645833
 20
-11.48879665798611
 30
0.0
  0
SPLINE
  5
81
330
1F
100
AcDbEntity
  8
Layer 1
370
     0
100
AcDbSpline
210
0.0
220
0.0
230
1.0
 70
    11
 71
     3
 72
    26
 73
    22
 74
     0
 42
0.0000000001
 43
0.0000000001
 40
0.0
 40
0.0
 40
0.0
 40
0.0
 40
1.0
 40
1.0
 40
1.0
 40
2.0
 40
2.0
 40
2.0
 40
3.0
 40
3.0
 40
3.0
 40
4.0
 40
4.0
 40
4.0
 40
5.0
 40
5.0
 40
5.0
 40
6.0
 40
6.0
 40
6.0
 40
7.0
 40
7.0
 40
7.0
 40
7.0
 10
6.800632052951388
 20
-11.48879665798611
 30
0.0
 10
6.800632052951388
 20
-11.48879665798611
 30
0.0
 10
4.885362413194444
 20
-11.48879665798611
 30
0.0
 10
4.885362413194444
 20
-11.48879665798611
 30
0.0
 10
4.854573567708333
 20
-11.27392578125
 30
0.0
 10
4.722846137152778
 20
-11.08718532986111
 30
0.0
 10
4.530110677083333
 20
-10.98521592881944
 30
0.0
 10
4.530110677083333
 20
-10.98521592881944
 30
0.0
 10
4.636271158854166
 20
-10.79599338107639
 30
0.0
 10
4.636271158854166
 20
-10.79599338107639
 30
0.0
 10
4.636271158854166
 20
-10.79599338107639
 30
0.0
 10
6.376071506076388
 20
-10.79599338107639
 30
0.0
 10
6.376071506076388
 20
-10.79599338107639
 30
0.0
 10
6.376071506076388
 20
-10.79599338107639
 30
0.0
 10
6.376071506076388
 20
-11.22074381510417
 30
0.0
 10
6.376071506076388
 20
-11.22074381510417
 30
0.0
 10
6.376071506076388
 20
-11.22074381510417
 30
0.0
 10
6.800632052951388
 20
-11.22074381510417
 30
0.0
 10
6.800632052951388
 20
-11.22074381510417
 30
0.0
 10
6.800632052951388
 20
-11.22074381510417
 30
0.0
 10
6.800632052951388
 20
-11.48879665798611
 30
0.0
 10
6.800632052951388
 20
-11.48879665798611
 30
0.0
  0
SPLINE
  5
82
330
1F
100
AcDbEntity
  8
Layer 1
370
     0
100
AcDbSpline
210
0.0
220
0.0
230
1.0
 70
    11
 71
     3
 72
    26
 73
    22
 74
     0
 42
0.0000000001
 43
0.0000000001
 40
0.0
 40
0.0
 40
0.0
 40
0.0
 40
1.0
 40
1.0
 40
1.0
 40
2.0
 40
2.0
 40
2.0
 40
3.0
 40
3.0
 40
3.0
 40
4.0
 40
4.0
 40
4.0
 40
5.0
 40
5.0
 40
5.0
 40
6.0
 40
6.0
 40
6.0
 40
7.0
 40
7.0
 40
7.0
 40
7.0
 10
4.885362413194444
 20
-0.1937255859375
 30
0.0
 10
4.885362413194444
 20
-0.1937255859375
 30
0.0
 10
6.800632052951388
 20
-0.1937255859375
 30
0.0
 10
6.800632052951388
 20
-0.1937255859375
 30
0.0
 10
6.800632052951388
 20
-0.1937255859375
 30
0.0
 10
6.800632052951388
 20
-0.4620632595486111
 30
0.0
 10
6.800632052951388
 20
-0.4620632595486111
 30
0.0
 10
6.800632052951388
 20
-0.4620632595486111
 30
0.0
 10
6.376071506076388
 20
-0.4620632595486111
 30
0.0
 10
6.376071506076388
 20
-0.4620632595486111
 30
0.0
 10
6.376071506076388
 20
-0.4620632595486111
 30
0.0
 10
6.376071506076388
 20
-0.8865695529513888
 30
0.0
 10
6.376071506076388
 20
-0.8865695529513888
 30
0.0
 10
6.376071506076388
 20
-0.8865695529513888
 30
0.0
 10
4.636271158854166
 20
-0.8865695529513888
 30
0.0
 10
4.636271158854166
 20
-0.8865695529513888
 30
0.0
 10
4.636271158854166
 20
-0.8865695529513888
 30
0.0
 10
4.530110677083333
 20
-0.6976860894097222
 30
0.0
 10
4.530110677083333
 20
-0.6976860894097222
 30
0.0
 10
4.722846137152778
 20
-0.5953843858506944
 30
0.0
 10
4.854573567708333
 20
-0.40875244140625
 30
0.0
 10
4.885362413194444
 20
-0.1937255859375
 30
0.0
  0
SPLINE
  5
83
330
1F
100
AcDbEntity
  8
Layer 1
370
     0
100
AcDbSpline
210
0.0
220
0.0
230
1.0
 70
    11
 71
     3
 72
    26
 73
    22
 74
     0
 42
0.0000000001
 43
0.0000000001
 40
0.0
 40
0.0
 40
0.0
 40
0.0
 40
1.0
 40
1.0
 40
1.0
 40
2.0
 40
2.0
 40
2.0
 40
3.0
 40
3.0
 40
3.0
 40
4.0
 40
4.0
 40
4.0
 40
5.0
 40
5.0
 40
5.0
 40
6.0
 40
6.0
 40
6.0
 40
7.0
 40
7.0
 40
7.0
 40
7.0
 10
1.625217013888889
 20
-0.1937255859375
 30
0.0
 10
1.625217013888889
 20
-0.1937255859375
 30
0.0
 10
3.540486653645833
 20
-0.1937255859375
 30
0.0
 10
3.540486653645833
 20
-0.1937255859375
 30
0.0
 10
3.57122802734375
 20
-0.4085150824652777
 30
0.0
 10
3.702867296006944
 20
-0.5951470269097222
 30
0.0
 10
3.895453559027778
 20
-0.6974080403645833
 30
0.0
 10
3.895453559027778
 20
-0.6974080403645833
 30
0.0
 10
3.789265950520833
 20
-0.8865695529513888
 30
0.0
 10
3.789265950520833
 20
-0.8865695529513888
 30
0.0
 10
3.789265950520833
 20
-0.8865695529513888
 30
0.0
 10
2.049777560763889
 20
-0.8865695529513888
 30
0.0
 10
2.049777560763889
 20
-0.8865695529513888
 30
0.0
 10
2.049777560763889
 20
-0.8865695529513888
 30
0.0
 10
2.049777560763889
 20
-0.4619683159722222
 30
0.0
 10
2.049777560763889
 20
-0.4619683159722222
 30
0.0
 10
2.049777560763889
 20
-0.4619683159722222
 30
0.0
 10
1.625217013888889
 20
-0.4619683159722222
 30
0.0
 10
1.625217013888889
 20
-0.4619683159722222
 30
0.0
 10
1.625217013888889
 20
-0.4619683159722222
 30
0.0
 10
1.625217013888889
 20
-0.1937255859375
 30
0.0
 10
1.625217013888889
 20
-0.1937255859375
 30
0.0
  0
ENDSEC
  0
SECTION
  2
OBJECTS
  0
DICTIONARY
  5
C
330
0
100
AcDbDictionary
281
     1
  3
ACAD_GROUP
350
D
  3
ACAD_LAYOUT
350
1A
  3
ACAD_MLINESTYLE
350
17
  3
ACAD_PLOTSETTINGS
350
19
  3
ACAD_PLOTSTYLENAME
350
E
  3
ACAD_TABLESTYLE
350
84
  3
ACAD_VISUALSTYLE
350
2A
  0
DICTIONARY
  5
D
102
{ACAD_REACTORS
330
C
102
}
330
C
100
AcDbDictionary
281
     1
  0
DICTIONARY
  5
1A
102
{ACAD_REACTORS
330
C
102
}
330
C
100
AcDbDictionary
281
     1
  3
Layout1
350
1E
  3
Layout2
350
26
  3
Model
350
22
  0
DICTIONARY
  5
17
102
{ACAD_REACTORS
330
C
102
}
330
C
100
AcDbDictionary
281
     1
  3
Standard
350
18
  0
DICTIONARY
  5
19
102
{ACAD_REACTORS
330
C
102
}
330
C
100
AcDbDictionary
281
     1
  0
ACDBDICTIONARYWDFLT
  5
E
102
{ACAD_REACTORS
330
C
102
}
330
C
100
AcDbDictionary
281
     1
  3
Normal
350
F
100
AcDbDictionaryWithDefault
340
F
  0
DICTIONARY
  5
84
102
{ACAD_REACTORS
330
C
102
}
330
C
100
AcDbDictionary
281
     1
  0
DICTIONARY
  5
2A
102
{ACAD_REACTORS
330
C
102
}
330
C
100
AcDbDictionary
281
     1
  3
2dWireframe
350
2F
  3
3D Hidden
350
31
  3
3dWireframe
350
30
  3
Basic
350
32
  3
Brighten
350
36
  3
ColorChange
350
3A
  3
Conceptual
350
34
  3
Dim
350
35
  3
Facepattern
350
39
  3
Flat
350
2B
  3
FlatWithEdges
350
2C
  3
Gouraud
350
2D
  3
GouraudWithEdges
350
2E
  3
Linepattern
350
38
  3
Realistic
350
33
  3
Thicken
350
37
  0
LAYOUT
  5
1E
102
{ACAD_REACTORS
330
1A
102
}
330
1A
100
AcDbPlotSettings
  1

  2
none_device
  4

  6

 40
0.0
 41
0.0
 42
0.0
 43
0.0
 44
0.0
 45
0.0
 46
0.0
 47
0.0
 48
0.0
 49
0.0
140
0.0
141
0.0
142
1.0
143
1.0
 70
   688
 72
     0
 73
     0
 74
     5
  7

 75
    16
 76
     0
 77
     2
 78
   300
147
1.0
148
0.0
149
0.0
100
AcDbLayout
  1
Layout1
 70
     1
 71
     1
 10
0.0
 20
0.0
 11
12.0
 21
9.0
 12
0.0
 22
0.0
 32
0.0
 14
1.000000000000000E+20
 24
1.000000000000000E+20
 34
1.000000000000000E+20
 15
-1.000000000000000E+20
 25
-1.000000000000000E+20
 35
-1.000000000000000E+20
146
0.0
 13
0.0
 23
0.0
 33
0.0
 16
1.0
 26
0.0
 36
0.0
 17
0.0
 27
1.0
 37
0.0
 76
     0
330
1B
  0
LAYOUT
  5
26
102
{ACAD_REACTORS
330
1A
102
}
330
1A
100
AcDbPlotSettings
  1

  2
none_device
  4

  6

 40
0.0
 41
0.0
 42
0.0
 43
0.0
 44
0.0
 45
0.0
 46
0.0
 47
0.0
 48
0.0
 49
0.0
140
0.0
141
0.0
142
1.0
143
1.0
 70
   688
 72
     0
 73
     0
 74
     5
  7

 75
    16
 76
     0
 77
     2
 78
   300
147
1.0
148
0.0
149
0.0
100
AcDbLayout
  1
Layout2
 70
     1
 71
     2
 10
0.0
 20
0.0
 11
0.0
 21
0.0
 12
0.0
 22
0.0
 32
0.0
 14
0.0
 24
0.0
 34
0.0
 15
0.0
 25
0.0
 35
0.0
146
0.0
 13
0.0
 23
0.0
 33
0.0
 16
1.0
 26
0.0
 36
0.0
 17
0.0
 27
1.0
 37
0.0
 76
     0
330
23
  0
LAYOUT
  5
22
102
{ACAD_REACTORS
330
1A
102
}
330
1A
100
AcDbPlotSettings
  1

  2
none_device
  4

  6

 40
0.0
 41
0.0
 42
0.0
 43
0.0
 44
0.0
 45
0.0
 46
0.0
 47
0.0
 48
0.0
 49
0.0
140
0.0
141
0.0
142
1.0
143
1.0
 70
  1712
 72
     0
 73
     0
 74
     0
  7

 75
     0
 76
     0
 77
     2
 78
   300
147
1.0
148
0.0
149
0.0
100
AcDbLayout
  1
Model
 70
     1
 71
     0
 10
0.0
 20
0.0
 11
12.0
 21
9.0
 12
0.0
 22
0.0
 32
0.0
 14
1.000000000000000E+20
 24
1.000000000000000E+20
 34
1.000000000000000E+20
 15
-1.000000000000000E+20
 25
-1.000000000000000E+20
 35
-1.000000000000000E+20
146
0.0
 13
0.0
 23
0.0
 33
0.0
 16
1.0
 26
0.0
 36
0.0
 17
0.0
 27
1.0
 37
0.0
 76
     0
330
1F
331
29
  0
MLINESTYLE
  5
18
102
{ACAD_REACTORS
330
17
102
}
330
17
100
AcDbMlineStyle
  2
Standard
 70
     0
  3

 62
   256
 51
90.0
 52
90.0
 71
     2
 49
0.5
 62
   256
  6
BYLAYER
 49
-0.5
 62
   256
  6
BYLAYER
  0
ACDBPLACEHOLDER
  5
F
102
{ACAD_REACTORS
330
E
102
}
330
E
  0
VISUALSTYLE
  5
2F
102
{ACAD_REACTORS
330
2A
102
}
330
2A
100
AcDbVisualStyle
  2
2dWireframe
 70
     4
 71
     0
 72
     2
 73
     0
 90
        0
 40
-0.6
 41
-30.0
 62
     5
 63
     7
421
 16777215
 74
     1
 91
        4
 64
     7
 65
   257
 75
     1
175
     1
 42
1.0
 92
        0
 66
   257
 43
1.0
 76
     1
 77
     6
 78
     2
 67
     7
 79
     5
170
     0
171
     0
290
     0
174
     0
 93
        1
 44
0.0
173
     0
291
     0
 45
0.0
1001
ACAD
1000
AcDbSavedByObjectVersion
1070
     0
  0
VISUALSTYLE
  5
31
102
{ACAD_REACTORS
330
2A
102
}
330
2A
100
AcDbVisualStyle
  2
3D Hidden
 70
     6
 71
     1
 72
     2
 73
     2
 90
        0
 40
-0.6
 41
-30.0
 62
     5
 63
     7
421
 16777215
 74
     2
 91
        2
 64
     7
 65
   257
 75
     2
175
     1
 42
40.0
 92
        0
 66
   257
 43
1.0
 76
     1
 77
     6
 78
     2
 67
     7
 79
     3
170
     0
171
     0
290
     0
174
     0
 93
        1
 44
0.0
173
     0
291
     0
 45
0.0
1001
ACAD
1000
AcDbSavedByObjectVersion
1070
     0
  0
VISUALSTYLE
  5
30
102
{ACAD_REACTORS
330
2A
102
}
330
2A
100
AcDbVisualStyle
  2
3dWireframe
 70
     5
 71
     0
 72
     2
 73
     0
 90
        0
 40
-0.6
 41
-30.0
 62
     5
 63
     7
421
 16777215
 74
     1
 91
        4
 64
     7
 65
   257
 75
     1
175
     1
 42
1.0
 92
        0
 66
   257
 43
1.0
 76
     1
 77
     6
 78
     2
 67
     7
 79
     5
170
     0
171
     0
290
     0
174
     0
 93
        1
 44
0.0
173
     0
291
     0
 45
0.0
1001
ACAD
1000
AcDbSavedByObjectVersion
1070
     0
  0
VISUALSTYLE
  5
32
102
{ACAD_REACTORS
330
2A
102
}
330
2A
100
AcDbVisualStyle
  2
Basic
 70
     7
 71
     1
 72
     0
 73
     1
 90
        0
 40
-0.6
 41
-30.0
 62
     5
 63
     7
421
 16777215
 74
     0
 91
        4
 64
     7
 65
   257
 75
     1
175
     1
 42
1.0
 92
        8
 66
     7
 43
1.0
 76
     1
 77
     6
 78
     2
 67
     7
 79
     5
170
     0
171
     0
290
     0
174
     0
 93
        1
 44
0.0
173
     0
291
     1
 45
0.0
1001
ACAD
1000
AcDbSavedByObjectVersion
1070
     0
  0
VISUALSTYLE
  5
36
102
{ACAD_REACTORS
330
2A
102
}
330
2A
100
AcDbVisualStyle
  2
Brighten
 70
    12
 71
     2
 72
     2
 73
     0
 90
        0
 40
-0.6
 41
-30.0
 62
     5
 63
     7
421
 16777215
 74
     1
 91
        4
 64
     7
 65
   257
 75
     1
175
     1
 42
1.0
 92
        8
 66
     7
 43
1.0
 76
     1
 77
     6
 78
     2
 67
     7
 79
     5
170
     0
171
     0
290
     0
174
     0
 93
        1
 44
50.0
173
     0
291
     1
 45
0.0
1001
ACAD
1000
AcDbSavedByObjectVersion
1070
     0
  0
VISUALSTYLE
  5
3A
102
{ACAD_REACTORS
330
2A
102
}
330
2A
100
AcDbVisualStyle
  2
ColorChange
 70
    16
 71
     2
 72
     2
 73
     3
 90
        0
 40
-0.6
 41
-30.0
 62
     5
 63
     8
421
  8421504
 74
     1
 91
        4
 64
     7
 65
   257
 75
     1
175
     1
 42
1.0
 92
        8
 66
     8
424
  8421504
 43
1.0
 76
     1
 77
     6
 78
     2
 67
     7
 79
     5
170
     0
171
     0
290
     0
174
     0
 93
        1
 44
0.0
173
     0
291
     1
 45
0.0
1001
ACAD
1000
AcDbSavedByObjectVersion
1070
     0
  0
VISUALSTYLE
  5
34
102
{ACAD_REACTORS
330
2A
102
}
330
2A
100
AcDbVisualStyle
  2
Conceptual
 70
     9
 71
     3
 72
     2
 73
     0
 90
        0
 40
-0.6
 41
-30.0
 62
     5
 63
     7
421
 16777215
 74
     2
 91
        2
 64
     7
 65
   257
 75
     1
175
     1
 42
40.0
 92
        8
 66
     7
 43
1.0
 76
     1
 77
     6
 78
     2
 67
     7
 79
     3
170
     0
171
     0
290
     0
174
     0
 93
        1
 44
0.0
173
     0
291
     0
 45
0.0
1001
ACAD
1000
AcDbSavedByObjectVersion
1070
     0
  0
VISUALSTYLE
  5
35
102
{ACAD_REACTORS
330
2A
102
}
330
2A
100
AcDbVisualStyle
  2
Dim
 70
    11
 71
     2
 72
     2
 73
     0
 90
        0
 40
-0.6
 41
-30.0
 62
     5
 63
     7
421
 16777215
 74
     1
 91
        4
 64
     7
 65
   257
 75
     1
175
     1
 42
1.0
 92
        8
 66
     7
 43
1.0
 76
     1
 77
     6
 78
     2
 67
     7
 79
     5
170
     0
171
     0
290
     0
174
     0
 93
        1
 44
-50.0
173
     0
291
     1
 45
0.0
1001
ACAD
1000
AcDbSavedByObjectVersion
1070
     0
  0
VISUALSTYLE
  5
39
102
{ACAD_REACTORS
330
2A
102
}
330
2A
100
AcDbVisualStyle
  2
Facepattern
 70
    15
 71
     2
 72
     2
 73
     0
 90
        0
 40
-0.6
 41
-30.0
 62
     5
 63
     7
421
 16777215
 74
     1
 91
        4
 64
     7
 65
   257
 75
     1
175
     1
 42
1.0
 92
        8
 66
     7
 43
1.0
 76
     1
 77
     6
 78
     2
 67
     7
 79
     5
170
     0
171
     0
290
     0
174
     0
 93
        1
 44
0.0
173
     0
291
     1
 45
0.0
1001
ACAD
1000
AcDbSavedByObjectVersion
1070
     0
  0
VISUALSTYLE
  5
2B
102
{ACAD_REACTORS
330
2A
102
}
330
2A
100
AcDbVisualStyle
  2
Flat
 70
     0
 71
     2
 72
     1
 73
     1
 90
        2
 40
-0.6
 41
30.0
 62
     5
 63
     7
421
 16777215
 74
     0
 91
        4
 64
     7
 65
   257
 75
     1
175
     1
 42
1.0
 92
        8
 66
     7
 43
1.0
 76
     1
 77
     6
 78
     2
 67
     7
 79
     5
170
     0
171
     0
290
     0
174
     0
 93
       13
 44
0.0
173
     0
291
     1
 45
0.0
1001
ACAD
1000
AcDbSavedByObjectVersion
1070
     0
  0
VISUALSTYLE
  5
2C
102
{ACAD_REACTORS
330
2A
102
}
330
2A
100
AcDbVisualStyle
  2
FlatWithEdges
 70
     1
 71
     2
 72
     1
 73
     1
 90
        2
 40
-0.6
 41
30.0
 62
     5
 63
     7
421
 16777215
 74
     1
 91
        4
 64
     7
 65
   257
 75
     1
175
     1
 42
1.0
 92
        0
 66
   257
 43
1.0
 76
     1
 77
     6
 78
     2
 67
     7
 79
     5
170
     0
171
     0
290
     0
174
     0
 93
       13
 44
0.0
173
     0
291
     1
 45
0.0
1001
ACAD
1000
AcDbSavedByObjectVersion
1070
     0
  0
VISUALSTYLE
  5
2D
102
{ACAD_REACTORS
330
2A
102
}
330
2A
100
AcDbVisualStyle
  2
Gouraud
 70
     2
 71
     2
 72
     2
 73
     1
 90
        2
 40
-0.6
 41
30.0
 62
     5
 63
     7
421
 16777215
 74
     0
 91
        4
 64
     7
 65
   257
 75
     1
175
     1
 42
1.0
 92
        0
 66
     7
 43
1.0
 76
     1
 77
     6
 78
     2
 67
     7
 79
     5
170
     0
171
     0
290
     0
174
     0
 93
       13
 44
0.0
173
     0
291
     1
 45
0.0
1001
ACAD
1000
AcDbSavedByObjectVersion
1070
     0
  0
VISUALSTYLE
  5
2E
102
{ACAD_REACTORS
330
2A
102
}
330
2A
100
AcDbVisualStyle
  2
GouraudWithEdges
 70
     3
 71
     2
 72
     2
 73
     1
 90
        2
 40
-0.6
 41
30.0
 62
     5
 63
     7
421
 16777215
 74
     1
 91
        4
 64
     7
 65
   257
 75
     1
175
     1
 42
1.0
 92
        0
 66
   257
 43
1.0
 76
     1
 77
     6
 78
     2
 67
     7
 79
     5
170
     0
171
     0
290
     0
174
     0
 93
       13
 44
0.0
173
     0
291
     1
 45
0.0
1001
ACAD
1000
AcDbSavedByObjectVersion
1070
     0
  0
VISUALSTYLE
  5
38
102
{ACAD_REACTORS
330
2A
102
}
330
2A
100
AcDbVisualStyle
  2
Linepattern
 70
    14
 71
     2
 72
     2
 73
     0
 90
        0
 40
-0.6
 41
-30.0
 62
     5
 63
     7
421
 16777215
 74
     1
 91
        4
 64
     7
 65
   257
 75
     7
175
     7
 42
1.0
 92
        8
 66
     7
 43
1.0
 76
     1
 77
     6
 78
     2
 67
     7
 79
     5
170
     0
171
     0
290
     0
174
     0
 93
        1
 44
0.0
173
     0
291
     1
 45
0.0
1001
ACAD
1000
AcDbSavedByObjectVersion
1070
     0
  0
VISUALSTYLE
  5
33
102
{ACAD_REACTORS
330
2A
102
}
330
2A
100
AcDbVisualStyle
  2
Realistic
 70
     8
 71
     2
 72
     2
 73
     0
 90
        0
 40
-0.6
 41
-30.0
 62
     5
 63
     7
421
 16777215
 74
     1
 91
        0
 64
     7
 65
   257
 75
     1
175
     1
 42
1.0
 92
        8
 66
     8
424
  7895160
 43
1.0
 76
     1
 77
     6
 78
     2
 67
     7
 79
     5
170
     0
171
     0
290
     0
174
     0
 93
       13
 44
0.0
173
     0
291
     0
 45
0.0
1001
ACAD
1000
AcDbSavedByObjectVersion
1070
     0
  0
VISUALSTYLE
  5
37
102
{ACAD_REACTORS
330
2A
102
}
330
2A
100
AcDbVisualStyle
  2
Thicken
 70
    13
 71
     2
 72
     2
 73
     0
 90
        0
 40
-0.6
 41
-30.0
 62
     5
 63
     7
421
 16777215
 74
     1
 91
        4
 64
     7
 65
   257
 75
     1
175
     1
 42
1.0
 92
       12
 66
     7
 43
1.0
 76
     1
 77
     6
 78
     2
 67
     7
 79
     5
170
     0
171
     0
290
     0
174
     0
 93
        1
 44
0.0
173
     0
291
     1
 45
0.0
1001
ACAD
1000
AcDbSavedByObjectVersion
1070
     0
  0
ENDSEC
  0
EOF
