<?xml version="1.0" encoding="utf-8"?>
<!-- Generator: Adobe Illustrator 16.0.0, SVG Export Plug-In . SVG Version: 6.00 Build 0)  -->
<!DOCTYPE svg PUBLIC "-//W3C//DTD SVG 1.1//EN" "http://www.w3.org/Graphics/SVG/1.1/DTD/svg11.dtd">
<svg version="1.1" id="Layer_1" xmlns="http://www.w3.org/2000/svg" xmlns:xlink="http://www.w3.org/1999/xlink" x="0px" y="0px"
	 width="595.28px" height="841.89px" viewBox="0 0 595.28 841.89" enable-background="new 0 0 595.28 841.89" xml:space="preserve">
<linearGradient id="SVGID_1_" gradientUnits="userSpaceOnUse" x1="0" y1="391.1875" x2="595.2783" y2="391.1875">
	<stop  offset="0.0056" style="stop-color:#ECC562"/>
	<stop  offset="1" style="stop-color:#C3922E"/>
</linearGradient>
<path fill="url(#SVGID_1_)" d="M595.278,359.424l-18.919,18.919l-48.002-47.998c7.969-6.851,17.388-12.196,27.881-15.555
	l6.359-2.032V126.266H376.056l-1.998,6.31c-3.339,10.518-8.714,19.927-15.56,27.911l-60.83-60.844l-60.849,60.844
	c-6.867-7.983-12.192-17.393-15.57-27.916l-2.027-6.315H32.72v186.499l6.309,2.027c10.522,3.363,19.952,8.698,27.931,15.564
	l-47.992,47.998L0,359.399v0.024v25.656l6.111,6.1L0,397.296v25.671l18.968-18.934L66.96,452.03
	c-7.979,6.845-17.408,12.196-27.931,15.559l-6.309,2.018v186.509h186.502l1.997-6.319c3.408-10.504,8.733-19.938,15.6-27.917
	l60.849,60.854l60.83-60.84c6.846,7.964,12.221,17.398,15.58,27.902l2.018,6.319h186.502V469.606l-6.319-2.018
	c-10.533-3.362-19.952-8.714-27.921-15.559l48.002-47.998l18.919,18.913v-25.649l-6.071-6.101l6.071-6.105V359.424z
	 M389.082,144.425h155.361v155.327c-10.671,4.229-20.418,10.22-28.904,17.761h-0.009l-34.608-34.608V226.07h39.188v-57.362h-57.352
	v39.193h18.163v-21.04h21.045v21.044h-96.043l-34.588-34.592C378.867,164.804,384.879,155.066,389.082,144.425z M358.08,185.725
	l40.352,40.346h64.327v64.356l40.351,40.342c-0.487,0.621-0.963,1.237-1.421,1.873c-3.636,4.904-6.797,10.065-9.419,15.465
	c-9.46-23.692-26.649-43.878-49.443-57.093v-44.997h-45.021c-13.195-22.788-33.396-39.983-57.084-49.448
	c5.396-2.618,10.572-5.772,15.451-9.404c0.637-0.467,1.271-0.954,1.907-1.431V185.725z M482.383,391.548
	c-0.119,31.234-14.954,59.96-39.557,78.143V312.7c24.603,18.158,39.438,46.879,39.557,78.103c-0.021,0.128-0.021,0.258-0.021,0.377
	C482.362,391.304,482.362,391.429,482.383,391.548z M401.492,476.891L401.503,424l-11.467,3.194
	c-3.29,0.913-6.668,1.376-10.036,1.376c-1.867,0-3.707-0.139-5.505-0.397c5.406-11.193,8.416-23.748,8.416-36.993
	c0-13.235-3.01-25.769-8.416-36.963c1.798-0.273,3.638-0.412,5.505-0.412c3.368,0,6.746,0.462,10.036,1.381l11.467,3.185v-52.895
	h23.161v171.415H401.492z M424.664,495.033v23.172h-23.172v-23.172H424.664z M211.949,518.205v-23.176h52.9l-3.209-11.496
	c-0.904-3.284-1.371-6.652-1.371-10.032c0-1.856,0.15-3.687,0.397-5.47c11.238,5.396,23.749,8.442,37.002,8.442
	c13.215,0,25.765-3.046,36.954-8.442c0.287,1.783,0.406,3.613,0.406,5.47c0,3.38-0.446,6.752-1.38,10.032l-3.171,11.5h52.891v23.172
	H211.949z M376.145,536.354c-18.242,24.711-47.128,39.536-78.476,39.536c-31.378,0-60.263-14.825-78.496-39.536H376.145z
	 M163.798,476.899c-3.964-2.161-7.73-4.57-11.307-7.213c-24.622-18.179-39.407-46.895-39.546-78.119
	c0.02-0.129,0.02-0.249,0.02-0.373c0-0.119,0-0.238-0.02-0.372c0.139-31.225,14.924-59.959,39.546-78.123v156.961
	c3.577,2.628,7.343,5.044,11.337,7.22h6.806V305.461h23.162v52.904l11.506-3.18c3.279-0.919,6.647-1.381,10.016-1.381
	c1.888,0,3.696,0.139,5.485,0.412c-5.405,11.194-8.446,23.728-8.446,36.963c0,13.245,3.041,25.799,8.446,36.993
	c-1.778,0.259-3.597,0.397-5.485,0.397c-3.368,0-6.736-0.463-10.016-1.376L193.796,424v94.205h-23.162v-23.172h23.131v-18.134
	H163.798z M170.634,287.327v-23.172h23.162v23.172H170.634z M383.389,264.155v23.176h-52.911l3.171,11.501
	c0.934,3.27,1.38,6.643,1.38,10.016c0,1.869-0.119,3.697-0.406,5.475c-11.188-5.391-23.738-8.426-36.954-8.426
	c-13.254,0-25.764,3.036-37.002,8.426c-0.248-1.778-0.397-3.606-0.397-5.475c0-3.373,0.467-6.746,1.371-10.03l3.209-11.487
	l-52.9-0.004v-23.172H383.389z M219.172,246.017c18.164-24.622,46.859-39.427,78.099-39.541c0.148,0.005,0.269,0.005,0.397,0.005
	c0.099,0,0.238,0,0.357-0.005c31.23,0.114,59.926,14.919,78.119,39.541H219.172z M297.668,417.979
	c-18.48,0-34.905,9.086-44.981,23.006c-1.689-1.52-3.299-3.134-4.829-4.827c13.94-10.086,23.002-26.496,23.002-44.962
	c0-18.486-9.062-34.911-23.022-44.991c1.55-1.684,3.16-3.309,4.849-4.825c10.076,13.921,26.5,22.993,44.981,22.993
	c18.462,0,34.867-9.071,44.952-22.993c1.719,1.516,3.309,3.145,4.81,4.849c-13.881,10.076-22.963,26.48-22.963,44.966
	c0,18.467,9.082,34.857,22.963,44.962c-1.501,1.693-3.091,3.304-4.81,4.827C332.564,427.064,316.131,417.979,297.668,417.979z
	 M327.646,451.233c-9.021,4.536-19.226,7.096-29.977,7.096c-10.79,0-20.995-2.563-30.026-7.096
	c6.836-9.18,17.745-15.107,30.026-15.107C309.93,436.126,320.83,442.054,327.646,451.233z M242.235,476.881h-30.286v-30.266
	c1.133,0.054,2.275,0.108,3.368,0.108c5.485,0,10.801-0.805,15.789-2.296c3.925,4.913,8.386,9.391,13.324,13.326
	c-1.49,5.008-2.315,10.277-2.315,15.747C242.116,474.636,242.165,475.748,242.235,476.881z M237.614,421.188
	c-4.541-9.027-7.114-19.227-7.114-30.007c0-10.771,2.573-20.97,7.114-29.998c9.161,6.827,15.103,17.731,15.103,30.012
	C252.717,403.461,246.775,414.376,237.614,421.188z M267.671,331.141c9.002-4.546,19.207-7.1,29.997-7.1
	c10.751,0,20.956,2.554,29.977,7.1c-6.815,9.142-17.716,15.093-29.977,15.093C285.387,346.234,274.478,340.282,267.671,331.141z
	 M342.62,391.195c0-12.281,5.942-23.186,15.094-29.992c4.511,9.021,7.084,19.206,7.084,29.977c0,10.781-2.573,20.98-7.084,30.002
	C348.542,414.371,342.62,403.441,342.62,391.195z M364.222,337.952c-3.925-4.934-8.386-9.41-13.325-13.344
	c1.501-4.988,2.286-10.293,2.286-15.759c0-1.117-0.05-2.245-0.13-3.373h30.315v30.285c-1.112-0.064-2.245-0.104-3.368-0.104
	C374.516,335.656,369.229,336.471,364.222,337.952z M242.235,305.476c-0.07,1.127-0.119,2.255-0.119,3.373
	c0,5.466,0.825,10.771,2.315,15.759c-4.938,3.935-9.399,8.411-13.344,13.339c-4.988-1.49-10.284-2.291-15.769-2.291
	c-1.093,0-2.226,0.041-3.368,0.104v-30.285H242.235z M353.053,476.891c0.08-1.127,0.13-2.255,0.13-3.39
	c0-5.47-0.785-10.739-2.286-15.747c4.939-3.936,9.4-8.413,13.325-13.331c5.007,1.496,10.294,2.301,15.778,2.301
	c1.123,0,2.256-0.055,3.368-0.108v30.275H353.053z M401.503,287.332v-23.176h23.161v23.176H401.503z M237.237,185.714l12.887-12.887
	l47.545-47.535l47.495,47.535c4.551-3.334,8.725-7.16,12.461-11.392c-3.736,4.232-7.91,8.063-12.461,11.392
	c-13.283,9.777-29.649,15.396-47.077,15.5h-0.904c-17.388-0.104-33.743-5.723-47.058-15.485l-12.887,12.892
	c0.616,0.477,1.262,0.964,1.878,1.431c4.898,3.632,10.065,6.787,15.451,9.404c-23.668,9.475-43.869,26.66-57.094,49.448h-44.981
	v45.006c-22.774,13.215-39.983,33.411-49.433,57.093c-2.643-5.385-5.802-10.567-9.419-15.475c-0.487-0.635-0.964-1.276-1.451-1.888
	l40.341-40.327V226.07h64.357L237.237,185.714z M114.375,207.907H93.331v-21.044h21.044V207.907z M50.874,299.747V144.399h155.342
	c4.213,10.662,10.224,20.399,17.766,28.904l-34.607,34.603h-56.845v-39.198H75.188v57.362h39.188v56.834l-34.588,34.608
	C71.272,309.958,61.515,303.95,50.874,299.747z M79.291,343.656L79.291,343.656L79.291,343.656L79.291,343.656z M206.216,637.956
	H50.874V482.618c10.642-4.218,20.399-10.219,28.914-17.771l34.588,34.628v56.826H75.188v57.341h57.341v-39.192h56.845l34.607,34.597
	C216.44,617.558,210.429,627.305,206.216,637.956z M114.375,574.449v21.043H93.331v-21.043H114.375z M237.217,596.637
	l-40.331-40.336h-64.357v-64.361l-40.341-40.348l-12.897-12.887L31.806,391.2l0.01-0.005l47.475-47.52
	c9.847,13.435,15.48,29.913,15.48,47.505c0,0.258,0,0.492,0,0.75c-0.139,17.318-5.753,33.545-15.451,46.789l12.887,12.872
	c0.507-0.604,0.964-1.216,1.431-1.849c3.617-4.897,6.777-10.079,9.419-15.479c9.45,23.698,26.659,43.895,49.433,57.09v45h45.021
	c13.205,22.789,33.405,39.972,57.113,49.422c-5.425,2.644-10.612,5.777-15.51,9.438C238.499,595.687,237.853,596.15,237.217,596.637
	z M297.668,657.063l-47.545-47.524c13.435-9.852,29.918-15.501,47.545-15.501c17.597,0,34.072,5.649,47.505,15.501L297.668,657.063z
	 M358.08,596.637c-0.615-0.486-1.271-0.95-1.907-1.423c-4.879-3.661-10.065-6.795-15.451-9.438
	c23.669-9.439,43.889-26.629,57.084-49.422h45.021v-45.011c22.794-13.191,39.983-33.401,49.443-57.095
	c2.622,5.4,5.783,10.577,9.419,15.473c0.458,0.641,0.954,1.256,1.421,1.871l-40.351,40.348v64.361h-64.327L358.08,596.637z
	 M480.922,574.449h21.045v21.043h-21.045V574.449z M544.443,482.618v155.338H389.082c-4.203-10.651-10.215-20.398-17.746-28.91
	l34.588-34.597h56.835v39.192h57.352v-57.341h-39.188v-56.826l34.617-34.628C524.025,472.399,533.783,478.4,544.443,482.618z
	 M516.026,438.695c-9.796-13.305-15.421-29.64-15.49-47.048v-0.919c0.069-17.423,5.694-33.758,15.49-47.062l47.505,47.529
	L516.026,438.695z"/>
</svg>
