<?xml version="1.0" encoding="utf-8"?>
<!-- Generator: Adobe Illustrator 16.0.0, SVG Export Plug-In . SVG Version: 6.00 Build 0)  -->
<!DOCTYPE svg PUBLIC "-//W3C//DTD SVG 1.1//EN" "http://www.w3.org/Graphics/SVG/1.1/DTD/svg11.dtd">
<svg version="1.1" id="Layer_1" xmlns="http://www.w3.org/2000/svg" xmlns:xlink="http://www.w3.org/1999/xlink" x="0px" y="0px"
	 width="595.28px" height="841.89px" viewBox="0 0 595.28 841.89" enable-background="new 0 0 595.28 841.89" xml:space="preserve">
<linearGradient id="SVGID_1_" gradientUnits="userSpaceOnUse" x1="42.7046" y1="420.9453" x2="557.3828" y2="420.9453">
	<stop  offset="0.0056" style="stop-color:#ECC562"/>
	<stop  offset="1" style="stop-color:#C3922E"/>
</linearGradient>
<path fill="url(#SVGID_1_)" d="M557.383,841.89H42.705V189.076h46.96c0.821-16.614,4.984-44.624,22.39-67.22
	c17.7-22.938,42.827-31.841,60.311-35.301l-15.031-30.101l23.749,2.375c0.03,0,4.31,0.42,11.063,0.42
	c11.875,0,34.822-1.31,55.033-10.086c15.197-6.587,30.571-28.235,37.148-37.48c4.994-7.027,8.317-11.669,15.568-11.669
	c0,0,3.983-0.227,6.972,1.266c1.245,0.623,3.75,3.708,3.75,3.708c1.671,1.837,3.273,4.095,5.131,6.705
	c6.588,9.246,21.96,30.883,37.167,37.47c20.191,8.776,43.13,10.086,55.044,10.086c6.732,0,11.015-0.42,11.043-0.42l23.671-2.306
	l-14.973,30.033c17.484,3.46,42.621,12.363,60.33,35.301c17.406,22.596,21.578,50.606,22.382,67.22h46.97V841.89z M69.014,815.58
	h462.031V215.395h-48.154l1.193-14.278c0.048-0.333,2.754-37.686-16.908-63.184c-20.738-26.906-57.789-27.218-59.362-27.218
	l-21.746,0.44l12.794-25.812c-16.205-0.704-36.972-3.577-56.441-12.021c-16.33-7.105-30.307-22.742-39.914-35.203l-2.473-3.604
	l-2.472,3.604c-9.568,12.461-23.583,28.098-39.914,35.203c-19.42,8.444-40.217,11.317-56.421,12.021l12.881,25.812l-21.784-0.44
	c-1.652,0-38.644,0.312-59.431,27.218c-19.664,25.499-16.947,62.852-16.898,63.222l1.114,14.211l-48.094,0.029V815.58z"/>
</svg>
