<?xml version="1.0" encoding="utf-8"?>
<!-- Generator: Adobe Illustrator 16.0.0, SVG Export Plug-In . SVG Version: 6.00 Build 0)  -->
<!DOCTYPE svg PUBLIC "-//W3C//DTD SVG 1.1//EN" "http://www.w3.org/Graphics/SVG/1.1/DTD/svg11.dtd">
<svg version="1.1" id="Layer_1" xmlns="http://www.w3.org/2000/svg" xmlns:xlink="http://www.w3.org/1999/xlink" x="0px" y="0px"
	 width="595.28px" height="841.89px" viewBox="0 0 595.28 841.89" enable-background="new 0 0 595.28 841.89" xml:space="preserve">
<linearGradient id="SVGID_1_" gradientUnits="userSpaceOnUse" x1="171.1504" y1="420.2822" x2="444.3096" y2="420.2822">
	<stop  offset="0.0056" style="stop-color:#ECC562"/>
	<stop  offset="1" style="stop-color:#C3922E"/>
</linearGradient>
<path fill="url(#SVGID_1_)" d="M438.353,341.964c4.067-4.285,8.534-13.002,4.15-24.368c-1.975-5.109-6.367-8.003-9.851-9.342
	l-27.42-66.502c2.521-3.116,5.361-9.08,4.011-19.206c-1.392-10.382-5.881-15.404-9.172-17.726
	c0.303-6.349,0.351-20.872-4.135-31.354c-8.278-19.322-28.213-32.417-28.957-32.915l-32.365-22.169V67.589l-0.905-1.251
	c-0.357-0.462-3.496-4.66-9.313-7.764c-1.38-0.743-3.461-1.304-5.864-1.725v-0.877c10.985-4.542,18.744-15.358,18.744-27.963
	c0-16.68-13.559-30.249-30.232-30.249c-16.679,0-30.254,13.569-30.254,30.249c0,13.125,8.412,24.292,20.146,28.46v0.38
	c-2.42,0.421-4.489,0.982-5.857,1.725c-5.841,3.104-8.992,7.302-9.349,7.764l-0.9,1.251v50.793l-32.26,22.1
	c-0.848,0.567-20.784,13.663-29.045,32.984c-4.49,10.483-4.449,25.005-4.145,31.354c-3.303,2.321-7.787,7.343-9.178,17.726
	c-1.339,10.126,1.497,16.09,4.016,19.206l-27.431,66.502c-3.472,1.339-7.88,4.233-9.833,9.342
	c-4.373,11.365,0.088,20.083,4.157,24.368v193.609c-2.287,2.729-5.66,8.617-4.911,18.802c0.713,9.581,6.799,15.411,9.471,17.526
	l31.103,64.719c-2.572,3.146-5.642,8.97-5.262,18.645c0.345,8.792,4.414,14.102,7.414,16.862
	c-1.859,8.481-4.724,31.505,12.435,52.562c18.866,23.141,52.944,47.311,57.721,50.632c1.303,1.549,5.648,6.499,8.781,9.626
	c2.146,2.158,4.269,3.999,5.742,5.206v7.989c-0.123,0.077-0.246,0.176-0.352,0.264c-0.087,0.023-0.158,0.066-0.21,0.087l0.017,0.038
	c-2.508,1.793-4.816,4.886-4.816,9.884c0,4.101,2.858,7.204,7.472,8.617v8.309c-2.286,1.778-3.783,4.525-3.783,7.666
	c0,5.401,4.402,9.797,9.805,9.797c5.401,0,9.78-4.396,9.78-9.797c0-3.141-1.49-5.898-3.776-7.677v-8.298
	c4.624-1.413,7.454-4.517,7.454-8.617c0-5.349-2.631-8.54-5.367-10.272v-7.989c1.491-1.207,3.643-3.048,5.776-5.206
	c3.14-3.127,7.454-8.077,8.793-9.626c4.753-3.321,38.843-27.491,57.71-50.632c17.165-21.058,14.294-44.081,12.44-52.562
	c2.977-2.761,7.051-8.07,7.408-16.862c0.373-9.675-2.708-15.499-5.25-18.645l31.085-64.719c2.671-2.115,8.745-7.945,9.465-17.526
	c0.755-10.185-2.631-16.072-4.899-18.802V341.964z M421.023,305.009l-59.592-16.188c-0.093-0.163-0.192-0.327-0.287-0.45
	l-11.44-53.669l46.442,10.032L421.023,305.009z M428.829,532.363l-67.386-5.525V329.623l67.386,14.107V532.363z M336.883,710.612
	c-3.473,12.979-26.092,71.354-26.092,71.354c-0.515,0.438-0.982,0.808-1.362,1.118h-3.408c-0.387-0.311-0.848-0.681-1.356-1.118
	c0,0-22.632-58.375-26.093-71.354c-2.566-9.624-1.344-28.441-0.66-36.469h59.644C338.24,682.171,339.461,700.988,336.883,710.612z
	 M337.72,640.603c1.052,1.257,3.227,4.666,3.473,11.516c0.233,5.878-0.942,10.073-1.929,12.489h-63.078
	c-0.982-2.432-2.163-6.625-1.935-12.489c0.275-6.927,2.479-10.347,3.461-11.5L337.72,640.603z M336.234,631.085h-57.002
	L268.75,571.75h77.957L336.234,631.085z M186.631,343.73l67.368-14.107v197.215l-67.368,5.525V343.73z M281.717,154.162
	c3.859-15.054,13.757-28.898,16.938-33.061c2.794-0.467,6.383-0.572,7.74-0.59c2.741,0.018,7.478,0.175,10.418,0.603
	c3.204,4.197,13.096,18.024,16.913,33.049c3.368,13.102,3.672,28.414,3.585,36.079h-59.166
	C278.045,182.575,278.367,167.263,281.717,154.162z M275.081,223.774c-0.655-3.052-1.28-7.764-0.83-13.663
	c0.438-6.016,1.45-9.021,2.07-10.348h62.812c0.614,1.327,1.626,4.332,2.06,10.348c0.462,5.899-0.176,10.635-0.813,13.663H275.081z
	 M275.783,233.31h63.889l11.599,54.394h-87.093L275.783,233.31z M354.164,547.412c-0.473,6.535-2.611,11.773-4.155,14.819h-84.574
	c-1.532-3.046-3.671-8.284-4.157-14.819c-0.351-4.812-0.011-8.671,0.474-11.43h91.94C354.164,538.741,354.533,542.6,354.164,547.412
	z M263.54,526.465V328.536h88.363v197.939L263.54,526.465z M354.791,319h-94.132c-0.795-2.029-1.597-5.384-1.597-10.436
	c0-5.033,0.801-8.781,1.655-11.324h94.026c0.837,2.555,1.643,6.302,1.643,11.324C356.386,313.616,355.58,316.971,354.791,319z
	 M398.123,235.415l-48.284-10.436c0.742-3.76,1.35-9.097,0.871-15.569c-0.229-3.045-0.604-5.577-1.042-7.682l39.85,9.36
	l-0.017,0.059l3.085,0.667l1.171,0.274c0.719,0.328,4.834,2.607,6.052,11.705C400.685,230.352,399.194,233.825,398.123,235.415z
	 M387.174,177.196c3.191,7.443,3.571,18.007,3.473,24.38l-43.818-10.307c0.151-7.846-0.07-24.643-3.858-39.475
	c-2.146-8.372-5.847-16.242-9.495-22.643l28.22,19.333C361.87,148.597,380.035,160.534,387.174,177.196z M286.324,28.009
	c0-11.423,9.279-20.725,20.719-20.725c11.406,0,20.714,9.302,20.714,20.725c0,7.887-4.432,14.762-10.944,18.252h-19.557
	C290.744,42.771,286.324,35.896,286.324,28.009z M295.561,66.963c3.632-1.935,20.708-1.935,24.351,0
	c2.42,1.315,4.203,2.923,5.18,3.94v42.585c-1.327-0.474-2.806-0.941-4.473-1.351c-4.467-1.123-13.254-1.152-14.224-1.152
	c-0.726,0-7.098,0.029-11.57,1.152c-1.648,0.409-3.128,0.877-4.46,1.356V70.904C291.346,69.869,293.117,68.261,295.561,66.963z
	 M228.27,177.196c7.109-16.598,25.303-28.6,25.583-28.775l28.127-19.27c-3.63,6.401-7.355,14.271-9.489,22.643
	c-3.8,14.832-4.028,31.629-3.864,39.475l-43.813,10.307C224.692,195.215,225.066,184.662,228.27,177.196z M215.647,223.792
	c1.257-9.488,5.654-11.541,5.975-11.681l0.345-0.088l3.479-0.725v-0.087l40.333-9.483c-0.438,2.104-0.812,4.636-1.029,7.682
	c-0.473,6.472,0.105,11.81,0.854,15.569l-48.244,10.436C216.25,233.771,214.77,230.305,215.647,223.792z M219.295,244.733
	l46.443-10.032l-11.424,53.669c-0.105,0.123-0.181,0.287-0.303,0.462l-59.586,16.176L219.295,244.733z M181.849,321.005
	c1.228-3.245,5.42-4.198,5.42-4.198l2.497-0.485l0.087-0.205l60.439-16.411c-0.45,2.555-0.76,5.501-0.76,8.857
	c0,5.052,0.678,8.975,1.573,11.957l-67.718,14.166C181.592,332.517,179.166,327.957,181.849,321.005z M184.053,542.12l67.994-5.572
	c-0.398,3.135-0.608,6.994-0.269,11.565c0.42,5.67,1.824,10.534,3.327,14.294l-68.092,1.578c-1.696-1.479-4.917-4.939-5.303-10.312
	C181.218,547.137,182.995,543.601,184.053,542.12z M192.946,573.369l66.157-1.52l10.483,59.397l-48.104,1.515L192.946,573.369z
	 M220.389,642.332l46.432-1.467c-1.064,2.807-1.918,6.391-2.07,10.873c-0.222,5.339,0.503,9.664,1.456,12.999l-44.444,0.747
	c-1.502-1.238-4.484-4.433-4.724-10.61C216.734,647.472,219.143,643.749,220.389,642.332z M234.736,718.68
	c-14.148-17.362-12.208-36.294-10.676-43.713l44.28-0.735c-0.743,8.991-1.854,28.085,1.029,38.836
	c2.327,8.771,12.675,35.266,19.989,53.604C281.98,761.445,251.456,739.189,234.736,718.68z M307.458,833.007
	c0-0.146,0.135-0.263,0.275-0.263c0.14,0,0.251,0.116,0.251,0.263C307.984,833.299,307.458,833.299,307.458,833.007z
	 M380.707,718.68c-16.714,20.51-47.244,42.766-54.604,47.992c7.302-18.339,17.638-44.847,19.989-53.604
	c2.87-10.751,1.759-29.845,1.034-38.836l44.286,0.735C392.914,682.386,394.845,701.317,380.707,718.68z M398.428,654.874
	c-0.251,6.202-3.262,9.406-4.723,10.61l-44.446-0.747c0.949-3.335,1.656-7.647,1.451-12.999c-0.17-4.482-1.006-8.066-2.06-10.873
	l46.386,1.467C396.341,643.789,398.72,647.495,398.428,654.874z M393.961,632.762l-48.087-1.502l10.489-59.41l66.145,1.52
	L393.961,632.762z M433.75,553.673c-0.409,5.391-3.611,8.846-5.285,10.312l-68.12-1.578c1.501-3.76,2.912-8.624,3.337-14.294
	c0.316-4.59,0.131-8.431-0.273-11.565l67.958,5.572C432.464,543.652,434.241,547.184,433.75,553.673z M432.055,334.686
	l-67.711-14.166c0.9-2.982,1.56-6.905,1.56-11.957c0-3.355-0.292-6.302-0.736-8.857l60.447,16.411l0.068,0.205l2.504,0.485
	c0.039,0.029,4.185,0.965,5.431,4.198C436.288,327.986,433.827,332.546,432.055,334.686z"/>
</svg>
