<?xml version="1.0" encoding="utf-8"?>
<!-- Generator: Adobe Illustrator 16.0.0, SVG Export Plug-In . SVG Version: 6.00 Build 0)  -->
<!DOCTYPE svg PUBLIC "-//W3C//DTD SVG 1.1//EN" "http://www.w3.org/Graphics/SVG/1.1/DTD/svg11.dtd">
<svg version="1.1" id="Layer_1" xmlns="http://www.w3.org/2000/svg" xmlns:xlink="http://www.w3.org/1999/xlink" x="0px" y="0px"
	 width="595.28px" height="841.89px" viewBox="0 0 595.28 841.89" enable-background="new 0 0 595.28 841.89" xml:space="preserve">
<linearGradient id="SVGID_1_" gradientUnits="userSpaceOnUse" x1="106.0591" y1="420.9448" x2="491.9688" y2="420.9448">
	<stop  offset="0.0056" style="stop-color:#ECC562"/>
	<stop  offset="1" style="stop-color:#C3922E"/>
</linearGradient>
<path fill="url(#SVGID_1_)" d="M461.952,177.694c-3.131-12.122-11.772-38.878-30.455-57.203
	c-23.031-22.584-39.033-28.046-57.569-34.38c-8.871-3.032-18.925-6.48-31.085-12.28C316.73,61.34,306.57,26.736,306.475,26.396
	L299.01,0l-7.46,26.396c-0.096,0.346-10.116,34.878-36.366,47.436c-12.162,5.8-22.217,9.248-31.086,12.28
	c-18.536,6.334-34.544,11.796-57.568,34.38c-18.684,18.324-27.325,45.081-30.457,57.203h-30.013V841.89h385.91V177.694H461.952z
	 M448.162,186.858l1.176,6.334h27.124v56.549c-2.782-12.161-7.605-22.733-14.273-31.425c3.563-1.203,6.686-2.501,8.62-4.197
	c3.2-2.809,4.695-6.856,2.893-11.116c-2.997-7.056-14.106-7.567-17.173-1.555c-0.319,0.409-0.594,0.851-0.803,1.37
	c-1.062,2.776,0.328,5.883,3.119,6.952c2.782,1.063,5.901-0.319,6.964-3.11c0.472-1.215,0.445-2.493,0.048-3.651
	c0.024-0.078,0.048-0.134,0.06-0.218c0.517-2.57,7.054,1.472,1.863,7.176c-2.547,2.791-6.385,2.388-11.274,1.818
	c-5.071-5.104-10.934-9.346-17.494-12.653c1.868-1.898,5.482-6.671,1.307-12.023c-4.53-5.814-14.25-5.176-15.542-9.364
	c-1.692-5.477,1.615-7.761,1.615-7.761s-10.346,6.206-8.096,15.178c0.848,3.391,1.896,5.875,3.755,7.907
	c-0.967-0.23-1.942-0.448-2.925-0.627c-3.057-8.776-8.029-16.817-14.555-23.36c1.854-5.301,2.669-11.193,2.388-17.536
	c1.681,0.191,3.768,0.492,6.478,1.003c13.6,2.591,24.291,13.566,24.291,13.566s2.269,0.973-11.979-13.566
	c-6.217-6.331-14.088-13.644-20.989-19.88c-2.144-2.525-4.048-5.558-3.54-8.008c0.967-4.656,6.009-2.065,4.671-1.075
	c-0.048,0.039-0.083,0.072-0.119,0.102c-0.773,0.083-1.522,0.412-2.107,1.018c-1.308,1.355-0.734,3.48,0.164,4.28
	c1.65,1.478,4.164,1.024,5.382-0.358c2.036-2.31,1.6-5.776-0.603-7.812c3.761,2.994,7.728,6.519,12.029,10.74
	C441.39,151.911,448.094,186.521,448.162,186.858z M457.146,811.124c-0.068-0.229-0.17-0.453-0.227-0.698
	c0-0.023-0.012-0.051-0.018-0.084c-0.024-0.095-0.039-0.202-0.061-0.313c-0.316-1.892-0.182-4.411,1.615-7.035
	c3.678-5.373,7.343-10.758,5.836-18.076c-1.514-7.316-9.074-9.472-9.074-9.472s2.806-1.074,2.806-5.16
	c0-4.102-3.678-4.522-3.678-4.522s1.52,5.582-3.232,6.241c-1.615,0.218-4.188-0.37-7.099-0.856
	c-0.444-3.961-1.812-9.012-5.375-13.856c1.146,0.442,2.417,0.672,3.823,0.469c3.203-0.453,5.023-3.761,4.254-6.498
	c-1.564-5.572-7.997-5.417-10.406-2.041c-1.015,1.444-0.478,3.961,1.386,5.002c1.009,0.55,3.134,0.409,3.961-1.221
	c0.373-0.716,0.433-1.504,0.26-2.232c0.018-0.045,0.038-0.084,0.054-0.135c0.48-1.537,4.447,2.212,0.507,4.567
	c-1.845,1.104-3.797,0.823-5.459,0.134c-4.719-5.131-11.636-7.095-17.014-7.79c-0.23-0.212-0.517-0.424-0.785-0.627
	c3.193-2.399,8.906-5.45,17.787-5.925c14.921-0.785,26.139,3.781,26.825,4.074c-3.454,6.665-5.726,13.772-2.57,19.604
	c3.125,5.791,7.758,6.218,11.274,5.444c0.026,4.489-0.221,15.202-2.898,22.276C466.478,800.736,462.287,806.979,457.146,811.124z
	 M463.274,817.034c-1.367-0.269-2.453-0.827-3.367-1.561c1.114-0.878,2.186-1.83,3.221-2.866c0.643,0.756,1.595,1.248,3.019,1.003
	c1.119-0.196,2.086-1.713,2.952-1.125C469.91,813.028,467.71,817.93,463.274,817.034z M424.913,822.425
	c-0.003-0.068-0.033-0.128-0.036-0.179c0.403-0.985,0.495-2.071,0.155-3.152c-0.762-2.438-3.656-3.122-5.179-2.579
	c-2.812,0.985-4.128,4.344-3.062,6.564c0.678,1.394,1.809,2.524,3.17,3.312h-29.844c10.594-2.148,19.402-6.148,26.561-10.751
	c2.871-1.203,6.88-2.036,10.005,0.605C431.566,820.393,425.238,824.658,424.913,822.425z M177.91,816.515
	c-1.527-0.543-4.419,0.141-5.183,2.579c-0.342,1.081-0.248,2.167,0.158,3.152c-0.006,0.051-0.031,0.11-0.041,0.179
	c-0.316,2.233-6.647-2.032-1.759-6.179c3.125-2.642,7.134-1.809,10-0.605c7.153,4.603,15.96,8.603,26.559,10.751h-29.846
	c1.356-0.788,2.495-1.919,3.173-3.312C182.04,820.858,180.725,817.5,177.91,816.515z M139.738,770.285
	c0,4.086,2.804,5.16,2.804,5.16s-7.556,2.155-9.069,9.472c-1.509,7.318,2.158,12.703,5.829,18.076
	c1.79,2.624,1.936,5.144,1.618,7.035c-0.024,0.111-0.036,0.219-0.06,0.313c-0.003,0.033-0.015,0.061-0.021,0.084
	c-0.057,0.245-0.16,0.469-0.233,0.698c-5.13-4.146-9.322-10.388-12.483-18.73c-2.685-7.074-2.927-17.787-2.898-22.276
	c3.516,0.773,8.149,0.347,11.27-5.444c3.15-5.832,0.885-12.939-2.568-19.604c0.685-0.293,11.904-4.859,26.835-4.074
	c8.873,0.475,14.589,3.525,17.777,5.925c-0.269,0.203-0.548,0.415-0.782,0.627c-5.38,0.695-12.294,2.659-17.02,7.79
	c-1.658,0.689-3.614,0.971-5.458-0.134c-3.94-2.355,0.028-6.104,0.512-4.567c0.02,0.051,0.038,0.09,0.049,0.135
	c-0.167,0.729-0.103,1.517,0.263,2.232c0.824,1.63,2.952,1.771,3.964,1.221c1.87-1.041,2.403-3.558,1.385-5.002
	c-2.409-3.376-8.843-3.531-10.41,2.041c-0.773,2.737,1.055,6.045,4.258,6.498c1.401,0.203,2.671-0.026,3.822-0.469
	c-3.562,4.845-4.936,9.896-5.382,13.856c-2.91,0.486-5.477,1.074-7.092,0.856c-4.755-0.659-3.24-6.241-3.24-6.241
	S139.738,766.184,139.738,770.285z M137.851,815.474c-0.907,0.733-2.002,1.292-3.37,1.561c-4.431,0.896-6.624-4.006-5.821-4.549
	c0.869-0.588,1.832,0.929,2.948,1.125c1.421,0.245,2.38-0.247,3.023-1.003C135.667,813.644,136.739,814.596,137.851,815.474z
	 M177.184,227.981c-0.279,0.081-0.554,0.165-0.827,0.254c-1.843-5.194-5.923-10.354-13.236-13.892
	c-4.827-2.322-9.283-3.045-13.313-3.123c7.604-6.223,16.722-10.662,27.141-13.104C174.578,207.768,174.493,218.032,177.184,227.981z
	 M177.482,233.321c0.436-0.161,0.879-0.29,1.318-0.424c3.553,9.984,8.717,18.276,15.294,24.568
	c-2.833,0.973-8.114,2.221-14.551,0.94c-6.174-1.227-9.77-6.555-11.477-9.963c1.836-0.418,3.712-1.275,5.479-2.803
	C176.285,243.267,177.952,238.565,177.482,233.321z M202.465,140.282c-1.849-2.123-1.698-4.931-0.952-7.42
	c6.554-10.701,18.42-18.223,32.619-20.083c-0.181,7.193,4.07,13.399,4.07,13.399s-12.975-4.086-18.141,7.316
	c-3.415,7.555,0.729,15.312,3.652,19.419c-1.153,0.251-2.303,0.525-3.453,0.839c-0.057-0.794-0.311-1.561-0.628-2.17
	c-1.558-2.991-5.782-3.818-8.094-2.263c-2.907,1.958-4.107,5.531-3.297,8.865c-3.898,1.958-7.528,4.322-10.841,7.053
	c-1.194-4.271-1.657-8.973-1.388-14.02c2.176-0.039,3.294-0.083,6.453-1.573c6.155-2.905,7.449-8.391,7.449-8.391
	S206.176,144.547,202.465,140.282z M257.482,124.957c2.735,4.842,9,3.761,10.192-0.462c0.458-1.636-0.448-3.812-2.433-4.349
	c-1.072-0.292-3.022,0.319-3.424,2.03c-0.182,0.752-0.057,1.501,0.261,2.14c-0.001,0.054-0.014,0.089-0.014,0.149
	c-0.106,1.535-4.665-1.074-1.519-4.164c1.955-1.919,4.934-1.695,7.195-1.12c5.472,3.12,10.229,7.215,14.104,12.14
	c-0.006,0.006-0.015,0.018-0.024,0.033c-8.208,9.036-11.658,18.504-7.34,27.554c1.021,2.137,2.086,4.086,3.153,5.872
	c-3.338-2.705-6.937-5.06-10.775-7.018c-1.51-0.761-3.049-1.439-4.612-2.072c-0.461-3.856-1.488-7.874-3.319-11.859
	c-6.903-15.062-12.989-17.217-12.089-30.139c0.028-0.37,0.115-0.684,0.155-1.047c6.418,0.65,12.413,2.313,17.796,4.937
	c-1.551-0.295-3.224-0.313-4.811,0.319C257.094,119.053,256.145,122.563,257.482,124.957z M335.941,122.175
	c-0.399-1.71-2.346-2.322-3.418-2.03c-1.99,0.537-2.897,2.713-2.433,4.349c1.188,4.224,7.454,5.304,10.185,0.462
	c1.344-2.394,0.389-5.904-2.495-7.056c-1.588-0.633-3.26-0.615-4.812-0.319c5.385-2.624,11.378-4.287,17.799-4.937
	c0.039,0.364,0.128,0.677,0.152,1.047c0.904,12.922-5.182,15.077-12.089,30.139c-1.83,3.985-2.859,8.002-3.316,11.859
	c-1.567,0.633-3.107,1.311-4.608,2.072c-3.848,1.958-7.441,4.313-10.778,7.018c1.062-1.785,2.125-3.734,3.157-5.872
	c4.316-9.05,0.86-18.518-7.349-27.554c-0.006-0.015-0.012-0.027-0.018-0.033c3.877-4.925,8.632-9.02,14.101-12.14
	c2.263-0.576,5.244-0.8,7.196,1.12c3.144,3.089-1.411,5.698-1.516,4.164c0-0.06-0.019-0.095-0.021-0.149
	C336.001,123.677,336.121,122.927,335.941,122.175z M395.293,149.646c3.158,1.489,4.278,1.534,6.454,1.573
	c0.271,5.047-0.186,9.749-1.389,14.02c-3.304-2.731-6.939-5.095-10.838-7.053c0.809-3.334-0.391-6.907-3.295-8.865
	c-2.316-1.555-6.537-0.728-8.096,2.263c-0.322,0.609-0.576,1.376-0.627,2.17c-1.151-0.313-2.31-0.588-3.45-0.839
	c2.919-4.107,7.06-11.865,3.642-19.419c-5.155-11.402-18.133-7.316-18.133-7.316s4.253-6.206,4.068-13.399
	c14.196,1.859,26.061,9.381,32.619,20.083c0.746,2.489,0.896,5.298-0.956,7.42c-3.71,4.265-7.447,0.973-7.447,0.973
	S389.139,146.741,395.293,149.646z M424.217,245.64c1.768,1.528,3.639,2.385,5.478,2.803c-1.71,3.409-5.304,8.737-11.477,9.963
	c-6.433,1.281-11.713,0.033-14.555-0.94c6.585-6.292,11.739-14.584,15.295-24.568c0.441,0.134,0.883,0.263,1.319,0.424
	C419.814,238.565,421.471,243.267,424.217,245.64z M420.814,198.117c10.423,2.441,19.539,6.88,27.133,13.104
	c-4.023,0.078-8.48,0.8-13.307,3.123c-7.313,3.537-11.394,8.698-13.229,13.892c-0.277-0.089-0.555-0.173-0.833-0.254
	C423.274,218.032,423.185,207.768,420.814,198.117z M458.588,672.959c-2.038-3.794-3.363-7.311-3.16-10.331
	c1.098-16.041,12.838-6.089,18.378-10.394c-1.588,4.562-5.144,10.274-13.408,18.793
	C459.771,671.673,459.177,672.312,458.588,672.959z M462.344,686.973c2.826,3.313,5.109,6.824,6.942,10.221l-0.188,0.57
	c-1.604-2.496-3.525-4.907-5.785-6.928c-1.441-1.278-2.991-2.308-4.617-3.135c0.009-1.495,0.271-2.904,0.736-4.26
	C460.403,684.65,461.376,685.833,462.344,686.973z M454.804,677.257c-2.164,2.604-4.081,5.183-5.723,7.72
	c-5.976-0.538-11.969,0.71-16.536,2.635c-6.436,2.714-10.99,7.119-17.545,8.618c4.555-6.737,7.468-14.399,8.626-22.292
	c10.029-6.324,16.71-15.703,18.903-25.04c3.43-14.617,1.18-28.216-6.36-38.314c-0.335-0.441-0.711-0.832-1.057-1.253
	c-1.102-2.335-1.788-5.4,0.065-8.054c3.248-4.639,7.543,0.543,5.605,1.009c-0.06,0.015-0.113,0.039-0.173,0.054
	c-0.89-0.274-1.856-0.263-2.773,0.135c-2.08,0.868-2.447,3.465-1.841,4.752c1.116,2.385,4.188,3.247,6.053,2.122
	c4.376-2.659,5.119-10.561-1.63-12.939c-3.319-1.183-7.563,0.782-8.402,4.671c-0.424,1.943-0.161,3.746,0.445,5.347
	c-5.284-5.167-11.961-8.463-19.414-9.537c-1.313-0.729-3.409-2.015-5.447-3.71c7.179-4.926,12.9-12.313,16.664-21.665
	c0.171,2.675,1.146,10.19,6.567,13.376c6.176,3.62,12.524,2.787,16.497-1.92c4.444,3.576,7.382,7.791,9.322,11.865
	c-1.636,6.083-2.277,12.325-0.785,18.513c2.797,11.551,10.411,15.259,14.716,20.127c-6.353-3.134-16.018-0.985-20.542,5.698
	C441.393,651.928,446.831,665.693,454.804,677.257z M423.026,753.352c3.88,0.934,7.999,2.707,10.745,6.071
	c3.072,3.761,4.385,7.823,4.923,11.148c-4.239-0.102-8.498,0.907-11.331,5.301c-2.684,4.18-1.591,8.501,1.141,11.567
	c-3.328,0.062-7.522-0.589-11.543-3.358c-8.107-5.567-7.125-17.31-6.653-20.719c3.128,0.102,6.035-0.185,8.851-1.907
	C422.104,759.652,423.411,756.5,423.026,753.352z M178.603,761.455c2.819,1.723,5.725,2.009,8.846,1.907
	c0.478,3.409,1.466,15.151-6.647,20.719c-4.021,2.77-8.219,3.421-11.535,3.358c2.721-3.066,3.822-7.388,1.133-11.567
	c-2.836-4.394-7.094-5.402-11.327-5.301c0.528-3.325,1.848-7.388,4.914-11.148c2.75-3.364,6.865-5.138,10.75-6.071
	C174.343,756.5,175.658,759.652,178.603,761.455z M147.729,639.173c-4.537-6.684-14.193-8.832-20.536-5.698
	c4.289-4.868,11.907-8.576,14.702-20.127c1.494-6.188,0.845-12.43-0.785-18.513c1.936-4.074,4.879-8.289,9.316-11.865
	c3.98,4.707,10.331,5.54,16.505,1.92c5.42-3.186,6.392-10.701,6.57-13.376c3.756,9.352,9.483,16.739,16.665,21.665
	c-2.047,1.695-4.132,2.981-5.447,3.71c-7.461,1.074-14.132,4.37-19.416,9.537c0.599-1.601,0.864-3.403,0.442-5.347
	c-0.839-3.889-5.084-5.854-8.402-4.671c-6.746,2.379-6.009,10.28-1.625,12.939c1.858,1.125,4.93,0.263,6.049-2.122
	c0.606-1.287,0.25-3.884-1.838-4.752c-0.917-0.397-1.89-0.409-2.779-0.135c-0.06-0.015-0.102-0.039-0.17-0.054
	c-1.934-0.466,2.363-5.647,5.604-1.009c1.857,2.653,1.172,5.719,0.063,8.054c-0.345,0.421-0.716,0.812-1.046,1.253
	c-7.538,10.099-9.799,23.697-6.368,38.314c2.198,9.337,8.874,18.716,18.906,25.04c1.155,7.893,4.067,15.555,8.628,22.292
	c-6.556-1.499-11.108-5.904-17.548-8.618c-4.565-1.925-10.559-3.173-16.536-2.635c-1.644-2.537-3.564-5.116-5.725-7.72
	C150.931,665.693,156.365,651.928,147.729,639.173z M137.365,671.027c-8.268-8.519-11.82-14.231-13.414-18.793
	c5.537,4.305,17.281-5.647,18.379,10.394c0.205,3.021-1.119,6.537-3.153,10.331C138.585,672.312,137.989,671.673,137.365,671.027z
	 M139.069,687.701c-1.621,0.827-3.182,1.856-4.621,3.135c-2.266,2.021-4.185,4.432-5.788,6.928l-0.189-0.57
	c1.837-3.396,4.115-6.907,6.944-10.221c0.967-1.14,1.945-2.322,2.915-3.531C138.793,684.797,139.057,686.206,139.069,687.701z
	 M155.5,369.546c-3.888,0.961-5.667,5.809-1.784,9.698c3.888,3.862,13.529,4.325,18.468-5.668c3.518-7.11,2.324-17.721-4.11-25.807
	c5.267-2.221,10.968-3.839,17.072-4.809c0.012,4.573,0.712,9,1.451,12.05c1.48,6.179,4.855,10.981,4.855,10.981
	s1.376-5.11,9.747-9.94c0.379,0.197,0.733,0.421,1.118,0.615c6.44,3.044,13.569,4.567,20.834,4.567
	c6.303,0,12.706-1.179,18.856-3.493c0.574,0.538,1.163,1.054,1.719,1.612c3.228,3.141,6.065,6.612,8.523,10.355
	c-1.819-0.308-3.697-0.549-5.658-0.684c-15.26-1.089-27.21,2.788-36.31,8.295c-1.563-0.952-3.176-1.797-4.836-2.513
	c-1.415-1.274-2.536-3.012-2.38-5.271c0.351-5.149,6.159-3.107,4.862-1.835c-0.04,0.039-0.064,0.083-0.11,0.122
	c-0.821,0.203-1.571,0.666-2.112,1.412c-1.219,1.65-0.28,3.851,0.8,4.576c2.001,1.349,4.812,0.588,5.741-1.173
	c2.173-4.137-0.964-10.656-7.368-9.37c-3.157,0.633-5.562,4.152-4.383,7.593c0.367,1.075,0.949,1.932,1.609,2.699
	c-2.708-0.863-5.485-1.421-8.28-1.528c-21.482-0.8-39.23,14.486-42.057,35.473c-0.397-0.102-0.805-0.179-1.233-0.179
	c-2.866,0-5.185,2.316-5.185,5.161c0,1.702,0.827,3.173,2.085,4.12c-4.837,2.477-12.616,7.778-18.984,18.231
	c-0.461,0.752-0.896,1.508-1.312,2.257c-3.628-9.856,3.433-17.954,6.119-23.309c3.887-7.746,0.863-15.931,0.863-15.931
	s8.207,5.603,12.959-0.86c4.813-6.555-2.16-12.918-2.16-12.918s0,7.758-6.479,6.033c-3.234-0.86-3.555-6.671-3.373-10.71
	c6.061-12.453,15.125-22.169,26.729-28.583c7.833,6.391,10.259,18.966,6.227,24.658c-5.075,7.158-12.307,3.006-12.2,0.851
	c0.173-3.441,2.052-0.212,4.212-1.931C162.801,372.182,159.384,368.582,155.5,369.546z M164.568,279.13c0,0,1.746,3.609-0.645,8.719
	c-1.219,2.603-2.421,3.083-3.882,3.991c-4.156-7.516-6.312-16.298-6.046-25.393c0.195,0.478,0.419,0.958,0.742,1.427
	c1.827,2.666,5.619,2.833,7.746,0.919c4.319-3.857,2.085-10.221-2.781-10.203c-1.771,0.015-3.782,1.319-3.882,3.454
	c-0.057,1.152,1.014,2.988,2.845,3.009c0.812,0.006,1.542-0.29,2.128-0.755c0.049-0.015,0.092-0.015,0.146-0.021
	c1.597-0.248-0.037,4.958-3.896,2.484c-2.06-1.332-2.57-3.582-2.549-5.585c0.831-5.015,2.643-9.621,5.232-13.662
	c0.792,0.37,1.679,0.69,2.649,0.908c1.425,3.564,6.103,13.05,16.151,15.05c2.342,0.469,4.554,0.66,6.595,0.66
	c1.596,0,3.058-0.134,4.428-0.325c-7.983,7.859-13.596,18.049-16.08,29.037C171.843,283.769,164.568,279.13,164.568,279.13z
	 M172.042,305.445c0,0.096-0.006,0.191-0.006,0.281c-0.028-0.018-0.054-0.039-0.079-0.057
	C171.987,305.592,172.008,305.508,172.042,305.445z M155.464,243.362c0.115,0.212,0.213,0.436,0.333,0.633
	c-0.044,0.072-0.082,0.134-0.124,0.206C155.613,243.92,155.543,243.643,155.464,243.362z M188.222,273.113
	c-0.669,1.496-1.028,3.215-0.727,5.095c0.593,3.737,4.512,5.803,7.724,4.856c6.504-1.919,7.14-9.423,2.2-12.178
	c-1.809-1.006-4.661-0.487-5.837,1.713c-0.639,1.185-0.434,3.659,1.491,4.6c0.854,0.403,1.769,0.459,2.626,0.257
	c0.058,0.018,0.102,0.051,0.163,0.057c1.813,0.543-2.534,5.238-5.367,0.678c-2.166-3.493-0.004-7.421,1.568-9.543
	c2.327-2.43,4.893-4.633,7.674-6.564c0.672,0.469,1.316,0.973,2.006,1.403c2.142,6.797,5.052,14.384-1.154,22.047
	c-3.522,4.337-6.775,8.429-7.693,11.904c-1.086,4.107-0.081,8.295,3.803,10.841c6.422,4.203,15.948-1.541,15.129-8.232
	c0.036-0.525,0.025-1.048-0.095-1.585c-0.665-2.893-3.555-4.716-6.464-4.057c-2.906,0.66-4.721,3.549-4.061,6.447
	c0.29,1.274,1.028,2.322,1.999,3.065c0.036,0.075,0.043,0.125,0.074,0.215c1,2.418-6.68,2.687-5.549-4.925
	c1.222-8.224,16.269-7.015,25.087-22.035c1.206-2.054,2.105-4.074,2.737-6.029c1.133,0.062,2.27,0.113,3.407,0.113
	c6.891,0,13.892-1.311,20.587-3.928c4.076-1.597,7.758-3.728,10.988-6.268c0.004,0.188,0.016,0.379,0.016,0.582
	c0,9.008-2.455,17.628-6.725,25.24c-2.874-1.311-6.558-2.442-11.199-2.91c-15.872-1.612-24.291,10.336-24.291,10.336
	s9.48-7.22,25-2.737c1.849,0.66,3.668,1.6,5.422,2.776c-5.436,6.823-12.451,12.402-20.454,16.136l-0.052-0.107
	c-0.137,0.062-1.023,0.486-2.335,1.137c-6.029,2.483-12.532,3.961-19.294,4.107c-11.208,0.263-21.081-1.997-29.24-6.465
	C176.469,296.162,180.5,283.25,188.222,273.113z M224.167,181.933c0,0-4.521,1.197-8.601,4.447c-4.5-2.054-8.5-4.973-11.635-8.644
	c-1.872-2.191-3.383-4.668-4.615-7.31c3.48-3.078,7.359-5.692,11.598-7.764c1.119,1.03,2.562,1.886,4.385,2.447
	c4.312,1.326,9.974-1.848,10.826-6.862c0.034-0.218,0.054-0.397,0.081-0.594c10.24-2.015,20.327-1.594,29.56,1.215
	c0.922,4.427,0.708,8.668,0,12.319c-0.75,2.546-1.866,4.913-3.303,7.05c-6.452-1.797-14.143,0.657-17.717-2.976
	c-3.634-3.71-3.452-8.182-3.452-8.182s-8.121,1-9.396,6.788C220.927,178.289,224.167,181.933,224.167,181.933z M215.705,160.621
	c0.321-0.119,0.616-0.269,0.939-0.376c1.65-0.576,3.313-1.062,4.971-1.51C219.563,161.465,217.263,161.448,215.705,160.621z
	 M244.247,196.356c1.693,0.269,3.104,0.531,4.324,0.788c8.155,2.099,16.314,9.889,19.848,18.957
	c0.076,0.173,0.121,0.358,0.192,0.546c-3.786,2.788-8.058,5.2-12.778,7.232c-3.042-5.188-6.738-9.952-11.066-14.188
	c-4.801-4.68-10.174-8.513-16.017-11.486C231.595,196.926,237.046,195.207,244.247,196.356z M277.411,190.506
	c2.637-0.884,4.567-4.729,3.143-7.767c-0.766-1.656-2.75-3.689-5.321-2.385c-1.136,0.582-1.947,1.528-2.417,2.609
	c-0.064,0.051-0.124,0.078-0.191,0.128c-2.05,1.504-2.182-4.752,2.067-5.893c4.265-1.137,7.765,0.615,10.259,2.74
	c1.771,2.397,3.415,4.955,4.919,7.68c-2.516,7.4-6.85,15.172-14.241,22.885c-0.892,0.928-1.841,1.824-2.813,2.692
	c-2.942-6.907-8.034-12.969-13.962-16.936c2.206-3.051,4.1-7.859,0.294-13.354c-0.623-0.902-1.319-1.612-2.046-2.239
	c1.782-2.77,3.142-5.848,3.97-9.179c0.825-2.91,1.38-6.331,1.458-10.056c0.66,0.302,1.322,0.603,1.973,0.934
	c5.779,2.943,10.969,6.851,15.505,11.647c-0.269-0.158-0.497-0.326-0.794-0.487c-4.501-2.385-10.48,0.155-12.056,4.37
	C263.949,186.437,271.18,192.583,277.411,190.506z M320.354,190.506c6.227,2.077,13.462-4.069,10.253-12.608
	c-1.585-4.215-7.558-6.755-12.062-4.37c-0.293,0.161-0.522,0.329-0.794,0.487c4.537-4.797,9.728-8.704,15.506-11.647
	c0.654-0.331,1.311-0.632,1.977-0.934c0.071,3.725,0.63,7.146,1.453,10.056c0.827,3.331,2.191,6.409,3.977,9.179
	c-0.729,0.627-1.43,1.337-2.051,2.239c-3.8,5.495-1.917,10.304,0.301,13.354c-5.934,3.967-11.028,10.029-13.969,16.936
	c-0.967-0.869-1.923-1.764-2.812-2.692c-7.391-7.713-11.726-15.485-14.244-22.885c1.504-2.725,3.151-5.283,4.925-7.68
	c2.489-2.125,5.997-3.877,10.25-2.74c4.251,1.141,4.125,7.397,2.071,5.893c-0.065-0.051-0.131-0.078-0.19-0.128
	c-0.472-1.081-1.274-2.027-2.418-2.609c-2.573-1.304-4.555,0.729-5.316,2.385C315.787,185.777,317.71,189.622,320.354,190.506z
	 M382.458,165.11c1.821-0.561,3.271-1.417,4.388-2.447c4.239,2.071,8.125,4.686,11.594,7.764c-1.224,2.642-2.734,5.119-4.605,7.31
	c-3.144,3.671-7.137,6.59-11.642,8.644c-4.077-3.25-8.6-4.447-8.6-4.447s3.236-3.645,2.269-8.065
	c-1.277-5.788-9.391-6.788-9.391-6.788s0.18,4.471-3.462,8.182c-3.567,3.633-11.259,1.179-17.713,2.976
	c-1.433-2.137-2.555-4.504-3.295-7.05c-0.714-3.651-0.932-7.892-0.012-12.319c9.244-2.809,19.324-3.229,29.562-1.215
	c0.029,0.197,0.051,0.376,0.083,0.594C372.482,163.262,378.151,166.436,382.458,165.11z M376.146,158.734
	c1.659,0.448,3.319,0.934,4.97,1.51c0.328,0.107,0.624,0.257,0.938,0.376C380.503,161.448,378.196,161.465,376.146,158.734z
	 M349.188,197.144c1.227-0.257,2.636-0.52,4.328-0.788c7.199-1.149,12.65,0.57,15.498,1.851
	c-5.845,2.973-11.218,6.806-16.018,11.486c-4.334,4.236-8.029,9-11.07,14.188c-4.72-2.033-8.994-4.444-12.772-7.232
	c0.065-0.188,0.11-0.373,0.182-0.546C332.879,207.033,341.037,199.243,349.188,197.144z M406.183,272.6
	c-1.177-2.2-4.033-2.719-5.842-1.713c-4.939,2.755-4.301,10.259,2.206,12.178c3.209,0.946,7.131-1.119,7.719-4.856
	c0.299-1.88-0.054-3.6-0.723-5.095c7.714,10.137,11.743,23.049,10.836,36.043c-8.161,4.468-18.035,6.728-29.237,6.465
	c-6.764-0.146-13.271-1.624-19.298-4.107c-1.313-0.651-2.202-1.075-2.337-1.137l-0.051,0.107
	c-7.999-3.734-15.02-9.313-20.452-16.136c1.749-1.176,3.569-2.116,5.42-2.776c15.513-4.483,25.002,2.737,25.002,2.737
	s-8.424-11.948-24.294-10.336c-4.642,0.468-8.325,1.6-11.199,2.91c-4.266-7.612-6.726-16.232-6.726-25.24
	c0-0.203,0.015-0.394,0.015-0.582c3.23,2.54,6.913,4.671,10.988,6.268c6.691,2.618,13.697,3.928,20.587,3.928
	c1.14,0,2.277-0.051,3.411-0.113c0.627,1.955,1.528,3.976,2.734,6.029c8.817,15.02,23.867,13.811,25.091,22.035
	c1.129,7.611-6.549,7.343-5.558,4.925c0.039-0.089,0.054-0.14,0.077-0.215c0.968-0.743,1.708-1.791,2.006-3.065
	c0.657-2.898-1.164-5.788-4.071-6.447c-2.901-0.66-5.796,1.164-6.462,4.057c-0.116,0.537-0.135,1.06-0.096,1.585
	c-0.814,6.692,8.707,12.435,15.131,8.232c3.892-2.546,4.898-6.734,3.803-10.841c-0.92-3.475-4.17-7.567-7.692-11.904
	c-6.206-7.663-3.298-15.25-1.149-22.047c0.681-0.43,1.335-0.934,1.994-1.403c2.794,1.931,5.358,4.134,7.687,6.564
	c1.566,2.122,3.733,6.05,1.561,9.543c-2.826,4.561-7.179-0.135-5.36-0.678c0.06-0.006,0.099-0.039,0.161-0.057
	c0.856,0.203,1.772,0.146,2.626-0.257C406.618,276.259,406.821,273.785,406.183,272.6z M443.267,261.176
	c0.021,2.003-0.492,4.253-2.543,5.585c-3.868,2.474-5.504-2.731-3.904-2.484c0.054,0.006,0.096,0.006,0.149,0.021
	c0.591,0.466,1.316,0.761,2.128,0.755c1.83-0.021,2.901-1.856,2.845-3.009c-0.096-2.134-2.113-3.438-3.886-3.454
	c-4.866-0.018-7.096,6.346-2.771,10.203c2.122,1.913,5.91,1.746,7.737-0.919c0.325-0.469,0.549-0.949,0.746-1.427
	c0.263,9.095-1.89,17.876-6.048,25.393c-1.469-0.908-2.665-1.388-3.88-3.991c-2.389-5.11-0.651-8.719-0.651-8.719
	s-7.276,4.639-8.897,13.713c-2.48-10.988-8.102-21.178-16.08-29.037c1.373,0.191,2.83,0.325,4.43,0.325
	c2.042,0,4.248-0.191,6.597-0.66c10.047-2,14.722-11.486,16.151-15.05c0.964-0.218,1.854-0.538,2.65-0.908
	C440.628,251.556,442.438,256.162,443.267,261.176z M441.972,243.995c0.107-0.197,0.212-0.421,0.325-0.633
	c-0.081,0.281-0.146,0.558-0.206,0.839C442.049,244.129,442.007,244.067,441.972,243.995z M425.805,305.669
	c-0.029,0.018-0.057,0.039-0.083,0.057c0-0.09-0.003-0.185-0.003-0.281C425.748,305.508,425.772,305.592,425.805,305.669z
	 M425.578,373.576c4.943,9.994,14.578,9.531,18.465,5.668c3.887-3.889,2.113-8.737-1.785-9.698
	c-3.886-0.964-7.295,2.636-4.531,4.844c2.161,1.719,4.036-1.51,4.215,1.931c0.107,2.155-7.128,6.307-12.205-0.851
	c-4.036-5.692-1.609-18.268,6.227-24.658c11.608,6.415,20.67,16.13,26.732,28.583c0.18,4.039-0.134,9.85-3.376,10.71
	c-6.471,1.725-6.471-6.033-6.471-6.033s-6.982,6.364-2.167,12.918c4.752,6.462,12.957,0.86,12.957,0.86s-3.021,8.185,0.862,15.931
	c2.689,5.355,9.749,13.453,6.119,23.309c-0.414-0.749-0.854-1.505-1.31-2.257c-6.37-10.453-14.151-15.754-18.981-18.231
	c1.251-0.946,2.077-2.418,2.077-4.12c0-2.844-2.315-5.161-5.176-5.161c-0.424,0-0.839,0.078-1.238,0.179
	c-2.821-20.987-20.575-36.273-42.055-35.473c-2.791,0.107-5.575,0.666-8.28,1.528c0.657-0.767,1.242-1.624,1.606-2.699
	c1.179-3.441-1.224-6.96-4.388-7.593c-6.396-1.287-9.534,5.232-7.358,9.37c0.923,1.761,3.74,2.522,5.734,1.173
	c1.08-0.725,2.023-2.925,0.806-4.576c-0.537-0.746-1.301-1.209-2.119-1.412c-0.036-0.039-0.062-0.083-0.104-0.122
	c-1.302-1.272,4.51-3.313,4.865,1.835c0.149,2.26-0.976,3.997-2.385,5.271c-1.662,0.716-3.277,1.561-4.829,2.513
	c-9.11-5.507-21.056-9.384-36.314-8.295c-1.965,0.134-3.839,0.376-5.66,0.684c2.457-3.743,5.296-7.214,8.525-10.355
	c0.562-0.558,1.141-1.074,1.713-1.612c6.155,2.313,12.561,3.493,18.862,3.493c7.265,0,14.39-1.522,20.837-4.567
	c0.377-0.194,0.734-0.418,1.114-0.615c8.369,4.83,9.748,9.94,9.748,9.94s3.37-4.803,4.856-10.981
	c0.74-3.051,1.445-7.477,1.451-12.05c6.098,0.97,11.802,2.588,17.067,4.809C423.253,355.854,422.065,366.466,425.578,373.576z
	 M476.462,415.382c-1.376-31.118-14.038-54.674-35.162-67.575c8.642-3.173,17.59-0.25,18.781,5.603
	c1.943,9.51,6.722,11.967,11.979,10.002c2.271-0.842,3.787-2.865,4.402-5.436V415.382z M452.621,560.712
	c-4.967-0.245-6.686,2.474-6.686,2.474s-5.612-2.897-10.8-0.218c-1.582,0.812-3.128,2.547-4.101,4.621
	c-1.517-0.52-3.158-0.985-4.917-1.409c0.785-2.63,1.46-5.373,1.958-8.244c1.203-6.889,1.072-13.784-0.28-20.333
	c4.167,2.794,9.639,4.993,16.632,4.993c1.478,0,3.03-0.107,4.653-0.319c7.768-1.023,13.364-4.029,17.42-7.764
	c3.433,7.988,5.46,17.603,2.968,27.811c-1.705,6.991-6.935,15.964-10.614,25.718c-2.186-3.382-5.116-6.688-8.949-9.632
	c1.723-4.854,0.299-8.755,3.695-10.91c3.701-2.361,6.797,0.958,6.797,0.958S459.433,561.037,452.621,560.712z M425.286,571.29
	c1.713,0.424,3.295,0.907,4.746,1.421c0.137,1.388,0.642,2.737,1.629,3.964c3.878,4.746,7.57,1.767,7.57,1.767
	s-3.492-0.973-3.463-3.235c2.707,1.427,5.068,3.018,7.469,4.72c-1.904,5.73-10.029,5.468-13.45,0.838
	c-3.469-4.688-3.302-8.623-3.302-8.623L425.286,571.29z M423.626,606.062c3.188,1.942,6.042,4.478,8.382,7.617
	c6.614,8.838,8.558,20.942,5.475,34.034c-1.904,8.137-6.875,14.668-13.334,19.452c0.17-7.928-1.361-15.864-4.671-23.097
	c0.591,0.325,1.224,0.611,1.934,0.812c3.839,1.087,7.57-1.734,8.074-5.215c1.042-7.06-6.292-10.104-10.713-7.489
	c-1.868,1.113-2.543,4.221-0.949,6.325c0.856,1.135,3.322,2.036,5.074,0.604c0.779-0.621,1.248-1.472,1.421-2.379
	c0.039-0.054,0.087-0.078,0.129-0.129c1.316-1.498,3.901,4.726-1.731,5.396c-1.994,0.251-3.662-0.433-5.023-1.478
	c-1.678-3.023-3.684-5.883-6.032-8.536c-4.392-4.946-9.191-9.09-14.28-12.475c2.856-1.522,7.023-1.987,11.411,0.078
	c8.203,3.883,15.552-1.723,15.552-9.907C424.343,608.523,424.08,607.288,423.626,606.062z M392.38,698.268
	c0.86,3.856,3.087,6.274,5.666,7.812c-4.158,2.991-8.454,5.251-12.832,6.729c-0.573-1.797-1.269-3.639-2.23-5.495
	c-1.021-1.982-5.832-10.092-9.552-14.262c1.994,0.408,4.28,0.325,6.639-0.917c5.507-2.904,1.946-10.656,1.946-10.656
	s-3.241,3.55-8.749,4.842c-2.617,0.621-5.06,0.498-7.221,0.026c-5.504-4.005-12.613-7.092-21.192-6.474
	c1.051-2.229,1.391-4.881-0.562-7.636c-1.36-1.913-3.224-3.083-5.396-3.379c-1.173-0.158-2.34-0.045-3.433,0.206
	c1.818-4.791,12.08-14.366,13.688-14.847c1.174,2.035,2.466,4.012,3.904,5.898c1.191,1.561,2.463,3.062,3.81,4.477
	c-3.299-0.224-5.514-2.379-5.514-2.379s-2.102,10.797,6.263,13.343c4.05,1.233,7.566-0.34,10.011-2.131
	c7.489,4.728,16.006,7.626,24.644,8.163c1.239,0.069,2.457,0.102,3.666,0.102c7.468,0,14.234-1.465,20.192-3.907
	c0.03,2.167-0.131,4.164-0.394,5.946c-1.788,4.627-4.29,8.993-7.492,12.922c-10.681-0.985-10.029-13.235-10.029-13.235
	S390.47,689.698,392.38,698.268z M321.937,679.003c2.472-0.038,4.883-2.736,4.504-5.698c-0.212-1.611-2.14-3.871-4.671-3.447
	c-1.123,0.18-2.06,0.762-2.743,1.567c-0.069,0.018-0.126,0.029-0.197,0.051c-2.141,0.722,0.564-7.006,6.504-4.528
	c2.353,0.985,3.427,2.91,3.845,4.976c-0.8,3.601-1.036,7.305-0.636,11.009c-5.937,2.089-11.447,5.575-16.035,11.498
	c-9.28-19.686-7.65-40.332,4.559-56.612c2.304-2.221,6.334-5.065,10.638-3.274c5.946,2.48,1.2,8.48,0.218,6.447
	c-0.035-0.071-0.071-0.116-0.099-0.185c0.084-1.042-0.158-2.125-0.809-3.039c-1.478-2.099-4.45-1.868-5.746-0.901
	c-2.382,1.815-2.617,5.412-0.91,7.203c4.015,4.215,12.973,3.146,14.026-4.89c0.519-3.958-2.681-8.179-7.218-8.179
	c-2.274,0-4.244,0.723-5.893,1.791c1.493-1.582,3.062-3.11,4.771-4.573c4.686-4.005,10.035-7.286,15.79-9.677
	c-1.062,11.095,0.642,21.733,4.973,31.142c-1.884,0.833-14.447,12.474-16.53,18.414c-0.37-1.209-1.006-2.379-2.03-3.409
	c-3.182-3.224-10.208-2.218-12.665,0.935C310.579,672.007,316.104,679.117,321.937,679.003z M268.583,671.923
	c0.419-2.065,1.491-3.99,3.848-4.976c5.94-2.478,8.643,5.25,6.504,4.528c-0.078-0.021-0.13-0.033-0.199-0.051
	c-0.685-0.806-1.628-1.388-2.742-1.567c-2.53-0.424-4.464,1.836-4.673,3.447c-0.385,2.962,2.027,5.66,4.506,5.698
	c5.831,0.114,11.356-6.996,6.355-13.381c-2.463-3.152-9.486-4.158-12.665-0.935c-1.027,1.03-1.657,2.2-2.031,3.409
	c-2.082-5.94-14.648-17.581-16.527-18.414c4.327-9.408,6.032-20.047,4.967-31.142c5.759,2.391,11.101,5.672,15.792,9.677
	c1.706,1.463,3.279,2.991,4.766,4.573c-1.642-1.068-3.607-1.791-5.888-1.791c-4.539,0-7.734,4.221-7.219,8.179
	c1.057,8.035,10.011,9.104,14.024,4.89c1.708-1.791,1.478-5.388-0.91-7.203c-1.292-0.967-4.266-1.197-5.738,0.901
	c-0.652,0.914-0.899,1.997-0.816,3.039c-0.024,0.068-0.06,0.113-0.094,0.185c-0.979,2.033-5.731-3.967,0.212-6.447
	c4.309-1.791,8.335,1.054,10.646,3.274c12.207,16.28,13.834,36.927,4.56,56.612c-4.589-5.923-10.104-9.409-16.032-11.498
	C269.62,679.228,269.383,675.523,268.583,671.923z M199.549,683.415c0,0,0.648,12.25-10.025,13.235
	c-3.206-3.929-5.708-8.295-7.494-12.922c-0.266-1.782-0.428-3.779-0.4-5.946c5.958,2.442,12.725,3.907,20.196,3.907
	c1.208,0,2.425-0.032,3.667-0.102c8.64-0.537,17.151-3.436,24.641-8.163c2.451,1.791,5.961,3.364,10.011,2.131
	c8.364-2.546,6.265-13.343,6.265-13.343s-2.218,2.155-5.515,2.379c1.345-1.414,2.617-2.916,3.809-4.477
	c1.44-1.887,2.729-3.863,3.901-5.898c1.615,0.48,11.871,10.056,13.693,14.847c-1.097-0.251-2.258-0.364-3.437-0.206
	c-2.174,0.296-4.037,1.466-5.392,3.379c-1.954,2.755-1.613,5.406-0.56,7.636c-8.58-0.618-15.689,2.469-21.204,6.474
	c-2.155,0.472-4.591,0.595-7.216-0.026c-5.507-1.292-8.747-4.842-8.747-4.842s-3.562,7.752,1.941,10.656
	c2.364,1.242,4.647,1.325,6.646,0.917c-3.718,4.17-8.532,12.279-9.556,14.262c-0.964,1.856-1.655,3.698-2.231,5.495
	c-4.373-1.478-8.671-3.737-12.826-6.729c2.578-1.537,4.804-3.955,5.663-7.812C207.295,689.698,199.549,683.415,199.549,683.415z
	 M178.982,632.176c-4.415-2.614-11.75,0.43-10.711,7.489c0.51,3.48,4.238,6.302,8.079,5.215c0.709-0.2,1.342-0.486,1.938-0.812
	c-3.316,7.232-4.841,15.169-4.669,23.097c-6.464-4.784-11.43-11.315-13.344-19.452c-3.078-13.092-1.131-25.196,5.48-34.034
	c2.341-3.14,5.188-5.675,8.387-7.617c-0.461,1.227-0.722,2.462-0.722,3.614c0,8.185,7.343,13.79,15.55,9.907
	c4.392-2.065,8.553-1.601,11.408-0.078c-5.086,3.385-9.89,7.528-14.277,12.475c-2.349,2.653-4.354,5.513-6.037,8.536
	c-1.352,1.045-3.025,1.729-5.021,1.478c-5.628-0.671-3.046-6.895-1.729-5.396c0.048,0.051,0.086,0.075,0.13,0.129
	c0.176,0.907,0.639,1.758,1.415,2.379c1.756,1.433,4.219,0.531,5.08-0.604C181.529,636.396,180.862,633.289,178.982,632.176z
	 M167.977,580.764c-3.422,4.63-11.55,4.893-13.447-0.838c2.394-1.702,4.755-3.293,7.459-4.72c0.031,2.263-3.464,3.235-3.464,3.235
	s3.694,2.979,7.577-1.767c0.989-1.227,1.488-2.576,1.622-3.964c1.454-0.514,3.036-0.997,4.752-1.421l-1.21,0.851
	C171.266,572.141,171.446,576.075,167.977,580.764z M144.165,567.499c3.389,2.155,1.967,6.057,3.692,10.91
	c-3.835,2.943-6.767,6.25-8.953,9.632c-3.67-9.754-8.904-18.727-10.61-25.718c-2.497-10.208-0.465-19.822,2.963-27.811
	c4.056,3.734,9.661,6.74,17.423,7.764c1.622,0.212,3.174,0.319,4.655,0.319c6.983,0,12.468-2.199,16.63-4.993
	c-1.355,6.549-1.483,13.444-0.277,20.333c0.499,2.871,1.171,5.614,1.961,8.244c-1.761,0.424-3.404,0.89-4.916,1.409
	c-0.982-2.074-2.525-3.809-4.107-4.621c-5.191-2.68-10.804,0.218-10.804,0.218s-1.715-2.719-6.688-2.474
	c-6.801,0.325-7.77,7.745-7.77,7.745S140.458,565.138,144.165,567.499z M153.122,427.907c2.28,8.82,6.703,16.858,12.938,23.204
	c2.61,2.663,5.531,4.982,8.685,6.979c-0.462,0.734-0.964,1.438-1.406,2.193c-6.158,10.63-8.598,23.136-7.725,35.013
	c-1.342-0.274-2.679-0.352-3.995-0.269c1.534-3.196,3.359-9.017,1.33-16.336c-2.343-8.462-8.526-13.668-8.1-19.375
	c0.581-7.668,7.128-5.173,7.128-5.173s-2.662-4.146-7.989-3.761c-6.046,0.427-6.909,5.597-6.909,5.597s-10.243-4.03-16.929-13.408
	c0.792-1.642,1.685-3.344,2.735-5.06c5.339-8.775,11.825-13.489,16.062-15.835c-0.081,0.37-0.14,0.746-0.14,1.144
	C148.808,425.379,150.673,427.498,153.122,427.907z M259.876,385.916c2.139,6.799,3.268,14.098,3.268,21.676
	c0,6.43-1.301,12.62-3.552,18.408c-1.196,1.722-2.957,3.224-5.462,3.25c-5.173,0.024-3.567-5.897-2.194-4.707
	c0.04,0.045,0.078,0.062,0.125,0.102c0.268,0.8,0.787,1.517,1.564,1.997c1.756,1.087,3.885-0.015,4.523-1.141
	c1.197-2.083,0.227-4.823-1.6-5.614c-4.309-1.856-10.592,1.752-8.823,8.021c0.875,3.096,4.574,5.212,7.922,3.785
	c0.742-0.319,1.376-0.729,1.942-1.183c-0.887,1.785-1.87,3.525-2.955,5.212c-13.862-5.91-28.351-7.513-41.866-4.579
	c5.883-2.608,16.245-2.436,25.218-11.978c13.172-13.984,6.261-30.133-1.512-32.936c-8.174-2.943-13.172,2.803-13.172,2.803
	s-0.133,0.224-0.306,0.522c-2.208-3.343-4.985-6.427-8.179-9.039c7.658-4.149,17.384-6.958,29.515-6.432
	c-0.027,0.044-0.051,0.062-0.085,0.089C240.677,378.45,248.324,387.694,259.876,385.916z M220.914,339.927
	c0.85-2.469,0.79-5.104-0.634-7.842c-2.376-4.573-6.182-4.841-9.317-4.035c0.209-0.257,0.387-0.493,0.61-0.755
	c3.51-4.158,12.043-8.803,16.331-10.99c1.667-0.684,3.298-1.439,4.894-2.269c-0.396,0.722-0.726,1.489-0.908,2.373
	c-0.758,3.689,2.175,7.008,5.519,7.259c6.764,0.478,9.862-5.898,6.356-10.632c-1.233-1.663-4.182-2.099-6.064-0.46
	c-1.022,0.896-1.698,3.281-0.232,4.836c0.653,0.689,1.497,1.062,2.371,1.17c0.048,0.033,0.079,0.078,0.128,0.11
	c1.504,1.143-4.221,4.003-5.259-1.253c-0.404-2.048,0.288-3.8,1.345-5.233c6.419-3.838,12.102-8.82,16.736-14.623
	c3.25,3.146,5.974,7.068,7.629,11.295c6.574,16.85-1.092,35.213-17.471,42.863C236.416,346.398,229.016,342.44,220.914,339.927z
	 M237.28,353.891c-10.19,3.134-20.903,2.82-30.256-0.878c4.377-2.391,8.47-5.262,11.179-8.474
	C225.145,346.542,231.55,349.676,237.28,353.891z M262.584,340.772c2.072,0.997,5.316,1.83,9.197,0.364
	c5.504-2.098,10.445-10.235,8.733-20.372c1.052,1.836,2.612,3.576,5.036,4.421c3.564,1.245,7.265-1.197,7.952-4.465
	c1.403-6.615-4.552-10.695-9.701-7.713c-1.79,1.03-2.66,3.841-1.271,5.928c0.74,1.125,3.03,2.123,4.77,0.877
	c0.776-0.558,1.253-1.331,1.481-2.176c0.051-0.051,0.089-0.072,0.125-0.116c1.344-1.329,3.412,4.71-1.952,5.023
	c-3.618,0.215-5.926-2.663-7.199-4.985c-0.633-2.104-1.518-4.266-2.79-6.453c-6.156-10.662-8.097-13.241-8.097-18.408
	c0-6.14,6.15-6.793,6.15-6.793s-6.803-3.543-11.011,1.298c-2.854,3.29-1.618,6.14-1.618,6.14s-1.224-1.827-4.094-3.896
	c4.716-8.364,7.438-17.871,7.438-27.804c0-0.191-0.012-0.364-0.015-0.543c6.04,3.749,11.223,8.573,15.514,14.271
	c-1.134,7.528-0.867,14.847,2.21,18.939c3.269,4.343,6.77,6.325,9.624,7.208c2.773,11.54,2.65,21.709-0.382,32.166
	c-4.191,10.823-12.626,21.288-24.252,28.867c-4.503,2.943-7.994,4.812-10.765,6.05c-2.891-4.708-6.33-9.056-10.313-12.939
	c-0.072-0.075-0.152-0.141-0.229-0.224C253.758,351.915,259.013,346.801,262.584,340.772z M270.12,236.518
	c-2.387-2.681-2.123-5.716-2.123-5.716s-5.2,5.021-1.785,15.931c-0.458,0.788-0.964,1.567-1.485,2.322
	c-1.163-7.292-3.34-14.217-6.459-20.602c4.306-1.886,8.246-4.098,11.836-6.582C271.154,226.835,271.133,231.799,270.12,236.518z
	 M284.995,260.89c-0.907,2.418-1.74,5.083-2.436,7.854c-4.61-5.311-10.059-9.728-16.23-13.226c0.873-1.012,1.685-2.069,2.452-3.149
	C273.378,259.329,281.567,260.657,284.995,260.89z M329.757,230.802c0,0,0.269,3.036-2.119,5.716
	c-1.012-4.719-1.033-9.683,0.015-14.647c3.597,2.483,7.534,4.695,11.841,6.582c-3.122,6.385-5.301,13.31-6.459,20.602
	c-0.52-0.755-1.026-1.534-1.483-2.322C334.963,235.822,329.757,230.802,329.757,230.802z M328.98,252.368
	c0.765,1.081,1.579,2.137,2.451,3.149c-6.17,3.498-11.62,7.916-16.232,13.226c-0.698-2.77-1.528-5.436-2.433-7.854
	C316.19,260.657,324.384,259.329,328.98,252.368z M314.319,294.309c3.08-4.092,3.343-11.411,2.208-18.939
	c4.293-5.698,9.475-10.522,15.516-14.271c-0.006,0.179-0.018,0.352-0.018,0.543c0,9.934,2.723,19.44,7.444,27.804
	c-2.874,2.068-4.096,3.896-4.096,3.896s1.233-2.851-1.62-6.14c-4.212-4.841-11.018-1.298-11.018-1.298s6.155,0.654,6.155,6.793
	c0,5.167-1.94,7.746-8.09,18.408c-1.274,2.188-2.164,4.349-2.797,6.453c-1.271,2.322-3.581,5.2-7.199,4.985
	c-5.364-0.313-3.295-6.352-1.955-5.023c0.045,0.044,0.087,0.065,0.125,0.116c0.233,0.845,0.714,1.618,1.487,2.176
	c1.743,1.245,4.023,0.248,4.77-0.877c1.385-2.086,0.514-4.898-1.277-5.928c-5.144-2.982-11.099,1.098-9.695,7.713
	c0.689,3.269,4.385,5.71,7.955,4.465c2.421-0.845,3.976-2.585,5.029-4.421c-1.713,10.137,3.232,18.274,8.733,20.372
	c3.887,1.466,7.128,0.633,9.2-0.364c3.569,6.029,8.823,11.143,15.452,14.665c-0.068,0.083-0.143,0.149-0.227,0.224
	c-3.976,3.883-7.417,8.232-10.307,12.939c-2.773-1.239-6.269-3.107-10.767-6.05c-11.626-7.579-20.064-18.044-24.256-28.867
	c-3.029-10.456-3.154-20.625-0.385-32.166C307.549,300.634,311.048,298.652,314.319,294.309z M360.065,312.576
	c-1.884-1.639-4.835-1.203-6.068,0.46c-3.507,4.734-0.412,11.11,6.361,10.632c3.337-0.251,6.274-3.57,5.513-7.259
	c-0.182-0.884-0.514-1.651-0.907-2.373c1.597,0.83,3.229,1.585,4.898,2.269c4.286,2.188,12.82,6.832,16.321,10.99
	c0.232,0.263,0.409,0.499,0.612,0.755c-3.132-0.806-6.946-0.538-9.311,4.035c-1.427,2.737-1.492,5.373-0.642,7.842
	c-8.101,2.513-15.501,6.471-22.034,11.814c-16.379-7.65-24.044-26.013-17.462-42.863c1.65-4.227,4.37-8.148,7.626-11.295
	c4.627,5.803,10.316,10.785,16.728,14.623c1.06,1.433,1.749,3.185,1.35,5.233c-1.042,5.256-6.761,2.396-5.257,1.253
	c0.051-0.033,0.081-0.078,0.129-0.11c0.877-0.107,1.716-0.48,2.369-1.17C361.761,315.857,361.086,313.472,360.065,312.576z
	 M390.744,353.013c-9.36,3.698-20.076,4.012-30.267,0.878c5.731-4.215,12.134-7.349,19.085-9.352
	C382.273,347.75,386.351,350.622,390.744,353.013z M353.517,374.173c-0.036-0.027-0.062-0.045-0.087-0.089
	c12.128-0.525,21.859,2.283,29.516,6.432c-3.197,2.612-5.974,5.695-8.176,9.039c-0.177-0.299-0.313-0.522-0.313-0.522
	s-4.991-5.746-13.173-2.803c-7.767,2.803-14.683,18.951-1.504,32.936c8.973,9.542,19.33,9.37,25.216,11.978
	c-13.521-2.934-28.007-1.331-41.872,4.579c-1.074-1.687-2.06-3.427-2.952-5.212c0.567,0.454,1.197,0.863,1.943,1.183
	c3.346,1.427,7.048-0.689,7.922-3.785c1.762-6.269-4.516-9.877-8.823-8.021c-1.827,0.791-2.794,3.531-1.6,5.614
	c0.642,1.126,2.77,2.228,4.524,1.141c0.776-0.48,1.29-1.197,1.559-1.997c0.048-0.039,0.09-0.057,0.131-0.102
	c1.367-1.19,2.974,4.731-2.196,4.707c-2.508-0.026-4.263-1.528-5.463-3.25c-2.25-5.788-3.552-11.979-3.552-18.408
	c0-7.579,1.128-14.877,3.271-21.676C349.439,387.694,357.081,378.45,353.517,374.173z M448.812,421.678
	c4.239,2.346,10.725,7.06,16.065,15.835c1.047,1.716,1.934,3.418,2.728,5.06c-6.68,9.378-16.924,13.408-16.924,13.408
	s-0.866-5.17-6.907-5.597c-5.328-0.386-7.987,3.761-7.987,3.761s6.546-2.495,7.118,5.173c0.434,5.707-5.745,10.913-8.092,19.375
	c-2.029,7.319-0.215,13.14,1.328,16.336c-1.319-0.083-2.65-0.006-3.987,0.269c0.868-11.877-1.573-24.383-7.734-35.013
	c-0.441-0.755-0.943-1.459-1.402-2.193c3.157-1.997,6.071-4.316,8.683-6.979c6.241-6.346,10.659-14.384,12.945-23.204
	c2.445-0.409,4.305-2.528,4.305-5.086C448.95,422.424,448.902,422.048,448.812,421.678z M394.046,526.466
	c-2.669-14.441-13.645-19.285-15.498-25.482c0.958,0.129,1.904,0.28,2.842,0.454c0.266,1.354,1.051,2.603,2.311,3.43
	c2.28,1.45,5.229,0.925,6.907-1.119c5.396,1.809,10.286,4.321,14.572,7.482c-3.537,2.003-5.325,7.107-1.499,11.809
	c2.293,2.812,5.827,2.955,8.89,1.618c1.068-0.481,2.182-1.293,3.325-2.29c0.089,0.135,0.185,0.26,0.274,0.415
	c-1.26,1.412-2.585,2.765-4.048,3.958c-5.656,4.594-11.736,7.772-17.933,9.459C394.688,533.298,394.708,530.054,394.046,526.466z
	 M379.104,495.853c2.263-4.603,7.54-2.245,6.023-0.562c-0.065,0.057-0.099,0.123-0.152,0.18c-0.653,0.203-1.257,0.576-1.8,1.018
	C381.838,496.243,380.477,496.031,379.104,495.853z M406.099,517.448c0.065,0.012,0.116,0.012,0.177,0.024
	c0.689,0.665,1.597,1.107,2.623,1.179c1.227,0.08,2.353-0.367,3.191-1.152c0.304,0.331,0.611,0.659,0.91,1.018
	c0.137,0.158,0.251,0.332,0.382,0.511c-0.698,0.985-1.57,1.72-2.782,2.104C404.824,522.935,404.087,516.968,406.099,517.448z
	 M415.668,513.738c-6.131-6.71-14.064-11.737-23.312-14.847c0.308-5.379-4.785-11.179-11.892-9.582
	c-3.439,0.776-5.579,3.104-6.549,6.051c-1.812-0.114-3.639-0.203-5.502-0.203c-7.552,0-14.253,1.182-20.187,3.107
	c0.758-3.768,2.241-7.337,4.388-10.546c3.952,0.382,8.319-1.734,10.399-7.146c0.347-0.902,0.483-1.765,0.525-2.615
	c0.305-0.167,0.585-0.353,0.901-0.514c10.999-5.328,27.655-0.6,33.007,9.358l4.57-2.437c-0.018-0.026-0.036-0.051-0.054-0.077
	c4.934-2.692,12.796-8.987,17.017-22.918c0.311,0.514,0.657,0.979,0.955,1.492c6.102,10.54,8.283,23.059,6.913,34.628
	c-0.731,0.466-1.456,0.973-2.19,1.573C418.946,503.843,417.137,509.362,415.668,513.738z M403.072,648.539
	c1.617,8.083,9.713,9.689,12.307,22.276c0.09,0.448,0.149,0.863,0.221,1.299c-7.295,3.257-15.429,4.764-23.011,4.311
	c-7.202-0.448-14.315-2.723-20.697-6.46c3.116,0.012,16.405-0.52,19.626-9.688c6.266-17.874-10.366-26.482-10.366-26.482
	s5.399,9.901-4.752,14.641c-6.543,3.051-14.43-2.104-24.575-0.263c-4.492-9.42-6.074-20.243-4.561-31.559
	c0.728-0.215,1.453-0.434,2.185-0.627c7.018,1.856,9.438-0.057,12.265,3.167c3.033,3.441,1.517,6.781,1.517,6.781
	s5.833-1.605,5.833-8.074c0-1.311-0.296-2.475-0.729-3.486c6.787,0.604,13.641,2.508,20.279,5.904
	c0.562,5.925,2.907,10.498,2.907,10.498s0.764-4.146,2.274-7.498c4.871,3.143,9.569,7.134,13.981,12.121
	c0.752,0.845,1.418,1.747,2.102,2.636C406.952,639.43,401.902,642.719,403.072,648.539z M362.298,662.724
	c-1.838-1.771-3.555-3.678-5.112-5.731c-0.875-1.143-1.669-2.334-2.433-3.537c1.427,0.051,2.895,0.296,4.369,0.795
	C364.385,656.034,364.617,660.261,362.298,662.724z M221.361,648.435c-10.154-4.739-4.749-14.641-4.749-14.641
	s-16.632,8.608-10.366,26.482c3.216,9.169,16.503,9.7,19.625,9.688c-6.389,3.737-13.495,6.012-20.7,6.46
	c-7.582,0.453-15.723-1.054-23.017-4.311c0.076-0.436,0.139-0.851,0.227-1.299c2.592-12.587,10.69-14.193,12.312-22.276
	c1.167-5.82-3.892-9.109-6.803-10.504c0.669-0.889,1.343-1.791,2.094-2.636c4.416-4.987,9.117-8.979,13.974-12.121
	c1.513,3.352,2.287,7.498,2.287,7.498s2.34-4.573,2.9-10.498c6.64-3.396,13.493-5.301,20.278-5.904
	c-0.432,1.012-0.723,2.176-0.723,3.486c0,6.469,5.831,8.074,5.831,8.074s-1.512-3.34,1.511-6.781
	c2.83-3.224,5.25-1.311,12.271-3.167c0.727,0.193,1.456,0.412,2.181,0.627c1.51,11.315-0.064,22.139-4.558,31.559
	C235.788,646.33,227.907,651.485,221.361,648.435z M243.011,653.455c-0.764,1.203-1.564,2.395-2.436,3.537
	c-1.555,2.054-3.276,3.961-5.111,5.731c-2.319-2.463-2.086-6.689,3.173-8.474C240.117,653.751,241.578,653.506,243.011,653.455z
	 M203.574,536.199c-6.198-1.687-12.277-4.865-17.932-9.459c-1.464-1.193-2.791-2.546-4.047-3.958
	c0.088-0.155,0.182-0.28,0.271-0.415c1.145,0.997,2.25,1.809,3.324,2.29c3.064,1.337,6.597,1.193,8.892-1.618
	c3.822-4.701,2.043-9.806-1.503-11.809c4.283-3.161,9.174-5.674,14.575-7.482c1.671,2.044,4.631,2.569,6.901,1.119
	c1.265-0.827,2.05-2.075,2.312-3.43c0.94-0.174,1.887-0.325,2.846-0.454c-1.856,6.197-12.829,11.041-15.496,25.482
	C203.052,530.054,203.076,533.298,203.574,536.199z M184.38,519.027c0.133-0.179,0.245-0.353,0.384-0.511
	c0.294-0.358,0.606-0.687,0.91-1.018c0.827,0.785,1.958,1.232,3.187,1.152c1.03-0.071,1.93-0.514,2.622-1.179
	c0.063-0.013,0.115-0.013,0.179-0.024c2.007-0.48,1.276,5.486-4.5,3.684C185.953,520.747,185.08,520.013,184.38,519.027z
	 M218.662,495.853c-1.376,0.179-2.739,0.391-4.073,0.636c-0.545-0.441-1.148-0.814-1.806-1.018c-0.052-0.057-0.085-0.123-0.142-0.18
	C211.113,493.607,216.396,491.25,218.662,495.853z M217.292,489.31c-7.098-1.597-12.195,4.203-11.892,9.582
	c-9.245,3.109-17.178,8.137-23.305,14.847c-1.47-4.376-3.278-9.896-8.997-14.674c-0.724-0.601-1.454-1.107-2.189-1.573
	c-1.364-11.569,0.815-24.088,6.916-34.628c0.301-0.514,0.643-0.979,0.957-1.492c4.222,13.931,12.074,20.226,17.017,22.918
	c-0.02,0.026-0.045,0.051-0.055,0.077l4.57,2.437c5.351-9.958,22.008-14.687,33.004-9.358c0.312,0.161,0.599,0.347,0.905,0.514
	c0.037,0.851,0.179,1.713,0.521,2.615c2.083,5.411,6.451,7.527,10.401,7.146c2.148,3.209,3.627,6.778,4.39,10.546
	c-5.938-1.926-12.634-3.107-20.186-3.107c-1.864,0-3.692,0.089-5.504,0.203C222.878,492.414,220.733,490.086,217.292,489.31z
	 M176.012,444.781c0.167,3.074,0.493,5.903,0.921,8.545c-2.592-1.71-5.006-3.626-7.173-5.829
	c-5.734-5.82-9.738-13.277-11.744-21.458c0.336-0.428,0.617-0.896,0.808-1.406c1.87,1.489,4.17,2.896,7.04,4.009
	c3.859,1.492,7.428,1.907,10.728,1.65C175.972,434.796,175.733,439.626,176.012,444.781z M212.914,440.897
	c0.011,0.077,0.011,0.141,0.025,0.224c0.366,2.212-5.08,1.466-4.923-3.286c1.16-0.379,2.309-0.788,3.504-1.102
	c0.064-0.012,0.136-0.026,0.2-0.045c-0.034,0.251-0.075,0.511-0.075,0.779C211.646,438.775,212.134,439.957,212.914,440.897z
	 M222.182,439.022c0.146-0.492,0.258-1.003,0.258-1.555c0-0.875-0.233-1.692-0.602-2.418c9.749-0.722,19.872,0.979,29.708,4.991
	c-9.968,12.659-25.364,21.172-42.333,21.536c-1.591,0.045-3.137-0.013-4.677-0.084c-5.713-3.161-10.375-8.176-13.505-14.276
	c3.719-3.078,7.816-5.576,12.238-7.54c0.385,1.427,1.14,2.794,2.328,4.029C210.922,449.231,221.485,445.733,222.182,439.022z
	 M273.723,511.309c-0.11,0.498-0.161,0.991-0.213,1.495c-3.359-3.251-7.358-6.402-12.029-9.151
	c-0.803-1.113-1.304-2.472-1.098-4.057c0.626-4.701,5.833-2.48,4.573-1.4c-0.046,0.03-0.07,0.069-0.112,0.107
	c-0.766,0.141-1.484,0.52-2.02,1.164c-1.216,1.454-0.486,3.525,0.464,4.254c1.753,1.343,4.379,0.812,5.33-0.74
	c2.24-3.672-0.257-9.832-6.203-9.026c-2.933,0.397-5.343,3.486-4.464,6.71c0.131,0.492,0.345,0.92,0.555,1.355
	c-1.097-0.57-2.226-1.107-3.396-1.624c-0.561-5.232-2.29-10.241-5.08-14.68c0.624-0.525,1.176-1.146,1.632-1.854
	c0.363-0.379,0.696-0.788,0.938-1.28c1.342-2.654,0.281-5.878-2.379-7.227c-2.639-1.325-5.846-0.296-7.21,2.307
	c-0.9-0.755-1.846-1.471-2.834-2.148c0.319-0.415,0.687-0.83,1.168-1.26c6.205-5.552,21.608-0.645,37.023-8.803
	c1.022-0.543,1.991-1.125,2.918-1.731c1.876,2.955,3.368,5.922,4.547,8.794c1.322,6.089,2.292,14.137-0.125,19.202
	C281.388,500.766,275.781,502.046,273.723,511.309z M290.762,557.398c-1.928,2.367-4.077,4.662-6.352,7.08
	c-1.045,1.107-1.912,2.266-2.647,3.402c-8.168-6.934-16.95-9.728-22.762-10.847c11.002-6.25,19.368-14.244,24.794-22.073
	C287.168,541.6,289.592,549.095,290.762,557.398z M252.298,465.541c-5.577,0.52-10.616,2.188-13.541,4.28
	c-1.201,0.851-2.245,1.898-3.034,3.062c-0.046-0.024-0.092-0.051-0.14-0.075c-0.737-0.357-1.5-0.665-2.269-0.945
	c-3.358-1.762-8.526-4.09-15.283-5.971c11.768-2.053,22.511-7.629,31.025-15.53c-1.012,1.582-1.766,3.621-1.264,5.919
	c0.645,2.946,3.877,4.424,6.402,3.522c5.119-1.83,4.54-7.814,1.203-9.835c-1.418-0.866-3.755-0.194-4.597,1.63
	c-0.457,0.967-0.173,2.949,1.407,3.6c0.706,0.295,1.442,0.302,2.113,0.104c0.052,0.012,0.081,0.029,0.134,0.039
	c1.469,0.343-1.783,4.298-4.261,0.778c-1.836-2.614-0.435-5.736,0.709-7.54c1.98-1.99,3.82-4.106,5.513-6.346
	c1.782,0.869,3.553,1.797,5.299,2.833c5.856,3.441,10.507,7.414,14.216,11.584C272.226,461.207,265.056,464.358,252.298,465.541z
	 M221.306,511.442c1.384-4.006,2.66-7.812,3.012-10.939c1.66-0.107,3.328-0.179,5.03-0.179c7.001,0,14.048,1.357,20.762,3.934
	c-0.017,4.466-0.996,9.026-3.107,13.394c-3.654,7.537-10.591,13.694-18.821,17.079c-0.482-0.038-0.946-0.122-1.445-0.143
	C223.028,531.032,217.548,522.322,221.306,511.442z M251.67,519.896c2.107-4.372,3.267-8.895,3.571-13.378
	c7.316,3.605,14.062,8.749,19.72,15.273c-0.77-0.199-1.583-0.289-2.438-0.229c-8.11,0.543-9.737,9.394-5.763,13.662
	c1.687,1.797,5.307,1.791,7.267-0.469c1.055-1.227,1.464-4.176-0.541-5.776c-0.89-0.701-1.945-1.009-3.001-0.984
	c-0.06-0.039-0.103-0.075-0.176-0.113c-1.97-1.102,4.029-5.938,7.286-0.149c1.346,2.388,0.758,5.08-0.48,7.498
	c-5.654,7.08-13.843,14.026-24.339,19.291c-2.381-7.707-8.068-14.629-16.62-17.942C242.875,532.549,248.339,526.768,251.67,519.896z
	 M240.79,584.364c-0.092,0.095-0.188,0.199-0.273,0.289c-5.958-6.212-11.82-9.871-13.75-11.002c-3.07-1.773-6.54-3.475-10.034-4.952
	c12.063-0.433,22.787-2.94,32.095-6.734C249.271,570.228,246.408,578.325,240.79,584.364z M224.157,578.122
	c1.758,1.019,7.081,4.344,12.495,9.946c-5.133,3.829-12.917,7.176-24.385,6.889c-0.754-0.015-1.485-0.089-2.226-0.146
	c3.372-6.328,4.515-15.845-2.231-23.957C213.205,572.646,219.336,575.313,224.157,578.122z M212.154,600.13
	c0.446,0.006,0.884,0.006,1.321,0.006c12.392,0,20.914-3.835,26.594-8.166c0.649,0.806,1.285,1.645,1.907,2.519
	c-3.379,0.18-6.658,1.717-8.09,3.678c-2.813,3.865-1.624,8.785-0.973,10.746c-8.128,0.25-16.219,2.176-23.893,5.746
	c-0.597-4.344-2.607-8.842-7.228-12.537c0.606-0.185,1.219-0.373,1.861-0.621c0.921-0.364,1.891-1.029,2.833-1.913
	C208.337,599.877,210.214,600.079,212.154,600.13z M245.544,601.5c0.188-0.077,0.355-0.128,0.526-0.179
	c1.266,2.576,2.309,5.391,3.09,8.391C243.862,609.303,241.992,603.073,245.544,601.5z M250.475,598.557
	c-1.34-2.653-2.868-5.077-4.474-7.31c1.146,0.229,4.464,1.17,7.967,4.656c3.398,3.392,3.437,9.441,0.142,12.28
	c-0.724-2.743-1.655-5.322-2.756-7.74C251.194,599.855,250.898,599.223,250.475,598.557z M258.065,597.629
	c-3.009-7.469-13.819-9.044-13.819-9.044l0.448,0.889c-0.249-0.319-0.51-0.611-0.756-0.919c0.222-0.224,0.448-0.454,0.653-0.672
	c6.603-7.106,9.957-16.632,9.395-26.32c4.064,0.357,15.484,2.205,25.384,11.121c-1.422,3.872-1.436,6.865-1.436,6.865
	s-4.674-6.429-11.012-2.366c-4.534,2.904-2.916,9.688-2.916,9.688s0.972-2.161,3.564-2.161s5.615,1.72,2.592,10.331
	c-3.025,8.62-2.592,17.223,2.588,25.41c0.834,1.299,1.83,2.803,2.914,4.364c-0.199-0.173-0.379-0.347-0.579-0.514
	c-6.153-5.263-12.843-9.146-19.793-11.719C259.314,609.105,260.515,603.688,258.065,597.629z M277.072,595.903
	c2.842-6.205,7.076-9.945,11.076-12.229c2.925,5.098,4.558,9.996,5.402,13.196c-3.893-0.929-8.791-0.627-11.078,5.498
	c-2.842,7.6,5.828,18.401,10.685,24.858c3.671,4.877,5.122,9.011,5.611,10.745v0.875c0,0,0.045-0.186,0.113-0.448
	c0.065,0.263,0.107,0.448,0.107,0.448l0.006-0.875c0.486-1.734,1.94-5.868,5.605-10.745c4.863-6.457,13.534-17.259,10.692-24.858
	c-2.292-6.125-7.193-6.427-11.086-5.498c0.848-3.2,2.486-8.099,5.408-13.196c4,2.283,8.232,6.023,11.074,12.229
	c3.997,8.726,3.027,19.056-2.483,30.031c-1.045,2.071-2.104,4.093-3.137,6c-16.098,18.996-18.229,44.12-5.89,67.554
	c-2.257,4.174-3.173,8.881-3.507,12.614c-3.514-4.074-5.403-8.34-6.358-11.109h-0.868c-0.949,2.77-2.842,7.035-6.358,11.109
	c-0.334-3.733-1.253-8.44-3.51-12.614c12.346-23.434,10.214-48.558-5.882-67.554c-1.037-1.907-2.102-3.929-3.142-6
	C274.046,614.959,273.075,604.629,277.072,595.903z M292.891,581.504c2.999-1.035,5.321-1.289,5.99-1.349
	c0.672,0.06,2.997,0.313,5.988,1.349c-3.445,6.122-5.183,11.893-5.988,15.277C298.066,593.396,296.335,587.626,292.891,581.504z
	 M375.581,439.022c0.692,6.711,11.259,10.209,16.584,4.684c1.188-1.235,1.94-2.603,2.322-4.029c4.43,1.964,8.52,4.462,12.238,7.54
	c-3.119,6.101-7.787,11.115-13.504,14.276c-1.54,0.071-3.08,0.129-4.674,0.084c-16.967-0.364-32.368-8.877-42.338-21.536
	c9.838-4.012,19.966-5.713,29.715-4.991c-0.37,0.726-0.604,1.543-0.604,2.418C375.321,438.02,375.426,438.53,375.581,439.022z
	 M386.04,436.688c0.065,0.019,0.138,0.033,0.203,0.045c1.191,0.313,2.346,0.723,3.498,1.102c0.161,4.752-5.286,5.498-4.913,3.286
	c0.016-0.083,0.006-0.146,0.021-0.224c0.778-0.94,1.266-2.122,1.266-3.43C386.115,437.199,386.079,436.939,386.04,436.688z
	 M346.86,448.58c1.141,1.804,2.54,4.926,0.704,7.54c-2.471,3.52-5.73-0.436-4.262-0.778c0.054-0.01,0.089-0.027,0.131-0.039
	c0.678,0.197,1.412,0.19,2.116-0.104c1.585-0.65,1.866-2.633,1.409-3.6c-0.845-1.824-3.179-2.496-4.597-1.63
	c-3.34,2.021-3.913,8.005,1.209,9.835c2.521,0.901,5.752-0.576,6.399-3.522c0.498-2.298-0.257-4.337-1.266-5.919
	c8.51,7.901,19.259,13.478,31.025,15.53c-6.758,1.881-11.925,4.209-15.277,5.971c-0.772,0.28-1.537,0.588-2.274,0.945
	c-0.051,0.024-0.09,0.051-0.149,0.075c-0.788-1.164-1.826-2.212-3.026-3.062c-2.928-2.093-7.961-3.761-13.536-4.28
	c-12.758-1.183-19.931-4.334-23.638-8.89c3.707-4.17,8.354-8.143,14.211-11.584c1.755-1.036,3.525-1.964,5.301-2.833
	C343.034,444.474,344.878,446.59,346.86,448.58z M356.418,474.254c0.478,0.43,0.842,0.845,1.167,1.26
	c-0.988,0.678-1.934,1.394-2.832,2.148c-1.367-2.603-4.573-3.632-7.209-2.307c-2.666,1.349-3.729,4.572-2.385,7.227
	c0.247,0.492,0.579,0.901,0.938,1.28c0.453,0.707,1.015,1.328,1.636,1.854c-2.788,4.438-4.525,9.447-5.084,14.68
	c-1.167,0.517-2.298,1.054-3.394,1.624c0.215-0.436,0.424-0.863,0.555-1.355c0.884-3.224-1.521-6.312-4.459-6.71
	c-5.949-0.806-8.447,5.354-6.209,9.026c0.952,1.552,3.579,2.083,5.328,0.74c0.952-0.729,1.687-2.8,0.469-4.254
	c-0.537-0.645-1.257-1.023-2.021-1.164c-0.039-0.038-0.065-0.077-0.11-0.107c-1.257-1.08,3.946-3.301,4.566,1.4
	c0.215,1.585-0.292,2.943-1.092,4.057c-4.669,2.749-8.675,5.9-12.032,9.151c-0.048-0.504-0.102-0.997-0.212-1.495
	c-2.057-9.263-7.666-10.543-11.987-19.593c-2.418-5.065-1.445-13.113-0.126-19.202c1.183-2.872,2.675-5.839,4.549-8.794
	c0.932,0.606,1.893,1.188,2.923,1.731C334.808,473.609,350.213,468.702,356.418,474.254z M313.973,534.961
	c5.424,7.829,13.79,15.823,24.78,22.073c-5.806,1.119-14.584,3.913-22.751,10.847c-0.743-1.137-1.605-2.295-2.653-3.402
	c-2.271-2.418-4.427-4.713-6.349-7.08C308.164,549.095,310.594,541.6,313.973,534.961z M325.005,620.451
	c5.182-8.188,5.611-16.79,2.597-25.41c-3.021-8.611,0-10.331,2.585-10.331c2.594,0,3.567,2.161,3.567,2.161s1.62-6.784-2.917-9.688
	c-6.334-4.062-11.014,2.366-11.014,2.366s-0.006-2.993-1.43-6.865c9.9-8.916,21.315-10.764,25.381-11.121
	c-0.564,9.688,2.79,19.214,9.396,26.32c0.202,0.218,0.43,0.448,0.656,0.672c-0.254,0.308-0.511,0.6-0.764,0.919l0.453-0.889
	c0,0-10.812,1.575-13.82,9.044c-2.447,6.06-1.247,11.477,2.773,14.954c-6.952,2.573-13.639,6.456-19.799,11.719
	c-0.191,0.167-0.376,0.341-0.57,0.514C323.178,623.254,324.181,621.75,325.005,620.451z M348.606,609.712
	c0.773-3,1.818-5.814,3.083-8.391c0.174,0.051,0.347,0.102,0.529,0.179C355.773,603.073,353.898,609.303,348.606,609.712z
	 M343.792,595.903c3.504-3.486,6.826-4.427,7.97-4.656c-1.612,2.232-3.135,4.656-4.472,7.31c-0.43,0.666-0.716,1.299-0.884,1.887
	c-1.095,2.418-2.035,4.997-2.755,7.74C340.359,605.345,340.396,599.295,343.792,595.903z M388.741,614.658
	c-7.677-3.57-15.769-5.496-23.896-5.746c0.65-1.961,1.842-6.881-0.965-10.746c-1.433-1.961-4.722-3.498-8.098-3.678
	c0.624-0.874,1.257-1.713,1.907-2.519c5.684,4.331,14.202,8.166,26.596,8.166c0.436,0,0.878,0,1.325-0.006
	c1.94-0.051,3.814-0.253,5.662-0.543c0.943,0.884,1.901,1.549,2.833,1.913c0.647,0.248,1.254,0.437,1.865,0.621
	C391.348,605.816,389.336,610.314,388.741,614.658z M387.721,594.812c-0.74,0.057-1.478,0.131-2.224,0.146
	c-11.468,0.287-19.259-3.06-24.387-6.889c5.411-5.603,10.739-8.928,12.489-9.946c4.829-2.809,10.954-5.477,16.345-7.268
	C383.204,578.967,384.351,588.483,387.721,594.812z M370.993,573.651c-1.928,1.131-7.79,4.79-13.745,11.002
	c-0.093-0.09-0.188-0.194-0.277-0.289c-5.618-6.039-8.478-14.137-8.039-22.399c9.308,3.794,20.029,6.302,32.088,6.734
	C377.533,570.177,374.062,571.878,370.993,573.651z M344.989,554.521c-10.498-5.265-18.688-12.211-24.343-19.291
	c-1.238-2.418-1.826-5.11-0.483-7.498c3.26-5.788,9.26-0.952,7.28,0.149c-0.065,0.038-0.104,0.074-0.17,0.113
	c-1.045-0.024-2.113,0.283-2.997,0.984c-2.006,1.601-1.597,4.55-0.537,5.776c1.952,2.26,5.576,2.266,7.266,0.469
	c3.967-4.269,2.343-13.119-5.768-13.662c-0.854-0.06-1.668,0.03-2.436,0.229c5.653-6.524,12.405-11.668,19.716-15.273
	c0.305,4.483,1.465,9.006,3.575,13.378c3.329,6.872,8.791,12.653,15.513,16.683C353.051,539.892,347.368,546.813,344.989,554.521z
	 M350.759,517.651c-2.113-4.367-3.093-8.928-3.11-13.394c6.719-2.576,13.761-3.934,20.766-3.934c1.702,0,3.373,0.071,5.023,0.179
	c0.358,3.128,1.636,6.934,3.016,10.939c3.764,10.88-1.723,19.59-5.433,23.146c-0.496,0.021-0.962,0.104-1.439,0.143
	C361.349,531.346,354.415,525.188,350.759,517.651z M421.173,430.292c3.301,0.257,6.862-0.158,10.728-1.65
	c2.865-1.113,5.17-2.52,7.038-4.009c0.191,0.511,0.469,0.979,0.81,1.406c-2.009,8.181-6.012,15.638-11.752,21.458
	c-2.161,2.203-4.573,4.119-7.167,5.829c0.427-2.642,0.752-5.471,0.917-8.545C422.026,439.626,421.793,434.796,421.173,430.292z
	 M441.172,413.598c-2.293-2.884-8.203-9.05-15.373-6.319c-5.527,2.11-3.772,8.584,2.335,9.244c5.128,0.556,10.757-0.666,13.02-1.253
	c0,0.146,0,0.287,0,0.409c-2.896,1.26-10.106,4.036-16.811,3.702c-8.006-0.388-10.88-11.238-3.887-15.498
	c9.193-5.603,17.584,4.594,20.716,9.154C441.172,413.221,441.172,413.406,441.172,413.598z M422.832,391.181
	c-6.907-0.078-11.778,2.123-15.903,4.591c-3.128-4.51-7.931-10.226-14.659-15.229c3.771-1.958,7.823-3.191,11.868-3.358
	c14.728-0.543,27.464,7.618,33.443,20.059C434.082,393.84,429.307,391.25,422.832,391.181z M402.646,398.464
	c-1.926,1.236-3.782,2.349-5.74,3.051c-5.6,2.042-12.298,2.579-12.298,2.579s6.478,1.298,11.659,8.39
	c2.868,3.94,7.865,10.626,14.853,14.618c0.012,1.707-0.023,3.441-0.164,5.199c-0.283,3.46-1.015,6.779-2.102,9.913
	c-4.444-3.46-9.369-6.224-14.697-8.301c-0.191-0.538-0.421-1.081-0.695-1.612c-1.666-3.185-5.746-6.447-10.148-9.9
	c-6.367-5.009-8.427-11.528-8.704-16.791h0.062c0-8.188,5.465-16.65,13.005-22.196C394.69,388.232,399.567,393.987,402.646,398.464z
	 M330.187,383.217c0.923,0.51,1.818,0.925,2.71,1.292c-2.265,7.265-3.459,15.017-3.459,23.082c0,10.952,3.298,21.369,8.945,30.345
	c-1.665,0.839-3.331,1.719-4.973,2.687c-5.713,3.352-10.352,7.17-14.166,11.193c-0.355-1.146-0.597-2.341-0.717-3.582
	c-1.003-10.516,6.824-19.527,2.591-27.557c-1.146-2.185-3.083-3.925-5.343-4.976c0.907-1.271,1.463-2.821,1.463-4.495
	c0-4.292-3.486-7.752-7.775-7.752c-0.177,0-0.338,0.039-0.508,0.057c2.122-4.406,7.919-14.507,19.044-21.659
	C328.73,382.307,329.435,382.793,330.187,383.217z M312.337,460.565c-4.659,7.196-7.185,14.482-8.549,20.577
	c-3.725,16.623-1,34.577,7.229,49.078c-3.653,6.645-6.379,13.88-8.047,21.357c-0.627-1.113-1.218-2.257-1.714-3.469
	c-1.17-2.818-1.809-6.158-2.158-8.973c0,0,0-4.421-0.218-2.003c-0.221-2.418-0.221,2.003-0.221,2.003
	c-0.347,2.814-0.991,6.154-2.155,8.973c-0.498,1.212-1.086,2.355-1.713,3.469c-1.672-7.478-4.388-14.713-8.044-21.357
	c8.223-14.501,10.949-32.455,7.229-49.078c-1.37-6.095-3.889-13.381-8.552-20.577c12.534-11.257,13.235-29.999,13.235-29.999h0.438
	C299.099,430.566,300.069,449.789,312.337,460.565z M288.3,403.455c-4.292,0-7.774,3.459-7.774,7.752
	c0,1.674,0.552,3.224,1.461,4.495c-2.266,1.051-4.2,2.791-5.346,4.976c-4.231,8.029,3.595,17.041,2.588,27.557
	c-0.12,1.241-0.358,2.436-0.709,3.582c-3.821-4.023-8.457-7.842-14.168-11.193c-1.639-0.968-3.304-1.848-4.973-2.687
	c5.647-8.976,8.944-19.393,8.944-30.345c0-8.065-1.193-15.817-3.455-23.082c0.891-0.367,1.785-0.782,2.703-1.292
	c0.761-0.424,1.461-0.911,2.189-1.364c11.128,7.152,16.921,17.253,19.043,21.659C288.64,403.494,288.473,403.455,288.3,403.455z
	 M223.087,405.61h0.067c-0.277,5.262-2.335,11.781-8.704,16.791c-4.4,3.453-8.48,6.716-10.15,9.9
	c-0.281,0.531-0.507,1.074-0.7,1.612c-5.316,2.077-10.247,4.841-14.69,8.301c-1.086-3.134-1.821-6.453-2.103-9.913
	c-0.14-1.758-0.184-3.492-0.161-5.199c6.986-3.991,11.98-10.677,14.847-14.618c5.183-7.092,11.662-8.39,11.662-8.39
	s-6.695-0.538-12.31-2.579c-1.949-0.702-3.8-1.815-5.722-3.051c3.069-4.477,7.946-10.232,14.965-15.05
	C217.626,388.96,223.087,397.422,223.087,405.61z M190.832,395.771c-4.13-2.468-8.997-4.668-15.902-4.591
	c-6.473,0.069-11.247,2.66-14.745,6.062c5.981-12.441,18.708-20.602,33.438-20.059c4.048,0.167,8.1,1.4,11.864,3.358
	C198.76,385.545,193.963,391.261,190.832,395.771z M177.31,403.882c6.989,4.259,4.115,15.109-3.886,15.498
	c-6.713,0.334-13.924-2.442-16.814-3.702c-0.007-0.122,0-0.263-0.006-0.409c2.269,0.588,7.899,1.809,13.024,1.253
	c6.11-0.66,7.861-7.134,2.333-9.244c-7.164-2.731-13.083,3.436-15.37,6.319c0.005-0.191-0.007-0.376-0.003-0.562
	C159.726,408.476,168.111,398.279,177.31,403.882z M145.35,476.212c3.142,13.381-2.189,26.786-4.615,31.918
	c-2.972,4.154-6.995,10.175-10.647,16.924c-3.491-5.854-4.076-11.745-4.155-12.973c3.095-0.737,6.843-2.73,9.053-7.88
	c2.591-6.026,3.889-12.05-3.457-22.387c-4.968-6.99-6.173-16.925-6.438-22.622c0.166-1.427,0.897-6.347,3.3-12.546
	C133.923,455.679,142.282,463.168,145.35,476.212z M127.434,530.232c-2.645,5.495-4.828,11.238-5.872,16.683V517.18
	C122.41,520.747,124.086,525.654,127.434,530.232z M159.648,536.629c-2.576,0.197-5.647-0.235-7.48-2.898
	c-3.224-4.646,3.156-6.841,2.915-4.871c-0.012,0.075-0.01,0.107-0.016,0.18c-0.56,0.734-0.893,1.647-0.849,2.642
	c0.089,2.256,2.401,3.492,3.823,3.382c2.631-0.212,4.527-2.771,4.115-4.898c-0.965-5.035-8.111-8.501-12.726-3.033
	c-2.276,2.687-1.924,7.344,1.44,9.492c0.5,0.319,1.012,0.562,1.531,0.768c-0.984-0.033-1.991-0.096-3.042-0.23
	c-7.291-0.952-12.29-3.934-15.752-7.51c1.567-2.916,3.253-5.524,4.861-7.758c2.025-1.713,10.299-8.552,15.953-10.796
	c6.129-2.451,10.719-2.036,14.404-0.325c1.609,4.513,3.777,8.697,6.483,12.42c-0.888,1.605-1.689,3.257-2.398,4.952
	C170.375,531.218,166.083,535.023,159.648,536.629z M177.586,530.478c0.724-0.94,1.312-1.785,1.761-2.495
	c0.964,0.973,1.959,1.907,3.016,2.764c7.189,5.832,15.026,9.6,23.014,11.179c3.809,8.086,11.786,11.942,17,10.751
	c8.256-1.886,9.314-9.223,9.314-9.223s0.01-1.379-0.333-2.961c8.875,2.215,14.627,8.853,16.674,16.229
	c-9.567,4.048-20.811,6.65-33.618,6.851c-1.476-0.531-2.843-1.478-3.558-3.167c-1.837-4.376,3.781-5.084,3.243-3.505
	c-0.027,0.058-0.027,0.096-0.044,0.135c-0.588,0.517-1.018,1.203-1.154,2.032c-0.313,1.869,1.366,3.281,2.554,3.437
	c2.198,0.274,4.19-1.49,4.227-3.319c0.076-4.293-5.192-8.361-9.922-4.678c-2.33,1.824-2.852,5.701-0.463,8.041
	c0.436,0.428,0.905,0.768,1.387,1.054c-4.083-0.057-7.827-0.08-11.267-0.074c-7.145-4.633-13.869-6.218-15.577-10.88
	c-2.188-5.955,4.058-7.018,3.664-4.901c-0.02,0.077-0.017,0.128-0.028,0.194c-0.66,0.755-1.085,1.725-1.103,2.814
	c-0.051,2.447,1.898,4.469,4.361,4.514c2.459,0.06,4.489-1.887,4.539-4.35c0.007-0.453-0.072-0.875-0.191-1.286
	c-0.457-5.537-8.338-9.241-13.592-4.132c-2.739,2.675-2.822,6.257-1.258,9.391c1.321,2.642,4.633,5.406,8.201,8.328
	c0.243,0.203,0.452,0.403,0.684,0.594c-4.729,0.275-8.806,0.731-12.385,1.332c-0.791-2.559-1.45-5.257-1.943-8.093
	C173.184,547.829,174.234,538.645,177.586,530.478z M193.515,568.783c3.79,5.865,3.346,11.796,2.366,16.356
	c-0.325,1.496-1.067,2.901-2.018,4.194c-6.554-4.271-11.812-10.848-15.316-19.265C182.717,569.416,187.599,568.974,193.515,568.783z
	 M224.055,701.844c3.352-4.976,13.658-18.07,28.627-16.823c3.448,0.284,7.032,0.672,10.576,1.505
	c-1.106,4.421-3.205,8.73-6.394,12.65c-7.477,9.178-18.103,14.903-29.152,15.697c-2.277,0.161-4.546,0.057-6.817-0.191
	C221.421,710.205,222.645,705.757,224.055,701.844z M259.741,680.627c-2.438-2.77-2.949-4.131-2.042-5.411
	c0.695-0.971,1.39-1.164,1.851-1.239c1.407-0.161,3.155,0.645,4.333,1.344c0.279,2.026,0.346,4.074,0.194,6.125
	C262.647,681.119,261.198,680.851,259.741,680.627z M285.371,705.022c1.57,4.517,1.75,9.319,1.708,11.743
	c-0.239,0.185-0.469,0.379-0.722,0.558c-3.277,2.284-8.422,6.46-8.422,13.561c0,7.764,5.508,10.981,5.508,10.981
	s-7.72-2.809-13.926,0.645c-7.561,4.203-5.616,13.561-5.616,13.561s1.266-2.143,3.67-2.576c2.407-0.447,3.962,1.451,3.455,4.081
	c-1.295,6.671,3.666,10.118,7.556,10.337c5.732,0.304,7.452-4.734,7.452-4.734s-5.94-0.436-3.893-5.495
	c1.337-3.274,10.692-2.91,11.34,6.14c0.647,9.032-8.42,19.369-8.42,19.369s-14.576-8.065-22.023-20.014
	c-7.45-11.955-9.719-21.312-1.297-31.33c7.792-9.262,18.893-20.059,18.893-20.059C282.361,709.572,283.93,707.307,285.371,705.022z
	 M291.753,745.525c-5.477-4.427-7.772-12.06-1.726-17.009c3.544-2.898,6.773-3.575,8.854-3.647c2.077,0.072,5.313,0.749,8.854,3.647
	c6.044,4.949,3.755,12.582-1.729,17.009c-4.074,3.28-5.817,7.298-7.125,10.399C297.573,752.823,295.83,748.806,291.753,745.525z
	 M304.274,763.822c0.651-9.05,10.012-9.414,11.34-6.14c2.054,5.06-3.883,5.495-3.883,5.495s1.716,5.038,7.447,4.734
	c3.886-0.219,8.855-3.666,7.558-10.337c-0.508-2.63,1.048-4.528,3.45-4.081c2.406,0.434,3.678,2.576,3.678,2.576
	s1.946-9.357-5.618-13.561c-6.208-3.453-13.927-0.645-13.927-0.645s5.504-3.218,5.504-10.981c0-7.101-5.146-11.276-8.418-13.561
	c-0.253-0.179-0.483-0.373-0.725-0.558c-0.039-2.424,0.14-7.227,1.71-11.743c1.441,2.284,4.976,6.588,4.976,6.588
	c5.842,8.065,10.859,10.976,18.653,20.237c8.423,10.018,6.157,19.375-1.296,31.33c-7.45,11.948-22.022,20.014-22.022,20.014
	S303.633,772.854,304.274,763.822z M333.879,675.32c1.173-0.699,2.929-1.505,4.331-1.344c0.46,0.075,1.158,0.269,1.851,1.239
	c0.907,1.28,0.397,2.642-2.041,5.411c-1.457,0.224-2.901,0.492-4.338,0.818C333.529,679.395,333.599,677.347,333.879,675.32z
	 M345.081,685.021c14.967-1.247,25.276,11.848,28.626,16.823c1.408,3.913,2.635,8.361,3.157,12.838
	c-2.269,0.248-4.543,0.353-6.814,0.191c-11.047-0.794-21.673-6.52-29.15-15.697c-3.19-3.92-5.292-8.229-6.396-12.65
	C338.046,685.692,341.631,685.305,345.081,685.021z M401.884,585.14c-0.979-4.561-1.43-10.491,2.358-16.356
	c5.922,0.19,10.8,0.633,14.973,1.286c-3.499,8.417-8.761,14.993-15.312,19.265C402.946,588.041,402.2,586.636,401.884,585.14z
	 M408.647,563.812c0.233-0.19,0.437-0.391,0.675-0.594c3.57-2.922,6.887-5.687,8.203-8.328c1.569-3.134,1.486-6.716-1.254-9.391
	c-5.251-5.109-13.134-1.405-13.603,4.132c-0.113,0.411-0.19,0.833-0.182,1.286c0.054,2.463,2.083,4.409,4.54,4.35
	c2.462-0.045,4.414-2.066,4.36-4.514c-0.018-1.09-0.441-2.06-1.104-2.814c-0.012-0.066-0.012-0.117-0.021-0.194
	c-0.403-2.116,5.845-1.054,3.656,4.901c-1.71,4.662-8.429,6.247-15.581,10.88c-3.433-0.006-7.182,0.018-11.259,0.074
	c0.483-0.286,0.952-0.626,1.385-1.054c2.388-2.34,1.875-6.217-0.463-8.041c-4.725-3.684-9.996,0.385-9.925,4.678
	c0.039,1.829,2.036,3.594,4.229,3.319c1.188-0.155,2.869-1.567,2.556-3.437c-0.141-0.829-0.564-1.516-1.161-2.032
	c-0.012-0.039-0.018-0.077-0.039-0.135c-0.54-1.579,5.08-0.871,3.235,3.505c-0.713,1.689-2.068,2.636-3.549,3.167
	c-12.805-0.2-24.052-2.803-33.616-6.851c2.045-7.376,7.791-14.014,16.674-16.229c-0.34,1.582-0.34,2.961-0.34,2.961
	s1.062,7.337,9.318,9.223c5.215,1.191,13.199-2.665,17.002-10.751c7.982-1.579,15.82-5.347,23.014-11.179
	c1.051-0.856,2.048-1.791,3.015-2.764c0.451,0.71,1.039,1.555,1.762,2.495c3.354,8.167,4.402,17.352,2.797,26.574
	c-0.493,2.836-1.146,5.534-1.946,8.093C417.447,564.544,413.373,564.088,408.647,563.812z M422.45,523.191
	c2.71-3.723,4.877-7.907,6.483-12.42c3.683-1.711,8.283-2.126,14.414,0.325c5.645,2.244,13.925,9.083,15.942,10.796
	c1.611,2.233,3.301,4.842,4.868,7.758c-3.469,3.576-8.462,6.558-15.758,7.51c-1.057,0.135-2.06,0.197-3.044,0.23
	c0.522-0.206,1.035-0.448,1.534-0.768c3.364-2.148,3.713-6.806,1.441-9.492c-4.614-5.468-11.767-2.002-12.725,3.033
	c-0.418,2.128,1.48,4.687,4.113,4.898c1.424,0.11,3.731-1.126,3.827-3.382c0.041-0.994-0.293-1.907-0.86-2.642
	c-0.003-0.072,0-0.104-0.003-0.18c-0.247-1.97,6.128,0.225,2.91,4.871c-1.832,2.663-4.91,3.096-7.482,2.898
	c-6.433-1.605-10.726-5.411-13.263-8.485C424.146,526.448,423.343,524.797,422.45,523.191z M470.331,530.232
	c3.731-5.11,5.391-10.65,6.131-14.25v32.551C475.578,542.617,473.238,536.271,470.331,530.232z M462.779,504.201
	c2.209,5.149,5.955,7.143,9.056,7.88c-0.08,1.228-0.668,7.119-4.163,12.973c-3.66-6.749-7.669-12.77-10.645-16.924
	c-2.421-5.132-7.761-18.537-4.615-31.918c3.063-13.044,11.427-20.533,16.955-29.565c2.402,6.199,3.137,11.119,3.301,12.546
	c-0.263,5.697-1.472,15.632-6.447,22.622C458.89,492.151,460.188,498.175,462.779,504.201z M411.74,334.975
	c-1.104-4.534-3.396-8.456-7.701-10.316c-6.292-2.719-9.45,0.525-10.906,3.146c-0.801-1.125-1.762-2.397-2.974-3.838
	c-0.991-1.164-2.269-2.334-3.695-3.472c1.511,0.146,3.021,0.263,4.562,0.292c0.6,0.015,1.19,0.021,1.787,0.021
	c9.973-0.006,18.973-1.893,26.772-5.462c-0.383,1.904-0.836,3.818-1.445,5.698C416.475,326.227,414.313,330.856,411.74,334.975z
	 M371.143,265.985c-6.993,0.334-14.182-0.779-21.034-3.465c-3.666-1.439-6.952-3.364-9.827-5.674
	c10.122-4.232,21.315-5.597,32.632-4.015c-0.505,1.618-0.884,3.242-1.081,4.871C371.115,260.209,370.847,263.006,371.143,265.985z
	 M397.818,255.747c-0.08-0.039-0.161-0.089-0.25-0.14c0-0.224,0.018-0.469-0.007-0.692c-0.283-3.337-5.188-10.573-13.813-9.516
	c-0.502,0.057-1.003,0.179-1.517,0.332c5.749-7.958,15.283-14.148,24.494-14.495c2.46-0.102,4.851,0.06,7.176,0.43
	C410.221,241.771,404.779,249.926,397.818,255.747z M374.889,247.905c-12.841-2.015-25.593-0.546-37.078,4.361
	c0.973-7.791,3.179-15.166,6.504-21.876c4.057,1.498,8.36,2.776,12.945,3.793c7.73,1.708,14.889,2.233,20.79,2.233
	c2.119,0,4.057-0.062,5.817-0.173C380.157,239.634,377.038,243.625,374.889,247.905z M318.385,214.068
	c1.475,1.541,3.074,2.979,4.733,4.361c-1.952,7.119-1.868,14.322-0.102,21.026c-0.399,0.134-0.806,0.274-1.247,0.397
	c-4.967,1.284-9.498,4.725-8.851,9.039c0.887,5.928,6.904,5.167,6.904,5.167s0.43,0.857-2.585,3.012
	c-1.48,1.051-3.576,1.484-5.334,1.651c-0.271-0.651-0.547-1.277-0.827-1.869c-3.385-7.22-7.399-19.45-9.301-31.231
	c-0.054-2.833,0.394-5.546,1.935-7.012c3.73-3.555,6.629,1.836,4.817,1.914c-0.06,0-0.104,0.006-0.161,0.006
	c-0.746-0.388-1.612-0.567-2.499-0.376c-2.015,0.403-2.814,2.647-2.504,3.907c0.564,2.328,3.087,3.459,5.009,2.988
	c4.979-1.236,6.478-8.489,0.901-11.826c-2.755-1.666-6.896-0.672-8.346,2.642c-0.021,0.051-0.036,0.113-0.054,0.17
	c-0.186-2.441-0.257-4.814-0.155-7.041c0.149-3.486,0.466-6.292,0.854-8.582c0.955-2.976,2.027-5.821,3.224-8.546
	C307.645,200.49,311.931,207.34,318.385,214.068z M306.438,356.096c3.379,7.913,9.08,16.286,17.131,22.644
	c-5.731,4.036-10.104,8.737-13.292,12.969c0.012-0.102,0.033-0.209,0.048-0.313c1.299-9.035,1.299-15.074-5.617-21.957
	c-3.218-3.212-4.907-7.406-5.621-9.588l0.012-1.454c0,0-0.074,0.302-0.218,0.794c-0.144-0.492-0.221-0.794-0.221-0.794l0.012,1.454
	c-0.713,2.182-2.399,6.376-5.617,9.588c-6.913,6.883-6.913,12.921-5.618,21.957c0.015,0.104,0.033,0.212,0.047,0.313
	c-3.188-4.232-7.565-8.934-13.293-12.969c8.049-6.358,13.753-14.73,17.132-22.644c3.209-7.516,5.08-14.763,6.185-20.718l0.078,0.021
	c0.519-1.746,0.931-3.48,1.295-5.227c0.364,1.746,0.776,3.48,1.296,5.227l0.071-0.021
	C301.358,341.333,303.227,348.58,306.438,356.096z M296.887,218.032c-0.018-0.057-0.035-0.119-0.054-0.17
	c-1.456-3.313-5.594-4.307-8.349-2.642c-5.574,3.337-4.077,10.59,0.901,11.826c1.929,0.472,4.444-0.66,5.009-2.988
	c0.319-1.26-0.486-3.504-2.504-3.907c-0.884-0.191-1.749-0.012-2.496,0.376c-0.06,0-0.101-0.006-0.161-0.006
	c-1.812-0.078,1.087-5.468,4.818-1.914c1.546,1.466,1.984,4.179,1.934,7.012c-1.901,11.781-5.91,24.011-9.304,31.231
	c-0.277,0.591-0.552,1.218-0.827,1.869c-1.758-0.167-3.848-0.6-5.33-1.651c-3.022-2.155-2.591-3.012-2.591-3.012
	s6.016,0.761,6.912-5.167c0.645-4.313-3.888-7.755-8.852-9.039c-0.445-0.123-0.852-0.263-1.252-0.397
	c1.774-6.704,1.849-13.907-0.1-21.026c1.66-1.382,3.264-2.82,4.731-4.361c6.461-6.728,10.744-13.578,13.586-20.205
	c1.203,2.725,2.274,5.57,3.227,8.546c0.391,2.289,0.707,5.095,0.856,8.582C297.144,213.218,297.072,215.591,296.887,218.032z
	 M259.955,252.266c-11.488-4.907-24.241-6.375-37.086-4.361c-2.149-4.28-5.267-8.271-8.977-11.662
	c1.761,0.111,3.698,0.173,5.824,0.173c5.901,0,13.056-0.525,20.781-2.233c4.592-1.018,8.891-2.295,12.947-3.793
	C256.773,237.1,258.974,244.476,259.955,252.266z M225.928,257.702c-0.197-1.629-0.578-3.253-1.081-4.871
	c11.316-1.582,22.506-0.218,32.634,4.015c-2.879,2.31-6.166,4.235-9.825,5.674c-6.859,2.687-14.049,3.8-21.039,3.465
	C226.918,263.006,226.646,260.209,225.928,257.702z M215.53,245.729c-0.503-0.152-1.018-0.275-1.516-0.332
	c-8.629-1.057-13.528,6.179-13.815,9.516c-0.021,0.224-0.001,0.468-0.009,0.692c-0.085,0.051-0.164,0.102-0.246,0.14
	c-6.964-5.82-12.405-13.975-16.086-24.082c2.326-0.37,4.721-0.531,7.173-0.43C200.246,231.581,209.775,237.771,215.53,245.729z
	 M204.949,320.809c0.594,0,1.189-0.006,1.788-0.021c1.533-0.03,3.054-0.146,4.561-0.292c-1.427,1.137-2.709,2.308-3.685,3.472
	c-1.225,1.441-2.189,2.713-2.991,3.838c-1.452-2.621-4.608-5.865-10.902-3.146c-4.303,1.86-6.6,5.782-7.706,10.316
	c-2.56-4.119-4.728-8.749-6.392-13.931c-0.609-1.88-1.064-3.794-1.44-5.698C185.977,318.916,194.974,320.803,204.949,320.809z
	 M121.562,411.09v-52.2c0.734,2.137,2.148,3.782,4.142,4.522c5.256,1.964,10.037-0.492,11.98-10.002
	c1.191-5.853,10.134-8.775,18.773-5.603C136.317,360.099,123.872,382.092,121.562,411.09z M121.562,425.125l0.033,0.287
	c-0.051,4.9,1.298,5.489,2.162,9.9c0.369,1.887,0.906,3.653,1.573,5.334c-1.752,3.704-2.954,7.164-3.769,10.068V425.125z
	 M121.562,590.913c0.848,3.642,1.976,7.241,3.488,10.805c3.586,8.457,6.479,14.859,0.653,26.474
	c-0.176,0.346-0.316,0.672-0.472,1.006c0.022-0.084,0.039-0.149,0.039-0.149s-2.036,2.188-3.709,6.19V590.913z M148.818,730.562
	c3.137-4.791,4.502-10.289,5.056-14.934c0.508-0.812,1.12-1.561,1.857-2.206c3.441-2.993,7.955,2.896,6.077,2.648
	c-0.07-0.016-0.109-0.007-0.176-0.021c-0.689-0.522-1.552-0.851-2.504-0.823c-2.144,0.062-3.352,2.244-3.26,3.588
	c0.173,2.495,2.561,3.967,4.626,3.945c5.588-0.062,8.164-7.605,3.01-12.017c-1.759-1.517-5.116-1.791-7.72-0.782
	c0.189-0.964,0.333-1.949,0.366-2.979c0.16-5.074-1.303-10.605-4.242-16.426c15.972,0.794,25.467,13.343,24.319,24.51
	c-1.298,12.587-11.66,16.783-11.66,16.783s11.981,4.209,20.406-6.453c6.392-8.086,2.917-16.796,2.917-16.796
	s2.718,0.229,6.031-0.403c5.486,4.421,11.26,7.645,17.18,9.615c-1.251,4.482-2.543,8.14-6.694,9.841
	c-7.126,2.91-11.986-3.229-11.986-3.229s-2.589,13.886,8.422,16.146c9.65,1.981,12.956-6.135,12.956-6.135s4.211,9.364,12.956,9.045
	c8.749-0.319,10.368-9.045,10.368-9.045s-12.314,6.135-15.873-9.357c-0.385-1.684-0.557-3.408-0.6-5.176
	c1.457,0.149,2.918,0.229,4.385,0.229c1.01,0,2.03-0.029,3.044-0.107c8.791-0.633,17.296-4.041,24.501-9.587
	c-0.372,0.845-0.647,1.758-0.673,2.788c-0.078,3.218,2.891,5.572,5.727,5.271c5.772-0.609,6.693-6.961,3.75-9.896
	c-1.252-1.235-3.833-1.141-5.167,0.531c-0.719,0.901-0.936,3.006,0.534,4.104c0.654,0.475,1.421,0.666,2.164,0.615
	c0.051,0.032,0.078,0.051,0.128,0.083c1.439,0.729-2.94,3.997-4.605-0.269c-0.788-2.015-0.157-3.928,0.831-5.45
	c1.993-1.765,3.897-3.672,5.616-5.782c3.621-4.45,6.036-9.352,7.349-14.372c5.209,1.997,10.119,5.328,14.092,11.125
	c-2.724,3.767-6.259,7.713-10.873,11.352c-12.651,9.99-29.149,22.61-32.067,34.233c-2.916,11.62,5.504,16.79,5.504,16.79
	s-12.632-3.238-20.403,8.077c-0.909,1.311-1.749,2.63-2.56,3.946c-0.009-1.624-0.163-3.319-0.57-4.814
	c-1.3-4.734-3.023-6.238-3.023-6.238s2.27,0.603,4.964-1.938c3.888-3.659,1.082-8.826,1.082-8.826s-1.734,4.996-7.992,4.733
	c-5.185-0.212-9.497-10.975-25.48-12.479c-2.782-0.263-5.163-0.057-7.224,0.46c-3.3-3.023-10.5-7.994-22.652-8.642
	c-6.698-0.358-12.648,0.283-17.418,1.17C145.443,735.138,147.234,732.988,148.818,730.562z M161.768,791.441
	c1.301,0.424,4.219,1.186,7.941,1.186c4.097,0,9.145-0.94,14.034-4.293c1.088-0.749,2.009-1.582,2.867-2.45
	c-0.306,1.4-0.33,2.943,0.297,4.504c1.197,3,4.852,3.997,7.346,2.609c5.064-2.821,3.411-9.026-0.454-10.561
	c-1.643-0.645-3.975,0.46-4.552,2.507c-0.303,1.107,0.339,3.141,2.119,3.556c0.787,0.193,1.568,0.065,2.236-0.275
	c0.052,0.016,0.088,0.021,0.147,0.033c1.606,0.107-1.125,4.829-4.338,1.556c-1.599-1.618-1.71-3.743-1.346-5.591
	c5.685-7.325,5.094-17.277,4.576-21.19c4.161-0.289,8.756-0.367,14.035,1.647c9.526,3.627,12.041,9.961,12.705,13.224
	c-4.791,8.385-8.974,16.784-18.858,26.276c-5.204,5.005-10.252,6.957-12.835,8.05c-5.522-1.904-9.358-3.887-13.399-6.427
	c-9.31-5.859-13.977-11.903-15.709-14.5C159.629,791.531,160.699,791.576,161.768,791.441z M216.074,794.82
	c2.29-2.367,4.43-4.441,6.462-6.277c0.646,5.695,3.854,15.065,12.643,17.578c6.601,1.887,11.904-2.31,12.998-6.14
	c2.222-7.803-5.584-12.312-10.945-10.023c-2.279,0.979-3.49,4.376-2.015,6.967c0.797,1.418,3.206,3.549,5.626,1.451
	c0.866-0.743,0.902-2.54,1.948-2.48c0.975,0.057,1.627,5.379-2.645,6.886c-9,3.179-14.19-10.092-15.941-15.688
	c12.521-10.728,20.812-11.495,32.677-9.062c14.251,2.901,24.296,10.334,24.296,10.334s-20.732,24.211-48.265,27.76
	c-18.154,2.349-32.479,0.469-43.68-3.305C194.252,811.398,204.1,807.19,216.074,794.82z M285.926,791.155
	c0,0,5.397,4.311,6.477,12.913c0.852,6.793-3.904,14.706-11.226,10.99C271.457,810.101,285.926,791.155,285.926,791.155z
	 M288.3,785.776c0,0,3.563-2.904,6.157-6.775c2.392-3.588,3.782-6.824,4.424-8.492c0.639,1.668,2.033,4.904,4.424,8.492
	c2.591,3.871,6.158,6.775,6.158,6.775s-2.266,1.938-5.508,5.82c-2.009,2.397-4.015,6.65-5.256,9.555l-0.039-0.52
	c0,0-1.618-5.166-4.854-9.035C290.568,787.714,288.3,785.776,288.3,785.776z M305.355,804.068c1.083-8.603,6.48-12.913,6.48-12.913
	s14.471,18.945,4.752,23.903C309.263,818.774,304.505,810.861,305.355,804.068z M316.588,788.364c0,0,10.038-7.433,24.288-10.334
	c11.867-2.433,20.156-1.665,32.682,9.062c-1.752,5.597-6.949,18.867-15.942,15.688c-4.263-1.507-3.618-6.829-2.65-6.886
	c1.053-0.06,1.089,1.737,1.955,2.48c2.423,2.098,4.829-0.033,5.623-1.451c1.475-2.591,0.269-5.987-2.009-6.967
	c-5.37-2.289-13.172,2.221-10.945,10.023c1.089,3.83,6.391,8.026,12.993,6.14c8.79-2.513,11.996-11.883,12.641-17.578
	c2.03,1.836,4.179,3.91,6.472,6.277c11.973,12.37,21.811,16.578,26.834,17.999c-11.199,3.773-25.523,5.653-43.681,3.305
	C337.317,812.575,316.588,788.364,316.588,788.364z M397.242,804.179c-9.892-9.492-14.07-17.892-18.867-26.276
	c0.669-3.263,3.185-9.597,12.71-13.224c5.277-2.015,9.874-1.937,14.035-1.647c-0.514,3.913-1.107,13.865,4.584,21.19
	c0.358,1.848,0.242,3.973-1.352,5.591c-3.215,3.273-5.949-1.448-4.34-1.556c0.054-0.012,0.092-0.018,0.146-0.033
	c0.669,0.341,1.454,0.469,2.239,0.275c1.785-0.415,2.421-2.448,2.113-3.556c-0.573-2.047-2.907-3.151-4.549-2.507
	c-3.869,1.534-5.52,7.739-0.457,10.561c2.495,1.388,6.152,0.391,7.349-2.609c0.63-1.561,0.604-3.104,0.299-4.504
	c0.851,0.868,1.782,1.701,2.868,2.45c4.884,3.353,9.934,4.293,14.029,4.293c3.716,0,6.642-0.762,7.939-1.186
	c1.069,0.135,2.144,0.09,3.186-0.14c-1.729,2.597-6.391,8.641-15.698,14.5c-4.044,2.54-7.841,4.601-13.36,6.505
	C407.531,811.226,402.445,809.184,397.242,804.179z M414.074,744.48c-2.06-0.517-4.444-0.723-7.229-0.46
	c-15.98,1.505-20.294,12.268-25.479,12.479c-6.263,0.263-7.988-4.733-7.988-4.733s-2.809,5.167,1.078,8.826
	c2.698,2.54,4.97,1.938,4.97,1.938s-1.731,1.504-3.026,6.238c-0.406,1.495-0.562,3.19-0.567,4.814
	c-0.812-1.316-1.654-2.636-2.564-3.946c-7.772-11.315-20.401-8.077-20.401-8.077s8.417-5.17,5.504-16.79
	c-2.913-11.623-19.414-24.243-32.063-34.233c-4.618-3.639-8.152-7.585-10.871-11.352c3.97-5.797,8.877-9.128,14.082-11.125
	c1.319,5.021,3.731,9.922,7.358,14.372c1.71,2.11,3.617,4.018,5.608,5.782c0.991,1.522,1.624,3.436,0.833,5.45
	c-1.669,4.266-6.038,0.997-4.6,0.269c0.042-0.032,0.071-0.051,0.125-0.083c0.746,0.051,1.508-0.141,2.161-0.615
	c1.475-1.099,1.26-3.203,0.537-4.104c-1.337-1.672-3.913-1.767-5.167-0.531c-2.948,2.935-2.023,9.286,3.746,9.896
	c2.842,0.301,5.806-2.054,5.726-5.271c-0.024-1.03-0.299-1.943-0.666-2.788c7.203,5.546,15.71,8.954,24.5,9.587
	c1.012,0.078,2.033,0.107,3.042,0.107c1.469,0,2.934-0.08,4.388-0.229c-0.045,1.768-0.215,3.492-0.603,5.176
	c-3.559,15.492-15.871,9.357-15.871,9.357s1.627,8.726,10.366,9.045c8.746,0.319,12.958-9.045,12.958-9.045
	s3.304,8.116,12.945,6.135c11.023-2.26,8.436-16.146,8.436-16.146s-4.862,6.14-11.99,3.229c-4.152-1.701-5.441-5.358-6.695-9.841
	c5.922-1.971,11.694-5.194,17.181-9.615c3.313,0.633,6.042,0.403,6.042,0.403s-3.486,8.71,2.907,16.796
	c8.42,10.662,20.404,6.453,20.404,6.453s-10.357-4.196-11.652-16.783c-1.149-11.167,8.346-23.716,24.314-24.51
	c-2.939,5.82-4.402,11.352-4.238,16.426c0.036,1.03,0.17,2.016,0.361,2.979c-2.604-1.009-5.961-0.734-7.713,0.782
	c-5.161,4.411-2.582,11.954,3.009,12.017c2.062,0.021,4.45-1.45,4.62-3.945c0.093-1.344-1.113-3.525-3.257-3.588
	c-0.948-0.027-1.814,0.301-2.507,0.823c-0.068,0.015-0.107,0.006-0.167,0.021c-1.881,0.247,2.627-5.642,6.071-2.648
	c0.734,0.646,1.349,1.395,1.856,2.206c0.556,4.645,1.922,10.143,5.057,14.934c1.582,2.427,3.373,4.576,5.199,6.447
	c-4.764-0.887-10.719-1.528-17.423-1.17C424.575,736.486,417.376,741.457,414.074,744.48z M472.531,629.197
	c-0.161-0.334-0.296-0.66-0.472-1.006c-5.839-11.614-2.943-18.017,0.647-26.474c1.675-3.939,2.893-7.925,3.755-11.969v46.149
	c-1.713-4.433-3.973-6.851-3.973-6.851S472.507,629.113,472.531,629.197z M472.43,440.646c0.665-1.681,1.202-3.447,1.569-5.334
	c0.863-4.411,2.212-6.298,2.158-11.199l0.305-2.093v29.673C475.645,448.599,474.382,444.781,472.43,440.646z M473.999,335.315
	c-5.733-9.039-16.494-21.369-9.067-33.261c6.603-10.561,8.391-9.779,11.53-17.897v56.391
	C475.88,338.787,475.086,337.022,473.999,335.315z M464.609,264.501c2.322-0.018,4.605-2.519,4.271-5.295
	c-0.179-1.495-1.955-3.639-4.328-3.262c-1.047,0.155-1.928,0.698-2.581,1.433c-0.063,0.021-0.117,0.027-0.186,0.051
	c-2.003,0.654-1.167-6.083,4.492-4.054c4.639,1.681,5.006,6.835,4.615,10.534c-0.392,2.346-1.036,4.63-2.072,6.716
	c-6.038,12.223-21.864,24.644-17.494,44.135c3.238,14.423,15.987,16.366,21.381,28.417c0.543,1.208,0.949,2.373,1.248,3.474
	c-4.129-6.519-12.829-12.396-26.516-9.498c-5.645,1.188-10.214,3.576-13.808,6.606c-5.498-2.469-11.444-4.322-17.82-5.492
	c2.943-4.618,5.391-9.827,7.266-15.632c1.096-3.417,1.833-6.865,2.244-10.336c1.003-0.633,1.961-1.313,2.917-2.009
	c3.698,5.737,8.649,9.516,10.134,14.372c2.271,7.426-0.646,11.316-0.646,11.316s9.713-6.468,9.068-14.214
	c-0.639-7.758-4.854-9.375-4.854-9.375s4.854-7.74,0.316-15.492c-0.254-0.442-0.507-0.845-0.755-1.215
	c3.131-5.283,5.319-11.169,6.486-17.366c1.238-4.791,2.525-12.85,1.722-24.372c-0.743-10.624,2.91-11.731,5.078-11.946
	c1.826-0.179,3.668,2.155,3.668,2.155s-0.862-7.74-9.394-6.677c-2.82,0.364-4.561,1.681-5.633,3.319
	c2.606-7.146,3.305-16.975,13.391-20.686c5.492,6.728,9.758,14.749,12.665,23.888c0.785,3.173,1.46,6.806,1.749,10.549
	c-0.382-1.102-0.946-2.116-1.767-2.967c-2.94-3.044-8.325-2.585-10.659,0.332C454.066,257.83,459.158,264.54,464.609,264.501z
	 M415.489,226.695c-2.896-0.493-5.886-0.744-8.961-0.627c-2.778,0.113-5.566,0.689-8.289,1.594c0.672-0.821,1.257-1.71,1.615-2.758
	c1.185-3.442-1.227-6.967-4.382-7.594c-6.399-1.284-10.221,5.098-7.367,9.367c1.104,1.663,3.737,2.525,5.737,1.182
	c1.087-0.729,2.021-2.922,0.803-4.594c-0.54-0.74-1.295-1.188-2.116-1.406c-0.042-0.027-0.065-0.078-0.107-0.107
	c-1.302-1.286,4.511-3.322,4.862,1.827c0.141,2.104-0.874,3.883-2.224,5.304c-0.794,0.352-1.579,0.728-2.358,1.131v-0.018
	c-0.158,0.036-15.715,3.269-34.314-0.845c-4.095-0.917-7.945-2.036-11.575-3.34c2.723-4.534,6.006-8.71,9.809-12.42
	c5.146-5.021,11.011-8.982,17.462-11.871c7.572,6.874,6.205,17.659,6.205,17.659s9.546-9.856,8.209-21.957
	c-0.009-0.039-0.027-0.083-0.027-0.134c4.675-0.857,9.546-1.263,14.591-1.164c4.193,0.095,8.229,0.459,12.115,1.065
	C417.937,206.508,418.193,216.773,415.489,226.695z M403.174,190.768c-5.612-0.122-11.026,0.35-16.214,1.35
	c-0.326-0.633-0.666-1.242-1.069-1.797c4.556-2.316,8.624-5.421,11.893-9.238c1.778-2.099,3.307-4.382,4.591-6.83
	c4.632,5.021,8.315,10.904,10.877,17.256C409.985,191.094,406.636,190.837,403.174,190.768z M370.781,148.577
	c0.46,1.582,0.711,2.827,0.851,3.851c-9.504-1.752-18.895-1.552-27.688,0.564c0.689-1.478,4.19-6.447,4.19-6.447
	C356.382,137.288,369.104,142.693,370.781,148.577z M316.803,146.852c3.886,6.083-0.164,17.223-3.559,24.414
	c-2.627,2.865-5.044,6.005-7.235,9.402c-1.283-6.262-1.463-12.155-1.301-17.378c0.259-8.405,2.232-16.085,5.51-22.834
	C312.633,141.944,314.993,144.004,316.803,146.852z M299.528,163.128c-0.209,6.626,0.099,14.931,2.788,23.93
	c-1.241,2.397-2.385,4.91-3.436,7.522c-1.051-2.612-2.19-5.125-3.436-7.522c2.689-9,2.994-17.304,2.788-23.93
	c-0.284-9.178-2.433-17.581-6.003-24.969c3.242-1.218,10.06-1.218,13.298,0C301.958,145.547,299.812,153.95,299.528,163.128z
	 M293.055,163.289c0.161,5.224-0.024,11.116-1.308,17.378c-2.185-3.397-4.609-6.537-7.229-9.402
	c-3.396-7.191-7.446-18.331-3.56-24.414c1.813-2.848,4.168-4.907,6.583-6.397C290.818,147.204,292.786,154.884,293.055,163.289z
	 M249.628,146.544c0,0,3.5,4.97,4.189,6.447c-8.795-2.116-18.187-2.316-27.682-0.564c0.136-1.024,0.385-2.269,0.84-3.851
	C228.655,142.693,241.378,137.288,249.628,146.544z M199.985,181.083c3.264,3.817,7.332,6.922,11.878,9.238
	c-0.391,0.555-0.738,1.164-1.062,1.797c-5.186-1-10.602-1.472-16.211-1.35c-3.465,0.069-6.817,0.326-10.083,0.741
	c2.567-6.352,6.245-12.235,10.881-17.256C196.667,176.7,198.197,178.984,199.985,181.083z M194.699,195.923
	c5.044-0.099,9.917,0.307,14.596,1.164c-0.004,0.051-0.024,0.095-0.027,0.134c-1.337,12.101,8.207,21.957,8.207,21.957
	s-1.369-10.785,6.208-17.659c6.443,2.889,12.312,6.85,17.455,11.871c3.806,3.71,7.087,7.886,9.814,12.42
	c-3.629,1.305-7.483,2.424-11.583,3.34c-18.598,4.113-34.147,0.88-34.307,0.845l-0.003,0.018c-0.778-0.403-1.562-0.779-2.355-1.131
	c-1.352-1.421-2.376-3.2-2.231-5.304c0.352-5.149,6.166-3.113,4.867-1.827c-0.044,0.03-0.071,0.081-0.112,0.107
	c-0.819,0.218-1.575,0.666-2.112,1.406c-1.221,1.671-0.281,3.865,0.803,4.594c1.994,1.343,4.627,0.48,5.736-1.182
	c2.852-4.269-0.961-10.65-7.368-9.367c-3.155,0.627-5.557,4.152-4.382,7.594c0.359,1.047,0.949,1.937,1.618,2.758
	c-2.725-0.904-5.507-1.48-8.291-1.594c-3.078-0.117-6.071,0.134-8.959,0.627c-2.704-9.922-2.444-20.187,0.315-29.706
	C186.465,196.383,190.506,196.019,194.699,195.923z M154.33,240.792c-1.069-1.639-2.809-2.955-5.633-3.319
	c-8.528-1.062-9.395,6.677-9.395,6.677s1.848-2.334,3.67-2.155c2.161,0.215,5.818,1.322,5.078,11.946
	c-0.806,11.521,0.48,19.581,1.724,24.372c1.161,6.197,3.352,12.083,6.483,17.366c-0.247,0.37-0.499,0.773-0.757,1.215
	c-4.533,7.752,0.324,15.492,0.324,15.492s-4.211,1.618-4.856,9.375c-0.65,7.746,9.068,14.214,9.068,14.214s-2.917-3.89-0.651-11.316
	c1.488-4.856,6.443-8.635,10.146-14.372c0.948,0.695,1.903,1.376,2.91,2.009c0.417,3.471,1.147,6.919,2.246,10.336
	c1.875,5.806,4.322,11.015,7.264,15.632c-6.378,1.17-12.328,3.023-17.817,5.492c-3.597-3.03-8.162-5.418-13.817-6.606
	c-13.685-2.898-22.392,2.979-26.509,9.498c0.3-1.101,0.705-2.266,1.245-3.474c5.396-12.05,18.139-13.994,21.379-28.417
	c4.375-19.491-11.453-31.912-17.492-44.135c-1.036-2.086-1.67-4.37-2.075-6.716c-0.39-3.698-0.021-8.853,4.616-10.534
	c5.663-2.03,6.498,4.708,4.492,4.054c-0.064-0.024-0.122-0.03-0.189-0.051c-0.646-0.734-1.522-1.277-2.574-1.433
	c-2.376-0.376-4.154,1.767-4.33,3.262c-0.336,2.776,1.951,5.277,4.271,5.295c5.452,0.039,10.543-6.671,5.798-12.593
	c-2.337-2.917-7.717-3.376-10.653-0.332c-0.83,0.851-1.392,1.866-1.776,2.967c0.285-3.743,0.961-7.376,1.758-10.549
	c2.904-9.14,7.169-17.16,12.667-23.888C151.023,223.817,151.721,233.646,154.33,240.792z M132.828,302.055
	c7.423,11.892-3.345,24.222-9.07,33.261c-0.928,1.472-1.642,2.973-2.195,4.477v-54.97
	C124.554,292.237,126.417,291.795,132.828,302.055z M121.562,657.474c3.427,9.038,10.238,14.954,14.289,21.076
	c-4.219,6.645-9.351,13.7-11.659,20.037c-0.988,2.692-1.645,5.048-2.091,7.081c-0.193,0.525-0.366,1.128-0.539,1.761V657.474z
	 M129.368,699.88l-0.04-0.122c2.356-2.692,5.377-5.18,9.185-6.896c-2.024,10.106-8.523,20.7-4.391,26.604
	c3.205,4.579,8.51,4.88,13.116,2.396c-0.661,2.021-1.548,4.024-2.761,5.887c-4.026,6.151-9.746,10.45-13.154,12.662
	c-2.586-4.322-5.261-8.269-6.701-11.25C117.179,713.766,129.368,699.88,129.368,699.88z M144.436,803.665
	c-0.332-2.973-1.33-6.722-0.597-9.274c1.294-4.521,5.97-7.405,12.525-3.883c0.052,0.032,0.106,0.051,0.161,0.077
	c2,3.415,8.437,13.298,20.262,22.092c-1.917-0.538-4.049-0.672-6.269,0.032c-2.055,0.654-3.515,2.149-4.31,3.901
	c-1.999,0.48-8.71,1.708-16.45-0.588c-2.294-0.684-4.452-1.669-6.486-2.955C144.578,810.017,144.785,806.722,144.436,803.665z
	 M269.19,818.07c0,0,3.342,6.19,9.83,8.321h-33.539C262.065,823.532,269.19,818.07,269.19,818.07z M299.057,817.398l0.042,0.353
	c0,0,1.81,6.459,9.692,8.641h-20.169C294.744,824.602,297.821,819.894,299.057,817.398z M328.572,818.07
	c0,0,7.128,5.462,23.709,8.321h-33.539C325.231,824.261,328.572,818.07,328.572,818.07z M427.238,812.709
	c-2.218-0.704-4.347-0.57-6.266-0.032c11.829-8.794,18.259-18.677,20.262-22.092c0.051-0.026,0.11-0.045,0.17-0.077
	c6.543-3.522,11.217-0.639,12.519,3.883c0.731,2.553-0.266,6.302-0.603,9.274c-0.347,3.057-0.138,6.352,1.17,9.402
	c-2.03,1.286-4.197,2.271-6.492,2.955c-7.734,2.296-14.444,1.068-16.45,0.588C430.754,814.858,429.307,813.363,427.238,812.709z
	 M466.441,740.412c-3.417-2.212-9.122-6.511-13.151-12.662c-1.215-1.862-2.102-3.865-2.764-5.887
	c4.6,2.483,9.919,2.183,13.112-2.396c4.131-5.904-2.364-16.498-4.388-26.604c3.809,1.716,6.829,4.203,9.179,6.896l-0.033,0.122
	c0,0,12.19,13.886,4.746,29.282C471.698,732.144,469.021,736.09,466.441,740.412z M473.575,698.587
	c-2.319-6.337-7.444-13.393-11.668-20.037c4.155-6.28,11.235-12.346,14.555-21.805v51.743c-0.242-1.06-0.504-2.015-0.809-2.82
	C475.214,703.635,474.552,701.279,473.575,698.587z M229.11,100.773c9.271-3.173,19.784-6.749,32.759-12.96
	c18.635-8.904,30.4-25.834,37.14-38.986c6.745,13.151,18.515,30.082,37.141,38.986c12.979,6.211,23.491,9.788,32.763,12.96
	c14.098,4.821,25.145,8.597,39.024,19.5c-1.122-0.767-2.562-1.221-4.277-1.107c-2.964,0.188-5.591,3.104-4.946,6.378
	c0.174,0.875,0.567,1.785,1.104,2.699c-0.34-0.308-0.701-0.621-1.038-0.919c-7.923-10.919-20.954-18.366-36.223-19.895
	c-0.707-1.821-1.781-3.645-3.436-5.352c-12.059-12.551-31.091-5.176-31.091-5.176s16.436-1.298,21.488,10.662
	c-6.468,0.71-12.521,2.373-18.031,4.931c1.116-1.143,2.065-2.418,2.507-3.779c0.971-2.955-1.116-5.928-3.814-6.436
	c-5.48-1.03-8.668,4.465-6.185,8.086c0.961,1.394,3.218,2.104,4.913,0.929c0.913-0.627,1.684-2.517,0.63-3.922
	c-0.466-0.621-1.119-0.997-1.824-1.176c-0.029-0.027-0.054-0.065-0.095-0.089c-1.123-1.081,3.82-2.886,4.173,1.496
	c0.199,2.379-1.621,4.734-3.547,6.537c-6.163,3.379-11.545,7.848-15.933,13.274c-6.621-7.185-11.83-13.363-10.627-22.978
	c1.296-10.328,10.689-12.587,14.578-8.71c3.887,3.868,2.699,9.363,2.699,9.363s8.324-10.853,2.591-18.945
	c-5.183-7.325-14.684-2.591-14.684-2.591s4.534-3.66,4.753-8.609c0.205-4.812-3.024-6.889-6.916-9.901
	c-2.881-2.232-4.803-5.399-5.609-6.91c0,0-3.167,4.678-6.044,6.91c-3.893,3.012-7.122,5.089-6.913,9.901
	c0.215,4.949,4.749,8.609,4.749,8.609s-9.502-4.734-14.683,2.591c-5.732,8.092,2.592,18.945,2.592,18.945s-1.188-5.495,2.697-9.363
	c3.892-3.877,13.282-1.618,14.575,8.71c1.206,9.614-3.997,15.793-10.626,22.978c-4.383-5.426-9.772-9.895-15.929-13.274
	c-1.927-1.803-3.752-4.158-3.554-6.537c0.358-4.382,5.297-2.576,4.174-1.496c-0.039,0.024-0.058,0.062-0.091,0.089
	c-0.709,0.179-1.358,0.555-1.827,1.176c-1.054,1.406-0.281,3.295,0.634,3.922c1.695,1.176,3.947,0.465,4.913-0.929
	c2.482-3.621-0.706-9.116-6.182-8.086c-2.706,0.507-4.792,3.48-3.825,6.436c0.448,1.361,1.391,2.636,2.512,3.779
	c-5.51-2.558-11.566-4.221-18.03-4.931c5.049-11.96,21.488-10.662,21.488-10.662s-19.035-7.375-31.094,5.176
	c-1.655,1.708-2.731,3.531-3.437,5.352c-15.267,1.528-28.298,8.976-36.216,19.895c-0.341,0.298-0.692,0.612-1.042,0.919
	c0.536-0.914,0.939-1.824,1.104-2.699c0.647-3.274-1.983-6.19-4.941-6.378c-1.27-0.075-2.379,0.149-3.33,0.582
	C204.325,109.253,215.25,105.504,229.11,100.773z M148.673,193.186l1.185-6.316c0.069-0.349,6.777-34.959,27.53-55.313
	c3.921-3.856,7.577-7.125,11.043-9.952c-1.551,2.065-1.672,4.994,0.128,7.023c1.208,1.382,3.722,1.836,5.374,0.358
	c0.898-0.8,1.479-2.925,0.161-4.28c-0.579-0.606-1.328-0.935-2.103-1.018c-0.042-0.03-0.072-0.062-0.118-0.102
	c-1.342-0.991,3.708-3.582,4.666,1.075c0.51,2.451-1.396,5.483-3.537,8.008c-6.907,6.236-14.772,13.549-20.981,19.88
	c-14.254,14.539-11.986,13.566-11.986,13.566s10.69-10.976,24.292-13.566c2.709-0.511,4.794-0.812,6.475-1.003
	c-0.282,6.343,0.537,12.235,2.388,17.536c-6.528,6.543-11.495,14.584-14.556,23.36c-0.982,0.179-1.954,0.397-2.921,0.627
	c1.858-2.033,2.907-4.516,3.75-7.907c2.258-8.973-8.097-15.178-8.097-15.178s3.312,2.284,1.625,7.761
	c-1.3,4.188-11.016,3.549-15.55,9.364c-4.173,5.352-0.562,10.125,1.307,12.023c-6.567,3.308-12.423,7.549-17.493,12.653
	c-4.889,0.57-8.73,0.973-11.275-1.818c-5.192-5.704,1.34-9.746,1.861-7.176c0.016,0.083,0.037,0.14,0.058,0.218
	c-0.393,1.158-0.419,2.436,0.049,3.651c1.067,2.791,4.187,4.173,6.973,3.11c2.785-1.068,4.171-4.176,3.104-6.952
	c-0.197-0.52-0.478-0.961-0.8-1.37c-3.06-6.012-14.181-5.501-17.165,1.555c-1.809,4.259-0.309,8.307,2.891,11.116
	c1.928,1.695,5.047,2.994,8.62,4.197c-6.467,8.423-11.199,18.62-14.011,30.312v-55.436L148.673,193.186z M121.562,788.129
	c0.44,2.143,1,4.214,1.709,6.101c1.493,3.922,3.249,7.427,5.215,10.575c-5.337,1.439-7.667,8.946-2.339,13.938
	c2.918,2.725,9.611,3.605,14.295-1.377c2.455,1.579,5.07,2.788,7.84,3.604c4.012,1.193,7.77,1.579,10.923,1.579
	c2.795,0,5.099-0.302,6.703-0.589c0.079,0.236,0.138,0.479,0.245,0.717c0.81,1.72,1.925,2.916,3.176,3.716h-47.766V788.129z
	 M428.432,826.392c1.254-0.8,2.37-1.996,3.176-3.716c0.104-0.238,0.158-0.48,0.248-0.717c1.6,0.287,3.904,0.589,6.692,0.589
	c3.167,0,6.916-0.386,10.934-1.579c2.764-0.815,5.379-2.024,7.838-3.604c4.687,4.982,11.379,4.102,14.295,1.377
	c5.325-4.991,2.994-12.498-2.343-13.938c1.97-3.148,3.731-6.653,5.212-10.575c0.868-2.295,1.507-4.88,1.979-7.501v39.663H428.432z"
	/>
</svg>
