  0
SECTION
  2
HEADER
  9
$ACADVER
  1
AC1018
  9
$ACADMAINTVER
 70
     0
  9
$DWGCODEPAGE
  3
ANSI_932
  9
$INSBASE
 10
0.0
 20
0.0
 30
0.0
  9
$EXTMIN
 10
1.000000000000000E+20
 20
1.000000000000000E+20
 30
1.000000000000000E+20
  9
$EXTMAX
 10
-1.000000000000000E+20
 20
-1.000000000000000E+20
 30
-1.000000000000000E+20
  9
$LIMMIN
 10
0.0
 20
0.0
  9
$LIMMAX
 10
12.0
 20
9.0
  9
$ORTHOMODE
 70
     0
  9
$REGENMODE
 70
     1
  9
$FILLMODE
 70
     1
  9
$QTEXTMODE
 70
     0
  9
$MIRRTEXT
 70
     1
  9
$LTSCALE
 40
1.0
  9
$ATTMODE
 70
     1
  9
$TEXTSIZE
 40
0.2
  9
$TRACEWID
 40
0.05
  9
$TEXTSTYLE
  7
Standard
  9
$CLAYER
  8
0
  9
$CELTYPE
  6
ByLayer
  9
$CECOLOR
 62
   256
  9
$CELTSCALE
 40
1.0
  9
$DISPSILH
 70
     0
  9
$DIMSCALE
 40
1.0
  9
$DIMASZ
 40
0.18
  9
$DIMEXO
 40
0.0625
  9
$DIMDLI
 40
0.38
  9
$DIMRND
 40
0.0
  9
$DIMDLE
 40
0.0
  9
$DIMEXE
 40
0.18
  9
$DIMTP
 40
0.0
  9
$DIMTM
 40
0.0
  9
$DIMTXT
 40
0.18
  9
$DIMCEN
 40
0.09
  9
$DIMTSZ
 40
0.0
  9
$DIMTOL
 70
     0
  9
$DIMLIM
 70
     0
  9
$DIMTIH
 70
     1
  9
$DIMTOH
 70
     1
  9
$DIMSE1
 70
     0
  9
$DIMSE2
 70
     0
  9
$DIMTAD
 70
     0
  9
$DIMZIN
 70
     0
  9
$DIMBLK
  1

  9
$DIMASO
 70
     1
  9
$DIMSHO
 70
     1
  9
$DIMPOST
  1

  9
$DIMAPOST
  1

  9
$DIMALT
 70
     0
  9
$DIMALTD
 70
     2
  9
$DIMALTF
 40
25.4
  9
$DIMLFAC
 40
1.0
  9
$DIMTOFL
 70
     0
  9
$DIMTVP
 40
0.0
  9
$DIMTIX
 70
     0
  9
$DIMSOXD
 70
     0
  9
$DIMSAH
 70
     0
  9
$DIMBLK1
  1

  9
$DIMBLK2
  1

  9
$DIMSTYLE
  2
Standard
  9
$DIMCLRD
 70
     0
  9
$DIMCLRE
 70
     0
  9
$DIMCLRT
 70
     0
  9
$DIMTFAC
 40
1.0
  9
$DIMGAP
 40
0.09
  9
$DIMJUST
 70
     0
  9
$DIMSD1
 70
     0
  9
$DIMSD2
 70
     0
  9
$DIMTOLJ
 70
     1
  9
$DIMTZIN
 70
     0
  9
$DIMALTZ
 70
     0
  9
$DIMALTTZ
 70
     0
  9
$DIMUPT
 70
     0
  9
$DIMDEC
 70
     4
  9
$DIMTDEC
 70
     4
  9
$DIMALTU
 70
     2
  9
$DIMALTTD
 70
     2
  9
$DIMTXSTY
  7
Standard
  9
$DIMAUNIT
 70
     0
  9
$DIMADEC
 70
     0
  9
$DIMALTRND
 40
0.0
  9
$DIMAZIN
 70
     0
  9
$DIMDSEP
 70
    46
  9
$DIMATFIT
 70
     3
  9
$DIMFRAC
 70
     0
  9
$DIMLDRBLK
  1

  9
$DIMLUNIT
 70
     2
  9
$DIMLWD
 70
    -2
  9
$DIMLWE
 70
    -2
  9
$DIMTMOVE
 70
     0
  9
$LUNITS
 70
     2
  9
$LUPREC
 70
     4
  9
$SKETCHINC
 40
0.1
  9
$FILLETRAD
 40
0.5
  9
$AUNITS
 70
     0
  9
$AUPREC
 70
     0
  9
$MENU
  1
.
  9
$ELEVATION
 40
0.0
  9
$PELEVATION
 40
0.0
  9
$THICKNESS
 40
0.0
  9
$LIMCHECK
 70
     0
  9
$CHAMFERA
 40
0.5
  9
$CHAMFERB
 40
0.5
  9
$CHAMFERC
 40
1.0
  9
$CHAMFERD
 40
0.0
  9
$SKPOLY
 70
     0
  9
$TDCREATE
 40
2460559.694293981
  9
$TDUCREATE
 40
2460559.610960648
  9
$TDUPDATE
 40
2460559.694293993
  9
$TDUUPDATE
 40
2460559.61096066
  9
$TDINDWG
 40
0.0000000116
  9
$TDUSRTIMER
 40
0.0000000116
  9
$USRTIMER
 70
     1
  9
$ANGBASE
 50
0.0
  9
$ANGDIR
 70
     0
  9
$PDMODE
 70
     0
  9
$PDSIZE
 40
0.0
  9
$PLINEWID
 40
0.0
  9
$SPLFRAME
 70
     0
  9
$SPLINETYPE
 70
     6
  9
$SPLINESEGS
 70
     8
  9
$HANDSEED
  5
86
  9
$SURFTAB1
 70
     6
  9
$SURFTAB2
 70
     6
  9
$SURFTYPE
 70
     6
  9
$SURFU
 70
     6
  9
$SURFV
 70
     6
  9
$UCSBASE
  2

  9
$UCSNAME
  2

  9
$UCSORG
 10
0.0
 20
0.0
 30
0.0
  9
$UCSXDIR
 10
1.0
 20
0.0
 30
0.0
  9
$UCSYDIR
 10
0.0
 20
1.0
 30
0.0
  9
$UCSORTHOREF
  2

  9
$UCSORTHOVIEW
 70
     0
  9
$UCSORGTOP
 10
0.0
 20
0.0
 30
0.0
  9
$UCSORGBOTTOM
 10
0.0
 20
0.0
 30
0.0
  9
$UCSORGLEFT
 10
0.0
 20
0.0
 30
0.0
  9
$UCSORGRIGHT
 10
0.0
 20
0.0
 30
0.0
  9
$UCSORGFRONT
 10
0.0
 20
0.0
 30
0.0
  9
$UCSORGBACK
 10
0.0
 20
0.0
 30
0.0
  9
$PUCSBASE
  2

  9
$PUCSNAME
  2

  9
$PUCSORG
 10
0.0
 20
0.0
 30
0.0
  9
$PUCSXDIR
 10
1.0
 20
0.0
 30
0.0
  9
$PUCSYDIR
 10
0.0
 20
1.0
 30
0.0
  9
$PUCSORTHOREF
  2

  9
$PUCSORTHOVIEW
 70
     0
  9
$PUCSORGTOP
 10
0.0
 20
0.0
 30
0.0
  9
$PUCSORGBOTTOM
 10
0.0
 20
0.0
 30
0.0
  9
$PUCSORGLEFT
 10
0.0
 20
0.0
 30
0.0
  9
$PUCSORGRIGHT
 10
0.0
 20
0.0
 30
0.0
  9
$PUCSORGFRONT
 10
0.0
 20
0.0
 30
0.0
  9
$PUCSORGBACK
 10
0.0
 20
0.0
 30
0.0
  9
$USERI1
 70
     0
  9
$USERI2
 70
     0
  9
$USERI3
 70
     0
  9
$USERI4
 70
     0
  9
$USERI5
 70
     0
  9
$USERR1
 40
0.0
  9
$USERR2
 40
0.0
  9
$USERR3
 40
0.0
  9
$USERR4
 40
0.0
  9
$USERR5
 40
0.0
  9
$WORLDVIEW
 70
     1
  9
$SHADEDGE
 70
     3
  9
$SHADEDIF
 70
    70
  9
$TILEMODE
 70
     1
  9
$MAXACTVP
 70
    64
  9
$PINSBASE
 10
0.0
 20
0.0
 30
0.0
  9
$PLIMCHECK
 70
     0
  9
$PEXTMIN
 10
1.000000000000000E+20
 20
1.000000000000000E+20
 30
1.000000000000000E+20
  9
$PEXTMAX
 10
-1.000000000000000E+20
 20
-1.000000000000000E+20
 30
-1.000000000000000E+20
  9
$PLIMMIN
 10
0.0
 20
0.0
  9
$PLIMMAX
 10
12.0
 20
9.0
  9
$UNITMODE
 70
     0
  9
$VISRETAIN
 70
     1
  9
$PLINEGEN
 70
     0
  9
$PSLTSCALE
 70
     1
  9
$TREEDEPTH
 70
  3020
  9
$CMLSTYLE
  2
Standard
  9
$CMLJUST
 70
     0
  9
$CMLSCALE
 40
1.0
  9
$PROXYGRAPHICS
 70
     1
  9
$MEASUREMENT
 70
     0
  9
$CELWEIGHT
370
    -1
  9
$ENDCAPS
280
     0
  9
$JOINSTYLE
280
     0
  9
$LWDISPLAY
290
     1
  9
$INSUNITS
 70
     1
  9
$HYPERLINKBASE
  1

  9
$STYLESHEET
  1

  9
$XEDIT
290
     1
  9
$CEPSNTYPE
380
     0
  9
$PSTYLEMODE
290
     1
  9
$FINGERPRINTGUID
  2
{6A512382-8E53-8E06-8489-04D6AB107E85}
  9
$VERSIONGUID
  2
{FAEB1C32-E019-11D5-929B-00C0DF256EC4}
  9
$EXTNAMES
290
     1
  9
$PSVPSCALE
 40
0.0
  9
$OLESTARTUP
290
     0
  9
$SORTENTS
280
   127
  9
$INDEXCTL
280
     0
  9
$HIDETEXT
280
     1
  9
$XCLIPFRAME
290
     0
  9
$HALOGAP
280
     0
  9
$OBSCOLOR
 70
   257
  9
$OBSLTYPE
280
     0
  9
$INTERSECTIONDISPLAY
280
     0
  9
$INTERSECTIONCOLOR
 70
   257
  9
$DIMASSOC
280
     2
  9
$PROJECTNAME
  1

  0
ENDSEC
  0
SECTION
  2
CLASSES
  0
CLASS
  1
ACDBDICTIONARYWDFLT
  2
AcDbDictionaryWithDefault
  3
ObjectDBX Classes
 90
        0
 91
        3
280
     0
281
     0
  0
CLASS
  1
VISUALSTYLE
  2
AcDbVisualStyle
  3
ObjectDBX Classes
 90
     4095
 91
        3
280
     0
281
     0
  0
ENDSEC
  0
SECTION
  2
TABLES
  0
TABLE
  2
VPORT
  5
8
330
0
100
AcDbSymbolTable
 70
     1
  0
VPORT
  5
29
330
8
100
AcDbSymbolTableRecord
100
AcDbViewportTableRecord
  2
*Active
 70
     0
 10
0.0
 20
0.0
 11
1.0
 21
1.0
 12
0.0
 22
0.0
 13
0.0
 23
0.0
 14
0.5
 24
0.5
 15
0.5
 25
0.5
 16
0.0
 26
0.0
 36
1.0
 17
4.133890787760416
 27
-5.846455891927083
 37
0.0
 40
11.69291178385417
 41
0.7070763662937378
 42
50.0
 43
0.0
 44
0.0
 50
0.0
 51
0.0
 71
     0
 72
   100
 73
     1
 74
     3
 75
     0
 76
     0
 77
     0
 78
     0
281
     0
 65
     1
110
0.0
120
0.0
130
0.0
111
1.0
121
0.0
131
0.0
112
0.0
122
1.0
132
0.0
 79
     0
146
0.0
  0
ENDTAB
  0
TABLE
  2
LTYPE
  5
5
330
0
100
AcDbSymbolTable
 70
     1
  0
LTYPE
  5
14
330
5
100
AcDbSymbolTableRecord
100
AcDbLinetypeTableRecord
  2
ByBlock
 70
     0
  3

 72
    65
 73
     0
 40
0.0
  0
LTYPE
  5
15
330
5
100
AcDbSymbolTableRecord
100
AcDbLinetypeTableRecord
  2
ByLayer
 70
     0
  3

 72
    65
 73
     0
 40
0.0
  0
LTYPE
  5
16
330
5
100
AcDbSymbolTableRecord
100
AcDbLinetypeTableRecord
  2
Continuous
 70
     0
  3
Solid line
 72
    65
 73
     0
 40
0.0
  0
ENDTAB
  0
TABLE
  2
LAYER
  5
2
330
0
100
AcDbSymbolTable
 70
     2
  0
LAYER
  5
10
330
2
100
AcDbSymbolTableRecord
100
AcDbLayerTableRecord
  2
0
 70
     0
 62
     7
  6
Continuous
370
    -3
390
F
  0
LAYER
  5
3B
330
2
100
AcDbSymbolTableRecord
100
AcDbLayerTableRecord
  2
Layer 1
 70
     0
 62
     7
  6
Continuous
370
    -3
390
F
  0
ENDTAB
  0
TABLE
  2
STYLE
  5
3
330
0
100
AcDbSymbolTable
 70
     1
  0
STYLE
  5
11
330
3
100
AcDbSymbolTableRecord
100
AcDbTextStyleTableRecord
  2
Standard
 70
     0
 40
0.0
 41
1.0
 50
0.0
 71
     0
 42
0.2
  3
txt
  4

  0
ENDTAB
  0
TABLE
  2
VIEW
  5
6
330
0
100
AcDbSymbolTable
 70
     0
  0
ENDTAB
  0
TABLE
  2
UCS
  5
7
330
0
100
AcDbSymbolTable
 70
     0
  0
ENDTAB
  0
TABLE
  2
APPID
  5
9
330
0
100
AcDbSymbolTable
 70
     1
  0
APPID
  5
12
330
9
100
AcDbSymbolTableRecord
100
AcDbRegAppTableRecord
  2
ACAD
 70
     0
  0
ENDTAB
  0
TABLE
  2
DIMSTYLE
  5
A
330
0
100
AcDbSymbolTable
 70
     1
100
AcDbDimStyleTable
  0
DIMSTYLE
105
27
330
A
100
AcDbSymbolTableRecord
100
AcDbDimStyleTableRecord
  2
Standard
 70
     0
340
11
  0
ENDTAB
  0
TABLE
  2
BLOCK_RECORD
  5
1
330
0
100
AcDbSymbolTable
 70
     1
  0
BLOCK_RECORD
  5
1F
330
1
100
AcDbSymbolTableRecord
100
AcDbBlockTableRecord
  2
*Model_Space
340
22
  0
BLOCK_RECORD
  5
1B
330
1
100
AcDbSymbolTableRecord
100
AcDbBlockTableRecord
  2
*Paper_Space
340
1E
  0
BLOCK_RECORD
  5
23
330
1
100
AcDbSymbolTableRecord
100
AcDbBlockTableRecord
  2
*Paper_Space0
340
26
  0
ENDTAB
  0
ENDSEC
  0
SECTION
  2
BLOCKS
  0
BLOCK
  5
20
330
1F
100
AcDbEntity
  8
0
100
AcDbBlockBegin
  2
*Model_Space
 70
     0
 71
     0
 10
0.0
 20
0.0
 30
0.0
  3
*Model_Space
  1

  0
ENDBLK
  5
21
330
1F
100
AcDbEntity
  8
0
100
AcDbBlockEnd
  0
BLOCK
  5
1C
330
1B
100
AcDbEntity
 67
     1
  8
0
100
AcDbBlockBegin
  2
*Paper_Space
 70
     0
 71
     0
 10
0.0
 20
0.0
 30
0.0
  3
*Paper_Space
  1

  0
ENDBLK
  5
1D
330
1B
100
AcDbEntity
 67
     1
  8
0
100
AcDbBlockEnd
  0
BLOCK
  5
24
330
23
100
AcDbEntity
  8
0
100
AcDbBlockBegin
  2
*Paper_Space0
 70
     0
 71
     0
 10
0.0
 20
0.0
 30
0.0
  3
*Paper_Space0
  1

  0
ENDBLK
  5
25
330
23
100
AcDbEntity
  8
0
100
AcDbBlockEnd
  0
ENDSEC
  0
SECTION
  2
ENTITIES
  0
SPLINE
  5
3C
330
1F
100
AcDbEntity
  8
Layer 1
370
     0
100
AcDbSpline
210
0.0
220
0.0
230
1.0
 70
    11
 71
     3
 72
   200
 73
   196
 74
     0
 42
0.0000000001
 43
0.0000000001
 40
0.0
 40
0.0
 40
0.0
 40
0.0
 40
1.0
 40
1.0
 40
1.0
 40
2.0
 40
2.0
 40
2.0
 40
3.0
 40
3.0
 40
3.0
 40
4.0
 40
4.0
 40
4.0
 40
5.0
 40
5.0
 40
5.0
 40
6.0
 40
6.0
 40
6.0
 40
7.0
 40
7.0
 40
7.0
 40
8.0
 40
8.0
 40
8.0
 40
9.0
 40
9.0
 40
9.0
 40
10.0
 40
10.0
 40
10.0
 40
11.0
 40
11.0
 40
11.0
 40
12.0
 40
12.0
 40
12.0
 40
13.0
 40
13.0
 40
13.0
 40
14.0
 40
14.0
 40
14.0
 40
15.0
 40
15.0
 40
15.0
 40
16.0
 40
16.0
 40
16.0
 40
17.0
 40
17.0
 40
17.0
 40
18.0
 40
18.0
 40
18.0
 40
19.0
 40
19.0
 40
19.0
 40
20.0
 40
20.0
 40
20.0
 40
21.0
 40
21.0
 40
21.0
 40
22.0
 40
22.0
 40
22.0
 40
23.0
 40
23.0
 40
23.0
 40
24.0
 40
24.0
 40
24.0
 40
25.0
 40
25.0
 40
25.0
 40
26.0
 40
26.0
 40
26.0
 40
27.0
 40
27.0
 40
27.0
 40
28.0
 40
28.0
 40
28.0
 40
29.0
 40
29.0
 40
29.0
 40
30.0
 40
30.0
 40
30.0
 40
31.0
 40
31.0
 40
31.0
 40
32.0
 40
32.0
 40
32.0
 40
33.0
 40
33.0
 40
33.0
 40
34.0
 40
34.0
 40
34.0
 40
35.0
 40
35.0
 40
35.0
 40
36.0
 40
36.0
 40
36.0
 40
37.0
 40
37.0
 40
37.0
 40
38.0
 40
38.0
 40
38.0
 40
39.0
 40
39.0
 40
39.0
 40
40.0
 40
40.0
 40
40.0
 40
41.0
 40
41.0
 40
41.0
 40
42.0
 40
42.0
 40
42.0
 40
43.0
 40
43.0
 40
43.0
 40
44.0
 40
44.0
 40
44.0
 40
45.0
 40
45.0
 40
45.0
 40
46.0
 40
46.0
 40
46.0
 40
47.0
 40
47.0
 40
47.0
 40
48.0
 40
48.0
 40
48.0
 40
49.0
 40
49.0
 40
49.0
 40
50.0
 40
50.0
 40
50.0
 40
51.0
 40
51.0
 40
51.0
 40
52.0
 40
52.0
 40
52.0
 40
53.0
 40
53.0
 40
53.0
 40
54.0
 40
54.0
 40
54.0
 40
55.0
 40
55.0
 40
55.0
 40
56.0
 40
56.0
 40
56.0
 40
57.0
 40
57.0
 40
57.0
 40
58.0
 40
58.0
 40
58.0
 40
59.0
 40
59.0
 40
59.0
 40
60.0
 40
60.0
 40
60.0
 40
61.0
 40
61.0
 40
61.0
 40
62.0
 40
62.0
 40
62.0
 40
63.0
 40
63.0
 40
63.0
 40
64.0
 40
64.0
 40
64.0
 40
65.0
 40
65.0
 40
65.0
 40
65.0
 10
6.088229709201388
 20
-4.749504937065972
 30
0.0
 10
6.144721137152778
 20
-4.689988878038194
 30
0.0
 10
6.206759982638888
 20
-4.568915473090278
 30
0.0
 10
6.1458740234375
 20
-4.411064995659722
 30
0.0
 10
6.118448893229166
 20
-4.340101453993055
 30
0.0
 10
6.057440863715278
 20
-4.299913194444445
 30
0.0
 10
6.009060329861111
 20
-4.28131103515625
 30
0.0
 10
6.009060329861111
 20
-4.28131103515625
 30
0.0
 10
5.628228081597222
 20
-3.357672797309028
 30
0.0
 10
5.628228081597222
 20
-3.357672797309028
 30
0.0
 10
5.663235134548611
 20
-3.31439208984375
 30
0.0
 10
5.702690972222222
 20
-3.2315673828125
 30
0.0
 10
5.683932834201388
 20
-3.090922037760417
 30
0.0
 10
5.664605034722222
 20
-2.946723090277778
 30
0.0
 10
5.602254231770833
 20
-2.876973470052083
 30
0.0
 10
5.556545681423611
 20
-2.844733344184028
 30
0.0
 10
5.560750325520833
 20
-2.756551106770833
 30
0.0
 10
5.561414930555555
 20
-2.554850260416667
 30
0.0
 10
5.499118381076388
 20
-2.409254286024305
 30
0.0
 10
5.384141710069444
 20
-2.140896267361111
 30
0.0
 10
5.107272677951388
 20
-1.959011501736111
 30
0.0
 10
5.096937391493055
 20
-1.952100965711805
 30
0.0
 10
5.096937391493055
 20
-1.952100965711805
 30
0.0
 10
4.647420247395833
 20
-1.644198947482639
 30
0.0
 10
4.647420247395833
 20
-1.644198947482639
 30
0.0
 10
4.647420247395833
 20
-1.644198947482639
 30
0.0
 10
4.647420247395833
 20
-0.9387410481770833
 30
0.0
 10
4.647420247395833
 20
-0.9387410481770833
 30
0.0
 10
4.647420247395833
 20
-0.9387410481770833
 30
0.0
 10
4.634847005208333
 20
-0.9213663736979166
 30
0.0
 10
4.634847005208333
 20
-0.9213663736979166
 30
0.0
 10
4.6298828125
 20
-0.914944118923611
 30
0.0
 10
4.586290147569444
 20
-0.8566419813368055
 30
0.0
 10
4.5054931640625
 20
-0.8135308159722222
 30
0.0
 10
4.486328125
 20
-0.8032158745659722
 30
0.0
 10
4.457424587673611
 20
-0.7954237196180555
 30
0.0
 10
4.424045138888888
 20
-0.7895711263020833
 30
0.0
 10
4.424045138888888
 20
-0.7895711263020833
 30
0.0
 10
4.424045138888888
 20
-0.7773912217881944
 30
0.0
 10
4.424045138888888
 20
-0.7773912217881944
 30
0.0
 10
4.576619466145833
 20
-0.7143012152777778
 30
0.0
 10
4.684380425347222
 20
-0.5640869140625
 30
0.0
 10
4.684380425347222
 20
-0.3890177408854166
 30
0.0
 10
4.684380425347222
 20
-0.1573554144965278
 30
0.0
 10
4.496066623263888
 20
0.0311075846354167
 30
0.0
 10
4.264485677083333
 20
0.0311075846354167
 30
0.0
 10
4.032830132378472
 20
0.0311075846354167
 30
0.0
 10
3.844285753038194
 20
-0.1573554144965278
 30
0.0
 10
3.844285753038194
 20
-0.3890177408854166
 30
0.0
 10
3.844285753038194
 20
-0.5713094075520833
 30
0.0
 10
3.96112060546875
 20
-0.7263997395833333
 30
0.0
 10
4.124091254340278
 20
-0.7842949761284722
 30
0.0
 10
4.124091254340278
 20
-0.7842949761284722
 30
0.0
 10
4.124091254340278
 20
-0.7895711263020833
 30
0.0
 10
4.124091254340278
 20
-0.7895711263020833
 30
0.0
 10
4.090481228298611
 20
-0.7954237196180555
 30
0.0
 10
4.061740451388888
 20
-0.8032158745659722
 30
0.0
 10
4.042738172743055
 20
-0.8135308159722222
 30
0.0
 10
3.961615668402778
 20
-0.8566419813368055
 30
0.0
 10
3.917853461371528
 20
-0.914944118923611
 30
0.0
 10
3.912896050347222
 20
-0.9213663736979166
 30
0.0
 10
3.912896050347222
 20
-0.9213663736979166
 30
0.0
 10
3.900390625
 20
-0.9387410481770833
 30
0.0
 10
3.900390625
 20
-0.9387410481770833
 30
0.0
 10
3.900390625
 20
-0.9387410481770833
 30
0.0
 10
3.900390625
 20
-1.644198947482639
 30
0.0
 10
3.900390625
 20
-1.644198947482639
 30
0.0
 10
3.900390625
 20
-1.644198947482639
 30
0.0
 10
3.45233154296875
 20
-1.951137966579861
 30
0.0
 10
3.45233154296875
 20
-1.951137966579861
 30
0.0
 10
3.440558539496528
 20
-1.959011501736111
 30
0.0
 10
3.163669162326389
 20
-2.140896267361111
 30
0.0
 10
3.048929850260417
 20
-2.409254286024305
 30
0.0
 10
2.986572265625
 20
-2.554850260416667
 30
0.0
 10
2.987141927083333
 20
-2.756551106770833
 30
0.0
 10
2.991360134548611
 20
-2.844733344184028
 30
0.0
 10
2.945488823784722
 20
-2.876973470052083
 30
0.0
 10
2.883205837673611
 20
-2.946723090277778
 30
0.0
 10
2.863884819878472
 20
-3.090922037760417
 30
0.0
 10
2.845282660590278
 20
-3.2315673828125
 30
0.0
 10
2.884670681423611
 20
-3.31439208984375
 30
0.0
 10
2.919664171006944
 20
-3.357672797309028
 30
0.0
 10
2.919664171006944
 20
-3.357672797309028
 30
0.0
 10
2.538675944010417
 20
-4.28131103515625
 30
0.0
 10
2.538675944010417
 20
-4.28131103515625
 30
0.0
 10
2.490451388888889
 20
-4.299913194444445
 30
0.0
 10
2.429226345486111
 20
-4.340101453993055
 30
0.0
 10
2.402099609375
 20
-4.411064995659722
 30
0.0
 10
2.341362847222222
 20
-4.568915473090278
 30
0.0
 10
2.4033203125
 20
-4.689988878038194
 30
0.0
 10
2.4598388671875
 20
-4.749504937065972
 30
0.0
 10
2.4598388671875
 20
-4.749504937065972
 30
0.0
 10
2.4598388671875
 20
-7.438517252604166
 30
0.0
 10
2.4598388671875
 20
-7.438517252604166
 30
0.0
 10
2.428080240885417
 20
-7.476426866319444
 30
0.0
 10
2.381232367621528
 20
-7.558200412326388
 30
0.0
 10
2.391628689236111
 20
-7.699652777777778
 30
0.0
 10
2.401529947916667
 20
-7.832722981770833
 30
0.0
 10
2.486056857638889
 20
-7.9136962890625
 30
0.0
 10
2.523166232638889
 20
-7.943074544270833
 30
0.0
 10
2.523166232638889
 20
-7.943074544270833
 30
0.0
 10
2.955145941840278
 20
-8.84194607204861
 30
0.0
 10
2.955145941840278
 20
-8.84194607204861
 30
0.0
 10
2.919426812065972
 20
-8.885633680555555
 30
0.0
 10
2.876790364583333
 20
-8.966525607638888
 30
0.0
 10
2.882066514756944
 20
-9.100897894965277
 30
0.0
 10
2.886854383680555
 20
-9.223008897569445
 30
0.0
 10
2.943372938368055
 20
-9.2967529296875
 30
0.0
 10
2.985032823350694
 20
-9.335096571180555
 30
0.0
 10
2.959208170572917
 20
-9.452894422743055
 30
0.0
 10
2.919426812065972
 20
-9.772664388020832
 30
0.0
 10
3.157741970486111
 20
-10.06513129340278
 30
0.0
 10
3.419772677951389
 20
-10.38652886284722
 30
0.0
 10
3.893079969618055
 20
-10.72222222222222
 30
0.0
 10
3.959425184461805
 20
-10.76835123697917
 30
0.0
 10
3.977525499131944
 20
-10.78986273871528
 30
0.0
 10
4.037868923611111
 20
-10.85861545138889
 30
0.0
 10
4.081380208333333
 20
-10.90204535590278
 30
0.0
 10
4.111192491319445
 20
-10.93202039930556
 30
0.0
 10
4.140665690104166
 20
-10.95758734809028
 30
0.0
 10
4.1611328125
 20
-10.97435167100694
 30
0.0
 10
4.1611328125
 20
-10.97435167100694
 30
0.0
 10
4.1611328125
 20
-11.08531358506944
 30
0.0
 10
4.1611328125
 20
-11.08531358506944
 30
0.0
 10
4.159423828125
 20
-11.08638509114583
 30
0.0
 10
4.15771484375
 20
-11.08775499131944
 30
0.0
 10
4.15625
 20
-11.08897569444444
 30
0.0
 10
4.155042860243055
 20
-11.08930121527778
 30
0.0
 10
4.154052734375
 20
-11.08989800347222
 30
0.0
 10
4.153333875868055
 20
-11.09018283420139
 30
0.0
 10
4.153333875868055
 20
-11.09018283420139
 30
0.0
 10
4.153564453125
 20
-11.09071180555556
 30
0.0
 10
4.153564453125
 20
-11.09071180555556
 30
0.0
 10
4.118733723958333
 20
-11.11561414930556
 30
0.0
 10
4.086669921875
 20
-11.1585693359375
 30
0.0
 10
4.086669921875
 20
-11.22798665364583
 30
0.0
 10
4.086669921875
 20
-11.28493923611111
 30
0.0
 10
4.126369900173611
 20
-11.32804361979167
 30
0.0
 10
4.190443250868055
 20
-11.34766981336806
 30
0.0
 10
4.190443250868055
 20
-11.34766981336806
 30
0.0
 10
4.190443250868055
 20
-11.46306694878472
 30
0.0
 10
4.190443250868055
 20
-11.46306694878472
 30
0.0
 10
4.15869140625
 20
-11.48776584201389
 30
0.0
 10
4.137898763020833
 20
-11.52591959635417
 30
0.0
 10
4.137898763020833
 20
-11.56953938802083
 30
0.0
 10
4.137898763020833
 20
-11.64455837673611
 30
0.0
 10
4.199042426215278
 20
-11.70560709635417
 30
0.0
 10
4.274074978298611
 20
-11.70560709635417
 30
0.0
 10
4.349093967013888
 20
-11.70560709635417
 30
0.0
 10
4.409912109375
 20
-11.64455837673611
 30
0.0
 10
4.409912109375
 20
-11.56953938802083
 30
0.0
 10
4.409912109375
 20
-11.52591959635417
 30
0.0
 10
4.389214409722222
 20
-11.48761664496528
 30
0.0
 10
4.357462565104166
 20
-11.46291775173611
 30
0.0
 10
4.357462565104166
 20
-11.46291775173611
 30
0.0
 10
4.357462565104166
 20
-11.34766981336806
 30
0.0
 10
4.357462565104166
 20
-11.34766981336806
 30
0.0
 10
4.421685112847222
 20
-11.32804361979167
 30
0.0
 10
4.460991753472222
 20
-11.28493923611111
 30
0.0
 10
4.460991753472222
 20
-11.22798665364583
 30
0.0
 10
4.460991753472222
 20
-11.15370008680556
 30
0.0
 10
4.424452039930555
 20
-11.109375
 30
0.0
 10
4.386447482638888
 20
-11.08531358506944
 30
0.0
 10
4.386447482638888
 20
-11.08531358506944
 30
0.0
 10
4.386447482638888
 20
-10.97435167100694
 30
0.0
 10
4.386447482638888
 20
-10.97435167100694
 30
0.0
 10
4.407158745659722
 20
-10.95758734809028
 30
0.0
 10
4.437038845486111
 20
-10.93202039930556
 30
0.0
 10
4.4666748046875
 20
-10.90204535590278
 30
0.0
 10
4.510281032986111
 20
-10.85861545138889
 30
0.0
 10
4.570203993055555
 20
-10.78986273871528
 30
0.0
 10
4.588799370659722
 20
-10.76835123697917
 30
0.0
 10
4.654812282986111
 20
-10.72222222222222
 30
0.0
 10
5.128282335069444
 20
-10.38652886284722
 30
0.0
 10
5.390326605902778
 20
-10.06513129340278
 30
0.0
 10
5.628729926215278
 20
-9.772664388020832
 30
0.0
 10
5.588853624131944
 20
-9.452894422743055
 30
0.0
 10
5.5631103515625
 20
-9.335096571180555
 30
0.0
 10
5.604451497395833
 20
-9.2967529296875
 30
0.0
 10
5.661037868923611
 20
-9.223008897569445
 30
0.0
 10
5.666002061631944
 20
-9.100897894965277
 30
0.0
 10
5.671183268229166
 20
-8.966525607638888
 30
0.0
 10
5.628390842013888
 20
-8.885633680555555
 30
0.0
 10
5.593085394965278
 20
-8.84194607204861
 30
0.0
 10
5.593085394965278
 20
-8.84194607204861
 30
0.0
 10
6.024820963541666
 20
-7.943074544270833
 30
0.0
 10
6.024820963541666
 20
-7.943074544270833
 30
0.0
 10
6.061916775173611
 20
-7.9136962890625
 30
0.0
 10
6.146280924479166
 20
-7.832722981770833
 30
0.0
 10
6.156277126736111
 20
-7.699652777777778
 30
0.0
 10
6.166761610243055
 20
-7.558200412326388
 30
0.0
 10
6.119737413194444
 20
-7.476426866319444
 30
0.0
 10
6.088229709201388
 20
-7.438517252604166
 30
0.0
 10
6.088229709201388
 20
-7.438517252604166
 30
0.0
 10
6.088229709201388
 20
-4.749504937065972
 30
0.0
 10
6.088229709201388
 20
-4.749504937065972
 30
0.0
  0
SPLINE
  5
3D
330
1F
100
AcDbEntity
  8
Layer 1
370
     0
100
AcDbSpline
210
0.0
220
0.0
230
1.0
 70
    11
 71
     3
 72
    20
 73
    16
 74
     0
 42
0.0000000001
 43
0.0000000001
 40
0.0
 40
0.0
 40
0.0
 40
0.0
 40
1.0
 40
1.0
 40
1.0
 40
2.0
 40
2.0
 40
2.0
 40
3.0
 40
3.0
 40
3.0
 40
4.0
 40
4.0
 40
4.0
 40
5.0
 40
5.0
 40
5.0
 40
5.0
 10
5.847547743055555
 20
-4.236239963107638
 30
0.0
 10
5.847547743055555
 20
-4.236239963107638
 30
0.0
 10
5.019883897569444
 20
-4.011400010850695
 30
0.0
 10
5.019883897569444
 20
-4.011400010850695
 30
0.0
 10
5.018595377604166
 20
-4.009134928385416
 30
0.0
 10
5.0172119140625
 20
-4.006856282552083
 30
0.0
 10
5.015896267361111
 20
-4.005154079861111
 30
0.0
 10
5.015896267361111
 20
-4.005154079861111
 30
0.0
 10
4.857001410590278
 20
-3.259745279947917
 30
0.0
 10
4.857001410590278
 20
-3.259745279947917
 30
0.0
 10
4.857001410590278
 20
-3.259745279947917
 30
0.0
 10
5.502034505208333
 20
-3.399074978298611
 30
0.0
 10
5.502034505208333
 20
-3.399074978298611
 30
0.0
 10
5.502034505208333
 20
-3.399074978298611
 30
0.0
 10
5.847547743055555
 20
-4.236239963107638
 30
0.0
 10
5.847547743055555
 20
-4.236239963107638
 30
0.0
  0
POLYLINE
  5
3E
330
1F
100
AcDbEntity
  8
Layer 1
370
     0
100
AcDb2dPolyline
 66
     1
 10
0.0
 20
0.0
 30
0.0
  0
VERTEX
  5
3F
330
3E
100
AcDbEntity
  8
Layer 1
370
     0
100
AcDbVertex
100
AcDb2dVertex
 10
5.955959743923611
 20
-7.393934461805555
 30
0.0
  0
VERTEX
  5
40
330
3E
100
AcDbEntity
  8
Layer 1
370
     0
100
AcDbVertex
100
AcDb2dVertex
 10
5.020046657986111
 20
-7.317192925347221
 30
0.0
  0
VERTEX
  5
41
330
3E
100
AcDbEntity
  8
Layer 1
370
     0
100
AcDbVertex
100
AcDb2dVertex
 10
5.020046657986111
 20
-4.578097873263888
 30
0.0
  0
VERTEX
  5
42
330
3E
100
AcDbEntity
  8
Layer 1
370
     0
100
AcDbVertex
100
AcDb2dVertex
 10
5.955959743923611
 20
-4.774027506510416
 30
0.0
  0
VERTEX
  5
43
330
3E
100
AcDbEntity
  8
Layer 1
370
     0
100
AcDbVertex
100
AcDb2dVertex
 10
5.955959743923611
 20
-7.393934461805555
 30
0.0
  0
SEQEND
  5
44
330
3E
100
AcDbEntity
  8
Layer 1
370
     0
  0
SPLINE
  5
45
330
1F
100
AcDbEntity
  8
Layer 1
370
     0
100
AcDbSpline
210
0.0
220
0.0
230
1.0
 70
    11
 71
     3
 72
    29
 73
    25
 74
     0
 42
0.0000000001
 43
0.0000000001
 40
0.0
 40
0.0
 40
0.0
 40
0.0
 40
1.0
 40
1.0
 40
1.0
 40
2.0
 40
2.0
 40
2.0
 40
3.0
 40
3.0
 40
3.0
 40
4.0
 40
4.0
 40
4.0
 40
5.0
 40
5.0
 40
5.0
 40
6.0
 40
6.0
 40
6.0
 40
7.0
 40
7.0
 40
7.0
 40
8.0
 40
8.0
 40
8.0
 40
8.0
 10
4.678927951388888
 20
-9.869615342881945
 30
0.0
 10
4.630696614583333
 20
-10.04988606770833
 30
0.0
 10
4.316541883680555
 20
-10.86064995659722
 30
0.0
 10
4.316541883680555
 20
-10.86064995659722
 30
0.0
 10
4.309393988715278
 20
-10.86672634548611
 30
0.0
 10
4.302897135416666
 20
-10.87186686197917
 30
0.0
 10
4.297620985243055
 20
-10.87618001302083
 30
0.0
 10
4.297620985243055
 20
-10.87618001302083
 30
0.0
 10
4.250284830729166
 20
-10.87618001302083
 30
0.0
 10
4.250284830729166
 20
-10.87618001302083
 30
0.0
 10
4.244913736979166
 20
-10.87186686197917
 30
0.0
 10
4.238511827256945
 20
-10.86672634548611
 30
0.0
 10
4.2314453125
 20
-10.86064995659722
 30
0.0
 10
4.2314453125
 20
-10.86064995659722
 30
0.0
 10
3.9171142578125
 20
-10.04988606770833
 30
0.0
 10
3.869045681423611
 20
-9.869615342881945
 30
0.0
 10
3.833401150173611
 20
-9.735948350694445
 30
0.0
 10
3.850375705295139
 20
-9.474595811631945
 30
0.0
 10
3.859876844618055
 20
-9.363104926215277
 30
0.0
 10
3.859876844618055
 20
-9.363104926215277
 30
0.0
 10
4.688259548611111
 20
-9.363104926215277
 30
0.0
 10
4.688259548611111
 20
-9.363104926215277
 30
0.0
 10
4.697781032986111
 20
-9.474595811631945
 30
0.0
 10
4.714735243055555
 20
-9.735948350694445
 30
0.0
 10
4.678927951388888
 20
-9.869615342881945
 30
0.0
  0
SPLINE
  5
46
330
1F
100
AcDbEntity
  8
Layer 1
370
     0
100
AcDbSpline
210
0.0
220
0.0
230
1.0
 70
    11
 71
     3
 72
    23
 73
    19
 74
     0
 42
0.0000000001
 43
0.0000000001
 40
0.0
 40
0.0
 40
0.0
 40
0.0
 40
1.0
 40
1.0
 40
1.0
 40
2.0
 40
2.0
 40
2.0
 40
3.0
 40
3.0
 40
3.0
 40
4.0
 40
4.0
 40
4.0
 40
5.0
 40
5.0
 40
5.0
 40
6.0
 40
6.0
 40
6.0
 40
6.0
 10
4.6905517578125
 20
-8.897257486979166
 30
0.0
 10
4.705159505208333
 20
-8.914713541666666
 30
0.0
 10
4.735365125868055
 20
-8.96206325954861
 30
0.0
 10
4.738783094618055
 20
-9.057196723090277
 30
0.0
 10
4.742024739583333
 20
-9.138834635416666
 30
0.0
 10
4.725694444444444
 20
-9.197102864583332
 30
0.0
 10
4.711995442708333
 20
-9.230658637152777
 30
0.0
 10
4.711995442708333
 20
-9.230658637152777
 30
0.0
 10
3.835917154947917
 20
-9.230658637152777
 30
0.0
 10
3.835917154947917
 20
-9.230658637152777
 30
0.0
 10
3.822279188368055
 20
-9.196885850694445
 30
0.0
 10
3.805874294704861
 20
-9.138644748263888
 30
0.0
 10
3.809041341145833
 20
-9.057196723090277
 30
0.0
 10
3.812859429253472
 20
-8.960991753472221
 30
0.0
 10
3.843471950954861
 20
-8.913492838541666
 30
0.0
 10
3.857109917534722
 20
-8.897474500868055
 30
0.0
 10
3.857109917534722
 20
-8.897474500868055
 30
0.0
 10
4.6905517578125
 20
-8.897257486979166
 30
0.0
 10
4.6905517578125
 20
-8.897257486979166
 30
0.0
  0
POLYLINE
  5
47
330
1F
100
AcDbEntity
  8
Layer 1
370
     0
100
AcDb2dPolyline
 66
     1
 10
0.0
 20
0.0
 30
0.0
  0
VERTEX
  5
48
330
47
100
AcDbEntity
  8
Layer 1
370
     0
100
AcDbVertex
100
AcDb2dVertex
 10
4.669921875
 20
-8.765068901909721
 30
0.0
  0
VERTEX
  5
49
330
47
100
AcDbEntity
  8
Layer 1
370
     0
100
AcDbVertex
100
AcDb2dVertex
 10
3.878228081597222
 20
-8.765068901909721
 30
0.0
  0
VERTEX
  5
4A
330
47
100
AcDbEntity
  8
Layer 1
370
     0
100
AcDbVertex
100
AcDb2dVertex
 10
3.732632107204861
 20
-7.940972222222221
 30
0.0
  0
VERTEX
  5
4B
330
47
100
AcDbEntity
  8
Layer 1
370
     0
100
AcDbVertex
100
AcDb2dVertex
 10
4.815361870659722
 20
-7.940972222222221
 30
0.0
  0
VERTEX
  5
4C
330
47
100
AcDbEntity
  8
Layer 1
370
     0
100
AcDbVertex
100
AcDb2dVertex
 10
4.669921875
 20
-8.765068901909721
 30
0.0
  0
SEQEND
  5
4D
330
47
100
AcDbEntity
  8
Layer 1
370
     0
  0
POLYLINE
  5
4E
330
1F
100
AcDbEntity
  8
Layer 1
370
     0
100
AcDb2dPolyline
 66
     1
 10
0.0
 20
0.0
 30
0.0
  0
VERTEX
  5
4F
330
4E
100
AcDbEntity
  8
Layer 1
370
     0
100
AcDbVertex
100
AcDb2dVertex
 10
2.59210205078125
 20
-4.774027506510416
 30
0.0
  0
VERTEX
  5
50
330
4E
100
AcDbEntity
  8
Layer 1
370
     0
100
AcDbVertex
100
AcDb2dVertex
 10
3.527764214409722
 20
-4.578097873263888
 30
0.0
  0
VERTEX
  5
51
330
4E
100
AcDbEntity
  8
Layer 1
370
     0
100
AcDbVertex
100
AcDb2dVertex
 10
3.527764214409722
 20
-7.317192925347221
 30
0.0
  0
VERTEX
  5
52
330
4E
100
AcDbEntity
  8
Layer 1
370
     0
100
AcDbVertex
100
AcDb2dVertex
 10
2.59210205078125
 20
-7.393934461805555
 30
0.0
  0
VERTEX
  5
53
330
4E
100
AcDbEntity
  8
Layer 1
370
     0
100
AcDbVertex
100
AcDb2dVertex
 10
2.59210205078125
 20
-4.774027506510416
 30
0.0
  0
SEQEND
  5
54
330
4E
100
AcDbEntity
  8
Layer 1
370
     0
  0
SPLINE
  5
55
330
1F
100
AcDbEntity
  8
Layer 1
370
     0
100
AcDbSpline
210
0.0
220
0.0
230
1.0
 70
    11
 71
     3
 72
    26
 73
    22
 74
     0
 42
0.0000000001
 43
0.0000000001
 40
0.0
 40
0.0
 40
0.0
 40
0.0
 40
1.0
 40
1.0
 40
1.0
 40
2.0
 40
2.0
 40
2.0
 40
3.0
 40
3.0
 40
3.0
 40
4.0
 40
4.0
 40
4.0
 40
5.0
 40
5.0
 40
5.0
 40
6.0
 40
6.0
 40
6.0
 40
7.0
 40
7.0
 40
7.0
 40
7.0
 10
3.912733289930555
 20
-2.141133626302083
 30
0.0
 10
3.966328938802083
 20
-1.932054307725694
 30
0.0
 10
4.103800455729166
 20
-1.739766438802083
 30
0.0
 10
4.147976345486111
 20
-1.681952582465278
 30
0.0
 10
4.186781141493055
 20
-1.675462510850694
 30
0.0
 10
4.236626519097222
 20
-1.674004448784722
 30
0.0
 10
4.255479600694445
 20
-1.673753526475694
 30
0.0
 10
4.293551974826388
 20
-1.674004448784722
 30
0.0
 10
4.359334309895833
 20
-1.676188151041667
 30
0.0
 10
4.400173611111111
 20
-1.682122124565972
 30
0.0
 10
4.444675021701388
 20
-1.74041748046875
 30
0.0
 10
4.582058376736111
 20
-1.932461208767361
 30
0.0
 10
4.635077582465278
 20
-2.141133626302083
 30
0.0
 10
4.681857638888888
 20
-2.323099772135417
 30
0.0
 10
4.686075846354166
 20
-2.5357666015625
 30
0.0
 10
4.684868706597222
 20
-2.642225477430555
 30
0.0
 10
4.684868706597222
 20
-2.642225477430555
 30
0.0
 10
3.863125271267361
 20
-2.642225477430555
 30
0.0
 10
3.863125271267361
 20
-2.642225477430555
 30
0.0
 10
3.861741807725694
 20
-2.5357666015625
 30
0.0
 10
3.866204155815972
 20
-2.323099772135417
 30
0.0
 10
3.912733289930555
 20
-2.141133626302083
 30
0.0
  0
SPLINE
  5
56
330
1F
100
AcDbEntity
  8
Layer 1
370
     0
100
AcDbSpline
210
0.0
220
0.0
230
1.0
 70
    11
 71
     3
 72
    23
 73
    19
 74
     0
 42
0.0000000001
 43
0.0000000001
 40
0.0
 40
0.0
 40
0.0
 40
0.0
 40
1.0
 40
1.0
 40
1.0
 40
2.0
 40
2.0
 40
2.0
 40
3.0
 40
3.0
 40
3.0
 40
4.0
 40
4.0
 40
4.0
 40
5.0
 40
5.0
 40
5.0
 40
6.0
 40
6.0
 40
6.0
 40
6.0
 10
3.820570203993055
 20
-3.107977973090278
 30
0.0
 10
3.811475965711805
 20
-3.065592447916667
 30
0.0
 10
3.802788628472222
 20
-3.000149197048611
 30
0.0
 10
3.809041341145833
 20
-2.918212890625
 30
0.0
 10
3.815131293402778
 20
-2.834662543402778
 30
0.0
 10
3.829182942708333
 20
-2.792921278211805
 30
0.0
 10
3.837788899739583
 20
-2.774495442708333
 30
0.0
 10
3.837788899739583
 20
-2.774495442708333
 30
0.0
 10
4.710177951388888
 20
-2.774495442708333
 30
0.0
 10
4.710177951388888
 20
-2.774495442708333
 30
0.0
 10
4.718709309895833
 20
-2.792921278211805
 30
0.0
 10
4.732760959201388
 20
-2.834662543402778
 30
0.0
 10
4.738783094618055
 20
-2.918212890625
 30
0.0
 10
4.745198567708333
 20
-3.000149197048611
 30
0.0
 10
4.736341688368055
 20
-3.065924750434028
 30
0.0
 10
4.727484809027778
 20
-3.107977973090278
 30
0.0
 10
4.727484809027778
 20
-3.107977973090278
 30
0.0
 10
3.820570203993055
 20
-3.107977973090278
 30
0.0
 10
3.820570203993055
 20
-3.107977973090278
 30
0.0
  0
POLYLINE
  5
57
330
1F
100
AcDbEntity
  8
Layer 1
370
     0
100
AcDb2dPolyline
 66
     1
 10
0.0
 20
0.0
 30
0.0
  0
VERTEX
  5
58
330
57
100
AcDbEntity
  8
Layer 1
370
     0
100
AcDbVertex
100
AcDb2dVertex
 10
3.830315483940972
 20
-3.24041748046875
 30
0.0
  0
VERTEX
  5
59
330
57
100
AcDbEntity
  8
Layer 1
370
     0
100
AcDbVertex
100
AcDb2dVertex
 10
4.717664930555555
 20
-3.24041748046875
 30
0.0
  0
VERTEX
  5
5A
330
57
100
AcDbEntity
  8
Layer 1
370
     0
100
AcDbVertex
100
AcDb2dVertex
 10
4.878757052951388
 20
-3.995890299479167
 30
0.0
  0
VERTEX
  5
5B
330
57
100
AcDbEntity
  8
Layer 1
370
     0
100
AcDbVertex
100
AcDb2dVertex
 10
3.669135199652778
 20
-3.995890299479167
 30
0.0
  0
VERTEX
  5
5C
330
57
100
AcDbEntity
  8
Layer 1
370
     0
100
AcDbVertex
100
AcDb2dVertex
 10
3.830315483940972
 20
-3.24041748046875
 30
0.0
  0
SEQEND
  5
5D
330
57
100
AcDbEntity
  8
Layer 1
370
     0
  0
SPLINE
  5
5E
330
1F
100
AcDbEntity
  8
Layer 1
370
     0
100
AcDbSpline
210
0.0
220
0.0
230
1.0
 70
    11
 71
     3
 72
    23
 73
    19
 74
     0
 42
0.0000000001
 43
0.0000000001
 40
0.0
 40
0.0
 40
0.0
 40
0.0
 40
1.0
 40
1.0
 40
1.0
 40
2.0
 40
2.0
 40
2.0
 40
3.0
 40
3.0
 40
3.0
 40
4.0
 40
4.0
 40
4.0
 40
5.0
 40
5.0
 40
5.0
 40
6.0
 40
6.0
 40
6.0
 40
6.0
 10
4.9189453125
 20
-7.602945963541666
 30
0.0
 10
4.912380642361111
 20
-7.693712022569444
 30
0.0
 10
4.882676866319444
 20
-7.766465928819444
 30
0.0
 10
4.861233181423611
 20
-7.808770073784721
 30
0.0
 10
4.861233181423611
 20
-7.808770073784721
 30
0.0
 10
3.686591254340278
 20
-7.808770073784721
 30
0.0
 10
3.686591254340278
 20
-7.808770073784721
 30
0.0
 10
3.665317111545139
 20
-7.766465928819444
 30
0.0
 10
3.635599772135417
 20
-7.693712022569444
 30
0.0
 10
3.628851996527778
 20
-7.602945963541666
 30
0.0
 10
3.623982747395833
 20
-7.536105685763888
 30
0.0
 10
3.628696017795139
 20
-7.482516818576388
 30
0.0
 10
3.635430230034722
 20
-7.444200303819444
 30
0.0
 10
3.635430230034722
 20
-7.444200303819444
 30
0.0
 10
4.912380642361111
 20
-7.444200303819444
 30
0.0
 10
4.912380642361111
 20
-7.444200303819444
 30
0.0
 10
4.9189453125
 20
-7.482516818576388
 30
0.0
 10
4.924072265625
 20
-7.536105685763888
 30
0.0
 10
4.9189453125
 20
-7.602945963541666
 30
0.0
  0
POLYLINE
  5
5F
330
1F
100
AcDbEntity
  8
Layer 1
370
     0
100
AcDb2dPolyline
 66
     1
 10
0.0
 20
0.0
 30
0.0
  0
VERTEX
  5
60
330
5F
100
AcDbEntity
  8
Layer 1
370
     0
100
AcDbVertex
100
AcDb2dVertex
 10
3.6602783203125
 20
-7.31201171875
 30
0.0
  0
VERTEX
  5
61
330
5F
100
AcDbEntity
  8
Layer 1
370
     0
100
AcDbVertex
100
AcDb2dVertex
 10
3.6602783203125
 20
-4.562995062934028
 30
0.0
  0
VERTEX
  5
62
330
5F
100
AcDbEntity
  8
Layer 1
370
     0
100
AcDbVertex
100
AcDb2dVertex
 10
4.887546115451388
 20
-4.562995062934028
 30
0.0
  0
VERTEX
  5
63
330
5F
100
AcDbEntity
  8
Layer 1
370
     0
100
AcDbVertex
100
AcDb2dVertex
 10
4.887546115451388
 20
-7.312147352430555
 30
0.0
  0
VERTEX
  5
64
330
5F
100
AcDbEntity
  8
Layer 1
370
     0
100
AcDbVertex
100
AcDb2dVertex
 10
3.6602783203125
 20
-7.31201171875
 30
0.0
  0
SEQEND
  5
65
330
5F
100
AcDbEntity
  8
Layer 1
370
     0
  0
SPLINE
  5
66
330
1F
100
AcDbEntity
  8
Layer 1
370
     0
100
AcDbSpline
210
0.0
220
0.0
230
1.0
 70
    11
 71
     3
 72
    23
 73
    19
 74
     0
 42
0.0000000001
 43
0.0000000001
 40
0.0
 40
0.0
 40
0.0
 40
0.0
 40
1.0
 40
1.0
 40
1.0
 40
2.0
 40
2.0
 40
2.0
 40
3.0
 40
3.0
 40
3.0
 40
4.0
 40
4.0
 40
4.0
 40
5.0
 40
5.0
 40
5.0
 40
6.0
 40
6.0
 40
6.0
 40
6.0
 10
4.927652994791666
 20
-4.430555555555555
 30
0.0
 10
4.927652994791666
 20
-4.430555555555555
 30
0.0
 10
3.620259602864583
 20
-4.430555555555555
 30
0.0
 10
3.620259602864583
 20
-4.430555555555555
 30
0.0
 10
3.609212239583333
 20
-4.402377658420138
 30
0.0
 10
3.59808349609375
 20
-4.35577392578125
 30
0.0
 10
3.59808349609375
 20
-4.285610622829861
 30
0.0
 10
3.59808349609375
 20
-4.215705023871528
 30
0.0
 10
3.609212239583333
 20
-4.163648817274305
 30
0.0
 10
3.621066623263889
 20
-4.128336588541666
 30
0.0
 10
3.621066623263889
 20
-4.128336588541666
 30
0.0
 10
4.926988389756944
 20
-4.128336588541666
 30
0.0
 10
4.926988389756944
 20
-4.128336588541666
 30
0.0
 10
4.938612196180555
 20
-4.163818359375
 30
0.0
 10
4.949801974826388
 20
-4.215861002604166
 30
0.0
 10
4.949801974826388
 20
-4.285610622829861
 30
0.0
 10
4.949801974826388
 20
-4.35577392578125
 30
0.0
 10
4.938612196180555
 20
-4.402377658420138
 30
0.0
 10
4.927652994791666
 20
-4.430555555555555
 30
0.0
  0
SPLINE
  5
67
330
1F
100
AcDbEntity
  8
Layer 1
370
     0
100
AcDbSpline
210
0.0
220
0.0
230
1.0
 70
    11
 71
     3
 72
    32
 73
    28
 74
     0
 42
0.0000000001
 43
0.0000000001
 40
0.0
 40
0.0
 40
0.0
 40
0.0
 40
1.0
 40
1.0
 40
1.0
 40
2.0
 40
2.0
 40
2.0
 40
3.0
 40
3.0
 40
3.0
 40
4.0
 40
4.0
 40
4.0
 40
5.0
 40
5.0
 40
5.0
 40
6.0
 40
6.0
 40
6.0
 40
7.0
 40
7.0
 40
7.0
 40
8.0
 40
8.0
 40
8.0
 40
9.0
 40
9.0
 40
9.0
 40
9.0
 10
5.529486762152778
 20
-3.2696533203125
 30
0.0
 10
5.529486762152778
 20
-3.2696533203125
 30
0.0
 10
4.858873155381944
 20
-3.124708387586805
 30
0.0
 10
4.858873155381944
 20
-3.124708387586805
 30
0.0
 10
4.869181315104166
 20
-3.072489420572917
 30
0.0
 10
4.877617730034722
 20
-2.998358832465278
 30
0.0
 10
4.8709716796875
 20
-2.908467610677083
 30
0.0
 10
4.8677978515625
 20
-2.866170247395833
 30
0.0
 10
4.862589518229166
 20
-2.831007215711805
 30
0.0
 10
4.856499565972222
 20
-2.801778157552083
 30
0.0
 10
4.856499565972222
 20
-2.801778157552083
 30
0.0
 10
5.409966362847222
 20
-2.931776258680555
 30
0.0
 10
5.409966362847222
 20
-2.931776258680555
 30
0.0
 10
5.409966362847222
 20
-2.931776258680555
 30
0.0
 10
5.409735785590278
 20
-2.932590060763889
 30
0.0
 10
5.409735785590278
 20
-2.932590060763889
 30
0.0
 10
5.409735785590278
 20
-2.932590060763889
 30
0.0
 10
5.452582465277778
 20
-2.941847059461805
 30
0.0
 10
5.452582465277778
 20
-2.941847059461805
 30
0.0
 10
5.452582465277778
 20
-2.941847059461805
 30
0.0
 10
5.468844943576388
 20
-2.945658365885417
 30
0.0
 10
5.468844943576388
 20
-2.945658365885417
 30
0.0
 10
5.478827582465278
 20
-2.950208875868055
 30
0.0
 10
5.535983615451388
 20
-2.98187255859375
 30
0.0
 10
5.552897135416666
 20
-3.108222113715278
 30
0.0
 10
5.5650634765625
 20
-3.199334038628472
 30
0.0
 10
5.544365776909722
 20
-3.247565375434028
 30
0.0
 10
5.529486762152778
 20
-3.2696533203125
 30
0.0
  0
SPLINE
  5
68
330
1F
100
AcDbEntity
  8
Layer 1
370
     0
100
AcDbSpline
210
0.0
220
0.0
230
1.0
 70
    11
 71
     3
 72
    23
 73
    19
 74
     0
 42
0.0000000001
 43
0.0000000001
 40
0.0
 40
0.0
 40
0.0
 40
0.0
 40
1.0
 40
1.0
 40
1.0
 40
2.0
 40
2.0
 40
2.0
 40
3.0
 40
3.0
 40
3.0
 40
4.0
 40
4.0
 40
4.0
 40
5.0
 40
5.0
 40
5.0
 40
6.0
 40
6.0
 40
6.0
 40
6.0
 10
5.377414279513888
 20
-2.4610595703125
 30
0.0
 10
5.421739366319444
 20
-2.564432779947917
 30
0.0
 10
5.427015516493055
 20
-2.711161295572917
 30
0.0
 10
5.425645616319444
 20
-2.799669053819444
 30
0.0
 10
5.425645616319444
 20
-2.799669053819444
 30
0.0
 10
4.817057291666666
 20
-2.656514485677083
 30
0.0
 10
4.817057291666666
 20
-2.656514485677083
 30
0.0
 10
4.819159613715278
 20
-2.54754638671875
 30
0.0
 10
4.816080729166666
 20
-2.314256456163194
 30
0.0
 10
4.763468424479166
 20
-2.108256022135417
 30
0.0
 10
4.733656141493055
 20
-1.991977267795139
 30
0.0
 10
4.682264539930555
 20
-1.882676866319444
 30
0.0
 10
4.631591796875
 20
-1.793768988715278
 30
0.0
 10
4.631591796875
 20
-1.793768988715278
 30
0.0
 10
5.023532443576388
 20
-2.062289767795139
 30
0.0
 10
5.023532443576388
 20
-2.062289767795139
 30
0.0
 10
5.025973849826388
 20
-2.0638427734375
 30
0.0
 10
5.278266059027778
 20
-2.229641384548611
 30
0.0
 10
5.377414279513888
 20
-2.4610595703125
 30
0.0
  0
SPLINE
  5
69
330
1F
100
AcDbEntity
  8
Layer 1
370
     0
100
AcDbSpline
210
0.0
220
0.0
230
1.0
 70
    11
 71
     3
 72
    20
 73
    16
 74
     0
 42
0.0000000001
 43
0.0000000001
 40
0.0
 40
0.0
 40
0.0
 40
0.0
 40
1.0
 40
1.0
 40
1.0
 40
2.0
 40
2.0
 40
2.0
 40
3.0
 40
3.0
 40
3.0
 40
4.0
 40
4.0
 40
4.0
 40
5.0
 40
5.0
 40
5.0
 40
5.0
 10
3.976718478732639
 20
-0.3890177408854166
 30
0.0
 10
3.976718478732639
 20
-0.2303602430555556
 30
0.0
 10
4.1055908203125
 20
-0.1011691623263889
 30
0.0
 10
4.264485677083333
 20
-0.1011691623263889
 30
0.0
 10
4.422905815972222
 20
-0.1011691623263889
 30
0.0
 10
4.552178276909722
 20
-0.2303602430555556
 30
0.0
 10
4.552178276909722
 20
-0.3890177408854166
 30
0.0
 10
4.552178276909722
 20
-0.4985555013020833
 30
0.0
 10
4.490627712673611
 20
-0.5940483940972222
 30
0.0
 10
4.400173611111111
 20
-0.6425238715277778
 30
0.0
 10
4.400173611111111
 20
-0.6425238715277778
 30
0.0
 10
4.128553602430555
 20
-0.6425238715277778
 30
0.0
 10
4.128553602430555
 20
-0.6425238715277778
 30
0.0
 10
4.038106282552083
 20
-0.5940483940972222
 30
0.0
 10
3.976718478732639
 20
-0.4985555013020833
 30
0.0
 10
3.976718478732639
 20
-0.3890177408854166
 30
0.0
  0
SPLINE
  5
6A
330
1F
100
AcDbEntity
  8
Layer 1
370
     0
100
AcDbSpline
210
0.0
220
0.0
230
1.0
 70
    11
 71
     3
 72
    32
 73
    28
 74
     0
 42
0.0000000001
 43
0.0000000001
 40
0.0
 40
0.0
 40
0.0
 40
0.0
 40
1.0
 40
1.0
 40
1.0
 40
2.0
 40
2.0
 40
2.0
 40
3.0
 40
3.0
 40
3.0
 40
4.0
 40
4.0
 40
4.0
 40
5.0
 40
5.0
 40
5.0
 40
6.0
 40
6.0
 40
6.0
 40
7.0
 40
7.0
 40
7.0
 40
8.0
 40
8.0
 40
8.0
 40
9.0
 40
9.0
 40
9.0
 40
9.0
 10
4.105007595486111
 20
-0.9300469292534722
 30
0.0
 10
4.155449761284722
 20
-0.9031711154513888
 30
0.0
 10
4.392618815104166
 20
-0.9031711154513888
 30
0.0
 10
4.443210177951388
 20
-0.9300469292534722
 30
0.0
 10
4.476820203993055
 20
-0.9483167860243055
 30
0.0
 10
4.5015869140625
 20
-0.9706488715277777
 30
0.0
 10
4.515150282118055
 20
-0.9847751193576388
 30
0.0
 10
4.515150282118055
 20
-0.9847751193576388
 30
0.0
 10
4.515150282118055
 20
-1.57623291015625
 30
0.0
 10
4.515150282118055
 20
-1.57623291015625
 30
0.0
 10
4.496717664930555
 20
-1.569654676649305
 30
0.0
 10
4.476182725694444
 20
-1.563157823350694
 30
0.0
 10
4.453030056423611
 20
-1.557474772135417
 30
0.0
 10
4.3909912109375
 20
-1.541883680555556
 30
0.0
 10
4.268948025173611
 20
-1.541476779513889
 30
0.0
 10
4.255479600694445
 20
-1.541476779513889
 30
0.0
 10
4.245402018229166
 20
-1.541476779513889
 30
0.0
 10
4.156901041666666
 20
-1.541883680555556
 30
0.0
 10
4.094780815972222
 20
-1.557474772135417
 30
0.0
 10
4.071885850694445
 20
-1.563157823350694
 30
0.0
 10
4.051337348090278
 20
-1.569654676649305
 30
0.0
 10
4.032830132378472
 20
-1.576314290364583
 30
0.0
 10
4.032830132378472
 20
-1.576314290364583
 30
0.0
 10
4.032830132378472
 20
-0.9847751193576388
 30
0.0
 10
4.032830132378472
 20
-0.9847751193576388
 30
0.0
 10
4.046468098958333
 20
-0.9704047309027777
 30
0.0
 10
4.071072048611111
 20
-0.9480726453993055
 30
0.0
 10
4.105007595486111
 20
-0.9300469292534722
 30
0.0
  0
SPLINE
  5
6B
330
1F
100
AcDbEntity
  8
Layer 1
370
     0
100
AcDbSpline
210
0.0
220
0.0
230
1.0
 70
    11
 71
     3
 72
    23
 73
    19
 74
     0
 42
0.0000000001
 43
0.0000000001
 40
0.0
 40
0.0
 40
0.0
 40
0.0
 40
1.0
 40
1.0
 40
1.0
 40
2.0
 40
2.0
 40
2.0
 40
3.0
 40
3.0
 40
3.0
 40
4.0
 40
4.0
 40
4.0
 40
5.0
 40
5.0
 40
5.0
 40
6.0
 40
6.0
 40
6.0
 40
6.0
 10
3.17041015625
 20
-2.4610595703125
 30
0.0
 10
3.269151475694444
 20
-2.230536566840278
 30
0.0
 10
3.521843804253472
 20
-2.0638427734375
 30
0.0
 10
3.525736490885417
 20
-2.061408148871528
 30
0.0
 10
3.525736490885417
 20
-2.061408148871528
 30
0.0
 10
3.916388617621528
 20
-1.793768988715278
 30
0.0
 10
3.916388617621528
 20
-1.793768988715278
 30
0.0
 10
3.865966796875
 20
-1.882676866319444
 30
0.0
 10
3.814236111111111
 20
-1.991977267795139
 30
0.0
 10
3.784600151909722
 20
-2.108256022135417
 30
0.0
 10
3.731818305121528
 20
-2.314256456163194
 30
0.0
 10
3.728651258680555
 20
-2.54754638671875
 30
0.0
 10
3.730929904513889
 20
-2.656514485677083
 30
0.0
 10
3.730929904513889
 20
-2.656514485677083
 30
0.0
 10
3.122416178385417
 20
-2.799669053819444
 30
0.0
 10
3.122416178385417
 20
-2.799669053819444
 30
0.0
 10
3.120720757378472
 20
-2.711317274305555
 30
0.0
 10
3.12591552734375
 20
-2.564751519097222
 30
0.0
 10
3.17041015625
 20
-2.4610595703125
 30
0.0
  0
SPLINE
  5
6C
330
1F
100
AcDbEntity
  8
Layer 1
370
     0
100
AcDbSpline
210
0.0
220
0.0
230
1.0
 70
    11
 71
     3
 72
    32
 73
    28
 74
     0
 42
0.0000000001
 43
0.0000000001
 40
0.0
 40
0.0
 40
0.0
 40
0.0
 40
1.0
 40
1.0
 40
1.0
 40
2.0
 40
2.0
 40
2.0
 40
3.0
 40
3.0
 40
3.0
 40
4.0
 40
4.0
 40
4.0
 40
5.0
 40
5.0
 40
5.0
 40
6.0
 40
6.0
 40
6.0
 40
7.0
 40
7.0
 40
7.0
 40
8.0
 40
8.0
 40
8.0
 40
9.0
 40
9.0
 40
9.0
 40
9.0
 10
2.995096842447917
 20
-3.108222113715278
 30
0.0
 10
3.012552897135417
 20
-2.9764404296875
 30
0.0
 10
3.073621961805555
 20
-2.94793701171875
 30
0.0
 10
3.078084309895833
 20
-2.94598388671875
 30
0.0
 10
3.078084309895833
 20
-2.94598388671875
 30
0.0
 10
3.082872178819444
 20
-2.94476318359375
 30
0.0
 10
3.082872178819444
 20
-2.94476318359375
 30
0.0
 10
3.082872178819444
 20
-2.94476318359375
 30
0.0
 10
3.131191677517361
 20
-2.934699164496528
 30
0.0
 10
3.131191677517361
 20
-2.934699164496528
 30
0.0
 10
3.131191677517361
 20
-2.934699164496528
 30
0.0
 10
3.131191677517361
 20
-2.933485243055555
 30
0.0
 10
3.131191677517361
 20
-2.933485243055555
 30
0.0
 10
3.131191677517361
 20
-2.933485243055555
 30
0.0
 10
3.691379123263889
 20
-2.801778157552083
 30
0.0
 10
3.691379123263889
 20
-2.801778157552083
 30
0.0
 10
3.685289171006944
 20
-2.831007215711805
 30
0.0
 10
3.680094401041667
 20
-2.866170247395833
 30
0.0
 10
3.677090115017361
 20
-2.908467610677083
 30
0.0
 10
3.670518663194444
 20
-2.998358832465278
 30
0.0
 10
3.678554958767361
 20
-3.072489420572917
 30
0.0
 10
3.688944498697917
 20
-3.124708387586805
 30
0.0
 10
3.688944498697917
 20
-3.124708387586805
 30
0.0
 10
3.018893771701389
 20
-3.2696533203125
 30
0.0
 10
3.018893771701389
 20
-3.2696533203125
 30
0.0
 10
3.003465440538194
 20
-3.246826171875
 30
0.0
 10
2.982916937934028
 20
-3.198676215277778
 30
0.0
 10
2.995096842447917
 20
-3.108222113715278
 30
0.0
  0
SPLINE
  5
6D
330
1F
100
AcDbEntity
  8
Layer 1
370
     0
100
AcDbSpline
210
0.0
220
0.0
230
1.0
 70
    11
 71
     3
 72
    20
 73
    16
 74
     0
 42
0.0000000001
 43
0.0000000001
 40
0.0
 40
0.0
 40
0.0
 40
0.0
 40
1.0
 40
1.0
 40
1.0
 40
2.0
 40
2.0
 40
2.0
 40
3.0
 40
3.0
 40
3.0
 40
4.0
 40
4.0
 40
4.0
 40
5.0
 40
5.0
 40
5.0
 40
5.0
 10
3.045769585503472
 20
-3.399074978298611
 30
0.0
 10
3.045769585503472
 20
-3.399074978298611
 30
0.0
 10
3.690816243489583
 20
-3.259745279947917
 30
0.0
 10
3.690816243489583
 20
-3.259745279947917
 30
0.0
 10
3.690816243489583
 20
-3.259745279947917
 30
0.0
 10
3.532145182291667
 20
-4.005154079861111
 30
0.0
 10
3.532145182291667
 20
-4.005154079861111
 30
0.0
 10
3.530687120225694
 20
-4.006856282552083
 30
0.0
 10
3.529635959201389
 20
-4.009134928385416
 30
0.0
 10
3.527933756510417
 20
-4.011569552951388
 30
0.0
 10
3.527933756510417
 20
-4.011569552951388
 30
0.0
 10
2.700344509548611
 20
-4.236239963107638
 30
0.0
 10
2.700344509548611
 20
-4.236239963107638
 30
0.0
 10
2.700344509548611
 20
-4.236239963107638
 30
0.0
 10
3.045769585503472
 20
-3.399074978298611
 30
0.0
 10
3.045769585503472
 20
-3.399074978298611
 30
0.0
  0
SPLINE
  5
6E
330
1F
100
AcDbEntity
  8
Layer 1
370
     0
100
AcDbSpline
210
0.0
220
0.0
230
1.0
 70
    11
 71
     3
 72
    29
 73
    25
 74
     0
 42
0.0000000001
 43
0.0000000001
 40
0.0
 40
0.0
 40
0.0
 40
0.0
 40
1.0
 40
1.0
 40
1.0
 40
2.0
 40
2.0
 40
2.0
 40
3.0
 40
3.0
 40
3.0
 40
4.0
 40
4.0
 40
4.0
 40
5.0
 40
5.0
 40
5.0
 40
6.0
 40
6.0
 40
6.0
 40
7.0
 40
7.0
 40
7.0
 40
8.0
 40
8.0
 40
8.0
 40
8.0
 10
2.525682237413194
 20
-4.458407931857638
 30
0.0
 10
2.542731391059028
 20
-4.413336859809028
 30
0.0
 10
2.600958930121528
 20
-4.400105794270833
 30
0.0
 10
2.600958930121528
 20
-4.400105794270833
 30
0.0
 10
2.600958930121528
 20
-4.400105794270833
 30
0.0
 10
2.635633680555555
 20
-4.39337158203125
 30
0.0
 10
2.635633680555555
 20
-4.39337158203125
 30
0.0
 10
2.635633680555555
 20
-4.39337158203125
 30
0.0
 10
2.636847601996528
 20
-4.390523274739583
 30
0.0
 10
2.636847601996528
 20
-4.390523274739583
 30
0.0
 10
2.636847601996528
 20
-4.390523274739583
 30
0.0
 10
3.476284450954861
 20
-4.16259765625
 30
0.0
 10
3.476284450954861
 20
-4.16259765625
 30
0.0
 10
3.470038519965278
 20
-4.198086208767361
 30
0.0
 10
3.465732150607639
 20
-4.239006890190972
 30
0.0
 10
3.465732150607639
 20
-4.285610622829861
 30
0.0
 10
3.465732150607639
 20
-4.35577392578125
 30
0.0
 10
3.475151909722222
 20
-4.410257975260416
 30
0.0
 10
3.487575954861111
 20
-4.451673719618055
 30
0.0
 10
3.487575954861111
 20
-4.451673719618055
 30
0.0
 10
2.547044542100694
 20
-4.648417154947916
 30
0.0
 10
2.547044542100694
 20
-4.648417154947916
 30
0.0
 10
2.522115071614583
 20
-4.6182861328125
 30
0.0
 10
2.488416883680555
 20
-4.554958767361111
 30
0.0
 10
2.525682237413194
 20
-4.458407931857638
 30
0.0
  0
SPLINE
  5
6F
330
1F
100
AcDbEntity
  8
Layer 1
370
     0
100
AcDbSpline
210
0.0
220
0.0
230
1.0
 70
    11
 71
     3
 72
    23
 73
    19
 74
     0
 42
0.0000000001
 43
0.0000000001
 40
0.0
 40
0.0
 40
0.0
 40
0.0
 40
1.0
 40
1.0
 40
1.0
 40
2.0
 40
2.0
 40
2.0
 40
3.0
 40
3.0
 40
3.0
 40
4.0
 40
4.0
 40
4.0
 40
5.0
 40
5.0
 40
5.0
 40
6.0
 40
6.0
 40
6.0
 40
6.0
 10
2.556294759114583
 20
-7.529446072048611
 30
0.0
 10
2.556294759114583
 20
-7.529446072048611
 30
0.0
 10
3.500651041666667
 20
-7.452053493923611
 30
0.0
 10
3.500651041666667
 20
-7.452053493923611
 30
0.0
 10
3.495123969184028
 20
-7.495591905381944
 30
0.0
 10
3.492201063368055
 20
-7.5491943359375
 30
0.0
 10
3.496914333767361
 20
-7.612684461805555
 30
0.0
 10
3.502753363715278
 20
-7.691433376736111
 30
0.0
 10
3.522250705295139
 20
-7.758992513020833
 30
0.0
 10
3.543117947048611
 20
-7.811211480034721
 30
0.0
 10
3.543117947048611
 20
-7.811211480034721
 30
0.0
 10
2.597391764322917
 20
-7.8331298828125
 30
0.0
 10
2.597391764322917
 20
-7.8331298828125
 30
0.0
 10
2.573832194010417
 20
-7.812594943576388
 30
0.0
 10
2.529100206163194
 20
-7.7645263671875
 30
0.0
 10
2.523735894097222
 20
-7.689900716145833
 30
0.0
 10
2.516920301649305
 20
-7.59912109375
 30
0.0
 10
2.541598849826389
 20
-7.550008138020833
 30
0.0
 10
2.556294759114583
 20
-7.529446072048611
 30
0.0
  0
POLYLINE
  5
70
330
1F
100
AcDbEntity
  8
Layer 1
370
     0
100
AcDb2dPolyline
 66
     1
 10
0.0
 20
0.0
 30
0.0
  0
VERTEX
  5
71
330
70
100
AcDbEntity
  8
Layer 1
370
     0
100
AcDbVertex
100
AcDb2dVertex
 10
2.679802788628472
 20
-7.963460286458333
 30
0.0
  0
VERTEX
  5
72
330
70
100
AcDbEntity
  8
Layer 1
370
     0
100
AcDbVertex
100
AcDb2dVertex
 10
3.598646375868055
 20
-7.942355685763888
 30
0.0
  0
VERTEX
  5
73
330
70
100
AcDbEntity
  8
Layer 1
370
     0
100
AcDbVertex
100
AcDb2dVertex
 10
3.744249131944444
 20
-8.767320421006945
 30
0.0
  0
VERTEX
  5
74
330
70
100
AcDbEntity
  8
Layer 1
370
     0
100
AcDbVertex
100
AcDb2dVertex
 10
3.076137966579861
 20
-8.78835720486111
 30
0.0
  0
VERTEX
  5
75
330
70
100
AcDbEntity
  8
Layer 1
370
     0
100
AcDbVertex
100
AcDb2dVertex
 10
2.679802788628472
 20
-7.963460286458333
 30
0.0
  0
SEQEND
  5
76
330
70
100
AcDbEntity
  8
Layer 1
370
     0
  0
SPLINE
  5
77
330
1F
100
AcDbEntity
  8
Layer 1
370
     0
100
AcDbSpline
210
0.0
220
0.0
230
1.0
 70
    11
 71
     3
 72
    23
 73
    19
 74
     0
 42
0.0000000001
 43
0.0000000001
 40
0.0
 40
0.0
 40
0.0
 40
0.0
 40
1.0
 40
1.0
 40
1.0
 40
2.0
 40
2.0
 40
2.0
 40
3.0
 40
3.0
 40
3.0
 40
4.0
 40
4.0
 40
4.0
 40
5.0
 40
5.0
 40
5.0
 40
6.0
 40
6.0
 40
6.0
 40
6.0
 10
3.060953776041667
 20
-8.921278211805555
 30
0.0
 10
3.060953776041667
 20
-8.921278211805555
 30
0.0
 10
3.705837673611111
 20
-8.90090603298611
 30
0.0
 10
3.705837673611111
 20
-8.90090603298611
 30
0.0
 10
3.691060384114583
 20
-8.939887152777777
 30
0.0
 10
3.67919921875
 20
-8.989664713541666
 30
0.0
 10
3.677090115017361
 20
-9.051920572916666
 30
0.0
 10
3.674004448784722
 20
-9.126071506076388
 30
0.0
 10
3.684075249565972
 20
-9.186143663194445
 30
0.0
 10
3.697313096788194
 20
-9.232462565104166
 30
0.0
 10
3.697313096788194
 20
-9.232462565104166
 30
0.0
 10
3.080030653211805
 20
-9.242838541666666
 30
0.0
 10
3.080030653211805
 20
-9.242838541666666
 30
0.0
 10
3.059163411458333
 20
-9.225640190972221
 30
0.0
 10
3.017754448784722
 20
-9.1812744140625
 30
0.0
 10
3.014424641927083
 20
-9.095472547743055
 30
0.0
 10
3.010199652777778
 20
-8.992662217881945
 30
0.0
 10
3.043653700086805
 20
-8.940958658854166
 30
0.0
 10
3.060953776041667
 20
-8.921278211805555
 30
0.0
  0
SPLINE
  5
78
330
1F
100
AcDbEntity
  8
Layer 1
370
     0
100
AcDbSpline
210
0.0
220
0.0
230
1.0
 70
    11
 71
     3
 72
    20
 73
    16
 74
     0
 42
0.0000000001
 43
0.0000000001
 40
0.0
 40
0.0
 40
0.0
 40
0.0
 40
1.0
 40
1.0
 40
1.0
 40
2.0
 40
2.0
 40
2.0
 40
3.0
 40
3.0
 40
3.0
 40
4.0
 40
4.0
 40
4.0
 40
5.0
 40
5.0
 40
5.0
 40
5.0
 10
3.260219997829861
 20
-9.981662326388888
 30
0.0
 10
3.063713921440972
 20
-9.740519205729166
 30
0.0
 10
3.090671115451389
 20
-9.477579752604166
 30
0.0
 10
3.111945258246528
 20
-9.37453884548611
 30
0.0
 10
3.111945258246528
 20
-9.37453884548611
 30
0.0
 10
3.726949055989583
 20
-9.364325629340277
 30
0.0
 10
3.726949055989583
 20
-9.364325629340277
 30
0.0
 10
3.716634114583333
 20
-9.489203559027777
 30
0.0
 10
3.701205783420139
 20
-9.75439453125
 30
0.0
 10
3.741238064236111
 20
-9.90371365017361
 30
0.0
 10
3.7735595703125
 20
-10.02553982204861
 30
0.0
 10
3.917283799913194
 20
-10.39351399739583
 30
0.0
 10
4.01885986328125
 20
-10.64822048611111
 30
0.0
 10
3.916388617621528
 20
-10.57562934027778
 30
0.0
 10
3.492445203993055
 20
-10.26652018229167
 30
0.0
 10
3.260219997829861
 20
-9.981662326388888
 30
0.0
  0
SPLINE
  5
79
330
1F
100
AcDbEntity
  8
Layer 1
370
     0
100
AcDbSpline
210
0.0
220
0.0
230
1.0
 70
    11
 71
     3
 72
    14
 73
    10
 74
     0
 42
0.0000000001
 43
0.0000000001
 40
0.0
 40
0.0
 40
0.0
 40
0.0
 40
1.0
 40
1.0
 40
1.0
 40
2.0
 40
2.0
 40
2.0
 40
3.0
 40
3.0
 40
3.0
 40
3.0
 10
4.270250108506945
 20
-11.56953938802083
 30
0.0
 10
4.270250108506945
 20
-11.5675048828125
 30
0.0
 10
4.272121853298611
 20
-11.56589084201389
 30
0.0
 10
4.274074978298611
 20
-11.56589084201389
 30
0.0
 10
4.276014539930555
 20
-11.56589084201389
 30
0.0
 10
4.277560763888888
 20
-11.5675048828125
 30
0.0
 10
4.277560763888888
 20
-11.56953938802083
 30
0.0
 10
4.277560763888888
 20
-11.57359483506944
 30
0.0
 10
4.270250108506945
 20
-11.57359483506944
 30
0.0
 10
4.270250108506945
 20
-11.56953938802083
 30
0.0
  0
SPLINE
  5
7A
330
1F
100
AcDbEntity
  8
Layer 1
370
     0
100
AcDbSpline
210
0.0
220
0.0
230
1.0
 70
    11
 71
     3
 72
    20
 73
    16
 74
     0
 42
0.0000000001
 43
0.0000000001
 40
0.0
 40
0.0
 40
0.0
 40
0.0
 40
1.0
 40
1.0
 40
1.0
 40
2.0
 40
2.0
 40
2.0
 40
3.0
 40
3.0
 40
3.0
 40
4.0
 40
4.0
 40
4.0
 40
5.0
 40
5.0
 40
5.0
 40
5.0
 10
5.28759765625
 20
-9.981662326388888
 30
0.0
 10
5.055460611979166
 20
-10.26652018229167
 30
0.0
 10
4.631429036458333
 20
-10.57562934027778
 30
0.0
 10
4.529201931423611
 20
-10.64822048611111
 30
0.0
 10
4.630615234375
 20
-10.39351399739583
 30
0.0
 10
4.774169921875
 20
-10.02534993489583
 30
0.0
 10
4.806830512152778
 20
-9.90371365017361
 30
0.0
 10
4.846693250868055
 20
-9.75439453125
 30
0.0
 10
4.831258138020833
 20
-9.489203559027777
 30
0.0
 10
4.821194118923611
 20
-9.364325629340277
 30
0.0
 10
4.821194118923611
 20
-9.364325629340277
 30
0.0
 10
5.436279296875
 20
-9.37453884548611
 30
0.0
 10
5.436279296875
 20
-9.37453884548611
 30
0.0
 10
5.457139756944444
 20
-9.477579752604166
 30
0.0
 10
5.483954535590278
 20
-9.740519205729166
 30
0.0
 10
5.28759765625
 20
-9.981662326388888
 30
0.0
  0
SPLINE
  5
7B
330
1F
100
AcDbEntity
  8
Layer 1
370
     0
100
AcDbSpline
210
0.0
220
0.0
230
1.0
 70
    11
 71
     3
 72
    23
 73
    19
 74
     0
 42
0.0000000001
 43
0.0000000001
 40
0.0
 40
0.0
 40
0.0
 40
0.0
 40
1.0
 40
1.0
 40
1.0
 40
2.0
 40
2.0
 40
2.0
 40
3.0
 40
3.0
 40
3.0
 40
4.0
 40
4.0
 40
4.0
 40
5.0
 40
5.0
 40
5.0
 40
6.0
 40
6.0
 40
6.0
 40
6.0
 10
5.533718532986111
 20
-9.095472547743055
 30
0.0
 10
5.530232747395833
 20
-9.181613498263888
 30
0.0
 10
5.488416883680555
 20
-9.226114908854166
 30
0.0
 10
5.468126085069444
 20
-9.242838541666666
 30
0.0
 10
5.468126085069444
 20
-9.242838541666666
 30
0.0
 10
4.850816514756944
 20
-9.232462565104166
 30
0.0
 10
4.850816514756944
 20
-9.232462565104166
 30
0.0
 10
4.864000108506944
 20
-9.186143663194445
 30
0.0
 10
4.873819986979166
 20
-9.12624782986111
 30
0.0
 10
4.8709716796875
 20
-9.051920572916666
 30
0.0
 10
4.868611653645833
 20
-8.989664713541666
 30
0.0
 10
4.857001410590278
 20
-8.939887152777777
 30
0.0
 10
4.842366536458333
 20
-8.90090603298611
 30
0.0
 10
4.842366536458333
 20
-8.90090603298611
 30
0.0
 10
5.486612955729166
 20
-8.921278211805555
 30
0.0
 10
5.486612955729166
 20
-8.921278211805555
 30
0.0
 10
5.504733615451388
 20
-8.941514756944445
 30
0.0
 10
5.537773980034722
 20
-8.992987738715277
 30
0.0
 10
5.533718532986111
 20
-9.095472547743055
 30
0.0
  0
POLYLINE
  5
7C
330
1F
100
AcDbEntity
  8
Layer 1
370
     0
100
AcDb2dPolyline
 66
     1
 10
0.0
 20
0.0
 30
0.0
  0
VERTEX
  5
7D
330
7C
100
AcDbEntity
  8
Layer 1
370
     0
100
AcDbVertex
100
AcDb2dVertex
 10
5.4716796875
 20
-8.78835720486111
 30
0.0
  0
VERTEX
  5
7E
330
7C
100
AcDbEntity
  8
Layer 1
370
     0
100
AcDbVertex
100
AcDb2dVertex
 10
4.803805881076388
 20
-8.767496744791666
 30
0.0
  0
VERTEX
  5
7F
330
7C
100
AcDbEntity
  8
Layer 1
370
     0
100
AcDbVertex
100
AcDb2dVertex
 10
4.949490017361111
 20
-7.942355685763888
 30
0.0
  0
VERTEX
  5
80
330
7C
100
AcDbEntity
  8
Layer 1
370
     0
100
AcDbVertex
100
AcDb2dVertex
 10
5.8681640625
 20
-7.963460286458333
 30
0.0
  0
VERTEX
  5
81
330
7C
100
AcDbEntity
  8
Layer 1
370
     0
100
AcDbVertex
100
AcDb2dVertex
 10
5.4716796875
 20
-8.78835720486111
 30
0.0
  0
SEQEND
  5
82
330
7C
100
AcDbEntity
  8
Layer 1
370
     0
  0
SPLINE
  5
83
330
1F
100
AcDbEntity
  8
Layer 1
370
     0
100
AcDbSpline
210
0.0
220
0.0
230
1.0
 70
    11
 71
     3
 72
    23
 73
    19
 74
     0
 42
0.0000000001
 43
0.0000000001
 40
0.0
 40
0.0
 40
0.0
 40
0.0
 40
1.0
 40
1.0
 40
1.0
 40
2.0
 40
2.0
 40
2.0
 40
3.0
 40
3.0
 40
3.0
 40
4.0
 40
4.0
 40
4.0
 40
5.0
 40
5.0
 40
5.0
 40
6.0
 40
6.0
 40
6.0
 40
6.0
 10
6.024305555555555
 20
-7.689900716145833
 30
0.0
 10
6.018622504340278
 20
-7.7647705078125
 30
0.0
 10
5.974148220486111
 20
-7.812757703993055
 30
0.0
 10
5.950900607638888
 20
-7.8331298828125
 30
0.0
 10
5.950900607638888
 20
-7.8331298828125
 30
0.0
 10
5.004787868923611
 20
-7.811211480034721
 30
0.0
 10
5.004787868923611
 20
-7.811211480034721
 30
0.0
 10
5.025634765625
 20
-7.758992513020833
 30
0.0
 10
5.045233832465278
 20
-7.691433376736111
 30
0.0
 10
5.051133897569444
 20
-7.612684461805555
 30
0.0
 10
5.055528428819444
 20
-7.548936631944444
 30
0.0
 10
5.052951388888888
 20
-7.495591905381944
 30
0.0
 10
5.047336154513888
 20
-7.452053493923611
 30
0.0
 10
5.047336154513888
 20
-7.452053493923611
 30
0.0
 10
5.991197374131944
 20
-7.529446072048611
 30
0.0
 10
5.991197374131944
 20
-7.529446072048611
 30
0.0
 10
6.006442599826388
 20
-7.550726996527778
 30
0.0
 10
6.0311279296875
 20
-7.599772135416666
 30
0.0
 10
6.024305555555555
 20
-7.689900716145833
 30
0.0
  0
SPLINE
  5
84
330
1F
100
AcDbEntity
  8
Layer 1
370
     0
100
AcDbSpline
210
0.0
220
0.0
230
1.0
 70
    11
 71
     3
 72
    29
 73
    25
 74
     0
 42
0.0000000001
 43
0.0000000001
 40
0.0
 40
0.0
 40
0.0
 40
0.0
 40
1.0
 40
1.0
 40
1.0
 40
2.0
 40
2.0
 40
2.0
 40
3.0
 40
3.0
 40
3.0
 40
4.0
 40
4.0
 40
4.0
 40
5.0
 40
5.0
 40
5.0
 40
6.0
 40
6.0
 40
6.0
 40
7.0
 40
7.0
 40
7.0
 40
8.0
 40
8.0
 40
8.0
 40
8.0
 10
6.000759548611111
 20
-4.648417154947916
 30
0.0
 10
6.000759548611111
 20
-4.648417154947916
 30
0.0
 10
5.060329861111111
 20
-4.451673719618055
 30
0.0
 10
5.060329861111111
 20
-4.451673719618055
 30
0.0
 10
5.072835286458333
 20
-4.410257975260416
 30
0.0
 10
5.081990559895833
 20
-4.35577392578125
 30
0.0
 10
5.081990559895833
 20
-4.285610622829861
 30
0.0
 10
5.081990559895833
 20
-4.239006890190972
 30
0.0
 10
5.077935112847222
 20
-4.198086208767361
 30
0.0
 10
5.071763780381944
 20
-4.16259765625
 30
0.0
 10
5.071763780381944
 20
-4.16259765625
 30
0.0
 10
5.911309136284722
 20
-4.390523274739583
 30
0.0
 10
5.911309136284722
 20
-4.390523274739583
 30
0.0
 10
5.911309136284722
 20
-4.390523274739583
 30
0.0
 10
5.912258572048611
 20
-4.39337158203125
 30
0.0
 10
5.912258572048611
 20
-4.39337158203125
 30
0.0
 10
5.912258572048611
 20
-4.39337158203125
 30
0.0
 10
5.947035047743055
 20
-4.400105794270833
 30
0.0
 10
5.947035047743055
 20
-4.400105794270833
 30
0.0
 10
5.947577582465278
 20
-4.4005126953125
 30
0.0
 10
6.005154079861111
 20
-4.413506401909722
 30
0.0
 10
6.0224609375
 20
-4.458407931857638
 30
0.0
 10
6.059556749131944
 20
-4.555365668402778
 30
0.0
 10
6.025377061631944
 20
-4.618693033854166
 30
0.0
 10
6.000759548611111
 20
-4.648417154947916
 30
0.0
  0
ENDSEC
  0
SECTION
  2
OBJECTS
  0
DICTIONARY
  5
C
330
0
100
AcDbDictionary
281
     1
  3
ACAD_GROUP
350
D
  3
ACAD_LAYOUT
350
1A
  3
ACAD_MLINESTYLE
350
17
  3
ACAD_PLOTSETTINGS
350
19
  3
ACAD_PLOTSTYLENAME
350
E
  3
ACAD_TABLESTYLE
350
85
  3
ACAD_VISUALSTYLE
350
2A
  0
DICTIONARY
  5
D
102
{ACAD_REACTORS
330
C
102
}
330
C
100
AcDbDictionary
281
     1
  0
DICTIONARY
  5
1A
102
{ACAD_REACTORS
330
C
102
}
330
C
100
AcDbDictionary
281
     1
  3
Layout1
350
1E
  3
Layout2
350
26
  3
Model
350
22
  0
DICTIONARY
  5
17
102
{ACAD_REACTORS
330
C
102
}
330
C
100
AcDbDictionary
281
     1
  3
Standard
350
18
  0
DICTIONARY
  5
19
102
{ACAD_REACTORS
330
C
102
}
330
C
100
AcDbDictionary
281
     1
  0
ACDBDICTIONARYWDFLT
  5
E
102
{ACAD_REACTORS
330
C
102
}
330
C
100
AcDbDictionary
281
     1
  3
Normal
350
F
100
AcDbDictionaryWithDefault
340
F
  0
DICTIONARY
  5
85
102
{ACAD_REACTORS
330
C
102
}
330
C
100
AcDbDictionary
281
     1
  0
DICTIONARY
  5
2A
102
{ACAD_REACTORS
330
C
102
}
330
C
100
AcDbDictionary
281
     1
  3
2dWireframe
350
2F
  3
3D Hidden
350
31
  3
3dWireframe
350
30
  3
Basic
350
32
  3
Brighten
350
36
  3
ColorChange
350
3A
  3
Conceptual
350
34
  3
Dim
350
35
  3
Facepattern
350
39
  3
Flat
350
2B
  3
FlatWithEdges
350
2C
  3
Gouraud
350
2D
  3
GouraudWithEdges
350
2E
  3
Linepattern
350
38
  3
Realistic
350
33
  3
Thicken
350
37
  0
LAYOUT
  5
1E
102
{ACAD_REACTORS
330
1A
102
}
330
1A
100
AcDbPlotSettings
  1

  2
none_device
  4

  6

 40
0.0
 41
0.0
 42
0.0
 43
0.0
 44
0.0
 45
0.0
 46
0.0
 47
0.0
 48
0.0
 49
0.0
140
0.0
141
0.0
142
1.0
143
1.0
 70
   688
 72
     0
 73
     0
 74
     5
  7

 75
    16
 76
     0
 77
     2
 78
   300
147
1.0
148
0.0
149
0.0
100
AcDbLayout
  1
Layout1
 70
     1
 71
     1
 10
0.0
 20
0.0
 11
12.0
 21
9.0
 12
0.0
 22
0.0
 32
0.0
 14
1.000000000000000E+20
 24
1.000000000000000E+20
 34
1.000000000000000E+20
 15
-1.000000000000000E+20
 25
-1.000000000000000E+20
 35
-1.000000000000000E+20
146
0.0
 13
0.0
 23
0.0
 33
0.0
 16
1.0
 26
0.0
 36
0.0
 17
0.0
 27
1.0
 37
0.0
 76
     0
330
1B
  0
LAYOUT
  5
26
102
{ACAD_REACTORS
330
1A
102
}
330
1A
100
AcDbPlotSettings
  1

  2
none_device
  4

  6

 40
0.0
 41
0.0
 42
0.0
 43
0.0
 44
0.0
 45
0.0
 46
0.0
 47
0.0
 48
0.0
 49
0.0
140
0.0
141
0.0
142
1.0
143
1.0
 70
   688
 72
     0
 73
     0
 74
     5
  7

 75
    16
 76
     0
 77
     2
 78
   300
147
1.0
148
0.0
149
0.0
100
AcDbLayout
  1
Layout2
 70
     1
 71
     2
 10
0.0
 20
0.0
 11
0.0
 21
0.0
 12
0.0
 22
0.0
 32
0.0
 14
0.0
 24
0.0
 34
0.0
 15
0.0
 25
0.0
 35
0.0
146
0.0
 13
0.0
 23
0.0
 33
0.0
 16
1.0
 26
0.0
 36
0.0
 17
0.0
 27
1.0
 37
0.0
 76
     0
330
23
  0
LAYOUT
  5
22
102
{ACAD_REACTORS
330
1A
102
}
330
1A
100
AcDbPlotSettings
  1

  2
none_device
  4

  6

 40
0.0
 41
0.0
 42
0.0
 43
0.0
 44
0.0
 45
0.0
 46
0.0
 47
0.0
 48
0.0
 49
0.0
140
0.0
141
0.0
142
1.0
143
1.0
 70
  1712
 72
     0
 73
     0
 74
     0
  7

 75
     0
 76
     0
 77
     2
 78
   300
147
1.0
148
0.0
149
0.0
100
AcDbLayout
  1
Model
 70
     1
 71
     0
 10
0.0
 20
0.0
 11
12.0
 21
9.0
 12
0.0
 22
0.0
 32
0.0
 14
1.000000000000000E+20
 24
1.000000000000000E+20
 34
1.000000000000000E+20
 15
-1.000000000000000E+20
 25
-1.000000000000000E+20
 35
-1.000000000000000E+20
146
0.0
 13
0.0
 23
0.0
 33
0.0
 16
1.0
 26
0.0
 36
0.0
 17
0.0
 27
1.0
 37
0.0
 76
     0
330
1F
331
29
  0
MLINESTYLE
  5
18
102
{ACAD_REACTORS
330
17
102
}
330
17
100
AcDbMlineStyle
  2
Standard
 70
     0
  3

 62
   256
 51
90.0
 52
90.0
 71
     2
 49
0.5
 62
   256
  6
BYLAYER
 49
-0.5
 62
   256
  6
BYLAYER
  0
ACDBPLACEHOLDER
  5
F
102
{ACAD_REACTORS
330
E
102
}
330
E
  0
VISUALSTYLE
  5
2F
102
{ACAD_REACTORS
330
2A
102
}
330
2A
100
AcDbVisualStyle
  2
2dWireframe
 70
     4
 71
     0
 72
     2
 73
     0
 90
        0
 40
-0.6
 41
-30.0
 62
     5
 63
     7
421
 16777215
 74
     1
 91
        4
 64
     7
 65
   257
 75
     1
175
     1
 42
1.0
 92
        0
 66
   257
 43
1.0
 76
     1
 77
     6
 78
     2
 67
     7
 79
     5
170
     0
171
     0
290
     0
174
     0
 93
        1
 44
0.0
173
     0
291
     0
 45
0.0
1001
ACAD
1000
AcDbSavedByObjectVersion
1070
     0
  0
VISUALSTYLE
  5
31
102
{ACAD_REACTORS
330
2A
102
}
330
2A
100
AcDbVisualStyle
  2
3D Hidden
 70
     6
 71
     1
 72
     2
 73
     2
 90
        0
 40
-0.6
 41
-30.0
 62
     5
 63
     7
421
 16777215
 74
     2
 91
        2
 64
     7
 65
   257
 75
     2
175
     1
 42
40.0
 92
        0
 66
   257
 43
1.0
 76
     1
 77
     6
 78
     2
 67
     7
 79
     3
170
     0
171
     0
290
     0
174
     0
 93
        1
 44
0.0
173
     0
291
     0
 45
0.0
1001
ACAD
1000
AcDbSavedByObjectVersion
1070
     0
  0
VISUALSTYLE
  5
30
102
{ACAD_REACTORS
330
2A
102
}
330
2A
100
AcDbVisualStyle
  2
3dWireframe
 70
     5
 71
     0
 72
     2
 73
     0
 90
        0
 40
-0.6
 41
-30.0
 62
     5
 63
     7
421
 16777215
 74
     1
 91
        4
 64
     7
 65
   257
 75
     1
175
     1
 42
1.0
 92
        0
 66
   257
 43
1.0
 76
     1
 77
     6
 78
     2
 67
     7
 79
     5
170
     0
171
     0
290
     0
174
     0
 93
        1
 44
0.0
173
     0
291
     0
 45
0.0
1001
ACAD
1000
AcDbSavedByObjectVersion
1070
     0
  0
VISUALSTYLE
  5
32
102
{ACAD_REACTORS
330
2A
102
}
330
2A
100
AcDbVisualStyle
  2
Basic
 70
     7
 71
     1
 72
     0
 73
     1
 90
        0
 40
-0.6
 41
-30.0
 62
     5
 63
     7
421
 16777215
 74
     0
 91
        4
 64
     7
 65
   257
 75
     1
175
     1
 42
1.0
 92
        8
 66
     7
 43
1.0
 76
     1
 77
     6
 78
     2
 67
     7
 79
     5
170
     0
171
     0
290
     0
174
     0
 93
        1
 44
0.0
173
     0
291
     1
 45
0.0
1001
ACAD
1000
AcDbSavedByObjectVersion
1070
     0
  0
VISUALSTYLE
  5
36
102
{ACAD_REACTORS
330
2A
102
}
330
2A
100
AcDbVisualStyle
  2
Brighten
 70
    12
 71
     2
 72
     2
 73
     0
 90
        0
 40
-0.6
 41
-30.0
 62
     5
 63
     7
421
 16777215
 74
     1
 91
        4
 64
     7
 65
   257
 75
     1
175
     1
 42
1.0
 92
        8
 66
     7
 43
1.0
 76
     1
 77
     6
 78
     2
 67
     7
 79
     5
170
     0
171
     0
290
     0
174
     0
 93
        1
 44
50.0
173
     0
291
     1
 45
0.0
1001
ACAD
1000
AcDbSavedByObjectVersion
1070
     0
  0
VISUALSTYLE
  5
3A
102
{ACAD_REACTORS
330
2A
102
}
330
2A
100
AcDbVisualStyle
  2
ColorChange
 70
    16
 71
     2
 72
     2
 73
     3
 90
        0
 40
-0.6
 41
-30.0
 62
     5
 63
     8
421
  8421504
 74
     1
 91
        4
 64
     7
 65
   257
 75
     1
175
     1
 42
1.0
 92
        8
 66
     8
424
  8421504
 43
1.0
 76
     1
 77
     6
 78
     2
 67
     7
 79
     5
170
     0
171
     0
290
     0
174
     0
 93
        1
 44
0.0
173
     0
291
     1
 45
0.0
1001
ACAD
1000
AcDbSavedByObjectVersion
1070
     0
  0
VISUALSTYLE
  5
34
102
{ACAD_REACTORS
330
2A
102
}
330
2A
100
AcDbVisualStyle
  2
Conceptual
 70
     9
 71
     3
 72
     2
 73
     0
 90
        0
 40
-0.6
 41
-30.0
 62
     5
 63
     7
421
 16777215
 74
     2
 91
        2
 64
     7
 65
   257
 75
     1
175
     1
 42
40.0
 92
        8
 66
     7
 43
1.0
 76
     1
 77
     6
 78
     2
 67
     7
 79
     3
170
     0
171
     0
290
     0
174
     0
 93
        1
 44
0.0
173
     0
291
     0
 45
0.0
1001
ACAD
1000
AcDbSavedByObjectVersion
1070
     0
  0
VISUALSTYLE
  5
35
102
{ACAD_REACTORS
330
2A
102
}
330
2A
100
AcDbVisualStyle
  2
Dim
 70
    11
 71
     2
 72
     2
 73
     0
 90
        0
 40
-0.6
 41
-30.0
 62
     5
 63
     7
421
 16777215
 74
     1
 91
        4
 64
     7
 65
   257
 75
     1
175
     1
 42
1.0
 92
        8
 66
     7
 43
1.0
 76
     1
 77
     6
 78
     2
 67
     7
 79
     5
170
     0
171
     0
290
     0
174
     0
 93
        1
 44
-50.0
173
     0
291
     1
 45
0.0
1001
ACAD
1000
AcDbSavedByObjectVersion
1070
     0
  0
VISUALSTYLE
  5
39
102
{ACAD_REACTORS
330
2A
102
}
330
2A
100
AcDbVisualStyle
  2
Facepattern
 70
    15
 71
     2
 72
     2
 73
     0
 90
        0
 40
-0.6
 41
-30.0
 62
     5
 63
     7
421
 16777215
 74
     1
 91
        4
 64
     7
 65
   257
 75
     1
175
     1
 42
1.0
 92
        8
 66
     7
 43
1.0
 76
     1
 77
     6
 78
     2
 67
     7
 79
     5
170
     0
171
     0
290
     0
174
     0
 93
        1
 44
0.0
173
     0
291
     1
 45
0.0
1001
ACAD
1000
AcDbSavedByObjectVersion
1070
     0
  0
VISUALSTYLE
  5
2B
102
{ACAD_REACTORS
330
2A
102
}
330
2A
100
AcDbVisualStyle
  2
Flat
 70
     0
 71
     2
 72
     1
 73
     1
 90
        2
 40
-0.6
 41
30.0
 62
     5
 63
     7
421
 16777215
 74
     0
 91
        4
 64
     7
 65
   257
 75
     1
175
     1
 42
1.0
 92
        8
 66
     7
 43
1.0
 76
     1
 77
     6
 78
     2
 67
     7
 79
     5
170
     0
171
     0
290
     0
174
     0
 93
       13
 44
0.0
173
     0
291
     1
 45
0.0
1001
ACAD
1000
AcDbSavedByObjectVersion
1070
     0
  0
VISUALSTYLE
  5
2C
102
{ACAD_REACTORS
330
2A
102
}
330
2A
100
AcDbVisualStyle
  2
FlatWithEdges
 70
     1
 71
     2
 72
     1
 73
     1
 90
        2
 40
-0.6
 41
30.0
 62
     5
 63
     7
421
 16777215
 74
     1
 91
        4
 64
     7
 65
   257
 75
     1
175
     1
 42
1.0
 92
        0
 66
   257
 43
1.0
 76
     1
 77
     6
 78
     2
 67
     7
 79
     5
170
     0
171
     0
290
     0
174
     0
 93
       13
 44
0.0
173
     0
291
     1
 45
0.0
1001
ACAD
1000
AcDbSavedByObjectVersion
1070
     0
  0
VISUALSTYLE
  5
2D
102
{ACAD_REACTORS
330
2A
102
}
330
2A
100
AcDbVisualStyle
  2
Gouraud
 70
     2
 71
     2
 72
     2
 73
     1
 90
        2
 40
-0.6
 41
30.0
 62
     5
 63
     7
421
 16777215
 74
     0
 91
        4
 64
     7
 65
   257
 75
     1
175
     1
 42
1.0
 92
        0
 66
     7
 43
1.0
 76
     1
 77
     6
 78
     2
 67
     7
 79
     5
170
     0
171
     0
290
     0
174
     0
 93
       13
 44
0.0
173
     0
291
     1
 45
0.0
1001
ACAD
1000
AcDbSavedByObjectVersion
1070
     0
  0
VISUALSTYLE
  5
2E
102
{ACAD_REACTORS
330
2A
102
}
330
2A
100
AcDbVisualStyle
  2
GouraudWithEdges
 70
     3
 71
     2
 72
     2
 73
     1
 90
        2
 40
-0.6
 41
30.0
 62
     5
 63
     7
421
 16777215
 74
     1
 91
        4
 64
     7
 65
   257
 75
     1
175
     1
 42
1.0
 92
        0
 66
   257
 43
1.0
 76
     1
 77
     6
 78
     2
 67
     7
 79
     5
170
     0
171
     0
290
     0
174
     0
 93
       13
 44
0.0
173
     0
291
     1
 45
0.0
1001
ACAD
1000
AcDbSavedByObjectVersion
1070
     0
  0
VISUALSTYLE
  5
38
102
{ACAD_REACTORS
330
2A
102
}
330
2A
100
AcDbVisualStyle
  2
Linepattern
 70
    14
 71
     2
 72
     2
 73
     0
 90
        0
 40
-0.6
 41
-30.0
 62
     5
 63
     7
421
 16777215
 74
     1
 91
        4
 64
     7
 65
   257
 75
     7
175
     7
 42
1.0
 92
        8
 66
     7
 43
1.0
 76
     1
 77
     6
 78
     2
 67
     7
 79
     5
170
     0
171
     0
290
     0
174
     0
 93
        1
 44
0.0
173
     0
291
     1
 45
0.0
1001
ACAD
1000
AcDbSavedByObjectVersion
1070
     0
  0
VISUALSTYLE
  5
33
102
{ACAD_REACTORS
330
2A
102
}
330
2A
100
AcDbVisualStyle
  2
Realistic
 70
     8
 71
     2
 72
     2
 73
     0
 90
        0
 40
-0.6
 41
-30.0
 62
     5
 63
     7
421
 16777215
 74
     1
 91
        0
 64
     7
 65
   257
 75
     1
175
     1
 42
1.0
 92
        8
 66
     8
424
  7895160
 43
1.0
 76
     1
 77
     6
 78
     2
 67
     7
 79
     5
170
     0
171
     0
290
     0
174
     0
 93
       13
 44
0.0
173
     0
291
     0
 45
0.0
1001
ACAD
1000
AcDbSavedByObjectVersion
1070
     0
  0
VISUALSTYLE
  5
37
102
{ACAD_REACTORS
330
2A
102
}
330
2A
100
AcDbVisualStyle
  2
Thicken
 70
    13
 71
     2
 72
     2
 73
     0
 90
        0
 40
-0.6
 41
-30.0
 62
     5
 63
     7
421
 16777215
 74
     1
 91
        4
 64
     7
 65
   257
 75
     1
175
     1
 42
1.0
 92
       12
 66
     7
 43
1.0
 76
     1
 77
     6
 78
     2
 67
     7
 79
     5
170
     0
171
     0
290
     0
174
     0
 93
        1
 44
0.0
173
     0
291
     1
 45
0.0
1001
ACAD
1000
AcDbSavedByObjectVersion
1070
     0
  0
ENDSEC
  0
EOF
