<?xml version="1.0" encoding="utf-8"?>
<!-- Generator: Adobe Illustrator 16.0.0, SVG Export Plug-In . SVG Version: 6.00 Build 0)  -->
<!DOCTYPE svg PUBLIC "-//W3C//DTD SVG 1.1//EN" "http://www.w3.org/Graphics/SVG/1.1/DTD/svg11.dtd">
<svg version="1.1" id="Layer_1" xmlns="http://www.w3.org/2000/svg" xmlns:xlink="http://www.w3.org/1999/xlink" x="0px" y="0px"
	 width="595.28px" height="841.89px" viewBox="0 0 595.28 841.89" enable-background="new 0 0 595.28 841.89" xml:space="preserve">
<linearGradient id="SVGID_1_" gradientUnits="userSpaceOnUse" x1="9.8379" y1="420.0142" x2="587" y2="420.0142">
	<stop  offset="0.0056" style="stop-color:#ECC562"/>
	<stop  offset="1" style="stop-color:#C3922E"/>
</linearGradient>
<path fill="url(#SVGID_1_)" d="M587,840.028H9.838v-455.53h66.838l0.539,0.093c0.069,0.016,0.176,0.016,0.304,0.024
	c-0.323-0.758-0.725-1.508-1.048-2.204c-0.725-1.577-1.538-3.267-2.331-5.089c-0.696-1.567-1.881-3.909-3.262-6.636
	c-7.161-14.117-20.474-40.424-25.803-75.083c-11.901-77.423,10.737-148.787,65.468-206.353C191.25,4.305,278.944,0,295.686,0
	c1.528,0,2.606,0.029,3.32,0.054C299.692,0.029,300.779,0,302.259,0c16.575,0,103.31,4.305,184.058,89.252
	c54.722,57.586,77.35,128.964,65.428,206.353c-5.329,34.703-18.642,60.984-25.802,75.121c-1.382,2.708-2.578,5.03-3.263,6.597
	c-0.784,1.822-1.616,3.527-2.331,5.089c-0.353,0.701-0.706,1.445-1.04,2.204c0.128-0.009,0.256-0.009,0.324-0.024l0.91-0.156
	l0.646,0.063H587V840.028z M36.248,813.633h524.371V410.871h-38.842c-0.675,0.063-1.664,0.126-2.811,0.126
	c-9.061,0-16.731-3.075-21.679-8.645c-10.169-11.458-4.486-23.359-0.803-31.25c0.677-1.376,1.372-2.866,2.115-4.497
	c0.961-2.175,2.195-4.652,3.801-7.777c6.515-12.833,18.584-36.711,23.275-67.23c10.629-69.037-9.609-132.731-58.491-184.175
	c-73.295-77.144-150.242-81.038-164.927-81.038c-1.43,0-2.303,0.04-2.479,0.04l-0.774,0.039l-0.831-0.039
	c-0.107,0-0.971-0.04-2.489-0.04c-14.84,0-92.729,3.894-166.023,81.038c-48.902,51.434-69.14,115.113-58.502,184.185
	c4.673,30.481,16.771,54.369,23.247,67.181c1.587,3.155,2.851,5.643,3.8,7.799c0.745,1.636,1.46,3.129,2.107,4.51
	c3.732,7.882,9.384,19.797-0.764,31.245c-4.947,5.58-12.657,8.655-21.669,8.655c-1.136,0-2.135-0.063-2.841-0.126H36.248V813.633z"
	/>
</svg>
