  0
SECTION
  2
HEADER
  9
$ACADVER
  1
AC1018
  9
$ACADMAINTVER
 70
     0
  9
$DWGCODEPAGE
  3
ANSI_932
  9
$INSBASE
 10
0.0
 20
0.0
 30
0.0
  9
$EXTMIN
 10
1.000000000000000E+20
 20
1.000000000000000E+20
 30
1.000000000000000E+20
  9
$EXTMAX
 10
-1.000000000000000E+20
 20
-1.000000000000000E+20
 30
-1.000000000000000E+20
  9
$LIMMIN
 10
0.0
 20
0.0
  9
$LIMMAX
 10
12.0
 20
9.0
  9
$ORTHOMODE
 70
     0
  9
$REGENMODE
 70
     1
  9
$FILLMODE
 70
     1
  9
$QTEXTMODE
 70
     0
  9
$MIRRTEXT
 70
     1
  9
$LTSCALE
 40
1.0
  9
$ATTMODE
 70
     1
  9
$TEXTSIZE
 40
0.2
  9
$TRACEWID
 40
0.05
  9
$TEXTSTYLE
  7
Standard
  9
$CLAYER
  8
0
  9
$CELTYPE
  6
ByLayer
  9
$CECOLOR
 62
   256
  9
$CELTSCALE
 40
1.0
  9
$DISPSILH
 70
     0
  9
$DIMSCALE
 40
1.0
  9
$DIMASZ
 40
0.18
  9
$DIMEXO
 40
0.0625
  9
$DIMDLI
 40
0.38
  9
$DIMRND
 40
0.0
  9
$DIMDLE
 40
0.0
  9
$DIMEXE
 40
0.18
  9
$DIMTP
 40
0.0
  9
$DIMTM
 40
0.0
  9
$DIMTXT
 40
0.18
  9
$DIMCEN
 40
0.09
  9
$DIMTSZ
 40
0.0
  9
$DIMTOL
 70
     0
  9
$DIMLIM
 70
     0
  9
$DIMTIH
 70
     1
  9
$DIMTOH
 70
     1
  9
$DIMSE1
 70
     0
  9
$DIMSE2
 70
     0
  9
$DIMTAD
 70
     0
  9
$DIMZIN
 70
     0
  9
$DIMBLK
  1

  9
$DIMASO
 70
     1
  9
$DIMSHO
 70
     1
  9
$DIMPOST
  1

  9
$DIMAPOST
  1

  9
$DIMALT
 70
     0
  9
$DIMALTD
 70
     2
  9
$DIMALTF
 40
25.4
  9
$DIMLFAC
 40
1.0
  9
$DIMTOFL
 70
     0
  9
$DIMTVP
 40
0.0
  9
$DIMTIX
 70
     0
  9
$DIMSOXD
 70
     0
  9
$DIMSAH
 70
     0
  9
$DIMBLK1
  1

  9
$DIMBLK2
  1

  9
$DIMSTYLE
  2
Standard
  9
$DIMCLRD
 70
     0
  9
$DIMCLRE
 70
     0
  9
$DIMCLRT
 70
     0
  9
$DIMTFAC
 40
1.0
  9
$DIMGAP
 40
0.09
  9
$DIMJUST
 70
     0
  9
$DIMSD1
 70
     0
  9
$DIMSD2
 70
     0
  9
$DIMTOLJ
 70
     1
  9
$DIMTZIN
 70
     0
  9
$DIMALTZ
 70
     0
  9
$DIMALTTZ
 70
     0
  9
$DIMUPT
 70
     0
  9
$DIMDEC
 70
     4
  9
$DIMTDEC
 70
     4
  9
$DIMALTU
 70
     2
  9
$DIMALTTD
 70
     2
  9
$DIMTXSTY
  7
Standard
  9
$DIMAUNIT
 70
     0
  9
$DIMADEC
 70
     0
  9
$DIMALTRND
 40
0.0
  9
$DIMAZIN
 70
     0
  9
$DIMDSEP
 70
    46
  9
$DIMATFIT
 70
     3
  9
$DIMFRAC
 70
     0
  9
$DIMLDRBLK
  1

  9
$DIMLUNIT
 70
     2
  9
$DIMLWD
 70
    -2
  9
$DIMLWE
 70
    -2
  9
$DIMTMOVE
 70
     0
  9
$LUNITS
 70
     2
  9
$LUPREC
 70
     4
  9
$SKETCHINC
 40
0.1
  9
$FILLETRAD
 40
0.5
  9
$AUNITS
 70
     0
  9
$AUPREC
 70
     0
  9
$MENU
  1
.
  9
$ELEVATION
 40
0.0
  9
$PELEVATION
 40
0.0
  9
$THICKNESS
 40
0.0
  9
$LIMCHECK
 70
     0
  9
$CHAMFERA
 40
0.5
  9
$CHAMFERB
 40
0.5
  9
$CHAMFERC
 40
1.0
  9
$CHAMFERD
 40
0.0
  9
$SKPOLY
 70
     0
  9
$TDCREATE
 40
2460559.693831019
  9
$TDUCREATE
 40
2460559.610497685
  9
$TDUPDATE
 40
2460559.69383103
  9
$TDUUPDATE
 40
2460559.610497697
  9
$TDINDWG
 40
0.0000000116
  9
$TDUSRTIMER
 40
0.0000000116
  9
$USRTIMER
 70
     1
  9
$ANGBASE
 50
0.0
  9
$ANGDIR
 70
     0
  9
$PDMODE
 70
     0
  9
$PDSIZE
 40
0.0
  9
$PLINEWID
 40
0.0
  9
$SPLFRAME
 70
     0
  9
$SPLINETYPE
 70
     6
  9
$SPLINESEGS
 70
     8
  9
$HANDSEED
  5
4E
  9
$SURFTAB1
 70
     6
  9
$SURFTAB2
 70
     6
  9
$SURFTYPE
 70
     6
  9
$SURFU
 70
     6
  9
$SURFV
 70
     6
  9
$UCSBASE
  2

  9
$UCSNAME
  2

  9
$UCSORG
 10
0.0
 20
0.0
 30
0.0
  9
$UCSXDIR
 10
1.0
 20
0.0
 30
0.0
  9
$UCSYDIR
 10
0.0
 20
1.0
 30
0.0
  9
$UCSORTHOREF
  2

  9
$UCSORTHOVIEW
 70
     0
  9
$UCSORGTOP
 10
0.0
 20
0.0
 30
0.0
  9
$UCSORGBOTTOM
 10
0.0
 20
0.0
 30
0.0
  9
$UCSORGLEFT
 10
0.0
 20
0.0
 30
0.0
  9
$UCSORGRIGHT
 10
0.0
 20
0.0
 30
0.0
  9
$UCSORGFRONT
 10
0.0
 20
0.0
 30
0.0
  9
$UCSORGBACK
 10
0.0
 20
0.0
 30
0.0
  9
$PUCSBASE
  2

  9
$PUCSNAME
  2

  9
$PUCSORG
 10
0.0
 20
0.0
 30
0.0
  9
$PUCSXDIR
 10
1.0
 20
0.0
 30
0.0
  9
$PUCSYDIR
 10
0.0
 20
1.0
 30
0.0
  9
$PUCSORTHOREF
  2

  9
$PUCSORTHOVIEW
 70
     0
  9
$PUCSORGTOP
 10
0.0
 20
0.0
 30
0.0
  9
$PUCSORGBOTTOM
 10
0.0
 20
0.0
 30
0.0
  9
$PUCSORGLEFT
 10
0.0
 20
0.0
 30
0.0
  9
$PUCSORGRIGHT
 10
0.0
 20
0.0
 30
0.0
  9
$PUCSORGFRONT
 10
0.0
 20
0.0
 30
0.0
  9
$PUCSORGBACK
 10
0.0
 20
0.0
 30
0.0
  9
$USERI1
 70
     0
  9
$USERI2
 70
     0
  9
$USERI3
 70
     0
  9
$USERI4
 70
     0
  9
$USERI5
 70
     0
  9
$USERR1
 40
0.0
  9
$USERR2
 40
0.0
  9
$USERR3
 40
0.0
  9
$USERR4
 40
0.0
  9
$USERR5
 40
0.0
  9
$WORLDVIEW
 70
     1
  9
$SHADEDGE
 70
     3
  9
$SHADEDIF
 70
    70
  9
$TILEMODE
 70
     1
  9
$MAXACTVP
 70
    64
  9
$PINSBASE
 10
0.0
 20
0.0
 30
0.0
  9
$PLIMCHECK
 70
     0
  9
$PEXTMIN
 10
1.000000000000000E+20
 20
1.000000000000000E+20
 30
1.000000000000000E+20
  9
$PEXTMAX
 10
-1.000000000000000E+20
 20
-1.000000000000000E+20
 30
-1.000000000000000E+20
  9
$PLIMMIN
 10
0.0
 20
0.0
  9
$PLIMMAX
 10
12.0
 20
9.0
  9
$UNITMODE
 70
     0
  9
$VISRETAIN
 70
     1
  9
$PLINEGEN
 70
     0
  9
$PSLTSCALE
 70
     1
  9
$TREEDEPTH
 70
  3020
  9
$CMLSTYLE
  2
Standard
  9
$CMLJUST
 70
     0
  9
$CMLSCALE
 40
1.0
  9
$PROXYGRAPHICS
 70
     1
  9
$MEASUREMENT
 70
     0
  9
$CELWEIGHT
370
    -1
  9
$ENDCAPS
280
     0
  9
$JOINSTYLE
280
     0
  9
$LWDISPLAY
290
     1
  9
$INSUNITS
 70
     1
  9
$HYPERLINKBASE
  1

  9
$STYLESHEET
  1

  9
$XEDIT
290
     1
  9
$CEPSNTYPE
380
     0
  9
$PSTYLEMODE
290
     1
  9
$FINGERPRINTGUID
  2
{8378411B-19F5-4435-0AA2-E2B468883681}
  9
$VERSIONGUID
  2
{FAEB1C32-E019-11D5-929B-00C0DF256EC4}
  9
$EXTNAMES
290
     1
  9
$PSVPSCALE
 40
0.0
  9
$OLESTARTUP
290
     0
  9
$SORTENTS
280
   127
  9
$INDEXCTL
280
     0
  9
$HIDETEXT
280
     1
  9
$XCLIPFRAME
290
     0
  9
$HALOGAP
280
     0
  9
$OBSCOLOR
 70
   257
  9
$OBSLTYPE
280
     0
  9
$INTERSECTIONDISPLAY
280
     0
  9
$INTERSECTIONCOLOR
 70
   257
  9
$DIMASSOC
280
     2
  9
$PROJECTNAME
  1

  0
ENDSEC
  0
SECTION
  2
CLASSES
  0
CLASS
  1
ACDBDICTIONARYWDFLT
  2
AcDbDictionaryWithDefault
  3
ObjectDBX Classes
 90
        0
 91
        3
280
     0
281
     0
  0
CLASS
  1
VISUALSTYLE
  2
AcDbVisualStyle
  3
ObjectDBX Classes
 90
     4095
 91
        3
280
     0
281
     0
  0
ENDSEC
  0
SECTION
  2
TABLES
  0
TABLE
  2
VPORT
  5
8
330
0
100
AcDbSymbolTable
 70
     1
  0
VPORT
  5
29
330
8
100
AcDbSymbolTableRecord
100
AcDbViewportTableRecord
  2
*Active
 70
     0
 10
0.0
 20
0.0
 11
1.0
 21
1.0
 12
0.0
 22
0.0
 13
0.0
 23
0.0
 14
0.5
 24
0.5
 15
0.5
 25
0.5
 16
0.0
 26
0.0
 36
1.0
 17
4.133890787760416
 27
-5.846455891927083
 37
0.0
 40
11.69291178385417
 41
0.7070763662937378
 42
50.0
 43
0.0
 44
0.0
 50
0.0
 51
0.0
 71
     0
 72
   100
 73
     1
 74
     3
 75
     0
 76
     0
 77
     0
 78
     0
281
     0
 65
     1
110
0.0
120
0.0
130
0.0
111
1.0
121
0.0
131
0.0
112
0.0
122
1.0
132
0.0
 79
     0
146
0.0
  0
ENDTAB
  0
TABLE
  2
LTYPE
  5
5
330
0
100
AcDbSymbolTable
 70
     1
  0
LTYPE
  5
14
330
5
100
AcDbSymbolTableRecord
100
AcDbLinetypeTableRecord
  2
ByBlock
 70
     0
  3

 72
    65
 73
     0
 40
0.0
  0
LTYPE
  5
15
330
5
100
AcDbSymbolTableRecord
100
AcDbLinetypeTableRecord
  2
ByLayer
 70
     0
  3

 72
    65
 73
     0
 40
0.0
  0
LTYPE
  5
16
330
5
100
AcDbSymbolTableRecord
100
AcDbLinetypeTableRecord
  2
Continuous
 70
     0
  3
Solid line
 72
    65
 73
     0
 40
0.0
  0
ENDTAB
  0
TABLE
  2
LAYER
  5
2
330
0
100
AcDbSymbolTable
 70
     2
  0
LAYER
  5
10
330
2
100
AcDbSymbolTableRecord
100
AcDbLayerTableRecord
  2
0
 70
     0
 62
     7
  6
Continuous
370
    -3
390
F
  0
LAYER
  5
3B
330
2
100
AcDbSymbolTableRecord
100
AcDbLayerTableRecord
  2
Layer 1
 70
     0
 62
     7
  6
Continuous
370
    -3
390
F
  0
ENDTAB
  0
TABLE
  2
STYLE
  5
3
330
0
100
AcDbSymbolTable
 70
     1
  0
STYLE
  5
11
330
3
100
AcDbSymbolTableRecord
100
AcDbTextStyleTableRecord
  2
Standard
 70
     0
 40
0.0
 41
1.0
 50
0.0
 71
     0
 42
0.2
  3
txt
  4

  0
ENDTAB
  0
TABLE
  2
VIEW
  5
6
330
0
100
AcDbSymbolTable
 70
     0
  0
ENDTAB
  0
TABLE
  2
UCS
  5
7
330
0
100
AcDbSymbolTable
 70
     0
  0
ENDTAB
  0
TABLE
  2
APPID
  5
9
330
0
100
AcDbSymbolTable
 70
     1
  0
APPID
  5
12
330
9
100
AcDbSymbolTableRecord
100
AcDbRegAppTableRecord
  2
ACAD
 70
     0
  0
ENDTAB
  0
TABLE
  2
DIMSTYLE
  5
A
330
0
100
AcDbSymbolTable
 70
     1
100
AcDbDimStyleTable
  0
DIMSTYLE
105
27
330
A
100
AcDbSymbolTableRecord
100
AcDbDimStyleTableRecord
  2
Standard
 70
     0
340
11
  0
ENDTAB
  0
TABLE
  2
BLOCK_RECORD
  5
1
330
0
100
AcDbSymbolTable
 70
     1
  0
BLOCK_RECORD
  5
1F
330
1
100
AcDbSymbolTableRecord
100
AcDbBlockTableRecord
  2
*Model_Space
340
22
  0
BLOCK_RECORD
  5
1B
330
1
100
AcDbSymbolTableRecord
100
AcDbBlockTableRecord
  2
*Paper_Space
340
1E
  0
BLOCK_RECORD
  5
23
330
1
100
AcDbSymbolTableRecord
100
AcDbBlockTableRecord
  2
*Paper_Space0
340
26
  0
ENDTAB
  0
ENDSEC
  0
SECTION
  2
BLOCKS
  0
BLOCK
  5
20
330
1F
100
AcDbEntity
  8
0
100
AcDbBlockBegin
  2
*Model_Space
 70
     0
 71
     0
 10
0.0
 20
0.0
 30
0.0
  3
*Model_Space
  1

  0
ENDBLK
  5
21
330
1F
100
AcDbEntity
  8
0
100
AcDbBlockEnd
  0
BLOCK
  5
1C
330
1B
100
AcDbEntity
 67
     1
  8
0
100
AcDbBlockBegin
  2
*Paper_Space
 70
     0
 71
     0
 10
0.0
 20
0.0
 30
0.0
  3
*Paper_Space
  1

  0
ENDBLK
  5
1D
330
1B
100
AcDbEntity
 67
     1
  8
0
100
AcDbBlockEnd
  0
BLOCK
  5
24
330
23
100
AcDbEntity
  8
0
100
AcDbBlockBegin
  2
*Paper_Space0
 70
     0
 71
     0
 10
0.0
 20
0.0
 30
0.0
  3
*Paper_Space0
  1

  0
ENDBLK
  5
25
330
23
100
AcDbEntity
  8
0
100
AcDbBlockEnd
  0
ENDSEC
  0
SECTION
  2
ENTITIES
  0
SPLINE
  5
3C
330
1F
100
AcDbEntity
  8
Layer 1
370
     0
100
AcDbSpline
210
0.0
220
0.0
230
1.0
 70
    11
 71
     3
 72
   161
 73
   157
 74
     0
 42
0.0000000001
 43
0.0000000001
 40
0.0
 40
0.0
 40
0.0
 40
0.0
 40
1.0
 40
1.0
 40
1.0
 40
2.0
 40
2.0
 40
2.0
 40
3.0
 40
3.0
 40
3.0
 40
4.0
 40
4.0
 40
4.0
 40
5.0
 40
5.0
 40
5.0
 40
6.0
 40
6.0
 40
6.0
 40
7.0
 40
7.0
 40
7.0
 40
8.0
 40
8.0
 40
8.0
 40
9.0
 40
9.0
 40
9.0
 40
10.0
 40
10.0
 40
10.0
 40
11.0
 40
11.0
 40
11.0
 40
12.0
 40
12.0
 40
12.0
 40
13.0
 40
13.0
 40
13.0
 40
14.0
 40
14.0
 40
14.0
 40
15.0
 40
15.0
 40
15.0
 40
16.0
 40
16.0
 40
16.0
 40
17.0
 40
17.0
 40
17.0
 40
18.0
 40
18.0
 40
18.0
 40
19.0
 40
19.0
 40
19.0
 40
20.0
 40
20.0
 40
20.0
 40
21.0
 40
21.0
 40
21.0
 40
22.0
 40
22.0
 40
22.0
 40
23.0
 40
23.0
 40
23.0
 40
24.0
 40
24.0
 40
24.0
 40
25.0
 40
25.0
 40
25.0
 40
26.0
 40
26.0
 40
26.0
 40
27.0
 40
27.0
 40
27.0
 40
28.0
 40
28.0
 40
28.0
 40
29.0
 40
29.0
 40
29.0
 40
30.0
 40
30.0
 40
30.0
 40
31.0
 40
31.0
 40
31.0
 40
32.0
 40
32.0
 40
32.0
 40
33.0
 40
33.0
 40
33.0
 40
34.0
 40
34.0
 40
34.0
 40
35.0
 40
35.0
 40
35.0
 40
36.0
 40
36.0
 40
36.0
 40
37.0
 40
37.0
 40
37.0
 40
38.0
 40
38.0
 40
38.0
 40
39.0
 40
39.0
 40
39.0
 40
40.0
 40
40.0
 40
40.0
 40
41.0
 40
41.0
 40
41.0
 40
42.0
 40
42.0
 40
42.0
 40
43.0
 40
43.0
 40
43.0
 40
44.0
 40
44.0
 40
44.0
 40
45.0
 40
45.0
 40
45.0
 40
46.0
 40
46.0
 40
46.0
 40
47.0
 40
47.0
 40
47.0
 40
48.0
 40
48.0
 40
48.0
 40
49.0
 40
49.0
 40
49.0
 40
50.0
 40
50.0
 40
50.0
 40
51.0
 40
51.0
 40
51.0
 40
52.0
 40
52.0
 40
52.0
 40
52.0
 10
7.001017252604166
 20
-6.325670030381944
 30
0.0
 10
6.968031141493055
 20
-5.720655653211805
 30
0.0
 10
6.685696072048611
 20
-5.394734700520833
 30
0.0
 10
6.443264431423611
 20
-5.17822265625
 30
0.0
 10
6.236043294270833
 20
-4.993292914496528
 30
0.0
 10
6.004679361979166
 20
-4.908420138888888
 30
0.0
 10
5.885647243923611
 20
-4.87451171875
 30
0.0
 10
5.913343641493055
 20
-4.785163031684028
 30
0.0
 10
5.946397569444444
 20
-4.632887098524305
 30
0.0
 10
5.9102783203125
 20
-4.481947157118055
 30
0.0
 10
5.8563232421875
 20
-4.254747178819445
 30
0.0
 10
5.729248046875
 20
-4.05780029296875
 30
0.0
 10
5.484890407986111
 20
-3.823642306857639
 30
0.0
 10
5.262885199652778
 20
-3.611443413628472
 30
0.0
 10
4.970960828993055
 20
-3.199883355034722
 30
0.0
 10
4.7935791015625
 20
-2.907701280381944
 30
0.0
 10
4.642876519097222
 20
-2.659525553385417
 30
0.0
 10
4.457872178819444
 20
-2.096286349826389
 30
0.0
 10
4.396945529513888
 20
-1.91119384765625
 30
0.0
 10
4.396945529513888
 20
-1.91119384765625
 30
0.0
 10
4.384602864583333
 20
-1.872653537326389
 30
0.0
 10
4.384602864583333
 20
-1.872653537326389
 30
0.0
 10
4.368516710069445
 20
-1.825236002604167
 30
0.0
 10
4.444783528645833
 20
-1.625142415364583
 30
0.0
 10
4.547227647569444
 20
-1.444607204861111
 30
0.0
 10
4.547227647569444
 20
-1.444607204861111
 30
0.0
 10
4.568115234375
 20
-1.407965766059028
 30
0.0
 10
4.568115234375
 20
-1.407965766059028
 30
0.0
 10
4.568115234375
 20
-1.407965766059028
 30
0.0
 10
4.356418185763888
 20
-1.074252658420139
 30
0.0
 10
4.356418185763888
 20
-1.074252658420139
 30
0.0
 10
4.356418185763888
 20
-1.074252658420139
 30
0.0
 10
4.387912326388888
 20
-1.074252658420139
 30
0.0
 10
4.387912326388888
 20
-1.074252658420139
 30
0.0
 10
4.387912326388888
 20
-1.074252658420139
 30
0.0
 10
4.387912326388888
 20
-0.8444892035590277
 30
0.0
 10
4.387912326388888
 20
-0.8444892035590277
 30
0.0
 10
4.387912326388888
 20
-0.8444892035590277
 30
0.0
 10
4.329969618055555
 20
-0.8444892035590277
 30
0.0
 10
4.329969618055555
 20
-0.8444892035590277
 30
0.0
 10
4.475531684027778
 20
-0.770962185329861
 30
0.0
 10
4.575670030381944
 20
-0.6201850043402778
 30
0.0
 10
4.575670030381944
 20
-0.4464450412326388
 30
0.0
 10
4.575670030381944
 20
-0.2002631293402778
 30
0.0
 10
4.375474717881945
 20
0.0
 30
0.0
 10
4.129380967881945
 20
0.0
 30
0.0
 10
3.88336181640625
 20
0.0
 30
0.0
 10
3.683180067274305
 20
-0.2002631293402778
 30
0.0
 10
3.683180067274305
 20
-0.4464450412326388
 30
0.0
 10
3.683180067274305
 20
-0.6201850043402778
 30
0.0
 10
3.783481174045139
 20
-0.770962185329861
 30
0.0
 10
3.928955078125
 20
-0.8444892035590277
 30
0.0
 10
3.928955078125
 20
-0.8444892035590277
 30
0.0
 10
3.871256510416667
 20
-0.8444892035590277
 30
0.0
 10
3.871256510416667
 20
-0.8444892035590277
 30
0.0
 10
3.871256510416667
 20
-0.8444892035590277
 30
0.0
 10
3.871256510416667
 20
-1.074252658420139
 30
0.0
 10
3.871256510416667
 20
-1.074252658420139
 30
0.0
 10
3.871256510416667
 20
-1.074252658420139
 30
0.0
 10
3.902838812934028
 20
-1.074252658420139
 30
0.0
 10
3.902838812934028
 20
-1.074252658420139
 30
0.0
 10
3.902838812934028
 20
-1.074252658420139
 30
0.0
 10
3.691555447048611
 20
-1.407965766059028
 30
0.0
 10
3.691555447048611
 20
-1.407965766059028
 30
0.0
 10
3.691555447048611
 20
-1.407965766059028
 30
0.0
 10
3.7125244140625
 20
-1.444607204861111
 30
0.0
 10
3.7125244140625
 20
-1.444607204861111
 30
0.0
 10
3.814643012152778
 20
-1.625142415364583
 30
0.0
 10
3.890652126736111
 20
-1.825236002604167
 30
0.0
 10
3.874911838107639
 20
-1.872734917534722
 30
0.0
 10
3.874911838107639
 20
-1.872734917534722
 30
0.0
 10
3.862311469184028
 20
-1.91119384765625
 30
0.0
 10
3.862311469184028
 20
-1.91119384765625
 30
0.0
 10
3.801547580295139
 20
-2.096286349826389
 30
0.0
 10
3.616285536024305
 20
-2.659688313802083
 30
0.0
 10
3.465677897135417
 20
-2.907701280381944
 30
0.0
 10
3.288465711805555
 20
-3.199883355034722
 30
0.0
 10
2.996188693576389
 20
-3.611273871527778
 30
0.0
 10
2.774461534288194
 20
-3.823642306857639
 30
0.0
 10
2.530266655815972
 20
-4.05780029296875
 30
0.0
 10
2.402859157986111
 20
-4.254747178819445
 30
0.0
 10
2.34881591796875
 20
-4.481947157118055
 30
0.0
 10
2.313096788194444
 20
-4.632887098524305
 30
0.0
 10
2.346082899305555
 20
-4.785163031684028
 30
0.0
 10
2.373772515190972
 20
-4.87451171875
 30
0.0
 10
2.254570855034722
 20
-4.908420138888888
 30
0.0
 10
2.023227267795139
 20
-4.993292914496528
 30
0.0
 10
1.816080729166667
 20
-5.17822265625
 30
0.0
 10
1.573798285590278
 20
-5.394734700520833
 30
0.0
 10
1.2911376953125
 20
-5.720655653211805
 30
0.0
 10
1.258314344618056
 20
-6.325670030381944
 30
0.0
 10
1.231296115451389
 20
-6.822441948784721
 30
0.0
 10
1.336568196614583
 20
-7.188313802083333
 30
0.0
 10
1.600735134548611
 20
-7.512166341145833
 30
0.0
 10
1.760626898871528
 20
-7.708604600694444
 30
0.0
 10
1.962381998697917
 20
-7.861545138888888
 30
0.0
 10
2.200615776909722
 20
-7.967719184027778
 30
0.0
 10
2.280266655815972
 20
-8.002699110243055
 30
0.0
 10
2.340610080295139
 20
-8.02658420138889
 30
0.0
 10
2.384290907118055
 20
-8.042738172743055
 30
0.0
 10
2.352464463975694
 20
-8.113945855034721
 30
0.0
 10
2.317823621961805
 20
-8.229912651909721
 30
0.0
 10
2.327433268229167
 20
-8.38283962673611
 30
0.0
 10
2.337632921006944
 20
-8.550862630208332
 30
0.0
 10
2.424079047309028
 20
-8.73611111111111
 30
0.0
 10
2.598897298177083
 20
-8.965467664930555
 30
0.0
 10
2.658908420138889
 20
-9.0443115234375
 30
0.0
 10
2.734341091579861
 20
-9.126030815972221
 30
0.0
 10
2.822041829427083
 20
-9.22085232204861
 30
0.0
 10
2.994527180989583
 20
-9.407931857638888
 30
0.0
 10
3.209465874565972
 20
-9.640787760416666
 30
0.0
 10
3.385687934027778
 20
-9.947726779513888
 30
0.0
 10
3.648362901475694
 20
-10.40469021267361
 30
0.0
 10
3.875820583767361
 20
-10.98783365885417
 30
0.0
 10
3.903001573350694
 20
-11.09781901041667
 30
0.0
 10
3.903001573350694
 20
-11.09781901041667
 30
0.0
 10
3.930942111545139
 20
-11.20913357204861
 30
0.0
 10
3.930942111545139
 20
-11.20913357204861
 30
0.0
 10
3.881951226128472
 20
-11.26104058159722
 30
0.0
 10
3.851535373263889
 20
-11.33049858940972
 30
0.0
 10
3.851535373263889
 20
-11.40741644965278
 30
0.0
 10
3.851535373263889
 20
-11.566162109375
 30
0.0
 10
3.980760362413194
 20
-11.69546169704861
 30
0.0
 10
4.139573838975695
 20
-11.69546169704861
 30
0.0
 10
4.298556857638888
 20
-11.69546169704861
 30
0.0
 10
4.427788628472222
 20
-11.566162109375
 30
0.0
 10
4.427788628472222
 20
-11.40741644965278
 30
0.0
 10
4.427788628472222
 20
-11.32245551215278
 30
0.0
 10
4.390733506944445
 20
-11.24644639756944
 30
0.0
 10
4.332370334201388
 20
-11.19388834635417
 30
0.0
 10
4.332370334201388
 20
-11.19388834635417
 30
0.0
 10
4.356255425347222
 20
-11.09781901041667
 30
0.0
 10
4.356255425347222
 20
-11.09781901041667
 30
0.0
 10
4.383612738715278
 20
-10.98783365885417
 30
0.0
 10
4.610975477430555
 20
-10.40469021267361
 30
0.0
 10
4.8739013671875
 20
-9.947726779513888
 30
0.0
 10
5.050130208333333
 20
-9.640448676215277
 30
0.0
 10
5.264960394965278
 20
-9.407524956597221
 30
0.0
 10
5.437472873263888
 20
-9.220526801215277
 30
0.0
 10
5.525078667534722
 20
-9.126030815972221
 30
0.0
 10
5.600518120659722
 20
-9.044135199652777
 30
0.0
 10
5.660427517361111
 20
-8.965467664930555
 30
0.0
 10
5.835435655381944
 20
-8.73611111111111
 30
0.0
 10
5.921468098958333
 20
-8.550862630208332
 30
0.0
 10
5.932074652777778
 20
-8.382676866319445
 30
0.0
 10
5.941853841145833
 20
-8.229912651909721
 30
0.0
 10
5.906724717881944
 20
-8.113945855034721
 30
0.0
 10
5.875203450520833
 20
-8.042738172743055
 30
0.0
 10
5.918551974826388
 20
-8.02658420138889
 30
0.0
 10
5.979302300347222
 20
-8.002699110243055
 30
0.0
 10
6.058905707465278
 20
-7.967719184027778
 30
0.0
 10
6.297037760416666
 20
-7.861368815104166
 30
0.0
 10
6.498806423611111
 20
-7.708455403645833
 30
0.0
 10
6.65869140625
 20
-7.512166341145833
 30
0.0
 10
6.922539605034721
 20
-7.188313802083333
 30
0.0
 10
7.028116861979166
 20
-6.822441948784721
 30
0.0
 10
7.001017252604166
 20
-6.325670030381944
 30
0.0
  0
SPLINE
  5
3D
330
1F
100
AcDbEntity
  8
Layer 1
370
     0
100
AcDbSpline
210
0.0
220
0.0
230
1.0
 70
    11
 71
     3
 72
    32
 73
    28
 74
     0
 42
0.0000000001
 43
0.0000000001
 40
0.0
 40
0.0
 40
0.0
 40
0.0
 40
1.0
 40
1.0
 40
1.0
 40
2.0
 40
2.0
 40
2.0
 40
3.0
 40
3.0
 40
3.0
 40
4.0
 40
4.0
 40
4.0
 40
5.0
 40
5.0
 40
5.0
 40
6.0
 40
6.0
 40
6.0
 40
7.0
 40
7.0
 40
7.0
 40
8.0
 40
8.0
 40
8.0
 40
9.0
 40
9.0
 40
9.0
 40
9.0
 10
5.387885199652778
 20
-3.925259060329861
 30
0.0
 10
5.610785590277778
 20
-4.1392822265625
 30
0.0
 10
5.726331922743055
 20
-4.315504286024305
 30
0.0
 10
5.773749457465278
 20
-4.514438205295138
 30
0.0
 10
5.8056640625
 20
-4.648891872829861
 30
0.0
 10
5.766045464409722
 20
-4.791544596354166
 30
0.0
 10
5.743014865451388
 20
-4.857611762152778
 30
0.0
 10
5.673041449652778
 20
-4.863498263888888
 30
0.0
 10
5.522420247395833
 20
-4.875339084201388
 30
0.0
 10
5.319756401909722
 20
-4.888197157118055
 30
0.0
 10
5.363023546006944
 20
-4.773057725694444
 30
0.0
 10
5.410698784722222
 20
-4.582987467447916
 30
0.0
 10
5.355400933159722
 20
-4.389940049913195
 30
0.0
 10
5.300374348958333
 20
-4.196648491753472
 30
0.0
 10
5.166097005208333
 20
-3.979960123697917
 30
0.0
 10
5.010755750868055
 20
-3.729139539930555
 30
0.0
 10
4.933078342013888
 20
-3.603563096788194
 30
0.0
 10
4.852756076388888
 20
-3.473917643229167
 30
0.0
 10
4.774943033854166
 20
-3.335415310329861
 30
0.0
 10
4.6195068359375
 20
-3.058315700954861
 30
0.0
 10
4.497002495659722
 20
-2.689364963107639
 30
0.0
 10
4.4139404296875
 20
-2.39129638671875
 30
0.0
 10
4.492689344618055
 20
-2.605563693576389
 30
0.0
 10
4.587497287326388
 20
-2.838731553819444
 30
0.0
 10
4.673543294270833
 20
-2.980645073784722
 30
0.0
 10
4.813897026909722
 20
-3.211737738715278
 30
0.0
 10
5.121988932291666
 20
-3.671115451388889
 30
0.0
 10
5.387885199652778
 20
-3.925259060329861
 30
0.0
  0
SPLINE
  5
3E
330
1F
100
AcDbEntity
  8
Layer 1
370
     0
100
AcDbSpline
210
0.0
220
0.0
230
1.0
 70
    11
 71
     3
 72
    44
 73
    40
 74
     0
 42
0.0000000001
 43
0.0000000001
 40
0.0
 40
0.0
 40
0.0
 40
0.0
 40
1.0
 40
1.0
 40
1.0
 40
2.0
 40
2.0
 40
2.0
 40
3.0
 40
3.0
 40
3.0
 40
4.0
 40
4.0
 40
4.0
 40
5.0
 40
5.0
 40
5.0
 40
6.0
 40
6.0
 40
6.0
 40
7.0
 40
7.0
 40
7.0
 40
8.0
 40
8.0
 40
8.0
 40
9.0
 40
9.0
 40
9.0
 40
10.0
 40
10.0
 40
10.0
 40
11.0
 40
11.0
 40
11.0
 40
12.0
 40
12.0
 40
12.0
 40
13.0
 40
13.0
 40
13.0
 40
13.0
 10
5.538777669270833
 20
-5.302890353732638
 30
0.0
 10
5.623792860243055
 20
-5.414957682291666
 30
0.0
 10
5.882663302951388
 20
-5.75531005859375
 30
0.0
 10
5.871080186631944
 20
-6.5958251953125
 30
0.0
 10
5.863755967881944
 20
-7.112874348958333
 30
0.0
 10
5.768351236979166
 20
-7.498643663194444
 30
0.0
 10
5.587754991319444
 20
-7.742513020833333
 30
0.0
 10
5.411607530381944
 20
-7.980319552951388
 30
0.0
 10
5.1859130859375
 20
-8.013726128472221
 30
0.0
 10
5.176513671875
 20
-8.014973958333332
 30
0.0
 10
5.176513671875
 20
-8.014973958333332
 30
0.0
 10
5.162611219618055
 20
-8.016791449652777
 30
0.0
 10
5.162611219618055
 20
-8.016791449652777
 30
0.0
 10
4.877956814236111
 20
-8.046061197916666
 30
0.0
 10
4.49609375
 20
-8.0732421875
 30
0.0
 10
4.028998480902778
 20
-8.08005099826389
 30
0.0
 10
4.012668185763888
 20
-8.049628363715277
 30
0.0
 10
3.9873046875
 20
-7.991767035590278
 30
0.0
 10
3.971469455295139
 20
-7.9007568359375
 30
0.0
 10
3.966328938802083
 20
-7.873969184027778
 30
0.0
 10
3.961697048611111
 20
-7.850192599826388
 30
0.0
 10
3.956800672743055
 20
-7.826402452256944
 30
0.0
 10
3.931437174479167
 20
-7.703640407986111
 30
0.0
 10
3.903001573350694
 20
-7.565049913194444
 30
0.0
 10
3.870015462239583
 20
-6.827826605902778
 30
0.0
 10
3.826083713107639
 20
-5.850545247395833
 30
0.0
 10
3.897284613715278
 20
-5.335049099392361
 30
0.0
 10
3.912211100260417
 20
-5.241631401909722
 30
0.0
 10
3.926215277777778
 20
-5.151536729600694
 30
0.0
 10
3.949924045138889
 20
-5.100063747829861
 30
0.0
 10
3.966328938802083
 20
-5.073208279079861
 30
0.0
 10
3.974622938368055
 20
-5.073208279079861
 30
0.0
 10
3.982747395833333
 20
-5.073377821180555
 30
0.0
 10
3.991122775607639
 20
-5.073377821180555
 30
0.0
 10
4.437310112847222
 20
-5.073377821180555
 30
0.0
 10
4.872002495659722
 20
-5.054965549045138
 30
0.0
 10
5.203789605034722
 20
-5.035732693142361
 30
0.0
 10
5.247802734375
 20
-5.052069769965278
 30
0.0
 10
5.3973388671875
 20
-5.116970486111111
 30
0.0
 10
5.538777669270833
 20
-5.302890353732638
 30
0.0
  0
SPLINE
  5
3F
330
1F
100
AcDbEntity
  8
Layer 1
370
     0
100
AcDbSpline
210
0.0
220
0.0
230
1.0
 70
    11
 71
     3
 72
    32
 73
    28
 74
     0
 42
0.0000000001
 43
0.0000000001
 40
0.0
 40
0.0
 40
0.0
 40
0.0
 40
1.0
 40
1.0
 40
1.0
 40
2.0
 40
2.0
 40
2.0
 40
3.0
 40
3.0
 40
3.0
 40
4.0
 40
4.0
 40
4.0
 40
5.0
 40
5.0
 40
5.0
 40
6.0
 40
6.0
 40
6.0
 40
7.0
 40
7.0
 40
7.0
 40
8.0
 40
8.0
 40
8.0
 40
9.0
 40
9.0
 40
9.0
 40
9.0
 10
5.192857530381944
 20
-8.59975857204861
 30
0.0
 10
5.1517333984375
 20
-8.702962239583332
 30
0.0
 10
5.070421006944444
 20
-8.84909396701389
 30
0.0
 10
4.9764404296875
 20
-9.018771701388888
 30
0.0
 10
4.849541558159722
 20
-9.247300889756945
 30
0.0
 10
4.691880967881944
 20
-9.5318603515625
 30
0.0
 10
4.550198025173611
 20
-9.854804144965277
 30
0.0
 10
4.4180908203125
 20
-10.15643988715278
 30
0.0
 10
4.293253580729166
 20
-10.51253255208333
 30
0.0
 10
4.204644097222222
 20
-10.83456759982639
 30
0.0
 10
4.205471462673611
 20
-10.59493001302083
 30
0.0
 10
4.200832790798611
 20
-10.26603190104167
 30
0.0
 10
4.180107964409722
 20
-9.947726779513888
 30
0.0
 10
4.152425130208333
 20
-9.524983723958332
 30
0.0
 10
4.090501573350695
 20
-9.109293619791666
 30
0.0
 10
4.049560546875
 20
-8.834337022569445
 30
0.0
 10
4.031650119357638
 20
-8.713731553819445
 30
0.0
 10
4.01739501953125
 20
-8.618001302083332
 30
0.0
 10
4.011678059895833
 20
-8.559393988715277
 30
0.0
 10
3.998745388454861
 20
-8.43166775173611
 30
0.0
 10
4.027092827690972
 20
-8.291748046875
 30
0.0
 10
4.044745551215278
 20
-8.220540364583332
 30
0.0
 10
4.495347764756944
 20
-8.213582356770832
 30
0.0
 10
4.864366319444444
 20
-8.188218858506945
 30
0.0
 10
5.145114474826388
 20
-8.1602783203125
 30
0.0
 10
5.18359375
 20
-8.242513020833332
 30
0.0
 10
5.258097330729166
 20
-8.436469184027777
 30
0.0
 10
5.192857530381944
 20
-8.59975857204861
 30
0.0
  0
SPLINE
  5
40
330
1F
100
AcDbEntity
  8
Layer 1
370
     0
100
AcDbSpline
210
0.0
220
0.0
230
1.0
 70
    11
 71
     3
 72
    32
 73
    28
 74
     0
 42
0.0000000001
 43
0.0000000001
 40
0.0
 40
0.0
 40
0.0
 40
0.0
 40
1.0
 40
1.0
 40
1.0
 40
2.0
 40
2.0
 40
2.0
 40
3.0
 40
3.0
 40
3.0
 40
4.0
 40
4.0
 40
4.0
 40
5.0
 40
5.0
 40
5.0
 40
6.0
 40
6.0
 40
6.0
 40
7.0
 40
7.0
 40
7.0
 40
8.0
 40
8.0
 40
8.0
 40
9.0
 40
9.0
 40
9.0
 40
9.0
 10
2.999586317274305
 20
-4.408420138888888
 30
0.0
 10
3.065653483072917
 20
-4.174675835503472
 30
0.0
 10
3.203084309895833
 20
-3.949632432725694
 30
0.0
 10
3.362643771701389
 20
-3.689188639322917
 30
0.0
 10
3.456814236111111
 20
-3.535590277777778
 30
0.0
 10
3.563571506076389
 20
-3.361111111111111
 30
0.0
 10
3.667100694444444
 20
-3.165235731336805
 30
0.0
 10
3.849134657118055
 20
-2.820665147569444
 30
0.0
 10
3.979349772135417
 20
-2.399007161458333
 30
0.0
 10
4.049391004774305
 20
-2.139634874131944
 30
0.0
 10
4.047071668836805
 20
-2.411187065972222
 30
0.0
 10
4.03729248046875
 20
-2.870395236545139
 30
0.0
 10
4.000155978732638
 20
-3.364671495225694
 30
0.0
 10
3.965996636284722
 20
-3.819905598958333
 30
0.0
 10
3.922648111979167
 20
-4.113003200954861
 30
0.0
 10
3.890903049045139
 20
-4.327440049913195
 30
0.0
 10
3.868109809027778
 20
-4.481947157118055
 30
0.0
 10
3.851535373263889
 20
-4.593268500434028
 30
0.0
 10
3.851535373263889
 20
-4.686353895399305
 30
0.0
 10
3.851535373263889
 20
-4.798088921440972
 30
0.0
 10
3.857170952690972
 20
-4.879238552517361
 30
0.0
 10
3.862474229600694
 20
-4.932210286458333
 30
0.0
 10
3.51043701171875
 20
-4.929226345486111
 30
0.0
 10
3.211208767361111
 20
-4.915296766493055
 30
0.0
 10
2.981513129340278
 20
-4.900044759114583
 30
0.0
 10
2.960462782118055
 20
-4.838039822048611
 30
0.0
 10
2.924492730034722
 20
-4.6751708984375
 30
0.0
 10
2.999586317274305
 20
-4.408420138888888
 30
0.0
  0
SPLINE
  5
41
330
1F
100
AcDbEntity
  8
Layer 1
370
     0
100
AcDbSpline
210
0.0
220
0.0
230
1.0
 70
    11
 71
     3
 72
    32
 73
    28
 74
     0
 42
0.0000000001
 43
0.0000000001
 40
0.0
 40
0.0
 40
0.0
 40
0.0
 40
1.0
 40
1.0
 40
1.0
 40
2.0
 40
2.0
 40
2.0
 40
3.0
 40
3.0
 40
3.0
 40
4.0
 40
4.0
 40
4.0
 40
5.0
 40
5.0
 40
5.0
 40
6.0
 40
6.0
 40
6.0
 40
7.0
 40
7.0
 40
7.0
 40
8.0
 40
8.0
 40
8.0
 40
9.0
 40
9.0
 40
9.0
 40
9.0
 10
5.163031684027778
 20
-4.897393120659722
 30
0.0
 10
4.841647677951388
 20
-4.915547688802083
 30
0.0
 10
4.428032769097222
 20
-4.932373046875
 30
0.0
 10
4.003960503472222
 20
-4.932705349392361
 30
0.0
 10
3.998745388454861
 20
-4.886203342013888
 30
0.0
 10
3.991950141059028
 20
-4.804640028211805
 30
0.0
 10
3.991950141059028
 20
-4.686353895399305
 30
0.0
 10
3.991950141059028
 20
-4.603630913628472
 30
0.0
 10
4.008029513888888
 20
-4.496541341145833
 30
0.0
 10
4.030076768663195
 20
-4.348002115885416
 30
0.0
 10
4.06207275390625
 20
-4.13165283203125
 30
0.0
 10
4.105841742621528
 20
-3.835408528645833
 30
0.0
 10
4.140489366319445
 20
-3.375040690104167
 30
0.0
 10
4.180447048611111
 20
-2.842461480034722
 30
0.0
 10
4.189141167534722
 20
-2.350511338975694
 30
0.0
 10
4.190470377604166
 20
-2.086174858940972
 30
0.0
 10
4.260186089409722
 20
-2.387810601128472
 30
0.0
 10
4.417670355902778
 20
-2.986199273003472
 30
0.0
 10
4.652506510416666
 20
-3.404127332899305
 30
0.0
 10
4.731743706597222
 20
-3.545539008246528
 30
0.0
 10
4.812811957465278
 20
-3.676588270399305
 30
0.0
 10
4.891303168402778
 20
-3.803080240885417
 30
0.0
 10
5.041015625
 20
-4.045199924045138
 30
0.0
 10
5.170315212673611
 20
-4.254252115885416
 30
0.0
 10
5.220282660590278
 20
-4.428487141927083
 30
0.0
 10
5.275648328993055
 20
-4.622782389322916
 30
0.0
 10
5.197916666666666
 20
-4.822292751736111
 30
0.0
 10
5.163031684027778
 20
-4.897393120659722
 30
0.0
  0
SPLINE
  5
42
330
1F
100
AcDbEntity
  8
Layer 1
370
     0
100
AcDbSpline
210
0.0
220
0.0
230
1.0
 70
    11
 71
     3
 72
    23
 73
    19
 74
     0
 42
0.0000000001
 43
0.0000000001
 40
0.0
 40
0.0
 40
0.0
 40
0.0
 40
1.0
 40
1.0
 40
1.0
 40
2.0
 40
2.0
 40
2.0
 40
3.0
 40
3.0
 40
3.0
 40
4.0
 40
4.0
 40
4.0
 40
5.0
 40
5.0
 40
5.0
 40
6.0
 40
6.0
 40
6.0
 40
6.0
 10
4.2481689453125
 20
-1.805596245659722
 30
0.0
 10
4.222710503472222
 20
-1.810567220052083
 30
0.0
 10
4.184841579861111
 20
-1.815626356336805
 30
0.0
 10
4.133022732204861
 20
-1.818108452690972
 30
0.0
 10
4.07177734375
 20
-1.821180555555555
 30
0.0
 10
4.033393012152778
 20
-1.815456814236111
 30
0.0
 10
4.011759440104166
 20
-1.809814453125
 30
0.0
 10
3.997172037760417
 20
-1.714911566840278
 30
0.0
 10
3.948506673177083
 20
-1.598619249131944
 30
0.0
 10
3.903591579861111
 20
-1.506523980034722
 30
0.0
 10
3.9583740234375
 20
-1.513902452256944
 30
0.0
 10
4.025349934895833
 20
-1.519951714409722
 30
0.0
 10
4.100118001302083
 20
-1.519951714409722
 30
0.0
 10
4.191880967881945
 20
-1.519951714409722
 30
0.0
 10
4.285129123263888
 20
-1.510837131076389
 30
0.0
 10
4.358479817708333
 20
-1.501302083333333
 30
0.0
 10
4.3134765625
 20
-1.5928955078125
 30
0.0
 10
4.263739691840278
 20
-1.709940592447917
 30
0.0
 10
4.2481689453125
 20
-1.805596245659722
 30
0.0
  0
SPLINE
  5
43
330
1F
100
AcDbEntity
  8
Layer 1
370
     0
100
AcDbSpline
210
0.0
220
0.0
230
1.0
 70
    11
 71
     3
 72
    35
 73
    31
 74
     0
 42
0.0000000001
 43
0.0000000001
 40
0.0
 40
0.0
 40
0.0
 40
0.0
 40
1.0
 40
1.0
 40
1.0
 40
2.0
 40
2.0
 40
2.0
 40
3.0
 40
3.0
 40
3.0
 40
4.0
 40
4.0
 40
4.0
 40
5.0
 40
5.0
 40
5.0
 40
6.0
 40
6.0
 40
6.0
 40
7.0
 40
7.0
 40
7.0
 40
8.0
 40
8.0
 40
8.0
 40
9.0
 40
9.0
 40
9.0
 40
10.0
 40
10.0
 40
10.0
 40
10.0
 10
3.811245388454861
 20
-5.072211371527778
 30
0.0
 10
3.796495225694444
 20
-5.110914442274305
 30
0.0
 10
3.78265380859375
 20
-5.158827039930555
 30
0.0
 10
3.773369683159722
 20
-5.219590928819444
 30
0.0
 10
3.757866753472222
 20
-5.31549072265625
 30
0.0
 10
3.685004340277778
 20
-5.843254937065972
 30
0.0
 10
3.72943115234375
 20
-6.834214952256944
 30
0.0
 10
3.763088650173611
 20
-7.582451714409721
 30
0.0
 10
3.7928466796875
 20
-7.726942274305555
 30
0.0
 10
3.818956163194444
 20
-7.854424370659721
 30
0.0
 10
3.823601616753472
 20
-7.877373589409721
 30
0.0
 10
3.828240288628472
 20
-7.899753146701388
 30
0.0
 10
3.832634819878472
 20
-7.92529296875
 30
0.0
 10
3.844156901041667
 20
-7.989773220486111
 30
0.0
 10
3.859653049045139
 20
-8.040757921006945
 30
0.0
 10
3.875325520833333
 20
-8.081041124131945
 30
0.0
 10
3.434095594618055
 20
-8.08193630642361
 30
0.0
 10
3.119947645399305
 20
-8.055338541666666
 30
0.0
 10
2.905836317274305
 20
-8.024590386284721
 30
0.0
 10
2.851298014322917
 20
-7.998806423611111
 30
0.0
 10
2.385118272569444
 20
-7.767550998263888
 30
0.0
 10
2.173997667100694
 20
-7.319118923611111
 30
0.0
 10
1.946139865451389
 20
-6.834540473090278
 30
0.0
 10
1.976392957899305
 20
-6.047336154513888
 30
0.0
 10
2.23907470703125
 20
-5.63470458984375
 30
0.0
 10
2.488071017795139
 20
-5.243211534288194
 30
0.0
 10
2.847147623697917
 20
-5.074442545572916
 30
0.0
 10
2.935512966579861
 20
-5.037733289930555
 30
0.0
 10
3.161058213975694
 20
-5.053554958767361
 30
0.0
 10
3.45904541015625
 20
-5.068393283420138
 30
0.0
 10
3.811245388454861
 20
-5.072211371527778
 30
0.0
  0
SPLINE
  5
44
330
1F
100
AcDbEntity
  8
Layer 1
370
     0
100
AcDbSpline
210
0.0
220
0.0
230
1.0
 70
    11
 71
     3
 72
    32
 73
    28
 74
     0
 42
0.0000000001
 43
0.0000000001
 40
0.0
 40
0.0
 40
0.0
 40
0.0
 40
1.0
 40
1.0
 40
1.0
 40
2.0
 40
2.0
 40
2.0
 40
3.0
 40
3.0
 40
3.0
 40
4.0
 40
4.0
 40
4.0
 40
5.0
 40
5.0
 40
5.0
 40
6.0
 40
6.0
 40
6.0
 40
7.0
 40
7.0
 40
7.0
 40
8.0
 40
8.0
 40
8.0
 40
9.0
 40
9.0
 40
9.0
 40
9.0
 10
2.929796006944444
 20
-8.170220269097221
 30
0.0
 10
3.146721733940972
 20
-8.198662651909721
 30
0.0
 10
3.4490966796875
 20
-8.22195095486111
 30
0.0
 10
3.860649956597222
 20
-8.22195095486111
 30
0.0
 10
3.8734130859375
 20
-8.22195095486111
 30
0.0
 10
3.886678059895833
 20
-8.221788194444445
 30
0.0
 10
3.899943033854167
 20
-8.221788194444445
 30
0.0
 10
3.880791558159722
 20
-8.308403862847221
 30
0.0
 10
3.858744303385417
 20
-8.443603515625
 30
0.0
 10
3.871758355034722
 20
-8.573404947916666
 30
0.0
 10
3.877888997395833
 20
-8.63540310329861
 30
0.0
 10
3.892225477430555
 20
-8.732381184895832
 30
0.0
 10
3.910549587673611
 20
-8.855143229166666
 30
0.0
 10
3.951083713107639
 20
-9.127766927083332
 30
0.0
 10
4.012342664930555
 20
-9.539903428819445
 30
0.0
 10
4.039693196614583
 20
-9.956759982638888
 30
0.0
 10
4.057345920138888
 20
-10.22300889756944
 30
0.0
 10
4.06298828125
 20
-10.49654134114583
 30
0.0
 10
4.064059787326388
 20
-10.71818033854167
 30
0.0
 10
4.053697374131945
 20
-10.67914496527778
 30
0.0
 10
4.042100694444445
 20
-10.63844129774306
 30
0.0
 10
4.028422037760416
 20
-10.59493001302083
 30
0.0
 10
3.907402886284722
 20
-10.20152452256944
 30
0.0
 10
3.384365505642361
 20
-9.289984809027777
 30
0.0
 10
3.067389594184028
 20
-8.870402018229166
 30
0.0
 10
2.846577962239583
 20
-8.57895236545139
 30
0.0
 10
2.896884494357639
 20
-8.28586154513889
 30
0.0
 10
2.929796006944444
 20
-8.170220269097221
 30
0.0
  0
SPLINE
  5
45
330
1F
100
AcDbEntity
  8
Layer 1
370
     0
100
AcDbSpline
210
0.0
220
0.0
230
1.0
 70
    11
 71
     3
 72
    20
 73
    16
 74
     0
 42
0.0000000001
 43
0.0000000001
 40
0.0
 40
0.0
 40
0.0
 40
0.0
 40
1.0
 40
1.0
 40
1.0
 40
2.0
 40
2.0
 40
2.0
 40
3.0
 40
3.0
 40
3.0
 40
4.0
 40
4.0
 40
4.0
 40
5.0
 40
5.0
 40
5.0
 40
5.0
 10
3.823601616753472
 20
-0.4464450412326388
 30
0.0
 10
3.823601616753472
 20
-0.2778455946180555
 30
0.0
 10
3.961032443576389
 20
-0.1405775282118056
 30
0.0
 10
4.129380967881945
 20
-0.1405775282118056
 30
0.0
 10
4.297892252604166
 20
-0.1405775282118056
 30
0.0
 10
4.435167100694445
 20
-0.2778455946180555
 30
0.0
 10
4.435167100694445
 20
-0.4464450412326388
 30
0.0
 10
4.435167100694445
 20
-0.5708550347222222
 30
0.0
 10
4.360310872395833
 20
-0.6781209309895833
 30
0.0
 10
4.253472222222222
 20
-0.7260335286458333
 30
0.0
 10
4.253472222222222
 20
-0.7260335286458333
 30
0.0
 10
4.005791558159722
 20
-0.7260335286458333
 30
0.0
 10
4.005791558159722
 20
-0.7260335286458333
 30
0.0
 10
3.898607042100694
 20
-0.6781209309895833
 30
0.0
 10
3.823601616753472
 20
-0.5708550347222222
 30
0.0
 10
3.823601616753472
 20
-0.4464450412326388
 30
0.0
  0
SPLINE
  5
46
330
1F
100
AcDbEntity
  8
Layer 1
370
     0
100
AcDbSpline
210
0.0
220
0.0
230
1.0
 70
    11
 71
     3
 72
    20
 73
    16
 74
     0
 42
0.0000000001
 43
0.0000000001
 40
0.0
 40
0.0
 40
0.0
 40
0.0
 40
1.0
 40
1.0
 40
1.0
 40
2.0
 40
2.0
 40
2.0
 40
3.0
 40
3.0
 40
3.0
 40
4.0
 40
4.0
 40
4.0
 40
5.0
 40
5.0
 40
5.0
 40
5.0
 10
4.069451226128472
 20
-1.074252658420139
 30
0.0
 10
4.069451226128472
 20
-1.074252658420139
 30
0.0
 10
4.1900634765625
 20
-1.074252658420139
 30
0.0
 10
4.1900634765625
 20
-1.074252658420139
 30
0.0
 10
4.1900634765625
 20
-1.074252658420139
 30
0.0
 10
4.369764539930555
 20
-1.358066134982639
 30
0.0
 10
4.369764539930555
 20
-1.358066134982639
 30
0.0
 10
4.297566731770833
 20
-1.368184407552083
 30
0.0
 10
4.19677734375
 20
-1.379130045572917
 30
0.0
 10
4.100118001302083
 20
-1.379130045572917
 30
0.0
 10
4.015570746527778
 20
-1.379130045572917
 30
0.0
 10
3.941555447048611
 20
-1.370503743489583
 30
0.0
 10
3.886928982204861
 20
-1.361802842881944
 30
0.0
 10
3.886928982204861
 20
-1.361802842881944
 30
0.0
 10
4.069451226128472
 20
-1.074252658420139
 30
0.0
 10
4.069451226128472
 20
-1.074252658420139
 30
0.0
  0
SPLINE
  5
47
330
1F
100
AcDbEntity
  8
Layer 1
370
     0
100
AcDbSpline
210
0.0
220
0.0
230
1.0
 70
    11
 71
     3
 72
    32
 73
    28
 74
     0
 42
0.0000000001
 43
0.0000000001
 40
0.0
 40
0.0
 40
0.0
 40
0.0
 40
1.0
 40
1.0
 40
1.0
 40
2.0
 40
2.0
 40
2.0
 40
3.0
 40
3.0
 40
3.0
 40
4.0
 40
4.0
 40
4.0
 40
5.0
 40
5.0
 40
5.0
 40
6.0
 40
6.0
 40
6.0
 40
7.0
 40
7.0
 40
7.0
 40
8.0
 40
8.0
 40
8.0
 40
9.0
 40
9.0
 40
9.0
 40
9.0
 10
2.485751681857639
 20
-4.514438205295138
 30
0.0
 10
2.532999674479167
 20
-4.315504286024305
 30
0.0
 10
2.648464626736111
 20
-4.1392822265625
 30
0.0
 10
2.871771918402778
 20
-3.925259060329861
 30
0.0
 10
3.137098524305555
 20
-3.671115451388889
 30
0.0
 10
3.445624457465278
 20
-3.211737738715278
 30
0.0
 10
3.585951063368055
 20
-2.980645073784722
 30
0.0
 10
3.620354546440972
 20
-2.923699273003472
 30
0.0
 10
3.656575520833333
 20
-2.852077907986111
 30
0.0
 10
3.692220052083333
 20
-2.77301025390625
 30
0.0
 10
3.647203233506944
 20
-2.884908040364583
 30
0.0
 10
3.597554524739583
 20
-2.996148003472222
 30
0.0
 10
3.543097601996528
 20
-3.099175347222222
 30
0.0
 10
3.441636827256944
 20
-3.291727701822917
 30
0.0
 10
3.340433756510417
 20
-3.456522623697917
 30
0.0
 10
3.242702907986111
 20
-3.615993923611111
 30
0.0
 10
3.0780029296875
 20
-3.885308159722222
 30
0.0
 10
2.935601128472222
 20
-4.117648654513888
 30
0.0
 10
2.864393446180555
 20
-4.370218912760416
 30
0.0
 10
2.795511881510417
 20
-4.614237467447916
 30
0.0
 10
2.809183756510417
 20
-4.787075466579861
 30
0.0
 10
2.832811143663194
 20
-4.889187282986111
 30
0.0
 10
2.679389105902778
 20
-4.877163357204861
 30
0.0
 10
2.571621365017361
 20
-4.865566677517361
 30
0.0
 10
2.51708984375
 20
-4.859015570746528
 30
0.0
 10
2.494208441840278
 20
-4.793863932291666
 30
0.0
 10
2.453504774305555
 20
-4.649631076388888
 30
0.0
 10
2.485751681857639
 20
-4.514438205295138
 30
0.0
  0
SPLINE
  5
48
330
1F
100
AcDbEntity
  8
Layer 1
370
     0
100
AcDbSpline
210
0.0
220
0.0
230
1.0
 70
    11
 71
     3
 72
    32
 73
    28
 74
     0
 42
0.0000000001
 43
0.0000000001
 40
0.0
 40
0.0
 40
0.0
 40
0.0
 40
1.0
 40
1.0
 40
1.0
 40
2.0
 40
2.0
 40
2.0
 40
3.0
 40
3.0
 40
3.0
 40
4.0
 40
4.0
 40
4.0
 40
5.0
 40
5.0
 40
5.0
 40
6.0
 40
6.0
 40
6.0
 40
7.0
 40
7.0
 40
7.0
 40
8.0
 40
8.0
 40
8.0
 40
9.0
 40
9.0
 40
9.0
 40
9.0
 10
2.257724338107639
 20
-7.839165581597221
 30
0.0
 10
2.039971245659722
 20
-7.7421875
 30
0.0
 10
1.855373806423611
 20
-7.602186414930555
 30
0.0
 10
1.70989990234375
 20
-7.423556857638888
 30
0.0
 10
1.466200086805556
 20
-7.124565972222221
 30
0.0
 10
1.373202853732639
 20
-6.798638237847221
 30
0.0
 10
1.398403591579861
 20
-6.333306206597221
 30
0.0
 10
1.428826226128472
 20
-5.780171712239583
 30
0.0
 10
1.687601725260417
 20
-5.481438530815972
 30
0.0
 10
1.909830729166667
 20
-5.282999674479166
 30
0.0
 10
2.14208984375
 20
-5.075690375434028
 30
0.0
 10
2.415296766493055
 20
-5.00714111328125
 30
0.0
 10
2.469590928819444
 20
-4.9951171875
 30
0.0
 10
2.495619032118055
 20
-4.998101128472222
 30
0.0
 10
2.565158420138889
 20
-5.006646050347222
 30
0.0
 10
2.672254774305555
 20
-5.016425238715278
 30
0.0
 10
2.509541829427083
 20
-5.116970486111111
 30
0.0
 10
2.29278564453125
 20
-5.288553873697916
 30
0.0
 10
2.120537651909722
 20
-5.559183756510416
 30
0.0
 10
1.830837673611111
 20
-6.014662000868055
 30
0.0
 10
1.796854654947917
 20
-6.848036024305555
 30
0.0
 10
2.046847873263889
 20
-7.378797743055555
 30
0.0
 10
2.161566840277778
 20
-7.622979058159721
 30
0.0
 10
2.340277777777778
 20
-7.806084526909721
 30
0.0
 10
2.500508626302083
 20
-7.933322482638888
 30
0.0
 10
2.484422471788194
 20
-7.928683810763888
 30
0.0
 10
2.407009548611111
 20
-7.905219184027778
 30
0.0
 10
2.257724338107639
 20
-7.839165581597221
 30
0.0
  0
SPLINE
  5
49
330
1F
100
AcDbEntity
  8
Layer 1
370
     0
100
AcDbSpline
210
0.0
220
0.0
230
1.0
 70
    11
 71
     3
 72
    32
 73
    28
 74
     0
 42
0.0000000001
 43
0.0000000001
 40
0.0
 40
0.0
 40
0.0
 40
0.0
 40
1.0
 40
1.0
 40
1.0
 40
2.0
 40
2.0
 40
2.0
 40
3.0
 40
3.0
 40
3.0
 40
4.0
 40
4.0
 40
4.0
 40
5.0
 40
5.0
 40
5.0
 40
6.0
 40
6.0
 40
6.0
 40
7.0
 40
7.0
 40
7.0
 40
8.0
 40
8.0
 40
8.0
 40
9.0
 40
9.0
 40
9.0
 40
9.0
 10
3.507541232638889
 20
-9.877685546875
 30
0.0
 10
3.323601616753472
 20
-9.556898328993055
 30
0.0
 10
3.102457682291667
 20
-9.317843967013888
 30
0.0
 10
2.925401475694444
 20
-9.125461154513888
 30
0.0
 10
2.84027099609375
 20
-9.033270941840277
 30
0.0
 10
2.766587999131944
 20
-8.953708224826388
 30
0.0
 10
2.710720486111111
 20
-8.880181206597221
 30
0.0
 10
2.555799696180555
 20
-8.676595052083332
 30
0.0
 10
2.476053873697917
 20
-8.511067708333332
 30
0.0
 10
2.467522515190972
 20
-8.373969184027777
 30
0.0
 10
2.458977593315972
 20
-8.236463758680555
 30
0.0
 10
2.492886013454861
 20
-8.13930935329861
 30
0.0
 10
2.517835828993055
 20
-8.087836371527777
 30
0.0
 10
2.569634331597222
 20
-8.103827582465277
 30
0.0
 10
2.657416449652778
 20
-8.126708984375
 30
0.0
 10
2.790201822916667
 20
-8.149251302083332
 30
0.0
 10
2.75067138671875
 20
-8.300618489583332
 30
0.0
 10
2.708808051215278
 20
-8.629774305555555
 30
0.0
 10
2.955322265625
 20
-8.955362955729166
 30
0.0
 10
3.259365505642361
 20
-9.357462565104166
 30
0.0
 10
3.779168023003472
 20
-10.26186794704861
 30
0.0
 10
3.894137912326389
 20
-10.63612196180556
 30
0.0
 10
3.908060709635417
 20
-10.68071831597222
 30
0.0
 10
3.919915093315972
 20
-10.72249348958333
 30
0.0
 10
3.930447048611111
 20
-10.76169162326389
 30
0.0
 10
3.832051595052083
 20
-10.51767306857639
 30
0.0
 10
3.678704155815972
 20
-10.17526584201389
 30
0.0
 10
3.507541232638889
 20
-9.877685546875
 30
0.0
  0
SPLINE
  5
4A
330
1F
100
AcDbEntity
  8
Layer 1
370
     0
100
AcDbSpline
210
0.0
220
0.0
230
1.0
 70
    11
 71
     3
 72
    20
 73
    16
 74
     0
 42
0.0000000001
 43
0.0000000001
 40
0.0
 40
0.0
 40
0.0
 40
0.0
 40
1.0
 40
1.0
 40
1.0
 40
2.0
 40
2.0
 40
2.0
 40
3.0
 40
3.0
 40
3.0
 40
4.0
 40
4.0
 40
4.0
 40
5.0
 40
5.0
 40
5.0
 40
5.0
 10
4.139573838975695
 20
-11.55463324652778
 30
0.0
 10
4.058254665798611
 20
-11.55463324652778
 30
0.0
 10
3.991950141059028
 20
-11.48856608072917
 30
0.0
 10
3.991950141059028
 20
-11.40741644965278
 30
0.0
 10
3.991950141059028
 20
-11.34434678819444
 30
0.0
 10
4.031982421875
 20
-11.29087999131944
 30
0.0
 10
4.0877685546875
 20
-11.26973470052083
 30
0.0
 10
4.0877685546875
 20
-11.26973470052083
 30
0.0
 10
4.191460503472222
 20
-11.26973470052083
 30
0.0
 10
4.191460503472222
 20
-11.26973470052083
 30
0.0
 10
4.247246636284722
 20
-11.29087999131944
 30
0.0
 10
4.287041558159722
 20
-11.34434678819444
 30
0.0
 10
4.287041558159722
 20
-11.40741644965278
 30
0.0
 10
4.287041558159722
 20
-11.48856608072917
 30
0.0
 10
4.221055772569445
 20
-11.55463324652778
 30
0.0
 10
4.139573838975695
 20
-11.55463324652778
 30
0.0
  0
SPLINE
  5
4B
330
1F
100
AcDbEntity
  8
Layer 1
370
     0
100
AcDbSpline
210
0.0
220
0.0
230
1.0
 70
    11
 71
     3
 72
    35
 73
    31
 74
     0
 42
0.0000000001
 43
0.0000000001
 40
0.0
 40
0.0
 40
0.0
 40
0.0
 40
1.0
 40
1.0
 40
1.0
 40
2.0
 40
2.0
 40
2.0
 40
3.0
 40
3.0
 40
3.0
 40
4.0
 40
4.0
 40
4.0
 40
5.0
 40
5.0
 40
5.0
 40
6.0
 40
6.0
 40
6.0
 40
7.0
 40
7.0
 40
7.0
 40
8.0
 40
8.0
 40
8.0
 40
9.0
 40
9.0
 40
9.0
 40
10.0
 40
10.0
 40
10.0
 40
10.0
 10
5.791802300347222
 20
-8.373969184027777
 30
0.0
 10
5.783053927951388
 20
-8.511067708333332
 30
0.0
 10
5.703870985243055
 20
-8.676595052083332
 30
0.0
 10
5.5487060546875
 20
-8.880181206597221
 30
0.0
 10
5.492743598090278
 20
-8.953531901041666
 30
0.0
 10
5.419080946180555
 20
-9.033270941840277
 30
0.0
 10
5.334174262152778
 20
-9.125461154513888
 30
0.0
 10
5.156792534722222
 20
-9.317681206597221
 30
0.0
 10
4.936062282986111
 20
-9.556898328993055
 30
0.0
 10
4.751641167534722
 20
-9.877685546875
 30
0.0
 10
4.659966362847222
 20
-10.03757052951389
 30
0.0
 10
4.573011610243055
 20
-10.2105712890625
 30
0.0
 10
4.497002495659722
 20
-10.37436252170139
 30
0.0
 10
4.553778754340278
 20
-10.21396213107639
 30
0.0
 10
4.615532769097222
 20
-10.05605740017361
 30
0.0
 10
4.679117838541666
 20
-9.911078559027777
 30
0.0
 10
4.818115234375
 20
-9.594441731770832
 30
0.0
 10
4.97412109375
 20
-9.313042534722221
 30
0.0
 10
5.099446614583333
 20
-9.086900499131945
 30
0.0
 10
5.199666341145833
 20
-8.905951605902777
 30
0.0
 10
5.278998480902778
 20
-8.7633056640625
 30
0.0
 10
5.323160807291666
 20
-8.651991102430555
 30
0.0
 10
5.398084852430555
 20
-8.46506076388889
 30
0.0
 10
5.339992947048611
 20
-8.260986328125
 30
0.0
 10
5.291910807291666
 20
-8.144694010416666
 30
0.0
 10
5.51513671875
 20
-8.119086371527777
 30
0.0
 10
5.665242513020833
 20
-8.09389919704861
 30
0.0
 10
5.737711588541666
 20
-8.080702039930555
 30
0.0
 10
5.762966579861111
 20
-8.130438910590277
 30
0.0
 10
5.800686306423611
 20
-8.2313232421875
 30
0.0
 10
5.791802300347222
 20
-8.373969184027777
 30
0.0
  0
SPLINE
  5
4C
330
1F
100
AcDbEntity
  8
Layer 1
370
     0
100
AcDbSpline
210
0.0
220
0.0
230
1.0
 70
    11
 71
     3
 72
    38
 73
    34
 74
     0
 42
0.0000000001
 43
0.0000000001
 40
0.0
 40
0.0
 40
0.0
 40
0.0
 40
1.0
 40
1.0
 40
1.0
 40
2.0
 40
2.0
 40
2.0
 40
3.0
 40
3.0
 40
3.0
 40
4.0
 40
4.0
 40
4.0
 40
5.0
 40
5.0
 40
5.0
 40
6.0
 40
6.0
 40
6.0
 40
7.0
 40
7.0
 40
7.0
 40
8.0
 40
8.0
 40
8.0
 40
9.0
 40
9.0
 40
9.0
 40
10.0
 40
10.0
 40
10.0
 40
11.0
 40
11.0
 40
11.0
 40
11.0
 10
6.549858940972221
 20
-7.423556857638888
 30
0.0
 10
6.403876410590278
 20
-7.602186414930555
 30
0.0
 10
6.219550238715278
 20
-7.7421875
 30
0.0
 10
6.001708984375
 20
-7.839165581597221
 30
0.0
 10
5.843234592013888
 20
-7.909450954861111
 30
0.0
 10
5.765706380208333
 20
-7.931504991319444
 30
0.0
 10
5.756863064236111
 20
-7.933824327256944
 30
0.0
 10
5.74755859375
 20
-7.935804578993055
 30
0.0
 10
5.685384114583333
 20
-7.947998046875
 30
0.0
 10
5.573391384548611
 20
-7.965237087673611
 30
0.0
 10
5.616929796006944
 20
-7.927110460069444
 30
0.0
 10
5.659952799479166
 20
-7.881279839409721
 30
0.0
 10
5.700737847222222
 20
-7.826402452256944
 30
0.0
 10
5.899074978298611
 20
-7.558173285590278
 30
0.0
 10
6.003594292534722
 20
-7.144788953993055
 30
0.0
 10
6.011583116319444
 20
-6.597710503472221
 30
0.0
 10
6.019761827256944
 20
-5.999742296006944
 30
0.0
 10
5.901665581597222
 20
-5.548333062065972
 30
0.0
 10
5.650675455729166
 20
-5.217597113715278
 30
0.0
 10
5.585110134548611
 20
-5.131476508246528
 30
0.0
 10
5.5174560546875
 20
-5.067396375868055
 30
0.0
 10
5.456108940972222
 20
-5.020148383246528
 30
0.0
 10
5.634182400173611
 20
-5.007887098524305
 30
0.0
 10
5.754177517361111
 20
-4.997775607638888
 30
0.0
 10
5.788438585069444
 20
-4.994710286458333
 30
0.0
 10
5.840155707465278
 20
-5.005730523003472
 30
0.0
 10
6.114352756076388
 20
-5.073208279079861
 30
0.0
 10
6.349839952256944
 20
-5.282999674479166
 30
0.0
 10
6.571750217013888
 20
-5.481438530815972
 30
0.0
 10
6.830512152777778
 20
-5.780171712239583
 30
0.0
 10
6.860704210069444
 20
-6.333306206597221
 30
0.0
 10
6.88623046875
 20
-6.798638237847221
 30
0.0
 10
6.793050130208333
 20
-7.124565972222221
 30
0.0
 10
6.549858940972221
 20
-7.423556857638888
 30
0.0
  0
ENDSEC
  0
SECTION
  2
OBJECTS
  0
DICTIONARY
  5
C
330
0
100
AcDbDictionary
281
     1
  3
ACAD_GROUP
350
D
  3
ACAD_LAYOUT
350
1A
  3
ACAD_MLINESTYLE
350
17
  3
ACAD_PLOTSETTINGS
350
19
  3
ACAD_PLOTSTYLENAME
350
E
  3
ACAD_TABLESTYLE
350
4D
  3
ACAD_VISUALSTYLE
350
2A
  0
DICTIONARY
  5
D
102
{ACAD_REACTORS
330
C
102
}
330
C
100
AcDbDictionary
281
     1
  0
DICTIONARY
  5
1A
102
{ACAD_REACTORS
330
C
102
}
330
C
100
AcDbDictionary
281
     1
  3
Layout1
350
1E
  3
Layout2
350
26
  3
Model
350
22
  0
DICTIONARY
  5
17
102
{ACAD_REACTORS
330
C
102
}
330
C
100
AcDbDictionary
281
     1
  3
Standard
350
18
  0
DICTIONARY
  5
19
102
{ACAD_REACTORS
330
C
102
}
330
C
100
AcDbDictionary
281
     1
  0
ACDBDICTIONARYWDFLT
  5
E
102
{ACAD_REACTORS
330
C
102
}
330
C
100
AcDbDictionary
281
     1
  3
Normal
350
F
100
AcDbDictionaryWithDefault
340
F
  0
DICTIONARY
  5
4D
102
{ACAD_REACTORS
330
C
102
}
330
C
100
AcDbDictionary
281
     1
  0
DICTIONARY
  5
2A
102
{ACAD_REACTORS
330
C
102
}
330
C
100
AcDbDictionary
281
     1
  3
2dWireframe
350
2F
  3
3D Hidden
350
31
  3
3dWireframe
350
30
  3
Basic
350
32
  3
Brighten
350
36
  3
ColorChange
350
3A
  3
Conceptual
350
34
  3
Dim
350
35
  3
Facepattern
350
39
  3
Flat
350
2B
  3
FlatWithEdges
350
2C
  3
Gouraud
350
2D
  3
GouraudWithEdges
350
2E
  3
Linepattern
350
38
  3
Realistic
350
33
  3
Thicken
350
37
  0
LAYOUT
  5
1E
102
{ACAD_REACTORS
330
1A
102
}
330
1A
100
AcDbPlotSettings
  1

  2
none_device
  4

  6

 40
0.0
 41
0.0
 42
0.0
 43
0.0
 44
0.0
 45
0.0
 46
0.0
 47
0.0
 48
0.0
 49
0.0
140
0.0
141
0.0
142
1.0
143
1.0
 70
   688
 72
     0
 73
     0
 74
     5
  7

 75
    16
 76
     0
 77
     2
 78
   300
147
1.0
148
0.0
149
0.0
100
AcDbLayout
  1
Layout1
 70
     1
 71
     1
 10
0.0
 20
0.0
 11
12.0
 21
9.0
 12
0.0
 22
0.0
 32
0.0
 14
1.000000000000000E+20
 24
1.000000000000000E+20
 34
1.000000000000000E+20
 15
-1.000000000000000E+20
 25
-1.000000000000000E+20
 35
-1.000000000000000E+20
146
0.0
 13
0.0
 23
0.0
 33
0.0
 16
1.0
 26
0.0
 36
0.0
 17
0.0
 27
1.0
 37
0.0
 76
     0
330
1B
  0
LAYOUT
  5
26
102
{ACAD_REACTORS
330
1A
102
}
330
1A
100
AcDbPlotSettings
  1

  2
none_device
  4

  6

 40
0.0
 41
0.0
 42
0.0
 43
0.0
 44
0.0
 45
0.0
 46
0.0
 47
0.0
 48
0.0
 49
0.0
140
0.0
141
0.0
142
1.0
143
1.0
 70
   688
 72
     0
 73
     0
 74
     5
  7

 75
    16
 76
     0
 77
     2
 78
   300
147
1.0
148
0.0
149
0.0
100
AcDbLayout
  1
Layout2
 70
     1
 71
     2
 10
0.0
 20
0.0
 11
0.0
 21
0.0
 12
0.0
 22
0.0
 32
0.0
 14
0.0
 24
0.0
 34
0.0
 15
0.0
 25
0.0
 35
0.0
146
0.0
 13
0.0
 23
0.0
 33
0.0
 16
1.0
 26
0.0
 36
0.0
 17
0.0
 27
1.0
 37
0.0
 76
     0
330
23
  0
LAYOUT
  5
22
102
{ACAD_REACTORS
330
1A
102
}
330
1A
100
AcDbPlotSettings
  1

  2
none_device
  4

  6

 40
0.0
 41
0.0
 42
0.0
 43
0.0
 44
0.0
 45
0.0
 46
0.0
 47
0.0
 48
0.0
 49
0.0
140
0.0
141
0.0
142
1.0
143
1.0
 70
  1712
 72
     0
 73
     0
 74
     0
  7

 75
     0
 76
     0
 77
     2
 78
   300
147
1.0
148
0.0
149
0.0
100
AcDbLayout
  1
Model
 70
     1
 71
     0
 10
0.0
 20
0.0
 11
12.0
 21
9.0
 12
0.0
 22
0.0
 32
0.0
 14
1.000000000000000E+20
 24
1.000000000000000E+20
 34
1.000000000000000E+20
 15
-1.000000000000000E+20
 25
-1.000000000000000E+20
 35
-1.000000000000000E+20
146
0.0
 13
0.0
 23
0.0
 33
0.0
 16
1.0
 26
0.0
 36
0.0
 17
0.0
 27
1.0
 37
0.0
 76
     0
330
1F
331
29
  0
MLINESTYLE
  5
18
102
{ACAD_REACTORS
330
17
102
}
330
17
100
AcDbMlineStyle
  2
Standard
 70
     0
  3

 62
   256
 51
90.0
 52
90.0
 71
     2
 49
0.5
 62
   256
  6
BYLAYER
 49
-0.5
 62
   256
  6
BYLAYER
  0
ACDBPLACEHOLDER
  5
F
102
{ACAD_REACTORS
330
E
102
}
330
E
  0
VISUALSTYLE
  5
2F
102
{ACAD_REACTORS
330
2A
102
}
330
2A
100
AcDbVisualStyle
  2
2dWireframe
 70
     4
 71
     0
 72
     2
 73
     0
 90
        0
 40
-0.6
 41
-30.0
 62
     5
 63
     7
421
 16777215
 74
     1
 91
        4
 64
     7
 65
   257
 75
     1
175
     1
 42
1.0
 92
        0
 66
   257
 43
1.0
 76
     1
 77
     6
 78
     2
 67
     7
 79
     5
170
     0
171
     0
290
     0
174
     0
 93
        1
 44
0.0
173
     0
291
     0
 45
0.0
1001
ACAD
1000
AcDbSavedByObjectVersion
1070
     0
  0
VISUALSTYLE
  5
31
102
{ACAD_REACTORS
330
2A
102
}
330
2A
100
AcDbVisualStyle
  2
3D Hidden
 70
     6
 71
     1
 72
     2
 73
     2
 90
        0
 40
-0.6
 41
-30.0
 62
     5
 63
     7
421
 16777215
 74
     2
 91
        2
 64
     7
 65
   257
 75
     2
175
     1
 42
40.0
 92
        0
 66
   257
 43
1.0
 76
     1
 77
     6
 78
     2
 67
     7
 79
     3
170
     0
171
     0
290
     0
174
     0
 93
        1
 44
0.0
173
     0
291
     0
 45
0.0
1001
ACAD
1000
AcDbSavedByObjectVersion
1070
     0
  0
VISUALSTYLE
  5
30
102
{ACAD_REACTORS
330
2A
102
}
330
2A
100
AcDbVisualStyle
  2
3dWireframe
 70
     5
 71
     0
 72
     2
 73
     0
 90
        0
 40
-0.6
 41
-30.0
 62
     5
 63
     7
421
 16777215
 74
     1
 91
        4
 64
     7
 65
   257
 75
     1
175
     1
 42
1.0
 92
        0
 66
   257
 43
1.0
 76
     1
 77
     6
 78
     2
 67
     7
 79
     5
170
     0
171
     0
290
     0
174
     0
 93
        1
 44
0.0
173
     0
291
     0
 45
0.0
1001
ACAD
1000
AcDbSavedByObjectVersion
1070
     0
  0
VISUALSTYLE
  5
32
102
{ACAD_REACTORS
330
2A
102
}
330
2A
100
AcDbVisualStyle
  2
Basic
 70
     7
 71
     1
 72
     0
 73
     1
 90
        0
 40
-0.6
 41
-30.0
 62
     5
 63
     7
421
 16777215
 74
     0
 91
        4
 64
     7
 65
   257
 75
     1
175
     1
 42
1.0
 92
        8
 66
     7
 43
1.0
 76
     1
 77
     6
 78
     2
 67
     7
 79
     5
170
     0
171
     0
290
     0
174
     0
 93
        1
 44
0.0
173
     0
291
     1
 45
0.0
1001
ACAD
1000
AcDbSavedByObjectVersion
1070
     0
  0
VISUALSTYLE
  5
36
102
{ACAD_REACTORS
330
2A
102
}
330
2A
100
AcDbVisualStyle
  2
Brighten
 70
    12
 71
     2
 72
     2
 73
     0
 90
        0
 40
-0.6
 41
-30.0
 62
     5
 63
     7
421
 16777215
 74
     1
 91
        4
 64
     7
 65
   257
 75
     1
175
     1
 42
1.0
 92
        8
 66
     7
 43
1.0
 76
     1
 77
     6
 78
     2
 67
     7
 79
     5
170
     0
171
     0
290
     0
174
     0
 93
        1
 44
50.0
173
     0
291
     1
 45
0.0
1001
ACAD
1000
AcDbSavedByObjectVersion
1070
     0
  0
VISUALSTYLE
  5
3A
102
{ACAD_REACTORS
330
2A
102
}
330
2A
100
AcDbVisualStyle
  2
ColorChange
 70
    16
 71
     2
 72
     2
 73
     3
 90
        0
 40
-0.6
 41
-30.0
 62
     5
 63
     8
421
  8421504
 74
     1
 91
        4
 64
     7
 65
   257
 75
     1
175
     1
 42
1.0
 92
        8
 66
     8
424
  8421504
 43
1.0
 76
     1
 77
     6
 78
     2
 67
     7
 79
     5
170
     0
171
     0
290
     0
174
     0
 93
        1
 44
0.0
173
     0
291
     1
 45
0.0
1001
ACAD
1000
AcDbSavedByObjectVersion
1070
     0
  0
VISUALSTYLE
  5
34
102
{ACAD_REACTORS
330
2A
102
}
330
2A
100
AcDbVisualStyle
  2
Conceptual
 70
     9
 71
     3
 72
     2
 73
     0
 90
        0
 40
-0.6
 41
-30.0
 62
     5
 63
     7
421
 16777215
 74
     2
 91
        2
 64
     7
 65
   257
 75
     1
175
     1
 42
40.0
 92
        8
 66
     7
 43
1.0
 76
     1
 77
     6
 78
     2
 67
     7
 79
     3
170
     0
171
     0
290
     0
174
     0
 93
        1
 44
0.0
173
     0
291
     0
 45
0.0
1001
ACAD
1000
AcDbSavedByObjectVersion
1070
     0
  0
VISUALSTYLE
  5
35
102
{ACAD_REACTORS
330
2A
102
}
330
2A
100
AcDbVisualStyle
  2
Dim
 70
    11
 71
     2
 72
     2
 73
     0
 90
        0
 40
-0.6
 41
-30.0
 62
     5
 63
     7
421
 16777215
 74
     1
 91
        4
 64
     7
 65
   257
 75
     1
175
     1
 42
1.0
 92
        8
 66
     7
 43
1.0
 76
     1
 77
     6
 78
     2
 67
     7
 79
     5
170
     0
171
     0
290
     0
174
     0
 93
        1
 44
-50.0
173
     0
291
     1
 45
0.0
1001
ACAD
1000
AcDbSavedByObjectVersion
1070
     0
  0
VISUALSTYLE
  5
39
102
{ACAD_REACTORS
330
2A
102
}
330
2A
100
AcDbVisualStyle
  2
Facepattern
 70
    15
 71
     2
 72
     2
 73
     0
 90
        0
 40
-0.6
 41
-30.0
 62
     5
 63
     7
421
 16777215
 74
     1
 91
        4
 64
     7
 65
   257
 75
     1
175
     1
 42
1.0
 92
        8
 66
     7
 43
1.0
 76
     1
 77
     6
 78
     2
 67
     7
 79
     5
170
     0
171
     0
290
     0
174
     0
 93
        1
 44
0.0
173
     0
291
     1
 45
0.0
1001
ACAD
1000
AcDbSavedByObjectVersion
1070
     0
  0
VISUALSTYLE
  5
2B
102
{ACAD_REACTORS
330
2A
102
}
330
2A
100
AcDbVisualStyle
  2
Flat
 70
     0
 71
     2
 72
     1
 73
     1
 90
        2
 40
-0.6
 41
30.0
 62
     5
 63
     7
421
 16777215
 74
     0
 91
        4
 64
     7
 65
   257
 75
     1
175
     1
 42
1.0
 92
        8
 66
     7
 43
1.0
 76
     1
 77
     6
 78
     2
 67
     7
 79
     5
170
     0
171
     0
290
     0
174
     0
 93
       13
 44
0.0
173
     0
291
     1
 45
0.0
1001
ACAD
1000
AcDbSavedByObjectVersion
1070
     0
  0
VISUALSTYLE
  5
2C
102
{ACAD_REACTORS
330
2A
102
}
330
2A
100
AcDbVisualStyle
  2
FlatWithEdges
 70
     1
 71
     2
 72
     1
 73
     1
 90
        2
 40
-0.6
 41
30.0
 62
     5
 63
     7
421
 16777215
 74
     1
 91
        4
 64
     7
 65
   257
 75
     1
175
     1
 42
1.0
 92
        0
 66
   257
 43
1.0
 76
     1
 77
     6
 78
     2
 67
     7
 79
     5
170
     0
171
     0
290
     0
174
     0
 93
       13
 44
0.0
173
     0
291
     1
 45
0.0
1001
ACAD
1000
AcDbSavedByObjectVersion
1070
     0
  0
VISUALSTYLE
  5
2D
102
{ACAD_REACTORS
330
2A
102
}
330
2A
100
AcDbVisualStyle
  2
Gouraud
 70
     2
 71
     2
 72
     2
 73
     1
 90
        2
 40
-0.6
 41
30.0
 62
     5
 63
     7
421
 16777215
 74
     0
 91
        4
 64
     7
 65
   257
 75
     1
175
     1
 42
1.0
 92
        0
 66
     7
 43
1.0
 76
     1
 77
     6
 78
     2
 67
     7
 79
     5
170
     0
171
     0
290
     0
174
     0
 93
       13
 44
0.0
173
     0
291
     1
 45
0.0
1001
ACAD
1000
AcDbSavedByObjectVersion
1070
     0
  0
VISUALSTYLE
  5
2E
102
{ACAD_REACTORS
330
2A
102
}
330
2A
100
AcDbVisualStyle
  2
GouraudWithEdges
 70
     3
 71
     2
 72
     2
 73
     1
 90
        2
 40
-0.6
 41
30.0
 62
     5
 63
     7
421
 16777215
 74
     1
 91
        4
 64
     7
 65
   257
 75
     1
175
     1
 42
1.0
 92
        0
 66
   257
 43
1.0
 76
     1
 77
     6
 78
     2
 67
     7
 79
     5
170
     0
171
     0
290
     0
174
     0
 93
       13
 44
0.0
173
     0
291
     1
 45
0.0
1001
ACAD
1000
AcDbSavedByObjectVersion
1070
     0
  0
VISUALSTYLE
  5
38
102
{ACAD_REACTORS
330
2A
102
}
330
2A
100
AcDbVisualStyle
  2
Linepattern
 70
    14
 71
     2
 72
     2
 73
     0
 90
        0
 40
-0.6
 41
-30.0
 62
     5
 63
     7
421
 16777215
 74
     1
 91
        4
 64
     7
 65
   257
 75
     7
175
     7
 42
1.0
 92
        8
 66
     7
 43
1.0
 76
     1
 77
     6
 78
     2
 67
     7
 79
     5
170
     0
171
     0
290
     0
174
     0
 93
        1
 44
0.0
173
     0
291
     1
 45
0.0
1001
ACAD
1000
AcDbSavedByObjectVersion
1070
     0
  0
VISUALSTYLE
  5
33
102
{ACAD_REACTORS
330
2A
102
}
330
2A
100
AcDbVisualStyle
  2
Realistic
 70
     8
 71
     2
 72
     2
 73
     0
 90
        0
 40
-0.6
 41
-30.0
 62
     5
 63
     7
421
 16777215
 74
     1
 91
        0
 64
     7
 65
   257
 75
     1
175
     1
 42
1.0
 92
        8
 66
     8
424
  7895160
 43
1.0
 76
     1
 77
     6
 78
     2
 67
     7
 79
     5
170
     0
171
     0
290
     0
174
     0
 93
       13
 44
0.0
173
     0
291
     0
 45
0.0
1001
ACAD
1000
AcDbSavedByObjectVersion
1070
     0
  0
VISUALSTYLE
  5
37
102
{ACAD_REACTORS
330
2A
102
}
330
2A
100
AcDbVisualStyle
  2
Thicken
 70
    13
 71
     2
 72
     2
 73
     0
 90
        0
 40
-0.6
 41
-30.0
 62
     5
 63
     7
421
 16777215
 74
     1
 91
        4
 64
     7
 65
   257
 75
     1
175
     1
 42
1.0
 92
       12
 66
     7
 43
1.0
 76
     1
 77
     6
 78
     2
 67
     7
 79
     5
170
     0
171
     0
290
     0
174
     0
 93
        1
 44
0.0
173
     0
291
     1
 45
0.0
1001
ACAD
1000
AcDbSavedByObjectVersion
1070
     0
  0
ENDSEC
  0
EOF
