<?xml version="1.0" encoding="utf-8"?>
<!-- Generator: Adobe Illustrator 16.0.0, SVG Export Plug-In . SVG Version: 6.00 Build 0)  -->
<!DOCTYPE svg PUBLIC "-//W3C//DTD SVG 1.1//EN" "http://www.w3.org/Graphics/SVG/1.1/DTD/svg11.dtd">
<svg version="1.1" id="Layer_1" xmlns="http://www.w3.org/2000/svg" xmlns:xlink="http://www.w3.org/1999/xlink" x="0px" y="0px"
	 width="595.28px" height="841.89px" viewBox="0 0 595.28 841.89" enable-background="new 0 0 595.28 841.89" xml:space="preserve">
<linearGradient id="SVGID_1_" gradientUnits="userSpaceOnUse" x1="47.2891" y1="420.9448" x2="547.0918" y2="420.9448">
	<stop  offset="0.0056" style="stop-color:#ECC562"/>
	<stop  offset="1" style="stop-color:#C3922E"/>
</linearGradient>
<path fill="url(#SVGID_1_)" d="M547.092,841.89H47.289V539.5l12.468-0.521c0.193-0.011,20.634-0.986,38.823-8.434
	c41.829-17.121,51.3-39.853,55.041-59.834c9.404-50.285-35.528-98.672-50.266-114.575c-25.303-27.226-53.05-70.751-41.704-123.332
	c13.367-61.787,70.302-87.799,93.593-96c0.377-10.727,2.388-27.767,10.071-41.79c11.588-21.001,40.109-38.209,44.148-40.568
	L297.171,0l87.717,54.446c4.04,2.358,32.6,19.551,44.13,40.568c7.75,14.023,9.732,31.062,10.118,41.79
	c23.302,8.201,80.198,34.213,93.544,96c6.302,29.019,4.166,73.989-41.653,123.332c-59.7,64.29-52.606,102.127-50.267,114.575
	c6.688,35.609,31.564,50.237,55.06,59.834c18.314,7.496,38.591,8.423,38.775,8.434l12.497,0.521V841.89z M73.307,815.862h447.738
	V563.738c-9.26-1.299-22.423-3.923-35.093-9.108c-16.556-6.78-60.588-24.78-70.776-79.121
	c-11.828-63.192,39.791-118.803,56.771-137.079c21.079-22.712,44.304-58.5,35.324-100.131
	c-13.173-60.864-83.629-79.154-84.344-79.333l-10.612-2.648l0.803-10.902c0-0.198,1.421-22.779-6.901-37.867
	c-6.986-12.738-27.321-26.477-34.59-30.709l-0.299-0.198l-74.157-46.019l-74.457,46.236c-7.249,4.213-27.574,17.952-34.562,30.676
	c-8.321,15.102-6.91,37.683-6.891,37.905l0.715,10.868l-10.543,2.657c-0.677,0.179-71.22,18.798-84.325,79.333
	c-8.998,41.631,14.235,77.419,35.295,100.131c16.991,18.276,68.62,73.887,56.789,137.079
	c-10.176,54.341-54.189,72.341-70.774,79.121c-12.66,5.186-25.843,7.81-35.111,9.108V815.862z"/>
</svg>
