<?xml version="1.0" encoding="utf-8"?>
<!-- Generator: Adobe Illustrator 16.0.0, SVG Export Plug-In . SVG Version: 6.00 Build 0)  -->
<!DOCTYPE svg PUBLIC "-//W3C//DTD SVG 1.1//EN" "http://www.w3.org/Graphics/SVG/1.1/DTD/svg11.dtd">
<svg version="1.1" id="Layer_1" xmlns="http://www.w3.org/2000/svg" xmlns:xlink="http://www.w3.org/1999/xlink" x="0px" y="0px"
	 width="595.28px" height="841.89px" viewBox="0 0 595.28 841.89" enable-background="new 0 0 595.28 841.89" xml:space="preserve">
<linearGradient id="SVGID_1_" gradientUnits="userSpaceOnUse" x1="0.9199" y1="424.3271" x2="592.0938" y2="424.3271">
	<stop  offset="0.0056" style="stop-color:#ECC562"/>
	<stop  offset="1" style="stop-color:#C3922E"/>
</linearGradient>
<path fill="url(#SVGID_1_)" d="M592.076,484.55v-56.619v-3.562v-60.272l0.018-0.017l-14.074-14.073h0.004l-0.027-0.025l0.013-0.019
	l-0.049-0.038l14.051-14.05h-0.007l0.072-0.057V128.721h-0.059l0.053-0.048v-0.083H384.941l-0.071,0.083l0,0l-14.046,14.033
	l-0.044-0.047l-0.011,0.008l-0.017-0.017h-0.007l-14.074-14.059h-0.027h-60.188v0.043h-60.135l-0.013-0.017l-14.074,14.076l0,0
	l-0.024,0.03l-0.013-0.018l-0.039,0.043L208.11,128.7v0.012l-0.062-0.078H0.948v0.087l0.039,0.043H0.939v207.093l0.069,0.074h-0.01
	l14.048,14.032l-0.048,0.043l0.013,0.022l-0.028,0.017h0.007L0.92,364.124l0.02,0.021v60.177l0,0v60.188l-0.02,0.018l14.07,14.06
	l-0.007,0.008l0.028,0.022l-0.013,0.008l0.048,0.044l-14.048,14.05h0.01l-0.069,0.057v207.11h0.048l-0.039,0.04v0.081h207.1
	l0.062-0.073l0,0l14.049-14.042l0.039,0.048l0.013-0.008l0.024,0.024l0,0l14.074,14.061l0.013-0.01h60.135v0.048h60.188l0.027,0.009
	l14.074-14.067l0.007,0.009l0.017-0.031h0.011l0.044-0.042l14.046,14.049v-0.012l0.071,0.086H592.07v-0.086l-0.053-0.043h0.059
	V512.832l-0.072-0.065l0.007-0.008l-14.051-14.033l0.049-0.057l-0.013-0.008l0.027-0.019l-0.004-0.008l14.074-14.061L592.076,484.55
	z M505.86,142.954v7.354l-11.043,11.04l-18.4-18.394H505.86z M400.666,633.783h-15.577l-14.278,14.236l-14.282-14.236h-15.685
	v-13.117l-15.388-15.392l-0.007-0.009l15.408-15.396l-0.037-13.552h42.924l28.827,28.8l-11.919,11.894L400.666,633.783z
	 M296.457,576.293L296.457,576.293l-18.704,18.706l-11.157-11.156l0.055-22.025h-42.949l28.578-28.548l-11.343-27.003l55.557,22.976
	l55.323-22.771l-10.991,26.668l28.452,28.722h-42.954l0.055,22.03l-11.16,11.156L296.457,576.293z M304.994,605.266l-8.483,8.479
	l-8.531-8.527l8.477-8.479L304.994,605.266z M180.407,605.08l28.832-28.805h42.911l-0.033,13.547l15.404,15.396l-0.006,0.03
	l-15.392,15.387v13.104h-15.688l-14.265,14.232L207.9,633.739h-15.582l0.006-16.774L180.407,605.08z M192.318,214.906H207.9
	l14.269-14.236l14.265,14.236h15.688v13.109l15.392,15.392l0.006,0.009l-15.404,15.394l0.033,13.561h-42.911l-28.832-28.807
	l11.918-11.873L192.318,214.906z M296.457,272.349L296.457,272.349l18.761-18.754l11.16,11.169l-0.055,22.034h42.954l-28.479,28.426
	l11.285,27.15l-55.573-22.976l-55.312,22.781l11.208-26.669l-28.706-28.673h42.949l-0.055-22.047l11.157-11.148L296.457,272.349z
	 M287.98,243.416l8.531-8.51l8.483,8.461l-8.537,8.527L287.98,243.416z M412.571,243.527l-28.827,28.804H340.82l0.037-13.556
	l-15.408-15.409l0.007-0.008l15.388-15.378v-13.113h15.685l14.282-14.254l14.278,14.254h15.577l-0.014,16.766L412.571,243.527z
	 M477.146,287.723l-15.614-15.651h-12.879l0.039-0.049v-12.895l-15.649-15.613l28.678-28.647h44.123l-0.046,0.039v44.139
	L477.146,287.723z M505.797,279.5v26.13h-10.774l-7.667-7.68L505.797,279.5z M466.916,297.95l-18.594,18.593v-30.014h7.203
	L466.916,297.95z M422.814,233.309l-7.693-7.672v-10.77h26.145L422.814,233.309z M422.814,253.746l11.412,11.378v7.207h-30.014
	L422.814,253.746z M467.057,443.122L455.91,454.27l-22.05-0.052v42.945l-28.423-28.413l-26.981,11.139l22.967-55.567l-22.776-55.308
	l26.696,11.013l28.518-28.548v42.95l22.05-0.057l11.146,11.16l-18.756,18.837L467.057,443.122z M448.322,532.099l18.594,18.605
	l-11.391,11.408h-7.203V532.099z M402.047,485.781l31.813,31.851v44.186l0.045,0.043h-44.171l-31.959-31.928l12.91-31.225
	L402.047,485.781z M191.031,485.643l31.097,12.853l12.965,31.502l-31.852,31.82h-44.156l0.04-0.057v-44.178L191.031,485.643z
	 M187.653,468.563l-28.528,28.556v-42.948l-22.039,0.064l-11.15-11.16l18.752-18.754l-18.752-18.755l11.15-11.156l22.039,0.057
	v-42.941l28.439,28.47l26.988-11.251l-22.972,55.577l22.778,55.307L187.653,468.563z M144.665,316.592l-18.587-18.607l11.38-11.416
	h7.207V316.592z M190.908,362.877l-31.783-31.806v-44.187l-0.04-0.047h44.156l31.978,31.928l-12.892,31.168L190.908,362.877z
	 M207.169,424.537l26.27-63.595l62.847-25.957l63.591,26.274l25.966,62.84l-26.267,63.6l-62.853,25.962l-63.589-26.279
	L207.169,424.537z M401.923,362.974l-31.036-12.823l-12.998-31.55l31.846-31.803h44.171l-0.045,0.04v44.178L401.923,362.974z
	 M326.385,221.992l-11.144,11.13l-8.489-8.482l9.832-9.772h9.801V221.992z M277.738,233.166l-11.148-11.147v-7.112h9.798
	l9.828,9.781L277.738,233.166z M188.771,272.37h-30.01v-7.207l11.41-11.381L188.771,272.37z M170.175,233.343l-18.449-18.438h26.131
	v10.774L170.175,233.343z M159.943,243.563l-15.645,15.612v12.896l0.047,0.038h-12.887l-15.608,15.647l-28.652-28.673v-44.13
	l-0.045-0.048h44.117L159.943,243.563z M105.638,297.994l-7.669,7.68H87.198v-26.126L105.638,297.994z M86.943,200.439v-7.354
	l11.236-11.234l18.618,18.589H86.943z M87.198,335.718v-15.573h16.773l11.89-11.923l28.803,28.837v42.903l-13.558-0.032
	l-15.395,15.409l-0.024-0.008l-15.378-15.392H87.198v-15.674l-14.241-14.284L87.198,335.718z M124.238,424.321l-8.526,8.535
	l-8.514-8.562l8.514-8.5L124.238,424.321z M96.981,414.037l-9.783-9.829v-9.798h7.117l11.147,11.139L96.981,414.037z
	 M105.462,443.105l-11.147,11.139h-7.117v-9.802l9.783-9.829L105.462,443.105z M87.198,468.702h13.111l15.378-15.387h0.024
	l15.395,15.387l13.558-0.018v42.901l-28.803,28.834l-11.89-11.902H87.198v-15.581l-14.241-14.275l14.241-14.272V468.702z
	 M144.665,532.059v30.02h-7.207l-11.38-11.421L144.665,532.059z M105.638,550.647l-18.44,18.46v-26.14l10.771-0.008L105.638,550.647
	z M86.943,648.216h29.854l-18.618,18.575l-11.236-11.229V648.216z M87.153,633.739l0.045-0.048v-44.138l28.652-28.669l15.608,15.651
	h12.887l-0.047,0.034v12.896l15.645,15.613l-28.673,28.659H87.153z M170.175,615.298l7.683,7.663v10.778h-26.131L170.175,615.298z
	 M170.171,594.859l-11.41-11.398v-7.186h30.01L170.171,594.859z M266.59,626.615l11.148-11.14l8.478,8.488l-9.828,9.775h-9.798
	V626.615z M315.241,615.523l11.144,11.14v7.12h-9.801l-9.832-9.781L315.241,615.523z M404.213,576.318h30.014v7.199l-11.412,11.382
	L404.213,576.318z M422.814,615.336l18.451,18.447h-26.145v-10.774L422.814,615.336z M433.042,605.135l15.649-15.611v-12.904
	l-0.039-0.049h12.879l15.614-15.647l28.651,28.674v44.143l0.046,0.044H461.72L433.042,605.135z M487.355,550.688l7.667-7.673h10.774
	v26.127L487.355,550.688z M506.061,648.24v7.356l-11.253,11.251l-18.609-18.607H506.061z M505.797,512.98v15.577h-16.772
	l-11.894,11.897l-28.809-28.812v-42.924l13.563,0.031l15.4-15.408l0.019,0.018l15.383,15.391h13.109v15.677l14.238,14.281
	L505.797,512.98z M468.751,424.369l8.535-8.622l8.507,8.509l-8.507,8.631L468.751,424.369z M496.021,434.651l9.775,9.829v9.798
	h-7.116l-11.147-11.139L496.021,434.651z M487.533,405.502l11.147-11.139h7.116v9.812l-9.775,9.819L487.533,405.502z
	 M505.797,379.905h-13.109l-15.383,15.386l-0.019,0.009l-15.4-15.413l-13.563,0.042v-42.918l28.809-28.834l11.894,11.919
	l16.772-0.017v15.59l14.238,14.263l-14.238,14.276V379.905z M506.061,200.4h-29.862l18.609-18.607l11.253,11.252V200.4z
	 M415.134,142.954h40.821l28.628,28.612l-28.85,28.834H415.13l0.004-13.352l-15.374-15.369l0.018-0.021l-0.018-0.026l15.374-15.37
	V142.954z M391.042,142.954h9.627v7.32l-11.144,11.13l-8.47-8.471L391.042,142.954z M389.555,181.916l11.114,11.13l-0.003,7.355
	h-9.591l-10.027-9.985L389.555,181.916z M370.803,163.179l8.472,8.479l-8.501,8.5l-5.071-5.068l-3.407-3.402L370.803,163.179z
	 M350.564,200.4h-9.707v-7.363l11.142-11.148l8.543,8.562L350.564,200.4z M340.857,142.954h9.722l9.939,9.923l-8.52,8.518
	l-11.142-11.138V142.954z M266.581,143.001l59.812-0.047v13.291l15.38,15.387l-0.031,0.008l0.031,0.031l-15.38,15.377V200.4h-15.784
	l-14.076,14.02l-14.172-13.981h-15.78v-13.355l-15.376-15.37l0.024-0.025l-0.024-0.03l15.376-15.37V143.001z M242.395,143.001h9.72
	v7.299l-11.139,11.152l-8.511-8.518L242.395,143.001z M240.976,181.933l11.139,11.152v7.354h-9.693l-9.987-9.958L240.976,181.933z
	 M222.174,163.226l8.504,8.51l-3.4,3.401l-5.072,5.068l-8.503-8.509L222.174,163.226z M201.916,200.439h-9.598v-7.354l11.11-11.104
	l8.498,8.47L201.916,200.439z M192.315,143.001h9.623l9.989,9.976l-8.475,8.475l-11.137-11.13V143.001z M177.847,143.001v13.296
	l15.38,15.382l-0.021,0.017l0.021,0.026l-15.38,15.382l0.009,13.334h-40.598l-28.843-28.816l28.622-28.622H177.847z M87.138,143.001
	h29.438l-18.396,18.385l-11.041-11.039V143.001z M15.283,143.123h0.079l-0.068-0.074v-0.048h57.377v13.335l15.285,15.287
	L72.667,186.91l0.025,13.703l-13.617-0.017L43.913,215.77l-15.271-15.288H15.283V143.123z M72.734,214.758v29.854l-18.598-18.615
	l11.246-11.24H72.734z M15.283,214.954h7.366l11.035,11.044l-18.4,18.394V214.954z M15.283,264.855l28.63-28.631l28.821,28.848
	v40.602H59.391l-15.378,15.361l-0.017-0.019l-0.02,0.019l-15.385-15.361H15.283V264.855z M62.745,339.745l-8.478-8.501
	l11.115-11.107h7.353v9.594L62.745,339.745z M72.734,370.232v9.698h-7.362l-11.139-11.138l8.542-8.544L72.734,370.232z
	 M52.489,350.02l-5.062,5.077L44.03,358.5l-8.503-8.501l8.468-8.479L52.489,350.02z M15.283,320.137h7.322l11.139,11.138
	l-8.474,8.463l-9.987-9.981V320.137z M15.283,370.215l9.939-9.95l8.511,8.527L22.597,379.93h-7.314V370.215z M15.283,394.389h13.302
	l15.378-15.37l0.019,0.031l0.02-0.031l15.374,15.37h13.358v15.781l13.959,14.151l-13.959,14.146v15.795H59.375l-15.374,15.359
	l-0.02-0.008l-0.019,0.008l-15.378-15.359H15.283V394.389z M62.775,488.406l-8.542-8.557l11.139-11.147h7.362v9.707L62.775,488.406z
	 M72.734,518.91v9.607h-7.353l-11.115-11.112l8.478-8.496L72.734,518.91z M52.489,498.617l-8.494,8.505l-8.468-8.479l8.503-8.5
	l3.397,3.405L52.489,498.617z M15.283,468.702h7.314l11.137,11.147l-8.511,8.518l-9.939-9.937V468.702z M15.283,518.886l9.987-9.977
	l8.474,8.471l-11.139,11.138h-7.322V518.886z M15.283,542.977h13.308l15.385-15.378l0.02,0.017l0.017-0.017l15.378,15.378
	l13.343-0.009v40.606l-28.821,28.843l-28.63-28.621V542.977z M72.734,604.028v29.851h-7.353l-11.246-11.234L72.734,604.028z
	 M15.283,604.255l18.4,18.39l-11.035,11.047h-7.366V604.255z M72.671,705.649H15.293v-0.053l0.068-0.077h-0.079v-57.36h13.358
	l15.271-15.288l15.163,15.166l13.617-0.009l-0.025,13.716l15.289,15.288l-15.285,15.265V705.649z M87.138,705.649v-7.363
	l11.041-11.036l18.396,18.399H87.138z M177.847,705.649h-40.81l-28.622-28.617l28.843-28.816h40.598l-0.009,13.324l15.38,15.371
	l-0.021,0.034l0.021,0.03l-15.38,15.369V705.649z M201.938,705.649h-9.623v-7.316l11.137-11.14l8.475,8.48L201.938,705.649z
	 M203.429,666.674l-11.11-11.111v-7.347h9.598l10.011,9.976L203.429,666.674z M222.174,685.419l-8.471-8.474l8.503-8.497l5.072,5.06
	l3.4,3.403L222.174,685.419z M242.421,648.216h9.693v7.347l-11.139,11.146l-8.542-8.544L242.421,648.216z M252.114,705.649h-9.72
	l-9.93-9.929l8.511-8.518l11.139,11.138V705.649z M326.393,705.697l-59.812-0.048v-13.296l-15.376-15.378l0.024-0.03l-0.024-0.018
	l15.376-15.369v-13.343h15.78l14.172-13.986l14.076,14.011h15.784v13.366l15.38,15.369l-0.031,0.026l0.031,0.021l-15.38,15.369
	V705.697z M350.579,705.697h-9.722v-7.308l11.142-11.14l8.52,8.505L350.579,705.697z M351.999,666.757l-11.142-11.147v-7.369h9.707
	l9.978,9.959L351.999,666.757z M370.803,685.455l-8.508-8.51l3.407-3.394l5.071-5.068l8.501,8.501L370.803,685.455z M391.075,648.24
	h9.591l0.003,7.369l-11.114,11.1l-8.507-8.479L391.075,648.24z M400.669,705.697h-9.627l-9.986-9.993l8.47-8.475l11.144,11.151
	V705.697z M415.134,705.697v-13.313l-15.374-15.382l0.018-0.018l-0.018-0.009l15.374-15.379l-0.004-13.356h40.604l28.85,28.826
	l-28.628,28.631H415.134z M505.86,705.697h-29.443l18.4-18.403l11.043,11.039V705.697z M577.729,705.576h-0.078l0.059,0.055v0.066
	h-57.375v-13.353l-15.288-15.278l15.288-15.286l-0.033-13.704l13.624,0.009l15.167-15.174l15.27,15.295h13.367V705.576z
	 M520.271,633.921v-29.844l18.596,18.605l-11.252,11.238H520.271z M577.729,633.739h-7.365l-11.039-11.057l18.404-18.401V633.739z
	 M577.729,583.834l-28.626,28.631l-28.832-28.843v-40.607l13.339,0.01l15.38-15.379l0.022,0.018l0.026-0.018l15.38,15.379h13.311
	V583.834z M530.253,508.943l8.485,8.492l-11.124,11.13h-7.344v-9.606L530.253,508.943z M520.271,478.447v-9.688h7.366l11.135,11.13
	l-8.542,8.552L520.271,478.447z M540.514,498.669l5.064-5.077l3.398-3.401l8.507,8.509l-8.472,8.47L540.514,498.669z
	 M577.729,528.565h-7.327l-11.144-11.138l8.479-8.484l9.991,9.989V528.565z M577.729,478.483l-9.939,9.923l-8.513-8.518
	l11.137-11.13h7.315V478.483z M577.729,454.292h-13.308l-15.377,15.378l-0.021-0.017l-0.023,0.017l-15.372-15.378h-13.356V438.51
	l-14.031-14.289l14.031-14.081v-15.785h13.356l15.372-15.378l0.023,0.017l0.021-0.017l15.377,15.378h13.308V454.292z
	 M530.229,360.201l8.542,8.544l-11.135,11.143h-7.366v-9.703L530.229,360.201z M520.271,329.691v-9.611h7.344l11.124,11.13
	l-8.485,8.488L520.271,329.691z M540.514,349.982l8.498-8.51l8.472,8.461l-8.507,8.518l-3.398-3.401L540.514,349.982z
	 M577.729,379.888h-7.315l-11.137-11.143l8.513-8.506l9.939,9.919V379.888z M577.729,329.714l-9.991,9.984l-8.479-8.471
	l11.144-11.147h7.327V329.714z M577.729,305.63h-13.311l-15.38,15.378l-0.026-0.03L548.989,321l-15.38-15.369h-13.339v-40.598
	l28.832-28.843l28.626,28.622V305.63z M520.271,244.578v-29.867h7.344l11.252,11.251L520.271,244.578z M577.729,244.361
	l-18.404-18.407l11.039-11.049h7.365V244.361z M577.729,200.439h-13.367l-15.27,15.283l-15.167-15.166l-13.624,0.022l0.033-13.725
	l-15.288-15.278l15.288-15.278v-13.343h57.375v0.047l-0.059,0.065h0.078V200.439z"/>
</svg>
