<?xml version="1.0" encoding="utf-8"?>
<!-- Generator: Adobe Illustrator 16.0.0, SVG Export Plug-In . SVG Version: 6.00 Build 0)  -->
<!DOCTYPE svg PUBLIC "-//W3C//DTD SVG 1.1//EN" "http://www.w3.org/Graphics/SVG/1.1/DTD/svg11.dtd">
<svg version="1.1" id="Layer_1" xmlns="http://www.w3.org/2000/svg" xmlns:xlink="http://www.w3.org/1999/xlink" x="0px" y="0px"
	 width="595.28px" height="841.89px" viewBox="0 0 595.28 841.89" enable-background="new 0 0 595.28 841.89" xml:space="preserve">
<linearGradient id="SVGID_1_" gradientUnits="userSpaceOnUse" x1="90.3027" y1="421.0366" x2="504.3701" y2="421.0366">
	<stop  offset="0.0056" style="stop-color:#ECC562"/>
	<stop  offset="1" style="stop-color:#C3922E"/>
</linearGradient>
<path fill="url(#SVGID_1_)" d="M504.073,455.448c-2.375-43.561-22.703-67.027-40.158-82.616
	c-14.92-13.315-31.578-19.426-40.148-21.867c1.994-6.433,4.374-17.397,1.773-28.265c-3.885-16.358-13.034-30.539-30.628-47.398
	c-15.984-15.278-37.003-44.911-49.774-65.948c-10.851-17.869-24.171-58.422-28.558-71.749l-0.889-2.775
	c-1.158-3.414,4.333-17.821,11.709-30.819l1.504-2.638l-15.242-24.027h2.268V60.803h-4.172c10.48-5.294,17.69-16.15,17.69-28.659
	C329.448,14.419,315.034,0,297.315,0c-17.713,0-32.126,14.419-32.126,32.144c0,12.509,7.222,23.365,17.696,28.659h-4.154v16.543
	h2.274l-15.212,24.027l1.51,2.638c7.353,12.999,12.825,27.405,11.692,30.825l-0.907,2.769
	c-4.375,13.327-17.714,53.892-28.558,71.749c-12.759,21.037-33.803,50.657-49.768,65.948c-17.582,16.859-26.755,31.04-30.646,47.398
	c-2.572,10.868-0.197,21.832,1.797,28.265c-8.583,2.441-25.239,8.552-40.154,21.867c-17.444,15.589-37.796,39.055-40.159,82.616
	c-1.945,35.768,5.634,62.11,24.654,85.428c11.512,14.144,26.039,25.155,43.191,32.8c5.735,2.519,10.08,4.238,13.225,5.401
	c-2.292,5.127-4.786,13.477-4.094,24.487c0.734,12.098,6.958,25.436,19.545,41.949c4.321,5.677,9.752,11.561,16.066,18.388
	c12.419,13.47,27.895,30.235,40.583,52.335c18.913,32.901,35.29,74.888,37.247,82.807l2.012,8.015
	c-3.527,3.737-5.717,8.738-5.717,14.276c0,11.43,9.304,20.739,20.739,20.739c11.447,0,20.751-9.31,20.751-20.739
	c0-6.117-2.668-11.59-6.87-15.374l1.72-6.917c1.97-7.919,18.34-49.905,37.271-82.807c12.688-22.124,28.156-38.895,40.577-52.358
	c6.308-6.804,11.739-12.7,16.053-18.364c12.601-16.514,18.795-29.852,19.559-41.961c0.704-10.999-1.825-19.349-4.095-24.476
	c3.121-1.163,7.495-2.883,13.227-5.401c17.146-7.657,31.673-18.667,43.185-32.8C498.423,517.559,506.024,491.216,504.073,455.448z
	 M387.928,282.619c16.049,15.41,24.368,28.098,27.782,42.421c2.298,9.681-0.555,19.952-2.213,24.708
	c-5.038,0.424-15.883,1.276-30.475,2.202c3.115-8.29,6.548-21.975,2.566-35.875c-3.962-13.917-13.63-29.519-24.814-47.578
	c-5.593-9.042-11.376-18.376-16.979-28.348c-11.191-19.951-20.012-46.516-25.992-67.977c5.67,15.427,12.496,32.215,18.691,42.433
	C346.601,231.245,368.783,264.32,387.928,282.619z M398.792,381.808c6.121,8.069,24.76,32.574,23.926,93.091
	c-0.527,37.228-7.396,65.003-20.399,82.562c-12.683,17.122-28.933,19.527-29.609,19.617l-1.001,0.131
	c-20.495,2.107-47.989,4.064-81.62,4.555c-1.176-2.19-3.002-6.356-4.142-12.909c-0.37-1.929-0.704-3.641-1.056-5.354
	c-1.826-8.839-3.874-18.817-6.249-71.897c-3.163-70.364,1.963-107.48,3.038-114.206c1.008-6.487,2.715-10.193,3.896-12.126
	c0.597,0,1.182,0.012,1.785,0.012c32.125,0,63.423-1.326,87.312-2.71C377.842,363.749,388.608,368.422,398.792,381.808z
	 M373.886,619.183c-2.961,7.431-8.815,17.952-15.582,30.169c-9.137,16.454-20.488,36.942-30.689,60.194
	c-9.512,21.718-18.5,47.356-24.88,70.543c0.06-17.254-0.274-40.935-1.767-63.853c-1.993-30.438-6.452-60.367-9.399-80.164
	c-1.29-8.684-2.316-15.576-2.728-19.796c-0.931-9.196,1.11-19.271,2.381-24.397c32.443-0.501,59.013-2.327,79.227-4.339
	C373.219,593.461,378.583,607.426,373.886,619.183z M215.97,317.406c4.757-16.83,14.652-33.033,26.14-51.785
	c6.78-11.059,14.467-23.622,21.921-37.725c13.106-24.809,22.482-55.168,27.525-73.843c-0.167,19.552-0.871,52.615-3.545,88.203
	c-2.459,32.777-5.581,53.88-7.866,69.319c-1.641,11.125-2.834,19.14-2.834,25.842c0,8.045,0.406,13.888,0.788,17.702
	c-25.347-0.215-46.891-1.218-63.429-2.316C213.153,348.339,210.563,336.612,215.97,317.406z M371.738,352.612
	c-23.14,1.307-52.92,2.519-83.453,2.542c-0.375-3.348-0.865-9.221-0.865-17.737c0-5.956,1.158-13.667,2.745-24.361
	c2.304-15.577,5.455-36.907,7.95-70.053c2.877-38.346,3.503-73.766,3.599-92.798c5.02,21.718,16.358,64.802,33.267,94.893
	c5.705,10.182,11.542,19.617,17.193,28.725c10.779,17.433,20.089,32.484,23.687,45.029
	C379.847,332.84,374.25,347.205,371.738,352.612z M305.868,130.003c-1.833,0.358-4.56,0.722-8.291,0.901
	c-4.41,0.221-7.173-0.191-8.731-0.597c-1.05-6.833-4.554-15.206-7.788-21.837c3.944,0.531,8.767,0.967,14.15,0.967
	c6.607,0,13.321-0.656,18.602-1.343C310.57,114.688,306.989,123.116,305.868,130.003z M274.41,365.199
	c-1.062,2.787-2.059,6.236-2.727,10.611c-1.116,6.905-6.362,44.904-3.164,116.253c2.423,53.873,4.566,64.276,6.446,73.455
	c0.334,1.652,0.668,3.264,0.985,5.103c0.83,4.643,1.945,8.313,3.074,11.214c-31.769,0.064-54.387-1.851-69.803-4.064
	c-3.927-1.856-37.492-18.507-52.692-50.794c-16.406-34.89-14.228-91.568,4.686-121.278c17.928-28.188,43.781-40.339,50.144-42.982
	C227.596,363.856,249.051,364.924,274.41,365.199z M210.945,588.256c15.619,2.048,37.39,3.725,67.021,3.725
	c0.919,0,1.874-0.012,2.829-0.012c-1.379,6.236-2.966,15.971-2.029,25.316c0.441,4.464,1.474,11.446,2.793,20.285
	c2.918,19.629,7.329,49.303,9.298,79.316c1.271,19.17,1.677,38.864,1.754,54.822c-0.746-2.811-1.581-5.741-2.566-8.874
	c-8.713-28.325-46.372-93.956-69.194-124.166C204.954,617.685,208.576,596.582,210.945,588.256z M275.299,32.144
	c0-12.139,9.895-22.022,22.016-22.022c12.133,0,22.017,9.883,22.017,22.022c0,8.958-5.39,16.681-13.082,20.13h-17.833
	C280.7,48.825,275.299,41.102,275.299,32.144z M293,77.346h8.684l12.938,20.435c-5.198,0.729-12.455,1.517-19.415,1.517
	c-6.087,0-11.417-0.621-15.35-1.248L293,77.346z M178.974,325.04c3.402-14.323,11.715-27.011,27.793-42.421
	c19.104-18.298,41.317-51.374,51.421-68.012c2.477-4.1,5.085-9.257,7.651-14.95c-3.241,8.057-6.816,16.066-10.737,23.484
	c-7.305,13.864-14.592,25.729-21.628,37.211c-11.858,19.391-22.111,36.119-27.238,54.304c-4.959,17.569-3.975,30.014-2.274,37.366
	c-11.046-0.866-18.806-1.701-22.732-2.172C179.583,345.158,176.652,334.773,178.974,325.04z M162.556,564.42
	c-15.678-6.982-28.969-17.062-39.443-29.924c-17.546-21.527-24.242-44.994-22.428-78.498c2.19-39.826,20.822-61.334,36.823-75.622
	c16.723-14.926,36.394-19.862,40.303-20.728c1.874,0.215,6.881,0.83,14.592,1.534c-11.715,7.239-27.322,19.593-39.724,39.079
	c-20.858,32.794-23.305,92.797-5.306,131.012c8.26,17.581,21.127,30.765,32.664,39.926
	C178.878,570.865,173.305,569.176,162.556,564.42z M252.543,711.193c-13.244-23.097-29.166-40.309-41.914-54.16
	c-6.129-6.638-11.435-12.366-15.457-17.66c-11.154-14.658-16.896-26.576-17.51-36.447c-0.615-9.9,1.826-16.896,3.623-20.602
	c3.729,1.151,10.05,2.799,19.61,4.422c-2.846,10.898-5.86,34.598,11.889,58.04c21.891,28.951,59.317,94.068,67.595,121.015
	c1.002,3.211,1.856,6.219,2.614,9.041C275.908,757.272,264.867,732.619,252.543,711.193z M298.049,831.934
	c-5.855,0-10.629-4.757-10.629-10.6c0-4.541,2.882-8.391,6.899-9.913h7.466c4.017,1.522,6.882,5.372,6.882,9.913
	C308.667,827.177,303.916,831.934,298.049,831.934z M417.01,602.926c-0.63,9.871-6.331,21.789-17.503,36.447
	c-4.029,5.281-9.333,11.022-15.446,17.66c-12.771,13.84-28.664,31.063-41.942,54.16c-6.601,11.512-12.861,23.968-18.334,35.761
	c4.088-11.549,8.534-22.918,13.112-33.356c10.008-22.798,21.24-43.059,30.264-59.341c7.216-13.028,12.928-23.299,16.107-31.313
	c5.395-13.459,1.212-28.152-2.25-36.525c16.072-1.844,26.88-3.657,32.098-4.607C414.934,585.392,417.649,592.655,417.01,602.926z
	 M471.59,534.496c-10.511,12.861-23.782,22.941-39.467,29.924c-11.41,5.061-16.992,6.648-17.629,6.815
	c-0.67,0.143-5.146,1.021-13.21,2.262c3.135-2.745,6.232-6.045,9.169-9.996c14.28-19.312,21.806-49.076,22.381-88.466
	c0.589-43.054-7.914-75.555-25.985-99.368c-4.721-6.201-9.592-10.814-14.009-14.216c12.821-0.883,21.461-1.611,23.928-1.832
	c3.724,0.793,23.466,5.652,40.421,20.757c15.978,14.288,34.608,35.796,36.782,75.622C495.809,489.502,489.1,512.969,471.59,534.496z
	"/>
</svg>
