  0
SECTION
  2
HEADER
  9
$ACADVER
  1
AC1018
  9
$ACADMAINTVER
 70
     0
  9
$DWGCODEPAGE
  3
ANSI_932
  9
$INSBASE
 10
0.0
 20
0.0
 30
0.0
  9
$EXTMIN
 10
1.000000000000000E+20
 20
1.000000000000000E+20
 30
1.000000000000000E+20
  9
$EXTMAX
 10
-1.000000000000000E+20
 20
-1.000000000000000E+20
 30
-1.000000000000000E+20
  9
$LIMMIN
 10
0.0
 20
0.0
  9
$LIMMAX
 10
12.0
 20
9.0
  9
$ORTHOMODE
 70
     0
  9
$REGENMODE
 70
     1
  9
$FILLMODE
 70
     1
  9
$QTEXTMODE
 70
     0
  9
$MIRRTEXT
 70
     1
  9
$LTSCALE
 40
1.0
  9
$ATTMODE
 70
     1
  9
$TEXTSIZE
 40
0.2
  9
$TRACEWID
 40
0.05
  9
$TEXTSTYLE
  7
Standard
  9
$CLAYER
  8
0
  9
$CELTYPE
  6
ByLayer
  9
$CECOLOR
 62
   256
  9
$CELTSCALE
 40
1.0
  9
$DISPSILH
 70
     0
  9
$DIMSCALE
 40
1.0
  9
$DIMASZ
 40
0.18
  9
$DIMEXO
 40
0.0625
  9
$DIMDLI
 40
0.38
  9
$DIMRND
 40
0.0
  9
$DIMDLE
 40
0.0
  9
$DIMEXE
 40
0.18
  9
$DIMTP
 40
0.0
  9
$DIMTM
 40
0.0
  9
$DIMTXT
 40
0.18
  9
$DIMCEN
 40
0.09
  9
$DIMTSZ
 40
0.0
  9
$DIMTOL
 70
     0
  9
$DIMLIM
 70
     0
  9
$DIMTIH
 70
     1
  9
$DIMTOH
 70
     1
  9
$DIMSE1
 70
     0
  9
$DIMSE2
 70
     0
  9
$DIMTAD
 70
     0
  9
$DIMZIN
 70
     0
  9
$DIMBLK
  1

  9
$DIMASO
 70
     1
  9
$DIMSHO
 70
     1
  9
$DIMPOST
  1

  9
$DIMAPOST
  1

  9
$DIMALT
 70
     0
  9
$DIMALTD
 70
     2
  9
$DIMALTF
 40
25.4
  9
$DIMLFAC
 40
1.0
  9
$DIMTOFL
 70
     0
  9
$DIMTVP
 40
0.0
  9
$DIMTIX
 70
     0
  9
$DIMSOXD
 70
     0
  9
$DIMSAH
 70
     0
  9
$DIMBLK1
  1

  9
$DIMBLK2
  1

  9
$DIMSTYLE
  2
Standard
  9
$DIMCLRD
 70
     0
  9
$DIMCLRE
 70
     0
  9
$DIMCLRT
 70
     0
  9
$DIMTFAC
 40
1.0
  9
$DIMGAP
 40
0.09
  9
$DIMJUST
 70
     0
  9
$DIMSD1
 70
     0
  9
$DIMSD2
 70
     0
  9
$DIMTOLJ
 70
     1
  9
$DIMTZIN
 70
     0
  9
$DIMALTZ
 70
     0
  9
$DIMALTTZ
 70
     0
  9
$DIMUPT
 70
     0
  9
$DIMDEC
 70
     4
  9
$DIMTDEC
 70
     4
  9
$DIMALTU
 70
     2
  9
$DIMALTTD
 70
     2
  9
$DIMTXSTY
  7
Standard
  9
$DIMAUNIT
 70
     0
  9
$DIMADEC
 70
     0
  9
$DIMALTRND
 40
0.0
  9
$DIMAZIN
 70
     0
  9
$DIMDSEP
 70
    46
  9
$DIMATFIT
 70
     3
  9
$DIMFRAC
 70
     0
  9
$DIMLDRBLK
  1

  9
$DIMLUNIT
 70
     2
  9
$DIMLWD
 70
    -2
  9
$DIMLWE
 70
    -2
  9
$DIMTMOVE
 70
     0
  9
$LUNITS
 70
     2
  9
$LUPREC
 70
     4
  9
$SKETCHINC
 40
0.1
  9
$FILLETRAD
 40
0.5
  9
$AUNITS
 70
     0
  9
$AUPREC
 70
     0
  9
$MENU
  1
.
  9
$ELEVATION
 40
0.0
  9
$PELEVATION
 40
0.0
  9
$THICKNESS
 40
0.0
  9
$LIMCHECK
 70
     0
  9
$CHAMFERA
 40
0.5
  9
$CHAMFERB
 40
0.5
  9
$CHAMFERC
 40
1.0
  9
$CHAMFERD
 40
0.0
  9
$SKPOLY
 70
     0
  9
$TDCREATE
 40
2460559.685092593
  9
$TDUCREATE
 40
2460559.601759259
  9
$TDUPDATE
 40
2460559.685092604
  9
$TDUUPDATE
 40
2460559.601759271
  9
$TDINDWG
 40
0.0000000116
  9
$TDUSRTIMER
 40
0.0000000116
  9
$USRTIMER
 70
     1
  9
$ANGBASE
 50
0.0
  9
$ANGDIR
 70
     0
  9
$PDMODE
 70
     0
  9
$PDSIZE
 40
0.0
  9
$PLINEWID
 40
0.0
  9
$SPLFRAME
 70
     0
  9
$SPLINETYPE
 70
     6
  9
$SPLINESEGS
 70
     8
  9
$HANDSEED
  5
83
  9
$SURFTAB1
 70
     6
  9
$SURFTAB2
 70
     6
  9
$SURFTYPE
 70
     6
  9
$SURFU
 70
     6
  9
$SURFV
 70
     6
  9
$UCSBASE
  2

  9
$UCSNAME
  2

  9
$UCSORG
 10
0.0
 20
0.0
 30
0.0
  9
$UCSXDIR
 10
1.0
 20
0.0
 30
0.0
  9
$UCSYDIR
 10
0.0
 20
1.0
 30
0.0
  9
$UCSORTHOREF
  2

  9
$UCSORTHOVIEW
 70
     0
  9
$UCSORGTOP
 10
0.0
 20
0.0
 30
0.0
  9
$UCSORGBOTTOM
 10
0.0
 20
0.0
 30
0.0
  9
$UCSORGLEFT
 10
0.0
 20
0.0
 30
0.0
  9
$UCSORGRIGHT
 10
0.0
 20
0.0
 30
0.0
  9
$UCSORGFRONT
 10
0.0
 20
0.0
 30
0.0
  9
$UCSORGBACK
 10
0.0
 20
0.0
 30
0.0
  9
$PUCSBASE
  2

  9
$PUCSNAME
  2

  9
$PUCSORG
 10
0.0
 20
0.0
 30
0.0
  9
$PUCSXDIR
 10
1.0
 20
0.0
 30
0.0
  9
$PUCSYDIR
 10
0.0
 20
1.0
 30
0.0
  9
$PUCSORTHOREF
  2

  9
$PUCSORTHOVIEW
 70
     0
  9
$PUCSORGTOP
 10
0.0
 20
0.0
 30
0.0
  9
$PUCSORGBOTTOM
 10
0.0
 20
0.0
 30
0.0
  9
$PUCSORGLEFT
 10
0.0
 20
0.0
 30
0.0
  9
$PUCSORGRIGHT
 10
0.0
 20
0.0
 30
0.0
  9
$PUCSORGFRONT
 10
0.0
 20
0.0
 30
0.0
  9
$PUCSORGBACK
 10
0.0
 20
0.0
 30
0.0
  9
$USERI1
 70
     0
  9
$USERI2
 70
     0
  9
$USERI3
 70
     0
  9
$USERI4
 70
     0
  9
$USERI5
 70
     0
  9
$USERR1
 40
0.0
  9
$USERR2
 40
0.0
  9
$USERR3
 40
0.0
  9
$USERR4
 40
0.0
  9
$USERR5
 40
0.0
  9
$WORLDVIEW
 70
     1
  9
$SHADEDGE
 70
     3
  9
$SHADEDIF
 70
    70
  9
$TILEMODE
 70
     1
  9
$MAXACTVP
 70
    64
  9
$PINSBASE
 10
0.0
 20
0.0
 30
0.0
  9
$PLIMCHECK
 70
     0
  9
$PEXTMIN
 10
1.000000000000000E+20
 20
1.000000000000000E+20
 30
1.000000000000000E+20
  9
$PEXTMAX
 10
-1.000000000000000E+20
 20
-1.000000000000000E+20
 30
-1.000000000000000E+20
  9
$PLIMMIN
 10
0.0
 20
0.0
  9
$PLIMMAX
 10
12.0
 20
9.0
  9
$UNITMODE
 70
     0
  9
$VISRETAIN
 70
     1
  9
$PLINEGEN
 70
     0
  9
$PSLTSCALE
 70
     1
  9
$TREEDEPTH
 70
  3020
  9
$CMLSTYLE
  2
Standard
  9
$CMLJUST
 70
     0
  9
$CMLSCALE
 40
1.0
  9
$PROXYGRAPHICS
 70
     1
  9
$MEASUREMENT
 70
     0
  9
$CELWEIGHT
370
    -1
  9
$ENDCAPS
280
     0
  9
$JOINSTYLE
280
     0
  9
$LWDISPLAY
290
     1
  9
$INSUNITS
 70
     1
  9
$HYPERLINKBASE
  1

  9
$STYLESHEET
  1

  9
$XEDIT
290
     1
  9
$CEPSNTYPE
380
     0
  9
$PSTYLEMODE
290
     1
  9
$FINGERPRINTGUID
  2
{B760A5BE-53DF-660A-1EB6-A7238E491DD1}
  9
$VERSIONGUID
  2
{FAEB1C32-E019-11D5-929B-00C0DF256EC4}
  9
$EXTNAMES
290
     1
  9
$PSVPSCALE
 40
0.0
  9
$OLESTARTUP
290
     0
  9
$SORTENTS
280
   127
  9
$INDEXCTL
280
     0
  9
$HIDETEXT
280
     1
  9
$XCLIPFRAME
290
     0
  9
$HALOGAP
280
     0
  9
$OBSCOLOR
 70
   257
  9
$OBSLTYPE
280
     0
  9
$INTERSECTIONDISPLAY
280
     0
  9
$INTERSECTIONCOLOR
 70
   257
  9
$DIMASSOC
280
     2
  9
$PROJECTNAME
  1

  0
ENDSEC
  0
SECTION
  2
CLASSES
  0
CLASS
  1
ACDBDICTIONARYWDFLT
  2
AcDbDictionaryWithDefault
  3
ObjectDBX Classes
 90
        0
 91
        3
280
     0
281
     0
  0
CLASS
  1
VISUALSTYLE
  2
AcDbVisualStyle
  3
ObjectDBX Classes
 90
     4095
 91
        3
280
     0
281
     0
  0
ENDSEC
  0
SECTION
  2
TABLES
  0
TABLE
  2
VPORT
  5
8
330
0
100
AcDbSymbolTable
 70
     1
  0
VPORT
  5
29
330
8
100
AcDbSymbolTableRecord
100
AcDbViewportTableRecord
  2
*Active
 70
     0
 10
0.0
 20
0.0
 11
1.0
 21
1.0
 12
0.0
 22
0.0
 13
0.0
 23
0.0
 14
0.5
 24
0.5
 15
0.5
 25
0.5
 16
0.0
 26
0.0
 36
1.0
 17
4.133890787760416
 27
-5.846455891927083
 37
0.0
 40
11.69291178385417
 41
0.7070763662937378
 42
50.0
 43
0.0
 44
0.0
 50
0.0
 51
0.0
 71
     0
 72
   100
 73
     1
 74
     3
 75
     0
 76
     0
 77
     0
 78
     0
281
     0
 65
     1
110
0.0
120
0.0
130
0.0
111
1.0
121
0.0
131
0.0
112
0.0
122
1.0
132
0.0
 79
     0
146
0.0
  0
ENDTAB
  0
TABLE
  2
LTYPE
  5
5
330
0
100
AcDbSymbolTable
 70
     1
  0
LTYPE
  5
14
330
5
100
AcDbSymbolTableRecord
100
AcDbLinetypeTableRecord
  2
ByBlock
 70
     0
  3

 72
    65
 73
     0
 40
0.0
  0
LTYPE
  5
15
330
5
100
AcDbSymbolTableRecord
100
AcDbLinetypeTableRecord
  2
ByLayer
 70
     0
  3

 72
    65
 73
     0
 40
0.0
  0
LTYPE
  5
16
330
5
100
AcDbSymbolTableRecord
100
AcDbLinetypeTableRecord
  2
Continuous
 70
     0
  3
Solid line
 72
    65
 73
     0
 40
0.0
  0
ENDTAB
  0
TABLE
  2
LAYER
  5
2
330
0
100
AcDbSymbolTable
 70
     2
  0
LAYER
  5
10
330
2
100
AcDbSymbolTableRecord
100
AcDbLayerTableRecord
  2
0
 70
     0
 62
     7
  6
Continuous
370
    -3
390
F
  0
LAYER
  5
3B
330
2
100
AcDbSymbolTableRecord
100
AcDbLayerTableRecord
  2
Layer 1
 70
     0
 62
     7
  6
Continuous
370
    -3
390
F
  0
ENDTAB
  0
TABLE
  2
STYLE
  5
3
330
0
100
AcDbSymbolTable
 70
     1
  0
STYLE
  5
11
330
3
100
AcDbSymbolTableRecord
100
AcDbTextStyleTableRecord
  2
Standard
 70
     0
 40
0.0
 41
1.0
 50
0.0
 71
     0
 42
0.2
  3
txt
  4

  0
ENDTAB
  0
TABLE
  2
VIEW
  5
6
330
0
100
AcDbSymbolTable
 70
     0
  0
ENDTAB
  0
TABLE
  2
UCS
  5
7
330
0
100
AcDbSymbolTable
 70
     0
  0
ENDTAB
  0
TABLE
  2
APPID
  5
9
330
0
100
AcDbSymbolTable
 70
     1
  0
APPID
  5
12
330
9
100
AcDbSymbolTableRecord
100
AcDbRegAppTableRecord
  2
ACAD
 70
     0
  0
ENDTAB
  0
TABLE
  2
DIMSTYLE
  5
A
330
0
100
AcDbSymbolTable
 70
     1
100
AcDbDimStyleTable
  0
DIMSTYLE
105
27
330
A
100
AcDbSymbolTableRecord
100
AcDbDimStyleTableRecord
  2
Standard
 70
     0
340
11
  0
ENDTAB
  0
TABLE
  2
BLOCK_RECORD
  5
1
330
0
100
AcDbSymbolTable
 70
     1
  0
BLOCK_RECORD
  5
1F
330
1
100
AcDbSymbolTableRecord
100
AcDbBlockTableRecord
  2
*Model_Space
340
22
  0
BLOCK_RECORD
  5
1B
330
1
100
AcDbSymbolTableRecord
100
AcDbBlockTableRecord
  2
*Paper_Space
340
1E
  0
BLOCK_RECORD
  5
23
330
1
100
AcDbSymbolTableRecord
100
AcDbBlockTableRecord
  2
*Paper_Space0
340
26
  0
ENDTAB
  0
ENDSEC
  0
SECTION
  2
BLOCKS
  0
BLOCK
  5
20
330
1F
100
AcDbEntity
  8
0
100
AcDbBlockBegin
  2
*Model_Space
 70
     0
 71
     0
 10
0.0
 20
0.0
 30
0.0
  3
*Model_Space
  1

  0
ENDBLK
  5
21
330
1F
100
AcDbEntity
  8
0
100
AcDbBlockEnd
  0
BLOCK
  5
1C
330
1B
100
AcDbEntity
 67
     1
  8
0
100
AcDbBlockBegin
  2
*Paper_Space
 70
     0
 71
     0
 10
0.0
 20
0.0
 30
0.0
  3
*Paper_Space
  1

  0
ENDBLK
  5
1D
330
1B
100
AcDbEntity
 67
     1
  8
0
100
AcDbBlockEnd
  0
BLOCK
  5
24
330
23
100
AcDbEntity
  8
0
100
AcDbBlockBegin
  2
*Paper_Space0
 70
     0
 71
     0
 10
0.0
 20
0.0
 30
0.0
  3
*Paper_Space0
  1

  0
ENDBLK
  5
25
330
23
100
AcDbEntity
  8
0
100
AcDbBlockEnd
  0
ENDSEC
  0
SECTION
  2
ENTITIES
  0
SPLINE
  5
3C
330
1F
100
AcDbEntity
  8
Layer 1
370
     0
100
AcDbSpline
210
0.0
220
0.0
230
1.0
 70
    11
 71
     3
 72
   140
 73
   136
 74
     0
 42
0.0000000001
 43
0.0000000001
 40
0.0
 40
0.0
 40
0.0
 40
0.0
 40
1.0
 40
1.0
 40
1.0
 40
2.0
 40
2.0
 40
2.0
 40
3.0
 40
3.0
 40
3.0
 40
4.0
 40
4.0
 40
4.0
 40
5.0
 40
5.0
 40
5.0
 40
6.0
 40
6.0
 40
6.0
 40
7.0
 40
7.0
 40
7.0
 40
8.0
 40
8.0
 40
8.0
 40
9.0
 40
9.0
 40
9.0
 40
10.0
 40
10.0
 40
10.0
 40
11.0
 40
11.0
 40
11.0
 40
12.0
 40
12.0
 40
12.0
 40
13.0
 40
13.0
 40
13.0
 40
14.0
 40
14.0
 40
14.0
 40
15.0
 40
15.0
 40
15.0
 40
16.0
 40
16.0
 40
16.0
 40
17.0
 40
17.0
 40
17.0
 40
18.0
 40
18.0
 40
18.0
 40
19.0
 40
19.0
 40
19.0
 40
20.0
 40
20.0
 40
20.0
 40
21.0
 40
21.0
 40
21.0
 40
22.0
 40
22.0
 40
22.0
 40
23.0
 40
23.0
 40
23.0
 40
24.0
 40
24.0
 40
24.0
 40
25.0
 40
25.0
 40
25.0
 40
26.0
 40
26.0
 40
26.0
 40
27.0
 40
27.0
 40
27.0
 40
28.0
 40
28.0
 40
28.0
 40
29.0
 40
29.0
 40
29.0
 40
30.0
 40
30.0
 40
30.0
 40
31.0
 40
31.0
 40
31.0
 40
32.0
 40
32.0
 40
32.0
 40
33.0
 40
33.0
 40
33.0
 40
34.0
 40
34.0
 40
34.0
 40
35.0
 40
35.0
 40
35.0
 40
36.0
 40
36.0
 40
36.0
 40
37.0
 40
37.0
 40
37.0
 40
38.0
 40
38.0
 40
38.0
 40
39.0
 40
39.0
 40
39.0
 40
40.0
 40
40.0
 40
40.0
 40
41.0
 40
41.0
 40
41.0
 40
42.0
 40
42.0
 40
42.0
 40
43.0
 40
43.0
 40
43.0
 40
44.0
 40
44.0
 40
44.0
 40
45.0
 40
45.0
 40
45.0
 40
45.0
 10
8.267754448784721
 20
-4.991997612847222
 30
0.0
 10
8.267754448784721
 20
-4.991997612847222
 30
0.0
 10
8.004991319444445
 20
-5.254767523871528
 30
0.0
 10
8.004991319444445
 20
-5.254767523871528
 30
0.0
 10
8.004991319444445
 20
-5.254767523871528
 30
0.0
 10
7.338297526041666
 20
-4.588134765625
 30
0.0
 10
7.338297526041666
 20
-4.588134765625
 30
0.0
 10
7.448974609375
 20
-4.492987738715278
 30
0.0
 10
7.579793294270833
 20
-4.418741861979166
 30
0.0
 10
7.725531684027778
 20
-4.372090657552083
 30
0.0
 10
7.725531684027778
 20
-4.372090657552083
 30
0.0
 10
7.813856336805555
 20
-4.3438720703125
 30
0.0
 10
7.813856336805555
 20
-4.3438720703125
 30
0.0
 10
7.813856336805555
 20
-4.3438720703125
 30
0.0
 10
7.813856336805555
 20
-1.753696017795139
 30
0.0
 10
7.813856336805555
 20
-1.753696017795139
 30
0.0
 10
7.813856336805555
 20
-1.753696017795139
 30
0.0
 10
5.222995334201388
 20
-1.753696017795139
 30
0.0
 10
5.222995334201388
 20
-1.753696017795139
 30
0.0
 10
5.222995334201388
 20
-1.753696017795139
 30
0.0
 10
5.195244683159722
 20
-1.841328938802083
 30
0.0
 10
5.195244683159722
 20
-1.841328938802083
 30
0.0
 10
5.148871527777778
 20
-1.987406412760417
 30
0.0
 10
5.07421875
 20
-2.118096245659722
 30
0.0
 10
4.979139539930555
 20
-2.228976779513889
 30
0.0
 10
4.979139539930555
 20
-2.228976779513889
 30
0.0
 10
4.134284125434028
 20
-1.383917914496528
 30
0.0
 10
4.134284125434028
 20
-1.383917914496528
 30
0.0
 10
4.134284125434028
 20
-1.383917914496528
 30
0.0
 10
3.289164225260417
 20
-2.228976779513889
 30
0.0
 10
3.289164225260417
 20
-2.228976779513889
 30
0.0
 10
3.193793402777778
 20
-2.118096245659722
 30
0.0
 10
3.119832356770833
 20
-1.987406412760417
 30
0.0
 10
3.072909884982639
 20
-1.841261121961805
 30
0.0
 10
3.072909884982639
 20
-1.841261121961805
 30
0.0
 10
3.044759114583333
 20
-1.753553602430555
 30
0.0
 10
3.044759114583333
 20
-1.753553602430555
 30
0.0
 10
3.044759114583333
 20
-1.753553602430555
 30
0.0
 10
0.4544474283854166
 20
-1.753553602430555
 30
0.0
 10
0.4544474283854166
 20
-1.753553602430555
 30
0.0
 10
0.4544474283854166
 20
-1.753553602430555
 30
0.0
 10
0.4544474283854166
 20
-4.34381103515625
 30
0.0
 10
0.4544474283854166
 20
-4.34381103515625
 30
0.0
 10
0.4544474283854166
 20
-4.34381103515625
 30
0.0
 10
0.5420735677083333
 20
-4.371961805555555
 30
0.0
 10
0.5420735677083333
 20
-4.371961805555555
 30
0.0
 10
0.6882188585069444
 20
-4.418674045138888
 30
0.0
 10
0.8191867404513888
 20
-4.492770724826388
 30
0.0
 10
0.9299994574652777
 20
-4.588134765625
 30
0.0
 10
0.9299994574652777
 20
-4.588134765625
 30
0.0
 10
0.2634480794270833
 20
-5.254767523871528
 30
0.0
 10
0.2634480794270833
 20
-5.254767523871528
 30
0.0
 10
0.2634480794270833
 20
-5.254767523871528
 30
0.0
 10
0.0
 20
-4.991658528645833
 30
0.0
 10
0.0
 20
-4.991658528645833
 30
0.0
 10
0.0
 20
-4.991658528645833
 30
0.0
 10
0.0
 20
-4.991997612847222
 30
0.0
 10
0.0
 20
-4.991997612847222
 30
0.0
 10
0.0
 20
-4.991997612847222
 30
0.0
 10
0.0
 20
-5.348334418402778
 30
0.0
 10
0.0
 20
-5.348334418402778
 30
0.0
 10
0.0
 20
-5.348334418402778
 30
0.0
 10
0.0848727756076389
 20
-5.433057996961805
 30
0.0
 10
0.0848727756076389
 20
-5.433057996961805
 30
0.0
 10
0.0848727756076389
 20
-5.433057996961805
 30
0.0
 10
0.0
 20
-5.517998589409722
 30
0.0
 10
0.0
 20
-5.517998589409722
 30
0.0
 10
0.0
 20
-5.517998589409722
 30
0.0
 10
0.0
 20
-5.874538845486111
 30
0.0
 10
0.0
 20
-5.874538845486111
 30
0.0
 10
0.0
 20
-5.874538845486111
 30
0.0
 10
0.2634480794270833
 20
-5.611565483940972
 30
0.0
 10
0.2634480794270833
 20
-5.611565483940972
 30
0.0
 10
0.2634480794270833
 20
-5.611565483940972
 30
0.0
 10
0.9299994574652777
 20
-6.2781982421875
 30
0.0
 10
0.9299994574652777
 20
-6.2781982421875
 30
0.0
 10
0.8191867404513888
 20
-6.373263888888888
 30
0.0
 10
0.6882188585069444
 20
-6.447591145833333
 30
0.0
 10
0.5420735677083333
 20
-6.494289822048611
 30
0.0
 10
0.5420735677083333
 20
-6.494289822048611
 30
0.0
 10
0.4544474283854166
 20
-6.522311740451388
 30
0.0
 10
0.4544474283854166
 20
-6.522311740451388
 30
0.0
 10
0.4544474283854166
 20
-6.522311740451388
 30
0.0
 10
0.4544474283854166
 20
-9.112711588541666
 30
0.0
 10
0.4544474283854166
 20
-9.112711588541666
 30
0.0
 10
0.4544474283854166
 20
-9.112711588541666
 30
0.0
 10
3.044759114583333
 20
-9.112711588541666
 30
0.0
 10
3.044759114583333
 20
-9.112711588541666
 30
0.0
 10
3.044759114583333
 20
-9.112711588541666
 30
0.0
 10
3.072496202256944
 20
-9.024943033854166
 30
0.0
 10
3.072496202256944
 20
-9.024943033854166
 30
0.0
 10
3.119832356770833
 20
-8.87905544704861
 30
0.0
 10
3.193793402777778
 20
-8.74801974826389
 30
0.0
 10
3.289164225260417
 20
-8.63720703125
 30
0.0
 10
3.289164225260417
 20
-8.63720703125
 30
0.0
 10
4.134284125434028
 20
-9.482408311631945
 30
0.0
 10
4.134284125434028
 20
-9.482408311631945
 30
0.0
 10
4.134284125434028
 20
-9.482408311631945
 30
0.0
 10
4.979139539930555
 20
-8.637410481770832
 30
0.0
 10
4.979139539930555
 20
-8.637410481770832
 30
0.0
 10
5.07421875
 20
-8.74801974826389
 30
0.0
 10
5.148871527777778
 20
-8.87905544704861
 30
0.0
 10
5.195529513888888
 20
-9.024943033854166
 30
0.0
 10
5.195529513888888
 20
-9.024943033854166
 30
0.0
 10
5.223551432291666
 20
-9.112711588541666
 30
0.0
 10
5.223551432291666
 20
-9.112711588541666
 30
0.0
 10
5.223551432291666
 20
-9.112711588541666
 30
0.0
 10
7.813856336805555
 20
-9.112711588541666
 30
0.0
 10
7.813856336805555
 20
-9.112711588541666
 30
0.0
 10
7.813856336805555
 20
-9.112711588541666
 30
0.0
 10
7.813856336805555
 20
-6.522311740451388
 30
0.0
 10
7.813856336805555
 20
-6.522311740451388
 30
0.0
 10
7.813856336805555
 20
-6.522311740451388
 30
0.0
 10
7.726087782118055
 20
-6.494289822048611
 30
0.0
 10
7.726087782118055
 20
-6.494289822048611
 30
0.0
 10
7.579793294270833
 20
-6.447591145833333
 30
0.0
 10
7.448974609375
 20
-6.373263888888888
 30
0.0
 10
7.338297526041666
 20
-6.2781982421875
 30
0.0
 10
7.338297526041666
 20
-6.2781982421875
 30
0.0
 10
8.004991319444445
 20
-5.611565483940972
 30
0.0
 10
8.004991319444445
 20
-5.611565483940972
 30
0.0
 10
8.004991319444445
 20
-5.611565483940972
 30
0.0
 10
8.267754448784721
 20
-5.874240451388888
 30
0.0
 10
8.267754448784721
 20
-5.874240451388888
 30
0.0
 10
8.267754448784721
 20
-5.874240451388888
 30
0.0
 10
8.267754448784721
 20
-5.517998589409722
 30
0.0
 10
8.267754448784721
 20
-5.517998589409722
 30
0.0
 10
8.267754448784721
 20
-5.517998589409722
 30
0.0
 10
8.183430989583332
 20
-5.433261447482638
 30
0.0
 10
8.183430989583332
 20
-5.433261447482638
 30
0.0
 10
8.183430989583332
 20
-5.433261447482638
 30
0.0
 10
8.267754448784721
 20
-5.348463270399305
 30
0.0
 10
8.267754448784721
 20
-5.348463270399305
 30
0.0
 10
8.267754448784721
 20
-5.348463270399305
 30
0.0
 10
8.267754448784721
 20
-4.991997612847222
 30
0.0
 10
8.267754448784721
 20
-4.991997612847222
 30
0.0
  0
SPLINE
  5
3D
330
1F
100
AcDbEntity
  8
Layer 1
370
     0
100
AcDbSpline
210
0.0
220
0.0
230
1.0
 70
    11
 71
     3
 72
    56
 73
    52
 74
     0
 42
0.0000000001
 43
0.0000000001
 40
0.0
 40
0.0
 40
0.0
 40
0.0
 40
1.0
 40
1.0
 40
1.0
 40
2.0
 40
2.0
 40
2.0
 40
3.0
 40
3.0
 40
3.0
 40
4.0
 40
4.0
 40
4.0
 40
5.0
 40
5.0
 40
5.0
 40
6.0
 40
6.0
 40
6.0
 40
7.0
 40
7.0
 40
7.0
 40
8.0
 40
8.0
 40
8.0
 40
9.0
 40
9.0
 40
9.0
 40
10.0
 40
10.0
 40
10.0
 40
11.0
 40
11.0
 40
11.0
 40
12.0
 40
12.0
 40
12.0
 40
13.0
 40
13.0
 40
13.0
 40
14.0
 40
14.0
 40
14.0
 40
15.0
 40
15.0
 40
15.0
 40
16.0
 40
16.0
 40
16.0
 40
17.0
 40
17.0
 40
17.0
 40
17.0
 10
5.403917100694444
 20
-2.005900065104167
 30
0.0
 10
5.403917100694444
 20
-2.005900065104167
 30
0.0
 10
7.561713324652778
 20
-2.005900065104167
 30
0.0
 10
7.561713324652778
 20
-2.005900065104167
 30
0.0
 10
7.561713324652778
 20
-2.005900065104167
 30
0.0
 10
7.561713324652778
 20
-4.163221571180555
 30
0.0
 10
7.561713324652778
 20
-4.163221571180555
 30
0.0
 10
7.413506401909721
 20
-4.221950954861111
 30
0.0
 10
7.278130425347221
 20
-4.305168999565972
 30
0.0
 10
7.160264756944444
 20
-4.409905327690972
 30
0.0
 10
7.160264756944444
 20
-4.409905327690972
 30
0.0
 10
7.160142686631944
 20
-4.409905327690972
 30
0.0
 10
7.160142686631944
 20
-4.409905327690972
 30
0.0
 10
7.160142686631944
 20
-4.409905327690972
 30
0.0
 10
6.679470486111111
 20
-3.929233127170139
 30
0.0
 10
6.679470486111111
 20
-3.929233127170139
 30
0.0
 10
6.679470486111111
 20
-3.929233127170139
 30
0.0
 10
6.679470486111111
 20
-3.139865451388889
 30
0.0
 10
6.679470486111111
 20
-3.139865451388889
 30
0.0
 10
6.679470486111111
 20
-3.139865451388889
 30
0.0
 10
7.2237548828125
 20
-3.139865451388889
 30
0.0
 10
7.2237548828125
 20
-3.139865451388889
 30
0.0
 10
7.2237548828125
 20
-3.139865451388889
 30
0.0
 10
7.2237548828125
 20
-2.343173556857639
 30
0.0
 10
7.2237548828125
 20
-2.343173556857639
 30
0.0
 10
7.2237548828125
 20
-2.343173556857639
 30
0.0
 10
6.427205403645833
 20
-2.343173556857639
 30
0.0
 10
6.427205403645833
 20
-2.343173556857639
 30
0.0
 10
6.427205403645833
 20
-2.343173556857639
 30
0.0
 10
6.427205403645833
 20
-2.887525770399305
 30
0.0
 10
6.427205403645833
 20
-2.887525770399305
 30
0.0
 10
6.427205403645833
 20
-2.887525770399305
 30
0.0
 10
6.679470486111111
 20
-2.887525770399305
 30
0.0
 10
6.679470486111111
 20
-2.887525770399305
 30
0.0
 10
6.679470486111111
 20
-2.887525770399305
 30
0.0
 10
6.679470486111111
 20
-2.595309787326389
 30
0.0
 10
6.679470486111111
 20
-2.595309787326389
 30
0.0
 10
6.679470486111111
 20
-2.595309787326389
 30
0.0
 10
6.971761067708333
 20
-2.595309787326389
 30
0.0
 10
6.971761067708333
 20
-2.595309787326389
 30
0.0
 10
6.971761067708333
 20
-2.595309787326389
 30
0.0
 10
6.971761067708333
 20
-2.887593587239583
 30
0.0
 10
6.971761067708333
 20
-2.887593587239583
 30
0.0
 10
6.971761067708333
 20
-2.887593587239583
 30
0.0
 10
5.637830946180555
 20
-2.887593587239583
 30
0.0
 10
5.637830946180555
 20
-2.887593587239583
 30
0.0
 10
5.637830946180555
 20
-2.887593587239583
 30
0.0
 10
5.157443576388888
 20
-2.407145182291667
 30
0.0
 10
5.157443576388888
 20
-2.407145182291667
 30
0.0
 10
5.262044270833333
 20
-2.2889404296875
 30
0.0
 10
5.345540364583333
 20
-2.153700086805555
 30
0.0
 10
5.403917100694444
 20
-2.005900065104167
 30
0.0
  0
SPLINE
  5
3E
330
1F
100
AcDbEntity
  8
Layer 1
370
     0
100
AcDbSpline
210
0.0
220
0.0
230
1.0
 70
    11
 71
     3
 72
    44
 73
    40
 74
     0
 42
0.0000000001
 43
0.0000000001
 40
0.0
 40
0.0
 40
0.0
 40
0.0
 40
1.0
 40
1.0
 40
1.0
 40
2.0
 40
2.0
 40
2.0
 40
3.0
 40
3.0
 40
3.0
 40
4.0
 40
4.0
 40
4.0
 40
5.0
 40
5.0
 40
5.0
 40
6.0
 40
6.0
 40
6.0
 40
7.0
 40
7.0
 40
7.0
 40
8.0
 40
8.0
 40
8.0
 40
9.0
 40
9.0
 40
9.0
 40
10.0
 40
10.0
 40
10.0
 40
11.0
 40
11.0
 40
11.0
 40
12.0
 40
12.0
 40
12.0
 40
13.0
 40
13.0
 40
13.0
 40
13.0
 10
4.973334418402778
 20
-2.579508463541667
 30
0.0
 10
4.973334418402778
 20
-2.579508463541667
 30
0.0
 10
5.533772786458333
 20
-3.139865451388889
 30
0.0
 10
5.533772786458333
 20
-3.139865451388889
 30
0.0
 10
5.533772786458333
 20
-3.139865451388889
 30
0.0
 10
6.427205403645833
 20
-3.139865451388889
 30
0.0
 10
6.427205403645833
 20
-3.139865451388889
 30
0.0
 10
6.427205403645833
 20
-3.139865451388889
 30
0.0
 10
6.427205403645833
 20
-4.033704969618055
 30
0.0
 10
6.427205403645833
 20
-4.033704969618055
 30
0.0
 10
6.427205403645833
 20
-4.033704969618055
 30
0.0
 10
6.987630208333333
 20
-4.594007703993055
 30
0.0
 10
6.987630208333333
 20
-4.594007703993055
 30
0.0
 10
6.980862087673611
 20
-4.602627224392361
 30
0.0
 10
6.974256727430555
 20
-4.611192491319444
 30
0.0
 10
6.9678955078125
 20
-4.620015462239583
 30
0.0
 10
6.917399088541666
 20
-4.688123914930555
 30
0.0
 10
6.873494466145833
 20
-4.759806315104166
 30
0.0
 10
6.837076822916666
 20
-4.834811740451388
 30
0.0
 10
6.7056884765625
 20
-4.505750868055555
 30
0.0
 10
6.466946072048611
 20
-4.225389268663195
 30
0.0
 10
6.150363498263888
 20
-4.041856553819445
 30
0.0
 10
6.150363498263888
 20
-4.041856553819445
 30
0.0
 10
6.150363498263888
 20
-3.416904025607639
 30
0.0
 10
6.150363498263888
 20
-3.416904025607639
 30
0.0
 10
6.150363498263888
 20
-3.416904025607639
 30
0.0
 10
5.525078667534722
 20
-3.416904025607639
 30
0.0
 10
5.525078667534722
 20
-3.416904025607639
 30
0.0
 10
5.341810438368055
 20
-3.10040283203125
 30
0.0
 10
5.061252170138888
 20
-2.861579047309028
 30
0.0
 10
4.732245551215278
 20
-2.730129665798611
 30
0.0
 10
4.807196723090278
 20
-2.693773057725694
 30
0.0
 10
4.879082573784722
 20
-2.649956597222222
 30
0.0
 10
4.946845160590278
 20
-2.599514431423611
 30
0.0
 10
4.9556884765625
 20
-2.593031141493055
 30
0.0
 10
4.964504665798611
 20
-2.586269802517361
 30
0.0
 10
4.973334418402778
 20
-2.579644097222222
 30
0.0
 10
4.973334418402778
 20
-2.579644097222222
 30
0.0
 10
4.973334418402778
 20
-2.579508463541667
 30
0.0
 10
4.973334418402778
 20
-2.579508463541667
 30
0.0
  0
SPLINE
  5
3F
330
1F
100
AcDbEntity
  8
Layer 1
370
     0
100
AcDbSpline
210
0.0
220
0.0
230
1.0
 70
    11
 71
     3
 72
    20
 73
    16
 74
     0
 42
0.0000000001
 43
0.0000000001
 40
0.0
 40
0.0
 40
0.0
 40
0.0
 40
1.0
 40
1.0
 40
1.0
 40
2.0
 40
2.0
 40
2.0
 40
3.0
 40
3.0
 40
3.0
 40
4.0
 40
4.0
 40
4.0
 40
5.0
 40
5.0
 40
5.0
 40
5.0
 10
6.699761284722221
 20
-5.438164605034722
 30
0.0
 10
6.698106553819444
 20
-5.871975368923611
 30
0.0
 10
6.4920654296875
 20
-6.270941840277778
 30
0.0
 10
6.150363498263888
 20
-6.523478190104166
 30
0.0
 10
6.150363498263888
 20
-6.523478190104166
 30
0.0
 10
6.150363498263888
 20
-4.343051486545138
 30
0.0
 10
6.150363498263888
 20
-4.343051486545138
 30
0.0
 10
6.4920654296875
 20
-4.595248752170138
 30
0.0
 10
6.698106553819444
 20
-4.994147406684028
 30
0.0
 10
6.699761284722221
 20
-5.427815755208333
 30
0.0
 10
6.699476453993055
 20
-5.429599338107638
 30
0.0
 10
6.699476453993055
 20
-5.431403266059028
 30
0.0
 10
6.699476453993055
 20
-5.433057996961805
 30
0.0
 10
6.699476453993055
 20
-5.434780544704861
 30
0.0
 10
6.699476453993055
 20
-5.436509874131944
 30
0.0
 10
6.699761284722221
 20
-5.438164605034722
 30
0.0
  0
SPLINE
  5
40
330
1F
100
AcDbEntity
  8
Layer 1
370
     0
100
AcDbSpline
210
0.0
220
0.0
230
1.0
 70
    11
 71
     3
 72
    44
 73
    40
 74
     0
 42
0.0000000001
 43
0.0000000001
 40
0.0
 40
0.0
 40
0.0
 40
0.0
 40
1.0
 40
1.0
 40
1.0
 40
2.0
 40
2.0
 40
2.0
 40
3.0
 40
3.0
 40
3.0
 40
4.0
 40
4.0
 40
4.0
 40
5.0
 40
5.0
 40
5.0
 40
6.0
 40
6.0
 40
6.0
 40
7.0
 40
7.0
 40
7.0
 40
8.0
 40
8.0
 40
8.0
 40
9.0
 40
9.0
 40
9.0
 40
10.0
 40
10.0
 40
10.0
 40
11.0
 40
11.0
 40
11.0
 40
12.0
 40
12.0
 40
12.0
 40
13.0
 40
13.0
 40
13.0
 40
13.0
 10
5.576280381944444
 20
-6.623480902777778
 30
0.0
 10
5.576280381944444
 20
-6.623480902777778
 30
0.0
 10
5.576429578993055
 20
-5.888888888888888
 30
0.0
 10
5.576429578993055
 20
-5.888888888888888
 30
0.0
 10
5.576429578993055
 20
-5.888888888888888
 30
0.0
 10
5.417168511284722
 20
-5.933254665798611
 30
0.0
 10
5.417168511284722
 20
-5.933254665798611
 30
0.0
 10
5.371473524305555
 20
-5.945936414930555
 30
0.0
 10
5.324557834201388
 20
-5.952365451388888
 30
0.0
 10
5.277777777777778
 20
-5.952365451388888
 30
0.0
 10
5.251844618055555
 20
-5.952365451388888
 30
0.0
 10
5.226291232638888
 20
-5.950439453125
 30
0.0
 10
5.201321072048611
 20
-5.946845160590278
 30
0.0
 10
5.276407877604166
 20
-5.7913818359375
 30
0.0
 10
5.318210177951388
 20
-5.617011176215278
 30
0.0
 10
5.318210177951388
 20
-5.433057996961805
 30
0.0
 10
5.318210177951388
 20
-5.249233669704861
 30
0.0
 10
5.276407877604166
 20
-5.075154622395833
 30
0.0
 10
5.201321072048611
 20
-4.919684516059028
 30
0.0
 10
5.226291232638888
 20
-4.9158935546875
 30
0.0
 10
5.251844618055555
 20
-4.913960774739583
 30
0.0
 10
5.277777777777778
 20
-4.913960774739583
 30
0.0
 10
5.324557834201388
 20
-4.913960774739583
 30
0.0
 10
5.371473524305555
 20
-4.920376247829861
 30
0.0
 10
5.417168511284722
 20
-4.933139377170138
 30
0.0
 10
5.417168511284722
 20
-4.933139377170138
 30
0.0
 10
5.576429578993055
 20
-4.977376302083333
 30
0.0
 10
5.576429578993055
 20
-4.977376302083333
 30
0.0
 10
5.576429578993055
 20
-4.977376302083333
 30
0.0
 10
5.576429578993055
 20
-4.242723253038195
 30
0.0
 10
5.576429578993055
 20
-4.242723253038195
 30
0.0
 10
5.576429578993055
 20
-4.242723253038195
 30
0.0
 10
5.898111979166666
 20
-4.242723253038195
 30
0.0
 10
5.898111979166666
 20
-4.242723253038195
 30
0.0
 10
5.898111979166666
 20
-4.242723253038195
 30
0.0
 10
5.898111979166666
 20
-6.623480902777778
 30
0.0
 10
5.898111979166666
 20
-6.623480902777778
 30
0.0
 10
5.898111979166666
 20
-6.623480902777778
 30
0.0
 10
5.576280381944444
 20
-6.623480902777778
 30
0.0
 10
5.576280381944444
 20
-6.623480902777778
 30
0.0
  0
POLYLINE
  5
41
330
1F
100
AcDbEntity
  8
Layer 1
370
     0
100
AcDb2dPolyline
 66
     1
 10
0.0
 20
0.0
 30
0.0
  0
VERTEX
  5
42
330
41
100
AcDbEntity
  8
Layer 1
370
     0
100
AcDbVertex
100
AcDb2dVertex
 10
5.898111979166666
 20
-6.875461154513888
 30
0.0
  0
VERTEX
  5
43
330
41
100
AcDbEntity
  8
Layer 1
370
     0
100
AcDbVertex
100
AcDb2dVertex
 10
5.898111979166666
 20
-7.197292751736111
 30
0.0
  0
VERTEX
  5
44
330
41
100
AcDbEntity
  8
Layer 1
370
     0
100
AcDbVertex
100
AcDb2dVertex
 10
5.576280381944444
 20
-7.197292751736111
 30
0.0
  0
VERTEX
  5
45
330
41
100
AcDbEntity
  8
Layer 1
370
     0
100
AcDbVertex
100
AcDb2dVertex
 10
5.576280381944444
 20
-6.875461154513888
 30
0.0
  0
VERTEX
  5
46
330
41
100
AcDbEntity
  8
Layer 1
370
     0
100
AcDbVertex
100
AcDb2dVertex
 10
5.898111979166666
 20
-6.875461154513888
 30
0.0
  0
SEQEND
  5
47
330
41
100
AcDbEntity
  8
Layer 1
370
     0
  0
SPLINE
  5
48
330
1F
100
AcDbEntity
  8
Layer 1
370
     0
100
AcDbSpline
210
0.0
220
0.0
230
1.0
 70
    11
 71
     3
 72
    44
 73
    40
 74
     0
 42
0.0000000001
 43
0.0000000001
 40
0.0
 40
0.0
 40
0.0
 40
0.0
 40
1.0
 40
1.0
 40
1.0
 40
2.0
 40
2.0
 40
2.0
 40
3.0
 40
3.0
 40
3.0
 40
4.0
 40
4.0
 40
4.0
 40
5.0
 40
5.0
 40
5.0
 40
6.0
 40
6.0
 40
6.0
 40
7.0
 40
7.0
 40
7.0
 40
8.0
 40
8.0
 40
8.0
 40
9.0
 40
9.0
 40
9.0
 40
10.0
 40
10.0
 40
10.0
 40
11.0
 40
11.0
 40
11.0
 40
12.0
 40
12.0
 40
12.0
 40
13.0
 40
13.0
 40
13.0
 40
13.0
 10
2.943739149305555
 20
-7.197292751736111
 30
0.0
 10
2.943739149305555
 20
-7.197292751736111
 30
0.0
 10
2.943739149305555
 20
-6.875406901041666
 30
0.0
 10
2.943739149305555
 20
-6.875406901041666
 30
0.0
 10
2.943739149305555
 20
-6.875406901041666
 30
0.0
 10
3.678460015190972
 20
-6.875406901041666
 30
0.0
 10
3.678460015190972
 20
-6.875406901041666
 30
0.0
 10
3.678460015190972
 20
-6.875406901041666
 30
0.0
 10
3.633884006076389
 20
-6.715738932291666
 30
0.0
 10
3.633884006076389
 20
-6.715738932291666
 30
0.0
 10
3.621324327256944
 20
-6.670125325520833
 30
0.0
 10
3.614841037326389
 20
-6.623345269097221
 30
0.0
 10
3.614841037326389
 20
-6.576402452256944
 30
0.0
 10
3.614841037326389
 20
-6.550618489583333
 30
0.0
 10
3.616923014322917
 20
-6.525200737847221
 30
0.0
 10
3.620361328125
 20
-6.500434027777778
 30
0.0
 10
3.776448567708333
 20
-6.575385199652778
 30
0.0
 10
3.950202094184028
 20
-6.617689344618055
 30
0.0
 10
4.134284125434028
 20
-6.617689344618055
 30
0.0
 10
4.317830403645833
 20
-6.617689344618055
 30
0.0
 10
4.492133246527778
 20
-6.575385199652778
 30
0.0
 10
4.647528754340278
 20
-6.500434027777778
 30
0.0
 10
4.651516384548611
 20
-6.525200737847221
 30
0.0
 10
4.653171115451388
 20
-6.550618489583333
 30
0.0
 10
4.653171115451388
 20
-6.576402452256944
 30
0.0
 10
4.653171115451388
 20
-6.623345269097221
 30
0.0
 10
4.64697265625
 20
-6.670179578993055
 30
0.0
 10
4.634006076388888
 20
-6.715738932291666
 30
0.0
 10
4.634006076388888
 20
-6.715738932291666
 30
0.0
 10
4.5899658203125
 20
-6.875461154513888
 30
0.0
 10
4.5899658203125
 20
-6.875461154513888
 30
0.0
 10
4.5899658203125
 20
-6.875461154513888
 30
0.0
 10
5.324557834201388
 20
-6.875461154513888
 30
0.0
 10
5.324557834201388
 20
-6.875461154513888
 30
0.0
 10
5.324557834201388
 20
-6.875461154513888
 30
0.0
 10
5.324557834201388
 20
-7.197292751736111
 30
0.0
 10
5.324557834201388
 20
-7.197292751736111
 30
0.0
 10
5.324557834201388
 20
-7.197292751736111
 30
0.0
 10
2.943739149305555
 20
-7.197292751736111
 30
0.0
 10
2.943739149305555
 20
-7.197292751736111
 30
0.0
  0
SPLINE
  5
49
330
1F
100
AcDbEntity
  8
Layer 1
370
     0
100
AcDbSpline
210
0.0
220
0.0
230
1.0
 70
    11
 71
     3
 72
    14
 73
    10
 74
     0
 42
0.0000000001
 43
0.0000000001
 40
0.0
 40
0.0
 40
0.0
 40
0.0
 40
1.0
 40
1.0
 40
1.0
 40
2.0
 40
2.0
 40
2.0
 40
3.0
 40
3.0
 40
3.0
 40
3.0
 10
5.224229600694444
 20
-7.449354383680555
 30
0.0
 10
4.970865885416666
 20
-7.792561848958333
 30
0.0
 10
4.569675021701388
 20
-7.998467339409721
 30
0.0
 10
4.134284125434028
 20
-7.998467339409721
 30
0.0
 10
3.698472764756944
 20
-7.998467339409721
 30
0.0
 10
3.29730224609375
 20
-7.792561848958333
 30
0.0
 10
3.044060601128472
 20
-7.449354383680555
 30
0.0
 10
3.044060601128472
 20
-7.449354383680555
 30
0.0
 10
5.224229600694444
 20
-7.449354383680555
 30
0.0
 10
5.224229600694444
 20
-7.449354383680555
 30
0.0
  0
SPLINE
  5
4A
330
1F
100
AcDbEntity
  8
Layer 1
370
     0
100
AcDbSpline
210
0.0
220
0.0
230
1.0
 70
    11
 71
     3
 72
    80
 73
    76
 74
     0
 42
0.0000000001
 43
0.0000000001
 40
0.0
 40
0.0
 40
0.0
 40
0.0
 40
1.0
 40
1.0
 40
1.0
 40
2.0
 40
2.0
 40
2.0
 40
3.0
 40
3.0
 40
3.0
 40
4.0
 40
4.0
 40
4.0
 40
5.0
 40
5.0
 40
5.0
 40
6.0
 40
6.0
 40
6.0
 40
7.0
 40
7.0
 40
7.0
 40
8.0
 40
8.0
 40
8.0
 40
9.0
 40
9.0
 40
9.0
 40
10.0
 40
10.0
 40
10.0
 40
11.0
 40
11.0
 40
11.0
 40
12.0
 40
12.0
 40
12.0
 40
13.0
 40
13.0
 40
13.0
 40
14.0
 40
14.0
 40
14.0
 40
15.0
 40
15.0
 40
15.0
 40
16.0
 40
16.0
 40
16.0
 40
17.0
 40
17.0
 40
17.0
 40
18.0
 40
18.0
 40
18.0
 40
19.0
 40
19.0
 40
19.0
 40
20.0
 40
20.0
 40
20.0
 40
21.0
 40
21.0
 40
21.0
 40
22.0
 40
22.0
 40
22.0
 40
23.0
 40
23.0
 40
23.0
 40
24.0
 40
24.0
 40
24.0
 40
25.0
 40
25.0
 40
25.0
 40
25.0
 10
2.274976942274305
 20
-6.623602973090278
 30
0.0
 10
2.219916449652778
 20
-6.593587239583333
 30
0.0
 10
2.167609320746528
 20
-6.560126410590278
 30
0.0
 10
2.117933485243055
 20
-6.523423936631944
 30
0.0
 10
1.775960286458333
 20
-6.270941840277778
 30
0.0
 10
1.570610894097222
 20
-5.872111002604166
 30
0.0
 10
1.568678114149305
 20
-5.438442654079861
 30
0.0
 10
1.568956163194444
 20
-5.4366455078125
 30
0.0
 10
1.568956163194444
 20
-5.434990776909722
 30
0.0
 10
1.568956163194444
 20
-5.433261447482638
 30
0.0
 10
1.568956163194444
 20
-5.431606716579861
 30
0.0
 10
1.568956163194444
 20
-5.429951985677083
 30
0.0
 10
1.568678114149305
 20
-5.428093804253472
 30
0.0
 10
1.570610894097222
 20
-4.994411892361111
 30
0.0
 10
1.775960286458333
 20
-4.595323350694444
 30
0.0
 10
2.117933485243055
 20
-4.343051486545138
 30
0.0
 10
2.117933485243055
 20
-4.343051486545138
 30
0.0
 10
2.117933485243055
 20
-6.5230712890625
 30
0.0
 10
2.117933485243055
 20
-6.5230712890625
 30
0.0
 10
2.167609320746528
 20
-6.5595703125
 30
0.0
 10
2.219916449652778
 20
-6.593126085069444
 30
0.0
 10
2.275390625
 20
-6.623345269097221
 30
0.0
 10
2.275390625
 20
-6.623345269097221
 30
0.0
 10
2.369920518663194
 20
-6.623345269097221
 30
0.0
 10
2.369920518663194
 20
-6.623345269097221
 30
0.0
 10
2.369920518663194
 20
-6.623345269097221
 30
0.0
 10
2.369920518663194
 20
-4.242519802517361
 30
0.0
 10
2.369920518663194
 20
-4.242519802517361
 30
0.0
 10
2.369920518663194
 20
-4.242519802517361
 30
0.0
 10
2.691609700520833
 20
-4.242519802517361
 30
0.0
 10
2.691609700520833
 20
-4.242519802517361
 30
0.0
 10
2.691609700520833
 20
-4.242519802517361
 30
0.0
 10
2.691609700520833
 20
-4.977301703559028
 30
0.0
 10
2.691609700520833
 20
-4.977301703559028
 30
0.0
 10
2.691609700520833
 20
-4.977301703559028
 30
0.0
 10
2.851413302951389
 20
-4.933139377170138
 30
0.0
 10
2.851413302951389
 20
-4.933139377170138
 30
0.0
 10
2.896959092881944
 20
-4.920376247829861
 30
0.0
 10
2.943739149305555
 20
-4.913960774739583
 30
0.0
 10
2.990519205729167
 20
-4.913960774739583
 30
0.0
 10
3.016737196180555
 20
-4.913960774739583
 30
0.0
 10
3.041856553819444
 20
-4.9158935546875
 30
0.0
 10
3.066697862413194
 20
-4.919684516059028
 30
0.0
 10
2.991624620225694
 20
-5.075154622395833
 30
0.0
 10
2.949395073784722
 20
-5.249233669704861
 30
0.0
 10
2.949395073784722
 20
-5.433057996961805
 30
0.0
 10
2.949395073784722
 20
-5.617011176215278
 30
0.0
 10
2.991624620225694
 20
-5.7913818359375
 30
0.0
 10
3.066697862413194
 20
-5.946845160590278
 30
0.0
 10
3.041998969184028
 20
-5.950439453125
 30
0.0
 10
3.016737196180555
 20
-5.952365451388888
 30
0.0
 10
2.990519205729167
 20
-5.952365451388888
 30
0.0
 10
2.943739149305555
 20
-5.952365451388888
 30
0.0
 10
2.896959092881944
 20
-5.945936414930555
 30
0.0
 10
2.851413302951389
 20
-5.933254665798611
 30
0.0
 10
2.851413302951389
 20
-5.933254665798611
 30
0.0
 10
2.691609700520833
 20
-5.888888888888888
 30
0.0
 10
2.691609700520833
 20
-5.888888888888888
 30
0.0
 10
2.691609700520833
 20
-5.888888888888888
 30
0.0
 10
2.691609700520833
 20
-7.197292751736111
 30
0.0
 10
2.691609700520833
 20
-7.197292751736111
 30
0.0
 10
2.691609700520833
 20
-7.197292751736111
 30
0.0
 10
2.369920518663194
 20
-7.197292751736111
 30
0.0
 10
2.369920518663194
 20
-7.197292751736111
 30
0.0
 10
2.369920518663194
 20
-7.197292751736111
 30
0.0
 10
2.369920518663194
 20
-6.875461154513888
 30
0.0
 10
2.369920518663194
 20
-6.875461154513888
 30
0.0
 10
2.369920518663194
 20
-6.875461154513888
 30
0.0
 10
2.691189236111111
 20
-6.875461154513888
 30
0.0
 10
2.691189236111111
 20
-6.875461154513888
 30
0.0
 10
2.691189236111111
 20
-6.875461154513888
 30
0.0
 10
2.691189236111111
 20
-6.623602973090278
 30
0.0
 10
2.691189236111111
 20
-6.623602973090278
 30
0.0
 10
2.691189236111111
 20
-6.623602973090278
 30
0.0
 10
2.274976942274305
 20
-6.623602973090278
 30
0.0
 10
2.274976942274305
 20
-6.623602973090278
 30
0.0
  0
POLYLINE
  5
4B
330
1F
100
AcDbEntity
  8
Layer 1
370
     0
100
AcDb2dPolyline
 66
     1
 10
0.0
 20
0.0
 30
0.0
  0
VERTEX
  5
4C
330
4B
100
AcDbEntity
  8
Layer 1
370
     0
100
AcDbVertex
100
AcDb2dVertex
 10
2.369920518663194
 20
-3.990654839409722
 30
0.0
  0
VERTEX
  5
4D
330
4B
100
AcDbEntity
  8
Layer 1
370
     0
100
AcDbVertex
100
AcDb2dVertex
 10
2.369920518663194
 20
-3.6688232421875
 30
0.0
  0
VERTEX
  5
4E
330
4B
100
AcDbEntity
  8
Layer 1
370
     0
100
AcDbVertex
100
AcDb2dVertex
 10
2.691609700520833
 20
-3.6688232421875
 30
0.0
  0
VERTEX
  5
4F
330
4B
100
AcDbEntity
  8
Layer 1
370
     0
100
AcDbVertex
100
AcDb2dVertex
 10
2.691609700520833
 20
-3.990654839409722
 30
0.0
  0
VERTEX
  5
50
330
4B
100
AcDbEntity
  8
Layer 1
370
     0
100
AcDbVertex
100
AcDb2dVertex
 10
2.369920518663194
 20
-3.990654839409722
 30
0.0
  0
SEQEND
  5
51
330
4B
100
AcDbEntity
  8
Layer 1
370
     0
  0
SPLINE
  5
52
330
1F
100
AcDbEntity
  8
Layer 1
370
     0
100
AcDbSpline
210
0.0
220
0.0
230
1.0
 70
    11
 71
     3
 72
    44
 73
    40
 74
     0
 42
0.0000000001
 43
0.0000000001
 40
0.0
 40
0.0
 40
0.0
 40
0.0
 40
1.0
 40
1.0
 40
1.0
 40
2.0
 40
2.0
 40
2.0
 40
3.0
 40
3.0
 40
3.0
 40
4.0
 40
4.0
 40
4.0
 40
5.0
 40
5.0
 40
5.0
 40
6.0
 40
6.0
 40
6.0
 40
7.0
 40
7.0
 40
7.0
 40
8.0
 40
8.0
 40
8.0
 40
9.0
 40
9.0
 40
9.0
 40
10.0
 40
10.0
 40
10.0
 40
11.0
 40
11.0
 40
11.0
 40
12.0
 40
12.0
 40
12.0
 40
13.0
 40
13.0
 40
13.0
 40
13.0
 10
5.324842664930555
 20
-3.6688232421875
 30
0.0
 10
5.324842664930555
 20
-3.6688232421875
 30
0.0
 10
5.324842664930555
 20
-3.990715874565972
 30
0.0
 10
5.324842664930555
 20
-3.990715874565972
 30
0.0
 10
5.324842664930555
 20
-3.990715874565972
 30
0.0
 10
4.5899658203125
 20
-3.990715874565972
 30
0.0
 10
4.5899658203125
 20
-3.990715874565972
 30
0.0
 10
4.5899658203125
 20
-3.990715874565972
 30
0.0
 10
4.634006076388888
 20
-4.150458441840278
 30
0.0
 10
4.634006076388888
 20
-4.150458441840278
 30
0.0
 10
4.64697265625
 20
-4.195868598090278
 30
0.0
 10
4.653171115451388
 20
-4.242723253038195
 30
0.0
 10
4.653171115451388
 20
-4.289564344618055
 30
0.0
 10
4.653171115451388
 20
-4.315517849392361
 30
0.0
 10
4.651516384548611
 20
-4.340915256076388
 30
0.0
 10
4.647528754340278
 20
-4.365607367621528
 30
0.0
 10
4.492133246527778
 20
-4.290737575954861
 30
0.0
 10
4.317830403645833
 20
-4.248575846354166
 30
0.0
 10
4.134284125434028
 20
-4.248575846354166
 30
0.0
 10
3.950202094184028
 20
-4.248575846354166
 30
0.0
 10
3.776448567708333
 20
-4.290737575954861
 30
0.0
 10
3.620361328125
 20
-4.365607367621528
 30
0.0
 10
3.616923014322917
 20
-4.340915256076388
 30
0.0
 10
3.614841037326389
 20
-4.315517849392361
 30
0.0
 10
3.614841037326389
 20
-4.289564344618055
 30
0.0
 10
3.614841037326389
 20
-4.242723253038195
 30
0.0
 10
3.621324327256944
 20
-4.195868598090278
 30
0.0
 10
3.633884006076389
 20
-4.150254991319445
 30
0.0
 10
3.633884006076389
 20
-4.150254991319445
 30
0.0
 10
3.678460015190972
 20
-3.990715874565972
 30
0.0
 10
3.678460015190972
 20
-3.990715874565972
 30
0.0
 10
3.678460015190972
 20
-3.990715874565972
 30
0.0
 10
2.943739149305555
 20
-3.990654839409722
 30
0.0
 10
2.943739149305555
 20
-3.990654839409722
 30
0.0
 10
2.943739149305555
 20
-3.990654839409722
 30
0.0
 10
2.943739149305555
 20
-3.6688232421875
 30
0.0
 10
2.943739149305555
 20
-3.6688232421875
 30
0.0
 10
2.943739149305555
 20
-3.6688232421875
 30
0.0
 10
5.324842664930555
 20
-3.6688232421875
 30
0.0
 10
5.324842664930555
 20
-3.6688232421875
 30
0.0
  0
SPLINE
  5
53
330
1F
100
AcDbEntity
  8
Layer 1
370
     0
100
AcDbSpline
210
0.0
220
0.0
230
1.0
 70
    11
 71
     3
 72
    20
 73
    16
 74
     0
 42
0.0000000001
 43
0.0000000001
 40
0.0
 40
0.0
 40
0.0
 40
0.0
 40
1.0
 40
1.0
 40
1.0
 40
2.0
 40
2.0
 40
2.0
 40
3.0
 40
3.0
 40
3.0
 40
4.0
 40
4.0
 40
4.0
 40
5.0
 40
5.0
 40
5.0
 40
5.0
 10
3.044060601128472
 20
-3.416904025607639
 30
0.0
 10
3.296332465277778
 20
-3.074937608506944
 30
0.0
 10
3.69488525390625
 20
-2.869310167100694
 30
0.0
 10
4.128770616319445
 20
-2.867730034722222
 30
0.0
 10
4.130832248263888
 20
-2.8677978515625
 30
0.0
 10
4.132500542534722
 20
-2.8677978515625
 30
0.0
 10
4.134284125434028
 20
-2.8677978515625
 30
0.0
 10
4.135660807291666
 20
-2.8677978515625
 30
0.0
 10
4.137593587239583
 20
-2.8677978515625
 30
0.0
 10
4.139248318142361
 20
-2.867730034722222
 30
0.0
 10
4.572998046875
 20
-2.869310167100694
 30
0.0
 10
4.9715576171875
 20
-3.074937608506944
 30
0.0
 10
5.224229600694444
 20
-3.416904025607639
 30
0.0
 10
5.224229600694444
 20
-3.416904025607639
 30
0.0
 10
3.044060601128472
 20
-3.416904025607639
 30
0.0
 10
3.044060601128472
 20
-3.416904025607639
 30
0.0
  0
SPLINE
  5
54
330
1F
100
AcDbEntity
  8
Layer 1
370
     0
100
AcDbSpline
210
0.0
220
0.0
230
1.0
 70
    11
 71
     3
 72
    41
 73
    37
 74
     0
 42
0.0000000001
 43
0.0000000001
 40
0.0
 40
0.0
 40
0.0
 40
0.0
 40
1.0
 40
1.0
 40
1.0
 40
2.0
 40
2.0
 40
2.0
 40
3.0
 40
3.0
 40
3.0
 40
4.0
 40
4.0
 40
4.0
 40
5.0
 40
5.0
 40
5.0
 40
6.0
 40
6.0
 40
6.0
 40
7.0
 40
7.0
 40
7.0
 40
8.0
 40
8.0
 40
8.0
 40
9.0
 40
9.0
 40
9.0
 40
10.0
 40
10.0
 40
10.0
 40
11.0
 40
11.0
 40
11.0
 40
12.0
 40
12.0
 40
12.0
 40
12.0
 10
4.134284125434028
 20
-5.805257161458333
 30
0.0
 10
3.877610948350694
 20
-5.805257161458333
 30
0.0
 10
3.649488661024305
 20
-5.931450737847222
 30
0.0
 10
3.509548611111111
 20
-6.124782986111111
 30
0.0
 10
3.486083984375
 20
-6.103678385416666
 30
0.0
 10
3.463731553819444
 20
-6.081258138020833
 30
0.0
 10
3.442477756076389
 20
-6.0577392578125
 30
0.0
 10
3.636094835069444
 20
-5.917656792534722
 30
0.0
 10
3.761956108940972
 20
-5.689744737413194
 30
0.0
 10
3.761956108940972
 20
-5.433261447482638
 30
0.0
 10
3.761956108940972
 20
-5.176506890190972
 30
0.0
 10
3.636094835069444
 20
-4.948391384548611
 30
0.0
 10
3.44219970703125
 20
-4.808390299479166
 30
0.0
 10
3.463731553819444
 20
-4.785000271267361
 30
0.0
 10
3.486083984375
 20
-4.762430826822916
 30
0.0
 10
3.509548611111111
 20
-4.741380479600694
 30
0.0
 10
3.649488661024305
 20
-4.934733072916666
 30
0.0
 10
3.877610948350694
 20
-5.060723198784722
 30
0.0
 10
4.134284125434028
 20
-5.060723198784722
 30
0.0
 10
4.390706380208333
 20
-5.060723198784722
 30
0.0
 10
4.618543836805555
 20
-4.934733072916666
 30
0.0
 10
4.758612738715278
 20
-4.741380479600694
 30
0.0
 10
4.782484266493055
 20
-4.762430826822916
 30
0.0
 10
4.8045654296875
 20
-4.785061306423611
 30
0.0
 10
4.825412326388888
 20
-4.808729383680555
 30
0.0
 10
4.632622612847222
 20
-4.94866943359375
 30
0.0
 10
4.506483289930555
 20
-5.176506890190972
 30
0.0
 10
4.506483289930555
 20
-5.433261447482638
 30
0.0
 10
4.506483289930555
 20
-5.689744737413194
 30
0.0
 10
4.632622612847222
 20
-5.917385525173611
 30
0.0
 10
4.825412326388888
 20
-6.0577392578125
 30
0.0
 10
4.8045654296875
 20
-6.081258138020833
 30
0.0
 10
4.782484266493055
 20
-6.103624131944444
 30
0.0
 10
4.758612738715278
 20
-6.124782986111111
 30
0.0
 10
4.618950737847222
 20
-5.931450737847222
 30
0.0
 10
4.390706380208333
 20
-5.805257161458333
 30
0.0
 10
4.134284125434028
 20
-5.805257161458333
 30
0.0
  0
SPLINE
  5
55
330
1F
100
AcDbEntity
  8
Layer 1
370
     0
100
AcDbSpline
210
0.0
220
0.0
230
1.0
 70
    11
 71
     3
 72
    17
 73
    13
 74
     0
 42
0.0000000001
 43
0.0000000001
 40
0.0
 40
0.0
 40
0.0
 40
0.0
 40
1.0
 40
1.0
 40
1.0
 40
2.0
 40
2.0
 40
2.0
 40
3.0
 40
3.0
 40
3.0
 40
4.0
 40
4.0
 40
4.0
 40
4.0
 10
4.550632052951388
 20
-6.267130533854166
 30
0.0
 10
4.425333658854166
 20
-6.330132378472221
 30
0.0
 10
4.283610026041666
 20
-6.365681966145833
 30
0.0
 10
4.134284125434028
 20
-6.365681966145833
 30
0.0
 10
3.984422471788194
 20
-6.365681966145833
 30
0.0
 10
3.842685275607639
 20
-6.330078125
 30
0.0
 10
3.717251247829861
 20
-6.267130533854166
 30
0.0
 10
3.81219482421875
 20
-6.139634874131944
 30
0.0
 10
3.963711208767361
 20
-6.057305230034722
 30
0.0
 10
4.134284125434028
 20
-6.057305230034722
 30
0.0
 10
4.304578993055555
 20
-6.057305230034722
 30
0.0
 10
4.455973307291666
 20
-6.139634874131944
 30
0.0
 10
4.550632052951388
 20
-6.267130533854166
 30
0.0
  0
SPLINE
  5
56
330
1F
100
AcDbEntity
  8
Layer 1
370
     0
100
AcDbSpline
210
0.0
220
0.0
230
1.0
 70
    11
 71
     3
 72
    26
 73
    22
 74
     0
 42
0.0000000001
 43
0.0000000001
 40
0.0
 40
0.0
 40
0.0
 40
0.0
 40
1.0
 40
1.0
 40
1.0
 40
2.0
 40
2.0
 40
2.0
 40
3.0
 40
3.0
 40
3.0
 40
4.0
 40
4.0
 40
4.0
 40
5.0
 40
5.0
 40
5.0
 40
6.0
 40
6.0
 40
6.0
 40
7.0
 40
7.0
 40
7.0
 40
7.0
 10
3.364373101128472
 20
-6.623345269097221
 30
0.0
 10
3.364373101128472
 20
-6.623345269097221
 30
0.0
 10
2.943739149305555
 20
-6.623345269097221
 30
0.0
 10
2.943739149305555
 20
-6.623345269097221
 30
0.0
 10
2.943739149305555
 20
-6.623345269097221
 30
0.0
 10
2.943739149305555
 20
-6.202989366319444
 30
0.0
 10
2.943739149305555
 20
-6.202989366319444
 30
0.0
 10
2.95947265625
 20
-6.2037353515625
 30
0.0
 10
2.975335015190972
 20
-6.204494900173611
 30
0.0
 10
2.990519205729167
 20
-6.204494900173611
 30
0.0
 10
3.066697862413194
 20
-6.204494900173611
 30
0.0
 10
3.140530056423611
 20
-6.193318684895833
 30
0.0
 10
3.209811740451389
 20
-6.172607421875
 30
0.0
 10
3.264322916666667
 20
-6.2408447265625
 30
0.0
 10
3.326280381944444
 20
-6.303032769097221
 30
0.0
 10
3.394870334201389
 20
-6.357693142361111
 30
0.0
 10
3.374172634548611
 20
-6.42724609375
 30
0.0
 10
3.362718370225694
 20
-6.500434027777778
 30
0.0
 10
3.362718370225694
 20
-6.576402452256944
 30
0.0
 10
3.362718370225694
 20
-6.5921630859375
 30
0.0
 10
3.3634033203125
 20
-6.607611762152778
 30
0.0
 10
3.364373101128472
 20
-6.623345269097221
 30
0.0
  0
SPLINE
  5
57
330
1F
100
AcDbEntity
  8
Layer 1
370
     0
100
AcDbSpline
210
0.0
220
0.0
230
1.0
 70
    11
 71
     3
 72
    17
 73
    13
 74
     0
 42
0.0000000001
 43
0.0000000001
 40
0.0
 40
0.0
 40
0.0
 40
0.0
 40
1.0
 40
1.0
 40
1.0
 40
2.0
 40
2.0
 40
2.0
 40
3.0
 40
3.0
 40
3.0
 40
4.0
 40
4.0
 40
4.0
 40
4.0
 10
3.300198025173611
 20
-5.849826388888888
 30
0.0
 10
3.237128363715278
 20
-5.724453396267361
 30
0.0
 10
3.201388888888889
 20
-5.582790798611111
 30
0.0
 10
3.201388888888889
 20
-5.433057996961805
 30
0.0
 10
3.201388888888889
 20
-5.283454047309028
 30
0.0
 10
3.237128363715278
 20
-5.141805013020833
 30
0.0
 10
3.300198025173611
 20
-5.016425238715278
 30
0.0
 10
3.42742919921875
 20
-5.111239963107638
 30
0.0
 10
3.509962293836805
 20
-5.2626953125
 30
0.0
 10
3.509962293836805
 20
-5.433261447482638
 30
0.0
 10
3.509962293836805
 20
-5.603630913628472
 30
0.0
 10
3.42742919921875
 20
-5.755221896701388
 30
0.0
 10
3.300198025173611
 20
-5.849826388888888
 30
0.0
  0
SPLINE
  5
58
330
1F
100
AcDbEntity
  8
Layer 1
370
     0
100
AcDbSpline
210
0.0
220
0.0
230
1.0
 70
    11
 71
     3
 72
    17
 73
    13
 74
     0
 42
0.0000000001
 43
0.0000000001
 40
0.0
 40
0.0
 40
0.0
 40
0.0
 40
1.0
 40
1.0
 40
1.0
 40
2.0
 40
2.0
 40
2.0
 40
3.0
 40
3.0
 40
3.0
 40
4.0
 40
4.0
 40
4.0
 40
4.0
 10
3.717658148871528
 20
-4.599175347222222
 30
0.0
 10
3.842685275607639
 20
-4.536037868923611
 30
0.0
 10
3.984422471788194
 20
-4.500569661458333
 30
0.0
 10
4.134284125434028
 20
-4.500569661458333
 30
0.0
 10
4.283610026041666
 20
-4.500569661458333
 30
0.0
 10
4.425333658854166
 20
-4.536037868923611
 30
0.0
 10
4.550632052951388
 20
-4.599175347222222
 30
0.0
 10
4.455973307291666
 20
-4.726142035590278
 30
0.0
 10
4.304578993055555
 20
-4.808803982204861
 30
0.0
 10
4.134284125434028
 20
-4.808803982204861
 30
0.0
 10
3.963711208767361
 20
-4.808803982204861
 30
0.0
 10
3.81219482421875
 20
-4.726142035590278
 30
0.0
 10
3.717658148871528
 20
-4.599175347222222
 30
0.0
  0
SPLINE
  5
59
330
1F
100
AcDbEntity
  8
Layer 1
370
     0
100
AcDbSpline
210
0.0
220
0.0
230
1.0
 70
    11
 71
     3
 72
    17
 73
    13
 74
     0
 42
0.0000000001
 43
0.0000000001
 40
0.0
 40
0.0
 40
0.0
 40
0.0
 40
1.0
 40
1.0
 40
1.0
 40
2.0
 40
2.0
 40
2.0
 40
3.0
 40
3.0
 40
3.0
 40
4.0
 40
4.0
 40
4.0
 40
4.0
 10
4.758612738715278
 20
-5.433261447482638
 30
0.0
 10
4.758612738715278
 20
-5.2626953125
 30
0.0
 10
4.841145833333333
 20
-5.111239963107638
 30
0.0
 10
4.968248155381944
 20
-5.016710069444444
 30
0.0
 10
5.030897352430555
 20
-5.142008463541666
 30
0.0
 10
5.066636827256944
 20
-5.283454047309028
 30
0.0
 10
5.066636827256944
 20
-5.433057996961805
 30
0.0
 10
5.066636827256944
 20
-5.582790798611111
 30
0.0
 10
5.030897352430555
 20
-5.724453396267361
 30
0.0
 10
4.968248155381944
 20
-5.849758572048611
 30
0.0
 10
4.840861002604166
 20
-5.755154079861111
 30
0.0
 10
4.758612738715278
 20
-5.603352864583333
 30
0.0
 10
4.758612738715278
 20
-5.433261447482638
 30
0.0
  0
SPLINE
  5
5A
330
1F
100
AcDbEntity
  8
Layer 1
370
     0
100
AcDbSpline
210
0.0
220
0.0
230
1.0
 70
    11
 71
     3
 72
    26
 73
    22
 74
     0
 42
0.0000000001
 43
0.0000000001
 40
0.0
 40
0.0
 40
0.0
 40
0.0
 40
1.0
 40
1.0
 40
1.0
 40
2.0
 40
2.0
 40
2.0
 40
3.0
 40
3.0
 40
3.0
 40
4.0
 40
4.0
 40
4.0
 40
5.0
 40
5.0
 40
5.0
 40
6.0
 40
6.0
 40
6.0
 40
7.0
 40
7.0
 40
7.0
 40
7.0
 10
5.058634440104166
 20
-4.693779839409722
 30
0.0
 10
5.004123263888888
 20
-4.625257703993055
 30
0.0
 10
4.942165798611111
 20
-4.563090006510416
 30
0.0
 10
4.873562282986111
 20
-4.508443196614583
 30
0.0
 10
4.8944091796875
 20
-4.439161512586805
 30
0.0
 10
4.905314127604166
 20
-4.365478515625
 30
0.0
 10
4.905314127604166
 20
-4.289564344618055
 30
0.0
 10
4.905314127604166
 20
-4.2740478515625
 30
0.0
 10
4.904622395833333
 20
-4.258382161458333
 30
0.0
 10
4.903510199652778
 20
-4.242723253038195
 30
0.0
 10
4.903510199652778
 20
-4.242723253038195
 30
0.0
 10
5.324557834201388
 20
-4.242723253038195
 30
0.0
 10
5.324557834201388
 20
-4.242723253038195
 30
0.0
 10
5.324557834201388
 20
-4.242723253038195
 30
0.0
 10
5.324557834201388
 20
-4.663343641493055
 30
0.0
 10
5.324557834201388
 20
-4.663343641493055
 30
0.0
 10
5.309109157986111
 20
-4.662455240885416
 30
0.0
 10
5.293375651041666
 20
-4.661892361111111
 30
0.0
 10
5.277777777777778
 20
-4.661892361111111
 30
0.0
 10
5.201605902777778
 20
-4.661892361111111
 30
0.0
 10
5.128173828125
 20
-4.673210991753472
 30
0.0
 10
5.058634440104166
 20
-4.693779839409722
 30
0.0
  0
SPLINE
  5
5B
330
1F
100
AcDbEntity
  8
Layer 1
370
     0
100
AcDbSpline
210
0.0
220
0.0
230
1.0
 70
    11
 71
     3
 72
    26
 73
    22
 74
     0
 42
0.0000000001
 43
0.0000000001
 40
0.0
 40
0.0
 40
0.0
 40
0.0
 40
1.0
 40
1.0
 40
1.0
 40
2.0
 40
2.0
 40
2.0
 40
3.0
 40
3.0
 40
3.0
 40
4.0
 40
4.0
 40
4.0
 40
5.0
 40
5.0
 40
5.0
 40
6.0
 40
6.0
 40
6.0
 40
7.0
 40
7.0
 40
7.0
 40
7.0
 10
3.364373101128472
 20
-4.242723253038195
 30
0.0
 10
3.3634033203125
 20
-4.258382161458333
 30
0.0
 10
3.362718370225694
 20
-4.2740478515625
 30
0.0
 10
3.362718370225694
 20
-4.289564344618055
 30
0.0
 10
3.362718370225694
 20
-4.365478515625
 30
0.0
 10
3.374172634548611
 20
-4.439161512586805
 30
0.0
 10
3.394870334201389
 20
-4.508443196614583
 30
0.0
 10
3.326280381944444
 20
-4.563090006510416
 30
0.0
 10
3.264322916666667
 20
-4.625257703993055
 30
0.0
 10
3.20953369140625
 20
-4.693705240885416
 30
0.0
 10
3.1402587890625
 20
-4.673007541232638
 30
0.0
 10
3.066697862413194
 20
-4.661892361111111
 30
0.0
 10
2.990519205729167
 20
-4.661892361111111
 30
0.0
 10
2.975335015190972
 20
-4.661892361111111
 30
0.0
 10
2.959608289930555
 20
-4.662455240885416
 30
0.0
 10
2.943739149305555
 20
-4.663343641493055
 30
0.0
 10
2.943739149305555
 20
-4.663343641493055
 30
0.0
 10
2.943739149305555
 20
-4.242723253038195
 30
0.0
 10
2.943739149305555
 20
-4.242723253038195
 30
0.0
 10
2.943739149305555
 20
-4.242723253038195
 30
0.0
 10
3.364373101128472
 20
-4.242723253038195
 30
0.0
 10
3.364373101128472
 20
-4.242723253038195
 30
0.0
  0
SPLINE
  5
5C
330
1F
100
AcDbEntity
  8
Layer 1
370
     0
100
AcDbSpline
210
0.0
220
0.0
230
1.0
 70
    11
 71
     3
 72
    26
 73
    22
 74
     0
 42
0.0000000001
 43
0.0000000001
 40
0.0
 40
0.0
 40
0.0
 40
0.0
 40
1.0
 40
1.0
 40
1.0
 40
2.0
 40
2.0
 40
2.0
 40
3.0
 40
3.0
 40
3.0
 40
4.0
 40
4.0
 40
4.0
 40
5.0
 40
5.0
 40
5.0
 40
6.0
 40
6.0
 40
6.0
 40
7.0
 40
7.0
 40
7.0
 40
7.0
 10
4.903510199652778
 20
-6.623480902777778
 30
0.0
 10
4.904622395833333
 20
-6.607828776041666
 30
0.0
 10
4.905314127604166
 20
-6.5921630859375
 30
0.0
 10
4.905314127604166
 20
-6.576402452256944
 30
0.0
 10
4.905314127604166
 20
-6.500434027777778
 30
0.0
 10
4.8944091796875
 20
-6.42724609375
 30
0.0
 10
4.873562282986111
 20
-6.357693142361111
 30
0.0
 10
4.942165798611111
 20
-6.303032769097221
 30
0.0
 10
5.004123263888888
 20
-6.2408447265625
 30
0.0
 10
5.058634440104166
 20
-6.172539605034722
 30
0.0
 10
5.128173828125
 20
-6.193318684895833
 30
0.0
 10
5.201605902777778
 20
-6.204494900173611
 30
0.0
 10
5.277777777777778
 20
-6.204494900173611
 30
0.0
 10
5.293375651041666
 20
-6.204494900173611
 30
0.0
 10
5.309109157986111
 20
-6.2037353515625
 30
0.0
 10
5.324557834201388
 20
-6.202989366319444
 30
0.0
 10
5.324557834201388
 20
-6.202989366319444
 30
0.0
 10
5.324557834201388
 20
-6.623480902777778
 30
0.0
 10
5.324557834201388
 20
-6.623480902777778
 30
0.0
 10
5.324557834201388
 20
-6.623480902777778
 30
0.0
 10
4.903510199652778
 20
-6.623480902777778
 30
0.0
 10
4.903510199652778
 20
-6.623480902777778
 30
0.0
  0
POLYLINE
  5
5D
330
1F
100
AcDbEntity
  8
Layer 1
370
     0
100
AcDb2dPolyline
 66
     1
 10
0.0
 20
0.0
 30
0.0
  0
VERTEX
  5
5E
330
5D
100
AcDbEntity
  8
Layer 1
370
     0
100
AcDbVertex
100
AcDb2dVertex
 10
5.576429578993055
 20
-3.990715874565972
 30
0.0
  0
VERTEX
  5
5F
330
5D
100
AcDbEntity
  8
Layer 1
370
     0
100
AcDbVertex
100
AcDb2dVertex
 10
5.576429578993055
 20
-3.6688232421875
 30
0.0
  0
VERTEX
  5
60
330
5D
100
AcDbEntity
  8
Layer 1
370
     0
100
AcDbVertex
100
AcDb2dVertex
 10
5.898111979166666
 20
-3.6688232421875
 30
0.0
  0
VERTEX
  5
61
330
5D
100
AcDbEntity
  8
Layer 1
370
     0
100
AcDbVertex
100
AcDb2dVertex
 10
5.898111979166666
 20
-3.990715874565972
 30
0.0
  0
VERTEX
  5
62
330
5D
100
AcDbEntity
  8
Layer 1
370
     0
100
AcDbVertex
100
AcDb2dVertex
 10
5.576429578993055
 20
-3.990715874565972
 30
0.0
  0
SEQEND
  5
63
330
5D
100
AcDbEntity
  8
Layer 1
370
     0
  0
SPLINE
  5
64
330
1F
100
AcDbEntity
  8
Layer 1
370
     0
100
AcDbSpline
210
0.0
220
0.0
230
1.0
 70
    11
 71
     3
 72
    68
 73
    64
 74
     0
 42
0.0000000001
 43
0.0000000001
 40
0.0
 40
0.0
 40
0.0
 40
0.0
 40
1.0
 40
1.0
 40
1.0
 40
2.0
 40
2.0
 40
2.0
 40
3.0
 40
3.0
 40
3.0
 40
4.0
 40
4.0
 40
4.0
 40
5.0
 40
5.0
 40
5.0
 40
6.0
 40
6.0
 40
6.0
 40
7.0
 40
7.0
 40
7.0
 40
8.0
 40
8.0
 40
8.0
 40
9.0
 40
9.0
 40
9.0
 40
10.0
 40
10.0
 40
10.0
 40
11.0
 40
11.0
 40
11.0
 40
12.0
 40
12.0
 40
12.0
 40
13.0
 40
13.0
 40
13.0
 40
14.0
 40
14.0
 40
14.0
 40
15.0
 40
15.0
 40
15.0
 40
16.0
 40
16.0
 40
16.0
 40
17.0
 40
17.0
 40
17.0
 40
18.0
 40
18.0
 40
18.0
 40
19.0
 40
19.0
 40
19.0
 40
20.0
 40
20.0
 40
20.0
 40
21.0
 40
21.0
 40
21.0
 40
21.0
 10
3.294955783420139
 20
-2.579366048177083
 30
0.0
 10
3.294955783420139
 20
-2.579366048177083
 30
0.0
 10
3.47393798828125
 20
-2.400383843315972
 30
0.0
 10
3.47393798828125
 20
-2.400383843315972
 30
0.0
 10
3.47393798828125
 20
-2.400383843315972
 30
0.0
 10
4.134284125434028
 20
-1.740180121527778
 30
0.0
 10
4.134284125434028
 20
-1.740180121527778
 30
0.0
 10
4.134284125434028
 20
-1.740180121527778
 30
0.0
 10
4.793931749131944
 20
-2.400383843315972
 30
0.0
 10
4.793931749131944
 20
-2.400383843315972
 30
0.0
 10
4.857137044270833
 20
-2.354078504774305
 30
0.0
 10
4.915106879340278
 20
-2.300944010416667
 30
0.0
 10
4.967000325520833
 20
-2.242160373263889
 30
0.0
 10
4.915106879340278
 20
-2.300944010416667
 30
0.0
 10
4.857137044270833
 20
-2.354146321614583
 30
0.0
 10
4.793931749131944
 20
-2.400383843315972
 30
0.0
 10
4.609442816840278
 20
-2.536180284288194
 30
0.0
 10
4.382134331597222
 20
-2.614217122395833
 30
0.0
 10
4.140082465277778
 20
-2.61566162109375
 30
0.0
 10
4.140082465277778
 20
-2.61566162109375
 30
0.0
 10
4.127522786458333
 20
-2.61566162109375
 30
0.0
 10
4.127522786458333
 20
-2.61566162109375
 30
0.0
 10
3.886027018229167
 20
-2.614217122395833
 30
0.0
 10
3.65887451171875
 20
-2.536180284288194
 30
0.0
 10
3.47393798828125
 20
-2.400587293836805
 30
0.0
 10
3.47393798828125
 20
-2.400587293836805
 30
0.0
 10
3.294955783420139
 20
-2.579644097222222
 30
0.0
 10
3.294955783420139
 20
-2.579644097222222
 30
0.0
 10
3.303514268663194
 20
-2.586269802517361
 30
0.0
 10
3.312479654947917
 20
-2.593031141493055
 30
0.0
 10
3.321038140190972
 20
-2.599514431423611
 30
0.0
 10
3.389071994357639
 20
-2.649956597222222
 30
0.0
 10
3.460835774739583
 20
-2.693773057725694
 30
0.0
 10
3.535637749565972
 20
-2.730129665798611
 30
0.0
 10
3.2069091796875
 20
-2.861721462673611
 30
0.0
 10
2.926350911458333
 20
-3.10040283203125
 30
0.0
 10
2.742668999565972
 20
-3.416904025607639
 30
0.0
 10
2.742668999565972
 20
-3.416904025607639
 30
0.0
 10
2.117933485243055
 20
-3.416904025607639
 30
0.0
 10
2.117933485243055
 20
-3.416904025607639
 30
0.0
 10
2.117933485243055
 20
-3.416904025607639
 30
0.0
 10
2.117933485243055
 20
-4.0419921875
 30
0.0
 10
2.117933485243055
 20
-4.0419921875
 30
0.0
 10
1.801622178819444
 20
-4.225538465711805
 30
0.0
 10
1.562608506944444
 20
-4.506028917100694
 30
0.0
 10
1.431362575954861
 20
-4.834947374131944
 30
0.0
 10
1.394660101996528
 20
-4.760158962673611
 30
0.0
 10
1.350775824652778
 20
-4.688184950086805
 30
0.0
 10
1.300537109375
 20
-4.620015462239583
 30
0.0
 10
1.293775770399306
 20
-4.611192491319444
 30
0.0
 10
1.287150065104167
 20
-4.602288140190972
 30
0.0
 10
1.280388726128472
 20
-4.593797471788194
 30
0.0
 10
1.280388726128472
 20
-4.593797471788194
 30
0.0
 10
1.840677897135417
 20
-4.033704969618055
 30
0.0
 10
1.840677897135417
 20
-4.033704969618055
 30
0.0
 10
1.840677897135417
 20
-4.033704969618055
 30
0.0
 10
1.840677897135417
 20
-3.139865451388889
 30
0.0
 10
1.840677897135417
 20
-3.139865451388889
 30
0.0
 10
1.840677897135417
 20
-3.139865451388889
 30
0.0
 10
2.734524197048611
 20
-3.139865451388889
 30
0.0
 10
2.734524197048611
 20
-3.139865451388889
 30
0.0
 10
2.734524197048611
 20
-3.139865451388889
 30
0.0
 10
3.294955783420139
 20
-2.579366048177083
 30
0.0
 10
3.294955783420139
 20
-2.579366048177083
 30
0.0
  0
POLYLINE
  5
65
330
1F
100
AcDbEntity
  8
Layer 1
370
     0
100
AcDb2dPolyline
 66
     1
 10
0.0
 20
0.0
 30
0.0
  0
VERTEX
  5
66
330
65
100
AcDbEntity
  8
Layer 1
370
     0
100
AcDbVertex
100
AcDb2dVertex
 10
1.588548448350694
 20
-2.887593587239583
 30
0.0
  0
VERTEX
  5
67
330
65
100
AcDbEntity
  8
Layer 1
370
     0
100
AcDbVertex
100
AcDb2dVertex
 10
1.2962646484375
 20
-2.887593587239583
 30
0.0
  0
VERTEX
  5
68
330
65
100
AcDbEntity
  8
Layer 1
370
     0
100
AcDbVertex
100
AcDb2dVertex
 10
1.2962646484375
 20
-2.595309787326389
 30
0.0
  0
VERTEX
  5
69
330
65
100
AcDbEntity
  8
Layer 1
370
     0
100
AcDbVertex
100
AcDb2dVertex
 10
1.588548448350694
 20
-2.595309787326389
 30
0.0
  0
VERTEX
  5
6A
330
65
100
AcDbEntity
  8
Layer 1
370
     0
100
AcDbVertex
100
AcDb2dVertex
 10
1.588548448350694
 20
-2.887593587239583
 30
0.0
  0
SEQEND
  5
6B
330
65
100
AcDbEntity
  8
Layer 1
370
     0
  0
SPLINE
  5
6C
330
1F
100
AcDbEntity
  8
Layer 1
370
     0
100
AcDbSpline
210
0.0
220
0.0
230
1.0
 70
    11
 71
     3
 72
    41
 73
    37
 74
     0
 42
0.0000000001
 43
0.0000000001
 40
0.0
 40
0.0
 40
0.0
 40
0.0
 40
1.0
 40
1.0
 40
1.0
 40
2.0
 40
2.0
 40
2.0
 40
3.0
 40
3.0
 40
3.0
 40
4.0
 40
4.0
 40
4.0
 40
5.0
 40
5.0
 40
5.0
 40
6.0
 40
6.0
 40
6.0
 40
7.0
 40
7.0
 40
7.0
 40
8.0
 40
8.0
 40
8.0
 40
9.0
 40
9.0
 40
9.0
 40
10.0
 40
10.0
 40
10.0
 40
11.0
 40
11.0
 40
11.0
 40
12.0
 40
12.0
 40
12.0
 40
12.0
 10
0.7065768771701388
 20
-4.16314697265625
 30
0.0
 10
0.7065768771701388
 20
-4.16314697265625
 30
0.0
 10
0.7065768771701388
 20
-2.005547417534722
 30
0.0
 10
0.7065768771701388
 20
-2.005547417534722
 30
0.0
 10
0.7065768771701388
 20
-2.005547417534722
 30
0.0
 10
2.864108615451389
 20
-2.005547417534722
 30
0.0
 10
2.864108615451389
 20
-2.005547417534722
 30
0.0
 10
2.922627766927083
 20
-2.15362548828125
 30
0.0
 10
3.006110297309028
 20
-2.288872612847222
 30
0.0
 10
3.110853407118055
 20
-2.406995985243055
 30
0.0
 10
3.110853407118055
 20
-2.406995985243055
 30
0.0
 10
2.630194769965278
 20
-2.887593587239583
 30
0.0
 10
2.630194769965278
 20
-2.887593587239583
 30
0.0
 10
2.630194769965278
 20
-2.887593587239583
 30
0.0
 10
1.840677897135417
 20
-2.887593587239583
 30
0.0
 10
1.840677897135417
 20
-2.887593587239583
 30
0.0
 10
1.840677897135417
 20
-2.887593587239583
 30
0.0
 10
1.840677897135417
 20
-2.343173556857639
 30
0.0
 10
1.840677897135417
 20
-2.343173556857639
 30
0.0
 10
1.840677897135417
 20
-2.343173556857639
 30
0.0
 10
1.044270833333333
 20
-2.343173556857639
 30
0.0
 10
1.044270833333333
 20
-2.343173556857639
 30
0.0
 10
1.044270833333333
 20
-2.343173556857639
 30
0.0
 10
1.044270833333333
 20
-3.139865451388889
 30
0.0
 10
1.044270833333333
 20
-3.139865451388889
 30
0.0
 10
1.044270833333333
 20
-3.139865451388889
 30
0.0
 10
1.588548448350694
 20
-3.139865451388889
 30
0.0
 10
1.588548448350694
 20
-3.139865451388889
 30
0.0
 10
1.588548448350694
 20
-3.139865451388889
 30
0.0
 10
1.588548448350694
 20
-3.929233127170139
 30
0.0
 10
1.588548448350694
 20
-3.929233127170139
 30
0.0
 10
1.588548448350694
 20
-3.929233127170139
 30
0.0
 10
1.108161078559028
 20
-4.409905327690972
 30
0.0
 10
1.108161078559028
 20
-4.409905327690972
 30
0.0
 10
0.989895290798611
 20
-4.304965549045138
 30
0.0
 10
0.8543768988715277
 20
-4.221523708767361
 30
0.0
 10
0.7065768771701388
 20
-4.16314697265625
 30
0.0
  0
SPLINE
  5
6E
330
1F
100
AcDbEntity
  8
Layer 1
370
     0
100
AcDbSpline
210
0.0
220
0.0
230
1.0
 70
    11
 71
     3
 72
    41
 73
    37
 74
     0
 42
0.0000000001
 43
0.0000000001
 40
0.0
 40
0.0
 40
0.0
 40
0.0
 40
1.0
 40
1.0
 40
1.0
 40
2.0
 40
2.0
 40
2.0
 40
3.0
 40
3.0
 40
3.0
 40
4.0
 40
4.0
 40
4.0
 40
5.0
 40
5.0
 40
5.0
 40
6.0
 40
6.0
 40
6.0
 40
7.0
 40
7.0
 40
7.0
 40
8.0
 40
8.0
 40
8.0
 40
9.0
 40
9.0
 40
9.0
 40
10.0
 40
10.0
 40
10.0
 40
11.0
 40
11.0
 40
11.0
 40
12.0
 40
12.0
 40
12.0
 40
12.0
 10
2.864108615451389
 20
-8.86050075954861
 30
0.0
 10
2.864108615451389
 20
-8.86050075954861
 30
0.0
 10
0.7065768771701388
 20
-8.86050075954861
 30
0.0
 10
0.7065768771701388
 20
-8.86050075954861
 30
0.0
 10
0.7065768771701388
 20
-8.86050075954861
 30
0.0
 10
0.7065768771701388
 20
-6.703030056423611
 30
0.0
 10
0.7065768771701388
 20
-6.703030056423611
 30
0.0
 10
0.8543768988715277
 20
-6.644449869791666
 30
0.0
 10
0.989895290798611
 20
-6.561102973090278
 30
0.0
 10
1.108161078559028
 20
-6.456203884548611
 30
0.0
 10
1.108161078559028
 20
-6.456203884548611
 30
0.0
 10
1.588548448350694
 20
-6.937147352430555
 30
0.0
 10
1.588548448350694
 20
-6.937147352430555
 30
0.0
 10
1.588548448350694
 20
-6.937147352430555
 30
0.0
 10
1.588548448350694
 20
-7.726399739583333
 30
0.0
 10
1.588548448350694
 20
-7.726399739583333
 30
0.0
 10
1.588548448350694
 20
-7.726399739583333
 30
0.0
 10
1.044270833333333
 20
-7.726399739583333
 30
0.0
 10
1.044270833333333
 20
-7.726399739583333
 30
0.0
 10
1.044270833333333
 20
-7.726399739583333
 30
0.0
 10
1.044270833333333
 20
-8.52280002170139
 30
0.0
 10
1.044270833333333
 20
-8.52280002170139
 30
0.0
 10
1.044270833333333
 20
-8.52280002170139
 30
0.0
 10
1.840677897135417
 20
-8.52280002170139
 30
0.0
 10
1.840677897135417
 20
-8.52280002170139
 30
0.0
 10
1.840677897135417
 20
-8.52280002170139
 30
0.0
 10
1.840677897135417
 20
-7.978461371527778
 30
0.0
 10
1.840677897135417
 20
-7.978461371527778
 30
0.0
 10
1.840677897135417
 20
-7.978461371527778
 30
0.0
 10
2.630194769965278
 20
-7.978461371527778
 30
0.0
 10
2.630194769965278
 20
-7.978461371527778
 30
0.0
 10
2.630194769965278
 20
-7.978461371527778
 30
0.0
 10
3.110853407118055
 20
-8.458970811631945
 30
0.0
 10
3.110853407118055
 20
-8.458970811631945
 30
0.0
 10
3.006110297309028
 20
-8.577189127604166
 30
0.0
 10
2.922627766927083
 20
-8.712565104166666
 30
0.0
 10
2.864108615451389
 20
-8.86050075954861
 30
0.0
  0
POLYLINE
  5
6F
330
1F
100
AcDbEntity
  8
Layer 1
370
     0
100
AcDb2dPolyline
 66
     1
 10
0.0
 20
0.0
 30
0.0
  0
VERTEX
  5
70
330
6F
100
AcDbEntity
  8
Layer 1
370
     0
100
AcDbVertex
100
AcDb2dVertex
 10
1.588548448350694
 20
-7.978461371527778
 30
0.0
  0
VERTEX
  5
71
330
6F
100
AcDbEntity
  8
Layer 1
370
     0
100
AcDbVertex
100
AcDb2dVertex
 10
1.588548448350694
 20
-8.27072482638889
 30
0.0
  0
VERTEX
  5
72
330
6F
100
AcDbEntity
  8
Layer 1
370
     0
100
AcDbVertex
100
AcDb2dVertex
 10
1.2962646484375
 20
-8.27072482638889
 30
0.0
  0
VERTEX
  5
73
330
6F
100
AcDbEntity
  8
Layer 1
370
     0
100
AcDbVertex
100
AcDb2dVertex
 10
1.2962646484375
 20
-7.978461371527778
 30
0.0
  0
VERTEX
  5
74
330
6F
100
AcDbEntity
  8
Layer 1
370
     0
100
AcDbVertex
100
AcDb2dVertex
 10
1.588548448350694
 20
-7.978461371527778
 30
0.0
  0
SEQEND
  5
75
330
6F
100
AcDbEntity
  8
Layer 1
370
     0
  0
SPLINE
  5
76
330
1F
100
AcDbEntity
  8
Layer 1
370
     0
100
AcDbSpline
210
0.0
220
0.0
230
1.0
 70
    11
 71
     3
 72
    65
 73
    61
 74
     0
 42
0.0000000001
 43
0.0000000001
 40
0.0
 40
0.0
 40
0.0
 40
0.0
 40
1.0
 40
1.0
 40
1.0
 40
2.0
 40
2.0
 40
2.0
 40
3.0
 40
3.0
 40
3.0
 40
4.0
 40
4.0
 40
4.0
 40
5.0
 40
5.0
 40
5.0
 40
6.0
 40
6.0
 40
6.0
 40
7.0
 40
7.0
 40
7.0
 40
8.0
 40
8.0
 40
8.0
 40
9.0
 40
9.0
 40
9.0
 40
10.0
 40
10.0
 40
10.0
 40
11.0
 40
11.0
 40
11.0
 40
12.0
 40
12.0
 40
12.0
 40
13.0
 40
13.0
 40
13.0
 40
14.0
 40
14.0
 40
14.0
 40
15.0
 40
15.0
 40
15.0
 40
16.0
 40
16.0
 40
16.0
 40
17.0
 40
17.0
 40
17.0
 40
18.0
 40
18.0
 40
18.0
 40
19.0
 40
19.0
 40
19.0
 40
20.0
 40
20.0
 40
20.0
 40
20.0
 10
3.294677734375
 20
-8.28662109375
 30
0.0
 10
3.294677734375
 20
-8.28662109375
 30
0.0
 10
2.734524197048611
 20
-7.726399739583333
 30
0.0
 10
2.734524197048611
 20
-7.726399739583333
 30
0.0
 10
2.734524197048611
 20
-7.726399739583333
 30
0.0
 10
1.840677897135417
 20
-7.726399739583333
 30
0.0
 10
1.840677897135417
 20
-7.726399739583333
 30
0.0
 10
1.840677897135417
 20
-7.726399739583333
 30
0.0
 10
1.840677897135417
 20
-6.832492404513888
 30
0.0
 10
1.840677897135417
 20
-6.832492404513888
 30
0.0
 10
1.840677897135417
 20
-6.832492404513888
 30
0.0
 10
1.280388726128472
 20
-6.272108289930555
 30
0.0
 10
1.280388726128472
 20
-6.272108289930555
 30
0.0
 10
1.280388726128472
 20
-6.272108289930555
 30
0.0
 10
1.101264105902778
 20
-6.093126085069444
 30
0.0
 10
1.101264105902778
 20
-6.093126085069444
 30
0.0
 10
1.101264105902778
 20
-6.093126085069444
 30
0.0
 10
0.4417453342013888
 20
-5.433336046006944
 30
0.0
 10
0.4417453342013888
 20
-5.433336046006944
 30
0.0
 10
0.4417453342013888
 20
-5.433336046006944
 30
0.0
 10
0.4418877495659722
 20
-5.433261447482638
 30
0.0
 10
0.4418877495659722
 20
-5.433261447482638
 30
0.0
 10
0.4418877495659722
 20
-5.433261447482638
 30
0.0
 10
1.101264105902778
 20
-4.773261176215278
 30
0.0
 10
1.101264105902778
 20
-4.773261176215278
 30
0.0
 10
1.238023546006944
 20
-4.959852430555555
 30
0.0
 10
1.316270616319444
 20
-5.188720703125
 30
0.0
 10
1.316270616319444
 20
-5.433057996961805
 30
0.0
 10
1.316270616319444
 20
-5.4366455078125
 30
0.0
 10
1.316270616319444
 20
-5.439893934461805
 30
0.0
 10
1.316270616319444
 20
-5.4434814453125
 30
0.0
 10
1.314337836371528
 20
-5.684007432725694
 30
0.0
 10
1.236368815104167
 20
-5.909383138020833
 30
0.0
 10
1.101677788628472
 20
-6.093329535590278
 30
0.0
 10
1.101677788628472
 20
-6.093329535590278
 30
0.0
 10
1.280666775173611
 20
-6.272108289930555
 30
0.0
 10
1.280666775173611
 20
-6.272108289930555
 30
0.0
 10
1.287706163194444
 20
-6.263712565104166
 30
0.0
 10
1.294053819444444
 20
-6.255221896701388
 30
0.0
 10
1.300537109375
 20
-6.246432834201388
 30
0.0
 10
1.350775824652778
 20
-6.178412543402778
 30
0.0
 10
1.394660101996528
 20
-6.1064453125
 30
0.0
 10
1.431362575954861
 20
-6.031439887152778
 30
0.0
 10
1.562608506944444
 20
-6.360582139756944
 30
0.0
 10
1.801622178819444
 20
-6.641086154513888
 30
0.0
 10
2.117933485243055
 20
-6.824354383680555
 30
0.0
 10
2.117933485243055
 20
-6.824354383680555
 30
0.0
 10
2.117933485243055
 20
-7.449354383680555
 30
0.0
 10
2.117933485243055
 20
-7.449354383680555
 30
0.0
 10
2.117933485243055
 20
-7.449354383680555
 30
0.0
 10
2.74322509765625
 20
-7.449354383680555
 30
0.0
 10
2.74322509765625
 20
-7.449354383680555
 30
0.0
 10
2.926622178819444
 20
-7.765869140625
 30
0.0
 10
3.207187228732639
 20
-8.0045166015625
 30
0.0
 10
3.536458333333333
 20
-8.13576931423611
 30
0.0
 10
3.461113823784722
 20
-8.1724853515625
 30
0.0
 10
3.389071994357639
 20
-8.216010199652777
 30
0.0
 10
3.321038140190972
 20
-8.266859266493055
 30
0.0
 10
3.312479654947917
 20
-8.273423936631945
 30
0.0
 10
3.303514268663194
 20
-8.279866536458332
 30
0.0
 10
3.294677734375
 20
-8.28662109375
 30
0.0
  0
SPLINE
  5
77
330
1F
100
AcDbEntity
  8
Layer 1
370
     0
100
AcDbSpline
210
0.0
220
0.0
230
1.0
 70
    11
 71
     3
 72
    17
 73
    13
 74
     0
 42
0.0000000001
 43
0.0000000001
 40
0.0
 40
0.0
 40
0.0
 40
0.0
 40
1.0
 40
1.0
 40
1.0
 40
2.0
 40
2.0
 40
2.0
 40
3.0
 40
3.0
 40
3.0
 40
4.0
 40
4.0
 40
4.0
 40
4.0
 10
4.134284125434028
 20
-9.12588161892361
 30
0.0
 10
4.134284125434028
 20
-9.12588161892361
 30
0.0
 10
3.47393798828125
 20
-8.4658203125
 30
0.0
 10
3.47393798828125
 20
-8.4658203125
 30
0.0
 10
3.660529242621528
 20
-8.328993055555555
 30
0.0
 10
3.88946533203125
 20
-8.250528971354166
 30
0.0
 10
4.134284125434028
 20
-8.250528971354166
 30
0.0
 10
4.378689236111111
 20
-8.250528971354166
 30
0.0
 10
4.607503255208333
 20
-8.328993055555555
 30
0.0
 10
4.794080946180555
 20
-8.4658203125
 30
0.0
 10
4.794080946180555
 20
-8.4658203125
 30
0.0
 10
4.134284125434028
 20
-9.12588161892361
 30
0.0
 10
4.134284125434028
 20
-9.12588161892361
 30
0.0
  0
SPLINE
  5
78
330
1F
100
AcDbEntity
  8
Layer 1
370
     0
100
AcDbSpline
210
0.0
220
0.0
230
1.0
 70
    11
 71
     3
 72
    41
 73
    37
 74
     0
 42
0.0000000001
 43
0.0000000001
 40
0.0
 40
0.0
 40
0.0
 40
0.0
 40
1.0
 40
1.0
 40
1.0
 40
2.0
 40
2.0
 40
2.0
 40
3.0
 40
3.0
 40
3.0
 40
4.0
 40
4.0
 40
4.0
 40
5.0
 40
5.0
 40
5.0
 40
6.0
 40
6.0
 40
6.0
 40
7.0
 40
7.0
 40
7.0
 40
8.0
 40
8.0
 40
8.0
 40
9.0
 40
9.0
 40
9.0
 40
10.0
 40
10.0
 40
10.0
 40
11.0
 40
11.0
 40
11.0
 40
12.0
 40
12.0
 40
12.0
 40
12.0
 10
4.973334418402778
 20
-8.28662109375
 30
0.0
 10
4.964789496527778
 20
-8.279866536458332
 30
0.0
 10
4.9556884765625
 20
-8.273423936631945
 30
0.0
 10
4.946845160590278
 20
-8.266859266493055
 30
0.0
 10
4.879082573784722
 20
-8.216010199652777
 30
0.0
 10
4.807047526041666
 20
-8.1724853515625
 30
0.0
 10
4.732245551215278
 20
-8.13576931423611
 30
0.0
 10
5.060980902777778
 20
-8.00466579861111
 30
0.0
 10
5.341810438368055
 20
-7.765923394097221
 30
0.0
 10
5.525078667534722
 20
-7.449354383680555
 30
0.0
 10
5.525078667534722
 20
-7.449354383680555
 30
0.0
 10
6.150363498263888
 20
-7.449354383680555
 30
0.0
 10
6.150363498263888
 20
-7.449354383680555
 30
0.0
 10
6.150363498263888
 20
-7.449354383680555
 30
0.0
 10
6.150363498263888
 20
-6.824205186631944
 30
0.0
 10
6.150363498263888
 20
-6.824205186631944
 30
0.0
 10
6.466946072048611
 20
-6.6409912109375
 30
0.0
 10
6.7056884765625
 20
-6.360297309027778
 30
0.0
 10
6.837076822916666
 20
-6.031222873263888
 30
0.0
 10
6.873494466145833
 20
-6.106228298611111
 30
0.0
 10
6.917399088541666
 20
-6.178127712673611
 30
0.0
 10
6.9678955078125
 20
-6.246120876736111
 30
0.0
 10
6.974256727430555
 20
-6.255018446180555
 30
0.0
 10
6.981146918402778
 20
-6.263563368055555
 30
0.0
 10
6.987630208333333
 20
-6.272108289930555
 30
0.0
 10
6.987630208333333
 20
-6.272108289930555
 30
0.0
 10
6.427205403645833
 20
-6.832492404513888
 30
0.0
 10
6.427205403645833
 20
-6.832492404513888
 30
0.0
 10
6.427205403645833
 20
-6.832492404513888
 30
0.0
 10
6.427205403645833
 20
-7.726399739583333
 30
0.0
 10
6.427205403645833
 20
-7.726399739583333
 30
0.0
 10
6.427205403645833
 20
-7.726399739583333
 30
0.0
 10
5.533772786458333
 20
-7.726399739583333
 30
0.0
 10
5.533772786458333
 20
-7.726399739583333
 30
0.0
 10
5.533772786458333
 20
-7.726399739583333
 30
0.0
 10
4.973334418402778
 20
-8.28662109375
 30
0.0
 10
4.973334418402778
 20
-8.28662109375
 30
0.0
  0
POLYLINE
  5
79
330
1F
100
AcDbEntity
  8
Layer 1
370
     0
100
AcDb2dPolyline
 66
     1
 10
0.0
 20
0.0
 30
0.0
  0
VERTEX
  5
7A
330
79
100
AcDbEntity
  8
Layer 1
370
     0
100
AcDbVertex
100
AcDb2dVertex
 10
6.679470486111111
 20
-7.978461371527778
 30
0.0
  0
VERTEX
  5
7B
330
79
100
AcDbEntity
  8
Layer 1
370
     0
100
AcDbVertex
100
AcDb2dVertex
 10
6.971761067708333
 20
-7.978461371527778
 30
0.0
  0
VERTEX
  5
7C
330
79
100
AcDbEntity
  8
Layer 1
370
     0
100
AcDbVertex
100
AcDb2dVertex
 10
6.971761067708333
 20
-8.27072482638889
 30
0.0
  0
VERTEX
  5
7D
330
79
100
AcDbEntity
  8
Layer 1
370
     0
100
AcDbVertex
100
AcDb2dVertex
 10
6.679470486111111
 20
-8.27072482638889
 30
0.0
  0
VERTEX
  5
7E
330
79
100
AcDbEntity
  8
Layer 1
370
     0
100
AcDbVertex
100
AcDb2dVertex
 10
6.679470486111111
 20
-7.978461371527778
 30
0.0
  0
SEQEND
  5
7F
330
79
100
AcDbEntity
  8
Layer 1
370
     0
  0
SPLINE
  5
80
330
1F
100
AcDbEntity
  8
Layer 1
370
     0
100
AcDbSpline
210
0.0
220
0.0
230
1.0
 70
    11
 71
     3
 72
    41
 73
    37
 74
     0
 42
0.0000000001
 43
0.0000000001
 40
0.0
 40
0.0
 40
0.0
 40
0.0
 40
1.0
 40
1.0
 40
1.0
 40
2.0
 40
2.0
 40
2.0
 40
3.0
 40
3.0
 40
3.0
 40
4.0
 40
4.0
 40
4.0
 40
5.0
 40
5.0
 40
5.0
 40
6.0
 40
6.0
 40
6.0
 40
7.0
 40
7.0
 40
7.0
 40
8.0
 40
8.0
 40
8.0
 40
9.0
 40
9.0
 40
9.0
 40
10.0
 40
10.0
 40
10.0
 40
11.0
 40
11.0
 40
11.0
 40
12.0
 40
12.0
 40
12.0
 40
12.0
 10
7.561713324652778
 20
-6.703030056423611
 30
0.0
 10
7.561713324652778
 20
-6.703030056423611
 30
0.0
 10
7.561713324652778
 20
-8.86050075954861
 30
0.0
 10
7.561713324652778
 20
-8.86050075954861
 30
0.0
 10
7.561713324652778
 20
-8.86050075954861
 30
0.0
 10
5.403917100694444
 20
-8.86050075954861
 30
0.0
 10
5.403917100694444
 20
-8.86050075954861
 30
0.0
 10
5.345540364583333
 20
-8.712565104166666
 30
0.0
 10
5.262044270833333
 20
-8.577189127604166
 30
0.0
 10
5.157443576388888
 20
-8.458970811631945
 30
0.0
 10
5.157443576388888
 20
-8.458970811631945
 30
0.0
 10
5.637830946180555
 20
-7.978461371527778
 30
0.0
 10
5.637830946180555
 20
-7.978461371527778
 30
0.0
 10
5.637830946180555
 20
-7.978461371527778
 30
0.0
 10
6.427205403645833
 20
-7.978461371527778
 30
0.0
 10
6.427205403645833
 20
-7.978461371527778
 30
0.0
 10
6.427205403645833
 20
-7.978461371527778
 30
0.0
 10
6.427205403645833
 20
-8.52280002170139
 30
0.0
 10
6.427205403645833
 20
-8.52280002170139
 30
0.0
 10
6.427205403645833
 20
-8.52280002170139
 30
0.0
 10
7.2237548828125
 20
-8.52280002170139
 30
0.0
 10
7.2237548828125
 20
-8.52280002170139
 30
0.0
 10
7.2237548828125
 20
-8.52280002170139
 30
0.0
 10
7.2237548828125
 20
-7.726399739583333
 30
0.0
 10
7.2237548828125
 20
-7.726399739583333
 30
0.0
 10
7.2237548828125
 20
-7.726399739583333
 30
0.0
 10
6.679470486111111
 20
-7.726399739583333
 30
0.0
 10
6.679470486111111
 20
-7.726399739583333
 30
0.0
 10
6.679470486111111
 20
-7.726399739583333
 30
0.0
 10
6.679470486111111
 20
-6.937147352430555
 30
0.0
 10
6.679470486111111
 20
-6.937147352430555
 30
0.0
 10
6.679470486111111
 20
-6.937147352430555
 30
0.0
 10
7.160264756944444
 20
-6.456203884548611
 30
0.0
 10
7.160264756944444
 20
-6.456203884548611
 30
0.0
 10
7.278130425347221
 20
-6.561102973090278
 30
0.0
 10
7.413655598958333
 20
-6.644449869791666
 30
0.0
 10
7.561713324652778
 20
-6.703030056423611
 30
0.0
  0
SPLINE
  5
81
330
1F
100
AcDbEntity
  8
Layer 1
370
     0
100
AcDbSpline
210
0.0
220
0.0
230
1.0
 70
    11
 71
     3
 72
    20
 73
    16
 74
     0
 42
0.0000000001
 43
0.0000000001
 40
0.0
 40
0.0
 40
0.0
 40
0.0
 40
1.0
 40
1.0
 40
1.0
 40
2.0
 40
2.0
 40
2.0
 40
3.0
 40
3.0
 40
3.0
 40
4.0
 40
4.0
 40
4.0
 40
5.0
 40
5.0
 40
5.0
 40
5.0
 10
7.167032877604166
 20
-6.092990451388888
 30
0.0
 10
7.030978732638888
 20
-5.908203125
 30
0.0
 10
6.952853732638888
 20
-5.681328667534722
 30
0.0
 10
6.951890733506944
 20
-5.439541286892361
 30
0.0
 10
6.951890733506944
 20
-5.439541286892361
 30
0.0
 10
6.951890733506944
 20
-5.426778157552083
 30
0.0
 10
6.951890733506944
 20
-5.426778157552083
 30
0.0
 10
6.952853732638888
 20
-5.184794108072916
 30
0.0
 10
7.030978732638888
 20
-4.957919650607638
 30
0.0
 10
7.167032877604166
 20
-4.77313232421875
 30
0.0
 10
7.167032877604166
 20
-4.77313232421875
 30
0.0
 10
7.826822916666666
 20
-5.433261447482638
 30
0.0
 10
7.826822916666666
 20
-5.433261447482638
 30
0.0
 10
7.826822916666666
 20
-5.433261447482638
 30
0.0
 10
7.167032877604166
 20
-6.092990451388888
 30
0.0
 10
7.167032877604166
 20
-6.092990451388888
 30
0.0
  0
ENDSEC
  0
SECTION
  2
OBJECTS
  0
DICTIONARY
  5
C
330
0
100
AcDbDictionary
281
     1
  3
ACAD_GROUP
350
D
  3
ACAD_LAYOUT
350
1A
  3
ACAD_MLINESTYLE
350
17
  3
ACAD_PLOTSETTINGS
350
19
  3
ACAD_PLOTSTYLENAME
350
E
  3
ACAD_TABLESTYLE
350
82
  3
ACAD_VISUALSTYLE
350
2A
  0
DICTIONARY
  5
D
102
{ACAD_REACTORS
330
C
102
}
330
C
100
AcDbDictionary
281
     1
  0
DICTIONARY
  5
1A
102
{ACAD_REACTORS
330
C
102
}
330
C
100
AcDbDictionary
281
     1
  3
Layout1
350
1E
  3
Layout2
350
26
  3
Model
350
22
  0
DICTIONARY
  5
17
102
{ACAD_REACTORS
330
C
102
}
330
C
100
AcDbDictionary
281
     1
  3
Standard
350
18
  0
DICTIONARY
  5
19
102
{ACAD_REACTORS
330
C
102
}
330
C
100
AcDbDictionary
281
     1
  0
ACDBDICTIONARYWDFLT
  5
E
102
{ACAD_REACTORS
330
C
102
}
330
C
100
AcDbDictionary
281
     1
  3
Normal
350
F
100
AcDbDictionaryWithDefault
340
F
  0
DICTIONARY
  5
82
102
{ACAD_REACTORS
330
C
102
}
330
C
100
AcDbDictionary
281
     1
  0
DICTIONARY
  5
2A
102
{ACAD_REACTORS
330
C
102
}
330
C
100
AcDbDictionary
281
     1
  3
2dWireframe
350
2F
  3
3D Hidden
350
31
  3
3dWireframe
350
30
  3
Basic
350
32
  3
Brighten
350
36
  3
ColorChange
350
3A
  3
Conceptual
350
34
  3
Dim
350
35
  3
Facepattern
350
39
  3
Flat
350
2B
  3
FlatWithEdges
350
2C
  3
Gouraud
350
2D
  3
GouraudWithEdges
350
2E
  3
Linepattern
350
38
  3
Realistic
350
33
  3
Thicken
350
37
  0
LAYOUT
  5
1E
102
{ACAD_REACTORS
330
1A
102
}
330
1A
100
AcDbPlotSettings
  1

  2
none_device
  4

  6

 40
0.0
 41
0.0
 42
0.0
 43
0.0
 44
0.0
 45
0.0
 46
0.0
 47
0.0
 48
0.0
 49
0.0
140
0.0
141
0.0
142
1.0
143
1.0
 70
   688
 72
     0
 73
     0
 74
     5
  7

 75
    16
 76
     0
 77
     2
 78
   300
147
1.0
148
0.0
149
0.0
100
AcDbLayout
  1
Layout1
 70
     1
 71
     1
 10
0.0
 20
0.0
 11
12.0
 21
9.0
 12
0.0
 22
0.0
 32
0.0
 14
1.000000000000000E+20
 24
1.000000000000000E+20
 34
1.000000000000000E+20
 15
-1.000000000000000E+20
 25
-1.000000000000000E+20
 35
-1.000000000000000E+20
146
0.0
 13
0.0
 23
0.0
 33
0.0
 16
1.0
 26
0.0
 36
0.0
 17
0.0
 27
1.0
 37
0.0
 76
     0
330
1B
  0
LAYOUT
  5
26
102
{ACAD_REACTORS
330
1A
102
}
330
1A
100
AcDbPlotSettings
  1

  2
none_device
  4

  6

 40
0.0
 41
0.0
 42
0.0
 43
0.0
 44
0.0
 45
0.0
 46
0.0
 47
0.0
 48
0.0
 49
0.0
140
0.0
141
0.0
142
1.0
143
1.0
 70
   688
 72
     0
 73
     0
 74
     5
  7

 75
    16
 76
     0
 77
     2
 78
   300
147
1.0
148
0.0
149
0.0
100
AcDbLayout
  1
Layout2
 70
     1
 71
     2
 10
0.0
 20
0.0
 11
0.0
 21
0.0
 12
0.0
 22
0.0
 32
0.0
 14
0.0
 24
0.0
 34
0.0
 15
0.0
 25
0.0
 35
0.0
146
0.0
 13
0.0
 23
0.0
 33
0.0
 16
1.0
 26
0.0
 36
0.0
 17
0.0
 27
1.0
 37
0.0
 76
     0
330
23
  0
LAYOUT
  5
22
102
{ACAD_REACTORS
330
1A
102
}
330
1A
100
AcDbPlotSettings
  1

  2
none_device
  4

  6

 40
0.0
 41
0.0
 42
0.0
 43
0.0
 44
0.0
 45
0.0
 46
0.0
 47
0.0
 48
0.0
 49
0.0
140
0.0
141
0.0
142
1.0
143
1.0
 70
  1712
 72
     0
 73
     0
 74
     0
  7

 75
     0
 76
     0
 77
     2
 78
   300
147
1.0
148
0.0
149
0.0
100
AcDbLayout
  1
Model
 70
     1
 71
     0
 10
0.0
 20
0.0
 11
12.0
 21
9.0
 12
0.0
 22
0.0
 32
0.0
 14
1.000000000000000E+20
 24
1.000000000000000E+20
 34
1.000000000000000E+20
 15
-1.000000000000000E+20
 25
-1.000000000000000E+20
 35
-1.000000000000000E+20
146
0.0
 13
0.0
 23
0.0
 33
0.0
 16
1.0
 26
0.0
 36
0.0
 17
0.0
 27
1.0
 37
0.0
 76
     0
330
1F
331
29
  0
MLINESTYLE
  5
18
102
{ACAD_REACTORS
330
17
102
}
330
17
100
AcDbMlineStyle
  2
Standard
 70
     0
  3

 62
   256
 51
90.0
 52
90.0
 71
     2
 49
0.5
 62
   256
  6
BYLAYER
 49
-0.5
 62
   256
  6
BYLAYER
  0
ACDBPLACEHOLDER
  5
F
102
{ACAD_REACTORS
330
E
102
}
330
E
  0
VISUALSTYLE
  5
2F
102
{ACAD_REACTORS
330
2A
102
}
330
2A
100
AcDbVisualStyle
  2
2dWireframe
 70
     4
 71
     0
 72
     2
 73
     0
 90
        0
 40
-0.6
 41
-30.0
 62
     5
 63
     7
421
 16777215
 74
     1
 91
        4
 64
     7
 65
   257
 75
     1
175
     1
 42
1.0
 92
        0
 66
   257
 43
1.0
 76
     1
 77
     6
 78
     2
 67
     7
 79
     5
170
     0
171
     0
290
     0
174
     0
 93
        1
 44
0.0
173
     0
291
     0
 45
0.0
1001
ACAD
1000
AcDbSavedByObjectVersion
1070
     0
  0
VISUALSTYLE
  5
31
102
{ACAD_REACTORS
330
2A
102
}
330
2A
100
AcDbVisualStyle
  2
3D Hidden
 70
     6
 71
     1
 72
     2
 73
     2
 90
        0
 40
-0.6
 41
-30.0
 62
     5
 63
     7
421
 16777215
 74
     2
 91
        2
 64
     7
 65
   257
 75
     2
175
     1
 42
40.0
 92
        0
 66
   257
 43
1.0
 76
     1
 77
     6
 78
     2
 67
     7
 79
     3
170
     0
171
     0
290
     0
174
     0
 93
        1
 44
0.0
173
     0
291
     0
 45
0.0
1001
ACAD
1000
AcDbSavedByObjectVersion
1070
     0
  0
VISUALSTYLE
  5
30
102
{ACAD_REACTORS
330
2A
102
}
330
2A
100
AcDbVisualStyle
  2
3dWireframe
 70
     5
 71
     0
 72
     2
 73
     0
 90
        0
 40
-0.6
 41
-30.0
 62
     5
 63
     7
421
 16777215
 74
     1
 91
        4
 64
     7
 65
   257
 75
     1
175
     1
 42
1.0
 92
        0
 66
   257
 43
1.0
 76
     1
 77
     6
 78
     2
 67
     7
 79
     5
170
     0
171
     0
290
     0
174
     0
 93
        1
 44
0.0
173
     0
291
     0
 45
0.0
1001
ACAD
1000
AcDbSavedByObjectVersion
1070
     0
  0
VISUALSTYLE
  5
32
102
{ACAD_REACTORS
330
2A
102
}
330
2A
100
AcDbVisualStyle
  2
Basic
 70
     7
 71
     1
 72
     0
 73
     1
 90
        0
 40
-0.6
 41
-30.0
 62
     5
 63
     7
421
 16777215
 74
     0
 91
        4
 64
     7
 65
   257
 75
     1
175
     1
 42
1.0
 92
        8
 66
     7
 43
1.0
 76
     1
 77
     6
 78
     2
 67
     7
 79
     5
170
     0
171
     0
290
     0
174
     0
 93
        1
 44
0.0
173
     0
291
     1
 45
0.0
1001
ACAD
1000
AcDbSavedByObjectVersion
1070
     0
  0
VISUALSTYLE
  5
36
102
{ACAD_REACTORS
330
2A
102
}
330
2A
100
AcDbVisualStyle
  2
Brighten
 70
    12
 71
     2
 72
     2
 73
     0
 90
        0
 40
-0.6
 41
-30.0
 62
     5
 63
     7
421
 16777215
 74
     1
 91
        4
 64
     7
 65
   257
 75
     1
175
     1
 42
1.0
 92
        8
 66
     7
 43
1.0
 76
     1
 77
     6
 78
     2
 67
     7
 79
     5
170
     0
171
     0
290
     0
174
     0
 93
        1
 44
50.0
173
     0
291
     1
 45
0.0
1001
ACAD
1000
AcDbSavedByObjectVersion
1070
     0
  0
VISUALSTYLE
  5
3A
102
{ACAD_REACTORS
330
2A
102
}
330
2A
100
AcDbVisualStyle
  2
ColorChange
 70
    16
 71
     2
 72
     2
 73
     3
 90
        0
 40
-0.6
 41
-30.0
 62
     5
 63
     8
421
  8421504
 74
     1
 91
        4
 64
     7
 65
   257
 75
     1
175
     1
 42
1.0
 92
        8
 66
     8
424
  8421504
 43
1.0
 76
     1
 77
     6
 78
     2
 67
     7
 79
     5
170
     0
171
     0
290
     0
174
     0
 93
        1
 44
0.0
173
     0
291
     1
 45
0.0
1001
ACAD
1000
AcDbSavedByObjectVersion
1070
     0
  0
VISUALSTYLE
  5
34
102
{ACAD_REACTORS
330
2A
102
}
330
2A
100
AcDbVisualStyle
  2
Conceptual
 70
     9
 71
     3
 72
     2
 73
     0
 90
        0
 40
-0.6
 41
-30.0
 62
     5
 63
     7
421
 16777215
 74
     2
 91
        2
 64
     7
 65
   257
 75
     1
175
     1
 42
40.0
 92
        8
 66
     7
 43
1.0
 76
     1
 77
     6
 78
     2
 67
     7
 79
     3
170
     0
171
     0
290
     0
174
     0
 93
        1
 44
0.0
173
     0
291
     0
 45
0.0
1001
ACAD
1000
AcDbSavedByObjectVersion
1070
     0
  0
VISUALSTYLE
  5
35
102
{ACAD_REACTORS
330
2A
102
}
330
2A
100
AcDbVisualStyle
  2
Dim
 70
    11
 71
     2
 72
     2
 73
     0
 90
        0
 40
-0.6
 41
-30.0
 62
     5
 63
     7
421
 16777215
 74
     1
 91
        4
 64
     7
 65
   257
 75
     1
175
     1
 42
1.0
 92
        8
 66
     7
 43
1.0
 76
     1
 77
     6
 78
     2
 67
     7
 79
     5
170
     0
171
     0
290
     0
174
     0
 93
        1
 44
-50.0
173
     0
291
     1
 45
0.0
1001
ACAD
1000
AcDbSavedByObjectVersion
1070
     0
  0
VISUALSTYLE
  5
39
102
{ACAD_REACTORS
330
2A
102
}
330
2A
100
AcDbVisualStyle
  2
Facepattern
 70
    15
 71
     2
 72
     2
 73
     0
 90
        0
 40
-0.6
 41
-30.0
 62
     5
 63
     7
421
 16777215
 74
     1
 91
        4
 64
     7
 65
   257
 75
     1
175
     1
 42
1.0
 92
        8
 66
     7
 43
1.0
 76
     1
 77
     6
 78
     2
 67
     7
 79
     5
170
     0
171
     0
290
     0
174
     0
 93
        1
 44
0.0
173
     0
291
     1
 45
0.0
1001
ACAD
1000
AcDbSavedByObjectVersion
1070
     0
  0
VISUALSTYLE
  5
2B
102
{ACAD_REACTORS
330
2A
102
}
330
2A
100
AcDbVisualStyle
  2
Flat
 70
     0
 71
     2
 72
     1
 73
     1
 90
        2
 40
-0.6
 41
30.0
 62
     5
 63
     7
421
 16777215
 74
     0
 91
        4
 64
     7
 65
   257
 75
     1
175
     1
 42
1.0
 92
        8
 66
     7
 43
1.0
 76
     1
 77
     6
 78
     2
 67
     7
 79
     5
170
     0
171
     0
290
     0
174
     0
 93
       13
 44
0.0
173
     0
291
     1
 45
0.0
1001
ACAD
1000
AcDbSavedByObjectVersion
1070
     0
  0
VISUALSTYLE
  5
2C
102
{ACAD_REACTORS
330
2A
102
}
330
2A
100
AcDbVisualStyle
  2
FlatWithEdges
 70
     1
 71
     2
 72
     1
 73
     1
 90
        2
 40
-0.6
 41
30.0
 62
     5
 63
     7
421
 16777215
 74
     1
 91
        4
 64
     7
 65
   257
 75
     1
175
     1
 42
1.0
 92
        0
 66
   257
 43
1.0
 76
     1
 77
     6
 78
     2
 67
     7
 79
     5
170
     0
171
     0
290
     0
174
     0
 93
       13
 44
0.0
173
     0
291
     1
 45
0.0
1001
ACAD
1000
AcDbSavedByObjectVersion
1070
     0
  0
VISUALSTYLE
  5
2D
102
{ACAD_REACTORS
330
2A
102
}
330
2A
100
AcDbVisualStyle
  2
Gouraud
 70
     2
 71
     2
 72
     2
 73
     1
 90
        2
 40
-0.6
 41
30.0
 62
     5
 63
     7
421
 16777215
 74
     0
 91
        4
 64
     7
 65
   257
 75
     1
175
     1
 42
1.0
 92
        0
 66
     7
 43
1.0
 76
     1
 77
     6
 78
     2
 67
     7
 79
     5
170
     0
171
     0
290
     0
174
     0
 93
       13
 44
0.0
173
     0
291
     1
 45
0.0
1001
ACAD
1000
AcDbSavedByObjectVersion
1070
     0
  0
VISUALSTYLE
  5
2E
102
{ACAD_REACTORS
330
2A
102
}
330
2A
100
AcDbVisualStyle
  2
GouraudWithEdges
 70
     3
 71
     2
 72
     2
 73
     1
 90
        2
 40
-0.6
 41
30.0
 62
     5
 63
     7
421
 16777215
 74
     1
 91
        4
 64
     7
 65
   257
 75
     1
175
     1
 42
1.0
 92
        0
 66
   257
 43
1.0
 76
     1
 77
     6
 78
     2
 67
     7
 79
     5
170
     0
171
     0
290
     0
174
     0
 93
       13
 44
0.0
173
     0
291
     1
 45
0.0
1001
ACAD
1000
AcDbSavedByObjectVersion
1070
     0
  0
VISUALSTYLE
  5
38
102
{ACAD_REACTORS
330
2A
102
}
330
2A
100
AcDbVisualStyle
  2
Linepattern
 70
    14
 71
     2
 72
     2
 73
     0
 90
        0
 40
-0.6
 41
-30.0
 62
     5
 63
     7
421
 16777215
 74
     1
 91
        4
 64
     7
 65
   257
 75
     7
175
     7
 42
1.0
 92
        8
 66
     7
 43
1.0
 76
     1
 77
     6
 78
     2
 67
     7
 79
     5
170
     0
171
     0
290
     0
174
     0
 93
        1
 44
0.0
173
     0
291
     1
 45
0.0
1001
ACAD
1000
AcDbSavedByObjectVersion
1070
     0
  0
VISUALSTYLE
  5
33
102
{ACAD_REACTORS
330
2A
102
}
330
2A
100
AcDbVisualStyle
  2
Realistic
 70
     8
 71
     2
 72
     2
 73
     0
 90
        0
 40
-0.6
 41
-30.0
 62
     5
 63
     7
421
 16777215
 74
     1
 91
        0
 64
     7
 65
   257
 75
     1
175
     1
 42
1.0
 92
        8
 66
     8
424
  7895160
 43
1.0
 76
     1
 77
     6
 78
     2
 67
     7
 79
     5
170
     0
171
     0
290
     0
174
     0
 93
       13
 44
0.0
173
     0
291
     0
 45
0.0
1001
ACAD
1000
AcDbSavedByObjectVersion
1070
     0
  0
VISUALSTYLE
  5
37
102
{ACAD_REACTORS
330
2A
102
}
330
2A
100
AcDbVisualStyle
  2
Thicken
 70
    13
 71
     2
 72
     2
 73
     0
 90
        0
 40
-0.6
 41
-30.0
 62
     5
 63
     7
421
 16777215
 74
     1
 91
        4
 64
     7
 65
   257
 75
     1
175
     1
 42
1.0
 92
       12
 66
     7
 43
1.0
 76
     1
 77
     6
 78
     2
 67
     7
 79
     5
170
     0
171
     0
290
     0
174
     0
 93
        1
 44
0.0
173
     0
291
     1
 45
0.0
1001
ACAD
1000
AcDbSavedByObjectVersion
1070
     0
  0
ENDSEC
  0
EOF
