<?xml version="1.0" encoding="utf-8"?>
<!-- Generator: Adobe Illustrator 16.0.0, SVG Export Plug-In . SVG Version: 6.00 Build 0)  -->
<!DOCTYPE svg PUBLIC "-//W3C//DTD SVG 1.1//EN" "http://www.w3.org/Graphics/SVG/1.1/DTD/svg11.dtd">
<svg version="1.1" id="Layer_1" xmlns="http://www.w3.org/2000/svg" xmlns:xlink="http://www.w3.org/1999/xlink" x="0px" y="0px"
	 width="595.28px" height="841.89px" viewBox="0 0 595.28 841.89" enable-background="new 0 0 595.28 841.89" xml:space="preserve">
<linearGradient id="SVGID_1_" gradientUnits="userSpaceOnUse" x1="1.252" y1="383.915" x2="593.6592" y2="383.915">
	<stop  offset="0.0056" style="stop-color:#ECC562"/>
	<stop  offset="1" style="stop-color:#C3922E"/>
</linearGradient>
<path fill="url(#SVGID_1_)" d="M297.506,611.754c0.793-0.562,7.064-5.007,9.663-7.613c2.78-2.795,2.101-9.065,2.101-9.065
	s7.869,3.962,16.035,0.008c9.514-4.634,9.754-15.35,9.754-15.35s-3.847,3.493-9.06,1.4c-6.983-2.79-2.904-12.403-8.364-18.129
	c-4.434-4.649-13.015-1.39-13.015-1.39s2.324-7.894,5.809-12.32c1.349-1.703,2.772-3.814,5.535-6.164
	c1.721,1.647,3.788,3.385,6.304,5.265c5.345,3.937,12.551,6.485,12.551,6.485l4.41,2.101c0,0-1.613,2.549-0.703,6.719
	c1.308,5.824,12.774,6.983,20.46,13.262c7.637,6.265,7.422,13.015,7.422,13.015s5.089-1.628,6.743-4.649
	c1.597-2.886,1.415-6.941,2.565-6.504c5.56,2.085,10.904,3.014,16.505-1.861c3.731-3.283,3.484-9.771,3.484-9.771
	s8.587-3.985,10.308-11.309c4.229-0.786,8.787-1.87,12.005-3.316c7.662-3.493,6.959-7.679,6.959-7.679s-1.39-3.475-7.653-3.475
	c-3.574,0-9.771,0.688-9.771,0.688s6.264-6.032,8.365-19.288c2.101-13.235-6.966-24.63-6.966-24.63s2.557,9.97-6.271,24.373
	c-3.649,5.933-7.646,8.523-16.738,11.617c-2.88,1.027-6.975,0.951-6.975,0.951s0-5.212-2.771-7.429
	c-3.5-2.78-4.211-0.929-4.211-0.929s0.256,4.188-4.849,8.597c-6.023,5.204-16.06,0.226-21.636,3.716
	c-5.56,3.49-3.731,8.604-3.731,8.604s-9.986-2.384-18.393-9.458c1.929-1.009,4.18-2.043,6.793-3.102
	c13.95-5.577,13.95-16.033,13.95-16.033s24.158,3.26,39.48-10.682c15.355-13.934,12.105-33.931,12.105-33.931
	s3.59-0.744,8.396-3.061c0.207,5.188,4.478,9.332,9.73,9.332c5.387,0,9.755-4.368,9.755-9.746c0-3.996-2.4-7.404-5.809-8.927
	c5.196-3.922,12.816-8.745,22.529-10.591c14.645-2.805,23.704,5.569,23.704,5.569s7.669-4.649,13.693-17.657
	c6.204-13.337,6.51-25.548,6.51-25.548s2.723,0.661,7.066,0.049c8.694,9.481,7.495,18.864,5.733,28.52
	c-3.268,17.655-15.562,18.118-15.562,18.118s0.198,4.178,7.421,6.742c5.288,1.888,9.507,0,9.507,0s-0.695,3.261-3.475,8.143
	c-2.623,4.601-7.422,7.197-7.422,7.197s-2.085-4.882-6.039-6.279c-6.23-2.192-12.544-1.862-18.111-2.557
	c-5.585-0.695-7.72-8.795-11.17-8.356c-1.853,0.231-2.763,6.958-2.763,6.958s-8.406-2.655-11.881,0.463
	c-4.642,4.195-2.324,9.076-2.324,9.076s-7.936,3.294-6.728,11.137c0.911,6.057,9.052,7.214,9.052,7.214s-2.474,2.516-4.864,2.797
	c-4.188,0.447-6.198-1.845-6.991,0.225c-0.688,1.86,0.463,5.112,3.954,8.596c3.49,3.49,10.002,3.731,10.002,3.731
	s-2.101,7.652,3.475,11.838c5.594,4.188,10.458,1.39,10.458,1.39s2.888,6.488,10.922,3.724c7.429-2.564,5.104-12.789,5.104-12.789
	s3.724,5.583,7.91,4.416c2.746-0.752-1.778-5.492,1.158-11.384c2.102-4.187,6.288-7.645,7.678-9.746
	c3.946-6.057,3.476-12.559,3.476-12.559s5.344-3.269,9.059-8.364c5.098-6.983,6.264-11.857,6.264-11.857s6.511,9.531,17.458,6.279
	c9.348-2.771,6.734-13.477,10.226-19.053c3.45-5.569,8.588-8.837,8.588-8.837s-9.3-1.39-14.182,0.703
	c-4.873,2.102-6.974,5.113-9.523,9.764c-3.103,5.635-7.206-5.345-8.132-12.32c-0.597-4.45-1.63-14.172-1.63-14.172
	s5.278,9.97,18.591,10.234c11.616,0.231,12.088-5.345,22.545-11.634c10.45-6.262,12.543-2.779,12.543-2.779
	s-4.427-7.893-12.079-8.587c-7.661-0.712-14.422,3.706-14.422,3.706s-0.081-13.85-3.25-10.689
	c-2.325,2.334-4.906,9.531-14.166,9.994c-6.411,0.315-11.376-5.608-17.249-12.169c5.511-3.401,11.244-9.408,17.249-14.322
	c7.679-6.279,10.451-4.17,10.451-4.17s0,4.17,5.575,8.356c5.586,4.187,15.266,0.629,18.839,4.187
	c5.545,5.568-0.702,11.144-0.702,11.144s8.107,2.557,16.249-5.576c4.649-4.642,4.649-11.856,4.649-11.856s6.305-1.349,11.161-4.17
	c5.196-3.028,9.185-9.498,9.714-10.366h0.033c0,0-0.009-0.025-0.017-0.042c0.008-0.017,0.017-0.059,0.017-0.059h-0.033
	c-0.529-0.861-4.518-7.314-9.714-10.349c-4.856-2.831-11.161-4.188-11.161-4.188s0-7.197-4.649-11.847
	c-8.142-8.134-16.249-5.577-16.249-5.577s6.247,5.577,0.702,11.153c-3.573,3.565-13.253,0-18.839,4.185
	c-5.575,4.187-5.575,8.366-5.575,8.366s-2.772,2.093-10.451-4.179c-6.005-4.914-11.738-10.929-17.249-14.33
	c5.873-6.568,10.838-12.485,17.249-12.17c9.26,0.471,11.841,7.677,14.166,10.003c3.169,3.152,3.25-10.698,3.25-10.698
	s6.761,4.427,14.422,3.715c7.652-0.688,12.079-8.589,12.079-8.589s-2.093,3.475-12.543-2.795
	c-10.457-6.271-10.929-11.848-22.545-11.617c-13.312,0.266-18.591,10.235-18.591,10.235s1.033-9.739,1.63-14.19
	c0.926-6.966,5.029-17.937,8.132-12.319c2.55,4.674,4.65,7.686,9.523,9.771c4.882,2.093,14.182,0.695,14.182,0.695
	s-5.138-3.251-8.588-8.828c-3.491-5.576-0.878-16.266-10.226-19.054c-10.947-3.251-17.458,6.272-17.458,6.272
	s-1.166-4.865-6.264-11.848c-3.715-5.105-9.059-8.365-9.059-8.365s0.471-6.511-3.476-12.551c-1.39-2.102-5.576-5.56-7.678-9.746
	c-2.937-5.891,1.588-10.631-1.158-11.401c-4.187-1.159-7.91,4.418-7.91,4.418s2.324-10.21-5.104-12.774
	c-8.034-2.764-10.922,3.714-10.922,3.714s-4.864-2.788-10.458,1.398c-5.575,4.187-3.475,11.848-3.475,11.848
	s-6.512,0.231-10.002,3.723c-3.491,3.475-4.642,6.735-3.954,8.588c0.793,2.085,2.804-0.232,6.991,0.248
	c2.391,0.249,4.864,2.78,4.864,2.78s-8.141,1.15-9.052,7.206c-1.208,7.852,6.728,11.153,6.728,11.153s-2.317,4.873,2.324,9.059
	c3.475,3.127,11.881,0.464,11.881,0.464s0.91,6.734,2.763,6.966c3.45,0.438,5.585-7.662,11.17-8.356
	c5.567-0.704,11.881-0.364,18.111-2.564c3.954-1.391,6.039-6.272,6.039-6.272s4.799,2.582,7.422,7.215
	c2.779,4.865,3.475,8.116,3.475,8.116s-4.219-1.878-9.507,0c-7.223,2.565-7.421,6.743-7.421,6.743s12.295,0.464,15.562,18.128
	c1.762,9.655,2.961,19.038-5.733,28.52c-4.344-0.604-7.066,0.049-7.066,0.049s-0.306-12.228-6.51-25.557
	c-6.024-13.015-13.693-17.665-13.693-17.665s-9.06,8.373-23.704,5.593c-9.713-1.862-17.333-6.702-22.529-10.607
	c3.408-1.505,5.809-4.931,5.809-8.918c0-5.377-4.368-9.755-9.755-9.755c-5.253,0-9.523,4.146-9.73,9.341
	c-4.807-2.341-8.396-3.07-8.396-3.07s3.25-19.988-12.105-33.93c-15.322-13.941-39.48-10.681-39.48-10.681s0-10.466-13.95-16.034
	c-2.613-1.051-4.864-2.094-6.793-3.103c8.406-7.066,18.393-9.449,18.393-9.449s-1.828,5.113,3.731,8.596
	c5.576,3.492,15.612-1.464,21.636,3.715c5.104,4.426,4.849,8.604,4.849,8.604s0.711,1.854,4.211-0.926
	c2.771-2.234,2.771-7.438,2.771-7.438s4.542,0.281,7.339,0.786c8.688,2.623,12.344,7.843,14.983,11.517
	c9.573,13.411,7.662,24.631,7.662,24.631s9.066-11.376,6.966-24.631c-2.102-13.229-8.365-19.277-8.365-19.277
	s6.197,0.695,9.771,0.695c6.264,0,7.653-3.475,7.653-3.475s0.703-4.179-6.959-7.678c-3.218-1.456-7.776-2.549-12.005-3.318
	c-1.721-7.322-10.308-11.318-10.308-11.318s0.247-6.479-3.484-9.754c-5.601-4.898-10.945-3.956-16.505-1.862
	c-1.15,0.422-0.969-3.632-2.565-6.511c-1.654-3.011-6.743-4.649-6.743-4.649s0.215,6.743-7.422,13.023
	c-7.686,6.271-19.152,7.429-20.46,13.246c-0.91,4.17,0.703,6.734,0.703,6.734l-4.41,2.093c0,0-7.206,2.549-12.551,6.503
	c-2.516,1.853-4.583,3.591-6.304,5.245c-2.763-2.35-4.187-4.459-5.535-6.172c-3.484-4.426-5.809-12.319-5.809-12.319
	s8.581,3.251,13.015-1.398c5.46-5.709,1.381-15.331,8.364-18.119c5.213-2.085,9.06,1.398,9.06,1.398s-0.24-10.714-9.754-15.331
	c-8.166-3.972-16.035,0-16.035,0s0.68-6.289-2.101-9.068c-2.599-2.615-8.87-7.049-9.663-7.604v-0.058c0,0-0.042,0.017-0.059,0.017
	c-0.008,0-0.034-0.017-0.034-0.017v0.058c-0.803,0.555-7.065,4.989-9.654,7.604c-2.813,2.78-2.102,9.068-2.102,9.068
	s-7.909-3.972-16.042,0c-9.515,4.616-9.771,15.331-9.771,15.331s3.838-3.483,9.059-1.398c6.975,2.789,2.954,12.41,8.374,18.119
	c4.427,4.649,13.023,1.398,13.023,1.398s-2.3,7.893-5.8,12.319c-1.357,1.713-2.796,3.822-5.552,6.172
	c-1.73-1.654-3.781-3.392-6.313-5.245c-5.337-3.955-12.535-6.503-12.535-6.503l-4.418-2.093c0,0,1.622-2.564,0.695-6.734
	c-1.307-5.816-12.783-6.975-20.444-13.246c-7.677-6.28-7.438-13.023-7.438-13.023s-5.063,1.638-6.751,4.649
	c-1.581,2.879-1.39,6.934-2.557,6.511c-5.56-2.093-10.921-3.036-16.481,1.862c-3.756,3.275-3.491,9.754-3.491,9.754
	s-8.604,3.997-10.342,11.318c-4.187,0.77-8.745,1.862-11.988,3.318c-7.654,3.499-6.942,7.678-6.942,7.678s1.39,3.475,7.661,3.475
	c3.558,0,9.754-0.695,9.754-0.695s-6.304,6.048-8.364,19.277c-2.109,13.254,6.966,24.631,6.966,24.631s-2.681-10.185,7.703-24.862
	c5.345-7.562,6.619-7.786,13.692-10.814c3.839-1.506,8.58-1.257,8.58-1.257s0.009,5.204,2.796,7.438
	c3.492,2.78,4.162,0.926,4.162,0.926s-0.215-4.178,4.906-8.604c5.998-5.179,16.018-0.223,21.611-3.715
	c5.568-3.483,3.707-8.596,3.707-8.596s10.019,2.383,18.409,9.449c-1.911,1.009-4.17,2.052-6.784,3.103
	c-13.941,5.568-13.941,16.034-13.941,16.034s-24.184-3.26-39.507,10.681c-15.322,13.942-12.079,33.93-12.079,33.93
	s-3.591,0.729-8.406,3.07c-0.231-5.196-4.459-9.341-9.754-9.341c-5.37,0-9.722,4.377-9.722,9.755c0,3.988,2.399,7.413,5.8,8.918
	c-5.195,3.906-12.799,8.746-22.545,10.607c-14.628,2.78-23.704-5.593-23.704-5.593s-7.653,4.65-13.693,17.665
	c-6.196,13.329-6.495,25.557-6.495,25.557s-2.714-0.654-7.099-0.049c-8.67-9.482-7.471-18.864-5.709-28.52
	c3.268-17.664,15.58-18.128,15.58-18.128s-0.24-4.177-7.438-6.743c-5.303-1.878-9.514,0-9.514,0s0.695-3.251,3.466-8.116
	c2.639-4.633,7.446-7.215,7.446-7.215s2.085,4.881,6.04,6.272c6.229,2.2,12.542,1.861,18.127,2.564
	c5.585,0.695,7.703,8.795,11.153,8.356c1.878-0.232,2.78-6.966,2.78-6.966s8.397,2.664,11.864-0.464
	c4.633-4.187,2.325-9.059,2.325-9.059s7.935-3.301,6.727-11.153c-0.919-6.056-9.052-7.206-9.052-7.206s2.449-2.532,4.874-2.78
	c4.178-0.479,6.188,1.837,6.966-0.248c0.712-1.854-0.463-5.114-3.938-8.588c-3.5-3.491-10.003-3.723-10.003-3.723
	s2.102-7.662-3.483-11.848c-5.568-4.187-10.44-1.398-10.44-1.398s-2.913-6.478-10.921-3.714c-7.463,2.564-5.122,12.774-5.122,12.774
	s-3.723-5.577-7.893-4.418c-2.781,0.77,1.77,5.51-1.176,11.401c-2.092,4.187-6.288,7.645-7.669,9.746
	c-3.938,6.04-3.492,12.551-3.492,12.551s-5.32,3.26-9.052,8.365c-5.096,6.982-6.271,11.848-6.271,11.848S83.269,288,72.331,291.25
	c-9.357,2.789-6.718,13.478-10.209,19.054c-3.492,5.577-8.597,8.828-8.597,8.828s9.266,1.398,14.172-0.695
	c4.874-2.085,6.967-5.097,9.515-9.771c3.11-5.618,7.214,5.353,8.149,12.319c0.58,4.451,1.614,14.19,1.614,14.19
	s-5.27-9.97-18.574-10.235c-11.658-0.231-12.096,5.346-22.546,11.617c-10.441,6.271-12.542,2.795-12.542,2.795
	s4.393,7.901,12.063,8.589c7.678,0.712,14.412-3.715,14.412-3.715s0.107,13.85,3.269,10.698c2.325-2.326,4.873-9.533,14.156-10.003
	c6.428-0.315,11.393,5.602,17.283,12.17c-5.56,3.401-11.269,9.416-17.283,14.33c-7.653,6.272-10.45,4.179-10.45,4.179
	s0-4.179-5.56-8.366c-5.576-4.185-15.297-0.62-18.855-4.185c-5.543-5.577,0.728-11.153,0.728-11.153s-8.141-2.557-16.258,5.577
	c-4.666,4.649-4.666,11.847-4.666,11.847s-6.313,1.357-11.145,4.188c-5.196,3.035-9.175,9.488-9.722,10.349H1.252
	c0,0,0.009,0.042,0.009,0.059c0,0.017-0.009,0.042-0.009,0.042h0.033c0.546,0.869,4.526,7.338,9.722,10.366
	c4.832,2.821,11.145,4.17,11.145,4.17s0,7.214,4.666,11.856c8.117,8.133,16.258,5.576,16.258,5.576s-6.271-5.576-0.728-11.144
	c3.558-3.558,13.279,0,18.855-4.187c5.56-4.187,5.56-8.356,5.56-8.356s2.796-2.109,10.45,4.17
	c6.015,4.914,11.724,10.921,17.283,14.322c-5.891,6.561-10.855,12.485-17.283,12.169c-9.284-0.463-11.832-7.66-14.156-9.994
	c-3.161-3.161-3.269,10.689-3.269,10.689s-6.734-4.417-14.412-3.706c-7.67,0.695-12.063,8.587-12.063,8.587
	s2.101-3.482,12.542,2.779c10.45,6.289,10.888,11.865,22.546,11.634c13.304-0.265,18.574-10.234,18.574-10.234
	s-1.034,9.722-1.614,14.172c-0.935,6.976-5.039,17.955-8.149,12.32c-2.548-4.65-4.642-7.662-9.515-9.764
	c-4.906-2.093-14.172-0.703-14.172-0.703s5.105,3.268,8.597,8.837c3.491,5.576,0.852,16.282,10.209,19.053
	c10.938,3.252,17.441-6.279,17.441-6.279s1.175,4.874,6.271,11.857c3.732,5.096,9.052,8.364,9.052,8.364s-0.447,6.502,3.492,12.559
	c1.381,2.102,5.577,5.56,7.669,9.746c2.946,5.892-1.605,10.632,1.176,11.384c4.169,1.167,7.893-4.416,7.893-4.416
	s-2.341,10.225,5.122,12.789c8.008,2.765,10.921-3.724,10.921-3.724s4.872,2.798,10.44-1.39c5.585-4.186,3.483-11.838,3.483-11.838
	s6.503-0.241,10.003-3.731c3.475-3.483,4.65-6.735,3.938-8.596c-0.777-2.069-2.788,0.223-6.966-0.225
	c-2.425-0.281-4.874-2.797-4.874-2.797s8.133-1.157,9.052-7.214c1.208-7.843-6.727-11.137-6.727-11.137s2.309-4.881-2.325-9.076
	c-3.467-3.118-11.864-0.463-11.864-0.463s-0.902-6.727-2.78-6.958c-3.45-0.438-5.568,7.661-11.153,8.356
	c-5.584,0.694-11.897,0.364-18.127,2.557c-3.955,1.397-6.04,6.279-6.04,6.279s-4.807-2.597-7.446-7.197
	c-2.771-4.882-3.466-8.143-3.466-8.143s4.211,1.888,9.514,0c7.198-2.564,7.438-6.742,7.438-6.742s-12.312-0.463-15.58-18.118
	c-1.762-9.656-2.961-19.039,5.709-28.52c4.385,0.612,7.099-0.049,7.099-0.049s0.298,12.211,6.495,25.548
	c6.04,13.008,13.693,17.657,13.693,17.657s9.076-8.374,23.704-5.569c9.746,1.846,17.35,6.669,22.545,10.591
	c-3.4,1.522-5.8,4.931-5.8,8.927c0,5.378,4.352,9.746,9.722,9.746c5.295,0,9.523-4.145,9.754-9.332
	c4.815,2.316,8.406,3.061,8.406,3.061s-3.243,19.997,12.079,33.931c15.323,13.941,39.507,10.682,39.507,10.682
	s0,10.456,13.941,16.033c2.614,1.059,4.873,2.093,6.784,3.102c-8.39,7.074-18.409,9.458-18.409,9.458s1.862-5.114-3.707-8.604
	c-5.593-3.49-15.613,1.488-21.611-3.716c-5.121-4.408-4.906-8.597-4.906-8.597s-0.67-1.852-4.162,0.929
	c-2.788,2.217-2.796,7.429-2.796,7.429s-5.336-0.271-8.216-1.299c-6.495-2.406-11.152-5.85-15.115-11.617
	c-9.043-13.245-6.644-24.025-6.644-24.025s-9.076,11.395-6.966,24.63c2.06,13.256,8.364,19.288,8.364,19.288
	s-6.196-0.688-9.754-0.688c-6.271,0-7.661,3.475-7.661,3.475s-0.712,4.186,6.942,7.679c3.243,1.446,7.801,2.53,11.988,3.316
	c1.738,7.323,10.342,11.309,10.342,11.309s-0.265,6.488,3.491,9.771c5.56,4.875,10.921,3.946,16.481,1.861
	c1.167-0.438,0.976,3.618,2.557,6.504c1.688,3.021,6.751,4.649,6.751,4.649s-0.24-6.75,7.438-13.015
	c7.662-6.278,19.137-7.438,20.444-13.262c0.927-4.17-0.695-6.719-0.695-6.719l4.418-2.101c0,0,7.198-2.549,12.535-6.485
	c2.532-1.88,4.583-3.617,6.313-5.265c2.755,2.35,4.194,4.461,5.552,6.164c3.5,4.427,5.8,12.32,5.8,12.32s-8.596-3.26-13.023,1.39
	c-5.42,5.726-1.399,15.339-8.374,18.129c-5.221,2.093-9.059-1.4-9.059-1.4s0.256,10.716,9.771,15.35
	c8.133,3.954,16.042-0.008,16.042-0.008s-0.711,6.271,2.102,9.065c2.589,2.606,8.852,7.051,9.654,7.613v0.05
	c0,0,0.026-0.019,0.034-0.026c0.017,0.008,0.059,0.026,0.059,0.026V611.754z M382.633,557.528c0.321,5.013-8.225,8.514-8.225,8.514
	s-1.456-3.244-4.394-6.065c-2.167-2.052-5.112-3.937-5.112-3.937s3.797-1.125,5.675-2.168c2.54-1.4,4.029-2.45,5.428-4.203
	C376.005,549.669,382.335,552.895,382.633,557.528z M361.535,543.396c10.3-1.9,11.855-8.868,11.855-8.868s1.994,5.594-4.518,13.064
	c-3.682,4.203-17.134,7.007-17.134,7.007s15.504,5.876,17.646,17.573c1.489,8.125-1.207,10.972-1.207,10.972
	s0.132-5.147-2.631-8.887c-2.954-4.004-9.127-4.427-14.868-8.694c-5.75-4.261-7.463-6.686-6.031-13.064
	C346.402,544.804,356.528,544.324,361.535,543.396z M443.014,490.694c-1.217-1.837-3.037-4.965-0.704-8.107
	c2.077-2.748,8.1-2.698,8.1-2.698s0.53,2.771,1.754,4.443c1.928,2.605,4.17,4.708,4.17,4.708s-2.283,0.413-5.56,2.085
	c-3.573,1.828-4.799,3.227-4.799,3.227S444.229,492.531,443.014,490.694z M431.612,507.688c0,0,3.904,0.083,7.131-1.316
	c4.625-1.994,7.148-5.485,11.509-9.149c4.368-3.648,9.291-4.965,9.291-4.965s2.027,1.316,3.79,1.746
	c3.73,0.934,6.246,0.099,6.246,0.099s-2.176,1.466-3.482,4.004c-1.233,2.384-1.547,4.874-1.547,4.874s-4.006,5.841-15.861,8.183
	C438.653,513.165,431.612,507.688,431.612,507.688z M458.525,524.333c-4.973-0.785-5.229-9.843-5.229-9.843s3.491-0.714,6.883-2.973
	c2.483-1.646,4.981-4.094,4.981-4.094s0.165,2.53,0.778,4.615c0.438,1.54,2.01,4.618,2.01,4.618S463.118,525.055,458.525,524.333z
	 M484.215,488.792c1.39,6.883-3.466,13.038-7.197,16.514c-3.715,3.482-3.484,10.227-3.484,10.227s-4.848-4.834-2.787-14.529
	c1.157-5.452,6.271-10.573,6.271-10.573s-13.131,1.745-20.685-7.438c-5.27-6.387-2.54-11.145-2.54-11.145s0,2.085,3.699,4.882
	c3.73,2.78,8.008,2.663,15.115,3.591C479.707,481.254,483.182,483.578,484.215,488.792z M453.297,253.357
	c0,0,0.256-9.051,5.229-9.837c4.593-0.719,9.424,7.67,9.424,7.67s-1.571,3.078-2.01,4.609c-0.613,2.093-0.778,4.625-0.778,4.625
	s-2.498-2.441-4.981-4.096C456.788,254.052,453.297,253.357,453.297,253.357z M450.252,270.616c-4.36-3.665-6.884-7.148-11.509-9.15
	c-3.227-1.39-7.131-1.308-7.131-1.308s7.041-5.478,17.076-3.483c11.855,2.358,15.861,8.2,15.861,8.2s0.313,2.481,1.547,4.873
	c1.307,2.524,3.482,4.013,3.482,4.013s-2.516-0.86-6.246,0.083c-1.763,0.43-3.79,1.738-3.79,1.738S454.62,274.273,450.252,270.616z
	 M442.31,285.261c-2.333-3.137-0.513-6.271,0.704-8.117c1.216-1.812,2.961-3.648,2.961-3.648s1.226,1.39,4.799,3.227
	c3.276,1.688,5.56,2.085,5.56,2.085s-2.242,2.084-4.17,4.716c-1.224,1.671-1.754,4.435-1.754,4.435S444.387,288,442.31,285.261z
	 M472.607,287.52c-7.107,0.935-11.385,0.819-15.115,3.599c-3.699,2.789-3.699,4.882-3.699,4.882s-2.729-4.758,2.54-11.162
	c7.554-9.175,20.685-7.429,20.685-7.429s-5.114-5.105-6.271-10.574c-2.061-9.705,2.787-14.521,2.787-14.521
	s-0.23,6.735,3.484,10.226c3.731,3.492,8.587,9.631,7.197,16.498C483.182,284.268,479.707,286.593,472.607,287.52z M382.633,210.31
	c-0.298,4.641-6.628,7.852-6.628,7.852c-1.398-1.737-2.888-2.78-5.428-4.186c-1.878-1.059-5.675-2.168-5.675-2.168
	s2.945-1.886,5.112-3.946c2.938-2.805,4.394-6.065,4.394-6.065S382.954,205.296,382.633,210.31z M344.648,215.333
	c-1.432-6.362,0.281-8.787,6.031-13.056c5.741-4.252,11.914-4.683,14.868-8.687c2.763-3.731,2.631-8.886,2.631-8.886
	s2.696,2.838,1.207,10.979c-2.143,11.69-17.646,17.573-17.646,17.573s13.452,2.805,17.134,6.991
	c6.512,7.48,4.518,13.072,4.518,13.072s-1.556-6.975-11.855-8.886C356.528,223.507,346.402,223.043,344.648,215.333z
	 M292.698,198.893c-1.985-1.489-5.452-4.128-6.088-9.754c-0.688-5.609-4.485-8.762-4.485-8.762s2.209-1.035,5.122-0.497
	c3.228,0.579,4.377,2.979,4.377,2.979s-0.91-3.947,0-7.62c1.249-5.063,5.733-9.018,5.733-9.018c0.744,0.661,4.269,3.955,5.526,9.018
	c0.893,3.673,0,7.62,0,7.62s1.159-2.399,4.377-2.979c2.937-0.538,5.146,0.497,5.146,0.497s-3.806,3.152-4.469,8.762
	c-0.678,5.626-4.162,8.265-6.146,9.754C300.012,200.258,294.518,200.258,292.698,198.893z M212.196,210.31
	c-0.322-5.014,8.207-8.513,8.207-8.513s1.44,3.26,4.419,6.065c2.151,2.06,5.072,3.946,5.072,3.946s-3.756,1.109-5.66,2.168
	c-2.532,1.406-4.021,2.449-5.411,4.186C218.823,218.162,212.502,214.951,212.196,210.31z M233.277,224.433
	c-10.275,1.911-11.839,8.886-11.839,8.886s-2.019-5.592,4.526-13.072c3.673-4.186,17.118-6.991,17.118-6.991
	s-15.521-5.882-17.639-17.573c-1.489-8.141,1.199-10.979,1.199-10.979s-0.107,5.155,2.623,8.886c2.97,4.004,9.15,4.435,14.893,8.687
	c5.742,4.269,7.438,6.694,6.015,13.056C248.443,223.043,238.299,223.507,233.277,224.433z M151.807,277.145
	c1.208,1.845,3.062,4.98,0.712,8.117c-2.069,2.738-8.117,2.697-8.117,2.697s-0.504-2.763-1.737-4.435
	c-1.927-2.631-4.194-4.716-4.194-4.716s2.3-0.397,5.593-2.085c3.558-1.837,4.774-3.227,4.774-3.227S150.59,275.333,151.807,277.145z
	 M163.233,260.159c0,0-3.93-0.083-7.157,1.308c-4.6,2.002-7.132,5.485-11.517,9.15c-4.352,3.657-9.308,4.965-9.308,4.965
	s-2.011-1.308-3.74-1.738c-3.74-0.943-6.28-0.083-6.28-0.083s2.168-1.489,3.475-4.013c1.241-2.391,1.589-4.873,1.589-4.873
	s4.004-5.841,15.852-8.2C156.159,254.681,163.233,260.159,163.233,260.159z M136.286,243.52c4.98,0.787,5.245,9.837,5.245,9.837
	s-3.492,0.695-6.892,2.971c-2.499,1.654-4.964,4.096-4.964,4.096s-0.182-2.532-0.795-4.625c-0.438-1.531-2.002-4.609-2.002-4.609
	S131.719,242.801,136.286,243.52z M110.588,279.039c-1.349-6.867,3.483-13.006,7.206-16.498c3.69-3.491,3.475-10.226,3.475-10.226
	s4.873,4.815,2.805,14.521c-1.15,5.469-6.28,10.574-6.28,10.574s13.147-1.746,20.676,7.429c5.27,6.404,2.556,11.162,2.556,11.162
	s0-2.093-3.698-4.882c-3.715-2.78-8.042-2.664-15.108-3.599C115.113,286.593,111.647,284.268,110.588,279.039z M141.531,514.49
	c0,0-0.265,9.058-5.245,9.843c-4.567,0.722-9.408-7.676-9.408-7.676s1.564-3.078,2.002-4.618c0.613-2.085,0.795-4.615,0.795-4.615
	s2.465,2.447,4.964,4.094C138.04,513.776,141.531,514.49,141.531,514.49z M144.56,497.223c4.385,3.664,6.917,7.155,11.517,9.149
	c3.227,1.399,7.157,1.316,7.157,1.316s-7.074,5.477-17.085,3.475c-11.848-2.342-15.852-8.183-15.852-8.183s-0.348-2.49-1.589-4.874
	c-1.307-2.538-3.475-4.004-3.475-4.004s2.54,0.835,6.28-0.099c1.729-0.43,3.74-1.746,3.74-1.746S140.208,493.574,144.56,497.223z
	 M152.519,482.587c2.35,3.143,0.497,6.271-0.712,8.107c-1.216,1.837-2.97,3.657-2.97,3.657s-1.216-1.398-4.774-3.227
	c-3.293-1.672-5.593-2.085-5.593-2.085s2.267-2.103,4.194-4.708c1.233-1.672,1.737-4.443,1.737-4.443
	S150.45,479.839,152.519,482.587z M122.221,480.319c7.065-0.928,11.393-0.811,15.108-3.591c3.698-2.797,3.698-4.882,3.698-4.882
	s2.714,4.758-2.556,11.145c-7.529,9.184-20.676,7.438-20.676,7.438s5.13,5.121,6.28,10.573c2.068,9.695-2.805,14.529-2.805,14.529
	s0.215-6.744-3.475-10.227c-3.723-3.476-8.555-9.631-7.206-16.514C111.647,483.578,115.113,481.254,122.221,480.319z
	 M212.196,557.528c0.307-4.634,6.627-7.859,6.627-7.859c1.39,1.753,2.879,2.803,5.411,4.203c1.903,1.043,5.66,2.168,5.66,2.168
	s-2.921,1.885-5.072,3.937c-2.979,2.821-4.419,6.065-4.419,6.065S211.874,562.541,212.196,557.528z M250.172,552.498
	c1.423,6.379-0.273,8.804-6.015,13.064c-5.742,4.268-11.923,4.69-14.893,8.694c-2.73,3.739-2.623,8.887-2.623,8.887
	s-2.688-2.847-1.199-10.972c2.118-11.697,17.639-17.573,17.639-17.573s-13.445-2.804-17.118-7.007
	c-6.544-7.471-4.526-13.064-4.526-13.064s1.564,6.968,11.839,8.868C238.299,544.324,248.443,544.804,250.172,552.498z
	 M354.56,464.715c8.382,8.373,14.43,19.526,9.102,31.382c-7.479,16.497-30,14.636-30,14.636s0.472,6.039-3.964,12.551
	c-2.729,4.021-7.09,6.761-11.541,9.54c-6.114-7.761-8.314-16.746-9.143-21.94c2.076,1.341,6.76,3.457,12.56,0.545
	c7.991-3.988,7.479-15.678,5.354-18.482c2.432,0.255,5.087,0.338,8.124,0.132c9.06-0.621,19.973-9.763,19.973-9.763
	s-7.943,0.611-14.636-3.252c-5.072-2.93-8.075-6.552-10.931-11.193c3.931-1.654,11.774-6.487,9.068-18.096
	c-1.315-5.749-5.03-8.853-8.729-10.549c2.516-6.9,0.596-15.471,0.596-15.471s-5.468,2.979-10.954,5.436
	c-0.704-2.425-1.903-5.039-3.905-7.29c-4.973-5.608-13.924-6.974-13.924-6.974s4.633-5.335,11.367-10.449
	c0.678-0.529,1.44-1.109,2.3-1.688c2.839,3.193,6.09,6.52,10.028,10.062c6.229,5.592,20.899,6.975,20.899,6.975
	s-2.085,3.466-0.704,8.348c1.414,4.881,10.466,7.661,10.466,7.661s-7.669,2.102-9.762,8.373
	C344.119,451.485,346.204,456.351,354.56,464.715z M287.32,456.21c0.985-0.381,5.188-0.712,6.139-0.812
	c-3.367-1.074-12.436-3.59-16.819-9.879c-4.245-6.022-4.667-14.636-4.667-14.636s3.119,1.73,7.834,5.288
	c5.569,4.17,14.711,8.306,17.243,15.04c0.116,0.273,0.174,0.547,0.231,0.846c0.091-0.299,0.158-0.572,0.249-0.846
	c2.54-6.734,11.044-10.508,16.613-14.692c4.732-3.543,8.464-5.636,8.464-5.636s-0.406,8.613-4.634,14.636
	c-4.418,6.289-13.369,8.688-16.753,9.764c0.983,0.099,5.07,0.546,6.063,0.927c4.898,1.854,10.293,5.808,12.088,12.552
	c2.558,9.762,7.67,15.321,7.67,15.321s-7.38-4.476-14.859-10.085c-9.325-6.983-14.769-14.47-14.769-14.47s-0.042-0.241-0.132-0.646
	c-0.057,0.404-0.091,0.646-0.091,0.646s-5.477,7.486-14.777,14.47c-7.471,5.609-14.867,10.085-14.867,10.085
	s5.122-5.56,7.686-15.321C276.987,462.018,282.414,458.063,287.32,456.21z M273.569,460.297c0.125-1.556,0.24-3.26,0.24-4.633
	c0-2.499-1.083-5.312-1.688-6.735c6.834,4.385,14.454,5.576,14.454,5.576S279.51,456.309,273.569,460.297z M297.447,431.273
	c0.24,0.058,4.591,1.142,8.431,5.188c-4.22,2.738-8.24,5.792-8.68,6.114c-0.388-0.322-3.97-3.376-8.166-6.114
	C292.855,432.415,297.208,431.331,297.447,431.273z M322.765,448.929c-0.563,1.424-1.638,4.236-1.638,6.735
	c0,1.373,0.099,3.077,0.214,4.633c-5.965-3.988-13.031-5.792-13.031-5.792S315.93,453.313,322.765,448.929z M289.827,479.822
	c4.319-3.871,6.999-7.901,7.371-8.472c0.439,0.57,3.575,4.601,7.877,8.472c2.647,2.4,5.485,6.852,11.194,9.962
	c-2.49,1.489-8.621,5.42-11.89,9.796c-3.475,4.634-6.113,7-6.933,7.67c-0.803-0.67-3.458-3.036-6.933-7.67
	c-3.269-4.376-9.392-8.307-11.873-9.796C284.341,486.674,287.18,482.223,289.827,479.822z M193.084,404.277
	c-6.271-4.402-8.687-13.37-9.755-16.722c-0.107,0.944-0.546,5.047-0.935,6.041c-1.87,4.882-5.816,10.309-12.542,12.079
	c-9.771,2.557-15.332,7.662-15.332,7.662s4.468-7.363,10.085-14.859c6.983-9.292,14.454-14.76,14.454-14.76s0.282-0.051,0.662-0.117
	c-0.38-0.074-0.662-0.116-0.662-0.116s-7.471-5.46-14.454-14.751c-5.618-7.489-10.085-14.868-10.085-14.868
	s5.561,5.105,15.332,7.662c6.726,1.77,10.673,7.207,12.542,12.087c0.389,1.001,0.719,5.197,0.819,6.164
	c1.067-3.358,3.599-12.46,9.871-16.853c6.023-4.211,14.636-4.65,14.636-4.65s-1.746,3.111-5.295,7.843
	c-4.17,5.577-8.298,14.702-15.041,17.251c-0.249,0.099-0.53,0.157-0.82,0.231c0.29,0.066,0.571,0.141,0.82,0.232
	c6.743,2.564,10.523,11.037,14.686,16.613c3.549,4.732,5.65,8.481,5.65,8.481S199.107,408.496,193.084,404.277z M192.223,409.191
	c-1.696,3.044-2.763,5.354-2.763,5.354s-11.31-0.017-15.57-4.617c5.949-2.846,9.705-7.216,10.937-8.753
	c0.249,0.778,1.432,2.499,5.295,6.387C190.742,408.156,191.454,408.687,192.223,409.191z M160.8,397.575
	c-1.241-0.621-2.582-1.449-4.112-2.557c-7.479-5.435-10.284-10.838-10.441-11.103c0.157-0.266,2.962-5.66,10.441-11.104
	c1.53-1.116,2.871-1.936,4.112-2.564c6.23,6.95,12.303,13.395,12.568,13.668C173.103,384.18,167.031,390.633,160.8,397.575z
	 M173.89,357.895c4.26-4.583,15.57-4.608,15.57-4.608s1.067,2.308,2.763,5.337c-0.769,0.514-1.481,1.05-2.101,1.638
	c-3.864,3.888-5.047,5.618-5.295,6.396C183.594,365.101,179.838,360.75,173.89,357.895z M190.941,383.916
	c0.422-0.266,6.826-4.22,12.179-10.285c3.657,4.89,5.287,10.019,5.361,10.285c-0.075,0.248-1.705,5.394-5.361,10.283
	C197.767,388.118,191.363,384.171,190.941,383.916z M275.877,376.535c0.861-0.455,1.737-0.959,2.606-1.48
	c3.749,4.442,6.388,8.687,6.445,8.794c-0.057,0.116-2.697,4.476-6.445,8.918c-0.869-0.512-1.745-1.025-2.606-1.472
	c-6.726-3.467-14.47-6.951-15.446-7.38C261.407,383.485,269.152,380.001,275.877,376.535z M401.735,362.925
	c6.296,4.393,8.804,13.495,9.896,16.853c0.075-0.967,0.431-5.163,0.812-6.164c1.86-4.88,5.775-10.317,12.534-12.087
	c9.771-2.557,15.331-7.662,15.331-7.662s-4.483,7.379-10.111,14.868c-6.965,9.291-14.445,14.751-14.445,14.751
	s-0.257,0.042-0.653,0.116c0.396,0.066,0.653,0.117,0.653,0.117s7.48,5.469,14.445,14.76c5.628,7.496,10.111,14.859,10.111,14.859
	s-5.56-5.105-15.331-7.662c-6.759-1.77-10.674-7.197-12.534-12.079c-0.381-0.993-0.854-5.097-0.935-6.041
	c-1.076,3.352-3.477,12.32-9.772,16.722c-6.015,4.219-14.627,4.65-14.627,4.65s2.076-3.749,5.609-8.481
	c4.203-5.577,7.984-14.049,14.694-16.613c0.298-0.091,0.554-0.166,0.844-0.232c-0.29-0.074-0.546-0.132-0.844-0.231
	c-6.71-2.549-10.839-11.674-15.042-17.251c-3.524-4.732-5.262-7.843-5.262-7.843S395.721,358.714,401.735,362.925z M405.442,353.286
	c0,0,11.319,0.025,15.595,4.608c-5.98,2.855-9.754,7.206-10.945,8.762c-0.248-0.778-1.456-2.508-5.328-6.396
	c-0.604-0.587-1.331-1.124-2.067-1.638C404.367,355.594,405.442,353.286,405.442,353.286z M434.152,370.247
	c1.175,0.629,2.548,1.448,4.07,2.564c7.471,5.444,10.275,10.838,10.441,11.104c-0.166,0.265-2.971,5.667-10.441,11.103
	c-1.522,1.108-2.896,1.936-4.07,2.557c-6.288-6.942-12.361-13.395-12.626-13.66C421.791,383.642,427.864,377.197,434.152,370.247z
	 M405.442,414.544c0,0-1.075-2.309-2.746-5.354c0.736-0.504,1.464-1.035,2.067-1.63c3.872-3.888,5.08-5.609,5.328-6.387
	c1.191,1.538,4.965,5.907,10.945,8.753C416.762,414.528,405.442,414.544,405.442,414.544z M403.986,383.916
	c-0.431,0.255-6.85,4.202-12.179,10.283c-3.674-4.89-5.304-10.036-5.394-10.283c0.09-0.266,1.72-5.395,5.394-10.285
	C397.137,379.695,403.556,383.649,403.986,383.916z M319.016,391.295c-0.859,0.446-1.745,0.959-2.613,1.472
	c-3.739-4.442-6.354-8.802-6.445-8.918c0.091-0.107,2.706-4.353,6.445-8.794c0.868,0.521,1.754,1.025,2.613,1.48
	c6.744,3.466,14.479,6.95,15.473,7.38C333.495,384.345,325.76,387.829,319.016,391.295z M303.173,378.141
	c-1.432-1.505-3.483-2.433-5.759-2.433c-2.242,0-4.293,0.91-5.749,2.374c-2.177-2.259-4.543-4.898-6.479-7.372
	c-0.025-0.049-0.107-0.099-0.14-0.165c6.734-5.138,12.162-10.698,12.402-10.938c0.24,0.24,5.675,5.8,12.419,10.938
	c-0.05,0.066-0.075,0.116-0.149,0.165C307.806,373.201,305.373,375.865,303.173,378.141z M291.714,389.64
	c1.48,1.441,3.492,2.334,5.7,2.334c2.234,0,4.278-0.918,5.726-2.383c2.175,2.266,4.583,4.955,6.577,7.52
	c0.074,0.058,0.1,0.109,0.149,0.166c-6.744,5.146-12.179,10.706-12.419,10.946c-0.24-0.24-5.667-5.8-12.402-10.946
	c0.033-0.057,0.115-0.108,0.14-0.166C287.18,394.555,289.58,391.908,291.714,389.64z M473.774,406.171c0,0,2.093,5.577-0.694,18.823
	c-2.789,13.229-11.163,20.907-11.163,20.907s-10.456-12.543-25.093-13.941c-14.636-1.398-26.724,16.06-50.883,12.552
	c-22.314-3.252-32.061-35.561-32.061-35.561s-9.762,3.029-19.55-0.455c-3.665-1.324-8.025-5.048-12.055-9.191
	c5.187-2.872,12.055-5.801,21.131-7.769c9.58-2.094,23-1.407,23-1.407s0.464,4.459,3.98,8.844c3.343,4.204,7.082,6.09,11.798,8.141
	c-3.955,4.593-7.405,7.431-7.405,7.431s9.258,0.265,17.888-1.573c1.456,2.136,0.231,4.055,0.231,5.743
	c0,5.584,2.316,8.132,5.361,9.539c6.312,2.905,12.088-3.963,12.088-3.963s2.094,4.419,7.869,4.187
	c5.641-0.224,9.307-4.649,10.002-8.132c0.339-1.68,2.027-4.211,3.689-6.396c6.917,4.096,12.585,12.436,12.585,12.436
	s2.961-6.644-1.307-16.2c0.991-0.009,1.886-0.107,2.464-0.298c3.037-1.018,6.107-1.596,8.812-5.105
	c2.573-3.252,1.184-9.763,1.184-9.763s3.027-0.844,5.814-1.968c1.59,0.811,11.303,5.874,20.842,13.055
	C477.448,406.519,473.774,406.171,473.774,406.171z M549.354,373.077c5.626-0.687,8.771-4.485,8.771-4.485s1.025,2.201,0.512,5.129
	c-0.587,3.227-2.995,4.402-2.995,4.402s3.972-0.927,7.612,0c5.08,1.241,9.035,5.692,9.035,5.692
	c-0.661,0.771-3.955,4.287-9.035,5.544c-3.641,0.893-7.612,0-7.612,0s2.408,1.158,2.995,4.385c0.514,2.927-0.512,5.121-0.512,5.121
	s-3.145-3.799-8.771-4.46c-5.601-0.661-8.258-4.146-9.746-6.123c-1.365-1.804-1.365-7.297,0-9.093
	C541.096,377.197,543.753,373.722,549.354,373.077z M500.722,368.625c9.911,9.68,18.771,14.777,19.657,15.291
	c-0.886,0.512-9.746,5.609-19.657,15.281c-2.011,1.978-4.518,3.392-7.182,4.425c-0.083-0.082-0.174-0.165-0.265-0.248
	c-11.252-10.202-23.58-17.969-25.996-19.459c2.416-1.505,14.744-9.267,25.996-19.476c0.091-0.066,0.182-0.158,0.265-0.249
	C496.204,365.233,498.711,366.657,500.722,368.625z M473.08,342.828c2.787,13.255,0.694,18.832,0.694,18.832
	s3.674-0.332,8.529,0.066c-9.539,7.173-19.252,12.253-20.842,13.056c-2.787-1.15-5.814-1.97-5.814-1.97s1.39-6.51-1.184-9.762
	c-2.705-3.509-5.775-4.104-8.812-5.106c-0.578-0.207-1.473-0.29-2.464-0.306c4.268-9.547,1.307-16.2,1.307-16.2
	s-5.668,8.356-12.585,12.445c-1.662-2.202-3.351-4.717-3.689-6.396c-0.695-3.492-4.361-7.911-10.002-8.134
	c-5.775-0.248-7.869,4.179-7.869,4.179s-5.775-6.876-12.088-3.947c-3.045,1.397-5.361,3.947-5.361,9.531
	c0,1.671,1.225,3.607-0.231,5.758c-8.63-1.853-17.888-1.588-17.888-1.588s3.45,2.846,7.405,7.43
	c-4.716,2.052-8.455,3.939-11.798,8.141c-3.517,4.385-3.98,8.836-3.98,8.836s-13.42,0.679-23-1.398
	c-9.076-1.977-15.944-4.906-21.131-7.786c4.029-4.136,8.39-7.868,12.055-9.184c9.788-3.467,19.55-0.463,19.55-0.463
	s9.746-32.3,32.061-35.543c24.159-3.509,36.247,13.933,50.883,12.543c14.637-1.391,25.093-13.942,25.093-13.942
	S470.291,329.591,473.08,342.828z M329.697,244.546c4.436,6.503,3.964,12.542,3.964,12.542s22.521-1.845,30,14.636
	c5.328,11.848-0.72,23.018-9.102,31.374c-8.355,8.373-10.44,13.254-8.355,19.509c2.093,6.289,9.762,8.381,9.762,8.381
	s-9.052,2.772-10.466,7.669c-1.381,4.874,0.704,8.366,0.704,8.366s-14.67,1.364-20.899,6.958
	c-3.938,3.524-7.189,6.867-10.028,10.069c-0.859-0.604-1.622-1.175-2.3-1.696c-6.734-5.114-11.367-10.458-11.367-10.458
	s8.951-1.373,13.924-6.975c2.002-2.242,3.201-4.857,3.905-7.281c5.486,2.458,10.954,5.419,10.954,5.419s1.92-8.555-0.596-15.472
	c3.698-1.679,7.413-4.798,8.729-10.54c2.706-11.608-5.138-16.44-9.068-18.086c2.855-4.65,5.858-8.273,10.931-11.202
	c6.692-3.856,14.636-3.252,14.636-3.252s-10.913-9.142-19.973-9.754c-3.037-0.215-5.692-0.133-8.124,0.132
	c2.126-2.797,2.638-14.496-5.354-18.5c-5.8-2.904-10.483-0.778-12.56,0.546c0.828-5.188,3.028-14.165,9.143-21.934
	C322.607,237.787,326.968,240.525,329.697,244.546z M293.459,311.811c-0.952-0.107-5.154-0.438-6.139-0.819
	c-4.906-1.854-10.333-5.808-12.087-12.559c-2.564-9.747-7.686-15.323-7.686-15.323s7.396,4.484,14.867,10.103
	c9.3,6.974,14.777,14.454,14.777,14.454s0.034,0.248,0.091,0.645c0.091-0.397,0.132-0.645,0.132-0.645s5.444-7.48,14.769-14.454
	c7.479-5.618,14.859-10.103,14.859-10.103s-5.112,5.577-7.67,15.323c-1.795,6.751-7.189,10.706-12.088,12.559
	c-0.993,0.381-5.08,0.827-6.063,0.926c3.384,1.076,12.335,3.475,16.753,9.763c4.228,6.007,4.634,14.636,4.634,14.636
	s-3.731-2.092-8.464-5.633c-5.569-4.187-14.073-7.96-16.613-14.694c-0.091-0.265-0.158-0.562-0.249-0.835
	c-0.057,0.273-0.115,0.571-0.231,0.835c-2.532,6.734-11.674,10.855-17.243,15.042c-4.715,3.541-7.834,5.286-7.834,5.286
	s0.421-8.628,4.667-14.636C281.023,315.393,290.092,312.878,293.459,311.811z M272.121,317.991c0.604-1.439,1.688-4.252,1.688-6.75
	c0-1.374-0.115-3.078-0.24-4.633c5.941,3.979,13.006,5.792,13.006,5.792S278.956,313.589,272.121,317.991z M278.642,278.046
	c2.481-1.489,8.604-5.428,11.873-9.796c3.475-4.633,6.13-6.999,6.933-7.678c0.819,0.679,3.458,3.045,6.933,7.678
	c3.269,4.369,9.399,8.307,11.89,9.796c-5.709,3.111-8.547,7.562-11.194,9.953c-4.253,3.831-7.405,7.801-7.909,8.43
	c-0.504-0.744-3.152-4.674-7.339-8.43C287.18,285.608,284.341,281.157,278.642,278.046z M321.341,306.607
	c-0.115,1.555-0.214,3.259-0.214,4.633c0,2.499,1.074,5.312,1.638,6.75c-6.835-4.401-14.455-5.592-14.455-5.592
	S315.376,310.586,321.341,306.607z M289.032,331.361c4.17-2.731,7.762-5.758,8.166-6.115c0.613,0.464,4.585,3.45,8.68,6.115
	c-3.84,4.045-8.191,5.129-8.431,5.196C297.208,336.49,292.855,335.406,289.032,331.361z M283.854,230.191
	c1.191-0.943,2.366-1.952,3.399-3.078c6.827-7.281,9.812-17.333,10.194-18.665c0.389,1.332,3.399,11.384,10.185,18.665
	c1.051,1.125,2.227,2.135,3.442,3.078c-2.003,2.748-3.335,5.295-4.601,7.852c-1.44,2.854-2.747,7.363-3.633,10.904
	c-2.043-1.737-5.212-4.542-5.394-4.427c-0.166-0.115-3.343,2.689-5.369,4.427c-0.895-3.541-2.209-8.05-3.641-10.904
	C287.18,235.487,285.848,232.939,283.854,230.191z M240.318,303.099c-8.339-8.356-14.388-19.526-9.026-31.374
	c7.429-16.48,29.958-14.636,29.958-14.636s-0.463-6.04,3.938-12.542c2.747-4.021,7.115-6.76,11.55-9.548
	c6.139,7.769,8.34,16.746,9.159,21.934c-2.061-1.324-6.759-3.45-12.576-0.546c-7.984,4.004-7.438,15.703-5.361,18.5
	c-2.408-0.265-5.055-0.347-8.117-0.132c-9.043,0.612-19.964,9.754-19.964,9.754s7.967-0.604,14.619,3.252
	c5.08,2.929,8.083,6.552,10.93,11.202c-3.913,1.646-11.757,6.478-9.051,18.086c1.332,5.741,5.03,8.861,8.737,10.54
	c-2.532,6.917-0.587,15.472-0.587,15.472s5.453-2.961,10.938-5.419c0.719,2.424,1.92,5.04,3.914,7.281
	c4.963,5.602,13.957,6.975,13.957,6.975s-4.665,5.344-11.392,10.458c-0.688,0.521-1.473,1.092-2.317,1.696
	c-2.83-3.203-6.064-6.545-10.011-10.069c-6.238-5.594-20.907-6.958-20.907-6.958s2.093-3.492,0.703-8.366
	c-1.39-4.897-10.466-7.669-10.466-7.669s7.678-2.092,9.763-8.381C250.801,316.353,248.708,311.472,240.318,303.099z M121.153,361.66
	c0,0-2.102-5.577,0.678-18.832c2.789-13.237,11.153-20.907,11.153-20.907s10.449,12.551,25.102,13.942
	c14.636,1.39,26.74-16.052,50.882-12.543c22.323,3.243,32.061,35.543,32.061,35.543s9.771-3.004,19.525,0.463
	c3.682,1.316,8.066,5.048,12.062,9.184c-5.212,2.88-12.062,5.809-21.13,7.786c-9.556,2.077-22.992,1.398-22.992,1.398
	s-0.455-4.451-3.955-8.836c-3.384-4.202-7.091-6.089-11.807-8.141c3.93-4.583,7.389-7.43,7.389-7.43s-9.25-0.264-17.872,1.588
	c-1.481-2.151-0.265-4.087-0.265-5.758c0-5.584-2.283-8.134-5.337-9.531c-6.329-2.929-12.071,3.947-12.071,3.947
	s-2.093-4.427-7.917-4.179c-5.593,0.223-9.292,4.642-9.97,8.134c-0.339,1.679-2.027,4.194-3.665,6.396
	c-6.942-4.088-12.618-12.445-12.618-12.445s-2.937,6.653,1.324,16.2c-1.001,0.017-1.886,0.1-2.465,0.306
	c-3.028,1.002-6.097,1.597-8.828,5.106c-2.573,3.251-1.167,9.762-1.167,9.762s-3.037,0.819-5.849,1.97
	c-1.572-0.803-11.293-5.883-20.817-13.056C117.463,361.328,121.153,361.66,121.153,361.66z M45.466,394.406
	c-5.634,0.661-8.787,4.46-8.787,4.46s-1.009-2.194-0.488-5.121c0.579-3.228,2.978-4.385,2.978-4.385s-3.946,0.893-7.611,0
	c-5.072-1.258-8.356-4.774-9.019-5.544c0,0,3.947-4.451,9.019-5.692c3.665-0.927,7.611,0,7.611,0s-2.399-1.175-2.978-4.402
	c-0.521-2.929,0.488-5.129,0.488-5.129s3.152,3.798,8.787,4.485c5.626,0.645,8.266,4.12,9.73,6.114c1.365,1.795,1.365,7.289,0,9.093
	C53.732,390.261,51.093,393.745,45.466,394.406z M94.173,399.197c-9.87-9.672-18.764-14.769-19.649-15.281
	c0.885-0.514,9.779-5.61,19.649-15.291c2.052-1.968,4.534-3.392,7.165-4.435c0.107,0.091,0.19,0.183,0.29,0.249
	c11.236,10.209,23.58,17.971,26.021,19.476c-2.44,1.49-14.785,9.257-26.021,19.459c-0.099,0.083-0.182,0.166-0.29,0.248
	C98.707,402.589,96.225,401.174,94.173,399.197z M121.832,424.994c-2.78-13.246-0.678-18.823-0.678-18.823s-3.69,0.347-8.547-0.066
	c9.523-7.182,19.245-12.245,20.817-13.055c2.812,1.124,5.849,1.968,5.849,1.968s-1.407,6.511,1.167,9.763
	c2.73,3.509,5.799,4.087,8.828,5.105c0.58,0.19,1.464,0.289,2.465,0.298c-4.26,9.556-1.324,16.2-1.324,16.2
	s5.676-8.34,12.618-12.436c1.638,2.185,3.326,4.716,3.665,6.396c0.679,3.483,4.377,7.909,9.97,8.132
	c5.825,0.232,7.917-4.187,7.917-4.187s5.742,6.868,12.071,3.963c3.054-1.406,5.337-3.954,5.337-9.539
	c0-1.688-1.216-3.607,0.265-5.743c8.621,1.837,17.872,1.573,17.872,1.573s-3.459-2.838-7.389-7.431
	c4.715-2.051,8.422-3.938,11.807-8.141c3.5-4.385,3.955-8.844,3.955-8.844s13.437-0.688,22.992,1.407
	c9.068,1.968,15.918,4.897,21.13,7.769c-3.996,4.144-8.381,7.868-12.062,9.191c-9.754,3.484-19.525,0.455-19.525,0.455
	s-9.738,32.309-32.061,35.561c-24.143,3.508-36.247-13.95-50.882-12.552c-14.653,1.398-25.102,13.941-25.102,13.941
	S124.62,438.223,121.832,424.994z M265.188,523.283c-4.401-6.512-3.938-12.551-3.938-12.551s-22.529,1.861-29.958-14.636
	c-5.362-11.855,0.687-23.009,9.026-31.382c8.39-8.364,10.483-13.229,8.39-19.509c-2.085-6.271-9.763-8.373-9.763-8.373
	s9.077-2.78,10.466-7.661c1.39-4.882-0.703-8.348-0.703-8.348s14.669-1.382,20.907-6.975c3.947-3.542,7.182-6.868,10.011-10.062
	c0.844,0.58,1.629,1.159,2.317,1.688c6.727,5.113,11.392,10.449,11.392,10.449s-8.993,1.366-13.957,6.974
	c-1.994,2.251-3.195,4.865-3.914,7.29c-5.485-2.457-10.938-5.436-10.938-5.436s-1.944,8.57,0.587,15.471
	c-3.707,1.696-7.405,4.8-8.737,10.549c-2.706,11.608,5.138,16.441,9.051,18.096c-2.846,4.642-5.85,8.264-10.93,11.193
	c-6.651,3.863-14.619,3.252-14.619,3.252s10.921,9.142,19.964,9.763c3.062,0.206,5.709,0.123,8.117-0.132
	c-2.077,2.805-2.623,14.494,5.361,18.482c5.816,2.912,10.515,0.796,12.576-0.545c-0.819,5.194-3.02,14.18-9.159,21.94
	C272.304,530.044,267.936,527.305,265.188,523.283z M287.253,540.709c-1.033-1.117-2.208-2.126-3.399-3.07
	c1.994-2.738,3.326-5.295,4.583-7.844c1.431-2.871,2.746-7.381,3.641-10.904c2.026,1.722,5.112,4.615,5.112,4.615
	s3.607-2.894,5.65-4.615c0.886,3.523,2.192,8.033,3.633,10.904c1.266,2.549,2.598,5.105,4.601,7.844
	c-1.216,0.944-2.392,1.953-3.442,3.07c-6.785,7.287-9.795,17.333-10.185,18.655C297.066,558.042,294.08,547.996,287.253,540.709z
	 M291.623,592.608c-0.91-3.674,0-7.61,0-7.61s-1.15,2.381-4.377,2.961c-2.912,0.537-5.122-0.479-5.122-0.479
	s3.798-3.146,4.485-8.778c0.636-5.611,4.104-8.248,6.088-9.747c1.82-1.356,7.314-1.356,9.093,0c1.984,1.499,5.469,4.136,6.146,9.747
	c0.663,5.633,4.469,8.778,4.469,8.778s-2.21,1.017-5.146,0.479c-3.218-0.58-4.377-2.961-4.377-2.961s0.893,3.937,0,7.61
	c-1.258,5.062-4.782,8.355-5.526,9.043C297.356,601.651,292.872,597.671,291.623,592.608z"/>
</svg>
