<?xml version="1.0" encoding="utf-8"?>
<!-- Generator: Adobe Illustrator 16.0.0, SVG Export Plug-In . SVG Version: 6.00 Build 0)  -->
<!DOCTYPE svg PUBLIC "-//W3C//DTD SVG 1.1//EN" "http://www.w3.org/Graphics/SVG/1.1/DTD/svg11.dtd">
<svg version="1.1" id="Layer_1" xmlns="http://www.w3.org/2000/svg" xmlns:xlink="http://www.w3.org/1999/xlink" x="0px" y="0px"
	 width="595.28px" height="841.89px" viewBox="0 0 595.28 841.89" enable-background="new 0 0 595.28 841.89" xml:space="preserve">
<linearGradient id="SVGID_1_" gradientUnits="userSpaceOnUse" x1="44.4385" y1="420.9448" x2="553.6006" y2="420.9448">
	<stop  offset="0.0056" style="stop-color:#ECC562"/>
	<stop  offset="1" style="stop-color:#C3922E"/>
</linearGradient>
<path fill="url(#SVGID_1_)" d="M553.529,841.89H44.495V411.055c-0.163-15.937-0.354-68.577,5.354-82.893
	c9.788-24.497,29.035-36.25,44.887-41.902c-11.217-13.558-24.132-33.986-26.703-58.541c-2.495-23.738,4.969-46.431,22.203-67.458
	c17.617-21.513,42.334-32.879,71.494-32.879c15.544,0,29.889,3.177,40.646,6.516c0.556-13.679,3.397-31.602,12.944-45.903
	c16.629-24.957,33.976-35.004,46.623-42.325c1.824-1.055,3.58-2.063,5.191-3.056c8.692-5.321,14.296-12.244,17.549-17.276L299.018,0
	l14.364,25.337c3.242,5.033,8.847,11.956,17.578,17.276c1.641,1.007,3.368,2.024,5.21,3.08
	c12.655,7.316,29.976,17.353,46.575,42.301c9.547,14.302,12.378,32.225,12.925,45.903c10.795-3.339,25.121-6.516,40.627-6.516
	c29.179,0,53.896,11.366,71.561,32.879c17.194,21.027,24.687,43.72,22.186,67.458c-2.584,24.525-15.507,44.982-26.715,58.541
	c15.852,5.651,35.081,17.405,44.877,41.902c5.738,14.316,5.517,66.957,5.324,82.893V841.89z M70.364,816.04h457.317V410.816
	c0.394-29.938-0.92-66.419-3.455-73.05c-11.666-29.197-45.527-30.867-46.986-30.905l-34.562-1.353l26.943-21.639
	c0.297-0.239,31.299-25.676,34.715-59c1.718-16.542-3.847-32.787-16.483-48.245c-12.753-15.539-30.071-23.403-51.555-23.403
	c-25.629,0-48.159,11.207-48.341,11.322l-22.137,11.15l3.474-24.492c1.161-8.468,2.034-33.809-8.041-48.883
	c-13.271-19.938-26.415-27.558-38.026-34.279c-2.015-1.156-3.953-2.274-5.767-3.397c-6.668-4.068-12.09-8.727-16.437-13.347
	l-1.976-3.631l-1.967,3.631c-4.404,4.61-9.807,9.279-16.465,13.347c-1.814,1.123-3.724,2.231-5.729,3.392
	c-11.629,6.717-24.765,14.332-38.083,34.284c-10.028,15.074-9.182,40.415-8.002,48.907l3.387,24.544l-22.059-11.226
	c-0.23-0.115-22.731-11.322-48.398-11.322c-21.425,0-38.793,7.864-51.497,23.403c-12.694,15.516-18.259,31.789-16.504,48.408
	c3.532,33.486,34.399,58.588,34.706,58.837l27.442,21.964l-35.138,1.027c-1.372,0.038-35.224,1.708-46.901,30.905
	c-2.553,6.631-3.848,43.112-3.474,73.05v0.172V816.04z"/>
</svg>
