<?xml version="1.0" encoding="utf-8"?>
<!-- Generator: Adobe Illustrator 16.0.0, SVG Export Plug-In . SVG Version: 6.00 Build 0)  -->
<!DOCTYPE svg PUBLIC "-//W3C//DTD SVG 1.1//EN" "http://www.w3.org/Graphics/SVG/1.1/DTD/svg11.dtd">
<svg version="1.1" id="Layer_1" xmlns="http://www.w3.org/2000/svg" xmlns:xlink="http://www.w3.org/1999/xlink" x="0px" y="0px"
	 width="595.28px" height="841.89px" viewBox="0 0 595.28 841.89" enable-background="new 0 0 595.28 841.89" xml:space="preserve">
<linearGradient id="SVGID_1_" gradientUnits="userSpaceOnUse" x1="22.3184" y1="137.9189" x2="863.4775" y2="137.9189" gradientTransform="matrix(-4.371139e-08 1 -1 -4.371139e-08 441.2495 -22.3184)">
	<stop  offset="0.0056" style="stop-color:#ECC562"/>
	<stop  offset="1" style="stop-color:#C3922E"/>
</linearGradient>
<path fill="url(#SVGID_1_)" d="M90.952,387.545l-18.573,33.031l18.573,33.042c-3.508,1.148-7.146,1.733-10.856,1.733h-6.984v161.317
	h6.984c7.866,0,15.299,2.494,21.564,7.228c-5.944,8.427-9.086,18.304-9.086,28.632c0,10.391,3.142,20.271,9.072,28.677
	c-5.801,4.379-12.721,6.866-20.043,7.167l-6.69,0.287v119.234h28.142v33.266H268.38v-6.974c0-13.003,7.41-25.096,18.936-31.059
	l16.002,28.489l16.006-28.506c11.548,5.979,18.954,18.072,18.954,31.075v6.974h165.327v-33.266h28.145V688.659l-6.689-0.287
	c-7.329-0.301-14.235-2.788-20.05-7.167c5.936-8.406,9.064-18.286,9.064-28.677c0-10.328-3.129-20.205-9.071-28.632
	c6.254-4.733,13.685-7.228,21.561-7.228h6.979V455.352h-6.986c-3.7,0-7.35-0.585-10.84-1.733l18.566-33.042l-18.566-33.031
	c3.49-1.152,7.14-1.75,10.84-1.75h6.986V224.486h-6.979c-7.876,0-15.307-2.497-21.554-7.22c5.936-8.427,9.064-18.307,9.064-28.643
	c0-10.383-3.129-20.267-9.064-28.666c5.814-4.403,12.721-6.866,20.05-7.18l6.689-0.264V33.269h-28.145V0H338.277v6.97
	c0,13.012-7.413,25.098-18.954,31.079l-16.006-28.5l-16.002,28.49C275.79,32.056,268.38,19.963,268.38,6.971V0H103.054v33.261
	H74.912v119.252l6.69,0.264c7.322,0.314,14.242,2.777,20.043,7.18c-5.93,8.399-9.072,18.283-9.072,28.666
	c0,10.336,3.142,20.215,9.072,28.643c-6.251,4.723-13.67,7.22-21.55,7.22h-6.984v161.309h6.984
	C83.805,385.794,87.444,386.393,90.952,387.545z M503.604,47.227h14.183v92.336c-8.187,1.443-15.877,4.954-22.377,10.17
	c-6.487-5.217-14.198-8.728-22.381-10.17V77.788h30.575V47.227z M103.054,793.927H88.873v-92.328
	c8.188-1.455,15.891-4.959,22.364-10.183c6.501,5.224,14.205,8.728,22.388,10.183v61.759h-30.571V793.927z M87.069,372.333V237.958
	c8.85-1.244,17.175-4.859,24.168-10.481c7.022,5.622,15.351,9.237,24.183,10.491v70.412l-37.562,66.83
	C94.404,373.843,90.782,372.877,87.069,372.333z M303.317,55.903h0.033c3.193-0.014,6.379-0.321,9.472-0.929l4.98,8.859h-28.967
	l4.979-8.87C296.931,55.583,300.124,55.89,303.317,55.903z M519.592,237.968l-0.007,134.365c-3.706,0.544-7.335,1.51-10.795,2.876
	l-37.556-66.83v-70.412c8.854-1.254,17.175-4.869,24.176-10.498C502.41,233.099,510.736,236.714,519.592,237.968z M303.351,785.249
	h-0.033c-3.224,0-6.417,0.324-9.502,0.939l-4.979-8.877h28.967l-4.98,8.873C309.729,785.573,306.544,785.249,303.351,785.249z
	 M87.069,603.188V468.802c3.721-0.517,7.335-1.49,10.789-2.854l37.562,66.826v70.414c-8.849,1.243-17.161,4.872-24.183,10.492
	C104.244,608.06,95.932,604.438,87.069,603.188z M489.646,63.833h-16.616V47.227h16.616V63.833z M500.13,188.624
	c0,6.254-1.628,12.36-4.72,17.746c-3.085-5.386-4.721-11.491-4.721-17.746c0-6.282,1.636-12.404,4.721-17.786
	C498.502,176.22,500.13,182.342,500.13,188.624z M117.016,777.312h16.61v16.615h-16.61V777.312z M106.538,652.528
	c0-6.25,1.622-12.356,4.7-17.749c3.099,5.393,4.734,11.492,4.734,17.749c0,6.289-1.635,12.398-4.734,17.783
	C108.16,664.927,106.538,658.817,106.538,652.528z M401.371,212.556l55.908,99.489v52.929c-1.51-0.148-2.787-0.223-3.808-0.223
	c-10.18,0-20.083,2.774-28.756,8.011c-0.379-0.966-0.769-1.939-1.211-2.963c-6.568-15.536-15.978-29.48-27.956-41.455
	c-11.987-11.987-25.926-21.391-41.465-27.96c-4.409-1.875-8.954-3.493-13.533-4.858c8.414-4.105,16.067-9.583,22.795-16.303
	c16.028-16.046,24.865-37.359,24.865-60.028c0-1.422-0.038-2.821-0.103-4.183C392.663,214.812,397.124,213.988,401.371,212.556z
	 M205.28,628.594l-55.893-99.482v-52.92c1.497,0.136,2.778,0.21,3.802,0.21c10.149,0,20.053-2.771,28.719-7.981
	c0.378,0.953,0.784,1.909,1.21,2.94c6.551,15.532,15.971,29.47,27.949,41.465c11.975,11.974,25.926,21.377,41.458,27.949
	c4.409,1.868,8.954,3.493,13.532,4.859c-8.399,4.111-16.06,9.582-22.78,16.303c-16.029,16.028-24.861,37.346-24.861,60.028
	c0,1.412,0.034,2.813,0.091,4.182C213.984,626.347,209.548,627.167,205.28,628.594z M232.599,213.522
	c10.008-2.575,19.08-8.44,25.587-16.587c6.849-8.589,10.471-18.931,10.471-29.913c0-3.108-0.305-6.213-0.885-9.251
	c10.711-6.221,22.982-9.518,35.545-9.518c12.552,0,24.849,3.304,35.562,9.535c-0.577,3.021-0.881,6.126-0.881,9.234
	c0,10.978,3.625,21.317,10.477,29.903c6.487,8.143,15.536,14.002,25.537,16.59c0.159,1.889,0.23,3.794,0.23,5.68
	c0,18.948-7.38,36.765-20.773,50.148c-13.4,13.401-31.207,20.78-50.151,20.78c-18.956,0-36.769-7.379-50.169-20.78
	c-13.387-13.384-20.78-31.2-20.78-50.148C232.369,217.31,232.457,215.404,232.599,213.522z M417.758,442.383
	c-4.027-6.564-6.15-14.049-6.15-21.807c0-7.754,2.123-15.242,6.15-21.8c1.352,7.126,2.048,14.452,2.048,21.8
	C419.806,427.929,419.109,435.257,417.758,442.383z M385.675,338.201c10.709,10.717,19.108,23.165,24.971,37.042
	c0.95,2.223,1.811,4.46,2.595,6.687c-10.066,10.464-15.59,24.155-15.59,38.647c0,14.492,5.523,28.18,15.59,38.644
	c-0.784,2.233-1.645,4.474-2.595,6.693c-5.862,13.874-14.262,26.335-24.971,37.032c-10.704,10.707-23.141,19.11-37.021,24.977
	c-14.363,6.064-29.619,9.149-45.337,9.149c-15.735,0-30.998-3.085-45.354-9.149c-13.867-5.866-26.328-14.27-37.021-24.977
	c-10.701-10.697-19.107-23.155-24.963-37.032c-0.936-2.2-1.797-4.433-2.571-6.663c10.066-10.45,15.604-24.165,15.604-38.674
	c0-14.508-5.538-28.22-15.604-38.674c0.774-2.226,1.636-4.463,2.571-6.659c5.855-13.884,14.262-26.325,24.963-37.042
	c10.694-10.691,23.155-19.084,37.021-24.959c14.356-6.082,29.619-9.153,45.354-9.153c15.718,0,30.974,3.071,45.337,9.153
	C362.534,319.107,374.971,327.51,385.675,338.201z M374.012,627.641c-10.001,2.584-19.05,8.45-25.537,16.593
	c-6.852,8.579-10.477,18.919-10.477,29.896c0,3.123,0.304,6.217,0.881,9.226c-10.713,6.25-23.01,9.548-35.562,9.548
	c-12.562,0-24.834-3.298-35.545-9.518c0.58-3.039,0.885-6.146,0.885-9.256c0-10.983-3.622-21.333-10.471-29.915
	c-6.507-8.146-15.579-14.009-25.587-16.59c-0.142-1.875-0.23-3.791-0.23-5.659c0-18.949,7.393-36.759,20.78-50.156
	c13.4-13.403,31.213-20.783,50.169-20.783c18.944,0,36.751,7.38,50.151,20.783c13.394,13.397,20.773,31.207,20.773,50.156
	C374.242,623.833,374.171,625.749,374.012,627.641z M186.819,420.576c0-7.376,0.703-14.718,2.051-21.861
	c4.044,6.575,6.183,14.073,6.183,21.861c0,7.785-2.139,15.286-6.183,21.86C187.521,435.298,186.819,427.955,186.819,420.576z
	 M253.148,672.126c-8.021-8.031-14.032-17.863-17.435-28.534c11.448,5.652,18.796,17.182,18.976,30.027
	C254.176,673.133,253.668,672.634,253.148,672.126z M353.469,672.126c-0.483,0.483-0.999,0.976-1.497,1.446
	c0.202-12.789,7.521-24.29,18.919-29.953C367.487,654.289,361.49,664.111,353.469,672.126z M353.469,169.023
	c8.021,8.028,14.019,17.84,17.422,28.504c-11.397-5.66-18.717-17.151-18.919-29.954C352.479,168.063,352.985,168.54,353.469,169.023
	z M401.371,628.594c-4.247-1.437-8.708-2.247-13.263-2.447c0.064-1.368,0.103-2.77,0.103-4.182c0-22.683-8.837-44-24.865-60.028
	c-6.728-6.721-14.371-12.191-22.783-16.303c4.581-1.366,9.112-2.991,13.521-4.859c15.539-6.572,29.482-15.976,41.465-27.949
	c11.979-11.995,21.388-25.933,27.956-41.465c0.442-1.048,0.842-2.015,1.211-2.953c8.673,5.22,18.576,7.994,28.756,7.994
	c1.014,0,2.287-0.074,3.808-0.21v52.92L401.371,628.594z M253.148,169.023c0.5-0.494,1.021-1,1.541-1.48
	c-0.196,12.829-7.528,24.354-18.976,30.011C239.129,186.874,245.127,177.058,253.148,169.023z M205.28,212.549
	c4.274,1.439,8.718,2.264,13.245,2.463c-0.067,1.362-0.108,2.76-0.108,4.183c0,22.669,8.832,43.982,24.861,60.028
	c6.72,6.72,14.387,12.198,22.793,16.303c-4.592,1.366-9.123,2.984-13.545,4.858c-15.526,6.569-29.477,15.973-41.458,27.96
	c-11.978,11.975-21.398,25.919-27.949,41.455c-0.413,0.993-0.825,1.98-1.21,2.946c-8.659-5.237-18.563-7.994-28.719-7.994
	c-1.024,0-2.305,0.074-3.802,0.223v-52.929L205.28,212.549z M251.533,710.918c4.764-3.983,8.622-8.736,11.512-14.188
	c12.258,6.619,26.152,10.126,40.272,10.126c14.116,0,28.026-3.507,40.299-10.136c2.872,5.426,6.74,10.211,11.505,14.197
	l-29.477,52.439h-44.651L251.533,710.918z M355.121,130.244c-4.765,3.991-8.633,8.751-11.505,14.184
	c-12.272-6.625-26.183-10.133-40.299-10.133c-14.12,0-28.015,3.498-40.279,10.117c-2.883-5.43-6.741-10.184-11.505-14.167
	L281,77.788h44.645L355.121,130.244z M143.566,379.813c1.686-0.28,7.065-1.081,9.623-1.081c8.744,0,17.087,2.667,24.182,7.707
	c-2.99,11.039-4.503,22.514-4.503,34.137c0,11.612,1.514,23.095,4.503,34.14c-7.095,5.048-15.438,7.718-24.182,7.718
	c-2.571,0-7.943-0.812-9.623-1.105l-8.146-1.372v44.307l-25.412-45.239c11.968-9.312,18.824-23.279,18.824-38.447
	c0-15.157-6.856-29.129-18.824-38.455l25.412-45.243v44.317L143.566,379.813z M140.894,688.372
	c-7.335-0.301-14.242-2.788-20.04-7.178c5.92-8.403,9.072-18.282,9.072-28.666c0-10.328-3.152-20.205-9.082-28.632
	c6.258-4.733,13.684-7.228,21.563-7.228h6.98v-59.061l50.024,89.041l5.957-2.99c4.676-2.345,9.717-3.551,14.981-3.596
	c3.423,15.858,11.335,30.34,22.929,41.935c2.49,2.498,5.2,4.866,8.001,7.059c-2.781,5.711-7.103,10.529-12.563,13.952l-5.632,3.534
	l31.906,56.814H147.584v-74.702L140.894,688.372z M373.589,706.543l-5.639-3.534c-5.467-3.423-9.795-8.252-12.582-13.965
	c2.777-2.166,5.467-4.538,7.978-7.046c11.6-11.595,19.506-26.076,22.938-41.935c5.255,0.035,10.315,1.248,15.009,3.596l5.95,2.99
	l50.036-89.035v59.055h6.98c7.863,0,15.3,2.494,21.563,7.228c-5.946,8.427-9.089,18.304-9.089,28.632
	c0,10.391,3.143,20.271,9.079,28.677c-5.811,4.379-12.728,6.866-20.047,7.167l-6.689,0.287v74.698H341.66L373.589,706.543z
	 M463.095,461.328c-1.686,0.294-7.045,1.105-9.623,1.105c-8.761,0-17.113-2.68-24.21-7.741c2.974-11.028,4.494-22.507,4.494-34.116
	c0-11.623-1.521-23.087-4.504-34.112c7.097-5.065,15.459-7.731,24.22-7.731c2.564,0,7.938,0.801,9.623,1.081l8.14,1.382V336.89
	l25.42,45.232c-11.976,9.322-18.832,23.28-18.832,38.455c0,15.168,6.856,29.136,18.832,38.447l-25.42,45.249v-44.316
	L463.095,461.328z M465.767,152.778c7.319,0.314,14.236,2.777,20.047,7.18c-5.937,8.399-9.079,18.283-9.079,28.666
	c0,10.336,3.143,20.215,9.079,28.643c-6.254,4.723-13.69,7.22-21.554,7.22h-6.98v59.048l-50.036-89.032l-5.95,2.99
	c-4.693,2.355-9.737,3.554-15.009,3.595c-3.433-15.857-11.339-30.332-22.938-41.931c-2.511-2.507-5.2-4.879-7.978-7.038
	c2.787-5.72,7.115-10.549,12.582-13.982l5.639-3.537L341.66,77.788h117.417v74.726L465.767,152.778z M238.717,138.137
	c5.46,3.43,9.782,8.248,12.563,13.955c-2.808,2.197-5.512,4.562-8.001,7.065c-11.593,11.6-19.513,26.074-22.929,41.931
	c-5.271-0.047-10.305-1.254-14.981-3.595l-5.957-2.99l-50.024,89.032v-59.048h-6.98c-7.879,0-15.312-2.497-21.563-7.22
	c5.93-8.427,9.082-18.307,9.082-28.643c0-10.376-3.152-20.256-9.072-28.666c5.798-4.403,12.705-6.866,20.04-7.18l6.69-0.264V77.788
	h117.407L233.085,134.6L238.717,138.137z M473.029,777.312h16.616v16.615h-16.616V777.312z M473.029,763.357v-61.759
	c8.196-1.455,15.894-4.959,22.381-10.183c6.494,5.224,14.19,8.728,22.377,10.183v92.328h-14.183v-30.569H473.029z M500.13,652.528
	c0,6.289-1.628,12.398-4.72,17.783c-3.085-5.385-4.721-11.494-4.721-17.783c0-6.257,1.636-12.356,4.721-17.749
	C498.502,640.172,500.13,646.271,500.13,652.528z M133.625,63.833h-16.61V47.227h16.61V63.833z M133.625,77.788v61.775
	c-8.183,1.443-15.887,4.947-22.388,10.17c-6.48-5.224-14.184-8.728-22.364-10.17V47.227h14.181v30.561H133.625z M106.538,188.624
	c0-6.282,1.622-12.404,4.7-17.786c3.099,5.382,4.734,11.504,4.734,17.786c0,6.254-1.635,12.36-4.734,17.746
	C108.16,200.983,106.538,194.878,106.538,188.624z M88.4,420.576l14.654-26.095c7.525,6.626,11.819,16.07,11.819,26.095
	c0,10.021-4.294,19.466-11.819,26.095L88.4,420.576z M303.317,803.11l-2.152-3.819c1.412-0.094,2.861-0.094,4.294-0.003
	L303.317,803.11z M519.585,468.802l0.007,134.386c-8.855,1.25-17.188,4.872-24.182,10.502c-6.994-5.63-15.322-9.252-24.176-10.502
	v-70.414l37.556-66.826C512.25,467.312,515.879,468.285,519.585,468.802z M518.274,420.576l-14.67,26.095
	c-7.528-6.629-11.816-16.06-11.816-26.095c0-10.025,4.288-19.469,11.816-26.088L518.274,420.576z M303.317,38.049l2.142,3.828
	c-1.433,0.088-2.868,0.088-4.294,0L303.317,38.049z M254.915,827.193H117.016v-19.3h30.568v-30.582h125.243l7.646,13.624
	C266.606,798.294,257.128,811.732,254.915,827.193z M489.646,827.193H351.746c-2.217-15.471-11.701-28.916-25.578-36.258
	l7.644-13.624h125.266v30.582h30.568V827.193z M351.746,13.948h137.899v19.32h-30.568v30.564H333.812l-7.644-13.6
	C340.045,42.868,349.529,29.43,351.746,13.948z M117.016,13.948h137.899c2.213,15.465,11.691,28.902,25.558,36.265l-7.646,13.62
	H147.584V33.262h-30.568V13.948z"/>
</svg>
