<?xml version="1.0" encoding="utf-8"?>
<!-- Generator: Adobe Illustrator 16.0.0, SVG Export Plug-In . SVG Version: 6.00 Build 0)  -->
<!DOCTYPE svg PUBLIC "-//W3C//DTD SVG 1.1//EN" "http://www.w3.org/Graphics/SVG/1.1/DTD/svg11.dtd">
<svg version="1.1" id="Layer_1" xmlns="http://www.w3.org/2000/svg" xmlns:xlink="http://www.w3.org/1999/xlink" x="0px" y="0px"
	 width="595.28px" height="841.89px" viewBox="0 0 595.28 841.89" enable-background="new 0 0 595.28 841.89" xml:space="preserve">
<linearGradient id="SVGID_1_" gradientUnits="userSpaceOnUse" x1="35.8379" y1="420.5552" x2="576.4746" y2="420.5552">
	<stop  offset="0.0056" style="stop-color:#ECC562"/>
	<stop  offset="1" style="stop-color:#C3922E"/>
</linearGradient>
<path fill="url(#SVGID_1_)" d="M572.019,841.11H40.324V389.48h72.322v-1.186c-43.372-6.428-76.808-43.908-76.808-89.045
	c0-41.601,27.938-76.602,66.47-86.926c-4.201-10.506-6.355-21.75-6.355-33.269c0-49.648,40.371-90.039,90.029-90.039
	c4.79,0,9.562,0.384,14.273,1.171C208.459,39.146,252.913,0,306.162,0c53.247,0,97.681,39.146,105.905,90.187
	c4.731-0.787,9.482-1.171,14.294-1.171c49.657,0,90.039,40.391,90.039,90.039c0,11.52-2.175,22.749-6.365,33.269
	c38.531,10.324,66.439,45.325,66.439,86.926c0,45.142-33.388,82.626-76.759,89.045v1.186h72.303V841.11z M66.776,814.619h478.772
	V415.971h-72.333v-53.189h13.23c35.06,0,63.547-28.503,63.547-63.533c0-34.214-26.756-62.087-60.89-63.484l-24.003-0.998
	l13.633-19.753c7.311-10.609,11.187-23.034,11.187-35.959c0-35.04-28.538-63.553-63.558-63.553c-7.34,0-14.569,1.289-21.661,3.861
	l-17.679,6.433l-0.059-18.823c-0.156-44.38-36.426-80.493-80.801-80.493c-44.386,0-80.646,36.113-80.793,80.493l-0.078,18.843
	l-17.697-6.453c-7.014-2.573-14.314-3.861-21.612-3.861c-35.05,0-63.558,28.513-63.558,63.553c0,12.926,3.876,25.355,11.165,35.959
	l13.634,19.753l-23.983,0.998c-34.154,1.397-60.881,29.271-60.881,63.484c0,35.03,28.479,63.533,63.508,63.533h13.261v53.189H66.776
	V814.619z"/>
</svg>
