<?xml version="1.0" encoding="utf-8"?>
<!-- Generator: Adobe Illustrator 16.0.0, SVG Export Plug-In . SVG Version: 6.00 Build 0)  -->
<!DOCTYPE svg PUBLIC "-//W3C//DTD SVG 1.1//EN" "http://www.w3.org/Graphics/SVG/1.1/DTD/svg11.dtd">
<svg version="1.1" id="Layer_1" xmlns="http://www.w3.org/2000/svg" xmlns:xlink="http://www.w3.org/1999/xlink" x="0px" y="0px"
	 width="595.28px" height="841.89px" viewBox="0 0 595.28 841.89" enable-background="new 0 0 595.28 841.89" xml:space="preserve">
<linearGradient id="SVGID_1_" gradientUnits="userSpaceOnUse" x1="118.5664" y1="420.1504" x2="486.2158" y2="420.1504">
	<stop  offset="0.0056" style="stop-color:#ECC562"/>
	<stop  offset="1" style="stop-color:#C3922E"/>
</linearGradient>
<path fill="url(#SVGID_1_)" d="M486.195,205.698c0-0.039-0.006-0.105-0.009-0.189c0-0.018,0-0.024,0-0.045
	c-0.265-4.115-3.536-50.727-17.614-75.676c-1.096-1.96-2.296-3.941-3.571-5.934l0,0c0-0.009-0.004-0.015-0.004-0.015
	c-1.261-1.966-2.574-3.94-3.964-5.909l-0.006-0.012l0,0c-4.189-5.976-8.953-11.975-14.004-17.783l0,0l-0.003-0.006
	c-1.639-1.879-3.304-3.746-4.994-5.577c-0.009-0.021-0.029-0.033-0.048-0.045c-0.015-0.033-0.049-0.06-0.075-0.09
	c-1.912-2.064-3.838-4.103-5.777-6.092c-0.039-0.036-0.078-0.082-0.117-0.121c-5.51-5.626-11.087-10.864-16.438-15.468
	c-0.009-0.012-0.019-0.018-0.024-0.033c-0.654-0.552-1.305-1.104-1.95-1.65c-0.024-0.027-0.054-0.045-0.085-0.072
	c-0.638-0.535-1.277-1.075-1.913-1.594c-0.01-0.006-0.017-0.021-0.019-0.021c-2.261-1.84-4.454-3.574-6.559-5.144
	c-1.753-1.305-3.835-2.773-6.141-4.367l0,0c-0.078-0.051-0.171-0.103-0.251-0.162c-0.511-0.345-1.035-0.706-1.576-1.065
	c-0.06-0.051-0.104-0.084-0.162-0.117c-0.66-0.457-1.338-0.907-2.037-1.375c-0.004,0-0.016-0.009-0.022-0.015
	c-1.407-0.94-2.868-1.903-4.391-2.894c0,0,0,0-0.002-0.012l0,0c-6.618-4.328-14.238-9.132-21.99-13.932
	c-0.069-0.051-0.142-0.096-0.21-0.147l0,0c-1.071-0.657-2.141-1.318-3.206-1.974l0,0c-0.077-0.045-0.155-0.097-0.219-0.139
	c-1.93-1.191-3.863-2.371-5.783-3.553c-0.045-0.021-0.088-0.045-0.121-0.072l0,0c-4.6-2.815-9.099-5.549-13.346-8.101
	C322.17,9.757,302.463,0,302.463,0c-8.529,4.331-12.896,6.071-47.263,26.351c-20.552,12.122-47.326,28.941-59.433,37.957
	c-6.584,4.913-14.016,11.287-21.492,18.521l0,0c-0.009,0-0.018,0.006-0.021,0.015c-12.671,12.269-25.472,26.966-34.454,41.069l0,0
	l0,0c-1.282,1.999-2.491,3.995-3.602,5.96c-14.418,25.552-17.498,73.863-17.617,75.916v15.723v6.315l0,0v15.273l0,0v6.786l0,0
	v38.683v8.665l0,0v35.834l0,0v6.777l0,0v15.288l0,0v1.729v10.69l-0.006,14.625l0,0v182.961v0.006v11.491l0,0v35.847l0,0v6.785l0,0
	v15.289l0,0v8.538l0,0v0.709l0,0l-0.009,17.775h0.009l-0.009,98.592v0.011v19.686v24.82v3.991l0,0v31.624h7.935l8.473-0.006l0,0
	h19.838l0,0h14.637l21.159-0.006l0,0l10.699-0.009l0,0l14.454-0.007l0,0l10.942-0.012h10.033h3.058l0,0l125.434-0.027l0,0h7.269l0,0
	h5.006l0,0h11.551l0,0l14.703-0.006l0,0l10.665-0.006l0,0h19.888l0,0h15.787v-0.012h19.901l0,0h10.643h-0.007h5.582V808.71v-6.792
	V786.64v-8.548v-0.688V759.64v-98.635v-26.276v-15.435v-6.786V576.46v-11.138v-36.054v-6.785v-15.435v-26.292v-99.16v-26.279
	v-15.435v-6.786v-36.045v-11.146v-36.054v-6.783v-15.436v-21.372L486.195,205.698z M426.72,821.387l-3.863-3.101l9.056-23.576
	l9.847,0.032l10.745-0.032l9.063,23.556l-3.863,3.101L426.72,821.387z M364.817,821.393l-5.265-4.078l-1.924-14.075l21.2,2.944
	l-6.219,15.209H364.817z M232.088,821.438l-6.267-15.3l8.412-1.17l13.146-1.801l-1.927,14.147l-5.297,4.123H232.088z
	 M147.391,821.456l-3.947-3.19l9.069-23.556l10.723,0.032l9.854-0.032l9.052,23.576l-3.938,3.164L147.391,821.456z M204.057,81.684
	l2.95,2.314l-12.557,30.717l-18.304,4.559l-3.782-7.14C182.691,100.328,194.32,89.331,204.057,81.684z M246.34,53.824l0.732,5.351
	l-7.656-1.062C241.686,56.699,244.002,55.265,246.34,53.824z M358.248,53.626c2.412,1.477,4.801,2.956,7.142,4.423l-7.902,1.093
	L358.248,53.626z M356.527,66.3l18.07-2.464c2.236,1.417,4.4,2.806,6.466,4.141l7.842,13.437l-9.428,10.333l-7.449,7.456
	l-18.946-7.737L356.527,66.3z M432.308,111.925l-1.818,3.421l-2.154,3.908l-18.217-4.538l-12.576-30.717l3.119-2.449
	C410.382,89.169,421.993,100.136,432.308,111.925z M467.378,206.565v22.527l-10.49,0.045l-10.539-27.401l9.357-17.353l9.553,2.38
	C466.699,197.079,467.272,205.041,467.378,206.565z M452.246,455.998l-10.268-2.553l-10.099,2.521l-5.067-9.55l0.013-0.021
	l-0.035-0.019l-0.022-0.032l-0.015,0.006l-9.547-5.061l2.523-10.105l0,0l-2.523-10.107l9.547-5.063l0.015,0.021l0.022-0.045
	l0.035-0.015l-0.013-0.024l5.067-9.538l10.099,2.508l10.268-2.56l13.366,24.823L452.246,455.998z M137.396,746.116l11.686-2.907
	l9.346,17.353l-10.534,27.395l-10.498-0.033V746.116z M137.396,274.582l3.286-8.542l16.53,13.313l-15.024,12.089h-0.072l0.039,0.039
	l-0.039,0.027h0.072l15.024,12.095l-16.53,13.307l-3.286-8.542V274.582z M139.545,186.706l9.315-2.323l9.343,17.353l-10.534,27.401
	l-10.273-0.045v-22.431C137.504,205.119,138.089,197.091,139.545,186.706z M159.209,128.761l3.37,0.84l1.843-0.468l13.1,7.056
	l0.231,0.435l-0.024,0.021l0.036,0.012l0.021,0.039l0.018-0.012l9.532,5.054l-2.509,10.039l0.012,0.03l-0.012,0.039l0,0l2.509,10.04
	l-9.532,5.063l-0.018-0.021l-0.027,0.033l-0.03,0.021l0.012,0.019l-5.063,9.55l-10.099-2.521l-10.267,2.561l-8.014-14.883
	c2.116-8.397,4.841-16.432,8.308-22.566C154.518,135.751,156.745,132.264,159.209,128.761z M229.903,107.633l9.979,12.74
	l0.057,16.492l-27.411,10.541l-17.329-9.34l4.511-18.076L229.903,107.633z M203.141,111.229l9.382-22.926l5.786,5.795l7.281,7.947
	L203.141,111.229z M246.709,151.835l0.009-0.438l-0.033-9.833l23.569-9.06l3.025,3.766l12.524,15.537l-15.549,19.316l-23.569-9.07
	l0.033-9.748v-0.054v-0.024L246.709,151.835z M404.848,119.989l4.517,18.076l-17.344,9.34l-27.393-10.541l0.045-16.492l9.977-12.74
	L404.848,119.989z M378.965,102.045l7.557-8.227l5.52-5.516l9.42,23.022l-14.975-6.123l-1.738-0.714L378.965,102.045z
	 M426.812,136.625l3.794-7.158l1.306-2.386l10.066,2.521l0.237-0.069l1.275,0.321l-0.058-0.625l2.158-0.534
	c2.455,3.506,4.67,6.984,6.591,10.348c3.428,6.096,6.135,14.046,8.244,22.356l-8.181,15.189l-10.268-2.561l-10.099,2.521
	l-5.067-9.55l0.013-0.019l-0.035-0.015l-0.022-0.039l-0.015,0.021l-9.531-5.063l2.508-10.04l0,0l-0.017-0.039l0.017-0.03
	l-2.508-10.039l9.531-5.054l0.015,0.012l0.022-0.039l0.035-0.012L426.812,136.625z M421.604,291.443h-0.069l0.032,0.039
	l-0.032,0.027h0.069l15.018,12.095l-16.527,13.307l-6.032-15.693l-12.42-9.664l0.141-0.111l-0.093-0.078l12.372-9.634l6.032-15.684
	l16.527,13.307L421.604,291.443z M441.979,283.676l9.696,7.8l-9.696,7.806l-9.688-7.8L441.979,283.676z M441.979,373.826
	l-7.704-20.045l7.263-0.012l8.146,0.024L441.979,373.826z M442.008,387.337l6.955,12.915l-6.984,1.743l-6.849-1.71L442.008,387.337z
	 M437.623,381.236l-9.216,17.362l-18.289-4.553l-12.576-30.727l12.11-9.499l17.428-0.015L437.623,381.236z M435.13,462.09
	l6.849-1.712l6.984,1.729l-6.955,12.927L435.13,462.09z M449.683,508.573l-8.146,0.026l-7.263-0.021l7.704-20.046L449.683,508.573z
	 M437.623,481.132l-10.543,27.423l-17.477-0.058l-12.062-9.453l12.576-30.719l18.289-4.563L437.623,481.132z M421.604,570.86h-0.069
	l0.032,0.033l-0.032,0.029h0.069l15.018,12.092l-16.527,13.311l-6.032-15.69l-12.435-9.685l0.278-0.207l-0.08-0.063l12.236-9.538
	l6.032-15.687l16.527,13.307L421.604,570.86z M441.979,563.078l9.696,7.815l-9.696,7.806l-9.688-7.806L441.979,563.078z
	 M441.979,653.249l-7.704-20.039l7.263-0.027l8.146,0.027L441.979,653.249z M442.008,666.749l6.955,12.92l-6.984,1.735l-6.849-1.717
	L442.008,666.749z M437.623,660.651l-9.216,17.363l-18.289-4.553l-12.576-30.72l12.062-9.454l17.477-0.06L437.623,660.651z
	 M374.649,754.816l-9.754-12.457l-0.052-16.861l27.27-10.478l17.263,9.28l-4.528,18.169L374.649,754.816z M401.684,751.119
	l-9.414,23.028l-13.608-13.606L401.684,751.119z M246.911,700.305l23.391-8.996l15.534,19.288l-15.534,19.28l-23.391-8.998
	l0.036-9.831L246.911,700.305z M199.936,742.464l-4.556-18.266l3.586-1.924l13.689-7.267l27.284,10.496l-0.057,16.573l-9.934,12.677
	L199.936,742.464z M226.292,760.606l-13.55,13.541l-9.376-22.913l22.224,9.087L226.292,760.606z M169.428,400.286l-6.849,1.71
	l-6.978-1.743l6.96-12.915L169.428,400.286z M154.863,353.793l8.157-0.024l7.254,0.012l-7.698,20.045L154.863,353.793z
	 M166.94,381.236l10.537-27.431l17.47,0.072l12.059,9.442l-12.557,30.727l-18.304,4.553L166.94,381.236z M182.949,291.509h0.078
	l-0.039-0.027l0.039-0.039h-0.078l-15.015-12.089l16.528-13.307l6.033,15.684l12.224,9.525l-0.103,0.072l0.135,0.103l-0.015,0.012
	l0.153,0.123l-12.395,9.652l-6.033,15.693l-16.528-13.307L182.949,291.509z M162.579,299.288l-9.7-7.806l9.7-7.806l9.683,7.806
	L162.579,299.288z M162.576,209.125l7.698,20.045l-7.254,0.018l-8.157-0.03L162.576,209.125z M162.562,195.626l-6.96-12.92
	l6.978-1.744l6.849,1.71L162.562,195.626z M166.94,201.722l9.205-17.377l18.304,4.559l12.557,30.729l-12.059,9.442l-17.47,0.069
	L166.94,201.722z M179.401,178.228l3.34-6.288l6.285-3.331l3.193,12.809L179.401,178.228z M302.247,172.15v0.078l0.03-0.044
	l0.039,0.044v-0.078l7.809-9.708h0.069l4.211-5.222l4.211,5.222h0.066l9.03,11.215l-15.69,6.033l-9.77,12.232l-9.724-12.232
	l-15.684-6.033l9.033-11.215h0.066l4.211-5.222l4.205,5.222h0.062L302.247,172.15z M294.501,151.808l7.776-9.646l7.779,9.646
	l-7.779,9.656L294.501,151.808z M322.007,217.364l-15.368-19.808l9.553-12.26l15.951-6.134l11.39,14.13l1.972,14.469
	L322.007,217.364z M346.438,214.81l2.941,21.542l-14.112-1.927l-8.871-11.423L346.438,214.81z M302.277,203.156l0.039,0.027v-0.072
	l0.032-0.057l13.254,17.092l-13.325,5.457l-13.364-5.468l3.412-4.417l9.922-12.606v0.072L302.277,203.156z M288.376,185.295
	l9.268,11.906l-15.585,20.063l-23.02-9.406l1.993-14.567l11.384-14.13L288.376,185.295z M277.734,222.835l-9.007,11.591
	l-13.569,1.852l2.933-21.467L277.734,222.835z M272.358,240.728l11.839-15.249l18.08,7.383l17.656-7.215l11.704,15.081l18.843,2.674
	l2.553,18.722l15.062,11.729l-7.198,17.59l-0.002,0.039l0.002,0.027l7.303,18.104l-15.166,11.789l-2.473,18.115l-18.923,2.719
	l-11.641,14.979l-17.75-7.131l-17.983,7.143l-11.729-15.105l-18.347-2.605l-2.671-18.115l-15.045-12.329l7.191-17.59l-7.191-17.674
	l15.045-11.684l2.674-18.728L272.358,240.728z M374.124,196.217l-9.451-12.077l-0.06-17.461l11.011-4.237h0.22l16.177-6.228
	l11.56,6.228h0.346l5.477,2.905l-4.555,18.298L374.124,196.217z M401.461,192.3l-9.42,23.017l-13.61-13.602L401.461,192.3z
	 M389.399,221.793l-7.728,18.869l-25.231-3.445l-3.436-25.097l18.951-7.761L389.399,221.793z M378.494,660.581l13.547-13.538
	l9.375,22.92L378.494,660.581z M404.848,678.73l4.553,18.256l-3.608,1.95l-13.661,7.248l-27.287-10.494l0.052-16.567l9.924-12.677
	L404.848,678.73z M372.014,657.932l-18.899-7.731l3.428-25.063l25.13-3.427l7.728,18.862L372.014,657.932z M302.529,690.216v-0.072
	l-0.027,0.027l-0.026-0.027v0.072l-0.088,0.102l-0.071-0.102v-0.072l-0.039,0.033l-0.03-0.033v0.072l-11.98,14.883l-13.199-16.396
	l15.688-6.022l9.633-12.374l9.635,12.374l15.69,6.022l-13.199,16.396L302.529,690.216z M310.08,710.597l-7.692,9.55l-7.686-9.556
	l7.686-9.554L310.08,710.597z M282.073,645.125l15.571,20.048l-9.268,11.903l-15.799,6.059l-11.327-14.06l-1.99-14.61
	L282.073,645.125z M258.286,647.357l-1.822-11.936l-1.275-9.324l13.538,1.846l8.926,11.485L258.286,647.357z M289.12,642.193
	l13.268-5.388l13.176,5.396l-13.062,16.378L289.12,642.193z M316.413,677.07l-9.52-12.212l15.348-19.764l23.263,9.517l-1.972,14.464
	l-11.333,14.06L316.413,677.07z M326.758,639.288l8.851-11.39l13.771-1.879l-2.904,21.338L326.758,639.288z M332.032,621.529
	l-11.973,15.025l-17.743-7.042l-17.831,7.125l-11.738-15.108l-18.556-2.572l-2.674-18.153l-14.931-12.432l7.094-17.512l-7.23-17.624
	l15.066-11.704l2.56-18.713h0.06l0.051,0.03l0.003-0.051l0.045-0.013h-0.009l18.308-2.538l11.729-15.103l18.053,7.146l17.681-7.14
	l11.81,15.097l18.562,2.577v0.024l0.03-0.018l0.087,0.006l2.547,18.694l14.995,11.647l-0.097,0.225l0.081,0.063l-7.116,17.393
	h-0.017l0.015,0.033l-0.015,0.029h0.017l7.213,17.617l-15.076,12.264l-2.664,18.13L332.032,621.529z M230.128,666.374l9.754,12.451
	l0.057,16.865l-27.272,10.494l-17.254-9.307l4.522-18.147L230.128,666.374z M203.102,670.065l9.421-23.022l13.595,13.623
	L203.102,670.065z M215.161,640.572l7.708-18.823l25.153,3.421l3.421,25.127L232.598,658L215.161,640.572z M230.962,304.774
	l-11.888-9.208l-5.165-4.058h0.083l-0.039-0.027l0.039-0.039h-0.083l-0.072-0.051l17.095-13.281l5.471,13.371L230.962,304.774z
	 M245.23,325.021l1.845,13.568l-21.464-2.971l8.025-19.602L245.23,325.021z M233.823,267.34l-8.197-20.054l21.537-2.938
	l-1.933,14.142L233.823,267.34z M228.201,271.521l-20.003,15.477l-12.101-9.421l-6.135-15.96l14.136-11.384l14.586-2.002
	L228.201,271.521z M227.997,311.644l-9.433,23.062l-14.466-1.975l-14.136-11.395l6.135-15.949L208,296.119L227.997,311.644z
	 M222.886,342.274l25.046,3.416l1.392,9.397l2.152,15.774l-7.101,2.915l-11.777,4.822l-17.437-17.434L222.886,342.274z
	 M231.011,584.056l-17.026-13.189l0.009-0.006h-0.009l-0.075-0.052l17.053-13.217l5.441,13.302L231.011,584.056z M245.23,604.438
	l1.845,13.536l-21.389-2.963l7.992-19.547L245.23,604.438z M233.945,546.663l-8.151-19.942l21.359-2.957l-1.923,14.144
	L233.945,546.663z M222.883,520.067l-7.723-18.863l17.437-17.431l18.878,7.73l-3.539,25.148L222.883,520.067z M241.767,480.262
	l-4.859-1.992l9.7-12.374l0.045-17.222l19.171,7.361l-2.185,2.701l-9.027,11.21l-1.006,7.371l-0.984,7.242l-0.012-0.007
	l-0.024,0.142L241.767,480.262z M239.966,438.89l-20.036-7.704l20.036-7.704l0.021,7.704L239.966,438.89z M246.709,431.186
	l0.009-0.45l-0.033-9.844l23.569-9.057l3.025,3.763l12.557,15.588l-12.557,15.583l-3.025,3.77l-23.569-9.061l0.033-9.842
	L246.709,431.186z M357.848,431.186l-0.009,0.45l0.035,9.842l-23.564,9.061l-3.034-3.77l-12.557-15.583l12.557-15.588l3.034-3.763
	l23.564,9.057l-0.035,9.844L357.848,431.186z M302.247,451.566v0.072l0.03-0.039l0.039,0.039v-0.072l12.089-15.023l13.308,16.537
	l-15.69,6.032l-9.541,12.251l-0.108-0.15l-0.204,0.271l-9.64-12.371l-15.684-6.032l13.31-16.537L302.247,451.566z M294.469,431.186
	l7.809-9.696l7.803,9.696l-7.803,9.686L294.469,431.186z M314.405,425.816l-12.089-15.018v-0.068l-0.039,0.045l-0.03-0.045v0.068
	l-12.092,15.018l-13.31-16.516l15.684-6.032l9.655-12.393l0.068,0.09l0.096-0.117l9.674,12.419l15.69,6.032L314.405,425.816z
	 M258.069,494.432l19.535,7.994l-8.878,11.408l-13.569,1.852L258.069,494.432z M259.06,487.188l1.971-14.481l11.375-14.129
	l15.97,6.141l9.268,11.891l-15.525,20.003L259.06,487.188z M302.277,483.188l13.067,16.387l-12.882,5.356l-0.186,0.084
	l-13.337-5.459L302.277,483.188z M306.734,476.85l9.457-12.131l15.951-6.141l11.39,14.129l1.978,14.547l-23.325,9.529
	L306.734,476.85z M346.416,494.354l2.917,21.41l-13.977-1.909l-8.826-11.365L346.416,494.354z M340.921,458.736l-2.178-2.701
	l19.158-7.361l0.055,17.222l9.69,12.374l-4.858,1.992l-10.647,4.354v-0.063l-0.195,0.07l-0.991-7.306l-1.017-7.371L340.921,458.736z
	 M364.564,431.186l0.027-7.704l20.036,7.704l-20.036,7.704L364.564,431.186z M357.956,396.471l-0.055,17.229l-19.158-7.377
	l2.178-2.695l9.017-11.204l1.017-7.377l0.993-7.374l10.841,4.436l4.858,1.987L357.956,396.471z M346.416,368.013l-19.886-8.136
	l8.826-11.369l13.977-1.896L346.416,368.013z M345.528,375.054l-1.996,14.607l-11.39,14.129l-15.951-6.138l-9.514-12.206
	l15.492-19.955L345.528,375.054z M302.277,379.172l-12.866-15.769l-0.462-0.6l13.328-5.447l13.067,5.435L302.277,379.172z
	 M297.644,385.762l-9.268,11.891l-15.97,6.138l-11.375-14.129l-1.999-14.607l22.986-9.415L297.644,385.762z M258.069,367.935
	l-2.912-21.254l13.569,1.852l8.878,11.417L258.069,367.935z M263.64,403.628l2.185,2.695l-19.171,7.377l-0.045-17.229l-9.7-12.375
	l4.859-1.987l10.84-4.436l1,7.374l1.006,7.377L263.64,403.628z M226.118,381.249l-23.016,9.409l9.421-23.023L226.118,381.249z
	 M229.903,386.96l9.979,12.745l0.057,16.573l-27.411,10.541l-17.347-9.349l4.529-18.158L229.903,386.96z M206.388,431.186
	l-12.917,6.858l-1.176-4.76l-0.534-2.099l0.534-2.101l1.176-4.748L206.388,431.186z M212.528,435.547l27.411,10.546l-0.057,16.566
	l-9.979,12.749l-30.192-12.35l-4.529-18.166L212.528,435.547z M226.118,481.132l-13.595,13.603l-9.421-23.031L226.118,481.132z
	 M216.079,521.217l-14.742,2.014l-13.91,11.198l-7.368-19.155l17.224-0.056l12.383-9.7L216.079,521.217z M204.099,529.642
	l14.466-1.967l9.592,23.446l-19.835,15.391l-12.224-9.532l-6.135-15.961L204.099,529.642z M228.087,591.124l-9.403,23.011
	l-14.586-1.987l-14.136-11.396l6.135-15.951L208,575.536L228.087,591.124z M368.154,570.894l5.388-13.154l17.053,13.223l-2.72,2.143
	l-14.285,11.06L368.154,570.894z M378.73,615.053l-21.245,2.953l1.842-13.568l11.43-8.875L378.73,615.053z M370.679,546.725
	l-11.352-8.817l-1.929-14.112l21.431,2.971L370.679,546.725z M376.531,591.073l20.027-15.537l11.896,9.265l6.145,15.951
	l-14.142,11.396l-14.499,1.975L376.531,591.073z M396.336,566.434l-20.01-15.506l9.521-23.286l14.61,2l14.142,11.377l-6.145,15.961
	L396.336,566.434z M381.687,520.034l-25.177-3.434l-3.431-25.097l18.877-7.73l17.443,17.431L381.687,520.034z M378.431,481.132
	l23.03-9.429l-9.42,23.031L378.431,481.132z M374.649,475.408l-9.977-12.749l-0.045-16.566l27.393-10.546l17.355,9.346
	l-4.528,18.166L374.649,475.408z M398.17,431.186l12.917-6.849l1.188,4.748l0.511,2.101l-0.511,2.099l-1.188,4.76L398.17,431.186z
	 M392.021,426.819l-27.393-10.541l0.045-16.573l9.977-12.745l30.198,12.352l4.528,18.158L392.021,426.819z M386.486,384.541
	l-8.056-3.292l13.61-13.614l9.42,23.023L386.486,384.541z M371.956,378.598l-18.877-7.737l3.448-25.234l25.12-3.428l7.752,18.965
	L371.956,378.598z M373.61,278.129l13.571,10.504l3.485,2.713l-17.125,13.274l-5.388-13.139L373.61,278.129z M359.327,258.489
	l-1.929-14.142l21.353,2.915l-8.159,19.967L359.327,258.489z M378.829,335.6l-21.344,2.965l1.842-13.544l11.52-8.941L378.829,335.6z
	 M376.438,311.734l20.121-15.616l11.896,9.268l6.145,15.949l-14.142,11.395l-14.61,1.996L376.438,311.734z M396.222,287.109
	l-19.703-15.261l-0.252-0.208l9.58-23.41l14.61,2.002l14.142,11.384l-6.145,15.96L396.222,287.109z M248.021,237.196l-25.153,3.427
	l-7.708-18.83l17.437-17.434l18.845,7.716L248.021,237.196z M212.523,215.317l-9.421-23.017l23.016,9.415L212.523,215.317z
	 M230.434,196.217l-30.723-12.572l-4.562-18.298l5.487-2.905h0.345l11.548-6.228l16.183,6.228h0.225l11.002,4.237l-0.057,17.461
	L230.434,196.217z M197.283,235.8l12.383-9.697l6.315,15.459l-0.027,0.006l0.105,0.246l-14.722,1.999l-13.91,11.204l-7.368-19.151
	L197.283,235.8z M187.427,327.94l13.91,11.198l14.742,2.005l-6.414,15.712l-12.383-9.697l-17.224-0.06L187.427,327.94z
	 M192.219,401.546l-3.148,12.638l-0.045,0.171l-6.285-3.337l-3.34-6.289L192.219,401.546z M189.071,448.185l3.148,12.645
	l-12.818-3.185l3.34-6.29l6.285-3.338L189.071,448.185z M194.449,468.325l12.557,30.719l-12.059,9.453l-17.47,0.058l-10.537-27.423
	l9.205-17.37L194.449,468.325z M162.562,475.04l-6.96-12.933l6.978-1.729l6.849,1.712L162.562,475.04z M162.576,488.533
	l7.698,20.046l-7.254,0.021l-8.157-0.026L162.576,488.533z M163.021,515.331l9.844-0.03l9.064,23.563l-19.35,15.582l-19.357-15.582
	l9.063-23.569L163.021,515.331z M172.262,570.894l-9.683,7.806l-9.7-7.806l9.7-7.81L172.262,570.894z M182.949,570.923h0.078
	l-0.039-0.029l0.039-0.033h-0.078l-15.015-12.099l16.528-13.307l6.033,15.687l12.418,9.68l-0.297,0.219l0.103,0.069l-12.224,9.525
	l-6.033,15.69l-16.528-13.311L182.949,570.923z M187.427,607.358l13.91,11.193l14.722,2.015l-0.105,0.237l0.027,0.005l-6.315,15.458
	l-12.383-9.701l-17.224-0.057L187.427,607.358z M194.948,633.288l12.059,9.454l-12.557,30.72l-18.304,4.553l-9.205-17.363
	l10.537-27.423L194.948,633.288z M192.219,680.948l-3.193,12.818l-6.285-3.339l-3.34-6.289L192.219,680.948z M189.053,727.536
	l0.018,0.062l3.14,12.588l-12.579-3.14l3.332-6.276L189.053,727.536z M191.994,710.591l1.675-6.747l12.755,6.771l-10.739,5.789
	l-1.993,1.054L191.994,710.591z M220.149,710.591l19.816-7.607l0.021,7.163l-0.021,8.07L220.149,710.591z M236.968,663.577
	l15.651-6.405l1.993,14.664l11.212,13.91l-18.949,7.278l-0.045-16.236l-0.222-0.282v-0.612L236.968,663.577z M290.267,716.101
	l11.98,14.884v0.062l0.03-0.033l0.039,0.033v-0.062l0.071-0.111l0.088,0.111v0.062l0.026-0.039l0.027,0.039v-0.062l11.984-14.884
	l13.199,16.382l-15.69,6.032l-9.635,12.374l-9.633-12.374l-15.688-6.032L290.267,716.101z M318.946,710.591l15.528-19.282
	l23.399,8.996l-0.035,9.842l0.035,10.732l-23.399,9.003L318.946,710.591z M338.97,685.746l11.198-13.91l1.993-14.664l15.485,6.342
	l-9.69,12.38l-0.055,17.131L338.97,685.746z M364.817,702.983l19.811,7.613l-19.811,7.633l-0.021-7.182L364.817,702.983z
	 M398.355,710.582l10.777-5.813l1.954-1.021l1.699,6.849l-1.681,6.753L398.355,710.582z M415.759,727.428l6.279,3.343l3.334,6.276
	l-12.818,3.195L415.759,727.428z M415.72,693.655l-0.014-0.058l-3.128-12.584l12.576,3.125l-3.339,6.289L415.72,693.655z
	 M407.278,626.565l-12.384,9.701l-6.419-15.7l14.748-2.015l13.905-11.193l7.371,19.15L407.278,626.565z M417.129,534.429
	l-13.905-11.198l-14.748-2.014l6.419-15.699l12.384,9.7l17.222,0.056L417.129,534.429z M412.342,460.829l3.154-12.645l0.038-0.168
	l6.281,3.338l3.339,6.29L412.342,460.829z M415.496,414.184l-3.154-12.638l12.812,3.183l-3.339,6.289l-6.281,3.337L415.496,414.184z
	 M407.278,347.158l-12.384,9.697l-6.419-15.712l14.748-2.005l13.905-11.198l7.371,19.157L407.278,347.158z M417.129,255.017
	l-13.905-11.204l-14.748-2.014l6.419-15.697l12.384,9.697l17.222,0.066L417.129,255.017z M409.604,229.075l-12.062-9.442
	l12.576-30.729l18.289-4.559l9.216,17.377l-10.543,27.422L409.604,229.075z M412.342,181.418l3.192-12.809l6.281,3.331l3.339,6.288
	L412.342,181.418z M441.979,209.125l7.704,20.033l-8.146,0.03l-7.263-0.018L441.979,209.125z M435.13,182.672l6.849-1.71
	l6.984,1.744l-6.955,12.92L435.13,182.672z M422.062,131.237l-6.566,3.529l-0.457-1.755l-2.697-10.804l12.812,3.19L422.062,131.237z
	 M412.776,151.808l-1.689,6.819l-12.833-6.819l12.833-6.803l1.188,4.748L412.776,151.808z M384.525,151.808l-19.934,7.662
	l-0.027-7.623l0.027-7.698L384.525,151.808z M367.646,198.867l-15.63,6.387v-0.006l-0.069,0.03l-2.01-14.754l-11.194-13.896
	l19.158-7.365l0.055,17.218L367.646,198.867z M357.839,151.706v0.522v0.039v0.039l0.035,9.748l-23.564,9.07l-15.552-19.316
	l12.518-15.537l3.034-3.766l23.564,9.06l-0.035,9.833V151.706z M314.405,146.415l-12.089-15.018v-0.078l-0.039,0.039l-0.03-0.039
	v0.078l-12.092,15.018l-13.263-16.464l15.637-6.014l9.655-12.393l0.068,0.096l0.096-0.129l9.674,12.426l15.639,6.014
	L314.405,146.415z M265.824,176.628l-11.212,13.896l-2.002,14.708l-0.225-0.096v0.057l-15.478-6.326l9.7-12.386l0.045-17.218
	L265.824,176.628z M239.966,159.47l-19.937-7.662l19.937-7.659l0.021,7.698L239.966,159.47z M206.301,151.808l-12.831,6.819
	l-1.695-6.819l0.519-2.055l1.176-4.748L206.301,151.808z M189.071,134.767l-6.573-3.529l-3.097-5.84l12.794-3.19L189.071,134.767z
	 M152.285,235.884l10.735,0.033l9.844-0.033l9.064,23.563l-19.35,15.585l-19.357-15.585L152.285,235.884z M162.579,307.925
	l19.35,15.583l-9.064,23.566l-9.844-0.033l-10.735,0.033l-9.063-23.566L162.579,307.925z M158.204,381.221l-9.343,17.359
	l-11.464-2.863v-41.866l10.273-0.036L158.204,381.221z M152.312,406.363l10.267,2.56l10.099-2.508l5.075,9.538l-0.024,0.024
	l0.036,0.021l0.021,0.039l0.018-0.021l9.544,5.063l-2.521,10.107l0,0l2.521,10.105l-9.544,5.061l-0.018-0.006l-0.027,0.032
	l-0.03,0.019l0.012,0.021l-5.063,9.55l-10.099-2.521l-10.267,2.553l-13.365-24.812L152.312,406.363z M158.204,481.144
	l-10.534,27.411l-10.273-0.039v-41.861l11.464-2.854L158.204,481.144z M145.091,515.268l-7.38,19.161l-0.315-0.247v-18.947
	L145.091,515.268z M140.683,545.455l16.53,13.307l-15.024,12.099h-0.072l0.039,0.033l-0.039,0.029h0.072l15.024,12.092
	l-16.53,13.311l-3.286-8.538v-33.803L140.683,545.455z M162.579,587.331l19.35,15.588l-9.064,23.563l-9.844-0.031l-10.735,0.036
	l-9.063-23.562L162.579,587.331z M163.021,633.183l7.254,0.027l-7.698,20.039l-7.713-20.039L163.021,633.183z M169.428,679.688
	l-6.849,1.717l-6.978-1.735l6.96-12.92L169.428,679.688z M162.579,688.336l10.099-2.514l5.075,9.543l-0.024,0.021l0.036,0.012
	l0.021,0.039l0.018-0.006l9.544,5.061l-2.521,10.099l2.548,10.21l-9.352,4.967l-0.009-0.021l-0.024,0.033l-0.035,0.026l0.015,0.024
	l-5.066,9.538l-10.102-2.515l-10.27,2.56L139.05,710.39l13.263-24.619L162.579,688.336z M169.656,741.491l-6.882,12.959
	l-6.951-12.926l6.978-1.737L169.656,741.491z M162.801,767.945l7.705,20.044l-7.27,0.019l-8.146-0.019L162.801,767.945z
	 M167.162,760.541l9.211-17.371l18.286,4.567l12.579,30.721l-12.056,9.447l-17.485,0.057L167.162,760.541z M197.504,794.625
	l12.374-9.685l6.426,15.687l-14.757,2.006l-13.893,11.203l-7.38-19.15L197.504,794.625z M215.383,780.607l17.383-17.345
	l18.709,7.653l-2.152,15.779l-1.407,9.422l-24.808,3.391L215.383,780.607z M237.133,757.686l9.697-12.38l0.051-17.134l18.943,7.281
	l-11.212,13.898l-1.993,14.667L237.133,757.686z M258.273,773.932l19.502,7.975l-8.821,11.345l-13.568,1.852L258.273,773.932z
	 M259.261,766.741l1.99-14.62l11.327-14.063l15.799,6.062l9.373,12.041l-15.501,19.977L259.261,766.741z M292.812,774.214
	l9.466-11.603l13.067,16.381l-12.957,5.384l-13.295-5.447L292.812,774.214z M306.852,756.386l9.562-12.271l15.786-6.057
	l11.333,14.063l1.996,14.62l-23.251,9.505L306.852,756.386z M346.416,773.77l2.917,21.372l-13.844-1.891l-8.854-11.391
	L346.416,773.77z M338.964,735.453l18.938-7.287l0.055,16.24l0.225,0.288v0.611l9.644,12.309l-15.663,6.404l-1.993-14.667
	L338.964,735.453z M372.188,763.185l17.425,17.423l-7.749,18.964l-25.195-3.434l-3.434-25.192L372.188,763.185z M395.12,784.94
	l12.375,9.685l17.224,0.061l-7.369,19.15l-13.903-11.203l-14.752-2.006L395.12,784.94z M409.832,787.905l-12.056-9.447
	l12.558-30.721l18.298-4.567l9.214,17.371l-10.537,27.421L409.832,787.905z M442.213,767.945l7.707,20.038l-8.161,0.024l-7.25-0.019
	L442.213,767.945z M435.358,741.491l6.854-1.704l6.966,1.737l-6.942,12.926L435.358,741.491z M442.213,732.854l-10.115,2.515
	l-5.065-9.538l0.023-0.024l-0.041-0.015l-0.019-0.045l-0.019,0.021l-9.546-5.069l2.521-10.107l-2.548-10.201l9.349-4.958
	l0.015,0.006l0.022-0.039l0.035-0.012l-0.013-0.021l5.067-9.543l10.099,2.514l10.268-2.565l13.476,25.03l-13.249,24.613
	L442.213,732.854z M446.349,660.633l10.539-27.404l10.49,0.032v41.811l-11.672,2.917L446.349,660.633z M452.279,626.487
	l-10.742-0.036l-9.845,0.031l-9.057-23.563l19.343-15.588l19.352,15.594L452.279,626.487z M447.344,583.015l15.022-12.092h0.074
	l-0.035-0.029l0.035-0.033h-0.074l-15.022-12.099l16.528-13.307l3.506,9.12v32.632l-3.506,9.118L447.344,583.015z M441.979,554.446
	l-19.343-15.582l9.057-23.563l9.845,0.03l10.742-0.036l9.051,23.569L441.979,554.446z M446.349,481.144l9.357-17.343l11.672,2.898
	v41.816l-10.49,0.039L446.349,481.144z M455.706,398.58l-9.357-17.359l10.539-27.407l10.49,0.036v41.816L455.706,398.58z
	 M452.279,347.074l-10.742-0.033l-9.845,0.033l-9.057-23.566l19.343-15.588l19.352,15.588L452.279,347.074z M447.344,303.604
	l15.022-12.095h0.074l-0.035-0.033l0.035-0.033h-0.074l-15.022-12.089l16.528-13.313l3.506,9.118v32.632l-3.506,9.121
	L447.344,303.604z M441.979,275.032l-19.343-15.585l9.057-23.563l9.845,0.033l10.742-0.033l9.051,23.563L441.979,275.032z
	 M458.992,178.267l3.687-6.855c0.548,2.758,1.035,5.492,1.481,8.148L458.992,178.267z M440.802,122.207l-1.372-0.327l-4.187-1.023
	l1.065-2.11l0.682-1.3C438.302,119.028,439.562,120.619,440.802,122.207z M362.788,102.777l4.858,1.996l-9.69,12.374l-0.055,17.131
	l-19.108-7.338l2.128-2.644l9.017-11.194l1.017-7.39l0.993-7.365L362.788,102.777z M346.416,88.605l-19.829-8.124l8.77-11.293
	l13.968-1.903L346.416,88.605z M345.51,95.724l-1.978,14.52l-11.39,14.135l-15.951-6.134l-9.472-12.161l15.45-19.919L345.51,95.724z
	 M302.277,99.755l-13.283-16.291l13.283-5.438l13.014,5.415L302.277,99.755z M297.607,106.394l-9.231,11.852l-15.97,6.134
	l-11.375-14.135l-1.986-14.52l22.974-9.409L297.607,106.394z M258.063,88.521l-0.081-0.496l-2.825-20.679l13.569,1.855l8.821,11.351
	L258.063,88.521z M263.64,124.296l2.128,2.644l-19.115,7.338l-0.045-17.131l-9.7-12.374l4.859-1.996l10.84-4.43l1,7.365l1.006,7.39
	L263.64,124.296z M230.161,63.947l17.771,2.419l1.392,9.382l2.146,15.717l-18.932,7.737l-17.377-17.371l4.574-11.171
	C222.934,68.557,226.452,66.288,230.161,63.947z M209.666,77.521l-0.021-0.018c0.005,0,0.021-0.006,0.033-0.012L209.666,77.521z
	 M169.428,120.958l-4.121,1.018l-0.75-0.405c1.018-1.305,2.053-2.611,3.124-3.91L169.428,120.958z M142.054,171.733l3.511,6.534
	l-4.919,1.221C141.066,176.967,141.538,174.372,142.054,171.733z M145.091,235.852l-7.38,19.166l-0.315-0.258v-18.926
	L145.091,235.852z M137.711,327.94l7.38,19.157l-7.695,0.033v-18.926L137.711,327.94z M145.565,404.69l-8.169,15.172V402.65
	L145.565,404.69z M137.396,442.507l8.169,15.17l-8.169,2.039V442.507z M137.711,607.358l7.38,19.156l-7.695,0.021v-18.923
	L137.711,607.358z M147.669,633.229l10.534,27.404l-9.343,17.355l-11.464-2.86v-41.867L147.669,633.229z M145.565,684.1
	l-8.169,15.177v-17.215L145.565,684.1z M137.396,721.509l8.4,15.582l-8.4,2.099V721.509z M137.396,794.652l7.905,0.023l-7.362,19.16
	l-0.543-0.432V794.652z M190.185,820.428l14.127-11.376l14.271-1.951l5.855,14.337l-33.86,0.007L190.185,820.428z M251.746,820.948
	l2.671-18.733l18.118-2.554l11.729-15.105l18.266,7.149l17.536-7.164l11.741,15.12l18.91,2.617l2.539,18.67l0.571,0.45
	l-102.706,0.033L251.746,820.948z M386.075,807.05l14.608,2.002l14.137,11.376l-0.376,0.959l-34.234,0.006L386.075,807.05z
	 M467.062,813.836l-7.371-19.16l7.687-0.023v18.941L467.062,813.836z M457.113,787.956l-10.547-27.404l9.362-17.343l11.449,2.848
	v41.86L457.113,787.956z M459.208,737.091l8.17-15.171v17.213L459.208,737.091z M467.378,699.688l-8.386-15.588l8.386-2.09V699.688z
	 M459.476,626.515l7.367-19.156l0.535,0.428v18.75L459.476,626.515z M466.843,534.419l-7.367-19.151l7.902-0.033v18.756
	L466.843,534.419z M458.992,457.677l8.386-15.582v17.685L458.992,457.677z M467.378,420.28l-8.386-15.589l8.386-2.091V420.28z
	 M459.476,347.098l7.367-19.157l0.535,0.444v18.746L459.476,347.098z M466.843,255.017l-7.367-19.166l7.902-0.019v18.74
	L466.843,255.017z M302.434,20.222c8.761,5.078,29.265,17.17,49.553,29.556L350.579,60.1l-18.772,2.62l-0.147,0.192h-0.021
	l-11.587,14.907l-17.734-7.125l-18.053,7.119L272.535,62.72l-18.359-2.554l-1.498-10.231
	C273.055,37.464,293.715,25.264,302.434,20.222z"/>
</svg>
