<?xml version="1.0" encoding="utf-8"?>
<!-- Generator: Adobe Illustrator 16.0.0, SVG Export Plug-In . SVG Version: 6.00 Build 0)  -->
<!DOCTYPE svg PUBLIC "-//W3C//DTD SVG 1.1//EN" "http://www.w3.org/Graphics/SVG/1.1/DTD/svg11.dtd">
<svg version="1.1" id="Layer_1" xmlns="http://www.w3.org/2000/svg" xmlns:xlink="http://www.w3.org/1999/xlink" x="0px" y="0px"
	 width="595.28px" height="841.89px" viewBox="0 0 595.28 841.89" enable-background="new 0 0 595.28 841.89" xml:space="preserve">
<linearGradient id="SVGID_1_" gradientUnits="userSpaceOnUse" x1="0" y1="447.0342" x2="592.0762" y2="447.0342">
	<stop  offset="0.0056" style="stop-color:#ECC562"/>
	<stop  offset="1" style="stop-color:#C3922E"/>
</linearGradient>
<path fill="url(#SVGID_1_)" d="M0,151.099V742.97h592.076V151.099H0z M584.55,208.764l-7.074-14.092l-11.798,10.57l-0.964-16.896
	l-15.774,6.017l6.019-15.772l-16.885-0.961l10.553-11.798l-14.327-7.209h50.251V208.764z M16.299,587.274l12.907-5.91V568.02
	l9.162,9.396l13.559-5.577l-6.356,15.729l7.858,6.083h-9.26l-13.606,27.808l-1.639-28.656L16.299,587.274z M26.66,679.342
	l-9.066,8.122l-5.755-11.455l13.112-26.765L26.66,679.342z M16.534,476.312l-3.92-3.918l3.908-3.844h12.685v-12.669l3.881-3.9
	l3.881,3.9v12.669h20.086l-10.733,10.748l5.079,11.463l-11.473-5.072l-10.721,10.718v-20.095H16.534z M16.299,306.475l12.624-5.533
	l1.639-28.646l13.606,27.811h9.26l-7.858,6.06l6.356,15.737l-13.559-5.576l-9.162,9.395V312.4L16.299,306.475z M24.952,244.496
	L11.839,217.74l5.755-11.454l9.066,8.106L24.952,244.496z M576.565,306.475l-12.9,5.925v13.322l-9.165-9.395l-13.558,5.576
	l6.349-15.737l-7.851-6.06h9.248l13.622-27.811l1.627,28.646L576.565,306.475z M566.207,214.393l9.058-8.106l5.745,11.454
	l-13.09,26.755L566.207,214.393z M576.329,417.438l3.882,3.875l-3.882,3.888h-12.664v12.668l-3.891,3.883l-3.879-3.883V425.2
	h-20.089l10.725-10.758l-5.062-11.461l11.456,5.076l10.74-10.73v20.112H576.329z M305.438,714.098l-3.89-3.879l3.89-3.884h12.668
	l0.006-20.099l10.744,10.743l11.459-5.074l-5.069,11.473l10.722,10.72h-20.086v12.689l-3.891,3.871l-3.885-3.871v-12.689H305.438z
	 M296.431,705.181l-6.029-6.028h-8.467l-0.004-20.09l14.492-14.49l14.514,14.498l-0.009,20.082h-8.467L296.431,705.181z
	 M296.438,710.219l-0.006,0.008l-0.009-0.008h0.009H296.438z M246.892,714.098l10.729-10.72l-5.084-11.473l11.471,5.074
	l10.745-10.743l0.006,20.099h12.67l3.876,3.884l-3.876,3.879h-12.67v12.689l-3.847,3.897l-3.916-3.897v-12.689H246.892z
	 M53.949,531.932l19.161-7.895l-8.265-19.523l12.198,5.333l10.631-10.622v34.218l24.131,24.056H97.311l-4.826,12.293l-8.078-19.075
	l-19.447,7.996l7.699-19.075L53.949,531.932z M38.162,446.928l-0.037-0.057l0.037-0.049l5.992-5.984v-8.463h20.093l14.492,14.487
	l-14.505,14.506h-20.08v-8.473L38.162,446.928z M53.949,361.823l18.71-7.714l-7.699-19.081l19.447,8.006l8.078-19.076l4.826,12.285
	h14.495L87.674,360.3v34.23l-10.631-10.627l-12.198,5.324l8.265-19.525L53.949,361.823z M287.429,179.644l3.876,3.896l-3.876,3.866
	h-12.67l-0.006,20.104l-10.745-10.757l-11.471,5.085l5.084-11.467l-10.729-10.727h20.104v-12.668l3.879-3.883l3.883,3.883v12.668
	H287.429z M296.431,188.564l6.03,6.024h8.467l0.009,20.087l-14.499,14.492l-14.507-14.492l0.004-20.087h8.467L296.431,188.564z
	 M296.422,183.54l0.009-0.017l0.006,0.017h-0.006H296.422z M345.968,179.644l-10.722,10.727l5.069,11.467l-11.459-5.085
	l-10.744,10.757l-0.006-20.104h-12.668l-3.883-3.866l3.883-3.896h12.668v-12.686l3.849-3.896l3.927,3.914v12.668H345.968z
	 M538.924,361.823l-19.172,7.879l8.261,19.525l-12.201-5.324l-10.623,10.627v-34.217l-24.058-24.07h14.426l4.819-12.285
	l8.079,19.076l19.446-8.006l-7.697,19.081L538.924,361.823z M554.745,446.871l-6.036,6.024v8.473H528.61l-14.48-14.497
	l14.501-14.496h20.078v8.463L554.745,446.871z M538.924,531.932l-18.72,7.705l7.697,19.075l-19.446-7.996l-8.079,19.075
	l-4.819-12.293h-14.494l24.126-24.056v-34.227l10.623,10.631l12.201-5.333l-8.261,19.523L538.924,531.932z M476.538,626.979
	l-14.331,6.252l-11.826-11.82v-20.634l20.558,0.016l11.853,11.852L476.538,626.979z M479.237,629.695l-0.094-0.05l-0.05-0.103
	l0.092,0.048L479.237,629.695z M486.882,669.716l-29.241-10.275l-7.26,9.395v-13.673l-11.69-4.515l11.69-4.527v-14.562
	l10.213,10.207l11.805-5.148l-4.838,11.5L486.882,669.716z M120.466,636.617l11.806,5.148l10.207-10.207v14.562l11.697,4.527
	l-11.697,4.515v13.673l-7.259-9.395l-29.242,10.275l19.318-21.599L120.466,636.617z M105.978,224.048l29.242,10.261l7.259-9.403
	v13.687l11.697,4.514l-11.702,4.524l0.023,14.57l-10.226-10.222l-11.806,5.146l4.83-11.501L105.978,224.048z M472.398,257.125
	l-11.805-5.146l-10.228,10.222l0.015-14.57l-11.69-4.524l11.69-4.514v-13.687l7.26,9.403l29.241-10.261l-19.321,21.576
	L472.398,257.125z M357.309,593.626l-18.683,18.676h-20.507l-0.017-20.39l27.286-27.256h38.084l14.612,14.605l-14.36,14.364H357.309
	z M376.545,600.803l-11.505,11.499h-16.258l11.497-11.499H376.545z M343.104,557.89l-46.527,46.534l-46.526-46.534h-64.528v-64.533
	l-46.32-46.325l46.32-46.32v-64.925h64.937l46.117-46.128l46.119,46.128h64.929v64.925l46.327,46.32l-46.327,46.325v64.533H343.104z
	 M235.554,593.626h-26.328l-14.377-14.44l14.53-14.529h38.096l27.287,27.271l-0.02,20.374h-20.502L235.554,593.626z
	 M244.082,612.302h-16.26l-11.447-11.499h16.206L244.082,612.302z M131.001,489.064v-20.496h20.419l27.222,27.269l-0.033,38.137
	l-14.564,14.553l-14.386-14.374l0.02-26.404L131.001,489.064z M142.498,510.718l-0.01,16.261l-11.486-11.486v-16.268
	L142.498,510.718z M131.001,404.718l18.678-18.725v-26.324l14.433-14.365l14.53,14.514v38.096l-27.232,27.269h-20.409V404.718z
	 M131.001,394.557v-16.286l11.5-11.459v16.226L131.001,394.557z M235.554,300.114l18.73-18.684h20.589l-0.062,20.352l-27.337,27.295
	l-38.135-0.026l-14.49-14.488l14.377-14.449H235.554z M216.375,292.94l11.447-11.51h16.288l-11.521,11.51H216.375z M357.309,300.114
	h26.416l14.36,14.375l-14.612,14.588h-38.084l-27.332-27.312l-0.074-20.334h20.598L357.309,300.114z M348.756,281.43h16.284
	l11.505,11.51h-16.27L348.756,281.43z M461.86,404.688v20.494l-20.374,0.026l-27.263-27.295l0.032-38.135l14.563-14.57
	l14.359,14.365v26.42L461.86,404.688z M450.366,383.038v-16.282l11.494,11.515v16.26L450.366,383.038z M441.482,468.551
	l20.378,0.018v20.496l-18.682,18.684v26.325l-14.432,14.38l-14.491-14.498l-0.032-38.118L441.482,468.551z M461.86,499.216v16.26
	l-11.494,11.444v-16.202L461.86,499.216z M450.362,537.059l18.687-18.592v-26.435l14.481-14.471l14.5,14.497l-0.023,38.396
	l-27.121,27.043h-20.523V537.059z M483.53,467.405l-14.487,14.483v-20.504l-20.4-0.017l14.494-14.506l-14.483-14.487l20.39-0.019
	v-20.495l14.487,14.479l14.477-14.479l0.039,20.504l20.429,0.01l-14.504,14.496l14.496,14.497l-20.421,0.017l-0.008,20.526
	L483.53,467.405z M498.007,401.713l-14.477,14.484l-14.481-14.484v-26.429l-18.687-18.676v-20.365h20.614l27.03,27.034V401.713z
	 M459.456,314.572l14.487-14.465h16.813l5.589,14.465l-5.689,14.497H473.95L459.456,314.572z M470.97,292.923h-20.641l0.024-20.553
	l11.854-11.85l14.331,6.251l6.253,14.331L470.97,292.923z M443.207,233.656l-14.289,5.534l-19.302-8.185l7.965-19.354l17.194-6.939
	l8.432,10.905V233.656z M443.196,252.545l-0.022,16.848l-14.453,14.453l-14.487-14.489v-16.717l14.496-5.681L443.196,252.545z
	 M428.721,294.002l14.44-14.431l-0.028,20.535h20.655l-14.479,14.465l14.486,14.497h-20.616v20.356l-14.565-14.414l-14.346,14.609
	l0.016-20.543h-20.646l14.738-14.457l-14.494-14.506l20.352-0.03v-20.579L428.721,294.002z M407.053,292.94h-20.348l-18.686-18.676
	h-26.468l-14.476-14.449l14.552-14.544l38.391,0.026l27.034,27.034V292.94z M338.626,238.114h-20.507l-0.007-20.452l12.341-12.337
	l14.189,6.277l6.221,14.275L338.626,238.114z M331.472,245.271l-14.563,14.544l14.474,14.449h-20.6l0.067,20.308l-14.412-14.405
	l-14.425,14.414l0.061-20.317h-20.591l14.464-14.449l-14.525-14.518l20.509-0.035v-20.439l14.507,14.514l14.499-14.488v20.414
	L331.472,245.271z M274.743,238.114h-20.502l-12.239-12.237l6.228-14.275l14.188-6.277l12.335,12.333L274.743,238.114z
	 M265.786,259.815l-14.477,14.449h-26.47l-18.592,18.676h-20.438v-20.522l27.03-27.121h38.429L265.786,259.815z M199.101,300.114
	l-14.39,14.458l14.471,14.462h-20.539v20.635l-14.517-14.51l-14.446,14.378l-0.031-20.47h-20.474l14.458-14.422l-14.554-14.54
	h20.657l-0.033-20.535l14.51,14.506l14.415-14.467v20.504H199.101z M178.627,269.45l-14.423,14.461l-14.516-14.518l-0.021-16.848
	l14.47-5.585l14.491,5.681V269.45z M163.943,239.189l-14.284-5.534v-18.04l8.426-10.905l17.198,6.939l7.964,19.354L163.943,239.189z
	 M130.651,260.521l11.856,11.85l0.035,20.553H121.9l-11.826-11.82l6.252-14.331L130.651,260.521z M133.468,314.646l-14.462,14.422
	h-16.804l-5.684-14.497l5.591-14.465h16.817L133.468,314.646z M121.968,336.244h20.533v20.447l-18.685,18.584v26.473l-14.444,14.479
	l-14.534-14.527l0.015-38.423L121.968,336.244z M109.374,426.385l14.442-14.467v20.438h20.411l-14.499,14.506l14.512,14.522h-20.424
	v20.504l-14.481-14.483l-14.481,14.483v-20.504l-20.463-0.017l14.501-14.506l-14.492-14.487l20.432-0.01l0.002-20.513
	L109.374,426.385z M109.334,477.562l14.481,14.471v26.427l18.663,18.657l-0.011,20.382h-20.5l-27.115-27.043v-38.423
	L109.334,477.562z M133.468,579.104l-14.517,14.514l-16.843,0.031l-5.589-14.479l5.684-14.498h16.804L133.468,579.104z
	 M121.929,600.792l20.55-0.016v20.634l-11.828,11.82l-14.325-6.252l-6.252-14.335L121.929,600.792z M149.66,660.084l14.284-5.519
	l19.305,8.181l-7.964,19.347l-17.198,6.938l-8.426-10.905V660.084z M149.66,641.195v-16.821l14.481-14.466l14.486,14.487v16.705
	l-14.491,5.694L149.66,641.195z M164.141,599.749l-14.481,14.479v-20.652l-20.541,0.034l14.514-14.524l-14.458-14.414h20.47
	l0.011-20.382l14.39,14.394l14.556-14.554l-0.02,20.526h20.646l-14.516,14.514l14.39,14.456l-20.474,0.039v20.571L164.141,599.749z
	 M185.808,600.803h20.438l18.592,18.684h26.422l14.488,14.487l-14.505,14.506l-38.406-0.026l-27.03-27.035V600.803z
	 M254.241,655.636h20.502l0.009,20.447l-12.335,12.343l-14.188-6.278l-6.228-14.274L254.241,655.636z M261.396,648.479
	l14.512-14.506l-14.488-14.487h20.496l0.019-20.399l14.488,14.479l14.505-14.479l0.021,20.399h20.5l-14.486,14.487l14.486,14.479
	h-16.76l-3.752,0.048v20.418l-14.514-14.506l-14.492,14.495v-20.407L261.396,648.479z M318.119,655.636h20.507l12.237,12.237
	l-6.221,14.274l-14.189,6.278l-12.341-12.332L318.119,655.636z M327.118,633.974l14.486-14.487h26.415l18.686-18.684h20.348v20.534
	l-27.034,27.116h-38.414L327.118,633.974z M393.882,593.626l14.411-14.579l-14.655-14.391h20.646l-0.016-20.537l14.465,14.472
	l14.446-14.374v20.455h20.507l-14.453,14.414l14.517,14.524l-20.542-0.034v20.652l-14.556-14.556l-14.418,14.458v-20.505H393.882z
	 M414.233,624.301l14.427-14.467l14.547,14.548v16.813l-14.478,5.6l-14.496-5.694V624.301z M428.918,654.565l14.289,5.519v18.041
	l-8.432,10.905l-17.194-6.938l-7.965-19.347L428.918,654.565z M459.393,579.104l14.471-14.433h16.793l5.689,14.498l-5.589,14.479
	l-16.845-0.031L459.393,579.104z M517.428,501.306l-12.239-12.241v-20.506l20.461-0.008l12.33,12.342l-6.277,14.188L517.428,501.306
	z M525.65,425.191h-20.462v-20.504l12.239-12.26l14.274,6.244l6.277,14.179L525.65,425.191z M512.293,333.696l-8.165-19.32
	l5.51-14.27h18.048l10.903,8.411l-6.93,17.205L512.293,333.696z M504.719,292.923l-4.521,11.688l-4.522-11.688H481.12l10.204-10.2
	l-5.143-11.82l11.492,4.846l21.587-19.329l-10.269,29.233l9.406,7.27H504.719z M496.276,267.359l-14.312-6.024l-6.024-14.301
	l24.996-27.927l35.835-12.577l-12.579,35.837L496.276,267.359z M496.82,212.938l-36.661,12.882l-9.778-12.655v-14.07l35.263-17.266
	l37.135,2.125L496.82,212.938z M443.207,194.606v9.264l-6.077-7.854L421.4,202.36l5.572-13.552l-9.392-9.164h13.327l5.926-12.912
	l5.52,12.642l28.656,1.633L443.207,194.606z M418.49,190.558l-6.398,15.56l-18.972,7.662l-7.754-18.829l6.303-15.306l15.653,0.022
	L418.49,190.558z M389.186,223.104l19.088-7.705l-7.999,19.442l19.07,8.088l-12.292,4.832v14.405l-24.057-24.052h-34.214
	l10.622-10.622l-5.318-12.202l19.513,8.262l7.882-19.167L389.186,223.104z M369.723,214.114l-19.839-8.406l-6.08-13.731
	l12.299-12.311l15.205-0.022l6.305,15.306L369.723,214.114z M249.062,191.977l-6.093,13.731l-19.83,8.406l-7.884-19.164
	l6.308-15.306l15.193,0.022L249.062,191.977z M219.261,223.552l19.527-8.262l-5.326,12.202l10.624,10.622h-34.224l-24.055,24.135
	v-14.488l-12.294-4.832l19.076-8.088l-8.001-19.442l19.08,7.705l7.706-18.719L219.261,223.552z M199.748,213.779l-18.975-7.662
	l-6.399-15.56l11.166-10.892l15.657-0.022l6.297,15.306L199.748,213.779z M165.887,188.808l5.579,13.552l-15.733-6.343l-6.073,7.854
	v-9.264l-27.807-13.6l28.656-1.633l5.529-12.642l5.918,12.912h13.321L165.887,188.808z M142.479,199.095v14.07l-9.771,12.655
	L96.04,212.938l-25.953-28.984l37.138-2.125L142.479,199.095z M116.923,247.034l-6.023,14.301l-14.301,6.024l-27.938-25
	l-12.577-35.841l35.839,12.59L116.923,247.034z M95.188,275.749l11.501-4.846l-5.154,11.82l10.213,10.2H97.184l-4.516,11.688
	l-4.519-11.688h-13.68l9.396-7.27L73.601,256.42L95.188,275.749z M83.228,300.106l5.511,14.27l-8.175,19.32l-19.357-7.974
	l-6.941-17.205l10.916-8.411H83.228z M75.438,392.427l12.237,12.26v20.504H67.22L54.885,412.85l6.273-14.179L75.438,392.427z
	 M67.214,468.551l20.46,0.008v20.506l-12.237,12.241l-14.279-6.226l-6.273-14.188L67.214,468.551z M80.563,560.062l8.175,19.294
	l-5.511,14.293H65.181l-10.916-8.446l6.941-17.184L80.563,560.062z M88.149,600.823l4.519-11.688l4.516,11.696l14.576-0.028
	l-10.224,10.232l5.154,11.802l-11.501-4.83l-21.588,19.32l10.265-29.237l-9.396-7.267H88.149z M96.599,626.382l14.301,6.016
	l6.023,14.312l-24.991,27.929l-35.848,12.587l12.577-35.849L96.599,626.382z M96.04,680.795l36.668-12.874l9.771,12.65v14.074
	l-35.254,17.263l-37.138-2.112L96.04,680.795z M149.66,699.135v-9.264l6.073,7.868l15.733-6.357l-5.579,13.558l9.391,9.158h-13.321
	l-5.918,12.921l-5.529-12.65l-28.656-1.619L149.66,699.135z M174.374,703.191l6.399-15.567l18.975-7.646l7.747,18.812l-6.297,15.3
	l-15.657-0.011L174.374,703.191z M203.669,670.646l-19.08,7.689l8.001-19.443l-19.076-8.07l12.294-4.822V631.58l24.059,24.056
	h34.215l-10.62,10.619l5.326,12.198l-19.527-8.254l-7.886,19.159L203.669,670.646z M223.14,679.641l19.83,8.394l6.093,13.752
	l-12.305,12.293l-15.193,0.011l-6.308-15.3L223.14,679.641z M343.804,701.786l6.08-13.752l19.839-8.394l7.884,19.149l-6.299,15.3
	l-15.205-0.011L343.804,701.786z M373.599,670.199l-19.513,8.254l5.318-12.198l-10.622-10.619h34.214l24.057-24.121v14.484
	l12.292,4.822l-19.07,8.07l7.999,19.443l-19.088-7.689l-7.705,18.713L373.599,670.199z M393.12,679.978l18.972,7.646l6.398,15.567
	l-11.168,10.888l-15.653,0.011l-6.303-15.3L393.12,679.978z M426.973,704.939l-5.572-13.558l15.729,6.357l6.077-7.868v9.264
	l27.803,13.614l-28.656,1.619l-5.52,12.65l-5.926-12.921h-13.327L426.973,704.939z M450.381,694.646v-14.074l9.778-12.65
	l36.661,12.874l25.958,29.001l-37.135,2.112L450.381,694.646z M475.94,646.709l6.024-14.312l14.312-6.016l27.916,24.994
	l12.579,35.849l-35.835-12.587L475.94,646.709z M497.674,618.007l-11.492,4.83l5.143-11.802l-10.224-10.232l14.575,0.028
	l4.522-11.696l4.521,11.688h13.668l-9.395,7.267l10.269,29.237L497.674,618.007z M509.638,593.649l-5.51-14.293l8.165-19.294
	l19.366,7.957l6.93,17.184l-10.903,8.446H509.638z M537.187,562.527l-7.657-18.965l18.822-7.752l15.309,6.294l-0.026,15.664
	l-10.885,11.166L537.187,562.527z M529.197,520.156l8.393-19.821l13.745-6.096l12.299,12.299l0.026,15.205l-15.309,6.297
	L529.197,520.156z M552.925,485.689l-11.456,5.072l5.062-11.463l-10.737-10.748h20.102v-12.669l3.879-3.9l3.891,3.9v12.669h12.664
	l3.882,3.879l-3.882,3.883h-12.664v20.104L552.925,485.689z M563.634,387.195l-12.299,12.306l-13.745-6.094l-8.393-19.82
	l19.154-7.885l15.309,6.3L563.634,387.195z M529.529,350.191l7.646-18.967l15.573-6.417l10.885,11.175l0.026,15.654l-15.309,6.295
	L529.529,350.191z M544.203,292.923h-14.065l-12.649-9.778l12.871-36.664l29-25.95l2.118,37.129L544.203,292.923z M535.289,232.433
	l10.164-28.945h0.01l0.037-0.113l12.605-4.824l0.727,12.812L535.289,232.433z M539.937,197.789l-0.112,0.061l-28.95,10.152
	l21.074-23.543l12.803,0.745L539.937,197.789z M528.909,177.105l-30.117-1.714l26.778-13.099l11.447,5.746L528.909,177.105z
	 M484.17,174.551l-37.002-2.098l-6.051-13.831h75.586L484.17,174.551z M426.299,172.461h-16.043l-13.826-13.839h36.221
	L426.299,172.461z M400.105,172.461h-10.841l-2.399-0.008l-5.385,13.069l-5.369-13.069l-12.821,0.025l13.846-13.856h9.145
	L400.105,172.461z M353.154,172.461h-20.107v-8.454l-5.365-5.386h39.3L353.154,172.461z M310.924,164.028v8.433h-8.463l-6.03,6.034
	l-6.029-6.034h-8.467v-8.454l-5.366-5.386h39.655L310.924,164.028z M259.815,164.007v8.454h-20.108l-13.822-13.839h39.296
	L259.815,164.007z M229.574,172.478l-12.827-0.025l-5.372,13.069l-5.376-13.069l-2.403,0.008h-10.838l13.818-13.839h9.152
	L229.574,172.478z M182.614,172.461H166.56l-6.35-13.839h36.214L182.614,172.461z M145.692,172.453l-37.001,2.098l-32.522-15.929
	h75.573L145.692,172.453z M94.067,175.391l-30.11,1.714l-8.113-9.067l11.456-5.746L94.067,175.391z M60.919,184.459l21.072,23.543
	L53.04,197.85l-0.114-0.061l-4.814-12.585L60.919,184.459z M57.569,232.433l-23.539-21.07l0.723-12.812l12.607,4.824l0.044,0.113
	l0,0L57.569,232.433z M62.507,246.481l12.874,36.664l-12.658,9.778H48.649l-17.256-35.263l2.115-37.129L62.507,246.481z
	 M29.233,335.982l10.885-11.175l15.562,6.417l7.658,18.967l-18.827,7.74l-15.304-6.295L29.233,335.982z M63.668,373.587
	l-8.404,19.82l-13.732,6.094l-12.298-12.306l-0.026-15.193l15.304-6.3L63.668,373.587z M39.927,408.056L51.4,402.98l-5.079,11.461
	L57.066,425.2H36.969v12.668l-3.881,3.883l-3.881-3.883V425.2H16.534l-3.882-3.888l3.882-3.875h12.673v-20.104L39.927,408.056z
	 M29.233,506.538l12.298-12.299l13.732,6.096l8.404,19.821l-19.146,7.884l-15.315-6.297L29.233,506.538z M63.337,543.562
	l-7.658,18.965l-15.562,6.407l-10.885-11.166l-0.026-15.664l15.304-6.294L63.337,543.562z M48.649,600.823h14.074l12.658,9.781
	l-12.874,36.656l-29,25.958l-2.115-37.135L48.649,600.823z M57.569,661.316l-10.166,28.946l0,0l-0.044,0.121L34.753,695.2
	l-0.723-12.808L57.569,661.316z M52.926,695.952l0.114-0.042l28.952-10.17l-21.072,23.548l-12.808-0.741L52.926,695.952z
	 M63.958,716.644l30.11,1.708l-26.767,13.098l-11.456-5.744L63.958,716.644z M108.69,719.19l37.001,2.112l6.188,14.138H75.5
	L108.69,719.19z M166.56,721.282h16.055l14.143,14.158h-36.693L166.56,721.282z M192.758,721.282h10.579h2.662l5.376-13.061
	l5.372,13.061l12.827-0.011l-14.177,14.169h-8.486L192.758,721.282z M239.707,721.282h20.108v8.453l5.695,5.705h-39.962
	L239.707,721.282z M281.935,729.726v-8.443h8.467l6.029-6.026l6.03,6.026h8.463v8.453l5.7,5.705h-40.31L281.935,729.726z
	 M333.047,729.735v-8.453h20.107l14.162,14.158h-39.962L333.047,729.735z M363.29,721.271l12.821,0.011l5.369-13.061l5.385,13.061
	h2.731h10.509l-14.158,14.158h-8.483L363.29,721.271z M410.256,721.282h16.043l6.499,14.158h-36.694L410.256,721.282z
	 M447.168,721.303l37.002-2.112l33.189,16.25h-76.372L447.168,721.303z M498.798,718.352l30.111-1.708l8.108,9.062l-11.447,5.744
	L498.798,718.352z M531.948,709.288l-21.074-23.548l28.95,10.17l0.112,0.042l4.814,12.595L531.948,709.288z M535.289,661.316
	l23.543,21.076l-0.727,12.808l-12.605-4.816l-0.037-0.121h-0.01L535.289,661.316z M530.359,647.261l-12.871-36.656l12.649-9.781
	h14.065l17.274,35.261l-2.118,37.135L530.359,647.261z M548.688,593.649h-9.252l7.854-6.083l-6.349-15.729l13.558,5.577l9.165-9.396
	v13.345l12.9,5.91l-12.628,5.526l-1.627,28.644L548.688,593.649z M567.92,649.244l13.09,26.765l-5.745,11.455l-9.058-8.122
	L567.92,649.244z M568.747,634.618l2.105-37.009l13.697-5.994v75.27L568.747,634.618z M570.837,576.744v-16.056l13.713-13.694
	v36.036L570.837,576.744z M570.837,550.55v-10.577l0.004-2.67l-13.059-5.371l13.059-5.385l-0.014-12.816l13.723,13.665v9.629
	L570.837,550.55z M570.837,503.6v-20.104h8.467l5.246-5.264v39.072L570.837,503.6z M579.304,461.368h-8.467v-8.473l-6.03-6.024
	l6.03-6.033v-8.463h8.467l5.246-5.243v39.478L579.304,461.368z M579.304,410.245h-8.467v-20.082l13.713-13.721v39.059
	L579.304,410.245z M570.827,380.012l0.014-12.816l-13.059-5.373l13.059-5.385l-0.004-2.742v-10.492l13.713,13.699v9.377
	L570.827,380.012z M570.837,333.061v-16.064l13.713-6.286v36.028L570.837,333.061z M570.853,296.131l-2.105-36.999l15.803-32.268
	v75.265L570.853,296.131z M7.527,158.622H58.57l-14.335,7.209l10.555,11.798l-16.891,0.961l6.027,15.772l-15.779-6.017
	l-0.962,16.896l-11.795-10.57l-7.862,15.663V158.622z M7.527,225.25l16.588,33.882l-2.105,36.999l-14.483,6.343V225.25z
	 M7.527,310.337l14.495,6.66v16.064L7.527,347.532V310.337z M7.527,357.679l14.495-14.475v10.839v2.395l13.062,5.385l-13.062,5.373
	l0.018,12.816L7.527,365.498V357.679z M7.527,375.659l14.495,14.504v20.082h-8.458l-6.036,6.048V375.659z M7.527,426.349
	l6.036,6.026h8.458v8.463l6.025,6.024l0.009,0.009l-0.045,0.057l-5.988,5.968v8.473h-8.439l-6.056,5.95V426.349z M7.527,477.462
	l6.036,6.034h8.458v20.095L7.527,518.096V477.462z M7.527,528.253l14.512-14.522l-0.018,12.816l13.062,5.385l-13.062,5.371v2.399
	v10.848L7.527,536.062V528.253z M7.527,546.201l14.495,14.487v16.056l-14.495,6.651V546.201z M7.527,591.276l14.483,6.333
	l2.105,37.009L7.527,668.501V591.276z M7.527,683.428l7.862,15.651l11.795-10.559l0.962,16.884l15.775-6.018l-6.023,15.765
	l16.891,0.97l-10.555,11.794l14.988,7.525H7.527V683.428z M533.646,735.44l14.98-7.525l-10.553-11.794l16.885-0.97l-6.019-15.765
	l15.774,6.018l0.964-16.884l11.798,10.559l7.074-14.096v50.457H533.646z"/>
</svg>
