<?xml version="1.0" encoding="utf-8"?>
<!-- Generator: Adobe Illustrator 16.0.0, SVG Export Plug-In . SVG Version: 6.00 Build 0)  -->
<!DOCTYPE svg PUBLIC "-//W3C//DTD SVG 1.1//EN" "http://www.w3.org/Graphics/SVG/1.1/DTD/svg11.dtd">
<svg version="1.1" id="Layer_1" xmlns="http://www.w3.org/2000/svg" xmlns:xlink="http://www.w3.org/1999/xlink" x="0px" y="0px"
	 width="595.28px" height="841.89px" viewBox="0 0 595.28 841.89" enable-background="new 0 0 595.28 841.89" xml:space="preserve">
<linearGradient id="SVGID_1_" gradientUnits="userSpaceOnUse" x1="0" y1="428.0879" x2="592.0762" y2="428.0879">
	<stop  offset="0.0056" style="stop-color:#ECC562"/>
	<stop  offset="1" style="stop-color:#C3922E"/>
</linearGradient>
<path fill="url(#SVGID_1_)" d="M0,132.315v591.546h592.076V132.315H0z M580.639,166.065l-6.172-6.128h-10.218v-10.223l-5.934-5.963
	h22.323V166.065z M23.193,683.504l-3.01-2.998l20.25-20.242v-29.208l4.231-4.237l14.574,14.577l14.611-14.577l3.01,3.012v17.473
	l17.487,0.018l3.019,3.007L82.783,664.94l14.575,14.57l-4.231,4.246H63.929l-20.245,20.238l-3.004-3.001v-17.481L23.193,683.504z
	 M533.257,594.595l-14.608,14.586l-3.009-3.007v-17.473l-17.49-0.031l-3.007-2.998l14.571-14.613l-14.569-14.575l4.231-4.236h29.192
	l20.243-20.243l3.013,3.001l0.013,17.49h17.472l3.005,2.998l-20.251,20.249v29.201l-4.227,4.229L533.257,594.595z M539.047,617.998
	l-5.814,5.833l-5.8-5.833l5.8-5.835L539.047,617.998z M486.319,641.534l-6.679-6.649h-10.216v-10.217l-6.646-6.67l6.646-6.667
	v-10.227h10.216l6.679-6.648l6.664,6.648h10.224v10.227l6.65,6.667l-6.65,6.67v10.217h-10.224L486.319,641.534z M492.152,664.923
	l-5.833,5.812l-5.838-5.812l5.838-5.802L492.152,664.923z M477.489,679.511l-4.231,4.246h-29.194l-20.249,20.238l-3.006-3.001
	v-17.481l-17.484-0.009l-3.009-2.998l20.253-20.242v-29.208l4.233-4.237l14.569,14.577l14.612-14.577l3.008,3.012v17.473
	l17.493,0.018l3.011,3.007l-14.58,14.613L477.489,679.511z M305.062,650.327l3.017-3.007l17.496-0.018V629.83l2.999-3.012
	l14.615,14.577l14.572-14.577l4.241,4.237v29.208l20.241,20.242l-3.001,2.998l-17.494,0.009v17.481l-3.006,3.001l-20.239-20.238
	h-29.202l-4.227-4.246l14.572-14.57L305.062,650.327z M296.247,641.534l-6.665-6.649h-10.229v-10.217l-6.639-6.67l6.639-6.667
	v-10.227h10.229l6.665-6.648l6.664,6.648h10.233v10.227l6.646,6.667l-6.646,6.67v10.217H302.91L296.247,641.534z M302.08,664.923
	l-5.833,5.812l-5.829-5.812l5.829-5.802L302.08,664.923z M287.42,679.511l-4.233,4.246h-29.198l-20.241,20.238l-3.003-3.001v-17.481
	l-17.493-0.009l-3.001-2.998l20.246-20.242v-29.208l4.238-4.237l14.569,14.577l14.615-14.577l3.003,3.012l0.02,17.49h17.477
	l3.002,3.007l-14.575,14.613L287.42,679.511z M115.002,650.327l3.008-3.007h17.473l0.022-17.49l3.01-3.012l14.613,14.577
	l14.569-14.577l4.231,4.237v29.208l20.252,20.242l-3.005,2.998l-17.481,0.009v17.481l-3.008,3.001l-20.248-20.238h-29.195
	l-4.231-4.246l14.569-14.57L115.002,650.327z M106.179,641.534l-6.663-6.649H89.287v-10.217l-6.65-6.67l6.65-6.667v-10.227h10.229
	l6.663-6.648l6.674,6.648h10.225v10.227l6.642,6.667l-6.642,6.67v10.217h-10.225L106.179,641.534z M112.014,664.923l-5.835,5.812
	l-5.835-5.812l5.835-5.802L112.014,664.923z M76.856,606.183l-3.007,2.998l-14.611-14.586l-14.574,14.577l-4.231-4.229v-29.201
	l-20.25-20.235l3.003-3.012l17.494,0.029v-17.52l3.004-3.001l20.245,20.243h29.198l4.231,4.236l-14.575,14.575l14.575,14.613
	l-3.005,2.998H76.828L76.856,606.183z M65.064,617.998l-5.8,5.833l-5.816-5.833l5.816-5.835L65.064,617.998z M59.238,261.265
	l14.611-14.578l3.01,3v17.481l17.487,0.009l3.019,3.021L82.783,284.81l14.575,14.565l-4.231,4.229H63.929l-20.245,20.269
	l-3.004-3.022v-17.459l-17.487-0.03l-3.01-2.991l20.25-20.237v-29.217l4.231-4.229L59.238,261.265z M53.448,237.868l5.816-5.833
	l5.8,5.833l-5.8,5.829L53.448,237.868z M106.179,214.324l6.674,6.637h10.225v10.236l6.642,6.671l-6.642,6.667v10.236h-10.225
	l-6.674,6.642l-6.663-6.642H89.287v-10.236l-6.65-6.667l6.65-6.671v-10.236h10.229L106.179,214.324z M100.344,190.944l5.835-5.811
	l5.835,5.811l-5.835,5.802L100.344,190.944z M115.011,176.349l4.231-4.229h29.195l20.248-20.254l3.008,3.017l0.015,17.481h17.466
	l3.005,3.007l-20.252,20.242v29.195l-4.231,4.238l-14.569-14.583l-14.613,14.583l-3.001-3.008v-17.473l-17.501-0.017l-3.01-3.008
	l14.578-14.622L115.011,176.349z M287.421,205.54l-3.014,3.008l-17.486,0.017v17.473l-3.003,3.008l-14.615-14.583l-14.569,14.583
	l-4.238-4.238v-29.195l-20.246-20.242l3.001-3.007h17.473l0.02-17.481l3.003-3.017l20.241,20.254h29.198l4.233,4.229l-14.574,14.569
	L287.421,205.54z M296.247,214.324l6.664,6.637h10.233v10.236l6.646,6.671l-6.646,6.667v10.236H302.91l-6.664,6.642l-6.665-6.642
	h-10.229v-10.236l-6.639-6.667l6.639-6.671v-10.236h10.229L296.247,214.324z M290.418,190.944l5.829-5.811l5.833,5.811l-5.833,5.802
	L290.418,190.944z M305.074,176.349l4.227-4.229h29.202l20.239-20.254l3.006,3.007v17.508l17.497-0.017l2.998,3.007l-20.241,20.242
	v29.195l-4.241,4.238l-14.572-14.583l-14.615,14.583l-2.999-3.008l0.034-17.499h-17.539l-3.008-2.999l14.585-14.622L305.074,176.349
	z M477.495,205.54l-3.001,2.999h-17.537l0.034,17.499l-3.008,3.008l-14.612-14.583l-14.569,14.583l-4.233-4.238v-29.195
	l-20.253-20.242l3.002-3.007l17.491,0.017v-17.508l3.006-3.007l20.249,20.254h29.194l4.231,4.229l-14.574,14.569L477.495,205.54z
	 M486.319,214.324l6.664,6.637h10.224v10.236l6.65,6.671l-6.65,6.667v10.236h-10.224l-6.664,6.642l-6.679-6.642h-10.216v-10.236
	l-6.646-6.667l6.646-6.671v-10.236h10.216L486.319,214.324z M480.481,190.944l5.838-5.811l5.833,5.811l-5.833,5.802L480.481,190.944
	z M509.857,427.934l-6.65,6.668v10.235h-10.224l-6.664,6.642l-6.679-6.642h-10.216v-10.235l-6.646-6.668l6.646-6.667v-10.228h10.216
	l6.679-6.641l6.664,6.641h10.224v10.228L509.857,427.934z M486.319,547.708l-7.892-7.879h-29.215l-16.851-16.855l16.851-16.859
	h29.215l7.892-7.881l7.88,7.881h29.215l16.859,16.859l-16.859,16.855h-29.215L486.319,547.708z M492.152,571.074l-5.833,5.817
	l-5.838-5.817l5.838-5.811L492.152,571.074z M456.991,606.183l-3.008,2.998l-14.612-14.586l-14.569,14.577l-4.233-4.229v-29.201
	l-20.253-20.235l3.002-3.012l17.491,0.029v-17.52l3.006-3.001l20.249,20.243h29.194l4.231,4.236l-14.574,14.575l14.58,14.613
	l-3.001,2.998h-17.537L456.991,606.183z M445.197,617.998l-5.805,5.833l-5.807-5.833l5.807-5.835L445.197,617.998z M343.188,594.595
	l-14.615,14.586l-2.999-2.998l0.034-17.513h-17.539l-3.008-2.998l14.585-14.613l-14.572-14.575l4.227-4.236h29.202l20.239-20.243
	l3.006,3.001v17.52l17.497-0.029l2.998,3.012l-20.241,20.235v29.201l-4.241,4.229L343.188,594.595z M348.976,617.998l-5.812,5.833
	l-5.804-5.833l5.804-5.835L348.976,617.998z M296.247,547.708l-7.887-7.879h-29.217l-28.399-28.899l-0.02-17.481h-17.473
	l-28.897-28.409v-29.217l-7.878-7.889l7.878-7.888v-29.208l28.897-28.4l17.493-0.027v-17.463l28.399-28.899h29.217l7.887-7.889
	l7.891,7.889h29.208l28.402,28.899v17.463l17.494,0.027l28.9,28.4v29.208l7.877,7.888l-7.877,7.889v29.217l-28.897,28.409
	l-17.497-0.031v17.513l-28.402,28.899h-29.208L296.247,547.708z M302.08,571.074l-5.833,5.817l-5.829-5.817l5.829-5.811
	L302.08,571.074z M249.303,594.595l-14.569,14.577l-4.238-4.229v-29.201l-20.246-20.235l3.001-3.012h17.473l0.02-17.49l3.003-3.001
	l20.241,20.243h29.198l4.233,4.236l-14.574,14.575l14.575,14.613l-3.014,2.998l-17.486,0.031v17.473l-3.003,3.007L249.303,594.595z
	 M255.127,617.998l-5.807,5.833l-5.802-5.833l5.802-5.835L255.127,617.998z M153.127,594.595l-14.613,14.586l-3.001-3.007v-17.473
	l-17.501-0.031l-3.01-2.998l14.578-14.613l-14.569-14.575l4.231-4.236h29.195l20.248-20.243l3.008,3.001l0.015,17.49h17.466
	l3.005,3.012l-20.252,20.235v29.201l-4.231,4.229L153.127,594.595z M158.913,617.998l-5.807,5.833l-5.802-5.833l5.802-5.835
	L158.913,617.998z M106.179,547.708l-7.884-7.879H69.08l-16.855-16.855l16.855-16.859h29.215l7.884-7.881l7.889,7.881h29.216
	l16.855,16.859l-16.855,16.855h-29.216L106.179,547.708z M112.014,571.074l-5.835,5.817l-5.835-5.817l5.835-5.811L112.014,571.074z
	 M82.637,427.934l6.65-6.667v-10.228h10.229l6.663-6.641l6.674,6.641h10.225v10.228l6.642,6.667l-6.642,6.668v10.235h-10.225
	l-6.674,6.642l-6.663-6.642H89.287v-10.235L82.637,427.934z M106.179,308.159l7.889,7.889h29.216l16.86,16.855l-16.86,16.86h-29.216
	l-7.889,7.88l-7.884-7.88H69.08l-16.855-16.86l16.855-16.855h29.215L106.179,308.159z M100.344,284.779l5.835-5.794l5.835,5.794
	l-5.835,5.82L100.344,284.779z M153.127,261.265l14.569-14.578l4.231,4.229v29.217l20.252,20.237l-3.005,2.991l-17.481,0.03v17.459
	l-3.008,3.022l-20.248-20.269h-29.195l-4.231-4.229l14.569-14.565l-14.578-14.613l3.008-3.021h17.473l0.022-17.481l3.01-3.008
	L153.127,261.265z M147.303,237.868l5.802-5.833l5.807,5.833l-5.807,5.829L147.303,237.868z M249.303,261.265l14.615-14.578
	l3.003,3.008l0.02,17.481h17.477l3.002,3.021l-14.575,14.613l14.574,14.565l-4.233,4.229h-29.198l-20.241,20.269l-3.003-3.022
	v-17.459l-17.493-0.03l-3.001-2.991l20.246-20.237v-29.217l4.238-4.229L249.303,261.265z M243.519,237.868l5.802-5.833l5.807,5.833
	l-5.807,5.829L243.519,237.868z M218.315,315.787v10.227l6.845,6.89l-6.845,6.885v10.227h-10.216l-6.887,6.837l-6.872-6.837h-10.229
	v-10.227l-6.841-6.885l6.841-6.89v-10.227h10.229l6.872-6.837l6.887,6.837H218.315z M115.002,460.271l3.01-3.009l17.501-0.029
	V439.77l3.001-3.009l14.613,14.569l14.569-14.569l4.231,4.238v29.19l20.252,20.25l-3.005,3.009h-17.466l-0.015,17.481l-3.008,3.007
	l-20.248-20.249h-29.195l-4.231-4.239l14.569-14.563L115.002,460.271z M147.303,427.934l5.802-5.829l5.807,5.829l-5.807,5.851
	L147.303,427.934z M171.928,414.877l-4.231,4.229l-14.569-14.569l-14.613,14.578l-3.01-3.008l-0.022-17.486H118.01l-3.008-3.016
	l14.578-14.613l-14.569-14.565l4.231-4.242h29.195l20.248-20.237l3.008,2.999v17.463l17.481,0.027l3.005,3.007l-20.252,20.242
	V414.877z M112.014,381.018l-5.835,5.794l-5.835-5.794l5.835-5.82L112.014,381.018z M112.014,474.858l-5.835,5.811l-5.835-5.811
	l5.835-5.812L112.014,474.858z M184.111,540.064v-10.211l-6.833-6.88l6.833-6.895V505.87h10.229l6.872-6.854l6.887,6.854h10.216
	v10.209l6.842,6.895l-6.842,6.88v10.211h-10.216l-6.887,6.846l-6.872-6.846H184.111z M290.418,284.779l5.829-5.794l5.833,5.794
	l-5.833,5.82L290.418,284.779z M343.188,261.265l14.572-14.578l4.241,4.229v29.217l20.241,20.237l-3.001,2.991l-17.494,0.03v17.459
	l-3.006,3.022l-20.239-20.269h-29.202l-4.227-4.229l14.572-14.565l-14.585-14.613l3.017-3.021l17.496-0.009v-17.481l2.999-3
	L343.188,261.265z M337.36,237.868l5.804-5.833l5.812,5.833l-5.812,5.829L337.36,237.868z M439.371,261.265l14.612-14.578l3.008,3
	v17.481l17.493,0.009l3.011,3.021l-14.58,14.613l14.574,14.565l-4.231,4.229h-29.194l-20.249,20.269l-3.006-3.022v-17.459
	l-17.484-0.03l-3.009-2.991l20.253-20.237v-29.217l4.233-4.229L439.371,261.265z M433.586,237.868l5.807-5.833l5.805,5.833
	l-5.805,5.829L433.586,237.868z M477.495,395.605l-3.011,3.016l-17.493,0.014v17.473l-3.008,3.008l-14.612-14.578l-14.569,14.569
	l-4.233-4.229v-29.191l-20.253-20.242l3.009-3.007l17.484-0.027v-17.463l3.006-2.999l20.249,20.237h29.194l4.231,4.242
	l-14.574,14.565L477.495,395.605z M477.489,489.448l-4.231,4.239h-29.194l-20.249,20.249l-3.006-3.007v-17.513l-17.491,0.031
	l-3.002-3.009l20.253-20.25v-29.19l4.233-4.238l14.569,14.569l14.612-14.569l3.008,3.009l-0.034,17.493h17.537l3.001,3.009
	l-14.58,14.613L477.489,489.448z M433.586,427.934l5.807-5.829l5.805,5.829l-5.805,5.851L433.586,427.934z M408.389,315.787v10.227
	l6.842,6.89l-6.842,6.885v10.227h-10.23l-6.881,6.837l-6.876-6.837H374.17v-10.227l-6.842-6.885l6.842-6.89v-10.227h10.231
	l6.876-6.837l6.881,6.837H408.389z M374.17,540.064v-10.211l-6.837-6.88l6.837-6.895V505.87h10.231l6.876-6.854l6.881,6.854h10.23
	v10.209l6.838,6.895l-6.838,6.88v10.211h-10.23l-6.881,6.846l-6.876-6.846H374.17z M480.481,474.858l5.838-5.812l5.833,5.812
	l-5.833,5.811L480.481,474.858z M480.481,381.018l5.838-5.82l5.833,5.82l-5.833,5.794L480.481,381.018z M486.319,357.643
	l-7.892-7.88h-29.215l-16.851-16.86l16.851-16.855h29.215l7.892-7.889l7.88,7.889h29.215l16.859,16.855l-16.859,16.86h-29.215
	L486.319,357.643z M480.481,284.779l5.838-5.794l5.833,5.794l-5.833,5.82L480.481,284.779z M408.143,200.763v29.217l7.877,7.889
	l-7.877,7.889v29.208l-16.865,16.855l-16.851-16.846v-29.217l-7.892-7.889l7.892-7.889v-29.217l16.851-16.86L408.143,200.763z
	 M218.061,200.763v29.217l7.892,7.889l-7.892,7.889v29.217l-16.849,16.846l-16.857-16.846v-29.217l-7.878-7.889l7.878-7.889v-29.217
	l16.857-16.852L218.061,200.763z M40.68,344.947l3.004-2.999l20.245,20.237h29.198l4.231,4.242l-14.575,14.565l14.582,14.613
	l-3.019,3.016l-17.487,0.014v17.473l-3.01,3.008l-14.611-14.578l-14.574,14.569l-4.231-4.229v-29.191l-20.25-20.242l3.01-3.007
	l17.487-0.027V344.947z M65.064,427.934l-5.8,5.851l-5.816-5.851l5.816-5.829L65.064,427.934z M40.433,440.999l4.231-4.238
	l14.574,14.569l14.611-14.569l3.007,3.009l-0.028,17.493h17.525l3.012,3.009l-14.582,14.613l14.575,14.563l-4.231,4.239H63.929
	l-20.245,20.249l-3.004-3.007v-17.513l-17.494,0.031l-3.003-3.009l20.25-20.25V440.999z M184.354,655.097v-29.208l-7.878-7.891
	l7.878-7.888v-29.217l16.857-16.859l16.849,16.859v29.217l7.892,7.888l-7.892,7.891v29.208l-16.849,16.859L184.354,655.097z
	 M374.427,655.097v-29.208l-7.892-7.891l7.892-7.888v-29.217l16.851-16.859l16.865,16.859v29.217l7.877,7.888l-7.877,7.891v29.208
	l-16.865,16.859L374.427,655.097z M551.824,510.93l-3.013,3.007l-20.243-20.249h-29.192l-4.231-4.239l14.569-14.563l-14.571-14.613
	l3.007-3.009l17.49-0.029V439.77l3.009-3.009l14.612,14.569l14.575-14.569l4.227,4.238v29.19l20.251,20.25l-3.005,3.009h-17.472
	L551.824,510.93z M527.433,427.934l5.8-5.829l5.814,5.829l-5.814,5.851L527.433,427.934z M552.062,414.877l-4.227,4.229
	l-14.575-14.569l-14.612,14.578l-3.009-3.008l-0.023-17.486h-17.467l-3.007-3.016l14.571-14.613l-14.569-14.565l4.231-4.242h29.192
	l20.243-20.237l3.004,2.999v17.463l17.493,0.027l3.005,3.007l-20.251,20.242V414.877z M551.815,320.85l-3.004,3.022l-20.243-20.269
	h-29.192l-4.231-4.229l14.569-14.565l-14.571-14.613l3.007-3.021h17.467l0.023-17.481l3.009-3.008l14.612,14.578l14.575-14.578
	l4.227,4.229v29.217l20.251,20.237l-3.005,2.991l-17.493,0.03V320.85z M527.433,237.868l5.8-5.833l5.814,5.833l-5.814,5.829
	L527.433,237.868z M552.062,224.808l-4.227,4.238l-14.575-14.583l-14.612,14.583l-3.009-3.008v-17.473l-17.49-0.017l-3.007-3.008
	l14.571-14.622l-14.569-14.569l4.231-4.229h29.192l20.243-20.254l3.013,3.017l0.013,17.481h17.472l3.005,3.007l-20.251,20.242
	V224.808z M523.414,159.688h-29.215l-7.88,7.876l-7.892-7.876h-29.215l-15.938-15.938h106.079L523.414,159.688z M408.389,149.714
	v10.223h-10.23l-6.881,6.837l-6.876-6.837H374.17v-10.223l-5.922-5.963h46.065L408.389,149.714z M333.346,159.688h-29.208
	l-7.891,7.876l-7.887-7.876h-29.217l-15.931-15.938h106.081L333.346,159.688z M218.315,149.714v10.223h-10.216l-6.887,6.828
	l-6.872-6.828h-10.229v-10.223l-5.924-5.963h46.053L218.315,149.714z M143.285,159.688h-29.216l-7.889,7.876l-7.884-7.876H69.08
	L53.142,143.75h106.081L143.285,159.688z M40.68,154.873l3.004-3.007l20.245,20.254h29.198l4.231,4.229l-14.575,14.569
	l14.582,14.622l-3.012,2.999H76.828l0.028,17.499l-3.007,3.008l-14.611-14.583l-14.574,14.583l-4.231-4.238v-29.195l-20.25-20.242
	l3.003-3.007l17.494,0.017V154.873z M28.004,200.763v29.217l7.887,7.889l-7.887,7.889v29.217l-16.566,16.569V184.189L28.004,200.763
	z M18.029,315.787h10.225v10.227l6.844,6.89l-6.844,6.885v10.227H18.029l-6.592,6.546v-47.325L18.029,315.787z M28.004,390.837
	v29.208l7.887,7.888l-7.887,7.889v29.217l-16.566,16.56V374.268L28.004,390.837z M18.029,505.87h10.225v10.209l6.835,6.895
	l-6.835,6.88v10.211H18.029l-6.592,6.553v-47.302L18.029,505.87z M28.004,580.894v29.217l7.887,7.888l-7.887,7.891v29.208
	l-16.566,16.578V564.333L28.004,580.894z M69.08,696.179h29.215l7.884-7.888l7.889,7.888h29.216l16.243,16.243H52.839L69.08,696.179
	z M184.111,706.154v-10.215h10.229l6.872-6.846l6.887,6.846h10.216v10.215l6.235,6.268h-46.668L184.111,706.154z M259.143,696.179
	h29.217l7.887-7.888l7.891,7.888h29.208l16.247,16.243H242.901L259.143,696.179z M374.17,706.154v-10.215h10.231l6.876-6.859
	l6.881,6.859h10.23v10.215l6.225,6.268h-46.669L374.17,706.154z M449.213,696.179h29.215l7.892-7.888l7.88,7.888h29.215
	l16.242,16.243h-106.68L449.213,696.179z M551.815,700.994l-3.004,3.001l-20.243-20.238h-29.192l-4.231-4.246l14.569-14.57
	l-14.571-14.613l3.007-3.007h17.467l0.023-17.49l3.009-3.012l14.608,14.577l14.579-14.577l4.227,4.237v29.208l20.251,20.242
	l-3.005,2.998l-17.493,0.009V700.994z M564.492,655.097v-29.208l-7.881-7.891l7.881-7.888v-29.217l16.146-16.143v106.497
	L564.492,655.097z M574.467,540.064h-10.218v-10.211l-6.842-6.88l6.842-6.895V505.87h10.218l6.172-6.137v46.468L574.467,540.064z
	 M564.492,465.039v-29.217l-7.881-7.889l7.881-7.888v-29.208l16.146-16.143v106.488L564.492,465.039z M574.467,350.015h-10.218
	v-10.227l-6.842-6.885l6.842-6.89v-10.227h10.218l6.172-6.12v46.477L574.467,350.015z M564.492,274.974v-29.217l-7.881-7.889
	l7.881-7.889v-29.217l16.146-16.143v106.492L564.492,274.974z M34.183,143.75l-5.929,5.963v10.223H18.029l-6.592,6.559V143.75
	H34.183z M11.438,689.373l6.592,6.566h10.225v10.215l6.23,6.268H11.438V689.373z M558.02,712.422l6.229-6.268v-10.215h10.218
	l6.172-6.142v22.624H558.02z"/>
</svg>
