<?xml version="1.0" encoding="utf-8"?>
<!-- Generator: Adobe Illustrator 16.0.0, SVG Export Plug-In . SVG Version: 6.00 Build 0)  -->
<!DOCTYPE svg PUBLIC "-//W3C//DTD SVG 1.1//EN" "http://www.w3.org/Graphics/SVG/1.1/DTD/svg11.dtd">
<svg version="1.1" id="Layer_1" xmlns="http://www.w3.org/2000/svg" xmlns:xlink="http://www.w3.org/1999/xlink" x="0px" y="0px"
	 width="595.28px" height="841.89px" viewBox="0 0 595.28 841.89" enable-background="new 0 0 595.28 841.89" xml:space="preserve">
<linearGradient id="SVGID_1_" gradientUnits="userSpaceOnUse" x1="128.8154" y1="420.6353" x2="449.0127" y2="420.6353">
	<stop  offset="0.0056" style="stop-color:#ECC562"/>
	<stop  offset="1" style="stop-color:#C3922E"/>
</linearGradient>
<path fill="url(#SVGID_1_)" d="M449.013,330.044l-40.373-50.014c2.671-2.5,4.854-6.515,4.854-12.7
	c0-6.878-2.981-11.344-6.303-13.998c2.975-5.458,6.648-15.106,5.346-27.63c-2.083-19.731-21.027-28.206-39.355-36.422l-2.812-1.244
	c-1.667-0.751-3.316-1.497-4.988-2.213c-16.176-7.142-30.154-13.304-32.309-27.619c-0.856-5.833,4.603-19.038,16.21-39.286
	c1.01-1.696,1.708-2.929,2.013-3.545l0.136-0.264c3.134-6.238,5.457-15.523-10.652-24.097c-8.803-4.701-16.92-6.673-22.237-7.488
	c1.361-6.65,1.585-14.461-3.709-17.636c-3.286-1.966-8.233-3.815-11.602-4.947v-1.104c10.346-5.194,17.482-15.881,17.482-28.229
	c0-17.431-14.18-31.61-31.598-31.61C271.686,0,257.5,14.179,257.5,31.61c0,12.207,6.96,22.771,17.073,28.041v1.292
	c-3.345,1.132-8.292,2.981-11.591,4.947c-5.282,3.175-5.059,10.986-3.704,17.636c-5.317,0.815-13.451,2.787-22.225,7.488
	c-16.116,8.574-13.814,17.859-10.664,24.097l0.135,0.264c0.311,0.617,1.004,1.849,1.983,3.545
	c11.649,20.248,17.102,33.452,16.233,39.286c-2.154,14.314-16.127,20.477-32.314,27.619c-1.649,0.716-3.315,1.461-4.989,2.213
	l-2.787,1.255c-18.346,8.205-37.291,16.68-39.368,36.411c-1.327,12.524,2.383,22.172,5.347,27.63
	c-3.299,2.653-6.297,7.119-6.297,13.998c0,6.186,2.183,10.2,4.853,12.7l-40.371,50.014v243.461l35.905,52.544
	c-3.609,2.642-6.942,7.113-6.942,14.12c0,6.79,3.104,11.216,6.608,13.874c-4.138,6.373-8.856,18.029-2.466,32.947
	c6.885,16.033,22.185,22.514,34.468,27.72c4.319,1.807,8.381,3.521,11.409,5.393c8.95,5.511,16.984,13.886,19.989,17.189
	c-0.2,7.406,0.088,32.097,11.685,44.573c9.667,10.411,28.229,16.31,37.807,18.787c0.03,0,0.047,0.011,0.047,0.011h0.012
	c0.704,0.165,1.349,0.329,1.93,0.494v4.601c-5.599,3.27-9.419,9.296-9.519,16.198c-0.123,10.511,8.322,19.18,18.845,19.313h0.241
	c10.371,0,18.945-8.433,19.08-18.82c0.076-7.043-3.691-13.259-9.355-16.627v-4.665c0.593-0.165,1.232-0.329,1.919-0.494l0,0
	c0.017,0,0.047-0.011,0.053-0.011c9.59-2.478,28.147-8.376,37.818-18.787c11.591-12.488,11.872-37.167,11.69-44.585
	c2.993-3.292,10.993-11.656,19.966-17.178c3.046-1.872,7.107-3.586,11.421-5.393c12.295-5.206,27.602-11.674,34.462-27.72
	c6.403-14.918,1.666-26.574-2.453-32.947c3.485-2.658,6.602-7.084,6.602-13.874c0-7.007-3.32-11.479-6.942-14.12l35.918-52.544
	V330.044z M431.582,324.311l-65.396-12.788l-18.91-41.487l50.937,12.923L431.582,324.311z M311.142,773.768
	c-1.948,9.684-11.426,15.869-14.267,17.53c-2.546,0.64-4.161,0.969-4.243,0.979l-3.714,0.717l-3.739-0.717
	c-0.053-0.011-1.685-0.34-4.237-0.979c-2.87-1.672-12.318-7.863-14.261-17.53c-1.743-8.769-1.121-20.98-0.528-28.111
	c7.624,0.581,15.182,0.868,22.765,0.868c7.559,0,15.135-0.299,22.748-0.868C312.275,752.787,312.891,764.988,311.142,773.768z
	 M312.861,735.368l-0.282,0.229c-15.881,1.268-31.462,1.268-47.331,0l-0.282-0.229c-5.552-4.524-21.069-18.047-26.052-25.917
	c-9.402-14.766-1.35-29.391,2.054-34.396h95.879c3.41,5.018,11.461,19.643,2.065,34.396
	C333.907,717.321,318.414,730.844,312.861,735.368z M337.922,665.095h-98.01c-2.236-1.531-7.489-5.786-6.808-11.215
	c0.458-3.65,4.671-7.735,7.119-9.736l97.469,0.076c2.659,2.165,6.59,6.215,7.031,9.66
	C345.397,659.309,340.157,663.563,337.922,665.095z M336.144,634.26h-94.459l-18.962-42.442l132.33,0.058L336.144,634.26z
	 M138.757,567.819V335.896l71.353-13.938v258.979L138.757,567.819z M247.26,195.296c3.809-5.563,11.984-11.573,16.919-15.687
	c7.641-6.397,10.564-13,11.902-23.804c1.145-9.103-2.283-16.474-5.581-23.628c-2.882-6.15-5.587-11.972-5.587-19.044
	c0-10.136,6.79-17.202,10.399-20.248h27.231c3.598,3.028,10.353,10.036,10.353,20.248c0,7.072-2.688,12.894-5.563,19.044
	c-3.31,7.154-6.749,14.525-5.593,23.628c1.332,10.804,6.279,19.156,13.956,25.553c4.911,4.102,9.366,8.639,13.182,14.185
	c6.367,9.272,8.814,24.667,7.301,34.109h-94.541C240.135,220.209,240.892,204.552,247.26,195.296z M277.954,82.932
	c-0.311-0.569-0.845-2.054-0.117-5.018c0.968-3.797,2.829-6.731,4.043-8.392h14.067c1.226,1.661,3.075,4.595,4.026,8.392
	c0.745,2.964,0.223,4.443-0.105,5.018H277.954z M234.965,248.327c0.469-3.762,3.034-7.043,4.583-8.715h98.72
	c1.685,1.837,4.126,5.171,4.566,8.727c0.346,2.693-3.128,6.802-6.122,9.354h-95.591
	C238.116,255.129,234.642,251.032,234.965,248.327z M242.588,267.629h92.652l19.801,43.4l-132.213-0.088L242.588,267.629z
	 M220.069,581.945V320.889h137.688v261.056H220.069z M367.711,321.957l71.342,13.938v231.924l-71.342,13.117V321.957z
	 M400.987,273.405l-52.743-13.381c2.729-3.486,5.076-8.035,4.484-12.941c-0.129-1.098-0.399-2.154-0.692-3.169l47.004,16.133
	c0.169,0.041,4.513,1.056,4.513,7.283C403.553,271.544,401.927,272.923,400.987,273.405z M336.097,99.781
	c9.378,5.018,8.099,7.583,6.448,10.852l-0.151,0.288c-0.247,0.516-0.868,1.579-1.708,3.046
	c-9.519,16.574-19.062,34.972-17.447,45.712c2.963,19.743,20.845,27.619,38.123,35.236c1.644,0.733,3.292,1.461,4.941,2.201
	l2.794,1.262c17.213,7.682,32.056,14.349,33.534,28.358c1.132,10.687-2.271,18.575-4.524,22.483l-52.115-17.906
	c1.467-9.185,0.006-28.435-8.903-41.416c-4.596-6.65-9.836-11.843-15.018-16.187c-7.02-5.857-9.596-12.219-10.465-19.138
	c-0.763-6.274,1.796-11.796,4.748-18.199c3.046-6.538,6.502-13.968,6.502-23.24c0-8.264-3.027-14.913-6.549-19.878
	C320.638,93.848,327.979,95.45,336.097,99.781z M267.442,31.61c0-11.932,9.725-21.65,21.674-21.65
	c11.931,0,21.644,9.719,21.644,21.65c0,7.3-3.638,13.779-9.196,17.688H276.65C271.105,45.389,267.442,38.91,267.442,31.61z
	 M175.197,226.736c1.461-14.009,16.31-20.676,33.505-28.358l2.829-1.262c1.632-0.74,3.293-1.467,4.93-2.201
	c17.29-7.618,35.161-15.494,38.124-35.236c1.625-10.74-7.911-29.138-17.448-45.712c-0.833-1.467-1.456-2.53-1.714-3.046
	l-0.152-0.288c-1.62-3.269-2.929-5.833,6.461-10.852c8.022-4.267,15.423-5.897,19.772-6.502c-3.503,4.953-6.549,11.608-6.549,19.854
	c0,9.272,3.463,16.703,6.52,23.24c2.97,6.403,5.517,11.925,4.742,18.199c-0.863,6.919-1.396,11.544-8.421,17.418
	c-5.2,4.326-14.15,10.993-18.745,17.642c-8.915,13.017-8.703,32.495-7.213,41.68l-52.133,17.906
	C177.468,245.311,174.076,237.399,175.197,226.736z M178.8,260.047l46.992-16.133c-0.312,1.015-0.552,2.071-0.693,3.169
	c-0.616,4.906,1.743,9.455,4.478,12.941l-52.772,13.381c-0.904-0.452-2.524-1.837-2.524-6.074
	C174.281,261.673,177.802,260.311,178.8,260.047z M179.599,282.958l50.947-12.923l-18.921,41.487l-65.385,12.788L179.599,282.958z
	 M144.638,579.023l66.969,12.312l18.511,41.451l-55.097-9.309L144.638,579.023z M172.374,633.116l55.525,9.396
	c-2.236,2.816-4.196,6.284-4.677,10.135c-0.388,3.128,0.076,5.957,0.998,8.463l-51.146-13.668c-0.223-0.03-5.347-1.133-5.347-7.272
	C167.726,635.394,170.754,633.69,172.374,633.116z M213.021,711.629c-3.686-2.277-8.087-4.137-12.753-6.116
	c-11.192-4.723-23.903-10.082-29.191-22.448c-5.24-12.236-0.176-21.326,2.729-25.123l56.651,15.153
	c-5.546,10.035-9.742,26.298,0.059,41.703c3.639,5.71,11.045,13.075,17.354,18.862c-6.574-1.004-10.482-2.001-12.202-2.488
	C232.77,727.903,223.679,718.166,213.021,711.629z M246.761,775.089c-6.989-7.548-8.82-23.229-9.038-33.165
	c4.038,0.892,10.077,1.948,18.516,2.853c-0.668,7.688-1.314,20.904,0.681,30.94c0.61,3.051,1.708,5.81,3.052,8.31
	C254.872,781.604,250.083,778.646,246.761,775.089z M288.834,831.323h-0.112c-5.035-0.059-9.067-4.208-9.008-9.243
	c0.059-4.25,3.058-7.794,7.119-8.727h4.114c4.061,0.969,7.072,4.642,6.996,8.967C297.89,827.291,293.788,831.323,288.834,831.323z
	 M331.049,775.089c-3.298,3.557-8.1,6.515-13.187,8.938c1.35-2.5,2.424-5.259,3.027-8.31c2.019-10.036,1.344-23.253,0.704-30.94
	c8.428-0.904,14.461-1.961,18.499-2.853C339.882,751.859,338.062,767.541,331.049,775.089z M406.751,683.077
	c-5.294,12.354-17.994,17.713-29.192,22.436c-4.659,1.979-9.084,3.839-12.753,6.116c-10.674,6.55-19.754,16.274-22.647,19.543
	c-1.742,0.487-5.622,1.484-12.195,2.488c6.31-5.787,13.716-13.152,17.349-18.862c9.819-15.417,5.598-31.668,0.059-41.703
	l56.634-15.153C406.927,661.75,411.992,670.841,406.751,683.077z M404.743,647.442l-51.128,13.668
	c0.921-2.506,1.367-5.335,0.973-8.463c-0.469-3.851-2.436-7.318-4.653-10.135l55.513-9.396c1.456,0.527,4.637,2.236,4.637,7.054
	C410.084,645.78,405.941,647.16,404.743,647.442z M402.801,623.479l-55.084,9.309l18.48-41.451l66.986-12.312L402.801,623.479z"/>
</svg>
