<?xml version="1.0" encoding="utf-8"?>
<!-- Generator: Adobe Illustrator 16.0.0, SVG Export Plug-In . SVG Version: 6.00 Build 0)  -->
<!DOCTYPE svg PUBLIC "-//W3C//DTD SVG 1.1//EN" "http://www.w3.org/Graphics/SVG/1.1/DTD/svg11.dtd">
<svg version="1.1" id="Layer_1" xmlns="http://www.w3.org/2000/svg" xmlns:xlink="http://www.w3.org/1999/xlink" x="0px" y="0px"
	 width="595.28px" height="841.89px" viewBox="0 0 595.28 841.89" enable-background="new 0 0 595.28 841.89" xml:space="preserve">
<linearGradient id="SVGID_1_" gradientUnits="userSpaceOnUse" x1="30.0195" y1="420.9448" x2="562.2773" y2="420.9448">
	<stop  offset="0.0056" style="stop-color:#ECC562"/>
	<stop  offset="1" style="stop-color:#C3922E"/>
</linearGradient>
<path fill="url(#SVGID_1_)" d="M562.277,841.89H30.02V271.624c0.078-34.818,15.895-67.544,42.751-89.241
	c-1.563-7.54-2.33-15.249-2.33-23.011c0-63.408,51.596-115.005,114.98-115.005c6.02,0,12.049,0.486,17.992,1.428
	C225.454,16.953,259.523,0,296.148,0c36.624,0,70.675,16.953,92.706,45.795c5.943-0.942,11.963-1.428,17.982-1.428
	c63.402,0,115,51.597,115,115.005c0,7.763-0.797,15.472-2.303,23.011c23.439,18.958,39.027,42.626,42.466,72.45l0.248,3.708
	l0.029,13.083V841.89z M56.177,815.741H536.1V271.644c-0.058-29.255-14.525-56.611-38.722-73.176l-7.778-5.34l2.642-9.078
	c2.282-7.973,3.447-16.298,3.447-24.678c0-48.994-39.857-88.867-88.852-88.867c-6.953,0-13.942,0.846-20.731,2.453l-8.96,2.155
	l-5.031-7.733c-16.786-25.809-45.205-41.227-75.966-41.227c-30.75,0-59.18,15.418-75.987,41.227l-5.068,7.733l-8.932-2.155
	c-6.797-1.607-13.759-2.453-20.74-2.453c-48.975,0-88.863,39.873-88.863,88.867c0,8.399,1.194,16.705,3.497,24.678l2.611,9.078
	l-7.796,5.34c-24.167,16.565-38.654,43.921-38.692,73.176V815.741z"/>
</svg>
