  0
SECTION
  2
HEADER
  9
$ACADVER
  1
AC1018
  9
$ACADMAINTVER
 70
     0
  9
$DWGCODEPAGE
  3
ANSI_932
  9
$INSBASE
 10
0.0
 20
0.0
 30
0.0
  9
$EXTMIN
 10
1.000000000000000E+20
 20
1.000000000000000E+20
 30
1.000000000000000E+20
  9
$EXTMAX
 10
-1.000000000000000E+20
 20
-1.000000000000000E+20
 30
-1.000000000000000E+20
  9
$LIMMIN
 10
0.0
 20
0.0
  9
$LIMMAX
 10
12.0
 20
9.0
  9
$ORTHOMODE
 70
     0
  9
$REGENMODE
 70
     1
  9
$FILLMODE
 70
     1
  9
$QTEXTMODE
 70
     0
  9
$MIRRTEXT
 70
     1
  9
$LTSCALE
 40
1.0
  9
$ATTMODE
 70
     1
  9
$TEXTSIZE
 40
0.2
  9
$TRACEWID
 40
0.05
  9
$TEXTSTYLE
  7
Standard
  9
$CLAYER
  8
0
  9
$CELTYPE
  6
ByLayer
  9
$CECOLOR
 62
   256
  9
$CELTSCALE
 40
1.0
  9
$DISPSILH
 70
     0
  9
$DIMSCALE
 40
1.0
  9
$DIMASZ
 40
0.18
  9
$DIMEXO
 40
0.0625
  9
$DIMDLI
 40
0.38
  9
$DIMRND
 40
0.0
  9
$DIMDLE
 40
0.0
  9
$DIMEXE
 40
0.18
  9
$DIMTP
 40
0.0
  9
$DIMTM
 40
0.0
  9
$DIMTXT
 40
0.18
  9
$DIMCEN
 40
0.09
  9
$DIMTSZ
 40
0.0
  9
$DIMTOL
 70
     0
  9
$DIMLIM
 70
     0
  9
$DIMTIH
 70
     1
  9
$DIMTOH
 70
     1
  9
$DIMSE1
 70
     0
  9
$DIMSE2
 70
     0
  9
$DIMTAD
 70
     0
  9
$DIMZIN
 70
     0
  9
$DIMBLK
  1

  9
$DIMASO
 70
     1
  9
$DIMSHO
 70
     1
  9
$DIMPOST
  1

  9
$DIMAPOST
  1

  9
$DIMALT
 70
     0
  9
$DIMALTD
 70
     2
  9
$DIMALTF
 40
25.4
  9
$DIMLFAC
 40
1.0
  9
$DIMTOFL
 70
     0
  9
$DIMTVP
 40
0.0
  9
$DIMTIX
 70
     0
  9
$DIMSOXD
 70
     0
  9
$DIMSAH
 70
     0
  9
$DIMBLK1
  1

  9
$DIMBLK2
  1

  9
$DIMSTYLE
  2
Standard
  9
$DIMCLRD
 70
     0
  9
$DIMCLRE
 70
     0
  9
$DIMCLRT
 70
     0
  9
$DIMTFAC
 40
1.0
  9
$DIMGAP
 40
0.09
  9
$DIMJUST
 70
     0
  9
$DIMSD1
 70
     0
  9
$DIMSD2
 70
     0
  9
$DIMTOLJ
 70
     1
  9
$DIMTZIN
 70
     0
  9
$DIMALTZ
 70
     0
  9
$DIMALTTZ
 70
     0
  9
$DIMUPT
 70
     0
  9
$DIMDEC
 70
     4
  9
$DIMTDEC
 70
     4
  9
$DIMALTU
 70
     2
  9
$DIMALTTD
 70
     2
  9
$DIMTXSTY
  7
Standard
  9
$DIMAUNIT
 70
     0
  9
$DIMADEC
 70
     0
  9
$DIMALTRND
 40
0.0
  9
$DIMAZIN
 70
     0
  9
$DIMDSEP
 70
    46
  9
$DIMATFIT
 70
     3
  9
$DIMFRAC
 70
     0
  9
$DIMLDRBLK
  1

  9
$DIMLUNIT
 70
     2
  9
$DIMLWD
 70
    -2
  9
$DIMLWE
 70
    -2
  9
$DIMTMOVE
 70
     0
  9
$LUNITS
 70
     2
  9
$LUPREC
 70
     4
  9
$SKETCHINC
 40
0.1
  9
$FILLETRAD
 40
0.5
  9
$AUNITS
 70
     0
  9
$AUPREC
 70
     0
  9
$MENU
  1
.
  9
$ELEVATION
 40
0.0
  9
$PELEVATION
 40
0.0
  9
$THICKNESS
 40
0.0
  9
$LIMCHECK
 70
     0
  9
$CHAMFERA
 40
0.5
  9
$CHAMFERB
 40
0.5
  9
$CHAMFERC
 40
1.0
  9
$CHAMFERD
 40
0.0
  9
$SKPOLY
 70
     0
  9
$TDCREATE
 40
2460559.6940625
  9
$TDUCREATE
 40
2460559.610729167
  9
$TDUPDATE
 40
2460559.694062511
  9
$TDUUPDATE
 40
2460559.610729178
  9
$TDINDWG
 40
0.0000000116
  9
$TDUSRTIMER
 40
0.0000000116
  9
$USRTIMER
 70
     1
  9
$ANGBASE
 50
0.0
  9
$ANGDIR
 70
     0
  9
$PDMODE
 70
     0
  9
$PDSIZE
 40
0.0
  9
$PLINEWID
 40
0.0
  9
$SPLFRAME
 70
     0
  9
$SPLINETYPE
 70
     6
  9
$SPLINESEGS
 70
     8
  9
$HANDSEED
  5
8F
  9
$SURFTAB1
 70
     6
  9
$SURFTAB2
 70
     6
  9
$SURFTYPE
 70
     6
  9
$SURFU
 70
     6
  9
$SURFV
 70
     6
  9
$UCSBASE
  2

  9
$UCSNAME
  2

  9
$UCSORG
 10
0.0
 20
0.0
 30
0.0
  9
$UCSXDIR
 10
1.0
 20
0.0
 30
0.0
  9
$UCSYDIR
 10
0.0
 20
1.0
 30
0.0
  9
$UCSORTHOREF
  2

  9
$UCSORTHOVIEW
 70
     0
  9
$UCSORGTOP
 10
0.0
 20
0.0
 30
0.0
  9
$UCSORGBOTTOM
 10
0.0
 20
0.0
 30
0.0
  9
$UCSORGLEFT
 10
0.0
 20
0.0
 30
0.0
  9
$UCSORGRIGHT
 10
0.0
 20
0.0
 30
0.0
  9
$UCSORGFRONT
 10
0.0
 20
0.0
 30
0.0
  9
$UCSORGBACK
 10
0.0
 20
0.0
 30
0.0
  9
$PUCSBASE
  2

  9
$PUCSNAME
  2

  9
$PUCSORG
 10
0.0
 20
0.0
 30
0.0
  9
$PUCSXDIR
 10
1.0
 20
0.0
 30
0.0
  9
$PUCSYDIR
 10
0.0
 20
1.0
 30
0.0
  9
$PUCSORTHOREF
  2

  9
$PUCSORTHOVIEW
 70
     0
  9
$PUCSORGTOP
 10
0.0
 20
0.0
 30
0.0
  9
$PUCSORGBOTTOM
 10
0.0
 20
0.0
 30
0.0
  9
$PUCSORGLEFT
 10
0.0
 20
0.0
 30
0.0
  9
$PUCSORGRIGHT
 10
0.0
 20
0.0
 30
0.0
  9
$PUCSORGFRONT
 10
0.0
 20
0.0
 30
0.0
  9
$PUCSORGBACK
 10
0.0
 20
0.0
 30
0.0
  9
$USERI1
 70
     0
  9
$USERI2
 70
     0
  9
$USERI3
 70
     0
  9
$USERI4
 70
     0
  9
$USERI5
 70
     0
  9
$USERR1
 40
0.0
  9
$USERR2
 40
0.0
  9
$USERR3
 40
0.0
  9
$USERR4
 40
0.0
  9
$USERR5
 40
0.0
  9
$WORLDVIEW
 70
     1
  9
$SHADEDGE
 70
     3
  9
$SHADEDIF
 70
    70
  9
$TILEMODE
 70
     1
  9
$MAXACTVP
 70
    64
  9
$PINSBASE
 10
0.0
 20
0.0
 30
0.0
  9
$PLIMCHECK
 70
     0
  9
$PEXTMIN
 10
1.000000000000000E+20
 20
1.000000000000000E+20
 30
1.000000000000000E+20
  9
$PEXTMAX
 10
-1.000000000000000E+20
 20
-1.000000000000000E+20
 30
-1.000000000000000E+20
  9
$PLIMMIN
 10
0.0
 20
0.0
  9
$PLIMMAX
 10
12.0
 20
9.0
  9
$UNITMODE
 70
     0
  9
$VISRETAIN
 70
     1
  9
$PLINEGEN
 70
     0
  9
$PSLTSCALE
 70
     1
  9
$TREEDEPTH
 70
  3020
  9
$CMLSTYLE
  2
Standard
  9
$CMLJUST
 70
     0
  9
$CMLSCALE
 40
1.0
  9
$PROXYGRAPHICS
 70
     1
  9
$MEASUREMENT
 70
     0
  9
$CELWEIGHT
370
    -1
  9
$ENDCAPS
280
     0
  9
$JOINSTYLE
280
     0
  9
$LWDISPLAY
290
     1
  9
$INSUNITS
 70
     1
  9
$HYPERLINKBASE
  1

  9
$STYLESHEET
  1

  9
$XEDIT
290
     1
  9
$CEPSNTYPE
380
     0
  9
$PSTYLEMODE
290
     1
  9
$FINGERPRINTGUID
  2
{61775293-DADD-A532-8849-7DCE241B2823}
  9
$VERSIONGUID
  2
{FAEB1C32-E019-11D5-929B-00C0DF256EC4}
  9
$EXTNAMES
290
     1
  9
$PSVPSCALE
 40
0.0
  9
$OLESTARTUP
290
     0
  9
$SORTENTS
280
   127
  9
$INDEXCTL
280
     0
  9
$HIDETEXT
280
     1
  9
$XCLIPFRAME
290
     0
  9
$HALOGAP
280
     0
  9
$OBSCOLOR
 70
   257
  9
$OBSLTYPE
280
     0
  9
$INTERSECTIONDISPLAY
280
     0
  9
$INTERSECTIONCOLOR
 70
   257
  9
$DIMASSOC
280
     2
  9
$PROJECTNAME
  1

  0
ENDSEC
  0
SECTION
  2
CLASSES
  0
CLASS
  1
ACDBDICTIONARYWDFLT
  2
AcDbDictionaryWithDefault
  3
ObjectDBX Classes
 90
        0
 91
        3
280
     0
281
     0
  0
CLASS
  1
VISUALSTYLE
  2
AcDbVisualStyle
  3
ObjectDBX Classes
 90
     4095
 91
        3
280
     0
281
     0
  0
ENDSEC
  0
SECTION
  2
TABLES
  0
TABLE
  2
VPORT
  5
8
330
0
100
AcDbSymbolTable
 70
     1
  0
VPORT
  5
29
330
8
100
AcDbSymbolTableRecord
100
AcDbViewportTableRecord
  2
*Active
 70
     0
 10
0.0
 20
0.0
 11
1.0
 21
1.0
 12
0.0
 22
0.0
 13
0.0
 23
0.0
 14
0.5
 24
0.5
 15
0.5
 25
0.5
 16
0.0
 26
0.0
 36
1.0
 17
4.133890787760416
 27
-5.846455891927083
 37
0.0
 40
11.69291178385417
 41
0.7070763662937378
 42
50.0
 43
0.0
 44
0.0
 50
0.0
 51
0.0
 71
     0
 72
   100
 73
     1
 74
     3
 75
     0
 76
     0
 77
     0
 78
     0
281
     0
 65
     1
110
0.0
120
0.0
130
0.0
111
1.0
121
0.0
131
0.0
112
0.0
122
1.0
132
0.0
 79
     0
146
0.0
  0
ENDTAB
  0
TABLE
  2
LTYPE
  5
5
330
0
100
AcDbSymbolTable
 70
     1
  0
LTYPE
  5
14
330
5
100
AcDbSymbolTableRecord
100
AcDbLinetypeTableRecord
  2
ByBlock
 70
     0
  3

 72
    65
 73
     0
 40
0.0
  0
LTYPE
  5
15
330
5
100
AcDbSymbolTableRecord
100
AcDbLinetypeTableRecord
  2
ByLayer
 70
     0
  3

 72
    65
 73
     0
 40
0.0
  0
LTYPE
  5
16
330
5
100
AcDbSymbolTableRecord
100
AcDbLinetypeTableRecord
  2
Continuous
 70
     0
  3
Solid line
 72
    65
 73
     0
 40
0.0
  0
ENDTAB
  0
TABLE
  2
LAYER
  5
2
330
0
100
AcDbSymbolTable
 70
     2
  0
LAYER
  5
10
330
2
100
AcDbSymbolTableRecord
100
AcDbLayerTableRecord
  2
0
 70
     0
 62
     7
  6
Continuous
370
    -3
390
F
  0
LAYER
  5
3B
330
2
100
AcDbSymbolTableRecord
100
AcDbLayerTableRecord
  2
Layer 1
 70
     0
 62
     7
  6
Continuous
370
    -3
390
F
  0
ENDTAB
  0
TABLE
  2
STYLE
  5
3
330
0
100
AcDbSymbolTable
 70
     1
  0
STYLE
  5
11
330
3
100
AcDbSymbolTableRecord
100
AcDbTextStyleTableRecord
  2
Standard
 70
     0
 40
0.0
 41
1.0
 50
0.0
 71
     0
 42
0.2
  3
txt
  4

  0
ENDTAB
  0
TABLE
  2
VIEW
  5
6
330
0
100
AcDbSymbolTable
 70
     0
  0
ENDTAB
  0
TABLE
  2
UCS
  5
7
330
0
100
AcDbSymbolTable
 70
     0
  0
ENDTAB
  0
TABLE
  2
APPID
  5
9
330
0
100
AcDbSymbolTable
 70
     1
  0
APPID
  5
12
330
9
100
AcDbSymbolTableRecord
100
AcDbRegAppTableRecord
  2
ACAD
 70
     0
  0
ENDTAB
  0
TABLE
  2
DIMSTYLE
  5
A
330
0
100
AcDbSymbolTable
 70
     1
100
AcDbDimStyleTable
  0
DIMSTYLE
105
27
330
A
100
AcDbSymbolTableRecord
100
AcDbDimStyleTableRecord
  2
Standard
 70
     0
340
11
  0
ENDTAB
  0
TABLE
  2
BLOCK_RECORD
  5
1
330
0
100
AcDbSymbolTable
 70
     1
  0
BLOCK_RECORD
  5
1F
330
1
100
AcDbSymbolTableRecord
100
AcDbBlockTableRecord
  2
*Model_Space
340
22
  0
BLOCK_RECORD
  5
1B
330
1
100
AcDbSymbolTableRecord
100
AcDbBlockTableRecord
  2
*Paper_Space
340
1E
  0
BLOCK_RECORD
  5
23
330
1
100
AcDbSymbolTableRecord
100
AcDbBlockTableRecord
  2
*Paper_Space0
340
26
  0
ENDTAB
  0
ENDSEC
  0
SECTION
  2
BLOCKS
  0
BLOCK
  5
20
330
1F
100
AcDbEntity
  8
0
100
AcDbBlockBegin
  2
*Model_Space
 70
     0
 71
     0
 10
0.0
 20
0.0
 30
0.0
  3
*Model_Space
  1

  0
ENDBLK
  5
21
330
1F
100
AcDbEntity
  8
0
100
AcDbBlockEnd
  0
BLOCK
  5
1C
330
1B
100
AcDbEntity
 67
     1
  8
0
100
AcDbBlockBegin
  2
*Paper_Space
 70
     0
 71
     0
 10
0.0
 20
0.0
 30
0.0
  3
*Paper_Space
  1

  0
ENDBLK
  5
1D
330
1B
100
AcDbEntity
 67
     1
  8
0
100
AcDbBlockEnd
  0
BLOCK
  5
24
330
23
100
AcDbEntity
  8
0
100
AcDbBlockBegin
  2
*Paper_Space0
 70
     0
 71
     0
 10
0.0
 20
0.0
 30
0.0
  3
*Paper_Space0
  1

  0
ENDBLK
  5
25
330
23
100
AcDbEntity
  8
0
100
AcDbBlockEnd
  0
ENDSEC
  0
SECTION
  2
ENTITIES
  0
SPLINE
  5
3C
330
1F
100
AcDbEntity
  8
Layer 1
370
     0
100
AcDbSpline
210
0.0
220
0.0
230
1.0
 70
    11
 71
     3
 72
   212
 73
   208
 74
     0
 42
0.0000000001
 43
0.0000000001
 40
0.0
 40
0.0
 40
0.0
 40
0.0
 40
1.0
 40
1.0
 40
1.0
 40
2.0
 40
2.0
 40
2.0
 40
3.0
 40
3.0
 40
3.0
 40
4.0
 40
4.0
 40
4.0
 40
5.0
 40
5.0
 40
5.0
 40
6.0
 40
6.0
 40
6.0
 40
7.0
 40
7.0
 40
7.0
 40
8.0
 40
8.0
 40
8.0
 40
9.0
 40
9.0
 40
9.0
 40
10.0
 40
10.0
 40
10.0
 40
11.0
 40
11.0
 40
11.0
 40
12.0
 40
12.0
 40
12.0
 40
13.0
 40
13.0
 40
13.0
 40
14.0
 40
14.0
 40
14.0
 40
15.0
 40
15.0
 40
15.0
 40
16.0
 40
16.0
 40
16.0
 40
17.0
 40
17.0
 40
17.0
 40
18.0
 40
18.0
 40
18.0
 40
19.0
 40
19.0
 40
19.0
 40
20.0
 40
20.0
 40
20.0
 40
21.0
 40
21.0
 40
21.0
 40
22.0
 40
22.0
 40
22.0
 40
23.0
 40
23.0
 40
23.0
 40
24.0
 40
24.0
 40
24.0
 40
25.0
 40
25.0
 40
25.0
 40
26.0
 40
26.0
 40
26.0
 40
27.0
 40
27.0
 40
27.0
 40
28.0
 40
28.0
 40
28.0
 40
29.0
 40
29.0
 40
29.0
 40
30.0
 40
30.0
 40
30.0
 40
31.0
 40
31.0
 40
31.0
 40
32.0
 40
32.0
 40
32.0
 40
33.0
 40
33.0
 40
33.0
 40
34.0
 40
34.0
 40
34.0
 40
35.0
 40
35.0
 40
35.0
 40
36.0
 40
36.0
 40
36.0
 40
37.0
 40
37.0
 40
37.0
 40
38.0
 40
38.0
 40
38.0
 40
39.0
 40
39.0
 40
39.0
 40
40.0
 40
40.0
 40
40.0
 40
41.0
 40
41.0
 40
41.0
 40
42.0
 40
42.0
 40
42.0
 40
43.0
 40
43.0
 40
43.0
 40
44.0
 40
44.0
 40
44.0
 40
45.0
 40
45.0
 40
45.0
 40
46.0
 40
46.0
 40
46.0
 40
47.0
 40
47.0
 40
47.0
 40
48.0
 40
48.0
 40
48.0
 40
49.0
 40
49.0
 40
49.0
 40
50.0
 40
50.0
 40
50.0
 40
51.0
 40
51.0
 40
51.0
 40
52.0
 40
52.0
 40
52.0
 40
53.0
 40
53.0
 40
53.0
 40
54.0
 40
54.0
 40
54.0
 40
55.0
 40
55.0
 40
55.0
 40
56.0
 40
56.0
 40
56.0
 40
57.0
 40
57.0
 40
57.0
 40
58.0
 40
58.0
 40
58.0
 40
59.0
 40
59.0
 40
59.0
 40
60.0
 40
60.0
 40
60.0
 40
61.0
 40
61.0
 40
61.0
 40
62.0
 40
62.0
 40
62.0
 40
63.0
 40
63.0
 40
63.0
 40
64.0
 40
64.0
 40
64.0
 40
65.0
 40
65.0
 40
65.0
 40
66.0
 40
66.0
 40
66.0
 40
67.0
 40
67.0
 40
67.0
 40
68.0
 40
68.0
 40
68.0
 40
69.0
 40
69.0
 40
69.0
 40
69.0
 10
6.236287434895833
 20
-4.583950466579861
 30
0.0
 10
6.236287434895833
 20
-4.583950466579861
 30
0.0
 10
5.675550672743055
 20
-3.889316134982639
 30
0.0
 10
5.675550672743055
 20
-3.889316134982639
 30
0.0
 10
5.712646484375
 20
-3.854587131076389
 30
0.0
 10
5.742974175347222
 20
-3.798834906684028
 30
0.0
 10
5.742974175347222
 20
-3.712924533420139
 30
0.0
 10
5.742974175347222
 20
-3.617390950520833
 30
0.0
 10
5.701565212673611
 20
-3.555365668402778
 30
0.0
 10
5.655436197916666
 20
-3.518513997395833
 30
0.0
 10
5.696750217013888
 20
-3.442715115017361
 30
0.0
 10
5.747775607638888
 20
-3.308709038628472
 30
0.0
 10
5.729682074652778
 20
-3.134765625
 30
0.0
 10
5.700751410590278
 20
-2.860724555121528
 30
0.0
 10
5.437635633680555
 20
-2.743014865451389
 30
0.0
 10
5.183078342013888
 20
-2.62890625
 30
0.0
 10
5.183078342013888
 20
-2.62890625
 30
0.0
 10
5.144029405381944
 20
-2.611626519097222
 30
0.0
 10
5.144029405381944
 20
-2.611626519097222
 30
0.0
 10
5.120876736111111
 20
-2.601189507378472
 30
0.0
 10
5.097968207465278
 20
-2.590840657552083
 30
0.0
 10
5.074747721354166
 20
-2.580891927083333
 30
0.0
 10
4.850084092881944
 20
-2.481696234809028
 30
0.0
 10
4.655938042534722
 20
-2.396111382378472
 30
0.0
 10
4.626017252604166
 20
-2.197299533420139
 30
0.0
 10
4.614122178819444
 20
-2.116278754340278
 30
0.0
 10
4.68994140625
 20
-1.932881673177083
 30
0.0
 10
4.851155598958333
 20
-1.651665581597222
 30
0.0
 10
4.865180121527778
 20
-1.628106011284722
 30
0.0
 10
4.8748779296875
 20
-1.610989040798611
 30
0.0
 10
4.879109700520833
 20
-1.602423773871528
 30
0.0
 10
4.879109700520833
 20
-1.602423773871528
 30
0.0
 10
4.880995008680555
 20
-1.598761664496528
 30
0.0
 10
4.880995008680555
 20
-1.598761664496528
 30
0.0
 10
4.924519856770833
 20
-1.512118869357639
 30
0.0
 10
4.956787109375
 20
-1.383165147569444
 30
0.0
 10
4.733045789930555
 20
-1.264078776041667
 30
0.0
 10
4.610785590277778
 20
-1.198784722222222
 30
0.0
 10
4.498046875
 20
-1.171393500434028
 30
0.0
 10
4.4241943359375
 20
-1.160074869791667
 30
0.0
 10
4.443101671006945
 20
-1.067715115017361
 30
0.0
 10
4.446207682291666
 20
-0.959228515625
 30
0.0
 10
4.3726806640625
 20
-0.915127224392361
 30
0.0
 10
4.327039930555555
 20
-0.8878173828125
 30
0.0
 10
4.258327907986111
 20
-0.8621419270833333
 30
0.0
 10
4.2115478515625
 20
-0.8464152018229166
 30
0.0
 10
4.2115478515625
 20
-0.8464152018229166
 30
0.0
 10
4.2115478515625
 20
-0.8310885959201388
 30
0.0
 10
4.2115478515625
 20
-0.8310885959201388
 30
0.0
 10
4.355238172743055
 20
-0.7589518229166666
 30
0.0
 10
4.454359266493055
 20
-0.6105211046006944
 30
0.0
 10
4.454359266493055
 20
-0.43902587890625
 30
0.0
 10
4.454359266493055
 20
-0.1969333224826389
 30
0.0
 10
4.257419162326388
 20
0.0
 30
0.0
 10
4.0155029296875
 20
0.0
 30
0.0
 10
3.773417154947917
 20
0.0
 30
0.0
 10
3.576395670572917
 20
-0.1969333224826389
 30
0.0
 10
3.576395670572917
 20
-0.43902587890625
 30
0.0
 10
3.576395670572917
 20
-0.6085679796006944
 30
0.0
 10
3.673068576388889
 20
-0.7552829318576388
 30
0.0
 10
3.813517252604167
 20
-0.8284776475694444
 30
0.0
 10
3.813517252604167
 20
-0.8284776475694444
 30
0.0
 10
3.813517252604167
 20
-0.8464152018229166
 30
0.0
 10
3.813517252604167
 20
-0.8464152018229166
 30
0.0
 10
3.767055935329861
 20
-0.8621419270833333
 30
0.0
 10
3.698343912760417
 20
-0.8878173828125
 30
0.0
 10
3.652533637152778
 20
-0.915127224392361
 30
0.0
 10
3.579176161024305
 20
-0.959228515625
 30
0.0
 10
3.582268608940972
 20
-1.067715115017361
 30
0.0
 10
3.601094563802083
 20
-1.160074869791667
 30
0.0
 10
3.527248806423611
 20
-1.171393500434028
 30
0.0
 10
3.414272732204861
 20
-1.198784722222222
 30
0.0
 10
3.292412651909722
 20
-1.264078776041667
 30
0.0
 10
3.068583170572917
 20
-1.383165147569444
 30
0.0
 10
3.100545247395833
 20
-1.512118869357639
 30
0.0
 10
3.144307454427083
 20
-1.598761664496528
 30
0.0
 10
3.144307454427083
 20
-1.598761664496528
 30
0.0
 10
3.146185980902778
 20
-1.602423773871528
 30
0.0
 10
3.146185980902778
 20
-1.602423773871528
 30
0.0
 10
3.150505913628472
 20
-1.610989040798611
 30
0.0
 10
3.160129123263889
 20
-1.628106011284722
 30
0.0
 10
3.173733181423611
 20
-1.651665581597222
 30
0.0
 10
3.335530598958333
 20
-1.932881673177083
 30
0.0
 10
3.411261664496528
 20
-2.116278754340278
 30
0.0
 10
3.399197048611111
 20
-2.197299533420139
 30
0.0
 10
3.369283040364583
 20
-2.396111382378472
 30
0.0
 10
3.175204806857639
 20
-2.481696234809028
 30
0.0
 10
2.950391981336805
 20
-2.580891927083333
 30
0.0
 10
2.927490234375
 20
-2.590840657552083
 30
0.0
 10
2.904344346788194
 20
-2.601189507378472
 30
0.0
 10
2.881103515625
 20
-2.611626519097222
 30
0.0
 10
2.881103515625
 20
-2.611626519097222
 30
0.0
 10
2.842393663194444
 20
-2.629062228732639
 30
0.0
 10
2.842393663194444
 20
-2.629062228732639
 30
0.0
 10
2.587592230902778
 20
-2.743014865451389
 30
0.0
 10
2.324469672309028
 20
-2.860724555121528
 30
0.0
 10
2.295613606770833
 20
-3.134765625
 30
0.0
 10
2.277187771267361
 20
-3.308709038628472
 30
0.0
 10
2.328708224826389
 20
-3.442715115017361
 30
0.0
 10
2.369873046875
 20
-3.518513997395833
 30
0.0
 10
2.324055989583333
 20
-3.555365668402778
 30
0.0
 10
2.28240966796875
 20
-3.617390950520833
 30
0.0
 10
2.28240966796875
 20
-3.712924533420139
 30
0.0
 10
2.28240966796875
 20
-3.798834906684028
 30
0.0
 10
2.312730577256944
 20
-3.854587131076389
 30
0.0
 10
2.349812825520833
 20
-3.889316134982639
 30
0.0
 10
2.349812825520833
 20
-3.889316134982639
 30
0.0
 10
1.789103190104167
 20
-4.583950466579861
 30
0.0
 10
1.789103190104167
 20
-4.583950466579861
 30
0.0
 10
1.789103190104167
 20
-4.583950466579861
 30
0.0
 10
1.789103190104167
 20
-7.965359157986111
 30
0.0
 10
1.789103190104167
 20
-7.965359157986111
 30
0.0
 10
1.789103190104167
 20
-7.965359157986111
 30
0.0
 10
2.287787543402778
 20
-8.695136176215277
 30
0.0
 10
2.287787543402778
 20
-8.695136176215277
 30
0.0
 10
2.237657335069444
 20
-8.731825086805555
 30
0.0
 10
2.191365559895833
 20
-8.793931749131945
 30
0.0
 10
2.191365559895833
 20
-8.891248914930555
 30
0.0
 10
2.191365559895833
 20
-8.985555013020832
 30
0.0
 10
2.234476725260417
 20
-9.04702419704861
 30
0.0
 10
2.283148871527778
 20
-9.083943684895832
 30
0.0
 10
2.225674099392361
 20
-9.172458224826388
 30
0.0
 10
2.160142686631944
 20
-9.3343505859375
 30
0.0
 10
2.2489013671875
 20
-9.541544596354166
 30
0.0
 10
2.344523111979167
 20
-9.764227973090277
 30
0.0
 10
2.557020399305555
 20
-9.854234483506945
 30
0.0
 10
2.727627224392361
 20
-9.92654079861111
 30
0.0
 10
2.787611219618055
 20
-9.951633029513888
 30
0.0
 10
2.844028049045139
 20
-9.975436740451388
 30
0.0
 10
2.886081271701389
 20
-10.00143771701389
 30
0.0
 10
3.010389539930555
 20
-10.07797580295139
 30
0.0
 10
3.121975368923611
 20
-10.19429524739583
 30
0.0
 10
3.163709852430555
 20
-10.24018012152778
 30
0.0
 10
3.160936143663194
 20
-10.34304470486111
 30
0.0
 10
3.164930555555555
 20
-10.68596733940972
 30
0.0
 10
3.325995551215278
 20
-10.8592529296875
 30
0.0
 10
3.460252549913194
 20
-11.00385199652778
 30
0.0
 10
3.718071831597222
 20
-11.08577473958333
 30
0.0
 10
3.851094563802083
 20
-11.12018500434028
 30
0.0
 10
3.851508246527778
 20
-11.12018500434028
 30
0.0
 10
3.85174560546875
 20
-11.12033420138889
 30
0.0
 10
3.85174560546875
 20
-11.12033420138889
 30
0.0
 10
3.85174560546875
 20
-11.12033420138889
 30
0.0
 10
3.851915147569444
 20
-11.12033420138889
 30
0.0
 10
3.851915147569444
 20
-11.12033420138889
 30
0.0
 10
3.8616943359375
 20
-11.12262641059028
 30
0.0
 10
3.870652940538194
 20
-11.12490505642361
 30
0.0
 10
3.87872314453125
 20
-11.127197265625
 30
0.0
 10
3.87872314453125
 20
-11.127197265625
 30
0.0
 10
3.87872314453125
 20
-11.19109429253472
 30
0.0
 10
3.87872314453125
 20
-11.19109429253472
 30
0.0
 10
3.80096435546875
 20
-11.23650444878472
 30
0.0
 10
3.747897677951389
 20
-11.32020399305556
 30
0.0
 10
3.746514214409722
 20
-11.41606987847222
 30
0.0
 10
3.744805230034722
 20
-11.56205240885417
 30
0.0
 10
3.862101236979167
 20
-11.68245442708333
 30
0.0
 10
4.008246527777778
 20
-11.68431260850694
 30
0.0
 10
4.008246527777778
 20
-11.68431260850694
 30
0.0
 10
4.011589898003472
 20
-11.68431260850694
 30
0.0
 10
4.011589898003472
 20
-11.68431260850694
 30
0.0
 10
4.155626085069445
 20
-11.68431260850694
 30
0.0
 10
4.274712456597222
 20
-11.56719292534722
 30
0.0
 10
4.276584201388888
 20
-11.42291937934028
 30
0.0
 10
4.277642144097222
 20
-11.32510036892361
 30
0.0
 10
4.225314670138888
 20
-11.23876953125
 30
0.0
 10
4.146653917100695
 20
-11.19198947482639
 30
0.0
 10
4.146653917100695
 20
-11.19198947482639
 30
0.0
 10
4.146653917100695
 20
-11.127197265625
 30
0.0
 10
4.146653917100695
 20
-11.127197265625
 30
0.0
 10
4.154893663194445
 20
-11.12490505642361
 30
0.0
 10
4.163764105902778
 20
-11.12262641059028
 30
0.0
 10
4.173312717013888
 20
-11.12033420138889
 30
0.0
 10
4.173312717013888
 20
-11.12033420138889
 30
0.0
 10
4.173312717013888
 20
-11.12033420138889
 30
0.0
 10
4.173312717013888
 20
-11.12033420138889
 30
0.0
 10
4.173543294270833
 20
-11.12033420138889
 30
0.0
 10
4.173963758680555
 20
-11.12018500434028
 30
0.0
 10
4.174045138888888
 20
-11.12018500434028
 30
0.0
 10
4.307237413194445
 20
-11.08577473958333
 30
0.0
 10
4.564982096354166
 20
-11.00385199652778
 30
0.0
 10
4.699300130208333
 20
-10.8592529296875
 30
0.0
 10
4.860283745659722
 20
-10.68580457899306
 30
0.0
 10
4.864189995659722
 20
-10.34304470486111
 30
0.0
 10
4.861667209201388
 20
-10.24001736111111
 30
0.0
 10
4.903238932291666
 20
-10.19429524739583
 30
0.0
 10
5.014350043402778
 20
-10.078125
 30
0.0
 10
5.138970269097222
 20
-10.00143771701389
 30
0.0
 10
5.1812744140625
 20
-9.975436740451388
 30
0.0
 10
5.237684461805555
 20
-9.951633029513888
 30
0.0
 10
5.297593858506944
 20
-9.92654079861111
 30
0.0
 10
5.468356662326388
 20
-9.854234483506945
 30
0.0
 10
5.680948893229166
 20
-9.764404296875
 30
0.0
 10
5.776231553819444
 20
-9.541544596354166
 30
0.0
 10
5.865166558159722
 20
-9.3343505859375
 30
0.0
 10
5.799370659722222
 20
-9.172458224826388
 30
0.0
 10
5.742160373263888
 20
-9.083943684895832
 30
0.0
 10
5.790568033854166
 20
-9.04702419704861
 30
0.0
 10
5.833848741319444
 20
-8.985555013020832
 30
0.0
 10
5.833848741319444
 20
-8.891248914930555
 30
0.0
 10
5.833848741319444
 20
-8.793931749131945
 30
0.0
 10
5.787733289930555
 20
-8.731825086805555
 30
0.0
 10
5.7374267578125
 20
-8.695136176215277
 30
0.0
 10
5.7374267578125
 20
-8.695136176215277
 30
0.0
 10
6.236287434895833
 20
-7.965359157986111
 30
0.0
 10
6.236287434895833
 20
-7.965359157986111
 30
0.0
 10
6.236287434895833
 20
-7.965359157986111
 30
0.0
 10
6.236287434895833
 20
-4.583950466579861
 30
0.0
 10
6.236287434895833
 20
-4.583950466579861
 30
0.0
  0
POLYLINE
  5
3D
330
1F
100
AcDbEntity
  8
Layer 1
370
     0
100
AcDb2dPolyline
 66
     1
 10
0.0
 20
0.0
 30
0.0
  0
VERTEX
  5
3E
330
3D
100
AcDbEntity
  8
Layer 1
370
     0
100
AcDbVertex
100
AcDb2dVertex
 10
5.994194878472222
 20
-4.504313151041666
 30
0.0
  0
VERTEX
  5
3F
330
3D
100
AcDbEntity
  8
Layer 1
370
     0
100
AcDbVertex
100
AcDb2dVertex
 10
5.085910373263888
 20
-4.326700846354166
 30
0.0
  0
VERTEX
  5
40
330
3D
100
AcDbEntity
  8
Layer 1
370
     0
100
AcDbVertex
100
AcDb2dVertex
 10
4.823269314236111
 20
-3.750495062934028
 30
0.0
  0
VERTEX
  5
41
330
3D
100
AcDbEntity
  8
Layer 1
370
     0
100
AcDbVertex
100
AcDb2dVertex
 10
5.530721028645833
 20
-3.929979112413194
 30
0.0
  0
VERTEX
  5
42
330
3D
100
AcDbEntity
  8
Layer 1
370
     0
100
AcDbVertex
100
AcDb2dVertex
 10
5.994194878472222
 20
-4.504313151041666
 30
0.0
  0
SEQEND
  5
43
330
3D
100
AcDbEntity
  8
Layer 1
370
     0
  0
SPLINE
  5
44
330
1F
100
AcDbEntity
  8
Layer 1
370
     0
100
AcDbSpline
210
0.0
220
0.0
230
1.0
 70
    11
 71
     3
 72
    35
 73
    31
 74
     0
 42
0.0000000001
 43
0.0000000001
 40
0.0
 40
0.0
 40
0.0
 40
0.0
 40
1.0
 40
1.0
 40
1.0
 40
2.0
 40
2.0
 40
2.0
 40
3.0
 40
3.0
 40
3.0
 40
4.0
 40
4.0
 40
4.0
 40
5.0
 40
5.0
 40
5.0
 40
6.0
 40
6.0
 40
6.0
 40
7.0
 40
7.0
 40
7.0
 40
8.0
 40
8.0
 40
8.0
 40
9.0
 40
9.0
 40
9.0
 40
10.0
 40
10.0
 40
10.0
 40
10.0
 10
4.3214111328125
 20
-10.74677191840278
 30
0.0
 10
4.294352213541666
 20
-10.88126627604167
 30
0.0
 10
4.1627197265625
 20
-10.96717664930556
 30
0.0
 10
4.123257107204861
 20
-10.99024793836806
 30
0.0
 10
4.087890625
 20
-10.99913194444444
 30
0.0
 10
4.065470377604166
 20
-11.00370279947917
 30
0.0
 10
4.064324273003472
 20
-11.00385199652778
 30
0.0
 10
4.064324273003472
 20
-11.00385199652778
 30
0.0
 10
4.012736002604166
 20
-11.01380750868056
 30
0.0
 10
4.012736002604166
 20
-11.01380750868056
 30
0.0
 10
4.012736002604166
 20
-11.01380750868056
 30
0.0
 10
3.960808648003472
 20
-11.00385199652778
 30
0.0
 10
3.960808648003472
 20
-11.00385199652778
 30
0.0
 10
3.960076226128472
 20
-11.00370279947917
 30
0.0
 10
3.937411838107639
 20
-10.99913194444444
 30
0.0
 10
3.901957194010417
 20
-10.99024793836806
 30
0.0
 10
3.862101236979167
 20
-10.96702745225694
 30
0.0
 10
3.730868869357639
 20
-10.88103569878472
 30
0.0
 10
3.703884548611111
 20
-10.74677191840278
 30
0.0
 10
3.679680718315972
 20
-10.62498643663194
 30
0.0
 10
3.688313802083333
 20
-10.45537651909722
 30
0.0
 10
3.696553548177083
 20
-10.35633680555556
 30
0.0
 10
3.802435980902778
 20
-10.36440700954861
 30
0.0
 10
3.907416449652778
 20
-10.36839463975694
 30
0.0
 10
4.012736002604166
 20
-10.36839463975694
 30
0.0
 10
4.117723253038195
 20
-10.36839463975694
 30
0.0
 10
4.222941080729166
 20
-10.36424424913194
 30
0.0
 10
4.328681098090278
 20
-10.35633680555556
 30
0.0
 10
4.337158203125
 20
-10.45537651909722
 30
0.0
 10
4.345703125
 20
-10.62483723958333
 30
0.0
 10
4.3214111328125
 20
-10.74677191840278
 30
0.0
  0
SPLINE
  5
45
330
1F
100
AcDbEntity
  8
Layer 1
370
     0
100
AcDbSpline
210
0.0
220
0.0
230
1.0
 70
    11
 71
     3
 72
    29
 73
    25
 74
     0
 42
0.0000000001
 43
0.0000000001
 40
0.0
 40
0.0
 40
0.0
 40
0.0
 40
1.0
 40
1.0
 40
1.0
 40
2.0
 40
2.0
 40
2.0
 40
3.0
 40
3.0
 40
3.0
 40
4.0
 40
4.0
 40
4.0
 40
5.0
 40
5.0
 40
5.0
 40
6.0
 40
6.0
 40
6.0
 40
7.0
 40
7.0
 40
7.0
 40
8.0
 40
8.0
 40
8.0
 40
8.0
 10
4.345296223958333
 20
-10.21344672309028
 30
0.0
 10
4.345296223958333
 20
-10.21344672309028
 30
0.0
 10
4.341376410590278
 20
-10.21662055121528
 30
0.0
 10
4.341376410590278
 20
-10.21662055121528
 30
0.0
 10
4.120808919270833
 20
-10.23422580295139
 30
0.0
 10
3.904405381944444
 20
-10.23422580295139
 30
0.0
 10
3.684000651041667
 20
-10.21662055121528
 30
0.0
 10
3.684000651041667
 20
-10.21662055121528
 30
0.0
 10
3.680087619357639
 20
-10.21344672309028
 30
0.0
 10
3.680087619357639
 20
-10.21344672309028
 30
0.0
 10
3.602973090277778
 20
-10.15060763888889
 30
0.0
 10
3.387457953559028
 20
-9.96279568142361
 30
0.0
 10
3.318250868055555
 20
-9.853488498263888
 30
0.0
 10
3.187669542100694
 20
-9.648410373263888
 30
0.0
 10
3.299506293402778
 20
-9.445285373263888
 30
0.0
 10
3.346781412760417
 20
-9.37575954861111
 30
0.0
 10
3.346781412760417
 20
-9.37575954861111
 30
0.0
 10
4.678439670138888
 20
-9.37575954861111
 30
0.0
 10
4.678439670138888
 20
-9.37575954861111
 30
0.0
 10
4.725802951388888
 20
-9.445448133680555
 30
0.0
 10
4.837619357638888
 20
-9.648573133680555
 30
0.0
 10
4.707126193576388
 20
-9.853488498263888
 30
0.0
 10
4.637600368923611
 20
-9.96279568142361
 30
0.0
 10
4.422417534722222
 20
-10.15060763888889
 30
0.0
 10
4.345296223958333
 20
-10.21344672309028
 30
0.0
  0
SPLINE
  5
46
330
1F
100
AcDbEntity
  8
Layer 1
370
     0
100
AcDbSpline
210
0.0
220
0.0
230
1.0
 70
    11
 71
     3
 72
    23
 73
    19
 74
     0
 42
0.0000000001
 43
0.0000000001
 40
0.0
 40
0.0
 40
0.0
 40
0.0
 40
1.0
 40
1.0
 40
1.0
 40
2.0
 40
2.0
 40
2.0
 40
3.0
 40
3.0
 40
3.0
 40
4.0
 40
4.0
 40
4.0
 40
5.0
 40
5.0
 40
5.0
 40
6.0
 40
6.0
 40
6.0
 40
6.0
 10
4.693359375
 20
-9.2374267578125
 30
0.0
 10
4.693359375
 20
-9.2374267578125
 30
0.0
 10
3.332112630208333
 20
-9.2374267578125
 30
0.0
 10
3.332112630208333
 20
-9.2374267578125
 30
0.0
 10
3.301052517361111
 20
-9.216159396701388
 30
0.0
 10
3.228101942274305
 20
-9.157063802083332
 30
0.0
 10
3.237562391493055
 20
-9.0816650390625
 30
0.0
 10
3.243916829427083
 20
-9.030965169270832
 30
0.0
 10
3.302442762586805
 20
-8.974229600694445
 30
0.0
 10
3.336432562934028
 20
-8.94643825954861
 30
0.0
 10
3.336432562934028
 20
-8.94643825954861
 30
0.0
 10
4.690171983506944
 20
-8.947496202256945
 30
0.0
 10
4.690171983506944
 20
-8.947496202256945
 30
0.0
 10
4.727105034722222
 20
-8.97756618923611
 30
0.0
 10
4.781697591145833
 20
-9.0338134765625
 30
0.0
 10
4.787828233506944
 20
-9.0816650390625
 30
0.0
 10
4.797186957465278
 20
-9.157063802083332
 30
0.0
 10
4.724405924479166
 20
-9.216159396701388
 30
0.0
 10
4.693359375
 20
-9.2374267578125
 30
0.0
  0
POLYLINE
  5
47
330
1F
100
AcDbEntity
  8
Layer 1
370
     0
100
AcDb2dPolyline
 66
     1
 10
0.0
 20
0.0
 30
0.0
  0
VERTEX
  5
48
330
47
100
AcDbEntity
  8
Layer 1
370
     0
100
AcDbVertex
100
AcDb2dVertex
 10
4.668660481770833
 20
-8.809163411458332
 30
0.0
  0
VERTEX
  5
49
330
47
100
AcDbEntity
  8
Layer 1
370
     0
100
AcDbVertex
100
AcDb2dVertex
 10
3.356730143229167
 20
-8.809163411458332
 30
0.0
  0
VERTEX
  5
4A
330
47
100
AcDbEntity
  8
Layer 1
370
     0
100
AcDbVertex
100
AcDb2dVertex
 10
3.093363444010417
 20
-8.219685872395832
 30
0.0
  0
VERTEX
  5
4B
330
47
100
AcDbEntity
  8
Layer 1
370
     0
100
AcDbVertex
100
AcDb2dVertex
 10
4.9312744140625
 20
-8.22048611111111
 30
0.0
  0
VERTEX
  5
4C
330
47
100
AcDbEntity
  8
Layer 1
370
     0
100
AcDbVertex
100
AcDb2dVertex
 10
4.668660481770833
 20
-8.809163411458332
 30
0.0
  0
SEQEND
  5
4D
330
47
100
AcDbEntity
  8
Layer 1
370
     0
  0
POLYLINE
  5
4E
330
1F
100
AcDbEntity
  8
Layer 1
370
     0
100
AcDb2dPolyline
 66
     1
 10
0.0
 20
0.0
 30
0.0
  0
VERTEX
  5
4F
330
4E
100
AcDbEntity
  8
Layer 1
370
     0
100
AcDbVertex
100
AcDb2dVertex
 10
1.92718505859375
 20
-7.886379665798611
 30
0.0
  0
VERTEX
  5
50
330
4E
100
AcDbEntity
  8
Layer 1
370
     0
100
AcDbVertex
100
AcDb2dVertex
 10
1.92718505859375
 20
-4.665215386284722
 30
0.0
  0
VERTEX
  5
51
330
4E
100
AcDbEntity
  8
Layer 1
370
     0
100
AcDbVertex
100
AcDb2dVertex
 10
2.918192545572917
 20
-4.471625434027778
 30
0.0
  0
VERTEX
  5
52
330
4E
100
AcDbEntity
  8
Layer 1
370
     0
100
AcDbVertex
100
AcDb2dVertex
 10
2.918192545572917
 20
-8.068562825520832
 30
0.0
  0
VERTEX
  5
53
330
4E
100
AcDbEntity
  8
Layer 1
370
     0
100
AcDbVertex
100
AcDb2dVertex
 10
1.92718505859375
 20
-7.886379665798611
 30
0.0
  0
SEQEND
  5
54
330
4E
100
AcDbEntity
  8
Layer 1
370
     0
  0
SPLINE
  5
55
330
1F
100
AcDbEntity
  8
Layer 1
370
     0
100
AcDbSpline
210
0.0
220
0.0
230
1.0
 70
    11
 71
     3
 72
    47
 73
    43
 74
     0
 42
0.0000000001
 43
0.0000000001
 40
0.0
 40
0.0
 40
0.0
 40
0.0
 40
1.0
 40
1.0
 40
1.0
 40
2.0
 40
2.0
 40
2.0
 40
3.0
 40
3.0
 40
3.0
 40
4.0
 40
4.0
 40
4.0
 40
5.0
 40
5.0
 40
5.0
 40
6.0
 40
6.0
 40
6.0
 40
7.0
 40
7.0
 40
7.0
 40
8.0
 40
8.0
 40
8.0
 40
9.0
 40
9.0
 40
9.0
 40
10.0
 40
10.0
 40
10.0
 40
11.0
 40
11.0
 40
11.0
 40
12.0
 40
12.0
 40
12.0
 40
13.0
 40
13.0
 40
13.0
 40
14.0
 40
14.0
 40
14.0
 40
14.0
 10
3.434170193142361
 20
-2.712449815538194
 30
0.0
 10
3.487067328559028
 20
-2.635179307725694
 30
0.0
 10
3.600613064236111
 20
-2.551717122395833
 30
0.0
 10
3.669162326388889
 20
-2.494574652777778
 30
0.0
 10
3.775288899739583
 20
-2.405721028645833
 30
0.0
 10
3.815884060329861
 20
-2.314019097222222
 30
0.0
 10
3.834465874565972
 20
-2.163967556423611
 30
0.0
 10
3.850362141927083
 20
-2.03753662109375
 30
0.0
 10
3.802761501736111
 20
-1.935160319010417
 30
0.0
 10
3.756951226128472
 20
-1.835795084635417
 30
0.0
 10
3.716925726996528
 20
-1.750372992621528
 30
0.0
 10
3.679355197482639
 20
-1.669514973958333
 30
0.0
 10
3.679355197482639
 20
-1.571295844184028
 30
0.0
 10
3.679355197482639
 20
-1.430521647135417
 30
0.0
 10
3.773654513888889
 20
-1.332383897569444
 30
0.0
 10
3.823784722222222
 20
-1.290079752604167
 30
0.0
 10
3.823784722222222
 20
-1.290079752604167
 30
0.0
 10
4.201999240451388
 20
-1.290079752604167
 30
0.0
 10
4.201999240451388
 20
-1.290079752604167
 30
0.0
 10
4.251966688368055
 20
-1.332139756944444
 30
0.0
 10
4.345784505208333
 20
-1.429463704427083
 30
0.0
 10
4.345784505208333
 20
-1.571295844184028
 30
0.0
 10
4.345784505208333
 20
-1.669514973958333
 30
0.0
 10
4.308458116319445
 20
-1.750372992621528
 30
0.0
 10
4.268513997395833
 20
-1.835795084635417
 30
0.0
 10
4.222547743055555
 20
-1.935160319010417
 30
0.0
 10
4.174777560763888
 20
-2.03753662109375
 30
0.0
 10
4.190836588541666
 20
-2.163967556423611
 30
0.0
 10
4.209337022569445
 20
-2.314019097222222
 30
0.0
 10
4.278049045138888
 20
-2.430019802517361
 30
0.0
 10
4.384670681423611
 20
-2.518866644965278
 30
0.0
 10
4.452880859375
 20
-2.575839572482639
 30
0.0
 10
4.514756944444444
 20
-2.638848198784722
 30
0.0
 10
4.5677490234375
 20
-2.715874565972222
 30
0.0
 10
4.656182183159722
 20
-2.844658745659722
 30
0.0
 10
4.690171983506944
 20
-3.058464898003472
 30
0.0
 10
4.669148763020833
 20
-3.189615885416667
 30
0.0
 10
4.669148763020833
 20
-3.189615885416667
 30
0.0
 10
3.3560791015625
 20
-3.189615885416667
 30
0.0
 10
3.3560791015625
 20
-3.189615885416667
 30
0.0
 10
3.335211859809028
 20
-3.058464898003472
 30
0.0
 10
3.345723470052083
 20
-2.840996636284722
 30
0.0
 10
3.434170193142361
 20
-2.712449815538194
 30
0.0
  0
SPLINE
  5
56
330
1F
100
AcDbEntity
  8
Layer 1
370
     0
100
AcDbSpline
210
0.0
220
0.0
230
1.0
 70
    11
 71
     3
 72
    23
 73
    19
 74
     0
 42
0.0000000001
 43
0.0000000001
 40
0.0
 40
0.0
 40
0.0
 40
0.0
 40
1.0
 40
1.0
 40
1.0
 40
2.0
 40
2.0
 40
2.0
 40
3.0
 40
3.0
 40
3.0
 40
4.0
 40
4.0
 40
4.0
 40
5.0
 40
5.0
 40
5.0
 40
6.0
 40
6.0
 40
6.0
 40
6.0
 10
3.860466851128472
 20
-1.151835123697917
 30
0.0
 10
3.856153700086805
 20
-1.143927680121528
 30
0.0
 10
3.848727756076389
 20
-1.123311360677083
 30
0.0
 10
3.858839246961805
 20
-1.082139756944444
 30
0.0
 10
3.872287326388889
 20
-1.029405381944444
 30
0.0
 10
3.89813232421875
 20
-0.9886474609375
 30
0.0
 10
3.914998372395833
 20
-0.9655829535590277
 30
0.0
 10
3.914998372395833
 20
-0.9655829535590277
 30
0.0
 10
4.110378689236111
 20
-0.9655829535590277
 30
0.0
 10
4.110378689236111
 20
-0.9655829535590277
 30
0.0
 10
4.127407497829861
 20
-0.9886474609375
 30
0.0
 10
4.153089735243055
 20
-1.029405381944444
 30
0.0
 10
4.166300455729166
 20
-1.082139756944444
 30
0.0
 10
4.176649305555555
 20
-1.123311360677083
 30
0.0
 10
4.169392903645833
 20
-1.143853081597222
 30
0.0
 10
4.164835611979166
 20
-1.151835123697917
 30
0.0
 10
4.164835611979166
 20
-1.151835123697917
 30
0.0
 10
3.860466851128472
 20
-1.151835123697917
 30
0.0
 10
3.860466851128472
 20
-1.151835123697917
 30
0.0
  0
SPLINE
  5
57
330
1F
100
AcDbEntity
  8
Layer 1
370
     0
100
AcDbSpline
210
0.0
220
0.0
230
1.0
 70
    11
 71
     3
 72
    23
 73
    19
 74
     0
 42
0.0000000001
 43
0.0000000001
 40
0.0
 40
0.0
 40
0.0
 40
0.0
 40
1.0
 40
1.0
 40
1.0
 40
2.0
 40
2.0
 40
2.0
 40
3.0
 40
3.0
 40
3.0
 40
4.0
 40
4.0
 40
4.0
 40
5.0
 40
5.0
 40
5.0
 40
6.0
 40
6.0
 40
6.0
 40
6.0
 10
3.263400607638889
 20
-3.448988172743055
 30
0.0
 10
3.269917805989583
 20
-3.396735297309028
 30
0.0
 10
3.305535210503472
 20
-3.351169162326389
 30
0.0
 10
3.327053493923611
 20
-3.32794189453125
 30
0.0
 10
3.327053493923611
 20
-3.32794189453125
 30
0.0
 10
4.698160807291666
 20
-3.32794189453125
 30
0.0
 10
4.698160807291666
 20
-3.32794189453125
 30
0.0
 10
4.7215576171875
 20
-3.353461371527778
 30
0.0
 10
4.755466037326388
 20
-3.399759928385417
 30
0.0
 10
4.761583116319444
 20
-3.449150933159722
 30
0.0
 10
4.766384548611111
 20
-3.486558702256944
 30
0.0
 10
4.7181396484375
 20
-3.543626573350694
 30
0.0
 10
4.676554361979166
 20
-3.579074435763889
 30
0.0
 10
4.676554361979166
 20
-3.579074435763889
 30
0.0
 10
3.348904079861111
 20
-3.579074435763889
 30
0.0
 10
3.348904079861111
 20
-3.579074435763889
 30
0.0
 10
3.307169596354167
 20
-3.54345703125
 30
0.0
 10
3.2589111328125
 20
-3.486558702256944
 30
0.0
 10
3.263400607638889
 20
-3.448988172743055
 30
0.0
  0
POLYLINE
  5
58
330
1F
100
AcDbEntity
  8
Layer 1
370
     0
100
AcDb2dPolyline
 66
     1
 10
0.0
 20
0.0
 30
0.0
  0
VERTEX
  5
59
330
58
100
AcDbEntity
  8
Layer 1
370
     0
100
AcDbVertex
100
AcDb2dVertex
 10
3.369283040364583
 20
-3.717074924045139
 30
0.0
  0
VERTEX
  5
5A
330
58
100
AcDbEntity
  8
Layer 1
370
     0
100
AcDbVertex
100
AcDb2dVertex
 10
4.656114366319444
 20
-3.717074924045139
 30
0.0
  0
VERTEX
  5
5B
330
58
100
AcDbEntity
  8
Layer 1
370
     0
100
AcDbVertex
100
AcDb2dVertex
 10
4.931125217013888
 20
-4.319851345486111
 30
0.0
  0
VERTEX
  5
5C
330
58
100
AcDbEntity
  8
Layer 1
370
     0
100
AcDbVertex
100
AcDb2dVertex
 10
3.094835069444444
 20
-4.318630642361111
 30
0.0
  0
VERTEX
  5
5D
330
58
100
AcDbEntity
  8
Layer 1
370
     0
100
AcDbVertex
100
AcDb2dVertex
 10
3.369283040364583
 20
-3.717074924045139
 30
0.0
  0
SEQEND
  5
5E
330
58
100
AcDbEntity
  8
Layer 1
370
     0
  0
POLYLINE
  5
5F
330
1F
100
AcDbEntity
  8
Layer 1
370
     0
100
AcDb2dPolyline
 66
     1
 10
0.0
 20
0.0
 30
0.0
  0
VERTEX
  5
60
330
5F
100
AcDbEntity
  8
Layer 1
370
     0
100
AcDbVertex
100
AcDb2dVertex
 10
3.0565185546875
 20
-8.082573784722221
 30
0.0
  0
VERTEX
  5
61
330
5F
100
AcDbEntity
  8
Layer 1
370
     0
100
AcDbVertex
100
AcDb2dVertex
 10
3.0565185546875
 20
-4.456793891059028
 30
0.0
  0
VERTEX
  5
62
330
5F
100
AcDbEntity
  8
Layer 1
370
     0
100
AcDbVertex
100
AcDb2dVertex
 10
4.968858506944444
 20
-4.456793891059028
 30
0.0
  0
VERTEX
  5
63
330
5F
100
AcDbEntity
  8
Layer 1
370
     0
100
AcDbVertex
100
AcDb2dVertex
 10
4.968858506944444
 20
-8.082573784722221
 30
0.0
  0
VERTEX
  5
64
330
5F
100
AcDbEntity
  8
Layer 1
370
     0
100
AcDbVertex
100
AcDb2dVertex
 10
3.0565185546875
 20
-8.082573784722221
 30
0.0
  0
SEQEND
  5
65
330
5F
100
AcDbEntity
  8
Layer 1
370
     0
  0
POLYLINE
  5
66
330
1F
100
AcDbEntity
  8
Layer 1
370
     0
100
AcDb2dPolyline
 66
     1
 10
0.0
 20
0.0
 30
0.0
  0
VERTEX
  5
67
330
66
100
AcDbEntity
  8
Layer 1
370
     0
100
AcDbVertex
100
AcDb2dVertex
 10
5.107096354166666
 20
-4.471625434027778
 30
0.0
  0
VERTEX
  5
68
330
66
100
AcDbEntity
  8
Layer 1
370
     0
100
AcDbVertex
100
AcDb2dVertex
 10
6.097954644097222
 20
-4.665215386284722
 30
0.0
  0
VERTEX
  5
69
330
66
100
AcDbEntity
  8
Layer 1
370
     0
100
AcDbVertex
100
AcDb2dVertex
 10
6.097954644097222
 20
-7.886379665798611
 30
0.0
  0
VERTEX
  5
6A
330
66
100
AcDbEntity
  8
Layer 1
370
     0
100
AcDbVertex
100
AcDb2dVertex
 10
5.107096354166666
 20
-8.068562825520832
 30
0.0
  0
VERTEX
  5
6B
330
66
100
AcDbEntity
  8
Layer 1
370
     0
100
AcDbVertex
100
AcDb2dVertex
 10
5.107096354166666
 20
-4.471625434027778
 30
0.0
  0
SEQEND
  5
6C
330
66
100
AcDbEntity
  8
Layer 1
370
     0
  0
SPLINE
  5
6D
330
1F
100
AcDbEntity
  8
Layer 1
370
     0
100
AcDbSpline
210
0.0
220
0.0
230
1.0
 70
    11
 71
     3
 72
    23
 73
    19
 74
     0
 42
0.0000000001
 43
0.0000000001
 40
0.0
 40
0.0
 40
0.0
 40
0.0
 40
1.0
 40
1.0
 40
1.0
 40
2.0
 40
2.0
 40
2.0
 40
3.0
 40
3.0
 40
3.0
 40
4.0
 40
4.0
 40
4.0
 40
5.0
 40
5.0
 40
5.0
 40
6.0
 40
6.0
 40
6.0
 40
6.0
 10
5.569268120659722
 20
-3.797288682725694
 30
0.0
 10
5.569268120659722
 20
-3.797288682725694
 30
0.0
 10
4.836724175347222
 20
-3.611443413628472
 30
0.0
 10
4.836724175347222
 20
-3.611443413628472
 30
0.0
 10
4.8746337890625
 20
-3.563022189670139
 30
0.0
 10
4.9072265625
 20
-3.499850802951389
 30
0.0
 10
4.899007161458333
 20
-3.431708441840278
 30
0.0
 10
4.897216796875
 20
-3.416463216145833
 30
0.0
 10
4.893459743923611
 20
-3.40179443359375
 30
0.0
 10
4.889390733506944
 20
-3.3876953125
 30
0.0
 10
4.889390733506944
 20
-3.3876953125
 30
0.0
 10
5.542222764756944
 20
-3.611768934461805
 30
0.0
 10
5.542222764756944
 20
-3.611768934461805
 30
0.0
 10
5.544569227430555
 20
-3.612338595920139
 30
0.0
 10
5.604899088541666
 20
-3.626437717013889
 30
0.0
 10
5.604899088541666
 20
-3.712924533420139
 30
0.0
 10
5.604899088541666
 20
-3.771450466579861
 30
0.0
 10
5.582316080729166
 20
-3.790601942274305
 30
0.0
 10
5.569268120659722
 20
-3.797288682725694
 30
0.0
  0
SPLINE
  5
6E
330
1F
100
AcDbEntity
  8
Layer 1
370
     0
100
AcDbSpline
210
0.0
220
0.0
230
1.0
 70
    11
 71
     3
 72
    56
 73
    52
 74
     0
 42
0.0000000001
 43
0.0000000001
 40
0.0
 40
0.0
 40
0.0
 40
0.0
 40
1.0
 40
1.0
 40
1.0
 40
2.0
 40
2.0
 40
2.0
 40
3.0
 40
3.0
 40
3.0
 40
4.0
 40
4.0
 40
4.0
 40
5.0
 40
5.0
 40
5.0
 40
6.0
 40
6.0
 40
6.0
 40
7.0
 40
7.0
 40
7.0
 40
8.0
 40
8.0
 40
8.0
 40
9.0
 40
9.0
 40
9.0
 40
10.0
 40
10.0
 40
10.0
 40
11.0
 40
11.0
 40
11.0
 40
12.0
 40
12.0
 40
12.0
 40
13.0
 40
13.0
 40
13.0
 40
14.0
 40
14.0
 40
14.0
 40
15.0
 40
15.0
 40
15.0
 40
16.0
 40
16.0
 40
16.0
 40
17.0
 40
17.0
 40
17.0
 40
17.0
 10
4.668009440104166
 20
-1.385850694444444
 30
0.0
 10
4.798258463541666
 20
-1.455546061197917
 30
0.0
 10
4.780490451388888
 20
-1.491170247395833
 30
0.0
 10
4.757568359375
 20
-1.536566840277778
 30
0.0
 10
4.757568359375
 20
-1.536566840277778
 30
0.0
 10
4.755466037326388
 20
-1.540561252170139
 30
0.0
 10
4.755466037326388
 20
-1.540561252170139
 30
0.0
 10
4.752034505208333
 20
-1.5477294921875
 30
0.0
 10
4.743408203125
 20
-1.562493218315972
 30
0.0
 10
4.731743706597222
 20
-1.582865397135417
 30
0.0
 10
4.599541558159722
 20
-1.813062879774305
 30
0.0
 10
4.466986762152778
 20
-2.068589952256944
 30
0.0
 10
4.489420572916666
 20
-2.217759874131944
 30
0.0
 10
4.530571831597222
 20
-2.491963704427083
 30
0.0
 10
4.7789306640625
 20
-2.601352267795139
 30
0.0
 10
5.018907335069444
 20
-2.7071533203125
 30
0.0
 10
5.041734483506944
 20
-2.717339409722222
 30
0.0
 10
5.064629448784722
 20
-2.727444118923611
 30
0.0
 10
5.087537977430555
 20
-2.737718370225694
 30
0.0
 10
5.087537977430555
 20
-2.737718370225694
 30
0.0
 10
5.1263427734375
 20
-2.7552490234375
 30
0.0
 10
5.1263427734375
 20
-2.7552490234375
 30
0.0
 10
5.365410698784722
 20
-2.861945258246528
 30
0.0
 10
5.571560329861111
 20
-2.954542371961805
 30
0.0
 10
5.592095269097222
 20
-3.14910888671875
 30
0.0
 10
5.607815212673611
 20
-3.297539605034722
 30
0.0
 10
5.560560438368055
 20
-3.407090928819444
 30
0.0
 10
5.529256184895833
 20
-3.461378309461805
 30
0.0
 10
5.529256184895833
 20
-3.461378309461805
 30
0.0
 10
4.805433485243055
 20
-3.212687174479167
 30
0.0
 10
4.805433485243055
 20
-3.212687174479167
 30
0.0
 10
4.8258056640625
 20
-3.085116916232639
 30
0.0
 10
4.805514865451388
 20
-2.817762586805555
 30
0.0
 10
4.681776258680555
 20
-2.637464735243055
 30
0.0
 10
4.617947048611111
 20
-2.54510498046875
 30
0.0
 10
4.545166015625
 20
-2.472974989149305
 30
0.0
 10
4.473198784722222
 20
-2.412651909722222
 30
0.0
 10
4.375705295138888
 20
-2.331305609809028
 30
0.0
 10
4.339925130208333
 20
-2.242947048611111
 30
0.0
 10
4.327853732638888
 20
-2.146843804253472
 30
0.0
 10
4.3172607421875
 20
-2.059705946180555
 30
0.0
 10
4.352796766493055
 20
-1.983011881510417
 30
0.0
 10
4.393798828125
 20
-1.894076877170139
 30
0.0
 10
4.436102973090278
 20
-1.803276909722222
 30
0.0
 10
4.484103732638888
 20
-1.700080023871528
 30
0.0
 10
4.484103732638888
 20
-1.571295844184028
 30
0.0
 10
4.484103732638888
 20
-1.456522623697917
 30
0.0
 10
4.442057291666666
 20
-1.364176432291667
 30
0.0
 10
4.393147786458333
 20
-1.295213487413194
 30
0.0
 10
4.453301323784722
 20
-1.303446451822917
 30
0.0
 10
4.555270724826388
 20
-1.325697157118056
 30
0.0
 10
4.668009440104166
 20
-1.385850694444444
 30
0.0
  0
SPLINE
  5
6F
330
1F
100
AcDbEntity
  8
Layer 1
370
     0
100
AcDbSpline
210
0.0
220
0.0
230
1.0
 70
    11
 71
     3
 72
    20
 73
    16
 74
     0
 42
0.0000000001
 43
0.0000000001
 40
0.0
 40
0.0
 40
0.0
 40
0.0
 40
1.0
 40
1.0
 40
1.0
 40
2.0
 40
2.0
 40
2.0
 40
3.0
 40
3.0
 40
3.0
 40
4.0
 40
4.0
 40
4.0
 40
5.0
 40
5.0
 40
5.0
 40
5.0
 10
3.7144775390625
 20
-0.43902587890625
 30
0.0
 10
3.7144775390625
 20
-0.2733086480034722
 30
0.0
 10
3.84954833984375
 20
-0.1383260091145833
 30
0.0
 10
4.0155029296875
 20
-0.1383260091145833
 30
0.0
 10
4.181206597222222
 20
-0.1383260091145833
 30
0.0
 10
4.316107855902778
 20
-0.2733086480034722
 30
0.0
 10
4.316107855902778
 20
-0.43902587890625
 30
0.0
 10
4.316107855902778
 20
-0.5404188368055556
 30
0.0
 10
4.265584309895833
 20
-0.6304050021701388
 30
0.0
 10
4.188381618923611
 20
-0.6846923828125
 30
0.0
 10
4.188381618923611
 20
-0.6846923828125
 30
0.0
 10
3.842366536458333
 20
-0.6846923828125
 30
0.0
 10
3.842366536458333
 20
-0.6846923828125
 30
0.0
 10
3.765346950954861
 20
-0.6304050021701388
 30
0.0
 10
3.7144775390625
 20
-0.5404188368055556
 30
0.0
 10
3.7144775390625
 20
-0.43902587890625
 30
0.0
  0
SPLINE
  5
70
330
1F
100
AcDbEntity
  8
Layer 1
370
     0
100
AcDbSpline
210
0.0
220
0.0
230
1.0
 70
    11
 71
     3
 72
    56
 73
    52
 74
     0
 42
0.0000000001
 43
0.0000000001
 40
0.0
 40
0.0
 40
0.0
 40
0.0
 40
1.0
 40
1.0
 40
1.0
 40
2.0
 40
2.0
 40
2.0
 40
3.0
 40
3.0
 40
3.0
 40
4.0
 40
4.0
 40
4.0
 40
5.0
 40
5.0
 40
5.0
 40
6.0
 40
6.0
 40
6.0
 40
7.0
 40
7.0
 40
7.0
 40
8.0
 40
8.0
 40
8.0
 40
9.0
 40
9.0
 40
9.0
 40
10.0
 40
10.0
 40
10.0
 40
11.0
 40
11.0
 40
11.0
 40
12.0
 40
12.0
 40
12.0
 40
13.0
 40
13.0
 40
13.0
 40
14.0
 40
14.0
 40
14.0
 40
15.0
 40
15.0
 40
15.0
 40
16.0
 40
16.0
 40
16.0
 40
17.0
 40
17.0
 40
17.0
 40
17.0
 10
2.43328857421875
 20
-3.14910888671875
 30
0.0
 10
2.453579372829861
 20
-2.954542371961805
 30
0.0
 10
2.659810384114583
 20
-2.861945258246528
 30
0.0
 10
2.898634168836805
 20
-2.7552490234375
 30
0.0
 10
2.898634168836805
 20
-2.7552490234375
 30
0.0
 10
2.937920464409722
 20
-2.737718370225694
 30
0.0
 10
2.937920464409722
 20
-2.737718370225694
 30
0.0
 10
2.960584852430555
 20
-2.727444118923611
 30
0.0
 10
2.983656141493055
 20
-2.717339409722222
 30
0.0
 10
3.006388346354167
 20
-2.7071533203125
 30
0.0
 10
3.246527777777778
 20
-2.601352267795139
 30
0.0
 10
3.494730631510417
 20
-2.491963704427083
 30
0.0
 10
3.535888671875
 20
-2.217759874131944
 30
0.0
 10
3.558464898003472
 20
-2.068589952256944
 30
0.0
 10
3.426011827256944
 20
-1.813062879774305
 30
0.0
 10
3.293558756510417
 20
-1.582865397135417
 30
0.0
 10
3.281982421875
 20
-1.562493218315972
 30
0.0
 10
3.273342556423611
 20
-1.5477294921875
 30
0.0
 10
3.269755045572917
 20
-1.540561252170139
 30
0.0
 10
3.269755045572917
 20
-1.540561252170139
 30
0.0
 10
3.26763916015625
 20
-1.536566840277778
 30
0.0
 10
3.26763916015625
 20
-1.536566840277778
 30
0.0
 10
3.245144314236111
 20
-1.491170247395833
 30
0.0
 10
3.226962619357639
 20
-1.455546061197917
 30
0.0
 10
3.357381184895833
 20
-1.385850694444444
 30
0.0
 10
3.468804253472222
 20
-1.326592339409722
 30
0.0
 10
3.57159423828125
 20
-1.303941514756944
 30
0.0
 10
3.631991916232639
 20
-1.295545789930556
 30
0.0
 10
3.583333333333333
 20
-1.364332411024306
 30
0.0
 10
3.541029188368055
 20
-1.456766764322917
 30
0.0
 10
3.541029188368055
 20
-1.571295844184028
 30
0.0
 10
3.541029188368055
 20
-1.700080023871528
 30
0.0
 10
3.589124891493055
 20
-1.803276909722222
 30
0.0
 10
3.631585015190972
 20
-1.894076877170139
 30
0.0
 10
3.672831217447917
 20
-1.983011881510417
 30
0.0
 10
3.708204481336805
 20
-2.059705946180555
 30
0.0
 10
3.697441948784722
 20
-2.146843804253472
 30
0.0
 10
3.685458713107639
 20
-2.242947048611111
 30
0.0
 10
3.678046332465278
 20
-2.307176378038194
 30
0.0
 10
3.580478244357639
 20
-2.388766818576389
 30
0.0
 10
3.508260091145833
 20
-2.448845757378472
 30
0.0
 10
3.383951822916667
 20
-2.54144287109375
 30
0.0
 10
3.32012939453125
 20
-2.633795844184028
 30
0.0
 10
3.196316189236111
 20
-2.814581976996528
 30
0.0
 10
3.199252658420139
 20
-3.085116916232639
 30
0.0
 10
3.219950358072917
 20
-3.212687174479167
 30
0.0
 10
3.219950358072917
 20
-3.212687174479167
 30
0.0
 10
2.495883517795139
 20
-3.461378309461805
 30
0.0
 10
2.495883517795139
 20
-3.461378309461805
 30
0.0
 10
2.464836968315972
 20
-3.407090928819444
 30
0.0
 10
2.417717827690972
 20
-3.297214084201389
 30
0.0
 10
2.43328857421875
 20
-3.14910888671875
 30
0.0
  0
SPLINE
  5
71
330
1F
100
AcDbEntity
  8
Layer 1
370
     0
100
AcDbSpline
210
0.0
220
0.0
230
1.0
 70
    11
 71
     3
 72
    23
 73
    19
 74
     0
 42
0.0000000001
 43
0.0000000001
 40
0.0
 40
0.0
 40
0.0
 40
0.0
 40
1.0
 40
1.0
 40
1.0
 40
2.0
 40
2.0
 40
2.0
 40
3.0
 40
3.0
 40
3.0
 40
4.0
 40
4.0
 40
4.0
 40
5.0
 40
5.0
 40
5.0
 40
6.0
 40
6.0
 40
6.0
 40
6.0
 10
2.48333740234375
 20
-3.611768934461805
 30
0.0
 10
2.48333740234375
 20
-3.611768934461805
 30
0.0
 10
3.135999891493055
 20
-3.3876953125
 30
0.0
 10
3.135999891493055
 20
-3.3876953125
 30
0.0
 10
3.131673177083333
 20
-3.40179443359375
 30
0.0
 10
3.128336588541667
 20
-3.416463216145833
 30
0.0
 10
3.126376681857639
 20
-3.431708441840278
 30
0.0
 10
3.117824978298611
 20
-3.499850802951389
 30
0.0
 10
3.150580512152778
 20
-3.563022189670139
 30
0.0
 10
3.188571506076389
 20
-3.611443413628472
 30
0.0
 10
3.188571506076389
 20
-3.611443413628472
 30
0.0
 10
2.45562744140625
 20
-3.797288682725694
 30
0.0
 10
2.45562744140625
 20
-3.797288682725694
 30
0.0
 10
2.443067762586805
 20
-3.791015625
 30
0.0
 10
2.420572916666667
 20
-3.771769205729167
 30
0.0
 10
2.420572916666667
 20
-3.712924533420139
 30
0.0
 10
2.420572916666667
 20
-3.634345160590278
 30
0.0
 10
2.469475640190972
 20
-3.615431043836805
 30
0.0
 10
2.48333740234375
 20
-3.611768934461805
 30
0.0
  0
POLYLINE
  5
72
330
1F
100
AcDbEntity
  8
Layer 1
370
     0
100
AcDb2dPolyline
 66
     1
 10
0.0
 20
0.0
 30
0.0
  0
VERTEX
  5
73
330
72
100
AcDbEntity
  8
Layer 1
370
     0
100
AcDbVertex
100
AcDb2dVertex
 10
2.494425455729167
 20
-3.929979112413194
 30
0.0
  0
VERTEX
  5
74
330
72
100
AcDbEntity
  8
Layer 1
370
     0
100
AcDbVertex
100
AcDb2dVertex
 10
3.202019585503472
 20
-3.750495062934028
 30
0.0
  0
VERTEX
  5
75
330
72
100
AcDbEntity
  8
Layer 1
370
     0
100
AcDbVertex
100
AcDb2dVertex
 10
2.939229329427083
 20
-4.326700846354166
 30
0.0
  0
VERTEX
  5
76
330
72
100
AcDbEntity
  8
Layer 1
370
     0
100
AcDbVertex
100
AcDb2dVertex
 10
2.031107584635417
 20
-4.504313151041666
 30
0.0
  0
VERTEX
  5
77
330
72
100
AcDbEntity
  8
Layer 1
370
     0
100
AcDbVertex
100
AcDb2dVertex
 10
2.494425455729167
 20
-3.929979112413194
 30
0.0
  0
SEQEND
  5
78
330
72
100
AcDbEntity
  8
Layer 1
370
     0
  0
POLYLINE
  5
79
330
1F
100
AcDbEntity
  8
Layer 1
370
     0
100
AcDb2dPolyline
 66
     1
 10
0.0
 20
0.0
 30
0.0
  0
VERTEX
  5
7A
330
79
100
AcDbEntity
  8
Layer 1
370
     0
100
AcDbVertex
100
AcDb2dVertex
 10
2.008856879340278
 20
-8.0419921875
 30
0.0
  0
VERTEX
  5
7B
330
79
100
AcDbEntity
  8
Layer 1
370
     0
100
AcDbVertex
100
AcDb2dVertex
 10
2.938978407118055
 20
-8.212999131944445
 30
0.0
  0
VERTEX
  5
7C
330
79
100
AcDbEntity
  8
Layer 1
370
     0
100
AcDbVertex
100
AcDb2dVertex
 10
3.196072048611111
 20
-8.788709852430555
 30
0.0
  0
VERTEX
  5
7D
330
79
100
AcDbEntity
  8
Layer 1
370
     0
100
AcDbVertex
100
AcDb2dVertex
 10
2.430840386284722
 20
-8.659423828125
 30
0.0
  0
VERTEX
  5
7E
330
79
100
AcDbEntity
  8
Layer 1
370
     0
100
AcDbVertex
100
AcDb2dVertex
 10
2.008856879340278
 20
-8.0419921875
 30
0.0
  0
SEQEND
  5
7F
330
79
100
AcDbEntity
  8
Layer 1
370
     0
  0
SPLINE
  5
80
330
1F
100
AcDbEntity
  8
Layer 1
370
     0
100
AcDbSpline
210
0.0
220
0.0
230
1.0
 70
    11
 71
     3
 72
    23
 73
    19
 74
     0
 42
0.0000000001
 43
0.0000000001
 40
0.0
 40
0.0
 40
0.0
 40
0.0
 40
1.0
 40
1.0
 40
1.0
 40
2.0
 40
2.0
 40
2.0
 40
3.0
 40
3.0
 40
3.0
 40
4.0
 40
4.0
 40
4.0
 40
5.0
 40
5.0
 40
5.0
 40
6.0
 40
6.0
 40
6.0
 40
6.0
 10
2.394076877170139
 20
-8.793280707465277
 30
0.0
 10
2.394076877170139
 20
-8.793280707465277
 30
0.0
 10
3.165256076388889
 20
-8.923787434895832
 30
0.0
 10
3.165256076388889
 20
-8.923787434895832
 30
0.0
 10
3.134202745225694
 20
-8.962904188368055
 30
0.0
 10
3.106974283854167
 20
-9.011067708333332
 30
0.0
 10
3.100294325086805
 20
-9.064548068576388
 30
0.0
 10
3.09490966796875
 20
-9.107991536458332
 30
0.0
 10
3.101352267795139
 20
-9.147284613715277
 30
0.0
 10
3.114149305555555
 20
-9.182088216145832
 30
0.0
 10
3.114149305555555
 20
-9.182088216145832
 30
0.0
 10
2.403781467013889
 20
-8.992255316840277
 30
0.0
 10
2.403781467013889
 20
-8.992255316840277
 30
0.0
 10
2.400682237413194
 20
-8.991834852430555
 30
0.0
 10
2.329522026909722
 20
-8.976521809895832
 30
0.0
 10
2.329522026909722
 20
-8.891248914930555
 30
0.0
 10
2.329522026909722
 20
-8.824910481770832
 30
0.0
 10
2.37158203125
 20
-8.801255967881945
 30
0.0
 10
2.394076877170139
 20
-8.793280707465277
 30
0.0
  0
SPLINE
  5
81
330
1F
100
AcDbEntity
  8
Layer 1
370
     0
100
AcDbSpline
210
0.0
220
0.0
230
1.0
 70
    11
 71
     3
 72
    29
 73
    25
 74
     0
 42
0.0000000001
 43
0.0000000001
 40
0.0
 40
0.0
 40
0.0
 40
0.0
 40
1.0
 40
1.0
 40
1.0
 40
2.0
 40
2.0
 40
2.0
 40
3.0
 40
3.0
 40
3.0
 40
4.0
 40
4.0
 40
4.0
 40
5.0
 40
5.0
 40
5.0
 40
6.0
 40
6.0
 40
6.0
 40
7.0
 40
7.0
 40
7.0
 40
8.0
 40
8.0
 40
8.0
 40
8.0
 10
2.958631727430555
 20
-9.883734809027777
 30
0.0
 10
2.907436794704861
 20
-9.852105034722221
 30
0.0
 10
2.846306694878472
 20
-9.826280381944445
 30
0.0
 10
2.781500922309028
 20
-9.798787434895832
 30
0.0
 10
2.626057942708333
 20
-9.733194986979166
 30
0.0
 10
2.449510362413194
 20
-9.658759223090277
 30
0.0
 10
2.376064724392361
 20
-9.487006293402777
 30
0.0
 10
2.30328369140625
 20
-9.317057291666666
 30
0.0
 10
2.373623318142361
 20
-9.190809461805555
 30
0.0
 10
2.413974338107639
 20
-9.138075086805555
 30
0.0
 10
2.413974338107639
 20
-9.138075086805555
 30
0.0
 10
3.200798882378472
 20
-9.34853786892361
 30
0.0
 10
3.200798882378472
 20
-9.34853786892361
 30
0.0
 10
3.123772515190972
 20
-9.4879150390625
 30
0.0
 10
3.06549072265625
 20
-9.713785807291666
 30
0.0
 10
3.201612684461805
 20
-9.927747938368055
 30
0.0
 10
3.252149793836805
 20
-10.00705295138889
 30
0.0
 10
3.355014377170139
 20
-10.10934787326389
 30
0.0
 10
3.442647298177083
 20
-10.18972439236111
 30
0.0
 10
3.351345486111111
 20
-10.17578125
 30
0.0
 10
3.29705810546875
 20
-10.16193305121528
 30
0.0
 10
3.273179796006944
 20
-10.15516493055556
 30
0.0
 10
3.23291015625
 20
-10.10976833767361
 30
0.0
 10
3.106648763020833
 20
-9.974527994791666
 30
0.0
 10
2.958631727430555
 20
-9.883734809027777
 30
0.0
  0
SPLINE
  5
82
330
1F
100
AcDbEntity
  8
Layer 1
370
     0
100
AcDbSpline
210
0.0
220
0.0
230
1.0
 70
    11
 71
     3
 72
    20
 73
    16
 74
     0
 42
0.0000000001
 43
0.0000000001
 40
0.0
 40
0.0
 40
0.0
 40
0.0
 40
1.0
 40
1.0
 40
1.0
 40
2.0
 40
2.0
 40
2.0
 40
3.0
 40
3.0
 40
3.0
 40
4.0
 40
4.0
 40
4.0
 40
5.0
 40
5.0
 40
5.0
 40
5.0
 10
3.427232530381944
 20
-10.76512315538194
 30
0.0
 10
3.330159505208333
 20
-10.66029188368056
 30
0.0
 10
3.304728190104167
 20
-10.44249131944444
 30
0.0
 10
3.301703559027778
 20
-10.30449761284722
 30
0.0
 10
3.3577880859375
 20
-10.31688096788194
 30
0.0
 10
3.441657172309028
 20
-10.33155653211806
 30
0.0
 10
3.558871799045139
 20
-10.3441162109375
 30
0.0
 10
3.549587673611111
 20
-10.45088704427083
 30
0.0
 10
3.540615505642361
 20
-10.63445366753472
 30
0.0
 10
3.568332248263889
 20
-10.77384440104167
 30
0.0
 10
3.576809353298611
 20
-10.81621636284722
 30
0.0
 10
3.592047797309028
 20
-10.85453287760417
 30
0.0
 10
3.6107177734375
 20
-10.88925509982639
 30
0.0
 10
3.539883083767361
 20
-10.85560438368056
 30
0.0
 10
3.473375108506944
 20
-10.81452094184028
 30
0.0
 10
3.427232530381944
 20
-10.76512315538194
 30
0.0
  0
SPLINE
  5
83
330
1F
100
AcDbEntity
  8
Layer 1
370
     0
100
AcDbSpline
210
0.0
220
0.0
230
1.0
 70
    11
 71
     3
 72
    23
 73
    19
 74
     0
 42
0.0000000001
 43
0.0000000001
 40
0.0
 40
0.0
 40
0.0
 40
0.0
 40
1.0
 40
1.0
 40
1.0
 40
2.0
 40
2.0
 40
2.0
 40
3.0
 40
3.0
 40
3.0
 40
4.0
 40
4.0
 40
4.0
 40
5.0
 40
5.0
 40
5.0
 40
6.0
 40
6.0
 40
6.0
 40
6.0
 10
4.011589898003472
 20
-11.54615614149306
 30
0.0
 10
4.011589898003472
 20
-11.54615614149306
 30
0.0
 10
4.010036892361111
 20
-11.54615614149306
 30
0.0
 10
4.010036892361111
 20
-11.54615614149306
 30
0.0
 10
3.940110948350694
 20
-11.54534233940972
 30
0.0
 10
3.884107801649305
 20
-11.48771158854167
 30
0.0
 10
3.884921603732639
 20
-11.41777886284722
 30
0.0
 10
3.8857421875
 20
-11.35875108506944
 30
0.0
 10
3.927395290798611
 20
-11.30952962239583
 30
0.0
 10
3.983798556857639
 20
-11.29657660590278
 30
0.0
 10
3.983798556857639
 20
-11.29657660590278
 30
0.0
 10
4.040934244791666
 20
-11.29657660590278
 30
0.0
 10
4.040934244791666
 20
-11.29657660590278
 30
0.0
 10
4.097337510850695
 20
-11.31003146701389
 30
0.0
 10
4.13916015625
 20
-11.36104329427083
 30
0.0
 10
4.138095431857638
 20
-11.42111545138889
 30
0.0
 10
4.137363009982638
 20
-11.49015299479167
 30
0.0
 10
4.080390082465278
 20
-11.54615614149306
 30
0.0
 10
4.011589898003472
 20
-11.54615614149306
 30
0.0
  0
SPLINE
  5
84
330
1F
100
AcDbEntity
  8
Layer 1
370
     0
100
AcDbSpline
210
0.0
220
0.0
230
1.0
 70
    11
 71
     3
 72
    20
 73
    16
 74
     0
 42
0.0000000001
 43
0.0000000001
 40
0.0
 40
0.0
 40
0.0
 40
0.0
 40
1.0
 40
1.0
 40
1.0
 40
2.0
 40
2.0
 40
2.0
 40
3.0
 40
3.0
 40
3.0
 40
4.0
 40
4.0
 40
4.0
 40
5.0
 40
5.0
 40
5.0
 40
5.0
 10
4.597900390625
 20
-10.76512315538194
 30
0.0
 10
4.552096896701388
 20
-10.81452094184028
 30
0.0
 10
4.485405815972222
 20
-10.85560438368056
 30
0.0
 10
4.414754231770833
 20
-10.88925509982639
 30
0.0
 10
4.433498806423611
 20
-10.85453287760417
 30
0.0
 10
4.448418511284722
 20
-10.81621636284722
 30
0.0
 10
4.456800672743055
 20
-10.77384440104167
 30
0.0
 10
4.484836154513888
 20
-10.63445366753472
 30
0.0
 10
4.4754638671875
 20
-10.45088704427083
 30
0.0
 10
4.466579861111111
 20
-10.3441162109375
 30
0.0
 10
4.583631727430555
 20
-10.33155653211806
 30
0.0
 10
4.667426215277778
 20
-10.31688096788194
 30
0.0
 10
4.7235107421875
 20
-10.30449761284722
 30
0.0
 10
4.7205810546875
 20
-10.44249131944444
 30
0.0
 10
4.6953125
 20
-10.66029188368056
 30
0.0
 10
4.597900390625
 20
-10.76512315538194
 30
0.0
  0
SPLINE
  5
85
330
1F
100
AcDbEntity
  8
Layer 1
370
     0
100
AcDbSpline
210
0.0
220
0.0
230
1.0
 70
    11
 71
     3
 72
    29
 73
    25
 74
     0
 42
0.0000000001
 43
0.0000000001
 40
0.0
 40
0.0
 40
0.0
 40
0.0
 40
1.0
 40
1.0
 40
1.0
 40
2.0
 40
2.0
 40
2.0
 40
3.0
 40
3.0
 40
3.0
 40
4.0
 40
4.0
 40
4.0
 40
5.0
 40
5.0
 40
5.0
 40
6.0
 40
6.0
 40
6.0
 40
7.0
 40
7.0
 40
7.0
 40
8.0
 40
8.0
 40
8.0
 40
8.0
 10
5.649319118923611
 20
-9.4871826171875
 30
0.0
 10
5.575792100694444
 20
-9.658759223090277
 30
0.0
 10
5.399400499131944
 20
-9.733194986979166
 30
0.0
 10
5.243869357638888
 20
-9.798787434895832
 30
0.0
 10
5.179158528645833
 20
-9.826280381944445
 30
0.0
 10
5.117702907986111
 20
-9.852105034722221
 30
0.0
 10
5.066745334201388
 20
-9.883734809027777
 30
0.0
 10
4.918497721354166
 20
-9.974704318576388
 30
0.0
 10
4.792385525173611
 20
-10.10976833767361
 30
0.0
 10
4.752197265625
 20
-10.15516493055556
 30
0.0
 10
4.728000217013888
 20
-10.16193305121528
 30
0.0
 10
4.674112955729166
 20
-10.17578125
 30
0.0
 10
4.582817925347222
 20
-10.18972439236111
 30
0.0
 10
4.670450846354166
 20
-10.10934787326389
 30
0.0
 10
4.7733154296875
 20
-10.00705295138889
 30
0.0
 10
4.823771158854166
 20
-9.927747938368055
 30
0.0
 10
4.960150824652778
 20
-9.713623046875
 30
0.0
 10
4.901516384548611
 20
-9.4879150390625
 30
0.0
 10
4.8245849609375
 20
-9.34853786892361
 30
0.0
 10
4.8245849609375
 20
-9.34853786892361
 30
0.0
 10
5.611165364583333
 20
-9.138075086805555
 30
0.0
 10
5.611165364583333
 20
-9.138075086805555
 30
0.0
 10
5.651760525173611
 20
-9.190972222222221
 30
0.0
 10
5.722113715277778
 20
-9.317233615451388
 30
0.0
 10
5.649319118923611
 20
-9.4871826171875
 30
0.0
  0
SPLINE
  5
86
330
1F
100
AcDbEntity
  8
Layer 1
370
     0
100
AcDbSpline
210
0.0
220
0.0
230
1.0
 70
    11
 71
     3
 72
    23
 73
    19
 74
     0
 42
0.0000000001
 43
0.0000000001
 40
0.0
 40
0.0
 40
0.0
 40
0.0
 40
1.0
 40
1.0
 40
1.0
 40
2.0
 40
2.0
 40
2.0
 40
3.0
 40
3.0
 40
3.0
 40
4.0
 40
4.0
 40
4.0
 40
5.0
 40
5.0
 40
5.0
 40
6.0
 40
6.0
 40
6.0
 40
6.0
 10
5.621432834201388
 20
-8.992255316840277
 30
0.0
 10
5.621432834201388
 20
-8.992255316840277
 30
0.0
 10
4.911322699652778
 20
-9.182088216145832
 30
0.0
 10
4.911322699652778
 20
-9.182088216145832
 30
0.0
 10
4.924112955729166
 20
-9.147284613715277
 30
0.0
 10
4.930311414930555
 20
-9.107991536458332
 30
0.0
 10
4.924831814236111
 20
-9.064548068576388
 30
0.0
 10
4.918321397569444
 20
-9.011067708333332
 30
0.0
 10
4.891004774305555
 20
-8.962904188368055
 30
0.0
 10
4.860202365451388
 20
-8.923787434895832
 30
0.0
 10
4.860202365451388
 20
-8.923787434895832
 30
0.0
 10
5.631212022569444
 20
-8.793280707465277
 30
0.0
 10
5.631212022569444
 20
-8.793280707465277
 30
0.0
 10
5.651435004340278
 20
-8.800604926215277
 30
0.0
 10
5.695610894097222
 20
-8.8243408203125
 30
0.0
 10
5.695610894097222
 20
-8.891248914930555
 30
0.0
 10
5.695610894097222
 20
-8.969170464409721
 30
0.0
 10
5.638075086805555
 20
-8.988335503472221
 30
0.0
 10
5.621432834201388
 20
-8.992255316840277
 30
0.0
  0
POLYLINE
  5
87
330
1F
100
AcDbEntity
  8
Layer 1
370
     0
100
AcDb2dPolyline
 66
     1
 10
0.0
 20
0.0
 30
0.0
  0
VERTEX
  5
88
330
87
100
AcDbEntity
  8
Layer 1
370
     0
100
AcDbVertex
100
AcDb2dVertex
 10
5.594455295138888
 20
-8.659423828125
 30
0.0
  0
VERTEX
  5
89
330
87
100
AcDbEntity
  8
Layer 1
370
     0
100
AcDbVertex
100
AcDb2dVertex
 10
4.829399956597222
 20
-8.788709852430555
 30
0.0
  0
VERTEX
  5
8A
330
87
100
AcDbEntity
  8
Layer 1
370
     0
100
AcDbVertex
100
AcDb2dVertex
 10
5.086073133680555
 20
-8.212999131944445
 30
0.0
  0
VERTEX
  5
8B
330
87
100
AcDbEntity
  8
Layer 1
370
     0
100
AcDbVertex
100
AcDb2dVertex
 10
6.016438802083333
 20
-8.0419921875
 30
0.0
  0
VERTEX
  5
8C
330
87
100
AcDbEntity
  8
Layer 1
370
     0
100
AcDbVertex
100
AcDb2dVertex
 10
5.594455295138888
 20
-8.659423828125
 30
0.0
  0
SEQEND
  5
8D
330
87
100
AcDbEntity
  8
Layer 1
370
     0
  0
ENDSEC
  0
SECTION
  2
OBJECTS
  0
DICTIONARY
  5
C
330
0
100
AcDbDictionary
281
     1
  3
ACAD_GROUP
350
D
  3
ACAD_LAYOUT
350
1A
  3
ACAD_MLINESTYLE
350
17
  3
ACAD_PLOTSETTINGS
350
19
  3
ACAD_PLOTSTYLENAME
350
E
  3
ACAD_TABLESTYLE
350
8E
  3
ACAD_VISUALSTYLE
350
2A
  0
DICTIONARY
  5
D
102
{ACAD_REACTORS
330
C
102
}
330
C
100
AcDbDictionary
281
     1
  0
DICTIONARY
  5
1A
102
{ACAD_REACTORS
330
C
102
}
330
C
100
AcDbDictionary
281
     1
  3
Layout1
350
1E
  3
Layout2
350
26
  3
Model
350
22
  0
DICTIONARY
  5
17
102
{ACAD_REACTORS
330
C
102
}
330
C
100
AcDbDictionary
281
     1
  3
Standard
350
18
  0
DICTIONARY
  5
19
102
{ACAD_REACTORS
330
C
102
}
330
C
100
AcDbDictionary
281
     1
  0
ACDBDICTIONARYWDFLT
  5
E
102
{ACAD_REACTORS
330
C
102
}
330
C
100
AcDbDictionary
281
     1
  3
Normal
350
F
100
AcDbDictionaryWithDefault
340
F
  0
DICTIONARY
  5
8E
102
{ACAD_REACTORS
330
C
102
}
330
C
100
AcDbDictionary
281
     1
  0
DICTIONARY
  5
2A
102
{ACAD_REACTORS
330
C
102
}
330
C
100
AcDbDictionary
281
     1
  3
2dWireframe
350
2F
  3
3D Hidden
350
31
  3
3dWireframe
350
30
  3
Basic
350
32
  3
Brighten
350
36
  3
ColorChange
350
3A
  3
Conceptual
350
34
  3
Dim
350
35
  3
Facepattern
350
39
  3
Flat
350
2B
  3
FlatWithEdges
350
2C
  3
Gouraud
350
2D
  3
GouraudWithEdges
350
2E
  3
Linepattern
350
38
  3
Realistic
350
33
  3
Thicken
350
37
  0
LAYOUT
  5
1E
102
{ACAD_REACTORS
330
1A
102
}
330
1A
100
AcDbPlotSettings
  1

  2
none_device
  4

  6

 40
0.0
 41
0.0
 42
0.0
 43
0.0
 44
0.0
 45
0.0
 46
0.0
 47
0.0
 48
0.0
 49
0.0
140
0.0
141
0.0
142
1.0
143
1.0
 70
   688
 72
     0
 73
     0
 74
     5
  7

 75
    16
 76
     0
 77
     2
 78
   300
147
1.0
148
0.0
149
0.0
100
AcDbLayout
  1
Layout1
 70
     1
 71
     1
 10
0.0
 20
0.0
 11
12.0
 21
9.0
 12
0.0
 22
0.0
 32
0.0
 14
1.000000000000000E+20
 24
1.000000000000000E+20
 34
1.000000000000000E+20
 15
-1.000000000000000E+20
 25
-1.000000000000000E+20
 35
-1.000000000000000E+20
146
0.0
 13
0.0
 23
0.0
 33
0.0
 16
1.0
 26
0.0
 36
0.0
 17
0.0
 27
1.0
 37
0.0
 76
     0
330
1B
  0
LAYOUT
  5
26
102
{ACAD_REACTORS
330
1A
102
}
330
1A
100
AcDbPlotSettings
  1

  2
none_device
  4

  6

 40
0.0
 41
0.0
 42
0.0
 43
0.0
 44
0.0
 45
0.0
 46
0.0
 47
0.0
 48
0.0
 49
0.0
140
0.0
141
0.0
142
1.0
143
1.0
 70
   688
 72
     0
 73
     0
 74
     5
  7

 75
    16
 76
     0
 77
     2
 78
   300
147
1.0
148
0.0
149
0.0
100
AcDbLayout
  1
Layout2
 70
     1
 71
     2
 10
0.0
 20
0.0
 11
0.0
 21
0.0
 12
0.0
 22
0.0
 32
0.0
 14
0.0
 24
0.0
 34
0.0
 15
0.0
 25
0.0
 35
0.0
146
0.0
 13
0.0
 23
0.0
 33
0.0
 16
1.0
 26
0.0
 36
0.0
 17
0.0
 27
1.0
 37
0.0
 76
     0
330
23
  0
LAYOUT
  5
22
102
{ACAD_REACTORS
330
1A
102
}
330
1A
100
AcDbPlotSettings
  1

  2
none_device
  4

  6

 40
0.0
 41
0.0
 42
0.0
 43
0.0
 44
0.0
 45
0.0
 46
0.0
 47
0.0
 48
0.0
 49
0.0
140
0.0
141
0.0
142
1.0
143
1.0
 70
  1712
 72
     0
 73
     0
 74
     0
  7

 75
     0
 76
     0
 77
     2
 78
   300
147
1.0
148
0.0
149
0.0
100
AcDbLayout
  1
Model
 70
     1
 71
     0
 10
0.0
 20
0.0
 11
12.0
 21
9.0
 12
0.0
 22
0.0
 32
0.0
 14
1.000000000000000E+20
 24
1.000000000000000E+20
 34
1.000000000000000E+20
 15
-1.000000000000000E+20
 25
-1.000000000000000E+20
 35
-1.000000000000000E+20
146
0.0
 13
0.0
 23
0.0
 33
0.0
 16
1.0
 26
0.0
 36
0.0
 17
0.0
 27
1.0
 37
0.0
 76
     0
330
1F
331
29
  0
MLINESTYLE
  5
18
102
{ACAD_REACTORS
330
17
102
}
330
17
100
AcDbMlineStyle
  2
Standard
 70
     0
  3

 62
   256
 51
90.0
 52
90.0
 71
     2
 49
0.5
 62
   256
  6
BYLAYER
 49
-0.5
 62
   256
  6
BYLAYER
  0
ACDBPLACEHOLDER
  5
F
102
{ACAD_REACTORS
330
E
102
}
330
E
  0
VISUALSTYLE
  5
2F
102
{ACAD_REACTORS
330
2A
102
}
330
2A
100
AcDbVisualStyle
  2
2dWireframe
 70
     4
 71
     0
 72
     2
 73
     0
 90
        0
 40
-0.6
 41
-30.0
 62
     5
 63
     7
421
 16777215
 74
     1
 91
        4
 64
     7
 65
   257
 75
     1
175
     1
 42
1.0
 92
        0
 66
   257
 43
1.0
 76
     1
 77
     6
 78
     2
 67
     7
 79
     5
170
     0
171
     0
290
     0
174
     0
 93
        1
 44
0.0
173
     0
291
     0
 45
0.0
1001
ACAD
1000
AcDbSavedByObjectVersion
1070
     0
  0
VISUALSTYLE
  5
31
102
{ACAD_REACTORS
330
2A
102
}
330
2A
100
AcDbVisualStyle
  2
3D Hidden
 70
     6
 71
     1
 72
     2
 73
     2
 90
        0
 40
-0.6
 41
-30.0
 62
     5
 63
     7
421
 16777215
 74
     2
 91
        2
 64
     7
 65
   257
 75
     2
175
     1
 42
40.0
 92
        0
 66
   257
 43
1.0
 76
     1
 77
     6
 78
     2
 67
     7
 79
     3
170
     0
171
     0
290
     0
174
     0
 93
        1
 44
0.0
173
     0
291
     0
 45
0.0
1001
ACAD
1000
AcDbSavedByObjectVersion
1070
     0
  0
VISUALSTYLE
  5
30
102
{ACAD_REACTORS
330
2A
102
}
330
2A
100
AcDbVisualStyle
  2
3dWireframe
 70
     5
 71
     0
 72
     2
 73
     0
 90
        0
 40
-0.6
 41
-30.0
 62
     5
 63
     7
421
 16777215
 74
     1
 91
        4
 64
     7
 65
   257
 75
     1
175
     1
 42
1.0
 92
        0
 66
   257
 43
1.0
 76
     1
 77
     6
 78
     2
 67
     7
 79
     5
170
     0
171
     0
290
     0
174
     0
 93
        1
 44
0.0
173
     0
291
     0
 45
0.0
1001
ACAD
1000
AcDbSavedByObjectVersion
1070
     0
  0
VISUALSTYLE
  5
32
102
{ACAD_REACTORS
330
2A
102
}
330
2A
100
AcDbVisualStyle
  2
Basic
 70
     7
 71
     1
 72
     0
 73
     1
 90
        0
 40
-0.6
 41
-30.0
 62
     5
 63
     7
421
 16777215
 74
     0
 91
        4
 64
     7
 65
   257
 75
     1
175
     1
 42
1.0
 92
        8
 66
     7
 43
1.0
 76
     1
 77
     6
 78
     2
 67
     7
 79
     5
170
     0
171
     0
290
     0
174
     0
 93
        1
 44
0.0
173
     0
291
     1
 45
0.0
1001
ACAD
1000
AcDbSavedByObjectVersion
1070
     0
  0
VISUALSTYLE
  5
36
102
{ACAD_REACTORS
330
2A
102
}
330
2A
100
AcDbVisualStyle
  2
Brighten
 70
    12
 71
     2
 72
     2
 73
     0
 90
        0
 40
-0.6
 41
-30.0
 62
     5
 63
     7
421
 16777215
 74
     1
 91
        4
 64
     7
 65
   257
 75
     1
175
     1
 42
1.0
 92
        8
 66
     7
 43
1.0
 76
     1
 77
     6
 78
     2
 67
     7
 79
     5
170
     0
171
     0
290
     0
174
     0
 93
        1
 44
50.0
173
     0
291
     1
 45
0.0
1001
ACAD
1000
AcDbSavedByObjectVersion
1070
     0
  0
VISUALSTYLE
  5
3A
102
{ACAD_REACTORS
330
2A
102
}
330
2A
100
AcDbVisualStyle
  2
ColorChange
 70
    16
 71
     2
 72
     2
 73
     3
 90
        0
 40
-0.6
 41
-30.0
 62
     5
 63
     8
421
  8421504
 74
     1
 91
        4
 64
     7
 65
   257
 75
     1
175
     1
 42
1.0
 92
        8
 66
     8
424
  8421504
 43
1.0
 76
     1
 77
     6
 78
     2
 67
     7
 79
     5
170
     0
171
     0
290
     0
174
     0
 93
        1
 44
0.0
173
     0
291
     1
 45
0.0
1001
ACAD
1000
AcDbSavedByObjectVersion
1070
     0
  0
VISUALSTYLE
  5
34
102
{ACAD_REACTORS
330
2A
102
}
330
2A
100
AcDbVisualStyle
  2
Conceptual
 70
     9
 71
     3
 72
     2
 73
     0
 90
        0
 40
-0.6
 41
-30.0
 62
     5
 63
     7
421
 16777215
 74
     2
 91
        2
 64
     7
 65
   257
 75
     1
175
     1
 42
40.0
 92
        8
 66
     7
 43
1.0
 76
     1
 77
     6
 78
     2
 67
     7
 79
     3
170
     0
171
     0
290
     0
174
     0
 93
        1
 44
0.0
173
     0
291
     0
 45
0.0
1001
ACAD
1000
AcDbSavedByObjectVersion
1070
     0
  0
VISUALSTYLE
  5
35
102
{ACAD_REACTORS
330
2A
102
}
330
2A
100
AcDbVisualStyle
  2
Dim
 70
    11
 71
     2
 72
     2
 73
     0
 90
        0
 40
-0.6
 41
-30.0
 62
     5
 63
     7
421
 16777215
 74
     1
 91
        4
 64
     7
 65
   257
 75
     1
175
     1
 42
1.0
 92
        8
 66
     7
 43
1.0
 76
     1
 77
     6
 78
     2
 67
     7
 79
     5
170
     0
171
     0
290
     0
174
     0
 93
        1
 44
-50.0
173
     0
291
     1
 45
0.0
1001
ACAD
1000
AcDbSavedByObjectVersion
1070
     0
  0
VISUALSTYLE
  5
39
102
{ACAD_REACTORS
330
2A
102
}
330
2A
100
AcDbVisualStyle
  2
Facepattern
 70
    15
 71
     2
 72
     2
 73
     0
 90
        0
 40
-0.6
 41
-30.0
 62
     5
 63
     7
421
 16777215
 74
     1
 91
        4
 64
     7
 65
   257
 75
     1
175
     1
 42
1.0
 92
        8
 66
     7
 43
1.0
 76
     1
 77
     6
 78
     2
 67
     7
 79
     5
170
     0
171
     0
290
     0
174
     0
 93
        1
 44
0.0
173
     0
291
     1
 45
0.0
1001
ACAD
1000
AcDbSavedByObjectVersion
1070
     0
  0
VISUALSTYLE
  5
2B
102
{ACAD_REACTORS
330
2A
102
}
330
2A
100
AcDbVisualStyle
  2
Flat
 70
     0
 71
     2
 72
     1
 73
     1
 90
        2
 40
-0.6
 41
30.0
 62
     5
 63
     7
421
 16777215
 74
     0
 91
        4
 64
     7
 65
   257
 75
     1
175
     1
 42
1.0
 92
        8
 66
     7
 43
1.0
 76
     1
 77
     6
 78
     2
 67
     7
 79
     5
170
     0
171
     0
290
     0
174
     0
 93
       13
 44
0.0
173
     0
291
     1
 45
0.0
1001
ACAD
1000
AcDbSavedByObjectVersion
1070
     0
  0
VISUALSTYLE
  5
2C
102
{ACAD_REACTORS
330
2A
102
}
330
2A
100
AcDbVisualStyle
  2
FlatWithEdges
 70
     1
 71
     2
 72
     1
 73
     1
 90
        2
 40
-0.6
 41
30.0
 62
     5
 63
     7
421
 16777215
 74
     1
 91
        4
 64
     7
 65
   257
 75
     1
175
     1
 42
1.0
 92
        0
 66
   257
 43
1.0
 76
     1
 77
     6
 78
     2
 67
     7
 79
     5
170
     0
171
     0
290
     0
174
     0
 93
       13
 44
0.0
173
     0
291
     1
 45
0.0
1001
ACAD
1000
AcDbSavedByObjectVersion
1070
     0
  0
VISUALSTYLE
  5
2D
102
{ACAD_REACTORS
330
2A
102
}
330
2A
100
AcDbVisualStyle
  2
Gouraud
 70
     2
 71
     2
 72
     2
 73
     1
 90
        2
 40
-0.6
 41
30.0
 62
     5
 63
     7
421
 16777215
 74
     0
 91
        4
 64
     7
 65
   257
 75
     1
175
     1
 42
1.0
 92
        0
 66
     7
 43
1.0
 76
     1
 77
     6
 78
     2
 67
     7
 79
     5
170
     0
171
     0
290
     0
174
     0
 93
       13
 44
0.0
173
     0
291
     1
 45
0.0
1001
ACAD
1000
AcDbSavedByObjectVersion
1070
     0
  0
VISUALSTYLE
  5
2E
102
{ACAD_REACTORS
330
2A
102
}
330
2A
100
AcDbVisualStyle
  2
GouraudWithEdges
 70
     3
 71
     2
 72
     2
 73
     1
 90
        2
 40
-0.6
 41
30.0
 62
     5
 63
     7
421
 16777215
 74
     1
 91
        4
 64
     7
 65
   257
 75
     1
175
     1
 42
1.0
 92
        0
 66
   257
 43
1.0
 76
     1
 77
     6
 78
     2
 67
     7
 79
     5
170
     0
171
     0
290
     0
174
     0
 93
       13
 44
0.0
173
     0
291
     1
 45
0.0
1001
ACAD
1000
AcDbSavedByObjectVersion
1070
     0
  0
VISUALSTYLE
  5
38
102
{ACAD_REACTORS
330
2A
102
}
330
2A
100
AcDbVisualStyle
  2
Linepattern
 70
    14
 71
     2
 72
     2
 73
     0
 90
        0
 40
-0.6
 41
-30.0
 62
     5
 63
     7
421
 16777215
 74
     1
 91
        4
 64
     7
 65
   257
 75
     7
175
     7
 42
1.0
 92
        8
 66
     7
 43
1.0
 76
     1
 77
     6
 78
     2
 67
     7
 79
     5
170
     0
171
     0
290
     0
174
     0
 93
        1
 44
0.0
173
     0
291
     1
 45
0.0
1001
ACAD
1000
AcDbSavedByObjectVersion
1070
     0
  0
VISUALSTYLE
  5
33
102
{ACAD_REACTORS
330
2A
102
}
330
2A
100
AcDbVisualStyle
  2
Realistic
 70
     8
 71
     2
 72
     2
 73
     0
 90
        0
 40
-0.6
 41
-30.0
 62
     5
 63
     7
421
 16777215
 74
     1
 91
        0
 64
     7
 65
   257
 75
     1
175
     1
 42
1.0
 92
        8
 66
     8
424
  7895160
 43
1.0
 76
     1
 77
     6
 78
     2
 67
     7
 79
     5
170
     0
171
     0
290
     0
174
     0
 93
       13
 44
0.0
173
     0
291
     0
 45
0.0
1001
ACAD
1000
AcDbSavedByObjectVersion
1070
     0
  0
VISUALSTYLE
  5
37
102
{ACAD_REACTORS
330
2A
102
}
330
2A
100
AcDbVisualStyle
  2
Thicken
 70
    13
 71
     2
 72
     2
 73
     0
 90
        0
 40
-0.6
 41
-30.0
 62
     5
 63
     7
421
 16777215
 74
     1
 91
        4
 64
     7
 65
   257
 75
     1
175
     1
 42
1.0
 92
       12
 66
     7
 43
1.0
 76
     1
 77
     6
 78
     2
 67
     7
 79
     5
170
     0
171
     0
290
     0
174
     0
 93
        1
 44
0.0
173
     0
291
     1
 45
0.0
1001
ACAD
1000
AcDbSavedByObjectVersion
1070
     0
  0
ENDSEC
  0
EOF
