<?xml version="1.0" encoding="utf-8"?>
<!-- Generator: Adobe Illustrator 16.0.0, SVG Export Plug-In . SVG Version: 6.00 Build 0)  -->
<!DOCTYPE svg PUBLIC "-//W3C//DTD SVG 1.1//EN" "http://www.w3.org/Graphics/SVG/1.1/DTD/svg11.dtd">
<svg version="1.1" id="Layer_1" xmlns="http://www.w3.org/2000/svg" xmlns:xlink="http://www.w3.org/1999/xlink" x="0px" y="0px"
	 width="595.28px" height="841.89px" viewBox="0 0 595.28 841.89" enable-background="new 0 0 595.28 841.89" xml:space="preserve">
<linearGradient id="SVGID_1_" gradientUnits="userSpaceOnUse" x1="36.7256" y1="420.7739" x2="561" y2="420.7739">
	<stop  offset="0.0056" style="stop-color:#ECC562"/>
	<stop  offset="1" style="stop-color:#C3922E"/>
</linearGradient>
<path fill="url(#SVGID_1_)" d="M561,841.548H36.726V537.441h36.664c0.659-8.351,3.315-18.153,11.359-24.604
	c6.047-4.821,13.045-7.733,20.488-8.592c0.116-7.874,1.803-17.217,7.327-26.057c4.7-7.511,10.922-12.817,17.067-16.543
	c-11.853-12.004-28.038-30.767-40.415-54.109c-10.67-20.115-60.68-126.923,1.774-255.029
	c35.733-73.265,90.356-110.791,129.937-129.36C263.87,2.98,298.364,0.18,299.808,0.078L300.825,0l0.989,0.087
	c1.414,0.092,34.986,2.897,77.029,23.105c38.631,18.598,92.169,56.115,127.854,129.316c62.473,128.129,12.444,234.914,1.755,255.029
	c-12.387,23.342-28.533,42.105-40.387,54.109c6.135,3.726,12.357,9.032,17.068,16.543c5.504,8.84,7.22,18.183,7.316,26.057
	c7.453,0.858,14.45,3.785,20.479,8.592c8.054,6.45,10.738,16.253,11.378,24.604H561V841.548z M62.816,815.435h472.055V563.536
	h-40.124l3.12-15.608c1.164-6.107,0.301-13.481-1.221-14.708c-2.665-2.104-5.475-3.115-8.702-3.115C485.259,530.104,464,532,464,532
	s5.219-30.021-1.013-39.984c-6.387-10.206-20.954-12.968-21.089-12.996l-29.085-4.695l23.027-18.392
	c0.3-0.227,30.52-24.704,49.573-60.621c6.454-12.178,21.815-45.609,25.237-93.36c3.373-47.35-5.845-93.787-27.408-138.01
	C424.337,43.084,312.532,27.515,300.777,26.207c-5.651,0.611-34.784,4.424-69.723,21.031
	c-51.55,24.457-90.772,63.713-116.601,116.704c-21.574,44.223-30.801,90.661-27.418,138.01c3.431,47.746,18.792,81.183,25.257,93.36
	c19.151,36.116,49.244,60.395,49.563,60.621l23.038,18.392l-29.085,4.695c-0.078,0.014-14.654,2.675-21.108,12.996
	c-6.193,9.89-0.7,38.983-0.7,38.983s-21.582-0.895-24.247-0.895c-3.217,0-6.067,1.012-8.704,3.11
	c-1.628,1.328-2.316,9.294-1.24,14.713l3.13,15.608H62.816V815.435z"/>
</svg>
